<?xml version="1.0" encoding="UTF-8" standalone="no"?>
<!DOCTYPE svg PUBLIC "-//W3C//DTD SVG 1.1//EN"
 "http://www.w3.org/Graphics/SVG/1.1/DTD/svg11.dtd">
<!-- Generated by graphviz version 2.36.0 (20140111.2315)
 -->
<!-- Title: WatorController.updateFromCell Pages: 1 -->
<svg width="732pt" height="85pt"
 viewBox="0.00 0.00 732.00 85.00" xmlns="http://www.w3.org/2000/svg" xmlns:xlink="http://www.w3.org/1999/xlink">
<g id="graph0" class="graph" transform="scale(1 1) rotate(0) translate(4 81)">
<title>WatorController.updateFromCell</title>
<polygon fill="white" stroke="none" points="-4,4 -4,-81 728,-81 728,4 -4,4"/>
<!-- Node1 -->
<g id="node1" class="node"><title>Node1</title>
<polygon fill="#bfbfbf" stroke="black" points="0.5,-38.5 0.5,-57.5 167.5,-57.5 167.5,-38.5 0.5,-38.5"/>
<text text-anchor="middle" x="84" y="-45.5" font-family="Helvetica,sans-Serif" font-size="10.00">WatorController.updateFromCell</text>
</g>
<!-- Node2 -->
<g id="node2" class="node"><title>Node2</title>
<g id="a_node2"><a xlink:href="../../dc/da7/class_wator_controller.html#a6ebd770acf34cd6be236bc5fca9ec7d3" target="_top" xlink:title="WatorController.getDestination">
<polygon fill="white" stroke="black" points="204.5,-57.5 204.5,-76.5 367.5,-76.5 367.5,-57.5 204.5,-57.5"/>
<text text-anchor="middle" x="286" y="-64.5" font-family="Helvetica,sans-Serif" font-size="10.00">WatorController.getDestination</text>
</a>
</g>
</g>
<!-- Node1&#45;&gt;Node2 -->
<g id="edge1" class="edge"><title>Node1&#45;&gt;Node2</title>
<path fill="none" stroke="midnightblue" d="M167.502,-55.8377C176.337,-56.677 185.359,-57.5341 194.282,-58.3818"/>
<polygon fill="midnightblue" stroke="midnightblue" points="194.012,-61.8718 204.299,-59.3334 194.674,-54.9032 194.012,-61.8718"/>
</g>
<!-- Node3 -->
<g id="node3" class="node"><title>Node3</title>
<g id="a_node3"><a xlink:href="../../dc/da7/class_wator_controller.html#ad6ef17a774720254707f22d42c88c781" target="_top" xlink:title="WatorController.makeEligible">
<polygon fill="white" stroke="black" points="210,-19.5 210,-38.5 362,-38.5 362,-19.5 210,-19.5"/>
<text text-anchor="middle" x="286" y="-26.5" font-family="Helvetica,sans-Serif" font-size="10.00">WatorController.makeEligible</text>
</a>
</g>
</g>
<!-- Node1&#45;&gt;Node3 -->
<g id="edge2" class="edge"><title>Node1&#45;&gt;Node3</title>
<path fill="none" stroke="midnightblue" d="M167.502,-40.1623C178.103,-39.1552 188.974,-38.1225 199.619,-37.1112"/>
<polygon fill="midnightblue" stroke="midnightblue" points="200.116,-40.5798 209.74,-36.1497 199.454,-33.6112 200.116,-40.5798"/>
</g>
<!-- Node4 -->
<g id="node4" class="node"><title>Node4</title>
<g id="a_node4"><a xlink:href="../../dc/da7/class_wator_controller.html#a8a5c6aa913ced9603c3a2064bf758e5e" target="_top" xlink:title="WatorController.getNeighbors">
<polygon fill="white" stroke="black" points="404.5,-19.5 404.5,-38.5 561.5,-38.5 561.5,-19.5 404.5,-19.5"/>
<text text-anchor="middle" x="483" y="-26.5" font-family="Helvetica,sans-Serif" font-size="10.00">WatorController.getNeighbors</text>
</a>
</g>
</g>
<!-- Node3&#45;&gt;Node4 -->
<g id="edge3" class="edge"><title>Node3&#45;&gt;Node4</title>
<path fill="none" stroke="midnightblue" d="M362.113,-29C372.602,-29 383.455,-29 394.153,-29"/>
<polygon fill="midnightblue" stroke="midnightblue" points="394.344,-32.5001 404.344,-29 394.344,-25.5001 394.344,-32.5001"/>
</g>
<!-- Node5 -->
<g id="node5" class="node"><title>Node5</title>
<g id="a_node5"><a xlink:href="../../d6/d6e/class_sim_controller.html#a35fd128d12a001430bbf5e52c70f2742" target="_top" xlink:title="SimController.contains">
<polygon fill="white" stroke="black" points="598.5,-38.5 598.5,-57.5 723.5,-57.5 723.5,-38.5 598.5,-38.5"/>
<text text-anchor="middle" x="661" y="-45.5" font-family="Helvetica,sans-Serif" font-size="10.00">SimController.contains</text>
</a>
</g>
</g>
<!-- Node4&#45;&gt;Node5 -->
<g id="edge4" class="edge"><title>Node4&#45;&gt;Node5</title>
<path fill="none" stroke="midnightblue" d="M561.708,-37.389C570.511,-38.3393 579.453,-39.3046 588.176,-40.2463"/>
<polygon fill="midnightblue" stroke="midnightblue" points="587.975,-43.7448 598.293,-41.3385 588.727,-36.7853 587.975,-43.7448"/>
</g>
<!-- Node6 -->
<g id="node6" class="node"><title>Node6</title>
<g id="a_node6"><a xlink:href="../../d5/dda/class_boundary.html#aed4c1bccb93b927e5b052afc5122f72e" target="_top" xlink:title="Boundary.makeCell">
<polygon fill="white" stroke="black" points="607,-0.5 607,-19.5 715,-19.5 715,-0.5 607,-0.5"/>
<text text-anchor="middle" x="661" y="-7.5" font-family="Helvetica,sans-Serif" font-size="10.00">Boundary.makeCell</text>
</a>
</g>
</g>
<!-- Node4&#45;&gt;Node6 -->
<g id="edge5" class="edge"><title>Node4&#45;&gt;Node6</title>
<path fill="none" stroke="midnightblue" d="M561.708,-20.611C573.412,-19.3476 585.362,-18.0575 596.714,-16.832"/>
<polygon fill="midnightblue" stroke="midnightblue" points="597.382,-20.2804 606.948,-15.7272 596.63,-13.3208 597.382,-20.2804"/>
</g>
</g>
</svg>
