<?xml version="1.0" encoding="UTF-8" standalone="no"?>
<!DOCTYPE svg PUBLIC "-//W3C//DTD SVG 1.1//EN"
 "http://www.w3.org/Graphics/SVG/1.1/DTD/svg11.dtd">
<!-- Generated by graphviz version 2.36.0 (20140111.2315)
 -->
<!-- Title: WatorController.getNeighbors Pages: 1 -->
<svg width="734pt" height="28pt"
 viewBox="0.00 0.00 734.00 28.00" xmlns="http://www.w3.org/2000/svg" xmlns:xlink="http://www.w3.org/1999/xlink">
<g id="graph0" class="graph" transform="scale(1 1) rotate(0) translate(4 24)">
<title>WatorController.getNeighbors</title>
<polygon fill="white" stroke="none" points="-4,4 -4,-24 730,-24 730,4 -4,4"/>
<!-- Node1 -->
<g id="node1" class="node"><title>Node1</title>
<polygon fill="#bfbfbf" stroke="black" points="0.5,-0.5 0.5,-19.5 157.5,-19.5 157.5,-0.5 0.5,-0.5"/>
<text text-anchor="middle" x="79" y="-7.5" font-family="Helvetica,sans-Serif" font-size="10.00">WatorController.getNeighbors</text>
</g>
<!-- Node2 -->
<g id="node2" class="node"><title>Node2</title>
<g id="a_node2"><a xlink:href="../../dc/da7/class_wator_controller.html#a14e97f15d6937c3667feb85a2b5d896e" target="_top" xlink:title="WatorController.makeEligible">
<polygon fill="white" stroke="black" points="194,-0.5 194,-19.5 346,-19.5 346,-0.5 194,-0.5"/>
<text text-anchor="middle" x="270" y="-7.5" font-family="Helvetica,sans-Serif" font-size="10.00">WatorController.makeEligible</text>
</a>
</g>
</g>
<!-- Node1&#45;&gt;Node2 -->
<g id="edge1" class="edge"><title>Node1&#45;&gt;Node2</title>
<path fill="none" stroke="midnightblue" d="M167.812,-10C176.478,-10 185.22,-10 193.743,-10"/>
<polygon fill="midnightblue" stroke="midnightblue" points="167.692,-6.5001 157.692,-10 167.692,-13.5001 167.692,-6.5001"/>
</g>
<!-- Node3 -->
<g id="node3" class="node"><title>Node3</title>
<g id="a_node3"><a xlink:href="../../dc/da7/class_wator_controller.html#ae00870133a4b1cfbfaeecf11ffd7b650" target="_top" xlink:title="WatorController.manipulateCell">
<polygon fill="white" stroke="black" points="382,-0.5 382,-19.5 546,-19.5 546,-0.5 382,-0.5"/>
<text text-anchor="middle" x="464" y="-7.5" font-family="Helvetica,sans-Serif" font-size="10.00">WatorController.manipulateCell</text>
</a>
</g>
</g>
<!-- Node2&#45;&gt;Node3 -->
<g id="edge2" class="edge"><title>Node2&#45;&gt;Node3</title>
<path fill="none" stroke="midnightblue" d="M356.084,-10C364.687,-10 373.408,-10 381.966,-10"/>
<polygon fill="midnightblue" stroke="midnightblue" points="356.057,-6.5001 346.057,-10 356.057,-13.5001 356.057,-6.5001"/>
</g>
<!-- Node4 -->
<g id="node4" class="node"><title>Node4</title>
<g id="a_node4"><a xlink:href="../../dc/da7/class_wator_controller.html#aff090131b0a6ebc6dc7a095a3dc2ea36" target="_top" xlink:title="WatorController.cellUpdate">
<polygon fill="white" stroke="black" points="582.5,-0.5 582.5,-19.5 725.5,-19.5 725.5,-0.5 582.5,-0.5"/>
<text text-anchor="middle" x="654" y="-7.5" font-family="Helvetica,sans-Serif" font-size="10.00">WatorController.cellUpdate</text>
</a>
</g>
</g>
<!-- Node3&#45;&gt;Node4 -->
<g id="edge3" class="edge"><title>Node3&#45;&gt;Node4</title>
<path fill="none" stroke="midnightblue" d="M556.289,-10C565.002,-10 573.746,-10 582.222,-10"/>
<polygon fill="midnightblue" stroke="midnightblue" points="556.093,-6.5001 546.093,-10 556.093,-13.5001 556.093,-6.5001"/>
</g>
</g>
</svg>
