<?xml version="1.0" encoding="UTF-8" standalone="no"?>
<!DOCTYPE svg PUBLIC "-//W3C//DTD SVG 1.1//EN"
 "http://www.w3.org/Graphics/SVG/1.1/DTD/svg11.dtd">
<!-- Generated by graphviz version 2.36.0 (20140111.2315)
 -->
<!-- Title: WatorController.updateDestination Pages: 1 -->
<!--zoomable 94 -->
<svg id="main" version="1.1" xmlns="http://www.w3.org/2000/svg" xmlns:xlink="http://www.w3.org/1999/xlink" xml:space="preserve" onload="init(evt)">
<style type="text/css"><![CDATA[
.edge:hover path { stroke: red; }
.edge:hover polygon { stroke: red; fill: red; }
]]></style>
<script type="text/javascript"><![CDATA[
var edges = document.getElementsByTagName('g');
if (edges && edges.length) {
  for (var i=0;i<edges.length;i++) {
    if (edges[i].id.substr(0,4)=='edge') {
      edges[i].setAttribute('class','edge');
    }
  }
}
]]></script>
        <defs>
                <circle id="rim" cx="0" cy="0" r="7"/>
                <circle id="rim2" cx="0" cy="0" r="3.5"/>
                <g id="zoomPlus">
                        <use xlink:href="#rim" fill="#404040">
                                <set attributeName="fill" to="#808080" begin="zoomplus.mouseover" end="zoomplus.mouseout"/>
                        </use>
                        <path d="M-4,0h8M0,-4v8" fill="none" stroke="white" stroke-width="1.5" pointer-events="none"/>
                </g>
                <g id="zoomMin">
                        <use xlink:href="#rim" fill="#404040">
                                <set attributeName="fill" to="#808080" begin="zoomminus.mouseover" end="zoomminus.mouseout"/>
                        </use>
                        <path d="M-4,0h8" fill="none" stroke="white" stroke-width="1.5" pointer-events="none"/>
                </g>
                <g id="dirArrow">
                        <path fill="none" stroke="white" stroke-width="1.5" d="M0,-3.0v7 M-2.5,-0.5L0,-3.0L2.5,-0.5"/>
                </g>
               <g id="resetDef">
                       <use xlink:href="#rim2" fill="#404040">
                               <set attributeName="fill" to="#808080" begin="reset.mouseover" end="reset.mouseout"/>
                       </use>
               </g>
        </defs>

<script type="text/javascript">
var viewWidth = 756;
var viewHeight = 94;
var sectionId = 'dynsection-7';
</script>
<script xlink:href="../../svgpan.js"/>
<svg id="graph" class="graph">
<g id="viewport">
<title>WatorController.updateDestination</title>
<polygon fill="white" stroke="none" points="-4,4 -4,-90 752,-90 752,4 -4,4"/>
<!-- Node1 -->
<g id="node1" class="node"><title>Node1</title>
<polygon fill="#bfbfbf" stroke="black" points="0.5,-27.5 0.5,-46.5 181.5,-46.5 181.5,-27.5 0.5,-27.5"/>
<text text-anchor="middle" x="91" y="-34.5" font-family="Helvetica,sans-Serif" font-size="10.00">WatorController.updateDestination</text>
</g>
<!-- Node2 -->
<g id="node2" class="node"><title>Node2</title>
<g id="a_node2"><a xlink:href="../../dc/da7/class_wator_controller.html#a92a5ed25c56db84dd6f20e244d092a46" target="_top" xlink:title="WatorController.updateFromFish">
<polygon fill="white" stroke="black" points="218,-49.5 218,-68.5 386,-68.5 386,-49.5 218,-49.5"/>
<text text-anchor="middle" x="302" y="-56.5" font-family="Helvetica,sans-Serif" font-size="10.00">WatorController.updateFromFish</text>
</a>
</g>
</g>
<!-- Node1&#45;&gt;Node2 -->
<g id="edge1" class="edge"><title>Node1&#45;&gt;Node2</title>
<path fill="none" stroke="midnightblue" d="M181.544,-46.4257C190.224,-47.3394 199.045,-48.2679 207.76,-49.1852"/>
<polygon fill="midnightblue" stroke="midnightblue" points="207.615,-52.6893 217.927,-50.2555 208.348,-45.7277 207.615,-52.6893"/>
</g>
<!-- Node7 -->
<g id="node7" class="node"><title>Node7</title>
<g id="a_node7"><a xlink:href="../../dc/da7/class_wator_controller.html#a1cf19c6619c3be6edf4e18c4758f6c01" target="_top" xlink:title="WatorController.updateFrom\lShark">
<polygon fill="white" stroke="black" points="227,-0 227,-30 377,-30 377,-0 227,-0"/>
<text text-anchor="start" x="235" y="-18" font-family="Helvetica,sans-Serif" font-size="10.00">WatorController.updateFrom</text>
<text text-anchor="middle" x="302" y="-7" font-family="Helvetica,sans-Serif" font-size="10.00">Shark</text>
</a>
</g>
</g>
<!-- Node1&#45;&gt;Node7 -->
<g id="edge6" class="edge"><title>Node1&#45;&gt;Node7</title>
<path fill="none" stroke="midnightblue" d="M181.544,-27.5743C193.198,-26.3475 205.106,-25.0941 216.671,-23.8768"/>
<polygon fill="midnightblue" stroke="midnightblue" points="217.152,-27.3455 226.731,-22.8178 216.419,-20.384 217.152,-27.3455"/>
</g>
<!-- Node3 -->
<g id="node3" class="node"><title>Node3</title>
<g id="a_node3"><a xlink:href="../../dc/da7/class_wator_controller.html#aa2798e4be6f701485c448df33a18db55" target="_top" xlink:title="WatorController.getNeighbors">
<polygon fill="white" stroke="black" points="425.5,-47.5 425.5,-66.5 582.5,-66.5 582.5,-47.5 425.5,-47.5"/>
<text text-anchor="middle" x="504" y="-54.5" font-family="Helvetica,sans-Serif" font-size="10.00">WatorController.getNeighbors</text>
</a>
</g>
</g>
<!-- Node2&#45;&gt;Node3 -->
<g id="edge2" class="edge"><title>Node2&#45;&gt;Node3</title>
<path fill="none" stroke="midnightblue" d="M386.08,-58.1692C395.719,-58.0728 405.573,-57.9743 415.271,-57.8773"/>
<polygon fill="midnightblue" stroke="midnightblue" points="415.34,-61.3769 425.305,-57.777 415.27,-54.3772 415.34,-61.3769"/>
</g>
<!-- Node6 -->
<g id="node6" class="node"><title>Node6</title>
<g id="a_node6"><a xlink:href="../../dc/da7/class_wator_controller.html#aade8fb474e0e1872f2ad4e1d6c845e34" target="_top" xlink:title="WatorController.getDestination">
<polygon fill="white" stroke="black" points="422.5,-8.5 422.5,-27.5 585.5,-27.5 585.5,-8.5 422.5,-8.5"/>
<text text-anchor="middle" x="504" y="-15.5" font-family="Helvetica,sans-Serif" font-size="10.00">WatorController.getDestination</text>
</a>
</g>
</g>
<!-- Node2&#45;&gt;Node6 -->
<g id="edge5" class="edge"><title>Node2&#45;&gt;Node6</title>
<path fill="none" stroke="midnightblue" d="M349.387,-49.4907C378.312,-43.561 415.734,-35.8895 446.4,-29.603"/>
<polygon fill="midnightblue" stroke="midnightblue" points="447.425,-32.9656 456.519,-27.5286 446.02,-26.1083 447.425,-32.9656"/>
</g>
<!-- Node4 -->
<g id="node4" class="node"><title>Node4</title>
<g id="a_node4"><a xlink:href="../../d6/d6e/class_sim_controller.html#a9bcf3624f6cc29fad497fbad519831f5" target="_top" xlink:title="SimController.contains">
<polygon fill="white" stroke="black" points="622.5,-66.5 622.5,-85.5 747.5,-85.5 747.5,-66.5 622.5,-66.5"/>
<text text-anchor="middle" x="685" y="-73.5" font-family="Helvetica,sans-Serif" font-size="10.00">SimController.contains</text>
</a>
</g>
</g>
<!-- Node3&#45;&gt;Node4 -->
<g id="edge3" class="edge"><title>Node3&#45;&gt;Node4</title>
<path fill="none" stroke="midnightblue" d="M582.731,-65.2508C592.605,-66.2988 602.673,-67.3675 612.443,-68.4046"/>
<polygon fill="midnightblue" stroke="midnightblue" points="612.183,-71.8966 622.497,-69.4717 612.922,-64.9357 612.183,-71.8966"/>
</g>
<!-- Node5 -->
<g id="node5" class="node"><title>Node5</title>
<g id="a_node5"><a xlink:href="../../d5/dda/class_boundary.html#aed4c1bccb93b927e5b052afc5122f72e" target="_top" xlink:title="Boundary.makeCell">
<polygon fill="white" stroke="black" points="631,-28.5 631,-47.5 739,-47.5 739,-28.5 631,-28.5"/>
<text text-anchor="middle" x="685" y="-35.5" font-family="Helvetica,sans-Serif" font-size="10.00">Boundary.makeCell</text>
</a>
</g>
</g>
<!-- Node3&#45;&gt;Node5 -->
<g id="edge4" class="edge"><title>Node3&#45;&gt;Node5</title>
<path fill="none" stroke="midnightblue" d="M582.731,-48.7492C595.409,-47.4035 608.408,-46.0237 620.686,-44.7205"/>
<polygon fill="midnightblue" stroke="midnightblue" points="621.232,-48.1822 630.807,-43.6462 620.493,-41.2213 621.232,-48.1822"/>
</g>
<!-- Node7&#45;&gt;Node3 -->
<g id="edge7" class="edge"><title>Node7&#45;&gt;Node3</title>
<path fill="none" stroke="midnightblue" d="M374.64,-30.0443C398.648,-35.0861 425.034,-40.6271 447.606,-45.3672"/>
<polygon fill="midnightblue" stroke="midnightblue" points="447.18,-48.8541 457.686,-47.4841 448.619,-42.0036 447.18,-48.8541"/>
</g>
<!-- Node7&#45;&gt;Node6 -->
<g id="edge8" class="edge"><title>Node7&#45;&gt;Node6</title>
<path fill="none" stroke="midnightblue" d="M377.188,-16.1128C388.538,-16.2831 400.364,-16.4605 412.024,-16.6354"/>
<polygon fill="midnightblue" stroke="midnightblue" points="412.162,-20.1377 422.213,-16.7882 412.267,-13.1385 412.162,-20.1377"/>
</g>
</g>
</svg>
        <g id="navigator" transform="translate(0 0)" fill="#404254">
                <rect fill="#f2f5e9" fill-opacity="0.5" stroke="#606060" stroke-width=".5" x="0" y="0" width="60" height="60"/>
                <use id="zoomplus" xlink:href="#zoomPlus" x="17" y="9" onmousedown="handleZoom(evt,'in')"/>
                <use id="zoomminus" xlink:href="#zoomMin" x="42" y="9" onmousedown="handleZoom(evt,'out')"/>
                <use id="reset" xlink:href="#resetDef" x="30" y="36" onmousedown="handleReset()"/>
                <g id="arrowUp" xlink:href="#dirArrow" transform="translate(30 24)" onmousedown="handlePan(0,-1)">
                  <use xlink:href="#rim" fill="#404040">
                        <set attributeName="fill" to="#808080" begin="arrowUp.mouseover" end="arrowUp.mouseout"/>
                  </use>
                  <path fill="none" stroke="white" stroke-width="1.5" d="M0,-3.0v7 M-2.5,-0.5L0,-3.0L2.5,-0.5"/>
                </g>
                <g id="arrowRight" xlink:href="#dirArrow" transform="rotate(90) translate(36 -43)" onmousedown="handlePan(1,0)">
                  <use xlink:href="#rim" fill="#404040">
                        <set attributeName="fill" to="#808080" begin="arrowRight.mouseover" end="arrowRight.mouseout"/>
                  </use>
                  <path fill="none" stroke="white" stroke-width="1.5" d="M0,-3.0v7 M-2.5,-0.5L0,-3.0L2.5,-0.5"/>
                </g>
                <g id="arrowDown" xlink:href="#dirArrow" transform="rotate(180) translate(-30 -48)" onmousedown="handlePan(0,1)">
                  <use xlink:href="#rim" fill="#404040">
                        <set attributeName="fill" to="#808080" begin="arrowDown.mouseover" end="arrowDown.mouseout"/>
                  </use>
                  <path fill="none" stroke="white" stroke-width="1.5" d="M0,-3.0v7 M-2.5,-0.5L0,-3.0L2.5,-0.5"/>
                </g>
                <g id="arrowLeft" xlink:href="#dirArrow" transform="rotate(270) translate(-36 17)" onmousedown="handlePan(-1,0)">
                  <use xlink:href="#rim" fill="#404040">
                        <set attributeName="fill" to="#808080" begin="arrowLeft.mouseover" end="arrowLeft.mouseout"/>
                  </use>
                  <path fill="none" stroke="white" stroke-width="1.5" d="M0,-3.0v7 M-2.5,-0.5L0,-3.0L2.5,-0.5"/>
                </g>
        </g>
        <svg viewBox="0 0 15 15" width="100%" height="30px" preserveAspectRatio="xMaxYMin meet">
         <g id="arrow_out" transform="scale(0.3 0.3)">
          <a xlink:href="class_wator_controller_a0d61c3c9e96000370bacec79d64725ab_cgraph_org.svg" target="_base">
           <rect id="button" ry="5" rx="5" y="6" x="6" height="38" width="38"
                fill="#f2f5e9" fill-opacity="0.5" stroke="#606060" stroke-width="1.0"/>
           <path id="arrow"
             d="M 11.500037,31.436501 C 11.940474,20.09759 22.043105,11.32322 32.158766,21.979434 L 37.068811,17.246167 C 37.068811,17.246167 37.088388,32 37.088388,32 L 22.160133,31.978069 C 22.160133,31.978069 26.997745,27.140456 26.997745,27.140456 C 18.528582,18.264221 13.291696,25.230495 11.500037,31.436501 z"
             style="fill:#404040;"/>
          </a>
         </g>
        </svg>
</svg>
