<?xml version="1.0" encoding="UTF-8" standalone="no"?>
<!DOCTYPE svg PUBLIC "-//W3C//DTD SVG 1.1//EN"
 "http://www.w3.org/Graphics/SVG/1.1/DTD/svg11.dtd">
<!-- Generated by graphviz version 2.36.0 (20140111.2315)
 -->
<!-- Title: WatorController.makeEligible Pages: 1 -->
<svg width="518pt" height="256pt"
 viewBox="0.00 0.00 518.00 256.00" xmlns="http://www.w3.org/2000/svg" xmlns:xlink="http://www.w3.org/1999/xlink">
<g id="graph0" class="graph" transform="scale(1 1) rotate(0) translate(4 252)">
<title>WatorController.makeEligible</title>
<polygon fill="white" stroke="none" points="-4,4 -4,-252 514,-252 514,4 -4,4"/>
<!-- Node1 -->
<g id="node1" class="node"><title>Node1</title>
<polygon fill="#bfbfbf" stroke="black" points="0,-114.5 0,-133.5 152,-133.5 152,-114.5 0,-114.5"/>
<text text-anchor="middle" x="76" y="-121.5" font-family="Helvetica,sans-Serif" font-size="10.00">WatorController.makeEligible</text>
</g>
<!-- Node2 -->
<g id="node2" class="node"><title>Node2</title>
<g id="a_node2"><a xlink:href="../../dc/da7/class_wator_controller.html#a7b71e69d99808906a02cc6689d5e8c15" target="_top" xlink:title="WatorController.getNeighbors">
<polygon fill="white" stroke="black" points="188.5,-114.5 188.5,-133.5 345.5,-133.5 345.5,-114.5 188.5,-114.5"/>
<text text-anchor="middle" x="267" y="-121.5" font-family="Helvetica,sans-Serif" font-size="10.00">WatorController.getNeighbors</text>
</a>
</g>
</g>
<!-- Node1&#45;&gt;Node2 -->
<g id="edge1" class="edge"><title>Node1&#45;&gt;Node2</title>
<path fill="none" stroke="midnightblue" d="M152.241,-124C160.75,-124 169.476,-124 178.128,-124"/>
<polygon fill="midnightblue" stroke="midnightblue" points="178.233,-127.5 188.233,-124 178.233,-120.5 178.233,-127.5"/>
</g>
<!-- Node3 -->
<g id="node3" class="node"><title>Node3</title>
<g id="a_node3"><a xlink:href="../../d8/d87/class_controller.html#a2d1d78c34f5551304c3e0f2295766afb" target="_top" xlink:title="Controller.contains">
<polygon fill="white" stroke="black" points="393,-228.5 393,-247.5 499,-247.5 499,-228.5 393,-228.5"/>
<text text-anchor="middle" x="446" y="-235.5" font-family="Helvetica,sans-Serif" font-size="10.00">Controller.contains</text>
</a>
</g>
</g>
<!-- Node2&#45;&gt;Node3 -->
<g id="edge2" class="edge"><title>Node2&#45;&gt;Node3</title>
<path fill="none" stroke="midnightblue" d="M276.799,-133.555C294.774,-152.531 337.764,-195.187 382,-219 386.181,-221.251 390.665,-223.271 395.243,-225.077"/>
<polygon fill="midnightblue" stroke="midnightblue" points="394.112,-228.39 404.707,-228.488 396.486,-221.805 394.112,-228.39"/>
</g>
<!-- Node4 -->
<g id="node4" class="node"><title>Node4</title>
<g id="a_node4"><a xlink:href="../../dd/dba/class_grid_data.html#a9ce437f0d4ed0e815de6f5b26dfe322f" target="_top" xlink:title="GridData.getCol">
<polygon fill="white" stroke="black" points="399.5,-190.5 399.5,-209.5 492.5,-209.5 492.5,-190.5 399.5,-190.5"/>
<text text-anchor="middle" x="446" y="-197.5" font-family="Helvetica,sans-Serif" font-size="10.00">GridData.getCol</text>
</a>
</g>
</g>
<!-- Node2&#45;&gt;Node4 -->
<g id="edge3" class="edge"><title>Node2&#45;&gt;Node4</title>
<path fill="none" stroke="midnightblue" d="M284.961,-133.631C306.871,-145.802 346.425,-166.862 382,-181 387.783,-183.298 393.957,-185.478 400.094,-187.487"/>
<polygon fill="midnightblue" stroke="midnightblue" points="399.056,-190.83 409.645,-190.494 401.158,-184.153 399.056,-190.83"/>
</g>
<!-- Node5 -->
<g id="node5" class="node"><title>Node5</title>
<g id="a_node5"><a xlink:href="../../dd/dba/class_grid_data.html#a17b7365313fb643daaf460fbd3bc8fbd" target="_top" xlink:title="GridData.getGrid">
<polygon fill="white" stroke="black" points="397,-152.5 397,-171.5 495,-171.5 495,-152.5 397,-152.5"/>
<text text-anchor="middle" x="446" y="-159.5" font-family="Helvetica,sans-Serif" font-size="10.00">GridData.getGrid</text>
</a>
</g>
</g>
<!-- Node2&#45;&gt;Node5 -->
<g id="edge4" class="edge"><title>Node2&#45;&gt;Node5</title>
<path fill="none" stroke="midnightblue" d="M312.665,-133.589C336.337,-138.671 365.608,-144.955 390.597,-150.32"/>
<polygon fill="midnightblue" stroke="midnightblue" points="390.145,-153.803 400.657,-152.48 391.614,-146.959 390.145,-153.803"/>
</g>
<!-- Node6 -->
<g id="node6" class="node"><title>Node6</title>
<g id="a_node6"><a xlink:href="../../dd/dba/class_grid_data.html#a13a9b42b731b0ba4f231415129c92918" target="_top" xlink:title="GridData.getList">
<polygon fill="white" stroke="black" points="398.5,-114.5 398.5,-133.5 493.5,-133.5 493.5,-114.5 398.5,-114.5"/>
<text text-anchor="middle" x="446" y="-121.5" font-family="Helvetica,sans-Serif" font-size="10.00">GridData.getList</text>
</a>
</g>
</g>
<!-- Node2&#45;&gt;Node6 -->
<g id="edge5" class="edge"><title>Node2&#45;&gt;Node6</title>
<path fill="none" stroke="midnightblue" d="M345.635,-124C359.994,-124 374.741,-124 388.333,-124"/>
<polygon fill="midnightblue" stroke="midnightblue" points="388.475,-127.5 398.475,-124 388.475,-120.5 388.475,-127.5"/>
</g>
<!-- Node7 -->
<g id="node7" class="node"><title>Node7</title>
<g id="a_node7"><a xlink:href="../../dd/ddd/class_neighbor.html#aa58f169b804a808f37a8faa21c3ea830" target="_top" xlink:title="Neighbor.getNeighbors">
<polygon fill="white" stroke="black" points="382.5,-76.5 382.5,-95.5 509.5,-95.5 509.5,-76.5 382.5,-76.5"/>
<text text-anchor="middle" x="446" y="-83.5" font-family="Helvetica,sans-Serif" font-size="10.00">Neighbor.getNeighbors</text>
</a>
</g>
</g>
<!-- Node2&#45;&gt;Node7 -->
<g id="edge6" class="edge"><title>Node2&#45;&gt;Node7</title>
<path fill="none" stroke="midnightblue" d="M312.665,-114.411C336.337,-109.329 365.608,-103.045 390.597,-97.6797"/>
<polygon fill="midnightblue" stroke="midnightblue" points="391.614,-101.041 400.657,-95.5201 390.145,-94.1972 391.614,-101.041"/>
</g>
<!-- Node8 -->
<g id="node8" class="node"><title>Node8</title>
<g id="a_node8"><a xlink:href="../../dd/dba/class_grid_data.html#ad7e26dc80ddc6076df3350df970a359c" target="_top" xlink:title="GridData.getRow">
<polygon fill="white" stroke="black" points="398,-38.5 398,-57.5 494,-57.5 494,-38.5 398,-38.5"/>
<text text-anchor="middle" x="446" y="-45.5" font-family="Helvetica,sans-Serif" font-size="10.00">GridData.getRow</text>
</a>
</g>
</g>
<!-- Node2&#45;&gt;Node8 -->
<g id="edge7" class="edge"><title>Node2&#45;&gt;Node8</title>
<path fill="none" stroke="midnightblue" d="M284.961,-114.369C306.871,-102.198 346.425,-81.138 382,-67 387.783,-64.7019 393.957,-62.5215 400.094,-60.5129"/>
<polygon fill="midnightblue" stroke="midnightblue" points="401.158,-63.8472 409.645,-57.5056 399.056,-57.1703 401.158,-63.8472"/>
</g>
<!-- Node9 -->
<g id="node9" class="node"><title>Node9</title>
<g id="a_node9"><a xlink:href="../../dd/d11/class_cell.html#a7f8d2520a26a1376a44372149e561f6b" target="_top" xlink:title="Cell.toString">
<polygon fill="white" stroke="black" points="408.5,-0.5 408.5,-19.5 483.5,-19.5 483.5,-0.5 408.5,-0.5"/>
<text text-anchor="middle" x="446" y="-7.5" font-family="Helvetica,sans-Serif" font-size="10.00">Cell.toString</text>
</a>
</g>
</g>
<!-- Node2&#45;&gt;Node9 -->
<g id="edge8" class="edge"><title>Node2&#45;&gt;Node9</title>
<path fill="none" stroke="midnightblue" d="M276.799,-114.445C294.774,-95.4687 337.764,-52.8126 382,-29 387.22,-26.1901 392.912,-23.7387 398.67,-21.6159"/>
<polygon fill="midnightblue" stroke="midnightblue" points="399.997,-24.8623 408.353,-18.3483 397.759,-18.2298 399.997,-24.8623"/>
</g>
</g>
</svg>
