<?xml version="1.0" encoding="UTF-8" standalone="no"?>
<!DOCTYPE svg PUBLIC "-//W3C//DTD SVG 1.1//EN"
 "http://www.w3.org/Graphics/SVG/1.1/DTD/svg11.dtd">
<!-- Generated by graphviz version 2.36.0 (20140111.2315)
 -->
<!-- Title: WatorController.getNeighbors Pages: 1 -->
<svg width="770pt" height="77pt"
 viewBox="0.00 0.00 770.00 77.00" xmlns="http://www.w3.org/2000/svg" xmlns:xlink="http://www.w3.org/1999/xlink">
<g id="graph0" class="graph" transform="scale(1 1) rotate(0) translate(4 73)">
<title>WatorController.getNeighbors</title>
<polygon fill="white" stroke="none" points="-4,4 -4,-73 766,-73 766,4 -4,4"/>
<!-- Node1 -->
<g id="node1" class="node"><title>Node1</title>
<polygon fill="#bfbfbf" stroke="black" points="0.5,-27.5 0.5,-46.5 157.5,-46.5 157.5,-27.5 0.5,-27.5"/>
<text text-anchor="middle" x="79" y="-34.5" font-family="Helvetica,sans-Serif" font-size="10.00">WatorController.getNeighbors</text>
</g>
<!-- Node2 -->
<g id="node2" class="node"><title>Node2</title>
<g id="a_node2"><a xlink:href="../../dc/da7/class_wator_controller.html#a92a5ed25c56db84dd6f20e244d092a46" target="_top" xlink:title="WatorController.updateFromFish">
<polygon fill="white" stroke="black" points="194,-49.5 194,-68.5 362,-68.5 362,-49.5 194,-49.5"/>
<text text-anchor="middle" x="278" y="-56.5" font-family="Helvetica,sans-Serif" font-size="10.00">WatorController.updateFromFish</text>
</a>
</g>
</g>
<!-- Node1&#45;&gt;Node2 -->
<g id="edge1" class="edge"><title>Node1&#45;&gt;Node2</title>
<path fill="none" stroke="midnightblue" d="M167.747,-46.7991C176.468,-47.7731 185.304,-48.7598 193.976,-49.7282"/>
<polygon fill="midnightblue" stroke="midnightblue" points="167.904,-43.295 157.577,-45.6634 167.127,-50.2517 167.904,-43.295"/>
</g>
<!-- Node5 -->
<g id="node5" class="node"><title>Node5</title>
<g id="a_node5"><a xlink:href="../../dc/da7/class_wator_controller.html#a1cf19c6619c3be6edf4e18c4758f6c01" target="_top" xlink:title="WatorController.updateFrom\lShark">
<polygon fill="white" stroke="black" points="203,-0 203,-30 353,-30 353,-0 203,-0"/>
<text text-anchor="start" x="211" y="-18" font-family="Helvetica,sans-Serif" font-size="10.00">WatorController.updateFrom</text>
<text text-anchor="middle" x="278" y="-7" font-family="Helvetica,sans-Serif" font-size="10.00">Shark</text>
</a>
</g>
</g>
<!-- Node1&#45;&gt;Node5 -->
<g id="edge4" class="edge"><title>Node1&#45;&gt;Node5</title>
<path fill="none" stroke="midnightblue" d="M167.762,-27.1992C179.431,-25.8961 191.303,-24.5703 202.712,-23.2961"/>
<polygon fill="midnightblue" stroke="midnightblue" points="167.127,-23.7483 157.577,-28.3366 167.904,-30.705 167.127,-23.7483"/>
</g>
<!-- Node3 -->
<g id="node3" class="node"><title>Node3</title>
<g id="a_node3"><a xlink:href="../../dc/da7/class_wator_controller.html#a0d61c3c9e96000370bacec79d64725ab" target="_top" xlink:title="WatorController.updateDestination">
<polygon fill="white" stroke="black" points="398.5,-27.5 398.5,-46.5 579.5,-46.5 579.5,-27.5 398.5,-27.5"/>
<text text-anchor="middle" x="489" y="-34.5" font-family="Helvetica,sans-Serif" font-size="10.00">WatorController.updateDestination</text>
</a>
</g>
</g>
<!-- Node2&#45;&gt;Node3 -->
<g id="edge2" class="edge"><title>Node2&#45;&gt;Node3</title>
<path fill="none" stroke="midnightblue" d="M372.268,-49.1823C380.894,-48.2743 389.624,-47.3553 398.219,-46.4507"/>
<polygon fill="midnightblue" stroke="midnightblue" points="371.781,-45.7141 362.203,-50.2418 372.514,-52.6756 371.781,-45.7141"/>
</g>
<!-- Node4 -->
<g id="node4" class="node"><title>Node4</title>
<g id="a_node4"><a xlink:href="../../dc/da7/class_wator_controller.html#acc1968e8357ac21f25473b4fcbadc954" target="_top" xlink:title="WatorController.runOneSim">
<polygon fill="white" stroke="black" points="616,-27.5 616,-46.5 762,-46.5 762,-27.5 616,-27.5"/>
<text text-anchor="middle" x="689" y="-34.5" font-family="Helvetica,sans-Serif" font-size="10.00">WatorController.runOneSim</text>
</a>
</g>
</g>
<!-- Node3&#45;&gt;Node4 -->
<g id="edge3" class="edge"><title>Node3&#45;&gt;Node4</title>
<path fill="none" stroke="midnightblue" d="M589.946,-37C598.658,-37 607.36,-37 615.782,-37"/>
<polygon fill="midnightblue" stroke="midnightblue" points="589.731,-33.5001 579.731,-37 589.731,-40.5001 589.731,-33.5001"/>
</g>
<!-- Node5&#45;&gt;Node3 -->
<g id="edge5" class="edge"><title>Node5&#45;&gt;Node3</title>
<path fill="none" stroke="midnightblue" d="M363.28,-23.8715C374.782,-25.0823 386.624,-26.3288 398.219,-27.5493"/>
<polygon fill="midnightblue" stroke="midnightblue" points="363.586,-20.3845 353.274,-22.8183 362.853,-27.346 363.586,-20.3845"/>
</g>
</g>
</svg>
