<?xml version="1.0" encoding="UTF-8" standalone="no"?>
<!DOCTYPE svg PUBLIC "-//W3C//DTD SVG 1.1//EN"
 "http://www.w3.org/Graphics/SVG/1.1/DTD/svg11.dtd">
<!-- Generated by graphviz version 2.36.0 (20140111.2315)
 -->
<!-- Title: WatorController.getNeighbors Pages: 1 -->
<svg width="330pt" height="256pt"
 viewBox="0.00 0.00 330.00 256.00" xmlns="http://www.w3.org/2000/svg" xmlns:xlink="http://www.w3.org/1999/xlink">
<g id="graph0" class="graph" transform="scale(1 1) rotate(0) translate(4 252)">
<title>WatorController.getNeighbors</title>
<polygon fill="white" stroke="none" points="-4,4 -4,-252 326,-252 326,4 -4,4"/>
<!-- Node1 -->
<g id="node1" class="node"><title>Node1</title>
<polygon fill="#bfbfbf" stroke="black" points="0.5,-114.5 0.5,-133.5 157.5,-133.5 157.5,-114.5 0.5,-114.5"/>
<text text-anchor="middle" x="79" y="-121.5" font-family="Helvetica,sans-Serif" font-size="10.00">WatorController.getNeighbors</text>
</g>
<!-- Node2 -->
<g id="node2" class="node"><title>Node2</title>
<g id="a_node2"><a xlink:href="../../d8/d87/class_controller.html#a2d1d78c34f5551304c3e0f2295766afb" target="_top" xlink:title="Controller.contains">
<polygon fill="white" stroke="black" points="205,-228.5 205,-247.5 311,-247.5 311,-228.5 205,-228.5"/>
<text text-anchor="middle" x="258" y="-235.5" font-family="Helvetica,sans-Serif" font-size="10.00">Controller.contains</text>
</a>
</g>
</g>
<!-- Node1&#45;&gt;Node2 -->
<g id="edge1" class="edge"><title>Node1&#45;&gt;Node2</title>
<path fill="none" stroke="midnightblue" d="M88.7986,-133.555C106.774,-152.531 149.764,-195.187 194,-219 198.181,-221.251 202.665,-223.271 207.243,-225.077"/>
<polygon fill="midnightblue" stroke="midnightblue" points="206.112,-228.39 216.707,-228.488 208.486,-221.805 206.112,-228.39"/>
</g>
<!-- Node3 -->
<g id="node3" class="node"><title>Node3</title>
<g id="a_node3"><a xlink:href="../../dd/dba/class_grid_data.html#a9ce437f0d4ed0e815de6f5b26dfe322f" target="_top" xlink:title="GridData.getCol">
<polygon fill="white" stroke="black" points="211.5,-190.5 211.5,-209.5 304.5,-209.5 304.5,-190.5 211.5,-190.5"/>
<text text-anchor="middle" x="258" y="-197.5" font-family="Helvetica,sans-Serif" font-size="10.00">GridData.getCol</text>
</a>
</g>
</g>
<!-- Node1&#45;&gt;Node3 -->
<g id="edge2" class="edge"><title>Node1&#45;&gt;Node3</title>
<path fill="none" stroke="midnightblue" d="M96.9612,-133.631C118.871,-145.802 158.425,-166.862 194,-181 199.783,-183.298 205.957,-185.478 212.094,-187.487"/>
<polygon fill="midnightblue" stroke="midnightblue" points="211.056,-190.83 221.645,-190.494 213.158,-184.153 211.056,-190.83"/>
</g>
<!-- Node4 -->
<g id="node4" class="node"><title>Node4</title>
<g id="a_node4"><a xlink:href="../../dd/dba/class_grid_data.html#a17b7365313fb643daaf460fbd3bc8fbd" target="_top" xlink:title="GridData.getGrid">
<polygon fill="white" stroke="black" points="209,-152.5 209,-171.5 307,-171.5 307,-152.5 209,-152.5"/>
<text text-anchor="middle" x="258" y="-159.5" font-family="Helvetica,sans-Serif" font-size="10.00">GridData.getGrid</text>
</a>
</g>
</g>
<!-- Node1&#45;&gt;Node4 -->
<g id="edge3" class="edge"><title>Node1&#45;&gt;Node4</title>
<path fill="none" stroke="midnightblue" d="M124.665,-133.589C148.337,-138.671 177.608,-144.955 202.597,-150.32"/>
<polygon fill="midnightblue" stroke="midnightblue" points="202.145,-153.803 212.657,-152.48 203.614,-146.959 202.145,-153.803"/>
</g>
<!-- Node5 -->
<g id="node5" class="node"><title>Node5</title>
<g id="a_node5"><a xlink:href="../../dd/dba/class_grid_data.html#a13a9b42b731b0ba4f231415129c92918" target="_top" xlink:title="GridData.getList">
<polygon fill="white" stroke="black" points="210.5,-114.5 210.5,-133.5 305.5,-133.5 305.5,-114.5 210.5,-114.5"/>
<text text-anchor="middle" x="258" y="-121.5" font-family="Helvetica,sans-Serif" font-size="10.00">GridData.getList</text>
</a>
</g>
</g>
<!-- Node1&#45;&gt;Node5 -->
<g id="edge4" class="edge"><title>Node1&#45;&gt;Node5</title>
<path fill="none" stroke="midnightblue" d="M157.635,-124C171.994,-124 186.741,-124 200.333,-124"/>
<polygon fill="midnightblue" stroke="midnightblue" points="200.475,-127.5 210.475,-124 200.475,-120.5 200.475,-127.5"/>
</g>
<!-- Node6 -->
<g id="node6" class="node"><title>Node6</title>
<g id="a_node6"><a xlink:href="../../dd/ddd/class_neighbor.html#aa58f169b804a808f37a8faa21c3ea830" target="_top" xlink:title="Neighbor.getNeighbors">
<polygon fill="white" stroke="black" points="194.5,-76.5 194.5,-95.5 321.5,-95.5 321.5,-76.5 194.5,-76.5"/>
<text text-anchor="middle" x="258" y="-83.5" font-family="Helvetica,sans-Serif" font-size="10.00">Neighbor.getNeighbors</text>
</a>
</g>
</g>
<!-- Node1&#45;&gt;Node6 -->
<g id="edge5" class="edge"><title>Node1&#45;&gt;Node6</title>
<path fill="none" stroke="midnightblue" d="M124.665,-114.411C148.337,-109.329 177.608,-103.045 202.597,-97.6797"/>
<polygon fill="midnightblue" stroke="midnightblue" points="203.614,-101.041 212.657,-95.5201 202.145,-94.1972 203.614,-101.041"/>
</g>
<!-- Node7 -->
<g id="node7" class="node"><title>Node7</title>
<g id="a_node7"><a xlink:href="../../dd/dba/class_grid_data.html#ad7e26dc80ddc6076df3350df970a359c" target="_top" xlink:title="GridData.getRow">
<polygon fill="white" stroke="black" points="210,-38.5 210,-57.5 306,-57.5 306,-38.5 210,-38.5"/>
<text text-anchor="middle" x="258" y="-45.5" font-family="Helvetica,sans-Serif" font-size="10.00">GridData.getRow</text>
</a>
</g>
</g>
<!-- Node1&#45;&gt;Node7 -->
<g id="edge6" class="edge"><title>Node1&#45;&gt;Node7</title>
<path fill="none" stroke="midnightblue" d="M96.9612,-114.369C118.871,-102.198 158.425,-81.138 194,-67 199.783,-64.7019 205.957,-62.5215 212.094,-60.5129"/>
<polygon fill="midnightblue" stroke="midnightblue" points="213.158,-63.8472 221.645,-57.5056 211.056,-57.1703 213.158,-63.8472"/>
</g>
<!-- Node8 -->
<g id="node8" class="node"><title>Node8</title>
<g id="a_node8"><a xlink:href="../../dd/d11/class_cell.html#a7f8d2520a26a1376a44372149e561f6b" target="_top" xlink:title="Cell.toString">
<polygon fill="white" stroke="black" points="220.5,-0.5 220.5,-19.5 295.5,-19.5 295.5,-0.5 220.5,-0.5"/>
<text text-anchor="middle" x="258" y="-7.5" font-family="Helvetica,sans-Serif" font-size="10.00">Cell.toString</text>
</a>
</g>
</g>
<!-- Node1&#45;&gt;Node8 -->
<g id="edge7" class="edge"><title>Node1&#45;&gt;Node8</title>
<path fill="none" stroke="midnightblue" d="M88.7986,-114.445C106.774,-95.4687 149.764,-52.8126 194,-29 199.22,-26.1901 204.912,-23.7387 210.67,-21.6159"/>
<polygon fill="midnightblue" stroke="midnightblue" points="211.997,-24.8623 220.353,-18.3483 209.759,-18.2298 211.997,-24.8623"/>
</g>
</g>
</svg>
