<?xml version="1.0" encoding="UTF-8" standalone="no"?>
<!DOCTYPE svg PUBLIC "-//W3C//DTD SVG 1.1//EN"
 "http://www.w3.org/Graphics/SVG/1.1/DTD/svg11.dtd">
<!-- Generated by graphviz version 2.36.0 (20140111.2315)
 -->
<!-- Title: WatorController.runOneSim Pages: 1 -->
<svg width="914pt" height="183pt"
 viewBox="0.00 0.00 914.00 182.53" xmlns="http://www.w3.org/2000/svg" xmlns:xlink="http://www.w3.org/1999/xlink">
<g id="graph0" class="graph" transform="scale(1 1) rotate(0) translate(4 178.527)">
<title>WatorController.runOneSim</title>
<polygon fill="white" stroke="none" points="-4,4 -4,-178.527 910,-178.527 910,4 -4,4"/>
<!-- Node1 -->
<g id="node1" class="node"><title>Node1</title>
<polygon fill="#bfbfbf" stroke="black" points="0,-76.5 0,-95.5 146,-95.5 146,-76.5 0,-76.5"/>
<text text-anchor="middle" x="73" y="-83.5" font-family="Helvetica,sans-Serif" font-size="10.00">WatorController.runOneSim</text>
</g>
<!-- Node2 -->
<g id="node2" class="node"><title>Node2</title>
<g id="a_node2"><a xlink:href="../../d6/d6e/class_sim_controller.html#a35fd128d12a001430bbf5e52c70f2742" target="_top" xlink:title="SimController.contains">
<polygon fill="white" stroke="black" points="780.5,-133.5 780.5,-152.5 905.5,-152.5 905.5,-133.5 780.5,-133.5"/>
<text text-anchor="middle" x="843" y="-140.5" font-family="Helvetica,sans-Serif" font-size="10.00">SimController.contains</text>
</a>
</g>
</g>
<!-- Node1&#45;&gt;Node2 -->
<g id="edge1" class="edge"><title>Node1&#45;&gt;Node2</title>
<path fill="none" stroke="midnightblue" d="M87.1098,-95.6622C106.612,-109.372 144.957,-133.825 182,-143 391.33,-194.851 649.599,-170.461 771.704,-153.908"/>
<polygon fill="midnightblue" stroke="midnightblue" points="772.247,-157.366 781.675,-152.532 771.29,-150.432 772.247,-157.366"/>
</g>
<!-- Node3 -->
<g id="node3" class="node"><title>Node3</title>
<g id="a_node3"><a xlink:href="../../dc/da7/class_wator_controller.html#a719d7313e2bb6551d9f8845c0fcd0db5" target="_top" xlink:title="WatorController.deadShark">
<polygon fill="white" stroke="black" points="194,-114.5 194,-133.5 338,-133.5 338,-114.5 194,-114.5"/>
<text text-anchor="middle" x="266" y="-121.5" font-family="Helvetica,sans-Serif" font-size="10.00">WatorController.deadShark</text>
</a>
</g>
</g>
<!-- Node1&#45;&gt;Node3 -->
<g id="edge2" class="edge"><title>Node1&#45;&gt;Node3</title>
<path fill="none" stroke="midnightblue" d="M122.197,-95.589C147.97,-100.716 179.891,-107.067 207.012,-112.463"/>
<polygon fill="midnightblue" stroke="midnightblue" points="206.658,-115.961 217.149,-114.48 208.024,-109.096 206.658,-115.961"/>
</g>
<!-- Node4 -->
<g id="node4" class="node"><title>Node4</title>
<g id="a_node4"><a xlink:href="../../dc/da7/class_wator_controller.html#a6e9e7d9b9e856eb9038772935e5ddcad" target="_top" xlink:title="WatorController.findCoordinates">
<polygon fill="white" stroke="black" points="182.5,-76.5 182.5,-95.5 349.5,-95.5 349.5,-76.5 182.5,-76.5"/>
<text text-anchor="middle" x="266" y="-83.5" font-family="Helvetica,sans-Serif" font-size="10.00">WatorController.findCoordinates</text>
</a>
</g>
</g>
<!-- Node1&#45;&gt;Node4 -->
<g id="edge3" class="edge"><title>Node1&#45;&gt;Node4</title>
<path fill="none" stroke="midnightblue" d="M146.209,-86C154.713,-86 163.479,-86 172.216,-86"/>
<polygon fill="midnightblue" stroke="midnightblue" points="172.44,-89.5001 182.44,-86 172.44,-82.5001 172.44,-89.5001"/>
</g>
<!-- Node5 -->
<g id="node5" class="node"><title>Node5</title>
<g id="a_node5"><a xlink:href="../../d6/d6e/class_sim_controller.html#a97511901b1d373d680de60261b253609" target="_top" xlink:title="SimController.makeCell">
<polygon fill="white" stroke="black" points="202,-38.5 202,-57.5 330,-57.5 330,-38.5 202,-38.5"/>
<text text-anchor="middle" x="266" y="-45.5" font-family="Helvetica,sans-Serif" font-size="10.00">SimController.makeCell</text>
</a>
</g>
</g>
<!-- Node1&#45;&gt;Node5 -->
<g id="edge4" class="edge"><title>Node1&#45;&gt;Node5</title>
<path fill="none" stroke="midnightblue" d="M122.197,-76.411C147.97,-71.2835 179.891,-64.9328 207.012,-59.5368"/>
<polygon fill="midnightblue" stroke="midnightblue" points="208.024,-62.9041 217.149,-57.5201 206.658,-56.0387 208.024,-62.9041"/>
</g>
<!-- Node6 -->
<g id="node6" class="node"><title>Node6</title>
<g id="a_node6"><a xlink:href="../../dc/da7/class_wator_controller.html#ac7f4117f349a319ab8af35b4f9bc8876" target="_top" xlink:title="WatorController.updateFromCell">
<polygon fill="white" stroke="black" points="182.5,-0.5 182.5,-19.5 349.5,-19.5 349.5,-0.5 182.5,-0.5"/>
<text text-anchor="middle" x="266" y="-7.5" font-family="Helvetica,sans-Serif" font-size="10.00">WatorController.updateFromCell</text>
</a>
</g>
</g>
<!-- Node1&#45;&gt;Node6 -->
<g id="edge5" class="edge"><title>Node1&#45;&gt;Node6</title>
<path fill="none" stroke="midnightblue" d="M89.1474,-76.3685C109.52,-63.8043 147.216,-41.9078 182,-29 188.86,-26.4543 196.171,-24.1827 203.501,-22.1744"/>
<polygon fill="midnightblue" stroke="midnightblue" points="204.662,-25.4893 213.468,-19.598 202.91,-18.7121 204.662,-25.4893"/>
</g>
<!-- Node7 -->
<g id="node7" class="node"><title>Node7</title>
<g id="a_node7"><a xlink:href="../../dc/da7/class_wator_controller.html#ad6ef17a774720254707f22d42c88c781" target="_top" xlink:title="WatorController.makeEligible">
<polygon fill="white" stroke="black" points="392,-57.5 392,-76.5 544,-76.5 544,-57.5 392,-57.5"/>
<text text-anchor="middle" x="468" y="-64.5" font-family="Helvetica,sans-Serif" font-size="10.00">WatorController.makeEligible</text>
</a>
</g>
</g>
<!-- Node6&#45;&gt;Node7 -->
<g id="edge6" class="edge"><title>Node6&#45;&gt;Node7</title>
<path fill="none" stroke="midnightblue" d="M311.982,-19.5295C324.358,-22.3597 337.746,-25.6147 350,-29 377.078,-36.4805 407.218,-46.3059 430.125,-54.0917"/>
<polygon fill="midnightblue" stroke="midnightblue" points="429.191,-57.4714 439.786,-57.4 431.459,-50.849 429.191,-57.4714"/>
</g>
<!-- Node10 -->
<g id="node10" class="node"><title>Node10</title>
<g id="a_node10"><a xlink:href="../../dc/da7/class_wator_controller.html#a6ebd770acf34cd6be236bc5fca9ec7d3" target="_top" xlink:title="WatorController.getDestination">
<polygon fill="white" stroke="black" points="386.5,-0.5 386.5,-19.5 549.5,-19.5 549.5,-0.5 386.5,-0.5"/>
<text text-anchor="middle" x="468" y="-7.5" font-family="Helvetica,sans-Serif" font-size="10.00">WatorController.getDestination</text>
</a>
</g>
</g>
<!-- Node6&#45;&gt;Node10 -->
<g id="edge10" class="edge"><title>Node6&#45;&gt;Node10</title>
<path fill="none" stroke="midnightblue" d="M349.502,-10C358.337,-10 367.359,-10 376.282,-10"/>
<polygon fill="midnightblue" stroke="midnightblue" points="376.299,-13.5001 386.299,-10 376.299,-6.5001 376.299,-13.5001"/>
</g>
<!-- Node8 -->
<g id="node8" class="node"><title>Node8</title>
<g id="a_node8"><a xlink:href="../../dc/da7/class_wator_controller.html#a8a5c6aa913ced9603c3a2064bf758e5e" target="_top" xlink:title="WatorController.getNeighbors">
<polygon fill="white" stroke="black" points="586.5,-76.5 586.5,-95.5 743.5,-95.5 743.5,-76.5 586.5,-76.5"/>
<text text-anchor="middle" x="665" y="-83.5" font-family="Helvetica,sans-Serif" font-size="10.00">WatorController.getNeighbors</text>
</a>
</g>
</g>
<!-- Node7&#45;&gt;Node8 -->
<g id="edge7" class="edge"><title>Node7&#45;&gt;Node8</title>
<path fill="none" stroke="midnightblue" d="M544.113,-74.3187C554.602,-75.3407 565.455,-76.3982 576.153,-77.4405"/>
<polygon fill="midnightblue" stroke="midnightblue" points="576.051,-80.9471 586.344,-78.4335 576.73,-73.9801 576.051,-80.9471"/>
</g>
<!-- Node8&#45;&gt;Node2 -->
<g id="edge8" class="edge"><title>Node8&#45;&gt;Node2</title>
<path fill="none" stroke="midnightblue" d="M695.458,-95.5405C724.901,-105.076 770.345,-119.794 802.817,-130.31"/>
<polygon fill="midnightblue" stroke="midnightblue" points="801.854,-133.677 812.445,-133.428 804.01,-127.017 801.854,-133.677"/>
</g>
<!-- Node9 -->
<g id="node9" class="node"><title>Node9</title>
<g id="a_node9"><a xlink:href="../../d5/dda/class_boundary.html#aed4c1bccb93b927e5b052afc5122f72e" target="_top" xlink:title="Boundary.makeCell">
<polygon fill="white" stroke="black" points="789,-76.5 789,-95.5 897,-95.5 897,-76.5 789,-76.5"/>
<text text-anchor="middle" x="843" y="-83.5" font-family="Helvetica,sans-Serif" font-size="10.00">Boundary.makeCell</text>
</a>
</g>
</g>
<!-- Node8&#45;&gt;Node9 -->
<g id="edge9" class="edge"><title>Node8&#45;&gt;Node9</title>
<path fill="none" stroke="midnightblue" d="M743.708,-86C755.412,-86 767.362,-86 778.714,-86"/>
<polygon fill="midnightblue" stroke="midnightblue" points="778.948,-89.5001 788.948,-86 778.948,-82.5001 778.948,-89.5001"/>
</g>
</g>
</svg>
