<?xml version="1.0" encoding="UTF-8" standalone="no"?>
<!DOCTYPE svg PUBLIC "-//W3C//DTD SVG 1.1//EN"
 "http://www.w3.org/Graphics/SVG/1.1/DTD/svg11.dtd">
<!-- Generated by graphviz version 2.36.0 (20140111.2315)
 -->
<!-- Title: WatorController.getDestination Pages: 1 -->
<svg width="558pt" height="28pt"
 viewBox="0.00 0.00 558.00 28.00" xmlns="http://www.w3.org/2000/svg" xmlns:xlink="http://www.w3.org/1999/xlink">
<g id="graph0" class="graph" transform="scale(1 1) rotate(0) translate(4 24)">
<title>WatorController.getDestination</title>
<polygon fill="white" stroke="none" points="-4,4 -4,-24 554,-24 554,4 -4,4"/>
<!-- Node1 -->
<g id="node1" class="node"><title>Node1</title>
<polygon fill="#bfbfbf" stroke="black" points="0.5,-0.5 0.5,-19.5 163.5,-19.5 163.5,-0.5 0.5,-0.5"/>
<text text-anchor="middle" x="82" y="-7.5" font-family="Helvetica,sans-Serif" font-size="10.00">WatorController.getDestination</text>
</g>
<!-- Node2 -->
<g id="node2" class="node"><title>Node2</title>
<g id="a_node2"><a xlink:href="../../dc/da7/class_wator_controller.html#ac7f4117f349a319ab8af35b4f9bc8876" target="_top" xlink:title="WatorController.updateFromCell">
<polygon fill="white" stroke="black" points="200.5,-0.5 200.5,-19.5 367.5,-19.5 367.5,-0.5 200.5,-0.5"/>
<text text-anchor="middle" x="284" y="-7.5" font-family="Helvetica,sans-Serif" font-size="10.00">WatorController.updateFromCell</text>
</a>
</g>
</g>
<!-- Node1&#45;&gt;Node2 -->
<g id="edge1" class="edge"><title>Node1&#45;&gt;Node2</title>
<path fill="none" stroke="midnightblue" d="M174,-10C182.764,-10 191.62,-10 200.298,-10"/>
<polygon fill="midnightblue" stroke="midnightblue" points="173.771,-6.5001 163.771,-10 173.771,-13.5001 173.771,-6.5001"/>
</g>
<!-- Node3 -->
<g id="node3" class="node"><title>Node3</title>
<g id="a_node3"><a xlink:href="../../dc/da7/class_wator_controller.html#acc1968e8357ac21f25473b4fcbadc954" target="_top" xlink:title="WatorController.runOneSim">
<polygon fill="white" stroke="black" points="404,-0.5 404,-19.5 550,-19.5 550,-0.5 404,-0.5"/>
<text text-anchor="middle" x="477" y="-7.5" font-family="Helvetica,sans-Serif" font-size="10.00">WatorController.runOneSim</text>
</a>
</g>
</g>
<!-- Node2&#45;&gt;Node3 -->
<g id="edge2" class="edge"><title>Node2&#45;&gt;Node3</title>
<path fill="none" stroke="midnightblue" d="M377.836,-10C386.526,-10 395.246,-10 403.707,-10"/>
<polygon fill="midnightblue" stroke="midnightblue" points="377.665,-6.5001 367.665,-10 377.664,-13.5001 377.665,-6.5001"/>
</g>
</g>
</svg>
