<?xml version="1.0" encoding="UTF-8" standalone="no"?>
<!DOCTYPE svg PUBLIC "-//W3C//DTD SVG 1.1//EN"
 "http://www.w3.org/Graphics/SVG/1.1/DTD/svg11.dtd">
<!-- Generated by graphviz version 2.36.0 (20140111.2315)
 -->
<!-- Title: WatorController.manipulateCell Pages: 1 -->
<svg width="876pt" height="104pt"
 viewBox="0.00 0.00 876.00 104.00" xmlns="http://www.w3.org/2000/svg" xmlns:xlink="http://www.w3.org/1999/xlink">
<g id="graph0" class="graph" transform="scale(1 1) rotate(0) translate(4 100)">
<title>WatorController.manipulateCell</title>
<polygon fill="white" stroke="none" points="-4,4 -4,-100 872,-100 872,4 -4,4"/>
<!-- Node1 -->
<g id="node1" class="node"><title>Node1</title>
<polygon fill="#bfbfbf" stroke="black" points="0,-38.5 0,-57.5 164,-57.5 164,-38.5 0,-38.5"/>
<text text-anchor="middle" x="82" y="-45.5" font-family="Helvetica,sans-Serif" font-size="10.00">WatorController.manipulateCell</text>
</g>
<!-- Node2 -->
<g id="node2" class="node"><title>Node2</title>
<g id="a_node2"><a xlink:href="../../dc/da7/class_wator_controller.html#a6ebd770acf34cd6be236bc5fca9ec7d3" target="_top" xlink:title="WatorController.getDestination">
<polygon fill="white" stroke="black" points="200.5,-76.5 200.5,-95.5 363.5,-95.5 363.5,-76.5 200.5,-76.5"/>
<text text-anchor="middle" x="282" y="-83.5" font-family="Helvetica,sans-Serif" font-size="10.00">WatorController.getDestination</text>
</a>
</g>
</g>
<!-- Node1&#45;&gt;Node2 -->
<g id="edge1" class="edge"><title>Node1&#45;&gt;Node2</title>
<path fill="none" stroke="midnightblue" d="M132.708,-57.54C159.541,-62.6896 192.859,-69.084 221.113,-74.5065"/>
<polygon fill="midnightblue" stroke="midnightblue" points="220.791,-78.0085 231.271,-76.4561 222.11,-71.134 220.791,-78.0085"/>
</g>
<!-- Node3 -->
<g id="node3" class="node"><title>Node3</title>
<g id="a_node3"><a xlink:href="../../dc/da7/class_wator_controller.html#ad6ef17a774720254707f22d42c88c781" target="_top" xlink:title="WatorController.makeEligible">
<polygon fill="white" stroke="black" points="206,-38.5 206,-57.5 358,-57.5 358,-38.5 206,-38.5"/>
<text text-anchor="middle" x="282" y="-45.5" font-family="Helvetica,sans-Serif" font-size="10.00">WatorController.makeEligible</text>
</a>
</g>
</g>
<!-- Node1&#45;&gt;Node3 -->
<g id="edge2" class="edge"><title>Node1&#45;&gt;Node3</title>
<path fill="none" stroke="midnightblue" d="M164.105,-48C174.438,-48 185.04,-48 195.44,-48"/>
<polygon fill="midnightblue" stroke="midnightblue" points="195.755,-51.5001 205.755,-48 195.755,-44.5001 195.755,-51.5001"/>
</g>
<!-- Node8 -->
<g id="node8" class="node"><title>Node8</title>
<g id="a_node8"><a xlink:href="../../dd/d11/class_cell.html#a7f8d2520a26a1376a44372149e561f6b" target="_top" xlink:title="Cell.toString">
<polygon fill="white" stroke="black" points="244.5,-0.5 244.5,-19.5 319.5,-19.5 319.5,-0.5 244.5,-0.5"/>
<text text-anchor="middle" x="282" y="-7.5" font-family="Helvetica,sans-Serif" font-size="10.00">Cell.toString</text>
</a>
</g>
</g>
<!-- Node1&#45;&gt;Node8 -->
<g id="edge7" class="edge"><title>Node1&#45;&gt;Node8</title>
<path fill="none" stroke="midnightblue" d="M132.708,-38.46C163.893,-32.4751 203.838,-24.8089 234.412,-18.9412"/>
<polygon fill="midnightblue" stroke="midnightblue" points="235.234,-22.3474 244.395,-17.0252 233.914,-15.4728 235.234,-22.3474"/>
</g>
<!-- Node4 -->
<g id="node4" class="node"><title>Node4</title>
<g id="a_node4"><a xlink:href="../../dc/da7/class_wator_controller.html#a8a5c6aa913ced9603c3a2064bf758e5e" target="_top" xlink:title="WatorController.getNeighbors">
<polygon fill="white" stroke="black" points="400.5,-38.5 400.5,-57.5 557.5,-57.5 557.5,-38.5 400.5,-38.5"/>
<text text-anchor="middle" x="479" y="-45.5" font-family="Helvetica,sans-Serif" font-size="10.00">WatorController.getNeighbors</text>
</a>
</g>
</g>
<!-- Node3&#45;&gt;Node4 -->
<g id="edge3" class="edge"><title>Node3&#45;&gt;Node4</title>
<path fill="none" stroke="midnightblue" d="M358.113,-48C368.602,-48 379.455,-48 390.153,-48"/>
<polygon fill="midnightblue" stroke="midnightblue" points="390.344,-51.5001 400.344,-48 390.344,-44.5001 390.344,-51.5001"/>
</g>
<!-- Node5 -->
<g id="node5" class="node"><title>Node5</title>
<g id="a_node5"><a xlink:href="../../d8/d87/class_controller.html#a2d1d78c34f5551304c3e0f2295766afb" target="_top" xlink:title="Controller.contains">
<polygon fill="white" stroke="black" points="611,-60.5 611,-79.5 717,-79.5 717,-60.5 611,-60.5"/>
<text text-anchor="middle" x="664" y="-67.5" font-family="Helvetica,sans-Serif" font-size="10.00">Controller.contains</text>
</a>
</g>
</g>
<!-- Node4&#45;&gt;Node5 -->
<g id="edge4" class="edge"><title>Node4&#45;&gt;Node5</title>
<path fill="none" stroke="midnightblue" d="M557.608,-57.33C572.11,-59.0734 587.089,-60.8741 601.041,-62.5514"/>
<polygon fill="midnightblue" stroke="midnightblue" points="600.651,-66.0296 610.997,-63.7483 601.487,-59.0797 600.651,-66.0296"/>
</g>
<!-- Node6 -->
<g id="node6" class="node"><title>Node6</title>
<g id="a_node6"><a xlink:href="../../dc/da7/class_wator_controller.html#a64040cc93cd5dc646d39865a7d185b11" target="_top" xlink:title="WatorController.neighbors\lFromTwoDirections">
<polygon fill="white" stroke="black" points="594,-11 594,-41 734,-41 734,-11 594,-11"/>
<text text-anchor="start" x="602" y="-29" font-family="Helvetica,sans-Serif" font-size="10.00">WatorController.neighbors</text>
<text text-anchor="middle" x="664" y="-18" font-family="Helvetica,sans-Serif" font-size="10.00">FromTwoDirections</text>
</a>
</g>
</g>
<!-- Node4&#45;&gt;Node6 -->
<g id="edge5" class="edge"><title>Node4&#45;&gt;Node6</title>
<path fill="none" stroke="midnightblue" d="M557.608,-38.67C566.291,-37.6263 575.144,-36.562 583.845,-35.5159"/>
<polygon fill="midnightblue" stroke="midnightblue" points="584.46,-38.9673 593.97,-34.2986 583.624,-32.0173 584.46,-38.9673"/>
</g>
<!-- Node7 -->
<g id="node7" class="node"><title>Node7</title>
<g id="a_node7"><a xlink:href="../../d5/dda/class_boundary.html#a5b4429164a4f0a293ab14f42f752a698" target="_top" xlink:title="Boundary.findCell">
<polygon fill="white" stroke="black" points="770,-16.5 770,-35.5 868,-35.5 868,-16.5 770,-16.5"/>
<text text-anchor="middle" x="819" y="-23.5" font-family="Helvetica,sans-Serif" font-size="10.00">Boundary.findCell</text>
</a>
</g>
</g>
<!-- Node6&#45;&gt;Node7 -->
<g id="edge6" class="edge"><title>Node6&#45;&gt;Node7</title>
<path fill="none" stroke="midnightblue" d="M734.337,-26C742.882,-26 751.546,-26 759.899,-26"/>
<polygon fill="midnightblue" stroke="midnightblue" points="759.905,-29.5001 769.905,-26 759.905,-22.5001 759.905,-29.5001"/>
</g>
</g>
</svg>
