<?xml version="1.0" encoding="UTF-8" standalone="no"?>
<!DOCTYPE svg PUBLIC "-//W3C//DTD SVG 1.1//EN"
 "http://www.w3.org/Graphics/SVG/1.1/DTD/svg11.dtd">
<!-- Generated by graphviz version 2.36.0 (20140111.2315)
 -->
<!-- Title: WatorController.cellUpdate Pages: 1 -->
<!--zoomable 370 -->
<svg id="main" version="1.1" xmlns="http://www.w3.org/2000/svg" xmlns:xlink="http://www.w3.org/1999/xlink" xml:space="preserve" onload="init(evt)">
<style type="text/css"><![CDATA[
.edge:hover path { stroke: red; }
.edge:hover polygon { stroke: red; fill: red; }
]]></style>
<script type="text/javascript"><![CDATA[
var edges = document.getElementsByTagName('g');
if (edges && edges.length) {
  for (var i=0;i<edges.length;i++) {
    if (edges[i].id.substr(0,4)=='edge') {
      edges[i].setAttribute('class','edge');
    }
  }
}
]]></script>
        <defs>
                <circle id="rim" cx="0" cy="0" r="7"/>
                <circle id="rim2" cx="0" cy="0" r="3.5"/>
                <g id="zoomPlus">
                        <use xlink:href="#rim" fill="#404040">
                                <set attributeName="fill" to="#808080" begin="zoomplus.mouseover" end="zoomplus.mouseout"/>
                        </use>
                        <path d="M-4,0h8M0,-4v8" fill="none" stroke="white" stroke-width="1.5" pointer-events="none"/>
                </g>
                <g id="zoomMin">
                        <use xlink:href="#rim" fill="#404040">
                                <set attributeName="fill" to="#808080" begin="zoomminus.mouseover" end="zoomminus.mouseout"/>
                        </use>
                        <path d="M-4,0h8" fill="none" stroke="white" stroke-width="1.5" pointer-events="none"/>
                </g>
                <g id="dirArrow">
                        <path fill="none" stroke="white" stroke-width="1.5" d="M0,-3.0v7 M-2.5,-0.5L0,-3.0L2.5,-0.5"/>
                </g>
               <g id="resetDef">
                       <use xlink:href="#rim2" fill="#404040">
                               <set attributeName="fill" to="#808080" begin="reset.mouseover" end="reset.mouseout"/>
                       </use>
               </g>
        </defs>

<script type="text/javascript">
var viewWidth = 910;
var viewHeight = 370;
var sectionId = 'dynsection-2';
</script>
<script xlink:href="../../svgpan.js"/>
<svg id="graph" class="graph">
<g id="viewport">
<title>WatorController.cellUpdate</title>
<polygon fill="white" stroke="none" points="-4,4 -4,-366 906,-366 906,4 -4,4"/>
<!-- Node1 -->
<g id="node1" class="node"><title>Node1</title>
<polygon fill="#bfbfbf" stroke="black" points="0.5,-209.5 0.5,-228.5 143.5,-228.5 143.5,-209.5 0.5,-209.5"/>
<text text-anchor="middle" x="72" y="-216.5" font-family="Helvetica,sans-Serif" font-size="10.00">WatorController.cellUpdate</text>
</g>
<!-- Node2 -->
<g id="node2" class="node"><title>Node2</title>
<g id="a_node2"><a xlink:href="../../dc/da7/class_wator_controller.html#a719d7313e2bb6551d9f8845c0fcd0db5" target="_top" xlink:title="WatorController.deadShark">
<polygon fill="white" stroke="black" points="190,-247.5 190,-266.5 334,-266.5 334,-247.5 190,-247.5"/>
<text text-anchor="middle" x="262" y="-254.5" font-family="Helvetica,sans-Serif" font-size="10.00">WatorController.deadShark</text>
</a>
</g>
</g>
<!-- Node1&#45;&gt;Node2 -->
<g id="edge1" class="edge"><title>Node1&#45;&gt;Node2</title>
<path fill="none" stroke="midnightblue" d="M120.44,-228.589C145.808,-233.716 177.227,-240.067 203.923,-245.463"/>
<polygon fill="midnightblue" stroke="midnightblue" points="203.406,-248.929 213.901,-247.48 204.792,-242.068 203.406,-248.929"/>
</g>
<!-- Node3 -->
<g id="node3" class="node"><title>Node3</title>
<g id="a_node3"><a xlink:href="../../d8/d87/class_controller.html#a919c649b31af72b3359efbfd8cb01c0b" target="_top" xlink:title="Controller.makeCell">
<polygon fill="white" stroke="black" points="207,-209.5 207,-228.5 317,-228.5 317,-209.5 207,-209.5"/>
<text text-anchor="middle" x="262" y="-216.5" font-family="Helvetica,sans-Serif" font-size="10.00">Controller.makeCell</text>
</a>
</g>
</g>
<!-- Node1&#45;&gt;Node3 -->
<g id="edge2" class="edge"><title>Node1&#45;&gt;Node3</title>
<path fill="none" stroke="midnightblue" d="M143.539,-219C160.882,-219 179.363,-219 196.409,-219"/>
<polygon fill="midnightblue" stroke="midnightblue" points="196.815,-222.5 206.815,-219 196.815,-215.5 196.815,-222.5"/>
</g>
<!-- Node4 -->
<g id="node4" class="node"><title>Node4</title>
<g id="a_node4"><a xlink:href="../../dc/da7/class_wator_controller.html#ae00870133a4b1cfbfaeecf11ffd7b650" target="_top" xlink:title="WatorController.manipulateCell">
<polygon fill="white" stroke="black" points="180,-171.5 180,-190.5 344,-190.5 344,-171.5 180,-171.5"/>
<text text-anchor="middle" x="262" y="-178.5" font-family="Helvetica,sans-Serif" font-size="10.00">WatorController.manipulateCell</text>
</a>
</g>
</g>
<!-- Node1&#45;&gt;Node4 -->
<g id="edge3" class="edge"><title>Node1&#45;&gt;Node4</title>
<path fill="none" stroke="midnightblue" d="M120.44,-209.411C145.808,-204.284 177.227,-197.933 203.923,-192.537"/>
<polygon fill="midnightblue" stroke="midnightblue" points="204.792,-195.932 213.901,-190.52 203.406,-189.071 204.792,-195.932"/>
</g>
<!-- Node5 -->
<g id="node5" class="node"><title>Node5</title>
<g id="a_node5"><a xlink:href="../../dd/dba/class_grid_data.html#a9eca3dc4b66b34eb1e08c806a83c6394" target="_top" xlink:title="GridData.curCell">
<polygon fill="white" stroke="black" points="414.5,-342.5 414.5,-361.5 509.5,-361.5 509.5,-342.5 414.5,-342.5"/>
<text text-anchor="middle" x="462" y="-349.5" font-family="Helvetica,sans-Serif" font-size="10.00">GridData.curCell</text>
</a>
</g>
</g>
<!-- Node4&#45;&gt;Node5 -->
<g id="edge4" class="edge"><title>Node4&#45;&gt;Node5</title>
<path fill="none" stroke="midnightblue" d="M330.55,-190.612C335.462,-193.117 340.035,-196.205 344,-200 386.692,-240.863 338.504,-285.924 380,-328 386.803,-334.898 395.488,-339.834 404.631,-343.361"/>
<polygon fill="midnightblue" stroke="midnightblue" points="403.671,-346.731 414.265,-346.551 405.871,-340.085 403.671,-346.731"/>
</g>
<!-- Node6 -->
<g id="node6" class="node"><title>Node6</title>
<g id="a_node6"><a xlink:href="../../dd/d11/class_cell.html#a7f8d2520a26a1376a44372149e561f6b" target="_top" xlink:title="Cell.toString">
<polygon fill="white" stroke="black" points="800.5,-342.5 800.5,-361.5 875.5,-361.5 875.5,-342.5 800.5,-342.5"/>
<text text-anchor="middle" x="838" y="-349.5" font-family="Helvetica,sans-Serif" font-size="10.00">Cell.toString</text>
</a>
</g>
</g>
<!-- Node4&#45;&gt;Node6 -->
<g id="edge5" class="edge"><title>Node4&#45;&gt;Node6</title>
<path fill="none" stroke="midnightblue" d="M328.884,-190.579C334.343,-193.071 339.487,-196.165 344,-200 375.886,-227.1 346.938,-261.348 380,-287 412.087,-311.896 679.902,-338.12 790.009,-347.959"/>
<polygon fill="midnightblue" stroke="midnightblue" points="789.888,-351.462 800.159,-348.86 790.507,-344.49 789.888,-351.462"/>
</g>
<!-- Node7 -->
<g id="node7" class="node"><title>Node7</title>
<g id="a_node7"><a xlink:href="../../dc/da7/class_wator_controller.html#a14e97f15d6937c3667feb85a2b5d896e" target="_top" xlink:title="WatorController.makeEligible">
<polygon fill="white" stroke="black" points="386,-228.5 386,-247.5 538,-247.5 538,-228.5 386,-228.5"/>
<text text-anchor="middle" x="462" y="-235.5" font-family="Helvetica,sans-Serif" font-size="10.00">WatorController.makeEligible</text>
</a>
</g>
</g>
<!-- Node4&#45;&gt;Node7 -->
<g id="edge6" class="edge"><title>Node4&#45;&gt;Node7</title>
<path fill="none" stroke="midnightblue" d="M308.713,-190.539C320.311,-193.283 332.687,-196.492 344,-200 360.397,-205.084 363.756,-208.446 380,-214 391.818,-218.041 404.736,-222.049 416.715,-225.599"/>
<polygon fill="midnightblue" stroke="midnightblue" points="415.932,-229.017 426.512,-228.464 417.896,-222.298 415.932,-229.017"/>
</g>
<!-- Node10 -->
<g id="node10" class="node"><title>Node10</title>
<g id="a_node10"><a xlink:href="../../dd/dba/class_grid_data.html#a17b7365313fb643daaf460fbd3bc8fbd" target="_top" xlink:title="GridData.getGrid">
<polygon fill="white" stroke="black" points="789,-304.5 789,-323.5 887,-323.5 887,-304.5 789,-304.5"/>
<text text-anchor="middle" x="838" y="-311.5" font-family="Helvetica,sans-Serif" font-size="10.00">GridData.getGrid</text>
</a>
</g>
</g>
<!-- Node4&#45;&gt;Node10 -->
<g id="edge20" class="edge"><title>Node4&#45;&gt;Node10</title>
<path fill="none" stroke="midnightblue" d="M326.169,-190.598C332.506,-193.062 338.588,-196.145 344,-200 368.405,-217.384 354.67,-240.995 380,-257 447.739,-299.801 658.549,-289.612 738,-300 751.236,-301.731 765.453,-303.685 778.867,-305.572"/>
<polygon fill="midnightblue" stroke="midnightblue" points="778.548,-309.061 788.939,-306.997 779.528,-302.131 778.548,-309.061"/>
</g>
<!-- Node11 -->
<g id="node11" class="node"><title>Node11</title>
<g id="a_node11"><a xlink:href="../../dd/dba/class_grid_data.html#ad7e26dc80ddc6076df3350df970a359c" target="_top" xlink:title="GridData.getRow">
<polygon fill="white" stroke="black" points="790,-190.5 790,-209.5 886,-209.5 886,-190.5 790,-190.5"/>
<text text-anchor="middle" x="838" y="-197.5" font-family="Helvetica,sans-Serif" font-size="10.00">GridData.getRow</text>
</a>
</g>
</g>
<!-- Node4&#45;&gt;Node11 -->
<g id="edge16" class="edge"><title>Node4&#45;&gt;Node11</title>
<path fill="none" stroke="midnightblue" d="M344.023,-183.682C461.738,-187.578 677.164,-194.709 779.755,-198.105"/>
<polygon fill="midnightblue" stroke="midnightblue" points="779.806,-201.609 789.917,-198.441 780.038,-194.612 779.806,-201.609"/>
</g>
<!-- Node12 -->
<g id="node12" class="node"><title>Node12</title>
<g id="a_node12"><a xlink:href="../../dd/dba/class_grid_data.html#a9ce437f0d4ed0e815de6f5b26dfe322f" target="_top" xlink:title="GridData.getCol">
<polygon fill="white" stroke="black" points="791.5,-152.5 791.5,-171.5 884.5,-171.5 884.5,-152.5 791.5,-152.5"/>
<text text-anchor="middle" x="838" y="-159.5" font-family="Helvetica,sans-Serif" font-size="10.00">GridData.getCol</text>
</a>
</g>
</g>
<!-- Node4&#45;&gt;Node12 -->
<g id="edge17" class="edge"><title>Node4&#45;&gt;Node12</title>
<path fill="none" stroke="midnightblue" d="M344.023,-178.318C462.335,-174.402 679.353,-167.218 781.308,-163.843"/>
<polygon fill="midnightblue" stroke="midnightblue" points="781.518,-167.339 791.397,-163.51 781.286,-160.342 781.518,-167.339"/>
</g>
<!-- Node14 -->
<g id="node14" class="node"><title>Node14</title>
<g id="a_node14"><a xlink:href="../../dd/dba/class_grid_data.html#a13a9b42b731b0ba4f231415129c92918" target="_top" xlink:title="GridData.getList">
<polygon fill="white" stroke="black" points="790.5,-114.5 790.5,-133.5 885.5,-133.5 885.5,-114.5 790.5,-114.5"/>
<text text-anchor="middle" x="838" y="-121.5" font-family="Helvetica,sans-Serif" font-size="10.00">GridData.getList</text>
</a>
</g>
</g>
<!-- Node4&#45;&gt;Node14 -->
<g id="edge21" class="edge"><title>Node4&#45;&gt;Node14</title>
<path fill="none" stroke="midnightblue" d="M340.064,-171.498C353.375,-169.937 367.083,-168.38 380,-167 523.913,-151.622 693.642,-136.421 780.124,-128.886"/>
<polygon fill="midnightblue" stroke="midnightblue" points="780.592,-132.359 790.251,-128.006 779.985,-125.385 780.592,-132.359"/>
</g>
<!-- Node15 -->
<g id="node15" class="node"><title>Node15</title>
<g id="a_node15"><a xlink:href="../../dd/dba/class_grid_data.html#ad1a10a17bfab85e6ec57e4b8f9c09986" target="_top" xlink:title="GridData.getNewGrid">
<polygon fill="white" stroke="black" points="403,-76.5 403,-95.5 521,-95.5 521,-76.5 403,-76.5"/>
<text text-anchor="middle" x="462" y="-83.5" font-family="Helvetica,sans-Serif" font-size="10.00">GridData.getNewGrid</text>
</a>
</g>
</g>
<!-- Node4&#45;&gt;Node15 -->
<g id="edge15" class="edge"><title>Node4&#45;&gt;Node15</title>
<path fill="none" stroke="midnightblue" d="M276.416,-171.266C297.538,-156.319 340.241,-127.6 380,-110 389.858,-105.636 400.734,-101.799 411.229,-98.5469"/>
<polygon fill="midnightblue" stroke="midnightblue" points="412.538,-101.809 421.13,-95.6096 410.547,-95.0985 412.538,-101.809"/>
</g>
<!-- Node16 -->
<g id="node16" class="node"><title>Node16</title>
<g id="a_node16"><a xlink:href="../../dc/da7/class_wator_controller.html#a6ebd770acf34cd6be236bc5fca9ec7d3" target="_top" xlink:title="WatorController.getDestination">
<polygon fill="white" stroke="black" points="380.5,-38.5 380.5,-57.5 543.5,-57.5 543.5,-38.5 380.5,-38.5"/>
<text text-anchor="middle" x="462" y="-45.5" font-family="Helvetica,sans-Serif" font-size="10.00">WatorController.getDestination</text>
</a>
</g>
</g>
<!-- Node4&#45;&gt;Node16 -->
<g id="edge18" class="edge"><title>Node4&#45;&gt;Node16</title>
<path fill="none" stroke="midnightblue" d="M269.959,-171.269C286.394,-149.051 330.013,-94.3997 380,-67 384.212,-64.6915 388.695,-62.6622 393.31,-60.8785"/>
<polygon fill="midnightblue" stroke="midnightblue" points="394.615,-64.1304 402.92,-57.5512 392.325,-57.5156 394.615,-64.1304"/>
</g>
<!-- Node17 -->
<g id="node17" class="node"><title>Node17</title>
<g id="a_node17"><a xlink:href="../../dd/dba/class_grid_data.html#a09f2106c072ecbb50376a22907a49ec0" target="_top" xlink:title="GridData.curCoord">
<polygon fill="white" stroke="black" points="409,-0.5 409,-19.5 515,-19.5 515,-0.5 409,-0.5"/>
<text text-anchor="middle" x="462" y="-7.5" font-family="Helvetica,sans-Serif" font-size="10.00">GridData.curCoord</text>
</a>
</g>
</g>
<!-- Node4&#45;&gt;Node17 -->
<g id="edge19" class="edge"><title>Node4&#45;&gt;Node17</title>
<path fill="none" stroke="midnightblue" d="M267.468,-171.324C280.537,-144.158 321.502,-66.7099 380,-29 385.791,-25.2667 392.237,-22.265 398.892,-19.8519"/>
<polygon fill="midnightblue" stroke="midnightblue" points="400.27,-23.0863 408.74,-16.7209 398.149,-16.4154 400.27,-23.0863"/>
</g>
<!-- Node8 -->
<g id="node8" class="node"><title>Node8</title>
<g id="a_node8"><a xlink:href="../../dc/da7/class_wator_controller.html#a7b71e69d99808906a02cc6689d5e8c15" target="_top" xlink:title="WatorController.getNeighbors">
<polygon fill="white" stroke="black" points="580.5,-228.5 580.5,-247.5 737.5,-247.5 737.5,-228.5 580.5,-228.5"/>
<text text-anchor="middle" x="659" y="-235.5" font-family="Helvetica,sans-Serif" font-size="10.00">WatorController.getNeighbors</text>
</a>
</g>
</g>
<!-- Node7&#45;&gt;Node8 -->
<g id="edge7" class="edge"><title>Node7&#45;&gt;Node8</title>
<path fill="none" stroke="midnightblue" d="M538.113,-238C548.602,-238 559.455,-238 570.153,-238"/>
<polygon fill="midnightblue" stroke="midnightblue" points="570.344,-241.5 580.344,-238 570.344,-234.5 570.344,-241.5"/>
</g>
<!-- Node8&#45;&gt;Node6 -->
<g id="edge12" class="edge"><title>Node8&#45;&gt;Node6</title>
<path fill="none" stroke="midnightblue" d="M672.647,-247.613C688.26,-259.581 715.505,-280.791 738,-300 754.506,-314.095 755.136,-322.264 774,-333 779.152,-335.932 784.804,-338.456 790.541,-340.618"/>
<polygon fill="midnightblue" stroke="midnightblue" points="789.61,-343.998 800.204,-343.92 791.873,-337.374 789.61,-343.998"/>
</g>
<!-- Node9 -->
<g id="node9" class="node"><title>Node9</title>
<g id="a_node9"><a xlink:href="../../dd/ddd/class_neighbor.html#aa58f169b804a808f37a8faa21c3ea830" target="_top" xlink:title="Neighbor.getNeighbors">
<polygon fill="white" stroke="black" points="774.5,-228.5 774.5,-247.5 901.5,-247.5 901.5,-228.5 774.5,-228.5"/>
<text text-anchor="middle" x="838" y="-235.5" font-family="Helvetica,sans-Serif" font-size="10.00">Neighbor.getNeighbors</text>
</a>
</g>
</g>
<!-- Node8&#45;&gt;Node9 -->
<g id="edge8" class="edge"><title>Node8&#45;&gt;Node9</title>
<path fill="none" stroke="midnightblue" d="M737.635,-238C746.447,-238 755.406,-238 764.154,-238"/>
<polygon fill="midnightblue" stroke="midnightblue" points="764.305,-241.5 774.305,-238 764.304,-234.5 764.305,-241.5"/>
</g>
<!-- Node8&#45;&gt;Node10 -->
<g id="edge9" class="edge"><title>Node8&#45;&gt;Node10</title>
<path fill="none" stroke="midnightblue" d="M703.114,-247.558C714.87,-251.138 727.304,-255.873 738,-262 756.834,-272.789 755.136,-284.264 774,-295 777.846,-297.189 781.97,-299.15 786.201,-300.903"/>
<polygon fill="midnightblue" stroke="midnightblue" points="784.972,-304.18 795.565,-304.414 787.43,-297.626 784.972,-304.18"/>
</g>
<!-- Node8&#45;&gt;Node11 -->
<g id="edge10" class="edge"><title>Node8&#45;&gt;Node11</title>
<path fill="none" stroke="midnightblue" d="M704.665,-228.411C728.337,-223.329 757.608,-217.045 782.597,-211.68"/>
<polygon fill="midnightblue" stroke="midnightblue" points="783.614,-215.041 792.657,-209.52 782.145,-208.197 783.614,-215.041"/>
</g>
<!-- Node8&#45;&gt;Node12 -->
<g id="edge11" class="edge"><title>Node8&#45;&gt;Node12</title>
<path fill="none" stroke="midnightblue" d="M676.961,-228.369C698.871,-216.198 738.425,-195.138 774,-181 779.783,-178.702 785.957,-176.522 792.094,-174.513"/>
<polygon fill="midnightblue" stroke="midnightblue" points="793.158,-177.847 801.645,-171.506 791.056,-171.17 793.158,-177.847"/>
</g>
<!-- Node13 -->
<g id="node13" class="node"><title>Node13</title>
<g id="a_node13"><a xlink:href="../../d8/d87/class_controller.html#a2d1d78c34f5551304c3e0f2295766afb" target="_top" xlink:title="Controller.contains">
<polygon fill="white" stroke="black" points="785,-266.5 785,-285.5 891,-285.5 891,-266.5 785,-266.5"/>
<text text-anchor="middle" x="838" y="-273.5" font-family="Helvetica,sans-Serif" font-size="10.00">Controller.contains</text>
</a>
</g>
</g>
<!-- Node8&#45;&gt;Node13 -->
<g id="edge13" class="edge"><title>Node8&#45;&gt;Node13</title>
<path fill="none" stroke="midnightblue" d="M704.665,-247.589C728.337,-252.671 757.608,-258.955 782.597,-264.32"/>
<polygon fill="midnightblue" stroke="midnightblue" points="782.145,-267.803 792.657,-266.48 783.614,-260.959 782.145,-267.803"/>
</g>
<!-- Node8&#45;&gt;Node14 -->
<g id="edge14" class="edge"><title>Node8&#45;&gt;Node14</title>
<path fill="none" stroke="midnightblue" d="M668.799,-228.445C686.774,-209.469 729.764,-166.813 774,-143 778.181,-140.749 782.665,-138.729 787.243,-136.923"/>
<polygon fill="midnightblue" stroke="midnightblue" points="788.486,-140.195 796.707,-133.512 786.112,-133.61 788.486,-140.195"/>
</g>
</g>
</svg>
        <g id="navigator" transform="translate(0 0)" fill="#404254">
                <rect fill="#f2f5e9" fill-opacity="0.5" stroke="#606060" stroke-width=".5" x="0" y="0" width="60" height="60"/>
                <use id="zoomplus" xlink:href="#zoomPlus" x="17" y="9" onmousedown="handleZoom(evt,'in')"/>
                <use id="zoomminus" xlink:href="#zoomMin" x="42" y="9" onmousedown="handleZoom(evt,'out')"/>
                <use id="reset" xlink:href="#resetDef" x="30" y="36" onmousedown="handleReset()"/>
                <g id="arrowUp" xlink:href="#dirArrow" transform="translate(30 24)" onmousedown="handlePan(0,-1)">
                  <use xlink:href="#rim" fill="#404040">
                        <set attributeName="fill" to="#808080" begin="arrowUp.mouseover" end="arrowUp.mouseout"/>
                  </use>
                  <path fill="none" stroke="white" stroke-width="1.5" d="M0,-3.0v7 M-2.5,-0.5L0,-3.0L2.5,-0.5"/>
                </g>
                <g id="arrowRight" xlink:href="#dirArrow" transform="rotate(90) translate(36 -43)" onmousedown="handlePan(1,0)">
                  <use xlink:href="#rim" fill="#404040">
                        <set attributeName="fill" to="#808080" begin="arrowRight.mouseover" end="arrowRight.mouseout"/>
                  </use>
                  <path fill="none" stroke="white" stroke-width="1.5" d="M0,-3.0v7 M-2.5,-0.5L0,-3.0L2.5,-0.5"/>
                </g>
                <g id="arrowDown" xlink:href="#dirArrow" transform="rotate(180) translate(-30 -48)" onmousedown="handlePan(0,1)">
                  <use xlink:href="#rim" fill="#404040">
                        <set attributeName="fill" to="#808080" begin="arrowDown.mouseover" end="arrowDown.mouseout"/>
                  </use>
                  <path fill="none" stroke="white" stroke-width="1.5" d="M0,-3.0v7 M-2.5,-0.5L0,-3.0L2.5,-0.5"/>
                </g>
                <g id="arrowLeft" xlink:href="#dirArrow" transform="rotate(270) translate(-36 17)" onmousedown="handlePan(-1,0)">
                  <use xlink:href="#rim" fill="#404040">
                        <set attributeName="fill" to="#808080" begin="arrowLeft.mouseover" end="arrowLeft.mouseout"/>
                  </use>
                  <path fill="none" stroke="white" stroke-width="1.5" d="M0,-3.0v7 M-2.5,-0.5L0,-3.0L2.5,-0.5"/>
                </g>
        </g>
        <svg viewBox="0 0 15 15" width="100%" height="30px" preserveAspectRatio="xMaxYMin meet">
         <g id="arrow_out" transform="scale(0.3 0.3)">
          <a xlink:href="class_wator_controller_aff090131b0a6ebc6dc7a095a3dc2ea36_cgraph_org.svg" target="_base">
           <rect id="button" ry="5" rx="5" y="6" x="6" height="38" width="38"
                fill="#f2f5e9" fill-opacity="0.5" stroke="#606060" stroke-width="1.0"/>
           <path id="arrow"
             d="M 11.500037,31.436501 C 11.940474,20.09759 22.043105,11.32322 32.158766,21.979434 L 37.068811,17.246167 C 37.068811,17.246167 37.088388,32 37.088388,32 L 22.160133,31.978069 C 22.160133,31.978069 26.997745,27.140456 26.997745,27.140456 C 18.528582,18.264221 13.291696,25.230495 11.500037,31.436501 z"
             style="fill:#404040;"/>
          </a>
         </g>
        </svg>
</svg>
