<?xml version="1.0" encoding="UTF-8" standalone="no"?>
<!DOCTYPE svg PUBLIC "-//W3C//DTD SVG 1.1//EN"
 "http://www.w3.org/Graphics/SVG/1.1/DTD/svg11.dtd">
<!-- Generated by graphviz version 2.36.0 (20140111.2315)
 -->
<!-- Title: WatorController.makeEligible Pages: 1 -->
<svg width="540pt" height="28pt"
 viewBox="0.00 0.00 540.00 28.00" xmlns="http://www.w3.org/2000/svg" xmlns:xlink="http://www.w3.org/1999/xlink">
<g id="graph0" class="graph" transform="scale(1 1) rotate(0) translate(4 24)">
<title>WatorController.makeEligible</title>
<polygon fill="white" stroke="none" points="-4,4 -4,-24 536,-24 536,4 -4,4"/>
<!-- Node1 -->
<g id="node1" class="node"><title>Node1</title>
<polygon fill="#bfbfbf" stroke="black" points="0,-0.5 0,-19.5 152,-19.5 152,-0.5 0,-0.5"/>
<text text-anchor="middle" x="76" y="-7.5" font-family="Helvetica,sans-Serif" font-size="10.00">WatorController.makeEligible</text>
</g>
<!-- Node2 -->
<g id="node2" class="node"><title>Node2</title>
<g id="a_node2"><a xlink:href="../../dc/da7/class_wator_controller.html#a8f10cc48fea8314d9ae89e397dac0c79" target="_top" xlink:title="WatorController.manipulateCell">
<polygon fill="white" stroke="black" points="188,-0.5 188,-19.5 352,-19.5 352,-0.5 188,-0.5"/>
<text text-anchor="middle" x="270" y="-7.5" font-family="Helvetica,sans-Serif" font-size="10.00">WatorController.manipulateCell</text>
</a>
</g>
</g>
<!-- Node1&#45;&gt;Node2 -->
<g id="edge1" class="edge"><title>Node1&#45;&gt;Node2</title>
<path fill="none" stroke="midnightblue" d="M162.084,-10C170.687,-10 179.408,-10 187.966,-10"/>
<polygon fill="midnightblue" stroke="midnightblue" points="162.057,-6.5001 152.057,-10 162.057,-13.5001 162.057,-6.5001"/>
</g>
<!-- Node3 -->
<g id="node3" class="node"><title>Node3</title>
<g id="a_node3"><a xlink:href="../../dc/da7/class_wator_controller.html#a8487f7764316be081c820425dd43b86d" target="_top" xlink:title="WatorController.cellUpdate">
<polygon fill="white" stroke="black" points="388.5,-0.5 388.5,-19.5 531.5,-19.5 531.5,-0.5 388.5,-0.5"/>
<text text-anchor="middle" x="460" y="-7.5" font-family="Helvetica,sans-Serif" font-size="10.00">WatorController.cellUpdate</text>
</a>
</g>
</g>
<!-- Node2&#45;&gt;Node3 -->
<g id="edge2" class="edge"><title>Node2&#45;&gt;Node3</title>
<path fill="none" stroke="midnightblue" d="M362.289,-10C371.002,-10 379.746,-10 388.222,-10"/>
<polygon fill="midnightblue" stroke="midnightblue" points="362.093,-6.5001 352.093,-10 362.093,-13.5001 362.093,-6.5001"/>
</g>
</g>
</svg>
