<?xml version="1.0" encoding="UTF-8" standalone="no"?>
<!DOCTYPE svg PUBLIC "-//W3C//DTD SVG 1.1//EN"
 "http://www.w3.org/Graphics/SVG/1.1/DTD/svg11.dtd">
<!-- Generated by graphviz version 2.36.0 (20140111.2315)
 -->
<!-- Title: WatorController.updateFromCell Pages: 1 -->
<svg width="538pt" height="85pt"
 viewBox="0.00 0.00 538.00 85.00" xmlns="http://www.w3.org/2000/svg" xmlns:xlink="http://www.w3.org/1999/xlink">
<g id="graph0" class="graph" transform="scale(1 1) rotate(0) translate(4 81)">
<title>WatorController.updateFromCell</title>
<polygon fill="white" stroke="none" points="-4,4 -4,-81 534,-81 534,4 -4,4"/>
<!-- Node1 -->
<g id="node1" class="node"><title>Node1</title>
<polygon fill="#bfbfbf" stroke="black" points="0.5,-38.5 0.5,-57.5 167.5,-57.5 167.5,-38.5 0.5,-38.5"/>
<text text-anchor="middle" x="84" y="-45.5" font-family="Helvetica,sans-Serif" font-size="10.00">WatorController.updateFromCell</text>
</g>
<!-- Node2 -->
<g id="node2" class="node"><title>Node2</title>
<g id="a_node2"><a xlink:href="../../dc/da7/class_wator_controller.html#aade8fb474e0e1872f2ad4e1d6c845e34" target="_top" xlink:title="WatorController.getDestination">
<polygon fill="white" stroke="black" points="204.5,-57.5 204.5,-76.5 367.5,-76.5 367.5,-57.5 204.5,-57.5"/>
<text text-anchor="middle" x="286" y="-64.5" font-family="Helvetica,sans-Serif" font-size="10.00">WatorController.getDestination</text>
</a>
</g>
</g>
<!-- Node1&#45;&gt;Node2 -->
<g id="edge1" class="edge"><title>Node1&#45;&gt;Node2</title>
<path fill="none" stroke="midnightblue" d="M167.502,-55.8377C176.337,-56.677 185.359,-57.5341 194.282,-58.3818"/>
<polygon fill="midnightblue" stroke="midnightblue" points="194.012,-61.8718 204.299,-59.3334 194.674,-54.9032 194.012,-61.8718"/>
</g>
<!-- Node3 -->
<g id="node3" class="node"><title>Node3</title>
<g id="a_node3"><a xlink:href="../../dc/da7/class_wator_controller.html#aa2798e4be6f701485c448df33a18db55" target="_top" xlink:title="WatorController.getNeighbors">
<polygon fill="white" stroke="black" points="207.5,-19.5 207.5,-38.5 364.5,-38.5 364.5,-19.5 207.5,-19.5"/>
<text text-anchor="middle" x="286" y="-26.5" font-family="Helvetica,sans-Serif" font-size="10.00">WatorController.getNeighbors</text>
</a>
</g>
</g>
<!-- Node1&#45;&gt;Node3 -->
<g id="edge2" class="edge"><title>Node1&#45;&gt;Node3</title>
<path fill="none" stroke="midnightblue" d="M167.502,-40.1623C177.245,-39.2367 187.217,-38.2894 197.032,-37.357"/>
<polygon fill="midnightblue" stroke="midnightblue" points="197.563,-40.8224 207.187,-36.3922 196.901,-33.8537 197.563,-40.8224"/>
</g>
<!-- Node4 -->
<g id="node4" class="node"><title>Node4</title>
<g id="a_node4"><a xlink:href="../../d6/d6e/class_sim_controller.html#a9bcf3624f6cc29fad497fbad519831f5" target="_top" xlink:title="SimController.contains">
<polygon fill="white" stroke="black" points="404.5,-38.5 404.5,-57.5 529.5,-57.5 529.5,-38.5 404.5,-38.5"/>
<text text-anchor="middle" x="467" y="-45.5" font-family="Helvetica,sans-Serif" font-size="10.00">SimController.contains</text>
</a>
</g>
</g>
<!-- Node3&#45;&gt;Node4 -->
<g id="edge3" class="edge"><title>Node3&#45;&gt;Node4</title>
<path fill="none" stroke="midnightblue" d="M364.731,-37.2508C374.605,-38.2988 384.673,-39.3675 394.443,-40.4046"/>
<polygon fill="midnightblue" stroke="midnightblue" points="394.183,-43.8966 404.497,-41.4717 394.922,-36.9357 394.183,-43.8966"/>
</g>
<!-- Node5 -->
<g id="node5" class="node"><title>Node5</title>
<g id="a_node5"><a xlink:href="../../d5/dda/class_boundary.html#aed4c1bccb93b927e5b052afc5122f72e" target="_top" xlink:title="Boundary.makeCell">
<polygon fill="white" stroke="black" points="413,-0.5 413,-19.5 521,-19.5 521,-0.5 413,-0.5"/>
<text text-anchor="middle" x="467" y="-7.5" font-family="Helvetica,sans-Serif" font-size="10.00">Boundary.makeCell</text>
</a>
</g>
</g>
<!-- Node3&#45;&gt;Node5 -->
<g id="edge4" class="edge"><title>Node3&#45;&gt;Node5</title>
<path fill="none" stroke="midnightblue" d="M364.731,-20.7492C377.409,-19.4035 390.408,-18.0237 402.686,-16.7205"/>
<polygon fill="midnightblue" stroke="midnightblue" points="403.232,-20.1822 412.807,-15.6462 402.493,-13.2213 403.232,-20.1822"/>
</g>
</g>
</svg>
