<?xml version="1.0" encoding="UTF-8" standalone="no"?>
<!DOCTYPE svg PUBLIC "-//W3C//DTD SVG 1.1//EN"
 "http://www.w3.org/Graphics/SVG/1.1/DTD/svg11.dtd">
<!-- Generated by graphviz version 2.36.0 (20140111.2315)
 -->
<!-- Title: WatorController.cellUpdate Pages: 1 -->
<svg width="1056pt" height="180pt"
 viewBox="0.00 0.00 1056.00 180.00" xmlns="http://www.w3.org/2000/svg" xmlns:xlink="http://www.w3.org/1999/xlink">
<g id="graph0" class="graph" transform="scale(1 1) rotate(0) translate(4 176)">
<title>WatorController.cellUpdate</title>
<polygon fill="white" stroke="none" points="-4,4 -4,-176 1052,-176 1052,4 -4,4"/>
<!-- Node1 -->
<g id="node1" class="node"><title>Node1</title>
<polygon fill="#bfbfbf" stroke="black" points="0.5,-95.5 0.5,-114.5 143.5,-114.5 143.5,-95.5 0.5,-95.5"/>
<text text-anchor="middle" x="72" y="-102.5" font-family="Helvetica,sans-Serif" font-size="10.00">WatorController.cellUpdate</text>
</g>
<!-- Node2 -->
<g id="node2" class="node"><title>Node2</title>
<g id="a_node2"><a xlink:href="../../dc/da7/class_wator_controller.html#a719d7313e2bb6551d9f8845c0fcd0db5" target="_top" xlink:title="WatorController.deadShark">
<polygon fill="white" stroke="black" points="190,-152.5 190,-171.5 334,-171.5 334,-152.5 190,-152.5"/>
<text text-anchor="middle" x="262" y="-159.5" font-family="Helvetica,sans-Serif" font-size="10.00">WatorController.deadShark</text>
</a>
</g>
</g>
<!-- Node1&#45;&gt;Node2 -->
<g id="edge1" class="edge"><title>Node1&#45;&gt;Node2</title>
<path fill="none" stroke="midnightblue" d="M97.3957,-114.536C118.92,-122.739 151.252,-134.552 180,-143 188.458,-145.486 197.487,-147.866 206.333,-150.05"/>
<polygon fill="midnightblue" stroke="midnightblue" points="205.663,-153.488 216.204,-152.427 207.302,-146.683 205.663,-153.488"/>
</g>
<!-- Node3 -->
<g id="node3" class="node"><title>Node3</title>
<g id="a_node3"><a xlink:href="../../d8/d87/class_controller.html#a919c649b31af72b3359efbfd8cb01c0b" target="_top" xlink:title="Controller.makeCell">
<polygon fill="white" stroke="black" points="207,-114.5 207,-133.5 317,-133.5 317,-114.5 207,-114.5"/>
<text text-anchor="middle" x="262" y="-121.5" font-family="Helvetica,sans-Serif" font-size="10.00">Controller.makeCell</text>
</a>
</g>
</g>
<!-- Node1&#45;&gt;Node3 -->
<g id="edge2" class="edge"><title>Node1&#45;&gt;Node3</title>
<path fill="none" stroke="midnightblue" d="M143.539,-112.129C160.882,-113.882 179.363,-115.749 196.409,-117.472"/>
<polygon fill="midnightblue" stroke="midnightblue" points="196.513,-121 206.815,-118.524 197.217,-114.036 196.513,-121"/>
</g>
<!-- Node4 -->
<g id="node4" class="node"><title>Node4</title>
<g id="a_node4"><a xlink:href="../../dc/da7/class_wator_controller.html#a8f10cc48fea8314d9ae89e397dac0c79" target="_top" xlink:title="WatorController.manipulateCell">
<polygon fill="white" stroke="black" points="180,-38.5 180,-57.5 344,-57.5 344,-38.5 180,-38.5"/>
<text text-anchor="middle" x="262" y="-45.5" font-family="Helvetica,sans-Serif" font-size="10.00">WatorController.manipulateCell</text>
</a>
</g>
</g>
<!-- Node1&#45;&gt;Node4 -->
<g id="edge3" class="edge"><title>Node1&#45;&gt;Node4</title>
<path fill="none" stroke="midnightblue" d="M103.876,-95.3783C125.234,-88.7467 154.321,-79.7639 180,-72 192.518,-68.2153 206.142,-64.1555 218.583,-60.4714"/>
<polygon fill="midnightblue" stroke="midnightblue" points="219.666,-63.8012 228.264,-57.6098 217.682,-57.0883 219.666,-63.8012"/>
</g>
<!-- Node5 -->
<g id="node5" class="node"><title>Node5</title>
<g id="a_node5"><a xlink:href="../../dd/d11/class_cell.html#a7f8d2520a26a1376a44372149e561f6b" target="_top" xlink:title="Cell.toString">
<polygon fill="white" stroke="black" points="424.5,-76.5 424.5,-95.5 499.5,-95.5 499.5,-76.5 424.5,-76.5"/>
<text text-anchor="middle" x="462" y="-83.5" font-family="Helvetica,sans-Serif" font-size="10.00">Cell.toString</text>
</a>
</g>
</g>
<!-- Node1&#45;&gt;Node5 -->
<g id="edge11" class="edge"><title>Node1&#45;&gt;Node5</title>
<path fill="none" stroke="midnightblue" d="M143.714,-101.537C222.245,-97.6916 346.797,-91.5924 414.113,-88.296"/>
<polygon fill="midnightblue" stroke="midnightblue" points="414.593,-91.7768 424.41,-87.7918 414.25,-84.7852 414.593,-91.7768"/>
</g>
<!-- Node4&#45;&gt;Node5 -->
<g id="edge4" class="edge"><title>Node4&#45;&gt;Node5</title>
<path fill="none" stroke="midnightblue" d="M312.708,-57.54C343.893,-63.5249 383.838,-71.1911 414.412,-77.0588"/>
<polygon fill="midnightblue" stroke="midnightblue" points="413.914,-80.5272 424.395,-78.9748 415.234,-73.6526 413.914,-80.5272"/>
</g>
<!-- Node6 -->
<g id="node6" class="node"><title>Node6</title>
<g id="a_node6"><a xlink:href="../../dc/da7/class_wator_controller.html#ad6ef17a774720254707f22d42c88c781" target="_top" xlink:title="WatorController.makeEligible">
<polygon fill="white" stroke="black" points="386,-38.5 386,-57.5 538,-57.5 538,-38.5 386,-38.5"/>
<text text-anchor="middle" x="462" y="-45.5" font-family="Helvetica,sans-Serif" font-size="10.00">WatorController.makeEligible</text>
</a>
</g>
</g>
<!-- Node4&#45;&gt;Node6 -->
<g id="edge5" class="edge"><title>Node4&#45;&gt;Node6</title>
<path fill="none" stroke="midnightblue" d="M344.105,-48C354.438,-48 365.04,-48 375.44,-48"/>
<polygon fill="midnightblue" stroke="midnightblue" points="375.755,-51.5001 385.755,-48 375.755,-44.5001 375.755,-51.5001"/>
</g>
<!-- Node11 -->
<g id="node11" class="node"><title>Node11</title>
<g id="a_node11"><a xlink:href="../../dc/da7/class_wator_controller.html#a6ebd770acf34cd6be236bc5fca9ec7d3" target="_top" xlink:title="WatorController.getDestination">
<polygon fill="white" stroke="black" points="380.5,-0.5 380.5,-19.5 543.5,-19.5 543.5,-0.5 380.5,-0.5"/>
<text text-anchor="middle" x="462" y="-7.5" font-family="Helvetica,sans-Serif" font-size="10.00">WatorController.getDestination</text>
</a>
</g>
</g>
<!-- Node4&#45;&gt;Node11 -->
<g id="edge10" class="edge"><title>Node4&#45;&gt;Node11</title>
<path fill="none" stroke="midnightblue" d="M312.708,-38.46C339.541,-33.3104 372.859,-26.916 401.113,-21.4935"/>
<polygon fill="midnightblue" stroke="midnightblue" points="402.11,-24.866 411.271,-19.5439 400.791,-17.9915 402.11,-24.866"/>
</g>
<!-- Node7 -->
<g id="node7" class="node"><title>Node7</title>
<g id="a_node7"><a xlink:href="../../dc/da7/class_wator_controller.html#a8a5c6aa913ced9603c3a2064bf758e5e" target="_top" xlink:title="WatorController.getNeighbors">
<polygon fill="white" stroke="black" points="580.5,-38.5 580.5,-57.5 737.5,-57.5 737.5,-38.5 580.5,-38.5"/>
<text text-anchor="middle" x="659" y="-45.5" font-family="Helvetica,sans-Serif" font-size="10.00">WatorController.getNeighbors</text>
</a>
</g>
</g>
<!-- Node6&#45;&gt;Node7 -->
<g id="edge6" class="edge"><title>Node6&#45;&gt;Node7</title>
<path fill="none" stroke="midnightblue" d="M538.113,-48C548.602,-48 559.455,-48 570.153,-48"/>
<polygon fill="midnightblue" stroke="midnightblue" points="570.344,-51.5001 580.344,-48 570.344,-44.5001 570.344,-51.5001"/>
</g>
<!-- Node8 -->
<g id="node8" class="node"><title>Node8</title>
<g id="a_node8"><a xlink:href="../../dc/da7/class_wator_controller.html#a64040cc93cd5dc646d39865a7d185b11" target="_top" xlink:title="WatorController.neighbors\lFromTwoDirections">
<polygon fill="white" stroke="black" points="774,-55 774,-85 914,-85 914,-55 774,-55"/>
<text text-anchor="start" x="782" y="-73" font-family="Helvetica,sans-Serif" font-size="10.00">WatorController.neighbors</text>
<text text-anchor="middle" x="844" y="-62" font-family="Helvetica,sans-Serif" font-size="10.00">FromTwoDirections</text>
</a>
</g>
</g>
<!-- Node7&#45;&gt;Node8 -->
<g id="edge7" class="edge"><title>Node7&#45;&gt;Node8</title>
<path fill="none" stroke="midnightblue" d="M737.608,-57.33C746.291,-58.3737 755.144,-59.438 763.845,-60.4841"/>
<polygon fill="midnightblue" stroke="midnightblue" points="763.624,-63.9827 773.97,-61.7014 764.46,-57.0327 763.624,-63.9827"/>
</g>
<!-- Node10 -->
<g id="node10" class="node"><title>Node10</title>
<g id="a_node10"><a xlink:href="../../d8/d87/class_controller.html#a2d1d78c34f5551304c3e0f2295766afb" target="_top" xlink:title="Controller.contains">
<polygon fill="white" stroke="black" points="791,-16.5 791,-35.5 897,-35.5 897,-16.5 791,-16.5"/>
<text text-anchor="middle" x="844" y="-23.5" font-family="Helvetica,sans-Serif" font-size="10.00">Controller.contains</text>
</a>
</g>
</g>
<!-- Node7&#45;&gt;Node10 -->
<g id="edge9" class="edge"><title>Node7&#45;&gt;Node10</title>
<path fill="none" stroke="midnightblue" d="M737.608,-38.67C752.11,-36.9266 767.089,-35.1259 781.041,-33.4486"/>
<polygon fill="midnightblue" stroke="midnightblue" points="781.487,-36.9203 790.997,-32.2517 780.651,-29.9704 781.487,-36.9203"/>
</g>
<!-- Node9 -->
<g id="node9" class="node"><title>Node9</title>
<g id="a_node9"><a xlink:href="../../d5/dda/class_boundary.html#a5b4429164a4f0a293ab14f42f752a698" target="_top" xlink:title="Boundary.findCell">
<polygon fill="white" stroke="black" points="950,-60.5 950,-79.5 1048,-79.5 1048,-60.5 950,-60.5"/>
<text text-anchor="middle" x="999" y="-67.5" font-family="Helvetica,sans-Serif" font-size="10.00">Boundary.findCell</text>
</a>
</g>
</g>
<!-- Node8&#45;&gt;Node9 -->
<g id="edge8" class="edge"><title>Node8&#45;&gt;Node9</title>
<path fill="none" stroke="midnightblue" d="M914.337,-70C922.882,-70 931.546,-70 939.899,-70"/>
<polygon fill="midnightblue" stroke="midnightblue" points="939.905,-73.5001 949.905,-70 939.905,-66.5001 939.905,-73.5001"/>
</g>
</g>
</svg>
