<?xml version="1.0" encoding="UTF-8" standalone="no"?>
<!DOCTYPE svg PUBLIC "-//W3C//DTD SVG 1.1//EN"
 "http://www.w3.org/Graphics/SVG/1.1/DTD/svg11.dtd">
<!-- Generated by graphviz version 2.36.0 (20140111.2315)
 -->
<!-- Title: WatorController.runOneSim Pages: 1 -->
<svg width="938pt" height="138pt"
 viewBox="0.00 0.00 938.00 138.20" xmlns="http://www.w3.org/2000/svg" xmlns:xlink="http://www.w3.org/1999/xlink">
<g id="graph0" class="graph" transform="scale(1 1) rotate(0) translate(4 134.204)">
<title>WatorController.runOneSim</title>
<polygon fill="white" stroke="none" points="-4,4 -4,-134.204 934,-134.204 934,4 -4,4"/>
<!-- Node1 -->
<g id="node1" class="node"><title>Node1</title>
<polygon fill="#bfbfbf" stroke="black" points="0,-57.5 0,-76.5 146,-76.5 146,-57.5 0,-57.5"/>
<text text-anchor="middle" x="73" y="-64.5" font-family="Helvetica,sans-Serif" font-size="10.00">WatorController.runOneSim</text>
</g>
<!-- Node2 -->
<g id="node2" class="node"><title>Node2</title>
<g id="a_node2"><a xlink:href="../../d6/d6e/class_sim_controller.html#a9bcf3624f6cc29fad497fbad519831f5" target="_top" xlink:title="SimController.contains">
<polygon fill="white" stroke="black" points="804.5,-98.5 804.5,-117.5 929.5,-117.5 929.5,-98.5 804.5,-98.5"/>
<text text-anchor="middle" x="867" y="-105.5" font-family="Helvetica,sans-Serif" font-size="10.00">SimController.contains</text>
</a>
</g>
</g>
<!-- Node1&#45;&gt;Node2 -->
<g id="edge1" class="edge"><title>Node1&#45;&gt;Node2</title>
<path fill="none" stroke="midnightblue" d="M94.9733,-76.6131C116.348,-85.8713 150.715,-99.2867 182,-105 402.148,-145.203 668.838,-127.842 794.248,-115.881"/>
<polygon fill="midnightblue" stroke="midnightblue" points="794.871,-119.337 804.486,-114.886 794.194,-112.369 794.871,-119.337"/>
</g>
<!-- Node3 -->
<g id="node3" class="node"><title>Node3</title>
<g id="a_node3"><a xlink:href="../../dc/da7/class_wator_controller.html#a719d7313e2bb6551d9f8845c0fcd0db5" target="_top" xlink:title="WatorController.deadShark">
<polygon fill="white" stroke="black" points="201,-38.5 201,-57.5 345,-57.5 345,-38.5 201,-38.5"/>
<text text-anchor="middle" x="273" y="-45.5" font-family="Helvetica,sans-Serif" font-size="10.00">WatorController.deadShark</text>
</a>
</g>
</g>
<!-- Node1&#45;&gt;Node3 -->
<g id="edge2" class="edge"><title>Node1&#45;&gt;Node3</title>
<path fill="none" stroke="midnightblue" d="M146.043,-60.0868C160.507,-58.6988 175.802,-57.2311 190.56,-55.815"/>
<polygon fill="midnightblue" stroke="midnightblue" points="191.054,-59.2837 200.674,-54.8444 190.385,-52.3157 191.054,-59.2837"/>
</g>
<!-- Node4 -->
<g id="node4" class="node"><title>Node4</title>
<g id="a_node4"><a xlink:href="../../d6/d6e/class_sim_controller.html#a97511901b1d373d680de60261b253609" target="_top" xlink:title="SimController.makeCell">
<polygon fill="white" stroke="black" points="209,-0.5 209,-19.5 337,-19.5 337,-0.5 209,-0.5"/>
<text text-anchor="middle" x="273" y="-7.5" font-family="Helvetica,sans-Serif" font-size="10.00">SimController.makeCell</text>
</a>
</g>
</g>
<!-- Node1&#45;&gt;Node4 -->
<g id="edge3" class="edge"><title>Node1&#45;&gt;Node4</title>
<path fill="none" stroke="midnightblue" d="M98.1595,-57.4804C119.859,-49.1759 152.716,-37.2051 182,-29 191.457,-26.3502 201.564,-23.877 211.464,-21.6485"/>
<polygon fill="midnightblue" stroke="midnightblue" points="212.242,-25.0612 221.262,-19.5041 210.745,-18.223 212.242,-25.0612"/>
</g>
<!-- Node5 -->
<g id="node5" class="node"><title>Node5</title>
<g id="a_node5"><a xlink:href="../../dc/da7/class_wator_controller.html#a0d61c3c9e96000370bacec79d64725ab" target="_top" xlink:title="WatorController.updateDestination">
<polygon fill="white" stroke="black" points="182.5,-76.5 182.5,-95.5 363.5,-95.5 363.5,-76.5 182.5,-76.5"/>
<text text-anchor="middle" x="273" y="-83.5" font-family="Helvetica,sans-Serif" font-size="10.00">WatorController.updateDestination</text>
</a>
</g>
</g>
<!-- Node1&#45;&gt;Node5 -->
<g id="edge4" class="edge"><title>Node1&#45;&gt;Node5</title>
<path fill="none" stroke="midnightblue" d="M146.043,-73.9132C154.639,-74.7381 163.528,-75.5911 172.424,-76.4448"/>
<polygon fill="midnightblue" stroke="midnightblue" points="172.167,-79.936 182.455,-77.4073 172.835,-72.968 172.167,-79.936"/>
</g>
<!-- Node6 -->
<g id="node6" class="node"><title>Node6</title>
<g id="a_node6"><a xlink:href="../../dc/da7/class_wator_controller.html#a1cf19c6619c3be6edf4e18c4758f6c01" target="_top" xlink:title="WatorController.updateFrom\lShark">
<polygon fill="white" stroke="black" points="409,-71 409,-101 559,-101 559,-71 409,-71"/>
<text text-anchor="start" x="417" y="-89" font-family="Helvetica,sans-Serif" font-size="10.00">WatorController.updateFrom</text>
<text text-anchor="middle" x="484" y="-78" font-family="Helvetica,sans-Serif" font-size="10.00">Shark</text>
</a>
</g>
</g>
<!-- Node5&#45;&gt;Node6 -->
<g id="edge5" class="edge"><title>Node5&#45;&gt;Node6</title>
<path fill="none" stroke="midnightblue" d="M363.544,-86C375.198,-86 387.106,-86 398.671,-86"/>
<polygon fill="midnightblue" stroke="midnightblue" points="398.731,-89.5001 408.731,-86 398.731,-82.5001 398.731,-89.5001"/>
</g>
<!-- Node10 -->
<g id="node10" class="node"><title>Node10</title>
<g id="a_node10"><a xlink:href="../../dc/da7/class_wator_controller.html#a92a5ed25c56db84dd6f20e244d092a46" target="_top" xlink:title="WatorController.updateFromFish">
<polygon fill="white" stroke="black" points="400,-32.5 400,-51.5 568,-51.5 568,-32.5 400,-32.5"/>
<text text-anchor="middle" x="484" y="-39.5" font-family="Helvetica,sans-Serif" font-size="10.00">WatorController.updateFromFish</text>
</a>
</g>
</g>
<!-- Node5&#45;&gt;Node10 -->
<g id="edge10" class="edge"><title>Node5&#45;&gt;Node10</title>
<path fill="none" stroke="midnightblue" d="M319.35,-76.4527C351.12,-69.7643 393.765,-60.7863 427.557,-53.6721"/>
<polygon fill="midnightblue" stroke="midnightblue" points="428.674,-57.0138 437.739,-51.5287 427.232,-50.164 428.674,-57.0138"/>
</g>
<!-- Node7 -->
<g id="node7" class="node"><title>Node7</title>
<g id="a_node7"><a xlink:href="../../dc/da7/class_wator_controller.html#aa2798e4be6f701485c448df33a18db55" target="_top" xlink:title="WatorController.getNeighbors">
<polygon fill="white" stroke="black" points="607.5,-38.5 607.5,-57.5 764.5,-57.5 764.5,-38.5 607.5,-38.5"/>
<text text-anchor="middle" x="686" y="-45.5" font-family="Helvetica,sans-Serif" font-size="10.00">WatorController.getNeighbors</text>
</a>
</g>
</g>
<!-- Node6&#45;&gt;Node7 -->
<g id="edge6" class="edge"><title>Node6&#45;&gt;Node7</title>
<path fill="none" stroke="midnightblue" d="M559.188,-71.9042C580.875,-67.7838 604.3,-63.333 624.99,-59.4019"/>
<polygon fill="midnightblue" stroke="midnightblue" points="625.737,-62.8226 634.908,-57.5175 624.43,-55.9457 625.737,-62.8226"/>
</g>
<!-- Node9 -->
<g id="node9" class="node"><title>Node9</title>
<g id="a_node9"><a xlink:href="../../dc/da7/class_wator_controller.html#aade8fb474e0e1872f2ad4e1d6c845e34" target="_top" xlink:title="WatorController.getDestination">
<polygon fill="white" stroke="black" points="604.5,-76.5 604.5,-95.5 767.5,-95.5 767.5,-76.5 604.5,-76.5"/>
<text text-anchor="middle" x="686" y="-83.5" font-family="Helvetica,sans-Serif" font-size="10.00">WatorController.getDestination</text>
</a>
</g>
</g>
<!-- Node6&#45;&gt;Node9 -->
<g id="edge9" class="edge"><title>Node6&#45;&gt;Node9</title>
<path fill="none" stroke="midnightblue" d="M559.188,-86C570.538,-86 582.364,-86 594.024,-86"/>
<polygon fill="midnightblue" stroke="midnightblue" points="594.213,-89.5001 604.213,-86 594.213,-82.5001 594.213,-89.5001"/>
</g>
<!-- Node7&#45;&gt;Node2 -->
<g id="edge7" class="edge"><title>Node7&#45;&gt;Node2</title>
<path fill="none" stroke="midnightblue" d="M733.626,-57.543C744.975,-60.2474 757.007,-63.4384 768,-67 791.564,-74.6347 817.378,-85.5437 836.594,-94.1898"/>
<polygon fill="midnightblue" stroke="midnightblue" points="835.175,-97.3895 845.726,-98.3516 838.078,-91.0197 835.175,-97.3895"/>
</g>
<!-- Node8 -->
<g id="node8" class="node"><title>Node8</title>
<g id="a_node8"><a xlink:href="../../d5/dda/class_boundary.html#aed4c1bccb93b927e5b052afc5122f72e" target="_top" xlink:title="Boundary.makeCell">
<polygon fill="white" stroke="black" points="813,-38.5 813,-57.5 921,-57.5 921,-38.5 813,-38.5"/>
<text text-anchor="middle" x="867" y="-45.5" font-family="Helvetica,sans-Serif" font-size="10.00">Boundary.makeCell</text>
</a>
</g>
</g>
<!-- Node7&#45;&gt;Node8 -->
<g id="edge8" class="edge"><title>Node7&#45;&gt;Node8</title>
<path fill="none" stroke="midnightblue" d="M764.731,-48C777.409,-48 790.408,-48 802.686,-48"/>
<polygon fill="midnightblue" stroke="midnightblue" points="802.807,-51.5001 812.807,-48 802.807,-44.5001 802.807,-51.5001"/>
</g>
<!-- Node10&#45;&gt;Node7 -->
<g id="edge11" class="edge"><title>Node10&#45;&gt;Node7</title>
<path fill="none" stroke="midnightblue" d="M568.08,-44.4924C577.719,-44.7816 587.573,-45.0772 597.271,-45.3681"/>
<polygon fill="midnightblue" stroke="midnightblue" points="597.204,-48.8676 607.305,-45.6691 597.414,-41.8708 597.204,-48.8676"/>
</g>
<!-- Node10&#45;&gt;Node9 -->
<g id="edge12" class="edge"><title>Node10&#45;&gt;Node9</title>
<path fill="none" stroke="midnightblue" d="M528.397,-51.5473C558.668,-58.2069 599.256,-67.1363 631.526,-74.2358"/>
<polygon fill="midnightblue" stroke="midnightblue" points="631.169,-77.7409 641.688,-76.4713 632.673,-70.9043 631.169,-77.7409"/>
</g>
</g>
</svg>
