<?xml version="1.0" encoding="UTF-8" standalone="no"?>
<!DOCTYPE svg PUBLIC "-//W3C//DTD SVG 1.1//EN"
 "http://www.w3.org/Graphics/SVG/1.1/DTD/svg11.dtd">
<!-- Generated by graphviz version 2.36.0 (20140111.2315)
 -->
<!-- Title: WatorController.getDestination Pages: 1 -->
<svg width="776pt" height="77pt"
 viewBox="0.00 0.00 776.00 77.00" xmlns="http://www.w3.org/2000/svg" xmlns:xlink="http://www.w3.org/1999/xlink">
<g id="graph0" class="graph" transform="scale(1 1) rotate(0) translate(4 73)">
<title>WatorController.getDestination</title>
<polygon fill="white" stroke="none" points="-4,4 -4,-73 772,-73 772,4 -4,4"/>
<!-- Node1 -->
<g id="node1" class="node"><title>Node1</title>
<polygon fill="#bfbfbf" stroke="black" points="0.5,-27.5 0.5,-46.5 163.5,-46.5 163.5,-27.5 0.5,-27.5"/>
<text text-anchor="middle" x="82" y="-34.5" font-family="Helvetica,sans-Serif" font-size="10.00">WatorController.getDestination</text>
</g>
<!-- Node2 -->
<g id="node2" class="node"><title>Node2</title>
<g id="a_node2"><a xlink:href="../../dc/da7/class_wator_controller.html#a92a5ed25c56db84dd6f20e244d092a46" target="_top" xlink:title="WatorController.updateFromFish">
<polygon fill="white" stroke="black" points="200,-49.5 200,-68.5 368,-68.5 368,-49.5 200,-49.5"/>
<text text-anchor="middle" x="284" y="-56.5" font-family="Helvetica,sans-Serif" font-size="10.00">WatorController.updateFromFish</text>
</a>
</g>
</g>
<!-- Node1&#45;&gt;Node2 -->
<g id="edge1" class="edge"><title>Node1&#45;&gt;Node2</title>
<path fill="none" stroke="midnightblue" d="M173.907,-46.9998C182.591,-47.9551 191.368,-48.9205 199.971,-49.8669"/>
<polygon fill="midnightblue" stroke="midnightblue" points="174.094,-43.4993 163.771,-45.8848 173.328,-50.4573 174.094,-43.4993"/>
</g>
<!-- Node5 -->
<g id="node5" class="node"><title>Node5</title>
<g id="a_node5"><a xlink:href="../../dc/da7/class_wator_controller.html#a1cf19c6619c3be6edf4e18c4758f6c01" target="_top" xlink:title="WatorController.updateFrom\lShark">
<polygon fill="white" stroke="black" points="209,-0 209,-30 359,-30 359,-0 209,-0"/>
<text text-anchor="start" x="217" y="-18" font-family="Helvetica,sans-Serif" font-size="10.00">WatorController.updateFrom</text>
<text text-anchor="middle" x="284" y="-7" font-family="Helvetica,sans-Serif" font-size="10.00">Shark</text>
</a>
</g>
</g>
<!-- Node1&#45;&gt;Node5 -->
<g id="edge4" class="edge"><title>Node1&#45;&gt;Node5</title>
<path fill="none" stroke="midnightblue" d="M173.941,-26.9965C185.58,-25.7162 197.384,-24.4178 208.715,-23.1713"/>
<polygon fill="midnightblue" stroke="midnightblue" points="173.328,-23.5427 163.771,-28.1152 174.094,-30.5007 173.328,-23.5427"/>
</g>
<!-- Node3 -->
<g id="node3" class="node"><title>Node3</title>
<g id="a_node3"><a xlink:href="../../dc/da7/class_wator_controller.html#a0d61c3c9e96000370bacec79d64725ab" target="_top" xlink:title="WatorController.updateDestination">
<polygon fill="white" stroke="black" points="404.5,-27.5 404.5,-46.5 585.5,-46.5 585.5,-27.5 404.5,-27.5"/>
<text text-anchor="middle" x="495" y="-34.5" font-family="Helvetica,sans-Serif" font-size="10.00">WatorController.updateDestination</text>
</a>
</g>
</g>
<!-- Node2&#45;&gt;Node3 -->
<g id="edge2" class="edge"><title>Node2&#45;&gt;Node3</title>
<path fill="none" stroke="midnightblue" d="M378.268,-49.1823C386.894,-48.2743 395.624,-47.3553 404.219,-46.4507"/>
<polygon fill="midnightblue" stroke="midnightblue" points="377.781,-45.7141 368.203,-50.2418 378.514,-52.6756 377.781,-45.7141"/>
</g>
<!-- Node4 -->
<g id="node4" class="node"><title>Node4</title>
<g id="a_node4"><a xlink:href="../../dc/da7/class_wator_controller.html#acc1968e8357ac21f25473b4fcbadc954" target="_top" xlink:title="WatorController.runOneSim">
<polygon fill="white" stroke="black" points="622,-27.5 622,-46.5 768,-46.5 768,-27.5 622,-27.5"/>
<text text-anchor="middle" x="695" y="-34.5" font-family="Helvetica,sans-Serif" font-size="10.00">WatorController.runOneSim</text>
</a>
</g>
</g>
<!-- Node3&#45;&gt;Node4 -->
<g id="edge3" class="edge"><title>Node3&#45;&gt;Node4</title>
<path fill="none" stroke="midnightblue" d="M595.946,-37C604.658,-37 613.36,-37 621.782,-37"/>
<polygon fill="midnightblue" stroke="midnightblue" points="595.731,-33.5001 585.731,-37 595.731,-40.5001 595.731,-33.5001"/>
</g>
<!-- Node5&#45;&gt;Node3 -->
<g id="edge5" class="edge"><title>Node5&#45;&gt;Node3</title>
<path fill="none" stroke="midnightblue" d="M369.28,-23.8715C380.782,-25.0823 392.624,-26.3288 404.219,-27.5493"/>
<polygon fill="midnightblue" stroke="midnightblue" points="369.586,-20.3845 359.274,-22.8183 368.853,-27.346 369.586,-20.3845"/>
</g>
</g>
</svg>
