<?xml version="1.0" encoding="UTF-8" standalone="no"?>
<!DOCTYPE svg PUBLIC "-//W3C//DTD SVG 1.1//EN"
 "http://www.w3.org/Graphics/SVG/1.1/DTD/svg11.dtd">
<!-- Generated by graphviz version 2.36.0 (20140111.2315)
 -->
<!-- Title: WatorController.makeEligible Pages: 1 -->
<svg width="516pt" height="66pt"
 viewBox="0.00 0.00 516.00 66.00" xmlns="http://www.w3.org/2000/svg" xmlns:xlink="http://www.w3.org/1999/xlink">
<g id="graph0" class="graph" transform="scale(1 1) rotate(0) translate(4 62)">
<title>WatorController.makeEligible</title>
<polygon fill="white" stroke="none" points="-4,4 -4,-62 512,-62 512,4 -4,4"/>
<!-- Node1 -->
<g id="node1" class="node"><title>Node1</title>
<polygon fill="#bfbfbf" stroke="black" points="0,-19.5 0,-38.5 152,-38.5 152,-19.5 0,-19.5"/>
<text text-anchor="middle" x="76" y="-26.5" font-family="Helvetica,sans-Serif" font-size="10.00">WatorController.makeEligible</text>
</g>
<!-- Node2 -->
<g id="node2" class="node"><title>Node2</title>
<g id="a_node2"><a xlink:href="../../dc/da7/class_wator_controller.html#a8a5c6aa913ced9603c3a2064bf758e5e" target="_top" xlink:title="WatorController.getNeighbors">
<polygon fill="white" stroke="black" points="188.5,-19.5 188.5,-38.5 345.5,-38.5 345.5,-19.5 188.5,-19.5"/>
<text text-anchor="middle" x="267" y="-26.5" font-family="Helvetica,sans-Serif" font-size="10.00">WatorController.getNeighbors</text>
</a>
</g>
</g>
<!-- Node1&#45;&gt;Node2 -->
<g id="edge1" class="edge"><title>Node1&#45;&gt;Node2</title>
<path fill="none" stroke="midnightblue" d="M152.241,-29C160.75,-29 169.476,-29 178.128,-29"/>
<polygon fill="midnightblue" stroke="midnightblue" points="178.233,-32.5001 188.233,-29 178.233,-25.5001 178.233,-32.5001"/>
</g>
<!-- Node3 -->
<g id="node3" class="node"><title>Node3</title>
<g id="a_node3"><a xlink:href="../../d6/d6e/class_sim_controller.html#a35fd128d12a001430bbf5e52c70f2742" target="_top" xlink:title="SimController.contains">
<polygon fill="white" stroke="black" points="382.5,-38.5 382.5,-57.5 507.5,-57.5 507.5,-38.5 382.5,-38.5"/>
<text text-anchor="middle" x="445" y="-45.5" font-family="Helvetica,sans-Serif" font-size="10.00">SimController.contains</text>
</a>
</g>
</g>
<!-- Node2&#45;&gt;Node3 -->
<g id="edge2" class="edge"><title>Node2&#45;&gt;Node3</title>
<path fill="none" stroke="midnightblue" d="M345.708,-37.389C354.511,-38.3393 363.453,-39.3046 372.176,-40.2463"/>
<polygon fill="midnightblue" stroke="midnightblue" points="371.975,-43.7448 382.293,-41.3385 372.727,-36.7853 371.975,-43.7448"/>
</g>
<!-- Node4 -->
<g id="node4" class="node"><title>Node4</title>
<g id="a_node4"><a xlink:href="../../d5/dda/class_boundary.html#aed4c1bccb93b927e5b052afc5122f72e" target="_top" xlink:title="Boundary.makeCell">
<polygon fill="white" stroke="black" points="391,-0.5 391,-19.5 499,-19.5 499,-0.5 391,-0.5"/>
<text text-anchor="middle" x="445" y="-7.5" font-family="Helvetica,sans-Serif" font-size="10.00">Boundary.makeCell</text>
</a>
</g>
</g>
<!-- Node2&#45;&gt;Node4 -->
<g id="edge3" class="edge"><title>Node2&#45;&gt;Node4</title>
<path fill="none" stroke="midnightblue" d="M345.708,-20.611C357.412,-19.3476 369.362,-18.0575 380.714,-16.832"/>
<polygon fill="midnightblue" stroke="midnightblue" points="381.382,-20.2804 390.948,-15.7272 380.63,-13.3208 381.382,-20.2804"/>
</g>
</g>
</svg>
