<?xml version="1.0" encoding="UTF-8" standalone="no"?>
<!DOCTYPE svg PUBLIC "-//W3C//DTD SVG 1.1//EN"
 "http://www.w3.org/Graphics/SVG/1.1/DTD/svg11.dtd">
<!-- Generated by graphviz version 2.36.0 (20140111.2315)
 -->
<!-- Title: WatorController.manipulateCell Pages: 1 -->
<svg width="876pt" height="93pt"
 viewBox="0.00 0.00 876.00 93.00" xmlns="http://www.w3.org/2000/svg" xmlns:xlink="http://www.w3.org/1999/xlink">
<g id="graph0" class="graph" transform="scale(1 1) rotate(0) translate(4 89)">
<title>WatorController.manipulateCell</title>
<polygon fill="white" stroke="none" points="-4,4 -4,-89 872,-89 872,4 -4,4"/>
<!-- Node1 -->
<g id="node1" class="node"><title>Node1</title>
<polygon fill="#bfbfbf" stroke="black" points="0,-46.5 0,-65.5 164,-65.5 164,-46.5 0,-46.5"/>
<text text-anchor="middle" x="82" y="-53.5" font-family="Helvetica,sans-Serif" font-size="10.00">WatorController.manipulateCell</text>
</g>
<!-- Node2 -->
<g id="node2" class="node"><title>Node2</title>
<g id="a_node2"><a xlink:href="../../dc/da7/class_wator_controller.html#a6ebd770acf34cd6be236bc5fca9ec7d3" target="_top" xlink:title="WatorController.getDestination">
<polygon fill="white" stroke="black" points="200.5,-65.5 200.5,-84.5 363.5,-84.5 363.5,-65.5 200.5,-65.5"/>
<text text-anchor="middle" x="282" y="-72.5" font-family="Helvetica,sans-Serif" font-size="10.00">WatorController.getDestination</text>
</a>
</g>
</g>
<!-- Node1&#45;&gt;Node2 -->
<g id="edge1" class="edge"><title>Node1&#45;&gt;Node2</title>
<path fill="none" stroke="midnightblue" d="M164.105,-63.7828C172.703,-64.6078 181.486,-65.4507 190.185,-66.2854"/>
<polygon fill="midnightblue" stroke="midnightblue" points="190.052,-69.7887 200.341,-67.26 190.721,-62.8207 190.052,-69.7887"/>
</g>
<!-- Node3 -->
<g id="node3" class="node"><title>Node3</title>
<g id="a_node3"><a xlink:href="../../dc/da7/class_wator_controller.html#ad6ef17a774720254707f22d42c88c781" target="_top" xlink:title="WatorController.makeEligible">
<polygon fill="white" stroke="black" points="206,-27.5 206,-46.5 358,-46.5 358,-27.5 206,-27.5"/>
<text text-anchor="middle" x="282" y="-34.5" font-family="Helvetica,sans-Serif" font-size="10.00">WatorController.makeEligible</text>
</a>
</g>
</g>
<!-- Node1&#45;&gt;Node3 -->
<g id="edge2" class="edge"><title>Node1&#45;&gt;Node3</title>
<path fill="none" stroke="midnightblue" d="M164.105,-48.2172C174.546,-47.2153 185.261,-46.1871 195.765,-45.1791"/>
<polygon fill="midnightblue" stroke="midnightblue" points="196.135,-48.6597 205.755,-44.2204 195.467,-41.6917 196.135,-48.6597"/>
</g>
<!-- Node4 -->
<g id="node4" class="node"><title>Node4</title>
<g id="a_node4"><a xlink:href="../../dc/da7/class_wator_controller.html#a8a5c6aa913ced9603c3a2064bf758e5e" target="_top" xlink:title="WatorController.getNeighbors">
<polygon fill="white" stroke="black" points="400.5,-27.5 400.5,-46.5 557.5,-46.5 557.5,-27.5 400.5,-27.5"/>
<text text-anchor="middle" x="479" y="-34.5" font-family="Helvetica,sans-Serif" font-size="10.00">WatorController.getNeighbors</text>
</a>
</g>
</g>
<!-- Node3&#45;&gt;Node4 -->
<g id="edge3" class="edge"><title>Node3&#45;&gt;Node4</title>
<path fill="none" stroke="midnightblue" d="M358.113,-37C368.602,-37 379.455,-37 390.153,-37"/>
<polygon fill="midnightblue" stroke="midnightblue" points="390.344,-40.5001 400.344,-37 390.344,-33.5001 390.344,-40.5001"/>
</g>
<!-- Node5 -->
<g id="node5" class="node"><title>Node5</title>
<g id="a_node5"><a xlink:href="../../d8/d87/class_controller.html#a2d1d78c34f5551304c3e0f2295766afb" target="_top" xlink:title="Controller.contains">
<polygon fill="white" stroke="black" points="611,-49.5 611,-68.5 717,-68.5 717,-49.5 611,-49.5"/>
<text text-anchor="middle" x="664" y="-56.5" font-family="Helvetica,sans-Serif" font-size="10.00">Controller.contains</text>
</a>
</g>
</g>
<!-- Node4&#45;&gt;Node5 -->
<g id="edge4" class="edge"><title>Node4&#45;&gt;Node5</title>
<path fill="none" stroke="midnightblue" d="M557.608,-46.33C572.11,-48.0734 587.089,-49.8741 601.041,-51.5514"/>
<polygon fill="midnightblue" stroke="midnightblue" points="600.651,-55.0296 610.997,-52.7483 601.487,-48.0797 600.651,-55.0296"/>
</g>
<!-- Node6 -->
<g id="node6" class="node"><title>Node6</title>
<g id="a_node6"><a xlink:href="../../dc/da7/class_wator_controller.html#a64040cc93cd5dc646d39865a7d185b11" target="_top" xlink:title="WatorController.neighbors\lFromTwoDirections">
<polygon fill="white" stroke="black" points="594,-0 594,-30 734,-30 734,-0 594,-0"/>
<text text-anchor="start" x="602" y="-18" font-family="Helvetica,sans-Serif" font-size="10.00">WatorController.neighbors</text>
<text text-anchor="middle" x="664" y="-7" font-family="Helvetica,sans-Serif" font-size="10.00">FromTwoDirections</text>
</a>
</g>
</g>
<!-- Node4&#45;&gt;Node6 -->
<g id="edge5" class="edge"><title>Node4&#45;&gt;Node6</title>
<path fill="none" stroke="midnightblue" d="M557.608,-27.67C566.291,-26.6263 575.144,-25.562 583.845,-24.5159"/>
<polygon fill="midnightblue" stroke="midnightblue" points="584.46,-27.9673 593.97,-23.2986 583.624,-21.0173 584.46,-27.9673"/>
</g>
<!-- Node7 -->
<g id="node7" class="node"><title>Node7</title>
<g id="a_node7"><a xlink:href="../../d5/dda/class_boundary.html#a5b4429164a4f0a293ab14f42f752a698" target="_top" xlink:title="Boundary.findCell">
<polygon fill="white" stroke="black" points="770,-5.5 770,-24.5 868,-24.5 868,-5.5 770,-5.5"/>
<text text-anchor="middle" x="819" y="-12.5" font-family="Helvetica,sans-Serif" font-size="10.00">Boundary.findCell</text>
</a>
</g>
</g>
<!-- Node6&#45;&gt;Node7 -->
<g id="edge6" class="edge"><title>Node6&#45;&gt;Node7</title>
<path fill="none" stroke="midnightblue" d="M734.337,-15C742.882,-15 751.546,-15 759.899,-15"/>
<polygon fill="midnightblue" stroke="midnightblue" points="759.905,-18.5001 769.905,-15 759.905,-11.5001 759.905,-18.5001"/>
</g>
</g>
</svg>
