<?xml version="1.0" encoding="UTF-8" standalone="no"?>
<!DOCTYPE svg PUBLIC "-//W3C//DTD SVG 1.1//EN"
 "http://www.w3.org/Graphics/SVG/1.1/DTD/svg11.dtd">
<!-- Generated by graphviz version 2.36.0 (20140111.2315)
 -->
<!-- Title: WatorController.runOneSim Pages: 1 -->
<!--zoomable 139 -->
<svg id="main" version="1.1" xmlns="http://www.w3.org/2000/svg" xmlns:xlink="http://www.w3.org/1999/xlink" xml:space="preserve" onload="init(evt)">
<style type="text/css"><![CDATA[
.edge:hover path { stroke: red; }
.edge:hover polygon { stroke: red; fill: red; }
]]></style>
<script type="text/javascript"><![CDATA[
var edges = document.getElementsByTagName('g');
if (edges && edges.length) {
  for (var i=0;i<edges.length;i++) {
    if (edges[i].id.substr(0,4)=='edge') {
      edges[i].setAttribute('class','edge');
    }
  }
}
]]></script>
        <defs>
                <circle id="rim" cx="0" cy="0" r="7"/>
                <circle id="rim2" cx="0" cy="0" r="3.5"/>
                <g id="zoomPlus">
                        <use xlink:href="#rim" fill="#404040">
                                <set attributeName="fill" to="#808080" begin="zoomplus.mouseover" end="zoomplus.mouseout"/>
                        </use>
                        <path d="M-4,0h8M0,-4v8" fill="none" stroke="white" stroke-width="1.5" pointer-events="none"/>
                </g>
                <g id="zoomMin">
                        <use xlink:href="#rim" fill="#404040">
                                <set attributeName="fill" to="#808080" begin="zoomminus.mouseover" end="zoomminus.mouseout"/>
                        </use>
                        <path d="M-4,0h8" fill="none" stroke="white" stroke-width="1.5" pointer-events="none"/>
                </g>
                <g id="dirArrow">
                        <path fill="none" stroke="white" stroke-width="1.5" d="M0,-3.0v7 M-2.5,-0.5L0,-3.0L2.5,-0.5"/>
                </g>
               <g id="resetDef">
                       <use xlink:href="#rim2" fill="#404040">
                               <set attributeName="fill" to="#808080" begin="reset.mouseover" end="reset.mouseout"/>
                       </use>
               </g>
        </defs>

<script type="text/javascript">
var viewWidth = 914;
var viewHeight = 139;
var sectionId = 'dynsection-8';
</script>
<script xlink:href="../../svgpan.js"/>
<svg id="graph" class="graph">
<g id="viewport">
<title>WatorController.runOneSim</title>
<polygon fill="white" stroke="none" points="-4,4 -4,-134.59 910,-134.59 910,4 -4,4"/>
<!-- Node1 -->
<g id="node1" class="node"><title>Node1</title>
<polygon fill="#bfbfbf" stroke="black" points="0,-57.5 0,-76.5 146,-76.5 146,-57.5 0,-57.5"/>
<text text-anchor="middle" x="73" y="-64.5" font-family="Helvetica,sans-Serif" font-size="10.00">WatorController.runOneSim</text>
</g>
<!-- Node2 -->
<g id="node2" class="node"><title>Node2</title>
<g id="a_node2"><a xlink:href="../../d6/d6e/class_sim_controller.html#a9bcf3624f6cc29fad497fbad519831f5" target="_top" xlink:title="SimController.contains">
<polygon fill="white" stroke="black" points="780.5,-104.5 780.5,-123.5 905.5,-123.5 905.5,-104.5 780.5,-104.5"/>
<text text-anchor="middle" x="843" y="-111.5" font-family="Helvetica,sans-Serif" font-size="10.00">SimController.contains</text>
</a>
</g>
</g>
<!-- Node1&#45;&gt;Node2 -->
<g id="edge1" class="edge"><title>Node1&#45;&gt;Node2</title>
<path fill="none" stroke="midnightblue" d="M94.5632,-76.5005C115.899,-85.8119 150.493,-99.3974 182,-105 393.036,-142.526 648.03,-130.02 770.081,-120.56"/>
<polygon fill="midnightblue" stroke="midnightblue" points="770.718,-124.021 780.41,-119.742 770.165,-117.043 770.718,-124.021"/>
</g>
<!-- Node3 -->
<g id="node3" class="node"><title>Node3</title>
<g id="a_node3"><a xlink:href="../../dc/da7/class_wator_controller.html#a719d7313e2bb6551d9f8845c0fcd0db5" target="_top" xlink:title="WatorController.deadShark">
<polygon fill="white" stroke="black" points="194,-76.5 194,-95.5 338,-95.5 338,-76.5 194,-76.5"/>
<text text-anchor="middle" x="266" y="-83.5" font-family="Helvetica,sans-Serif" font-size="10.00">WatorController.deadShark</text>
</a>
</g>
</g>
<!-- Node1&#45;&gt;Node3 -->
<g id="edge2" class="edge"><title>Node1&#45;&gt;Node3</title>
<path fill="none" stroke="midnightblue" d="M146.209,-74.1831C158.546,-75.4103 171.435,-76.6925 183.982,-77.9407"/>
<polygon fill="midnightblue" stroke="midnightblue" points="183.658,-81.4255 193.955,-78.9327 184.351,-74.4599 183.658,-81.4255"/>
</g>
<!-- Node4 -->
<g id="node4" class="node"><title>Node4</title>
<g id="a_node4"><a xlink:href="../../d6/d6e/class_sim_controller.html#a97511901b1d373d680de60261b253609" target="_top" xlink:title="SimController.makeCell">
<polygon fill="white" stroke="black" points="202,-38.5 202,-57.5 330,-57.5 330,-38.5 202,-38.5"/>
<text text-anchor="middle" x="266" y="-45.5" font-family="Helvetica,sans-Serif" font-size="10.00">SimController.makeCell</text>
</a>
</g>
</g>
<!-- Node1&#45;&gt;Node4 -->
<g id="edge3" class="edge"><title>Node1&#45;&gt;Node4</title>
<path fill="none" stroke="midnightblue" d="M146.209,-59.8169C161.058,-58.3398 176.707,-56.7831 191.598,-55.3018"/>
<polygon fill="midnightblue" stroke="midnightblue" points="192.162,-58.763 201.767,-54.2902 191.469,-51.7974 192.162,-58.763"/>
</g>
<!-- Node5 -->
<g id="node5" class="node"><title>Node5</title>
<g id="a_node5"><a xlink:href="../../dc/da7/class_wator_controller.html#a4b2c805aa780ce6f89ae2bf98714bbbb" target="_top" xlink:title="WatorController.updateFromCell">
<polygon fill="white" stroke="black" points="182.5,-0.5 182.5,-19.5 349.5,-19.5 349.5,-0.5 182.5,-0.5"/>
<text text-anchor="middle" x="266" y="-7.5" font-family="Helvetica,sans-Serif" font-size="10.00">WatorController.updateFromCell</text>
</a>
</g>
</g>
<!-- Node1&#45;&gt;Node5 -->
<g id="edge4" class="edge"><title>Node1&#45;&gt;Node5</title>
<path fill="none" stroke="midnightblue" d="M98.6212,-57.4392C120.345,-49.2201 152.978,-37.3982 182,-29 190.76,-26.4652 200.117,-24.0488 209.276,-21.8409"/>
<polygon fill="midnightblue" stroke="midnightblue" points="210.164,-25.2274 219.098,-19.5311 208.562,-18.4132 210.164,-25.2274"/>
</g>
<!-- Node6 -->
<g id="node6" class="node"><title>Node6</title>
<g id="a_node6"><a xlink:href="../../dc/da7/class_wator_controller.html#a13093ab436848e39af4dbdea80e4b9fe" target="_top" xlink:title="WatorController.makeEligible">
<polygon fill="white" stroke="black" points="392,-48.5 392,-67.5 544,-67.5 544,-48.5 392,-48.5"/>
<text text-anchor="middle" x="468" y="-55.5" font-family="Helvetica,sans-Serif" font-size="10.00">WatorController.makeEligible</text>
</a>
</g>
</g>
<!-- Node5&#45;&gt;Node6 -->
<g id="edge5" class="edge"><title>Node5&#45;&gt;Node6</title>
<path fill="none" stroke="midnightblue" d="M309.258,-19.5196C322.331,-22.5058 336.771,-25.8466 350,-29 372.934,-34.4667 398.341,-40.7381 419.603,-46.0473"/>
<polygon fill="midnightblue" stroke="midnightblue" points="418.817,-49.4583 429.367,-48.4904 420.516,-42.6677 418.817,-49.4583"/>
</g>
<!-- Node9 -->
<g id="node9" class="node"><title>Node9</title>
<g id="a_node9"><a xlink:href="../../dc/da7/class_wator_controller.html#aade8fb474e0e1872f2ad4e1d6c845e34" target="_top" xlink:title="WatorController.getDestination">
<polygon fill="white" stroke="black" points="386.5,-0.5 386.5,-19.5 549.5,-19.5 549.5,-0.5 386.5,-0.5"/>
<text text-anchor="middle" x="468" y="-7.5" font-family="Helvetica,sans-Serif" font-size="10.00">WatorController.getDestination</text>
</a>
</g>
</g>
<!-- Node5&#45;&gt;Node9 -->
<g id="edge9" class="edge"><title>Node5&#45;&gt;Node9</title>
<path fill="none" stroke="midnightblue" d="M349.502,-10C358.337,-10 367.359,-10 376.282,-10"/>
<polygon fill="midnightblue" stroke="midnightblue" points="376.299,-13.5001 386.299,-10 376.299,-6.5001 376.299,-13.5001"/>
</g>
<!-- Node7 -->
<g id="node7" class="node"><title>Node7</title>
<g id="a_node7"><a xlink:href="../../dc/da7/class_wator_controller.html#aa2798e4be6f701485c448df33a18db55" target="_top" xlink:title="WatorController.getNeighbors">
<polygon fill="white" stroke="black" points="586.5,-57.5 586.5,-76.5 743.5,-76.5 743.5,-57.5 586.5,-57.5"/>
<text text-anchor="middle" x="665" y="-64.5" font-family="Helvetica,sans-Serif" font-size="10.00">WatorController.getNeighbors</text>
</a>
</g>
</g>
<!-- Node6&#45;&gt;Node7 -->
<g id="edge6" class="edge"><title>Node6&#45;&gt;Node7</title>
<path fill="none" stroke="midnightblue" d="M544.113,-61.4668C554.602,-61.9508 565.455,-62.4518 576.153,-62.9455"/>
<polygon fill="midnightblue" stroke="midnightblue" points="576.193,-66.451 586.344,-63.4159 576.516,-59.4584 576.193,-66.451"/>
</g>
<!-- Node7&#45;&gt;Node2 -->
<g id="edge7" class="edge"><title>Node7&#45;&gt;Node2</title>
<path fill="none" stroke="midnightblue" d="M701.616,-76.5112C728.96,-83.8132 766.913,-93.9483 796.463,-101.84"/>
<polygon fill="midnightblue" stroke="midnightblue" points="795.571,-105.224 806.135,-104.422 797.377,-98.4608 795.571,-105.224"/>
</g>
<!-- Node8 -->
<g id="node8" class="node"><title>Node8</title>
<g id="a_node8"><a xlink:href="../../d5/dda/class_boundary.html#aed4c1bccb93b927e5b052afc5122f72e" target="_top" xlink:title="Boundary.makeCell">
<polygon fill="white" stroke="black" points="789,-57.5 789,-76.5 897,-76.5 897,-57.5 789,-57.5"/>
<text text-anchor="middle" x="843" y="-64.5" font-family="Helvetica,sans-Serif" font-size="10.00">Boundary.makeCell</text>
</a>
</g>
</g>
<!-- Node7&#45;&gt;Node8 -->
<g id="edge8" class="edge"><title>Node7&#45;&gt;Node8</title>
<path fill="none" stroke="midnightblue" d="M743.708,-67C755.412,-67 767.362,-67 778.714,-67"/>
<polygon fill="midnightblue" stroke="midnightblue" points="778.948,-70.5001 788.948,-67 778.948,-63.5001 778.948,-70.5001"/>
</g>
</g>
</svg>
        <g id="navigator" transform="translate(0 0)" fill="#404254">
                <rect fill="#f2f5e9" fill-opacity="0.5" stroke="#606060" stroke-width=".5" x="0" y="0" width="60" height="60"/>
                <use id="zoomplus" xlink:href="#zoomPlus" x="17" y="9" onmousedown="handleZoom(evt,'in')"/>
                <use id="zoomminus" xlink:href="#zoomMin" x="42" y="9" onmousedown="handleZoom(evt,'out')"/>
                <use id="reset" xlink:href="#resetDef" x="30" y="36" onmousedown="handleReset()"/>
                <g id="arrowUp" xlink:href="#dirArrow" transform="translate(30 24)" onmousedown="handlePan(0,-1)">
                  <use xlink:href="#rim" fill="#404040">
                        <set attributeName="fill" to="#808080" begin="arrowUp.mouseover" end="arrowUp.mouseout"/>
                  </use>
                  <path fill="none" stroke="white" stroke-width="1.5" d="M0,-3.0v7 M-2.5,-0.5L0,-3.0L2.5,-0.5"/>
                </g>
                <g id="arrowRight" xlink:href="#dirArrow" transform="rotate(90) translate(36 -43)" onmousedown="handlePan(1,0)">
                  <use xlink:href="#rim" fill="#404040">
                        <set attributeName="fill" to="#808080" begin="arrowRight.mouseover" end="arrowRight.mouseout"/>
                  </use>
                  <path fill="none" stroke="white" stroke-width="1.5" d="M0,-3.0v7 M-2.5,-0.5L0,-3.0L2.5,-0.5"/>
                </g>
                <g id="arrowDown" xlink:href="#dirArrow" transform="rotate(180) translate(-30 -48)" onmousedown="handlePan(0,1)">
                  <use xlink:href="#rim" fill="#404040">
                        <set attributeName="fill" to="#808080" begin="arrowDown.mouseover" end="arrowDown.mouseout"/>
                  </use>
                  <path fill="none" stroke="white" stroke-width="1.5" d="M0,-3.0v7 M-2.5,-0.5L0,-3.0L2.5,-0.5"/>
                </g>
                <g id="arrowLeft" xlink:href="#dirArrow" transform="rotate(270) translate(-36 17)" onmousedown="handlePan(-1,0)">
                  <use xlink:href="#rim" fill="#404040">
                        <set attributeName="fill" to="#808080" begin="arrowLeft.mouseover" end="arrowLeft.mouseout"/>
                  </use>
                  <path fill="none" stroke="white" stroke-width="1.5" d="M0,-3.0v7 M-2.5,-0.5L0,-3.0L2.5,-0.5"/>
                </g>
        </g>
        <svg viewBox="0 0 15 15" width="100%" height="30px" preserveAspectRatio="xMaxYMin meet">
         <g id="arrow_out" transform="scale(0.3 0.3)">
          <a xlink:href="class_wator_controller_acc1968e8357ac21f25473b4fcbadc954_cgraph_org.svg" target="_base">
           <rect id="button" ry="5" rx="5" y="6" x="6" height="38" width="38"
                fill="#f2f5e9" fill-opacity="0.5" stroke="#606060" stroke-width="1.0"/>
           <path id="arrow"
             d="M 11.500037,31.436501 C 11.940474,20.09759 22.043105,11.32322 32.158766,21.979434 L 37.068811,17.246167 C 37.068811,17.246167 37.088388,32 37.088388,32 L 22.160133,31.978069 C 22.160133,31.978069 26.997745,27.140456 26.997745,27.140456 C 18.528582,18.264221 13.291696,25.230495 11.500037,31.436501 z"
             style="fill:#404040;"/>
          </a>
         </g>
        </svg>
</svg>
