<?xml version="1.0" encoding="UTF-8" standalone="no"?>
<!DOCTYPE svg PUBLIC "-//W3C//DTD SVG 1.1//EN"
 "http://www.w3.org/Graphics/SVG/1.1/DTD/svg11.dtd">
<!-- Generated by graphviz version 2.36.0 (20140111.2315)
 -->
<!-- Title: WatorController.getNeighbors Pages: 1 -->
<svg width="740pt" height="28pt"
 viewBox="0.00 0.00 740.00 28.00" xmlns="http://www.w3.org/2000/svg" xmlns:xlink="http://www.w3.org/1999/xlink">
<g id="graph0" class="graph" transform="scale(1 1) rotate(0) translate(4 24)">
<title>WatorController.getNeighbors</title>
<polygon fill="white" stroke="none" points="-4,4 -4,-24 736,-24 736,4 -4,4"/>
<!-- Node1 -->
<g id="node1" class="node"><title>Node1</title>
<polygon fill="#bfbfbf" stroke="black" points="0.5,-0.5 0.5,-19.5 157.5,-19.5 157.5,-0.5 0.5,-0.5"/>
<text text-anchor="middle" x="79" y="-7.5" font-family="Helvetica,sans-Serif" font-size="10.00">WatorController.getNeighbors</text>
</g>
<!-- Node2 -->
<g id="node2" class="node"><title>Node2</title>
<g id="a_node2"><a xlink:href="../../dc/da7/class_wator_controller.html#ad6ef17a774720254707f22d42c88c781" target="_top" xlink:title="WatorController.makeEligible">
<polygon fill="white" stroke="black" points="194,-0.5 194,-19.5 346,-19.5 346,-0.5 194,-0.5"/>
<text text-anchor="middle" x="270" y="-7.5" font-family="Helvetica,sans-Serif" font-size="10.00">WatorController.makeEligible</text>
</a>
</g>
</g>
<!-- Node1&#45;&gt;Node2 -->
<g id="edge1" class="edge"><title>Node1&#45;&gt;Node2</title>
<path fill="none" stroke="midnightblue" d="M167.812,-10C176.478,-10 185.22,-10 193.743,-10"/>
<polygon fill="midnightblue" stroke="midnightblue" points="167.692,-6.5001 157.692,-10 167.692,-13.5001 167.692,-6.5001"/>
</g>
<!-- Node3 -->
<g id="node3" class="node"><title>Node3</title>
<g id="a_node3"><a xlink:href="../../dc/da7/class_wator_controller.html#ac7f4117f349a319ab8af35b4f9bc8876" target="_top" xlink:title="WatorController.updateFromCell">
<polygon fill="white" stroke="black" points="382.5,-0.5 382.5,-19.5 549.5,-19.5 549.5,-0.5 382.5,-0.5"/>
<text text-anchor="middle" x="466" y="-7.5" font-family="Helvetica,sans-Serif" font-size="10.00">WatorController.updateFromCell</text>
</a>
</g>
</g>
<!-- Node2&#45;&gt;Node3 -->
<g id="edge2" class="edge"><title>Node2&#45;&gt;Node3</title>
<path fill="none" stroke="midnightblue" d="M356.176,-10C364.904,-10 373.763,-10 382.463,-10"/>
<polygon fill="midnightblue" stroke="midnightblue" points="356.005,-6.5001 346.005,-10 356.005,-13.5001 356.005,-6.5001"/>
</g>
<!-- Node4 -->
<g id="node4" class="node"><title>Node4</title>
<g id="a_node4"><a xlink:href="../../dc/da7/class_wator_controller.html#acc1968e8357ac21f25473b4fcbadc954" target="_top" xlink:title="WatorController.runOneSim">
<polygon fill="white" stroke="black" points="586,-0.5 586,-19.5 732,-19.5 732,-0.5 586,-0.5"/>
<text text-anchor="middle" x="659" y="-7.5" font-family="Helvetica,sans-Serif" font-size="10.00">WatorController.runOneSim</text>
</a>
</g>
</g>
<!-- Node3&#45;&gt;Node4 -->
<g id="edge3" class="edge"><title>Node3&#45;&gt;Node4</title>
<path fill="none" stroke="midnightblue" d="M559.836,-10C568.526,-10 577.246,-10 585.707,-10"/>
<polygon fill="midnightblue" stroke="midnightblue" points="559.665,-6.5001 549.665,-10 559.664,-13.5001 559.665,-6.5001"/>
</g>
</g>
</svg>
