<?xml version="1.0" encoding="UTF-8" standalone="no"?>
<!DOCTYPE svg PUBLIC "-//W3C//DTD SVG 1.1//EN"
 "http://www.w3.org/Graphics/SVG/1.1/DTD/svg11.dtd">
<!-- Generated by graphviz version 2.36.0 (20140111.2315)
 -->
<!-- Title: WatorController.manipulateCell Pages: 1 -->
<!--zoomable 370 -->
<svg id="main" version="1.1" xmlns="http://www.w3.org/2000/svg" xmlns:xlink="http://www.w3.org/1999/xlink" xml:space="preserve" onload="init(evt)">
<style type="text/css"><![CDATA[
.edge:hover path { stroke: red; }
.edge:hover polygon { stroke: red; fill: red; }
]]></style>
<script type="text/javascript"><![CDATA[
var edges = document.getElementsByTagName('g');
if (edges && edges.length) {
  for (var i=0;i<edges.length;i++) {
    if (edges[i].id.substr(0,4)=='edge') {
      edges[i].setAttribute('class','edge');
    }
  }
}
]]></script>
        <defs>
                <circle id="rim" cx="0" cy="0" r="7"/>
                <circle id="rim2" cx="0" cy="0" r="3.5"/>
                <g id="zoomPlus">
                        <use xlink:href="#rim" fill="#404040">
                                <set attributeName="fill" to="#808080" begin="zoomplus.mouseover" end="zoomplus.mouseout"/>
                        </use>
                        <path d="M-4,0h8M0,-4v8" fill="none" stroke="white" stroke-width="1.5" pointer-events="none"/>
                </g>
                <g id="zoomMin">
                        <use xlink:href="#rim" fill="#404040">
                                <set attributeName="fill" to="#808080" begin="zoomminus.mouseover" end="zoomminus.mouseout"/>
                        </use>
                        <path d="M-4,0h8" fill="none" stroke="white" stroke-width="1.5" pointer-events="none"/>
                </g>
                <g id="dirArrow">
                        <path fill="none" stroke="white" stroke-width="1.5" d="M0,-3.0v7 M-2.5,-0.5L0,-3.0L2.5,-0.5"/>
                </g>
               <g id="resetDef">
                       <use xlink:href="#rim2" fill="#404040">
                               <set attributeName="fill" to="#808080" begin="reset.mouseover" end="reset.mouseout"/>
                       </use>
               </g>
        </defs>

<script type="text/javascript">
var viewWidth = 730;
var viewHeight = 370;
var sectionId = 'dynsection-9';
</script>
<script xlink:href="../../svgpan.js"/>
<svg id="graph" class="graph">
<g id="viewport">
<title>WatorController.manipulateCell</title>
<polygon fill="white" stroke="none" points="-4,4 -4,-366 726,-366 726,4 -4,4"/>
<!-- Node1 -->
<g id="node1" class="node"><title>Node1</title>
<polygon fill="#bfbfbf" stroke="black" points="0,-171.5 0,-190.5 164,-190.5 164,-171.5 0,-171.5"/>
<text text-anchor="middle" x="82" y="-178.5" font-family="Helvetica,sans-Serif" font-size="10.00">WatorController.manipulateCell</text>
</g>
<!-- Node2 -->
<g id="node2" class="node"><title>Node2</title>
<g id="a_node2"><a xlink:href="../../dd/dba/class_grid_data.html#a9eca3dc4b66b34eb1e08c806a83c6394" target="_top" xlink:title="GridData.curCell">
<polygon fill="white" stroke="black" points="234.5,-342.5 234.5,-361.5 329.5,-361.5 329.5,-342.5 234.5,-342.5"/>
<text text-anchor="middle" x="282" y="-349.5" font-family="Helvetica,sans-Serif" font-size="10.00">GridData.curCell</text>
</a>
</g>
</g>
<!-- Node1&#45;&gt;Node2 -->
<g id="edge1" class="edge"><title>Node1&#45;&gt;Node2</title>
<path fill="none" stroke="midnightblue" d="M87.4676,-190.676C100.537,-217.842 141.502,-295.29 200,-333 207.409,-337.776 215.89,-341.355 224.509,-344.036"/>
<polygon fill="midnightblue" stroke="midnightblue" points="223.681,-347.438 234.25,-346.697 225.526,-340.685 223.681,-347.438"/>
</g>
<!-- Node3 -->
<g id="node3" class="node"><title>Node3</title>
<g id="a_node3"><a xlink:href="../../dd/dba/class_grid_data.html#a09f2106c072ecbb50376a22907a49ec0" target="_top" xlink:title="GridData.curCoord">
<polygon fill="white" stroke="black" points="229,-304.5 229,-323.5 335,-323.5 335,-304.5 229,-304.5"/>
<text text-anchor="middle" x="282" y="-311.5" font-family="Helvetica,sans-Serif" font-size="10.00">GridData.curCoord</text>
</a>
</g>
</g>
<!-- Node1&#45;&gt;Node3 -->
<g id="edge2" class="edge"><title>Node1&#45;&gt;Node3</title>
<path fill="none" stroke="midnightblue" d="M90.6838,-190.729C107.94,-211.932 152.031,-262.596 200,-290 207.95,-294.541 216.838,-298.295 225.735,-301.375"/>
<polygon fill="midnightblue" stroke="midnightblue" points="224.758,-304.737 235.349,-304.458 226.896,-298.072 224.758,-304.737"/>
</g>
<!-- Node4 -->
<g id="node4" class="node"><title>Node4</title>
<g id="a_node4"><a xlink:href="../../dd/dba/class_grid_data.html#a9ce437f0d4ed0e815de6f5b26dfe322f" target="_top" xlink:title="GridData.getCol">
<polygon fill="white" stroke="black" points="611.5,-304.5 611.5,-323.5 704.5,-323.5 704.5,-304.5 611.5,-304.5"/>
<text text-anchor="middle" x="658" y="-311.5" font-family="Helvetica,sans-Serif" font-size="10.00">GridData.getCol</text>
</a>
</g>
</g>
<!-- Node1&#45;&gt;Node4 -->
<g id="edge3" class="edge"><title>Node1&#45;&gt;Node4</title>
<path fill="none" stroke="midnightblue" d="M96.6675,-190.577C117.78,-204.869 160.07,-231.537 200,-245 339.369,-291.991 513.45,-307.064 601.083,-311.836"/>
<polygon fill="midnightblue" stroke="midnightblue" points="601.166,-315.345 611.334,-312.368 601.529,-308.354 601.166,-315.345"/>
</g>
<!-- Node5 -->
<g id="node5" class="node"><title>Node5</title>
<g id="a_node5"><a xlink:href="../../dc/da7/class_wator_controller.html#a6ebd770acf34cd6be236bc5fca9ec7d3" target="_top" xlink:title="WatorController.getDestination">
<polygon fill="white" stroke="black" points="200.5,-38.5 200.5,-57.5 363.5,-57.5 363.5,-38.5 200.5,-38.5"/>
<text text-anchor="middle" x="282" y="-45.5" font-family="Helvetica,sans-Serif" font-size="10.00">WatorController.getDestination</text>
</a>
</g>
</g>
<!-- Node1&#45;&gt;Node5 -->
<g id="edge4" class="edge"><title>Node1&#45;&gt;Node5</title>
<path fill="none" stroke="midnightblue" d="M90.6838,-171.271C107.94,-150.068 152.031,-99.4041 200,-72 207.95,-67.4586 216.838,-63.705 225.735,-60.6249"/>
<polygon fill="midnightblue" stroke="midnightblue" points="226.896,-63.9285 235.349,-57.5418 224.758,-57.2629 226.896,-63.9285"/>
</g>
<!-- Node6 -->
<g id="node6" class="node"><title>Node6</title>
<g id="a_node6"><a xlink:href="../../dd/dba/class_grid_data.html#a17b7365313fb643daaf460fbd3bc8fbd" target="_top" xlink:title="GridData.getGrid">
<polygon fill="white" stroke="black" points="609,-266.5 609,-285.5 707,-285.5 707,-266.5 609,-266.5"/>
<text text-anchor="middle" x="658" y="-273.5" font-family="Helvetica,sans-Serif" font-size="10.00">GridData.getGrid</text>
</a>
</g>
</g>
<!-- Node1&#45;&gt;Node6 -->
<g id="edge5" class="edge"><title>Node1&#45;&gt;Node6</title>
<path fill="none" stroke="midnightblue" d="M107.717,-190.585C131.134,-199.29 167.463,-211.834 200,-219 356.504,-253.47 399.098,-241.224 558,-262 571.236,-263.731 585.453,-265.685 598.867,-267.572"/>
<polygon fill="midnightblue" stroke="midnightblue" points="598.548,-271.061 608.939,-268.997 599.528,-264.131 598.548,-271.061"/>
</g>
<!-- Node7 -->
<g id="node7" class="node"><title>Node7</title>
<g id="a_node7"><a xlink:href="../../dd/dba/class_grid_data.html#a13a9b42b731b0ba4f231415129c92918" target="_top" xlink:title="GridData.getList">
<polygon fill="white" stroke="black" points="610.5,-152.5 610.5,-171.5 705.5,-171.5 705.5,-152.5 610.5,-152.5"/>
<text text-anchor="middle" x="658" y="-159.5" font-family="Helvetica,sans-Serif" font-size="10.00">GridData.getList</text>
</a>
</g>
</g>
<!-- Node1&#45;&gt;Node7 -->
<g id="edge6" class="edge"><title>Node1&#45;&gt;Node7</title>
<path fill="none" stroke="midnightblue" d="M164.023,-178.318C281.887,-174.417 497.711,-167.273 600.145,-163.882"/>
<polygon fill="midnightblue" stroke="midnightblue" points="600.41,-167.375 610.289,-163.546 600.178,-160.379 600.41,-167.375"/>
</g>
<!-- Node8 -->
<g id="node8" class="node"><title>Node8</title>
<g id="a_node8"><a xlink:href="../../dd/dba/class_grid_data.html#ad1a10a17bfab85e6ec57e4b8f9c09986" target="_top" xlink:title="GridData.getNewGrid">
<polygon fill="white" stroke="black" points="223,-0.5 223,-19.5 341,-19.5 341,-0.5 223,-0.5"/>
<text text-anchor="middle" x="282" y="-7.5" font-family="Helvetica,sans-Serif" font-size="10.00">GridData.getNewGrid</text>
</a>
</g>
</g>
<!-- Node1&#45;&gt;Node8 -->
<g id="edge7" class="edge"><title>Node1&#45;&gt;Node8</title>
<path fill="none" stroke="midnightblue" d="M87.4676,-171.324C100.537,-144.158 141.502,-66.7099 200,-29 204.109,-26.3514 208.547,-24.071 213.155,-22.1078"/>
<polygon fill="midnightblue" stroke="midnightblue" points="214.658,-25.2827 222.803,-18.5071 212.211,-18.7246 214.658,-25.2827"/>
</g>
<!-- Node9 -->
<g id="node9" class="node"><title>Node9</title>
<g id="a_node9"><a xlink:href="../../dd/dba/class_grid_data.html#ad7e26dc80ddc6076df3350df970a359c" target="_top" xlink:title="GridData.getRow">
<polygon fill="white" stroke="black" points="610,-114.5 610,-133.5 706,-133.5 706,-114.5 610,-114.5"/>
<text text-anchor="middle" x="658" y="-121.5" font-family="Helvetica,sans-Serif" font-size="10.00">GridData.getRow</text>
</a>
</g>
</g>
<!-- Node1&#45;&gt;Node9 -->
<g id="edge8" class="edge"><title>Node1&#45;&gt;Node9</title>
<path fill="none" stroke="midnightblue" d="M160.064,-171.498C173.375,-169.937 187.083,-168.38 200,-167 343.722,-151.642 513.193,-136.461 599.781,-128.916"/>
<polygon fill="midnightblue" stroke="midnightblue" points="600.263,-132.388 609.922,-128.034 599.656,-125.414 600.263,-132.388"/>
</g>
<!-- Node10 -->
<g id="node10" class="node"><title>Node10</title>
<g id="a_node10"><a xlink:href="../../dc/da7/class_wator_controller.html#a14e97f15d6937c3667feb85a2b5d896e" target="_top" xlink:title="WatorController.makeEligible">
<polygon fill="white" stroke="black" points="206,-190.5 206,-209.5 358,-209.5 358,-190.5 206,-190.5"/>
<text text-anchor="middle" x="282" y="-197.5" font-family="Helvetica,sans-Serif" font-size="10.00">WatorController.makeEligible</text>
</a>
</g>
</g>
<!-- Node1&#45;&gt;Node10 -->
<g id="edge9" class="edge"><title>Node1&#45;&gt;Node10</title>
<path fill="none" stroke="midnightblue" d="M164.105,-188.783C174.546,-189.785 185.261,-190.813 195.765,-191.821"/>
<polygon fill="midnightblue" stroke="midnightblue" points="195.467,-195.308 205.755,-192.78 196.135,-188.34 195.467,-195.308"/>
</g>
<!-- Node14 -->
<g id="node14" class="node"><title>Node14</title>
<g id="a_node14"><a xlink:href="../../dd/d11/class_cell.html#a7f8d2520a26a1376a44372149e561f6b" target="_top" xlink:title="Cell.toString">
<polygon fill="white" stroke="black" points="620.5,-76.5 620.5,-95.5 695.5,-95.5 695.5,-76.5 620.5,-76.5"/>
<text text-anchor="middle" x="658" y="-83.5" font-family="Helvetica,sans-Serif" font-size="10.00">Cell.toString</text>
</a>
</g>
</g>
<!-- Node1&#45;&gt;Node14 -->
<g id="edge18" class="edge"><title>Node1&#45;&gt;Node14</title>
<path fill="none" stroke="midnightblue" d="M110.57,-171.387C134.076,-163.522 168.9,-152.649 200,-146 348.023,-114.356 526.809,-96.7169 610.079,-89.6632"/>
<polygon fill="midnightblue" stroke="midnightblue" points="610.555,-93.1358 620.229,-88.816 609.973,-86.16 610.555,-93.1358"/>
</g>
<!-- Node11 -->
<g id="node11" class="node"><title>Node11</title>
<g id="a_node11"><a xlink:href="../../dc/da7/class_wator_controller.html#a7b71e69d99808906a02cc6689d5e8c15" target="_top" xlink:title="WatorController.getNeighbors">
<polygon fill="white" stroke="black" points="400.5,-190.5 400.5,-209.5 557.5,-209.5 557.5,-190.5 400.5,-190.5"/>
<text text-anchor="middle" x="479" y="-197.5" font-family="Helvetica,sans-Serif" font-size="10.00">WatorController.getNeighbors</text>
</a>
</g>
</g>
<!-- Node10&#45;&gt;Node11 -->
<g id="edge10" class="edge"><title>Node10&#45;&gt;Node11</title>
<path fill="none" stroke="midnightblue" d="M358.113,-200C368.602,-200 379.455,-200 390.153,-200"/>
<polygon fill="midnightblue" stroke="midnightblue" points="390.344,-203.5 400.344,-200 390.344,-196.5 390.344,-203.5"/>
</g>
<!-- Node11&#45;&gt;Node4 -->
<g id="edge12" class="edge"><title>Node11&#45;&gt;Node4</title>
<path fill="none" stroke="midnightblue" d="M492.647,-209.613C508.26,-221.581 535.505,-242.791 558,-262 574.506,-276.095 575.136,-284.264 594,-295 597.846,-297.189 601.97,-299.15 606.201,-300.903"/>
<polygon fill="midnightblue" stroke="midnightblue" points="604.972,-304.18 615.565,-304.414 607.43,-297.626 604.972,-304.18"/>
</g>
<!-- Node11&#45;&gt;Node6 -->
<g id="edge13" class="edge"><title>Node11&#45;&gt;Node6</title>
<path fill="none" stroke="midnightblue" d="M523.114,-209.558C534.87,-213.138 547.304,-217.873 558,-224 576.834,-234.789 575.136,-246.264 594,-257 597.846,-259.189 601.97,-261.15 606.201,-262.903"/>
<polygon fill="midnightblue" stroke="midnightblue" points="604.972,-266.18 615.565,-266.414 607.43,-259.626 604.972,-266.18"/>
</g>
<!-- Node11&#45;&gt;Node7 -->
<g id="edge14" class="edge"><title>Node11&#45;&gt;Node7</title>
<path fill="none" stroke="midnightblue" d="M524.665,-190.411C548.337,-185.329 577.608,-179.045 602.597,-173.68"/>
<polygon fill="midnightblue" stroke="midnightblue" points="603.614,-177.041 612.657,-171.52 602.145,-170.197 603.614,-177.041"/>
</g>
<!-- Node11&#45;&gt;Node9 -->
<g id="edge16" class="edge"><title>Node11&#45;&gt;Node9</title>
<path fill="none" stroke="midnightblue" d="M496.961,-190.369C518.871,-178.198 558.425,-157.138 594,-143 599.783,-140.702 605.957,-138.522 612.094,-136.513"/>
<polygon fill="midnightblue" stroke="midnightblue" points="613.158,-139.847 621.645,-133.506 611.056,-133.17 613.158,-139.847"/>
</g>
<!-- Node12 -->
<g id="node12" class="node"><title>Node12</title>
<g id="a_node12"><a xlink:href="../../d8/d87/class_controller.html#a2d1d78c34f5551304c3e0f2295766afb" target="_top" xlink:title="Controller.contains">
<polygon fill="white" stroke="black" points="605,-190.5 605,-209.5 711,-209.5 711,-190.5 605,-190.5"/>
<text text-anchor="middle" x="658" y="-197.5" font-family="Helvetica,sans-Serif" font-size="10.00">Controller.contains</text>
</a>
</g>
</g>
<!-- Node11&#45;&gt;Node12 -->
<g id="edge11" class="edge"><title>Node11&#45;&gt;Node12</title>
<path fill="none" stroke="midnightblue" d="M557.635,-200C569.992,-200 582.635,-200 594.582,-200"/>
<polygon fill="midnightblue" stroke="midnightblue" points="594.878,-203.5 604.878,-200 594.878,-196.5 594.878,-203.5"/>
</g>
<!-- Node13 -->
<g id="node13" class="node"><title>Node13</title>
<g id="a_node13"><a xlink:href="../../dd/ddd/class_neighbor.html#aa58f169b804a808f37a8faa21c3ea830" target="_top" xlink:title="Neighbor.getNeighbors">
<polygon fill="white" stroke="black" points="594.5,-228.5 594.5,-247.5 721.5,-247.5 721.5,-228.5 594.5,-228.5"/>
<text text-anchor="middle" x="658" y="-235.5" font-family="Helvetica,sans-Serif" font-size="10.00">Neighbor.getNeighbors</text>
</a>
</g>
</g>
<!-- Node11&#45;&gt;Node13 -->
<g id="edge15" class="edge"><title>Node11&#45;&gt;Node13</title>
<path fill="none" stroke="midnightblue" d="M524.665,-209.589C548.337,-214.671 577.608,-220.955 602.597,-226.32"/>
<polygon fill="midnightblue" stroke="midnightblue" points="602.145,-229.803 612.657,-228.48 603.614,-222.959 602.145,-229.803"/>
</g>
<!-- Node11&#45;&gt;Node14 -->
<g id="edge17" class="edge"><title>Node11&#45;&gt;Node14</title>
<path fill="none" stroke="midnightblue" d="M488.799,-190.445C506.774,-171.469 549.764,-128.813 594,-105 599.22,-102.19 604.912,-99.7387 610.67,-97.6159"/>
<polygon fill="midnightblue" stroke="midnightblue" points="611.997,-100.862 620.353,-94.3483 609.759,-94.2298 611.997,-100.862"/>
</g>
</g>
</svg>
        <g id="navigator" transform="translate(0 0)" fill="#404254">
                <rect fill="#f2f5e9" fill-opacity="0.5" stroke="#606060" stroke-width=".5" x="0" y="0" width="60" height="60"/>
                <use id="zoomplus" xlink:href="#zoomPlus" x="17" y="9" onmousedown="handleZoom(evt,'in')"/>
                <use id="zoomminus" xlink:href="#zoomMin" x="42" y="9" onmousedown="handleZoom(evt,'out')"/>
                <use id="reset" xlink:href="#resetDef" x="30" y="36" onmousedown="handleReset()"/>
                <g id="arrowUp" xlink:href="#dirArrow" transform="translate(30 24)" onmousedown="handlePan(0,-1)">
                  <use xlink:href="#rim" fill="#404040">
                        <set attributeName="fill" to="#808080" begin="arrowUp.mouseover" end="arrowUp.mouseout"/>
                  </use>
                  <path fill="none" stroke="white" stroke-width="1.5" d="M0,-3.0v7 M-2.5,-0.5L0,-3.0L2.5,-0.5"/>
                </g>
                <g id="arrowRight" xlink:href="#dirArrow" transform="rotate(90) translate(36 -43)" onmousedown="handlePan(1,0)">
                  <use xlink:href="#rim" fill="#404040">
                        <set attributeName="fill" to="#808080" begin="arrowRight.mouseover" end="arrowRight.mouseout"/>
                  </use>
                  <path fill="none" stroke="white" stroke-width="1.5" d="M0,-3.0v7 M-2.5,-0.5L0,-3.0L2.5,-0.5"/>
                </g>
                <g id="arrowDown" xlink:href="#dirArrow" transform="rotate(180) translate(-30 -48)" onmousedown="handlePan(0,1)">
                  <use xlink:href="#rim" fill="#404040">
                        <set attributeName="fill" to="#808080" begin="arrowDown.mouseover" end="arrowDown.mouseout"/>
                  </use>
                  <path fill="none" stroke="white" stroke-width="1.5" d="M0,-3.0v7 M-2.5,-0.5L0,-3.0L2.5,-0.5"/>
                </g>
                <g id="arrowLeft" xlink:href="#dirArrow" transform="rotate(270) translate(-36 17)" onmousedown="handlePan(-1,0)">
                  <use xlink:href="#rim" fill="#404040">
                        <set attributeName="fill" to="#808080" begin="arrowLeft.mouseover" end="arrowLeft.mouseout"/>
                  </use>
                  <path fill="none" stroke="white" stroke-width="1.5" d="M0,-3.0v7 M-2.5,-0.5L0,-3.0L2.5,-0.5"/>
                </g>
        </g>
        <svg viewBox="0 0 15 15" width="100%" height="30px" preserveAspectRatio="xMaxYMin meet">
         <g id="arrow_out" transform="scale(0.3 0.3)">
          <a xlink:href="class_wator_controller_ae00870133a4b1cfbfaeecf11ffd7b650_cgraph_org.svg" target="_base">
           <rect id="button" ry="5" rx="5" y="6" x="6" height="38" width="38"
                fill="#f2f5e9" fill-opacity="0.5" stroke="#606060" stroke-width="1.0"/>
           <path id="arrow"
             d="M 11.500037,31.436501 C 11.940474,20.09759 22.043105,11.32322 32.158766,21.979434 L 37.068811,17.246167 C 37.068811,17.246167 37.088388,32 37.088388,32 L 22.160133,31.978069 C 22.160133,31.978069 26.997745,27.140456 26.997745,27.140456 C 18.528582,18.264221 13.291696,25.230495 11.500037,31.436501 z"
             style="fill:#404040;"/>
          </a>
         </g>
        </svg>
</svg>
