<?xml version="1.0" encoding="UTF-8" standalone="no"?>
<!DOCTYPE svg PUBLIC "-//W3C//DTD SVG 1.1//EN"
 "http://www.w3.org/Graphics/SVG/1.1/DTD/svg11.dtd">
<!-- Generated by graphviz version 2.36.0 (20140111.2315)
 -->
<!-- Title: WatorController.updateFromShark Pages: 1 -->
<svg width="558pt" height="38pt"
 viewBox="0.00 0.00 558.00 38.00" xmlns="http://www.w3.org/2000/svg" xmlns:xlink="http://www.w3.org/1999/xlink">
<g id="graph0" class="graph" transform="scale(1 1) rotate(0) translate(4 34)">
<title>WatorController.updateFromShark</title>
<polygon fill="white" stroke="none" points="-4,4 -4,-34 554,-34 554,4 -4,4"/>
<!-- Node1 -->
<g id="node1" class="node"><title>Node1</title>
<polygon fill="#bfbfbf" stroke="black" points="0,-0 0,-30 150,-30 150,-0 0,-0"/>
<text text-anchor="start" x="8" y="-18" font-family="Helvetica,sans-Serif" font-size="10.00">WatorController.updateFrom</text>
<text text-anchor="middle" x="75" y="-7" font-family="Helvetica,sans-Serif" font-size="10.00">Shark</text>
</g>
<!-- Node2 -->
<g id="node2" class="node"><title>Node2</title>
<g id="a_node2"><a xlink:href="../../dc/da7/class_wator_controller.html#a0d61c3c9e96000370bacec79d64725ab" target="_top" xlink:title="WatorController.updateDestination">
<polygon fill="white" stroke="black" points="186.5,-5.5 186.5,-24.5 367.5,-24.5 367.5,-5.5 186.5,-5.5"/>
<text text-anchor="middle" x="277" y="-12.5" font-family="Helvetica,sans-Serif" font-size="10.00">WatorController.updateDestination</text>
</a>
</g>
</g>
<!-- Node1&#45;&gt;Node2 -->
<g id="edge1" class="edge"><title>Node1&#45;&gt;Node2</title>
<path fill="none" stroke="midnightblue" d="M160.237,-15C168.873,-15 177.67,-15 186.362,-15"/>
<polygon fill="midnightblue" stroke="midnightblue" points="160.188,-11.5001 150.188,-15 160.188,-18.5001 160.188,-11.5001"/>
</g>
<!-- Node3 -->
<g id="node3" class="node"><title>Node3</title>
<g id="a_node3"><a xlink:href="../../dc/da7/class_wator_controller.html#acc1968e8357ac21f25473b4fcbadc954" target="_top" xlink:title="WatorController.runOneSim">
<polygon fill="white" stroke="black" points="404,-5.5 404,-24.5 550,-24.5 550,-5.5 404,-5.5"/>
<text text-anchor="middle" x="477" y="-12.5" font-family="Helvetica,sans-Serif" font-size="10.00">WatorController.runOneSim</text>
</a>
</g>
</g>
<!-- Node2&#45;&gt;Node3 -->
<g id="edge2" class="edge"><title>Node2&#45;&gt;Node3</title>
<path fill="none" stroke="midnightblue" d="M377.946,-15C386.658,-15 395.36,-15 403.782,-15"/>
<polygon fill="midnightblue" stroke="midnightblue" points="377.731,-11.5001 367.731,-15 377.731,-18.5001 377.731,-11.5001"/>
</g>
</g>
</svg>
