<?xml version="1.0" encoding="UTF-8" standalone="no"?>
<!DOCTYPE svg PUBLIC "-//W3C//DTD SVG 1.1//EN"
 "http://www.w3.org/Graphics/SVG/1.1/DTD/svg11.dtd">
<!-- Generated by graphviz version 2.36.0 (20140111.2315)
 -->
<!-- Title: WatorController.neighborsFromTwoDirections Pages: 1 -->
<svg width="910pt" height="38pt"
 viewBox="0.00 0.00 910.00 38.00" xmlns="http://www.w3.org/2000/svg" xmlns:xlink="http://www.w3.org/1999/xlink">
<g id="graph0" class="graph" transform="scale(1 1) rotate(0) translate(4 34)">
<title>WatorController.neighborsFromTwoDirections</title>
<polygon fill="white" stroke="none" points="-4,4 -4,-34 906,-34 906,4 -4,4"/>
<!-- Node1 -->
<g id="node1" class="node"><title>Node1</title>
<polygon fill="#bfbfbf" stroke="black" points="0,-0 0,-30 140,-30 140,-0 0,-0"/>
<text text-anchor="start" x="8" y="-18" font-family="Helvetica,sans-Serif" font-size="10.00">WatorController.neighbors</text>
<text text-anchor="middle" x="70" y="-7" font-family="Helvetica,sans-Serif" font-size="10.00">FromTwoDirections</text>
</g>
<!-- Node2 -->
<g id="node2" class="node"><title>Node2</title>
<g id="a_node2"><a xlink:href="../../dc/da7/class_wator_controller.html#a8a5c6aa913ced9603c3a2064bf758e5e" target="_top" xlink:title="WatorController.getNeighbors">
<polygon fill="white" stroke="black" points="176.5,-5.5 176.5,-24.5 333.5,-24.5 333.5,-5.5 176.5,-5.5"/>
<text text-anchor="middle" x="255" y="-12.5" font-family="Helvetica,sans-Serif" font-size="10.00">WatorController.getNeighbors</text>
</a>
</g>
</g>
<!-- Node1&#45;&gt;Node2 -->
<g id="edge1" class="edge"><title>Node1&#45;&gt;Node2</title>
<path fill="none" stroke="midnightblue" d="M150.283,-15C158.961,-15 167.787,-15 176.443,-15"/>
<polygon fill="midnightblue" stroke="midnightblue" points="150.184,-11.5001 140.184,-15 150.184,-18.5001 150.184,-11.5001"/>
</g>
<!-- Node3 -->
<g id="node3" class="node"><title>Node3</title>
<g id="a_node3"><a xlink:href="../../dc/da7/class_wator_controller.html#ad6ef17a774720254707f22d42c88c781" target="_top" xlink:title="WatorController.makeEligible">
<polygon fill="white" stroke="black" points="370,-5.5 370,-24.5 522,-24.5 522,-5.5 370,-5.5"/>
<text text-anchor="middle" x="446" y="-12.5" font-family="Helvetica,sans-Serif" font-size="10.00">WatorController.makeEligible</text>
</a>
</g>
</g>
<!-- Node2&#45;&gt;Node3 -->
<g id="edge2" class="edge"><title>Node2&#45;&gt;Node3</title>
<path fill="none" stroke="midnightblue" d="M343.812,-15C352.478,-15 361.22,-15 369.743,-15"/>
<polygon fill="midnightblue" stroke="midnightblue" points="343.692,-11.5001 333.692,-15 343.692,-18.5001 343.692,-11.5001"/>
</g>
<!-- Node4 -->
<g id="node4" class="node"><title>Node4</title>
<g id="a_node4"><a xlink:href="../../dc/da7/class_wator_controller.html#a8f10cc48fea8314d9ae89e397dac0c79" target="_top" xlink:title="WatorController.manipulateCell">
<polygon fill="white" stroke="black" points="558,-5.5 558,-24.5 722,-24.5 722,-5.5 558,-5.5"/>
<text text-anchor="middle" x="640" y="-12.5" font-family="Helvetica,sans-Serif" font-size="10.00">WatorController.manipulateCell</text>
</a>
</g>
</g>
<!-- Node3&#45;&gt;Node4 -->
<g id="edge3" class="edge"><title>Node3&#45;&gt;Node4</title>
<path fill="none" stroke="midnightblue" d="M532.084,-15C540.687,-15 549.408,-15 557.966,-15"/>
<polygon fill="midnightblue" stroke="midnightblue" points="532.057,-11.5001 522.057,-15 532.057,-18.5001 532.057,-11.5001"/>
</g>
<!-- Node5 -->
<g id="node5" class="node"><title>Node5</title>
<g id="a_node5"><a xlink:href="../../dc/da7/class_wator_controller.html#a8487f7764316be081c820425dd43b86d" target="_top" xlink:title="WatorController.cellUpdate">
<polygon fill="white" stroke="black" points="758.5,-5.5 758.5,-24.5 901.5,-24.5 901.5,-5.5 758.5,-5.5"/>
<text text-anchor="middle" x="830" y="-12.5" font-family="Helvetica,sans-Serif" font-size="10.00">WatorController.cellUpdate</text>
</a>
</g>
</g>
<!-- Node4&#45;&gt;Node5 -->
<g id="edge4" class="edge"><title>Node4&#45;&gt;Node5</title>
<path fill="none" stroke="midnightblue" d="M732.289,-15C741.002,-15 749.746,-15 758.222,-15"/>
<polygon fill="midnightblue" stroke="midnightblue" points="732.093,-11.5001 722.093,-15 732.093,-18.5001 732.093,-11.5001"/>
</g>
</g>
</svg>
