<?xml version="1.0" encoding="UTF-8" standalone="no"?>
<!DOCTYPE svg PUBLIC "-//W3C//DTD SVG 1.1//EN"
 "http://www.w3.org/Graphics/SVG/1.1/DTD/svg11.dtd">
<!-- Generated by graphviz version 2.36.0 (20140111.2315)
 -->
<!-- Title: WatorController.cellUpdate Pages: 1 -->
<svg width="1056pt" height="123pt"
 viewBox="0.00 0.00 1056.00 123.00" xmlns="http://www.w3.org/2000/svg" xmlns:xlink="http://www.w3.org/1999/xlink">
<g id="graph0" class="graph" transform="scale(1 1) rotate(0) translate(4 119)">
<title>WatorController.cellUpdate</title>
<polygon fill="white" stroke="none" points="-4,4 -4,-119 1052,-119 1052,4 -4,4"/>
<!-- Node1 -->
<g id="node1" class="node"><title>Node1</title>
<polygon fill="#bfbfbf" stroke="black" points="0.5,-57.5 0.5,-76.5 143.5,-76.5 143.5,-57.5 0.5,-57.5"/>
<text text-anchor="middle" x="72" y="-64.5" font-family="Helvetica,sans-Serif" font-size="10.00">WatorController.cellUpdate</text>
</g>
<!-- Node2 -->
<g id="node2" class="node"><title>Node2</title>
<g id="a_node2"><a xlink:href="../../dc/da7/class_wator_controller.html#a719d7313e2bb6551d9f8845c0fcd0db5" target="_top" xlink:title="WatorController.deadShark">
<polygon fill="white" stroke="black" points="190,-95.5 190,-114.5 334,-114.5 334,-95.5 190,-95.5"/>
<text text-anchor="middle" x="262" y="-102.5" font-family="Helvetica,sans-Serif" font-size="10.00">WatorController.deadShark</text>
</a>
</g>
</g>
<!-- Node1&#45;&gt;Node2 -->
<g id="edge1" class="edge"><title>Node1&#45;&gt;Node2</title>
<path fill="none" stroke="midnightblue" d="M120.44,-76.589C145.808,-81.7165 177.227,-88.0672 203.923,-93.4632"/>
<polygon fill="midnightblue" stroke="midnightblue" points="203.406,-96.9293 213.901,-95.4799 204.792,-90.068 203.406,-96.9293"/>
</g>
<!-- Node3 -->
<g id="node3" class="node"><title>Node3</title>
<g id="a_node3"><a xlink:href="../../d8/d87/class_controller.html#a919c649b31af72b3359efbfd8cb01c0b" target="_top" xlink:title="Controller.makeCell">
<polygon fill="white" stroke="black" points="207,-57.5 207,-76.5 317,-76.5 317,-57.5 207,-57.5"/>
<text text-anchor="middle" x="262" y="-64.5" font-family="Helvetica,sans-Serif" font-size="10.00">Controller.makeCell</text>
</a>
</g>
</g>
<!-- Node1&#45;&gt;Node3 -->
<g id="edge2" class="edge"><title>Node1&#45;&gt;Node3</title>
<path fill="none" stroke="midnightblue" d="M143.539,-67C160.882,-67 179.363,-67 196.409,-67"/>
<polygon fill="midnightblue" stroke="midnightblue" points="196.815,-70.5001 206.815,-67 196.815,-63.5001 196.815,-70.5001"/>
</g>
<!-- Node4 -->
<g id="node4" class="node"><title>Node4</title>
<g id="a_node4"><a xlink:href="../../dc/da7/class_wator_controller.html#a8f10cc48fea8314d9ae89e397dac0c79" target="_top" xlink:title="WatorController.manipulateCell">
<polygon fill="white" stroke="black" points="180,-19.5 180,-38.5 344,-38.5 344,-19.5 180,-19.5"/>
<text text-anchor="middle" x="262" y="-26.5" font-family="Helvetica,sans-Serif" font-size="10.00">WatorController.manipulateCell</text>
</a>
</g>
</g>
<!-- Node1&#45;&gt;Node4 -->
<g id="edge3" class="edge"><title>Node1&#45;&gt;Node4</title>
<path fill="none" stroke="midnightblue" d="M120.44,-57.411C145.808,-52.2835 177.227,-45.9328 203.923,-40.5368"/>
<polygon fill="midnightblue" stroke="midnightblue" points="204.792,-43.932 213.901,-38.5201 203.406,-37.0707 204.792,-43.932"/>
</g>
<!-- Node5 -->
<g id="node5" class="node"><title>Node5</title>
<g id="a_node5"><a xlink:href="../../dc/da7/class_wator_controller.html#ad6ef17a774720254707f22d42c88c781" target="_top" xlink:title="WatorController.makeEligible">
<polygon fill="white" stroke="black" points="386,-38.5 386,-57.5 538,-57.5 538,-38.5 386,-38.5"/>
<text text-anchor="middle" x="462" y="-45.5" font-family="Helvetica,sans-Serif" font-size="10.00">WatorController.makeEligible</text>
</a>
</g>
</g>
<!-- Node4&#45;&gt;Node5 -->
<g id="edge4" class="edge"><title>Node4&#45;&gt;Node5</title>
<path fill="none" stroke="midnightblue" d="M344.105,-36.7828C354.546,-37.7847 365.261,-38.8129 375.765,-39.8209"/>
<polygon fill="midnightblue" stroke="midnightblue" points="375.467,-43.3083 385.755,-40.7796 376.135,-36.3403 375.467,-43.3083"/>
</g>
<!-- Node10 -->
<g id="node10" class="node"><title>Node10</title>
<g id="a_node10"><a xlink:href="../../dc/da7/class_wator_controller.html#a6ebd770acf34cd6be236bc5fca9ec7d3" target="_top" xlink:title="WatorController.getDestination">
<polygon fill="white" stroke="black" points="380.5,-0.5 380.5,-19.5 543.5,-19.5 543.5,-0.5 380.5,-0.5"/>
<text text-anchor="middle" x="462" y="-7.5" font-family="Helvetica,sans-Serif" font-size="10.00">WatorController.getDestination</text>
</a>
</g>
</g>
<!-- Node4&#45;&gt;Node10 -->
<g id="edge9" class="edge"><title>Node4&#45;&gt;Node10</title>
<path fill="none" stroke="midnightblue" d="M344.105,-21.2172C352.703,-20.3922 361.486,-19.5493 370.185,-18.7146"/>
<polygon fill="midnightblue" stroke="midnightblue" points="370.721,-22.1793 380.341,-17.74 370.052,-15.2113 370.721,-22.1793"/>
</g>
<!-- Node6 -->
<g id="node6" class="node"><title>Node6</title>
<g id="a_node6"><a xlink:href="../../dc/da7/class_wator_controller.html#a8a5c6aa913ced9603c3a2064bf758e5e" target="_top" xlink:title="WatorController.getNeighbors">
<polygon fill="white" stroke="black" points="580.5,-38.5 580.5,-57.5 737.5,-57.5 737.5,-38.5 580.5,-38.5"/>
<text text-anchor="middle" x="659" y="-45.5" font-family="Helvetica,sans-Serif" font-size="10.00">WatorController.getNeighbors</text>
</a>
</g>
</g>
<!-- Node5&#45;&gt;Node6 -->
<g id="edge5" class="edge"><title>Node5&#45;&gt;Node6</title>
<path fill="none" stroke="midnightblue" d="M538.113,-48C548.602,-48 559.455,-48 570.153,-48"/>
<polygon fill="midnightblue" stroke="midnightblue" points="570.344,-51.5001 580.344,-48 570.344,-44.5001 570.344,-51.5001"/>
</g>
<!-- Node7 -->
<g id="node7" class="node"><title>Node7</title>
<g id="a_node7"><a xlink:href="../../dc/da7/class_wator_controller.html#a64040cc93cd5dc646d39865a7d185b11" target="_top" xlink:title="WatorController.neighbors\lFromTwoDirections">
<polygon fill="white" stroke="black" points="774,-55 774,-85 914,-85 914,-55 774,-55"/>
<text text-anchor="start" x="782" y="-73" font-family="Helvetica,sans-Serif" font-size="10.00">WatorController.neighbors</text>
<text text-anchor="middle" x="844" y="-62" font-family="Helvetica,sans-Serif" font-size="10.00">FromTwoDirections</text>
</a>
</g>
</g>
<!-- Node6&#45;&gt;Node7 -->
<g id="edge6" class="edge"><title>Node6&#45;&gt;Node7</title>
<path fill="none" stroke="midnightblue" d="M737.608,-57.33C746.291,-58.3737 755.144,-59.438 763.845,-60.4841"/>
<polygon fill="midnightblue" stroke="midnightblue" points="763.624,-63.9827 773.97,-61.7014 764.46,-57.0327 763.624,-63.9827"/>
</g>
<!-- Node9 -->
<g id="node9" class="node"><title>Node9</title>
<g id="a_node9"><a xlink:href="../../d8/d87/class_controller.html#a2d1d78c34f5551304c3e0f2295766afb" target="_top" xlink:title="Controller.contains">
<polygon fill="white" stroke="black" points="791,-16.5 791,-35.5 897,-35.5 897,-16.5 791,-16.5"/>
<text text-anchor="middle" x="844" y="-23.5" font-family="Helvetica,sans-Serif" font-size="10.00">Controller.contains</text>
</a>
</g>
</g>
<!-- Node6&#45;&gt;Node9 -->
<g id="edge8" class="edge"><title>Node6&#45;&gt;Node9</title>
<path fill="none" stroke="midnightblue" d="M737.608,-38.67C752.11,-36.9266 767.089,-35.1259 781.041,-33.4486"/>
<polygon fill="midnightblue" stroke="midnightblue" points="781.487,-36.9203 790.997,-32.2517 780.651,-29.9704 781.487,-36.9203"/>
</g>
<!-- Node8 -->
<g id="node8" class="node"><title>Node8</title>
<g id="a_node8"><a xlink:href="../../d5/dda/class_boundary.html#a5b4429164a4f0a293ab14f42f752a698" target="_top" xlink:title="Boundary.findCell">
<polygon fill="white" stroke="black" points="950,-60.5 950,-79.5 1048,-79.5 1048,-60.5 950,-60.5"/>
<text text-anchor="middle" x="999" y="-67.5" font-family="Helvetica,sans-Serif" font-size="10.00">Boundary.findCell</text>
</a>
</g>
</g>
<!-- Node7&#45;&gt;Node8 -->
<g id="edge7" class="edge"><title>Node7&#45;&gt;Node8</title>
<path fill="none" stroke="midnightblue" d="M914.337,-70C922.882,-70 931.546,-70 939.899,-70"/>
<polygon fill="midnightblue" stroke="midnightblue" points="939.905,-73.5001 949.905,-70 939.905,-66.5001 939.905,-73.5001"/>
</g>
</g>
</svg>
