<?xml version="1.0" encoding="UTF-8" standalone="no"?>
<!DOCTYPE svg PUBLIC "-//W3C//DTD SVG 1.1//EN"
 "http://www.w3.org/Graphics/SVG/1.1/DTD/svg11.dtd">
<!-- Generated by graphviz version 2.36.0 (20140111.2315)
 -->
<!-- Title: SimpleController Pages: 1 -->
<svg width="465pt" height="140pt"
 viewBox="0.00 0.00 465.00 140.00" xmlns="http://www.w3.org/2000/svg" xmlns:xlink="http://www.w3.org/1999/xlink">
<g id="graph0" class="graph" transform="scale(1 1) rotate(0) translate(4 136)">
<title>SimpleController</title>
<polygon fill="white" stroke="none" points="-4,4 -4,-136 461,-136 461,4 -4,4"/>
<!-- Node1 -->
<g id="node1" class="node"><title>Node1</title>
<polygon fill="#bfbfbf" stroke="black" points="180,-56.5 180,-75.5 276,-75.5 276,-56.5 180,-56.5"/>
<text text-anchor="middle" x="228" y="-63.5" font-family="Helvetica,sans-Serif" font-size="10.00">SimpleController</text>
</g>
<!-- Node3 -->
<g id="node3" class="node"><title>Node3</title>
<g id="a_node3"><a xlink:href="../../dd/da4/class_cardinal_sim_controller.html" target="_top" xlink:title="CardinalSimController">
<polygon fill="white" stroke="black" points="-0.5,-0.5 -0.5,-19.5 120.5,-19.5 120.5,-0.5 -0.5,-0.5"/>
<text text-anchor="middle" x="60" y="-7.5" font-family="Helvetica,sans-Serif" font-size="10.00">CardinalSimController</text>
</a>
</g>
</g>
<!-- Node1&#45;&gt;Node3 -->
<g id="edge2" class="edge"><title>Node1&#45;&gt;Node3</title>
<path fill="none" stroke="midnightblue" d="M191.614,-53.3044C159.958,-43.1294 114.832,-28.6246 86.4956,-19.5164"/>
<polygon fill="midnightblue" stroke="midnightblue" points="190.789,-56.7155 201.38,-56.4435 192.931,-50.0513 190.789,-56.7155"/>
</g>
<!-- Node4 -->
<g id="node4" class="node"><title>Node4</title>
<g id="a_node4"><a xlink:href="../../d5/d1b/class_fire_controller.html" target="_top" xlink:title="FireController">
<polygon fill="white" stroke="black" points="139,-0.5 139,-19.5 219,-19.5 219,-0.5 139,-0.5"/>
<text text-anchor="middle" x="179" y="-7.5" font-family="Helvetica,sans-Serif" font-size="10.00">FireController</text>
</a>
</g>
</g>
<!-- Node1&#45;&gt;Node4 -->
<g id="edge3" class="edge"><title>Node1&#45;&gt;Node4</title>
<path fill="none" stroke="midnightblue" d="M212.966,-48.4314C204.378,-38.9673 193.957,-27.4827 186.941,-19.7511"/>
<polygon fill="midnightblue" stroke="midnightblue" points="210.597,-51.0293 219.909,-56.083 215.781,-46.3254 210.597,-51.0293"/>
</g>
<!-- Node5 -->
<g id="node5" class="node"><title>Node5</title>
<g id="a_node5"><a xlink:href="../../d9/da2/class_life_controller.html" target="_top" xlink:title="LifeController">
<polygon fill="white" stroke="black" points="237,-0.5 237,-19.5 317,-19.5 317,-0.5 237,-0.5"/>
<text text-anchor="middle" x="277" y="-7.5" font-family="Helvetica,sans-Serif" font-size="10.00">LifeController</text>
</a>
</g>
</g>
<!-- Node1&#45;&gt;Node5 -->
<g id="edge4" class="edge"><title>Node1&#45;&gt;Node5</title>
<path fill="none" stroke="midnightblue" d="M243.034,-48.4314C251.622,-38.9673 262.043,-27.4827 269.059,-19.7511"/>
<polygon fill="midnightblue" stroke="midnightblue" points="240.219,-46.3254 236.091,-56.083 245.403,-51.0293 240.219,-46.3254"/>
</g>
<!-- Node6 -->
<g id="node6" class="node"><title>Node6</title>
<g id="a_node6"><a xlink:href="../../db/df8/class_segregation_controller.html" target="_top" xlink:title="SegregationController">
<polygon fill="white" stroke="black" points="335,-0.5 335,-19.5 457,-19.5 457,-0.5 335,-0.5"/>
<text text-anchor="middle" x="396" y="-7.5" font-family="Helvetica,sans-Serif" font-size="10.00">SegregationController</text>
</a>
</g>
</g>
<!-- Node1&#45;&gt;Node6 -->
<g id="edge5" class="edge"><title>Node1&#45;&gt;Node6</title>
<path fill="none" stroke="midnightblue" d="M264.386,-53.3044C296.042,-43.1294 341.168,-28.6246 369.504,-19.5164"/>
<polygon fill="midnightblue" stroke="midnightblue" points="263.069,-50.0513 254.62,-56.4435 265.211,-56.7155 263.069,-50.0513"/>
</g>
<!-- Node2 -->
<g id="node2" class="node"><title>Node2</title>
<g id="a_node2"><a xlink:href="../../d8/d87/class_controller.html" target="_top" xlink:title="Controller">
<polygon fill="white" stroke="black" points="196.5,-112.5 196.5,-131.5 259.5,-131.5 259.5,-112.5 196.5,-112.5"/>
<text text-anchor="middle" x="228" y="-119.5" font-family="Helvetica,sans-Serif" font-size="10.00">Controller</text>
</a>
</g>
</g>
<!-- Node2&#45;&gt;Node1 -->
<g id="edge1" class="edge"><title>Node2&#45;&gt;Node1</title>
<path fill="none" stroke="midnightblue" d="M228,-101.805C228,-92.9102 228,-82.7798 228,-75.7511"/>
<polygon fill="midnightblue" stroke="midnightblue" points="224.5,-102.083 228,-112.083 231.5,-102.083 224.5,-102.083"/>
</g>
</g>
</svg>
