<?xml version="1.0" encoding="UTF-8" standalone="no"?>
<!DOCTYPE svg PUBLIC "-//W3C//DTD SVG 1.1//EN"
 "http://www.w3.org/Graphics/SVG/1.1/DTD/svg11.dtd">
<!-- Generated by graphviz version 2.36.0 (20140111.2315)
 -->
<!-- Title: CellSociety Pages: 1 -->
<svg width="534pt" height="737pt"
 viewBox="0.00 0.00 534.00 737.00" xmlns="http://www.w3.org/2000/svg" xmlns:xlink="http://www.w3.org/1999/xlink">
<g id="graph0" class="graph" transform="scale(1 1) rotate(0) translate(4 733)">
<title>CellSociety</title>
<polygon fill="white" stroke="none" points="-4,4 -4,-733 530,-733 530,4 -4,4"/>
<!-- Node1 -->
<g id="node1" class="node"><title>Node1</title>
<polygon fill="#bfbfbf" stroke="black" points="456.5,-422.5 456.5,-441.5 525.5,-441.5 525.5,-422.5 456.5,-422.5"/>
<text text-anchor="middle" x="491" y="-429.5" font-family="Helvetica,sans-Serif" font-size="10.00">CellSociety</text>
</g>
<!-- Node2 -->
<g id="node2" class="node"><title>Node2</title>
<g id="a_node2"><a xlink:href="../../dd/d11/class_cell.html" target="_top" xlink:title="Cell">
<polygon fill="white" stroke="black" points="291,-671.5 291,-690.5 325,-690.5 325,-671.5 291,-671.5"/>
<text text-anchor="middle" x="308" y="-678.5" font-family="Helvetica,sans-Serif" font-size="10.00">Cell</text>
</a>
</g>
</g>
<!-- Node2&#45;&gt;Node1 -->
<g id="edge1" class="edge"><title>Node2&#45;&gt;Node1</title>
<path fill="none" stroke="#9a32cd" stroke-dasharray="5,2" d="M326.884,-664.38C353.498,-638.99 404.031,-588.186 438,-538 460.405,-504.899 478.848,-460.722 486.366,-441.549"/>
<polygon fill="#9a32cd" stroke="#9a32cd" points="324.303,-662.004 319.437,-671.415 329.11,-667.092 324.303,-662.004"/>
<text text-anchor="middle" x="405" y="-619" font-family="Helvetica,sans-Serif" font-size="10.00"> myCells</text>
</g>
<!-- Node3 -->
<g id="node3" class="node"><title>Node3</title>
<g id="a_node3"><a xlink:href="../../d2/dc7/class_ground.html" target="_top" xlink:title="Ground">
<polygon fill="white" stroke="black" points="40,-709.5 40,-728.5 92,-728.5 92,-709.5 40,-709.5"/>
<text text-anchor="middle" x="66" y="-716.5" font-family="Helvetica,sans-Serif" font-size="10.00">Ground</text>
</a>
</g>
</g>
<!-- Node3&#45;&gt;Node2 -->
<g id="edge2" class="edge"><title>Node3&#45;&gt;Node2</title>
<path fill="none" stroke="#9a32cd" stroke-dasharray="5,2" d="M102,-715.543C137.827,-711.75 195.038,-704.984 244,-696 260.035,-693.058 278.117,-688.636 290.782,-685.355"/>
<polygon fill="#9a32cd" stroke="#9a32cd" points="101.628,-712.063 92.0436,-716.579 102.352,-719.026 101.628,-712.063"/>
<text text-anchor="middle" x="197" y="-712" font-family="Helvetica,sans-Serif" font-size="10.00"> myGround</text>
</g>
<!-- Node4 -->
<g id="node4" class="node"><title>Node4</title>
<polygon fill="white" stroke="#bfbfbf" points="42.5,-671.5 42.5,-690.5 89.5,-690.5 89.5,-671.5 42.5,-671.5"/>
<text text-anchor="middle" x="66" y="-678.5" font-family="Helvetica,sans-Serif" font-size="10.00">Shape</text>
</g>
<!-- Node4&#45;&gt;Node2 -->
<g id="edge3" class="edge"><title>Node4&#45;&gt;Node2</title>
<path fill="none" stroke="#9a32cd" stroke-dasharray="5,2" d="M99.6292,-681C151.736,-681 251.832,-681 290.86,-681"/>
<polygon fill="#9a32cd" stroke="#9a32cd" points="99.5787,-677.5 89.5786,-681 99.5786,-684.5 99.5787,-677.5"/>
<text text-anchor="middle" x="197" y="-684" font-family="Helvetica,sans-Serif" font-size="10.00"> myShape</text>
</g>
<!-- Node5 -->
<g id="node5" class="node"><title>Node5</title>
<g id="a_node5"><a xlink:href="../../d2/d95/class_x_m_l_parser.html" target="_top" xlink:title="XMLParser">
<polygon fill="white" stroke="black" points="275,-562.5 275,-581.5 341,-581.5 341,-562.5 275,-562.5"/>
<text text-anchor="middle" x="308" y="-569.5" font-family="Helvetica,sans-Serif" font-size="10.00">XMLParser</text>
</a>
</g>
</g>
<!-- Node5&#45;&gt;Node1 -->
<g id="edge4" class="edge"><title>Node5&#45;&gt;Node1</title>
<path fill="none" stroke="#9a32cd" stroke-dasharray="5,2" d="M329.694,-555.993C367.524,-526.732 446.768,-465.439 477.472,-441.69"/>
<polygon fill="#9a32cd" stroke="#9a32cd" points="327.209,-553.49 321.441,-562.377 331.492,-559.027 327.209,-553.49"/>
<text text-anchor="middle" x="405" y="-526" font-family="Helvetica,sans-Serif" font-size="10.00"> myParser</text>
</g>
<!-- Node6 -->
<g id="node6" class="node"><title>Node6</title>
<polygon fill="white" stroke="#bfbfbf" points="0,-622 0,-652 132,-652 132,-622 0,-622"/>
<text text-anchor="start" x="8" y="-640" font-family="Helvetica,sans-Serif" font-size="10.00">List&lt; HashMap&lt; String,</text>
<text text-anchor="middle" x="66" y="-629" font-family="Helvetica,sans-Serif" font-size="10.00"> String &gt; &gt;</text>
</g>
<!-- Node6&#45;&gt;Node5 -->
<g id="edge5" class="edge"><title>Node6&#45;&gt;Node5</title>
<path fill="none" stroke="#9a32cd" stroke-dasharray="5,2" d="M142.371,-625.631C174.171,-619.821 211.323,-611.685 244,-601 259.793,-595.836 276.866,-587.812 289.25,-581.513"/>
<polygon fill="#9a32cd" stroke="#9a32cd" points="141.477,-622.235 132.247,-627.436 142.706,-629.126 141.477,-622.235"/>
<text text-anchor="middle" x="197" y="-627" font-family="Helvetica,sans-Serif" font-size="10.00"> myCellParamList</text>
</g>
<!-- Node7 -->
<g id="node7" class="node"><title>Node7</title>
<polygon fill="white" stroke="#bfbfbf" points="36.5,-583.5 36.5,-602.5 95.5,-602.5 95.5,-583.5 36.5,-583.5"/>
<text text-anchor="middle" x="66" y="-590.5" font-family="Helvetica,sans-Serif" font-size="10.00">NodeList</text>
</g>
<!-- Node7&#45;&gt;Node5 -->
<g id="edge6" class="edge"><title>Node7&#45;&gt;Node5</title>
<path fill="none" stroke="#9a32cd" stroke-dasharray="5,2" d="M106.059,-589.582C153.093,-585.467 231.201,-578.632 274.891,-574.81"/>
<polygon fill="#9a32cd" stroke="#9a32cd" points="105.606,-586.108 95.9496,-590.467 106.217,-593.082 105.606,-586.108"/>
<text text-anchor="middle" x="197" y="-589" font-family="Helvetica,sans-Serif" font-size="10.00"> myNodeList</text>
</g>
<!-- Node8 -->
<g id="node8" class="node"><title>Node8</title>
<polygon fill="white" stroke="#bfbfbf" points="5,-542.5 5,-561.5 127,-561.5 127,-542.5 5,-542.5"/>
<text text-anchor="middle" x="66" y="-549.5" font-family="Helvetica,sans-Serif" font-size="10.00">Map&lt; String, String &gt;</text>
</g>
<!-- Node8&#45;&gt;Node5 -->
<g id="edge7" class="edge"><title>Node8&#45;&gt;Node5</title>
<path fill="none" stroke="#9a32cd" stroke-dasharray="5,2" d="M137.533,-546.259C170.131,-544.969 209.239,-545.359 244,-551 257.656,-553.216 272.353,-557.969 284.113,-562.393"/>
<polygon fill="#9a32cd" stroke="#9a32cd" points="137.021,-542.778 127.192,-546.732 137.341,-549.771 137.021,-542.778"/>
<text text-anchor="middle" x="197" y="-565" font-family="Helvetica,sans-Serif" font-size="10.00"> myInitParam</text>
<text text-anchor="middle" x="197" y="-554" font-family="Helvetica,sans-Serif" font-size="10.00">mySimParam</text>
</g>
<!-- Node9 -->
<g id="node9" class="node"><title>Node9</title>
<polygon fill="white" stroke="#bfbfbf" points="280,-422.5 280,-441.5 336,-441.5 336,-422.5 280,-422.5"/>
<text text-anchor="middle" x="308" y="-429.5" font-family="Helvetica,sans-Serif" font-size="10.00">Timeline</text>
</g>
<!-- Node9&#45;&gt;Node1 -->
<g id="edge8" class="edge"><title>Node9&#45;&gt;Node1</title>
<path fill="none" stroke="#9a32cd" stroke-dasharray="5,2" d="M346.481,-432C378.798,-432 425.047,-432 456.233,-432"/>
<polygon fill="#9a32cd" stroke="#9a32cd" points="346.098,-428.5 336.098,-432 346.097,-435.5 346.098,-428.5"/>
<text text-anchor="middle" x="405" y="-435" font-family="Helvetica,sans-Serif" font-size="10.00"> myTimeline</text>
</g>
<!-- Node10 -->
<g id="node10" class="node"><title>Node10</title>
<g id="a_node10"><a xlink:href="../../df/df8/class_cell_society_view.html" target="_top" xlink:title="CellSocietyView">
<polygon fill="white" stroke="black" points="262.5,-287.5 262.5,-306.5 353.5,-306.5 353.5,-287.5 262.5,-287.5"/>
<text text-anchor="middle" x="308" y="-294.5" font-family="Helvetica,sans-Serif" font-size="10.00">CellSocietyView</text>
</a>
</g>
</g>
<!-- Node10&#45;&gt;Node1 -->
<g id="edge9" class="edge"><title>Node10&#45;&gt;Node1</title>
<path fill="none" stroke="#9a32cd" stroke-dasharray="5,2" d="M330.317,-312.9C368.234,-341.18 446.304,-399.409 477.101,-422.379"/>
<polygon fill="#9a32cd" stroke="#9a32cd" points="332.126,-309.882 322.017,-306.709 327.94,-315.493 332.126,-309.882"/>
<text text-anchor="middle" x="405" y="-396" font-family="Helvetica,sans-Serif" font-size="10.00"> myView</text>
</g>
<!-- Node11 -->
<g id="node11" class="node"><title>Node11</title>
<polygon fill="white" stroke="#bfbfbf" points="43.5,-504.5 43.5,-523.5 88.5,-523.5 88.5,-504.5 43.5,-504.5"/>
<text text-anchor="middle" x="66" y="-511.5" font-family="Helvetica,sans-Serif" font-size="10.00">Stage</text>
</g>
<!-- Node11&#45;&gt;Node10 -->
<g id="edge10" class="edge"><title>Node11&#45;&gt;Node10</title>
<path fill="none" stroke="#9a32cd" stroke-dasharray="5,2" d="M98.7796,-519.291C138.051,-523.884 204.507,-525.008 244,-489 269.651,-465.613 251.698,-446.148 262,-413 274.501,-372.775 294.067,-326.525 302.682,-306.768"/>
<polygon fill="#9a32cd" stroke="#9a32cd" points="99.0762,-515.8 88.7051,-517.966 98.1634,-522.74 99.0762,-515.8"/>
<text text-anchor="middle" x="197" y="-525" font-family="Helvetica,sans-Serif" font-size="10.00"> myStage</text>
</g>
<!-- Node12 -->
<g id="node12" class="node"><title>Node12</title>
<polygon fill="white" stroke="#bfbfbf" points="19.5,-466.5 19.5,-485.5 112.5,-485.5 112.5,-466.5 19.5,-466.5"/>
<text text-anchor="middle" x="66" y="-473.5" font-family="Helvetica,sans-Serif" font-size="10.00">ResourceBundle</text>
</g>
<!-- Node12&#45;&gt;Node10 -->
<g id="edge11" class="edge"><title>Node12&#45;&gt;Node10</title>
<path fill="none" stroke="#9a32cd" stroke-dasharray="5,2" d="M122.772,-475.125C167.414,-473.342 225.509,-468.245 244,-454 247.155,-451.569 290.228,-340.452 303.279,-306.652"/>
<polygon fill="#9a32cd" stroke="#9a32cd" points="122.48,-471.633 112.61,-475.484 122.727,-478.629 122.48,-471.633"/>
<text text-anchor="middle" x="197" y="-477" font-family="Helvetica,sans-Serif" font-size="10.00"> myResources</text>
</g>
<!-- Node13 -->
<g id="node13" class="node"><title>Node13</title>
<polygon fill="white" stroke="#bfbfbf" points="8,-417 8,-447 124,-447 124,-417 8,-417"/>
<text text-anchor="start" x="16" y="-435" font-family="Helvetica,sans-Serif" font-size="10.00">LineChart&lt; Number,</text>
<text text-anchor="middle" x="66" y="-424" font-family="Helvetica,sans-Serif" font-size="10.00"> Number &gt;</text>
</g>
<!-- Node13&#45;&gt;Node10 -->
<g id="edge12" class="edge"><title>Node13&#45;&gt;Node10</title>
<path fill="none" stroke="#9a32cd" stroke-dasharray="5,2" d="M134.431,-440.044C169.778,-440.872 212.207,-436.199 244,-415 283.223,-388.847 299.855,-329.973 305.061,-306.716"/>
<polygon fill="#9a32cd" stroke="#9a32cd" points="134.316,-436.537 124.188,-439.649 134.046,-443.532 134.316,-436.537"/>
<text text-anchor="middle" x="197" y="-443" font-family="Helvetica,sans-Serif" font-size="10.00"> myChart</text>
</g>
<!-- Node14 -->
<g id="node14" class="node"><title>Node14</title>
<polygon fill="white" stroke="#bfbfbf" points="38,-378.5 38,-397.5 94,-397.5 94,-378.5 38,-378.5"/>
<text text-anchor="middle" x="66" y="-385.5" font-family="Helvetica,sans-Serif" font-size="10.00">TextField</text>
</g>
<!-- Node14&#45;&gt;Node10 -->
<g id="edge13" class="edge"><title>Node14&#45;&gt;Node10</title>
<path fill="none" stroke="#9a32cd" stroke-dasharray="5,2" d="M104.01,-395.344C141.547,-400.854 200.195,-403.996 244,-381 275.312,-364.562 295.347,-324.799 303.214,-306.502"/>
<polygon fill="#9a32cd" stroke="#9a32cd" points="104.439,-391.868 94.0121,-393.747 103.335,-398.781 104.439,-391.868"/>
<text text-anchor="middle" x="197" y="-403" font-family="Helvetica,sans-Serif" font-size="10.00"> mySpeedTextField</text>
</g>
<!-- Node15 -->
<g id="node15" class="node"><title>Node15</title>
<polygon fill="white" stroke="#bfbfbf" points="41.5,-317.5 41.5,-336.5 90.5,-336.5 90.5,-317.5 41.5,-317.5"/>
<text text-anchor="middle" x="66" y="-324.5" font-family="Helvetica,sans-Serif" font-size="10.00">Button</text>
</g>
<!-- Node15&#45;&gt;Node10 -->
<g id="edge14" class="edge"><title>Node15&#45;&gt;Node10</title>
<path fill="none" stroke="#9a32cd" stroke-dasharray="5,2" d="M100.514,-321.926C115.62,-319.697 133.693,-317.113 150,-315 187.819,-310.099 230.855,-305.214 262.293,-301.772"/>
<polygon fill="#9a32cd" stroke="#9a32cd" points="99.9637,-318.469 90.5871,-323.401 100.993,-325.393 99.9637,-318.469"/>
<text text-anchor="middle" x="197" y="-373" font-family="Helvetica,sans-Serif" font-size="10.00"> myXMLButton</text>
<text text-anchor="middle" x="197" y="-362" font-family="Helvetica,sans-Serif" font-size="10.00">myPauseButton</text>
<text text-anchor="middle" x="197" y="-351" font-family="Helvetica,sans-Serif" font-size="10.00">mySlowdownButton</text>
<text text-anchor="middle" x="197" y="-340" font-family="Helvetica,sans-Serif" font-size="10.00">mySpeedupButton</text>
<text text-anchor="middle" x="197" y="-329" font-family="Helvetica,sans-Serif" font-size="10.00">myStepButton</text>
<text text-anchor="middle" x="197" y="-318" font-family="Helvetica,sans-Serif" font-size="10.00">myPlayButton</text>
</g>
<!-- Node16 -->
<g id="node16" class="node"><title>Node16</title>
<polygon fill="white" stroke="#bfbfbf" points="2,-268 2,-298 130,-298 130,-268 2,-268"/>
<text text-anchor="start" x="10" y="-286" font-family="Helvetica,sans-Serif" font-size="10.00">List&lt; Series&lt; Number,</text>
<text text-anchor="middle" x="66" y="-275" font-family="Helvetica,sans-Serif" font-size="10.00"> Number &gt; &gt;</text>
</g>
<!-- Node16&#45;&gt;Node10 -->
<g id="edge15" class="edge"><title>Node16&#45;&gt;Node10</title>
<path fill="none" stroke="#9a32cd" stroke-dasharray="5,2" d="M140.46,-277.729C172.388,-276.583 210.155,-276.769 244,-281 254.526,-282.316 265.816,-284.822 275.89,-287.468"/>
<polygon fill="#9a32cd" stroke="#9a32cd" points="140.16,-274.239 130.312,-278.145 140.447,-281.233 140.16,-274.239"/>
<text text-anchor="middle" x="197" y="-284" font-family="Helvetica,sans-Serif" font-size="10.00"> mySeries</text>
</g>
<!-- Node17 -->
<g id="node17" class="node"><title>Node17</title>
<polygon fill="white" stroke="#bfbfbf" points="48.5,-229.5 48.5,-248.5 83.5,-248.5 83.5,-229.5 48.5,-229.5"/>
<text text-anchor="middle" x="66" y="-236.5" font-family="Helvetica,sans-Serif" font-size="10.00">Text</text>
</g>
<!-- Node17&#45;&gt;Node10 -->
<g id="edge16" class="edge"><title>Node17&#45;&gt;Node10</title>
<path fill="none" stroke="#9a32cd" stroke-dasharray="5,2" d="M93.9621,-239.663C129.252,-241.2 192.649,-246.277 244,-263 261.727,-268.773 280.309,-279.454 292.659,-287.309"/>
<polygon fill="#9a32cd" stroke="#9a32cd" points="93.6655,-236.15 83.543,-239.278 93.407,-243.145 93.6655,-236.15"/>
<text text-anchor="middle" x="197" y="-266" font-family="Helvetica,sans-Serif" font-size="10.00"> myErrorMsg</text>
</g>
<!-- Node18 -->
<g id="node18" class="node"><title>Node18</title>
<polygon fill="white" stroke="#bfbfbf" points="47,-191.5 47,-210.5 85,-210.5 85,-191.5 47,-191.5"/>
<text text-anchor="middle" x="66" y="-198.5" font-family="Helvetica,sans-Serif" font-size="10.00">Font</text>
</g>
<!-- Node18&#45;&gt;Node10 -->
<g id="edge17" class="edge"><title>Node18&#45;&gt;Node10</title>
<path fill="none" stroke="#9a32cd" stroke-dasharray="5,2" d="M95.1144,-197.495C131.736,-194.291 196.661,-193.362 244,-219 273.082,-234.751 293.699,-270.087 302.396,-287.261"/>
<polygon fill="#9a32cd" stroke="#9a32cd" points="94.7454,-194.015 85.141,-198.488 95.4384,-200.98 94.7454,-194.015"/>
<text text-anchor="middle" x="197" y="-233" font-family="Helvetica,sans-Serif" font-size="10.00"> TITLE_FONT</text>
<text text-anchor="middle" x="197" y="-222" font-family="Helvetica,sans-Serif" font-size="10.00">ERROR_FONT</text>
</g>
<!-- Node19 -->
<g id="node19" class="node"><title>Node19</title>
<polygon fill="white" stroke="#bfbfbf" points="42.5,-153.5 42.5,-172.5 89.5,-172.5 89.5,-153.5 42.5,-153.5"/>
<text text-anchor="middle" x="66" y="-160.5" font-family="Helvetica,sans-Serif" font-size="10.00">Scene</text>
</g>
<!-- Node19&#45;&gt;Node10 -->
<g id="edge18" class="edge"><title>Node19&#45;&gt;Node10</title>
<path fill="none" stroke="#9a32cd" stroke-dasharray="5,2" d="M99.6178,-158.024C137.595,-154.015 200.641,-153.077 244,-182 282.255,-207.519 299.364,-264.367 304.88,-287.214"/>
<polygon fill="#9a32cd" stroke="#9a32cd" points="99.1251,-154.558 89.6081,-159.213 99.9513,-161.509 99.1251,-154.558"/>
<text text-anchor="middle" x="197" y="-185" font-family="Helvetica,sans-Serif" font-size="10.00"> myScene</text>
</g>
<!-- Node20 -->
<g id="node20" class="node"><title>Node20</title>
<polygon fill="white" stroke="#bfbfbf" points="36.5,-114.5 36.5,-133.5 95.5,-133.5 95.5,-114.5 36.5,-114.5"/>
<text text-anchor="middle" x="66" y="-121.5" font-family="Helvetica,sans-Serif" font-size="10.00">GridPane</text>
</g>
<!-- Node20&#45;&gt;Node10 -->
<g id="edge19" class="edge"><title>Node20&#45;&gt;Node10</title>
<path fill="none" stroke="#9a32cd" stroke-dasharray="5,2" d="M105.356,-114.242C144.089,-106.772 203.786,-102.06 244,-131 297.042,-169.172 305.438,-257.963 306.757,-287.357"/>
<polygon fill="#9a32cd" stroke="#9a32cd" points="104.583,-110.828 95.5036,-116.289 106.006,-117.682 104.583,-110.828"/>
<text text-anchor="middle" x="197" y="-145" font-family="Helvetica,sans-Serif" font-size="10.00"> mySimGrid</text>
<text text-anchor="middle" x="197" y="-134" font-family="Helvetica,sans-Serif" font-size="10.00">myRoot</text>
</g>
<!-- Node21 -->
<g id="node21" class="node"><title>Node21</title>
<polygon fill="white" stroke="#bfbfbf" points="45,-76.5 45,-95.5 87,-95.5 87,-76.5 45,-76.5"/>
<text text-anchor="middle" x="66" y="-83.5" font-family="Helvetica,sans-Serif" font-size="10.00">HBox</text>
</g>
<!-- Node21&#45;&gt;Node10 -->
<g id="edge20" class="edge"><title>Node21&#45;&gt;Node10</title>
<path fill="none" stroke="#9a32cd" stroke-dasharray="5,2" d="M97.0239,-77.8199C135.342,-69.3184 201.716,-61.3505 244,-94 307.089,-142.713 308.566,-253.741 307.487,-287.248"/>
<polygon fill="#9a32cd" stroke="#9a32cd" points="95.9248,-74.4834 87.0037,-80.1986 97.5417,-81.2942 95.9248,-74.4834"/>
<text text-anchor="middle" x="197" y="-97" font-family="Helvetica,sans-Serif" font-size="10.00"> myTitleBox</text>
</g>
<!-- Node22 -->
<g id="node22" class="node"><title>Node22</title>
<g id="a_node22"><a xlink:href="../../d8/d87/class_controller.html" target="_top" xlink:title="Controller">
<polygon fill="white" stroke="black" points="276.5,-38.5 276.5,-57.5 339.5,-57.5 339.5,-38.5 276.5,-38.5"/>
<text text-anchor="middle" x="308" y="-45.5" font-family="Helvetica,sans-Serif" font-size="10.00">Controller</text>
</a>
</g>
</g>
<!-- Node22&#45;&gt;Node1 -->
<g id="edge21" class="edge"><title>Node22&#45;&gt;Node1</title>
<path fill="none" stroke="#9a32cd" stroke-dasharray="5,2" d="M318.031,-67.1598C350.597,-136.251 461.343,-371.204 485.375,-422.187"/>
<polygon fill="#9a32cd" stroke="#9a32cd" points="321.086,-65.4313 313.656,-57.8781 314.754,-68.4159 321.086,-65.4313"/>
<text text-anchor="middle" x="405" y="-322" font-family="Helvetica,sans-Serif" font-size="10.00"> myController</text>
</g>
<!-- Node23 -->
<g id="node23" class="node"><title>Node23</title>
<g id="a_node23"><a xlink:href="../../dd/ddd/class_neighbor.html" target="_top" xlink:title="Neighbor">
<polygon fill="white" stroke="black" points="36,-38.5 36,-57.5 96,-57.5 96,-38.5 36,-38.5"/>
<text text-anchor="middle" x="66" y="-45.5" font-family="Helvetica,sans-Serif" font-size="10.00">Neighbor</text>
</a>
</g>
</g>
<!-- Node23&#45;&gt;Node22 -->
<g id="edge22" class="edge"><title>Node23&#45;&gt;Node22</title>
<path fill="none" stroke="#9a32cd" stroke-dasharray="5,2" d="M106.658,-48C154.226,-48 232.949,-48 276.192,-48"/>
<polygon fill="#9a32cd" stroke="#9a32cd" points="106.429,-44.5001 96.4287,-48 106.429,-51.5001 106.429,-44.5001"/>
<text text-anchor="middle" x="197" y="-51" font-family="Helvetica,sans-Serif" font-size="10.00"> myNeighbor</text>
</g>
<!-- Node24 -->
<g id="node24" class="node"><title>Node24</title>
<g id="a_node24"><a xlink:href="../../d5/dda/class_boundary.html" target="_top" xlink:title="Boundary">
<polygon fill="white" stroke="black" points="35,-0.5 35,-19.5 97,-19.5 97,-0.5 35,-0.5"/>
<text text-anchor="middle" x="66" y="-7.5" font-family="Helvetica,sans-Serif" font-size="10.00">Boundary</text>
</a>
</g>
</g>
<!-- Node24&#45;&gt;Node22 -->
<g id="edge23" class="edge"><title>Node24&#45;&gt;Node22</title>
<path fill="none" stroke="#9a32cd" stroke-dasharray="5,2" d="M107.322,-14.0252C143.319,-17.9068 197.396,-24.4482 244,-33 254.616,-34.9481 266.13,-37.5445 276.375,-40.029"/>
<polygon fill="#9a32cd" stroke="#9a32cd" points="107.528,-10.5275 97.2146,-12.9541 106.79,-17.4885 107.528,-10.5275"/>
<text text-anchor="middle" x="197" y="-36" font-family="Helvetica,sans-Serif" font-size="10.00"> myBoundary</text>
</g>
</g>
</svg>
