<?xml version="1.0" encoding="UTF-8" standalone="no"?>
<!DOCTYPE svg PUBLIC "-//W3C//DTD SVG 1.1//EN"
 "http://www.w3.org/Graphics/SVG/1.1/DTD/svg11.dtd">
<!-- Generated by graphviz version 2.36.0 (20140111.2315)
 -->
<!-- Title: CellSociety Pages: 1 -->
<!--zoomable 624 -->
<svg id="main" version="1.1" xmlns="http://www.w3.org/2000/svg" xmlns:xlink="http://www.w3.org/1999/xlink" xml:space="preserve" onload="init(evt)">
<style type="text/css"><![CDATA[
.edge:hover path { stroke: red; }
.edge:hover polygon { stroke: red; fill: red; }
]]></style>
<script type="text/javascript"><![CDATA[
var edges = document.getElementsByTagName('g');
if (edges && edges.length) {
  for (var i=0;i<edges.length;i++) {
    if (edges[i].id.substr(0,4)=='edge') {
      edges[i].setAttribute('class','edge');
    }
  }
}
]]></script>
        <defs>
                <circle id="rim" cx="0" cy="0" r="7"/>
                <circle id="rim2" cx="0" cy="0" r="3.5"/>
                <g id="zoomPlus">
                        <use xlink:href="#rim" fill="#404040">
                                <set attributeName="fill" to="#808080" begin="zoomplus.mouseover" end="zoomplus.mouseout"/>
                        </use>
                        <path d="M-4,0h8M0,-4v8" fill="none" stroke="white" stroke-width="1.5" pointer-events="none"/>
                </g>
                <g id="zoomMin">
                        <use xlink:href="#rim" fill="#404040">
                                <set attributeName="fill" to="#808080" begin="zoomminus.mouseover" end="zoomminus.mouseout"/>
                        </use>
                        <path d="M-4,0h8" fill="none" stroke="white" stroke-width="1.5" pointer-events="none"/>
                </g>
                <g id="dirArrow">
                        <path fill="none" stroke="white" stroke-width="1.5" d="M0,-3.0v7 M-2.5,-0.5L0,-3.0L2.5,-0.5"/>
                </g>
               <g id="resetDef">
                       <use xlink:href="#rim2" fill="#404040">
                               <set attributeName="fill" to="#808080" begin="reset.mouseover" end="reset.mouseout"/>
                       </use>
               </g>
        </defs>

<script type="text/javascript">
var viewWidth = 534;
var viewHeight = 624;
var sectionId = 'dynsection-0';
</script>
<script xlink:href="../../svgpan.js"/>
<svg id="graph" class="graph">
<g id="viewport">
<title>CellSociety</title>
<polygon fill="white" stroke="none" points="-4,4 -4,-620 530,-620 530,4 -4,4"/>
<!-- Node1 -->
<g id="node1" class="node"><title>Node1</title>
<polygon fill="#bfbfbf" stroke="black" points="456.5,-368.5 456.5,-387.5 525.5,-387.5 525.5,-368.5 456.5,-368.5"/>
<text text-anchor="middle" x="491" y="-375.5" font-family="Helvetica,sans-Serif" font-size="10.00">CellSociety</text>
</g>
<!-- Node2 -->
<g id="node2" class="node"><title>Node2</title>
<g id="a_node2"><a xlink:href="../../dd/d11/class_cell.html" target="_top" xlink:title="Cell">
<polygon fill="white" stroke="black" points="291,-572.5 291,-591.5 325,-591.5 325,-572.5 291,-572.5"/>
<text text-anchor="middle" x="308" y="-579.5" font-family="Helvetica,sans-Serif" font-size="10.00">Cell</text>
</a>
</g>
</g>
<!-- Node2&#45;&gt;Node1 -->
<g id="edge1" class="edge"><title>Node2&#45;&gt;Node1</title>
<path fill="none" stroke="#9a32cd" stroke-dasharray="5,2" d="M331.474,-566.716C359.053,-547.15 406.074,-511.077 438,-472 460.537,-444.414 478.391,-405.666 486.004,-387.767"/>
<polygon fill="#9a32cd" stroke="#9a32cd" points="329.435,-563.871 323.247,-572.471 333.447,-569.607 329.435,-563.871"/>
<text text-anchor="middle" x="405" y="-537" font-family="Helvetica,sans-Serif" font-size="10.00"> myCells</text>
</g>
<!-- Node3 -->
<g id="node3" class="node"><title>Node3</title>
<polygon fill="white" stroke="#bfbfbf" points="42.5,-596.5 42.5,-615.5 89.5,-615.5 89.5,-596.5 42.5,-596.5"/>
<text text-anchor="middle" x="66" y="-603.5" font-family="Helvetica,sans-Serif" font-size="10.00">Shape</text>
</g>
<!-- Node3&#45;&gt;Node2 -->
<g id="edge2" class="edge"><title>Node3&#45;&gt;Node2</title>
<path fill="none" stroke="#9a32cd" stroke-dasharray="5,2" d="M99.6292,-602.737C151.736,-597.526 251.832,-587.517 290.86,-583.614"/>
<polygon fill="#9a32cd" stroke="#9a32cd" points="99.1807,-599.264 89.5786,-603.742 99.8773,-606.23 99.1807,-599.264"/>
<text text-anchor="middle" x="197" y="-600" font-family="Helvetica,sans-Serif" font-size="10.00"> myShape</text>
</g>
<!-- Node4 -->
<g id="node4" class="node"><title>Node4</title>
<g id="a_node4"><a xlink:href="../../d2/d95/class_x_m_l_parser.html" target="_top" xlink:title="XMLParser">
<polygon fill="white" stroke="black" points="275,-489.5 275,-508.5 341,-508.5 341,-489.5 275,-489.5"/>
<text text-anchor="middle" x="308" y="-496.5" font-family="Helvetica,sans-Serif" font-size="10.00">XMLParser</text>
</a>
</g>
</g>
<!-- Node4&#45;&gt;Node1 -->
<g id="edge3" class="edge"><title>Node4&#45;&gt;Node1</title>
<path fill="none" stroke="#9a32cd" stroke-dasharray="5,2" d="M331.863,-483.716C369.73,-458.401 444.391,-408.49 475.676,-387.576"/>
<polygon fill="#9a32cd" stroke="#9a32cd" points="329.874,-480.835 323.506,-489.303 333.765,-486.655 329.874,-480.835"/>
<text text-anchor="middle" x="405" y="-460" font-family="Helvetica,sans-Serif" font-size="10.00"> myParser</text>
</g>
<!-- Node5 -->
<g id="node5" class="node"><title>Node5</title>
<polygon fill="white" stroke="#bfbfbf" points="0,-547 0,-577 132,-577 132,-547 0,-547"/>
<text text-anchor="start" x="8" y="-565" font-family="Helvetica,sans-Serif" font-size="10.00">List&lt; HashMap&lt; String,</text>
<text text-anchor="middle" x="66" y="-554" font-family="Helvetica,sans-Serif" font-size="10.00"> String &gt; &gt;</text>
</g>
<!-- Node5&#45;&gt;Node4 -->
<g id="edge4" class="edge"><title>Node5&#45;&gt;Node4</title>
<path fill="none" stroke="#9a32cd" stroke-dasharray="5,2" d="M142.31,-550.928C174.1,-545.276 211.261,-537.369 244,-527 259.404,-522.121 276.081,-514.601 288.405,-508.583"/>
<polygon fill="#9a32cd" stroke="#9a32cd" points="141.444,-547.526 132.19,-552.684 142.641,-554.423 141.444,-547.526"/>
<text text-anchor="middle" x="197" y="-552" font-family="Helvetica,sans-Serif" font-size="10.00"> myCellParamList</text>
</g>
<!-- Node6 -->
<g id="node6" class="node"><title>Node6</title>
<polygon fill="white" stroke="#bfbfbf" points="36.5,-508.5 36.5,-527.5 95.5,-527.5 95.5,-508.5 36.5,-508.5"/>
<text text-anchor="middle" x="66" y="-515.5" font-family="Helvetica,sans-Serif" font-size="10.00">NodeList</text>
</g>
<!-- Node6&#45;&gt;Node4 -->
<g id="edge5" class="edge"><title>Node6&#45;&gt;Node4</title>
<path fill="none" stroke="#9a32cd" stroke-dasharray="5,2" d="M106.059,-514.908C153.093,-511.184 231.201,-505.001 274.891,-501.542"/>
<polygon fill="#9a32cd" stroke="#9a32cd" points="105.642,-511.43 95.9496,-515.708 106.195,-518.408 105.642,-511.43"/>
<text text-anchor="middle" x="197" y="-515" font-family="Helvetica,sans-Serif" font-size="10.00"> myNodeList</text>
</g>
<!-- Node7 -->
<g id="node7" class="node"><title>Node7</title>
<polygon fill="white" stroke="#bfbfbf" points="5,-469.5 5,-488.5 127,-488.5 127,-469.5 5,-469.5"/>
<text text-anchor="middle" x="66" y="-476.5" font-family="Helvetica,sans-Serif" font-size="10.00">Map&lt; String, String &gt;</text>
</g>
<!-- Node7&#45;&gt;Node4 -->
<g id="edge6" class="edge"><title>Node7&#45;&gt;Node4</title>
<path fill="none" stroke="#9a32cd" stroke-dasharray="5,2" d="M137.497,-474.066C170.088,-473.044 209.2,-473.609 244,-479 257.155,-481.038 271.323,-485.335 282.886,-489.426"/>
<polygon fill="#9a32cd" stroke="#9a32cd" points="137.022,-470.581 127.159,-474.449 137.282,-477.576 137.022,-470.581"/>
<text text-anchor="middle" x="197" y="-493" font-family="Helvetica,sans-Serif" font-size="10.00"> myInitParam</text>
<text text-anchor="middle" x="197" y="-482" font-family="Helvetica,sans-Serif" font-size="10.00">mySimParam</text>
</g>
<!-- Node8 -->
<g id="node8" class="node"><title>Node8</title>
<polygon fill="white" stroke="#bfbfbf" points="280,-368.5 280,-387.5 336,-387.5 336,-368.5 280,-368.5"/>
<text text-anchor="middle" x="308" y="-375.5" font-family="Helvetica,sans-Serif" font-size="10.00">Timeline</text>
</g>
<!-- Node8&#45;&gt;Node1 -->
<g id="edge7" class="edge"><title>Node8&#45;&gt;Node1</title>
<path fill="none" stroke="#9a32cd" stroke-dasharray="5,2" d="M346.481,-378C378.798,-378 425.047,-378 456.233,-378"/>
<polygon fill="#9a32cd" stroke="#9a32cd" points="346.098,-374.5 336.098,-378 346.097,-381.5 346.098,-374.5"/>
<text text-anchor="middle" x="405" y="-381" font-family="Helvetica,sans-Serif" font-size="10.00"> myTimeline</text>
</g>
<!-- Node9 -->
<g id="node9" class="node"><title>Node9</title>
<g id="a_node9"><a xlink:href="../../df/df8/class_cell_society_view.html" target="_top" xlink:title="CellSocietyView">
<polygon fill="white" stroke="black" points="262.5,-253.5 262.5,-272.5 353.5,-272.5 353.5,-253.5 262.5,-253.5"/>
<text text-anchor="middle" x="308" y="-260.5" font-family="Helvetica,sans-Serif" font-size="10.00">CellSocietyView</text>
</a>
</g>
</g>
<!-- Node9&#45;&gt;Node1 -->
<g id="edge8" class="edge"><title>Node9&#45;&gt;Node1</title>
<path fill="none" stroke="#9a32cd" stroke-dasharray="5,2" d="M332.946,-278.214C370.78,-302.252 443.313,-348.337 474.795,-368.339"/>
<polygon fill="#9a32cd" stroke="#9a32cd" points="334.438,-275.016 324.121,-272.607 330.684,-280.924 334.438,-275.016"/>
<text text-anchor="middle" x="405" y="-348" font-family="Helvetica,sans-Serif" font-size="10.00"> myView</text>
</g>
<!-- Node10 -->
<g id="node10" class="node"><title>Node10</title>
<polygon fill="white" stroke="#bfbfbf" points="43.5,-431.5 43.5,-450.5 88.5,-450.5 88.5,-431.5 43.5,-431.5"/>
<text text-anchor="middle" x="66" y="-438.5" font-family="Helvetica,sans-Serif" font-size="10.00">Stage</text>
</g>
<!-- Node10&#45;&gt;Node9 -->
<g id="edge9" class="edge"><title>Node10&#45;&gt;Node9</title>
<path fill="none" stroke="#9a32cd" stroke-dasharray="5,2" d="M98.9153,-445.633C137.819,-449.398 203.384,-449.407 244,-415 263.948,-398.102 252.433,-383.329 262,-359 274.731,-326.624 293.192,-289.728 301.983,-272.632"/>
<polygon fill="#9a32cd" stroke="#9a32cd" points="99.0177,-442.123 88.6923,-444.497 98.2445,-449.08 99.0177,-442.123"/>
<text text-anchor="middle" x="197" y="-450" font-family="Helvetica,sans-Serif" font-size="10.00"> myStage</text>
</g>
<!-- Node11 -->
<g id="node11" class="node"><title>Node11</title>
<polygon fill="white" stroke="#bfbfbf" points="19.5,-393.5 19.5,-412.5 112.5,-412.5 112.5,-393.5 19.5,-393.5"/>
<text text-anchor="middle" x="66" y="-400.5" font-family="Helvetica,sans-Serif" font-size="10.00">ResourceBundle</text>
</g>
<!-- Node11&#45;&gt;Node9 -->
<g id="edge10" class="edge"><title>Node11&#45;&gt;Node9</title>
<path fill="none" stroke="#9a32cd" stroke-dasharray="5,2" d="M122.804,-401.585C167.156,-399.465 224.821,-394.178 244,-381 254.001,-374.128 289.663,-299.828 302.42,-272.777"/>
<polygon fill="#9a32cd" stroke="#9a32cd" points="122.544,-398.093 112.706,-402.025 122.849,-405.086 122.544,-398.093"/>
<text text-anchor="middle" x="197" y="-403" font-family="Helvetica,sans-Serif" font-size="10.00"> myResources</text>
</g>
<!-- Node12 -->
<g id="node12" class="node"><title>Node12</title>
<polygon fill="white" stroke="#bfbfbf" points="38,-355.5 38,-374.5 94,-374.5 94,-355.5 38,-355.5"/>
<text text-anchor="middle" x="66" y="-362.5" font-family="Helvetica,sans-Serif" font-size="10.00">TextField</text>
</g>
<!-- Node12&#45;&gt;Node9 -->
<g id="edge11" class="edge"><title>Node12&#45;&gt;Node9</title>
<path fill="none" stroke="#9a32cd" stroke-dasharray="5,2" d="M104.223,-369.209C141.93,-371.678 200.711,-370.456 244,-346 274.242,-328.915 294.558,-290.77 302.827,-272.765"/>
<polygon fill="#9a32cd" stroke="#9a32cd" points="104.418,-365.714 94.1775,-368.432 103.877,-372.693 104.418,-365.714"/>
<text text-anchor="middle" x="197" y="-373" font-family="Helvetica,sans-Serif" font-size="10.00"> mySpeedTextField</text>
</g>
<!-- Node13 -->
<g id="node13" class="node"><title>Node13</title>
<polygon fill="white" stroke="#bfbfbf" points="41.5,-273.5 41.5,-292.5 90.5,-292.5 90.5,-273.5 41.5,-273.5"/>
<text text-anchor="middle" x="66" y="-280.5" font-family="Helvetica,sans-Serif" font-size="10.00">Button</text>
</g>
<!-- Node13&#45;&gt;Node9 -->
<g id="edge12" class="edge"><title>Node13&#45;&gt;Node9</title>
<path fill="none" stroke="#9a32cd" stroke-dasharray="5,2" d="M100.94,-280.172C143.142,-276.655 215.312,-270.641 262.069,-266.744"/>
<polygon fill="#9a32cd" stroke="#9a32cd" points="100.564,-276.691 90.8895,-281.009 101.146,-283.667 100.564,-276.691"/>
<text text-anchor="middle" x="197" y="-334" font-family="Helvetica,sans-Serif" font-size="10.00"> myXMLButton</text>
<text text-anchor="middle" x="197" y="-323" font-family="Helvetica,sans-Serif" font-size="10.00">myPauseButton</text>
<text text-anchor="middle" x="197" y="-312" font-family="Helvetica,sans-Serif" font-size="10.00">mySlowdownButton</text>
<text text-anchor="middle" x="197" y="-301" font-family="Helvetica,sans-Serif" font-size="10.00">mySpeedupButton</text>
<text text-anchor="middle" x="197" y="-290" font-family="Helvetica,sans-Serif" font-size="10.00">myStepButton</text>
<text text-anchor="middle" x="197" y="-279" font-family="Helvetica,sans-Serif" font-size="10.00">myPlayButton</text>
</g>
<!-- Node14 -->
<g id="node14" class="node"><title>Node14</title>
<polygon fill="white" stroke="#bfbfbf" points="48.5,-235.5 48.5,-254.5 83.5,-254.5 83.5,-235.5 48.5,-235.5"/>
<text text-anchor="middle" x="66" y="-242.5" font-family="Helvetica,sans-Serif" font-size="10.00">Text</text>
</g>
<!-- Node14&#45;&gt;Node9 -->
<g id="edge13" class="edge"><title>Node14&#45;&gt;Node9</title>
<path fill="none" stroke="#9a32cd" stroke-dasharray="5,2" d="M93.9776,-243.328C128.804,-241.622 191.208,-240.098 244,-247 254.406,-248.361 265.566,-250.844 275.558,-253.455"/>
<polygon fill="#9a32cd" stroke="#9a32cd" points="93.4853,-239.85 83.6864,-243.878 93.859,-246.84 93.4853,-239.85"/>
<text text-anchor="middle" x="197" y="-250" font-family="Helvetica,sans-Serif" font-size="10.00"> myErrorMsg</text>
</g>
<!-- Node15 -->
<g id="node15" class="node"><title>Node15</title>
<polygon fill="white" stroke="#bfbfbf" points="47,-193.5 47,-212.5 85,-212.5 85,-193.5 47,-193.5"/>
<text text-anchor="middle" x="66" y="-200.5" font-family="Helvetica,sans-Serif" font-size="10.00">Font</text>
</g>
<!-- Node15&#45;&gt;Node9 -->
<g id="edge14" class="edge"><title>Node15&#45;&gt;Node9</title>
<path fill="none" stroke="#9a32cd" stroke-dasharray="5,2" d="M95.227,-200.322C131.047,-197.977 194.163,-197.404 244,-216 265.734,-224.11 286.384,-242.175 297.806,-253.397"/>
<polygon fill="#9a32cd" stroke="#9a32cd" points="94.7417,-196.849 85.0318,-201.088 95.2658,-203.829 94.7417,-196.849"/>
<text text-anchor="middle" x="197" y="-230" font-family="Helvetica,sans-Serif" font-size="10.00"> TITLE_FONT</text>
<text text-anchor="middle" x="197" y="-219" font-family="Helvetica,sans-Serif" font-size="10.00">ERROR_FONT</text>
</g>
<!-- Node16 -->
<g id="node16" class="node"><title>Node16</title>
<polygon fill="white" stroke="#bfbfbf" points="42.5,-155.5 42.5,-174.5 89.5,-174.5 89.5,-155.5 42.5,-155.5"/>
<text text-anchor="middle" x="66" y="-162.5" font-family="Helvetica,sans-Serif" font-size="10.00">Scene</text>
</g>
<!-- Node16&#45;&gt;Node9 -->
<g id="edge15" class="edge"><title>Node16&#45;&gt;Node9</title>
<path fill="none" stroke="#9a32cd" stroke-dasharray="5,2" d="M99.8792,-161.562C137.188,-159.212 198.723,-160.15 244,-185 272.994,-200.913 293.653,-236.171 302.378,-253.293"/>
<polygon fill="#9a32cd" stroke="#9a32cd" points="99.2882,-158.096 89.5779,-162.334 99.8116,-165.077 99.2882,-158.096"/>
<text text-anchor="middle" x="197" y="-188" font-family="Helvetica,sans-Serif" font-size="10.00"> myScene</text>
</g>
<!-- Node17 -->
<g id="node17" class="node"><title>Node17</title>
<polygon fill="white" stroke="#bfbfbf" points="36.5,-114.5 36.5,-133.5 95.5,-133.5 95.5,-114.5 36.5,-114.5"/>
<text text-anchor="middle" x="66" y="-121.5" font-family="Helvetica,sans-Serif" font-size="10.00">GridPane</text>
</g>
<!-- Node17&#45;&gt;Node9 -->
<g id="edge16" class="edge"><title>Node17&#45;&gt;Node9</title>
<path fill="none" stroke="#9a32cd" stroke-dasharray="5,2" d="M106.075,-116.197C144.493,-110.767 203.151,-108.709 244,-136 285.954,-164.029 301.115,-228.607 305.49,-253.224"/>
<polygon fill="#9a32cd" stroke="#9a32cd" points="105.15,-112.799 95.8078,-117.796 106.227,-119.715 105.15,-112.799"/>
<text text-anchor="middle" x="197" y="-150" font-family="Helvetica,sans-Serif" font-size="10.00"> mySimGrid</text>
<text text-anchor="middle" x="197" y="-139" font-family="Helvetica,sans-Serif" font-size="10.00">myRoot</text>
</g>
<!-- Node18 -->
<g id="node18" class="node"><title>Node18</title>
<polygon fill="white" stroke="#bfbfbf" points="45,-76.5 45,-95.5 87,-95.5 87,-76.5 45,-76.5"/>
<text text-anchor="middle" x="66" y="-83.5" font-family="Helvetica,sans-Serif" font-size="10.00">HBox</text>
</g>
<!-- Node18&#45;&gt;Node9 -->
<g id="edge17" class="edge"><title>Node18&#45;&gt;Node9</title>
<path fill="none" stroke="#9a32cd" stroke-dasharray="5,2" d="M97.1018,-78.9998C135.227,-71.9869 201.109,-66.2736 244,-98 296.261,-136.658 305.17,-224.444 306.688,-253.479"/>
<polygon fill="#9a32cd" stroke="#9a32cd" points="96.2528,-75.6 87.1269,-80.9822 97.6174,-82.4657 96.2528,-75.6"/>
<text text-anchor="middle" x="197" y="-101" font-family="Helvetica,sans-Serif" font-size="10.00"> myTitleBox</text>
</g>
<!-- Node19 -->
<g id="node19" class="node"><title>Node19</title>
<g id="a_node19"><a xlink:href="../../d6/d6e/class_sim_controller.html" target="_top" xlink:title="SimController">
<polygon fill="white" stroke="black" points="267,-38.5 267,-57.5 349,-57.5 349,-38.5 267,-38.5"/>
<text text-anchor="middle" x="308" y="-45.5" font-family="Helvetica,sans-Serif" font-size="10.00">SimController</text>
</a>
</g>
</g>
<!-- Node19&#45;&gt;Node1 -->
<g id="edge18" class="edge"><title>Node19&#45;&gt;Node1</title>
<path fill="none" stroke="#9a32cd" stroke-dasharray="5,2" d="M319.122,-66.454C352.713,-127.697 459.783,-322.909 484.757,-368.441"/>
<polygon fill="#9a32cd" stroke="#9a32cd" points="322.1,-64.605 314.222,-57.5204 315.962,-67.9713 322.1,-64.605"/>
<text text-anchor="middle" x="405" y="-284" font-family="Helvetica,sans-Serif" font-size="10.00"> myController</text>
</g>
<!-- Node20 -->
<g id="node20" class="node"><title>Node20</title>
<g id="a_node20"><a xlink:href="../../dd/ddd/class_neighbor.html" target="_top" xlink:title="Neighbor">
<polygon fill="white" stroke="black" points="36,-38.5 36,-57.5 96,-57.5 96,-38.5 36,-38.5"/>
<text text-anchor="middle" x="66" y="-45.5" font-family="Helvetica,sans-Serif" font-size="10.00">Neighbor</text>
</a>
</g>
</g>
<!-- Node20&#45;&gt;Node19 -->
<g id="edge19" class="edge"><title>Node20&#45;&gt;Node19</title>
<path fill="none" stroke="#9a32cd" stroke-dasharray="5,2" d="M106.54,-48C150.875,-48 222.381,-48 266.931,-48"/>
<polygon fill="#9a32cd" stroke="#9a32cd" points="106.429,-44.5001 96.4287,-48 106.429,-51.5001 106.429,-44.5001"/>
<text text-anchor="middle" x="197" y="-51" font-family="Helvetica,sans-Serif" font-size="10.00"> myNeighbor</text>
</g>
<!-- Node21 -->
<g id="node21" class="node"><title>Node21</title>
<g id="a_node21"><a xlink:href="../../d5/dda/class_boundary.html" target="_top" xlink:title="Boundary">
<polygon fill="white" stroke="black" points="35,-0.5 35,-19.5 97,-19.5 97,-0.5 35,-0.5"/>
<text text-anchor="middle" x="66" y="-7.5" font-family="Helvetica,sans-Serif" font-size="10.00">Boundary</text>
</a>
</g>
</g>
<!-- Node21&#45;&gt;Node19 -->
<g id="edge20" class="edge"><title>Node21&#45;&gt;Node19</title>
<path fill="none" stroke="#9a32cd" stroke-dasharray="5,2" d="M107.322,-14.0252C143.319,-17.9068 197.396,-24.4482 244,-33 252.405,-34.5422 261.371,-36.4908 269.826,-38.4685"/>
<polygon fill="#9a32cd" stroke="#9a32cd" points="107.528,-10.5275 97.2146,-12.9541 106.79,-17.4885 107.528,-10.5275"/>
<text text-anchor="middle" x="197" y="-36" font-family="Helvetica,sans-Serif" font-size="10.00"> myBoundary</text>
</g>
</g>
</svg>
        <g id="navigator" transform="translate(0 0)" fill="#404254">
                <rect fill="#f2f5e9" fill-opacity="0.5" stroke="#606060" stroke-width=".5" x="0" y="0" width="60" height="60"/>
                <use id="zoomplus" xlink:href="#zoomPlus" x="17" y="9" onmousedown="handleZoom(evt,'in')"/>
                <use id="zoomminus" xlink:href="#zoomMin" x="42" y="9" onmousedown="handleZoom(evt,'out')"/>
                <use id="reset" xlink:href="#resetDef" x="30" y="36" onmousedown="handleReset()"/>
                <g id="arrowUp" xlink:href="#dirArrow" transform="translate(30 24)" onmousedown="handlePan(0,-1)">
                  <use xlink:href="#rim" fill="#404040">
                        <set attributeName="fill" to="#808080" begin="arrowUp.mouseover" end="arrowUp.mouseout"/>
                  </use>
                  <path fill="none" stroke="white" stroke-width="1.5" d="M0,-3.0v7 M-2.5,-0.5L0,-3.0L2.5,-0.5"/>
                </g>
                <g id="arrowRight" xlink:href="#dirArrow" transform="rotate(90) translate(36 -43)" onmousedown="handlePan(1,0)">
                  <use xlink:href="#rim" fill="#404040">
                        <set attributeName="fill" to="#808080" begin="arrowRight.mouseover" end="arrowRight.mouseout"/>
                  </use>
                  <path fill="none" stroke="white" stroke-width="1.5" d="M0,-3.0v7 M-2.5,-0.5L0,-3.0L2.5,-0.5"/>
                </g>
                <g id="arrowDown" xlink:href="#dirArrow" transform="rotate(180) translate(-30 -48)" onmousedown="handlePan(0,1)">
                  <use xlink:href="#rim" fill="#404040">
                        <set attributeName="fill" to="#808080" begin="arrowDown.mouseover" end="arrowDown.mouseout"/>
                  </use>
                  <path fill="none" stroke="white" stroke-width="1.5" d="M0,-3.0v7 M-2.5,-0.5L0,-3.0L2.5,-0.5"/>
                </g>
                <g id="arrowLeft" xlink:href="#dirArrow" transform="rotate(270) translate(-36 17)" onmousedown="handlePan(-1,0)">
                  <use xlink:href="#rim" fill="#404040">
                        <set attributeName="fill" to="#808080" begin="arrowLeft.mouseover" end="arrowLeft.mouseout"/>
                  </use>
                  <path fill="none" stroke="white" stroke-width="1.5" d="M0,-3.0v7 M-2.5,-0.5L0,-3.0L2.5,-0.5"/>
                </g>
        </g>
        <svg viewBox="0 0 15 15" width="100%" height="30px" preserveAspectRatio="xMaxYMin meet">
         <g id="arrow_out" transform="scale(0.3 0.3)">
          <a xlink:href="class_cell_society__coll__graph_org.svg" target="_base">
           <rect id="button" ry="5" rx="5" y="6" x="6" height="38" width="38"
                fill="#f2f5e9" fill-opacity="0.5" stroke="#606060" stroke-width="1.0"/>
           <path id="arrow"
             d="M 11.500037,31.436501 C 11.940474,20.09759 22.043105,11.32322 32.158766,21.979434 L 37.068811,17.246167 C 37.068811,17.246167 37.088388,32 37.088388,32 L 22.160133,31.978069 C 22.160133,31.978069 26.997745,27.140456 26.997745,27.140456 C 18.528582,18.264221 13.291696,25.230495 11.500037,31.436501 z"
             style="fill:#404040;"/>
          </a>
         </g>
        </svg>
</svg>
