<?xml version="1.0" encoding="UTF-8" standalone="no"?>
<!DOCTYPE svg PUBLIC "-//W3C//DTD SVG 1.1//EN"
 "http://www.w3.org/Graphics/SVG/1.1/DTD/svg11.dtd">
<!-- Generated by graphviz version 2.36.0 (20140111.2315)
 -->
<!-- Title: Controller Pages: 1 -->
<svg width="544pt" height="140pt"
 viewBox="0.00 0.00 544.00 140.00" xmlns="http://www.w3.org/2000/svg" xmlns:xlink="http://www.w3.org/1999/xlink">
<g id="graph0" class="graph" transform="scale(1 1) rotate(0) translate(4 136)">
<title>Controller</title>
<polygon fill="white" stroke="none" points="-4,4 -4,-136 540,-136 540,4 -4,4"/>
<!-- Node1 -->
<g id="node1" class="node"><title>Node1</title>
<polygon fill="#bfbfbf" stroke="black" points="203.5,-112.5 203.5,-131.5 266.5,-131.5 266.5,-112.5 203.5,-112.5"/>
<text text-anchor="middle" x="235" y="-119.5" font-family="Helvetica,sans-Serif" font-size="10.00">Controller</text>
</g>
<!-- Node2 -->
<g id="node2" class="node"><title>Node2</title>
<g id="a_node2"><a xlink:href="../../de/d92/class_complex_controller.html" target="_top" xlink:title="ComplexController">
<polygon fill="white" stroke="black" points="102.5,-56.5 102.5,-75.5 207.5,-75.5 207.5,-56.5 102.5,-56.5"/>
<text text-anchor="middle" x="155" y="-63.5" font-family="Helvetica,sans-Serif" font-size="10.00">ComplexController</text>
</a>
</g>
</g>
<!-- Node1&#45;&gt;Node2 -->
<g id="edge1" class="edge"><title>Node1&#45;&gt;Node2</title>
<path fill="none" stroke="midnightblue" d="M213.699,-106.622C199.085,-96.7574 180.173,-83.9919 167.821,-75.6545"/>
<polygon fill="midnightblue" stroke="midnightblue" points="211.9,-109.63 222.147,-112.324 215.816,-103.828 211.9,-109.63"/>
</g>
<!-- Node5 -->
<g id="node5" class="node"><title>Node5</title>
<g id="a_node5"><a xlink:href="../../da/d56/class_simple_controller.html" target="_top" xlink:title="SimpleController">
<polygon fill="white" stroke="black" points="267,-56.5 267,-75.5 363,-75.5 363,-56.5 267,-56.5"/>
<text text-anchor="middle" x="315" y="-63.5" font-family="Helvetica,sans-Serif" font-size="10.00">SimpleController</text>
</a>
</g>
</g>
<!-- Node1&#45;&gt;Node5 -->
<g id="edge4" class="edge"><title>Node1&#45;&gt;Node5</title>
<path fill="none" stroke="midnightblue" d="M256.301,-106.622C270.915,-96.7574 289.827,-83.9919 302.179,-75.6545"/>
<polygon fill="midnightblue" stroke="midnightblue" points="254.184,-103.828 247.853,-112.324 258.1,-109.63 254.184,-103.828"/>
</g>
<!-- Node3 -->
<g id="node3" class="node"><title>Node3</title>
<g id="a_node3"><a xlink:href="../../dd/dc0/class_sugar_controller.html" target="_top" xlink:title="SugarController">
<polygon fill="white" stroke="black" points="0,-0.5 0,-19.5 92,-19.5 92,-0.5 0,-0.5"/>
<text text-anchor="middle" x="46" y="-7.5" font-family="Helvetica,sans-Serif" font-size="10.00">SugarController</text>
</a>
</g>
</g>
<!-- Node2&#45;&gt;Node3 -->
<g id="edge2" class="edge"><title>Node2&#45;&gt;Node3</title>
<path fill="none" stroke="midnightblue" d="M128.481,-51.8622C108.27,-41.8492 81.0129,-28.3458 63.4693,-19.6545"/>
<polygon fill="midnightblue" stroke="midnightblue" points="126.973,-55.0209 137.487,-56.324 130.08,-48.7485 126.973,-55.0209"/>
</g>
<!-- Node4 -->
<g id="node4" class="node"><title>Node4</title>
<g id="a_node4"><a xlink:href="../../dc/da7/class_wator_controller.html" target="_top" xlink:title="WatorController">
<polygon fill="white" stroke="black" points="110,-0.5 110,-19.5 200,-19.5 200,-0.5 110,-0.5"/>
<text text-anchor="middle" x="155" y="-7.5" font-family="Helvetica,sans-Serif" font-size="10.00">WatorController</text>
</a>
</g>
</g>
<!-- Node2&#45;&gt;Node4 -->
<g id="edge3" class="edge"><title>Node2&#45;&gt;Node4</title>
<path fill="none" stroke="midnightblue" d="M155,-45.8045C155,-36.9102 155,-26.7798 155,-19.7511"/>
<polygon fill="midnightblue" stroke="midnightblue" points="151.5,-46.083 155,-56.083 158.5,-46.083 151.5,-46.083"/>
</g>
<!-- Node6 -->
<g id="node6" class="node"><title>Node6</title>
<g id="a_node6"><a xlink:href="../../d5/d1b/class_fire_controller.html" target="_top" xlink:title="FireController">
<polygon fill="white" stroke="black" points="218,-0.5 218,-19.5 298,-19.5 298,-0.5 218,-0.5"/>
<text text-anchor="middle" x="258" y="-7.5" font-family="Helvetica,sans-Serif" font-size="10.00">FireController</text>
</a>
</g>
</g>
<!-- Node5&#45;&gt;Node6 -->
<g id="edge5" class="edge"><title>Node5&#45;&gt;Node6</title>
<path fill="none" stroke="midnightblue" d="M298.379,-49.2533C288.266,-39.6731 275.723,-27.7906 267.325,-19.8339"/>
<polygon fill="midnightblue" stroke="midnightblue" points="296.175,-51.9873 305.842,-56.324 300.99,-46.9056 296.175,-51.9873"/>
</g>
<!-- Node7 -->
<g id="node7" class="node"><title>Node7</title>
<g id="a_node7"><a xlink:href="../../d9/da2/class_life_controller.html" target="_top" xlink:title="LifeController">
<polygon fill="white" stroke="black" points="316,-0.5 316,-19.5 396,-19.5 396,-0.5 316,-0.5"/>
<text text-anchor="middle" x="356" y="-7.5" font-family="Helvetica,sans-Serif" font-size="10.00">LifeController</text>
</a>
</g>
</g>
<!-- Node5&#45;&gt;Node7 -->
<g id="edge6" class="edge"><title>Node5&#45;&gt;Node7</title>
<path fill="none" stroke="midnightblue" d="M328.017,-47.8554C335.117,-38.5048 343.604,-27.3265 349.356,-19.7511"/>
<polygon fill="midnightblue" stroke="midnightblue" points="325.03,-46.002 321.77,-56.083 330.605,-50.235 325.03,-46.002"/>
</g>
<!-- Node8 -->
<g id="node8" class="node"><title>Node8</title>
<g id="a_node8"><a xlink:href="../../db/df8/class_segregation_controller.html" target="_top" xlink:title="SegregationController">
<polygon fill="white" stroke="black" points="414,-0.5 414,-19.5 536,-19.5 536,-0.5 414,-0.5"/>
<text text-anchor="middle" x="475" y="-7.5" font-family="Helvetica,sans-Serif" font-size="10.00">SegregationController</text>
</a>
</g>
</g>
<!-- Node5&#45;&gt;Node8 -->
<g id="edge7" class="edge"><title>Node5&#45;&gt;Node8</title>
<path fill="none" stroke="midnightblue" d="M350.046,-53.172C380.174,-43.0039 422.896,-28.5852 449.766,-19.5164"/>
<polygon fill="midnightblue" stroke="midnightblue" points="348.708,-49.9295 340.352,-56.4435 350.947,-56.5619 348.708,-49.9295"/>
</g>
</g>
</svg>
