<?xml version="1.0" encoding="UTF-8" standalone="no"?>
<!DOCTYPE svg PUBLIC "-//W3C//DTD SVG 1.1//EN"
 "http://www.w3.org/Graphics/SVG/1.1/DTD/svg11.dtd">
<!-- Generated by graphviz version 2.36.0 (20140111.2315)
 -->
<!-- Title: Controller Pages: 1 -->
<svg width="476pt" height="196pt"
 viewBox="0.00 0.00 476.00 196.00" xmlns="http://www.w3.org/2000/svg" xmlns:xlink="http://www.w3.org/1999/xlink">
<g id="graph0" class="graph" transform="scale(1 1) rotate(0) translate(4 192)">
<title>Controller</title>
<polygon fill="white" stroke="none" points="-4,4 -4,-192 472,-192 472,4 -4,4"/>
<!-- Node1 -->
<g id="node1" class="node"><title>Node1</title>
<polygon fill="#bfbfbf" stroke="black" points="135.5,-168.5 135.5,-187.5 198.5,-187.5 198.5,-168.5 135.5,-168.5"/>
<text text-anchor="middle" x="167" y="-175.5" font-family="Helvetica,sans-Serif" font-size="10.00">Controller</text>
</g>
<!-- Node2 -->
<g id="node2" class="node"><title>Node2</title>
<g id="a_node2"><a xlink:href="../../de/d92/class_complex_controller.html" target="_top" xlink:title="ComplexController">
<polygon fill="white" stroke="black" points="54.5,-112.5 54.5,-131.5 159.5,-131.5 159.5,-112.5 54.5,-112.5"/>
<text text-anchor="middle" x="107" y="-119.5" font-family="Helvetica,sans-Serif" font-size="10.00">ComplexController</text>
</a>
</g>
</g>
<!-- Node1&#45;&gt;Node2 -->
<g id="edge1" class="edge"><title>Node1&#45;&gt;Node2</title>
<path fill="none" stroke="midnightblue" d="M149.819,-161.537C139.121,-151.909 125.744,-139.869 116.815,-131.834"/>
<polygon fill="midnightblue" stroke="midnightblue" points="147.586,-164.236 157.36,-168.324 152.268,-159.033 147.586,-164.236"/>
</g>
<!-- Node4 -->
<g id="node4" class="node"><title>Node4</title>
<g id="a_node4"><a xlink:href="../../da/d56/class_simple_controller.html" target="_top" xlink:title="SimpleController">
<polygon fill="white" stroke="black" points="180,-112.5 180,-131.5 276,-131.5 276,-112.5 180,-112.5"/>
<text text-anchor="middle" x="228" y="-119.5" font-family="Helvetica,sans-Serif" font-size="10.00">SimpleController</text>
</a>
</g>
</g>
<!-- Node1&#45;&gt;Node4 -->
<g id="edge3" class="edge"><title>Node1&#45;&gt;Node4</title>
<path fill="none" stroke="midnightblue" d="M184.467,-161.537C195.344,-151.909 208.944,-139.869 218.021,-131.834"/>
<polygon fill="midnightblue" stroke="midnightblue" points="181.968,-159.075 176.801,-168.324 186.608,-164.316 181.968,-159.075"/>
</g>
<!-- Node3 -->
<g id="node3" class="node"><title>Node3</title>
<g id="a_node3"><a xlink:href="../../dc/da7/class_wator_controller.html" target="_top" xlink:title="WatorController">
<polygon fill="white" stroke="black" points="0,-56.5 0,-75.5 90,-75.5 90,-56.5 0,-56.5"/>
<text text-anchor="middle" x="45" y="-63.5" font-family="Helvetica,sans-Serif" font-size="10.00">WatorController</text>
</a>
</g>
</g>
<!-- Node2&#45;&gt;Node3 -->
<g id="edge2" class="edge"><title>Node2&#45;&gt;Node3</title>
<path fill="none" stroke="midnightblue" d="M89.2464,-105.537C78.1915,-95.9087 64.3685,-83.8694 55.1426,-75.8339"/>
<polygon fill="midnightblue" stroke="midnightblue" points="87.199,-108.395 97.0386,-112.324 91.7965,-103.117 87.199,-108.395"/>
</g>
<!-- Node5 -->
<g id="node5" class="node"><title>Node5</title>
<g id="a_node5"><a xlink:href="../../dd/da4/class_cardinal_sim_controller.html" target="_top" xlink:title="CardinalSimController">
<polygon fill="white" stroke="black" points="108.5,-56.5 108.5,-75.5 229.5,-75.5 229.5,-56.5 108.5,-56.5"/>
<text text-anchor="middle" x="169" y="-63.5" font-family="Helvetica,sans-Serif" font-size="10.00">CardinalSimController</text>
</a>
</g>
</g>
<!-- Node4&#45;&gt;Node5 -->
<g id="edge4" class="edge"><title>Node4&#45;&gt;Node5</title>
<path fill="none" stroke="midnightblue" d="M211.105,-105.537C200.585,-95.9087 187.431,-83.8694 178.652,-75.8339"/>
<polygon fill="midnightblue" stroke="midnightblue" points="208.781,-108.154 218.521,-112.324 213.507,-102.99 208.781,-108.154"/>
</g>
<!-- Node7 -->
<g id="node7" class="node"><title>Node7</title>
<g id="a_node7"><a xlink:href="../../d9/da2/class_life_controller.html" target="_top" xlink:title="LifeController">
<polygon fill="white" stroke="black" points="248,-56.5 248,-75.5 328,-75.5 328,-56.5 248,-56.5"/>
<text text-anchor="middle" x="288" y="-63.5" font-family="Helvetica,sans-Serif" font-size="10.00">LifeController</text>
</a>
</g>
</g>
<!-- Node4&#45;&gt;Node7 -->
<g id="edge6" class="edge"><title>Node4&#45;&gt;Node7</title>
<path fill="none" stroke="midnightblue" d="M245.181,-105.537C255.879,-95.9087 269.256,-83.8694 278.185,-75.8339"/>
<polygon fill="midnightblue" stroke="midnightblue" points="242.732,-103.033 237.64,-112.324 247.414,-108.236 242.732,-103.033"/>
</g>
<!-- Node8 -->
<g id="node8" class="node"><title>Node8</title>
<g id="a_node8"><a xlink:href="../../db/df8/class_segregation_controller.html" target="_top" xlink:title="SegregationController">
<polygon fill="white" stroke="black" points="346,-56.5 346,-75.5 468,-75.5 468,-56.5 346,-56.5"/>
<text text-anchor="middle" x="407" y="-63.5" font-family="Helvetica,sans-Serif" font-size="10.00">SegregationController</text>
</a>
</g>
</g>
<!-- Node4&#45;&gt;Node8 -->
<g id="edge7" class="edge"><title>Node4&#45;&gt;Node8</title>
<path fill="none" stroke="midnightblue" d="M266.331,-109.436C300.08,-99.2551 348.447,-84.664 378.77,-75.5164"/>
<polygon fill="midnightblue" stroke="midnightblue" points="264.926,-106.204 256.363,-112.444 266.948,-112.906 264.926,-106.204"/>
</g>
<!-- Node6 -->
<g id="node6" class="node"><title>Node6</title>
<g id="a_node6"><a xlink:href="../../d5/d1b/class_fire_controller.html" target="_top" xlink:title="FireController">
<polygon fill="white" stroke="black" points="129,-0.5 129,-19.5 209,-19.5 209,-0.5 129,-0.5"/>
<text text-anchor="middle" x="169" y="-7.5" font-family="Helvetica,sans-Serif" font-size="10.00">FireController</text>
</a>
</g>
</g>
<!-- Node5&#45;&gt;Node6 -->
<g id="edge5" class="edge"><title>Node5&#45;&gt;Node6</title>
<path fill="none" stroke="midnightblue" d="M169,-45.8045C169,-36.9102 169,-26.7798 169,-19.7511"/>
<polygon fill="midnightblue" stroke="midnightblue" points="165.5,-46.083 169,-56.083 172.5,-46.083 165.5,-46.083"/>
</g>
</g>
</svg>
