<?xml version="1.0" encoding="UTF-8" standalone="no"?>
<!DOCTYPE svg PUBLIC "-//W3C//DTD SVG 1.1//EN"
 "http://www.w3.org/Graphics/SVG/1.1/DTD/svg11.dtd">
<!-- Generated by graphviz version 2.36.0 (20140111.2315)
 -->
<!-- Title: SegregationController.runOneSim Pages: 1 -->
<svg width="448pt" height="38pt"
 viewBox="0.00 0.00 448.00 38.00" xmlns="http://www.w3.org/2000/svg" xmlns:xlink="http://www.w3.org/1999/xlink">
<g id="graph0" class="graph" transform="scale(1 1) rotate(0) translate(4 34)">
<title>SegregationController.runOneSim</title>
<polygon fill="white" stroke="none" points="-4,4 -4,-34 444,-34 444,4 -4,4"/>
<!-- Node1 -->
<g id="node1" class="node"><title>Node1</title>
<polygon fill="#bfbfbf" stroke="black" points="0,-0 0,-30 140,-30 140,-0 0,-0"/>
<text text-anchor="start" x="8" y="-18" font-family="Helvetica,sans-Serif" font-size="10.00">SegregationController.run</text>
<text text-anchor="middle" x="70" y="-7" font-family="Helvetica,sans-Serif" font-size="10.00">OneSim</text>
</g>
<!-- Node2 -->
<g id="node2" class="node"><title>Node2</title>
<g id="a_node2"><a xlink:href="../../db/df8/class_segregation_controller.html#af3efcd7e96159364d9427fd7f4988bbe" target="_top" xlink:title="SegregationController.make\lEmptyList">
<polygon fill="white" stroke="black" points="176.5,-0 176.5,-30 327.5,-30 327.5,-0 176.5,-0"/>
<text text-anchor="start" x="184.5" y="-18" font-family="Helvetica,sans-Serif" font-size="10.00">SegregationController.make</text>
<text text-anchor="middle" x="252" y="-7" font-family="Helvetica,sans-Serif" font-size="10.00">EmptyList</text>
</a>
</g>
</g>
<!-- Node1&#45;&gt;Node2 -->
<g id="edge1" class="edge"><title>Node1&#45;&gt;Node2</title>
<path fill="none" stroke="midnightblue" d="M140.078,-15C148.629,-15 157.447,-15 166.199,-15"/>
<polygon fill="midnightblue" stroke="midnightblue" points="166.423,-18.5001 176.423,-15 166.423,-11.5001 166.423,-18.5001"/>
</g>
<!-- Node3 -->
<g id="node3" class="node"><title>Node3</title>
<g id="a_node3"><a xlink:href="../../dd/d11/class_cell.html#a7f8d2520a26a1376a44372149e561f6b" target="_top" xlink:title="Cell.toString">
<polygon fill="white" stroke="black" points="364.5,-5.5 364.5,-24.5 439.5,-24.5 439.5,-5.5 364.5,-5.5"/>
<text text-anchor="middle" x="402" y="-12.5" font-family="Helvetica,sans-Serif" font-size="10.00">Cell.toString</text>
</a>
</g>
</g>
<!-- Node2&#45;&gt;Node3 -->
<g id="edge2" class="edge"><title>Node2&#45;&gt;Node3</title>
<path fill="none" stroke="midnightblue" d="M327.867,-15C336.74,-15 345.595,-15 353.924,-15"/>
<polygon fill="midnightblue" stroke="midnightblue" points="354.154,-18.5001 364.154,-15 354.154,-11.5001 354.154,-18.5001"/>
</g>
</g>
</svg>
