<?xml version="1.0" encoding="UTF-8" standalone="no"?>
<!DOCTYPE svg PUBLIC "-//W3C//DTD SVG 1.1//EN"
 "http://www.w3.org/Graphics/SVG/1.1/DTD/svg11.dtd">
<!-- Generated by graphviz version 2.36.0 (20140111.2315)
 -->
<!-- Title: SegregationController.newState Pages: 1 -->
<svg width="316pt" height="66pt"
 viewBox="0.00 0.00 316.00 66.00" xmlns="http://www.w3.org/2000/svg" xmlns:xlink="http://www.w3.org/1999/xlink">
<g id="graph0" class="graph" transform="scale(1 1) rotate(0) translate(4 62)">
<title>SegregationController.newState</title>
<polygon fill="white" stroke="none" points="-4,4 -4,-62 312,-62 312,4 -4,4"/>
<!-- Node1 -->
<g id="node1" class="node"><title>Node1</title>
<polygon fill="#bfbfbf" stroke="black" points="0.5,-14 0.5,-44 143.5,-44 143.5,-14 0.5,-14"/>
<text text-anchor="start" x="8.5" y="-32" font-family="Helvetica,sans-Serif" font-size="10.00">SegregationController.new</text>
<text text-anchor="middle" x="72" y="-21" font-family="Helvetica,sans-Serif" font-size="10.00">State</text>
</g>
<!-- Node2 -->
<g id="node2" class="node"><title>Node2</title>
<g id="a_node2"><a xlink:href="../../d6/d6e/class_sim_controller.html#a35fd128d12a001430bbf5e52c70f2742" target="_top" xlink:title="SimController.contains">
<polygon fill="white" stroke="black" points="181.5,-38.5 181.5,-57.5 306.5,-57.5 306.5,-38.5 181.5,-38.5"/>
<text text-anchor="middle" x="244" y="-45.5" font-family="Helvetica,sans-Serif" font-size="10.00">SimController.contains</text>
</a>
</g>
</g>
<!-- Node1&#45;&gt;Node2 -->
<g id="edge1" class="edge"><title>Node1&#45;&gt;Node2</title>
<path fill="none" stroke="midnightblue" d="M143.618,-36.8926C152.699,-37.9075 162.005,-38.9476 171.106,-39.9647"/>
<polygon fill="midnightblue" stroke="midnightblue" points="170.943,-43.4683 181.27,-41.1008 171.721,-36.5116 170.943,-43.4683"/>
</g>
<!-- Node3 -->
<g id="node3" class="node"><title>Node3</title>
<g id="a_node3"><a xlink:href="../../d6/d6e/class_sim_controller.html#a97511901b1d373d680de60261b253609" target="_top" xlink:title="SimController.makeCell">
<polygon fill="white" stroke="black" points="180,-0.5 180,-19.5 308,-19.5 308,-0.5 180,-0.5"/>
<text text-anchor="middle" x="244" y="-7.5" font-family="Helvetica,sans-Serif" font-size="10.00">SimController.makeCell</text>
</a>
</g>
</g>
<!-- Node1&#45;&gt;Node3 -->
<g id="edge2" class="edge"><title>Node1&#45;&gt;Node3</title>
<path fill="none" stroke="midnightblue" d="M143.618,-21.1074C152.273,-20.14 161.133,-19.1498 169.825,-18.1784"/>
<polygon fill="midnightblue" stroke="midnightblue" points="170.379,-21.6383 179.929,-17.0492 169.602,-14.6816 170.379,-21.6383"/>
</g>
</g>
</svg>
