<?xml version="1.0" encoding="UTF-8" standalone="no"?>
<!DOCTYPE svg PUBLIC "-//W3C//DTD SVG 1.1//EN"
 "http://www.w3.org/Graphics/SVG/1.1/DTD/svg11.dtd">
<!-- Generated by graphviz version 2.36.0 (20140111.2315)
 -->
<!-- Title: SegregationController.getNeighborsState Pages: 1 -->
<svg width="336pt" height="77pt"
 viewBox="0.00 0.00 336.00 77.00" xmlns="http://www.w3.org/2000/svg" xmlns:xlink="http://www.w3.org/1999/xlink">
<g id="graph0" class="graph" transform="scale(1 1) rotate(0) translate(4 73)">
<title>SegregationController.getNeighborsState</title>
<polygon fill="white" stroke="none" points="-4,4 -4,-73 332,-73 332,4 -4,4"/>
<!-- Node1 -->
<g id="node1" class="node"><title>Node1</title>
<polygon fill="#bfbfbf" stroke="black" points="0,-17 0,-47 140,-47 140,-17 0,-17"/>
<text text-anchor="start" x="8" y="-35" font-family="Helvetica,sans-Serif" font-size="10.00">SegregationController.get</text>
<text text-anchor="middle" x="70" y="-24" font-family="Helvetica,sans-Serif" font-size="10.00">NeighborsState</text>
</g>
<!-- Node2 -->
<g id="node2" class="node"><title>Node2</title>
<g id="a_node2"><a xlink:href="../../db/df8/class_segregation_controller.html#ac16308a49679ca8e0151c3b63b49cb3e" target="_top" xlink:title="SegregationController.select\lNeighborsState">
<polygon fill="white" stroke="black" points="176,-39 176,-69 328,-69 328,-39 176,-39"/>
<text text-anchor="start" x="184" y="-57" font-family="Helvetica,sans-Serif" font-size="10.00">SegregationController.select</text>
<text text-anchor="middle" x="252" y="-46" font-family="Helvetica,sans-Serif" font-size="10.00">NeighborsState</text>
</a>
</g>
</g>
<!-- Node1&#45;&gt;Node2 -->
<g id="edge1" class="edge"><title>Node1&#45;&gt;Node2</title>
<path fill="none" stroke="midnightblue" d="M140.078,-40.4429C148.486,-41.4706 157.153,-42.5298 165.761,-43.5819"/>
<polygon fill="midnightblue" stroke="midnightblue" points="165.47,-47.0723 175.821,-44.8114 166.319,-40.124 165.47,-47.0723"/>
</g>
<!-- Node3 -->
<g id="node3" class="node"><title>Node3</title>
<g id="a_node3"><a xlink:href="../../dd/d11/class_cell.html#a7f8d2520a26a1376a44372149e561f6b" target="_top" xlink:title="Cell.toString">
<polygon fill="white" stroke="black" points="214.5,-0.5 214.5,-19.5 289.5,-19.5 289.5,-0.5 214.5,-0.5"/>
<text text-anchor="middle" x="252" y="-7.5" font-family="Helvetica,sans-Serif" font-size="10.00">Cell.toString</text>
</a>
</g>
</g>
<!-- Node1&#45;&gt;Node3 -->
<g id="edge2" class="edge"><title>Node1&#45;&gt;Node3</title>
<path fill="none" stroke="midnightblue" d="M140.078,-23.5571C161.508,-20.9379 184.613,-18.114 204.16,-15.7249"/>
<polygon fill="midnightblue" stroke="midnightblue" points="204.822,-19.1701 214.323,-14.4827 203.973,-12.2218 204.822,-19.1701"/>
</g>
</g>
</svg>
