<?xml version="1.0" encoding="UTF-8" standalone="no"?>
<!DOCTYPE svg PUBLIC "-//W3C//DTD SVG 1.1//EN"
 "http://www.w3.org/Graphics/SVG/1.1/DTD/svg11.dtd">
<!-- Generated by graphviz version 2.36.0 (20140111.2315)
 -->
<!-- Title: FireCell Pages: 1 -->
<svg width="124pt" height="164pt"
 viewBox="0.00 0.00 124.00 164.00" xmlns="http://www.w3.org/2000/svg" xmlns:xlink="http://www.w3.org/1999/xlink">
<g id="graph0" class="graph" transform="scale(1 1) rotate(0) translate(4 160)">
<title>FireCell</title>
<polygon fill="white" stroke="none" points="-4,4 -4,-160 120,-160 120,4 -4,4"/>
<!-- Node1 -->
<g id="node1" class="node"><title>Node1</title>
<polygon fill="#bfbfbf" stroke="black" points="37,-0.5 37,-19.5 87,-19.5 87,-0.5 37,-0.5"/>
<text text-anchor="middle" x="62" y="-7.5" font-family="Helvetica,sans-Serif" font-size="10.00">FireCell</text>
</g>
<!-- Node2 -->
<g id="node2" class="node"><title>Node2</title>
<g id="a_node2"><a xlink:href="../../dd/d11/class_cell.html" target="_top" xlink:title="Cell">
<polygon fill="white" stroke="black" points="6,-68.5 6,-87.5 40,-87.5 40,-68.5 6,-68.5"/>
<text text-anchor="middle" x="23" y="-75.5" font-family="Helvetica,sans-Serif" font-size="10.00">Cell</text>
</a>
</g>
</g>
<!-- Node2&#45;&gt;Node1 -->
<g id="edge1" class="edge"><title>Node2&#45;&gt;Node1</title>
<path fill="none" stroke="midnightblue" d="M33.3037,-59.563C40.8564,-46.7815 50.7964,-29.9599 56.7757,-19.8411"/>
<polygon fill="midnightblue" stroke="midnightblue" points="30.1727,-57.9818 28.0986,-68.3717 36.1992,-61.5429 30.1727,-57.9818"/>
</g>
<!-- Node3 -->
<g id="node3" class="node"><title>Node3</title>
<polygon fill="white" stroke="#bfbfbf" points="-0.5,-136.5 -0.5,-155.5 46.5,-155.5 46.5,-136.5 -0.5,-136.5"/>
<text text-anchor="middle" x="23" y="-143.5" font-family="Helvetica,sans-Serif" font-size="10.00">Shape</text>
</g>
<!-- Node3&#45;&gt;Node2 -->
<g id="edge2" class="edge"><title>Node3&#45;&gt;Node2</title>
<path fill="none" stroke="#9a32cd" stroke-dasharray="5,2" d="M23,-126.041C23,-113.472 23,-97.5631 23,-87.8411"/>
<polygon fill="#9a32cd" stroke="#9a32cd" points="19.5001,-126.372 23,-136.372 26.5001,-126.372 19.5001,-126.372"/>
<text text-anchor="middle" x="47.5" y="-109.5" font-family="Helvetica,sans-Serif" font-size="10.00"> myShape</text>
</g>
<!-- Node4 -->
<g id="node4" class="node"><title>Node4</title>
<polygon fill="white" stroke="#bfbfbf" points="58.5,-68.5 58.5,-87.5 99.5,-87.5 99.5,-68.5 58.5,-68.5"/>
<text text-anchor="middle" x="79" y="-75.5" font-family="Helvetica,sans-Serif" font-size="10.00">Color</text>
</g>
<!-- Node4&#45;&gt;Node1 -->
<g id="edge3" class="edge"><title>Node4&#45;&gt;Node1</title>
<path fill="none" stroke="#9a32cd" stroke-dasharray="5,2" d="M74.2155,-58.425C70.9631,-45.7978 66.807,-29.6623 64.2773,-19.8411"/>
<polygon fill="#9a32cd" stroke="#9a32cd" points="70.8938,-59.5608 76.7775,-68.3717 77.6725,-57.8147 70.8938,-59.5608"/>
<text text-anchor="middle" x="94.5" y="-41.5" font-family="Helvetica,sans-Serif" font-size="10.00"> myColor</text>
</g>
</g>
</svg>
