<?xml version="1.0" encoding="UTF-8" standalone="no"?>
<!DOCTYPE svg PUBLIC "-//W3C//DTD SVG 1.1//EN"
 "http://www.w3.org/Graphics/SVG/1.1/DTD/svg11.dtd">
<!-- Generated by graphviz version 2.36.0 (20140111.2315)
 -->
<!-- Title: SquareGrid.setBack Pages: 1 -->
<svg width="456pt" height="28pt"
 viewBox="0.00 0.00 456.00 28.00" xmlns="http://www.w3.org/2000/svg" xmlns:xlink="http://www.w3.org/1999/xlink">
<g id="graph0" class="graph" transform="scale(1 1) rotate(0) translate(4 24)">
<title>SquareGrid.setBack</title>
<polygon fill="white" stroke="none" points="-4,4 -4,-24 452,-24 452,4 -4,4"/>
<!-- Node1 -->
<g id="node1" class="node"><title>Node1</title>
<polygon fill="#bfbfbf" stroke="black" points="0,-0.5 0,-19.5 112,-19.5 112,-0.5 0,-0.5"/>
<text text-anchor="middle" x="56" y="-7.5" font-family="Helvetica,sans-Serif" font-size="10.00">SquareGrid.setBack</text>
</g>
<!-- Node2 -->
<g id="node2" class="node"><title>Node2</title>
<g id="a_node2"><a xlink:href="../../dd/dc3/class_square_grid.html#af2e2d0f6db19d2c7dc8e4dc7e0602389" target="_top" xlink:title="SquareGrid.populateGrid">
<polygon fill="white" stroke="black" points="148.5,-0.5 148.5,-19.5 283.5,-19.5 283.5,-0.5 148.5,-0.5"/>
<text text-anchor="middle" x="216" y="-7.5" font-family="Helvetica,sans-Serif" font-size="10.00">SquareGrid.populateGrid</text>
</a>
</g>
</g>
<!-- Node1&#45;&gt;Node2 -->
<g id="edge1" class="edge"><title>Node1&#45;&gt;Node2</title>
<path fill="none" stroke="midnightblue" d="M122.533,-10C131.065,-10 139.813,-10 148.362,-10"/>
<polygon fill="midnightblue" stroke="midnightblue" points="122.261,-6.5001 112.261,-10 122.261,-13.5001 122.261,-6.5001"/>
</g>
<!-- Node3 -->
<g id="node3" class="node"><title>Node3</title>
<g id="a_node3"><a xlink:href="../../dd/dc3/class_square_grid.html#a3ed2b155bb1c7b4546e94c52ccce7ef3" target="_top" xlink:title="SquareGrid.SquareGrid">
<polygon fill="white" stroke="black" points="320,-0.5 320,-19.5 448,-19.5 448,-0.5 320,-0.5"/>
<text text-anchor="middle" x="384" y="-7.5" font-family="Helvetica,sans-Serif" font-size="10.00">SquareGrid.SquareGrid</text>
</a>
</g>
</g>
<!-- Node2&#45;&gt;Node3 -->
<g id="edge2" class="edge"><title>Node2&#45;&gt;Node3</title>
<path fill="none" stroke="midnightblue" d="M293.774,-10C302.529,-10 311.378,-10 319.926,-10"/>
<polygon fill="midnightblue" stroke="midnightblue" points="293.562,-6.5001 283.562,-10 293.562,-13.5001 293.562,-6.5001"/>
</g>
</g>
</svg>
