<?xml version="1.0" encoding="UTF-8" standalone="no"?>
<!DOCTYPE svg PUBLIC "-//W3C//DTD SVG 1.1//EN"
 "http://www.w3.org/Graphics/SVG/1.1/DTD/svg11.dtd">
<!-- Generated by graphviz version 2.36.0 (20140111.2315)
 -->
<!-- Title: SquareGrid.populateGrid Pages: 1 -->
<svg width="406pt" height="66pt"
 viewBox="0.00 0.00 406.00 66.00" xmlns="http://www.w3.org/2000/svg" xmlns:xlink="http://www.w3.org/1999/xlink">
<g id="graph0" class="graph" transform="scale(1 1) rotate(0) translate(4 62)">
<title>SquareGrid.populateGrid</title>
<polygon fill="white" stroke="none" points="-4,4 -4,-62 402,-62 402,4 -4,4"/>
<!-- Node1 -->
<g id="node1" class="node"><title>Node1</title>
<polygon fill="#bfbfbf" stroke="black" points="0.5,-19.5 0.5,-38.5 135.5,-38.5 135.5,-19.5 0.5,-19.5"/>
<text text-anchor="middle" x="68" y="-26.5" font-family="Helvetica,sans-Serif" font-size="10.00">SquareGrid.populateGrid</text>
</g>
<!-- Node2 -->
<g id="node2" class="node"><title>Node2</title>
<g id="a_node2"><a xlink:href="../../dd/dc3/class_square_grid.html#ace229c67480728fbc870dc95a3674aea" target="_top" xlink:title="SquareGrid.setBack">
<polygon fill="white" stroke="black" points="172,-38.5 172,-57.5 284,-57.5 284,-38.5 172,-38.5"/>
<text text-anchor="middle" x="228" y="-45.5" font-family="Helvetica,sans-Serif" font-size="10.00">SquareGrid.setBack</text>
</a>
</g>
</g>
<!-- Node1&#45;&gt;Node2 -->
<g id="edge1" class="edge"><title>Node1&#45;&gt;Node2</title>
<path fill="none" stroke="midnightblue" d="M135.548,-37.0026C144.156,-38.0377 152.966,-39.0972 161.555,-40.1301"/>
<polygon fill="midnightblue" stroke="midnightblue" points="161.166,-43.6083 171.512,-41.3274 162.002,-36.6584 161.166,-43.6083"/>
</g>
<!-- Node4 -->
<g id="node4" class="node"><title>Node4</title>
<g id="a_node4"><a xlink:href="../../dd/dc3/class_square_grid.html#a4eb02a5effd5b75f75a92314580a041c" target="_top" xlink:title="SquareGrid.setRed">
<polygon fill="white" stroke="black" points="175,-0.5 175,-19.5 281,-19.5 281,-0.5 175,-0.5"/>
<text text-anchor="middle" x="228" y="-7.5" font-family="Helvetica,sans-Serif" font-size="10.00">SquareGrid.setRed</text>
</a>
</g>
</g>
<!-- Node1&#45;&gt;Node4 -->
<g id="edge3" class="edge"><title>Node1&#45;&gt;Node4</title>
<path fill="none" stroke="midnightblue" d="M135.548,-20.9974C145.21,-19.8355 155.127,-18.643 164.701,-17.4917"/>
<polygon fill="midnightblue" stroke="midnightblue" points="165.416,-20.931 174.926,-16.262 164.58,-13.9811 165.416,-20.931"/>
</g>
<!-- Node3 -->
<g id="node3" class="node"><title>Node3</title>
<g id="a_node3"><a xlink:href="../../dd/d11/class_cell.html#a790b7140ab91d2b94677731a56b67b88" target="_top" xlink:title="Cell.getColor">
<polygon fill="white" stroke="black" points="320.5,-38.5 320.5,-57.5 397.5,-57.5 397.5,-38.5 320.5,-38.5"/>
<text text-anchor="middle" x="359" y="-45.5" font-family="Helvetica,sans-Serif" font-size="10.00">Cell.getColor</text>
</a>
</g>
</g>
<!-- Node2&#45;&gt;Node3 -->
<g id="edge2" class="edge"><title>Node2&#45;&gt;Node3</title>
<path fill="none" stroke="midnightblue" d="M284.082,-48C292.748,-48 301.645,-48 310.131,-48"/>
<polygon fill="midnightblue" stroke="midnightblue" points="310.234,-51.5001 320.234,-48 310.234,-44.5001 310.234,-51.5001"/>
</g>
</g>
</svg>
