<?xml version="1.0" encoding="UTF-8" standalone="no"?>
<!DOCTYPE svg PUBLIC "-//W3C//DTD SVG 1.1//EN"
 "http://www.w3.org/Graphics/SVG/1.1/DTD/svg11.dtd">
<!-- Generated by graphviz version 2.36.0 (20140111.2315)
 -->
<!-- Title: SquareGrid.SquareGrid Pages: 1 -->
<svg width="570pt" height="66pt"
 viewBox="0.00 0.00 570.00 66.00" xmlns="http://www.w3.org/2000/svg" xmlns:xlink="http://www.w3.org/1999/xlink">
<g id="graph0" class="graph" transform="scale(1 1) rotate(0) translate(4 62)">
<title>SquareGrid.SquareGrid</title>
<polygon fill="white" stroke="none" points="-4,4 -4,-62 566,-62 566,4 -4,4"/>
<!-- Node1 -->
<g id="node1" class="node"><title>Node1</title>
<polygon fill="#bfbfbf" stroke="black" points="0,-19.5 0,-38.5 128,-38.5 128,-19.5 0,-19.5"/>
<text text-anchor="middle" x="64" y="-26.5" font-family="Helvetica,sans-Serif" font-size="10.00">SquareGrid.SquareGrid</text>
</g>
<!-- Node2 -->
<g id="node2" class="node"><title>Node2</title>
<g id="a_node2"><a xlink:href="../../dd/dc3/class_square_grid.html#af2e2d0f6db19d2c7dc8e4dc7e0602389" target="_top" xlink:title="SquareGrid.populateGrid">
<polygon fill="white" stroke="black" points="164.5,-19.5 164.5,-38.5 299.5,-38.5 299.5,-19.5 164.5,-19.5"/>
<text text-anchor="middle" x="232" y="-26.5" font-family="Helvetica,sans-Serif" font-size="10.00">SquareGrid.populateGrid</text>
</a>
</g>
</g>
<!-- Node1&#45;&gt;Node2 -->
<g id="edge1" class="edge"><title>Node1&#45;&gt;Node2</title>
<path fill="none" stroke="midnightblue" d="M128.231,-29C136.726,-29 145.515,-29 154.212,-29"/>
<polygon fill="midnightblue" stroke="midnightblue" points="154.357,-32.5001 164.357,-29 154.357,-25.5001 154.357,-32.5001"/>
</g>
<!-- Node3 -->
<g id="node3" class="node"><title>Node3</title>
<g id="a_node3"><a xlink:href="../../dd/dc3/class_square_grid.html#a4eb02a5effd5b75f75a92314580a041c" target="_top" xlink:title="SquareGrid.setRed">
<polygon fill="white" stroke="black" points="339,-38.5 339,-57.5 445,-57.5 445,-38.5 339,-38.5"/>
<text text-anchor="middle" x="392" y="-45.5" font-family="Helvetica,sans-Serif" font-size="10.00">SquareGrid.setRed</text>
</a>
</g>
</g>
<!-- Node2&#45;&gt;Node3 -->
<g id="edge2" class="edge"><title>Node2&#45;&gt;Node3</title>
<path fill="none" stroke="midnightblue" d="M299.548,-37.0026C309.21,-38.1645 319.127,-39.357 328.701,-40.5083"/>
<polygon fill="midnightblue" stroke="midnightblue" points="328.58,-44.0189 338.926,-41.738 329.416,-37.069 328.58,-44.0189"/>
</g>
<!-- Node4 -->
<g id="node4" class="node"><title>Node4</title>
<g id="a_node4"><a xlink:href="../../dd/dc3/class_square_grid.html#ace229c67480728fbc870dc95a3674aea" target="_top" xlink:title="SquareGrid.setBack">
<polygon fill="white" stroke="black" points="336,-0.5 336,-19.5 448,-19.5 448,-0.5 336,-0.5"/>
<text text-anchor="middle" x="392" y="-7.5" font-family="Helvetica,sans-Serif" font-size="10.00">SquareGrid.setBack</text>
</a>
</g>
</g>
<!-- Node2&#45;&gt;Node4 -->
<g id="edge3" class="edge"><title>Node2&#45;&gt;Node4</title>
<path fill="none" stroke="midnightblue" d="M299.548,-20.9974C308.156,-19.9623 316.966,-18.9028 325.555,-17.8699"/>
<polygon fill="midnightblue" stroke="midnightblue" points="326.002,-21.3416 335.512,-16.6726 325.166,-14.3917 326.002,-21.3416"/>
</g>
<!-- Node5 -->
<g id="node5" class="node"><title>Node5</title>
<g id="a_node5"><a xlink:href="../../dd/d11/class_cell.html#a790b7140ab91d2b94677731a56b67b88" target="_top" xlink:title="Cell.getColor">
<polygon fill="white" stroke="black" points="484.5,-0.5 484.5,-19.5 561.5,-19.5 561.5,-0.5 484.5,-0.5"/>
<text text-anchor="middle" x="523" y="-7.5" font-family="Helvetica,sans-Serif" font-size="10.00">Cell.getColor</text>
</a>
</g>
</g>
<!-- Node4&#45;&gt;Node5 -->
<g id="edge4" class="edge"><title>Node4&#45;&gt;Node5</title>
<path fill="none" stroke="midnightblue" d="M448.082,-10C456.748,-10 465.645,-10 474.131,-10"/>
<polygon fill="midnightblue" stroke="midnightblue" points="474.234,-13.5001 484.234,-10 474.234,-6.5001 474.234,-13.5001"/>
</g>
</g>
</svg>
