<?xml version="1.0" encoding="UTF-8" standalone="no"?>
<!DOCTYPE svg PUBLIC "-//W3C//DTD SVG 1.1//EN"
 "http://www.w3.org/Graphics/SVG/1.1/DTD/svg11.dtd">
<!-- Generated by graphviz version 2.36.0 (20140111.2315)
 -->
<!-- Title: SquareGrid.setRed Pages: 1 -->
<svg width="450pt" height="28pt"
 viewBox="0.00 0.00 450.00 28.00" xmlns="http://www.w3.org/2000/svg" xmlns:xlink="http://www.w3.org/1999/xlink">
<g id="graph0" class="graph" transform="scale(1 1) rotate(0) translate(4 24)">
<title>SquareGrid.setRed</title>
<polygon fill="white" stroke="none" points="-4,4 -4,-24 446,-24 446,4 -4,4"/>
<!-- Node1 -->
<g id="node1" class="node"><title>Node1</title>
<polygon fill="#bfbfbf" stroke="black" points="0,-0.5 0,-19.5 106,-19.5 106,-0.5 0,-0.5"/>
<text text-anchor="middle" x="53" y="-7.5" font-family="Helvetica,sans-Serif" font-size="10.00">SquareGrid.setRed</text>
</g>
<!-- Node2 -->
<g id="node2" class="node"><title>Node2</title>
<g id="a_node2"><a xlink:href="../../dd/dc3/class_square_grid.html#af2e2d0f6db19d2c7dc8e4dc7e0602389" target="_top" xlink:title="SquareGrid.populateGrid">
<polygon fill="white" stroke="black" points="142.5,-0.5 142.5,-19.5 277.5,-19.5 277.5,-0.5 142.5,-0.5"/>
<text text-anchor="middle" x="210" y="-7.5" font-family="Helvetica,sans-Serif" font-size="10.00">SquareGrid.populateGrid</text>
</a>
</g>
</g>
<!-- Node1&#45;&gt;Node2 -->
<g id="edge1" class="edge"><title>Node1&#45;&gt;Node2</title>
<path fill="none" stroke="midnightblue" d="M116.297,-10C124.83,-10 133.62,-10 142.229,-10"/>
<polygon fill="midnightblue" stroke="midnightblue" points="116.044,-6.5001 106.044,-10 116.044,-13.5001 116.044,-6.5001"/>
</g>
<!-- Node3 -->
<g id="node3" class="node"><title>Node3</title>
<g id="a_node3"><a xlink:href="../../dd/dc3/class_square_grid.html#a3ed2b155bb1c7b4546e94c52ccce7ef3" target="_top" xlink:title="SquareGrid.SquareGrid">
<polygon fill="white" stroke="black" points="314,-0.5 314,-19.5 442,-19.5 442,-0.5 314,-0.5"/>
<text text-anchor="middle" x="378" y="-7.5" font-family="Helvetica,sans-Serif" font-size="10.00">SquareGrid.SquareGrid</text>
</a>
</g>
</g>
<!-- Node2&#45;&gt;Node3 -->
<g id="edge2" class="edge"><title>Node2&#45;&gt;Node3</title>
<path fill="none" stroke="midnightblue" d="M287.774,-10C296.529,-10 305.378,-10 313.926,-10"/>
<polygon fill="midnightblue" stroke="midnightblue" points="287.562,-6.5001 277.562,-10 287.562,-13.5001 287.562,-6.5001"/>
</g>
</g>
</svg>
