<?xml version="1.0" encoding="UTF-8" standalone="no"?>
<!DOCTYPE svg PUBLIC "-//W3C//DTD SVG 1.1//EN"
 "http://www.w3.org/Graphics/SVG/1.1/DTD/svg11.dtd">
<!-- Generated by graphviz version 2.36.0 (20140111.2315)
 -->
<!-- Title: GroundCell Pages: 1 -->
<svg width="126pt" height="84pt"
 viewBox="0.00 0.00 126.00 84.00" xmlns="http://www.w3.org/2000/svg" xmlns:xlink="http://www.w3.org/1999/xlink">
<g id="graph0" class="graph" transform="scale(1 1) rotate(0) translate(4 80)">
<title>GroundCell</title>
<polygon fill="white" stroke="none" points="-4,4 -4,-80 122,-80 122,4 -4,4"/>
<!-- Node1 -->
<g id="node1" class="node"><title>Node1</title>
<polygon fill="#bfbfbf" stroke="black" points="16.5,-0.5 16.5,-19.5 85.5,-19.5 85.5,-0.5 16.5,-0.5"/>
<text text-anchor="middle" x="51" y="-7.5" font-family="Helvetica,sans-Serif" font-size="10.00">GroundCell</text>
</g>
<!-- Node2 -->
<g id="node2" class="node"><title>Node2</title>
<g id="a_node2"><a xlink:href="../../dd/d11/class_cell.html" target="_top" xlink:title="Cell">
<polygon fill="white" stroke="black" points="0,-56.5 0,-75.5 34,-75.5 34,-56.5 0,-56.5"/>
<text text-anchor="middle" x="17" y="-63.5" font-family="Helvetica,sans-Serif" font-size="10.00">Cell</text>
</a>
</g>
</g>
<!-- Node2&#45;&gt;Node1 -->
<g id="edge1" class="edge"><title>Node2&#45;&gt;Node1</title>
<path fill="none" stroke="midnightblue" d="M27.9772,-47.5656C33.827,-38.2747 40.7695,-27.2484 45.4901,-19.7511"/>
<polygon fill="midnightblue" stroke="midnightblue" points="24.9808,-45.7558 22.6144,-56.083 30.9044,-49.4855 24.9808,-45.7558"/>
</g>
<!-- Node3 -->
<g id="node3" class="node"><title>Node3</title>
<g id="a_node3"><a xlink:href="../../dd/dbc/interface_updatable.html" target="_top" xlink:title="Updatable">
<polygon fill="white" stroke="black" points="52,-56.5 52,-75.5 118,-75.5 118,-56.5 52,-56.5"/>
<text text-anchor="middle" x="85" y="-63.5" font-family="Helvetica,sans-Serif" font-size="10.00">Updatable</text>
</a>
</g>
</g>
<!-- Node3&#45;&gt;Node1 -->
<g id="edge2" class="edge"><title>Node3&#45;&gt;Node1</title>
<path fill="none" stroke="midnightblue" d="M74.0228,-47.5656C68.173,-38.2747 61.2305,-27.2484 56.5099,-19.7511"/>
<polygon fill="midnightblue" stroke="midnightblue" points="71.0956,-49.4855 79.3856,-56.083 77.0192,-45.7558 71.0956,-49.4855"/>
</g>
</g>
</svg>
