<?xml version="1.0" encoding="UTF-8" standalone="no"?>
<!DOCTYPE svg PUBLIC "-//W3C//DTD SVG 1.1//EN"
 "http://www.w3.org/Graphics/SVG/1.1/DTD/svg11.dtd">
<!-- Generated by graphviz version 2.36.0 (20140111.2315)
 -->
<!-- Title: Cell.toString Pages: 1 -->
<svg width="1426pt" height="410pt"
 viewBox="0.00 0.00 1426.00 410.00" xmlns="http://www.w3.org/2000/svg" xmlns:xlink="http://www.w3.org/1999/xlink">
<g id="graph0" class="graph" transform="scale(1 1) rotate(0) translate(4 406)">
<title>Cell.toString</title>
<polygon fill="white" stroke="none" points="-4,4 -4,-406 1422,-406 1422,4 -4,4"/>
<!-- Node1 -->
<g id="node1" class="node"><title>Node1</title>
<polygon fill="#bfbfbf" stroke="black" points="0.5,-202.5 0.5,-221.5 75.5,-221.5 75.5,-202.5 0.5,-202.5"/>
<text text-anchor="middle" x="38" y="-209.5" font-family="Helvetica,sans-Serif" font-size="10.00">Cell.toString</text>
</g>
<!-- Node2 -->
<g id="node2" class="node"><title>Node2</title>
<g id="a_node2"><a xlink:href="../../de/d92/class_complex_controller.html#ae3e2ab6b8c7d3747f9aaa8f8d834094b" target="_top" xlink:title="ComplexController.coordinates\lTriage">
<polygon fill="white" stroke="black" points="112,-372 112,-402 276,-402 276,-372 112,-372"/>
<text text-anchor="start" x="120" y="-390" font-family="Helvetica,sans-Serif" font-size="10.00">ComplexController.coordinates</text>
<text text-anchor="middle" x="194" y="-379" font-family="Helvetica,sans-Serif" font-size="10.00">Triage</text>
</a>
</g>
</g>
<!-- Node1&#45;&gt;Node2 -->
<g id="edge1" class="edge"><title>Node1&#45;&gt;Node2</title>
<path fill="none" stroke="midnightblue" d="M43.2072,-231.617C51.0828,-263.602 71.0856,-326.931 112,-362 116.47,-365.831 121.52,-369.075 126.861,-371.822"/>
<polygon fill="midnightblue" stroke="midnightblue" points="46.5785,-230.661 40.9128,-221.708 39.759,-232.24 46.5785,-230.661"/>
</g>
<!-- Node4 -->
<g id="node4" class="node"><title>Node4</title>
<g id="a_node4"><a xlink:href="../../dc/da7/class_wator_controller.html#a7b71e69d99808906a02cc6689d5e8c15" target="_top" xlink:title="WatorController.getNeighbors">
<polygon fill="white" stroke="black" points="115.5,-333.5 115.5,-352.5 272.5,-352.5 272.5,-333.5 115.5,-333.5"/>
<text text-anchor="middle" x="194" y="-340.5" font-family="Helvetica,sans-Serif" font-size="10.00">WatorController.getNeighbors</text>
</a>
</g>
</g>
<!-- Node1&#45;&gt;Node4 -->
<g id="edge3" class="edge"><title>Node1&#45;&gt;Node4</title>
<path fill="none" stroke="midnightblue" d="M47.0651,-231.076C58.1899,-255.107 80.503,-296.032 112,-319 120.651,-325.308 130.955,-329.971 141.265,-333.413"/>
<polygon fill="midnightblue" stroke="midnightblue" points="50.127,-229.347 42.8678,-221.63 43.7301,-232.19 50.127,-229.347"/>
</g>
<!-- Node6 -->
<g id="node6" class="node"><title>Node6</title>
<g id="a_node6"><a xlink:href="../../dc/da7/class_wator_controller.html#ae00870133a4b1cfbfaeecf11ffd7b650" target="_top" xlink:title="WatorController.manipulateCell">
<polygon fill="white" stroke="black" points="510,-314.5 510,-333.5 674,-333.5 674,-314.5 510,-314.5"/>
<text text-anchor="middle" x="592" y="-321.5" font-family="Helvetica,sans-Serif" font-size="10.00">WatorController.manipulateCell</text>
</a>
</g>
</g>
<!-- Node1&#45;&gt;Node6 -->
<g id="edge12" class="edge"><title>Node1&#45;&gt;Node6</title>
<path fill="none" stroke="midnightblue" d="M51.0951,-229.987C63.9386,-247.424 85.9581,-272.952 112,-285 180.625,-316.749 392.186,-323.091 509.884,-324.087"/>
<polygon fill="midnightblue" stroke="midnightblue" points="53.8774,-227.86 45.2425,-221.721 48.1644,-231.905 53.8774,-227.86"/>
</g>
<!-- Node8 -->
<g id="node8" class="node"><title>Node8</title>
<g id="a_node8"><a xlink:href="../../d5/d1b/class_fire_controller.html#a19553b5521d167b6133d9a8f01c59742" target="_top" xlink:title="FireController.getNeighbors\lState">
<polygon fill="white" stroke="black" points="121,-246 121,-276 267,-276 267,-246 121,-246"/>
<text text-anchor="start" x="129" y="-264" font-family="Helvetica,sans-Serif" font-size="10.00">FireController.getNeighbors</text>
<text text-anchor="middle" x="194" y="-253" font-family="Helvetica,sans-Serif" font-size="10.00">State</text>
</a>
</g>
</g>
<!-- Node1&#45;&gt;Node8 -->
<g id="edge7" class="edge"><title>Node1&#45;&gt;Node8</title>
<path fill="none" stroke="midnightblue" d="M77.2434,-224.719C88.4321,-228.401 100.694,-232.397 112,-236 122.236,-239.262 133.221,-242.697 143.695,-245.94"/>
<polygon fill="midnightblue" stroke="midnightblue" points="78.3312,-221.392 67.738,-221.582 76.1376,-228.04 78.3312,-221.392"/>
</g>
<!-- Node9 -->
<g id="node9" class="node"><title>Node9</title>
<g id="a_node9"><a xlink:href="../../d9/da2/class_life_controller.html#ab7dc29f2a1f41d800aa9e2eac47d6944" target="_top" xlink:title="LifeController.getNeighbors\lState">
<polygon fill="white" stroke="black" points="121,-197 121,-227 267,-227 267,-197 121,-197"/>
<text text-anchor="start" x="129" y="-215" font-family="Helvetica,sans-Serif" font-size="10.00">LifeController.getNeighbors</text>
<text text-anchor="middle" x="194" y="-204" font-family="Helvetica,sans-Serif" font-size="10.00">State</text>
</a>
</g>
</g>
<!-- Node1&#45;&gt;Node9 -->
<g id="edge8" class="edge"><title>Node1&#45;&gt;Node9</title>
<path fill="none" stroke="midnightblue" d="M86.0808,-212C97.0581,-212 108.996,-212 120.784,-212"/>
<polygon fill="midnightblue" stroke="midnightblue" points="85.8869,-208.5 75.8868,-212 85.8868,-215.5 85.8869,-208.5"/>
</g>
<!-- Node10 -->
<g id="node10" class="node"><title>Node10</title>
<g id="a_node10"><a xlink:href="../../db/df8/class_segregation_controller.html#a0c6f263ac0f413180279a835e66b6d03" target="_top" xlink:title="SegregationController.get\lNeighborsState">
<polygon fill="white" stroke="black" points="124,-148 124,-178 264,-178 264,-148 124,-148"/>
<text text-anchor="start" x="132" y="-166" font-family="Helvetica,sans-Serif" font-size="10.00">SegregationController.get</text>
<text text-anchor="middle" x="194" y="-155" font-family="Helvetica,sans-Serif" font-size="10.00">NeighborsState</text>
</a>
</g>
</g>
<!-- Node1&#45;&gt;Node10 -->
<g id="edge9" class="edge"><title>Node1&#45;&gt;Node10</title>
<path fill="none" stroke="midnightblue" d="M75.733,-199.085C87.3042,-195.107 100.156,-190.781 112,-187 121.361,-184.012 131.371,-180.944 141.048,-178.042"/>
<polygon fill="midnightblue" stroke="midnightblue" points="74.2574,-195.892 65.9513,-202.469 76.5461,-202.507 74.2574,-195.892"/>
</g>
<!-- Node11 -->
<g id="node11" class="node"><title>Node11</title>
<g id="a_node11"><a xlink:href="../../db/df8/class_segregation_controller.html#af3efcd7e96159364d9427fd7f4988bbe" target="_top" xlink:title="SegregationController.make\lEmptyList">
<polygon fill="white" stroke="black" points="118.5,-99 118.5,-129 269.5,-129 269.5,-99 118.5,-99"/>
<text text-anchor="start" x="126.5" y="-117" font-family="Helvetica,sans-Serif" font-size="10.00">SegregationController.make</text>
<text text-anchor="middle" x="194" y="-106" font-family="Helvetica,sans-Serif" font-size="10.00">EmptyList</text>
</a>
</g>
</g>
<!-- Node1&#45;&gt;Node11 -->
<g id="edge10" class="edge"><title>Node1&#45;&gt;Node11</title>
<path fill="none" stroke="midnightblue" d="M52.0534,-194.34C65.3609,-177.537 87.4853,-152.699 112,-138 117.66,-134.606 123.834,-131.664 130.165,-129.119"/>
<polygon fill="midnightblue" stroke="midnightblue" points="49.2544,-192.239 45.9321,-202.299 54.8031,-196.506 49.2544,-192.239"/>
</g>
<!-- Node13 -->
<g id="node13" class="node"><title>Node13</title>
<g id="a_node13"><a xlink:href="../../df/df8/class_cell_society_view.html#a7ca77bdfdef97e9be9c9941c2f4d3513" target="_top" xlink:title="CellSocietyView.updateChart\lLines">
<polygon fill="white" stroke="black" points="117.5,-11 117.5,-41 270.5,-41 270.5,-11 117.5,-11"/>
<text text-anchor="start" x="125.5" y="-29" font-family="Helvetica,sans-Serif" font-size="10.00">CellSocietyView.updateChart</text>
<text text-anchor="middle" x="194" y="-18" font-family="Helvetica,sans-Serif" font-size="10.00">Lines</text>
</a>
</g>
</g>
<!-- Node1&#45;&gt;Node13 -->
<g id="edge13" class="edge"><title>Node1&#45;&gt;Node13</title>
<path fill="none" stroke="midnightblue" d="M42.4765,-192.392C49.4954,-158.585 68.5528,-89.2783 112,-51 116.417,-47.1084 121.431,-43.8226 126.748,-41.0483"/>
<polygon fill="midnightblue" stroke="midnightblue" points="39.0035,-191.917 40.5398,-202.4 45.876,-193.247 39.0035,-191.917"/>
</g>
<!-- Node23 -->
<g id="node23" class="node"><title>Node23</title>
<g id="a_node23"><a xlink:href="../../d3/dff/class_cell_society.html#a64ebaee33d25e0e730024e67d5582c63" target="_top" xlink:title="CellSociety.updateColors">
<polygon fill="white" stroke="black" points="127,-60.5 127,-79.5 261,-79.5 261,-60.5 127,-60.5"/>
<text text-anchor="middle" x="194" y="-67.5" font-family="Helvetica,sans-Serif" font-size="10.00">CellSociety.updateColors</text>
</a>
</g>
</g>
<!-- Node1&#45;&gt;Node23 -->
<g id="edge27" class="edge"><title>Node1&#45;&gt;Node23</title>
<path fill="none" stroke="midnightblue" d="M45.0778,-192.542C54.6976,-165.066 76.1149,-115.318 112,-89 117.241,-85.156 123.143,-82.0763 129.311,-79.611"/>
<polygon fill="midnightblue" stroke="midnightblue" points="41.7006,-191.607 41.8644,-202.2 48.3426,-193.817 41.7006,-191.607"/>
</g>
<!-- Node3 -->
<g id="node3" class="node"><title>Node3</title>
<g id="a_node3"><a xlink:href="../../de/d92/class_complex_controller.html#a73007e4decc009d2913c7a1d56287e99" target="_top" xlink:title="ComplexController.runOneSim">
<polygon fill="white" stroke="black" points="312.5,-377.5 312.5,-396.5 473.5,-396.5 473.5,-377.5 312.5,-377.5"/>
<text text-anchor="middle" x="393" y="-384.5" font-family="Helvetica,sans-Serif" font-size="10.00">ComplexController.runOneSim</text>
</a>
</g>
</g>
<!-- Node2&#45;&gt;Node3 -->
<g id="edge2" class="edge"><title>Node2&#45;&gt;Node3</title>
<path fill="none" stroke="midnightblue" d="M286.346,-387C294.977,-387 303.681,-387 312.192,-387"/>
<polygon fill="midnightblue" stroke="midnightblue" points="286.265,-383.5 276.265,-387 286.265,-390.5 286.265,-383.5"/>
</g>
<!-- Node5 -->
<g id="node5" class="node"><title>Node5</title>
<g id="a_node5"><a xlink:href="../../dc/da7/class_wator_controller.html#a14e97f15d6937c3667feb85a2b5d896e" target="_top" xlink:title="WatorController.makeEligible">
<polygon fill="white" stroke="black" points="317,-333.5 317,-352.5 469,-352.5 469,-333.5 317,-333.5"/>
<text text-anchor="middle" x="393" y="-340.5" font-family="Helvetica,sans-Serif" font-size="10.00">WatorController.makeEligible</text>
</a>
</g>
</g>
<!-- Node4&#45;&gt;Node5 -->
<g id="edge4" class="edge"><title>Node4&#45;&gt;Node5</title>
<path fill="none" stroke="midnightblue" d="M282.885,-343C294.186,-343 305.676,-343 316.749,-343"/>
<polygon fill="midnightblue" stroke="midnightblue" points="282.577,-339.5 272.577,-343 282.577,-346.5 282.577,-339.5"/>
</g>
<!-- Node5&#45;&gt;Node6 -->
<g id="edge5" class="edge"><title>Node5&#45;&gt;Node6</title>
<path fill="none" stroke="midnightblue" d="M479.168,-334.786C489.379,-333.801 499.784,-332.797 509.934,-331.819"/>
<polygon fill="midnightblue" stroke="midnightblue" points="478.657,-331.319 469.039,-335.763 479.329,-338.286 478.657,-331.319"/>
</g>
<!-- Node7 -->
<g id="node7" class="node"><title>Node7</title>
<g id="a_node7"><a xlink:href="../../dc/da7/class_wator_controller.html#aff090131b0a6ebc6dc7a095a3dc2ea36" target="_top" xlink:title="WatorController.cellUpdate">
<polygon fill="white" stroke="black" points="713.5,-314.5 713.5,-333.5 856.5,-333.5 856.5,-314.5 713.5,-314.5"/>
<text text-anchor="middle" x="785" y="-321.5" font-family="Helvetica,sans-Serif" font-size="10.00">WatorController.cellUpdate</text>
</a>
</g>
</g>
<!-- Node6&#45;&gt;Node7 -->
<g id="edge6" class="edge"><title>Node6&#45;&gt;Node7</title>
<path fill="none" stroke="midnightblue" d="M684.203,-324C694.03,-324 703.918,-324 713.449,-324"/>
<polygon fill="midnightblue" stroke="midnightblue" points="684.001,-320.5 674.001,-324 684.001,-327.5 684.001,-320.5"/>
</g>
<!-- Node12 -->
<g id="node12" class="node"><title>Node12</title>
<g id="a_node12"><a xlink:href="../../db/df8/class_segregation_controller.html#a30b50c98765e3b785eb4a7f853bfb407" target="_top" xlink:title="SegregationController.run\lOneSim">
<polygon fill="white" stroke="black" points="323,-99 323,-129 463,-129 463,-99 323,-99"/>
<text text-anchor="start" x="331" y="-117" font-family="Helvetica,sans-Serif" font-size="10.00">SegregationController.run</text>
<text text-anchor="middle" x="393" y="-106" font-family="Helvetica,sans-Serif" font-size="10.00">OneSim</text>
</a>
</g>
</g>
<!-- Node11&#45;&gt;Node12 -->
<g id="edge11" class="edge"><title>Node11&#45;&gt;Node12</title>
<path fill="none" stroke="midnightblue" d="M280.066,-114C294.338,-114 308.994,-114 322.805,-114"/>
<polygon fill="midnightblue" stroke="midnightblue" points="279.758,-110.5 269.758,-114 279.758,-117.5 279.758,-110.5"/>
</g>
<!-- Node14 -->
<g id="node14" class="node"><title>Node14</title>
<g id="a_node14"><a xlink:href="../../d3/dff/class_cell_society.html#a0ff19c30a1cc433d8ea8444f6a5617f1" target="_top" xlink:title="CellSociety.updateGrid">
<polygon fill="white" stroke="black" points="331,-60.5 331,-79.5 455,-79.5 455,-60.5 331,-60.5"/>
<text text-anchor="middle" x="393" y="-67.5" font-family="Helvetica,sans-Serif" font-size="10.00">CellSociety.updateGrid</text>
</a>
</g>
</g>
<!-- Node13&#45;&gt;Node14 -->
<g id="edge14" class="edge"><title>Node13&#45;&gt;Node14</title>
<path fill="none" stroke="midnightblue" d="M272.193,-43.2412C298.465,-49.1089 326.86,-55.451 349.41,-60.4876"/>
<polygon fill="midnightblue" stroke="midnightblue" points="272.768,-39.7833 262.245,-41.0192 271.242,-46.6149 272.768,-39.7833"/>
</g>
<!-- Node19 -->
<g id="node19" class="node"><title>Node19</title>
<g id="a_node19"><a xlink:href="../../d3/dff/class_cell_society.html#af9f22af39a97a58b26126020ca6c8844" target="_top" xlink:title="CellSociety.readNewXML">
<polygon fill="white" stroke="black" points="914,-0.5 914,-19.5 1046,-19.5 1046,-0.5 914,-0.5"/>
<text text-anchor="middle" x="980" y="-7.5" font-family="Helvetica,sans-Serif" font-size="10.00">CellSociety.readNewXML</text>
</a>
</g>
</g>
<!-- Node13&#45;&gt;Node19 -->
<g id="edge26" class="edge"><title>Node13&#45;&gt;Node19</title>
<path fill="none" stroke="midnightblue" d="M280.679,-24.2514C438.705,-21.0264 772.772,-14.2087 913.894,-11.3287"/>
<polygon fill="midnightblue" stroke="midnightblue" points="280.456,-20.7552 270.529,-24.4586 280.598,-27.7537 280.456,-20.7552"/>
</g>
<!-- Node15 -->
<g id="node15" class="node"><title>Node15</title>
<g id="a_node15"><a xlink:href="../../d3/dff/class_cell_society.html#a656ff46d1459fb7f86b42e3c542506ee" target="_top" xlink:title="CellSociety.configureListeners">
<polygon fill="white" stroke="black" points="1100,-57.5 1100,-76.5 1258,-76.5 1258,-57.5 1100,-57.5"/>
<text text-anchor="middle" x="1179" y="-64.5" font-family="Helvetica,sans-Serif" font-size="10.00">CellSociety.configureListeners</text>
</a>
</g>
</g>
<!-- Node14&#45;&gt;Node15 -->
<g id="edge15" class="edge"><title>Node14&#45;&gt;Node15</title>
<path fill="none" stroke="midnightblue" d="M452.917,-81.4099C570.127,-102.279 840.51,-141.267 1064,-105 1097.15,-99.6198 1133.7,-85.977 1156.25,-76.5924"/>
<polygon fill="midnightblue" stroke="midnightblue" points="453.191,-77.9029 442.728,-79.5724 451.948,-84.7918 453.191,-77.9029"/>
</g>
<!-- Node17 -->
<g id="node17" class="node"><title>Node17</title>
<g id="a_node17"><a xlink:href="../../d3/dff/class_cell_society.html#abf13a64ee79f2cb063447b499c695c58" target="_top" xlink:title="CellSociety.start">
<polygon fill="white" stroke="black" points="545.5,-60.5 545.5,-79.5 638.5,-79.5 638.5,-60.5 545.5,-60.5"/>
<text text-anchor="middle" x="592" y="-67.5" font-family="Helvetica,sans-Serif" font-size="10.00">CellSociety.start</text>
</a>
</g>
</g>
<!-- Node14&#45;&gt;Node17 -->
<g id="edge17" class="edge"><title>Node14&#45;&gt;Node17</title>
<path fill="none" stroke="midnightblue" d="M465.334,-70C492.055,-70 521.671,-70 545.437,-70"/>
<polygon fill="midnightblue" stroke="midnightblue" points="465.252,-66.5001 455.252,-70 465.252,-73.5001 465.252,-66.5001"/>
</g>
<!-- Node16 -->
<g id="node16" class="node"><title>Node16</title>
<g id="a_node16"><a xlink:href="../../d3/dff/class_cell_society.html#ac5e08680a3da358d402461bc25aa1727" target="_top" xlink:title="CellSociety.CellSociety">
<polygon fill="white" stroke="black" points="1294.5,-57.5 1294.5,-76.5 1417.5,-76.5 1417.5,-57.5 1294.5,-57.5"/>
<text text-anchor="middle" x="1356" y="-64.5" font-family="Helvetica,sans-Serif" font-size="10.00">CellSociety.CellSociety</text>
</a>
</g>
</g>
<!-- Node15&#45;&gt;Node16 -->
<g id="edge16" class="edge"><title>Node15&#45;&gt;Node16</title>
<path fill="none" stroke="midnightblue" d="M1268.09,-67C1277.01,-67 1285.92,-67 1294.45,-67"/>
<polygon fill="midnightblue" stroke="midnightblue" points="1268.03,-63.5001 1258.03,-67 1268.03,-70.5001 1268.03,-63.5001"/>
</g>
<!-- Node18 -->
<g id="node18" class="node"><title>Node18</title>
<g id="a_node18"><a xlink:href="../../d3/dff/class_cell_society.html#ab9e56a2a70e210e021b51e898508329b" target="_top" xlink:title="CellSociety.setupAnimation">
<polygon fill="white" stroke="black" points="712,-38.5 712,-57.5 858,-57.5 858,-38.5 712,-38.5"/>
<text text-anchor="middle" x="785" y="-45.5" font-family="Helvetica,sans-Serif" font-size="10.00">CellSociety.setupAnimation</text>
</a>
</g>
</g>
<!-- Node17&#45;&gt;Node18 -->
<g id="edge18" class="edge"><title>Node17&#45;&gt;Node18</title>
<path fill="none" stroke="midnightblue" d="M648.776,-63.5755C668.472,-61.3069 690.911,-58.7223 711.772,-56.3195"/>
<polygon fill="midnightblue" stroke="midnightblue" points="648.283,-60.1091 638.749,-64.7305 649.084,-67.0631 648.283,-60.1091"/>
</g>
<!-- Node20 -->
<g id="node20" class="node"><title>Node20</title>
<g id="a_node20"><a xlink:href="../../d3/dff/class_cell_society.html#adc5feda3db5472cea4e092d463681033" target="_top" xlink:title="CellSociety.reframeTimeline">
<polygon fill="white" stroke="black" points="710.5,-76.5 710.5,-95.5 859.5,-95.5 859.5,-76.5 710.5,-76.5"/>
<text text-anchor="middle" x="785" y="-83.5" font-family="Helvetica,sans-Serif" font-size="10.00">CellSociety.reframeTimeline</text>
</a>
</g>
</g>
<!-- Node17&#45;&gt;Node20 -->
<g id="edge21" class="edge"><title>Node17&#45;&gt;Node20</title>
<path fill="none" stroke="midnightblue" d="M648.833,-74.6771C668.048,-76.2867 689.868,-78.1146 710.285,-79.8249"/>
<polygon fill="midnightblue" stroke="midnightblue" points="649.007,-71.1795 638.749,-73.8324 648.422,-78.155 649.007,-71.1795"/>
</g>
<!-- Node18&#45;&gt;Node19 -->
<g id="edge19" class="edge"><title>Node18&#45;&gt;Node19</title>
<path fill="none" stroke="midnightblue" d="M844.602,-36.4619C872.129,-31.042 904.548,-24.659 930.648,-19.5201"/>
<polygon fill="midnightblue" stroke="midnightblue" points="843.838,-33.045 834.702,-38.411 845.19,-39.9132 843.838,-33.045"/>
</g>
<!-- Node19&#45;&gt;Node15 -->
<g id="edge20" class="edge"><title>Node19&#45;&gt;Node15</title>
<path fill="none" stroke="midnightblue" d="M1036.36,-21.8882C1045.63,-24.1025 1055.12,-26.5086 1064,-29 1094.33,-37.5056 1128.54,-49.198 1151.51,-57.3586"/>
<polygon fill="midnightblue" stroke="midnightblue" points="1036.97,-18.4351 1026.43,-19.5659 1035.37,-25.2512 1036.97,-18.4351"/>
</g>
<!-- Node21 -->
<g id="node21" class="node"><title>Node21</title>
<g id="a_node21"><a xlink:href="../../d3/dff/class_cell_society.html#a8250bfacdaf51dabf6b9d1cafc0ce9b2" target="_top" xlink:title="CellSociety.increaseFrameRate">
<polygon fill="white" stroke="black" points="898.5,-76.5 898.5,-95.5 1061.5,-95.5 1061.5,-76.5 898.5,-76.5"/>
<text text-anchor="middle" x="980" y="-83.5" font-family="Helvetica,sans-Serif" font-size="10.00">CellSociety.increaseFrameRate</text>
</a>
</g>
</g>
<!-- Node20&#45;&gt;Node21 -->
<g id="edge22" class="edge"><title>Node20&#45;&gt;Node21</title>
<path fill="none" stroke="midnightblue" d="M869.719,-86C879.198,-86 888.845,-86 898.285,-86"/>
<polygon fill="midnightblue" stroke="midnightblue" points="869.516,-82.5001 859.516,-86 869.516,-89.5001 869.516,-82.5001"/>
</g>
<!-- Node22 -->
<g id="node22" class="node"><title>Node22</title>
<g id="a_node22"><a xlink:href="../../d3/dff/class_cell_society.html#a045267ba1843ca4a47891d7be73c2ac1" target="_top" xlink:title="CellSociety.decreaseFrameRate">
<polygon fill="white" stroke="black" points="896.5,-38.5 896.5,-57.5 1063.5,-57.5 1063.5,-38.5 896.5,-38.5"/>
<text text-anchor="middle" x="980" y="-45.5" font-family="Helvetica,sans-Serif" font-size="10.00">CellSociety.decreaseFrameRate</text>
</a>
</g>
</g>
<!-- Node20&#45;&gt;Node22 -->
<g id="edge24" class="edge"><title>Node20&#45;&gt;Node22</title>
<path fill="none" stroke="midnightblue" d="M844.602,-74.4619C872.129,-69.042 904.548,-62.659 930.648,-57.5201"/>
<polygon fill="midnightblue" stroke="midnightblue" points="843.838,-71.045 834.702,-76.411 845.19,-77.9132 843.838,-71.045"/>
</g>
<!-- Node21&#45;&gt;Node15 -->
<g id="edge23" class="edge"><title>Node21&#45;&gt;Node15</title>
<path fill="none" stroke="midnightblue" d="M1071.84,-77.2386C1081.24,-76.3322 1090.73,-75.4166 1099.97,-74.5254"/>
<polygon fill="midnightblue" stroke="midnightblue" points="1071.31,-73.7732 1061.7,-78.2172 1071.99,-80.7409 1071.31,-73.7732"/>
</g>
<!-- Node22&#45;&gt;Node15 -->
<g id="edge25" class="edge"><title>Node22&#45;&gt;Node15</title>
<path fill="none" stroke="midnightblue" d="M1073.88,-56.9577C1082.59,-57.7983 1091.37,-58.6446 1099.93,-59.4701"/>
<polygon fill="midnightblue" stroke="midnightblue" points="1073.98,-53.4514 1063.69,-55.9751 1073.31,-60.4191 1073.98,-53.4514"/>
</g>
<!-- Node23&#45;&gt;Node14 -->
<g id="edge28" class="edge"><title>Node23&#45;&gt;Node14</title>
<path fill="none" stroke="midnightblue" d="M271.3,-70C290.969,-70 311.884,-70 330.682,-70"/>
<polygon fill="midnightblue" stroke="midnightblue" points="271.146,-66.5001 261.146,-70 271.146,-73.5001 271.146,-66.5001"/>
</g>
</g>
</svg>
