<?xml version="1.0" encoding="UTF-8" standalone="no"?>
<!DOCTYPE svg PUBLIC "-//W3C//DTD SVG 1.1//EN"
 "http://www.w3.org/Graphics/SVG/1.1/DTD/svg11.dtd">
<!-- Generated by graphviz version 2.36.0 (20140111.2315)
 -->
<!-- Title: Cell.getShape Pages: 1 -->
<svg width="424pt" height="66pt"
 viewBox="0.00 0.00 424.00 66.00" xmlns="http://www.w3.org/2000/svg" xmlns:xlink="http://www.w3.org/1999/xlink">
<g id="graph0" class="graph" transform="scale(1 1) rotate(0) translate(4 62)">
<title>Cell.getShape</title>
<polygon fill="white" stroke="none" points="-4,4 -4,-62 420,-62 420,4 -4,4"/>
<!-- Node1 -->
<g id="node1" class="node"><title>Node1</title>
<polygon fill="#bfbfbf" stroke="black" points="0.5,-19.5 0.5,-38.5 83.5,-38.5 83.5,-19.5 0.5,-19.5"/>
<text text-anchor="middle" x="42" y="-26.5" font-family="Helvetica,sans-Serif" font-size="10.00">Cell.getShape</text>
</g>
<!-- Node2 -->
<g id="node2" class="node"><title>Node2</title>
<g id="a_node2"><a xlink:href="../../d2/ddc/class_fish_cell.html#ac13e6b6ecb127f4691535618d6741170" target="_top" xlink:title="FishCell.FishCell">
<polygon fill="white" stroke="black" points="130,-38.5 130,-57.5 220,-57.5 220,-38.5 130,-38.5"/>
<text text-anchor="middle" x="175" y="-45.5" font-family="Helvetica,sans-Serif" font-size="10.00">FishCell.FishCell</text>
</a>
</g>
</g>
<!-- Node1&#45;&gt;Node2 -->
<g id="edge1" class="edge"><title>Node1&#45;&gt;Node2</title>
<path fill="none" stroke="midnightblue" d="M93.8889,-36.3808C105.69,-38.0925 118.158,-39.9008 129.652,-41.5679"/>
<polygon fill="midnightblue" stroke="midnightblue" points="94.13,-32.8793 83.7311,-34.9076 93.1252,-39.8068 94.13,-32.8793"/>
</g>
<!-- Node4 -->
<g id="node4" class="node"><title>Node4</title>
<g id="a_node4"><a xlink:href="../../d1/dd5/class_shark_cell.html#afd3aef1b16f3f512834ac1ad776f5647" target="_top" xlink:title="SharkCell.SharkCell">
<polygon fill="white" stroke="black" points="120,-0.5 120,-19.5 230,-19.5 230,-0.5 120,-0.5"/>
<text text-anchor="middle" x="175" y="-7.5" font-family="Helvetica,sans-Serif" font-size="10.00">SharkCell.SharkCell</text>
</a>
</g>
</g>
<!-- Node1&#45;&gt;Node4 -->
<g id="edge3" class="edge"><title>Node1&#45;&gt;Node4</title>
<path fill="none" stroke="midnightblue" d="M93.8852,-21.6197C102.384,-20.387 111.229,-19.1042 119.807,-17.86"/>
<polygon fill="midnightblue" stroke="midnightblue" points="93.1252,-18.1932 83.7311,-23.0924 94.13,-25.1207 93.1252,-18.1932"/>
</g>
<!-- Node3 -->
<g id="node3" class="node"><title>Node3</title>
<g id="a_node3"><a xlink:href="../../d2/ddc/class_fish_cell.html#a618c77b7ef60dbc7a6e1b9bb6a9e4ca6" target="_top" xlink:title="FishCell.reproducingResult">
<polygon fill="white" stroke="black" points="271,-38.5 271,-57.5 411,-57.5 411,-38.5 271,-38.5"/>
<text text-anchor="middle" x="341" y="-45.5" font-family="Helvetica,sans-Serif" font-size="10.00">FishCell.reproducingResult</text>
</a>
</g>
</g>
<!-- Node2&#45;&gt;Node3 -->
<g id="edge2" class="edge"><title>Node2&#45;&gt;Node3</title>
<path fill="none" stroke="midnightblue" d="M230.505,-48C243.44,-48 257.408,-48 270.899,-48"/>
<polygon fill="midnightblue" stroke="midnightblue" points="230.381,-44.5001 220.381,-48 230.381,-51.5001 230.381,-44.5001"/>
</g>
<!-- Node5 -->
<g id="node5" class="node"><title>Node5</title>
<g id="a_node5"><a xlink:href="../../d1/dd5/class_shark_cell.html#a1ca5694156b3281592e9606fae51d9ac" target="_top" xlink:title="SharkCell.reproducingResult">
<polygon fill="white" stroke="black" points="266,-0.5 266,-19.5 416,-19.5 416,-0.5 266,-0.5"/>
<text text-anchor="middle" x="341" y="-7.5" font-family="Helvetica,sans-Serif" font-size="10.00">SharkCell.reproducingResult</text>
</a>
</g>
</g>
<!-- Node4&#45;&gt;Node5 -->
<g id="edge4" class="edge"><title>Node4&#45;&gt;Node5</title>
<path fill="none" stroke="midnightblue" d="M240.287,-10C248.722,-10 257.42,-10 266,-10"/>
<polygon fill="midnightblue" stroke="midnightblue" points="240.154,-6.5001 230.154,-10 240.154,-13.5001 240.154,-6.5001"/>
</g>
</g>
</svg>
