<?xml version="1.0" encoding="UTF-8" standalone="no"?>
<!DOCTYPE svg PUBLIC "-//W3C//DTD SVG 1.1//EN"
 "http://www.w3.org/Graphics/SVG/1.1/DTD/svg11.dtd">
<!-- Generated by graphviz version 2.36.0 (20140111.2315)
 -->
<!-- Title: Cell.Cell Pages: 1 -->
<svg width="248pt" height="66pt"
 viewBox="0.00 0.00 248.00 66.00" xmlns="http://www.w3.org/2000/svg" xmlns:xlink="http://www.w3.org/1999/xlink">
<g id="graph0" class="graph" transform="scale(1 1) rotate(0) translate(4 62)">
<title>Cell.Cell</title>
<polygon fill="white" stroke="none" points="-4,4 -4,-62 244,-62 244,4 -4,4"/>
<!-- Node1 -->
<g id="node1" class="node"><title>Node1</title>
<polygon fill="#bfbfbf" stroke="black" points="0,-19.5 0,-38.5 54,-38.5 54,-19.5 0,-19.5"/>
<text text-anchor="middle" x="27" y="-26.5" font-family="Helvetica,sans-Serif" font-size="10.00">Cell.Cell</text>
</g>
<!-- Node2 -->
<g id="node2" class="node"><title>Node2</title>
<g id="a_node2"><a xlink:href="../../d2/ddc/class_fish_cell.html#a618c77b7ef60dbc7a6e1b9bb6a9e4ca6" target="_top" xlink:title="FishCell.reproducingResult">
<polygon fill="white" stroke="black" points="95,-38.5 95,-57.5 235,-57.5 235,-38.5 95,-38.5"/>
<text text-anchor="middle" x="165" y="-45.5" font-family="Helvetica,sans-Serif" font-size="10.00">FishCell.reproducingResult</text>
</a>
</g>
</g>
<!-- Node1&#45;&gt;Node2 -->
<g id="edge1" class="edge"><title>Node1&#45;&gt;Node2</title>
<path fill="none" stroke="midnightblue" d="M64.2998,-34.0713C74.0398,-35.432 84.8976,-36.9489 95.7634,-38.4669"/>
<polygon fill="midnightblue" stroke="midnightblue" points="64.6103,-30.5808 54.2222,-32.6634 63.6417,-37.5134 64.6103,-30.5808"/>
</g>
<!-- Node3 -->
<g id="node3" class="node"><title>Node3</title>
<g id="a_node3"><a xlink:href="../../d1/dd5/class_shark_cell.html#a1ca5694156b3281592e9606fae51d9ac" target="_top" xlink:title="SharkCell.reproducingResult">
<polygon fill="white" stroke="black" points="90,-0.5 90,-19.5 240,-19.5 240,-0.5 90,-0.5"/>
<text text-anchor="middle" x="165" y="-7.5" font-family="Helvetica,sans-Serif" font-size="10.00">SharkCell.reproducingResult</text>
</a>
</g>
</g>
<!-- Node1&#45;&gt;Node3 -->
<g id="edge2" class="edge"><title>Node1&#45;&gt;Node3</title>
<path fill="none" stroke="midnightblue" d="M64.2998,-23.9287C74.0398,-22.568 84.8976,-21.0511 95.7634,-19.5331"/>
<polygon fill="midnightblue" stroke="midnightblue" points="63.6417,-20.4866 54.2222,-25.3366 64.6103,-27.4192 63.6417,-20.4866"/>
</g>
</g>
</svg>
