<?xml version="1.0" encoding="UTF-8" standalone="no"?>
<!DOCTYPE svg PUBLIC "-//W3C//DTD SVG 1.1//EN"
 "http://www.w3.org/Graphics/SVG/1.1/DTD/svg11.dtd">
<!-- Generated by graphviz version 2.36.0 (20140111.2315)
 -->
<!-- Title: Cell.setColor Pages: 1 -->
<svg width="1290pt" height="132pt"
 viewBox="0.00 0.00 1290.00 131.65" xmlns="http://www.w3.org/2000/svg" xmlns:xlink="http://www.w3.org/1999/xlink">
<g id="graph0" class="graph" transform="scale(1 1) rotate(0) translate(4 127.648)">
<title>Cell.setColor</title>
<polygon fill="white" stroke="none" points="-4,4 -4,-127.648 1286,-127.648 1286,4 -4,4"/>
<!-- Node1 -->
<g id="node1" class="node"><title>Node1</title>
<polygon fill="#bfbfbf" stroke="black" points="0.5,-95.5 0.5,-114.5 77.5,-114.5 77.5,-95.5 0.5,-95.5"/>
<text text-anchor="middle" x="39" y="-102.5" font-family="Helvetica,sans-Serif" font-size="10.00">Cell.setColor</text>
</g>
<!-- Node2 -->
<g id="node2" class="node"><title>Node2</title>
<g id="a_node2"><a xlink:href="../../d3/dff/class_cell_society.html#a64ebaee33d25e0e730024e67d5582c63" target="_top" xlink:title="CellSociety.updateColors">
<polygon fill="white" stroke="black" points="114,-95.5 114,-114.5 248,-114.5 248,-95.5 114,-95.5"/>
<text text-anchor="middle" x="181" y="-102.5" font-family="Helvetica,sans-Serif" font-size="10.00">CellSociety.updateColors</text>
</a>
</g>
</g>
<!-- Node1&#45;&gt;Node2 -->
<g id="edge1" class="edge"><title>Node1&#45;&gt;Node2</title>
<path fill="none" stroke="midnightblue" d="M87.5281,-105C95.9644,-105 104.888,-105 113.731,-105"/>
<polygon fill="midnightblue" stroke="midnightblue" points="87.5175,-101.5 77.5174,-105 87.5174,-108.5 87.5175,-101.5"/>
</g>
<!-- Node3 -->
<g id="node3" class="node"><title>Node3</title>
<g id="a_node3"><a xlink:href="../../d3/dff/class_cell_society.html#a0ff19c30a1cc433d8ea8444f6a5617f1" target="_top" xlink:title="CellSociety.updateGrid">
<polygon fill="white" stroke="black" points="284,-95.5 284,-114.5 408,-114.5 408,-95.5 284,-95.5"/>
<text text-anchor="middle" x="346" y="-102.5" font-family="Helvetica,sans-Serif" font-size="10.00">CellSociety.updateGrid</text>
</a>
</g>
</g>
<!-- Node2&#45;&gt;Node3 -->
<g id="edge2" class="edge"><title>Node2&#45;&gt;Node3</title>
<path fill="none" stroke="midnightblue" d="M258.548,-105C267.001,-105 275.525,-105 283.754,-105"/>
<polygon fill="midnightblue" stroke="midnightblue" points="258.298,-101.5 248.298,-105 258.298,-108.5 258.298,-101.5"/>
</g>
<!-- Node4 -->
<g id="node4" class="node"><title>Node4</title>
<g id="a_node4"><a xlink:href="../../d3/dff/class_cell_society.html#a656ff46d1459fb7f86b42e3c542506ee" target="_top" xlink:title="CellSociety.configureListeners">
<polygon fill="white" stroke="black" points="964,-57.5 964,-76.5 1122,-76.5 1122,-57.5 964,-57.5"/>
<text text-anchor="middle" x="1043" y="-64.5" font-family="Helvetica,sans-Serif" font-size="10.00">CellSociety.configureListeners</text>
</a>
</g>
</g>
<!-- Node3&#45;&gt;Node4 -->
<g id="edge3" class="edge"><title>Node3&#45;&gt;Node4</title>
<path fill="none" stroke="midnightblue" d="M418.15,-112.284C528.267,-121.925 746.242,-134.495 928,-105 961.155,-99.6198 997.696,-85.977 1020.25,-76.5924"/>
<polygon fill="midnightblue" stroke="midnightblue" points="418.428,-108.795 408.157,-111.391 417.805,-115.767 418.428,-108.795"/>
</g>
<!-- Node6 -->
<g id="node6" class="node"><title>Node6</title>
<g id="a_node6"><a xlink:href="../../d3/dff/class_cell_society.html#abf13a64ee79f2cb063447b499c695c58" target="_top" xlink:title="CellSociety.start">
<polygon fill="white" stroke="black" points="444.5,-76.5 444.5,-95.5 537.5,-95.5 537.5,-76.5 444.5,-76.5"/>
<text text-anchor="middle" x="491" y="-83.5" font-family="Helvetica,sans-Serif" font-size="10.00">CellSociety.start</text>
</a>
</g>
</g>
<!-- Node3&#45;&gt;Node6 -->
<g id="edge5" class="edge"><title>Node3&#45;&gt;Node6</title>
<path fill="none" stroke="midnightblue" d="M418.086,-95.555C426.995,-94.3712 435.914,-93.1863 444.287,-92.0738"/>
<polygon fill="midnightblue" stroke="midnightblue" points="417.512,-92.1005 408.06,-96.8872 418.434,-99.0395 417.512,-92.1005"/>
</g>
<!-- Node5 -->
<g id="node5" class="node"><title>Node5</title>
<g id="a_node5"><a xlink:href="../../d3/dff/class_cell_society.html#ac5e08680a3da358d402461bc25aa1727" target="_top" xlink:title="CellSociety.CellSociety">
<polygon fill="white" stroke="black" points="1158.5,-57.5 1158.5,-76.5 1281.5,-76.5 1281.5,-57.5 1158.5,-57.5"/>
<text text-anchor="middle" x="1220" y="-64.5" font-family="Helvetica,sans-Serif" font-size="10.00">CellSociety.CellSociety</text>
</a>
</g>
</g>
<!-- Node4&#45;&gt;Node5 -->
<g id="edge4" class="edge"><title>Node4&#45;&gt;Node5</title>
<path fill="none" stroke="midnightblue" d="M1132.09,-67C1141.01,-67 1149.92,-67 1158.45,-67"/>
<polygon fill="midnightblue" stroke="midnightblue" points="1132.03,-63.5001 1122.03,-67 1132.03,-70.5001 1132.03,-63.5001"/>
</g>
<!-- Node7 -->
<g id="node7" class="node"><title>Node7</title>
<g id="a_node7"><a xlink:href="../../d3/dff/class_cell_society.html#ab9e56a2a70e210e021b51e898508329b" target="_top" xlink:title="CellSociety.setupAnimation">
<polygon fill="white" stroke="black" points="576,-76.5 576,-95.5 722,-95.5 722,-76.5 576,-76.5"/>
<text text-anchor="middle" x="649" y="-83.5" font-family="Helvetica,sans-Serif" font-size="10.00">CellSociety.setupAnimation</text>
</a>
</g>
</g>
<!-- Node6&#45;&gt;Node7 -->
<g id="edge6" class="edge"><title>Node6&#45;&gt;Node7</title>
<path fill="none" stroke="midnightblue" d="M547.678,-86C556.854,-86 566.479,-86 575.984,-86"/>
<polygon fill="midnightblue" stroke="midnightblue" points="547.541,-82.5001 537.541,-86 547.541,-89.5001 547.541,-82.5001"/>
</g>
<!-- Node9 -->
<g id="node9" class="node"><title>Node9</title>
<g id="a_node9"><a xlink:href="../../d3/dff/class_cell_society.html#adc5feda3db5472cea4e092d463681033" target="_top" xlink:title="CellSociety.reframeTimeline">
<polygon fill="white" stroke="black" points="574.5,-38.5 574.5,-57.5 723.5,-57.5 723.5,-38.5 574.5,-38.5"/>
<text text-anchor="middle" x="649" y="-45.5" font-family="Helvetica,sans-Serif" font-size="10.00">CellSociety.reframeTimeline</text>
</a>
</g>
</g>
<!-- Node6&#45;&gt;Node9 -->
<g id="edge9" class="edge"><title>Node6&#45;&gt;Node9</title>
<path fill="none" stroke="midnightblue" d="M541.132,-74.032C562.993,-68.7069 588.376,-62.5238 608.918,-57.5201"/>
<polygon fill="midnightblue" stroke="midnightblue" points="540.253,-70.6437 531.365,-76.411 541.91,-77.4448 540.253,-70.6437"/>
</g>
<!-- Node8 -->
<g id="node8" class="node"><title>Node8</title>
<g id="a_node8"><a xlink:href="../../d3/dff/class_cell_society.html#af9f22af39a97a58b26126020ca6c8844" target="_top" xlink:title="CellSociety.readNewXML">
<polygon fill="white" stroke="black" points="778,-76.5 778,-95.5 910,-95.5 910,-76.5 778,-76.5"/>
<text text-anchor="middle" x="844" y="-83.5" font-family="Helvetica,sans-Serif" font-size="10.00">CellSociety.readNewXML</text>
</a>
</g>
</g>
<!-- Node7&#45;&gt;Node8 -->
<g id="edge7" class="edge"><title>Node7&#45;&gt;Node8</title>
<path fill="none" stroke="midnightblue" d="M732.552,-86C747.727,-86 763.372,-86 777.943,-86"/>
<polygon fill="midnightblue" stroke="midnightblue" points="732.141,-82.5001 722.141,-86 732.141,-89.5001 732.141,-82.5001"/>
</g>
<!-- Node8&#45;&gt;Node4 -->
<g id="edge8" class="edge"><title>Node8&#45;&gt;Node4</title>
<path fill="none" stroke="midnightblue" d="M920.323,-78.7353C934.624,-77.3561 949.615,-75.9102 963.997,-74.5232"/>
<polygon fill="midnightblue" stroke="midnightblue" points="919.669,-75.2821 910.051,-79.726 920.341,-82.2498 919.669,-75.2821"/>
</g>
<!-- Node10 -->
<g id="node10" class="node"><title>Node10</title>
<g id="a_node10"><a xlink:href="../../d3/dff/class_cell_society.html#a8250bfacdaf51dabf6b9d1cafc0ce9b2" target="_top" xlink:title="CellSociety.increaseFrameRate">
<polygon fill="white" stroke="black" points="762.5,-38.5 762.5,-57.5 925.5,-57.5 925.5,-38.5 762.5,-38.5"/>
<text text-anchor="middle" x="844" y="-45.5" font-family="Helvetica,sans-Serif" font-size="10.00">CellSociety.increaseFrameRate</text>
</a>
</g>
</g>
<!-- Node9&#45;&gt;Node10 -->
<g id="edge10" class="edge"><title>Node9&#45;&gt;Node10</title>
<path fill="none" stroke="midnightblue" d="M733.719,-48C743.198,-48 752.845,-48 762.285,-48"/>
<polygon fill="midnightblue" stroke="midnightblue" points="733.516,-44.5001 723.516,-48 733.516,-51.5001 733.516,-44.5001"/>
</g>
<!-- Node11 -->
<g id="node11" class="node"><title>Node11</title>
<g id="a_node11"><a xlink:href="../../d3/dff/class_cell_society.html#a045267ba1843ca4a47891d7be73c2ac1" target="_top" xlink:title="CellSociety.decreaseFrameRate">
<polygon fill="white" stroke="black" points="760.5,-0.5 760.5,-19.5 927.5,-19.5 927.5,-0.5 760.5,-0.5"/>
<text text-anchor="middle" x="844" y="-7.5" font-family="Helvetica,sans-Serif" font-size="10.00">CellSociety.decreaseFrameRate</text>
</a>
</g>
</g>
<!-- Node9&#45;&gt;Node11 -->
<g id="edge12" class="edge"><title>Node9&#45;&gt;Node11</title>
<path fill="none" stroke="midnightblue" d="M708.602,-36.4619C736.129,-31.042 768.548,-24.659 794.648,-19.5201"/>
<polygon fill="midnightblue" stroke="midnightblue" points="707.838,-33.045 698.702,-38.411 709.19,-39.9132 707.838,-33.045"/>
</g>
<!-- Node10&#45;&gt;Node4 -->
<g id="edge11" class="edge"><title>Node10&#45;&gt;Node4</title>
<path fill="none" stroke="midnightblue" d="M935.842,-56.7614C945.24,-57.6678 954.733,-58.5834 963.974,-59.4746"/>
<polygon fill="midnightblue" stroke="midnightblue" points="935.986,-53.2591 925.696,-55.7828 935.314,-60.2268 935.986,-53.2591"/>
</g>
<!-- Node11&#45;&gt;Node4 -->
<g id="edge13" class="edge"><title>Node11&#45;&gt;Node4</title>
<path fill="none" stroke="midnightblue" d="M900.362,-21.8882C909.628,-24.1025 919.115,-26.5086 928,-29 958.332,-37.5056 992.544,-49.198 1015.51,-57.3586"/>
<polygon fill="midnightblue" stroke="midnightblue" points="900.965,-18.4351 890.431,-19.5659 899.371,-25.2512 900.965,-18.4351"/>
</g>
</g>
</svg>
