<?xml version="1.0" encoding="UTF-8" standalone="no"?>
<!DOCTYPE svg PUBLIC "-//W3C//DTD SVG 1.1//EN"
 "http://www.w3.org/Graphics/SVG/1.1/DTD/svg11.dtd">
<!-- Generated by graphviz version 2.36.0 (20140111.2315)
 -->
<!-- Title: Cell.toString Pages: 1 -->
<!--zoomable 214 -->
<svg id="main" version="1.1" xmlns="http://www.w3.org/2000/svg" xmlns:xlink="http://www.w3.org/1999/xlink" xml:space="preserve" onload="init(evt)">
<style type="text/css"><![CDATA[
.edge:hover path { stroke: red; }
.edge:hover polygon { stroke: red; fill: red; }
]]></style>
<script type="text/javascript"><![CDATA[
var edges = document.getElementsByTagName('g');
if (edges && edges.length) {
  for (var i=0;i<edges.length;i++) {
    if (edges[i].id.substr(0,4)=='edge') {
      edges[i].setAttribute('class','edge');
    }
  }
}
]]></script>
        <defs>
                <circle id="rim" cx="0" cy="0" r="7"/>
                <circle id="rim2" cx="0" cy="0" r="3.5"/>
                <g id="zoomPlus">
                        <use xlink:href="#rim" fill="#404040">
                                <set attributeName="fill" to="#808080" begin="zoomplus.mouseover" end="zoomplus.mouseout"/>
                        </use>
                        <path d="M-4,0h8M0,-4v8" fill="none" stroke="white" stroke-width="1.5" pointer-events="none"/>
                </g>
                <g id="zoomMin">
                        <use xlink:href="#rim" fill="#404040">
                                <set attributeName="fill" to="#808080" begin="zoomminus.mouseover" end="zoomminus.mouseout"/>
                        </use>
                        <path d="M-4,0h8" fill="none" stroke="white" stroke-width="1.5" pointer-events="none"/>
                </g>
                <g id="dirArrow">
                        <path fill="none" stroke="white" stroke-width="1.5" d="M0,-3.0v7 M-2.5,-0.5L0,-3.0L2.5,-0.5"/>
                </g>
               <g id="resetDef">
                       <use xlink:href="#rim2" fill="#404040">
                               <set attributeName="fill" to="#808080" begin="reset.mouseover" end="reset.mouseout"/>
                       </use>
               </g>
        </defs>

<script type="text/javascript">
var viewWidth = 1338;
var viewHeight = 214;
var sectionId = 'dynsection-5';
</script>
<script xlink:href="../../svgpan.js"/>
<svg id="graph" class="graph">
<g id="viewport">
<title>Cell.toString</title>
<polygon fill="white" stroke="none" points="-4,4 -4,-210 1334,-210 1334,4 -4,4"/>
<!-- Node1 -->
<g id="node1" class="node"><title>Node1</title>
<polygon fill="#bfbfbf" stroke="black" points="0.5,-104.5 0.5,-123.5 75.5,-123.5 75.5,-104.5 0.5,-104.5"/>
<text text-anchor="middle" x="38" y="-111.5" font-family="Helvetica,sans-Serif" font-size="10.00">Cell.toString</text>
</g>
<!-- Node2 -->
<g id="node2" class="node"><title>Node2</title>
<g id="a_node2"><a xlink:href="../../dc/da7/class_wator_controller.html#a8487f7764316be081c820425dd43b86d" target="_top" xlink:title="WatorController.cellUpdate">
<polygon fill="white" stroke="black" points="312.5,-167.5 312.5,-186.5 455.5,-186.5 455.5,-167.5 312.5,-167.5"/>
<text text-anchor="middle" x="384" y="-174.5" font-family="Helvetica,sans-Serif" font-size="10.00">WatorController.cellUpdate</text>
</a>
</g>
</g>
<!-- Node1&#45;&gt;Node2 -->
<g id="edge1" class="edge"><title>Node1&#45;&gt;Node2</title>
<path fill="none" stroke="midnightblue" d="M73.9661,-126.871C85.9038,-130.896 99.4171,-135.05 112,-138 179.22,-153.759 257.402,-164.19 312.467,-170.266"/>
<polygon fill="midnightblue" stroke="midnightblue" points="74.9588,-123.511 64.364,-123.551 72.6708,-130.127 74.9588,-123.511"/>
</g>
<!-- Node3 -->
<g id="node3" class="node"><title>Node3</title>
<g id="a_node3"><a xlink:href="../../db/df8/class_segregation_controller.html#af3efcd7e96159364d9427fd7f4988bbe" target="_top" xlink:title="SegregationController.make\lEmptyList">
<polygon fill="white" stroke="black" points="118.5,-99 118.5,-129 269.5,-129 269.5,-99 118.5,-99"/>
<text text-anchor="start" x="126.5" y="-117" font-family="Helvetica,sans-Serif" font-size="10.00">SegregationController.make</text>
<text text-anchor="middle" x="194" y="-106" font-family="Helvetica,sans-Serif" font-size="10.00">EmptyList</text>
</a>
</g>
</g>
<!-- Node1&#45;&gt;Node3 -->
<g id="edge2" class="edge"><title>Node1&#45;&gt;Node3</title>
<path fill="none" stroke="midnightblue" d="M86.1702,-114C96.3601,-114 107.374,-114 118.326,-114"/>
<polygon fill="midnightblue" stroke="midnightblue" points="85.8869,-110.5 75.8868,-114 85.8868,-117.5 85.8869,-110.5"/>
</g>
<!-- Node5 -->
<g id="node5" class="node"><title>Node5</title>
<g id="a_node5"><a xlink:href="../../dc/da7/class_wator_controller.html#a8f10cc48fea8314d9ae89e397dac0c79" target="_top" xlink:title="WatorController.manipulateCell">
<polygon fill="white" stroke="black" points="112,-186.5 112,-205.5 276,-205.5 276,-186.5 112,-186.5"/>
<text text-anchor="middle" x="194" y="-193.5" font-family="Helvetica,sans-Serif" font-size="10.00">WatorController.manipulateCell</text>
</a>
</g>
</g>
<!-- Node1&#45;&gt;Node5 -->
<g id="edge4" class="edge"><title>Node1&#45;&gt;Node5</title>
<path fill="none" stroke="midnightblue" d="M55.9166,-130.585C69.9189,-143.494 90.8733,-161.009 112,-172 123.71,-178.092 137.198,-182.867 149.766,-186.498"/>
<polygon fill="midnightblue" stroke="midnightblue" points="58.1986,-127.926 48.5269,-123.6 53.3902,-133.013 58.1986,-127.926"/>
</g>
<!-- Node6 -->
<g id="node6" class="node"><title>Node6</title>
<g id="a_node6"><a xlink:href="../../df/df8/class_cell_society_view.html#a7ca77bdfdef97e9be9c9941c2f4d3513" target="_top" xlink:title="CellSocietyView.updateChart\lLines">
<polygon fill="white" stroke="black" points="117.5,-11 117.5,-41 270.5,-41 270.5,-11 117.5,-11"/>
<text text-anchor="start" x="125.5" y="-29" font-family="Helvetica,sans-Serif" font-size="10.00">CellSocietyView.updateChart</text>
<text text-anchor="middle" x="194" y="-18" font-family="Helvetica,sans-Serif" font-size="10.00">Lines</text>
</a>
</g>
</g>
<!-- Node1&#45;&gt;Node6 -->
<g id="edge6" class="edge"><title>Node1&#45;&gt;Node6</title>
<path fill="none" stroke="midnightblue" d="M54.7536,-96.9295C68.612,-82.8247 89.9632,-63.2019 112,-51 118.824,-47.2216 126.294,-43.9362 133.85,-41.1015"/>
<polygon fill="midnightblue" stroke="midnightblue" points="51.8957,-94.8537 47.5112,-104.499 56.9535,-99.693 51.8957,-94.8537"/>
</g>
<!-- Node16 -->
<g id="node16" class="node"><title>Node16</title>
<g id="a_node16"><a xlink:href="../../d3/dff/class_cell_society.html#a64ebaee33d25e0e730024e67d5582c63" target="_top" xlink:title="CellSociety.updateColors">
<polygon fill="white" stroke="black" points="127,-60.5 127,-79.5 261,-79.5 261,-60.5 127,-60.5"/>
<text text-anchor="middle" x="194" y="-67.5" font-family="Helvetica,sans-Serif" font-size="10.00">CellSociety.updateColors</text>
</a>
</g>
</g>
<!-- Node1&#45;&gt;Node16 -->
<g id="edge20" class="edge"><title>Node1&#45;&gt;Node16</title>
<path fill="none" stroke="midnightblue" d="M74.3845,-101.09C86.2597,-96.9695 99.629,-92.5597 112,-89 123.799,-85.605 136.692,-82.3698 148.653,-79.5626"/>
<polygon fill="midnightblue" stroke="midnightblue" points="73.0864,-97.836 64.8155,-104.457 75.4103,-104.439 73.0864,-97.836"/>
</g>
<!-- Node4 -->
<g id="node4" class="node"><title>Node4</title>
<g id="a_node4"><a xlink:href="../../db/df8/class_segregation_controller.html#a30b50c98765e3b785eb4a7f853bfb407" target="_top" xlink:title="SegregationController.run\lOneSim">
<polygon fill="white" stroke="black" points="314,-99 314,-129 454,-129 454,-99 314,-99"/>
<text text-anchor="start" x="322" y="-117" font-family="Helvetica,sans-Serif" font-size="10.00">SegregationController.run</text>
<text text-anchor="middle" x="384" y="-106" font-family="Helvetica,sans-Serif" font-size="10.00">OneSim</text>
</a>
</g>
</g>
<!-- Node3&#45;&gt;Node4 -->
<g id="edge3" class="edge"><title>Node3&#45;&gt;Node4</title>
<path fill="none" stroke="midnightblue" d="M279.896,-114C291.213,-114 302.707,-114 313.714,-114"/>
<polygon fill="midnightblue" stroke="midnightblue" points="279.573,-110.5 269.573,-114 279.573,-117.5 279.573,-110.5"/>
</g>
<!-- Node5&#45;&gt;Node2 -->
<g id="edge5" class="edge"><title>Node5&#45;&gt;Node2</title>
<path fill="none" stroke="midnightblue" d="M286.289,-186.774C295.002,-185.893 303.746,-185.01 312.222,-184.153"/>
<polygon fill="midnightblue" stroke="midnightblue" points="285.69,-183.317 276.093,-187.804 286.394,-190.281 285.69,-183.317"/>
</g>
<!-- Node7 -->
<g id="node7" class="node"><title>Node7</title>
<g id="a_node7"><a xlink:href="../../d3/dff/class_cell_society.html#a0ff19c30a1cc433d8ea8444f6a5617f1" target="_top" xlink:title="CellSociety.updateGrid">
<polygon fill="white" stroke="black" points="322,-60.5 322,-79.5 446,-79.5 446,-60.5 322,-60.5"/>
<text text-anchor="middle" x="384" y="-67.5" font-family="Helvetica,sans-Serif" font-size="10.00">CellSociety.updateGrid</text>
</a>
</g>
</g>
<!-- Node6&#45;&gt;Node7 -->
<g id="edge7" class="edge"><title>Node6&#45;&gt;Node7</title>
<path fill="none" stroke="midnightblue" d="M268.998,-43.3187C293.977,-49.1648 320.931,-55.4732 342.356,-60.4876"/>
<polygon fill="midnightblue" stroke="midnightblue" points="269.708,-39.8903 259.173,-41.0192 268.112,-46.7061 269.708,-39.8903"/>
</g>
<!-- Node12 -->
<g id="node12" class="node"><title>Node12</title>
<g id="a_node12"><a xlink:href="../../d3/dff/class_cell_society.html#af9f22af39a97a58b26126020ca6c8844" target="_top" xlink:title="CellSociety.readNewXML">
<polygon fill="white" stroke="black" points="826,-0.5 826,-19.5 958,-19.5 958,-0.5 826,-0.5"/>
<text text-anchor="middle" x="892" y="-7.5" font-family="Helvetica,sans-Serif" font-size="10.00">CellSociety.readNewXML</text>
</a>
</g>
</g>
<!-- Node6&#45;&gt;Node12 -->
<g id="edge19" class="edge"><title>Node6&#45;&gt;Node12</title>
<path fill="none" stroke="midnightblue" d="M281.138,-24.0198C422.178,-20.7775 699.295,-14.407 825.546,-11.5047"/>
<polygon fill="midnightblue" stroke="midnightblue" points="280.726,-20.5283 270.809,-24.2573 280.887,-27.5264 280.726,-20.5283"/>
</g>
<!-- Node8 -->
<g id="node8" class="node"><title>Node8</title>
<g id="a_node8"><a xlink:href="../../d3/dff/class_cell_society.html#a656ff46d1459fb7f86b42e3c542506ee" target="_top" xlink:title="CellSociety.configureListeners">
<polygon fill="white" stroke="black" points="1012,-57.5 1012,-76.5 1170,-76.5 1170,-57.5 1012,-57.5"/>
<text text-anchor="middle" x="1091" y="-64.5" font-family="Helvetica,sans-Serif" font-size="10.00">CellSociety.configureListeners</text>
</a>
</g>
</g>
<!-- Node7&#45;&gt;Node8 -->
<g id="edge8" class="edge"><title>Node7&#45;&gt;Node8</title>
<path fill="none" stroke="midnightblue" d="M441.048,-81.4387C546.504,-101.169 781.344,-136.588 976,-105 1009.15,-99.6198 1045.7,-85.977 1068.25,-76.5924"/>
<polygon fill="midnightblue" stroke="midnightblue" points="441.427,-77.9482 430.95,-79.5228 440.122,-84.8255 441.427,-77.9482"/>
</g>
<!-- Node10 -->
<g id="node10" class="node"><title>Node10</title>
<g id="a_node10"><a xlink:href="../../d3/dff/class_cell_society.html#abf13a64ee79f2cb063447b499c695c58" target="_top" xlink:title="CellSociety.start">
<polygon fill="white" stroke="black" points="492.5,-60.5 492.5,-79.5 585.5,-79.5 585.5,-60.5 492.5,-60.5"/>
<text text-anchor="middle" x="539" y="-67.5" font-family="Helvetica,sans-Serif" font-size="10.00">CellSociety.start</text>
</a>
</g>
</g>
<!-- Node7&#45;&gt;Node10 -->
<g id="edge10" class="edge"><title>Node7&#45;&gt;Node10</title>
<path fill="none" stroke="midnightblue" d="M456.482,-70C468.624,-70 480.936,-70 492.186,-70"/>
<polygon fill="midnightblue" stroke="midnightblue" points="456.349,-66.5001 446.349,-70 456.349,-73.5001 456.349,-66.5001"/>
</g>
<!-- Node9 -->
<g id="node9" class="node"><title>Node9</title>
<g id="a_node9"><a xlink:href="../../d3/dff/class_cell_society.html#ac5e08680a3da358d402461bc25aa1727" target="_top" xlink:title="CellSociety.CellSociety">
<polygon fill="white" stroke="black" points="1206.5,-57.5 1206.5,-76.5 1329.5,-76.5 1329.5,-57.5 1206.5,-57.5"/>
<text text-anchor="middle" x="1268" y="-64.5" font-family="Helvetica,sans-Serif" font-size="10.00">CellSociety.CellSociety</text>
</a>
</g>
</g>
<!-- Node8&#45;&gt;Node9 -->
<g id="edge9" class="edge"><title>Node8&#45;&gt;Node9</title>
<path fill="none" stroke="midnightblue" d="M1180.09,-67C1189.01,-67 1197.92,-67 1206.45,-67"/>
<polygon fill="midnightblue" stroke="midnightblue" points="1180.03,-63.5001 1170.03,-67 1180.03,-70.5001 1180.03,-63.5001"/>
</g>
<!-- Node11 -->
<g id="node11" class="node"><title>Node11</title>
<g id="a_node11"><a xlink:href="../../d3/dff/class_cell_society.html#ab9e56a2a70e210e021b51e898508329b" target="_top" xlink:title="CellSociety.setupAnimation">
<polygon fill="white" stroke="black" points="624,-38.5 624,-57.5 770,-57.5 770,-38.5 624,-38.5"/>
<text text-anchor="middle" x="697" y="-45.5" font-family="Helvetica,sans-Serif" font-size="10.00">CellSociety.setupAnimation</text>
</a>
</g>
</g>
<!-- Node10&#45;&gt;Node11 -->
<g id="edge11" class="edge"><title>Node10&#45;&gt;Node11</title>
<path fill="none" stroke="midnightblue" d="M595.522,-62.17C606.157,-60.6702 617.401,-59.0844 628.367,-57.5379"/>
<polygon fill="midnightblue" stroke="midnightblue" points="594.954,-58.7153 585.541,-63.5775 595.932,-65.6467 594.954,-58.7153"/>
</g>
<!-- Node13 -->
<g id="node13" class="node"><title>Node13</title>
<g id="a_node13"><a xlink:href="../../d3/dff/class_cell_society.html#adc5feda3db5472cea4e092d463681033" target="_top" xlink:title="CellSociety.reframeTimeline">
<polygon fill="white" stroke="black" points="622.5,-76.5 622.5,-95.5 771.5,-95.5 771.5,-76.5 622.5,-76.5"/>
<text text-anchor="middle" x="697" y="-83.5" font-family="Helvetica,sans-Serif" font-size="10.00">CellSociety.reframeTimeline</text>
</a>
</g>
</g>
<!-- Node10&#45;&gt;Node13 -->
<g id="edge14" class="edge"><title>Node10&#45;&gt;Node13</title>
<path fill="none" stroke="midnightblue" d="M595.497,-75.692C604.162,-76.5807 613.231,-77.5109 622.226,-78.4334"/>
<polygon fill="midnightblue" stroke="midnightblue" points="595.846,-72.2095 585.541,-74.6709 595.132,-79.173 595.846,-72.2095"/>
</g>
<!-- Node11&#45;&gt;Node12 -->
<g id="edge12" class="edge"><title>Node11&#45;&gt;Node12</title>
<path fill="none" stroke="midnightblue" d="M756.602,-36.4619C784.129,-31.042 816.548,-24.659 842.648,-19.5201"/>
<polygon fill="midnightblue" stroke="midnightblue" points="755.838,-33.045 746.702,-38.411 757.19,-39.9132 755.838,-33.045"/>
</g>
<!-- Node12&#45;&gt;Node8 -->
<g id="edge13" class="edge"><title>Node12&#45;&gt;Node8</title>
<path fill="none" stroke="midnightblue" d="M948.362,-21.8882C957.628,-24.1025 967.115,-26.5086 976,-29 1006.33,-37.5056 1040.54,-49.198 1063.51,-57.3586"/>
<polygon fill="midnightblue" stroke="midnightblue" points="948.965,-18.4351 938.431,-19.5659 947.371,-25.2512 948.965,-18.4351"/>
</g>
<!-- Node14 -->
<g id="node14" class="node"><title>Node14</title>
<g id="a_node14"><a xlink:href="../../d3/dff/class_cell_society.html#a8250bfacdaf51dabf6b9d1cafc0ce9b2" target="_top" xlink:title="CellSociety.increaseFrameRate">
<polygon fill="white" stroke="black" points="810.5,-76.5 810.5,-95.5 973.5,-95.5 973.5,-76.5 810.5,-76.5"/>
<text text-anchor="middle" x="892" y="-83.5" font-family="Helvetica,sans-Serif" font-size="10.00">CellSociety.increaseFrameRate</text>
</a>
</g>
</g>
<!-- Node13&#45;&gt;Node14 -->
<g id="edge15" class="edge"><title>Node13&#45;&gt;Node14</title>
<path fill="none" stroke="midnightblue" d="M781.719,-86C791.198,-86 800.845,-86 810.285,-86"/>
<polygon fill="midnightblue" stroke="midnightblue" points="781.516,-82.5001 771.516,-86 781.516,-89.5001 781.516,-82.5001"/>
</g>
<!-- Node15 -->
<g id="node15" class="node"><title>Node15</title>
<g id="a_node15"><a xlink:href="../../d3/dff/class_cell_society.html#a045267ba1843ca4a47891d7be73c2ac1" target="_top" xlink:title="CellSociety.decreaseFrameRate">
<polygon fill="white" stroke="black" points="808.5,-38.5 808.5,-57.5 975.5,-57.5 975.5,-38.5 808.5,-38.5"/>
<text text-anchor="middle" x="892" y="-45.5" font-family="Helvetica,sans-Serif" font-size="10.00">CellSociety.decreaseFrameRate</text>
</a>
</g>
</g>
<!-- Node13&#45;&gt;Node15 -->
<g id="edge17" class="edge"><title>Node13&#45;&gt;Node15</title>
<path fill="none" stroke="midnightblue" d="M756.602,-74.4619C784.129,-69.042 816.548,-62.659 842.648,-57.5201"/>
<polygon fill="midnightblue" stroke="midnightblue" points="755.838,-71.045 746.702,-76.411 757.19,-77.9132 755.838,-71.045"/>
</g>
<!-- Node14&#45;&gt;Node8 -->
<g id="edge16" class="edge"><title>Node14&#45;&gt;Node8</title>
<path fill="none" stroke="midnightblue" d="M983.842,-77.2386C993.24,-76.3322 1002.73,-75.4166 1011.97,-74.5254"/>
<polygon fill="midnightblue" stroke="midnightblue" points="983.314,-73.7732 973.696,-78.2172 983.986,-80.7409 983.314,-73.7732"/>
</g>
<!-- Node15&#45;&gt;Node8 -->
<g id="edge18" class="edge"><title>Node15&#45;&gt;Node8</title>
<path fill="none" stroke="midnightblue" d="M985.877,-56.9577C994.593,-57.7983 1003.37,-58.6446 1011.93,-59.4701"/>
<polygon fill="midnightblue" stroke="midnightblue" points="985.979,-53.4514 975.689,-55.9751 985.307,-60.4191 985.979,-53.4514"/>
</g>
<!-- Node16&#45;&gt;Node7 -->
<g id="edge21" class="edge"><title>Node16&#45;&gt;Node7</title>
<path fill="none" stroke="midnightblue" d="M271.36,-70C288.165,-70 305.751,-70 321.863,-70"/>
<polygon fill="midnightblue" stroke="midnightblue" points="271.017,-66.5001 261.017,-70 271.017,-73.5001 271.017,-66.5001"/>
</g>
</g>
</svg>
        <g id="navigator" transform="translate(0 0)" fill="#404254">
                <rect fill="#f2f5e9" fill-opacity="0.5" stroke="#606060" stroke-width=".5" x="0" y="0" width="60" height="60"/>
                <use id="zoomplus" xlink:href="#zoomPlus" x="17" y="9" onmousedown="handleZoom(evt,'in')"/>
                <use id="zoomminus" xlink:href="#zoomMin" x="42" y="9" onmousedown="handleZoom(evt,'out')"/>
                <use id="reset" xlink:href="#resetDef" x="30" y="36" onmousedown="handleReset()"/>
                <g id="arrowUp" xlink:href="#dirArrow" transform="translate(30 24)" onmousedown="handlePan(0,-1)">
                  <use xlink:href="#rim" fill="#404040">
                        <set attributeName="fill" to="#808080" begin="arrowUp.mouseover" end="arrowUp.mouseout"/>
                  </use>
                  <path fill="none" stroke="white" stroke-width="1.5" d="M0,-3.0v7 M-2.5,-0.5L0,-3.0L2.5,-0.5"/>
                </g>
                <g id="arrowRight" xlink:href="#dirArrow" transform="rotate(90) translate(36 -43)" onmousedown="handlePan(1,0)">
                  <use xlink:href="#rim" fill="#404040">
                        <set attributeName="fill" to="#808080" begin="arrowRight.mouseover" end="arrowRight.mouseout"/>
                  </use>
                  <path fill="none" stroke="white" stroke-width="1.5" d="M0,-3.0v7 M-2.5,-0.5L0,-3.0L2.5,-0.5"/>
                </g>
                <g id="arrowDown" xlink:href="#dirArrow" transform="rotate(180) translate(-30 -48)" onmousedown="handlePan(0,1)">
                  <use xlink:href="#rim" fill="#404040">
                        <set attributeName="fill" to="#808080" begin="arrowDown.mouseover" end="arrowDown.mouseout"/>
                  </use>
                  <path fill="none" stroke="white" stroke-width="1.5" d="M0,-3.0v7 M-2.5,-0.5L0,-3.0L2.5,-0.5"/>
                </g>
                <g id="arrowLeft" xlink:href="#dirArrow" transform="rotate(270) translate(-36 17)" onmousedown="handlePan(-1,0)">
                  <use xlink:href="#rim" fill="#404040">
                        <set attributeName="fill" to="#808080" begin="arrowLeft.mouseover" end="arrowLeft.mouseout"/>
                  </use>
                  <path fill="none" stroke="white" stroke-width="1.5" d="M0,-3.0v7 M-2.5,-0.5L0,-3.0L2.5,-0.5"/>
                </g>
        </g>
        <svg viewBox="0 0 15 15" width="100%" height="30px" preserveAspectRatio="xMaxYMin meet">
         <g id="arrow_out" transform="scale(0.3 0.3)">
          <a xlink:href="class_cell_a7f8d2520a26a1376a44372149e561f6b_icgraph_org.svg" target="_base">
           <rect id="button" ry="5" rx="5" y="6" x="6" height="38" width="38"
                fill="#f2f5e9" fill-opacity="0.5" stroke="#606060" stroke-width="1.0"/>
           <path id="arrow"
             d="M 11.500037,31.436501 C 11.940474,20.09759 22.043105,11.32322 32.158766,21.979434 L 37.068811,17.246167 C 37.068811,17.246167 37.088388,32 37.088388,32 L 22.160133,31.978069 C 22.160133,31.978069 26.997745,27.140456 26.997745,27.140456 C 18.528582,18.264221 13.291696,25.230495 11.500037,31.436501 z"
             style="fill:#404040;"/>
          </a>
         </g>
        </svg>
</svg>
