<?xml version="1.0" encoding="UTF-8" standalone="no"?>
<!DOCTYPE svg PUBLIC "-//W3C//DTD SVG 1.1//EN"
 "http://www.w3.org/Graphics/SVG/1.1/DTD/svg11.dtd">
<!-- Generated by graphviz version 2.36.0 (20140111.2315)
 -->
<!-- Title: Cell.getColor Pages: 1 -->
<svg width="576pt" height="66pt"
 viewBox="0.00 0.00 576.00 66.00" xmlns="http://www.w3.org/2000/svg" xmlns:xlink="http://www.w3.org/1999/xlink">
<g id="graph0" class="graph" transform="scale(1 1) rotate(0) translate(4 62)">
<title>Cell.getColor</title>
<polygon fill="white" stroke="none" points="-4,4 -4,-62 572,-62 572,4 -4,4"/>
<!-- Node1 -->
<g id="node1" class="node"><title>Node1</title>
<polygon fill="#bfbfbf" stroke="black" points="0.5,-19.5 0.5,-38.5 77.5,-38.5 77.5,-19.5 0.5,-19.5"/>
<text text-anchor="middle" x="39" y="-26.5" font-family="Helvetica,sans-Serif" font-size="10.00">Cell.getColor</text>
</g>
<!-- Node2 -->
<g id="node2" class="node"><title>Node2</title>
<g id="a_node2"><a xlink:href="../../dd/dc3/class_square_grid.html#ace229c67480728fbc870dc95a3674aea" target="_top" xlink:title="SquareGrid.setBack">
<polygon fill="white" stroke="black" points="115,-38.5 115,-57.5 227,-57.5 227,-38.5 115,-38.5"/>
<text text-anchor="middle" x="171" y="-45.5" font-family="Helvetica,sans-Serif" font-size="10.00">SquareGrid.setBack</text>
</a>
</g>
</g>
<!-- Node1&#45;&gt;Node2 -->
<g id="edge1" class="edge"><title>Node1&#45;&gt;Node2</title>
<path fill="none" stroke="midnightblue" d="M87.6382,-35.9625C96.4017,-37.2433 105.62,-38.5906 114.588,-39.9014"/>
<polygon fill="midnightblue" stroke="midnightblue" points="88.0025,-32.4786 77.6014,-34.4956 86.9901,-39.4051 88.0025,-32.4786"/>
</g>
<!-- Node5 -->
<g id="node5" class="node"><title>Node5</title>
<g id="a_node5"><a xlink:href="../../d1/de7/class_triangle_grid.html#a6ad8d77ab737d34950c7741545b610cd" target="_top" xlink:title="TriangleGrid.setBack">
<polygon fill="white" stroke="black" points="114.5,-0.5 114.5,-19.5 227.5,-19.5 227.5,-0.5 114.5,-0.5"/>
<text text-anchor="middle" x="171" y="-7.5" font-family="Helvetica,sans-Serif" font-size="10.00">TriangleGrid.setBack</text>
</a>
</g>
</g>
<!-- Node1&#45;&gt;Node5 -->
<g id="edge4" class="edge"><title>Node1&#45;&gt;Node5</title>
<path fill="none" stroke="midnightblue" d="M87.5046,-22.057C96.1497,-20.7935 105.241,-19.4648 114.102,-18.1697"/>
<polygon fill="midnightblue" stroke="midnightblue" points="86.9901,-18.5949 77.6014,-23.5044 88.0025,-25.5214 86.9901,-18.5949"/>
</g>
<!-- Node3 -->
<g id="node3" class="node"><title>Node3</title>
<g id="a_node3"><a xlink:href="../../dd/dc3/class_square_grid.html#af2e2d0f6db19d2c7dc8e4dc7e0602389" target="_top" xlink:title="SquareGrid.populateGrid">
<polygon fill="white" stroke="black" points="264.5,-38.5 264.5,-57.5 399.5,-57.5 399.5,-38.5 264.5,-38.5"/>
<text text-anchor="middle" x="332" y="-45.5" font-family="Helvetica,sans-Serif" font-size="10.00">SquareGrid.populateGrid</text>
</a>
</g>
</g>
<!-- Node2&#45;&gt;Node3 -->
<g id="edge2" class="edge"><title>Node2&#45;&gt;Node3</title>
<path fill="none" stroke="midnightblue" d="M237.182,-48C246.173,-48 255.416,-48 264.432,-48"/>
<polygon fill="midnightblue" stroke="midnightblue" points="237.164,-44.5001 227.164,-48 237.164,-51.5001 237.164,-44.5001"/>
</g>
<!-- Node4 -->
<g id="node4" class="node"><title>Node4</title>
<g id="a_node4"><a xlink:href="../../dd/dc3/class_square_grid.html#a3ed2b155bb1c7b4546e94c52ccce7ef3" target="_top" xlink:title="SquareGrid.SquareGrid">
<polygon fill="white" stroke="black" points="438,-38.5 438,-57.5 566,-57.5 566,-38.5 438,-38.5"/>
<text text-anchor="middle" x="502" y="-45.5" font-family="Helvetica,sans-Serif" font-size="10.00">SquareGrid.SquareGrid</text>
</a>
</g>
</g>
<!-- Node3&#45;&gt;Node4 -->
<g id="edge3" class="edge"><title>Node3&#45;&gt;Node4</title>
<path fill="none" stroke="midnightblue" d="M409.961,-48C419.313,-48 428.782,-48 437.901,-48"/>
<polygon fill="midnightblue" stroke="midnightblue" points="409.881,-44.5001 399.881,-48 409.881,-51.5001 409.881,-44.5001"/>
</g>
<!-- Node6 -->
<g id="node6" class="node"><title>Node6</title>
<g id="a_node6"><a xlink:href="../../d1/de7/class_triangle_grid.html#a004586bea634fbe566ba5c63e5114f50" target="_top" xlink:title="TriangleGrid.update">
<polygon fill="white" stroke="black" points="277.5,-0.5 277.5,-19.5 386.5,-19.5 386.5,-0.5 277.5,-0.5"/>
<text text-anchor="middle" x="332" y="-7.5" font-family="Helvetica,sans-Serif" font-size="10.00">TriangleGrid.update</text>
</a>
</g>
</g>
<!-- Node5&#45;&gt;Node6 -->
<g id="edge5" class="edge"><title>Node5&#45;&gt;Node6</title>
<path fill="none" stroke="midnightblue" d="M237.976,-10C251.07,-10 264.669,-10 277.295,-10"/>
<polygon fill="midnightblue" stroke="midnightblue" points="237.611,-6.5001 227.61,-10 237.61,-13.5001 237.611,-6.5001"/>
</g>
<!-- Node7 -->
<g id="node7" class="node"><title>Node7</title>
<g id="a_node7"><a xlink:href="../../d1/de7/class_triangle_grid.html#a2b0333511e694209e681e8716a7c1043" target="_top" xlink:title="TriangleGrid.TriangleGrid">
<polygon fill="white" stroke="black" points="436.5,-0.5 436.5,-19.5 567.5,-19.5 567.5,-0.5 436.5,-0.5"/>
<text text-anchor="middle" x="502" y="-7.5" font-family="Helvetica,sans-Serif" font-size="10.00">TriangleGrid.TriangleGrid</text>
</a>
</g>
</g>
<!-- Node6&#45;&gt;Node7 -->
<g id="edge6" class="edge"><title>Node6&#45;&gt;Node7</title>
<path fill="none" stroke="midnightblue" d="M396.842,-10C409.804,-10 423.446,-10 436.433,-10"/>
<polygon fill="midnightblue" stroke="midnightblue" points="396.618,-6.5001 386.618,-10 396.618,-13.5001 396.618,-6.5001"/>
</g>
</g>
</svg>
