<?xml version="1.0" encoding="UTF-8" standalone="no"?>
<!DOCTYPE svg PUBLIC "-//W3C//DTD SVG 1.1//EN"
 "http://www.w3.org/Graphics/SVG/1.1/DTD/svg11.dtd">
<!-- Generated by graphviz version 2.36.0 (20140111.2315)
 -->
<!-- Title: Cell.getShape Pages: 1 -->
<!--zoomable 411 -->
<svg id="main" version="1.1" xmlns="http://www.w3.org/2000/svg" xmlns:xlink="http://www.w3.org/1999/xlink" xml:space="preserve" onload="init(evt)">
<style type="text/css"><![CDATA[
.edge:hover path { stroke: red; }
.edge:hover polygon { stroke: red; fill: red; }
]]></style>
<script type="text/javascript"><![CDATA[
var edges = document.getElementsByTagName('g');
if (edges && edges.length) {
  for (var i=0;i<edges.length;i++) {
    if (edges[i].id.substr(0,4)=='edge') {
      edges[i].setAttribute('class','edge');
    }
  }
}
]]></script>
        <defs>
                <circle id="rim" cx="0" cy="0" r="7"/>
                <circle id="rim2" cx="0" cy="0" r="3.5"/>
                <g id="zoomPlus">
                        <use xlink:href="#rim" fill="#404040">
                                <set attributeName="fill" to="#808080" begin="zoomplus.mouseover" end="zoomplus.mouseout"/>
                        </use>
                        <path d="M-4,0h8M0,-4v8" fill="none" stroke="white" stroke-width="1.5" pointer-events="none"/>
                </g>
                <g id="zoomMin">
                        <use xlink:href="#rim" fill="#404040">
                                <set attributeName="fill" to="#808080" begin="zoomminus.mouseover" end="zoomminus.mouseout"/>
                        </use>
                        <path d="M-4,0h8" fill="none" stroke="white" stroke-width="1.5" pointer-events="none"/>
                </g>
                <g id="dirArrow">
                        <path fill="none" stroke="white" stroke-width="1.5" d="M0,-3.0v7 M-2.5,-0.5L0,-3.0L2.5,-0.5"/>
                </g>
               <g id="resetDef">
                       <use xlink:href="#rim2" fill="#404040">
                               <set attributeName="fill" to="#808080" begin="reset.mouseover" end="reset.mouseout"/>
                       </use>
               </g>
        </defs>

<script type="text/javascript">
var viewWidth = 1354;
var viewHeight = 411;
var sectionId = 'dynsection-2';
</script>
<script xlink:href="../../svgpan.js"/>
<svg id="graph" class="graph">
<g id="viewport">
<title>Cell.getShape</title>
<polygon fill="white" stroke="none" points="-4,4 -4,-406.551 1350,-406.551 1350,4 -4,4"/>
<!-- Node1 -->
<g id="node1" class="node"><title>Node1</title>
<polygon fill="#bfbfbf" stroke="black" points="0.5,-231.051 0.5,-250.051 83.5,-250.051 83.5,-231.051 0.5,-231.051"/>
<text text-anchor="middle" x="42" y="-238.051" font-family="Helvetica,sans-Serif" font-size="10.00">Cell.getShape</text>
</g>
<!-- Node2 -->
<g id="node2" class="node"><title>Node2</title>
<g id="a_node2"><a xlink:href="../../df/d9e/class_blue_cell.html#a309898e27ef25568009d0cd9263eb924" target="_top" xlink:title="BlueCell.BlueCell">
<polygon fill="white" stroke="black" points="155,-383.051 155,-402.051 251,-402.051 251,-383.051 155,-383.051"/>
<text text-anchor="middle" x="203" y="-390.051" font-family="Helvetica,sans-Serif" font-size="10.00">BlueCell.BlueCell</text>
</a>
</g>
</g>
<!-- Node1&#45;&gt;Node2 -->
<g id="edge1" class="edge"><title>Node1&#45;&gt;Node2</title>
<path fill="none" stroke="midnightblue" d="M48.8315,-260.335C58.5665,-289.769 81.0074,-344.71 120,-373.551 130.104,-381.024 142.673,-385.621 154.911,-388.43"/>
<polygon fill="midnightblue" stroke="midnightblue" points="52.0502,-258.902 45.7146,-250.411 45.3719,-261 52.0502,-258.902"/>
</g>
<!-- Node3 -->
<g id="node3" class="node"><title>Node3</title>
<g id="a_node3"><a xlink:href="../../d4/dbb/class_empty_cell.html#a7fbbe3b8293ff0d48b9e5e85ae31e189" target="_top" xlink:title="EmptyCell.EmptyCell">
<polygon fill="white" stroke="black" points="145,-345.051 145,-364.051 261,-364.051 261,-345.051 145,-345.051"/>
<text text-anchor="middle" x="203" y="-352.051" font-family="Helvetica,sans-Serif" font-size="10.00">EmptyCell.EmptyCell</text>
</a>
</g>
</g>
<!-- Node1&#45;&gt;Node3 -->
<g id="edge2" class="edge"><title>Node1&#45;&gt;Node3</title>
<path fill="none" stroke="midnightblue" d="M52.8764,-259.046C65.4913,-280.817 89.4016,-316.424 120,-335.551 127.559,-340.276 136.171,-343.828 144.906,-346.498"/>
<polygon fill="midnightblue" stroke="midnightblue" points="55.8251,-257.148 47.8918,-250.125 49.7144,-260.562 55.8251,-257.148"/>
</g>
<!-- Node4 -->
<g id="node4" class="node"><title>Node4</title>
<g id="a_node4"><a xlink:href="../../d7/d2e/class_fire_cell.html#ad14dc851bbb1e3bb026d2ab6584ffb40" target="_top" xlink:title="FireCell.FireCell">
<polygon fill="white" stroke="black" points="159.5,-307.051 159.5,-326.051 246.5,-326.051 246.5,-307.051 159.5,-307.051"/>
<text text-anchor="middle" x="203" y="-314.051" font-family="Helvetica,sans-Serif" font-size="10.00">FireCell.FireCell</text>
</a>
</g>
</g>
<!-- Node1&#45;&gt;Node4 -->
<g id="edge3" class="edge"><title>Node1&#45;&gt;Node4</title>
<path fill="none" stroke="midnightblue" d="M60.8799,-257.146C75.67,-270.001 97.7826,-287.295 120,-297.551 132.206,-303.186 146.23,-307.224 159.188,-310.086"/>
<polygon fill="midnightblue" stroke="midnightblue" points="62.8634,-254.225 53.0724,-250.177 58.2019,-259.447 62.8634,-254.225"/>
</g>
<!-- Node5 -->
<g id="node5" class="node"><title>Node5</title>
<g id="a_node5"><a xlink:href="../../d2/ddc/class_fish_cell.html#a769a2355c6729beff011db6b58b02fd5" target="_top" xlink:title="FishCell.FishCell">
<polygon fill="white" stroke="black" points="158,-269.051 158,-288.051 248,-288.051 248,-269.051 158,-269.051"/>
<text text-anchor="middle" x="203" y="-276.051" font-family="Helvetica,sans-Serif" font-size="10.00">FishCell.FishCell</text>
</a>
</g>
</g>
<!-- Node1&#45;&gt;Node5 -->
<g id="edge4" class="edge"><title>Node1&#45;&gt;Node5</title>
<path fill="none" stroke="midnightblue" d="M91.1282,-252.539C100.688,-254.888 110.658,-257.316 120,-259.551 133.075,-262.679 147.343,-266.012 160.258,-269"/>
<polygon fill="midnightblue" stroke="midnightblue" points="91.9039,-249.125 81.3568,-250.13 90.2283,-255.922 91.9039,-249.125"/>
</g>
<!-- Node7 -->
<g id="node7" class="node"><title>Node7</title>
<g id="a_node7"><a xlink:href="../../d2/d85/class_live_cell.html#a68c2c2e651be6574cd95dcaa26469072" target="_top" xlink:title="LiveCell.LiveCell">
<polygon fill="white" stroke="black" points="157,-231.051 157,-250.051 249,-250.051 249,-231.051 157,-231.051"/>
<text text-anchor="middle" x="203" y="-238.051" font-family="Helvetica,sans-Serif" font-size="10.00">LiveCell.LiveCell</text>
</a>
</g>
</g>
<!-- Node1&#45;&gt;Node7 -->
<g id="edge6" class="edge"><title>Node1&#45;&gt;Node7</title>
<path fill="none" stroke="midnightblue" d="M93.5395,-240.551C113.834,-240.551 137.045,-240.551 156.773,-240.551"/>
<polygon fill="midnightblue" stroke="midnightblue" points="93.5338,-237.051 83.5338,-240.551 93.5338,-244.051 93.5338,-237.051"/>
</g>
<!-- Node8 -->
<g id="node8" class="node"><title>Node8</title>
<g id="a_node8"><a xlink:href="../../db/d8c/class_red_cell.html#a0ac2c4f72ba562c5aae11e5152648b36" target="_top" xlink:title="RedCell.RedCell">
<polygon fill="white" stroke="black" points="158.5,-193.051 158.5,-212.051 247.5,-212.051 247.5,-193.051 158.5,-193.051"/>
<text text-anchor="middle" x="203" y="-200.051" font-family="Helvetica,sans-Serif" font-size="10.00">RedCell.RedCell</text>
</a>
</g>
</g>
<!-- Node1&#45;&gt;Node8 -->
<g id="edge7" class="edge"><title>Node1&#45;&gt;Node8</title>
<path fill="none" stroke="midnightblue" d="M91.1282,-228.563C100.688,-226.214 110.658,-223.786 120,-221.551 133.075,-218.423 147.343,-215.09 160.258,-212.102"/>
<polygon fill="midnightblue" stroke="midnightblue" points="90.2283,-225.18 81.3568,-230.972 91.9039,-231.977 90.2283,-225.18"/>
</g>
<!-- Node9 -->
<g id="node9" class="node"><title>Node9</title>
<g id="a_node9"><a xlink:href="../../d1/dd5/class_shark_cell.html#ad9215a6aaab9153ae732d48165bd08a6" target="_top" xlink:title="SharkCell.SharkCell">
<polygon fill="white" stroke="black" points="148,-155.051 148,-174.051 258,-174.051 258,-155.051 148,-155.051"/>
<text text-anchor="middle" x="203" y="-162.051" font-family="Helvetica,sans-Serif" font-size="10.00">SharkCell.SharkCell</text>
</a>
</g>
</g>
<!-- Node1&#45;&gt;Node9 -->
<g id="edge8" class="edge"><title>Node1&#45;&gt;Node9</title>
<path fill="none" stroke="midnightblue" d="M60.8799,-223.956C75.67,-211.101 97.7826,-193.807 120,-183.551 128.624,-179.57 138.155,-176.386 147.577,-173.85"/>
<polygon fill="midnightblue" stroke="midnightblue" points="58.2019,-221.655 53.0724,-230.925 62.8634,-226.877 58.2019,-221.655"/>
</g>
<!-- Node11 -->
<g id="node11" class="node"><title>Node11</title>
<g id="a_node11"><a xlink:href="../../d4/dd9/class_tree_cell.html#aaa4b3dd5eb3f891ea0bae57260fca34c" target="_top" xlink:title="TreeCell.TreeCell">
<polygon fill="white" stroke="black" points="156.5,-117.051 156.5,-136.051 249.5,-136.051 249.5,-117.051 156.5,-117.051"/>
<text text-anchor="middle" x="203" y="-124.051" font-family="Helvetica,sans-Serif" font-size="10.00">TreeCell.TreeCell</text>
</a>
</g>
</g>
<!-- Node1&#45;&gt;Node11 -->
<g id="edge10" class="edge"><title>Node1&#45;&gt;Node11</title>
<path fill="none" stroke="midnightblue" d="M52.8764,-222.056C65.4913,-200.284 89.4016,-164.678 120,-145.551 130.904,-138.734 144.002,-134.359 156.495,-131.552"/>
<polygon fill="midnightblue" stroke="midnightblue" points="49.7144,-220.54 47.8918,-230.976 55.8251,-223.954 49.7144,-220.54"/>
</g>
<!-- Node12 -->
<g id="node12" class="node"><title>Node12</title>
<g id="a_node12"><a xlink:href="../../df/df8/class_cell_society_view.html#a43ac2666d3a002024be53fe74028a576" target="_top" xlink:title="CellSocietyView.updateSimGrid">
<polygon fill="white" stroke="black" points="120.5,-79.0509 120.5,-98.0509 285.5,-98.0509 285.5,-79.0509 120.5,-79.0509"/>
<text text-anchor="middle" x="203" y="-86.0509" font-family="Helvetica,sans-Serif" font-size="10.00">CellSocietyView.updateSimGrid</text>
</a>
</g>
</g>
<!-- Node1&#45;&gt;Node12 -->
<g id="edge11" class="edge"><title>Node1&#45;&gt;Node12</title>
<path fill="none" stroke="midnightblue" d="M48.8315,-220.767C58.5665,-191.333 81.0074,-136.392 120,-107.551 125.169,-103.727 130.984,-100.657 137.07,-98.1935"/>
<polygon fill="midnightblue" stroke="midnightblue" points="45.3719,-220.102 45.7146,-230.691 52.0502,-222.199 45.3719,-220.102"/>
</g>
<!-- Node6 -->
<g id="node6" class="node"><title>Node6</title>
<g id="a_node6"><a xlink:href="../../d2/ddc/class_fish_cell.html#a618c77b7ef60dbc7a6e1b9bb6a9e4ca6" target="_top" xlink:title="FishCell.reproducingResult">
<polygon fill="white" stroke="black" points="327,-269.051 327,-288.051 467,-288.051 467,-269.051 327,-269.051"/>
<text text-anchor="middle" x="397" y="-276.051" font-family="Helvetica,sans-Serif" font-size="10.00">FishCell.reproducingResult</text>
</a>
</g>
</g>
<!-- Node5&#45;&gt;Node6 -->
<g id="edge5" class="edge"><title>Node5&#45;&gt;Node6</title>
<path fill="none" stroke="midnightblue" d="M258.228,-278.551C279.573,-278.551 304.341,-278.551 326.941,-278.551"/>
<polygon fill="midnightblue" stroke="midnightblue" points="258.049,-275.051 248.049,-278.551 258.049,-282.051 258.049,-275.051"/>
</g>
<!-- Node10 -->
<g id="node10" class="node"><title>Node10</title>
<g id="a_node10"><a xlink:href="../../d1/dd5/class_shark_cell.html#a1ca5694156b3281592e9606fae51d9ac" target="_top" xlink:title="SharkCell.reproducingResult">
<polygon fill="white" stroke="black" points="322,-155.051 322,-174.051 472,-174.051 472,-155.051 322,-155.051"/>
<text text-anchor="middle" x="397" y="-162.051" font-family="Helvetica,sans-Serif" font-size="10.00">SharkCell.reproducingResult</text>
</a>
</g>
</g>
<!-- Node9&#45;&gt;Node10 -->
<g id="edge9" class="edge"><title>Node9&#45;&gt;Node10</title>
<path fill="none" stroke="midnightblue" d="M268.664,-164.551C285.735,-164.551 304.29,-164.551 321.82,-164.551"/>
<polygon fill="midnightblue" stroke="midnightblue" points="268.25,-161.051 258.25,-164.551 268.25,-168.051 268.25,-161.051"/>
</g>
<!-- Node13 -->
<g id="node13" class="node"><title>Node13</title>
<g id="a_node13"><a xlink:href="../../d3/dff/class_cell_society.html#a0ff19c30a1cc433d8ea8444f6a5617f1" target="_top" xlink:title="CellSociety.updateGrid">
<polygon fill="white" stroke="black" points="335,-41.0509 335,-60.0509 459,-60.0509 459,-41.0509 335,-41.0509"/>
<text text-anchor="middle" x="397" y="-48.0509" font-family="Helvetica,sans-Serif" font-size="10.00">CellSociety.updateGrid</text>
</a>
</g>
</g>
<!-- Node12&#45;&gt;Node13 -->
<g id="edge12" class="edge"><title>Node12&#45;&gt;Node13</title>
<path fill="none" stroke="midnightblue" d="M262.298,-77.0128C289.683,-71.5929 321.933,-65.21 347.899,-60.071"/>
<polygon fill="midnightblue" stroke="midnightblue" points="261.58,-73.5869 252.45,-78.9619 262.939,-80.4537 261.58,-73.5869"/>
</g>
<!-- Node18 -->
<g id="node18" class="node"><title>Node18</title>
<g id="a_node18"><a xlink:href="../../d3/dff/class_cell_society.html#af9f22af39a97a58b26126020ca6c8844" target="_top" xlink:title="CellSociety.readNewXML">
<polygon fill="white" stroke="black" points="842,-98.0509 842,-117.051 974,-117.051 974,-98.0509 842,-98.0509"/>
<text text-anchor="middle" x="908" y="-105.051" font-family="Helvetica,sans-Serif" font-size="10.00">CellSociety.readNewXML</text>
</a>
</g>
</g>
<!-- Node12&#45;&gt;Node18 -->
<g id="edge24" class="edge"><title>Node12&#45;&gt;Node18</title>
<path fill="none" stroke="midnightblue" d="M295.818,-91.0325C439.924,-94.9273 715.708,-102.381 841.519,-105.781"/>
<polygon fill="midnightblue" stroke="midnightblue" points="295.765,-87.5299 285.674,-90.7583 295.576,-94.5273 295.765,-87.5299"/>
</g>
<!-- Node14 -->
<g id="node14" class="node"><title>Node14</title>
<g id="a_node14"><a xlink:href="../../d3/dff/class_cell_society.html#a656ff46d1459fb7f86b42e3c542506ee" target="_top" xlink:title="CellSociety.configureListeners">
<polygon fill="white" stroke="black" points="1028,-41.0509 1028,-60.0509 1186,-60.0509 1186,-41.0509 1028,-41.0509"/>
<text text-anchor="middle" x="1107" y="-48.0509" font-family="Helvetica,sans-Serif" font-size="10.00">CellSociety.configureListeners</text>
</a>
</g>
</g>
<!-- Node13&#45;&gt;Node14 -->
<g id="edge13" class="edge"><title>Node13&#45;&gt;Node14</title>
<path fill="none" stroke="midnightblue" d="M452.333,-38.9979C557.318,-18.4533 795.065,19.4072 992,-12.5509 1025.15,-17.9312 1061.7,-31.574 1084.25,-40.9585"/>
<polygon fill="midnightblue" stroke="midnightblue" points="451.421,-35.6106 442.293,-40.9895 452.783,-42.4768 451.421,-35.6106"/>
</g>
<!-- Node16 -->
<g id="node16" class="node"><title>Node16</title>
<g id="a_node16"><a xlink:href="../../d3/dff/class_cell_society.html#abf13a64ee79f2cb063447b499c695c58" target="_top" xlink:title="CellSociety.start">
<polygon fill="white" stroke="black" points="508.5,-41.0509 508.5,-60.0509 601.5,-60.0509 601.5,-41.0509 508.5,-41.0509"/>
<text text-anchor="middle" x="555" y="-48.0509" font-family="Helvetica,sans-Serif" font-size="10.00">CellSociety.start</text>
</a>
</g>
</g>
<!-- Node13&#45;&gt;Node16 -->
<g id="edge15" class="edge"><title>Node13&#45;&gt;Node16</title>
<path fill="none" stroke="midnightblue" d="M469.297,-50.5509C482.592,-50.5509 496.149,-50.5509 508.406,-50.5509"/>
<polygon fill="midnightblue" stroke="midnightblue" points="469.208,-47.051 459.208,-50.5509 469.208,-54.051 469.208,-47.051"/>
</g>
<!-- Node15 -->
<g id="node15" class="node"><title>Node15</title>
<g id="a_node15"><a xlink:href="../../d3/dff/class_cell_society.html#ac5e08680a3da358d402461bc25aa1727" target="_top" xlink:title="CellSociety.CellSociety">
<polygon fill="white" stroke="black" points="1222.5,-41.0509 1222.5,-60.0509 1345.5,-60.0509 1345.5,-41.0509 1222.5,-41.0509"/>
<text text-anchor="middle" x="1284" y="-48.0509" font-family="Helvetica,sans-Serif" font-size="10.00">CellSociety.CellSociety</text>
</a>
</g>
</g>
<!-- Node14&#45;&gt;Node15 -->
<g id="edge14" class="edge"><title>Node14&#45;&gt;Node15</title>
<path fill="none" stroke="midnightblue" d="M1196.09,-50.5509C1205.01,-50.5509 1213.92,-50.5509 1222.45,-50.5509"/>
<polygon fill="midnightblue" stroke="midnightblue" points="1196.03,-47.051 1186.03,-50.5509 1196.03,-54.051 1196.03,-47.051"/>
</g>
<!-- Node17 -->
<g id="node17" class="node"><title>Node17</title>
<g id="a_node17"><a xlink:href="../../d3/dff/class_cell_society.html#ab9e56a2a70e210e021b51e898508329b" target="_top" xlink:title="CellSociety.setupAnimation">
<polygon fill="white" stroke="black" points="640,-60.0509 640,-79.0509 786,-79.0509 786,-60.0509 640,-60.0509"/>
<text text-anchor="middle" x="713" y="-67.0509" font-family="Helvetica,sans-Serif" font-size="10.00">CellSociety.setupAnimation</text>
</a>
</g>
</g>
<!-- Node16&#45;&gt;Node17 -->
<g id="edge16" class="edge"><title>Node16&#45;&gt;Node17</title>
<path fill="none" stroke="midnightblue" d="M611.678,-57.3323C620.854,-58.4498 630.479,-59.622 639.984,-60.7798"/>
<polygon fill="midnightblue" stroke="midnightblue" points="611.891,-53.8324 601.541,-56.0976 611.044,-60.781 611.891,-53.8324"/>
</g>
<!-- Node19 -->
<g id="node19" class="node"><title>Node19</title>
<g id="a_node19"><a xlink:href="../../d3/dff/class_cell_society.html#adc5feda3db5472cea4e092d463681033" target="_top" xlink:title="CellSociety.reframeTimeline">
<polygon fill="white" stroke="black" points="638.5,-22.0509 638.5,-41.0509 787.5,-41.0509 787.5,-22.0509 638.5,-22.0509"/>
<text text-anchor="middle" x="713" y="-29.0509" font-family="Helvetica,sans-Serif" font-size="10.00">CellSociety.reframeTimeline</text>
</a>
</g>
</g>
<!-- Node16&#45;&gt;Node19 -->
<g id="edge19" class="edge"><title>Node16&#45;&gt;Node19</title>
<path fill="none" stroke="midnightblue" d="M611.497,-43.7916C620.162,-42.7364 629.231,-41.6317 638.226,-40.5363"/>
<polygon fill="midnightblue" stroke="midnightblue" points="611.044,-40.3208 601.541,-45.0043 611.891,-47.2695 611.044,-40.3208"/>
</g>
<!-- Node17&#45;&gt;Node18 -->
<g id="edge17" class="edge"><title>Node17&#45;&gt;Node18</title>
<path fill="none" stroke="midnightblue" d="M772.602,-81.0891C800.129,-86.509 832.548,-92.8919 858.648,-98.0309"/>
<polygon fill="midnightblue" stroke="midnightblue" points="773.19,-77.6378 762.702,-79.1399 771.838,-84.5059 773.19,-77.6378"/>
</g>
<!-- Node18&#45;&gt;Node14 -->
<g id="edge18" class="edge"><title>Node18&#45;&gt;Node14</title>
<path fill="none" stroke="midnightblue" d="M964.362,-95.6627C973.628,-93.4485 983.115,-91.0424 992,-88.5509 1022.33,-80.0454 1056.54,-68.3529 1079.51,-60.1923"/>
<polygon fill="midnightblue" stroke="midnightblue" points="963.371,-92.2998 954.431,-97.9851 964.965,-99.1158 963.371,-92.2998"/>
</g>
<!-- Node20 -->
<g id="node20" class="node"><title>Node20</title>
<g id="a_node20"><a xlink:href="../../d3/dff/class_cell_society.html#a8250bfacdaf51dabf6b9d1cafc0ce9b2" target="_top" xlink:title="CellSociety.increaseFrameRate">
<polygon fill="white" stroke="black" points="826.5,-22.0509 826.5,-41.0509 989.5,-41.0509 989.5,-22.0509 826.5,-22.0509"/>
<text text-anchor="middle" x="908" y="-29.0509" font-family="Helvetica,sans-Serif" font-size="10.00">CellSociety.increaseFrameRate</text>
</a>
</g>
</g>
<!-- Node19&#45;&gt;Node20 -->
<g id="edge20" class="edge"><title>Node19&#45;&gt;Node20</title>
<path fill="none" stroke="midnightblue" d="M797.719,-31.5509C807.198,-31.5509 816.845,-31.5509 826.285,-31.5509"/>
<polygon fill="midnightblue" stroke="midnightblue" points="797.516,-28.051 787.516,-31.5509 797.516,-35.051 797.516,-28.051"/>
</g>
<!-- Node21 -->
<g id="node21" class="node"><title>Node21</title>
<g id="a_node21"><a xlink:href="../../d3/dff/class_cell_society.html#a045267ba1843ca4a47891d7be73c2ac1" target="_top" xlink:title="CellSociety.decreaseFrameRate">
<polygon fill="white" stroke="black" points="824.5,-60.0509 824.5,-79.0509 991.5,-79.0509 991.5,-60.0509 824.5,-60.0509"/>
<text text-anchor="middle" x="908" y="-67.0509" font-family="Helvetica,sans-Serif" font-size="10.00">CellSociety.decreaseFrameRate</text>
</a>
</g>
</g>
<!-- Node19&#45;&gt;Node21 -->
<g id="edge22" class="edge"><title>Node19&#45;&gt;Node21</title>
<path fill="none" stroke="midnightblue" d="M772.602,-43.0891C800.129,-48.509 832.548,-54.8919 858.648,-60.0309"/>
<polygon fill="midnightblue" stroke="midnightblue" points="773.19,-39.6378 762.702,-41.1399 771.838,-46.5059 773.19,-39.6378"/>
</g>
<!-- Node20&#45;&gt;Node14 -->
<g id="edge21" class="edge"><title>Node20&#45;&gt;Node14</title>
<path fill="none" stroke="midnightblue" d="M999.842,-40.3123C1009.24,-41.2188 1018.73,-42.1343 1027.97,-43.0255"/>
<polygon fill="midnightblue" stroke="midnightblue" points="999.986,-36.8101 989.696,-39.3338 999.314,-43.7777 999.986,-36.8101"/>
</g>
<!-- Node21&#45;&gt;Node14 -->
<g id="edge23" class="edge"><title>Node21&#45;&gt;Node14</title>
<path fill="none" stroke="midnightblue" d="M1001.88,-60.5932C1010.59,-59.7526 1019.37,-58.9063 1027.93,-58.0808"/>
<polygon fill="midnightblue" stroke="midnightblue" points="1001.31,-57.1319 991.689,-61.5758 1001.98,-64.0995 1001.31,-57.1319"/>
</g>
</g>
</svg>
        <g id="navigator" transform="translate(0 0)" fill="#404254">
                <rect fill="#f2f5e9" fill-opacity="0.5" stroke="#606060" stroke-width=".5" x="0" y="0" width="60" height="60"/>
                <use id="zoomplus" xlink:href="#zoomPlus" x="17" y="9" onmousedown="handleZoom(evt,'in')"/>
                <use id="zoomminus" xlink:href="#zoomMin" x="42" y="9" onmousedown="handleZoom(evt,'out')"/>
                <use id="reset" xlink:href="#resetDef" x="30" y="36" onmousedown="handleReset()"/>
                <g id="arrowUp" xlink:href="#dirArrow" transform="translate(30 24)" onmousedown="handlePan(0,-1)">
                  <use xlink:href="#rim" fill="#404040">
                        <set attributeName="fill" to="#808080" begin="arrowUp.mouseover" end="arrowUp.mouseout"/>
                  </use>
                  <path fill="none" stroke="white" stroke-width="1.5" d="M0,-3.0v7 M-2.5,-0.5L0,-3.0L2.5,-0.5"/>
                </g>
                <g id="arrowRight" xlink:href="#dirArrow" transform="rotate(90) translate(36 -43)" onmousedown="handlePan(1,0)">
                  <use xlink:href="#rim" fill="#404040">
                        <set attributeName="fill" to="#808080" begin="arrowRight.mouseover" end="arrowRight.mouseout"/>
                  </use>
                  <path fill="none" stroke="white" stroke-width="1.5" d="M0,-3.0v7 M-2.5,-0.5L0,-3.0L2.5,-0.5"/>
                </g>
                <g id="arrowDown" xlink:href="#dirArrow" transform="rotate(180) translate(-30 -48)" onmousedown="handlePan(0,1)">
                  <use xlink:href="#rim" fill="#404040">
                        <set attributeName="fill" to="#808080" begin="arrowDown.mouseover" end="arrowDown.mouseout"/>
                  </use>
                  <path fill="none" stroke="white" stroke-width="1.5" d="M0,-3.0v7 M-2.5,-0.5L0,-3.0L2.5,-0.5"/>
                </g>
                <g id="arrowLeft" xlink:href="#dirArrow" transform="rotate(270) translate(-36 17)" onmousedown="handlePan(-1,0)">
                  <use xlink:href="#rim" fill="#404040">
                        <set attributeName="fill" to="#808080" begin="arrowLeft.mouseover" end="arrowLeft.mouseout"/>
                  </use>
                  <path fill="none" stroke="white" stroke-width="1.5" d="M0,-3.0v7 M-2.5,-0.5L0,-3.0L2.5,-0.5"/>
                </g>
        </g>
        <svg viewBox="0 0 15 15" width="100%" height="30px" preserveAspectRatio="xMaxYMin meet">
         <g id="arrow_out" transform="scale(0.3 0.3)">
          <a xlink:href="class_cell_a1e0ece61fecc69a9b7986d17d925434a_icgraph_org.svg" target="_base">
           <rect id="button" ry="5" rx="5" y="6" x="6" height="38" width="38"
                fill="#f2f5e9" fill-opacity="0.5" stroke="#606060" stroke-width="1.0"/>
           <path id="arrow"
             d="M 11.500037,31.436501 C 11.940474,20.09759 22.043105,11.32322 32.158766,21.979434 L 37.068811,17.246167 C 37.068811,17.246167 37.088388,32 37.088388,32 L 22.160133,31.978069 C 22.160133,31.978069 26.997745,27.140456 26.997745,27.140456 C 18.528582,18.264221 13.291696,25.230495 11.500037,31.436501 z"
             style="fill:#404040;"/>
          </a>
         </g>
        </svg>
</svg>
