<?xml version="1.0" encoding="UTF-8" standalone="no"?>
<!DOCTYPE svg PUBLIC "-//W3C//DTD SVG 1.1//EN"
 "http://www.w3.org/Graphics/SVG/1.1/DTD/svg11.dtd">
<!-- Generated by graphviz version 2.36.0 (20140111.2315)
 -->
<!-- Title: GroundCell Pages: 1 -->
<svg width="214pt" height="154pt"
 viewBox="0.00 0.00 214.00 154.00" xmlns="http://www.w3.org/2000/svg" xmlns:xlink="http://www.w3.org/1999/xlink">
<g id="graph0" class="graph" transform="scale(1 1) rotate(0) translate(4 150)">
<title>GroundCell</title>
<polygon fill="white" stroke="none" points="-4,4 -4,-150 210,-150 210,4 -4,4"/>
<!-- Node1 -->
<g id="node1" class="node"><title>Node1</title>
<polygon fill="#bfbfbf" stroke="black" points="119.5,-0.5 119.5,-19.5 188.5,-19.5 188.5,-0.5 119.5,-0.5"/>
<text text-anchor="middle" x="154" y="-7.5" font-family="Helvetica,sans-Serif" font-size="10.00">GroundCell</text>
</g>
<!-- Node2 -->
<g id="node2" class="node"><title>Node2</title>
<g id="a_node2"><a xlink:href="../../dd/d11/class_cell.html" target="_top" xlink:title="Cell">
<polygon fill="white" stroke="black" points="86,-58.5 86,-77.5 120,-77.5 120,-58.5 86,-58.5"/>
<text text-anchor="middle" x="103" y="-65.5" font-family="Helvetica,sans-Serif" font-size="10.00">Cell</text>
</a>
</g>
</g>
<!-- Node2&#45;&gt;Node1 -->
<g id="edge1" class="edge"><title>Node2&#45;&gt;Node1</title>
<path fill="none" stroke="midnightblue" d="M117.809,-50.739C127.111,-40.5255 138.73,-27.7674 146.254,-19.5052"/>
<polygon fill="midnightblue" stroke="midnightblue" points="115.114,-48.4999 110.969,-58.25 120.29,-53.2132 115.114,-48.4999"/>
</g>
<!-- Node3 -->
<g id="node3" class="node"><title>Node3</title>
<g id="a_node3"><a xlink:href="../../d2/dc7/class_ground.html" target="_top" xlink:title="Ground">
<polygon fill="white" stroke="black" points="0,-126.5 0,-145.5 52,-145.5 52,-126.5 0,-126.5"/>
<text text-anchor="middle" x="26" y="-133.5" font-family="Helvetica,sans-Serif" font-size="10.00">Ground</text>
</a>
</g>
</g>
<!-- Node3&#45;&gt;Node2 -->
<g id="edge2" class="edge"><title>Node3&#45;&gt;Node2</title>
<path fill="none" stroke="#9a32cd" stroke-dasharray="5,2" d="M31.9326,-116.584C34.9493,-109.46 39.2246,-101.674 45,-96 56.409,-84.7907 73.3344,-77.6489 85.9604,-73.5454"/>
<polygon fill="#9a32cd" stroke="#9a32cd" points="28.5543,-115.63 28.3853,-126.223 35.1236,-118.047 28.5543,-115.63"/>
<text text-anchor="middle" x="72" y="-99.5" font-family="Helvetica,sans-Serif" font-size="10.00"> myGround</text>
</g>
<!-- Node4 -->
<g id="node4" class="node"><title>Node4</title>
<polygon fill="white" stroke="#bfbfbf" points="79.5,-126.5 79.5,-145.5 126.5,-145.5 126.5,-126.5 79.5,-126.5"/>
<text text-anchor="middle" x="103" y="-133.5" font-family="Helvetica,sans-Serif" font-size="10.00">Shape</text>
</g>
<!-- Node4&#45;&gt;Node2 -->
<g id="edge3" class="edge"><title>Node4&#45;&gt;Node2</title>
<path fill="none" stroke="#9a32cd" stroke-dasharray="5,2" d="M103,-116.041C103,-103.472 103,-87.5631 103,-77.8411"/>
<polygon fill="#9a32cd" stroke="#9a32cd" points="99.5001,-116.372 103,-126.372 106.5,-116.372 99.5001,-116.372"/>
<text text-anchor="middle" x="127.5" y="-99.5" font-family="Helvetica,sans-Serif" font-size="10.00"> myShape</text>
</g>
<!-- Node5 -->
<g id="node5" class="node"><title>Node5</title>
<polygon fill="white" stroke="#bfbfbf" points="154.5,-126.5 154.5,-145.5 195.5,-145.5 195.5,-126.5 154.5,-126.5"/>
<text text-anchor="middle" x="175" y="-133.5" font-family="Helvetica,sans-Serif" font-size="10.00">Color</text>
</g>
<!-- Node5&#45;&gt;Node2 -->
<g id="edge4" class="edge"><title>Node5&#45;&gt;Node2</title>
<path fill="none" stroke="#9a32cd" stroke-dasharray="5,2" d="M167.4,-116.765C163.798,-109.669 158.964,-101.854 153,-96 143.707,-86.8773 130.704,-79.9839 120.288,-75.4463"/>
<polygon fill="#9a32cd" stroke="#9a32cd" points="164.437,-118.702 171.784,-126.336 170.802,-115.787 164.437,-118.702"/>
<text text-anchor="middle" x="184.5" y="-99.5" font-family="Helvetica,sans-Serif" font-size="10.00"> myColor</text>
</g>
<!-- Node6 -->
<g id="node6" class="node"><title>Node6</title>
<g id="a_node6"><a xlink:href="../../dd/dbc/interface_updatable.html" target="_top" xlink:title="Updatable">
<polygon fill="white" stroke="black" points="138,-58.5 138,-77.5 204,-77.5 204,-58.5 138,-58.5"/>
<text text-anchor="middle" x="171" y="-65.5" font-family="Helvetica,sans-Serif" font-size="10.00">Updatable</text>
</a>
</g>
</g>
<!-- Node6&#45;&gt;Node1 -->
<g id="edge5" class="edge"><title>Node6&#45;&gt;Node1</title>
<path fill="none" stroke="midnightblue" d="M165.409,-48.5811C162.433,-38.7787 158.916,-27.1948 156.582,-19.5052"/>
<polygon fill="midnightblue" stroke="midnightblue" points="162.09,-49.6979 168.344,-58.25 168.788,-47.6645 162.09,-49.6979"/>
</g>
</g>
</svg>
