<?xml version="1.0" encoding="UTF-8" standalone="no"?>
<!DOCTYPE svg PUBLIC "-//W3C//DTD SVG 1.1//EN"
 "http://www.w3.org/Graphics/SVG/1.1/DTD/svg11.dtd">
<!-- Generated by graphviz version 2.36.0 (20140111.2315)
 -->
<!-- Title: GroundCell Pages: 1 -->
<svg width="129pt" height="154pt"
 viewBox="0.00 0.00 129.00 154.00" xmlns="http://www.w3.org/2000/svg" xmlns:xlink="http://www.w3.org/1999/xlink">
<g id="graph0" class="graph" transform="scale(1 1) rotate(0) translate(4 150)">
<title>GroundCell</title>
<polygon fill="white" stroke="none" points="-4,4 -4,-150 125,-150 125,4 -4,4"/>
<!-- Node1 -->
<g id="node1" class="node"><title>Node1</title>
<polygon fill="#bfbfbf" stroke="black" points="36.5,-0.5 36.5,-19.5 105.5,-19.5 105.5,-0.5 36.5,-0.5"/>
<text text-anchor="middle" x="71" y="-7.5" font-family="Helvetica,sans-Serif" font-size="10.00">GroundCell</text>
</g>
<!-- Node2 -->
<g id="node2" class="node"><title>Node2</title>
<g id="a_node2"><a xlink:href="../../dd/d11/class_cell.html" target="_top" xlink:title="Cell">
<polygon fill="white" stroke="black" points="3,-58.5 3,-77.5 37,-77.5 37,-58.5 3,-58.5"/>
<text text-anchor="middle" x="20" y="-65.5" font-family="Helvetica,sans-Serif" font-size="10.00">Cell</text>
</a>
</g>
</g>
<!-- Node2&#45;&gt;Node1 -->
<g id="edge1" class="edge"><title>Node2&#45;&gt;Node1</title>
<path fill="none" stroke="midnightblue" d="M34.8091,-50.739C44.1107,-40.5255 55.7297,-27.7674 63.2542,-19.5052"/>
<polygon fill="midnightblue" stroke="midnightblue" points="32.1144,-48.4999 27.9688,-58.25 37.2898,-53.2132 32.1144,-48.4999"/>
</g>
<!-- Node3 -->
<g id="node3" class="node"><title>Node3</title>
<polygon fill="white" stroke="#bfbfbf" points="-0.5,-126.5 -0.5,-145.5 40.5,-145.5 40.5,-126.5 -0.5,-126.5"/>
<text text-anchor="middle" x="20" y="-133.5" font-family="Helvetica,sans-Serif" font-size="10.00">Color</text>
</g>
<!-- Node3&#45;&gt;Node2 -->
<g id="edge2" class="edge"><title>Node3&#45;&gt;Node2</title>
<path fill="none" stroke="#9a32cd" stroke-dasharray="5,2" d="M20,-116.041C20,-103.472 20,-87.5631 20,-77.8411"/>
<polygon fill="#9a32cd" stroke="#9a32cd" points="16.5001,-116.372 20,-126.372 23.5001,-116.372 16.5001,-116.372"/>
<text text-anchor="middle" x="41.5" y="-99.5" font-family="Helvetica,sans-Serif" font-size="10.00"> myColor</text>
</g>
<!-- Node4 -->
<g id="node4" class="node"><title>Node4</title>
<g id="a_node4"><a xlink:href="../../dd/dbc/interface_updatable.html" target="_top" xlink:title="Updatable">
<polygon fill="white" stroke="black" points="55,-58.5 55,-77.5 121,-77.5 121,-58.5 55,-58.5"/>
<text text-anchor="middle" x="88" y="-65.5" font-family="Helvetica,sans-Serif" font-size="10.00">Updatable</text>
</a>
</g>
</g>
<!-- Node4&#45;&gt;Node1 -->
<g id="edge3" class="edge"><title>Node4&#45;&gt;Node1</title>
<path fill="none" stroke="midnightblue" d="M82.4085,-48.5811C79.4328,-38.7787 75.9163,-27.1948 73.5819,-19.5052"/>
<polygon fill="midnightblue" stroke="midnightblue" points="79.0898,-49.6979 85.3438,-58.25 85.7879,-47.6645 79.0898,-49.6979"/>
</g>
</g>
</svg>
