<?xml version="1.0" encoding="UTF-8" standalone="no"?>
<!DOCTYPE svg PUBLIC "-//W3C//DTD SVG 1.1//EN"
 "http://www.w3.org/Graphics/SVG/1.1/DTD/svg11.dtd">
<!-- Generated by graphviz version 2.36.0 (20140111.2315)
 -->
<!-- Title: GroundCell Pages: 1 -->
<svg width="168pt" height="154pt"
 viewBox="0.00 0.00 168.00 154.00" xmlns="http://www.w3.org/2000/svg" xmlns:xlink="http://www.w3.org/1999/xlink">
<g id="graph0" class="graph" transform="scale(1 1) rotate(0) translate(4 150)">
<title>GroundCell</title>
<polygon fill="white" stroke="none" points="-4,4 -4,-150 164,-150 164,4 -4,4"/>
<!-- Node1 -->
<g id="node1" class="node"><title>Node1</title>
<polygon fill="#bfbfbf" stroke="black" points="75.5,-0.5 75.5,-19.5 144.5,-19.5 144.5,-0.5 75.5,-0.5"/>
<text text-anchor="middle" x="110" y="-7.5" font-family="Helvetica,sans-Serif" font-size="10.00">GroundCell</text>
</g>
<!-- Node2 -->
<g id="node2" class="node"><title>Node2</title>
<g id="a_node2"><a xlink:href="../../dd/d11/class_cell.html" target="_top" xlink:title="Cell">
<polygon fill="white" stroke="black" points="42,-58.5 42,-77.5 76,-77.5 76,-58.5 42,-58.5"/>
<text text-anchor="middle" x="59" y="-65.5" font-family="Helvetica,sans-Serif" font-size="10.00">Cell</text>
</a>
</g>
</g>
<!-- Node2&#45;&gt;Node1 -->
<g id="edge1" class="edge"><title>Node2&#45;&gt;Node1</title>
<path fill="none" stroke="midnightblue" d="M73.8091,-50.739C83.1107,-40.5255 94.7297,-27.7674 102.254,-19.5052"/>
<polygon fill="midnightblue" stroke="midnightblue" points="71.1144,-48.4999 66.9688,-58.25 76.2898,-53.2132 71.1144,-48.4999"/>
</g>
<!-- Node3 -->
<g id="node3" class="node"><title>Node3</title>
<polygon fill="white" stroke="#bfbfbf" points="-0.5,-126.5 -0.5,-145.5 46.5,-145.5 46.5,-126.5 -0.5,-126.5"/>
<text text-anchor="middle" x="23" y="-133.5" font-family="Helvetica,sans-Serif" font-size="10.00">Shape</text>
</g>
<!-- Node3&#45;&gt;Node2 -->
<g id="edge2" class="edge"><title>Node3&#45;&gt;Node2</title>
<path fill="none" stroke="#9a32cd" stroke-dasharray="5,2" d="M20.2518,-116.174C20.0916,-109.489 20.8972,-102.113 24,-96 27.9597,-88.1986 35.3334,-81.9912 42.2953,-77.5051"/>
<polygon fill="#9a32cd" stroke="#9a32cd" points="16.7937,-116.789 21.1981,-126.425 23.764,-116.146 16.7937,-116.789"/>
<text text-anchor="middle" x="48.5" y="-99.5" font-family="Helvetica,sans-Serif" font-size="10.00"> myShape</text>
</g>
<!-- Node4 -->
<g id="node4" class="node"><title>Node4</title>
<polygon fill="white" stroke="#bfbfbf" points="74.5,-126.5 74.5,-145.5 115.5,-145.5 115.5,-126.5 74.5,-126.5"/>
<text text-anchor="middle" x="95" y="-133.5" font-family="Helvetica,sans-Serif" font-size="10.00">Color</text>
</g>
<!-- Node4&#45;&gt;Node2 -->
<g id="edge3" class="edge"><title>Node4&#45;&gt;Node2</title>
<path fill="none" stroke="#9a32cd" stroke-dasharray="5,2" d="M85.4889,-117.563C78.5172,-104.781 69.3418,-87.9599 63.8224,-77.8411"/>
<polygon fill="#9a32cd" stroke="#9a32cd" points="82.4324,-119.269 90.2936,-126.372 88.5777,-115.917 82.4324,-119.269"/>
<text text-anchor="middle" x="102.5" y="-99.5" font-family="Helvetica,sans-Serif" font-size="10.00"> myColor</text>
</g>
<!-- Node5 -->
<g id="node5" class="node"><title>Node5</title>
<g id="a_node5"><a xlink:href="../../dd/dbc/interface_updatable.html" target="_top" xlink:title="Updatable">
<polygon fill="white" stroke="black" points="94,-58.5 94,-77.5 160,-77.5 160,-58.5 94,-58.5"/>
<text text-anchor="middle" x="127" y="-65.5" font-family="Helvetica,sans-Serif" font-size="10.00">Updatable</text>
</a>
</g>
</g>
<!-- Node5&#45;&gt;Node1 -->
<g id="edge4" class="edge"><title>Node5&#45;&gt;Node1</title>
<path fill="none" stroke="midnightblue" d="M121.409,-48.5811C118.433,-38.7787 114.916,-27.1948 112.582,-19.5052"/>
<polygon fill="midnightblue" stroke="midnightblue" points="118.09,-49.6979 124.344,-58.25 124.788,-47.6645 118.09,-49.6979"/>
</g>
</g>
</svg>
