<?xml version="1.0" encoding="UTF-8" standalone="no"?>
<!DOCTYPE svg PUBLIC "-//W3C//DTD SVG 1.1//EN"
 "http://www.w3.org/Graphics/SVG/1.1/DTD/svg11.dtd">
<!-- Generated by graphviz version 2.36.0 (20140111.2315)
 -->
<!-- Title: Updatable Pages: 1 -->
<svg width="157pt" height="84pt"
 viewBox="0.00 0.00 157.00 84.00" xmlns="http://www.w3.org/2000/svg" xmlns:xlink="http://www.w3.org/1999/xlink">
<g id="graph0" class="graph" transform="scale(1 1) rotate(0) translate(4 80)">
<title>Updatable</title>
<polygon fill="white" stroke="none" points="-4,4 -4,-80 153,-80 153,4 -4,4"/>
<!-- Node1 -->
<g id="node1" class="node"><title>Node1</title>
<polygon fill="#bfbfbf" stroke="black" points="40,-56.5 40,-75.5 106,-75.5 106,-56.5 40,-56.5"/>
<text text-anchor="middle" x="73" y="-63.5" font-family="Helvetica,sans-Serif" font-size="10.00">Updatable</text>
</g>
<!-- Node2 -->
<g id="node2" class="node"><title>Node2</title>
<g id="a_node2"><a xlink:href="../../db/dfe/class_agent_cell.html" target="_top" xlink:title="AgentCell">
<polygon fill="white" stroke="black" points="0,-0.5 0,-19.5 62,-19.5 62,-0.5 0,-0.5"/>
<text text-anchor="middle" x="31" y="-7.5" font-family="Helvetica,sans-Serif" font-size="10.00">AgentCell</text>
</a>
</g>
</g>
<!-- Node1&#45;&gt;Node2 -->
<g id="edge1" class="edge"><title>Node1&#45;&gt;Node2</title>
<path fill="none" stroke="midnightblue" d="M59.8898,-48.144C52.5722,-38.7357 43.7591,-27.4046 37.8064,-19.7511"/>
<polygon fill="midnightblue" stroke="midnightblue" points="57.1624,-50.3383 66.0646,-56.083 62.6878,-46.0406 57.1624,-50.3383"/>
</g>
<!-- Node3 -->
<g id="node3" class="node"><title>Node3</title>
<g id="a_node3"><a xlink:href="../../d7/dd7/class_ground_cell.html" target="_top" xlink:title="GroundCell">
<polygon fill="white" stroke="black" points="80.5,-0.5 80.5,-19.5 149.5,-19.5 149.5,-0.5 80.5,-0.5"/>
<text text-anchor="middle" x="115" y="-7.5" font-family="Helvetica,sans-Serif" font-size="10.00">GroundCell</text>
</a>
</g>
</g>
<!-- Node1&#45;&gt;Node3 -->
<g id="edge2" class="edge"><title>Node1&#45;&gt;Node3</title>
<path fill="none" stroke="midnightblue" d="M86.1102,-48.144C93.4278,-38.7357 102.241,-27.4046 108.194,-19.7511"/>
<polygon fill="midnightblue" stroke="midnightblue" points="83.3122,-46.0406 79.9354,-56.083 88.8376,-50.3383 83.3122,-46.0406"/>
</g>
</g>
</svg>
