<?xml version="1.0" encoding="UTF-8" standalone="no"?>
<!DOCTYPE svg PUBLIC "-//W3C//DTD SVG 1.1//EN"
 "http://www.w3.org/Graphics/SVG/1.1/DTD/svg11.dtd">
<!-- Generated by graphviz version 2.36.0 (20140111.2315)
 -->
<!-- Title: Cell Pages: 1 -->
<svg width="131pt" height="96pt"
 viewBox="0.00 0.00 131.00 96.00" xmlns="http://www.w3.org/2000/svg" xmlns:xlink="http://www.w3.org/1999/xlink">
<g id="graph0" class="graph" transform="scale(1 1) rotate(0) translate(4 92)">
<title>Cell</title>
<polygon fill="white" stroke="none" points="-4,4 -4,-92 127,-92 127,4 -4,4"/>
<!-- Node1 -->
<g id="node1" class="node"><title>Node1</title>
<polygon fill="#bfbfbf" stroke="black" points="42,-0.5 42,-19.5 76,-19.5 76,-0.5 42,-0.5"/>
<text text-anchor="middle" x="59" y="-7.5" font-family="Helvetica,sans-Serif" font-size="10.00">Cell</text>
</g>
<!-- Node2 -->
<g id="node2" class="node"><title>Node2</title>
<polygon fill="white" stroke="#bfbfbf" points="-0.5,-68.5 -0.5,-87.5 46.5,-87.5 46.5,-68.5 -0.5,-68.5"/>
<text text-anchor="middle" x="23" y="-75.5" font-family="Helvetica,sans-Serif" font-size="10.00">Shape</text>
</g>
<!-- Node2&#45;&gt;Node1 -->
<g id="edge1" class="edge"><title>Node2&#45;&gt;Node1</title>
<path fill="none" stroke="#9a32cd" stroke-dasharray="5,2" d="M20.2518,-58.1736C20.0916,-51.4892 20.8972,-44.1132 24,-38 27.9597,-30.1986 35.3334,-23.9912 42.2953,-19.5051"/>
<polygon fill="#9a32cd" stroke="#9a32cd" points="16.7937,-58.7893 21.1981,-68.4252 23.764,-58.1458 16.7937,-58.7893"/>
<text text-anchor="middle" x="48.5" y="-41.5" font-family="Helvetica,sans-Serif" font-size="10.00"> myShape</text>
</g>
<!-- Node3 -->
<g id="node3" class="node"><title>Node3</title>
<polygon fill="white" stroke="#bfbfbf" points="74.5,-68.5 74.5,-87.5 115.5,-87.5 115.5,-68.5 74.5,-68.5"/>
<text text-anchor="middle" x="95" y="-75.5" font-family="Helvetica,sans-Serif" font-size="10.00">Color</text>
</g>
<!-- Node3&#45;&gt;Node1 -->
<g id="edge2" class="edge"><title>Node3&#45;&gt;Node1</title>
<path fill="none" stroke="#9a32cd" stroke-dasharray="5,2" d="M85.4889,-59.563C78.5172,-46.7815 69.3418,-29.9599 63.8224,-19.8411"/>
<polygon fill="#9a32cd" stroke="#9a32cd" points="82.4324,-61.2687 90.2936,-68.3717 88.5777,-57.9167 82.4324,-61.2687"/>
<text text-anchor="middle" x="101.5" y="-41.5" font-family="Helvetica,sans-Serif" font-size="10.00"> myColor</text>
</g>
</g>
</svg>
