<?xml version="1.0" encoding="UTF-8" standalone="no"?>
<!DOCTYPE svg PUBLIC "-//W3C//DTD SVG 1.1//EN"
 "http://www.w3.org/Graphics/SVG/1.1/DTD/svg11.dtd">
<!-- Generated by graphviz version 2.36.0 (20140111.2315)
 -->
<!-- Title: Cell Pages: 1 -->
<svg width="214pt" height="96pt"
 viewBox="0.00 0.00 214.00 96.00" xmlns="http://www.w3.org/2000/svg" xmlns:xlink="http://www.w3.org/1999/xlink">
<g id="graph0" class="graph" transform="scale(1 1) rotate(0) translate(4 92)">
<title>Cell</title>
<polygon fill="white" stroke="none" points="-4,4 -4,-92 210,-92 210,4 -4,4"/>
<!-- Node1 -->
<g id="node1" class="node"><title>Node1</title>
<polygon fill="#bfbfbf" stroke="black" points="86,-0.5 86,-19.5 120,-19.5 120,-0.5 86,-0.5"/>
<text text-anchor="middle" x="103" y="-7.5" font-family="Helvetica,sans-Serif" font-size="10.00">Cell</text>
</g>
<!-- Node2 -->
<g id="node2" class="node"><title>Node2</title>
<g id="a_node2"><a xlink:href="../../d2/dc7/class_ground.html" target="_top" xlink:title="Ground">
<polygon fill="white" stroke="black" points="0,-68.5 0,-87.5 52,-87.5 52,-68.5 0,-68.5"/>
<text text-anchor="middle" x="26" y="-75.5" font-family="Helvetica,sans-Serif" font-size="10.00">Ground</text>
</a>
</g>
</g>
<!-- Node2&#45;&gt;Node1 -->
<g id="edge1" class="edge"><title>Node2&#45;&gt;Node1</title>
<path fill="none" stroke="#9a32cd" stroke-dasharray="5,2" d="M31.9326,-58.5835C34.9493,-51.4601 39.2246,-43.6743 45,-38 56.409,-26.7907 73.3344,-19.6489 85.9604,-15.5454"/>
<polygon fill="#9a32cd" stroke="#9a32cd" points="28.5543,-57.6296 28.3853,-68.2231 35.1236,-60.0471 28.5543,-57.6296"/>
<text text-anchor="middle" x="72" y="-41.5" font-family="Helvetica,sans-Serif" font-size="10.00"> myGround</text>
</g>
<!-- Node3 -->
<g id="node3" class="node"><title>Node3</title>
<polygon fill="white" stroke="#bfbfbf" points="79.5,-68.5 79.5,-87.5 126.5,-87.5 126.5,-68.5 79.5,-68.5"/>
<text text-anchor="middle" x="103" y="-75.5" font-family="Helvetica,sans-Serif" font-size="10.00">Shape</text>
</g>
<!-- Node3&#45;&gt;Node1 -->
<g id="edge2" class="edge"><title>Node3&#45;&gt;Node1</title>
<path fill="none" stroke="#9a32cd" stroke-dasharray="5,2" d="M103,-58.0413C103,-45.4724 103,-29.5631 103,-19.8411"/>
<polygon fill="#9a32cd" stroke="#9a32cd" points="99.5001,-58.3716 103,-68.3717 106.5,-58.3717 99.5001,-58.3716"/>
<text text-anchor="middle" x="127.5" y="-41.5" font-family="Helvetica,sans-Serif" font-size="10.00"> myShape</text>
</g>
<!-- Node4 -->
<g id="node4" class="node"><title>Node4</title>
<polygon fill="white" stroke="#bfbfbf" points="154.5,-68.5 154.5,-87.5 195.5,-87.5 195.5,-68.5 154.5,-68.5"/>
<text text-anchor="middle" x="175" y="-75.5" font-family="Helvetica,sans-Serif" font-size="10.00">Color</text>
</g>
<!-- Node4&#45;&gt;Node1 -->
<g id="edge3" class="edge"><title>Node4&#45;&gt;Node1</title>
<path fill="none" stroke="#9a32cd" stroke-dasharray="5,2" d="M167.4,-58.7653C163.798,-51.669 158.964,-43.8544 153,-38 143.707,-28.8773 130.704,-21.9839 120.288,-17.4463"/>
<polygon fill="#9a32cd" stroke="#9a32cd" points="164.437,-60.7019 171.784,-68.3362 170.802,-57.7869 164.437,-60.7019"/>
<text text-anchor="middle" x="184.5" y="-41.5" font-family="Helvetica,sans-Serif" font-size="10.00"> myColor</text>
</g>
</g>
</svg>
