<?xml version="1.0" encoding="UTF-8" standalone="no"?>
<!DOCTYPE svg PUBLIC "-//W3C//DTD SVG 1.1//EN"
 "http://www.w3.org/Graphics/SVG/1.1/DTD/svg11.dtd">
<!-- Generated by graphviz version 2.36.0 (20140111.2315)
 -->
<!-- Title: Cell Pages: 1 -->
<svg width="145pt" height="96pt"
 viewBox="0.00 0.00 145.00 96.00" xmlns="http://www.w3.org/2000/svg" xmlns:xlink="http://www.w3.org/1999/xlink">
<g id="graph0" class="graph" transform="scale(1 1) rotate(0) translate(4 92)">
<title>Cell</title>
<polygon fill="white" stroke="none" points="-4,4 -4,-92 141,-92 141,4 -4,4"/>
<!-- Node1 -->
<g id="node1" class="node"><title>Node1</title>
<polygon fill="#bfbfbf" stroke="black" points="47,-0.5 47,-19.5 81,-19.5 81,-0.5 47,-0.5"/>
<text text-anchor="middle" x="64" y="-7.5" font-family="Helvetica,sans-Serif" font-size="10.00">Cell</text>
</g>
<!-- Node2 -->
<g id="node2" class="node"><title>Node2</title>
<g id="a_node2"><a xlink:href="../../d2/dc7/class_ground.html" target="_top" xlink:title="Ground">
<polygon fill="white" stroke="black" points="0,-68.5 0,-87.5 52,-87.5 52,-68.5 0,-68.5"/>
<text text-anchor="middle" x="26" y="-75.5" font-family="Helvetica,sans-Serif" font-size="10.00">Ground</text>
</a>
</g>
</g>
<!-- Node2&#45;&gt;Node1 -->
<g id="edge1" class="edge"><title>Node2&#45;&gt;Node1</title>
<path fill="none" stroke="#9a32cd" stroke-dasharray="5,2" d="M23.1627,-58.1276C22.9934,-51.4385 23.8159,-44.0713 27,-38 31.2843,-29.8309 39.2829,-23.5213 46.75,-19.0634"/>
<polygon fill="#9a32cd" stroke="#9a32cd" points="19.7084,-58.7741 24.1423,-68.3965 26.6768,-58.1092 19.7084,-58.7741"/>
<text text-anchor="middle" x="54" y="-41.5" font-family="Helvetica,sans-Serif" font-size="10.00"> myGround</text>
</g>
<!-- Node3 -->
<g id="node3" class="node"><title>Node3</title>
<polygon fill="white" stroke="#bfbfbf" points="79.5,-68.5 79.5,-87.5 126.5,-87.5 126.5,-68.5 79.5,-68.5"/>
<text text-anchor="middle" x="103" y="-75.5" font-family="Helvetica,sans-Serif" font-size="10.00">Shape</text>
</g>
<!-- Node3&#45;&gt;Node1 -->
<g id="edge2" class="edge"><title>Node3&#45;&gt;Node1</title>
<path fill="none" stroke="#9a32cd" stroke-dasharray="5,2" d="M93.2644,-59.3202C89.5035,-52.6031 85.12,-44.9082 81,-38 77.3683,-31.9105 73.1183,-25.1605 69.7762,-19.9329"/>
<polygon fill="#9a32cd" stroke="#9a32cd" points="90.3117,-61.2127 98.2259,-68.2566 96.4317,-57.8147 90.3117,-61.2127"/>
<text text-anchor="middle" x="112.5" y="-41.5" font-family="Helvetica,sans-Serif" font-size="10.00"> myShape</text>
</g>
</g>
</svg>
