<?xml version="1.0" encoding="UTF-8" standalone="no"?>
<!DOCTYPE svg PUBLIC "-//W3C//DTD SVG 1.1//EN"
 "http://www.w3.org/Graphics/SVG/1.1/DTD/svg11.dtd">
<!-- Generated by graphviz version 2.36.0 (20140111.2315)
 -->
<!-- Title: Boundary Pages: 1 -->
<svg width="323pt" height="84pt"
 viewBox="0.00 0.00 323.00 84.00" xmlns="http://www.w3.org/2000/svg" xmlns:xlink="http://www.w3.org/1999/xlink">
<g id="graph0" class="graph" transform="scale(1 1) rotate(0) translate(4 80)">
<title>Boundary</title>
<polygon fill="white" stroke="none" points="-4,4 -4,-80 319,-80 319,4 -4,4"/>
<!-- Node1 -->
<g id="node1" class="node"><title>Node1</title>
<polygon fill="#bfbfbf" stroke="black" points="121,-56.5 121,-75.5 183,-75.5 183,-56.5 121,-56.5"/>
<text text-anchor="middle" x="152" y="-63.5" font-family="Helvetica,sans-Serif" font-size="10.00">Boundary</text>
</g>
<!-- Node2 -->
<g id="node2" class="node"><title>Node2</title>
<g id="a_node2"><a xlink:href="../../d6/dfd/class_finite_boundary.html" target="_top" xlink:title="FiniteBoundary">
<polygon fill="white" stroke="black" points="-0.5,-0.5 -0.5,-19.5 86.5,-19.5 86.5,-0.5 -0.5,-0.5"/>
<text text-anchor="middle" x="43" y="-7.5" font-family="Helvetica,sans-Serif" font-size="10.00">FiniteBoundary</text>
</a>
</g>
</g>
<!-- Node1&#45;&gt;Node2 -->
<g id="edge1" class="edge"><title>Node1&#45;&gt;Node2</title>
<path fill="none" stroke="midnightblue" d="M125.481,-51.8622C105.27,-41.8492 78.0129,-28.3458 60.4693,-19.6545"/>
<polygon fill="midnightblue" stroke="midnightblue" points="123.973,-55.0209 134.487,-56.324 127.08,-48.7485 123.973,-55.0209"/>
</g>
<!-- Node3 -->
<g id="node3" class="node"><title>Node3</title>
<g id="a_node3"><a xlink:href="../../d2/de6/class_infinite_boundary.html" target="_top" xlink:title="InfiniteBoundary">
<polygon fill="white" stroke="black" points="105,-0.5 105,-19.5 199,-19.5 199,-0.5 105,-0.5"/>
<text text-anchor="middle" x="152" y="-7.5" font-family="Helvetica,sans-Serif" font-size="10.00">InfiniteBoundary</text>
</a>
</g>
</g>
<!-- Node1&#45;&gt;Node3 -->
<g id="edge2" class="edge"><title>Node1&#45;&gt;Node3</title>
<path fill="none" stroke="midnightblue" d="M152,-45.8045C152,-36.9102 152,-26.7798 152,-19.7511"/>
<polygon fill="midnightblue" stroke="midnightblue" points="148.5,-46.083 152,-56.083 155.5,-46.083 148.5,-46.083"/>
</g>
<!-- Node4 -->
<g id="node4" class="node"><title>Node4</title>
<g id="a_node4"><a xlink:href="../../d6/d9e/class_toroidal_boundary.html" target="_top" xlink:title="ToroidalBoundary">
<polygon fill="white" stroke="black" points="217,-0.5 217,-19.5 315,-19.5 315,-0.5 217,-0.5"/>
<text text-anchor="middle" x="266" y="-7.5" font-family="Helvetica,sans-Serif" font-size="10.00">ToroidalBoundary</text>
</a>
</g>
</g>
<!-- Node1&#45;&gt;Node4 -->
<g id="edge3" class="edge"><title>Node1&#45;&gt;Node4</title>
<path fill="none" stroke="midnightblue" d="M179.242,-52.096C200.54,-42.0073 229.542,-28.2697 248.021,-19.5164"/>
<polygon fill="midnightblue" stroke="midnightblue" points="177.603,-48.9995 170.064,-56.4435 180.599,-55.3257 177.603,-48.9995"/>
</g>
</g>
</svg>
