<?xml version="1.0" encoding="UTF-8" standalone="no"?>
<!DOCTYPE svg PUBLIC "-//W3C//DTD SVG 1.1//EN"
 "http://www.w3.org/Graphics/SVG/1.1/DTD/svg11.dtd">
<!-- Generated by graphviz version 2.36.0 (20140111.2315)
 -->
<!-- Title: FishCell.reproducingResult Pages: 1 -->
<svg width="394pt" height="66pt"
 viewBox="0.00 0.00 394.00 66.00" xmlns="http://www.w3.org/2000/svg" xmlns:xlink="http://www.w3.org/1999/xlink">
<g id="graph0" class="graph" transform="scale(1 1) rotate(0) translate(4 62)">
<title>FishCell.reproducingResult</title>
<polygon fill="white" stroke="none" points="-4,4 -4,-62 390,-62 390,4 -4,4"/>
<!-- Node1 -->
<g id="node1" class="node"><title>Node1</title>
<polygon fill="#bfbfbf" stroke="black" points="0,-19.5 0,-38.5 140,-38.5 140,-19.5 0,-19.5"/>
<text text-anchor="middle" x="70" y="-26.5" font-family="Helvetica,sans-Serif" font-size="10.00">FishCell.reproducingResult</text>
</g>
<!-- Node2 -->
<g id="node2" class="node"><title>Node2</title>
<g id="a_node2"><a xlink:href="../../dd/d11/class_cell.html#a4412296dd81c007482c22cd6bef9bbaf" target="_top" xlink:title="Cell.Cell">
<polygon fill="white" stroke="black" points="194,-38.5 194,-57.5 248,-57.5 248,-38.5 194,-38.5"/>
<text text-anchor="middle" x="221" y="-45.5" font-family="Helvetica,sans-Serif" font-size="10.00">Cell.Cell</text>
</a>
</g>
</g>
<!-- Node1&#45;&gt;Node2 -->
<g id="edge1" class="edge"><title>Node1&#45;&gt;Node2</title>
<path fill="none" stroke="midnightblue" d="M140.266,-37.8325C155.257,-39.7442 170.533,-41.6921 183.648,-43.3645"/>
<polygon fill="midnightblue" stroke="midnightblue" points="183.294,-46.8477 193.657,-44.6408 184.18,-39.9039 183.294,-46.8477"/>
</g>
<!-- Node3 -->
<g id="node3" class="node"><title>Node3</title>
<g id="a_node3"><a xlink:href="../../d2/ddc/class_fish_cell.html#ac13e6b6ecb127f4691535618d6741170" target="_top" xlink:title="FishCell.FishCell">
<polygon fill="white" stroke="black" points="176,-0.5 176,-19.5 266,-19.5 266,-0.5 176,-0.5"/>
<text text-anchor="middle" x="221" y="-7.5" font-family="Helvetica,sans-Serif" font-size="10.00">FishCell.FishCell</text>
</a>
</g>
</g>
<!-- Node1&#45;&gt;Node3 -->
<g id="edge2" class="edge"><title>Node1&#45;&gt;Node3</title>
<path fill="none" stroke="midnightblue" d="M140.266,-20.1675C148.708,-19.0909 157.241,-18.0028 165.428,-16.9589"/>
<polygon fill="midnightblue" stroke="midnightblue" points="166.102,-20.4013 175.579,-15.6644 165.216,-13.4576 166.102,-20.4013"/>
</g>
<!-- Node4 -->
<g id="node4" class="node"><title>Node4</title>
<g id="a_node4"><a xlink:href="../../dd/d11/class_cell.html#a1e0ece61fecc69a9b7986d17d925434a" target="_top" xlink:title="Cell.getShape">
<polygon fill="white" stroke="black" points="302.5,-0.5 302.5,-19.5 385.5,-19.5 385.5,-0.5 302.5,-0.5"/>
<text text-anchor="middle" x="344" y="-7.5" font-family="Helvetica,sans-Serif" font-size="10.00">Cell.getShape</text>
</a>
</g>
</g>
<!-- Node3&#45;&gt;Node4 -->
<g id="edge3" class="edge"><title>Node3&#45;&gt;Node4</title>
<path fill="none" stroke="midnightblue" d="M266.026,-10C274.574,-10 283.597,-10 292.338,-10"/>
<polygon fill="midnightblue" stroke="midnightblue" points="292.425,-13.5001 302.425,-10 292.425,-6.5001 292.425,-13.5001"/>
</g>
</g>
</svg>
