<?xml version="1.0" encoding="UTF-8" standalone="no"?>
<!DOCTYPE svg PUBLIC "-//W3C//DTD SVG 1.1//EN"
 "http://www.w3.org/Graphics/SVG/1.1/DTD/svg11.dtd">
<!-- Generated by graphviz version 2.36.0 (20140111.2315)
 -->
<!-- Title: FishCell Pages: 1 -->
<svg width="314pt" height="154pt"
 viewBox="0.00 0.00 314.00 154.00" xmlns="http://www.w3.org/2000/svg" xmlns:xlink="http://www.w3.org/1999/xlink">
<g id="graph0" class="graph" transform="scale(1 1) rotate(0) translate(4 150)">
<title>FishCell</title>
<polygon fill="white" stroke="none" points="-4,4 -4,-150 310,-150 310,4 -4,4"/>
<!-- Node1 -->
<g id="node1" class="node"><title>Node1</title>
<polygon fill="#bfbfbf" stroke="black" points="127,-0.5 127,-19.5 179,-19.5 179,-0.5 127,-0.5"/>
<text text-anchor="middle" x="153" y="-7.5" font-family="Helvetica,sans-Serif" font-size="10.00">FishCell</text>
</g>
<!-- Node2 -->
<g id="node2" class="node"><title>Node2</title>
<g id="a_node2"><a xlink:href="../../dd/d11/class_cell.html" target="_top" xlink:title="Cell">
<polygon fill="white" stroke="black" points="78,-58.5 78,-77.5 112,-77.5 112,-58.5 78,-58.5"/>
<text text-anchor="middle" x="95" y="-65.5" font-family="Helvetica,sans-Serif" font-size="10.00">Cell</text>
</a>
</g>
</g>
<!-- Node2&#45;&gt;Node1 -->
<g id="edge1" class="edge"><title>Node2&#45;&gt;Node1</title>
<path fill="none" stroke="midnightblue" d="M111.528,-51.0416C122.158,-40.7786 135.549,-27.8492 144.191,-19.5052"/>
<polygon fill="midnightblue" stroke="midnightblue" points="108.825,-48.7861 104.062,-58.25 113.688,-53.8219 108.825,-48.7861"/>
</g>
<!-- Node3 -->
<g id="node3" class="node"><title>Node3</title>
<polygon fill="white" stroke="#bfbfbf" points="-0.5,-126.5 -0.5,-145.5 46.5,-145.5 46.5,-126.5 -0.5,-126.5"/>
<text text-anchor="middle" x="23" y="-133.5" font-family="Helvetica,sans-Serif" font-size="10.00">Shape</text>
</g>
<!-- Node3&#45;&gt;Node2 -->
<g id="edge2" class="edge"><title>Node3&#45;&gt;Node2</title>
<path fill="none" stroke="#9a32cd" stroke-dasharray="5,2" d="M28.5115,-116.666C31.3531,-109.555 35.4207,-101.756 41,-96 51.1399,-85.5382 66.1886,-78.4773 77.8259,-74.2084"/>
<polygon fill="#9a32cd" stroke="#9a32cd" points="25.1494,-115.68 25.192,-126.275 31.7657,-117.966 25.1494,-115.68"/>
<text text-anchor="middle" x="65.5" y="-99.5" font-family="Helvetica,sans-Serif" font-size="10.00"> myShape</text>
</g>
<!-- Node4 -->
<g id="node4" class="node"><title>Node4</title>
<polygon fill="white" stroke="#bfbfbf" points="103.5,-126.5 103.5,-145.5 144.5,-145.5 144.5,-126.5 103.5,-126.5"/>
<text text-anchor="middle" x="124" y="-133.5" font-family="Helvetica,sans-Serif" font-size="10.00">Color</text>
</g>
<!-- Node4&#45;&gt;Node1 -->
<g id="edge5" class="edge"><title>Node4&#45;&gt;Node1</title>
<path fill="none" stroke="#9a32cd" stroke-dasharray="5,2" d="M134.957,-117.411C136.51,-114.358 137.938,-111.15 139,-108 149.601,-76.5604 152.175,-36.7362 152.8,-19.5425"/>
<polygon fill="#9a32cd" stroke="#9a32cd" points="131.758,-115.955 129.855,-126.378 137.842,-119.417 131.758,-115.955"/>
<text text-anchor="middle" x="171.5" y="-65.5" font-family="Helvetica,sans-Serif" font-size="10.00"> myColor</text>
</g>
<!-- Node4&#45;&gt;Node2 -->
<g id="edge3" class="edge"><title>Node4&#45;&gt;Node2</title>
<path fill="none" stroke="#9a32cd" stroke-dasharray="5,2" d="M103.643,-119.257C100.557,-115.893 97.8056,-112.103 96,-108 91.7437,-98.3292 92.3034,-85.9625 93.3902,-77.7767"/>
<polygon fill="#9a32cd" stroke="#9a32cd" points="101.464,-122.011 111.161,-126.279 106.242,-116.895 101.464,-122.011"/>
<text text-anchor="middle" x="117.5" y="-99.5" font-family="Helvetica,sans-Serif" font-size="10.00"> myColor</text>
</g>
<!-- Node5 -->
<g id="node5" class="node"><title>Node5</title>
<g id="a_node5"><a xlink:href="../../d1/dd8/interface_reproducing_cell.html" target="_top" xlink:title="ReproducingCell">
<polygon fill="white" stroke="black" points="214,-58.5 214,-77.5 306,-77.5 306,-58.5 214,-58.5"/>
<text text-anchor="middle" x="260" y="-65.5" font-family="Helvetica,sans-Serif" font-size="10.00">ReproducingCell</text>
</a>
</g>
</g>
<!-- Node5&#45;&gt;Node1 -->
<g id="edge4" class="edge"><title>Node5&#45;&gt;Node1</title>
<path fill="none" stroke="midnightblue" d="M234.79,-53.8058C214.586,-43.2319 186.826,-28.7035 169.404,-19.5852"/>
<polygon fill="midnightblue" stroke="midnightblue" points="233.266,-56.9588 243.749,-58.4948 236.512,-50.7568 233.266,-56.9588"/>
</g>
</g>
</svg>
