<?xml version="1.0" encoding="UTF-8" standalone="no"?>
<!DOCTYPE svg PUBLIC "-//W3C//DTD SVG 1.1//EN"
 "http://www.w3.org/Graphics/SVG/1.1/DTD/svg11.dtd">
<!-- Generated by graphviz version 2.36.0 (20140111.2315)
 -->
<!-- Title: FishCell Pages: 1 -->
<svg width="394pt" height="154pt"
 viewBox="0.00 0.00 394.00 154.00" xmlns="http://www.w3.org/2000/svg" xmlns:xlink="http://www.w3.org/1999/xlink">
<g id="graph0" class="graph" transform="scale(1 1) rotate(0) translate(4 150)">
<title>FishCell</title>
<polygon fill="white" stroke="none" points="-4,4 -4,-150 390,-150 390,4 -4,4"/>
<!-- Node1 -->
<g id="node1" class="node"><title>Node1</title>
<polygon fill="#bfbfbf" stroke="black" points="207,-0.5 207,-19.5 259,-19.5 259,-0.5 207,-0.5"/>
<text text-anchor="middle" x="233" y="-7.5" font-family="Helvetica,sans-Serif" font-size="10.00">FishCell</text>
</g>
<!-- Node2 -->
<g id="node2" class="node"><title>Node2</title>
<g id="a_node2"><a xlink:href="../../dd/d11/class_cell.html" target="_top" xlink:title="Cell">
<polygon fill="white" stroke="black" points="112,-58.5 112,-77.5 146,-77.5 146,-58.5 112,-58.5"/>
<text text-anchor="middle" x="129" y="-65.5" font-family="Helvetica,sans-Serif" font-size="10.00">Cell</text>
</a>
</g>
</g>
<!-- Node2&#45;&gt;Node1 -->
<g id="edge1" class="edge"><title>Node2&#45;&gt;Node1</title>
<path fill="none" stroke="midnightblue" d="M153.771,-53.662C173.385,-43.1005 200.199,-28.6622 217.056,-19.5852"/>
<polygon fill="midnightblue" stroke="midnightblue" points="151.941,-50.6721 144.795,-58.4948 155.259,-56.8354 151.941,-50.6721"/>
</g>
<!-- Node3 -->
<g id="node3" class="node"><title>Node3</title>
<g id="a_node3"><a xlink:href="../../d2/dc7/class_ground.html" target="_top" xlink:title="Ground">
<polygon fill="white" stroke="black" points="0,-126.5 0,-145.5 52,-145.5 52,-126.5 0,-126.5"/>
<text text-anchor="middle" x="26" y="-133.5" font-family="Helvetica,sans-Serif" font-size="10.00">Ground</text>
</a>
</g>
</g>
<!-- Node3&#45;&gt;Node2 -->
<g id="edge2" class="edge"><title>Node3&#45;&gt;Node2</title>
<path fill="none" stroke="#9a32cd" stroke-dasharray="5,2" d="M30.8758,-116.731C33.6525,-109.407 37.843,-101.433 44,-96 63.1568,-79.097 92.93,-72.7667 111.676,-70.402"/>
<polygon fill="#9a32cd" stroke="#9a32cd" points="27.5218,-115.73 27.8344,-126.32 34.1942,-117.846 27.5218,-115.73"/>
<text text-anchor="middle" x="71" y="-99.5" font-family="Helvetica,sans-Serif" font-size="10.00"> myGround</text>
</g>
<!-- Node4 -->
<g id="node4" class="node"><title>Node4</title>
<polygon fill="white" stroke="#bfbfbf" points="79.5,-126.5 79.5,-145.5 126.5,-145.5 126.5,-126.5 79.5,-126.5"/>
<text text-anchor="middle" x="103" y="-133.5" font-family="Helvetica,sans-Serif" font-size="10.00">Shape</text>
</g>
<!-- Node4&#45;&gt;Node2 -->
<g id="edge3" class="edge"><title>Node4&#45;&gt;Node2</title>
<path fill="none" stroke="#9a32cd" stroke-dasharray="5,2" d="M100.819,-116.181C100.738,-109.588 101.45,-102.27 104,-96 106.936,-88.7806 112.752,-82.3101 118.035,-77.5144"/>
<polygon fill="#9a32cd" stroke="#9a32cd" points="97.3351,-116.542 101.516,-126.277 104.318,-116.059 97.3351,-116.542"/>
<text text-anchor="middle" x="128.5" y="-99.5" font-family="Helvetica,sans-Serif" font-size="10.00"> myShape</text>
</g>
<!-- Node5 -->
<g id="node5" class="node"><title>Node5</title>
<polygon fill="white" stroke="#bfbfbf" points="183.5,-126.5 183.5,-145.5 224.5,-145.5 224.5,-126.5 183.5,-126.5"/>
<text text-anchor="middle" x="204" y="-133.5" font-family="Helvetica,sans-Serif" font-size="10.00">Color</text>
</g>
<!-- Node5&#45;&gt;Node1 -->
<g id="edge6" class="edge"><title>Node5&#45;&gt;Node1</title>
<path fill="none" stroke="#9a32cd" stroke-dasharray="5,2" d="M214.957,-117.411C216.51,-114.358 217.938,-111.15 219,-108 229.601,-76.5604 232.175,-36.7362 232.8,-19.5425"/>
<polygon fill="#9a32cd" stroke="#9a32cd" points="211.758,-115.955 209.855,-126.378 217.842,-119.417 211.758,-115.955"/>
<text text-anchor="middle" x="251.5" y="-65.5" font-family="Helvetica,sans-Serif" font-size="10.00"> myColor</text>
</g>
<!-- Node5&#45;&gt;Node2 -->
<g id="edge4" class="edge"><title>Node5&#45;&gt;Node2</title>
<path fill="none" stroke="#9a32cd" stroke-dasharray="5,2" d="M186.287,-119.412C171.553,-106.447 151.109,-88.4559 139.047,-77.8411"/>
<polygon fill="#9a32cd" stroke="#9a32cd" points="184.376,-122.393 194.195,-126.372 189,-117.138 184.376,-122.393"/>
<text text-anchor="middle" x="195.5" y="-99.5" font-family="Helvetica,sans-Serif" font-size="10.00"> myColor</text>
</g>
<!-- Node6 -->
<g id="node6" class="node"><title>Node6</title>
<g id="a_node6"><a xlink:href="../../d1/dd8/interface_reproducing_cell.html" target="_top" xlink:title="ReproducingCell">
<polygon fill="white" stroke="black" points="294,-58.5 294,-77.5 386,-77.5 386,-58.5 294,-58.5"/>
<text text-anchor="middle" x="340" y="-65.5" font-family="Helvetica,sans-Serif" font-size="10.00">ReproducingCell</text>
</a>
</g>
</g>
<!-- Node6&#45;&gt;Node1 -->
<g id="edge5" class="edge"><title>Node6&#45;&gt;Node1</title>
<path fill="none" stroke="midnightblue" d="M314.79,-53.8058C294.586,-43.2319 266.826,-28.7035 249.404,-19.5852"/>
<polygon fill="midnightblue" stroke="midnightblue" points="313.266,-56.9588 323.749,-58.4948 316.512,-50.7568 313.266,-56.9588"/>
</g>
</g>
</svg>
