<?xml version="1.0" encoding="UTF-8" standalone="no"?>
<!DOCTYPE svg PUBLIC "-//W3C//DTD SVG 1.1//EN"
 "http://www.w3.org/Graphics/SVG/1.1/DTD/svg11.dtd">
<!-- Generated by graphviz version 2.36.0 (20140111.2315)
 -->
<!-- Title: Main Pages: 1 -->
<svg width="820pt" height="787pt"
 viewBox="0.00 0.00 820.00 787.00" xmlns="http://www.w3.org/2000/svg" xmlns:xlink="http://www.w3.org/1999/xlink">
<g id="graph0" class="graph" transform="scale(1 1) rotate(0) translate(4 783)">
<title>Main</title>
<polygon fill="white" stroke="none" points="-4,4 -4,-783 816,-783 816,4 -4,4"/>
<!-- Node1 -->
<g id="node1" class="node"><title>Node1</title>
<polygon fill="#bfbfbf" stroke="black" points="772.5,-122.5 772.5,-141.5 811.5,-141.5 811.5,-122.5 772.5,-122.5"/>
<text text-anchor="middle" x="792" y="-129.5" font-family="Helvetica,sans-Serif" font-size="10.00">Main</text>
</g>
<!-- Node2 -->
<g id="node2" class="node"><title>Node2</title>
<polygon fill="white" stroke="#bfbfbf" points="596.5,-138.5 596.5,-157.5 665.5,-157.5 665.5,-138.5 596.5,-138.5"/>
<text text-anchor="middle" x="631" y="-145.5" font-family="Helvetica,sans-Serif" font-size="10.00">Application</text>
</g>
<!-- Node2&#45;&gt;Node1 -->
<g id="edge1" class="edge"><title>Node2&#45;&gt;Node1</title>
<path fill="none" stroke="midnightblue" d="M676.046,-143.568C707.676,-140.385 748.721,-136.254 772.234,-133.888"/>
<polygon fill="midnightblue" stroke="midnightblue" points="675.319,-140.123 665.72,-144.607 676.02,-147.088 675.319,-140.123"/>
</g>
<!-- Node3 -->
<g id="node3" class="node"><title>Node3</title>
<g id="a_node3"><a xlink:href="../../d3/dff/class_cell_society.html" target="_top" xlink:title="CellSociety">
<polygon fill="white" stroke="black" points="596.5,-100.5 596.5,-119.5 665.5,-119.5 665.5,-100.5 596.5,-100.5"/>
<text text-anchor="middle" x="631" y="-107.5" font-family="Helvetica,sans-Serif" font-size="10.00">CellSociety</text>
</a>
</g>
</g>
<!-- Node3&#45;&gt;Node1 -->
<g id="edge2" class="edge"><title>Node3&#45;&gt;Node1</title>
<path fill="none" stroke="#9a32cd" stroke-dasharray="5,2" d="M675.938,-111.844C699.282,-113.355 728.371,-116.086 754,-121 760.055,-122.161 766.537,-123.908 772.356,-125.67"/>
<polygon fill="#9a32cd" stroke="#9a32cd" points="675.839,-108.332 665.649,-111.232 675.424,-115.32 675.839,-108.332"/>
<text text-anchor="middle" x="719" y="-124" font-family="Helvetica,sans-Serif" font-size="10.00"> mySimulation</text>
</g>
<!-- Node4 -->
<g id="node4" class="node"><title>Node4</title>
<g id="a_node4"><a xlink:href="../../dd/d11/class_cell.html" target="_top" xlink:title="Cell">
<polygon fill="white" stroke="black" points="189,-758.5 189,-777.5 223,-777.5 223,-758.5 189,-758.5"/>
<text text-anchor="middle" x="206" y="-765.5" font-family="Helvetica,sans-Serif" font-size="10.00">Cell</text>
</a>
</g>
</g>
<!-- Node4&#45;&gt;Node3 -->
<g id="edge3" class="edge"><title>Node4&#45;&gt;Node3</title>
<path fill="none" stroke="#9a32cd" stroke-dasharray="5,2" d="M233.232,-772.097C270.666,-776.428 339.765,-778.62 384,-745 565.227,-607.263 521.669,-491.548 578,-271 593.743,-209.363 560.414,-181.732 596,-129 598.572,-125.189 602.177,-122.061 606.084,-119.524"/>
<polygon fill="#9a32cd" stroke="#9a32cd" points="233.494,-768.602 223.126,-770.784 232.592,-775.543 233.494,-768.602"/>
<text text-anchor="middle" x="448" y="-729" font-family="Helvetica,sans-Serif" font-size="10.00"> myCells</text>
</g>
<!-- Node5 -->
<g id="node5" class="node"><title>Node5</title>
<polygon fill="white" stroke="#bfbfbf" points="0.5,-586.5 0.5,-605.5 47.5,-605.5 47.5,-586.5 0.5,-586.5"/>
<text text-anchor="middle" x="24" y="-593.5" font-family="Helvetica,sans-Serif" font-size="10.00">Shape</text>
</g>
<!-- Node5&#45;&gt;Node4 -->
<g id="edge4" class="edge"><title>Node5&#45;&gt;Node4</title>
<path fill="none" stroke="#9a32cd" stroke-dasharray="5,2" d="M34.3276,-615.085C51.0329,-647.288 89.1227,-712.38 140,-748 154.702,-758.293 174.86,-763.414 188.812,-765.876"/>
<polygon fill="#9a32cd" stroke="#9a32cd" points="37.3014,-613.209 29.6661,-605.864 31.0543,-616.368 37.3014,-613.209"/>
<text text-anchor="middle" x="94" y="-734" font-family="Helvetica,sans-Serif" font-size="10.00"> myShape</text>
</g>
<!-- Node15 -->
<g id="node15" class="node"><title>Node15</title>
<g id="a_node15"><a xlink:href="../../da/d74/class_grid.html" target="_top" xlink:title="Grid">
<polygon fill="white" stroke="black" points="188,-518.5 188,-537.5 224,-537.5 224,-518.5 188,-518.5"/>
<text text-anchor="middle" x="206" y="-525.5" font-family="Helvetica,sans-Serif" font-size="10.00">Grid</text>
</a>
</g>
</g>
<!-- Node5&#45;&gt;Node15 -->
<g id="edge15" class="edge"><title>Node5&#45;&gt;Node15</title>
<path fill="none" stroke="#9a32cd" stroke-dasharray="5,2" d="M54.6994,-582.196C77.6965,-571.789 110.499,-557.555 140,-547 156.051,-541.257 174.772,-535.924 187.99,-532.38"/>
<polygon fill="#9a32cd" stroke="#9a32cd" points="53.1282,-579.066 45.4821,-586.4 56.0329,-585.435 53.1282,-579.066"/>
<text text-anchor="middle" x="94" y="-580" font-family="Helvetica,sans-Serif" font-size="10.00"> myShapes</text>
</g>
<!-- Node6 -->
<g id="node6" class="node"><title>Node6</title>
<polygon fill="white" stroke="#bfbfbf" points="3.5,-758.5 3.5,-777.5 44.5,-777.5 44.5,-758.5 3.5,-758.5"/>
<text text-anchor="middle" x="24" y="-765.5" font-family="Helvetica,sans-Serif" font-size="10.00">Color</text>
</g>
<!-- Node6&#45;&gt;Node4 -->
<g id="edge5" class="edge"><title>Node6&#45;&gt;Node4</title>
<path fill="none" stroke="#9a32cd" stroke-dasharray="5,2" d="M54.6342,-768C92.9132,-768 158.223,-768 188.584,-768"/>
<polygon fill="#9a32cd" stroke="#9a32cd" points="54.6058,-764.5 44.6058,-768 54.6058,-771.5 54.6058,-764.5"/>
<text text-anchor="middle" x="94" y="-771" font-family="Helvetica,sans-Serif" font-size="10.00"> myColor</text>
</g>
<!-- Node7 -->
<g id="node7" class="node"><title>Node7</title>
<g id="a_node7"><a xlink:href="../../d2/d95/class_x_m_l_parser.html" target="_top" xlink:title="XMLParser">
<polygon fill="white" stroke="black" points="415,-120.5 415,-139.5 481,-139.5 481,-120.5 415,-120.5"/>
<text text-anchor="middle" x="448" y="-127.5" font-family="Helvetica,sans-Serif" font-size="10.00">XMLParser</text>
</a>
</g>
</g>
<!-- Node7&#45;&gt;Node3 -->
<g id="edge6" class="edge"><title>Node7&#45;&gt;Node3</title>
<path fill="none" stroke="#9a32cd" stroke-dasharray="5,2" d="M491.325,-125.323C523.346,-121.785 566.724,-116.992 596.388,-113.714"/>
<polygon fill="#9a32cd" stroke="#9a32cd" points="490.914,-121.847 481.359,-126.424 491.683,-128.805 490.914,-121.847"/>
<text text-anchor="middle" x="545" y="-126" font-family="Helvetica,sans-Serif" font-size="10.00"> myParser</text>
</g>
<!-- Node8 -->
<g id="node8" class="node"><title>Node8</title>
<polygon fill="white" stroke="#bfbfbf" points="140,-115 140,-145 272,-145 272,-115 140,-115"/>
<text text-anchor="start" x="148" y="-133" font-family="Helvetica,sans-Serif" font-size="10.00">List&lt; HashMap&lt; String,</text>
<text text-anchor="middle" x="206" y="-122" font-family="Helvetica,sans-Serif" font-size="10.00"> String &gt; &gt;</text>
</g>
<!-- Node8&#45;&gt;Node7 -->
<g id="edge7" class="edge"><title>Node8&#45;&gt;Node7</title>
<path fill="none" stroke="#9a32cd" stroke-dasharray="5,2" d="M282.487,-130C327.036,-130 381.122,-130 414.81,-130"/>
<polygon fill="#9a32cd" stroke="#9a32cd" points="282.264,-126.5 272.264,-130 282.264,-133.5 282.264,-126.5"/>
<text text-anchor="middle" x="337" y="-133" font-family="Helvetica,sans-Serif" font-size="10.00"> myCellParamList</text>
</g>
<!-- Node9 -->
<g id="node9" class="node"><title>Node9</title>
<polygon fill="white" stroke="#bfbfbf" points="176.5,-76.5 176.5,-95.5 235.5,-95.5 235.5,-76.5 176.5,-76.5"/>
<text text-anchor="middle" x="206" y="-83.5" font-family="Helvetica,sans-Serif" font-size="10.00">NodeList</text>
</g>
<!-- Node9&#45;&gt;Node7 -->
<g id="edge8" class="edge"><title>Node9&#45;&gt;Node7</title>
<path fill="none" stroke="#9a32cd" stroke-dasharray="5,2" d="M245.69,-91.5264C281.645,-96.8544 336.623,-105.491 384,-115 394.031,-117.013 404.892,-119.491 414.724,-121.848"/>
<polygon fill="#9a32cd" stroke="#9a32cd" points="246.026,-88.0384 235.624,-90.0476 245.009,-94.964 246.026,-88.0384"/>
<text text-anchor="middle" x="337" y="-118" font-family="Helvetica,sans-Serif" font-size="10.00"> myNodeList</text>
</g>
<!-- Node10 -->
<g id="node10" class="node"><title>Node10</title>
<polygon fill="white" stroke="#bfbfbf" points="145,-164.5 145,-183.5 267,-183.5 267,-164.5 145,-164.5"/>
<text text-anchor="middle" x="206" y="-171.5" font-family="Helvetica,sans-Serif" font-size="10.00">Map&lt; String, String &gt;</text>
</g>
<!-- Node10&#45;&gt;Node7 -->
<g id="edge9" class="edge"><title>Node10&#45;&gt;Node7</title>
<path fill="none" stroke="#9a32cd" stroke-dasharray="5,2" d="M276.904,-163.724C309.542,-158.625 348.862,-152.052 384,-145 394.031,-142.987 404.892,-140.509 414.724,-138.152"/>
<polygon fill="#9a32cd" stroke="#9a32cd" points="276.347,-160.268 267.001,-165.258 277.419,-167.186 276.347,-160.268"/>
<text text-anchor="middle" x="337" y="-176" font-family="Helvetica,sans-Serif" font-size="10.00"> myInitParam</text>
<text text-anchor="middle" x="337" y="-165" font-family="Helvetica,sans-Serif" font-size="10.00">mySimParam</text>
</g>
<!-- Node11 -->
<g id="node11" class="node"><title>Node11</title>
<polygon fill="white" stroke="#bfbfbf" points="420,-82.5 420,-101.5 476,-101.5 476,-82.5 420,-82.5"/>
<text text-anchor="middle" x="448" y="-89.5" font-family="Helvetica,sans-Serif" font-size="10.00">Timeline</text>
</g>
<!-- Node11&#45;&gt;Node3 -->
<g id="edge10" class="edge"><title>Node11&#45;&gt;Node3</title>
<path fill="none" stroke="#9a32cd" stroke-dasharray="5,2" d="M486.486,-90.34C512.349,-89.8118 547.445,-90.3181 578,-95 585.894,-96.2096 594.279,-98.2697 601.958,-100.482"/>
<polygon fill="#9a32cd" stroke="#9a32cd" points="486.261,-86.8446 476.358,-90.609 486.447,-93.8422 486.261,-86.8446"/>
<text text-anchor="middle" x="545" y="-98" font-family="Helvetica,sans-Serif" font-size="10.00"> myTimeline</text>
</g>
<!-- Node12 -->
<g id="node12" class="node"><title>Node12</title>
<g id="a_node12"><a xlink:href="../../df/df8/class_cell_society_view.html" target="_top" xlink:title="CellSocietyView">
<polygon fill="white" stroke="black" points="402.5,-456.5 402.5,-475.5 493.5,-475.5 493.5,-456.5 402.5,-456.5"/>
<text text-anchor="middle" x="448" y="-463.5" font-family="Helvetica,sans-Serif" font-size="10.00">CellSocietyView</text>
</a>
</g>
</g>
<!-- Node12&#45;&gt;Node3 -->
<g id="edge11" class="edge"><title>Node12&#45;&gt;Node3</title>
<path fill="none" stroke="#9a32cd" stroke-dasharray="5,2" d="M452.889,-446.541C464.905,-390.787 506.173,-228.118 596,-129 599.36,-125.292 603.619,-122.14 607.975,-119.533"/>
<polygon fill="#9a32cd" stroke="#9a32cd" points="449.43,-445.982 450.816,-456.486 456.283,-447.411 449.43,-445.982"/>
<text text-anchor="middle" x="545" y="-259" font-family="Helvetica,sans-Serif" font-size="10.00"> myView</text>
</g>
<!-- Node13 -->
<g id="node13" class="node"><title>Node13</title>
<polygon fill="white" stroke="#bfbfbf" points="183.5,-433.5 183.5,-452.5 228.5,-452.5 228.5,-433.5 183.5,-433.5"/>
<text text-anchor="middle" x="206" y="-440.5" font-family="Helvetica,sans-Serif" font-size="10.00">Stage</text>
</g>
<!-- Node13&#45;&gt;Node12 -->
<g id="edge12" class="edge"><title>Node13&#45;&gt;Node12</title>
<path fill="none" stroke="#9a32cd" stroke-dasharray="5,2" d="M238.924,-446.059C280.931,-450.085 354.981,-457.182 402.476,-461.733"/>
<polygon fill="#9a32cd" stroke="#9a32cd" points="239.01,-442.552 228.722,-445.082 238.342,-449.52 239.01,-442.552"/>
<text text-anchor="middle" x="337" y="-463" font-family="Helvetica,sans-Serif" font-size="10.00"> myStage</text>
</g>
<!-- Node14 -->
<g id="node14" class="node"><title>Node14</title>
<polygon fill="white" stroke="#bfbfbf" points="159.5,-395.5 159.5,-414.5 252.5,-414.5 252.5,-395.5 159.5,-395.5"/>
<text text-anchor="middle" x="206" y="-402.5" font-family="Helvetica,sans-Serif" font-size="10.00">ResourceBundle</text>
</g>
<!-- Node14&#45;&gt;Node12 -->
<g id="edge13" class="edge"><title>Node14&#45;&gt;Node12</title>
<path fill="none" stroke="#9a32cd" stroke-dasharray="5,2" d="M262.976,-411.435C298.24,-416.388 344.421,-424.534 384,-437 399.849,-441.992 416.917,-450.029 429.286,-456.377"/>
<polygon fill="#9a32cd" stroke="#9a32cd" points="263.249,-407.94 252.868,-410.061 262.306,-414.876 263.249,-407.94"/>
<text text-anchor="middle" x="337" y="-440" font-family="Helvetica,sans-Serif" font-size="10.00"> myResources</text>
</g>
<!-- Node15&#45;&gt;Node12 -->
<g id="edge14" class="edge"><title>Node15&#45;&gt;Node12</title>
<path fill="none" stroke="#9a32cd" stroke-dasharray="5,2" d="M234.153,-527.423C269.568,-525.945 333.014,-520.788 384,-503 402.683,-496.482 421.991,-484.168 434.224,-475.543"/>
<polygon fill="#9a32cd" stroke="#9a32cd" points="233.979,-523.927 224.107,-527.774 234.224,-530.923 233.979,-523.927"/>
<text text-anchor="middle" x="337" y="-526" font-family="Helvetica,sans-Serif" font-size="10.00"> mySimGrid</text>
</g>
<!-- Node16 -->
<g id="node16" class="node"><title>Node16</title>
<polygon fill="white" stroke="#bfbfbf" points="1,-513.5 1,-532.5 47,-532.5 47,-513.5 1,-513.5"/>
<text text-anchor="middle" x="24" y="-520.5" font-family="Helvetica,sans-Serif" font-size="10.00">Group</text>
</g>
<!-- Node16&#45;&gt;Node12 -->
<g id="edge25" class="edge"><title>Node16&#45;&gt;Node12</title>
<path fill="none" stroke="#9a32cd" stroke-dasharray="5,2" d="M57.2156,-514.911C80.1645,-509.415 111.812,-502.376 140,-498 247.636,-481.289 275.832,-487.817 384,-475 389.925,-474.298 396.153,-473.492 402.294,-472.656"/>
<polygon fill="#9a32cd" stroke="#9a32cd" points="56.2189,-511.551 47.3273,-517.312 57.8708,-518.353 56.2189,-511.551"/>
<text text-anchor="middle" x="206" y="-501" font-family="Helvetica,sans-Serif" font-size="10.00"> myDefaultGrid</text>
</g>
<!-- Node16&#45;&gt;Node15 -->
<g id="edge16" class="edge"><title>Node16&#45;&gt;Node15</title>
<path fill="none" stroke="#9a32cd" stroke-dasharray="5,2" d="M57.1732,-523.894C95.428,-524.956 157.859,-526.691 187.853,-527.524"/>
<polygon fill="#9a32cd" stroke="#9a32cd" points="57.1649,-520.392 47.0715,-523.613 56.9705,-527.39 57.1649,-520.392"/>
<text text-anchor="middle" x="94" y="-529" font-family="Helvetica,sans-Serif" font-size="10.00"> myGrid</text>
</g>
<!-- Node17 -->
<g id="node17" class="node"><title>Node17</title>
<polygon fill="white" stroke="#bfbfbf" points="148,-308 148,-338 264,-338 264,-308 148,-308"/>
<text text-anchor="start" x="156" y="-326" font-family="Helvetica,sans-Serif" font-size="10.00">LineChart&lt; Number,</text>
<text text-anchor="middle" x="206" y="-315" font-family="Helvetica,sans-Serif" font-size="10.00"> Number &gt;</text>
</g>
<!-- Node17&#45;&gt;Node12 -->
<g id="edge17" class="edge"><title>Node17&#45;&gt;Node12</title>
<path fill="none" stroke="#9a32cd" stroke-dasharray="5,2" d="M274.587,-323.85C309.978,-327.298 352.401,-336.457 384,-359 419.098,-384.039 437.808,-435.262 444.313,-456.474"/>
<polygon fill="#9a32cd" stroke="#9a32cd" points="274.586,-320.338 264.328,-322.988 274,-327.313 274.586,-320.338"/>
<text text-anchor="middle" x="337" y="-362" font-family="Helvetica,sans-Serif" font-size="10.00"> myChart</text>
</g>
<!-- Node18 -->
<g id="node18" class="node"><title>Node18</title>
<polygon fill="white" stroke="#bfbfbf" points="178,-269.5 178,-288.5 234,-288.5 234,-269.5 178,-269.5"/>
<text text-anchor="middle" x="206" y="-276.5" font-family="Helvetica,sans-Serif" font-size="10.00">TextField</text>
</g>
<!-- Node18&#45;&gt;Node12 -->
<g id="edge18" class="edge"><title>Node18&#45;&gt;Node12</title>
<path fill="none" stroke="#9a32cd" stroke-dasharray="5,2" d="M244.123,-281.772C289.553,-285.856 363.031,-294.925 384,-312 430.815,-350.122 443.181,-428.642 446.143,-456.188"/>
<polygon fill="#9a32cd" stroke="#9a32cd" points="244.319,-278.276 234.056,-280.906 243.719,-285.25 244.319,-278.276"/>
<text text-anchor="middle" x="337" y="-315" font-family="Helvetica,sans-Serif" font-size="10.00"> mySpeedTextField</text>
</g>
<!-- Node19 -->
<g id="node19" class="node"><title>Node19</title>
<polygon fill="white" stroke="#bfbfbf" points="181.5,-202.5 181.5,-221.5 230.5,-221.5 230.5,-202.5 181.5,-202.5"/>
<text text-anchor="middle" x="206" y="-209.5" font-family="Helvetica,sans-Serif" font-size="10.00">Button</text>
</g>
<!-- Node19&#45;&gt;Node12 -->
<g id="edge19" class="edge"><title>Node19&#45;&gt;Node12</title>
<path fill="none" stroke="#9a32cd" stroke-dasharray="5,2" d="M240.475,-202.301C279.426,-193.225 343.551,-185.427 384,-218 422.578,-249.066 441.751,-414.193 446.052,-456.248"/>
<polygon fill="#9a32cd" stroke="#9a32cd" points="239.532,-198.929 230.671,-204.736 241.22,-205.722 239.532,-198.929"/>
<text text-anchor="middle" x="337" y="-276" font-family="Helvetica,sans-Serif" font-size="10.00"> myXMLButton</text>
<text text-anchor="middle" x="337" y="-265" font-family="Helvetica,sans-Serif" font-size="10.00">myPauseButton</text>
<text text-anchor="middle" x="337" y="-254" font-family="Helvetica,sans-Serif" font-size="10.00">mySlowdownButton</text>
<text text-anchor="middle" x="337" y="-243" font-family="Helvetica,sans-Serif" font-size="10.00">mySpeedupButton</text>
<text text-anchor="middle" x="337" y="-232" font-family="Helvetica,sans-Serif" font-size="10.00">myStepButton</text>
<text text-anchor="middle" x="337" y="-221" font-family="Helvetica,sans-Serif" font-size="10.00">myPlayButton</text>
</g>
<!-- Node20 -->
<g id="node20" class="node"><title>Node20</title>
<polygon fill="white" stroke="#bfbfbf" points="142,-709 142,-739 270,-739 270,-709 142,-709"/>
<text text-anchor="start" x="150" y="-727" font-family="Helvetica,sans-Serif" font-size="10.00">List&lt; Series&lt; Number,</text>
<text text-anchor="middle" x="206" y="-716" font-family="Helvetica,sans-Serif" font-size="10.00"> Number &gt; &gt;</text>
</g>
<!-- Node20&#45;&gt;Node12 -->
<g id="edge20" class="edge"><title>Node20&#45;&gt;Node12</title>
<path fill="none" stroke="#9a32cd" stroke-dasharray="5,2" d="M280.344,-732.64C315.556,-732.739 356.059,-726.348 384,-702 419.488,-671.075 440.803,-516.31 445.839,-475.746"/>
<polygon fill="#9a32cd" stroke="#9a32cd" points="280.157,-729.136 270.089,-732.433 280.016,-736.135 280.157,-729.136"/>
<text text-anchor="middle" x="337" y="-735" font-family="Helvetica,sans-Serif" font-size="10.00"> mySeries</text>
</g>
<!-- Node21 -->
<g id="node21" class="node"><title>Node21</title>
<polygon fill="white" stroke="#bfbfbf" points="188.5,-670.5 188.5,-689.5 223.5,-689.5 223.5,-670.5 188.5,-670.5"/>
<text text-anchor="middle" x="206" y="-677.5" font-family="Helvetica,sans-Serif" font-size="10.00">Text</text>
</g>
<!-- Node21&#45;&gt;Node12 -->
<g id="edge21" class="edge"><title>Node21&#45;&gt;Node12</title>
<path fill="none" stroke="#9a32cd" stroke-dasharray="5,2" d="M233.89,-684.8C271.84,-689.953 341.242,-693.196 384,-658 442.234,-610.064 447.089,-507.221 447.151,-475.508"/>
<polygon fill="#9a32cd" stroke="#9a32cd" points="234.037,-681.283 223.627,-683.254 232.993,-688.205 234.037,-681.283"/>
<text text-anchor="middle" x="337" y="-691" font-family="Helvetica,sans-Serif" font-size="10.00"> myErrorMsg</text>
</g>
<!-- Node22 -->
<g id="node22" class="node"><title>Node22</title>
<polygon fill="white" stroke="#bfbfbf" points="187,-632.5 187,-651.5 225,-651.5 225,-632.5 187,-632.5"/>
<text text-anchor="middle" x="206" y="-639.5" font-family="Helvetica,sans-Serif" font-size="10.00">Font</text>
</g>
<!-- Node22&#45;&gt;Node12 -->
<g id="edge22" class="edge"><title>Node22&#45;&gt;Node12</title>
<path fill="none" stroke="#9a32cd" stroke-dasharray="5,2" d="M235.144,-638.887C282.104,-633.472 372.455,-622.037 384,-613 429.477,-577.402 442.644,-502.608 445.982,-475.811"/>
<polygon fill="#9a32cd" stroke="#9a32cd" points="234.559,-635.431 225.018,-640.038 235.35,-642.386 234.559,-635.431"/>
<text text-anchor="middle" x="337" y="-646" font-family="Helvetica,sans-Serif" font-size="10.00"> TITLE_FONT</text>
<text text-anchor="middle" x="337" y="-635" font-family="Helvetica,sans-Serif" font-size="10.00">ERROR_FONT</text>
</g>
<!-- Node23 -->
<g id="node23" class="node"><title>Node23</title>
<polygon fill="white" stroke="#bfbfbf" points="182.5,-594.5 182.5,-613.5 229.5,-613.5 229.5,-594.5 182.5,-594.5"/>
<text text-anchor="middle" x="206" y="-601.5" font-family="Helvetica,sans-Serif" font-size="10.00">Scene</text>
</g>
<!-- Node23&#45;&gt;Node12 -->
<g id="edge23" class="edge"><title>Node23&#45;&gt;Node12</title>
<path fill="none" stroke="#9a32cd" stroke-dasharray="5,2" d="M239.779,-602.811C284.365,-600.622 361.196,-594.643 384,-579 421.414,-553.334 439.009,-497.816 444.767,-475.537"/>
<polygon fill="#9a32cd" stroke="#9a32cd" points="239.553,-599.318 229.722,-603.267 239.87,-606.31 239.553,-599.318"/>
<text text-anchor="middle" x="337" y="-603" font-family="Helvetica,sans-Serif" font-size="10.00"> myScene</text>
</g>
<!-- Node24 -->
<g id="node24" class="node"><title>Node24</title>
<polygon fill="white" stroke="#bfbfbf" points="176.5,-556.5 176.5,-575.5 235.5,-575.5 235.5,-556.5 176.5,-556.5"/>
<text text-anchor="middle" x="206" y="-563.5" font-family="Helvetica,sans-Serif" font-size="10.00">GridPane</text>
</g>
<!-- Node24&#45;&gt;Node12 -->
<g id="edge24" class="edge"><title>Node24&#45;&gt;Node12</title>
<path fill="none" stroke="#9a32cd" stroke-dasharray="5,2" d="M245.617,-567.281C283.201,-566.893 340.806,-561.846 384,-538 411.191,-522.988 432.274,-491.49 441.663,-475.601"/>
<polygon fill="#9a32cd" stroke="#9a32cd" points="245.577,-563.781 235.576,-567.279 245.575,-570.781 245.577,-563.781"/>
<text text-anchor="middle" x="337" y="-568" font-family="Helvetica,sans-Serif" font-size="10.00"> myRoot</text>
</g>
<!-- Node25 -->
<g id="node25" class="node"><title>Node25</title>
<polygon fill="white" stroke="#bfbfbf" points="185,-357.5 185,-376.5 227,-376.5 227,-357.5 185,-357.5"/>
<text text-anchor="middle" x="206" y="-364.5" font-family="Helvetica,sans-Serif" font-size="10.00">HBox</text>
</g>
<!-- Node25&#45;&gt;Node12 -->
<g id="edge26" class="edge"><title>Node25&#45;&gt;Node12</title>
<path fill="none" stroke="#9a32cd" stroke-dasharray="5,2" d="M237.209,-367.621C273.968,-369.539 336.941,-376.642 384,-402 408.98,-415.461 430.284,-442.13 440.513,-456.423"/>
<polygon fill="#9a32cd" stroke="#9a32cd" points="237.271,-364.121 227.131,-367.192 236.973,-371.114 237.271,-364.121"/>
<text text-anchor="middle" x="337" y="-405" font-family="Helvetica,sans-Serif" font-size="10.00"> myTitleBox</text>
</g>
<!-- Node26 -->
<g id="node26" class="node"><title>Node26</title>
<g id="a_node26"><a xlink:href="../../d8/d87/class_controller.html" target="_top" xlink:title="Controller">
<polygon fill="white" stroke="black" points="416.5,-41.5 416.5,-60.5 479.5,-60.5 479.5,-41.5 416.5,-41.5"/>
<text text-anchor="middle" x="448" y="-48.5" font-family="Helvetica,sans-Serif" font-size="10.00">Controller</text>
</a>
</g>
</g>
<!-- Node26&#45;&gt;Node3 -->
<g id="edge27" class="edge"><title>Node26&#45;&gt;Node3</title>
<path fill="none" stroke="#9a32cd" stroke-dasharray="5,2" d="M489.904,-54.826C515.862,-58.2397 549.758,-64.5474 578,-76 592.994,-82.0801 608.269,-92.708 618.349,-100.467"/>
<polygon fill="#9a32cd" stroke="#9a32cd" points="490.013,-51.3134 479.662,-53.5739 489.163,-58.2616 490.013,-51.3134"/>
<text text-anchor="middle" x="545" y="-79" font-family="Helvetica,sans-Serif" font-size="10.00"> myController</text>
</g>
<!-- Node27 -->
<g id="node27" class="node"><title>Node27</title>
<g id="a_node27"><a xlink:href="../../dd/ddd/class_neighbor.html" target="_top" xlink:title="Neighbor">
<polygon fill="white" stroke="black" points="176,-0.5 176,-19.5 236,-19.5 236,-0.5 176,-0.5"/>
<text text-anchor="middle" x="206" y="-7.5" font-family="Helvetica,sans-Serif" font-size="10.00">Neighbor</text>
</a>
</g>
</g>
<!-- Node27&#45;&gt;Node26 -->
<g id="edge28" class="edge"><title>Node27&#45;&gt;Node26</title>
<path fill="none" stroke="#9a32cd" stroke-dasharray="5,2" d="M246.383,-14.3218C282.389,-18.5665 337.026,-25.746 384,-35 394.629,-37.094 406.146,-39.8674 416.389,-42.5164"/>
<polygon fill="#9a32cd" stroke="#9a32cd" points="246.627,-10.8267 236.291,-13.1514 245.821,-17.7801 246.627,-10.8267"/>
<text text-anchor="middle" x="337" y="-38" font-family="Helvetica,sans-Serif" font-size="10.00"> myNeighbor</text>
</g>
<!-- Node28 -->
<g id="node28" class="node"><title>Node28</title>
<g id="a_node28"><a xlink:href="../../d5/dda/class_boundary.html" target="_top" xlink:title="Boundary">
<polygon fill="white" stroke="black" points="175,-38.5 175,-57.5 237,-57.5 237,-38.5 175,-38.5"/>
<text text-anchor="middle" x="206" y="-45.5" font-family="Helvetica,sans-Serif" font-size="10.00">Boundary</text>
</a>
</g>
</g>
<!-- Node28&#45;&gt;Node26 -->
<g id="edge29" class="edge"><title>Node28&#45;&gt;Node26</title>
<path fill="none" stroke="#9a32cd" stroke-dasharray="5,2" d="M247.685,-48.5086C295.457,-49.1057 373.599,-50.0825 416.473,-50.6184"/>
<polygon fill="#9a32cd" stroke="#9a32cd" points="247.439,-45.0053 237.396,-48.38 247.352,-52.0048 247.439,-45.0053"/>
<text text-anchor="middle" x="337" y="-54" font-family="Helvetica,sans-Serif" font-size="10.00"> myBoundary</text>
</g>
<!-- Node29 -->
<g id="node29" class="node"><title>Node29</title>
<polygon fill="white" stroke="#bfbfbf" points="420,-3.5 420,-22.5 476,-22.5 476,-3.5 420,-3.5"/>
<text text-anchor="middle" x="448" y="-10.5" font-family="Helvetica,sans-Serif" font-size="10.00">Random</text>
</g>
<!-- Node29&#45;&gt;Node3 -->
<g id="edge30" class="edge"><title>Node29&#45;&gt;Node3</title>
<path fill="none" stroke="#9a32cd" stroke-dasharray="5,2" d="M486.499,-15.4633C513.711,-18.7365 550.432,-26.3428 578,-44 600.357,-58.3193 617.207,-85.6369 625.081,-100.233"/>
<polygon fill="#9a32cd" stroke="#9a32cd" points="486.521,-11.9463 476.208,-14.3756 485.785,-18.9075 486.521,-11.9463"/>
<text text-anchor="middle" x="545" y="-47" font-family="Helvetica,sans-Serif" font-size="10.00"> myRandom</text>
</g>
</g>
</svg>
