<?xml version="1.0" encoding="UTF-8" standalone="no"?>
<!DOCTYPE svg PUBLIC "-//W3C//DTD SVG 1.1//EN"
 "http://www.w3.org/Graphics/SVG/1.1/DTD/svg11.dtd">
<!-- Generated by graphviz version 2.36.0 (20140111.2315)
 -->
<!-- Title: Main Pages: 1 -->
<svg width="820pt" height="769pt"
 viewBox="0.00 0.00 820.00 769.03" xmlns="http://www.w3.org/2000/svg" xmlns:xlink="http://www.w3.org/1999/xlink">
<g id="graph0" class="graph" transform="scale(1 1) rotate(0) translate(4 765.032)">
<title>Main</title>
<polygon fill="white" stroke="none" points="-4,4 -4,-765.032 816,-765.032 816,4 -4,4"/>
<!-- Node1 -->
<g id="node1" class="node"><title>Node1</title>
<polygon fill="#bfbfbf" stroke="black" points="772.5,-348.532 772.5,-367.532 811.5,-367.532 811.5,-348.532 772.5,-348.532"/>
<text text-anchor="middle" x="792" y="-355.532" font-family="Helvetica,sans-Serif" font-size="10.00">Main</text>
</g>
<!-- Node2 -->
<g id="node2" class="node"><title>Node2</title>
<polygon fill="white" stroke="#bfbfbf" points="596.5,-364.532 596.5,-383.532 665.5,-383.532 665.5,-364.532 596.5,-364.532"/>
<text text-anchor="middle" x="631" y="-371.532" font-family="Helvetica,sans-Serif" font-size="10.00">Application</text>
</g>
<!-- Node2&#45;&gt;Node1 -->
<g id="edge1" class="edge"><title>Node2&#45;&gt;Node1</title>
<path fill="none" stroke="midnightblue" d="M676.046,-369.6C707.676,-366.417 748.721,-362.286 772.234,-359.92"/>
<polygon fill="midnightblue" stroke="midnightblue" points="675.319,-366.155 665.72,-370.639 676.02,-373.12 675.319,-366.155"/>
</g>
<!-- Node3 -->
<g id="node3" class="node"><title>Node3</title>
<g id="a_node3"><a xlink:href="../../d3/dff/class_cell_society.html" target="_top" xlink:title="CellSociety">
<polygon fill="white" stroke="black" points="596.5,-326.532 596.5,-345.532 665.5,-345.532 665.5,-326.532 596.5,-326.532"/>
<text text-anchor="middle" x="631" y="-333.532" font-family="Helvetica,sans-Serif" font-size="10.00">CellSociety</text>
</a>
</g>
</g>
<!-- Node3&#45;&gt;Node1 -->
<g id="edge2" class="edge"><title>Node3&#45;&gt;Node1</title>
<path fill="none" stroke="#9a32cd" stroke-dasharray="5,2" d="M675.938,-337.876C699.282,-339.387 728.371,-342.118 754,-347.032 760.055,-348.193 766.537,-349.94 772.356,-351.702"/>
<polygon fill="#9a32cd" stroke="#9a32cd" points="675.839,-334.364 665.649,-337.264 675.424,-341.352 675.839,-334.364"/>
<text text-anchor="middle" x="719" y="-350.032" font-family="Helvetica,sans-Serif" font-size="10.00"> mySimulation</text>
</g>
<!-- Node4 -->
<g id="node4" class="node"><title>Node4</title>
<g id="a_node4"><a xlink:href="../../dd/d11/class_cell.html" target="_top" xlink:title="Cell">
<polygon fill="white" stroke="black" points="431,-715.532 431,-734.532 465,-734.532 465,-715.532 431,-715.532"/>
<text text-anchor="middle" x="448" y="-722.532" font-family="Helvetica,sans-Serif" font-size="10.00">Cell</text>
</a>
</g>
</g>
<!-- Node4&#45;&gt;Node3 -->
<g id="edge3" class="edge"><title>Node4&#45;&gt;Node3</title>
<path fill="none" stroke="#9a32cd" stroke-dasharray="5,2" d="M462.688,-707.454C472.031,-695.089 484.404,-677.97 494,-662.032 537.059,-590.514 553.632,-573.876 578,-494.032 596.184,-434.451 561.084,-406.621 596,-355.032 598.577,-351.224 602.184,-348.099 606.092,-345.562"/>
<polygon fill="#9a32cd" stroke="#9a32cd" points="459.803,-705.464 456.504,-715.532 465.362,-709.719 459.803,-705.464"/>
<text text-anchor="middle" x="545" y="-635.032" font-family="Helvetica,sans-Serif" font-size="10.00"> myCells</text>
</g>
<!-- Node5 -->
<g id="node5" class="node"><title>Node5</title>
<polygon fill="white" stroke="#bfbfbf" points="185.5,-741.532 185.5,-760.532 226.5,-760.532 226.5,-741.532 185.5,-741.532"/>
<text text-anchor="middle" x="206" y="-748.532" font-family="Helvetica,sans-Serif" font-size="10.00">Color</text>
</g>
<!-- Node5&#45;&gt;Node4 -->
<g id="edge4" class="edge"><title>Node5&#45;&gt;Node4</title>
<path fill="none" stroke="#9a32cd" stroke-dasharray="5,2" d="M236.746,-747.809C288.002,-742.257 391.282,-731.068 430.965,-726.769"/>
<polygon fill="#9a32cd" stroke="#9a32cd" points="236.205,-744.348 226.64,-748.904 236.959,-751.307 236.205,-744.348"/>
<text text-anchor="middle" x="337" y="-745.032" font-family="Helvetica,sans-Serif" font-size="10.00"> myColor</text>
</g>
<!-- Node6 -->
<g id="node6" class="node"><title>Node6</title>
<g id="a_node6"><a xlink:href="../../d2/d95/class_x_m_l_parser.html" target="_top" xlink:title="XMLParser">
<polygon fill="white" stroke="black" points="415,-633.532 415,-652.532 481,-652.532 481,-633.532 415,-633.532"/>
<text text-anchor="middle" x="448" y="-640.532" font-family="Helvetica,sans-Serif" font-size="10.00">XMLParser</text>
</a>
</g>
</g>
<!-- Node6&#45;&gt;Node3 -->
<g id="edge5" class="edge"><title>Node6&#45;&gt;Node3</title>
<path fill="none" stroke="#9a32cd" stroke-dasharray="5,2" d="M454.571,-623.504C469.722,-573.346 515.993,-438.109 596,-355.032 599.471,-351.428 603.776,-348.32 608.143,-345.722"/>
<polygon fill="#9a32cd" stroke="#9a32cd" points="451.134,-622.784 451.666,-633.365 457.849,-624.762 451.134,-622.784"/>
<text text-anchor="middle" x="545" y="-482.032" font-family="Helvetica,sans-Serif" font-size="10.00"> myParser</text>
</g>
<!-- Node7 -->
<g id="node7" class="node"><title>Node7</title>
<polygon fill="white" stroke="#bfbfbf" points="140,-692.032 140,-722.032 272,-722.032 272,-692.032 140,-692.032"/>
<text text-anchor="start" x="148" y="-710.032" font-family="Helvetica,sans-Serif" font-size="10.00">List&lt; HashMap&lt; String,</text>
<text text-anchor="middle" x="206" y="-699.032" font-family="Helvetica,sans-Serif" font-size="10.00"> String &gt; &gt;</text>
</g>
<!-- Node7&#45;&gt;Node6 -->
<g id="edge6" class="edge"><title>Node7&#45;&gt;Node6</title>
<path fill="none" stroke="#9a32cd" stroke-dasharray="5,2" d="M282.303,-695.452C314.092,-689.606 351.253,-681.501 384,-671.032 399.391,-666.111 416.069,-658.594 428.397,-652.587"/>
<polygon fill="#9a32cd" stroke="#9a32cd" points="281.406,-692.057 272.183,-697.27 282.644,-698.946 281.406,-692.057"/>
<text text-anchor="middle" x="337" y="-697.032" font-family="Helvetica,sans-Serif" font-size="10.00"> myCellParamList</text>
</g>
<!-- Node8 -->
<g id="node8" class="node"><title>Node8</title>
<polygon fill="white" stroke="#bfbfbf" points="176.5,-653.532 176.5,-672.532 235.5,-672.532 235.5,-653.532 176.5,-653.532"/>
<text text-anchor="middle" x="206" y="-660.532" font-family="Helvetica,sans-Serif" font-size="10.00">NodeList</text>
</g>
<!-- Node8&#45;&gt;Node6 -->
<g id="edge7" class="edge"><title>Node8&#45;&gt;Node6</title>
<path fill="none" stroke="#9a32cd" stroke-dasharray="5,2" d="M246.059,-659.777C293.093,-655.858 371.201,-649.349 414.891,-645.708"/>
<polygon fill="#9a32cd" stroke="#9a32cd" points="245.624,-656.301 235.95,-660.62 246.206,-663.277 245.624,-656.301"/>
<text text-anchor="middle" x="337" y="-659.032" font-family="Helvetica,sans-Serif" font-size="10.00"> myNodeList</text>
</g>
<!-- Node9 -->
<g id="node9" class="node"><title>Node9</title>
<polygon fill="white" stroke="#bfbfbf" points="145,-613.532 145,-632.532 267,-632.532 267,-613.532 145,-613.532"/>
<text text-anchor="middle" x="206" y="-620.532" font-family="Helvetica,sans-Serif" font-size="10.00">Map&lt; String, String &gt;</text>
</g>
<!-- Node9&#45;&gt;Node6 -->
<g id="edge8" class="edge"><title>Node9&#45;&gt;Node6</title>
<path fill="none" stroke="#9a32cd" stroke-dasharray="5,2" d="M277.497,-618.098C310.088,-617.076 349.2,-617.641 384,-623.032 397.155,-625.07 411.323,-629.367 422.886,-633.458"/>
<polygon fill="#9a32cd" stroke="#9a32cd" points="277.022,-614.613 267.159,-618.481 277.282,-621.608 277.022,-614.613"/>
<text text-anchor="middle" x="337" y="-637.032" font-family="Helvetica,sans-Serif" font-size="10.00"> myInitParam</text>
<text text-anchor="middle" x="337" y="-626.032" font-family="Helvetica,sans-Serif" font-size="10.00">mySimParam</text>
</g>
<!-- Node10 -->
<g id="node10" class="node"><title>Node10</title>
<polygon fill="white" stroke="#bfbfbf" points="420,-344.532 420,-363.532 476,-363.532 476,-344.532 420,-344.532"/>
<text text-anchor="middle" x="448" y="-351.532" font-family="Helvetica,sans-Serif" font-size="10.00">Timeline</text>
</g>
<!-- Node10&#45;&gt;Node3 -->
<g id="edge9" class="edge"><title>Node10&#45;&gt;Node3</title>
<path fill="none" stroke="#9a32cd" stroke-dasharray="5,2" d="M486.06,-350.346C518.395,-347.131 564.911,-342.505 596.233,-339.39"/>
<polygon fill="#9a32cd" stroke="#9a32cd" points="485.702,-346.865 476.098,-351.337 486.395,-353.83 485.702,-346.865"/>
<text text-anchor="middle" x="545" y="-351.032" font-family="Helvetica,sans-Serif" font-size="10.00"> myTimeline</text>
</g>
<!-- Node11 -->
<g id="node11" class="node"><title>Node11</title>
<g id="a_node11"><a xlink:href="../../df/df8/class_cell_society_view.html" target="_top" xlink:title="CellSocietyView">
<polygon fill="white" stroke="black" points="402.5,-306.532 402.5,-325.532 493.5,-325.532 493.5,-306.532 402.5,-306.532"/>
<text text-anchor="middle" x="448" y="-313.532" font-family="Helvetica,sans-Serif" font-size="10.00">CellSocietyView</text>
</a>
</g>
</g>
<!-- Node11&#45;&gt;Node3 -->
<g id="edge10" class="edge"><title>Node11&#45;&gt;Node3</title>
<path fill="none" stroke="#9a32cd" stroke-dasharray="5,2" d="M503.826,-319.657C526.791,-321.448 553.739,-323.904 578,-327.032 583.997,-327.805 590.359,-328.778 596.497,-329.796"/>
<polygon fill="#9a32cd" stroke="#9a32cd" points="503.815,-316.146 493.579,-318.881 503.286,-323.126 503.815,-316.146"/>
<text text-anchor="middle" x="545" y="-330.032" font-family="Helvetica,sans-Serif" font-size="10.00"> myView</text>
</g>
<!-- Node12 -->
<g id="node12" class="node"><title>Node12</title>
<polygon fill="white" stroke="#bfbfbf" points="183.5,-575.532 183.5,-594.532 228.5,-594.532 228.5,-575.532 183.5,-575.532"/>
<text text-anchor="middle" x="206" y="-582.532" font-family="Helvetica,sans-Serif" font-size="10.00">Stage</text>
</g>
<!-- Node12&#45;&gt;Node11 -->
<g id="edge11" class="edge"><title>Node12&#45;&gt;Node11</title>
<path fill="none" stroke="#9a32cd" stroke-dasharray="5,2" d="M238.803,-591.132C278.916,-596.786 347.096,-599.239 384,-560.032 418.38,-523.507 372.629,-375.693 402,-335.032 404.781,-331.182 408.498,-328.108 412.61,-325.653"/>
<polygon fill="#9a32cd" stroke="#9a32cd" points="239.184,-587.65 228.765,-589.568 238.106,-594.566 239.184,-587.65"/>
<text text-anchor="middle" x="337" y="-598.032" font-family="Helvetica,sans-Serif" font-size="10.00"> myStage</text>
</g>
<!-- Node13 -->
<g id="node13" class="node"><title>Node13</title>
<polygon fill="white" stroke="#bfbfbf" points="159.5,-537.532 159.5,-556.532 252.5,-556.532 252.5,-537.532 159.5,-537.532"/>
<text text-anchor="middle" x="206" y="-544.532" font-family="Helvetica,sans-Serif" font-size="10.00">ResourceBundle</text>
</g>
<!-- Node13&#45;&gt;Node11 -->
<g id="edge12" class="edge"><title>Node13&#45;&gt;Node11</title>
<path fill="none" stroke="#9a32cd" stroke-dasharray="5,2" d="M262.825,-546.445C308.351,-544.694 367.696,-539.076 384,-522.032 412.858,-491.865 377.283,-368.676 402,-335.032 404.812,-331.205 408.547,-328.143 412.666,-325.695"/>
<polygon fill="#9a32cd" stroke="#9a32cd" points="262.636,-542.949 252.758,-546.779 262.868,-549.946 262.636,-542.949"/>
<text text-anchor="middle" x="337" y="-548.032" font-family="Helvetica,sans-Serif" font-size="10.00"> myResources</text>
</g>
<!-- Node14 -->
<g id="node14" class="node"><title>Node14</title>
<g id="a_node14"><a xlink:href="../../d8/ddc/class_abstract_grid.html" target="_top" xlink:title="AbstractGrid">
<polygon fill="white" stroke="black" points="167.5,-499.532 167.5,-518.532 244.5,-518.532 244.5,-499.532 167.5,-499.532"/>
<text text-anchor="middle" x="206" y="-506.532" font-family="Helvetica,sans-Serif" font-size="10.00">AbstractGrid</text>
</a>
</g>
</g>
<!-- Node14&#45;&gt;Node11 -->
<g id="edge13" class="edge"><title>Node14&#45;&gt;Node11</title>
<path fill="none" stroke="#9a32cd" stroke-dasharray="5,2" d="M254.951,-508.625C301.147,-507.151 366.531,-501.856 384,-484.032 430.69,-436.394 361.858,-388.305 402,-335.032 404.858,-331.239 408.619,-328.197 412.751,-325.757"/>
<polygon fill="#9a32cd" stroke="#9a32cd" points="254.729,-505.13 244.827,-508.898 254.918,-512.127 254.729,-505.13"/>
<text text-anchor="middle" x="337" y="-510.032" font-family="Helvetica,sans-Serif" font-size="10.00"> mySimGrid</text>
</g>
<!-- Node15 -->
<g id="node15" class="node"><title>Node15</title>
<polygon fill="white" stroke="#bfbfbf" points="0.5,-527.532 0.5,-546.532 47.5,-546.532 47.5,-527.532 0.5,-527.532"/>
<text text-anchor="middle" x="24" y="-534.532" font-family="Helvetica,sans-Serif" font-size="10.00">Shape</text>
</g>
<!-- Node15&#45;&gt;Node14 -->
<g id="edge14" class="edge"><title>Node15&#45;&gt;Node14</title>
<path fill="none" stroke="#9a32cd" stroke-dasharray="5,2" d="M58.0447,-531.892C88.9432,-527.085 135.046,-519.914 167.352,-514.888"/>
<polygon fill="#9a32cd" stroke="#9a32cd" points="57.1403,-528.49 47.7971,-533.486 58.2163,-535.407 57.1403,-528.49"/>
<text text-anchor="middle" x="94" y="-534.032" font-family="Helvetica,sans-Serif" font-size="10.00"> myShapes</text>
</g>
<!-- Node16 -->
<g id="node16" class="node"><title>Node16</title>
<polygon fill="white" stroke="#bfbfbf" points="1,-475.532 1,-494.532 47,-494.532 47,-475.532 1,-475.532"/>
<text text-anchor="middle" x="24" y="-482.532" font-family="Helvetica,sans-Serif" font-size="10.00">Group</text>
</g>
<!-- Node16&#45;&gt;Node11 -->
<g id="edge24" class="edge"><title>Node16&#45;&gt;Node11</title>
<path fill="none" stroke="#9a32cd" stroke-dasharray="5,2" d="M57.3533,-482.765C143.404,-476.593 372.188,-459.208 384,-448.032 420.94,-413.079 370.634,-375.063 402,-335.032 405.034,-331.16 409.002,-328.068 413.327,-325.6"/>
<polygon fill="#9a32cd" stroke="#9a32cd" points="56.8494,-479.292 47.1235,-483.494 57.347,-486.274 56.8494,-479.292"/>
<text text-anchor="middle" x="206" y="-480.032" font-family="Helvetica,sans-Serif" font-size="10.00"> myDefaultGrid</text>
</g>
<!-- Node16&#45;&gt;Node14 -->
<g id="edge15" class="edge"><title>Node16&#45;&gt;Node14</title>
<path fill="none" stroke="#9a32cd" stroke-dasharray="5,2" d="M57.2987,-489.339C88.2006,-493.459 134.794,-499.671 167.362,-504.014"/>
<polygon fill="#9a32cd" stroke="#9a32cd" points="57.4464,-485.827 47.0715,-487.975 56.5212,-492.766 57.4464,-485.827"/>
<text text-anchor="middle" x="94" y="-501.032" font-family="Helvetica,sans-Serif" font-size="10.00"> myGrid</text>
</g>
<!-- Node17 -->
<g id="node17" class="node"><title>Node17</title>
<polygon fill="white" stroke="#bfbfbf" points="148,-403.032 148,-433.032 264,-433.032 264,-403.032 148,-403.032"/>
<text text-anchor="start" x="156" y="-421.032" font-family="Helvetica,sans-Serif" font-size="10.00">LineChart&lt; Number,</text>
<text text-anchor="middle" x="206" y="-410.032" font-family="Helvetica,sans-Serif" font-size="10.00"> Number &gt;</text>
</g>
<!-- Node17&#45;&gt;Node11 -->
<g id="edge16" class="edge"><title>Node17&#45;&gt;Node11</title>
<path fill="none" stroke="#9a32cd" stroke-dasharray="5,2" d="M274.382,-431.587C310.738,-434.902 354.145,-431.871 384,-407.032 409.356,-385.936 380.546,-360.087 402,-335.032 405.309,-331.167 409.539,-328.07 414.077,-325.594"/>
<polygon fill="#9a32cd" stroke="#9a32cd" points="274.651,-428.095 264.332,-430.496 273.896,-435.054 274.651,-428.095"/>
<text text-anchor="middle" x="337" y="-436.032" font-family="Helvetica,sans-Serif" font-size="10.00"> myChart</text>
</g>
<!-- Node18 -->
<g id="node18" class="node"><title>Node18</title>
<polygon fill="white" stroke="#bfbfbf" points="178,-364.532 178,-383.532 234,-383.532 234,-364.532 178,-364.532"/>
<text text-anchor="middle" x="206" y="-371.532" font-family="Helvetica,sans-Serif" font-size="10.00">TextField</text>
</g>
<!-- Node18&#45;&gt;Node11 -->
<g id="edge17" class="edge"><title>Node18&#45;&gt;Node11</title>
<path fill="none" stroke="#9a32cd" stroke-dasharray="5,2" d="M244.2,-381.097C289.356,-388.8 362.18,-398.153 384,-383.032 402.727,-370.054 386.221,-351.468 402,-335.032 405.641,-331.239 410.158,-328.169 414.913,-325.694"/>
<polygon fill="#9a32cd" stroke="#9a32cd" points="244.644,-377.621 234.189,-379.339 243.433,-384.515 244.644,-377.621"/>
<text text-anchor="middle" x="337" y="-395.032" font-family="Helvetica,sans-Serif" font-size="10.00"> mySpeedTextField</text>
</g>
<!-- Node19 -->
<g id="node19" class="node"><title>Node19</title>
<polygon fill="white" stroke="#bfbfbf" points="181.5,-326.532 181.5,-345.532 230.5,-345.532 230.5,-326.532 181.5,-326.532"/>
<text text-anchor="middle" x="206" y="-333.532" font-family="Helvetica,sans-Serif" font-size="10.00">Button</text>
</g>
<!-- Node19&#45;&gt;Node11 -->
<g id="edge18" class="edge"><title>Node19&#45;&gt;Node11</title>
<path fill="none" stroke="#9a32cd" stroke-dasharray="5,2" d="M240.58,-326.587C255.572,-322.828 273.536,-318.946 290,-317.032 327.635,-312.658 370.686,-312.739 402.177,-313.727"/>
<polygon fill="#9a32cd" stroke="#9a32cd" points="239.53,-323.243 230.731,-329.144 241.29,-330.019 239.53,-323.243"/>
<text text-anchor="middle" x="337" y="-375.032" font-family="Helvetica,sans-Serif" font-size="10.00"> myXMLButton</text>
<text text-anchor="middle" x="337" y="-364.032" font-family="Helvetica,sans-Serif" font-size="10.00">myPauseButton</text>
<text text-anchor="middle" x="337" y="-353.032" font-family="Helvetica,sans-Serif" font-size="10.00">mySlowdownButton</text>
<text text-anchor="middle" x="337" y="-342.032" font-family="Helvetica,sans-Serif" font-size="10.00">mySpeedupButton</text>
<text text-anchor="middle" x="337" y="-331.032" font-family="Helvetica,sans-Serif" font-size="10.00">myStepButton</text>
<text text-anchor="middle" x="337" y="-320.032" font-family="Helvetica,sans-Serif" font-size="10.00">myPlayButton</text>
</g>
<!-- Node20 -->
<g id="node20" class="node"><title>Node20</title>
<polygon fill="white" stroke="#bfbfbf" points="142,-277.032 142,-307.032 270,-307.032 270,-277.032 142,-277.032"/>
<text text-anchor="start" x="150" y="-295.032" font-family="Helvetica,sans-Serif" font-size="10.00">List&lt; Series&lt; Number,</text>
<text text-anchor="middle" x="206" y="-284.032" font-family="Helvetica,sans-Serif" font-size="10.00"> Number &gt; &gt;</text>
</g>
<!-- Node20&#45;&gt;Node11 -->
<g id="edge19" class="edge"><title>Node20&#45;&gt;Node11</title>
<path fill="none" stroke="#9a32cd" stroke-dasharray="5,2" d="M280.56,-291.266C312.505,-291.879 350.259,-293.879 384,-299.032 394.975,-300.708 406.779,-303.592 417.17,-306.514"/>
<polygon fill="#9a32cd" stroke="#9a32cd" points="280.456,-287.764 270.404,-291.113 280.351,-294.763 280.456,-287.764"/>
<text text-anchor="middle" x="337" y="-302.032" font-family="Helvetica,sans-Serif" font-size="10.00"> mySeries</text>
</g>
<!-- Node21 -->
<g id="node21" class="node"><title>Node21</title>
<polygon fill="white" stroke="#bfbfbf" points="188.5,-238.532 188.5,-257.532 223.5,-257.532 223.5,-238.532 188.5,-238.532"/>
<text text-anchor="middle" x="206" y="-245.532" font-family="Helvetica,sans-Serif" font-size="10.00">Text</text>
</g>
<!-- Node21&#45;&gt;Node11 -->
<g id="edge20" class="edge"><title>Node21&#45;&gt;Node11</title>
<path fill="none" stroke="#9a32cd" stroke-dasharray="5,2" d="M233.677,-249.168C269.063,-251.393 332.996,-257.93 384,-277.032 403.033,-284.16 422.57,-297.346 434.739,-306.396"/>
<polygon fill="#9a32cd" stroke="#9a32cd" points="233.837,-245.672 223.657,-248.607 233.446,-252.661 233.837,-245.672"/>
<text text-anchor="middle" x="337" y="-280.032" font-family="Helvetica,sans-Serif" font-size="10.00"> myErrorMsg</text>
</g>
<!-- Node22 -->
<g id="node22" class="node"><title>Node22</title>
<polygon fill="white" stroke="#bfbfbf" points="187,-200.532 187,-219.532 225,-219.532 225,-200.532 187,-200.532"/>
<text text-anchor="middle" x="206" y="-207.532" font-family="Helvetica,sans-Serif" font-size="10.00">Font</text>
</g>
<!-- Node22&#45;&gt;Node11 -->
<g id="edge21" class="edge"><title>Node22&#45;&gt;Node11</title>
<path fill="none" stroke="#9a32cd" stroke-dasharray="5,2" d="M235.658,-209.196C272.438,-209.373 337.09,-214.001 384,-241.032 411.7,-256.994 432.692,-289.96 441.889,-306.347"/>
<polygon fill="#9a32cd" stroke="#9a32cd" points="235.165,-205.699 225.188,-209.264 235.211,-212.698 235.165,-205.699"/>
<text text-anchor="middle" x="337" y="-244.032" font-family="Helvetica,sans-Serif" font-size="10.00"> TITLE_FONT</text>
</g>
<!-- Node23 -->
<g id="node23" class="node"><title>Node23</title>
<polygon fill="white" stroke="#bfbfbf" points="182.5,-162.532 182.5,-181.532 229.5,-181.532 229.5,-162.532 182.5,-162.532"/>
<text text-anchor="middle" x="206" y="-169.532" font-family="Helvetica,sans-Serif" font-size="10.00">Scene</text>
</g>
<!-- Node23&#45;&gt;Node11 -->
<g id="edge22" class="edge"><title>Node23&#45;&gt;Node11</title>
<path fill="none" stroke="#9a32cd" stroke-dasharray="5,2" d="M239.8,-168.52C277.951,-166.179 341.161,-167.892 384,-198.032 422.556,-225.159 439.579,-283.463 444.975,-306.441"/>
<polygon fill="#9a32cd" stroke="#9a32cd" points="239.454,-165.036 229.741,-169.267 239.973,-172.016 239.454,-165.036"/>
<text text-anchor="middle" x="337" y="-201.032" font-family="Helvetica,sans-Serif" font-size="10.00"> myScene</text>
</g>
<!-- Node24 -->
<g id="node24" class="node"><title>Node24</title>
<polygon fill="white" stroke="#bfbfbf" points="176.5,-124.532 176.5,-143.532 235.5,-143.532 235.5,-124.532 176.5,-124.532"/>
<text text-anchor="middle" x="206" y="-131.532" font-family="Helvetica,sans-Serif" font-size="10.00">GridPane</text>
</g>
<!-- Node24&#45;&gt;Node11 -->
<g id="edge23" class="edge"><title>Node24&#45;&gt;Node11</title>
<path fill="none" stroke="#9a32cd" stroke-dasharray="5,2" d="M246.171,-127.934C285.167,-124.119 344.722,-124.677 384,-155.032 396.825,-164.943 432.858,-272.747 443.806,-306.194"/>
<polygon fill="#9a32cd" stroke="#9a32cd" points="245.298,-124.51 235.752,-129.104 246.08,-131.466 245.298,-124.51"/>
<text text-anchor="middle" x="337" y="-158.032" font-family="Helvetica,sans-Serif" font-size="10.00"> myRoot</text>
</g>
<!-- Node25 -->
<g id="node25" class="node"><title>Node25</title>
<polygon fill="white" stroke="#bfbfbf" points="185,-86.532 185,-105.532 227,-105.532 227,-86.532 185,-86.532"/>
<text text-anchor="middle" x="206" y="-93.532" font-family="Helvetica,sans-Serif" font-size="10.00">HBox</text>
</g>
<!-- Node25&#45;&gt;Node11 -->
<g id="edge25" class="edge"><title>Node25&#45;&gt;Node11</title>
<path fill="none" stroke="#9a32cd" stroke-dasharray="5,2" d="M237.258,-89.1154C276.109,-82.1592 343.351,-76.9013 384,-112.032 409.936,-134.447 392.342,-154.141 402,-187.032 415.298,-232.322 435.114,-285.15 443.278,-306.43"/>
<polygon fill="#9a32cd" stroke="#9a32cd" points="236.247,-85.7463 227.098,-91.0903 237.582,-92.6177 236.247,-85.7463"/>
<text text-anchor="middle" x="337" y="-115.032" font-family="Helvetica,sans-Serif" font-size="10.00"> myTitleBox</text>
</g>
<!-- Node26 -->
<g id="node26" class="node"><title>Node26</title>
<g id="a_node26"><a xlink:href="../../d8/d87/class_controller.html" target="_top" xlink:title="Controller">
<polygon fill="white" stroke="black" points="416.5,-158.532 416.5,-177.532 479.5,-177.532 479.5,-158.532 416.5,-158.532"/>
<text text-anchor="middle" x="448" y="-165.532" font-family="Helvetica,sans-Serif" font-size="10.00">Controller</text>
</a>
</g>
</g>
<!-- Node26&#45;&gt;Node3 -->
<g id="edge26" class="edge"><title>Node26&#45;&gt;Node3</title>
<path fill="none" stroke="#9a32cd" stroke-dasharray="5,2" d="M466.852,-184.601C504.182,-219.251 589.51,-298.45 619.412,-326.204"/>
<polygon fill="#9a32cd" stroke="#9a32cd" points="468.96,-181.783 459.25,-177.546 464.198,-186.914 468.96,-181.783"/>
<text text-anchor="middle" x="545" y="-290.032" font-family="Helvetica,sans-Serif" font-size="10.00"> myController</text>
</g>
<!-- Node27 -->
<g id="node27" class="node"><title>Node27</title>
<g id="a_node27"><a xlink:href="../../dd/ddd/class_neighbor.html" target="_top" xlink:title="Neighbor">
<polygon fill="white" stroke="black" points="176,-48.532 176,-67.532 236,-67.532 236,-48.532 176,-48.532"/>
<text text-anchor="middle" x="206" y="-55.532" font-family="Helvetica,sans-Serif" font-size="10.00">Neighbor</text>
</a>
</g>
</g>
<!-- Node27&#45;&gt;Node26 -->
<g id="edge27" class="edge"><title>Node27&#45;&gt;Node26</title>
<path fill="none" stroke="#9a32cd" stroke-dasharray="5,2" d="M246.019,-46.5458C285.477,-37.5272 345.924,-31.1974 384,-63.032 413.959,-88.08 377.179,-118.885 402,-149.032 405.773,-153.615 410.847,-157.112 416.229,-159.775"/>
<polygon fill="#9a32cd" stroke="#9a32cd" points="245.105,-43.1662 236.22,-48.9388 246.765,-49.9664 245.105,-43.1662"/>
<text text-anchor="middle" x="337" y="-66.032" font-family="Helvetica,sans-Serif" font-size="10.00"> myNeighbor</text>
</g>
<!-- Node28 -->
<g id="node28" class="node"><title>Node28</title>
<g id="a_node28"><a xlink:href="../../d5/dda/class_boundary.html" target="_top" xlink:title="Boundary">
<polygon fill="white" stroke="black" points="175,-10.532 175,-29.532 237,-29.532 237,-10.532 175,-10.532"/>
<text text-anchor="middle" x="206" y="-17.532" font-family="Helvetica,sans-Serif" font-size="10.00">Boundary</text>
</a>
</g>
</g>
<!-- Node28&#45;&gt;Node26 -->
<g id="edge28" class="edge"><title>Node28&#45;&gt;Node26</title>
<path fill="none" stroke="#9a32cd" stroke-dasharray="5,2" d="M246.772,-7.98752C286.567,1.37311 347.037,7.87656 384,-25.032 425.593,-62.0628 367.957,-104.961 402,-149.032 405.733,-153.864 410.925,-157.481 416.461,-160.184"/>
<polygon fill="#9a32cd" stroke="#9a32cd" points="245.725,-4.6418 236.879,-10.4729 247.43,-11.4309 245.725,-4.6418"/>
<text text-anchor="middle" x="337" y="-28.032" font-family="Helvetica,sans-Serif" font-size="10.00"> myBoundary</text>
</g>
<!-- Node29 -->
<g id="node29" class="node"><title>Node29</title>
<polygon fill="white" stroke="#bfbfbf" points="420,-120.532 420,-139.532 476,-139.532 476,-120.532 420,-120.532"/>
<text text-anchor="middle" x="448" y="-127.532" font-family="Helvetica,sans-Serif" font-size="10.00">Random</text>
</g>
<!-- Node29&#45;&gt;Node3 -->
<g id="edge29" class="edge"><title>Node29&#45;&gt;Node3</title>
<path fill="none" stroke="#9a32cd" stroke-dasharray="5,2" d="M483.931,-143.742C487.392,-145.407 490.804,-147.179 494,-149.032 534.607,-172.568 549.229,-175.95 578,-213.032 606.424,-249.667 622.174,-304.133 627.704,-326.209"/>
<polygon fill="#9a32cd" stroke="#9a32cd" points="485.323,-140.529 474.769,-139.6 482.439,-146.908 485.323,-140.529"/>
<text text-anchor="middle" x="545" y="-216.032" font-family="Helvetica,sans-Serif" font-size="10.00"> myRandom</text>
</g>
</g>
</svg>
