<?xml version="1.0" encoding="UTF-8" standalone="no"?>
<!DOCTYPE svg PUBLIC "-//W3C//DTD SVG 1.1//EN"
 "http://www.w3.org/Graphics/SVG/1.1/DTD/svg11.dtd">
<!-- Generated by graphviz version 2.36.0 (20140111.2315)
 -->
<!-- Title: Main Pages: 1 -->
<svg width="680pt" height="746pt"
 viewBox="0.00 0.00 680.00 745.81" xmlns="http://www.w3.org/2000/svg" xmlns:xlink="http://www.w3.org/1999/xlink">
<g id="graph0" class="graph" transform="scale(1 1) rotate(0) translate(4 741.814)">
<title>Main</title>
<polygon fill="white" stroke="none" points="-4,4 -4,-741.814 676,-741.814 676,4 -4,4"/>
<!-- Node1 -->
<g id="node1" class="node"><title>Node1</title>
<polygon fill="#bfbfbf" stroke="black" points="632.5,-321.314 632.5,-340.314 671.5,-340.314 671.5,-321.314 632.5,-321.314"/>
<text text-anchor="middle" x="652" y="-328.314" font-family="Helvetica,sans-Serif" font-size="10.00">Main</text>
</g>
<!-- Node2 -->
<g id="node2" class="node"><title>Node2</title>
<polygon fill="white" stroke="#bfbfbf" points="456.5,-337.314 456.5,-356.314 525.5,-356.314 525.5,-337.314 456.5,-337.314"/>
<text text-anchor="middle" x="491" y="-344.314" font-family="Helvetica,sans-Serif" font-size="10.00">Application</text>
</g>
<!-- Node2&#45;&gt;Node1 -->
<g id="edge1" class="edge"><title>Node2&#45;&gt;Node1</title>
<path fill="none" stroke="midnightblue" d="M536.046,-342.381C567.676,-339.198 608.721,-335.068 632.234,-332.702"/>
<polygon fill="midnightblue" stroke="midnightblue" points="535.319,-338.937 525.72,-343.42 536.02,-345.901 535.319,-338.937"/>
</g>
<!-- Node3 -->
<g id="node3" class="node"><title>Node3</title>
<g id="a_node3"><a xlink:href="../../d3/dff/class_cell_society.html" target="_top" xlink:title="CellSociety">
<polygon fill="white" stroke="black" points="456.5,-299.314 456.5,-318.314 525.5,-318.314 525.5,-299.314 456.5,-299.314"/>
<text text-anchor="middle" x="491" y="-306.314" font-family="Helvetica,sans-Serif" font-size="10.00">CellSociety</text>
</a>
</g>
</g>
<!-- Node3&#45;&gt;Node1 -->
<g id="edge2" class="edge"><title>Node3&#45;&gt;Node1</title>
<path fill="none" stroke="#9a32cd" stroke-dasharray="5,2" d="M535.938,-310.658C559.282,-312.169 588.371,-314.899 614,-319.814 620.055,-320.975 626.537,-322.722 632.356,-324.484"/>
<polygon fill="#9a32cd" stroke="#9a32cd" points="535.839,-307.146 525.649,-310.046 535.424,-314.133 535.839,-307.146"/>
<text text-anchor="middle" x="579" y="-322.814" font-family="Helvetica,sans-Serif" font-size="10.00"> mySimulation</text>
</g>
<!-- Node4 -->
<g id="node4" class="node"><title>Node4</title>
<g id="a_node4"><a xlink:href="../../dd/d11/class_cell.html" target="_top" xlink:title="Cell">
<polygon fill="white" stroke="black" points="291,-680.314 291,-699.314 325,-699.314 325,-680.314 291,-680.314"/>
<text text-anchor="middle" x="308" y="-687.314" font-family="Helvetica,sans-Serif" font-size="10.00">Cell</text>
</a>
</g>
</g>
<!-- Node4&#45;&gt;Node3 -->
<g id="edge3" class="edge"><title>Node4&#45;&gt;Node3</title>
<path fill="none" stroke="#9a32cd" stroke-dasharray="5,2" d="M322.009,-671.341C348.561,-632.648 408.933,-539.403 438,-451.814 455.54,-398.959 424.433,-373.691 456,-327.814 458.606,-324.025 462.227,-320.909 466.139,-318.375"/>
<polygon fill="#9a32cd" stroke="#9a32cd" points="318.85,-669.755 316.027,-679.967 324.602,-673.744 318.85,-669.755"/>
<text text-anchor="middle" x="405" y="-594.814" font-family="Helvetica,sans-Serif" font-size="10.00"> myCells</text>
</g>
<!-- Node5 -->
<g id="node5" class="node"><title>Node5</title>
<g id="a_node5"><a xlink:href="../../d2/dc7/class_ground.html" target="_top" xlink:title="Ground">
<polygon fill="white" stroke="black" points="40,-718.314 40,-737.314 92,-737.314 92,-718.314 40,-718.314"/>
<text text-anchor="middle" x="66" y="-725.314" font-family="Helvetica,sans-Serif" font-size="10.00">Ground</text>
</a>
</g>
</g>
<!-- Node5&#45;&gt;Node4 -->
<g id="edge4" class="edge"><title>Node5&#45;&gt;Node4</title>
<path fill="none" stroke="#9a32cd" stroke-dasharray="5,2" d="M102,-724.357C137.827,-720.563 195.038,-713.798 244,-704.814 260.035,-701.871 278.117,-697.45 290.782,-694.169"/>
<polygon fill="#9a32cd" stroke="#9a32cd" points="101.628,-720.877 92.0436,-725.393 102.352,-727.839 101.628,-720.877"/>
<text text-anchor="middle" x="197" y="-721.814" font-family="Helvetica,sans-Serif" font-size="10.00"> myGround</text>
</g>
<!-- Node6 -->
<g id="node6" class="node"><title>Node6</title>
<polygon fill="white" stroke="#bfbfbf" points="42.5,-680.314 42.5,-699.314 89.5,-699.314 89.5,-680.314 42.5,-680.314"/>
<text text-anchor="middle" x="66" y="-687.314" font-family="Helvetica,sans-Serif" font-size="10.00">Shape</text>
</g>
<!-- Node6&#45;&gt;Node4 -->
<g id="edge5" class="edge"><title>Node6&#45;&gt;Node4</title>
<path fill="none" stroke="#9a32cd" stroke-dasharray="5,2" d="M99.6292,-689.814C151.736,-689.814 251.832,-689.814 290.86,-689.814"/>
<polygon fill="#9a32cd" stroke="#9a32cd" points="99.5787,-686.314 89.5786,-689.814 99.5786,-693.314 99.5787,-686.314"/>
<text text-anchor="middle" x="197" y="-692.814" font-family="Helvetica,sans-Serif" font-size="10.00"> myShape</text>
</g>
<!-- Node7 -->
<g id="node7" class="node"><title>Node7</title>
<g id="a_node7"><a xlink:href="../../d2/d95/class_x_m_l_parser.html" target="_top" xlink:title="XMLParser">
<polygon fill="white" stroke="black" points="275,-571.314 275,-590.314 341,-590.314 341,-571.314 275,-571.314"/>
<text text-anchor="middle" x="308" y="-578.314" font-family="Helvetica,sans-Serif" font-size="10.00">XMLParser</text>
</a>
</g>
</g>
<!-- Node7&#45;&gt;Node3 -->
<g id="edge6" class="edge"><title>Node7&#45;&gt;Node3</title>
<path fill="none" stroke="#9a32cd" stroke-dasharray="5,2" d="M316.143,-561.273C333.696,-515.484 382.9,-399.699 456,-327.814 459.664,-324.21 464.149,-321.072 468.645,-318.44"/>
<polygon fill="#9a32cd" stroke="#9a32cd" points="312.775,-560.285 312.536,-570.878 319.329,-562.747 312.775,-560.285"/>
<text text-anchor="middle" x="405" y="-439.814" font-family="Helvetica,sans-Serif" font-size="10.00"> myParser</text>
</g>
<!-- Node8 -->
<g id="node8" class="node"><title>Node8</title>
<polygon fill="white" stroke="#bfbfbf" points="0,-630.814 0,-660.814 132,-660.814 132,-630.814 0,-630.814"/>
<text text-anchor="start" x="8" y="-648.814" font-family="Helvetica,sans-Serif" font-size="10.00">List&lt; HashMap&lt; String,</text>
<text text-anchor="middle" x="66" y="-637.814" font-family="Helvetica,sans-Serif" font-size="10.00"> String &gt; &gt;</text>
</g>
<!-- Node8&#45;&gt;Node7 -->
<g id="edge7" class="edge"><title>Node8&#45;&gt;Node7</title>
<path fill="none" stroke="#9a32cd" stroke-dasharray="5,2" d="M142.371,-634.444C174.171,-628.634 211.323,-620.498 244,-609.814 259.793,-604.649 276.866,-596.626 289.25,-590.326"/>
<polygon fill="#9a32cd" stroke="#9a32cd" points="141.477,-631.049 132.247,-636.249 142.706,-637.94 141.477,-631.049"/>
<text text-anchor="middle" x="197" y="-635.814" font-family="Helvetica,sans-Serif" font-size="10.00"> myCellParamList</text>
</g>
<!-- Node9 -->
<g id="node9" class="node"><title>Node9</title>
<polygon fill="white" stroke="#bfbfbf" points="36.5,-592.314 36.5,-611.314 95.5,-611.314 95.5,-592.314 36.5,-592.314"/>
<text text-anchor="middle" x="66" y="-599.314" font-family="Helvetica,sans-Serif" font-size="10.00">NodeList</text>
</g>
<!-- Node9&#45;&gt;Node7 -->
<g id="edge8" class="edge"><title>Node9&#45;&gt;Node7</title>
<path fill="none" stroke="#9a32cd" stroke-dasharray="5,2" d="M106.059,-598.396C153.093,-594.28 231.201,-587.446 274.891,-583.623"/>
<polygon fill="#9a32cd" stroke="#9a32cd" points="105.606,-594.922 95.9496,-599.28 106.217,-601.895 105.606,-594.922"/>
<text text-anchor="middle" x="197" y="-597.814" font-family="Helvetica,sans-Serif" font-size="10.00"> myNodeList</text>
</g>
<!-- Node10 -->
<g id="node10" class="node"><title>Node10</title>
<polygon fill="white" stroke="#bfbfbf" points="5,-551.314 5,-570.314 127,-570.314 127,-551.314 5,-551.314"/>
<text text-anchor="middle" x="66" y="-558.314" font-family="Helvetica,sans-Serif" font-size="10.00">Map&lt; String, String &gt;</text>
</g>
<!-- Node10&#45;&gt;Node7 -->
<g id="edge9" class="edge"><title>Node10&#45;&gt;Node7</title>
<path fill="none" stroke="#9a32cd" stroke-dasharray="5,2" d="M137.533,-555.072C170.131,-553.782 209.239,-554.173 244,-559.814 257.656,-562.03 272.353,-566.782 284.113,-571.207"/>
<polygon fill="#9a32cd" stroke="#9a32cd" points="137.021,-551.592 127.192,-555.546 137.341,-558.585 137.021,-551.592"/>
<text text-anchor="middle" x="197" y="-573.814" font-family="Helvetica,sans-Serif" font-size="10.00"> myInitParam</text>
<text text-anchor="middle" x="197" y="-562.814" font-family="Helvetica,sans-Serif" font-size="10.00">mySimParam</text>
</g>
<!-- Node11 -->
<g id="node11" class="node"><title>Node11</title>
<polygon fill="white" stroke="#bfbfbf" points="280,-317.314 280,-336.314 336,-336.314 336,-317.314 280,-317.314"/>
<text text-anchor="middle" x="308" y="-324.314" font-family="Helvetica,sans-Serif" font-size="10.00">Timeline</text>
</g>
<!-- Node11&#45;&gt;Node3 -->
<g id="edge10" class="edge"><title>Node11&#45;&gt;Node3</title>
<path fill="none" stroke="#9a32cd" stroke-dasharray="5,2" d="M346.06,-323.128C378.395,-319.912 424.911,-315.286 456.233,-312.172"/>
<polygon fill="#9a32cd" stroke="#9a32cd" points="345.702,-319.646 336.098,-324.119 346.395,-326.612 345.702,-319.646"/>
<text text-anchor="middle" x="405" y="-323.814" font-family="Helvetica,sans-Serif" font-size="10.00"> myTimeline</text>
</g>
<!-- Node12 -->
<g id="node12" class="node"><title>Node12</title>
<g id="a_node12"><a xlink:href="../../df/df8/class_cell_society_view.html" target="_top" xlink:title="CellSocietyView">
<polygon fill="white" stroke="black" points="262.5,-279.314 262.5,-298.314 353.5,-298.314 353.5,-279.314 262.5,-279.314"/>
<text text-anchor="middle" x="308" y="-286.314" font-family="Helvetica,sans-Serif" font-size="10.00">CellSocietyView</text>
</a>
</g>
</g>
<!-- Node12&#45;&gt;Node3 -->
<g id="edge11" class="edge"><title>Node12&#45;&gt;Node3</title>
<path fill="none" stroke="#9a32cd" stroke-dasharray="5,2" d="M363.826,-292.438C386.791,-294.229 413.739,-296.685 438,-299.814 443.997,-300.587 450.359,-301.559 456.497,-302.577"/>
<polygon fill="#9a32cd" stroke="#9a32cd" points="363.815,-288.928 353.579,-291.663 363.286,-295.908 363.815,-288.928"/>
<text text-anchor="middle" x="405" y="-302.814" font-family="Helvetica,sans-Serif" font-size="10.00"> myView</text>
</g>
<!-- Node13 -->
<g id="node13" class="node"><title>Node13</title>
<polygon fill="white" stroke="#bfbfbf" points="43.5,-513.314 43.5,-532.314 88.5,-532.314 88.5,-513.314 43.5,-513.314"/>
<text text-anchor="middle" x="66" y="-520.314" font-family="Helvetica,sans-Serif" font-size="10.00">Stage</text>
</g>
<!-- Node13&#45;&gt;Node12 -->
<g id="edge12" class="edge"><title>Node13&#45;&gt;Node12</title>
<path fill="none" stroke="#9a32cd" stroke-dasharray="5,2" d="M98.6707,-529.242C138.642,-535.315 206.67,-538.502 244,-499.814 273.756,-468.975 236.671,-342.38 262,-307.814 264.807,-303.983 268.539,-300.919 272.658,-298.47"/>
<polygon fill="#9a32cd" stroke="#9a32cd" points="99.109,-525.767 88.6692,-527.572 97.9565,-532.671 99.109,-525.767"/>
<text text-anchor="middle" x="197" y="-535.814" font-family="Helvetica,sans-Serif" font-size="10.00"> myStage</text>
</g>
<!-- Node14 -->
<g id="node14" class="node"><title>Node14</title>
<polygon fill="white" stroke="#bfbfbf" points="19.5,-475.314 19.5,-494.314 112.5,-494.314 112.5,-475.314 19.5,-475.314"/>
<text text-anchor="middle" x="66" y="-482.314" font-family="Helvetica,sans-Serif" font-size="10.00">ResourceBundle</text>
</g>
<!-- Node14&#45;&gt;Node12 -->
<g id="edge13" class="edge"><title>Node14&#45;&gt;Node12</title>
<path fill="none" stroke="#9a32cd" stroke-dasharray="5,2" d="M122.692,-485.143C168.131,-484.145 227.426,-479.522 244,-462.814 292.841,-413.577 220.392,-363.297 262,-307.814 264.849,-304.014 268.605,-300.968 272.735,-298.527"/>
<polygon fill="#9a32cd" stroke="#9a32cd" points="122.584,-481.645 112.644,-485.311 122.701,-488.644 122.584,-481.645"/>
<text text-anchor="middle" x="197" y="-487.814" font-family="Helvetica,sans-Serif" font-size="10.00"> myResources</text>
</g>
<!-- Node15 -->
<g id="node15" class="node"><title>Node15</title>
<polygon fill="white" stroke="#bfbfbf" points="8,-425.814 8,-455.814 124,-455.814 124,-425.814 8,-425.814"/>
<text text-anchor="start" x="16" y="-443.814" font-family="Helvetica,sans-Serif" font-size="10.00">LineChart&lt; Number,</text>
<text text-anchor="middle" x="66" y="-432.814" font-family="Helvetica,sans-Serif" font-size="10.00"> Number &gt;</text>
</g>
<!-- Node15&#45;&gt;Node12 -->
<g id="edge14" class="edge"><title>Node15&#45;&gt;Node12</title>
<path fill="none" stroke="#9a32cd" stroke-dasharray="5,2" d="M134.519,-450.456C171.545,-451.773 215.567,-446.211 244,-418.814 279.989,-384.136 231.121,-347.11 262,-307.814 265.039,-303.946 269.011,-300.856 273.337,-298.389"/>
<polygon fill="#9a32cd" stroke="#9a32cd" points="134.45,-446.947 124.279,-449.914 134.08,-453.937 134.45,-446.947"/>
<text text-anchor="middle" x="197" y="-453.814" font-family="Helvetica,sans-Serif" font-size="10.00"> myChart</text>
</g>
<!-- Node16 -->
<g id="node16" class="node"><title>Node16</title>
<polygon fill="white" stroke="#bfbfbf" points="38,-387.314 38,-406.314 94,-406.314 94,-387.314 38,-387.314"/>
<text text-anchor="middle" x="66" y="-394.314" font-family="Helvetica,sans-Serif" font-size="10.00">TextField</text>
</g>
<!-- Node16&#45;&gt;Node12 -->
<g id="edge15" class="edge"><title>Node16&#45;&gt;Node12</title>
<path fill="none" stroke="#9a32cd" stroke-dasharray="5,2" d="M104.303,-400.468C149.923,-404.084 223.602,-406.894 244,-389.814 272.607,-365.859 238.144,-336.503 262,-307.814 265.145,-304.032 269.175,-300.988 273.527,-298.543"/>
<polygon fill="#9a32cd" stroke="#9a32cd" points="104.45,-396.968 94.1918,-399.617 103.863,-403.943 104.45,-396.968"/>
<text text-anchor="middle" x="197" y="-406.814" font-family="Helvetica,sans-Serif" font-size="10.00"> mySpeedTextField</text>
</g>
<!-- Node17 -->
<g id="node17" class="node"><title>Node17</title>
<polygon fill="white" stroke="#bfbfbf" points="41.5,-326.314 41.5,-345.314 90.5,-345.314 90.5,-326.314 41.5,-326.314"/>
<text text-anchor="middle" x="66" y="-333.314" font-family="Helvetica,sans-Serif" font-size="10.00">Button</text>
</g>
<!-- Node17&#45;&gt;Node12 -->
<g id="edge16" class="edge"><title>Node17&#45;&gt;Node12</title>
<path fill="none" stroke="#9a32cd" stroke-dasharray="5,2" d="M100.94,-329.167C143.142,-320.902 215.312,-306.769 262.069,-297.612"/>
<polygon fill="#9a32cd" stroke="#9a32cd" points="100.03,-325.778 90.8895,-331.135 101.376,-332.648 100.03,-325.778"/>
<text text-anchor="middle" x="197" y="-377.814" font-family="Helvetica,sans-Serif" font-size="10.00"> myXMLButton</text>
<text text-anchor="middle" x="197" y="-366.814" font-family="Helvetica,sans-Serif" font-size="10.00">myPauseButton</text>
<text text-anchor="middle" x="197" y="-355.814" font-family="Helvetica,sans-Serif" font-size="10.00">mySlowdownButton</text>
<text text-anchor="middle" x="197" y="-344.814" font-family="Helvetica,sans-Serif" font-size="10.00">mySpeedupButton</text>
<text text-anchor="middle" x="197" y="-333.814" font-family="Helvetica,sans-Serif" font-size="10.00">myStepButton</text>
<text text-anchor="middle" x="197" y="-322.814" font-family="Helvetica,sans-Serif" font-size="10.00">myPlayButton</text>
</g>
<!-- Node18 -->
<g id="node18" class="node"><title>Node18</title>
<polygon fill="white" stroke="#bfbfbf" points="2,-276.814 2,-306.814 130,-306.814 130,-276.814 2,-276.814"/>
<text text-anchor="start" x="10" y="-294.814" font-family="Helvetica,sans-Serif" font-size="10.00">List&lt; Series&lt; Number,</text>
<text text-anchor="middle" x="66" y="-283.814" font-family="Helvetica,sans-Serif" font-size="10.00"> Number &gt; &gt;</text>
</g>
<!-- Node18&#45;&gt;Node12 -->
<g id="edge17" class="edge"><title>Node18&#45;&gt;Node12</title>
<path fill="none" stroke="#9a32cd" stroke-dasharray="5,2" d="M140.626,-289.971C143.793,-289.913 146.928,-289.86 150,-289.814 187.884,-289.236 230.914,-288.991 262.333,-288.888"/>
<polygon fill="#9a32cd" stroke="#9a32cd" points="140.37,-286.475 130.441,-290.169 140.507,-293.474 140.37,-286.475"/>
<text text-anchor="middle" x="197" y="-292.814" font-family="Helvetica,sans-Serif" font-size="10.00"> mySeries</text>
</g>
<!-- Node19 -->
<g id="node19" class="node"><title>Node19</title>
<polygon fill="white" stroke="#bfbfbf" points="48.5,-238.314 48.5,-257.314 83.5,-257.314 83.5,-238.314 48.5,-238.314"/>
<text text-anchor="middle" x="66" y="-245.314" font-family="Helvetica,sans-Serif" font-size="10.00">Text</text>
</g>
<!-- Node19&#45;&gt;Node12 -->
<g id="edge18" class="edge"><title>Node19&#45;&gt;Node12</title>
<path fill="none" stroke="#9a32cd" stroke-dasharray="5,2" d="M93.933,-251.347C128.712,-256.042 191.065,-264.906 244,-274.814 251.158,-276.153 258.743,-277.715 266.077,-279.3"/>
<polygon fill="#9a32cd" stroke="#9a32cd" points="94.0324,-247.83 83.6568,-249.974 93.1047,-254.768 94.0324,-247.83"/>
<text text-anchor="middle" x="197" y="-277.814" font-family="Helvetica,sans-Serif" font-size="10.00"> myErrorMsg</text>
</g>
<!-- Node20 -->
<g id="node20" class="node"><title>Node20</title>
<polygon fill="white" stroke="#bfbfbf" points="47,-200.314 47,-219.314 85,-219.314 85,-200.314 47,-200.314"/>
<text text-anchor="middle" x="66" y="-207.314" font-family="Helvetica,sans-Serif" font-size="10.00">Font</text>
</g>
<!-- Node20&#45;&gt;Node12 -->
<g id="edge19" class="edge"><title>Node20&#45;&gt;Node12</title>
<path fill="none" stroke="#9a32cd" stroke-dasharray="5,2" d="M95.2897,-208.752C131.424,-208.467 195.126,-211.621 244,-233.814 267.267,-244.379 288.319,-266.413 299.205,-279.152"/>
<polygon fill="#9a32cd" stroke="#9a32cd" points="94.9443,-205.257 85.0077,-208.933 95.068,-212.256 94.9443,-205.257"/>
<text text-anchor="middle" x="197" y="-247.814" font-family="Helvetica,sans-Serif" font-size="10.00"> TITLE_FONT</text>
<text text-anchor="middle" x="197" y="-236.814" font-family="Helvetica,sans-Serif" font-size="10.00">ERROR_FONT</text>
</g>
<!-- Node21 -->
<g id="node21" class="node"><title>Node21</title>
<polygon fill="white" stroke="#bfbfbf" points="42.5,-162.314 42.5,-181.314 89.5,-181.314 89.5,-162.314 42.5,-162.314"/>
<text text-anchor="middle" x="66" y="-169.314" font-family="Helvetica,sans-Serif" font-size="10.00">Scene</text>
</g>
<!-- Node21&#45;&gt;Node12 -->
<g id="edge20" class="edge"><title>Node21&#45;&gt;Node12</title>
<path fill="none" stroke="#9a32cd" stroke-dasharray="5,2" d="M100.019,-168.884C137.709,-167.163 199.838,-169.412 244,-196.814 276.076,-216.716 295.84,-259.678 303.437,-279.022"/>
<polygon fill="#9a32cd" stroke="#9a32cd" points="99.3928,-165.414 89.613,-169.489 99.7994,-172.403 99.3928,-165.414"/>
<text text-anchor="middle" x="197" y="-199.814" font-family="Helvetica,sans-Serif" font-size="10.00"> myScene</text>
</g>
<!-- Node22 -->
<g id="node22" class="node"><title>Node22</title>
<polygon fill="white" stroke="#bfbfbf" points="36.5,-124.314 36.5,-143.314 95.5,-143.314 95.5,-124.314 36.5,-124.314"/>
<text text-anchor="middle" x="66" y="-131.314" font-family="Helvetica,sans-Serif" font-size="10.00">GridPane</text>
</g>
<!-- Node22&#45;&gt;Node12 -->
<g id="edge21" class="edge"><title>Node22&#45;&gt;Node12</title>
<path fill="none" stroke="#9a32cd" stroke-dasharray="5,2" d="M106.001,-125.38C144.61,-119.343 203.639,-116.591 244,-144.814 255.964,-153.18 291.95,-248.185 303.435,-279.133"/>
<polygon fill="#9a32cd" stroke="#9a32cd" points="104.951,-122.009 95.6849,-127.147 106.132,-128.909 104.951,-122.009"/>
<text text-anchor="middle" x="197" y="-158.814" font-family="Helvetica,sans-Serif" font-size="10.00"> mySimGrid</text>
<text text-anchor="middle" x="197" y="-147.814" font-family="Helvetica,sans-Serif" font-size="10.00">myRoot</text>
</g>
<!-- Node23 -->
<g id="node23" class="node"><title>Node23</title>
<polygon fill="white" stroke="#bfbfbf" points="45,-86.3135 45,-105.314 87,-105.314 87,-86.3135 45,-86.3135"/>
<text text-anchor="middle" x="66" y="-93.3135" font-family="Helvetica,sans-Serif" font-size="10.00">HBox</text>
</g>
<!-- Node23&#45;&gt;Node12 -->
<g id="edge22" class="edge"><title>Node23&#45;&gt;Node12</title>
<path fill="none" stroke="#9a32cd" stroke-dasharray="5,2" d="M97.2977,-87.9959C135.909,-79.9867 202.598,-72.9756 244,-106.814 267.874,-126.326 252.367,-144.523 262,-173.814 275.061,-213.528 294.334,-259.465 302.777,-279.102"/>
<polygon fill="#9a32cd" stroke="#9a32cd" points="96.1947,-84.6558 87.1961,-90.2482 97.7182,-91.488 96.1947,-84.6558"/>
<text text-anchor="middle" x="197" y="-109.814" font-family="Helvetica,sans-Serif" font-size="10.00"> myTitleBox</text>
</g>
<!-- Node24 -->
<g id="node24" class="node"><title>Node24</title>
<g id="a_node24"><a xlink:href="../../d8/d87/class_controller.html" target="_top" xlink:title="Controller">
<polygon fill="white" stroke="black" points="276.5,-145.314 276.5,-164.314 339.5,-164.314 339.5,-145.314 276.5,-145.314"/>
<text text-anchor="middle" x="308" y="-152.314" font-family="Helvetica,sans-Serif" font-size="10.00">Controller</text>
</a>
</g>
</g>
<!-- Node24&#45;&gt;Node3 -->
<g id="edge23" class="edge"><title>Node24&#45;&gt;Node3</title>
<path fill="none" stroke="#9a32cd" stroke-dasharray="5,2" d="M328.039,-171.013C365.655,-203.017 448.467,-273.476 478.682,-299.184"/>
<polygon fill="#9a32cd" stroke="#9a32cd" points="330.207,-168.261 320.322,-164.447 325.671,-173.593 330.207,-168.261"/>
<text text-anchor="middle" x="405" y="-266.814" font-family="Helvetica,sans-Serif" font-size="10.00"> myController</text>
</g>
<!-- Node25 -->
<g id="node25" class="node"><title>Node25</title>
<g id="a_node25"><a xlink:href="../../dd/ddd/class_neighbor.html" target="_top" xlink:title="Neighbor">
<polygon fill="white" stroke="black" points="36,-48.3135 36,-67.3135 96,-67.3135 96,-48.3135 36,-48.3135"/>
<text text-anchor="middle" x="66" y="-55.3135" font-family="Helvetica,sans-Serif" font-size="10.00">Neighbor</text>
</a>
</g>
</g>
<!-- Node25&#45;&gt;Node24 -->
<g id="edge24" class="edge"><title>Node25&#45;&gt;Node24</title>
<path fill="none" stroke="#9a32cd" stroke-dasharray="5,2" d="M105.791,-46.6054C145.065,-37.8106 205.366,-31.6584 244,-62.8135 270.012,-83.7901 240.307,-110.396 262,-135.814 265.854,-140.329 270.965,-143.795 276.357,-146.449"/>
<polygon fill="#9a32cd" stroke="#9a32cd" points="104.951,-43.2075 96.0405,-48.9394 106.581,-50.0151 104.951,-43.2075"/>
<text text-anchor="middle" x="197" y="-65.8135" font-family="Helvetica,sans-Serif" font-size="10.00"> myNeighbor</text>
</g>
<!-- Node26 -->
<g id="node26" class="node"><title>Node26</title>
<g id="a_node26"><a xlink:href="../../d5/dda/class_boundary.html" target="_top" xlink:title="Boundary">
<polygon fill="white" stroke="black" points="35,-10.3135 35,-29.3135 97,-29.3135 97,-10.3135 35,-10.3135"/>
<text text-anchor="middle" x="66" y="-17.3135" font-family="Helvetica,sans-Serif" font-size="10.00">Boundary</text>
</a>
</g>
</g>
<!-- Node26&#45;&gt;Node24 -->
<g id="edge25" class="edge"><title>Node26&#45;&gt;Node24</title>
<path fill="none" stroke="#9a32cd" stroke-dasharray="5,2" d="M107.001,-7.81703C146.71,1.39933 206.872,7.69385 244,-24.8135 281.602,-57.7357 231.121,-96.5167 262,-135.814 265.668,-140.481 270.694,-144.017 276.062,-146.69"/>
<polygon fill="#9a32cd" stroke="#9a32cd" points="105.987,-4.46217 97.1241,-10.2666 107.673,-11.2563 105.987,-4.46217"/>
<text text-anchor="middle" x="197" y="-27.8135" font-family="Helvetica,sans-Serif" font-size="10.00"> myBoundary</text>
</g>
<!-- Node27 -->
<g id="node27" class="node"><title>Node27</title>
<polygon fill="white" stroke="#bfbfbf" points="280,-107.314 280,-126.314 336,-126.314 336,-107.314 280,-107.314"/>
<text text-anchor="middle" x="308" y="-114.314" font-family="Helvetica,sans-Serif" font-size="10.00">Random</text>
</g>
<!-- Node27&#45;&gt;Node3 -->
<g id="edge26" class="edge"><title>Node27&#45;&gt;Node3</title>
<path fill="none" stroke="#9a32cd" stroke-dasharray="5,2" d="M344.11,-130.316C372.916,-143.016 412.908,-164.609 438,-194.814 465.523,-227.944 481.578,-278.021 487.44,-299.012"/>
<polygon fill="#9a32cd" stroke="#9a32cd" points="345.378,-127.053 334.807,-126.351 342.633,-133.492 345.378,-127.053"/>
<text text-anchor="middle" x="405" y="-197.814" font-family="Helvetica,sans-Serif" font-size="10.00"> myRandom</text>
</g>
</g>
</svg>
