<?xml version="1.0" encoding="UTF-8" standalone="no"?>
<!DOCTYPE svg PUBLIC "-//W3C//DTD SVG 1.1//EN"
 "http://www.w3.org/Graphics/SVG/1.1/DTD/svg11.dtd">
<!-- Generated by graphviz version 2.36.0 (20140111.2315)
 -->
<!-- Title: TriangleGrid Pages: 1 -->
<svg width="190pt" height="96pt"
 viewBox="0.00 0.00 190.00 96.00" xmlns="http://www.w3.org/2000/svg" xmlns:xlink="http://www.w3.org/1999/xlink">
<g id="graph0" class="graph" transform="scale(1 1) rotate(0) translate(4 92)">
<title>TriangleGrid</title>
<polygon fill="white" stroke="none" points="-4,4 -4,-92 186,-92 186,4 -4,4"/>
<!-- Node1 -->
<g id="node1" class="node"><title>Node1</title>
<polygon fill="#bfbfbf" stroke="black" points="42,-0.5 42,-19.5 114,-19.5 114,-0.5 42,-0.5"/>
<text text-anchor="middle" x="78" y="-7.5" font-family="Helvetica,sans-Serif" font-size="10.00">TriangleGrid</text>
</g>
<!-- Node2 -->
<g id="node2" class="node"><title>Node2</title>
<g id="a_node2"><a xlink:href="../../da/d74/class_grid.html" target="_top" xlink:title="Grid">
<polygon fill="white" stroke="black" points="0,-68.5 0,-87.5 36,-87.5 36,-68.5 0,-68.5"/>
<text text-anchor="middle" x="18" y="-75.5" font-family="Helvetica,sans-Serif" font-size="10.00">Grid</text>
</a>
</g>
</g>
<!-- Node2&#45;&gt;Node1 -->
<g id="edge1" class="edge"><title>Node2&#45;&gt;Node1</title>
<path fill="none" stroke="midnightblue" d="M32.8364,-60.68C44.5666,-47.7768 60.4932,-30.2575 69.9626,-19.8411"/>
<polygon fill="midnightblue" stroke="midnightblue" points="29.9809,-58.6179 25.844,-68.3717 35.1605,-63.3266 29.9809,-58.6179"/>
</g>
<!-- Node3 -->
<g id="node3" class="node"><title>Node3</title>
<polygon fill="white" stroke="#bfbfbf" points="54.5,-68.5 54.5,-87.5 101.5,-87.5 101.5,-68.5 54.5,-68.5"/>
<text text-anchor="middle" x="78" y="-75.5" font-family="Helvetica,sans-Serif" font-size="10.00">Shape</text>
</g>
<!-- Node3&#45;&gt;Node1 -->
<g id="edge2" class="edge"><title>Node3&#45;&gt;Node1</title>
<path fill="none" stroke="#9a32cd" stroke-dasharray="5,2" d="M78,-58.0413C78,-45.4724 78,-29.5631 78,-19.8411"/>
<polygon fill="#9a32cd" stroke="#9a32cd" points="74.5001,-58.3716 78,-68.3717 81.5001,-58.3717 74.5001,-58.3716"/>
<text text-anchor="middle" x="105.5" y="-41.5" font-family="Helvetica,sans-Serif" font-size="10.00"> myShapes</text>
</g>
<!-- Node4 -->
<g id="node4" class="node"><title>Node4</title>
<polygon fill="white" stroke="#bfbfbf" points="133,-68.5 133,-87.5 179,-87.5 179,-68.5 133,-68.5"/>
<text text-anchor="middle" x="156" y="-75.5" font-family="Helvetica,sans-Serif" font-size="10.00">Group</text>
</g>
<!-- Node4&#45;&gt;Node1 -->
<g id="edge3" class="edge"><title>Node4&#45;&gt;Node1</title>
<path fill="none" stroke="#9a32cd" stroke-dasharray="5,2" d="M148.782,-59.1211C145.177,-51.8721 140.238,-43.849 134,-38 125.418,-29.953 113.992,-23.8638 103.699,-19.5239"/>
<polygon fill="#9a32cd" stroke="#9a32cd" points="145.587,-60.5514 152.867,-68.2493 151.977,-57.6919 145.587,-60.5514"/>
<text text-anchor="middle" x="163" y="-41.5" font-family="Helvetica,sans-Serif" font-size="10.00"> myGrid</text>
</g>
</g>
</svg>
