<?xml version="1.0" encoding="UTF-8" standalone="no"?>
<!DOCTYPE svg PUBLIC "-//W3C//DTD SVG 1.1//EN"
 "http://www.w3.org/Graphics/SVG/1.1/DTD/svg11.dtd">
<!-- Generated by graphviz version 2.36.0 (20140111.2315)
 -->
<!-- Title: AbstractGrid.update Pages: 1 -->
<svg width="1358pt" height="132pt"
 viewBox="0.00 0.00 1358.00 131.65" xmlns="http://www.w3.org/2000/svg" xmlns:xlink="http://www.w3.org/1999/xlink">
<g id="graph0" class="graph" transform="scale(1 1) rotate(0) translate(4 127.648)">
<title>AbstractGrid.update</title>
<polygon fill="white" stroke="none" points="-4,4 -4,-127.648 1354,-127.648 1354,4 -4,4"/>
<!-- Node1 -->
<g id="node1" class="node"><title>Node1</title>
<polygon fill="#bfbfbf" stroke="black" points="0.5,-95.5 0.5,-114.5 113.5,-114.5 113.5,-95.5 0.5,-95.5"/>
<text text-anchor="middle" x="57" y="-102.5" font-family="Helvetica,sans-Serif" font-size="10.00">AbstractGrid.update</text>
</g>
<!-- Node2 -->
<g id="node2" class="node"><title>Node2</title>
<g id="a_node2"><a xlink:href="../../df/df8/class_cell_society_view.html#a43ac2666d3a002024be53fe74028a576" target="_top" xlink:title="CellSocietyView.updateSimGrid">
<polygon fill="white" stroke="black" points="150.5,-95.5 150.5,-114.5 315.5,-114.5 315.5,-95.5 150.5,-95.5"/>
<text text-anchor="middle" x="233" y="-102.5" font-family="Helvetica,sans-Serif" font-size="10.00">CellSocietyView.updateSimGrid</text>
</a>
</g>
</g>
<!-- Node1&#45;&gt;Node2 -->
<g id="edge1" class="edge"><title>Node1&#45;&gt;Node2</title>
<path fill="none" stroke="midnightblue" d="M123.622,-105C132.356,-105 141.396,-105 150.359,-105"/>
<polygon fill="midnightblue" stroke="midnightblue" points="123.533,-101.5 113.533,-105 123.533,-108.5 123.533,-101.5"/>
</g>
<!-- Node3 -->
<g id="node3" class="node"><title>Node3</title>
<g id="a_node3"><a xlink:href="../../d3/dff/class_cell_society.html#a0ff19c30a1cc433d8ea8444f6a5617f1" target="_top" xlink:title="CellSociety.updateGrid">
<polygon fill="white" stroke="black" points="352,-95.5 352,-114.5 476,-114.5 476,-95.5 352,-95.5"/>
<text text-anchor="middle" x="414" y="-102.5" font-family="Helvetica,sans-Serif" font-size="10.00">CellSociety.updateGrid</text>
</a>
</g>
</g>
<!-- Node2&#45;&gt;Node3 -->
<g id="edge2" class="edge"><title>Node2&#45;&gt;Node3</title>
<path fill="none" stroke="midnightblue" d="M325.652,-105C334.523,-105 343.367,-105 351.833,-105"/>
<polygon fill="midnightblue" stroke="midnightblue" points="325.643,-101.5 315.643,-105 325.643,-108.5 325.643,-101.5"/>
</g>
<!-- Node4 -->
<g id="node4" class="node"><title>Node4</title>
<g id="a_node4"><a xlink:href="../../d3/dff/class_cell_society.html#a656ff46d1459fb7f86b42e3c542506ee" target="_top" xlink:title="CellSociety.configureListeners">
<polygon fill="white" stroke="black" points="1032,-57.5 1032,-76.5 1190,-76.5 1190,-57.5 1032,-57.5"/>
<text text-anchor="middle" x="1111" y="-64.5" font-family="Helvetica,sans-Serif" font-size="10.00">CellSociety.configureListeners</text>
</a>
</g>
</g>
<!-- Node3&#45;&gt;Node4 -->
<g id="edge3" class="edge"><title>Node3&#45;&gt;Node4</title>
<path fill="none" stroke="midnightblue" d="M486.15,-112.284C596.267,-121.925 814.242,-134.495 996,-105 1029.15,-99.6198 1065.7,-85.977 1088.25,-76.5924"/>
<polygon fill="midnightblue" stroke="midnightblue" points="486.428,-108.795 476.157,-111.391 485.805,-115.767 486.428,-108.795"/>
</g>
<!-- Node6 -->
<g id="node6" class="node"><title>Node6</title>
<g id="a_node6"><a xlink:href="../../d3/dff/class_cell_society.html#abf13a64ee79f2cb063447b499c695c58" target="_top" xlink:title="CellSociety.start">
<polygon fill="white" stroke="black" points="512.5,-76.5 512.5,-95.5 605.5,-95.5 605.5,-76.5 512.5,-76.5"/>
<text text-anchor="middle" x="559" y="-83.5" font-family="Helvetica,sans-Serif" font-size="10.00">CellSociety.start</text>
</a>
</g>
</g>
<!-- Node3&#45;&gt;Node6 -->
<g id="edge5" class="edge"><title>Node3&#45;&gt;Node6</title>
<path fill="none" stroke="midnightblue" d="M486.086,-95.555C494.995,-94.3712 503.914,-93.1863 512.287,-92.0738"/>
<polygon fill="midnightblue" stroke="midnightblue" points="485.512,-92.1005 476.06,-96.8872 486.434,-99.0395 485.512,-92.1005"/>
</g>
<!-- Node5 -->
<g id="node5" class="node"><title>Node5</title>
<g id="a_node5"><a xlink:href="../../d3/dff/class_cell_society.html#ac5e08680a3da358d402461bc25aa1727" target="_top" xlink:title="CellSociety.CellSociety">
<polygon fill="white" stroke="black" points="1226.5,-57.5 1226.5,-76.5 1349.5,-76.5 1349.5,-57.5 1226.5,-57.5"/>
<text text-anchor="middle" x="1288" y="-64.5" font-family="Helvetica,sans-Serif" font-size="10.00">CellSociety.CellSociety</text>
</a>
</g>
</g>
<!-- Node4&#45;&gt;Node5 -->
<g id="edge4" class="edge"><title>Node4&#45;&gt;Node5</title>
<path fill="none" stroke="midnightblue" d="M1200.09,-67C1209.01,-67 1217.92,-67 1226.45,-67"/>
<polygon fill="midnightblue" stroke="midnightblue" points="1200.03,-63.5001 1190.03,-67 1200.03,-70.5001 1200.03,-63.5001"/>
</g>
<!-- Node7 -->
<g id="node7" class="node"><title>Node7</title>
<g id="a_node7"><a xlink:href="../../d3/dff/class_cell_society.html#ab9e56a2a70e210e021b51e898508329b" target="_top" xlink:title="CellSociety.setupAnimation">
<polygon fill="white" stroke="black" points="644,-76.5 644,-95.5 790,-95.5 790,-76.5 644,-76.5"/>
<text text-anchor="middle" x="717" y="-83.5" font-family="Helvetica,sans-Serif" font-size="10.00">CellSociety.setupAnimation</text>
</a>
</g>
</g>
<!-- Node6&#45;&gt;Node7 -->
<g id="edge6" class="edge"><title>Node6&#45;&gt;Node7</title>
<path fill="none" stroke="midnightblue" d="M615.678,-86C624.854,-86 634.479,-86 643.984,-86"/>
<polygon fill="midnightblue" stroke="midnightblue" points="615.541,-82.5001 605.541,-86 615.541,-89.5001 615.541,-82.5001"/>
</g>
<!-- Node9 -->
<g id="node9" class="node"><title>Node9</title>
<g id="a_node9"><a xlink:href="../../d3/dff/class_cell_society.html#adc5feda3db5472cea4e092d463681033" target="_top" xlink:title="CellSociety.reframeTimeline">
<polygon fill="white" stroke="black" points="642.5,-38.5 642.5,-57.5 791.5,-57.5 791.5,-38.5 642.5,-38.5"/>
<text text-anchor="middle" x="717" y="-45.5" font-family="Helvetica,sans-Serif" font-size="10.00">CellSociety.reframeTimeline</text>
</a>
</g>
</g>
<!-- Node6&#45;&gt;Node9 -->
<g id="edge9" class="edge"><title>Node6&#45;&gt;Node9</title>
<path fill="none" stroke="midnightblue" d="M609.132,-74.032C630.993,-68.7069 656.376,-62.5238 676.918,-57.5201"/>
<polygon fill="midnightblue" stroke="midnightblue" points="608.253,-70.6437 599.365,-76.411 609.91,-77.4448 608.253,-70.6437"/>
</g>
<!-- Node8 -->
<g id="node8" class="node"><title>Node8</title>
<g id="a_node8"><a xlink:href="../../d3/dff/class_cell_society.html#af9f22af39a97a58b26126020ca6c8844" target="_top" xlink:title="CellSociety.readNewXML">
<polygon fill="white" stroke="black" points="846,-76.5 846,-95.5 978,-95.5 978,-76.5 846,-76.5"/>
<text text-anchor="middle" x="912" y="-83.5" font-family="Helvetica,sans-Serif" font-size="10.00">CellSociety.readNewXML</text>
</a>
</g>
</g>
<!-- Node7&#45;&gt;Node8 -->
<g id="edge7" class="edge"><title>Node7&#45;&gt;Node8</title>
<path fill="none" stroke="midnightblue" d="M800.552,-86C815.727,-86 831.372,-86 845.943,-86"/>
<polygon fill="midnightblue" stroke="midnightblue" points="800.141,-82.5001 790.141,-86 800.141,-89.5001 800.141,-82.5001"/>
</g>
<!-- Node8&#45;&gt;Node4 -->
<g id="edge8" class="edge"><title>Node8&#45;&gt;Node4</title>
<path fill="none" stroke="midnightblue" d="M988.323,-78.7353C1002.62,-77.3561 1017.62,-75.9102 1032,-74.5232"/>
<polygon fill="midnightblue" stroke="midnightblue" points="987.669,-75.2821 978.051,-79.726 988.341,-82.2498 987.669,-75.2821"/>
</g>
<!-- Node10 -->
<g id="node10" class="node"><title>Node10</title>
<g id="a_node10"><a xlink:href="../../d3/dff/class_cell_society.html#a8250bfacdaf51dabf6b9d1cafc0ce9b2" target="_top" xlink:title="CellSociety.increaseFrameRate">
<polygon fill="white" stroke="black" points="830.5,-38.5 830.5,-57.5 993.5,-57.5 993.5,-38.5 830.5,-38.5"/>
<text text-anchor="middle" x="912" y="-45.5" font-family="Helvetica,sans-Serif" font-size="10.00">CellSociety.increaseFrameRate</text>
</a>
</g>
</g>
<!-- Node9&#45;&gt;Node10 -->
<g id="edge10" class="edge"><title>Node9&#45;&gt;Node10</title>
<path fill="none" stroke="midnightblue" d="M801.719,-48C811.198,-48 820.845,-48 830.285,-48"/>
<polygon fill="midnightblue" stroke="midnightblue" points="801.516,-44.5001 791.516,-48 801.516,-51.5001 801.516,-44.5001"/>
</g>
<!-- Node11 -->
<g id="node11" class="node"><title>Node11</title>
<g id="a_node11"><a xlink:href="../../d3/dff/class_cell_society.html#a045267ba1843ca4a47891d7be73c2ac1" target="_top" xlink:title="CellSociety.decreaseFrameRate">
<polygon fill="white" stroke="black" points="828.5,-0.5 828.5,-19.5 995.5,-19.5 995.5,-0.5 828.5,-0.5"/>
<text text-anchor="middle" x="912" y="-7.5" font-family="Helvetica,sans-Serif" font-size="10.00">CellSociety.decreaseFrameRate</text>
</a>
</g>
</g>
<!-- Node9&#45;&gt;Node11 -->
<g id="edge12" class="edge"><title>Node9&#45;&gt;Node11</title>
<path fill="none" stroke="midnightblue" d="M776.602,-36.4619C804.129,-31.042 836.548,-24.659 862.648,-19.5201"/>
<polygon fill="midnightblue" stroke="midnightblue" points="775.838,-33.045 766.702,-38.411 777.19,-39.9132 775.838,-33.045"/>
</g>
<!-- Node10&#45;&gt;Node4 -->
<g id="edge11" class="edge"><title>Node10&#45;&gt;Node4</title>
<path fill="none" stroke="midnightblue" d="M1003.84,-56.7614C1013.24,-57.6678 1022.73,-58.5834 1031.97,-59.4746"/>
<polygon fill="midnightblue" stroke="midnightblue" points="1003.99,-53.2591 993.696,-55.7828 1003.31,-60.2268 1003.99,-53.2591"/>
</g>
<!-- Node11&#45;&gt;Node4 -->
<g id="edge13" class="edge"><title>Node11&#45;&gt;Node4</title>
<path fill="none" stroke="midnightblue" d="M968.362,-21.8882C977.628,-24.1025 987.115,-26.5086 996,-29 1026.33,-37.5056 1060.54,-49.198 1083.51,-57.3586"/>
<polygon fill="midnightblue" stroke="midnightblue" points="968.965,-18.4351 958.431,-19.5659 967.371,-25.2512 968.965,-18.4351"/>
</g>
</g>
</svg>
