<?xml version="1.0" encoding="UTF-8" standalone="no"?>
<!DOCTYPE svg PUBLIC "-//W3C//DTD SVG 1.1//EN"
 "http://www.w3.org/Graphics/SVG/1.1/DTD/svg11.dtd">
<!-- Generated by graphviz version 2.36.0 (20140111.2315)
 -->
<!-- Title: AbstractGrid.displayGrid Pages: 1 -->
<svg width="1552pt" height="161pt"
 viewBox="0.00 0.00 1552.00 161.00" xmlns="http://www.w3.org/2000/svg" xmlns:xlink="http://www.w3.org/1999/xlink">
<g id="graph0" class="graph" transform="scale(1 1) rotate(0) translate(4 157)">
<title>AbstractGrid.displayGrid</title>
<polygon fill="white" stroke="none" points="-4,4 -4,-157 1548,-157 1548,4 -4,4"/>
<!-- Node1 -->
<g id="node1" class="node"><title>Node1</title>
<polygon fill="#bfbfbf" stroke="black" points="0,-114.5 0,-133.5 132,-133.5 132,-114.5 0,-114.5"/>
<text text-anchor="middle" x="66" y="-121.5" font-family="Helvetica,sans-Serif" font-size="10.00">AbstractGrid.displayGrid</text>
</g>
<!-- Node2 -->
<g id="node2" class="node"><title>Node2</title>
<g id="a_node2"><a xlink:href="../../d8/ddc/class_abstract_grid.html#ad8227fe6a738b54714f04bf90f47e385" target="_top" xlink:title="AbstractGrid.AbstractGrid">
<polygon fill="white" stroke="black" points="168,-133.5 168,-152.5 308,-152.5 308,-133.5 168,-133.5"/>
<text text-anchor="middle" x="238" y="-140.5" font-family="Helvetica,sans-Serif" font-size="10.00">AbstractGrid.AbstractGrid</text>
</a>
</g>
</g>
<!-- Node1&#45;&gt;Node2 -->
<g id="edge1" class="edge"><title>Node1&#45;&gt;Node2</title>
<path fill="none" stroke="midnightblue" d="M142.22,-132.407C150.792,-133.365 159.499,-134.338 167.985,-135.287"/>
<polygon fill="midnightblue" stroke="midnightblue" points="142.567,-128.924 132.24,-131.292 141.79,-135.881 142.567,-128.924"/>
</g>
<!-- Node3 -->
<g id="node3" class="node"><title>Node3</title>
<g id="a_node3"><a xlink:href="../../d8/ddc/class_abstract_grid.html#a7199d87b68fce950300e23297a0ff44b" target="_top" xlink:title="AbstractGrid.update">
<polygon fill="white" stroke="black" points="181.5,-95.5 181.5,-114.5 294.5,-114.5 294.5,-95.5 181.5,-95.5"/>
<text text-anchor="middle" x="238" y="-102.5" font-family="Helvetica,sans-Serif" font-size="10.00">AbstractGrid.update</text>
</a>
</g>
</g>
<!-- Node1&#45;&gt;Node3 -->
<g id="edge2" class="edge"><title>Node1&#45;&gt;Node3</title>
<path fill="none" stroke="midnightblue" d="M142.216,-115.594C155.369,-114.123 168.839,-112.618 181.343,-111.22"/>
<polygon fill="midnightblue" stroke="midnightblue" points="141.79,-112.119 132.24,-116.708 142.567,-119.076 141.79,-112.119"/>
</g>
<!-- Node4 -->
<g id="node4" class="node"><title>Node4</title>
<g id="a_node4"><a xlink:href="../../df/df8/class_cell_society_view.html#a43ac2666d3a002024be53fe74028a576" target="_top" xlink:title="CellSocietyView.updateSimGrid">
<polygon fill="white" stroke="black" points="344.5,-95.5 344.5,-114.5 509.5,-114.5 509.5,-95.5 344.5,-95.5"/>
<text text-anchor="middle" x="427" y="-102.5" font-family="Helvetica,sans-Serif" font-size="10.00">CellSocietyView.updateSimGrid</text>
</a>
</g>
</g>
<!-- Node3&#45;&gt;Node4 -->
<g id="edge3" class="edge"><title>Node3&#45;&gt;Node4</title>
<path fill="none" stroke="midnightblue" d="M304.684,-105C317.489,-105 331.06,-105 344.31,-105"/>
<polygon fill="midnightblue" stroke="midnightblue" points="304.6,-101.5 294.6,-105 304.6,-108.5 304.6,-101.5"/>
</g>
<!-- Node5 -->
<g id="node5" class="node"><title>Node5</title>
<g id="a_node5"><a xlink:href="../../d3/dff/class_cell_society.html#a0ff19c30a1cc433d8ea8444f6a5617f1" target="_top" xlink:title="CellSociety.updateGrid">
<polygon fill="white" stroke="black" points="546,-95.5 546,-114.5 670,-114.5 670,-95.5 546,-95.5"/>
<text text-anchor="middle" x="608" y="-102.5" font-family="Helvetica,sans-Serif" font-size="10.00">CellSociety.updateGrid</text>
</a>
</g>
</g>
<!-- Node4&#45;&gt;Node5 -->
<g id="edge4" class="edge"><title>Node4&#45;&gt;Node5</title>
<path fill="none" stroke="midnightblue" d="M519.652,-105C528.523,-105 537.367,-105 545.833,-105"/>
<polygon fill="midnightblue" stroke="midnightblue" points="519.643,-101.5 509.643,-105 519.643,-108.5 519.643,-101.5"/>
</g>
<!-- Node6 -->
<g id="node6" class="node"><title>Node6</title>
<g id="a_node6"><a xlink:href="../../d3/dff/class_cell_society.html#a656ff46d1459fb7f86b42e3c542506ee" target="_top" xlink:title="CellSociety.configureListeners">
<polygon fill="white" stroke="black" points="1226,-57.5 1226,-76.5 1384,-76.5 1384,-57.5 1226,-57.5"/>
<text text-anchor="middle" x="1305" y="-64.5" font-family="Helvetica,sans-Serif" font-size="10.00">CellSociety.configureListeners</text>
</a>
</g>
</g>
<!-- Node5&#45;&gt;Node6 -->
<g id="edge5" class="edge"><title>Node5&#45;&gt;Node6</title>
<path fill="none" stroke="midnightblue" d="M680.15,-112.284C790.267,-121.925 1008.24,-134.495 1190,-105 1223.15,-99.6198 1259.7,-85.977 1282.25,-76.5924"/>
<polygon fill="midnightblue" stroke="midnightblue" points="680.428,-108.795 670.157,-111.391 679.805,-115.767 680.428,-108.795"/>
</g>
<!-- Node8 -->
<g id="node8" class="node"><title>Node8</title>
<g id="a_node8"><a xlink:href="../../d3/dff/class_cell_society.html#abf13a64ee79f2cb063447b499c695c58" target="_top" xlink:title="CellSociety.start">
<polygon fill="white" stroke="black" points="706.5,-76.5 706.5,-95.5 799.5,-95.5 799.5,-76.5 706.5,-76.5"/>
<text text-anchor="middle" x="753" y="-83.5" font-family="Helvetica,sans-Serif" font-size="10.00">CellSociety.start</text>
</a>
</g>
</g>
<!-- Node5&#45;&gt;Node8 -->
<g id="edge7" class="edge"><title>Node5&#45;&gt;Node8</title>
<path fill="none" stroke="midnightblue" d="M680.086,-95.555C688.995,-94.3712 697.914,-93.1863 706.287,-92.0738"/>
<polygon fill="midnightblue" stroke="midnightblue" points="679.512,-92.1005 670.06,-96.8872 680.434,-99.0395 679.512,-92.1005"/>
</g>
<!-- Node7 -->
<g id="node7" class="node"><title>Node7</title>
<g id="a_node7"><a xlink:href="../../d3/dff/class_cell_society.html#ac5e08680a3da358d402461bc25aa1727" target="_top" xlink:title="CellSociety.CellSociety">
<polygon fill="white" stroke="black" points="1420.5,-57.5 1420.5,-76.5 1543.5,-76.5 1543.5,-57.5 1420.5,-57.5"/>
<text text-anchor="middle" x="1482" y="-64.5" font-family="Helvetica,sans-Serif" font-size="10.00">CellSociety.CellSociety</text>
</a>
</g>
</g>
<!-- Node6&#45;&gt;Node7 -->
<g id="edge6" class="edge"><title>Node6&#45;&gt;Node7</title>
<path fill="none" stroke="midnightblue" d="M1394.09,-67C1403.01,-67 1411.92,-67 1420.45,-67"/>
<polygon fill="midnightblue" stroke="midnightblue" points="1394.03,-63.5001 1384.03,-67 1394.03,-70.5001 1394.03,-63.5001"/>
</g>
<!-- Node9 -->
<g id="node9" class="node"><title>Node9</title>
<g id="a_node9"><a xlink:href="../../d3/dff/class_cell_society.html#ab9e56a2a70e210e021b51e898508329b" target="_top" xlink:title="CellSociety.setupAnimation">
<polygon fill="white" stroke="black" points="838,-76.5 838,-95.5 984,-95.5 984,-76.5 838,-76.5"/>
<text text-anchor="middle" x="911" y="-83.5" font-family="Helvetica,sans-Serif" font-size="10.00">CellSociety.setupAnimation</text>
</a>
</g>
</g>
<!-- Node8&#45;&gt;Node9 -->
<g id="edge8" class="edge"><title>Node8&#45;&gt;Node9</title>
<path fill="none" stroke="midnightblue" d="M809.678,-86C818.854,-86 828.479,-86 837.984,-86"/>
<polygon fill="midnightblue" stroke="midnightblue" points="809.541,-82.5001 799.541,-86 809.541,-89.5001 809.541,-82.5001"/>
</g>
<!-- Node11 -->
<g id="node11" class="node"><title>Node11</title>
<g id="a_node11"><a xlink:href="../../d3/dff/class_cell_society.html#adc5feda3db5472cea4e092d463681033" target="_top" xlink:title="CellSociety.reframeTimeline">
<polygon fill="white" stroke="black" points="836.5,-38.5 836.5,-57.5 985.5,-57.5 985.5,-38.5 836.5,-38.5"/>
<text text-anchor="middle" x="911" y="-45.5" font-family="Helvetica,sans-Serif" font-size="10.00">CellSociety.reframeTimeline</text>
</a>
</g>
</g>
<!-- Node8&#45;&gt;Node11 -->
<g id="edge11" class="edge"><title>Node8&#45;&gt;Node11</title>
<path fill="none" stroke="midnightblue" d="M803.132,-74.032C824.993,-68.7069 850.376,-62.5238 870.918,-57.5201"/>
<polygon fill="midnightblue" stroke="midnightblue" points="802.253,-70.6437 793.365,-76.411 803.91,-77.4448 802.253,-70.6437"/>
</g>
<!-- Node10 -->
<g id="node10" class="node"><title>Node10</title>
<g id="a_node10"><a xlink:href="../../d3/dff/class_cell_society.html#af9f22af39a97a58b26126020ca6c8844" target="_top" xlink:title="CellSociety.readNewXML">
<polygon fill="white" stroke="black" points="1040,-76.5 1040,-95.5 1172,-95.5 1172,-76.5 1040,-76.5"/>
<text text-anchor="middle" x="1106" y="-83.5" font-family="Helvetica,sans-Serif" font-size="10.00">CellSociety.readNewXML</text>
</a>
</g>
</g>
<!-- Node9&#45;&gt;Node10 -->
<g id="edge9" class="edge"><title>Node9&#45;&gt;Node10</title>
<path fill="none" stroke="midnightblue" d="M994.552,-86C1009.73,-86 1025.37,-86 1039.94,-86"/>
<polygon fill="midnightblue" stroke="midnightblue" points="994.141,-82.5001 984.141,-86 994.141,-89.5001 994.141,-82.5001"/>
</g>
<!-- Node10&#45;&gt;Node6 -->
<g id="edge10" class="edge"><title>Node10&#45;&gt;Node6</title>
<path fill="none" stroke="midnightblue" d="M1182.32,-78.7353C1196.62,-77.3561 1211.62,-75.9102 1226,-74.5232"/>
<polygon fill="midnightblue" stroke="midnightblue" points="1181.67,-75.2821 1172.05,-79.726 1182.34,-82.2498 1181.67,-75.2821"/>
</g>
<!-- Node12 -->
<g id="node12" class="node"><title>Node12</title>
<g id="a_node12"><a xlink:href="../../d3/dff/class_cell_society.html#a8250bfacdaf51dabf6b9d1cafc0ce9b2" target="_top" xlink:title="CellSociety.increaseFrameRate">
<polygon fill="white" stroke="black" points="1024.5,-38.5 1024.5,-57.5 1187.5,-57.5 1187.5,-38.5 1024.5,-38.5"/>
<text text-anchor="middle" x="1106" y="-45.5" font-family="Helvetica,sans-Serif" font-size="10.00">CellSociety.increaseFrameRate</text>
</a>
</g>
</g>
<!-- Node11&#45;&gt;Node12 -->
<g id="edge12" class="edge"><title>Node11&#45;&gt;Node12</title>
<path fill="none" stroke="midnightblue" d="M995.719,-48C1005.2,-48 1014.85,-48 1024.29,-48"/>
<polygon fill="midnightblue" stroke="midnightblue" points="995.516,-44.5001 985.516,-48 995.516,-51.5001 995.516,-44.5001"/>
</g>
<!-- Node13 -->
<g id="node13" class="node"><title>Node13</title>
<g id="a_node13"><a xlink:href="../../d3/dff/class_cell_society.html#a045267ba1843ca4a47891d7be73c2ac1" target="_top" xlink:title="CellSociety.decreaseFrameRate">
<polygon fill="white" stroke="black" points="1022.5,-0.5 1022.5,-19.5 1189.5,-19.5 1189.5,-0.5 1022.5,-0.5"/>
<text text-anchor="middle" x="1106" y="-7.5" font-family="Helvetica,sans-Serif" font-size="10.00">CellSociety.decreaseFrameRate</text>
</a>
</g>
</g>
<!-- Node11&#45;&gt;Node13 -->
<g id="edge14" class="edge"><title>Node11&#45;&gt;Node13</title>
<path fill="none" stroke="midnightblue" d="M970.602,-36.4619C998.129,-31.042 1030.55,-24.659 1056.65,-19.5201"/>
<polygon fill="midnightblue" stroke="midnightblue" points="969.838,-33.045 960.702,-38.411 971.19,-39.9132 969.838,-33.045"/>
</g>
<!-- Node12&#45;&gt;Node6 -->
<g id="edge13" class="edge"><title>Node12&#45;&gt;Node6</title>
<path fill="none" stroke="midnightblue" d="M1197.84,-56.7614C1207.24,-57.6678 1216.73,-58.5834 1225.97,-59.4746"/>
<polygon fill="midnightblue" stroke="midnightblue" points="1197.99,-53.2591 1187.7,-55.7828 1197.31,-60.2268 1197.99,-53.2591"/>
</g>
<!-- Node13&#45;&gt;Node6 -->
<g id="edge15" class="edge"><title>Node13&#45;&gt;Node6</title>
<path fill="none" stroke="midnightblue" d="M1162.36,-21.8882C1171.63,-24.1025 1181.12,-26.5086 1190,-29 1220.33,-37.5056 1254.54,-49.198 1277.51,-57.3586"/>
<polygon fill="midnightblue" stroke="midnightblue" points="1162.97,-18.4351 1152.43,-19.5659 1161.37,-25.2512 1162.97,-18.4351"/>
</g>
</g>
</svg>
