<?xml version="1.0" encoding="UTF-8" standalone="no"?>
<!DOCTYPE svg PUBLIC "-//W3C//DTD SVG 1.1//EN"
 "http://www.w3.org/Graphics/SVG/1.1/DTD/svg11.dtd">
<!-- Generated by graphviz version 2.36.0 (20140111.2315)
 -->
<!-- Title: AbstractGrid.AbstractGrid Pages: 1 -->
<svg width="326pt" height="66pt"
 viewBox="0.00 0.00 326.00 66.00" xmlns="http://www.w3.org/2000/svg" xmlns:xlink="http://www.w3.org/1999/xlink">
<g id="graph0" class="graph" transform="scale(1 1) rotate(0) translate(4 62)">
<title>AbstractGrid.AbstractGrid</title>
<polygon fill="white" stroke="none" points="-4,4 -4,-62 322,-62 322,4 -4,4"/>
<!-- Node1 -->
<g id="node1" class="node"><title>Node1</title>
<polygon fill="#bfbfbf" stroke="black" points="0,-19.5 0,-38.5 140,-38.5 140,-19.5 0,-19.5"/>
<text text-anchor="middle" x="70" y="-26.5" font-family="Helvetica,sans-Serif" font-size="10.00">AbstractGrid.AbstractGrid</text>
</g>
<!-- Node2 -->
<g id="node2" class="node"><title>Node2</title>
<g id="a_node2"><a xlink:href="../../d8/ddc/class_abstract_grid.html#a2b7c26a0ddce10dd7644a8e4d5bf8453" target="_top" xlink:title="AbstractGrid.displayGrid">
<polygon fill="white" stroke="black" points="181,-38.5 181,-57.5 313,-57.5 313,-38.5 181,-38.5"/>
<text text-anchor="middle" x="247" y="-45.5" font-family="Helvetica,sans-Serif" font-size="10.00">AbstractGrid.displayGrid</text>
</a>
</g>
</g>
<!-- Node1&#45;&gt;Node2 -->
<g id="edge1" class="edge"><title>Node1&#45;&gt;Node2</title>
<path fill="none" stroke="midnightblue" d="M140.165,-36.5093C150.196,-37.5984 160.564,-38.7241 170.709,-39.8256"/>
<polygon fill="midnightblue" stroke="midnightblue" points="170.439,-43.3168 180.759,-40.9167 171.195,-36.3576 170.439,-43.3168"/>
</g>
<!-- Node3 -->
<g id="node3" class="node"><title>Node3</title>
<g id="a_node3"><a xlink:href="../../d8/ddc/class_abstract_grid.html#ad5bc6902b69a1fc8e129875cba815e1d" target="_top" xlink:title="AbstractGrid.populateGrid">
<polygon fill="white" stroke="black" points="176.5,-0.5 176.5,-19.5 317.5,-19.5 317.5,-0.5 176.5,-0.5"/>
<text text-anchor="middle" x="247" y="-7.5" font-family="Helvetica,sans-Serif" font-size="10.00">AbstractGrid.populateGrid</text>
</a>
</g>
</g>
<!-- Node1&#45;&gt;Node3 -->
<g id="edge2" class="edge"><title>Node1&#45;&gt;Node3</title>
<path fill="none" stroke="midnightblue" d="M140.165,-21.4907C148.748,-20.5588 157.578,-19.6001 166.304,-18.6527"/>
<polygon fill="midnightblue" stroke="midnightblue" points="166.914,-22.1071 176.478,-17.5481 166.159,-15.148 166.914,-22.1071"/>
</g>
</g>
</svg>
