<?xml version="1.0" encoding="UTF-8" standalone="no"?>
<!DOCTYPE svg PUBLIC "-//W3C//DTD SVG 1.1//EN"
 "http://www.w3.org/Graphics/SVG/1.1/DTD/svg11.dtd">
<!-- Generated by graphviz version 2.36.0 (20140111.2315)
 -->
<!-- Title: CellSocietyView Pages: 1 -->
<!--zoomable 473 -->
<svg id="main" version="1.1" xmlns="http://www.w3.org/2000/svg" xmlns:xlink="http://www.w3.org/1999/xlink" xml:space="preserve" onload="init(evt)">
<style type="text/css"><![CDATA[
.edge:hover path { stroke: red; }
.edge:hover polygon { stroke: red; fill: red; }
]]></style>
<script type="text/javascript"><![CDATA[
var edges = document.getElementsByTagName('g');
if (edges && edges.length) {
  for (var i=0;i<edges.length;i++) {
    if (edges[i].id.substr(0,4)=='edge') {
      edges[i].setAttribute('class','edge');
    }
  }
}
]]></script>
        <defs>
                <circle id="rim" cx="0" cy="0" r="7"/>
                <circle id="rim2" cx="0" cy="0" r="3.5"/>
                <g id="zoomPlus">
                        <use xlink:href="#rim" fill="#404040">
                                <set attributeName="fill" to="#808080" begin="zoomplus.mouseover" end="zoomplus.mouseout"/>
                        </use>
                        <path d="M-4,0h8M0,-4v8" fill="none" stroke="white" stroke-width="1.5" pointer-events="none"/>
                </g>
                <g id="zoomMin">
                        <use xlink:href="#rim" fill="#404040">
                                <set attributeName="fill" to="#808080" begin="zoomminus.mouseover" end="zoomminus.mouseout"/>
                        </use>
                        <path d="M-4,0h8" fill="none" stroke="white" stroke-width="1.5" pointer-events="none"/>
                </g>
                <g id="dirArrow">
                        <path fill="none" stroke="white" stroke-width="1.5" d="M0,-3.0v7 M-2.5,-0.5L0,-3.0L2.5,-0.5"/>
                </g>
               <g id="resetDef">
                       <use xlink:href="#rim2" fill="#404040">
                               <set attributeName="fill" to="#808080" begin="reset.mouseover" end="reset.mouseout"/>
                       </use>
               </g>
        </defs>

<script type="text/javascript">
var viewWidth = 358;
var viewHeight = 473;
var sectionId = 'dynsection-0';
</script>
<script xlink:href="../../svgpan.js"/>
<svg id="graph" class="graph">
<g id="viewport">
<title>CellSocietyView</title>
<polygon fill="white" stroke="none" points="-4,4 -4,-468.52 354,-468.52 354,4 -4,4"/>
<!-- Node1 -->
<g id="node1" class="node"><title>Node1</title>
<polygon fill="#bfbfbf" stroke="black" points="258.5,-199.02 258.5,-218.02 349.5,-218.02 349.5,-199.02 258.5,-199.02"/>
<text text-anchor="middle" x="304" y="-206.02" font-family="Helvetica,sans-Serif" font-size="10.00">CellSocietyView</text>
</g>
<!-- Node2 -->
<g id="node2" class="node"><title>Node2</title>
<polygon fill="white" stroke="#bfbfbf" points="41.5,-438.02 41.5,-457.02 86.5,-457.02 86.5,-438.02 41.5,-438.02"/>
<text text-anchor="middle" x="64" y="-445.02" font-family="Helvetica,sans-Serif" font-size="10.00">Stage</text>
</g>
<!-- Node2&#45;&gt;Node1 -->
<g id="edge1" class="edge"><title>Node2&#45;&gt;Node1</title>
<path fill="none" stroke="#9a32cd" stroke-dasharray="5,2" d="M96.6784,-452.411C135.269,-456.474 200.22,-456.934 240,-422.52 303.559,-367.535 304.633,-252.004 303.484,-218.079"/>
<polygon fill="#9a32cd" stroke="#9a32cd" points="96.8814,-448.91 86.5359,-451.195 96.0483,-455.86 96.8814,-448.91"/>
<text text-anchor="middle" x="193" y="-456.52" font-family="Helvetica,sans-Serif" font-size="10.00"> myStage</text>
</g>
<!-- Node3 -->
<g id="node3" class="node"><title>Node3</title>
<polygon fill="white" stroke="#bfbfbf" points="17.5,-400.02 17.5,-419.02 110.5,-419.02 110.5,-400.02 17.5,-400.02"/>
<text text-anchor="middle" x="64" y="-407.02" font-family="Helvetica,sans-Serif" font-size="10.00">ResourceBundle</text>
</g>
<!-- Node3&#45;&gt;Node1 -->
<g id="edge2" class="edge"><title>Node3&#45;&gt;Node1</title>
<path fill="none" stroke="#9a32cd" stroke-dasharray="5,2" d="M120.718,-408.407C164.904,-406.415 222.104,-401.011 240,-386.52 294.265,-342.58 301.843,-248.534 302.858,-218.18"/>
<polygon fill="#9a32cd" stroke="#9a32cd" points="120.505,-404.912 110.654,-408.813 120.787,-411.907 120.505,-404.912"/>
<text text-anchor="middle" x="193" y="-410.52" font-family="Helvetica,sans-Serif" font-size="10.00"> myResources</text>
</g>
<!-- Node4 -->
<g id="node4" class="node"><title>Node4</title>
<polygon fill="white" stroke="#bfbfbf" points="6,-350.52 6,-380.52 122,-380.52 122,-350.52 6,-350.52"/>
<text text-anchor="start" x="14" y="-368.52" font-family="Helvetica,sans-Serif" font-size="10.00">LineChart&lt; Number,</text>
<text text-anchor="middle" x="64" y="-357.52" font-family="Helvetica,sans-Serif" font-size="10.00"> Number &gt;</text>
</g>
<!-- Node4&#45;&gt;Node1 -->
<g id="edge3" class="edge"><title>Node4&#45;&gt;Node1</title>
<path fill="none" stroke="#9a32cd" stroke-dasharray="5,2" d="M132.308,-371.837C167.441,-371.718 209.365,-365.839 240,-343.52 283.064,-312.147 297.616,-243.85 301.657,-218.368"/>
<polygon fill="#9a32cd" stroke="#9a32cd" points="132.161,-368.335 122.12,-371.714 132.077,-375.335 132.161,-368.335"/>
<text text-anchor="middle" x="193" y="-374.52" font-family="Helvetica,sans-Serif" font-size="10.00"> myChart</text>
</g>
<!-- Node5 -->
<g id="node5" class="node"><title>Node5</title>
<polygon fill="white" stroke="#bfbfbf" points="36,-312.02 36,-331.02 92,-331.02 92,-312.02 36,-312.02"/>
<text text-anchor="middle" x="64" y="-319.02" font-family="Helvetica,sans-Serif" font-size="10.00">TextField</text>
</g>
<!-- Node5&#45;&gt;Node1 -->
<g id="edge4" class="edge"><title>Node5&#45;&gt;Node1</title>
<path fill="none" stroke="#9a32cd" stroke-dasharray="5,2" d="M102.134,-328.228C139.677,-333.003 197.999,-334.741 240,-309.52 275.258,-288.349 293.769,-239.062 300.265,-218.163"/>
<polygon fill="#9a32cd" stroke="#9a32cd" points="102.516,-324.748 92.1265,-326.821 101.542,-331.679 102.516,-324.748"/>
<text text-anchor="middle" x="193" y="-334.52" font-family="Helvetica,sans-Serif" font-size="10.00"> mySpeedTextField</text>
</g>
<!-- Node6 -->
<g id="node6" class="node"><title>Node6</title>
<polygon fill="white" stroke="#bfbfbf" points="39.5,-246.02 39.5,-265.02 88.5,-265.02 88.5,-246.02 39.5,-246.02"/>
<text text-anchor="middle" x="64" y="-253.02" font-family="Helvetica,sans-Serif" font-size="10.00">Button</text>
</g>
<!-- Node6&#45;&gt;Node1 -->
<g id="edge5" class="edge"><title>Node6&#45;&gt;Node1</title>
<path fill="none" stroke="#9a32cd" stroke-dasharray="5,2" d="M98.6568,-248.874C140.507,-240.609 212.076,-226.476 258.443,-217.319"/>
<polygon fill="#9a32cd" stroke="#9a32cd" points="97.8229,-245.471 88.6905,-250.842 99.1791,-252.338 97.8229,-245.471"/>
<text text-anchor="middle" x="193" y="-297.52" font-family="Helvetica,sans-Serif" font-size="10.00"> myXMLButton</text>
<text text-anchor="middle" x="193" y="-286.52" font-family="Helvetica,sans-Serif" font-size="10.00">myPauseButton</text>
<text text-anchor="middle" x="193" y="-275.52" font-family="Helvetica,sans-Serif" font-size="10.00">mySlowdownButton</text>
<text text-anchor="middle" x="193" y="-264.52" font-family="Helvetica,sans-Serif" font-size="10.00">mySpeedupButton</text>
<text text-anchor="middle" x="193" y="-253.52" font-family="Helvetica,sans-Serif" font-size="10.00">myStepButton</text>
<text text-anchor="middle" x="193" y="-242.52" font-family="Helvetica,sans-Serif" font-size="10.00">myPlayButton</text>
</g>
<!-- Node7 -->
<g id="node7" class="node"><title>Node7</title>
<polygon fill="white" stroke="#bfbfbf" points="0,-196.52 0,-226.52 128,-226.52 128,-196.52 0,-196.52"/>
<text text-anchor="start" x="8" y="-214.52" font-family="Helvetica,sans-Serif" font-size="10.00">List&lt; Series&lt; Number,</text>
<text text-anchor="middle" x="64" y="-203.52" font-family="Helvetica,sans-Serif" font-size="10.00"> Number &gt; &gt;</text>
</g>
<!-- Node7&#45;&gt;Node1 -->
<g id="edge6" class="edge"><title>Node7&#45;&gt;Node1</title>
<path fill="none" stroke="#9a32cd" stroke-dasharray="5,2" d="M138.317,-209.65C140.91,-209.603 143.477,-209.56 146,-209.52 183.883,-208.932 226.914,-208.688 258.333,-208.587"/>
<polygon fill="#9a32cd" stroke="#9a32cd" points="138.16,-206.152 128.23,-209.847 138.297,-213.151 138.16,-206.152"/>
<text text-anchor="middle" x="193" y="-212.52" font-family="Helvetica,sans-Serif" font-size="10.00"> mySeries</text>
</g>
<!-- Node8 -->
<g id="node8" class="node"><title>Node8</title>
<polygon fill="white" stroke="#bfbfbf" points="46.5,-158.02 46.5,-177.02 81.5,-177.02 81.5,-158.02 46.5,-158.02"/>
<text text-anchor="middle" x="64" y="-165.02" font-family="Helvetica,sans-Serif" font-size="10.00">Text</text>
</g>
<!-- Node8&#45;&gt;Node1 -->
<g id="edge7" class="edge"><title>Node8&#45;&gt;Node1</title>
<path fill="none" stroke="#9a32cd" stroke-dasharray="5,2" d="M92.1664,-171.149C126.653,-175.884 187.93,-184.729 240,-194.52 247.157,-195.866 254.742,-197.431 262.075,-199.017"/>
<polygon fill="#9a32cd" stroke="#9a32cd" points="92.3369,-167.64 81.9564,-169.76 91.3933,-174.576 92.3369,-167.64"/>
<text text-anchor="middle" x="193" y="-197.52" font-family="Helvetica,sans-Serif" font-size="10.00"> myErrorMsg</text>
</g>
<!-- Node9 -->
<g id="node9" class="node"><title>Node9</title>
<polygon fill="white" stroke="#bfbfbf" points="45,-120.02 45,-139.02 83,-139.02 83,-120.02 45,-120.02"/>
<text text-anchor="middle" x="64" y="-127.02" font-family="Helvetica,sans-Serif" font-size="10.00">Font</text>
</g>
<!-- Node9&#45;&gt;Node1 -->
<g id="edge8" class="edge"><title>Node9&#45;&gt;Node1</title>
<path fill="none" stroke="#9a32cd" stroke-dasharray="5,2" d="M93.2533,-128.523C129.03,-128.327 191.811,-131.595 240,-153.52 263.259,-164.103 284.314,-186.131 295.202,-198.864"/>
<polygon fill="#9a32cd" stroke="#9a32cd" points="93.0087,-125.026 83.0633,-128.678 93.1155,-132.025 93.0087,-125.026"/>
<text text-anchor="middle" x="193" y="-167.52" font-family="Helvetica,sans-Serif" font-size="10.00"> TITLE_FONT</text>
<text text-anchor="middle" x="193" y="-156.52" font-family="Helvetica,sans-Serif" font-size="10.00">ERROR_FONT</text>
</g>
<!-- Node10 -->
<g id="node10" class="node"><title>Node10</title>
<polygon fill="white" stroke="#bfbfbf" points="40.5,-82.0204 40.5,-101.02 87.5,-101.02 87.5,-82.0204 40.5,-82.0204"/>
<text text-anchor="middle" x="64" y="-89.0204" font-family="Helvetica,sans-Serif" font-size="10.00">Scene</text>
</g>
<!-- Node10&#45;&gt;Node1 -->
<g id="edge9" class="edge"><title>Node10&#45;&gt;Node1</title>
<path fill="none" stroke="#9a32cd" stroke-dasharray="5,2" d="M97.9545,-88.6741C135.252,-87.0685 196.467,-89.4617 240,-116.52 272.06,-136.448 291.832,-179.397 299.435,-198.733"/>
<polygon fill="#9a32cd" stroke="#9a32cd" points="97.4391,-85.1973 87.6487,-89.2466 97.8274,-92.1865 97.4391,-85.1973"/>
<text text-anchor="middle" x="193" y="-119.52" font-family="Helvetica,sans-Serif" font-size="10.00"> myScene</text>
</g>
<!-- Node11 -->
<g id="node11" class="node"><title>Node11</title>
<polygon fill="white" stroke="#bfbfbf" points="34.5,-41.0204 34.5,-60.0204 93.5,-60.0204 93.5,-41.0204 34.5,-41.0204"/>
<text text-anchor="middle" x="64" y="-48.0204" font-family="Helvetica,sans-Serif" font-size="10.00">GridPane</text>
</g>
<!-- Node11&#45;&gt;Node1 -->
<g id="edge10" class="edge"><title>Node11&#45;&gt;Node1</title>
<path fill="none" stroke="#9a32cd" stroke-dasharray="5,2" d="M103.973,-42.963C142.216,-37.8172 200.408,-36.3085 240,-64.5204 286.224,-97.458 298.924,-171.934 302.061,-198.705"/>
<polygon fill="#9a32cd" stroke="#9a32cd" points="103.121,-39.5513 93.7468,-44.4892 104.154,-46.4747 103.121,-39.5513"/>
<text text-anchor="middle" x="193" y="-78.5204" font-family="Helvetica,sans-Serif" font-size="10.00"> mySimGrid</text>
<text text-anchor="middle" x="193" y="-67.5204" font-family="Helvetica,sans-Serif" font-size="10.00">myRoot</text>
</g>
<!-- Node12 -->
<g id="node12" class="node"><title>Node12</title>
<polygon fill="white" stroke="#bfbfbf" points="43,-3.02036 43,-22.0204 85,-22.0204 85,-3.02036 43,-3.02036"/>
<text text-anchor="middle" x="64" y="-10.0204" font-family="Helvetica,sans-Serif" font-size="10.00">HBox</text>
</g>
<!-- Node12&#45;&gt;Node1 -->
<g id="edge11" class="edge"><title>Node12&#45;&gt;Node1</title>
<path fill="none" stroke="#9a32cd" stroke-dasharray="5,2" d="M94.9533,-5.61233C132.851,1.26781 198.205,6.69654 240,-25.5204 296.95,-69.419 302.711,-167.803 303.068,-198.904"/>
<polygon fill="#9a32cd" stroke="#9a32cd" points="94.1723,-2.19879 85.0348,-7.56129 95.522,-9.06744 94.1723,-2.19879"/>
<text text-anchor="middle" x="193" y="-28.5204" font-family="Helvetica,sans-Serif" font-size="10.00"> myTitleBox</text>
</g>
</g>
</svg>
        <g id="navigator" transform="translate(0 0)" fill="#404254">
                <rect fill="#f2f5e9" fill-opacity="0.5" stroke="#606060" stroke-width=".5" x="0" y="0" width="60" height="60"/>
                <use id="zoomplus" xlink:href="#zoomPlus" x="17" y="9" onmousedown="handleZoom(evt,'in')"/>
                <use id="zoomminus" xlink:href="#zoomMin" x="42" y="9" onmousedown="handleZoom(evt,'out')"/>
                <use id="reset" xlink:href="#resetDef" x="30" y="36" onmousedown="handleReset()"/>
                <g id="arrowUp" xlink:href="#dirArrow" transform="translate(30 24)" onmousedown="handlePan(0,-1)">
                  <use xlink:href="#rim" fill="#404040">
                        <set attributeName="fill" to="#808080" begin="arrowUp.mouseover" end="arrowUp.mouseout"/>
                  </use>
                  <path fill="none" stroke="white" stroke-width="1.5" d="M0,-3.0v7 M-2.5,-0.5L0,-3.0L2.5,-0.5"/>
                </g>
                <g id="arrowRight" xlink:href="#dirArrow" transform="rotate(90) translate(36 -43)" onmousedown="handlePan(1,0)">
                  <use xlink:href="#rim" fill="#404040">
                        <set attributeName="fill" to="#808080" begin="arrowRight.mouseover" end="arrowRight.mouseout"/>
                  </use>
                  <path fill="none" stroke="white" stroke-width="1.5" d="M0,-3.0v7 M-2.5,-0.5L0,-3.0L2.5,-0.5"/>
                </g>
                <g id="arrowDown" xlink:href="#dirArrow" transform="rotate(180) translate(-30 -48)" onmousedown="handlePan(0,1)">
                  <use xlink:href="#rim" fill="#404040">
                        <set attributeName="fill" to="#808080" begin="arrowDown.mouseover" end="arrowDown.mouseout"/>
                  </use>
                  <path fill="none" stroke="white" stroke-width="1.5" d="M0,-3.0v7 M-2.5,-0.5L0,-3.0L2.5,-0.5"/>
                </g>
                <g id="arrowLeft" xlink:href="#dirArrow" transform="rotate(270) translate(-36 17)" onmousedown="handlePan(-1,0)">
                  <use xlink:href="#rim" fill="#404040">
                        <set attributeName="fill" to="#808080" begin="arrowLeft.mouseover" end="arrowLeft.mouseout"/>
                  </use>
                  <path fill="none" stroke="white" stroke-width="1.5" d="M0,-3.0v7 M-2.5,-0.5L0,-3.0L2.5,-0.5"/>
                </g>
        </g>
        <svg viewBox="0 0 15 15" width="100%" height="30px" preserveAspectRatio="xMaxYMin meet">
         <g id="arrow_out" transform="scale(0.3 0.3)">
          <a xlink:href="class_cell_society_view__coll__graph_org.svg" target="_base">
           <rect id="button" ry="5" rx="5" y="6" x="6" height="38" width="38"
                fill="#f2f5e9" fill-opacity="0.5" stroke="#606060" stroke-width="1.0"/>
           <path id="arrow"
             d="M 11.500037,31.436501 C 11.940474,20.09759 22.043105,11.32322 32.158766,21.979434 L 37.068811,17.246167 C 37.068811,17.246167 37.088388,32 37.088388,32 L 22.160133,31.978069 C 22.160133,31.978069 26.997745,27.140456 26.997745,27.140456 C 18.528582,18.264221 13.291696,25.230495 11.500037,31.436501 z"
             style="fill:#404040;"/>
          </a>
         </g>
        </svg>
</svg>
