<?xml version="1.0" encoding="UTF-8" standalone="no"?>
<!DOCTYPE svg PUBLIC "-//W3C//DTD SVG 1.1//EN"
 "http://www.w3.org/Graphics/SVG/1.1/DTD/svg11.dtd">
<!-- Generated by graphviz version 2.36.0 (20140111.2315)
 -->
<!-- Title: CellSocietyView Pages: 1 -->
<!--zoomable 541 -->
<svg id="main" version="1.1" xmlns="http://www.w3.org/2000/svg" xmlns:xlink="http://www.w3.org/1999/xlink" xml:space="preserve" onload="init(evt)">
<style type="text/css"><![CDATA[
.edge:hover path { stroke: red; }
.edge:hover polygon { stroke: red; fill: red; }
]]></style>
<script type="text/javascript"><![CDATA[
var edges = document.getElementsByTagName('g');
if (edges && edges.length) {
  for (var i=0;i<edges.length;i++) {
    if (edges[i].id.substr(0,4)=='edge') {
      edges[i].setAttribute('class','edge');
    }
  }
}
]]></script>
        <defs>
                <circle id="rim" cx="0" cy="0" r="7"/>
                <circle id="rim2" cx="0" cy="0" r="3.5"/>
                <g id="zoomPlus">
                        <use xlink:href="#rim" fill="#404040">
                                <set attributeName="fill" to="#808080" begin="zoomplus.mouseover" end="zoomplus.mouseout"/>
                        </use>
                        <path d="M-4,0h8M0,-4v8" fill="none" stroke="white" stroke-width="1.5" pointer-events="none"/>
                </g>
                <g id="zoomMin">
                        <use xlink:href="#rim" fill="#404040">
                                <set attributeName="fill" to="#808080" begin="zoomminus.mouseover" end="zoomminus.mouseout"/>
                        </use>
                        <path d="M-4,0h8" fill="none" stroke="white" stroke-width="1.5" pointer-events="none"/>
                </g>
                <g id="dirArrow">
                        <path fill="none" stroke="white" stroke-width="1.5" d="M0,-3.0v7 M-2.5,-0.5L0,-3.0L2.5,-0.5"/>
                </g>
               <g id="resetDef">
                       <use xlink:href="#rim2" fill="#404040">
                               <set attributeName="fill" to="#808080" begin="reset.mouseover" end="reset.mouseout"/>
                       </use>
               </g>
        </defs>

<script type="text/javascript">
var viewWidth = 498;
var viewHeight = 541;
var sectionId = 'dynsection-0';
</script>
<script xlink:href="../../svgpan.js"/>
<svg id="graph" class="graph">
<g id="viewport">
<title>CellSocietyView</title>
<polygon fill="white" stroke="none" points="-4,4 -4,-536.544 494,-536.544 494,4 -4,4"/>
<!-- Node1 -->
<g id="node1" class="node"><title>Node1</title>
<polygon fill="#bfbfbf" stroke="black" points="398.5,-230.044 398.5,-249.044 489.5,-249.044 489.5,-230.044 398.5,-230.044"/>
<text text-anchor="middle" x="444" y="-237.044" font-family="Helvetica,sans-Serif" font-size="10.00">CellSocietyView</text>
</g>
<!-- Node2 -->
<g id="node2" class="node"><title>Node2</title>
<polygon fill="white" stroke="#bfbfbf" points="181.5,-507.044 181.5,-526.044 226.5,-526.044 226.5,-507.044 181.5,-507.044"/>
<text text-anchor="middle" x="204" y="-514.044" font-family="Helvetica,sans-Serif" font-size="10.00">Stage</text>
</g>
<!-- Node2&#45;&gt;Node1 -->
<g id="edge1" class="edge"><title>Node2&#45;&gt;Node1</title>
<path fill="none" stroke="#9a32cd" stroke-dasharray="5,2" d="M236.947,-521.269C275.81,-525.091 341.04,-525.012 380,-489.544 416.905,-455.947 437.319,-291.181 441.969,-249.261"/>
<polygon fill="#9a32cd" stroke="#9a32cd" points="237.058,-517.759 226.728,-520.114 236.272,-524.715 237.058,-517.759"/>
<text text-anchor="middle" x="333" y="-524.544" font-family="Helvetica,sans-Serif" font-size="10.00"> myStage</text>
</g>
<!-- Node3 -->
<g id="node3" class="node"><title>Node3</title>
<polygon fill="white" stroke="#bfbfbf" points="157.5,-469.044 157.5,-488.044 250.5,-488.044 250.5,-469.044 157.5,-469.044"/>
<text text-anchor="middle" x="204" y="-476.044" font-family="Helvetica,sans-Serif" font-size="10.00">ResourceBundle</text>
</g>
<!-- Node3&#45;&gt;Node1 -->
<g id="edge2" class="edge"><title>Node3&#45;&gt;Node1</title>
<path fill="none" stroke="#9a32cd" stroke-dasharray="5,2" d="M260.969,-476.304C305.31,-473.394 362.595,-466.733 380,-451.544 442.488,-397.013 444.378,-283.577 443.443,-249.46"/>
<polygon fill="#9a32cd" stroke="#9a32cd" points="260.637,-472.818 250.868,-476.919 261.062,-479.805 260.637,-472.818"/>
<text text-anchor="middle" x="333" y="-477.544" font-family="Helvetica,sans-Serif" font-size="10.00"> myResources</text>
</g>
<!-- Node4 -->
<g id="node4" class="node"><title>Node4</title>
<g id="a_node4"><a xlink:href="../../da/d74/class_grid.html" target="_top" xlink:title="Grid">
<polygon fill="white" stroke="black" points="186,-431.044 186,-450.044 222,-450.044 222,-431.044 186,-431.044"/>
<text text-anchor="middle" x="204" y="-438.044" font-family="Helvetica,sans-Serif" font-size="10.00">Grid</text>
</a>
</g>
</g>
<!-- Node4&#45;&gt;Node1 -->
<g id="edge3" class="edge"><title>Node4&#45;&gt;Node1</title>
<path fill="none" stroke="#9a32cd" stroke-dasharray="5,2" d="M232.307,-440.001C275.74,-438.597 357.916,-433.567 380,-415.544 433.556,-371.837 441.605,-279.021 442.798,-249.073"/>
<polygon fill="#9a32cd" stroke="#9a32cd" points="232.058,-436.506 222.16,-440.285 232.254,-443.504 232.058,-436.506"/>
<text text-anchor="middle" x="333" y="-439.544" font-family="Helvetica,sans-Serif" font-size="10.00"> mySimGrid</text>
</g>
<!-- Node5 -->
<g id="node5" class="node"><title>Node5</title>
<polygon fill="white" stroke="#bfbfbf" points="0.5,-459.044 0.5,-478.044 47.5,-478.044 47.5,-459.044 0.5,-459.044"/>
<text text-anchor="middle" x="24" y="-466.044" font-family="Helvetica,sans-Serif" font-size="10.00">Shape</text>
</g>
<!-- Node5&#45;&gt;Node4 -->
<g id="edge4" class="edge"><title>Node5&#45;&gt;Node4</title>
<path fill="none" stroke="#9a32cd" stroke-dasharray="5,2" d="M57.5593,-463.422C95.4099,-457.468 156.448,-447.867 185.95,-443.226"/>
<polygon fill="#9a32cd" stroke="#9a32cd" points="56.8784,-459.986 47.5438,-464.998 57.9663,-466.901 56.8784,-459.986"/>
<text text-anchor="middle" x="94" y="-465.544" font-family="Helvetica,sans-Serif" font-size="10.00"> myShapes</text>
</g>
<!-- Node6 -->
<g id="node6" class="node"><title>Node6</title>
<polygon fill="white" stroke="#bfbfbf" points="1,-407.044 1,-426.044 47,-426.044 47,-407.044 1,-407.044"/>
<text text-anchor="middle" x="24" y="-414.044" font-family="Helvetica,sans-Serif" font-size="10.00">Group</text>
</g>
<!-- Node6&#45;&gt;Node1 -->
<g id="edge14" class="edge"><title>Node6&#45;&gt;Node1</title>
<path fill="none" stroke="#9a32cd" stroke-dasharray="5,2" d="M57.1176,-414.425C139.569,-408.738 354.062,-392.294 380,-373.544 422.917,-342.52 437.558,-274.657 441.64,-249.332"/>
<polygon fill="#9a32cd" stroke="#9a32cd" points="56.8023,-410.938 47.0634,-415.11 57.2783,-417.922 56.8023,-410.938"/>
<text text-anchor="middle" x="204" y="-411.544" font-family="Helvetica,sans-Serif" font-size="10.00"> myDefaultGrid</text>
</g>
<!-- Node6&#45;&gt;Node4 -->
<g id="edge5" class="edge"><title>Node6&#45;&gt;Node4</title>
<path fill="none" stroke="#9a32cd" stroke-dasharray="5,2" d="M57.1729,-420.882C94.9594,-425.977 156.238,-434.239 185.871,-438.234"/>
<polygon fill="#9a32cd" stroke="#9a32cd" points="57.562,-417.403 47.1839,-419.535 56.6265,-424.34 57.562,-417.403"/>
<text text-anchor="middle" x="94" y="-432.544" font-family="Helvetica,sans-Serif" font-size="10.00"> myGrid</text>
</g>
<!-- Node7 -->
<g id="node7" class="node"><title>Node7</title>
<polygon fill="white" stroke="#bfbfbf" points="146,-334.544 146,-364.544 262,-364.544 262,-334.544 146,-334.544"/>
<text text-anchor="start" x="154" y="-352.544" font-family="Helvetica,sans-Serif" font-size="10.00">LineChart&lt; Number,</text>
<text text-anchor="middle" x="204" y="-341.544" font-family="Helvetica,sans-Serif" font-size="10.00"> Number &gt;</text>
</g>
<!-- Node7&#45;&gt;Node1 -->
<g id="edge6" class="edge"><title>Node7&#45;&gt;Node1</title>
<path fill="none" stroke="#9a32cd" stroke-dasharray="5,2" d="M272.002,-357.624C306.485,-358.596 347.901,-354.565 380,-335.544 413.786,-315.524 432.88,-269.467 439.887,-249.301"/>
<polygon fill="#9a32cd" stroke="#9a32cd" points="272.148,-354.127 262.008,-357.199 271.851,-361.12 272.148,-354.127"/>
<text text-anchor="middle" x="333" y="-361.544" font-family="Helvetica,sans-Serif" font-size="10.00"> myChart</text>
</g>
<!-- Node8 -->
<g id="node8" class="node"><title>Node8</title>
<polygon fill="white" stroke="#bfbfbf" points="176,-296.044 176,-315.044 232,-315.044 232,-296.044 176,-296.044"/>
<text text-anchor="middle" x="204" y="-303.044" font-family="Helvetica,sans-Serif" font-size="10.00">TextField</text>
</g>
<!-- Node8&#45;&gt;Node1 -->
<g id="edge7" class="edge"><title>Node8&#45;&gt;Node1</title>
<path fill="none" stroke="#9a32cd" stroke-dasharray="5,2" d="M242.359,-314.145C279.017,-320.697 335.708,-325.693 380,-306.544 407.259,-294.758 428.165,-264.73 437.559,-249.189"/>
<polygon fill="#9a32cd" stroke="#9a32cd" points="242.601,-310.628 232.12,-312.181 241.282,-317.502 242.601,-310.628"/>
<text text-anchor="middle" x="333" y="-323.544" font-family="Helvetica,sans-Serif" font-size="10.00"> mySpeedTextField</text>
</g>
<!-- Node9 -->
<g id="node9" class="node"><title>Node9</title>
<polygon fill="white" stroke="#bfbfbf" points="179.5,-243.044 179.5,-262.044 228.5,-262.044 228.5,-243.044 179.5,-243.044"/>
<text text-anchor="middle" x="204" y="-250.044" font-family="Helvetica,sans-Serif" font-size="10.00">Button</text>
</g>
<!-- Node9&#45;&gt;Node1 -->
<g id="edge8" class="edge"><title>Node9&#45;&gt;Node1</title>
<path fill="none" stroke="#9a32cd" stroke-dasharray="5,2" d="M238.677,-246.472C253.185,-244.137 270.374,-241.745 286,-240.544 323.776,-237.64 366.816,-237.595 398.266,-238.16"/>
<polygon fill="#9a32cd" stroke="#9a32cd" points="237.936,-243.047 228.648,-248.143 239.087,-249.952 237.936,-243.047"/>
<text text-anchor="middle" x="333" y="-298.544" font-family="Helvetica,sans-Serif" font-size="10.00"> myXMLButton</text>
<text text-anchor="middle" x="333" y="-287.544" font-family="Helvetica,sans-Serif" font-size="10.00">myPauseButton</text>
<text text-anchor="middle" x="333" y="-276.544" font-family="Helvetica,sans-Serif" font-size="10.00">mySlowdownButton</text>
<text text-anchor="middle" x="333" y="-265.544" font-family="Helvetica,sans-Serif" font-size="10.00">mySpeedupButton</text>
<text text-anchor="middle" x="333" y="-254.544" font-family="Helvetica,sans-Serif" font-size="10.00">myStepButton</text>
<text text-anchor="middle" x="333" y="-243.544" font-family="Helvetica,sans-Serif" font-size="10.00">myPlayButton</text>
</g>
<!-- Node10 -->
<g id="node10" class="node"><title>Node10</title>
<polygon fill="white" stroke="#bfbfbf" points="140,-193.544 140,-223.544 268,-223.544 268,-193.544 140,-193.544"/>
<text text-anchor="start" x="148" y="-211.544" font-family="Helvetica,sans-Serif" font-size="10.00">List&lt; Series&lt; Number,</text>
<text text-anchor="middle" x="204" y="-200.544" font-family="Helvetica,sans-Serif" font-size="10.00"> Number &gt; &gt;</text>
</g>
<!-- Node10&#45;&gt;Node1 -->
<g id="edge9" class="edge"><title>Node10&#45;&gt;Node1</title>
<path fill="none" stroke="#9a32cd" stroke-dasharray="5,2" d="M278.102,-212.139C309.602,-214.376 346.763,-217.938 380,-223.544 389.681,-225.177 400.058,-227.548 409.54,-229.967"/>
<polygon fill="#9a32cd" stroke="#9a32cd" points="278.3,-208.644 268.086,-211.458 277.825,-215.628 278.3,-208.644"/>
<text text-anchor="middle" x="333" y="-226.544" font-family="Helvetica,sans-Serif" font-size="10.00"> mySeries</text>
</g>
<!-- Node11 -->
<g id="node11" class="node"><title>Node11</title>
<polygon fill="white" stroke="#bfbfbf" points="186.5,-155.044 186.5,-174.044 221.5,-174.044 221.5,-155.044 186.5,-155.044"/>
<text text-anchor="middle" x="204" y="-162.044" font-family="Helvetica,sans-Serif" font-size="10.00">Text</text>
</g>
<!-- Node11&#45;&gt;Node1 -->
<g id="edge10" class="edge"><title>Node11&#45;&gt;Node1</title>
<path fill="none" stroke="#9a32cd" stroke-dasharray="5,2" d="M231.904,-166.549C267.062,-169.884 330.033,-178.331 380,-198.544 399.356,-206.374 419.126,-220.432 431.232,-229.875"/>
<polygon fill="#9a32cd" stroke="#9a32cd" points="231.786,-163.026 221.518,-165.638 231.174,-169.999 231.786,-163.026"/>
<text text-anchor="middle" x="333" y="-201.544" font-family="Helvetica,sans-Serif" font-size="10.00"> myErrorMsg</text>
</g>
<!-- Node12 -->
<g id="node12" class="node"><title>Node12</title>
<polygon fill="white" stroke="#bfbfbf" points="185,-117.044 185,-136.044 223,-136.044 223,-117.044 185,-117.044"/>
<text text-anchor="middle" x="204" y="-124.044" font-family="Helvetica,sans-Serif" font-size="10.00">Font</text>
</g>
<!-- Node12&#45;&gt;Node1 -->
<g id="edge11" class="edge"><title>Node12&#45;&gt;Node1</title>
<path fill="none" stroke="#9a32cd" stroke-dasharray="5,2" d="M233.154,-123.379C269.75,-120.68 334.365,-120.868 380,-148.544 412.038,-167.974 431.822,-210.603 439.431,-229.815"/>
<polygon fill="#9a32cd" stroke="#9a32cd" points="232.843,-119.893 223.181,-124.239 233.444,-126.867 232.843,-119.893"/>
<text text-anchor="middle" x="333" y="-162.544" font-family="Helvetica,sans-Serif" font-size="10.00"> TITLE_FONT</text>
<text text-anchor="middle" x="333" y="-151.544" font-family="Helvetica,sans-Serif" font-size="10.00">ERROR_FONT</text>
</g>
<!-- Node13 -->
<g id="node13" class="node"><title>Node13</title>
<polygon fill="white" stroke="#bfbfbf" points="180.5,-79.044 180.5,-98.044 227.5,-98.044 227.5,-79.044 180.5,-79.044"/>
<text text-anchor="middle" x="204" y="-86.044" font-family="Helvetica,sans-Serif" font-size="10.00">Scene</text>
</g>
<!-- Node13&#45;&gt;Node1 -->
<g id="edge12" class="edge"><title>Node13&#45;&gt;Node1</title>
<path fill="none" stroke="#9a32cd" stroke-dasharray="5,2" d="M237.543,-83.5008C275.372,-79.4674 337.972,-78.6566 380,-108.544 422.367,-138.672 437.343,-205.138 441.577,-229.952"/>
<polygon fill="#9a32cd" stroke="#9a32cd" points="237.078,-80.0314 227.568,-84.7011 237.915,-86.9813 237.078,-80.0314"/>
<text text-anchor="middle" x="333" y="-111.544" font-family="Helvetica,sans-Serif" font-size="10.00"> myScene</text>
</g>
<!-- Node14 -->
<g id="node14" class="node"><title>Node14</title>
<polygon fill="white" stroke="#bfbfbf" points="174.5,-41.044 174.5,-60.044 233.5,-60.044 233.5,-41.044 174.5,-41.044"/>
<text text-anchor="middle" x="204" y="-48.044" font-family="Helvetica,sans-Serif" font-size="10.00">GridPane</text>
</g>
<!-- Node14&#45;&gt;Node1 -->
<g id="edge13" class="edge"><title>Node14&#45;&gt;Node1</title>
<path fill="none" stroke="#9a32cd" stroke-dasharray="5,2" d="M244.1,-43.3147C282.693,-38.4947 341.374,-37.6736 380,-67.544 433.332,-108.787 441.538,-199.677 442.783,-229.702"/>
<polygon fill="#9a32cd" stroke="#9a32cd" points="243.2,-39.9065 233.781,-44.758 244.17,-46.839 243.2,-39.9065"/>
<text text-anchor="middle" x="333" y="-70.544" font-family="Helvetica,sans-Serif" font-size="10.00"> myRoot</text>
</g>
<!-- Node15 -->
<g id="node15" class="node"><title>Node15</title>
<polygon fill="white" stroke="#bfbfbf" points="183,-3.04396 183,-22.044 225,-22.044 225,-3.04396 183,-3.04396"/>
<text text-anchor="middle" x="204" y="-10.044" font-family="Helvetica,sans-Serif" font-size="10.00">HBox</text>
</g>
<!-- Node15&#45;&gt;Node1 -->
<g id="edge15" class="edge"><title>Node15&#45;&gt;Node1</title>
<path fill="none" stroke="#9a32cd" stroke-dasharray="5,2" d="M235.203,-5.55503C273.365,1.37613 338.999,6.71522 380,-26.544 444.988,-79.2613 445.068,-195.651 443.584,-229.89"/>
<polygon fill="#9a32cd" stroke="#9a32cd" points="234.347,-2.15626 225.211,-7.52144 235.698,-9.02452 234.347,-2.15626"/>
<text text-anchor="middle" x="333" y="-29.544" font-family="Helvetica,sans-Serif" font-size="10.00"> myTitleBox</text>
</g>
</g>
</svg>
        <g id="navigator" transform="translate(0 0)" fill="#404254">
                <rect fill="#f2f5e9" fill-opacity="0.5" stroke="#606060" stroke-width=".5" x="0" y="0" width="60" height="60"/>
                <use id="zoomplus" xlink:href="#zoomPlus" x="17" y="9" onmousedown="handleZoom(evt,'in')"/>
                <use id="zoomminus" xlink:href="#zoomMin" x="42" y="9" onmousedown="handleZoom(evt,'out')"/>
                <use id="reset" xlink:href="#resetDef" x="30" y="36" onmousedown="handleReset()"/>
                <g id="arrowUp" xlink:href="#dirArrow" transform="translate(30 24)" onmousedown="handlePan(0,-1)">
                  <use xlink:href="#rim" fill="#404040">
                        <set attributeName="fill" to="#808080" begin="arrowUp.mouseover" end="arrowUp.mouseout"/>
                  </use>
                  <path fill="none" stroke="white" stroke-width="1.5" d="M0,-3.0v7 M-2.5,-0.5L0,-3.0L2.5,-0.5"/>
                </g>
                <g id="arrowRight" xlink:href="#dirArrow" transform="rotate(90) translate(36 -43)" onmousedown="handlePan(1,0)">
                  <use xlink:href="#rim" fill="#404040">
                        <set attributeName="fill" to="#808080" begin="arrowRight.mouseover" end="arrowRight.mouseout"/>
                  </use>
                  <path fill="none" stroke="white" stroke-width="1.5" d="M0,-3.0v7 M-2.5,-0.5L0,-3.0L2.5,-0.5"/>
                </g>
                <g id="arrowDown" xlink:href="#dirArrow" transform="rotate(180) translate(-30 -48)" onmousedown="handlePan(0,1)">
                  <use xlink:href="#rim" fill="#404040">
                        <set attributeName="fill" to="#808080" begin="arrowDown.mouseover" end="arrowDown.mouseout"/>
                  </use>
                  <path fill="none" stroke="white" stroke-width="1.5" d="M0,-3.0v7 M-2.5,-0.5L0,-3.0L2.5,-0.5"/>
                </g>
                <g id="arrowLeft" xlink:href="#dirArrow" transform="rotate(270) translate(-36 17)" onmousedown="handlePan(-1,0)">
                  <use xlink:href="#rim" fill="#404040">
                        <set attributeName="fill" to="#808080" begin="arrowLeft.mouseover" end="arrowLeft.mouseout"/>
                  </use>
                  <path fill="none" stroke="white" stroke-width="1.5" d="M0,-3.0v7 M-2.5,-0.5L0,-3.0L2.5,-0.5"/>
                </g>
        </g>
        <svg viewBox="0 0 15 15" width="100%" height="30px" preserveAspectRatio="xMaxYMin meet">
         <g id="arrow_out" transform="scale(0.3 0.3)">
          <a xlink:href="class_cell_society_view__coll__graph_org.svg" target="_base">
           <rect id="button" ry="5" rx="5" y="6" x="6" height="38" width="38"
                fill="#f2f5e9" fill-opacity="0.5" stroke="#606060" stroke-width="1.0"/>
           <path id="arrow"
             d="M 11.500037,31.436501 C 11.940474,20.09759 22.043105,11.32322 32.158766,21.979434 L 37.068811,17.246167 C 37.068811,17.246167 37.088388,32 37.088388,32 L 22.160133,31.978069 C 22.160133,31.978069 26.997745,27.140456 26.997745,27.140456 C 18.528582,18.264221 13.291696,25.230495 11.500037,31.436501 z"
             style="fill:#404040;"/>
          </a>
         </g>
        </svg>
</svg>
