<?xml version="1.0" encoding="UTF-8" standalone="no"?>
<!DOCTYPE svg PUBLIC "-//W3C//DTD SVG 1.1//EN"
 "http://www.w3.org/Graphics/SVG/1.1/DTD/svg11.dtd">
<!-- Generated by graphviz version 2.36.0 (20140111.2315)
 -->
<!-- Title: CellSocietyView Pages: 1 -->
<svg width="498pt" height="534pt"
 viewBox="0.00 0.00 498.00 534.24" xmlns="http://www.w3.org/2000/svg" xmlns:xlink="http://www.w3.org/1999/xlink">
<g id="graph0" class="graph" transform="scale(1 1) rotate(0) translate(4 530.24)">
<title>CellSocietyView</title>
<polygon fill="white" stroke="none" points="-4,4 -4,-530.24 494,-530.24 494,4 -4,4"/>
<!-- Node1 -->
<g id="node1" class="node"><title>Node1</title>
<polygon fill="#bfbfbf" stroke="black" points="398.5,-221.74 398.5,-240.74 489.5,-240.74 489.5,-221.74 398.5,-221.74"/>
<text text-anchor="middle" x="444" y="-228.74" font-family="Helvetica,sans-Serif" font-size="10.00">CellSocietyView</text>
</g>
<!-- Node2 -->
<g id="node2" class="node"><title>Node2</title>
<polygon fill="white" stroke="#bfbfbf" points="181.5,-500.74 181.5,-519.74 226.5,-519.74 226.5,-500.74 181.5,-500.74"/>
<text text-anchor="middle" x="204" y="-507.74" font-family="Helvetica,sans-Serif" font-size="10.00">Stage</text>
</g>
<!-- Node2&#45;&gt;Node1 -->
<g id="edge1" class="edge"><title>Node2&#45;&gt;Node1</title>
<path fill="none" stroke="#9a32cd" stroke-dasharray="5,2" d="M236.958,-514.977C275.832,-518.812 341.073,-518.745 380,-483.24 417.234,-449.28 437.473,-282.54 442.012,-240.751"/>
<polygon fill="#9a32cd" stroke="#9a32cd" points="237.067,-511.467 226.736,-513.818 236.278,-518.423 237.067,-511.467"/>
<text text-anchor="middle" x="333" y="-518.24" font-family="Helvetica,sans-Serif" font-size="10.00"> myStage</text>
</g>
<!-- Node3 -->
<g id="node3" class="node"><title>Node3</title>
<polygon fill="white" stroke="#bfbfbf" points="157.5,-462.74 157.5,-481.74 250.5,-481.74 250.5,-462.74 157.5,-462.74"/>
<text text-anchor="middle" x="204" y="-469.74" font-family="Helvetica,sans-Serif" font-size="10.00">ResourceBundle</text>
</g>
<!-- Node3&#45;&gt;Node1 -->
<g id="edge2" class="edge"><title>Node3&#45;&gt;Node1</title>
<path fill="none" stroke="#9a32cd" stroke-dasharray="5,2" d="M260.97,-470.357C305.311,-467.722 362.596,-461.401 380,-446.24 443.643,-390.8 444.658,-274.866 443.49,-240.829"/>
<polygon fill="#9a32cd" stroke="#9a32cd" points="260.663,-466.868 250.869,-470.908 261.045,-473.858 260.663,-466.868"/>
<text text-anchor="middle" x="333" y="-471.24" font-family="Helvetica,sans-Serif" font-size="10.00"> myResources</text>
</g>
<!-- Node4 -->
<g id="node4" class="node"><title>Node4</title>
<g id="a_node4"><a xlink:href="../../d8/ddc/class_abstract_grid.html" target="_top" xlink:title="AbstractGrid">
<polygon fill="white" stroke="black" points="165.5,-424.74 165.5,-443.74 242.5,-443.74 242.5,-424.74 165.5,-424.74"/>
<text text-anchor="middle" x="204" y="-431.74" font-family="Helvetica,sans-Serif" font-size="10.00">AbstractGrid</text>
</a>
</g>
</g>
<!-- Node4&#45;&gt;Node1 -->
<g id="edge3" class="edge"><title>Node4&#45;&gt;Node1</title>
<path fill="none" stroke="#9a32cd" stroke-dasharray="5,2" d="M252.721,-432.875C297.736,-430.642 361.057,-424.756 380,-409.24 434.017,-364.996 441.76,-271.152 442.837,-240.874"/>
<polygon fill="#9a32cd" stroke="#9a32cd" points="252.397,-429.386 242.565,-433.334 252.712,-436.379 252.397,-429.386"/>
<text text-anchor="middle" x="333" y="-434.24" font-family="Helvetica,sans-Serif" font-size="10.00"> mySimGrid</text>
</g>
<!-- Node5 -->
<g id="node5" class="node"><title>Node5</title>
<polygon fill="white" stroke="#bfbfbf" points="0.5,-452.74 0.5,-471.74 47.5,-471.74 47.5,-452.74 0.5,-452.74"/>
<text text-anchor="middle" x="24" y="-459.74" font-family="Helvetica,sans-Serif" font-size="10.00">Shape</text>
</g>
<!-- Node5&#45;&gt;Node4 -->
<g id="edge4" class="edge"><title>Node5&#45;&gt;Node4</title>
<path fill="none" stroke="#9a32cd" stroke-dasharray="5,2" d="M57.6435,-457.105C88.0915,-452.316 133.491,-445.174 165.433,-440.15"/>
<polygon fill="#9a32cd" stroke="#9a32cd" points="56.8784,-453.683 47.5438,-458.694 57.9663,-460.597 56.8784,-453.683"/>
<text text-anchor="middle" x="94" y="-459.24" font-family="Helvetica,sans-Serif" font-size="10.00"> myShapes</text>
</g>
<!-- Node6 -->
<g id="node6" class="node"><title>Node6</title>
<polygon fill="white" stroke="#bfbfbf" points="1,-400.74 1,-419.74 47,-419.74 47,-400.74 1,-400.74"/>
<text text-anchor="middle" x="24" y="-407.74" font-family="Helvetica,sans-Serif" font-size="10.00">Group</text>
</g>
<!-- Node6&#45;&gt;Node1 -->
<g id="edge14" class="edge"><title>Node6&#45;&gt;Node1</title>
<path fill="none" stroke="#9a32cd" stroke-dasharray="5,2" d="M57.1226,-408.031C139.586,-402.114 354.106,-385.07 380,-366.24 423.091,-334.905 437.626,-266.584 441.66,-241.092"/>
<polygon fill="#9a32cd" stroke="#9a32cd" points="56.7942,-404.546 47.0669,-408.745 57.2895,-411.528 56.7942,-404.546"/>
<text text-anchor="middle" x="204" y="-405.24" font-family="Helvetica,sans-Serif" font-size="10.00"> myDefaultGrid</text>
</g>
<!-- Node6&#45;&gt;Node4 -->
<g id="edge5" class="edge"><title>Node6&#45;&gt;Node4</title>
<path fill="none" stroke="#9a32cd" stroke-dasharray="5,2" d="M57.257,-414.589C87.6539,-418.688 133.198,-424.829 165.267,-429.153"/>
<polygon fill="#9a32cd" stroke="#9a32cd" points="57.562,-411.099 47.1839,-413.231 56.6265,-418.036 57.562,-411.099"/>
<text text-anchor="middle" x="94" y="-426.24" font-family="Helvetica,sans-Serif" font-size="10.00"> myGrid</text>
</g>
<!-- Node7 -->
<g id="node7" class="node"><title>Node7</title>
<polygon fill="white" stroke="#bfbfbf" points="146,-328.24 146,-358.24 262,-358.24 262,-328.24 146,-328.24"/>
<text text-anchor="start" x="154" y="-346.24" font-family="Helvetica,sans-Serif" font-size="10.00">LineChart&lt; Number,</text>
<text text-anchor="middle" x="204" y="-335.24" font-family="Helvetica,sans-Serif" font-size="10.00"> Number &gt;</text>
</g>
<!-- Node7&#45;&gt;Node1 -->
<g id="edge6" class="edge"><title>Node7&#45;&gt;Node1</title>
<path fill="none" stroke="#9a32cd" stroke-dasharray="5,2" d="M272.071,-350.931C306.573,-351.704 347.986,-347.437 380,-328.24 414.099,-307.794 433.138,-260.949 440.015,-240.773"/>
<polygon fill="#9a32cd" stroke="#9a32cd" points="272.193,-347.433 262.071,-350.564 271.936,-354.428 272.193,-347.433"/>
<text text-anchor="middle" x="333" y="-354.24" font-family="Helvetica,sans-Serif" font-size="10.00"> myChart</text>
</g>
<!-- Node8 -->
<g id="node8" class="node"><title>Node8</title>
<polygon fill="white" stroke="#bfbfbf" points="176,-289.74 176,-308.74 232,-308.74 232,-289.74 176,-289.74"/>
<text text-anchor="middle" x="204" y="-296.74" font-family="Helvetica,sans-Serif" font-size="10.00">TextField</text>
</g>
<!-- Node8&#45;&gt;Node1 -->
<g id="edge7" class="edge"><title>Node8&#45;&gt;Node1</title>
<path fill="none" stroke="#9a32cd" stroke-dasharray="5,2" d="M242.383,-307.25C279.059,-313.259 335.763,-317.516 380,-298.24 407.225,-286.377 428.146,-256.384 437.552,-240.868"/>
<polygon fill="#9a32cd" stroke="#9a32cd" points="242.595,-303.733 232.139,-305.44 241.377,-310.627 242.595,-303.733"/>
<text text-anchor="middle" x="333" y="-316.24" font-family="Helvetica,sans-Serif" font-size="10.00"> mySpeedTextField</text>
</g>
<!-- Node9 -->
<g id="node9" class="node"><title>Node9</title>
<polygon fill="white" stroke="#bfbfbf" points="179.5,-241.74 179.5,-260.74 228.5,-260.74 228.5,-241.74 179.5,-241.74"/>
<text text-anchor="middle" x="204" y="-248.74" font-family="Helvetica,sans-Serif" font-size="10.00">Button</text>
</g>
<!-- Node9&#45;&gt;Node1 -->
<g id="edge8" class="edge"><title>Node9&#45;&gt;Node1</title>
<path fill="none" stroke="#9a32cd" stroke-dasharray="5,2" d="M238.814,-241.524C253.224,-237.85 270.303,-234.107 286,-232.24 323.623,-227.765 366.675,-227.855 398.17,-228.872"/>
<polygon fill="#9a32cd" stroke="#9a32cd" points="237.622,-238.219 228.85,-244.159 239.412,-244.986 237.622,-238.219"/>
<text text-anchor="middle" x="333" y="-290.24" font-family="Helvetica,sans-Serif" font-size="10.00"> myXMLButton</text>
<text text-anchor="middle" x="333" y="-279.24" font-family="Helvetica,sans-Serif" font-size="10.00">myPauseButton</text>
<text text-anchor="middle" x="333" y="-268.24" font-family="Helvetica,sans-Serif" font-size="10.00">mySlowdownButton</text>
<text text-anchor="middle" x="333" y="-257.24" font-family="Helvetica,sans-Serif" font-size="10.00">mySpeedupButton</text>
<text text-anchor="middle" x="333" y="-246.24" font-family="Helvetica,sans-Serif" font-size="10.00">myStepButton</text>
<text text-anchor="middle" x="333" y="-235.24" font-family="Helvetica,sans-Serif" font-size="10.00">myPlayButton</text>
</g>
<!-- Node10 -->
<g id="node10" class="node"><title>Node10</title>
<polygon fill="white" stroke="#bfbfbf" points="140,-192.24 140,-222.24 268,-222.24 268,-192.24 140,-192.24"/>
<text text-anchor="start" x="148" y="-210.24" font-family="Helvetica,sans-Serif" font-size="10.00">List&lt; Series&lt; Number,</text>
<text text-anchor="middle" x="204" y="-199.24" font-family="Helvetica,sans-Serif" font-size="10.00"> Number &gt; &gt;</text>
</g>
<!-- Node10&#45;&gt;Node1 -->
<g id="edge9" class="edge"><title>Node10&#45;&gt;Node1</title>
<path fill="none" stroke="#9a32cd" stroke-dasharray="5,2" d="M278.114,-206.53C309.617,-207.16 346.776,-209.159 380,-214.24 390.975,-215.919 402.779,-218.803 413.17,-221.725"/>
<polygon fill="#9a32cd" stroke="#9a32cd" points="278.152,-203.03 268.097,-206.371 278.041,-210.029 278.152,-203.03"/>
<text text-anchor="middle" x="333" y="-217.24" font-family="Helvetica,sans-Serif" font-size="10.00"> mySeries</text>
</g>
<!-- Node11 -->
<g id="node11" class="node"><title>Node11</title>
<polygon fill="white" stroke="#bfbfbf" points="186.5,-153.74 186.5,-172.74 221.5,-172.74 221.5,-153.74 186.5,-153.74"/>
<text text-anchor="middle" x="204" y="-160.74" font-family="Helvetica,sans-Serif" font-size="10.00">Text</text>
</g>
<!-- Node11&#45;&gt;Node1 -->
<g id="edge10" class="edge"><title>Node11&#45;&gt;Node1</title>
<path fill="none" stroke="#9a32cd" stroke-dasharray="5,2" d="M232.377,-164.492C267.559,-166.831 330.052,-173.482 380,-192.24 399.027,-199.386 418.565,-212.567 430.736,-221.612"/>
<polygon fill="#9a32cd" stroke="#9a32cd" points="232.155,-160.972 221.965,-163.874 231.74,-167.96 232.155,-160.972"/>
<text text-anchor="middle" x="333" y="-195.24" font-family="Helvetica,sans-Serif" font-size="10.00"> myErrorMsg</text>
</g>
<!-- Node12 -->
<g id="node12" class="node"><title>Node12</title>
<polygon fill="white" stroke="#bfbfbf" points="185,-115.74 185,-134.74 223,-134.74 223,-115.74 185,-115.74"/>
<text text-anchor="middle" x="204" y="-122.74" font-family="Helvetica,sans-Serif" font-size="10.00">Font</text>
</g>
<!-- Node12&#45;&gt;Node1 -->
<g id="edge11" class="edge"><title>Node12&#45;&gt;Node1</title>
<path fill="none" stroke="#9a32cd" stroke-dasharray="5,2" d="M233.64,-124.238C270.076,-124.227 333.808,-128.534 380,-155.24 408.042,-171.453 429.017,-205.151 438.075,-221.679"/>
<polygon fill="#9a32cd" stroke="#9a32cd" points="233.217,-120.743 223.259,-124.361 233.299,-127.743 233.217,-120.743"/>
<text text-anchor="middle" x="333" y="-158.24" font-family="Helvetica,sans-Serif" font-size="10.00"> TITLE_FONT</text>
</g>
<!-- Node13 -->
<g id="node13" class="node"><title>Node13</title>
<polygon fill="white" stroke="#bfbfbf" points="180.5,-77.7402 180.5,-96.7402 227.5,-96.7402 227.5,-77.7402 180.5,-77.7402"/>
<text text-anchor="middle" x="204" y="-84.7402" font-family="Helvetica,sans-Serif" font-size="10.00">Scene</text>
</g>
<!-- Node13&#45;&gt;Node1 -->
<g id="edge12" class="edge"><title>Node13&#45;&gt;Node1</title>
<path fill="none" stroke="#9a32cd" stroke-dasharray="5,2" d="M238.227,-83.7858C276.029,-81.6175 337.955,-83.6065 380,-113.24 418.534,-140.399 435.57,-198.684 440.972,-221.654"/>
<polygon fill="#9a32cd" stroke="#9a32cd" points="237.507,-80.328 227.779,-84.5269 238.002,-87.3105 237.507,-80.328"/>
<text text-anchor="middle" x="333" y="-116.24" font-family="Helvetica,sans-Serif" font-size="10.00"> myScene</text>
</g>
<!-- Node14 -->
<g id="node14" class="node"><title>Node14</title>
<polygon fill="white" stroke="#bfbfbf" points="174.5,-39.7402 174.5,-58.7402 233.5,-58.7402 233.5,-39.7402 174.5,-39.7402"/>
<text text-anchor="middle" x="204" y="-46.7402" font-family="Helvetica,sans-Serif" font-size="10.00">GridPane</text>
</g>
<!-- Node14&#45;&gt;Node1 -->
<g id="edge13" class="edge"><title>Node14&#45;&gt;Node1</title>
<path fill="none" stroke="#9a32cd" stroke-dasharray="5,2" d="M244.053,-42.9614C282.609,-39.0206 341.263,-39.3712 380,-69.2402 430.424,-108.121 440.525,-192.962 442.519,-221.587"/>
<polygon fill="#9a32cd" stroke="#9a32cd" points="243.271,-39.5289 233.744,-44.1657 244.083,-46.4816 243.271,-39.5289"/>
<text text-anchor="middle" x="333" y="-72.2402" font-family="Helvetica,sans-Serif" font-size="10.00"> myRoot</text>
</g>
<!-- Node15 -->
<g id="node15" class="node"><title>Node15</title>
<polygon fill="white" stroke="#bfbfbf" points="183,-1.74023 183,-20.7402 225,-20.7402 225,-1.74023 183,-1.74023"/>
<text text-anchor="middle" x="204" y="-8.74023" font-family="Helvetica,sans-Serif" font-size="10.00">HBox</text>
</g>
<!-- Node15&#45;&gt;Node1 -->
<g id="edge15" class="edge"><title>Node15&#45;&gt;Node1</title>
<path fill="none" stroke="#9a32cd" stroke-dasharray="5,2" d="M235.187,-4.73726C273.332,1.60831 338.949,6.03877 380,-27.2402 442.195,-77.6604 444.286,-188.227 443.422,-221.548"/>
<polygon fill="#9a32cd" stroke="#9a32cd" points="234.415,-1.3201 225.2,-6.54807 235.664,-8.20781 234.415,-1.3201"/>
<text text-anchor="middle" x="333" y="-30.2402" font-family="Helvetica,sans-Serif" font-size="10.00"> myTitleBox</text>
</g>
</g>
</svg>
