<?xml version="1.0" encoding="UTF-8" standalone="no"?>
<!DOCTYPE svg PUBLIC "-//W3C//DTD SVG 1.1//EN"
 "http://www.w3.org/Graphics/SVG/1.1/DTD/svg11.dtd">
<!-- Generated by graphviz version 2.36.0 (20140111.2315)
 -->
<!-- Title: Boundary.makeCell Pages: 1 -->
<svg width="944pt" height="142pt"
 viewBox="0.00 0.00 944.00 142.00" xmlns="http://www.w3.org/2000/svg" xmlns:xlink="http://www.w3.org/1999/xlink">
<g id="graph0" class="graph" transform="scale(1 1) rotate(0) translate(4 138)">
<title>Boundary.makeCell</title>
<polygon fill="white" stroke="none" points="-4,4 -4,-138 940,-138 940,4 -4,4"/>
<!-- Node1 -->
<g id="node1" class="node"><title>Node1</title>
<polygon fill="#bfbfbf" stroke="black" points="0,-57.5 0,-76.5 108,-76.5 108,-57.5 0,-57.5"/>
<text text-anchor="middle" x="54" y="-64.5" font-family="Helvetica,sans-Serif" font-size="10.00">Boundary.makeCell</text>
</g>
<!-- Node2 -->
<g id="node2" class="node"><title>Node2</title>
<g id="a_node2"><a xlink:href="../../d9/d94/class_full_neighbor.html#a84cc759f88cbcdde55a1aa6923722005" target="_top" xlink:title="FullNeighbor.getNeighbors">
<polygon fill="white" stroke="black" points="162,-114.5 162,-133.5 304,-133.5 304,-114.5 162,-114.5"/>
<text text-anchor="middle" x="233" y="-121.5" font-family="Helvetica,sans-Serif" font-size="10.00">FullNeighbor.getNeighbors</text>
</a>
</g>
</g>
<!-- Node1&#45;&gt;Node2 -->
<g id="edge1" class="edge"><title>Node1&#45;&gt;Node2</title>
<path fill="none" stroke="midnightblue" d="M83.8363,-80.9738C101.002,-88.8697 123.39,-98.4414 144,-105 155.468,-108.649 167.999,-111.822 179.915,-114.475"/>
<polygon fill="midnightblue" stroke="midnightblue" points="84.9268,-77.62 74.3857,-76.5539 81.9613,-83.9608 84.9268,-77.62"/>
</g>
<!-- Node3 -->
<g id="node3" class="node"><title>Node3</title>
<g id="a_node3"><a xlink:href="../../d3/dcc/class_half_neighbor.html#a579e1e5069ce67551e9e6f6a66619cb6" target="_top" xlink:title="HalfNeighbor.getNeighbors">
<polygon fill="white" stroke="black" points="160,-76.5 160,-95.5 306,-95.5 306,-76.5 160,-76.5"/>
<text text-anchor="middle" x="233" y="-83.5" font-family="Helvetica,sans-Serif" font-size="10.00">HalfNeighbor.getNeighbors</text>
</a>
</g>
</g>
<!-- Node1&#45;&gt;Node3 -->
<g id="edge2" class="edge"><title>Node1&#45;&gt;Node3</title>
<path fill="none" stroke="midnightblue" d="M118.248,-73.7893C131.76,-75.2398 146.129,-76.7822 159.944,-78.2651"/>
<polygon fill="midnightblue" stroke="midnightblue" points="118.422,-70.288 108.106,-72.7006 117.675,-77.248 118.422,-70.288"/>
</g>
<!-- Node4 -->
<g id="node4" class="node"><title>Node4</title>
<g id="a_node4"><a xlink:href="../../dc/da7/class_wator_controller.html#aa2798e4be6f701485c448df33a18db55" target="_top" xlink:title="WatorController.getNeighbors">
<polygon fill="white" stroke="black" points="154.5,-38.5 154.5,-57.5 311.5,-57.5 311.5,-38.5 154.5,-38.5"/>
<text text-anchor="middle" x="233" y="-45.5" font-family="Helvetica,sans-Serif" font-size="10.00">WatorController.getNeighbors</text>
</a>
</g>
</g>
<!-- Node1&#45;&gt;Node4 -->
<g id="edge3" class="edge"><title>Node1&#45;&gt;Node4</title>
<path fill="none" stroke="midnightblue" d="M118.216,-60.2141C129.936,-58.9561 142.301,-57.6287 154.391,-56.3309"/>
<polygon fill="midnightblue" stroke="midnightblue" points="117.675,-56.752 108.106,-61.2994 118.422,-63.712 117.675,-56.752"/>
</g>
<!-- Node9 -->
<g id="node9" class="node"><title>Node9</title>
<g id="a_node9"><a xlink:href="../../df/d6f/class_hexagonal_neighbor.html#a1c3954ced41b9b1f02e809b91cbd99e5" target="_top" xlink:title="HexagonalNeighbor.makeCorners">
<polygon fill="white" stroke="black" points="144,-0.5 144,-19.5 322,-19.5 322,-0.5 144,-0.5"/>
<text text-anchor="middle" x="233" y="-7.5" font-family="Helvetica,sans-Serif" font-size="10.00">HexagonalNeighbor.makeCorners</text>
</a>
</g>
</g>
<!-- Node1&#45;&gt;Node9 -->
<g id="edge9" class="edge"><title>Node1&#45;&gt;Node9</title>
<path fill="none" stroke="midnightblue" d="M83.8363,-53.0262C101.002,-45.1303 123.39,-35.5586 144,-29 155.468,-25.3505 167.999,-22.1775 179.915,-19.5245"/>
<polygon fill="midnightblue" stroke="midnightblue" points="81.9613,-50.0392 74.3857,-57.4461 84.9268,-56.38 81.9613,-50.0392"/>
</g>
<!-- Node5 -->
<g id="node5" class="node"><title>Node5</title>
<g id="a_node5"><a xlink:href="../../dc/da7/class_wator_controller.html#a1cf19c6619c3be6edf4e18c4758f6c01" target="_top" xlink:title="WatorController.updateFrom\lShark">
<polygon fill="white" stroke="black" points="372,-77 372,-107 522,-107 522,-77 372,-77"/>
<text text-anchor="start" x="380" y="-95" font-family="Helvetica,sans-Serif" font-size="10.00">WatorController.updateFrom</text>
<text text-anchor="middle" x="447" y="-84" font-family="Helvetica,sans-Serif" font-size="10.00">Shark</text>
</a>
</g>
</g>
<!-- Node4&#45;&gt;Node5 -->
<g id="edge4" class="edge"><title>Node4&#45;&gt;Node5</title>
<path fill="none" stroke="midnightblue" d="M289.897,-59.6013C315.467,-64.9083 346.089,-71.2638 373.412,-76.9346"/>
<polygon fill="midnightblue" stroke="midnightblue" points="290.503,-56.1526 280.001,-57.5473 289.081,-63.0066 290.503,-56.1526"/>
</g>
<!-- Node8 -->
<g id="node8" class="node"><title>Node8</title>
<g id="a_node8"><a xlink:href="../../dc/da7/class_wator_controller.html#a92a5ed25c56db84dd6f20e244d092a46" target="_top" xlink:title="WatorController.updateFromFish">
<polygon fill="white" stroke="black" points="363,-38.5 363,-57.5 531,-57.5 531,-38.5 363,-38.5"/>
<text text-anchor="middle" x="447" y="-45.5" font-family="Helvetica,sans-Serif" font-size="10.00">WatorController.updateFromFish</text>
</a>
</g>
</g>
<!-- Node4&#45;&gt;Node8 -->
<g id="edge7" class="edge"><title>Node4&#45;&gt;Node8</title>
<path fill="none" stroke="midnightblue" d="M322,-48C335.544,-48 349.491,-48 362.923,-48"/>
<polygon fill="midnightblue" stroke="midnightblue" points="321.737,-44.5001 311.737,-48 321.737,-51.5001 321.737,-44.5001"/>
</g>
<!-- Node6 -->
<g id="node6" class="node"><title>Node6</title>
<g id="a_node6"><a xlink:href="../../dc/da7/class_wator_controller.html#a0d61c3c9e96000370bacec79d64725ab" target="_top" xlink:title="WatorController.updateDestination">
<polygon fill="white" stroke="black" points="572.5,-60.5 572.5,-79.5 753.5,-79.5 753.5,-60.5 572.5,-60.5"/>
<text text-anchor="middle" x="663" y="-67.5" font-family="Helvetica,sans-Serif" font-size="10.00">WatorController.updateDestination</text>
</a>
</g>
</g>
<!-- Node5&#45;&gt;Node6 -->
<g id="edge5" class="edge"><title>Node5&#45;&gt;Node6</title>
<path fill="none" stroke="midnightblue" d="M532.226,-83.3412C545.419,-81.9849 559.097,-80.5788 572.405,-79.2107"/>
<polygon fill="midnightblue" stroke="midnightblue" points="531.836,-79.8628 522.246,-84.3672 532.552,-86.8261 531.836,-79.8628"/>
</g>
<!-- Node7 -->
<g id="node7" class="node"><title>Node7</title>
<g id="a_node7"><a xlink:href="../../dc/da7/class_wator_controller.html#acc1968e8357ac21f25473b4fcbadc954" target="_top" xlink:title="WatorController.runOneSim">
<polygon fill="white" stroke="black" points="790,-60.5 790,-79.5 936,-79.5 936,-60.5 790,-60.5"/>
<text text-anchor="middle" x="863" y="-67.5" font-family="Helvetica,sans-Serif" font-size="10.00">WatorController.runOneSim</text>
</a>
</g>
</g>
<!-- Node6&#45;&gt;Node7 -->
<g id="edge6" class="edge"><title>Node6&#45;&gt;Node7</title>
<path fill="none" stroke="midnightblue" d="M763.946,-70C772.658,-70 781.36,-70 789.782,-70"/>
<polygon fill="midnightblue" stroke="midnightblue" points="763.731,-66.5001 753.731,-70 763.731,-73.5001 763.731,-66.5001"/>
</g>
<!-- Node8&#45;&gt;Node6 -->
<g id="edge8" class="edge"><title>Node8&#45;&gt;Node6</title>
<path fill="none" stroke="midnightblue" d="M541.264,-57.5879C551.555,-58.6459 562.019,-59.7216 572.266,-60.775"/>
<polygon fill="midnightblue" stroke="midnightblue" points="541.35,-54.0783 531.044,-56.5373 540.634,-61.0416 541.35,-54.0783"/>
</g>
<!-- Node10 -->
<g id="node10" class="node"><title>Node10</title>
<g id="a_node10"><a xlink:href="../../df/d6f/class_hexagonal_neighbor.html#ab094c696b45e4749bfbe868005e818f7" target="_top" xlink:title="HexagonalNeighbor.getNeighbors">
<polygon fill="white" stroke="black" points="358,-0.5 358,-19.5 536,-19.5 536,-0.5 358,-0.5"/>
<text text-anchor="middle" x="447" y="-7.5" font-family="Helvetica,sans-Serif" font-size="10.00">HexagonalNeighbor.getNeighbors</text>
</a>
</g>
</g>
<!-- Node9&#45;&gt;Node10 -->
<g id="edge10" class="edge"><title>Node9&#45;&gt;Node10</title>
<path fill="none" stroke="midnightblue" d="M332.107,-10C340.7,-10 349.363,-10 357.868,-10"/>
<polygon fill="midnightblue" stroke="midnightblue" points="332.065,-6.5001 322.065,-10 332.065,-13.5001 332.065,-6.5001"/>
</g>
</g>
</svg>
