<?xml version="1.0" encoding="UTF-8" standalone="no"?>
<!DOCTYPE svg PUBLIC "-//W3C//DTD SVG 1.1//EN"
 "http://www.w3.org/Graphics/SVG/1.1/DTD/svg11.dtd">
<!-- Generated by graphviz version 2.36.0 (20140111.2315)
 -->
<!-- Title: Boundary.makeCell Pages: 1 -->
<svg width="944pt" height="170pt"
 viewBox="0.00 0.00 944.00 170.00" xmlns="http://www.w3.org/2000/svg" xmlns:xlink="http://www.w3.org/1999/xlink">
<g id="graph0" class="graph" transform="scale(1 1) rotate(0) translate(4 166)">
<title>Boundary.makeCell</title>
<polygon fill="white" stroke="none" points="-4,4 -4,-166 940,-166 940,4 -4,4"/>
<!-- Node1 -->
<g id="node1" class="node"><title>Node1</title>
<polygon fill="#bfbfbf" stroke="black" points="0,-85.5 0,-104.5 108,-104.5 108,-85.5 0,-85.5"/>
<text text-anchor="middle" x="54" y="-92.5" font-family="Helvetica,sans-Serif" font-size="10.00">Boundary.makeCell</text>
</g>
<!-- Node2 -->
<g id="node2" class="node"><title>Node2</title>
<g id="a_node2"><a xlink:href="../../d9/d94/class_full_neighbor.html#a84cc759f88cbcdde55a1aa6923722005" target="_top" xlink:title="FullNeighbor.getNeighbors">
<polygon fill="white" stroke="black" points="162,-142.5 162,-161.5 304,-161.5 304,-142.5 162,-142.5"/>
<text text-anchor="middle" x="233" y="-149.5" font-family="Helvetica,sans-Serif" font-size="10.00">FullNeighbor.getNeighbors</text>
</a>
</g>
</g>
<!-- Node1&#45;&gt;Node2 -->
<g id="edge1" class="edge"><title>Node1&#45;&gt;Node2</title>
<path fill="none" stroke="midnightblue" d="M83.8363,-108.974C101.002,-116.87 123.39,-126.441 144,-133 155.468,-136.649 167.999,-139.822 179.915,-142.475"/>
<polygon fill="midnightblue" stroke="midnightblue" points="84.9268,-105.62 74.3857,-104.554 81.9613,-111.961 84.9268,-105.62"/>
</g>
<!-- Node3 -->
<g id="node3" class="node"><title>Node3</title>
<g id="a_node3"><a xlink:href="../../d3/dcc/class_half_neighbor.html#a579e1e5069ce67551e9e6f6a66619cb6" target="_top" xlink:title="HalfNeighbor.getNeighbors">
<polygon fill="white" stroke="black" points="160,-104.5 160,-123.5 306,-123.5 306,-104.5 160,-104.5"/>
<text text-anchor="middle" x="233" y="-111.5" font-family="Helvetica,sans-Serif" font-size="10.00">HalfNeighbor.getNeighbors</text>
</a>
</g>
</g>
<!-- Node1&#45;&gt;Node3 -->
<g id="edge2" class="edge"><title>Node1&#45;&gt;Node3</title>
<path fill="none" stroke="midnightblue" d="M118.248,-101.789C131.76,-103.24 146.129,-104.782 159.944,-106.265"/>
<polygon fill="midnightblue" stroke="midnightblue" points="118.422,-98.288 108.106,-100.701 117.675,-105.248 118.422,-98.288"/>
</g>
<!-- Node4 -->
<g id="node4" class="node"><title>Node4</title>
<g id="a_node4"><a xlink:href="../../dc/da7/class_wator_controller.html#aa2798e4be6f701485c448df33a18db55" target="_top" xlink:title="WatorController.getNeighbors">
<polygon fill="white" stroke="black" points="154.5,-66.5 154.5,-85.5 311.5,-85.5 311.5,-66.5 154.5,-66.5"/>
<text text-anchor="middle" x="233" y="-73.5" font-family="Helvetica,sans-Serif" font-size="10.00">WatorController.getNeighbors</text>
</a>
</g>
</g>
<!-- Node1&#45;&gt;Node4 -->
<g id="edge3" class="edge"><title>Node1&#45;&gt;Node4</title>
<path fill="none" stroke="midnightblue" d="M118.216,-88.2141C129.936,-86.9561 142.301,-85.6287 154.391,-84.3309"/>
<polygon fill="midnightblue" stroke="midnightblue" points="117.675,-84.752 108.106,-89.2994 118.422,-91.712 117.675,-84.752"/>
</g>
<!-- Node10 -->
<g id="node10" class="node"><title>Node10</title>
<g id="a_node10"><a xlink:href="../../df/d6f/class_hexagonal_neighbor.html#a1c3954ced41b9b1f02e809b91cbd99e5" target="_top" xlink:title="HexagonalNeighbor.makeCorners">
<polygon fill="white" stroke="black" points="144,-19.5 144,-38.5 322,-38.5 322,-19.5 144,-19.5"/>
<text text-anchor="middle" x="233" y="-26.5" font-family="Helvetica,sans-Serif" font-size="10.00">HexagonalNeighbor.makeCorners</text>
</a>
</g>
</g>
<!-- Node1&#45;&gt;Node10 -->
<g id="edge10" class="edge"><title>Node1&#45;&gt;Node10</title>
<path fill="none" stroke="midnightblue" d="M85.4401,-81.1495C102.498,-73.6045 124.253,-64.3383 144,-57 162.184,-50.2425 182.838,-43.6177 199.565,-38.5097"/>
<polygon fill="midnightblue" stroke="midnightblue" points="83.6965,-78.0948 75.99,-85.3654 86.5484,-84.4875 83.6965,-78.0948"/>
</g>
<!-- Node5 -->
<g id="node5" class="node"><title>Node5</title>
<g id="a_node5"><a xlink:href="../../dc/da7/class_wator_controller.html#a1cf19c6619c3be6edf4e18c4758f6c01" target="_top" xlink:title="WatorController.updateFrom\lShark">
<polygon fill="white" stroke="black" points="372,-115 372,-145 522,-145 522,-115 372,-115"/>
<text text-anchor="start" x="380" y="-133" font-family="Helvetica,sans-Serif" font-size="10.00">WatorController.updateFrom</text>
<text text-anchor="middle" x="447" y="-122" font-family="Helvetica,sans-Serif" font-size="10.00">Shark</text>
</a>
</g>
</g>
<!-- Node4&#45;&gt;Node5 -->
<g id="edge4" class="edge"><title>Node4&#45;&gt;Node5</title>
<path fill="none" stroke="midnightblue" d="M290.602,-87.6747C301.069,-89.9883 311.885,-92.4832 322,-95 325.717,-95.925 360.969,-105.884 392.938,-114.942"/>
<polygon fill="midnightblue" stroke="midnightblue" points="291.225,-84.2284 280.709,-85.5173 289.734,-91.0676 291.225,-84.2284"/>
</g>
<!-- Node8 -->
<g id="node8" class="node"><title>Node8</title>
<g id="a_node8"><a xlink:href="../../dc/da7/class_wator_controller.html#a92a5ed25c56db84dd6f20e244d092a46" target="_top" xlink:title="WatorController.updateFromFish">
<polygon fill="white" stroke="black" points="363,-76.5 363,-95.5 531,-95.5 531,-76.5 363,-76.5"/>
<text text-anchor="middle" x="447" y="-83.5" font-family="Helvetica,sans-Serif" font-size="10.00">WatorController.updateFromFish</text>
</a>
</g>
</g>
<!-- Node4&#45;&gt;Node8 -->
<g id="edge7" class="edge"><title>Node4&#45;&gt;Node8</title>
<path fill="none" stroke="midnightblue" d="M322,-80.1509C335.544,-80.7898 349.491,-81.4477 362.923,-82.0813"/>
<polygon fill="midnightblue" stroke="midnightblue" points="321.891,-76.642 311.737,-79.6668 321.561,-83.6342 321.891,-76.642"/>
</g>
<!-- Node9 -->
<g id="node9" class="node"><title>Node9</title>
<g id="a_node9"><a xlink:href="../../dc/da7/class_wator_controller.html#a4b2c805aa780ce6f89ae2bf98714bbbb" target="_top" xlink:title="WatorController.updateFromCell">
<polygon fill="white" stroke="black" points="363.5,-38.5 363.5,-57.5 530.5,-57.5 530.5,-38.5 363.5,-38.5"/>
<text text-anchor="middle" x="447" y="-45.5" font-family="Helvetica,sans-Serif" font-size="10.00">WatorController.updateFromCell</text>
</a>
</g>
</g>
<!-- Node4&#45;&gt;Node9 -->
<g id="edge9" class="edge"><title>Node4&#45;&gt;Node9</title>
<path fill="none" stroke="midnightblue" d="M316.189,-65.1449C335.178,-62.6369 355.242,-59.9868 373.77,-57.5398"/>
<polygon fill="midnightblue" stroke="midnightblue" points="315.525,-61.7021 306.069,-66.4814 316.442,-68.6418 315.525,-61.7021"/>
</g>
<!-- Node6 -->
<g id="node6" class="node"><title>Node6</title>
<g id="a_node6"><a xlink:href="../../dc/da7/class_wator_controller.html#a0d61c3c9e96000370bacec79d64725ab" target="_top" xlink:title="WatorController.updateDestination">
<polygon fill="white" stroke="black" points="572.5,-98.5 572.5,-117.5 753.5,-117.5 753.5,-98.5 572.5,-98.5"/>
<text text-anchor="middle" x="663" y="-105.5" font-family="Helvetica,sans-Serif" font-size="10.00">WatorController.updateDestination</text>
</a>
</g>
</g>
<!-- Node5&#45;&gt;Node6 -->
<g id="edge5" class="edge"><title>Node5&#45;&gt;Node6</title>
<path fill="none" stroke="midnightblue" d="M532.226,-121.341C545.419,-119.985 559.097,-118.579 572.405,-117.211"/>
<polygon fill="midnightblue" stroke="midnightblue" points="531.836,-117.863 522.246,-122.367 532.552,-124.826 531.836,-117.863"/>
</g>
<!-- Node7 -->
<g id="node7" class="node"><title>Node7</title>
<g id="a_node7"><a xlink:href="../../dc/da7/class_wator_controller.html#acc1968e8357ac21f25473b4fcbadc954" target="_top" xlink:title="WatorController.runOneSim">
<polygon fill="white" stroke="black" points="790,-98.5 790,-117.5 936,-117.5 936,-98.5 790,-98.5"/>
<text text-anchor="middle" x="863" y="-105.5" font-family="Helvetica,sans-Serif" font-size="10.00">WatorController.runOneSim</text>
</a>
</g>
</g>
<!-- Node6&#45;&gt;Node7 -->
<g id="edge6" class="edge"><title>Node6&#45;&gt;Node7</title>
<path fill="none" stroke="midnightblue" d="M763.946,-108C772.658,-108 781.36,-108 789.782,-108"/>
<polygon fill="midnightblue" stroke="midnightblue" points="763.731,-104.5 753.731,-108 763.731,-111.5 763.731,-104.5"/>
</g>
<!-- Node8&#45;&gt;Node6 -->
<g id="edge8" class="edge"><title>Node8&#45;&gt;Node6</title>
<path fill="none" stroke="midnightblue" d="M541.264,-95.5879C551.555,-96.6459 562.019,-97.7216 572.266,-98.775"/>
<polygon fill="midnightblue" stroke="midnightblue" points="541.35,-92.0783 531.044,-94.5373 540.634,-99.0416 541.35,-92.0783"/>
</g>
<!-- Node11 -->
<g id="node11" class="node"><title>Node11</title>
<g id="a_node11"><a xlink:href="../../df/d6f/class_hexagonal_neighbor.html#ab094c696b45e4749bfbe868005e818f7" target="_top" xlink:title="HexagonalNeighbor.getNeighbors">
<polygon fill="white" stroke="black" points="358,-0.5 358,-19.5 536,-19.5 536,-0.5 358,-0.5"/>
<text text-anchor="middle" x="447" y="-7.5" font-family="Helvetica,sans-Serif" font-size="10.00">HexagonalNeighbor.getNeighbors</text>
</a>
</g>
</g>
<!-- Node10&#45;&gt;Node11 -->
<g id="edge11" class="edge"><title>Node10&#45;&gt;Node11</title>
<path fill="none" stroke="midnightblue" d="M332.107,-20.2074C340.7,-19.4372 349.363,-18.6609 357.868,-17.8987"/>
<polygon fill="midnightblue" stroke="midnightblue" points="331.713,-16.7286 322.065,-21.1074 332.338,-23.7006 331.713,-16.7286"/>
</g>
</g>
</svg>
