<?xml version="1.0" encoding="UTF-8" standalone="no"?>
<!DOCTYPE svg PUBLIC "-//W3C//DTD SVG 1.1//EN"
 "http://www.w3.org/Graphics/SVG/1.1/DTD/svg11.dtd">
<!-- Generated by graphviz version 2.36.0 (20140111.2315)
 -->
<!-- Title: Boundary.findCell Pages: 1 -->
<svg width="534pt" height="142pt"
 viewBox="0.00 0.00 534.00 142.00" xmlns="http://www.w3.org/2000/svg" xmlns:xlink="http://www.w3.org/1999/xlink">
<g id="graph0" class="graph" transform="scale(1 1) rotate(0) translate(4 138)">
<title>Boundary.findCell</title>
<polygon fill="white" stroke="none" points="-4,4 -4,-138 530,-138 530,4 -4,4"/>
<!-- Node1 -->
<g id="node1" class="node"><title>Node1</title>
<polygon fill="#bfbfbf" stroke="black" points="0,-57.5 0,-76.5 98,-76.5 98,-57.5 0,-57.5"/>
<text text-anchor="middle" x="49" y="-64.5" font-family="Helvetica,sans-Serif" font-size="10.00">Boundary.findCell</text>
</g>
<!-- Node2 -->
<g id="node2" class="node"><title>Node2</title>
<g id="a_node2"><a xlink:href="../../d3/dcc/class_half_neighbor.html#aca4b70fe2c0073ec583db6aa6892c00d" target="_top" xlink:title="HalfNeighbor.getNeighbors">
<polygon fill="white" stroke="black" points="150,-114.5 150,-133.5 296,-133.5 296,-114.5 150,-114.5"/>
<text text-anchor="middle" x="223" y="-121.5" font-family="Helvetica,sans-Serif" font-size="10.00">HalfNeighbor.getNeighbors</text>
</a>
</g>
</g>
<!-- Node1&#45;&gt;Node2 -->
<g id="edge1" class="edge"><title>Node1&#45;&gt;Node2</title>
<path fill="none" stroke="midnightblue" d="M77.5855,-81.2716C93.6979,-89.1493 114.615,-98.6032 134,-105 145.132,-108.673 157.294,-111.825 168.928,-114.446"/>
<polygon fill="midnightblue" stroke="midnightblue" points="78.7425,-77.9378 68.2309,-76.6118 75.6213,-84.2034 78.7425,-77.9378"/>
</g>
<!-- Node3 -->
<g id="node3" class="node"><title>Node3</title>
<g id="a_node3"><a xlink:href="../../d8/dc8/class_old_half_neighbor.html#acb4977e5c7541d299628f53dda0c067f" target="_top" xlink:title="OldHalfNeighbor.getNeighbors">
<polygon fill="white" stroke="black" points="142.5,-76.5 142.5,-95.5 303.5,-95.5 303.5,-76.5 142.5,-76.5"/>
<text text-anchor="middle" x="223" y="-83.5" font-family="Helvetica,sans-Serif" font-size="10.00">OldHalfNeighbor.getNeighbors</text>
</a>
</g>
</g>
<!-- Node1&#45;&gt;Node3 -->
<g id="edge2" class="edge"><title>Node1&#45;&gt;Node3</title>
<path fill="none" stroke="midnightblue" d="M108.585,-73.4716C119.478,-74.6749 131.025,-75.9505 142.421,-77.2093"/>
<polygon fill="midnightblue" stroke="midnightblue" points="108.693,-69.9623 98.3693,-72.3431 107.925,-76.92 108.693,-69.9623"/>
</g>
<!-- Node4 -->
<g id="node4" class="node"><title>Node4</title>
<g id="a_node4"><a xlink:href="../../d9/d94/class_full_neighbor.html#a1e853094e8ed505b5e6e5b73b075704e" target="_top" xlink:title="FullNeighbor.getNeighbors">
<polygon fill="white" stroke="black" points="152,-38.5 152,-57.5 294,-57.5 294,-38.5 152,-38.5"/>
<text text-anchor="middle" x="223" y="-45.5" font-family="Helvetica,sans-Serif" font-size="10.00">FullNeighbor.getNeighbors</text>
</a>
</g>
</g>
<!-- Node1&#45;&gt;Node4 -->
<g id="edge3" class="edge"><title>Node1&#45;&gt;Node4</title>
<path fill="none" stroke="midnightblue" d="M108.334,-60.5561C122.318,-59.0114 137.393,-57.3461 151.85,-55.7491"/>
<polygon fill="midnightblue" stroke="midnightblue" points="107.925,-57.08 98.3693,-61.6569 108.693,-64.0377 107.925,-57.08"/>
</g>
<!-- Node5 -->
<g id="node5" class="node"><title>Node5</title>
<g id="a_node5"><a xlink:href="../../df/d6f/class_hexagonal_neighbor.html#aa7d6ee8dbb3dc93b1e63b2cedf3bafba" target="_top" xlink:title="HexagonalNeighbor.makeCorners">
<polygon fill="white" stroke="black" points="134,-0.5 134,-19.5 312,-19.5 312,-0.5 134,-0.5"/>
<text text-anchor="middle" x="223" y="-7.5" font-family="Helvetica,sans-Serif" font-size="10.00">HexagonalNeighbor.makeCorners</text>
</a>
</g>
</g>
<!-- Node1&#45;&gt;Node5 -->
<g id="edge4" class="edge"><title>Node1&#45;&gt;Node5</title>
<path fill="none" stroke="midnightblue" d="M77.5855,-52.7284C93.6979,-44.8507 114.615,-35.3968 134,-29 145.132,-25.3266 157.294,-22.1748 168.928,-19.5542"/>
<polygon fill="midnightblue" stroke="midnightblue" points="75.6213,-49.7966 68.2309,-57.3882 78.7425,-56.0622 75.6213,-49.7966"/>
</g>
<!-- Node6 -->
<g id="node6" class="node"><title>Node6</title>
<g id="a_node6"><a xlink:href="../../df/d6f/class_hexagonal_neighbor.html#a244c4789117cbf0b27c8227549a8cf46" target="_top" xlink:title="HexagonalNeighbor.getNeighbors">
<polygon fill="white" stroke="black" points="348,-0.5 348,-19.5 526,-19.5 526,-0.5 348,-0.5"/>
<text text-anchor="middle" x="437" y="-7.5" font-family="Helvetica,sans-Serif" font-size="10.00">HexagonalNeighbor.getNeighbors</text>
</a>
</g>
</g>
<!-- Node5&#45;&gt;Node6 -->
<g id="edge5" class="edge"><title>Node5&#45;&gt;Node6</title>
<path fill="none" stroke="midnightblue" d="M322.107,-10C330.7,-10 339.363,-10 347.868,-10"/>
<polygon fill="midnightblue" stroke="midnightblue" points="322.065,-6.5001 312.065,-10 322.065,-13.5001 322.065,-6.5001"/>
</g>
</g>
</svg>
