<?xml version="1.0" encoding="UTF-8" standalone="no"?>
<!DOCTYPE svg PUBLIC "-//W3C//DTD SVG 1.1//EN"
 "http://www.w3.org/Graphics/SVG/1.1/DTD/svg11.dtd">
<!-- Generated by graphviz version 2.36.0 (20140111.2315)
 -->
<!-- Title: Boundary.findCell Pages: 1 -->
<svg width="1102pt" height="153pt"
 viewBox="0.00 0.00 1102.00 153.00" xmlns="http://www.w3.org/2000/svg" xmlns:xlink="http://www.w3.org/1999/xlink">
<g id="graph0" class="graph" transform="scale(1 1) rotate(0) translate(4 149)">
<title>Boundary.findCell</title>
<polygon fill="white" stroke="none" points="-4,4 -4,-149 1098,-149 1098,4 -4,4"/>
<!-- Node1 -->
<g id="node1" class="node"><title>Node1</title>
<polygon fill="#bfbfbf" stroke="black" points="0,-68.5 0,-87.5 98,-87.5 98,-68.5 0,-68.5"/>
<text text-anchor="middle" x="49" y="-75.5" font-family="Helvetica,sans-Serif" font-size="10.00">Boundary.findCell</text>
</g>
<!-- Node2 -->
<g id="node2" class="node"><title>Node2</title>
<g id="a_node2"><a xlink:href="../../d9/d94/class_full_neighbor.html#a84cc759f88cbcdde55a1aa6923722005" target="_top" xlink:title="FullNeighbor.getNeighbors">
<polygon fill="white" stroke="black" points="152,-125.5 152,-144.5 294,-144.5 294,-125.5 152,-125.5"/>
<text text-anchor="middle" x="223" y="-132.5" font-family="Helvetica,sans-Serif" font-size="10.00">FullNeighbor.getNeighbors</text>
</a>
</g>
</g>
<!-- Node1&#45;&gt;Node2 -->
<g id="edge1" class="edge"><title>Node1&#45;&gt;Node2</title>
<path fill="none" stroke="midnightblue" d="M77.5855,-92.2716C93.6979,-100.149 114.615,-109.603 134,-116 145.132,-119.673 157.294,-122.825 168.928,-125.446"/>
<polygon fill="midnightblue" stroke="midnightblue" points="78.7425,-88.9378 68.2309,-87.6118 75.6213,-95.2034 78.7425,-88.9378"/>
</g>
<!-- Node3 -->
<g id="node3" class="node"><title>Node3</title>
<g id="a_node3"><a xlink:href="../../d3/dcc/class_half_neighbor.html#a579e1e5069ce67551e9e6f6a66619cb6" target="_top" xlink:title="HalfNeighbor.getNeighbors">
<polygon fill="white" stroke="black" points="150,-87.5 150,-106.5 296,-106.5 296,-87.5 150,-87.5"/>
<text text-anchor="middle" x="223" y="-94.5" font-family="Helvetica,sans-Serif" font-size="10.00">HalfNeighbor.getNeighbors</text>
</a>
</g>
</g>
<!-- Node1&#45;&gt;Node3 -->
<g id="edge2" class="edge"><title>Node1&#45;&gt;Node3</title>
<path fill="none" stroke="midnightblue" d="M108.361,-84.4468C121.712,-85.9217 136.059,-87.5065 149.91,-89.0366"/>
<polygon fill="midnightblue" stroke="midnightblue" points="108.693,-80.9623 98.3693,-83.3431 107.925,-87.92 108.693,-80.9623"/>
</g>
<!-- Node4 -->
<g id="node4" class="node"><title>Node4</title>
<g id="a_node4"><a xlink:href="../../df/d6f/class_hexagonal_neighbor.html#a1c3954ced41b9b1f02e809b91cbd99e5" target="_top" xlink:title="HexagonalNeighbor.makeCorners">
<polygon fill="white" stroke="black" points="134,-49.5 134,-68.5 312,-68.5 312,-49.5 134,-49.5"/>
<text text-anchor="middle" x="223" y="-56.5" font-family="Helvetica,sans-Serif" font-size="10.00">HexagonalNeighbor.makeCorners</text>
</a>
</g>
</g>
<!-- Node1&#45;&gt;Node4 -->
<g id="edge3" class="edge"><title>Node1&#45;&gt;Node4</title>
<path fill="none" stroke="midnightblue" d="M108.512,-71.5365C117.343,-70.5609 126.607,-69.5376 135.872,-68.5141"/>
<polygon fill="midnightblue" stroke="midnightblue" points="107.925,-68.08 98.3693,-72.6569 108.693,-75.0377 107.925,-68.08"/>
</g>
<!-- Node6 -->
<g id="node6" class="node"><title>Node6</title>
<g id="a_node6"><a xlink:href="../../dc/da7/class_wator_controller.html#a64040cc93cd5dc646d39865a7d185b11" target="_top" xlink:title="WatorController.neighbors\lFromTwoDirections">
<polygon fill="white" stroke="black" points="153,-0 153,-30 293,-30 293,-0 153,-0"/>
<text text-anchor="start" x="161" y="-18" font-family="Helvetica,sans-Serif" font-size="10.00">WatorController.neighbors</text>
<text text-anchor="middle" x="223" y="-7" font-family="Helvetica,sans-Serif" font-size="10.00">FromTwoDirections</text>
</a>
</g>
</g>
<!-- Node1&#45;&gt;Node6 -->
<g id="edge5" class="edge"><title>Node1&#45;&gt;Node6</title>
<path fill="none" stroke="midnightblue" d="M78.3803,-63.8938C94.4568,-56.2262 115.079,-46.924 134,-40 143.695,-36.4522 154.14,-33.0943 164.329,-30.0586"/>
<polygon fill="midnightblue" stroke="midnightblue" points="76.4942,-60.918 69.0137,-68.4209 79.5403,-67.2204 76.4942,-60.918"/>
</g>
<!-- Node5 -->
<g id="node5" class="node"><title>Node5</title>
<g id="a_node5"><a xlink:href="../../df/d6f/class_hexagonal_neighbor.html#ab094c696b45e4749bfbe868005e818f7" target="_top" xlink:title="HexagonalNeighbor.getNeighbors">
<polygon fill="white" stroke="black" points="348,-49.5 348,-68.5 526,-68.5 526,-49.5 348,-49.5"/>
<text text-anchor="middle" x="437" y="-56.5" font-family="Helvetica,sans-Serif" font-size="10.00">HexagonalNeighbor.getNeighbors</text>
</a>
</g>
</g>
<!-- Node4&#45;&gt;Node5 -->
<g id="edge4" class="edge"><title>Node4&#45;&gt;Node5</title>
<path fill="none" stroke="midnightblue" d="M322.107,-59C330.7,-59 339.363,-59 347.868,-59"/>
<polygon fill="midnightblue" stroke="midnightblue" points="322.065,-55.5001 312.065,-59 322.065,-62.5001 322.065,-55.5001"/>
</g>
<!-- Node7 -->
<g id="node7" class="node"><title>Node7</title>
<g id="a_node7"><a xlink:href="../../dc/da7/class_wator_controller.html#a8a5c6aa913ced9603c3a2064bf758e5e" target="_top" xlink:title="WatorController.getNeighbors">
<polygon fill="white" stroke="black" points="358.5,-5.5 358.5,-24.5 515.5,-24.5 515.5,-5.5 358.5,-5.5"/>
<text text-anchor="middle" x="437" y="-12.5" font-family="Helvetica,sans-Serif" font-size="10.00">WatorController.getNeighbors</text>
</a>
</g>
</g>
<!-- Node6&#45;&gt;Node7 -->
<g id="edge6" class="edge"><title>Node6&#45;&gt;Node7</title>
<path fill="none" stroke="midnightblue" d="M303.26,-15C321.214,-15 340.262,-15 358.157,-15"/>
<polygon fill="midnightblue" stroke="midnightblue" points="303.123,-11.5001 293.123,-15 303.123,-18.5001 303.123,-11.5001"/>
</g>
<!-- Node8 -->
<g id="node8" class="node"><title>Node8</title>
<g id="a_node8"><a xlink:href="../../dc/da7/class_wator_controller.html#ad6ef17a774720254707f22d42c88c781" target="_top" xlink:title="WatorController.makeEligible">
<polygon fill="white" stroke="black" points="562,-5.5 562,-24.5 714,-24.5 714,-5.5 562,-5.5"/>
<text text-anchor="middle" x="638" y="-12.5" font-family="Helvetica,sans-Serif" font-size="10.00">WatorController.makeEligible</text>
</a>
</g>
</g>
<!-- Node7&#45;&gt;Node8 -->
<g id="edge7" class="edge"><title>Node7&#45;&gt;Node8</title>
<path fill="none" stroke="midnightblue" d="M525.623,-15C537.751,-15 550.118,-15 561.988,-15"/>
<polygon fill="midnightblue" stroke="midnightblue" points="525.508,-11.5001 515.508,-15 525.508,-18.5001 525.508,-11.5001"/>
</g>
<!-- Node9 -->
<g id="node9" class="node"><title>Node9</title>
<g id="a_node9"><a xlink:href="../../dc/da7/class_wator_controller.html#a8f10cc48fea8314d9ae89e397dac0c79" target="_top" xlink:title="WatorController.manipulateCell">
<polygon fill="white" stroke="black" points="750,-5.5 750,-24.5 914,-24.5 914,-5.5 750,-5.5"/>
<text text-anchor="middle" x="832" y="-12.5" font-family="Helvetica,sans-Serif" font-size="10.00">WatorController.manipulateCell</text>
</a>
</g>
</g>
<!-- Node8&#45;&gt;Node9 -->
<g id="edge8" class="edge"><title>Node8&#45;&gt;Node9</title>
<path fill="none" stroke="midnightblue" d="M724.084,-15C732.687,-15 741.408,-15 749.966,-15"/>
<polygon fill="midnightblue" stroke="midnightblue" points="724.057,-11.5001 714.057,-15 724.057,-18.5001 724.057,-11.5001"/>
</g>
<!-- Node10 -->
<g id="node10" class="node"><title>Node10</title>
<g id="a_node10"><a xlink:href="../../dc/da7/class_wator_controller.html#a8487f7764316be081c820425dd43b86d" target="_top" xlink:title="WatorController.cellUpdate">
<polygon fill="white" stroke="black" points="950.5,-5.5 950.5,-24.5 1093.5,-24.5 1093.5,-5.5 950.5,-5.5"/>
<text text-anchor="middle" x="1022" y="-12.5" font-family="Helvetica,sans-Serif" font-size="10.00">WatorController.cellUpdate</text>
</a>
</g>
</g>
<!-- Node9&#45;&gt;Node10 -->
<g id="edge9" class="edge"><title>Node9&#45;&gt;Node10</title>
<path fill="none" stroke="midnightblue" d="M924.289,-15C933.002,-15 941.746,-15 950.222,-15"/>
<polygon fill="midnightblue" stroke="midnightblue" points="924.093,-11.5001 914.093,-15 924.093,-18.5001 924.093,-11.5001"/>
</g>
</g>
</svg>
