<?xml version="1.0" encoding="UTF-8" standalone="no"?>
<!DOCTYPE svg PUBLIC "-//W3C//DTD SVG 1.1//EN"
 "http://www.w3.org/Graphics/SVG/1.1/DTD/svg11.dtd">
<!-- Generated by graphviz version 2.36.0 (20140111.2315)
 -->
<!-- Title: SegregationController Pages: 1 -->
<svg width="258pt" height="174pt"
 viewBox="0.00 0.00 258.00 174.00" xmlns="http://www.w3.org/2000/svg" xmlns:xlink="http://www.w3.org/1999/xlink">
<g id="graph0" class="graph" transform="scale(1 1) rotate(0) translate(4 170)">
<title>SegregationController</title>
<polygon fill="white" stroke="none" points="-4,4 -4,-170 254,-170 254,4 -4,4"/>
<!-- Node1 -->
<g id="node1" class="node"><title>Node1</title>
<polygon fill="#bfbfbf" stroke="black" points="100,-0.5 100,-19.5 222,-19.5 222,-0.5 100,-0.5"/>
<text text-anchor="middle" x="161" y="-7.5" font-family="Helvetica,sans-Serif" font-size="10.00">SegregationController</text>
</g>
<!-- Node2 -->
<g id="node2" class="node"><title>Node2</title>
<g id="a_node2"><a xlink:href="../../d6/d6e/class_sim_controller.html" target="_top" xlink:title="SimController">
<polygon fill="white" stroke="black" points="31,-78.5 31,-97.5 113,-97.5 113,-78.5 31,-78.5"/>
<text text-anchor="middle" x="72" y="-85.5" font-family="Helvetica,sans-Serif" font-size="10.00">SimController</text>
</a>
</g>
</g>
<!-- Node2&#45;&gt;Node1 -->
<g id="edge1" class="edge"><title>Node2&#45;&gt;Node1</title>
<path fill="none" stroke="midnightblue" d="M89.8828,-71.7293C108.22,-56.0702 136.092,-32.2701 150.91,-19.6165"/>
<polygon fill="midnightblue" stroke="midnightblue" points="87.5412,-69.1263 82.2094,-78.2818 92.0869,-74.4496 87.5412,-69.1263"/>
</g>
<!-- Node3 -->
<g id="node3" class="node"><title>Node3</title>
<g id="a_node3"><a xlink:href="../../dd/ddd/class_neighbor.html" target="_top" xlink:title="Neighbor">
<polygon fill="white" stroke="black" points="0,-146.5 0,-165.5 60,-165.5 60,-146.5 0,-146.5"/>
<text text-anchor="middle" x="30" y="-153.5" font-family="Helvetica,sans-Serif" font-size="10.00">Neighbor</text>
</a>
</g>
</g>
<!-- Node3&#45;&gt;Node2 -->
<g id="edge2" class="edge"><title>Node3&#45;&gt;Node2</title>
<path fill="none" stroke="#9a32cd" stroke-dasharray="5,2" d="M27.0038,-136.042C26.8181,-129.344 27.671,-121.993 31,-116 35.4697,-107.953 43.4652,-101.891 51.2161,-97.5701"/>
<polygon fill="#9a32cd" stroke="#9a32cd" points="23.5568,-136.745 28.0429,-146.343 30.5215,-136.042 23.5568,-136.745"/>
<text text-anchor="middle" x="62" y="-119.5" font-family="Helvetica,sans-Serif" font-size="10.00"> myNeighbor</text>
</g>
<!-- Node4 -->
<g id="node4" class="node"><title>Node4</title>
<g id="a_node4"><a xlink:href="../../d5/dda/class_boundary.html" target="_top" xlink:title="Boundary">
<polygon fill="white" stroke="black" points="84,-146.5 84,-165.5 146,-165.5 146,-146.5 84,-146.5"/>
<text text-anchor="middle" x="115" y="-153.5" font-family="Helvetica,sans-Serif" font-size="10.00">Boundary</text>
</a>
</g>
</g>
<!-- Node4&#45;&gt;Node2 -->
<g id="edge3" class="edge"><title>Node4&#45;&gt;Node2</title>
<path fill="none" stroke="#9a32cd" stroke-dasharray="5,2" d="M105.768,-137.356C102.021,-130.549 97.5151,-122.783 93,-116 88.7879,-109.673 83.5379,-102.923 79.3409,-97.7544"/>
<polygon fill="#9a32cd" stroke="#9a32cd" points="102.817,-139.259 110.628,-146.417 108.986,-135.951 102.817,-139.259"/>
<text text-anchor="middle" x="133" y="-119.5" font-family="Helvetica,sans-Serif" font-size="10.00"> myBoundary</text>
</g>
<!-- Node5 -->
<g id="node5" class="node"><title>Node5</title>
<polygon fill="white" stroke="#bfbfbf" points="131.5,-78.5 131.5,-97.5 250.5,-97.5 250.5,-78.5 131.5,-78.5"/>
<text text-anchor="middle" x="191" y="-85.5" font-family="Helvetica,sans-Serif" font-size="10.00">ArrayList&lt; Integer[]&gt;</text>
</g>
<!-- Node5&#45;&gt;Node1 -->
<g id="edge4" class="edge"><title>Node5&#45;&gt;Node1</title>
<path fill="none" stroke="#9a32cd" stroke-dasharray="5,2" d="M183.766,-68.6744C177.623,-53.1127 169.081,-31.4722 164.401,-19.6165"/>
<polygon fill="#9a32cd" stroke="#9a32cd" points="180.631,-70.2654 187.559,-78.2818 187.142,-67.6952 180.631,-70.2654"/>
<text text-anchor="middle" x="213" y="-52" font-family="Helvetica,sans-Serif" font-size="10.00"> myEmptyList</text>
<text text-anchor="middle" x="213" y="-41" font-family="Helvetica,sans-Serif" font-size="10.00">updatedList</text>
</g>
</g>
</svg>
