<?xml version="1.0" encoding="UTF-8" standalone="no"?>
<!DOCTYPE svg PUBLIC "-//W3C//DTD SVG 1.1//EN"
 "http://www.w3.org/Graphics/SVG/1.1/DTD/svg11.dtd">
<!-- Generated by graphviz version 2.36.0 (20140111.2315)
 -->
<!-- Title: SegregationController Pages: 1 -->
<svg width="265pt" height="232pt"
 viewBox="0.00 0.00 265.00 232.00" xmlns="http://www.w3.org/2000/svg" xmlns:xlink="http://www.w3.org/1999/xlink">
<g id="graph0" class="graph" transform="scale(1 1) rotate(0) translate(4 228)">
<title>SegregationController</title>
<polygon fill="white" stroke="none" points="-4,4 -4,-228 261,-228 261,4 -4,4"/>
<!-- Node1 -->
<g id="node1" class="node"><title>Node1</title>
<polygon fill="#bfbfbf" stroke="black" points="105,-0.5 105,-19.5 227,-19.5 227,-0.5 105,-0.5"/>
<text text-anchor="middle" x="166" y="-7.5" font-family="Helvetica,sans-Serif" font-size="10.00">SegregationController</text>
</g>
<!-- Node2 -->
<g id="node2" class="node"><title>Node2</title>
<g id="a_node2"><a xlink:href="../../da/d56/class_simple_controller.html" target="_top" xlink:title="SimpleController">
<polygon fill="white" stroke="black" points="24,-78.5 24,-97.5 120,-97.5 120,-78.5 24,-78.5"/>
<text text-anchor="middle" x="72" y="-85.5" font-family="Helvetica,sans-Serif" font-size="10.00">SimpleController</text>
</a>
</g>
</g>
<!-- Node2&#45;&gt;Node1 -->
<g id="edge1" class="edge"><title>Node2&#45;&gt;Node1</title>
<path fill="none" stroke="midnightblue" d="M90.6264,-71.9404C109.99,-56.2848 139.622,-32.3271 155.343,-19.6165"/>
<polygon fill="midnightblue" stroke="midnightblue" points="88.3588,-69.2729 82.783,-78.2818 92.7599,-74.7163 88.3588,-69.2729"/>
</g>
<!-- Node3 -->
<g id="node3" class="node"><title>Node3</title>
<g id="a_node3"><a xlink:href="../../d8/d87/class_controller.html" target="_top" xlink:title="Controller">
<polygon fill="white" stroke="black" points="40.5,-136.5 40.5,-155.5 103.5,-155.5 103.5,-136.5 40.5,-136.5"/>
<text text-anchor="middle" x="72" y="-143.5" font-family="Helvetica,sans-Serif" font-size="10.00">Controller</text>
</a>
</g>
</g>
<!-- Node3&#45;&gt;Node2 -->
<g id="edge2" class="edge"><title>Node3&#45;&gt;Node2</title>
<path fill="none" stroke="midnightblue" d="M72,-125.953C72,-116.287 72,-105.031 72,-97.5052"/>
<polygon fill="midnightblue" stroke="midnightblue" points="68.5001,-126.25 72,-136.25 75.5001,-126.25 68.5001,-126.25"/>
</g>
<!-- Node4 -->
<g id="node4" class="node"><title>Node4</title>
<g id="a_node4"><a xlink:href="../../dd/ddd/class_neighbor.html" target="_top" xlink:title="Neighbor">
<polygon fill="white" stroke="black" points="0,-204.5 0,-223.5 60,-223.5 60,-204.5 0,-204.5"/>
<text text-anchor="middle" x="30" y="-211.5" font-family="Helvetica,sans-Serif" font-size="10.00">Neighbor</text>
</a>
</g>
</g>
<!-- Node4&#45;&gt;Node3 -->
<g id="edge3" class="edge"><title>Node4&#45;&gt;Node3</title>
<path fill="none" stroke="#9a32cd" stroke-dasharray="5,2" d="M27.0038,-194.042C26.8181,-187.344 27.671,-179.993 31,-174 35.4697,-165.953 43.4652,-159.891 51.2161,-155.57"/>
<polygon fill="#9a32cd" stroke="#9a32cd" points="23.5568,-194.745 28.0429,-204.343 30.5215,-194.042 23.5568,-194.745"/>
<text text-anchor="middle" x="62" y="-177.5" font-family="Helvetica,sans-Serif" font-size="10.00"> myNeighbor</text>
</g>
<!-- Node5 -->
<g id="node5" class="node"><title>Node5</title>
<g id="a_node5"><a xlink:href="../../d5/dda/class_boundary.html" target="_top" xlink:title="Boundary">
<polygon fill="white" stroke="black" points="84,-204.5 84,-223.5 146,-223.5 146,-204.5 84,-204.5"/>
<text text-anchor="middle" x="115" y="-211.5" font-family="Helvetica,sans-Serif" font-size="10.00">Boundary</text>
</a>
</g>
</g>
<!-- Node5&#45;&gt;Node3 -->
<g id="edge4" class="edge"><title>Node5&#45;&gt;Node3</title>
<path fill="none" stroke="#9a32cd" stroke-dasharray="5,2" d="M105.768,-195.356C102.021,-188.549 97.5151,-180.783 93,-174 88.7879,-167.673 83.5379,-160.923 79.3409,-155.754"/>
<polygon fill="#9a32cd" stroke="#9a32cd" points="102.817,-197.259 110.628,-204.417 108.986,-193.951 102.817,-197.259"/>
<text text-anchor="middle" x="133" y="-177.5" font-family="Helvetica,sans-Serif" font-size="10.00"> myBoundary</text>
</g>
<!-- Node6 -->
<g id="node6" class="node"><title>Node6</title>
<polygon fill="white" stroke="#bfbfbf" points="138.5,-78.5 138.5,-97.5 257.5,-97.5 257.5,-78.5 138.5,-78.5"/>
<text text-anchor="middle" x="198" y="-85.5" font-family="Helvetica,sans-Serif" font-size="10.00">ArrayList&lt; Integer[]&gt;</text>
</g>
<!-- Node6&#45;&gt;Node1 -->
<g id="edge5" class="edge"><title>Node6&#45;&gt;Node1</title>
<path fill="none" stroke="#9a32cd" stroke-dasharray="5,2" d="M190.284,-68.6744C183.732,-53.1127 174.62,-31.4722 169.628,-19.6165"/>
<polygon fill="#9a32cd" stroke="#9a32cd" points="187.223,-70.4237 194.329,-78.2818 193.674,-67.7073 187.223,-70.4237"/>
<text text-anchor="middle" x="219" y="-52" font-family="Helvetica,sans-Serif" font-size="10.00"> myEmptyList</text>
<text text-anchor="middle" x="219" y="-41" font-family="Helvetica,sans-Serif" font-size="10.00">updatedList</text>
</g>
</g>
</svg>
