<?xml version="1.0" encoding="UTF-8" standalone="no"?>
<!DOCTYPE svg PUBLIC "-//W3C//DTD SVG 1.1//EN"
 "http://www.w3.org/Graphics/SVG/1.1/DTD/svg11.dtd">
<!-- Generated by graphviz version 2.36.0 (20140111.2315)
 -->
<!-- Title: SegregationController Pages: 1 -->
<svg width="421pt" height="174pt"
 viewBox="0.00 0.00 421.00 174.00" xmlns="http://www.w3.org/2000/svg" xmlns:xlink="http://www.w3.org/1999/xlink">
<g id="graph0" class="graph" transform="scale(1 1) rotate(0) translate(4 170)">
<title>SegregationController</title>
<polygon fill="white" stroke="none" points="-4,4 -4,-170 417,-170 417,4 -4,4"/>
<!-- Node1 -->
<g id="node1" class="node"><title>Node1</title>
<polygon fill="#bfbfbf" stroke="black" points="130,-0.5 130,-19.5 252,-19.5 252,-0.5 130,-0.5"/>
<text text-anchor="middle" x="191" y="-7.5" font-family="Helvetica,sans-Serif" font-size="10.00">SegregationController</text>
</g>
<!-- Node2 -->
<g id="node2" class="node"><title>Node2</title>
<g id="a_node2"><a xlink:href="../../d6/d6e/class_sim_controller.html" target="_top" xlink:title="SimController">
<polygon fill="white" stroke="black" points="93,-78.5 93,-97.5 175,-97.5 175,-78.5 93,-78.5"/>
<text text-anchor="middle" x="134" y="-85.5" font-family="Helvetica,sans-Serif" font-size="10.00">SimController</text>
</a>
</g>
</g>
<!-- Node2&#45;&gt;Node1 -->
<g id="edge1" class="edge"><title>Node2&#45;&gt;Node1</title>
<path fill="none" stroke="midnightblue" d="M146.746,-70.0056C158.473,-54.3693 175.389,-31.8142 184.538,-19.6165"/>
<polygon fill="midnightblue" stroke="midnightblue" points="143.739,-68.1818 140.539,-78.2818 149.339,-72.3818 143.739,-68.1818"/>
</g>
<!-- Node3 -->
<g id="node3" class="node"><title>Node3</title>
<g id="a_node3"><a xlink:href="../../dd/ddd/class_neighbor.html" target="_top" xlink:title="Neighbor">
<polygon fill="white" stroke="black" points="0,-146.5 0,-165.5 60,-165.5 60,-146.5 0,-146.5"/>
<text text-anchor="middle" x="30" y="-153.5" font-family="Helvetica,sans-Serif" font-size="10.00">Neighbor</text>
</a>
</g>
</g>
<!-- Node3&#45;&gt;Node1 -->
<g id="edge5" class="edge"><title>Node3&#45;&gt;Node1</title>
<path fill="none" stroke="#9a32cd" stroke-dasharray="5,2" d="M21.8821,-136.825C15.7568,-120.098 10.2297,-95.3279 22,-78 46.0303,-42.6233 91.9685,-25.9258 129.891,-18.0447"/>
<polygon fill="#9a32cd" stroke="#9a32cd" points="18.8067,-138.554 25.8178,-146.497 25.2905,-135.915 18.8067,-138.554"/>
<text text-anchor="middle" x="53" y="-85.5" font-family="Helvetica,sans-Serif" font-size="10.00"> myNeighbor</text>
</g>
<!-- Node3&#45;&gt;Node2 -->
<g id="edge2" class="edge"><title>Node3&#45;&gt;Node2</title>
<path fill="none" stroke="#9a32cd" stroke-dasharray="5,2" d="M41.6587,-138.215C47.6254,-130.61 55.433,-122 64,-116 75.5227,-107.93 89.7816,-101.864 102.417,-97.5468"/>
<polygon fill="#9a32cd" stroke="#9a32cd" points="38.6917,-136.34 35.5647,-146.463 44.3219,-140.5 38.6917,-136.34"/>
<text text-anchor="middle" x="95" y="-119.5" font-family="Helvetica,sans-Serif" font-size="10.00"> myNeighbor</text>
</g>
<!-- Node4 -->
<g id="node4" class="node"><title>Node4</title>
<g id="a_node4"><a xlink:href="../../d5/dda/class_boundary.html" target="_top" xlink:title="Boundary">
<polygon fill="white" stroke="black" points="140,-146.5 140,-165.5 202,-165.5 202,-146.5 140,-146.5"/>
<text text-anchor="middle" x="171" y="-153.5" font-family="Helvetica,sans-Serif" font-size="10.00">Boundary</text>
</a>
</g>
</g>
<!-- Node4&#45;&gt;Node1 -->
<g id="edge6" class="edge"><title>Node4&#45;&gt;Node1</title>
<path fill="none" stroke="#9a32cd" stroke-dasharray="5,2" d="M189.859,-139.268C192.773,-135.877 195.357,-132.074 197,-128 212.288,-90.0843 199.87,-39.5811 193.829,-19.6306"/>
<polygon fill="#9a32cd" stroke="#9a32cd" points="187.35,-136.827 182.745,-146.368 192.295,-141.781 187.35,-136.827"/>
<text text-anchor="middle" x="237" y="-85.5" font-family="Helvetica,sans-Serif" font-size="10.00"> myBoundary</text>
</g>
<!-- Node4&#45;&gt;Node2 -->
<g id="edge3" class="edge"><title>Node4&#45;&gt;Node2</title>
<path fill="none" stroke="#9a32cd" stroke-dasharray="5,2" d="M143.519,-140.464C139.279,-136.968 135.488,-132.82 133,-128 128.091,-118.491 129.623,-105.864 131.515,-97.5894"/>
<polygon fill="#9a32cd" stroke="#9a32cd" points="141.801,-143.533 152.003,-146.39 145.809,-137.794 141.801,-143.533"/>
<text text-anchor="middle" x="165" y="-119.5" font-family="Helvetica,sans-Serif" font-size="10.00"> myBoundary</text>
</g>
<!-- Node5 -->
<g id="node5" class="node"><title>Node5</title>
<polygon fill="white" stroke="#bfbfbf" points="293.5,-78.5 293.5,-97.5 412.5,-97.5 412.5,-78.5 293.5,-78.5"/>
<text text-anchor="middle" x="353" y="-85.5" font-family="Helvetica,sans-Serif" font-size="10.00">ArrayList&lt; Integer[]&gt;</text>
</g>
<!-- Node5&#45;&gt;Node1 -->
<g id="edge4" class="edge"><title>Node5&#45;&gt;Node1</title>
<path fill="none" stroke="#9a32cd" stroke-dasharray="5,2" d="M325.621,-74.1555C292.566,-58.6483 237.881,-32.9934 209.45,-19.6557"/>
<polygon fill="#9a32cd" stroke="#9a32cd" points="324.192,-77.3509 334.731,-78.4296 327.165,-71.0137 324.192,-77.3509"/>
<text text-anchor="middle" x="325" y="-52" font-family="Helvetica,sans-Serif" font-size="10.00"> myEmptyList</text>
<text text-anchor="middle" x="325" y="-41" font-family="Helvetica,sans-Serif" font-size="10.00">updatedList</text>
</g>
</g>
</svg>
