<?xml version="1.0" encoding="UTF-8" standalone="no"?>
<!DOCTYPE svg PUBLIC "-//W3C//DTD SVG 1.1//EN"
 "http://www.w3.org/Graphics/SVG/1.1/DTD/svg11.dtd">
<!-- Generated by graphviz version 2.36.0 (20140111.2315)
 -->
<!-- Title: SquareGrid Pages: 1 -->
<svg width="132pt" height="154pt"
 viewBox="0.00 0.00 132.00 154.00" xmlns="http://www.w3.org/2000/svg" xmlns:xlink="http://www.w3.org/1999/xlink">
<g id="graph0" class="graph" transform="scale(1 1) rotate(0) translate(4 150)">
<title>SquareGrid</title>
<polygon fill="white" stroke="none" points="-4,4 -4,-150 128,-150 128,4 -4,4"/>
<!-- Node1 -->
<g id="node1" class="node"><title>Node1</title>
<polygon fill="#bfbfbf" stroke="black" points="26.5,-0.5 26.5,-19.5 97.5,-19.5 97.5,-0.5 26.5,-0.5"/>
<text text-anchor="middle" x="62" y="-7.5" font-family="Helvetica,sans-Serif" font-size="10.00">SquareGrid</text>
</g>
<!-- Node2 -->
<g id="node2" class="node"><title>Node2</title>
<g id="a_node2"><a xlink:href="../../da/d74/class_grid.html" target="_top" xlink:title="Grid">
<polygon fill="white" stroke="black" points="44,-58.5 44,-77.5 80,-77.5 80,-58.5 44,-58.5"/>
<text text-anchor="middle" x="62" y="-65.5" font-family="Helvetica,sans-Serif" font-size="10.00">Grid</text>
</a>
</g>
</g>
<!-- Node2&#45;&gt;Node1 -->
<g id="edge1" class="edge"><title>Node2&#45;&gt;Node1</title>
<path fill="none" stroke="midnightblue" d="M62,-47.953C62,-38.2875 62,-27.0312 62,-19.5052"/>
<polygon fill="midnightblue" stroke="midnightblue" points="58.5001,-48.25 62,-58.25 65.5001,-48.25 58.5001,-48.25"/>
</g>
<!-- Node3 -->
<g id="node3" class="node"><title>Node3</title>
<polygon fill="white" stroke="#bfbfbf" points="-0.5,-126.5 -0.5,-145.5 46.5,-145.5 46.5,-126.5 -0.5,-126.5"/>
<text text-anchor="middle" x="23" y="-133.5" font-family="Helvetica,sans-Serif" font-size="10.00">Shape</text>
</g>
<!-- Node3&#45;&gt;Node2 -->
<g id="edge2" class="edge"><title>Node3&#45;&gt;Node2</title>
<path fill="none" stroke="#9a32cd" stroke-dasharray="5,2" d="M20.1207,-116.105C19.947,-109.414 20.7776,-102.051 24,-96 28.3366,-87.8567 36.3464,-81.6119 43.8981,-77.1895"/>
<polygon fill="#9a32cd" stroke="#9a32cd" points="16.6682,-116.767 21.116,-126.383 23.6356,-116.092 16.6682,-116.767"/>
<text text-anchor="middle" x="51.5" y="-99.5" font-family="Helvetica,sans-Serif" font-size="10.00"> myShapes</text>
</g>
<!-- Node4 -->
<g id="node4" class="node"><title>Node4</title>
<polygon fill="white" stroke="#bfbfbf" points="78,-126.5 78,-145.5 124,-145.5 124,-126.5 78,-126.5"/>
<text text-anchor="middle" x="101" y="-133.5" font-family="Helvetica,sans-Serif" font-size="10.00">Group</text>
</g>
<!-- Node4&#45;&gt;Node2 -->
<g id="edge3" class="edge"><title>Node4&#45;&gt;Node2</title>
<path fill="none" stroke="#9a32cd" stroke-dasharray="5,2" d="M91.2644,-117.32C87.5035,-110.603 83.12,-102.908 79,-96 75.3683,-89.9105 71.1183,-83.1605 67.7762,-77.9329"/>
<polygon fill="#9a32cd" stroke="#9a32cd" points="88.3117,-119.213 96.2259,-126.257 94.4317,-115.815 88.3117,-119.213"/>
<text text-anchor="middle" x="105" y="-99.5" font-family="Helvetica,sans-Serif" font-size="10.00"> myGrid</text>
</g>
</g>
</svg>
