<?xml version="1.0" encoding="UTF-8" standalone="no"?>
<!DOCTYPE svg PUBLIC "-//W3C//DTD SVG 1.1//EN"
 "http://www.w3.org/Graphics/SVG/1.1/DTD/svg11.dtd">
<!-- Generated by graphviz version 2.36.0 (20140111.2315)
 -->
<!-- Title: Grid Pages: 1 -->
<svg width="132pt" height="96pt"
 viewBox="0.00 0.00 132.00 96.00" xmlns="http://www.w3.org/2000/svg" xmlns:xlink="http://www.w3.org/1999/xlink">
<g id="graph0" class="graph" transform="scale(1 1) rotate(0) translate(4 92)">
<title>Grid</title>
<polygon fill="white" stroke="none" points="-4,4 -4,-92 128,-92 128,4 -4,4"/>
<!-- Node1 -->
<g id="node1" class="node"><title>Node1</title>
<polygon fill="#bfbfbf" stroke="black" points="44,-0.5 44,-19.5 80,-19.5 80,-0.5 44,-0.5"/>
<text text-anchor="middle" x="62" y="-7.5" font-family="Helvetica,sans-Serif" font-size="10.00">Grid</text>
</g>
<!-- Node2 -->
<g id="node2" class="node"><title>Node2</title>
<polygon fill="white" stroke="#bfbfbf" points="-0.5,-68.5 -0.5,-87.5 46.5,-87.5 46.5,-68.5 -0.5,-68.5"/>
<text text-anchor="middle" x="23" y="-75.5" font-family="Helvetica,sans-Serif" font-size="10.00">Shape</text>
</g>
<!-- Node2&#45;&gt;Node1 -->
<g id="edge1" class="edge"><title>Node2&#45;&gt;Node1</title>
<path fill="none" stroke="#9a32cd" stroke-dasharray="5,2" d="M20.1207,-58.1054C19.947,-51.414 20.7776,-44.0511 24,-38 28.3366,-29.8567 36.3464,-23.6119 43.8981,-19.1895"/>
<polygon fill="#9a32cd" stroke="#9a32cd" points="16.6682,-58.7665 21.116,-68.3826 23.6356,-58.0917 16.6682,-58.7665"/>
<text text-anchor="middle" x="51.5" y="-41.5" font-family="Helvetica,sans-Serif" font-size="10.00"> myShapes</text>
</g>
<!-- Node3 -->
<g id="node3" class="node"><title>Node3</title>
<polygon fill="white" stroke="#bfbfbf" points="78,-68.5 78,-87.5 124,-87.5 124,-68.5 78,-68.5"/>
<text text-anchor="middle" x="101" y="-75.5" font-family="Helvetica,sans-Serif" font-size="10.00">Group</text>
</g>
<!-- Node3&#45;&gt;Node1 -->
<g id="edge2" class="edge"><title>Node3&#45;&gt;Node1</title>
<path fill="none" stroke="#9a32cd" stroke-dasharray="5,2" d="M91.2644,-59.3202C87.5035,-52.6031 83.12,-44.9082 79,-38 75.3683,-31.9105 71.1183,-25.1605 67.7762,-19.9329"/>
<polygon fill="#9a32cd" stroke="#9a32cd" points="88.3117,-61.2127 96.2259,-68.2566 94.4317,-57.8147 88.3117,-61.2127"/>
<text text-anchor="middle" x="105" y="-41.5" font-family="Helvetica,sans-Serif" font-size="10.00"> myGrid</text>
</g>
</g>
</svg>
