<?xml version="1.0" encoding="UTF-8" standalone="no"?>
<!DOCTYPE svg PUBLIC "-//W3C//DTD SVG 1.1//EN"
 "http://www.w3.org/Graphics/SVG/1.1/DTD/svg11.dtd">
<!-- Generated by graphviz version 2.36.0 (20140111.2315)
 -->
<!-- Title: SimpleController Pages: 1 -->
<svg width="172pt" height="154pt"
 viewBox="0.00 0.00 172.00 154.00" xmlns="http://www.w3.org/2000/svg" xmlns:xlink="http://www.w3.org/1999/xlink">
<g id="graph0" class="graph" transform="scale(1 1) rotate(0) translate(4 150)">
<title>SimpleController</title>
<polygon fill="white" stroke="none" points="-4,4 -4,-150 168,-150 168,4 -4,4"/>
<!-- Node1 -->
<g id="node1" class="node"><title>Node1</title>
<polygon fill="#bfbfbf" stroke="black" points="24,-0.5 24,-19.5 120,-19.5 120,-0.5 24,-0.5"/>
<text text-anchor="middle" x="72" y="-7.5" font-family="Helvetica,sans-Serif" font-size="10.00">SimpleController</text>
</g>
<!-- Node2 -->
<g id="node2" class="node"><title>Node2</title>
<g id="a_node2"><a xlink:href="../../d8/d87/class_controller.html" target="_top" xlink:title="Controller">
<polygon fill="white" stroke="black" points="40.5,-58.5 40.5,-77.5 103.5,-77.5 103.5,-58.5 40.5,-58.5"/>
<text text-anchor="middle" x="72" y="-65.5" font-family="Helvetica,sans-Serif" font-size="10.00">Controller</text>
</a>
</g>
</g>
<!-- Node2&#45;&gt;Node1 -->
<g id="edge1" class="edge"><title>Node2&#45;&gt;Node1</title>
<path fill="none" stroke="midnightblue" d="M72,-47.953C72,-38.2875 72,-27.0312 72,-19.5052"/>
<polygon fill="midnightblue" stroke="midnightblue" points="68.5001,-48.25 72,-58.25 75.5001,-48.25 68.5001,-48.25"/>
</g>
<!-- Node3 -->
<g id="node3" class="node"><title>Node3</title>
<g id="a_node3"><a xlink:href="../../dd/ddd/class_neighbor.html" target="_top" xlink:title="Neighbor">
<polygon fill="white" stroke="black" points="0,-126.5 0,-145.5 60,-145.5 60,-126.5 0,-126.5"/>
<text text-anchor="middle" x="30" y="-133.5" font-family="Helvetica,sans-Serif" font-size="10.00">Neighbor</text>
</a>
</g>
</g>
<!-- Node3&#45;&gt;Node2 -->
<g id="edge2" class="edge"><title>Node3&#45;&gt;Node2</title>
<path fill="none" stroke="#9a32cd" stroke-dasharray="5,2" d="M27.0038,-116.042C26.8181,-109.344 27.671,-101.993 31,-96 35.4697,-87.9534 43.4652,-81.8907 51.2161,-77.5701"/>
<polygon fill="#9a32cd" stroke="#9a32cd" points="23.5568,-116.745 28.0429,-126.343 30.5215,-116.042 23.5568,-116.745"/>
<text text-anchor="middle" x="62" y="-99.5" font-family="Helvetica,sans-Serif" font-size="10.00"> myNeighbor</text>
</g>
<!-- Node4 -->
<g id="node4" class="node"><title>Node4</title>
<g id="a_node4"><a xlink:href="../../d5/dda/class_boundary.html" target="_top" xlink:title="Boundary">
<polygon fill="white" stroke="black" points="84,-126.5 84,-145.5 146,-145.5 146,-126.5 84,-126.5"/>
<text text-anchor="middle" x="115" y="-133.5" font-family="Helvetica,sans-Serif" font-size="10.00">Boundary</text>
</a>
</g>
</g>
<!-- Node4&#45;&gt;Node2 -->
<g id="edge3" class="edge"><title>Node4&#45;&gt;Node2</title>
<path fill="none" stroke="#9a32cd" stroke-dasharray="5,2" d="M105.768,-117.356C102.021,-110.549 97.5151,-102.783 93,-96 88.7879,-89.6726 83.5379,-82.9226 79.3409,-77.7544"/>
<polygon fill="#9a32cd" stroke="#9a32cd" points="102.817,-119.259 110.628,-126.417 108.986,-115.951 102.817,-119.259"/>
<text text-anchor="middle" x="132" y="-99.5" font-family="Helvetica,sans-Serif" font-size="10.00"> myBoundary</text>
</g>
</g>
</svg>
