<?xml version="1.0" encoding="UTF-8" standalone="no"?>
<!DOCTYPE svg PUBLIC "-//W3C//DTD SVG 1.1//EN"
 "http://www.w3.org/Graphics/SVG/1.1/DTD/svg11.dtd">
<!-- Generated by graphviz version 2.36.0 (20140111.2315)
 -->
<!-- Title: CellSocietyView.updateSimGrid Pages: 1 -->
<svg width="1208pt" height="125pt"
 viewBox="0.00 0.00 1208.00 125.18" xmlns="http://www.w3.org/2000/svg" xmlns:xlink="http://www.w3.org/1999/xlink">
<g id="graph0" class="graph" transform="scale(1 1) rotate(0) translate(4 121.177)">
<title>CellSocietyView.updateSimGrid</title>
<polygon fill="white" stroke="none" points="-4,4 -4,-121.177 1204,-121.177 1204,4 -4,4"/>
<!-- Node1 -->
<g id="node1" class="node"><title>Node1</title>
<polygon fill="#bfbfbf" stroke="black" points="0.5,-68.6775 0.5,-87.6775 165.5,-87.6775 165.5,-68.6775 0.5,-68.6775"/>
<text text-anchor="middle" x="83" y="-75.6775" font-family="Helvetica,sans-Serif" font-size="10.00">CellSocietyView.updateSimGrid</text>
</g>
<!-- Node2 -->
<g id="node2" class="node"><title>Node2</title>
<g id="a_node2"><a xlink:href="../../d3/dff/class_cell_society.html#af9f22af39a97a58b26126020ca6c8844" target="_top" xlink:title="CellSociety.readNewXML">
<polygon fill="white" stroke="black" points="696,-97.6775 696,-116.677 828,-116.677 828,-97.6775 696,-97.6775"/>
<text text-anchor="middle" x="762" y="-104.677" font-family="Helvetica,sans-Serif" font-size="10.00">CellSociety.readNewXML</text>
</a>
</g>
</g>
<!-- Node1&#45;&gt;Node2 -->
<g id="edge1" class="edge"><title>Node1&#45;&gt;Node2</title>
<path fill="none" stroke="midnightblue" d="M175.853,-82.1121C314.682,-88.059 574.581,-99.192 695.727,-104.381"/>
<polygon fill="midnightblue" stroke="midnightblue" points="175.803,-78.6068 165.662,-81.6756 175.503,-85.6004 175.803,-78.6068"/>
</g>
<!-- Node5 -->
<g id="node5" class="node"><title>Node5</title>
<g id="a_node5"><a xlink:href="../../d3/dff/class_cell_society.html#a0ff19c30a1cc433d8ea8444f6a5617f1" target="_top" xlink:title="CellSociety.updateGrid">
<polygon fill="white" stroke="black" points="202,-40.6775 202,-59.6775 326,-59.6775 326,-40.6775 202,-40.6775"/>
<text text-anchor="middle" x="264" y="-47.6775" font-family="Helvetica,sans-Serif" font-size="10.00">CellSociety.updateGrid</text>
</a>
</g>
</g>
<!-- Node1&#45;&gt;Node5 -->
<g id="edge4" class="edge"><title>Node1&#45;&gt;Node5</title>
<path fill="none" stroke="midnightblue" d="M154.949,-67.0793C170.52,-64.6436 186.874,-62.0854 202.013,-59.7173"/>
<polygon fill="midnightblue" stroke="midnightblue" points="154.19,-63.6554 144.851,-68.6589 155.272,-70.5713 154.19,-63.6554"/>
</g>
<!-- Node3 -->
<g id="node3" class="node"><title>Node3</title>
<g id="a_node3"><a xlink:href="../../d3/dff/class_cell_society.html#a656ff46d1459fb7f86b42e3c542506ee" target="_top" xlink:title="CellSociety.configureListeners">
<polygon fill="white" stroke="black" points="882,-40.6775 882,-59.6775 1040,-59.6775 1040,-40.6775 882,-40.6775"/>
<text text-anchor="middle" x="961" y="-47.6775" font-family="Helvetica,sans-Serif" font-size="10.00">CellSociety.configureListeners</text>
</a>
</g>
</g>
<!-- Node2&#45;&gt;Node3 -->
<g id="edge2" class="edge"><title>Node2&#45;&gt;Node3</title>
<path fill="none" stroke="midnightblue" d="M818.362,-95.2893C827.628,-93.075 837.115,-90.6689 846,-88.1775 876.332,-79.6719 910.544,-67.9795 933.506,-59.8189"/>
<polygon fill="midnightblue" stroke="midnightblue" points="817.371,-91.9263 808.431,-97.6116 818.965,-98.7424 817.371,-91.9263"/>
</g>
<!-- Node4 -->
<g id="node4" class="node"><title>Node4</title>
<g id="a_node4"><a xlink:href="../../d3/dff/class_cell_society.html#ac5e08680a3da358d402461bc25aa1727" target="_top" xlink:title="CellSociety.CellSociety">
<polygon fill="white" stroke="black" points="1076.5,-40.6775 1076.5,-59.6775 1199.5,-59.6775 1199.5,-40.6775 1076.5,-40.6775"/>
<text text-anchor="middle" x="1138" y="-47.6775" font-family="Helvetica,sans-Serif" font-size="10.00">CellSociety.CellSociety</text>
</a>
</g>
</g>
<!-- Node3&#45;&gt;Node4 -->
<g id="edge3" class="edge"><title>Node3&#45;&gt;Node4</title>
<path fill="none" stroke="midnightblue" d="M1050.09,-50.1775C1059.01,-50.1775 1067.92,-50.1775 1076.45,-50.1775"/>
<polygon fill="midnightblue" stroke="midnightblue" points="1050.03,-46.6776 1040.03,-50.1775 1050.03,-53.6776 1050.03,-46.6776"/>
</g>
<!-- Node5&#45;&gt;Node3 -->
<g id="edge5" class="edge"><title>Node5&#45;&gt;Node3</title>
<path fill="none" stroke="midnightblue" d="M318.527,-38.6742C421.405,-18.3284 653.599,19.045 846,-12.1775 879.155,-17.5577 915.696,-31.2005 938.252,-40.5851"/>
<polygon fill="midnightblue" stroke="midnightblue" points="317.803,-35.2497 308.686,-40.647 319.179,-42.1131 317.803,-35.2497"/>
</g>
<!-- Node6 -->
<g id="node6" class="node"><title>Node6</title>
<g id="a_node6"><a xlink:href="../../d3/dff/class_cell_society.html#abf13a64ee79f2cb063447b499c695c58" target="_top" xlink:title="CellSociety.start">
<polygon fill="white" stroke="black" points="362.5,-40.6775 362.5,-59.6775 455.5,-59.6775 455.5,-40.6775 362.5,-40.6775"/>
<text text-anchor="middle" x="409" y="-47.6775" font-family="Helvetica,sans-Serif" font-size="10.00">CellSociety.start</text>
</a>
</g>
</g>
<!-- Node5&#45;&gt;Node6 -->
<g id="edge6" class="edge"><title>Node5&#45;&gt;Node6</title>
<path fill="none" stroke="midnightblue" d="M336.086,-50.1775C344.995,-50.1775 353.914,-50.1775 362.287,-50.1775"/>
<polygon fill="midnightblue" stroke="midnightblue" points="336.06,-46.6776 326.06,-50.1775 336.06,-53.6776 336.06,-46.6776"/>
</g>
<!-- Node7 -->
<g id="node7" class="node"><title>Node7</title>
<g id="a_node7"><a xlink:href="../../d3/dff/class_cell_society.html#adc5feda3db5472cea4e092d463681033" target="_top" xlink:title="CellSociety.reframeTimeline">
<polygon fill="white" stroke="black" points="492.5,-21.6775 492.5,-40.6775 641.5,-40.6775 641.5,-21.6775 492.5,-21.6775"/>
<text text-anchor="middle" x="567" y="-28.6775" font-family="Helvetica,sans-Serif" font-size="10.00">CellSociety.reframeTimeline</text>
</a>
</g>
</g>
<!-- Node6&#45;&gt;Node7 -->
<g id="edge7" class="edge"><title>Node6&#45;&gt;Node7</title>
<path fill="none" stroke="midnightblue" d="M465.497,-43.4182C474.162,-42.3629 483.231,-41.2583 492.226,-40.1628"/>
<polygon fill="midnightblue" stroke="midnightblue" points="465.044,-39.9474 455.541,-44.6308 465.891,-46.896 465.044,-39.9474"/>
</g>
<!-- Node10 -->
<g id="node10" class="node"><title>Node10</title>
<g id="a_node10"><a xlink:href="../../d3/dff/class_cell_society.html#ab9e56a2a70e210e021b51e898508329b" target="_top" xlink:title="CellSociety.setupAnimation">
<polygon fill="white" stroke="black" points="494,-59.6775 494,-78.6775 640,-78.6775 640,-59.6775 494,-59.6775"/>
<text text-anchor="middle" x="567" y="-66.6775" font-family="Helvetica,sans-Serif" font-size="10.00">CellSociety.setupAnimation</text>
</a>
</g>
</g>
<!-- Node6&#45;&gt;Node10 -->
<g id="edge12" class="edge"><title>Node6&#45;&gt;Node10</title>
<path fill="none" stroke="midnightblue" d="M465.678,-56.9588C474.854,-58.0763 484.479,-59.2486 493.984,-60.4064"/>
<polygon fill="midnightblue" stroke="midnightblue" points="465.891,-53.4589 455.541,-55.7242 465.044,-60.4076 465.891,-53.4589"/>
</g>
<!-- Node8 -->
<g id="node8" class="node"><title>Node8</title>
<g id="a_node8"><a xlink:href="../../d3/dff/class_cell_society.html#a045267ba1843ca4a47891d7be73c2ac1" target="_top" xlink:title="CellSociety.decreaseFrameRate">
<polygon fill="white" stroke="black" points="678.5,-59.6775 678.5,-78.6775 845.5,-78.6775 845.5,-59.6775 678.5,-59.6775"/>
<text text-anchor="middle" x="762" y="-66.6775" font-family="Helvetica,sans-Serif" font-size="10.00">CellSociety.decreaseFrameRate</text>
</a>
</g>
</g>
<!-- Node7&#45;&gt;Node8 -->
<g id="edge8" class="edge"><title>Node7&#45;&gt;Node8</title>
<path fill="none" stroke="midnightblue" d="M626.602,-42.7156C654.129,-48.1355 686.548,-54.5185 712.648,-59.6574"/>
<polygon fill="midnightblue" stroke="midnightblue" points="627.19,-39.2643 616.702,-40.7665 625.838,-46.1325 627.19,-39.2643"/>
</g>
<!-- Node9 -->
<g id="node9" class="node"><title>Node9</title>
<g id="a_node9"><a xlink:href="../../d3/dff/class_cell_society.html#a8250bfacdaf51dabf6b9d1cafc0ce9b2" target="_top" xlink:title="CellSociety.increaseFrameRate">
<polygon fill="white" stroke="black" points="680.5,-21.6775 680.5,-40.6775 843.5,-40.6775 843.5,-21.6775 680.5,-21.6775"/>
<text text-anchor="middle" x="762" y="-28.6775" font-family="Helvetica,sans-Serif" font-size="10.00">CellSociety.increaseFrameRate</text>
</a>
</g>
</g>
<!-- Node7&#45;&gt;Node9 -->
<g id="edge10" class="edge"><title>Node7&#45;&gt;Node9</title>
<path fill="none" stroke="midnightblue" d="M651.719,-31.1775C661.198,-31.1775 670.845,-31.1775 680.285,-31.1775"/>
<polygon fill="midnightblue" stroke="midnightblue" points="651.516,-27.6776 641.516,-31.1775 651.516,-34.6776 651.516,-27.6776"/>
</g>
<!-- Node8&#45;&gt;Node3 -->
<g id="edge9" class="edge"><title>Node8&#45;&gt;Node3</title>
<path fill="none" stroke="midnightblue" d="M855.877,-60.2198C864.593,-59.3792 873.368,-58.5329 881.927,-57.7074"/>
<polygon fill="midnightblue" stroke="midnightblue" points="855.307,-56.7584 845.689,-61.2024 855.979,-63.7261 855.307,-56.7584"/>
</g>
<!-- Node9&#45;&gt;Node3 -->
<g id="edge11" class="edge"><title>Node9&#45;&gt;Node3</title>
<path fill="none" stroke="midnightblue" d="M853.842,-39.9389C863.24,-40.8453 872.733,-41.7608 881.974,-42.6521"/>
<polygon fill="midnightblue" stroke="midnightblue" points="853.986,-36.4366 843.696,-38.9603 853.314,-43.4043 853.986,-36.4366"/>
</g>
<!-- Node10&#45;&gt;Node2 -->
<g id="edge13" class="edge"><title>Node10&#45;&gt;Node2</title>
<path fill="none" stroke="midnightblue" d="M626.602,-80.7156C654.129,-86.1355 686.548,-92.5185 712.648,-97.6574"/>
<polygon fill="midnightblue" stroke="midnightblue" points="627.19,-77.2643 616.702,-78.7665 625.838,-84.1325 627.19,-77.2643"/>
</g>
</g>
</svg>
