<?xml version="1.0" encoding="UTF-8" standalone="no"?>
<!DOCTYPE svg PUBLIC "-//W3C//DTD SVG 1.1//EN"
 "http://www.w3.org/Graphics/SVG/1.1/DTD/svg11.dtd">
<!-- Generated by graphviz version 2.36.0 (20140111.2315)
 -->
<!-- Title: CellSocietyView.getSpeedupElement Pages: 1 -->
<svg width="514pt" height="38pt"
 viewBox="0.00 0.00 514.00 38.00" xmlns="http://www.w3.org/2000/svg" xmlns:xlink="http://www.w3.org/1999/xlink">
<g id="graph0" class="graph" transform="scale(1 1) rotate(0) translate(4 34)">
<title>CellSocietyView.getSpeedupElement</title>
<polygon fill="white" stroke="none" points="-4,4 -4,-34 510,-34 510,4 -4,4"/>
<!-- Node1 -->
<g id="node1" class="node"><title>Node1</title>
<polygon fill="#bfbfbf" stroke="black" points="0,-0 0,-30 152,-30 152,-0 0,-0"/>
<text text-anchor="start" x="8" y="-18" font-family="Helvetica,sans-Serif" font-size="10.00">CellSocietyView.getSpeedup</text>
<text text-anchor="middle" x="76" y="-7" font-family="Helvetica,sans-Serif" font-size="10.00">Element</text>
</g>
<!-- Node2 -->
<g id="node2" class="node"><title>Node2</title>
<g id="a_node2"><a xlink:href="../../d3/dff/class_cell_society.html#a656ff46d1459fb7f86b42e3c542506ee" target="_top" xlink:title="CellSociety.configureListeners">
<polygon fill="white" stroke="black" points="188,-5.5 188,-24.5 346,-24.5 346,-5.5 188,-5.5"/>
<text text-anchor="middle" x="267" y="-12.5" font-family="Helvetica,sans-Serif" font-size="10.00">CellSociety.configureListeners</text>
</a>
</g>
</g>
<!-- Node1&#45;&gt;Node2 -->
<g id="edge1" class="edge"><title>Node1&#45;&gt;Node2</title>
<path fill="none" stroke="midnightblue" d="M162.503,-15C170.97,-15 179.535,-15 187.922,-15"/>
<polygon fill="midnightblue" stroke="midnightblue" points="162.241,-11.5001 152.241,-15 162.241,-18.5001 162.241,-11.5001"/>
</g>
<!-- Node3 -->
<g id="node3" class="node"><title>Node3</title>
<g id="a_node3"><a xlink:href="../../d3/dff/class_cell_society.html#ac5e08680a3da358d402461bc25aa1727" target="_top" xlink:title="CellSociety.CellSociety">
<polygon fill="white" stroke="black" points="382.5,-5.5 382.5,-24.5 505.5,-24.5 505.5,-5.5 382.5,-5.5"/>
<text text-anchor="middle" x="444" y="-12.5" font-family="Helvetica,sans-Serif" font-size="10.00">CellSociety.CellSociety</text>
</a>
</g>
</g>
<!-- Node2&#45;&gt;Node3 -->
<g id="edge2" class="edge"><title>Node2&#45;&gt;Node3</title>
<path fill="none" stroke="midnightblue" d="M356.087,-15C365.007,-15 373.919,-15 382.452,-15"/>
<polygon fill="midnightblue" stroke="midnightblue" points="356.032,-11.5001 346.032,-15 356.032,-18.5001 356.032,-11.5001"/>
</g>
</g>
</svg>
