<?xml version="1.0" encoding="UTF-8" standalone="no"?>
<!DOCTYPE svg PUBLIC "-//W3C//DTD SVG 1.1//EN"
 "http://www.w3.org/Graphics/SVG/1.1/DTD/svg11.dtd">
<!-- Generated by graphviz version 2.36.0 (20140111.2315)
 -->
<!-- Title: CellSocietyView.displayFrameRate Pages: 1 -->
<!--zoomable 104 -->
<svg id="main" version="1.1" xmlns="http://www.w3.org/2000/svg" xmlns:xlink="http://www.w3.org/1999/xlink" xml:space="preserve" onload="init(evt)">
<style type="text/css"><![CDATA[
.edge:hover path { stroke: red; }
.edge:hover polygon { stroke: red; fill: red; }
]]></style>
<script type="text/javascript"><![CDATA[
var edges = document.getElementsByTagName('g');
if (edges && edges.length) {
  for (var i=0;i<edges.length;i++) {
    if (edges[i].id.substr(0,4)=='edge') {
      edges[i].setAttribute('class','edge');
    }
  }
}
]]></script>
        <defs>
                <circle id="rim" cx="0" cy="0" r="7"/>
                <circle id="rim2" cx="0" cy="0" r="3.5"/>
                <g id="zoomPlus">
                        <use xlink:href="#rim" fill="#404040">
                                <set attributeName="fill" to="#808080" begin="zoomplus.mouseover" end="zoomplus.mouseout"/>
                        </use>
                        <path d="M-4,0h8M0,-4v8" fill="none" stroke="white" stroke-width="1.5" pointer-events="none"/>
                </g>
                <g id="zoomMin">
                        <use xlink:href="#rim" fill="#404040">
                                <set attributeName="fill" to="#808080" begin="zoomminus.mouseover" end="zoomminus.mouseout"/>
                        </use>
                        <path d="M-4,0h8" fill="none" stroke="white" stroke-width="1.5" pointer-events="none"/>
                </g>
                <g id="dirArrow">
                        <path fill="none" stroke="white" stroke-width="1.5" d="M0,-3.0v7 M-2.5,-0.5L0,-3.0L2.5,-0.5"/>
                </g>
               <g id="resetDef">
                       <use xlink:href="#rim2" fill="#404040">
                               <set attributeName="fill" to="#808080" begin="reset.mouseover" end="reset.mouseout"/>
                       </use>
               </g>
        </defs>

<script type="text/javascript">
var viewWidth = 930;
var viewHeight = 104;
var sectionId = 'dynsection-10';
</script>
<script xlink:href="../../svgpan.js"/>
<svg id="graph" class="graph">
<g id="viewport">
<title>CellSocietyView.displayFrameRate</title>
<polygon fill="white" stroke="none" points="-4,4 -4,-100 926,-100 926,4 -4,4"/>
<!-- Node1 -->
<g id="node1" class="node"><title>Node1</title>
<polygon fill="#bfbfbf" stroke="black" points="0,-57.5 0,-76.5 178,-76.5 178,-57.5 0,-57.5"/>
<text text-anchor="middle" x="89" y="-64.5" font-family="Helvetica,sans-Serif" font-size="10.00">CellSocietyView.displayFrameRate</text>
</g>
<!-- Node2 -->
<g id="node2" class="node"><title>Node2</title>
<g id="a_node2"><a xlink:href="../../d3/dff/class_cell_society.html#af9f22af39a97a58b26126020ca6c8844" target="_top" xlink:title="CellSociety.readNewXML">
<polygon fill="white" stroke="black" points="223,-76.5 223,-95.5 355,-95.5 355,-76.5 223,-76.5"/>
<text text-anchor="middle" x="289" y="-83.5" font-family="Helvetica,sans-Serif" font-size="10.00">CellSociety.readNewXML</text>
</a>
</g>
</g>
<!-- Node1&#45;&gt;Node2 -->
<g id="edge1" class="edge"><title>Node1&#45;&gt;Node2</title>
<path fill="none" stroke="midnightblue" d="M188.485,-76.4506C200.111,-77.5662 211.747,-78.6828 222.75,-79.7386"/>
<polygon fill="midnightblue" stroke="midnightblue" points="188.576,-72.9433 178.287,-75.472 187.907,-79.9113 188.576,-72.9433"/>
</g>
<!-- Node5 -->
<g id="node5" class="node"><title>Node5</title>
<g id="a_node5"><a xlink:href="../../d3/dff/class_cell_society.html#adc5feda3db5472cea4e092d463681033" target="_top" xlink:title="CellSociety.reframeTimeline">
<polygon fill="white" stroke="black" points="214.5,-38.5 214.5,-57.5 363.5,-57.5 363.5,-38.5 214.5,-38.5"/>
<text text-anchor="middle" x="289" y="-45.5" font-family="Helvetica,sans-Serif" font-size="10.00">CellSociety.reframeTimeline</text>
</a>
</g>
</g>
<!-- Node1&#45;&gt;Node5 -->
<g id="edge4" class="edge"><title>Node1&#45;&gt;Node5</title>
<path fill="none" stroke="midnightblue" d="M188.502,-57.5478C197.22,-56.7112 205.943,-55.8742 214.4,-55.0626"/>
<polygon fill="midnightblue" stroke="midnightblue" points="187.907,-54.0887 178.287,-58.528 188.576,-61.0567 187.907,-54.0887"/>
</g>
<!-- Node3 -->
<g id="node3" class="node"><title>Node3</title>
<g id="a_node3"><a xlink:href="../../d3/dff/class_cell_society.html#a656ff46d1459fb7f86b42e3c542506ee" target="_top" xlink:title="CellSociety.configureListeners">
<polygon fill="white" stroke="black" points="604,-38.5 604,-57.5 762,-57.5 762,-38.5 604,-38.5"/>
<text text-anchor="middle" x="683" y="-45.5" font-family="Helvetica,sans-Serif" font-size="10.00">CellSociety.configureListeners</text>
</a>
</g>
</g>
<!-- Node2&#45;&gt;Node3 -->
<g id="edge2" class="edge"><title>Node2&#45;&gt;Node3</title>
<path fill="none" stroke="midnightblue" d="M365.239,-82.8337C421.274,-79.9963 499.586,-75.0199 568,-67 588.825,-64.5588 611.644,-60.9446 631.359,-57.5219"/>
<polygon fill="midnightblue" stroke="midnightblue" points="364.857,-79.3483 355.043,-83.3389 365.204,-86.3397 364.857,-79.3483"/>
</g>
<!-- Node4 -->
<g id="node4" class="node"><title>Node4</title>
<g id="a_node4"><a xlink:href="../../d3/dff/class_cell_society.html#ac5e08680a3da358d402461bc25aa1727" target="_top" xlink:title="CellSociety.CellSociety">
<polygon fill="white" stroke="black" points="798.5,-38.5 798.5,-57.5 921.5,-57.5 921.5,-38.5 798.5,-38.5"/>
<text text-anchor="middle" x="860" y="-45.5" font-family="Helvetica,sans-Serif" font-size="10.00">CellSociety.CellSociety</text>
</a>
</g>
</g>
<!-- Node3&#45;&gt;Node4 -->
<g id="edge3" class="edge"><title>Node3&#45;&gt;Node4</title>
<path fill="none" stroke="midnightblue" d="M772.087,-48C781.007,-48 789.919,-48 798.452,-48"/>
<polygon fill="midnightblue" stroke="midnightblue" points="772.032,-44.5001 762.032,-48 772.032,-51.5001 772.032,-44.5001"/>
</g>
<!-- Node6 -->
<g id="node6" class="node"><title>Node6</title>
<g id="a_node6"><a xlink:href="../../d3/dff/class_cell_society.html#a045267ba1843ca4a47891d7be73c2ac1" target="_top" xlink:title="CellSociety.decreaseFrameRate">
<polygon fill="white" stroke="black" points="400.5,-38.5 400.5,-57.5 567.5,-57.5 567.5,-38.5 400.5,-38.5"/>
<text text-anchor="middle" x="484" y="-45.5" font-family="Helvetica,sans-Serif" font-size="10.00">CellSociety.decreaseFrameRate</text>
</a>
</g>
</g>
<!-- Node5&#45;&gt;Node6 -->
<g id="edge5" class="edge"><title>Node5&#45;&gt;Node6</title>
<path fill="none" stroke="midnightblue" d="M373.774,-48C382.585,-48 391.54,-48 400.338,-48"/>
<polygon fill="midnightblue" stroke="midnightblue" points="373.516,-44.5001 363.516,-48 373.516,-51.5001 373.516,-44.5001"/>
</g>
<!-- Node7 -->
<g id="node7" class="node"><title>Node7</title>
<g id="a_node7"><a xlink:href="../../d3/dff/class_cell_society.html#a8250bfacdaf51dabf6b9d1cafc0ce9b2" target="_top" xlink:title="CellSociety.increaseFrameRate">
<polygon fill="white" stroke="black" points="402.5,-0.5 402.5,-19.5 565.5,-19.5 565.5,-0.5 402.5,-0.5"/>
<text text-anchor="middle" x="484" y="-7.5" font-family="Helvetica,sans-Serif" font-size="10.00">CellSociety.increaseFrameRate</text>
</a>
</g>
</g>
<!-- Node5&#45;&gt;Node7 -->
<g id="edge7" class="edge"><title>Node5&#45;&gt;Node7</title>
<path fill="none" stroke="midnightblue" d="M348.602,-36.4619C376.129,-31.042 408.548,-24.659 434.648,-19.5201"/>
<polygon fill="midnightblue" stroke="midnightblue" points="347.838,-33.045 338.702,-38.411 349.19,-39.9132 347.838,-33.045"/>
</g>
<!-- Node6&#45;&gt;Node3 -->
<g id="edge6" class="edge"><title>Node6&#45;&gt;Node3</title>
<path fill="none" stroke="midnightblue" d="M577.877,-48C586.593,-48 595.368,-48 603.927,-48"/>
<polygon fill="midnightblue" stroke="midnightblue" points="577.69,-44.5001 567.689,-48 577.689,-51.5001 577.69,-44.5001"/>
</g>
<!-- Node7&#45;&gt;Node3 -->
<g id="edge8" class="edge"><title>Node7&#45;&gt;Node3</title>
<path fill="none" stroke="midnightblue" d="M544.564,-21.4894C572.672,-26.9114 605.822,-33.3058 632.523,-38.4561"/>
<polygon fill="midnightblue" stroke="midnightblue" points="544.939,-17.9974 534.457,-19.54 543.613,-24.8707 544.939,-17.9974"/>
</g>
</g>
</svg>
        <g id="navigator" transform="translate(0 0)" fill="#404254">
                <rect fill="#f2f5e9" fill-opacity="0.5" stroke="#606060" stroke-width=".5" x="0" y="0" width="60" height="60"/>
                <use id="zoomplus" xlink:href="#zoomPlus" x="17" y="9" onmousedown="handleZoom(evt,'in')"/>
                <use id="zoomminus" xlink:href="#zoomMin" x="42" y="9" onmousedown="handleZoom(evt,'out')"/>
                <use id="reset" xlink:href="#resetDef" x="30" y="36" onmousedown="handleReset()"/>
                <g id="arrowUp" xlink:href="#dirArrow" transform="translate(30 24)" onmousedown="handlePan(0,-1)">
                  <use xlink:href="#rim" fill="#404040">
                        <set attributeName="fill" to="#808080" begin="arrowUp.mouseover" end="arrowUp.mouseout"/>
                  </use>
                  <path fill="none" stroke="white" stroke-width="1.5" d="M0,-3.0v7 M-2.5,-0.5L0,-3.0L2.5,-0.5"/>
                </g>
                <g id="arrowRight" xlink:href="#dirArrow" transform="rotate(90) translate(36 -43)" onmousedown="handlePan(1,0)">
                  <use xlink:href="#rim" fill="#404040">
                        <set attributeName="fill" to="#808080" begin="arrowRight.mouseover" end="arrowRight.mouseout"/>
                  </use>
                  <path fill="none" stroke="white" stroke-width="1.5" d="M0,-3.0v7 M-2.5,-0.5L0,-3.0L2.5,-0.5"/>
                </g>
                <g id="arrowDown" xlink:href="#dirArrow" transform="rotate(180) translate(-30 -48)" onmousedown="handlePan(0,1)">
                  <use xlink:href="#rim" fill="#404040">
                        <set attributeName="fill" to="#808080" begin="arrowDown.mouseover" end="arrowDown.mouseout"/>
                  </use>
                  <path fill="none" stroke="white" stroke-width="1.5" d="M0,-3.0v7 M-2.5,-0.5L0,-3.0L2.5,-0.5"/>
                </g>
                <g id="arrowLeft" xlink:href="#dirArrow" transform="rotate(270) translate(-36 17)" onmousedown="handlePan(-1,0)">
                  <use xlink:href="#rim" fill="#404040">
                        <set attributeName="fill" to="#808080" begin="arrowLeft.mouseover" end="arrowLeft.mouseout"/>
                  </use>
                  <path fill="none" stroke="white" stroke-width="1.5" d="M0,-3.0v7 M-2.5,-0.5L0,-3.0L2.5,-0.5"/>
                </g>
        </g>
        <svg viewBox="0 0 15 15" width="100%" height="30px" preserveAspectRatio="xMaxYMin meet">
         <g id="arrow_out" transform="scale(0.3 0.3)">
          <a xlink:href="class_cell_society_view_a99eb733c00ed7c1bcba8f2d684791a09_icgraph_org.svg" target="_base">
           <rect id="button" ry="5" rx="5" y="6" x="6" height="38" width="38"
                fill="#f2f5e9" fill-opacity="0.5" stroke="#606060" stroke-width="1.0"/>
           <path id="arrow"
             d="M 11.500037,31.436501 C 11.940474,20.09759 22.043105,11.32322 32.158766,21.979434 L 37.068811,17.246167 C 37.068811,17.246167 37.088388,32 37.088388,32 L 22.160133,31.978069 C 22.160133,31.978069 26.997745,27.140456 26.997745,27.140456 C 18.528582,18.264221 13.291696,25.230495 11.500037,31.436501 z"
             style="fill:#404040;"/>
          </a>
         </g>
        </svg>
</svg>
