<?xml version="1.0" encoding="UTF-8" standalone="no"?>
<!DOCTYPE svg PUBLIC "-//W3C//DTD SVG 1.1//EN"
 "http://www.w3.org/Graphics/SVG/1.1/DTD/svg11.dtd">
<!-- Generated by graphviz version 2.36.0 (20140111.2315)
 -->
<!-- Title: CellSocietyView.configureUI Pages: 1 -->
<!--zoomable 273 -->
<svg id="main" version="1.1" xmlns="http://www.w3.org/2000/svg" xmlns:xlink="http://www.w3.org/1999/xlink" xml:space="preserve" onload="init(evt)">
<style type="text/css"><![CDATA[
.edge:hover path { stroke: red; }
.edge:hover polygon { stroke: red; fill: red; }
]]></style>
<script type="text/javascript"><![CDATA[
var edges = document.getElementsByTagName('g');
if (edges && edges.length) {
  for (var i=0;i<edges.length;i++) {
    if (edges[i].id.substr(0,4)=='edge') {
      edges[i].setAttribute('class','edge');
    }
  }
}
]]></script>
        <defs>
                <circle id="rim" cx="0" cy="0" r="7"/>
                <circle id="rim2" cx="0" cy="0" r="3.5"/>
                <g id="zoomPlus">
                        <use xlink:href="#rim" fill="#404040">
                                <set attributeName="fill" to="#808080" begin="zoomplus.mouseover" end="zoomplus.mouseout"/>
                        </use>
                        <path d="M-4,0h8M0,-4v8" fill="none" stroke="white" stroke-width="1.5" pointer-events="none"/>
                </g>
                <g id="zoomMin">
                        <use xlink:href="#rim" fill="#404040">
                                <set attributeName="fill" to="#808080" begin="zoomminus.mouseover" end="zoomminus.mouseout"/>
                        </use>
                        <path d="M-4,0h8" fill="none" stroke="white" stroke-width="1.5" pointer-events="none"/>
                </g>
                <g id="dirArrow">
                        <path fill="none" stroke="white" stroke-width="1.5" d="M0,-3.0v7 M-2.5,-0.5L0,-3.0L2.5,-0.5"/>
                </g>
               <g id="resetDef">
                       <use xlink:href="#rim2" fill="#404040">
                               <set attributeName="fill" to="#808080" begin="reset.mouseover" end="reset.mouseout"/>
                       </use>
               </g>
        </defs>

<script type="text/javascript">
var viewWidth = 538;
var viewHeight = 273;
var sectionId = 'dynsection-2';
</script>
<script xlink:href="../../svgpan.js"/>
<svg id="graph" class="graph">
<g id="viewport">
<title>CellSocietyView.configureUI</title>
<polygon fill="white" stroke="none" points="-4,4 -4,-269 534,-269 534,4 -4,4"/>
<!-- Node1 -->
<g id="node1" class="node"><title>Node1</title>
<polygon fill="#bfbfbf" stroke="black" points="0.5,-127.5 0.5,-146.5 147.5,-146.5 147.5,-127.5 0.5,-127.5"/>
<text text-anchor="middle" x="74" y="-134.5" font-family="Helvetica,sans-Serif" font-size="10.00">CellSocietyView.configureUI</text>
</g>
<!-- Node2 -->
<g id="node2" class="node"><title>Node2</title>
<g id="a_node2"><a xlink:href="../../df/df8/class_cell_society_view.html#a591320c85d7b334d166bd59d9cdb6ecb" target="_top" xlink:title="CellSocietyView.createError\lLocation">
<polygon fill="white" stroke="black" points="196.5,-235 196.5,-265 343.5,-265 343.5,-235 196.5,-235"/>
<text text-anchor="start" x="204.5" y="-253" font-family="Helvetica,sans-Serif" font-size="10.00">CellSocietyView.createError</text>
<text text-anchor="middle" x="270" y="-242" font-family="Helvetica,sans-Serif" font-size="10.00">Location</text>
</a>
</g>
</g>
<!-- Node1&#45;&gt;Node2 -->
<g id="edge1" class="edge"><title>Node1&#45;&gt;Node2</title>
<path fill="none" stroke="midnightblue" d="M84.2757,-146.686C102.006,-164.664 142.637,-203.328 184,-225 188.288,-227.247 192.806,-229.318 197.432,-231.225"/>
<polygon fill="midnightblue" stroke="midnightblue" points="196.453,-234.598 207.043,-234.908 198.958,-228.061 196.453,-234.598"/>
</g>
<!-- Node3 -->
<g id="node3" class="node"><title>Node3</title>
<g id="a_node3"><a xlink:href="../../df/df8/class_cell_society_view.html#a330d0d6412aace5de81b9d27a0a1c62d" target="_top" xlink:title="CellSocietyView.createTitle">
<polygon fill="white" stroke="black" points="198.5,-196.5 198.5,-215.5 341.5,-215.5 341.5,-196.5 198.5,-196.5"/>
<text text-anchor="middle" x="270" y="-203.5" font-family="Helvetica,sans-Serif" font-size="10.00">CellSocietyView.createTitle</text>
</a>
</g>
</g>
<!-- Node1&#45;&gt;Node3 -->
<g id="edge2" class="edge"><title>Node1&#45;&gt;Node3</title>
<path fill="none" stroke="midnightblue" d="M93.464,-146.616C114.798,-157.415 151.185,-174.878 184,-186 192.751,-188.966 202.154,-191.654 211.402,-194.027"/>
<polygon fill="midnightblue" stroke="midnightblue" points="210.791,-197.481 221.338,-196.477 212.467,-190.685 210.791,-197.481"/>
</g>
<!-- Node5 -->
<g id="node5" class="node"><title>Node5</title>
<g id="a_node5"><a xlink:href="../../df/df8/class_cell_society_view.html#a93d717f320a90984d01aff041e5a867b" target="_top" xlink:title="CellSocietyView.initialize\lChart">
<polygon fill="white" stroke="black" points="204.5,-147 204.5,-177 335.5,-177 335.5,-147 204.5,-147"/>
<text text-anchor="start" x="212.5" y="-165" font-family="Helvetica,sans-Serif" font-size="10.00">CellSocietyView.initialize</text>
<text text-anchor="middle" x="270" y="-154" font-family="Helvetica,sans-Serif" font-size="10.00">Chart</text>
</a>
</g>
</g>
<!-- Node1&#45;&gt;Node5 -->
<g id="edge4" class="edge"><title>Node1&#45;&gt;Node5</title>
<path fill="none" stroke="midnightblue" d="M147.514,-146.345C162.788,-148.313 178.927,-150.393 194.28,-152.371"/>
<polygon fill="midnightblue" stroke="midnightblue" points="193.873,-155.848 204.238,-153.654 194.767,-148.905 193.873,-155.848"/>
</g>
<!-- Node6 -->
<g id="node6" class="node"><title>Node6</title>
<g id="a_node6"><a xlink:href="../../df/df8/class_cell_society_view.html#accc93b8d859185496ec792a1bad1616d" target="_top" xlink:title="CellSocietyView.makeFrame\lControlButtons">
<polygon fill="white" stroke="black" points="195,-98 195,-128 345,-128 345,-98 195,-98"/>
<text text-anchor="start" x="203" y="-116" font-family="Helvetica,sans-Serif" font-size="10.00">CellSocietyView.makeFrame</text>
<text text-anchor="middle" x="270" y="-105" font-family="Helvetica,sans-Serif" font-size="10.00">ControlButtons</text>
</a>
</g>
</g>
<!-- Node1&#45;&gt;Node6 -->
<g id="edge5" class="edge"><title>Node1&#45;&gt;Node6</title>
<path fill="none" stroke="midnightblue" d="M147.514,-128.029C159.743,-126.516 172.527,-124.935 185.018,-123.39"/>
<polygon fill="midnightblue" stroke="midnightblue" points="185.462,-126.861 194.956,-122.16 184.602,-119.914 185.462,-126.861"/>
</g>
<!-- Node7 -->
<g id="node7" class="node"><title>Node7</title>
<g id="a_node7"><a xlink:href="../../df/df8/class_cell_society_view.html#a5267d613dcd4adf7c93e6a6dc9f1cd26" target="_top" xlink:title="CellSocietyView.makeSimulation\lButtons">
<polygon fill="white" stroke="black" points="184.5,-49 184.5,-79 355.5,-79 355.5,-49 184.5,-49"/>
<text text-anchor="start" x="192.5" y="-67" font-family="Helvetica,sans-Serif" font-size="10.00">CellSocietyView.makeSimulation</text>
<text text-anchor="middle" x="270" y="-56" font-family="Helvetica,sans-Serif" font-size="10.00">Buttons</text>
</a>
</g>
</g>
<!-- Node1&#45;&gt;Node7 -->
<g id="edge6" class="edge"><title>Node1&#45;&gt;Node7</title>
<path fill="none" stroke="midnightblue" d="M94.7738,-127.369C116.374,-117.067 152.15,-100.642 184,-89 190.406,-86.6583 197.144,-84.3778 203.905,-82.2075"/>
<polygon fill="midnightblue" stroke="midnightblue" points="205.295,-85.4399 213.793,-79.1123 203.204,-78.7595 205.295,-85.4399"/>
</g>
<!-- Node8 -->
<g id="node8" class="node"><title>Node8</title>
<g id="a_node8"><a xlink:href="../../df/df8/class_cell_society_view.html#a3fe30cb4101a6ab480305dcf07daf95f" target="_top" xlink:title="CellSocietyView.makeSpeed\lDisplay">
<polygon fill="white" stroke="black" points="194.5,-0 194.5,-30 345.5,-30 345.5,-0 194.5,-0"/>
<text text-anchor="start" x="202.5" y="-18" font-family="Helvetica,sans-Serif" font-size="10.00">CellSocietyView.makeSpeed</text>
<text text-anchor="middle" x="270" y="-7" font-family="Helvetica,sans-Serif" font-size="10.00">Display</text>
</a>
</g>
</g>
<!-- Node1&#45;&gt;Node8 -->
<g id="edge7" class="edge"><title>Node1&#45;&gt;Node8</title>
<path fill="none" stroke="midnightblue" d="M83.0017,-127.483C99.7562,-108.153 140.587,-64.092 184,-40 187.966,-37.7993 192.145,-35.7739 196.437,-33.9127"/>
<polygon fill="midnightblue" stroke="midnightblue" points="197.989,-37.0615 205.972,-30.0958 195.388,-30.5628 197.989,-37.0615"/>
</g>
<!-- Node4 -->
<g id="node4" class="node"><title>Node4</title>
<g id="a_node4"><a xlink:href="../../df/df8/class_cell_society_view.html#a45365a3c2504cf68a47ee8abdfbbcdf1" target="_top" xlink:title="CellSocietyView.generate\lTitle">
<polygon fill="white" stroke="black" points="392.5,-191 392.5,-221 529.5,-221 529.5,-191 392.5,-191"/>
<text text-anchor="start" x="400.5" y="-209" font-family="Helvetica,sans-Serif" font-size="10.00">CellSocietyView.generate</text>
<text text-anchor="middle" x="461" y="-198" font-family="Helvetica,sans-Serif" font-size="10.00">Title</text>
</a>
</g>
</g>
<!-- Node3&#45;&gt;Node4 -->
<g id="edge3" class="edge"><title>Node3&#45;&gt;Node4</title>
<path fill="none" stroke="midnightblue" d="M341.645,-206C354.847,-206 368.712,-206 382.117,-206"/>
<polygon fill="midnightblue" stroke="midnightblue" points="382.26,-209.5 392.26,-206 382.26,-202.5 382.26,-209.5"/>
</g>
</g>
</svg>
        <g id="navigator" transform="translate(0 0)" fill="#404254">
                <rect fill="#f2f5e9" fill-opacity="0.5" stroke="#606060" stroke-width=".5" x="0" y="0" width="60" height="60"/>
                <use id="zoomplus" xlink:href="#zoomPlus" x="17" y="9" onmousedown="handleZoom(evt,'in')"/>
                <use id="zoomminus" xlink:href="#zoomMin" x="42" y="9" onmousedown="handleZoom(evt,'out')"/>
                <use id="reset" xlink:href="#resetDef" x="30" y="36" onmousedown="handleReset()"/>
                <g id="arrowUp" xlink:href="#dirArrow" transform="translate(30 24)" onmousedown="handlePan(0,-1)">
                  <use xlink:href="#rim" fill="#404040">
                        <set attributeName="fill" to="#808080" begin="arrowUp.mouseover" end="arrowUp.mouseout"/>
                  </use>
                  <path fill="none" stroke="white" stroke-width="1.5" d="M0,-3.0v7 M-2.5,-0.5L0,-3.0L2.5,-0.5"/>
                </g>
                <g id="arrowRight" xlink:href="#dirArrow" transform="rotate(90) translate(36 -43)" onmousedown="handlePan(1,0)">
                  <use xlink:href="#rim" fill="#404040">
                        <set attributeName="fill" to="#808080" begin="arrowRight.mouseover" end="arrowRight.mouseout"/>
                  </use>
                  <path fill="none" stroke="white" stroke-width="1.5" d="M0,-3.0v7 M-2.5,-0.5L0,-3.0L2.5,-0.5"/>
                </g>
                <g id="arrowDown" xlink:href="#dirArrow" transform="rotate(180) translate(-30 -48)" onmousedown="handlePan(0,1)">
                  <use xlink:href="#rim" fill="#404040">
                        <set attributeName="fill" to="#808080" begin="arrowDown.mouseover" end="arrowDown.mouseout"/>
                  </use>
                  <path fill="none" stroke="white" stroke-width="1.5" d="M0,-3.0v7 M-2.5,-0.5L0,-3.0L2.5,-0.5"/>
                </g>
                <g id="arrowLeft" xlink:href="#dirArrow" transform="rotate(270) translate(-36 17)" onmousedown="handlePan(-1,0)">
                  <use xlink:href="#rim" fill="#404040">
                        <set attributeName="fill" to="#808080" begin="arrowLeft.mouseover" end="arrowLeft.mouseout"/>
                  </use>
                  <path fill="none" stroke="white" stroke-width="1.5" d="M0,-3.0v7 M-2.5,-0.5L0,-3.0L2.5,-0.5"/>
                </g>
        </g>
        <svg viewBox="0 0 15 15" width="100%" height="30px" preserveAspectRatio="xMaxYMin meet">
         <g id="arrow_out" transform="scale(0.3 0.3)">
          <a xlink:href="class_cell_society_view_a5700799d24f6a9c1606d4d755468ee64_cgraph_org.svg" target="_base">
           <rect id="button" ry="5" rx="5" y="6" x="6" height="38" width="38"
                fill="#f2f5e9" fill-opacity="0.5" stroke="#606060" stroke-width="1.0"/>
           <path id="arrow"
             d="M 11.500037,31.436501 C 11.940474,20.09759 22.043105,11.32322 32.158766,21.979434 L 37.068811,17.246167 C 37.068811,17.246167 37.088388,32 37.088388,32 L 22.160133,31.978069 C 22.160133,31.978069 26.997745,27.140456 26.997745,27.140456 C 18.528582,18.264221 13.291696,25.230495 11.500037,31.436501 z"
             style="fill:#404040;"/>
          </a>
         </g>
        </svg>
</svg>
