<?xml version="1.0" encoding="UTF-8" standalone="no"?>
<!DOCTYPE svg PUBLIC "-//W3C//DTD SVG 1.1//EN"
 "http://www.w3.org/Graphics/SVG/1.1/DTD/svg11.dtd">
<!-- Generated by graphviz version 2.36.0 (20140111.2315)
 -->
<!-- Title: CellSocietyView.updateChartLines Pages: 1 -->
<svg width="1196pt" height="125pt"
 viewBox="0.00 0.00 1196.00 125.18" xmlns="http://www.w3.org/2000/svg" xmlns:xlink="http://www.w3.org/1999/xlink">
<g id="graph0" class="graph" transform="scale(1 1) rotate(0) translate(4 121.177)">
<title>CellSocietyView.updateChartLines</title>
<polygon fill="white" stroke="none" points="-4,4 -4,-121.177 1192,-121.177 1192,4 -4,4"/>
<!-- Node1 -->
<g id="node1" class="node"><title>Node1</title>
<polygon fill="#bfbfbf" stroke="black" points="0.5,-63.1775 0.5,-93.1775 153.5,-93.1775 153.5,-63.1775 0.5,-63.1775"/>
<text text-anchor="start" x="8.5" y="-81.1775" font-family="Helvetica,sans-Serif" font-size="10.00">CellSocietyView.updateChart</text>
<text text-anchor="middle" x="77" y="-70.1775" font-family="Helvetica,sans-Serif" font-size="10.00">Lines</text>
</g>
<!-- Node2 -->
<g id="node2" class="node"><title>Node2</title>
<g id="a_node2"><a xlink:href="../../d3/dff/class_cell_society.html#af9f22af39a97a58b26126020ca6c8844" target="_top" xlink:title="CellSociety.readNewXML">
<polygon fill="white" stroke="black" points="684,-97.6775 684,-116.677 816,-116.677 816,-97.6775 684,-97.6775"/>
<text text-anchor="middle" x="750" y="-104.677" font-family="Helvetica,sans-Serif" font-size="10.00">CellSociety.readNewXML</text>
</a>
</g>
</g>
<!-- Node1&#45;&gt;Node2 -->
<g id="edge1" class="edge"><title>Node1&#45;&gt;Node2</title>
<path fill="none" stroke="midnightblue" d="M164.037,-81.8959C300.039,-87.7738 561.736,-99.0841 683.591,-104.351"/>
<polygon fill="midnightblue" stroke="midnightblue" points="163.81,-78.3829 153.668,-81.4478 163.507,-85.3764 163.81,-78.3829"/>
</g>
<!-- Node5 -->
<g id="node5" class="node"><title>Node5</title>
<g id="a_node5"><a xlink:href="../../d3/dff/class_cell_society.html#a0ff19c30a1cc433d8ea8444f6a5617f1" target="_top" xlink:title="CellSociety.updateGrid">
<polygon fill="white" stroke="black" points="190,-40.6775 190,-59.6775 314,-59.6775 314,-40.6775 190,-40.6775"/>
<text text-anchor="middle" x="252" y="-47.6775" font-family="Helvetica,sans-Serif" font-size="10.00">CellSociety.updateGrid</text>
</a>
</g>
</g>
<!-- Node1&#45;&gt;Node5 -->
<g id="edge4" class="edge"><title>Node1&#45;&gt;Node5</title>
<path fill="none" stroke="midnightblue" d="M163.66,-64.3135C173.31,-62.7517 182.973,-61.1876 192.171,-59.699"/>
<polygon fill="midnightblue" stroke="midnightblue" points="162.941,-60.8842 153.629,-65.937 164.059,-67.7943 162.941,-60.8842"/>
</g>
<!-- Node3 -->
<g id="node3" class="node"><title>Node3</title>
<g id="a_node3"><a xlink:href="../../d3/dff/class_cell_society.html#a656ff46d1459fb7f86b42e3c542506ee" target="_top" xlink:title="CellSociety.configureListeners">
<polygon fill="white" stroke="black" points="870,-40.6775 870,-59.6775 1028,-59.6775 1028,-40.6775 870,-40.6775"/>
<text text-anchor="middle" x="949" y="-47.6775" font-family="Helvetica,sans-Serif" font-size="10.00">CellSociety.configureListeners</text>
</a>
</g>
</g>
<!-- Node2&#45;&gt;Node3 -->
<g id="edge2" class="edge"><title>Node2&#45;&gt;Node3</title>
<path fill="none" stroke="midnightblue" d="M806.362,-95.2893C815.628,-93.075 825.115,-90.6689 834,-88.1775 864.332,-79.6719 898.544,-67.9795 921.506,-59.8189"/>
<polygon fill="midnightblue" stroke="midnightblue" points="805.371,-91.9263 796.431,-97.6116 806.965,-98.7424 805.371,-91.9263"/>
</g>
<!-- Node4 -->
<g id="node4" class="node"><title>Node4</title>
<g id="a_node4"><a xlink:href="../../d3/dff/class_cell_society.html#ac5e08680a3da358d402461bc25aa1727" target="_top" xlink:title="CellSociety.CellSociety">
<polygon fill="white" stroke="black" points="1064.5,-40.6775 1064.5,-59.6775 1187.5,-59.6775 1187.5,-40.6775 1064.5,-40.6775"/>
<text text-anchor="middle" x="1126" y="-47.6775" font-family="Helvetica,sans-Serif" font-size="10.00">CellSociety.CellSociety</text>
</a>
</g>
</g>
<!-- Node3&#45;&gt;Node4 -->
<g id="edge3" class="edge"><title>Node3&#45;&gt;Node4</title>
<path fill="none" stroke="midnightblue" d="M1038.09,-50.1775C1047.01,-50.1775 1055.92,-50.1775 1064.45,-50.1775"/>
<polygon fill="midnightblue" stroke="midnightblue" points="1038.03,-46.6776 1028.03,-50.1775 1038.03,-53.6776 1038.03,-46.6776"/>
</g>
<!-- Node5&#45;&gt;Node3 -->
<g id="edge5" class="edge"><title>Node5&#45;&gt;Node3</title>
<path fill="none" stroke="midnightblue" d="M306.527,-38.6742C409.405,-18.3284 641.599,19.045 834,-12.1775 867.155,-17.5577 903.696,-31.2005 926.252,-40.5851"/>
<polygon fill="midnightblue" stroke="midnightblue" points="305.803,-35.2497 296.686,-40.647 307.179,-42.1131 305.803,-35.2497"/>
</g>
<!-- Node6 -->
<g id="node6" class="node"><title>Node6</title>
<g id="a_node6"><a xlink:href="../../d3/dff/class_cell_society.html#abf13a64ee79f2cb063447b499c695c58" target="_top" xlink:title="CellSociety.start">
<polygon fill="white" stroke="black" points="350.5,-40.6775 350.5,-59.6775 443.5,-59.6775 443.5,-40.6775 350.5,-40.6775"/>
<text text-anchor="middle" x="397" y="-47.6775" font-family="Helvetica,sans-Serif" font-size="10.00">CellSociety.start</text>
</a>
</g>
</g>
<!-- Node5&#45;&gt;Node6 -->
<g id="edge6" class="edge"><title>Node5&#45;&gt;Node6</title>
<path fill="none" stroke="midnightblue" d="M324.086,-50.1775C332.995,-50.1775 341.914,-50.1775 350.287,-50.1775"/>
<polygon fill="midnightblue" stroke="midnightblue" points="324.06,-46.6776 314.06,-50.1775 324.06,-53.6776 324.06,-46.6776"/>
</g>
<!-- Node7 -->
<g id="node7" class="node"><title>Node7</title>
<g id="a_node7"><a xlink:href="../../d3/dff/class_cell_society.html#adc5feda3db5472cea4e092d463681033" target="_top" xlink:title="CellSociety.reframeTimeline">
<polygon fill="white" stroke="black" points="480.5,-21.6775 480.5,-40.6775 629.5,-40.6775 629.5,-21.6775 480.5,-21.6775"/>
<text text-anchor="middle" x="555" y="-28.6775" font-family="Helvetica,sans-Serif" font-size="10.00">CellSociety.reframeTimeline</text>
</a>
</g>
</g>
<!-- Node6&#45;&gt;Node7 -->
<g id="edge7" class="edge"><title>Node6&#45;&gt;Node7</title>
<path fill="none" stroke="midnightblue" d="M453.497,-43.4182C462.162,-42.3629 471.231,-41.2583 480.226,-40.1628"/>
<polygon fill="midnightblue" stroke="midnightblue" points="453.044,-39.9474 443.541,-44.6308 453.891,-46.896 453.044,-39.9474"/>
</g>
<!-- Node10 -->
<g id="node10" class="node"><title>Node10</title>
<g id="a_node10"><a xlink:href="../../d3/dff/class_cell_society.html#ab9e56a2a70e210e021b51e898508329b" target="_top" xlink:title="CellSociety.setupAnimation">
<polygon fill="white" stroke="black" points="482,-59.6775 482,-78.6775 628,-78.6775 628,-59.6775 482,-59.6775"/>
<text text-anchor="middle" x="555" y="-66.6775" font-family="Helvetica,sans-Serif" font-size="10.00">CellSociety.setupAnimation</text>
</a>
</g>
</g>
<!-- Node6&#45;&gt;Node10 -->
<g id="edge12" class="edge"><title>Node6&#45;&gt;Node10</title>
<path fill="none" stroke="midnightblue" d="M453.678,-56.9588C462.854,-58.0763 472.479,-59.2486 481.984,-60.4064"/>
<polygon fill="midnightblue" stroke="midnightblue" points="453.891,-53.4589 443.541,-55.7242 453.044,-60.4076 453.891,-53.4589"/>
</g>
<!-- Node8 -->
<g id="node8" class="node"><title>Node8</title>
<g id="a_node8"><a xlink:href="../../d3/dff/class_cell_society.html#a045267ba1843ca4a47891d7be73c2ac1" target="_top" xlink:title="CellSociety.decreaseFrameRate">
<polygon fill="white" stroke="black" points="666.5,-59.6775 666.5,-78.6775 833.5,-78.6775 833.5,-59.6775 666.5,-59.6775"/>
<text text-anchor="middle" x="750" y="-66.6775" font-family="Helvetica,sans-Serif" font-size="10.00">CellSociety.decreaseFrameRate</text>
</a>
</g>
</g>
<!-- Node7&#45;&gt;Node8 -->
<g id="edge8" class="edge"><title>Node7&#45;&gt;Node8</title>
<path fill="none" stroke="midnightblue" d="M614.602,-42.7156C642.129,-48.1355 674.548,-54.5185 700.648,-59.6574"/>
<polygon fill="midnightblue" stroke="midnightblue" points="615.19,-39.2643 604.702,-40.7665 613.838,-46.1325 615.19,-39.2643"/>
</g>
<!-- Node9 -->
<g id="node9" class="node"><title>Node9</title>
<g id="a_node9"><a xlink:href="../../d3/dff/class_cell_society.html#a8250bfacdaf51dabf6b9d1cafc0ce9b2" target="_top" xlink:title="CellSociety.increaseFrameRate">
<polygon fill="white" stroke="black" points="668.5,-21.6775 668.5,-40.6775 831.5,-40.6775 831.5,-21.6775 668.5,-21.6775"/>
<text text-anchor="middle" x="750" y="-28.6775" font-family="Helvetica,sans-Serif" font-size="10.00">CellSociety.increaseFrameRate</text>
</a>
</g>
</g>
<!-- Node7&#45;&gt;Node9 -->
<g id="edge10" class="edge"><title>Node7&#45;&gt;Node9</title>
<path fill="none" stroke="midnightblue" d="M639.719,-31.1775C649.198,-31.1775 658.845,-31.1775 668.285,-31.1775"/>
<polygon fill="midnightblue" stroke="midnightblue" points="639.516,-27.6776 629.516,-31.1775 639.516,-34.6776 639.516,-27.6776"/>
</g>
<!-- Node8&#45;&gt;Node3 -->
<g id="edge9" class="edge"><title>Node8&#45;&gt;Node3</title>
<path fill="none" stroke="midnightblue" d="M843.877,-60.2198C852.593,-59.3792 861.368,-58.5329 869.927,-57.7074"/>
<polygon fill="midnightblue" stroke="midnightblue" points="843.307,-56.7584 833.689,-61.2024 843.979,-63.7261 843.307,-56.7584"/>
</g>
<!-- Node9&#45;&gt;Node3 -->
<g id="edge11" class="edge"><title>Node9&#45;&gt;Node3</title>
<path fill="none" stroke="midnightblue" d="M841.842,-39.9389C851.24,-40.8453 860.733,-41.7608 869.974,-42.6521"/>
<polygon fill="midnightblue" stroke="midnightblue" points="841.986,-36.4366 831.696,-38.9603 841.314,-43.4043 841.986,-36.4366"/>
</g>
<!-- Node10&#45;&gt;Node2 -->
<g id="edge13" class="edge"><title>Node10&#45;&gt;Node2</title>
<path fill="none" stroke="midnightblue" d="M614.602,-80.7156C642.129,-86.1355 674.548,-92.5185 700.648,-97.6574"/>
<polygon fill="midnightblue" stroke="midnightblue" points="615.19,-77.2643 604.702,-78.7665 613.838,-84.1325 615.19,-77.2643"/>
</g>
</g>
</svg>
