<?xml version="1.0" encoding="UTF-8" standalone="no"?>
<!DOCTYPE svg PUBLIC "-//W3C//DTD SVG 1.1//EN"
 "http://www.w3.org/Graphics/SVG/1.1/DTD/svg11.dtd">
<!-- Generated by graphviz version 2.36.0 (20140111.2315)
 -->
<!-- Title: CellSocietyView.changePauseButtonPermissions Pages: 1 -->
<svg width="874pt" height="52pt"
 viewBox="0.00 0.00 874.00 52.00" xmlns="http://www.w3.org/2000/svg" xmlns:xlink="http://www.w3.org/1999/xlink">
<g id="graph0" class="graph" transform="scale(1 1) rotate(0) translate(4 48)">
<title>CellSocietyView.changePauseButtonPermissions</title>
<polygon fill="white" stroke="none" points="-4,4 -4,-48 870,-48 870,4 -4,4"/>
<!-- Node1 -->
<g id="node1" class="node"><title>Node1</title>
<polygon fill="#bfbfbf" stroke="black" points="0.5,-14 0.5,-44 157.5,-44 157.5,-14 0.5,-14"/>
<text text-anchor="start" x="8.5" y="-32" font-family="Helvetica,sans-Serif" font-size="10.00">CellSocietyView.changePause</text>
<text text-anchor="middle" x="79" y="-21" font-family="Helvetica,sans-Serif" font-size="10.00">ButtonPermissions</text>
</g>
<!-- Node2 -->
<g id="node2" class="node"><title>Node2</title>
<g id="a_node2"><a xlink:href="../../d3/dff/class_cell_society.html#ae565a305ea53e5a37da9816a236b4fbc" target="_top" xlink:title="CellSociety.pauseAnimation">
<polygon fill="white" stroke="black" points="194.5,-19.5 194.5,-38.5 343.5,-38.5 343.5,-19.5 194.5,-19.5"/>
<text text-anchor="middle" x="269" y="-26.5" font-family="Helvetica,sans-Serif" font-size="10.00">CellSociety.pauseAnimation</text>
</a>
</g>
</g>
<!-- Node1&#45;&gt;Node2 -->
<g id="edge1" class="edge"><title>Node1&#45;&gt;Node2</title>
<path fill="none" stroke="midnightblue" d="M167.576,-29C176.499,-29 185.499,-29 194.254,-29"/>
<polygon fill="midnightblue" stroke="midnightblue" points="167.552,-25.5001 157.552,-29 167.552,-32.5001 167.552,-25.5001"/>
</g>
<!-- Node3 -->
<g id="node3" class="node"><title>Node3</title>
<g id="a_node3"><a xlink:href="../../d3/dff/class_cell_society.html#a656ff46d1459fb7f86b42e3c542506ee" target="_top" xlink:title="CellSociety.configureListeners">
<polygon fill="white" stroke="black" points="548,-19.5 548,-38.5 706,-38.5 706,-19.5 548,-19.5"/>
<text text-anchor="middle" x="627" y="-26.5" font-family="Helvetica,sans-Serif" font-size="10.00">CellSociety.configureListeners</text>
</a>
</g>
</g>
<!-- Node2&#45;&gt;Node3 -->
<g id="edge2" class="edge"><title>Node2&#45;&gt;Node3</title>
<path fill="none" stroke="midnightblue" d="M354.109,-29C412.734,-29 490.396,-29 547.704,-29"/>
<polygon fill="midnightblue" stroke="midnightblue" points="353.763,-25.5001 343.763,-29 353.763,-32.5001 353.763,-25.5001"/>
</g>
<!-- Node5 -->
<g id="node5" class="node"><title>Node5</title>
<g id="a_node5"><a xlink:href="../../d3/dff/class_cell_society.html#af9f22af39a97a58b26126020ca6c8844" target="_top" xlink:title="CellSociety.readNewXML">
<polygon fill="white" stroke="black" points="380,-0.5 380,-19.5 512,-19.5 512,-0.5 380,-0.5"/>
<text text-anchor="middle" x="446" y="-7.5" font-family="Helvetica,sans-Serif" font-size="10.00">CellSociety.readNewXML</text>
</a>
</g>
</g>
<!-- Node2&#45;&gt;Node5 -->
<g id="edge4" class="edge"><title>Node2&#45;&gt;Node5</title>
<path fill="none" stroke="midnightblue" d="M353.654,-19.9175C362.5,-18.9571 371.399,-17.991 379.987,-17.0585"/>
<polygon fill="midnightblue" stroke="midnightblue" points="353.272,-16.4383 343.709,-20.9974 354.028,-23.3974 353.272,-16.4383"/>
</g>
<!-- Node4 -->
<g id="node4" class="node"><title>Node4</title>
<g id="a_node4"><a xlink:href="../../d3/dff/class_cell_society.html#ac5e08680a3da358d402461bc25aa1727" target="_top" xlink:title="CellSociety.CellSociety">
<polygon fill="white" stroke="black" points="742.5,-19.5 742.5,-38.5 865.5,-38.5 865.5,-19.5 742.5,-19.5"/>
<text text-anchor="middle" x="804" y="-26.5" font-family="Helvetica,sans-Serif" font-size="10.00">CellSociety.CellSociety</text>
</a>
</g>
</g>
<!-- Node3&#45;&gt;Node4 -->
<g id="edge3" class="edge"><title>Node3&#45;&gt;Node4</title>
<path fill="none" stroke="midnightblue" d="M716.087,-29C725.007,-29 733.919,-29 742.452,-29"/>
<polygon fill="midnightblue" stroke="midnightblue" points="716.032,-25.5001 706.032,-29 716.032,-32.5001 716.032,-25.5001"/>
</g>
<!-- Node5&#45;&gt;Node3 -->
<g id="edge5" class="edge"><title>Node5&#45;&gt;Node3</title>
<path fill="none" stroke="midnightblue" d="M522.312,-17.994C530.748,-18.8894 539.355,-19.8031 547.826,-20.7022"/>
<polygon fill="midnightblue" stroke="midnightblue" points="522.443,-14.4883 512.129,-16.9132 521.704,-21.4492 522.443,-14.4883"/>
</g>
</g>
</svg>
