<?xml version="1.0" encoding="UTF-8" standalone="no"?>
<!DOCTYPE svg PUBLIC "-//W3C//DTD SVG 1.1//EN"
 "http://www.w3.org/Graphics/SVG/1.1/DTD/svg11.dtd">
<!-- Generated by graphviz version 2.36.0 (20140111.2315)
 -->
<!-- Title: CellSocietyView.setupInitialGrid Pages: 1 -->
<svg width="330pt" height="66pt"
 viewBox="0.00 0.00 330.00 66.00" xmlns="http://www.w3.org/2000/svg" xmlns:xlink="http://www.w3.org/1999/xlink">
<g id="graph0" class="graph" transform="scale(1 1) rotate(0) translate(4 62)">
<title>CellSocietyView.setupInitialGrid</title>
<polygon fill="white" stroke="none" points="-4,4 -4,-62 326,-62 326,4 -4,4"/>
<!-- Node1 -->
<g id="node1" class="node"><title>Node1</title>
<polygon fill="#bfbfbf" stroke="black" points="0,-19.5 0,-38.5 164,-38.5 164,-19.5 0,-19.5"/>
<text text-anchor="middle" x="82" y="-26.5" font-family="Helvetica,sans-Serif" font-size="10.00">CellSocietyView.setupInitialGrid</text>
</g>
<!-- Node2 -->
<g id="node2" class="node"><title>Node2</title>
<g id="a_node2"><a xlink:href="../../d4/d92/class_grid_factory.html#a3c5221912f2534ff2cf8cacb935e7fc9" target="_top" xlink:title="GridFactory.createGrid">
<polygon fill="white" stroke="black" points="200,-38.5 200,-57.5 322,-57.5 322,-38.5 200,-38.5"/>
<text text-anchor="middle" x="261" y="-45.5" font-family="Helvetica,sans-Serif" font-size="10.00">GridFactory.createGrid</text>
</a>
</g>
</g>
<!-- Node1&#45;&gt;Node2 -->
<g id="edge1" class="edge"><title>Node1&#45;&gt;Node2</title>
<path fill="none" stroke="midnightblue" d="M164.247,-37.7215C172.776,-38.637 181.395,-39.5622 189.785,-40.4627"/>
<polygon fill="midnightblue" stroke="midnightblue" points="189.566,-43.9594 199.883,-41.5468 190.314,-36.9993 189.566,-43.9594"/>
</g>
<!-- Node3 -->
<g id="node3" class="node"><title>Node3</title>
<g id="a_node3"><a xlink:href="../../da/d74/class_grid.html#a1febd1c7daf70dbedc9ca16a3c8099db" target="_top" xlink:title="Grid.getGrid">
<polygon fill="white" stroke="black" points="224,-0.5 224,-19.5 298,-19.5 298,-0.5 224,-0.5"/>
<text text-anchor="middle" x="261" y="-7.5" font-family="Helvetica,sans-Serif" font-size="10.00">Grid.getGrid</text>
</a>
</g>
</g>
<!-- Node1&#45;&gt;Node3 -->
<g id="edge2" class="edge"><title>Node1&#45;&gt;Node3</title>
<path fill="none" stroke="midnightblue" d="M164.247,-20.2785C181.231,-18.4555 198.572,-16.5939 213.748,-14.9649"/>
<polygon fill="midnightblue" stroke="midnightblue" points="214.309,-18.4249 223.878,-13.8775 213.561,-11.4649 214.309,-18.4249"/>
</g>
</g>
</svg>
