<?xml version="1.0" encoding="UTF-8" standalone="no"?>
<!DOCTYPE svg PUBLIC "-//W3C//DTD SVG 1.1//EN"
 "http://www.w3.org/Graphics/SVG/1.1/DTD/svg11.dtd">
<!-- Generated by graphviz version 2.36.0 (20140111.2315)
 -->
<!-- Title: CellSocietyView.updateSimGrid Pages: 1 -->
<svg width="1208pt" height="130pt"
 viewBox="0.00 0.00 1208.00 129.56" xmlns="http://www.w3.org/2000/svg" xmlns:xlink="http://www.w3.org/1999/xlink">
<g id="graph0" class="graph" transform="scale(1 1) rotate(0) translate(4 125.562)">
<title>CellSocietyView.updateSimGrid</title>
<polygon fill="white" stroke="none" points="-4,4 -4,-125.562 1204,-125.562 1204,4 -4,4"/>
<!-- Node1 -->
<g id="node1" class="node"><title>Node1</title>
<polygon fill="#bfbfbf" stroke="black" points="0.5,-85.5 0.5,-104.5 165.5,-104.5 165.5,-85.5 0.5,-85.5"/>
<text text-anchor="middle" x="83" y="-92.5" font-family="Helvetica,sans-Serif" font-size="10.00">CellSocietyView.updateSimGrid</text>
</g>
<!-- Node2 -->
<g id="node2" class="node"><title>Node2</title>
<g id="a_node2"><a xlink:href="../../d3/dff/class_cell_society.html#a0ff19c30a1cc433d8ea8444f6a5617f1" target="_top" xlink:title="CellSociety.updateGrid">
<polygon fill="white" stroke="black" points="202,-85.5 202,-104.5 326,-104.5 326,-85.5 202,-85.5"/>
<text text-anchor="middle" x="264" y="-92.5" font-family="Helvetica,sans-Serif" font-size="10.00">CellSociety.updateGrid</text>
</a>
</g>
</g>
<!-- Node1&#45;&gt;Node2 -->
<g id="edge1" class="edge"><title>Node1&#45;&gt;Node2</title>
<path fill="none" stroke="midnightblue" d="M175.652,-95C184.523,-95 193.367,-95 201.833,-95"/>
<polygon fill="midnightblue" stroke="midnightblue" points="175.643,-91.5001 165.643,-95 175.643,-98.5001 175.643,-91.5001"/>
</g>
<!-- Node3 -->
<g id="node3" class="node"><title>Node3</title>
<g id="a_node3"><a xlink:href="../../d3/dff/class_cell_society.html#a656ff46d1459fb7f86b42e3c542506ee" target="_top" xlink:title="CellSociety.configureListeners">
<polygon fill="white" stroke="black" points="882,-57.5 882,-76.5 1040,-76.5 1040,-57.5 882,-57.5"/>
<text text-anchor="middle" x="961" y="-64.5" font-family="Helvetica,sans-Serif" font-size="10.00">CellSociety.configureListeners</text>
</a>
</g>
</g>
<!-- Node2&#45;&gt;Node3 -->
<g id="edge2" class="edge"><title>Node2&#45;&gt;Node3</title>
<path fill="none" stroke="midnightblue" d="M336.143,-104.282C446.251,-116.843 664.215,-134.5 846,-105 879.155,-99.6198 915.696,-85.977 938.252,-76.5924"/>
<polygon fill="midnightblue" stroke="midnightblue" points="336.488,-100.799 326.151,-103.122 335.681,-107.752 336.488,-100.799"/>
</g>
<!-- Node5 -->
<g id="node5" class="node"><title>Node5</title>
<g id="a_node5"><a xlink:href="../../d3/dff/class_cell_society.html#abf13a64ee79f2cb063447b499c695c58" target="_top" xlink:title="CellSociety.start">
<polygon fill="white" stroke="black" points="362.5,-57.5 362.5,-76.5 455.5,-76.5 455.5,-57.5 362.5,-57.5"/>
<text text-anchor="middle" x="409" y="-64.5" font-family="Helvetica,sans-Serif" font-size="10.00">CellSociety.start</text>
</a>
</g>
</g>
<!-- Node2&#45;&gt;Node5 -->
<g id="edge4" class="edge"><title>Node2&#45;&gt;Node5</title>
<path fill="none" stroke="midnightblue" d="M323.93,-83.4613C336.735,-80.954 350.095,-78.338 362.298,-75.9487"/>
<polygon fill="midnightblue" stroke="midnightblue" points="322.954,-80.0859 313.813,-85.4423 324.299,-86.9554 322.954,-80.0859"/>
</g>
<!-- Node4 -->
<g id="node4" class="node"><title>Node4</title>
<g id="a_node4"><a xlink:href="../../d3/dff/class_cell_society.html#ac5e08680a3da358d402461bc25aa1727" target="_top" xlink:title="CellSociety.CellSociety">
<polygon fill="white" stroke="black" points="1076.5,-57.5 1076.5,-76.5 1199.5,-76.5 1199.5,-57.5 1076.5,-57.5"/>
<text text-anchor="middle" x="1138" y="-64.5" font-family="Helvetica,sans-Serif" font-size="10.00">CellSociety.CellSociety</text>
</a>
</g>
</g>
<!-- Node3&#45;&gt;Node4 -->
<g id="edge3" class="edge"><title>Node3&#45;&gt;Node4</title>
<path fill="none" stroke="midnightblue" d="M1050.09,-67C1059.01,-67 1067.92,-67 1076.45,-67"/>
<polygon fill="midnightblue" stroke="midnightblue" points="1050.03,-63.5001 1040.03,-67 1050.03,-70.5001 1050.03,-63.5001"/>
</g>
<!-- Node6 -->
<g id="node6" class="node"><title>Node6</title>
<g id="a_node6"><a xlink:href="../../d3/dff/class_cell_society.html#adc5feda3db5472cea4e092d463681033" target="_top" xlink:title="CellSociety.reframeTimeline">
<polygon fill="white" stroke="black" points="492.5,-57.5 492.5,-76.5 641.5,-76.5 641.5,-57.5 492.5,-57.5"/>
<text text-anchor="middle" x="567" y="-64.5" font-family="Helvetica,sans-Serif" font-size="10.00">CellSociety.reframeTimeline</text>
</a>
</g>
</g>
<!-- Node5&#45;&gt;Node6 -->
<g id="edge5" class="edge"><title>Node5&#45;&gt;Node6</title>
<path fill="none" stroke="midnightblue" d="M465.78,-67C474.359,-67 483.329,-67 492.226,-67"/>
<polygon fill="midnightblue" stroke="midnightblue" points="465.541,-63.5001 455.541,-67 465.541,-70.5001 465.541,-63.5001"/>
</g>
<!-- Node9 -->
<g id="node9" class="node"><title>Node9</title>
<g id="a_node9"><a xlink:href="../../d3/dff/class_cell_society.html#ab9e56a2a70e210e021b51e898508329b" target="_top" xlink:title="CellSociety.setupAnimation">
<polygon fill="white" stroke="black" points="494,-9.5 494,-28.5 640,-28.5 640,-9.5 494,-9.5"/>
<text text-anchor="middle" x="567" y="-16.5" font-family="Helvetica,sans-Serif" font-size="10.00">CellSociety.setupAnimation</text>
</a>
</g>
</g>
<!-- Node5&#45;&gt;Node9 -->
<g id="edge10" class="edge"><title>Node5&#45;&gt;Node9</title>
<path fill="none" stroke="midnightblue" d="M450.87,-54.4247C477.143,-46.3405 510.748,-36.0005 534.86,-28.5815"/>
<polygon fill="midnightblue" stroke="midnightblue" points="449.722,-51.1157 441.194,-57.4018 451.781,-57.8061 449.722,-51.1157"/>
</g>
<!-- Node7 -->
<g id="node7" class="node"><title>Node7</title>
<g id="a_node7"><a xlink:href="../../d3/dff/class_cell_society.html#a045267ba1843ca4a47891d7be73c2ac1" target="_top" xlink:title="CellSociety.decreaseFrameRate">
<polygon fill="white" stroke="black" points="678.5,-76.5 678.5,-95.5 845.5,-95.5 845.5,-76.5 678.5,-76.5"/>
<text text-anchor="middle" x="762" y="-83.5" font-family="Helvetica,sans-Serif" font-size="10.00">CellSociety.decreaseFrameRate</text>
</a>
</g>
</g>
<!-- Node6&#45;&gt;Node7 -->
<g id="edge6" class="edge"><title>Node6&#45;&gt;Node7</title>
<path fill="none" stroke="midnightblue" d="M651.487,-75.2189C660.391,-76.0954 669.444,-76.9868 678.338,-77.8623"/>
<polygon fill="midnightblue" stroke="midnightblue" points="651.81,-71.7339 641.516,-74.2373 651.125,-78.7003 651.81,-71.7339"/>
</g>
<!-- Node8 -->
<g id="node8" class="node"><title>Node8</title>
<g id="a_node8"><a xlink:href="../../d3/dff/class_cell_society.html#a8250bfacdaf51dabf6b9d1cafc0ce9b2" target="_top" xlink:title="CellSociety.increaseFrameRate">
<polygon fill="white" stroke="black" points="680.5,-38.5 680.5,-57.5 843.5,-57.5 843.5,-38.5 680.5,-38.5"/>
<text text-anchor="middle" x="762" y="-45.5" font-family="Helvetica,sans-Serif" font-size="10.00">CellSociety.increaseFrameRate</text>
</a>
</g>
</g>
<!-- Node6&#45;&gt;Node8 -->
<g id="edge8" class="edge"><title>Node6&#45;&gt;Node8</title>
<path fill="none" stroke="midnightblue" d="M651.719,-58.7583C661.198,-57.8251 670.845,-56.8753 680.285,-55.946"/>
<polygon fill="midnightblue" stroke="midnightblue" points="651.125,-55.2997 641.516,-59.7627 651.81,-62.2661 651.125,-55.2997"/>
</g>
<!-- Node7&#45;&gt;Node3 -->
<g id="edge7" class="edge"><title>Node7&#45;&gt;Node3</title>
<path fill="none" stroke="midnightblue" d="M855.877,-77.0423C864.593,-76.2017 873.368,-75.3554 881.927,-74.5299"/>
<polygon fill="midnightblue" stroke="midnightblue" points="855.307,-73.5809 845.689,-78.0249 855.979,-80.5486 855.307,-73.5809"/>
</g>
<!-- Node8&#45;&gt;Node3 -->
<g id="edge9" class="edge"><title>Node8&#45;&gt;Node3</title>
<path fill="none" stroke="midnightblue" d="M853.842,-56.7614C863.24,-57.6678 872.733,-58.5834 881.974,-59.4746"/>
<polygon fill="midnightblue" stroke="midnightblue" points="853.986,-53.2591 843.696,-55.7828 853.314,-60.2268 853.986,-53.2591"/>
</g>
<!-- Node10 -->
<g id="node10" class="node"><title>Node10</title>
<g id="a_node10"><a xlink:href="../../d3/dff/class_cell_society.html#af9f22af39a97a58b26126020ca6c8844" target="_top" xlink:title="CellSociety.readNewXML">
<polygon fill="white" stroke="black" points="696,-0.5 696,-19.5 828,-19.5 828,-0.5 696,-0.5"/>
<text text-anchor="middle" x="762" y="-7.5" font-family="Helvetica,sans-Serif" font-size="10.00">CellSociety.readNewXML</text>
</a>
</g>
</g>
<!-- Node9&#45;&gt;Node10 -->
<g id="edge11" class="edge"><title>Node9&#45;&gt;Node10</title>
<path fill="none" stroke="midnightblue" d="M650.552,-15.1504C665.727,-14.4428 681.372,-13.7132 695.943,-13.0337"/>
<polygon fill="midnightblue" stroke="midnightblue" points="649.967,-11.6738 640.141,-15.6359 650.293,-18.6662 649.967,-11.6738"/>
</g>
<!-- Node10&#45;&gt;Node3 -->
<g id="edge12" class="edge"><title>Node10&#45;&gt;Node3</title>
<path fill="none" stroke="midnightblue" d="M818.362,-21.8882C827.628,-24.1025 837.115,-26.5086 846,-29 876.332,-37.5056 910.544,-49.198 933.506,-57.3586"/>
<polygon fill="midnightblue" stroke="midnightblue" points="818.965,-18.4351 808.431,-19.5659 817.371,-25.2512 818.965,-18.4351"/>
</g>
</g>
</svg>
