<?xml version="1.0" encoding="UTF-8" standalone="no"?>
<!DOCTYPE svg PUBLIC "-//W3C//DTD SVG 1.1//EN"
 "http://www.w3.org/Graphics/SVG/1.1/DTD/svg11.dtd">
<!-- Generated by graphviz version 2.36.0 (20140111.2315)
 -->
<!-- Title: CellSocietyView.CellSocietyView Pages: 1 -->
<!--zoomable 351 -->
<svg id="main" version="1.1" xmlns="http://www.w3.org/2000/svg" xmlns:xlink="http://www.w3.org/1999/xlink" xml:space="preserve" onload="init(evt)">
<style type="text/css"><![CDATA[
.edge:hover path { stroke: red; }
.edge:hover polygon { stroke: red; fill: red; }
]]></style>
<script type="text/javascript"><![CDATA[
var edges = document.getElementsByTagName('g');
if (edges && edges.length) {
  for (var i=0;i<edges.length;i++) {
    if (edges[i].id.substr(0,4)=='edge') {
      edges[i].setAttribute('class','edge');
    }
  }
}
]]></script>
        <defs>
                <circle id="rim" cx="0" cy="0" r="7"/>
                <circle id="rim2" cx="0" cy="0" r="3.5"/>
                <g id="zoomPlus">
                        <use xlink:href="#rim" fill="#404040">
                                <set attributeName="fill" to="#808080" begin="zoomplus.mouseover" end="zoomplus.mouseout"/>
                        </use>
                        <path d="M-4,0h8M0,-4v8" fill="none" stroke="white" stroke-width="1.5" pointer-events="none"/>
                </g>
                <g id="zoomMin">
                        <use xlink:href="#rim" fill="#404040">
                                <set attributeName="fill" to="#808080" begin="zoomminus.mouseover" end="zoomminus.mouseout"/>
                        </use>
                        <path d="M-4,0h8" fill="none" stroke="white" stroke-width="1.5" pointer-events="none"/>
                </g>
                <g id="dirArrow">
                        <path fill="none" stroke="white" stroke-width="1.5" d="M0,-3.0v7 M-2.5,-0.5L0,-3.0L2.5,-0.5"/>
                </g>
               <g id="resetDef">
                       <use xlink:href="#rim2" fill="#404040">
                               <set attributeName="fill" to="#808080" begin="reset.mouseover" end="reset.mouseout"/>
                       </use>
               </g>
        </defs>

<script type="text/javascript">
var viewWidth = 750;
var viewHeight = 351;
var sectionId = 'dynsection-1';
</script>
<script xlink:href="../../svgpan.js"/>
<svg id="graph" class="graph">
<g id="viewport">
<title>CellSocietyView.CellSocietyView</title>
<polygon fill="white" stroke="none" points="-4,4 -4,-347 746,-347 746,4 -4,4"/>
<!-- Node1 -->
<g id="node1" class="node"><title>Node1</title>
<polygon fill="#bfbfbf" stroke="black" points="0.5,-115.5 0.5,-134.5 167.5,-134.5 167.5,-115.5 0.5,-115.5"/>
<text text-anchor="middle" x="84" y="-122.5" font-family="Helvetica,sans-Serif" font-size="10.00">CellSocietyView.CellSocietyView</text>
</g>
<!-- Node2 -->
<g id="node2" class="node"><title>Node2</title>
<g id="a_node2"><a xlink:href="../../df/df8/class_cell_society_view.html#a5700799d24f6a9c1606d4d755468ee64" target="_top" xlink:title="CellSocietyView.configureUI">
<polygon fill="white" stroke="black" points="208.5,-225.5 208.5,-244.5 355.5,-244.5 355.5,-225.5 208.5,-225.5"/>
<text text-anchor="middle" x="282" y="-232.5" font-family="Helvetica,sans-Serif" font-size="10.00">CellSocietyView.configureUI</text>
</a>
</g>
</g>
<!-- Node1&#45;&gt;Node2 -->
<g id="edge1" class="edge"><title>Node1&#45;&gt;Node2</title>
<path fill="none" stroke="midnightblue" d="M94.898,-134.712C114.216,-153.125 159.002,-193.218 204,-215 209.792,-217.804 216.027,-220.25 222.351,-222.375"/>
<polygon fill="midnightblue" stroke="midnightblue" points="221.724,-225.844 232.312,-225.456 223.792,-219.157 221.724,-225.844"/>
</g>
<!-- Node9 -->
<g id="node9" class="node"><title>Node9</title>
<g id="a_node9"><a xlink:href="../../df/df8/class_cell_society_view.html#a29bf7e6d5159d85db438d227b8fad270" target="_top" xlink:title="CellSocietyView.disableInitial\lButtons">
<polygon fill="white" stroke="black" points="206,-176 206,-206 358,-206 358,-176 206,-176"/>
<text text-anchor="start" x="214" y="-194" font-family="Helvetica,sans-Serif" font-size="10.00">CellSocietyView.disableInitial</text>
<text text-anchor="middle" x="282" y="-183" font-family="Helvetica,sans-Serif" font-size="10.00">Buttons</text>
</a>
</g>
</g>
<!-- Node1&#45;&gt;Node9 -->
<g id="edge8" class="edge"><title>Node1&#45;&gt;Node9</title>
<path fill="none" stroke="midnightblue" d="M112.366,-134.584C136.456,-142.983 172.502,-155.461 204,-166 210.537,-168.187 217.396,-170.454 224.213,-172.69"/>
<polygon fill="midnightblue" stroke="midnightblue" points="223.536,-176.151 234.129,-175.93 225.711,-169.497 223.536,-176.151"/>
</g>
<!-- Node10 -->
<g id="node10" class="node"><title>Node10</title>
<g id="a_node10"><a xlink:href="../../df/df8/class_cell_society_view.html#a9a165c8be5daba942493092aa0874422" target="_top" xlink:title="CellSocietyView.generateGrid">
<polygon fill="white" stroke="black" points="204,-137.5 204,-156.5 360,-156.5 360,-137.5 204,-137.5"/>
<text text-anchor="middle" x="282" y="-144.5" font-family="Helvetica,sans-Serif" font-size="10.00">CellSocietyView.generateGrid</text>
</a>
</g>
</g>
<!-- Node1&#45;&gt;Node10 -->
<g id="edge9" class="edge"><title>Node1&#45;&gt;Node10</title>
<path fill="none" stroke="midnightblue" d="M167.554,-134.266C176.201,-135.237 185.013,-136.226 193.711,-137.202"/>
<polygon fill="midnightblue" stroke="midnightblue" points="193.525,-140.703 203.853,-138.341 194.306,-133.747 193.525,-140.703"/>
</g>
<!-- Node11 -->
<g id="node11" class="node"><title>Node11</title>
<g id="a_node11"><a xlink:href="../../df/df8/class_cell_society_view.html#ade3f6492149ed9473fb4a4d25d83b851" target="_top" xlink:title="CellSocietyView.initialize\lButtons">
<polygon fill="white" stroke="black" points="216.5,-88 216.5,-118 347.5,-118 347.5,-88 216.5,-88"/>
<text text-anchor="start" x="224.5" y="-106" font-family="Helvetica,sans-Serif" font-size="10.00">CellSocietyView.initialize</text>
<text text-anchor="middle" x="282" y="-95" font-family="Helvetica,sans-Serif" font-size="10.00">Buttons</text>
</a>
</g>
</g>
<!-- Node1&#45;&gt;Node11 -->
<g id="edge10" class="edge"><title>Node1&#45;&gt;Node11</title>
<path fill="none" stroke="midnightblue" d="M167.554,-115.734C180.432,-114.288 193.675,-112.802 206.363,-111.378"/>
<polygon fill="midnightblue" stroke="midnightblue" points="206.855,-114.844 216.402,-110.251 206.074,-107.888 206.855,-114.844"/>
</g>
<!-- Node12 -->
<g id="node12" class="node"><title>Node12</title>
<g id="a_node12"><a xlink:href="../../df/df8/class_cell_society_view.html#a7997441e7afa532f1cee738a57267fae" target="_top" xlink:title="CellSocietyView.setBlankGrid">
<polygon fill="white" stroke="black" points="205,-49.5 205,-68.5 359,-68.5 359,-49.5 205,-49.5"/>
<text text-anchor="middle" x="282" y="-56.5" font-family="Helvetica,sans-Serif" font-size="10.00">CellSocietyView.setBlankGrid</text>
</a>
</g>
</g>
<!-- Node1&#45;&gt;Node12 -->
<g id="edge11" class="edge"><title>Node1&#45;&gt;Node12</title>
<path fill="none" stroke="midnightblue" d="M106.615,-115.445C130.219,-105.252 169.297,-89.0795 204,-78 211.74,-75.5289 220.003,-73.1875 228.136,-71.0473"/>
<polygon fill="midnightblue" stroke="midnightblue" points="229.126,-74.4069 237.949,-68.5414 227.394,-67.6246 229.126,-74.4069"/>
</g>
<!-- Node13 -->
<g id="node13" class="node"><title>Node13</title>
<g id="a_node13"><a xlink:href="../../df/df8/class_cell_society_view.html#a7c7df3379e37b9dee0ecfcc754bdf916" target="_top" xlink:title="CellSocietyView.setupGame\lScene">
<polygon fill="white" stroke="black" points="207.5,-0 207.5,-30 356.5,-30 356.5,-0 207.5,-0"/>
<text text-anchor="start" x="215.5" y="-18" font-family="Helvetica,sans-Serif" font-size="10.00">CellSocietyView.setupGame</text>
<text text-anchor="middle" x="282" y="-7" font-family="Helvetica,sans-Serif" font-size="10.00">Scene</text>
</a>
</g>
</g>
<!-- Node1&#45;&gt;Node13 -->
<g id="edge12" class="edge"><title>Node1&#45;&gt;Node13</title>
<path fill="none" stroke="midnightblue" d="M96.0619,-115.295C116.241,-98.0218 160.929,-61.7216 204,-40 208.322,-37.8205 212.874,-35.775 217.517,-33.8668"/>
<polygon fill="midnightblue" stroke="midnightblue" points="219.068,-37.0195 227.129,-30.1441 216.54,-30.492 219.068,-37.0195"/>
</g>
<!-- Node3 -->
<g id="node3" class="node"><title>Node3</title>
<g id="a_node3"><a xlink:href="../../df/df8/class_cell_society_view.html#a330d0d6412aace5de81b9d27a0a1c62d" target="_top" xlink:title="CellSocietyView.createTitle">
<polygon fill="white" stroke="black" points="410.5,-318.5 410.5,-337.5 553.5,-337.5 553.5,-318.5 410.5,-318.5"/>
<text text-anchor="middle" x="482" y="-325.5" font-family="Helvetica,sans-Serif" font-size="10.00">CellSocietyView.createTitle</text>
</a>
</g>
</g>
<!-- Node2&#45;&gt;Node3 -->
<g id="edge2" class="edge"><title>Node2&#45;&gt;Node3</title>
<path fill="none" stroke="midnightblue" d="M294.76,-244.574C314.488,-260.161 356.027,-290.99 396,-308 403.062,-311.005 410.655,-313.604 418.293,-315.839"/>
<polygon fill="midnightblue" stroke="midnightblue" points="417.385,-319.22 427.954,-318.48 419.231,-312.467 417.385,-319.22"/>
</g>
<!-- Node5 -->
<g id="node5" class="node"><title>Node5</title>
<g id="a_node5"><a xlink:href="../../df/df8/class_cell_society_view.html#a5267d613dcd4adf7c93e6a6dc9f1cd26" target="_top" xlink:title="CellSocietyView.makeSimulation\lButtons">
<polygon fill="white" stroke="black" points="396.5,-269 396.5,-299 567.5,-299 567.5,-269 396.5,-269"/>
<text text-anchor="start" x="404.5" y="-287" font-family="Helvetica,sans-Serif" font-size="10.00">CellSocietyView.makeSimulation</text>
<text text-anchor="middle" x="482" y="-276" font-family="Helvetica,sans-Serif" font-size="10.00">Buttons</text>
</a>
</g>
</g>
<!-- Node2&#45;&gt;Node5 -->
<g id="edge4" class="edge"><title>Node2&#45;&gt;Node5</title>
<path fill="none" stroke="midnightblue" d="M321.646,-244.564C346.823,-250.795 380.421,-259.109 410.275,-266.497"/>
<polygon fill="midnightblue" stroke="midnightblue" points="409.69,-269.958 420.238,-268.963 411.372,-263.163 409.69,-269.958"/>
</g>
<!-- Node6 -->
<g id="node6" class="node"><title>Node6</title>
<g id="a_node6"><a xlink:href="../../df/df8/class_cell_society_view.html#accc93b8d859185496ec792a1bad1616d" target="_top" xlink:title="CellSocietyView.makeFrame\lControlButtons">
<polygon fill="white" stroke="black" points="407,-220 407,-250 557,-250 557,-220 407,-220"/>
<text text-anchor="start" x="415" y="-238" font-family="Helvetica,sans-Serif" font-size="10.00">CellSocietyView.makeFrame</text>
<text text-anchor="middle" x="482" y="-227" font-family="Helvetica,sans-Serif" font-size="10.00">ControlButtons</text>
</a>
</g>
</g>
<!-- Node2&#45;&gt;Node6 -->
<g id="edge5" class="edge"><title>Node2&#45;&gt;Node6</title>
<path fill="none" stroke="midnightblue" d="M355.604,-235C368.884,-235 382.848,-235 396.441,-235"/>
<polygon fill="midnightblue" stroke="midnightblue" points="396.746,-238.5 406.746,-235 396.746,-231.5 396.746,-238.5"/>
</g>
<!-- Node7 -->
<g id="node7" class="node"><title>Node7</title>
<g id="a_node7"><a xlink:href="../../df/df8/class_cell_society_view.html#a3fe30cb4101a6ab480305dcf07daf95f" target="_top" xlink:title="CellSocietyView.makeSpeed\lDisplay">
<polygon fill="white" stroke="black" points="406.5,-171 406.5,-201 557.5,-201 557.5,-171 406.5,-171"/>
<text text-anchor="start" x="414.5" y="-189" font-family="Helvetica,sans-Serif" font-size="10.00">CellSocietyView.makeSpeed</text>
<text text-anchor="middle" x="482" y="-178" font-family="Helvetica,sans-Serif" font-size="10.00">Display</text>
</a>
</g>
</g>
<!-- Node2&#45;&gt;Node7 -->
<g id="edge6" class="edge"><title>Node2&#45;&gt;Node7</title>
<path fill="none" stroke="midnightblue" d="M321.646,-225.436C346.823,-219.205 380.421,-210.891 410.275,-203.503"/>
<polygon fill="midnightblue" stroke="midnightblue" points="411.372,-206.837 420.238,-201.037 409.69,-200.042 411.372,-206.837"/>
</g>
<!-- Node8 -->
<g id="node8" class="node"><title>Node8</title>
<g id="a_node8"><a xlink:href="../../df/df8/class_cell_society_view.html#a591320c85d7b334d166bd59d9cdb6ecb" target="_top" xlink:title="CellSocietyView.createError\lLocation">
<polygon fill="white" stroke="black" points="408.5,-122 408.5,-152 555.5,-152 555.5,-122 408.5,-122"/>
<text text-anchor="start" x="416.5" y="-140" font-family="Helvetica,sans-Serif" font-size="10.00">CellSocietyView.createError</text>
<text text-anchor="middle" x="482" y="-129" font-family="Helvetica,sans-Serif" font-size="10.00">Location</text>
</a>
</g>
</g>
<!-- Node2&#45;&gt;Node8 -->
<g id="edge7" class="edge"><title>Node2&#45;&gt;Node8</title>
<path fill="none" stroke="midnightblue" d="M339.383,-225.468C346.697,-222.797 353.792,-219.377 360,-215 383.272,-198.591 372.992,-178.778 396,-162 398.672,-160.051 401.495,-158.254 404.424,-156.595"/>
<polygon fill="midnightblue" stroke="midnightblue" points="406.133,-159.654 413.488,-152.027 402.983,-153.403 406.133,-159.654"/>
</g>
<!-- Node4 -->
<g id="node4" class="node"><title>Node4</title>
<g id="a_node4"><a xlink:href="../../df/df8/class_cell_society_view.html#a45365a3c2504cf68a47ee8abdfbbcdf1" target="_top" xlink:title="CellSocietyView.generate\lTitle">
<polygon fill="white" stroke="black" points="604.5,-313 604.5,-343 741.5,-343 741.5,-313 604.5,-313"/>
<text text-anchor="start" x="612.5" y="-331" font-family="Helvetica,sans-Serif" font-size="10.00">CellSocietyView.generate</text>
<text text-anchor="middle" x="673" y="-320" font-family="Helvetica,sans-Serif" font-size="10.00">Title</text>
</a>
</g>
</g>
<!-- Node3&#45;&gt;Node4 -->
<g id="edge3" class="edge"><title>Node3&#45;&gt;Node4</title>
<path fill="none" stroke="midnightblue" d="M553.645,-328C566.847,-328 580.712,-328 594.117,-328"/>
<polygon fill="midnightblue" stroke="midnightblue" points="594.26,-331.5 604.26,-328 594.26,-324.5 594.26,-331.5"/>
</g>
</g>
</svg>
        <g id="navigator" transform="translate(0 0)" fill="#404254">
                <rect fill="#f2f5e9" fill-opacity="0.5" stroke="#606060" stroke-width=".5" x="0" y="0" width="60" height="60"/>
                <use id="zoomplus" xlink:href="#zoomPlus" x="17" y="9" onmousedown="handleZoom(evt,'in')"/>
                <use id="zoomminus" xlink:href="#zoomMin" x="42" y="9" onmousedown="handleZoom(evt,'out')"/>
                <use id="reset" xlink:href="#resetDef" x="30" y="36" onmousedown="handleReset()"/>
                <g id="arrowUp" xlink:href="#dirArrow" transform="translate(30 24)" onmousedown="handlePan(0,-1)">
                  <use xlink:href="#rim" fill="#404040">
                        <set attributeName="fill" to="#808080" begin="arrowUp.mouseover" end="arrowUp.mouseout"/>
                  </use>
                  <path fill="none" stroke="white" stroke-width="1.5" d="M0,-3.0v7 M-2.5,-0.5L0,-3.0L2.5,-0.5"/>
                </g>
                <g id="arrowRight" xlink:href="#dirArrow" transform="rotate(90) translate(36 -43)" onmousedown="handlePan(1,0)">
                  <use xlink:href="#rim" fill="#404040">
                        <set attributeName="fill" to="#808080" begin="arrowRight.mouseover" end="arrowRight.mouseout"/>
                  </use>
                  <path fill="none" stroke="white" stroke-width="1.5" d="M0,-3.0v7 M-2.5,-0.5L0,-3.0L2.5,-0.5"/>
                </g>
                <g id="arrowDown" xlink:href="#dirArrow" transform="rotate(180) translate(-30 -48)" onmousedown="handlePan(0,1)">
                  <use xlink:href="#rim" fill="#404040">
                        <set attributeName="fill" to="#808080" begin="arrowDown.mouseover" end="arrowDown.mouseout"/>
                  </use>
                  <path fill="none" stroke="white" stroke-width="1.5" d="M0,-3.0v7 M-2.5,-0.5L0,-3.0L2.5,-0.5"/>
                </g>
                <g id="arrowLeft" xlink:href="#dirArrow" transform="rotate(270) translate(-36 17)" onmousedown="handlePan(-1,0)">
                  <use xlink:href="#rim" fill="#404040">
                        <set attributeName="fill" to="#808080" begin="arrowLeft.mouseover" end="arrowLeft.mouseout"/>
                  </use>
                  <path fill="none" stroke="white" stroke-width="1.5" d="M0,-3.0v7 M-2.5,-0.5L0,-3.0L2.5,-0.5"/>
                </g>
        </g>
        <svg viewBox="0 0 15 15" width="100%" height="30px" preserveAspectRatio="xMaxYMin meet">
         <g id="arrow_out" transform="scale(0.3 0.3)">
          <a xlink:href="class_cell_society_view_a5962c47c9eb229da9c0d0669ef5c69b4_cgraph_org.svg" target="_base">
           <rect id="button" ry="5" rx="5" y="6" x="6" height="38" width="38"
                fill="#f2f5e9" fill-opacity="0.5" stroke="#606060" stroke-width="1.0"/>
           <path id="arrow"
             d="M 11.500037,31.436501 C 11.940474,20.09759 22.043105,11.32322 32.158766,21.979434 L 37.068811,17.246167 C 37.068811,17.246167 37.088388,32 37.088388,32 L 22.160133,31.978069 C 22.160133,31.978069 26.997745,27.140456 26.997745,27.140456 C 18.528582,18.264221 13.291696,25.230495 11.500037,31.436501 z"
             style="fill:#404040;"/>
          </a>
         </g>
        </svg>
</svg>
