<?xml version="1.0" encoding="UTF-8" standalone="no"?>
<!DOCTYPE svg PUBLIC "-//W3C//DTD SVG 1.1//EN"
 "http://www.w3.org/Graphics/SVG/1.1/DTD/svg11.dtd">
<!-- Generated by graphviz version 2.36.0 (20140111.2315)
 -->
<!-- Title: CellSocietyView.CellSocietyView Pages: 1 -->
<svg width="746pt" height="297pt"
 viewBox="0.00 0.00 746.00 297.00" xmlns="http://www.w3.org/2000/svg" xmlns:xlink="http://www.w3.org/1999/xlink">
<g id="graph0" class="graph" transform="scale(1 1) rotate(0) translate(4 293)">
<title>CellSocietyView.CellSocietyView</title>
<polygon fill="white" stroke="none" points="-4,4 -4,-293 742,-293 742,4 -4,4"/>
<!-- Node1 -->
<g id="node1" class="node"><title>Node1</title>
<polygon fill="#bfbfbf" stroke="black" points="0.5,-78.5 0.5,-97.5 167.5,-97.5 167.5,-78.5 0.5,-78.5"/>
<text text-anchor="middle" x="84" y="-85.5" font-family="Helvetica,sans-Serif" font-size="10.00">CellSocietyView.CellSocietyView</text>
</g>
<!-- Node2 -->
<g id="node2" class="node"><title>Node2</title>
<g id="a_node2"><a xlink:href="../../df/df8/class_cell_society_view.html#a5700799d24f6a9c1606d4d755468ee64" target="_top" xlink:title="CellSocietyView.configureUI">
<polygon fill="white" stroke="black" points="206.5,-147.5 206.5,-166.5 353.5,-166.5 353.5,-147.5 206.5,-147.5"/>
<text text-anchor="middle" x="280" y="-154.5" font-family="Helvetica,sans-Serif" font-size="10.00">CellSocietyView.configureUI</text>
</a>
</g>
</g>
<!-- Node1&#45;&gt;Node2 -->
<g id="edge1" class="edge"><title>Node1&#45;&gt;Node2</title>
<path fill="none" stroke="midnightblue" d="M105.753,-97.5113C129.256,-108.055 168.86,-125.136 204,-137 212.167,-139.757 220.936,-142.386 229.495,-144.777"/>
<polygon fill="midnightblue" stroke="midnightblue" points="228.831,-148.223 239.399,-147.469 230.667,-141.468 228.831,-148.223"/>
</g>
<!-- Node10 -->
<g id="node10" class="node"><title>Node10</title>
<g id="a_node10"><a xlink:href="../../df/df8/class_cell_society_view.html#a29bf7e6d5159d85db438d227b8fad270" target="_top" xlink:title="CellSocietyView.disableInitial\lButtons">
<polygon fill="white" stroke="black" points="204,-98 204,-128 356,-128 356,-98 204,-98"/>
<text text-anchor="start" x="212" y="-116" font-family="Helvetica,sans-Serif" font-size="10.00">CellSocietyView.disableInitial</text>
<text text-anchor="middle" x="280" y="-105" font-family="Helvetica,sans-Serif" font-size="10.00">Buttons</text>
</a>
</g>
</g>
<!-- Node1&#45;&gt;Node10 -->
<g id="edge9" class="edge"><title>Node1&#45;&gt;Node10</title>
<path fill="none" stroke="midnightblue" d="M158.897,-97.5227C170.243,-98.9849 182.037,-100.505 193.607,-101.996"/>
<polygon fill="midnightblue" stroke="midnightblue" points="193.335,-105.49 203.701,-103.296 194.23,-98.547 193.335,-105.49"/>
</g>
<!-- Node11 -->
<g id="node11" class="node"><title>Node11</title>
<g id="a_node11"><a xlink:href="../../df/df8/class_cell_society_view.html#ade3f6492149ed9473fb4a4d25d83b851" target="_top" xlink:title="CellSocietyView.initialize\lButtons">
<polygon fill="white" stroke="black" points="214.5,-49 214.5,-79 345.5,-79 345.5,-49 214.5,-49"/>
<text text-anchor="start" x="222.5" y="-67" font-family="Helvetica,sans-Serif" font-size="10.00">CellSocietyView.initialize</text>
<text text-anchor="middle" x="280" y="-56" font-family="Helvetica,sans-Serif" font-size="10.00">Buttons</text>
</a>
</g>
</g>
<!-- Node1&#45;&gt;Node11 -->
<g id="edge10" class="edge"><title>Node1&#45;&gt;Node11</title>
<path fill="none" stroke="midnightblue" d="M161.953,-78.4801C175.913,-76.753 190.453,-74.9542 204.347,-73.2355"/>
<polygon fill="midnightblue" stroke="midnightblue" points="204.837,-76.7016 214.331,-72.0003 203.977,-69.7546 204.837,-76.7016"/>
</g>
<!-- Node12 -->
<g id="node12" class="node"><title>Node12</title>
<g id="a_node12"><a xlink:href="../../df/df8/class_cell_society_view.html#a7c7df3379e37b9dee0ecfcc754bdf916" target="_top" xlink:title="CellSocietyView.setupGame\lScene">
<polygon fill="white" stroke="black" points="205.5,-0 205.5,-30 354.5,-30 354.5,-0 205.5,-0"/>
<text text-anchor="start" x="213.5" y="-18" font-family="Helvetica,sans-Serif" font-size="10.00">CellSocietyView.setupGame</text>
<text text-anchor="middle" x="280" y="-7" font-family="Helvetica,sans-Serif" font-size="10.00">Scene</text>
</a>
</g>
</g>
<!-- Node1&#45;&gt;Node12 -->
<g id="edge11" class="edge"><title>Node1&#45;&gt;Node12</title>
<path fill="none" stroke="midnightblue" d="M106.725,-78.4336C130.424,-68.1441 169.582,-51.5698 204,-39 209.217,-37.0948 214.667,-35.1898 220.144,-33.3331"/>
<polygon fill="midnightblue" stroke="midnightblue" points="221.608,-36.5345 229.989,-30.0533 219.396,-29.8934 221.608,-36.5345"/>
</g>
<!-- Node3 -->
<g id="node3" class="node"><title>Node3</title>
<g id="a_node3"><a xlink:href="../../df/df8/class_cell_society_view.html#a330d0d6412aace5de81b9d27a0a1c62d" target="_top" xlink:title="CellSocietyView.createTitle">
<polygon fill="white" stroke="black" points="406.5,-264.5 406.5,-283.5 549.5,-283.5 549.5,-264.5 406.5,-264.5"/>
<text text-anchor="middle" x="478" y="-271.5" font-family="Helvetica,sans-Serif" font-size="10.00">CellSocietyView.createTitle</text>
</a>
</g>
</g>
<!-- Node2&#45;&gt;Node3 -->
<g id="edge2" class="edge"><title>Node2&#45;&gt;Node3</title>
<path fill="none" stroke="midnightblue" d="M289.082,-166.71C306.02,-186.395 347.384,-231.076 392,-254 397.575,-256.864 403.566,-259.325 409.694,-261.438"/>
<polygon fill="midnightblue" stroke="midnightblue" points="408.806,-264.828 419.395,-264.48 410.9,-258.148 408.806,-264.828"/>
</g>
<!-- Node5 -->
<g id="node5" class="node"><title>Node5</title>
<g id="a_node5"><a xlink:href="../../df/df8/class_cell_society_view.html#a5267d613dcd4adf7c93e6a6dc9f1cd26" target="_top" xlink:title="CellSocietyView.makeSimulation\lButtons">
<polygon fill="white" stroke="black" points="392.5,-215 392.5,-245 563.5,-245 563.5,-215 392.5,-215"/>
<text text-anchor="start" x="400.5" y="-233" font-family="Helvetica,sans-Serif" font-size="10.00">CellSocietyView.makeSimulation</text>
<text text-anchor="middle" x="478" y="-222" font-family="Helvetica,sans-Serif" font-size="10.00">Buttons</text>
</a>
</g>
</g>
<!-- Node2&#45;&gt;Node5 -->
<g id="edge4" class="edge"><title>Node2&#45;&gt;Node5</title>
<path fill="none" stroke="midnightblue" d="M301.158,-166.604C323.173,-176.882 359.621,-193.287 392,-205 398.663,-207.41 405.68,-209.762 412.708,-212"/>
<polygon fill="midnightblue" stroke="midnightblue" points="411.678,-215.345 422.266,-214.974 413.757,-208.661 411.678,-215.345"/>
</g>
<!-- Node6 -->
<g id="node6" class="node"><title>Node6</title>
<g id="a_node6"><a xlink:href="../../df/df8/class_cell_society_view.html#accc93b8d859185496ec792a1bad1616d" target="_top" xlink:title="CellSocietyView.makeFrame\lControlButtons">
<polygon fill="white" stroke="black" points="403,-166 403,-196 553,-196 553,-166 403,-166"/>
<text text-anchor="start" x="411" y="-184" font-family="Helvetica,sans-Serif" font-size="10.00">CellSocietyView.makeFrame</text>
<text text-anchor="middle" x="478" y="-173" font-family="Helvetica,sans-Serif" font-size="10.00">ControlButtons</text>
</a>
</g>
</g>
<!-- Node2&#45;&gt;Node6 -->
<g id="edge5" class="edge"><title>Node2&#45;&gt;Node6</title>
<path fill="none" stroke="midnightblue" d="M353.705,-165.903C366.341,-167.45 379.58,-169.071 392.5,-170.653"/>
<polygon fill="midnightblue" stroke="midnightblue" points="392.425,-174.17 402.776,-171.911 393.275,-167.222 392.425,-174.17"/>
</g>
<!-- Node7 -->
<g id="node7" class="node"><title>Node7</title>
<g id="a_node7"><a xlink:href="../../df/df8/class_cell_society_view.html#a3fe30cb4101a6ab480305dcf07daf95f" target="_top" xlink:title="CellSocietyView.makeSpeed\lDisplay">
<polygon fill="white" stroke="black" points="402.5,-117 402.5,-147 553.5,-147 553.5,-117 402.5,-117"/>
<text text-anchor="start" x="410.5" y="-135" font-family="Helvetica,sans-Serif" font-size="10.00">CellSocietyView.makeSpeed</text>
<text text-anchor="middle" x="478" y="-124" font-family="Helvetica,sans-Serif" font-size="10.00">Display</text>
</a>
</g>
</g>
<!-- Node2&#45;&gt;Node7 -->
<g id="edge6" class="edge"><title>Node2&#45;&gt;Node7</title>
<path fill="none" stroke="midnightblue" d="M353.705,-147.726C366.255,-146.126 379.4,-144.449 392.237,-142.812"/>
<polygon fill="midnightblue" stroke="midnightblue" points="392.971,-146.246 402.448,-141.509 392.085,-139.303 392.971,-146.246"/>
</g>
<!-- Node8 -->
<g id="node8" class="node"><title>Node8</title>
<g id="a_node8"><a xlink:href="../../df/df8/class_cell_society_view.html#a591320c85d7b334d166bd59d9cdb6ecb" target="_top" xlink:title="CellSocietyView.createError\lLocation">
<polygon fill="white" stroke="black" points="404.5,-68 404.5,-98 551.5,-98 551.5,-68 404.5,-68"/>
<text text-anchor="start" x="412.5" y="-86" font-family="Helvetica,sans-Serif" font-size="10.00">CellSocietyView.createError</text>
<text text-anchor="middle" x="478" y="-75" font-family="Helvetica,sans-Serif" font-size="10.00">Location</text>
</a>
</g>
</g>
<!-- Node2&#45;&gt;Node8 -->
<g id="edge7" class="edge"><title>Node2&#45;&gt;Node8</title>
<path fill="none" stroke="midnightblue" d="M329.373,-147.418C338.488,-144.698 347.742,-141.275 356,-137 374.496,-127.425 373.574,-116.709 392,-107 395.487,-105.163 399.13,-103.452 402.864,-101.862"/>
<polygon fill="midnightblue" stroke="midnightblue" points="404.268,-105.071 412.292,-98.1522 401.705,-98.5569 404.268,-105.071"/>
</g>
<!-- Node9 -->
<g id="node9" class="node"><title>Node9</title>
<g id="a_node9"><a xlink:href="../../df/df8/class_cell_society_view.html#a93d717f320a90984d01aff041e5a867b" target="_top" xlink:title="CellSocietyView.initialize\lChart">
<polygon fill="white" stroke="black" points="412.5,-19 412.5,-49 543.5,-49 543.5,-19 412.5,-19"/>
<text text-anchor="start" x="420.5" y="-37" font-family="Helvetica,sans-Serif" font-size="10.00">CellSocietyView.initialize</text>
<text text-anchor="middle" x="478" y="-26" font-family="Helvetica,sans-Serif" font-size="10.00">Chart</text>
</a>
</g>
</g>
<!-- Node2&#45;&gt;Node9 -->
<g id="edge8" class="edge"><title>Node2&#45;&gt;Node9</title>
<path fill="none" stroke="midnightblue" d="M338.54,-147.442C344.858,-144.765 350.855,-141.351 356,-137 385.464,-112.087 362.719,-83.1276 392,-58 395.431,-55.0557 399.199,-52.4713 403.181,-50.2029"/>
<polygon fill="midnightblue" stroke="midnightblue" points="404.795,-53.3092 412.193,-45.7247 401.68,-47.0405 404.795,-53.3092"/>
</g>
<!-- Node4 -->
<g id="node4" class="node"><title>Node4</title>
<g id="a_node4"><a xlink:href="../../df/df8/class_cell_society_view.html#a45365a3c2504cf68a47ee8abdfbbcdf1" target="_top" xlink:title="CellSocietyView.generate\lTitle">
<polygon fill="white" stroke="black" points="600.5,-259 600.5,-289 737.5,-289 737.5,-259 600.5,-259"/>
<text text-anchor="start" x="608.5" y="-277" font-family="Helvetica,sans-Serif" font-size="10.00">CellSocietyView.generate</text>
<text text-anchor="middle" x="669" y="-266" font-family="Helvetica,sans-Serif" font-size="10.00">Title</text>
</a>
</g>
</g>
<!-- Node3&#45;&gt;Node4 -->
<g id="edge3" class="edge"><title>Node3&#45;&gt;Node4</title>
<path fill="none" stroke="midnightblue" d="M549.645,-274C562.847,-274 576.712,-274 590.117,-274"/>
<polygon fill="midnightblue" stroke="midnightblue" points="590.26,-277.5 600.26,-274 590.26,-270.5 590.26,-277.5"/>
</g>
</g>
</svg>
