<?xml version="1.0" encoding="UTF-8" standalone="no"?>
<!DOCTYPE svg PUBLIC "-//W3C//DTD SVG 1.1//EN"
 "http://www.w3.org/Graphics/SVG/1.1/DTD/svg11.dtd">
<!-- Generated by graphviz version 2.36.0 (20140111.2315)
 -->
<!-- Title: CellSocietyView.CellSocietyView Pages: 1 -->
<svg width="760pt" height="336pt"
 viewBox="0.00 0.00 760.00 336.00" xmlns="http://www.w3.org/2000/svg" xmlns:xlink="http://www.w3.org/1999/xlink">
<g id="graph0" class="graph" transform="scale(1 1) rotate(0) translate(4 332)">
<title>CellSocietyView.CellSocietyView</title>
<polygon fill="white" stroke="none" points="-4,4 -4,-332 756,-332 756,4 -4,4"/>
<!-- Node1 -->
<g id="node1" class="node"><title>Node1</title>
<polygon fill="#bfbfbf" stroke="black" points="0.5,-93.5 0.5,-112.5 167.5,-112.5 167.5,-93.5 0.5,-93.5"/>
<text text-anchor="middle" x="84" y="-100.5" font-family="Helvetica,sans-Serif" font-size="10.00">CellSocietyView.CellSocietyView</text>
</g>
<!-- Node2 -->
<g id="node2" class="node"><title>Node2</title>
<g id="a_node2"><a xlink:href="../../df/df8/class_cell_society_view.html#a5700799d24f6a9c1606d4d755468ee64" target="_top" xlink:title="CellSocietyView.configureUI">
<polygon fill="white" stroke="black" points="213.5,-186.5 213.5,-205.5 360.5,-205.5 360.5,-186.5 213.5,-186.5"/>
<text text-anchor="middle" x="287" y="-193.5" font-family="Helvetica,sans-Serif" font-size="10.00">CellSocietyView.configureUI</text>
</a>
</g>
</g>
<!-- Node1&#45;&gt;Node2 -->
<g id="edge1" class="edge"><title>Node1&#45;&gt;Node2</title>
<path fill="none" stroke="midnightblue" d="M97.4921,-112.501C118.423,-127.983 162.386,-158.663 204,-176 211.133,-178.972 218.807,-181.568 226.496,-183.817"/>
<polygon fill="midnightblue" stroke="midnightblue" points="225.635,-187.21 236.205,-186.482 227.488,-180.46 225.635,-187.21"/>
</g>
<!-- Node10 -->
<g id="node10" class="node"><title>Node10</title>
<g id="a_node10"><a xlink:href="../../df/df8/class_cell_society_view.html#a29bf7e6d5159d85db438d227b8fad270" target="_top" xlink:title="CellSocietyView.disableInitial\lButtons">
<polygon fill="white" stroke="black" points="211,-137 211,-167 363,-167 363,-137 211,-137"/>
<text text-anchor="start" x="219" y="-155" font-family="Helvetica,sans-Serif" font-size="10.00">CellSocietyView.disableInitial</text>
<text text-anchor="middle" x="287" y="-144" font-family="Helvetica,sans-Serif" font-size="10.00">Buttons</text>
</a>
</g>
</g>
<!-- Node1&#45;&gt;Node10 -->
<g id="edge9" class="edge"><title>Node1&#45;&gt;Node10</title>
<path fill="none" stroke="midnightblue" d="M124.232,-112.564C149.901,-118.822 184.194,-127.182 214.599,-134.594"/>
<polygon fill="midnightblue" stroke="midnightblue" points="213.773,-137.995 224.318,-136.963 215.431,-131.194 213.773,-137.995"/>
</g>
<!-- Node11 -->
<g id="node11" class="node"><title>Node11</title>
<g id="a_node11"><a xlink:href="../../df/df8/class_cell_society_view.html#ade3f6492149ed9473fb4a4d25d83b851" target="_top" xlink:title="CellSocietyView.initialize\lButtons">
<polygon fill="white" stroke="black" points="221.5,-88 221.5,-118 352.5,-118 352.5,-88 221.5,-88"/>
<text text-anchor="start" x="229.5" y="-106" font-family="Helvetica,sans-Serif" font-size="10.00">CellSocietyView.initialize</text>
<text text-anchor="middle" x="287" y="-95" font-family="Helvetica,sans-Serif" font-size="10.00">Buttons</text>
</a>
</g>
</g>
<!-- Node1&#45;&gt;Node11 -->
<g id="edge10" class="edge"><title>Node1&#45;&gt;Node11</title>
<path fill="none" stroke="midnightblue" d="M167.625,-103C182.001,-103 196.882,-103 211.038,-103"/>
<polygon fill="midnightblue" stroke="midnightblue" points="211.201,-106.5 221.201,-103 211.201,-99.5001 211.201,-106.5"/>
</g>
<!-- Node12 -->
<g id="node12" class="node"><title>Node12</title>
<g id="a_node12"><a xlink:href="../../df/df8/class_cell_society_view.html#ab0adb0e17b74be4e0192b02e2116e4a1" target="_top" xlink:title="CellSocietyView.openDialogBox">
<polygon fill="white" stroke="black" points="204.5,-49.5 204.5,-68.5 369.5,-68.5 369.5,-49.5 204.5,-49.5"/>
<text text-anchor="middle" x="287" y="-56.5" font-family="Helvetica,sans-Serif" font-size="10.00">CellSocietyView.openDialogBox</text>
</a>
</g>
</g>
<!-- Node1&#45;&gt;Node12 -->
<g id="edge11" class="edge"><title>Node1&#45;&gt;Node12</title>
<path fill="none" stroke="midnightblue" d="M128.614,-93.4527C159.168,-86.7643 200.181,-77.7863 232.68,-70.6721"/>
<polygon fill="midnightblue" stroke="midnightblue" points="233.451,-74.0862 242.471,-68.5287 231.954,-67.2482 233.451,-74.0862"/>
</g>
<!-- Node13 -->
<g id="node13" class="node"><title>Node13</title>
<g id="a_node13"><a xlink:href="../../df/df8/class_cell_society_view.html#a7c7df3379e37b9dee0ecfcc754bdf916" target="_top" xlink:title="CellSocietyView.setupGame\lScene">
<polygon fill="white" stroke="black" points="212.5,-0 212.5,-30 361.5,-30 361.5,-0 212.5,-0"/>
<text text-anchor="start" x="220.5" y="-18" font-family="Helvetica,sans-Serif" font-size="10.00">CellSocietyView.setupGame</text>
<text text-anchor="middle" x="287" y="-7" font-family="Helvetica,sans-Serif" font-size="10.00">Scene</text>
</a>
</g>
</g>
<!-- Node1&#45;&gt;Node13 -->
<g id="edge12" class="edge"><title>Node1&#45;&gt;Node13</title>
<path fill="none" stroke="midnightblue" d="M100.698,-93.4392C123.03,-80.1311 165.537,-55.8739 204,-40 209.688,-37.6526 215.677,-35.4113 221.722,-33.3032"/>
<polygon fill="midnightblue" stroke="midnightblue" points="222.871,-36.6097 231.233,-30.1038 220.639,-29.9751 222.871,-36.6097"/>
</g>
<!-- Node3 -->
<g id="node3" class="node"><title>Node3</title>
<g id="a_node3"><a xlink:href="../../df/df8/class_cell_society_view.html#a330d0d6412aace5de81b9d27a0a1c62d" target="_top" xlink:title="CellSocietyView.createTitle">
<polygon fill="white" stroke="black" points="420.5,-303.5 420.5,-322.5 563.5,-322.5 563.5,-303.5 420.5,-303.5"/>
<text text-anchor="middle" x="492" y="-310.5" font-family="Helvetica,sans-Serif" font-size="10.00">CellSocietyView.createTitle</text>
</a>
</g>
</g>
<!-- Node2&#45;&gt;Node3 -->
<g id="edge2" class="edge"><title>Node2&#45;&gt;Node3</title>
<path fill="none" stroke="midnightblue" d="M296.73,-205.688C314.994,-225.333 359.415,-269.945 406,-293 411.707,-295.824 417.829,-298.26 424.076,-300.359"/>
<polygon fill="midnightblue" stroke="midnightblue" points="423.369,-303.803 433.955,-303.387 425.42,-297.11 423.369,-303.803"/>
</g>
<!-- Node5 -->
<g id="node5" class="node"><title>Node5</title>
<g id="a_node5"><a xlink:href="../../df/df8/class_cell_society_view.html#a5267d613dcd4adf7c93e6a6dc9f1cd26" target="_top" xlink:title="CellSocietyView.makeSimulation\lButtons">
<polygon fill="white" stroke="black" points="406.5,-254 406.5,-284 577.5,-284 577.5,-254 406.5,-254"/>
<text text-anchor="start" x="414.5" y="-272" font-family="Helvetica,sans-Serif" font-size="10.00">CellSocietyView.makeSimulation</text>
<text text-anchor="middle" x="492" y="-261" font-family="Helvetica,sans-Serif" font-size="10.00">Buttons</text>
</a>
</g>
</g>
<!-- Node2&#45;&gt;Node5 -->
<g id="edge4" class="edge"><title>Node2&#45;&gt;Node5</title>
<path fill="none" stroke="midnightblue" d="M309.499,-205.506C332.963,-215.701 371.76,-232.034 406,-244 412.788,-246.372 419.932,-248.712 427.075,-250.952"/>
<polygon fill="midnightblue" stroke="midnightblue" points="426.194,-254.342 436.782,-253.938 428.253,-247.652 426.194,-254.342"/>
</g>
<!-- Node6 -->
<g id="node6" class="node"><title>Node6</title>
<g id="a_node6"><a xlink:href="../../df/df8/class_cell_society_view.html#accc93b8d859185496ec792a1bad1616d" target="_top" xlink:title="CellSocietyView.makeFrame\lControlButtons">
<polygon fill="white" stroke="black" points="417,-205 417,-235 567,-235 567,-205 417,-205"/>
<text text-anchor="start" x="425" y="-223" font-family="Helvetica,sans-Serif" font-size="10.00">CellSocietyView.makeFrame</text>
<text text-anchor="middle" x="492" y="-212" font-family="Helvetica,sans-Serif" font-size="10.00">ControlButtons</text>
</a>
</g>
</g>
<!-- Node2&#45;&gt;Node6 -->
<g id="edge5" class="edge"><title>Node2&#45;&gt;Node6</title>
<path fill="none" stroke="midnightblue" d="M360.714,-204.597C375.646,-206.362 391.484,-208.235 406.783,-210.043"/>
<polygon fill="midnightblue" stroke="midnightblue" points="406.401,-213.522 416.743,-211.221 407.223,-206.571 406.401,-213.522"/>
</g>
<!-- Node7 -->
<g id="node7" class="node"><title>Node7</title>
<g id="a_node7"><a xlink:href="../../df/df8/class_cell_society_view.html#a3fe30cb4101a6ab480305dcf07daf95f" target="_top" xlink:title="CellSocietyView.makeSpeed\lDisplay">
<polygon fill="white" stroke="black" points="416.5,-156 416.5,-186 567.5,-186 567.5,-156 416.5,-156"/>
<text text-anchor="start" x="424.5" y="-174" font-family="Helvetica,sans-Serif" font-size="10.00">CellSocietyView.makeSpeed</text>
<text text-anchor="middle" x="492" y="-163" font-family="Helvetica,sans-Serif" font-size="10.00">Display</text>
</a>
</g>
</g>
<!-- Node2&#45;&gt;Node7 -->
<g id="edge6" class="edge"><title>Node2&#45;&gt;Node7</title>
<path fill="none" stroke="midnightblue" d="M360.714,-187.045C375.412,-185.235 390.987,-183.317 406.061,-181.46"/>
<polygon fill="midnightblue" stroke="midnightblue" points="406.903,-184.883 416.4,-180.187 406.047,-177.936 406.903,-184.883"/>
</g>
<!-- Node8 -->
<g id="node8" class="node"><title>Node8</title>
<g id="a_node8"><a xlink:href="../../df/df8/class_cell_society_view.html#a591320c85d7b334d166bd59d9cdb6ecb" target="_top" xlink:title="CellSocietyView.createError\lLocation">
<polygon fill="white" stroke="black" points="418.5,-107 418.5,-137 565.5,-137 565.5,-107 418.5,-107"/>
<text text-anchor="start" x="426.5" y="-125" font-family="Helvetica,sans-Serif" font-size="10.00">CellSocietyView.createError</text>
<text text-anchor="middle" x="492" y="-114" font-family="Helvetica,sans-Serif" font-size="10.00">Location</text>
</a>
</g>
</g>
<!-- Node2&#45;&gt;Node8 -->
<g id="edge7" class="edge"><title>Node2&#45;&gt;Node8</title>
<path fill="none" stroke="midnightblue" d="M342.129,-186.379C351.678,-183.686 361.328,-180.282 370,-176 388.422,-166.903 387.796,-156.526 406,-147 410.289,-144.756 414.808,-142.686 419.435,-140.78"/>
<polygon fill="midnightblue" stroke="midnightblue" points="420.961,-143.944 429.047,-137.099 418.457,-137.407 420.961,-143.944"/>
</g>
<!-- Node9 -->
<g id="node9" class="node"><title>Node9</title>
<g id="a_node9"><a xlink:href="../../df/df8/class_cell_society_view.html#a93d717f320a90984d01aff041e5a867b" target="_top" xlink:title="CellSocietyView.initialize\lChart">
<polygon fill="white" stroke="black" points="426.5,-58 426.5,-88 557.5,-88 557.5,-58 426.5,-58"/>
<text text-anchor="start" x="434.5" y="-76" font-family="Helvetica,sans-Serif" font-size="10.00">CellSocietyView.initialize</text>
<text text-anchor="middle" x="492" y="-65" font-family="Helvetica,sans-Serif" font-size="10.00">Chart</text>
</a>
</g>
</g>
<!-- Node2&#45;&gt;Node9 -->
<g id="edge8" class="edge"><title>Node2&#45;&gt;Node9</title>
<path fill="none" stroke="midnightblue" d="M352.525,-186.38C358.832,-183.695 364.807,-180.297 370,-176 399.728,-151.403 376.719,-122.128 406,-97 409.431,-94.0557 413.199,-91.4713 417.181,-89.2029"/>
<polygon fill="midnightblue" stroke="midnightblue" points="418.795,-92.3092 426.193,-84.7247 415.68,-86.0405 418.795,-92.3092"/>
</g>
<!-- Node4 -->
<g id="node4" class="node"><title>Node4</title>
<g id="a_node4"><a xlink:href="../../df/df8/class_cell_society_view.html#a45365a3c2504cf68a47ee8abdfbbcdf1" target="_top" xlink:title="CellSocietyView.generate\lTitle">
<polygon fill="white" stroke="black" points="614.5,-298 614.5,-328 751.5,-328 751.5,-298 614.5,-298"/>
<text text-anchor="start" x="622.5" y="-316" font-family="Helvetica,sans-Serif" font-size="10.00">CellSocietyView.generate</text>
<text text-anchor="middle" x="683" y="-305" font-family="Helvetica,sans-Serif" font-size="10.00">Title</text>
</a>
</g>
</g>
<!-- Node3&#45;&gt;Node4 -->
<g id="edge3" class="edge"><title>Node3&#45;&gt;Node4</title>
<path fill="none" stroke="midnightblue" d="M563.645,-313C576.847,-313 590.712,-313 604.117,-313"/>
<polygon fill="midnightblue" stroke="midnightblue" points="604.26,-316.5 614.26,-313 604.26,-309.5 604.26,-316.5"/>
</g>
</g>
</svg>
