<?xml version="1.0" encoding="UTF-8" standalone="no"?>
<!DOCTYPE svg PUBLIC "-//W3C//DTD SVG 1.1//EN"
 "http://www.w3.org/Graphics/SVG/1.1/DTD/svg11.dtd">
<!-- Generated by graphviz version 2.36.0 (20140111.2315)
 -->
<!-- Title: CellSocietyView.createErrorLocation Pages: 1 -->
<svg width="544pt" height="38pt"
 viewBox="0.00 0.00 544.00 38.00" xmlns="http://www.w3.org/2000/svg" xmlns:xlink="http://www.w3.org/1999/xlink">
<g id="graph0" class="graph" transform="scale(1 1) rotate(0) translate(4 34)">
<title>CellSocietyView.createErrorLocation</title>
<polygon fill="white" stroke="none" points="-4,4 -4,-34 540,-34 540,4 -4,4"/>
<!-- Node1 -->
<g id="node1" class="node"><title>Node1</title>
<polygon fill="#bfbfbf" stroke="black" points="0.5,-0 0.5,-30 147.5,-30 147.5,-0 0.5,-0"/>
<text text-anchor="start" x="8.5" y="-18" font-family="Helvetica,sans-Serif" font-size="10.00">CellSocietyView.createError</text>
<text text-anchor="middle" x="74" y="-7" font-family="Helvetica,sans-Serif" font-size="10.00">Location</text>
</g>
<!-- Node2 -->
<g id="node2" class="node"><title>Node2</title>
<g id="a_node2"><a xlink:href="../../df/df8/class_cell_society_view.html#a5700799d24f6a9c1606d4d755468ee64" target="_top" xlink:title="CellSocietyView.configureUI">
<polygon fill="white" stroke="black" points="184.5,-5.5 184.5,-24.5 331.5,-24.5 331.5,-5.5 184.5,-5.5"/>
<text text-anchor="middle" x="258" y="-12.5" font-family="Helvetica,sans-Serif" font-size="10.00">CellSocietyView.configureUI</text>
</a>
</g>
</g>
<!-- Node1&#45;&gt;Node2 -->
<g id="edge1" class="edge"><title>Node1&#45;&gt;Node2</title>
<path fill="none" stroke="midnightblue" d="M157.994,-15C166.806,-15 175.72,-15 184.4,-15"/>
<polygon fill="midnightblue" stroke="midnightblue" points="157.716,-11.5001 147.716,-15 157.716,-18.5001 157.716,-11.5001"/>
</g>
<!-- Node3 -->
<g id="node3" class="node"><title>Node3</title>
<g id="a_node3"><a xlink:href="../../df/df8/class_cell_society_view.html#a5962c47c9eb229da9c0d0669ef5c69b4" target="_top" xlink:title="CellSocietyView.CellSocietyView">
<polygon fill="white" stroke="black" points="368.5,-5.5 368.5,-24.5 535.5,-24.5 535.5,-5.5 368.5,-5.5"/>
<text text-anchor="middle" x="452" y="-12.5" font-family="Helvetica,sans-Serif" font-size="10.00">CellSocietyView.CellSocietyView</text>
</a>
</g>
</g>
<!-- Node2&#45;&gt;Node3 -->
<g id="edge2" class="edge"><title>Node2&#45;&gt;Node3</title>
<path fill="none" stroke="midnightblue" d="M341.817,-15C350.606,-15 359.545,-15 368.332,-15"/>
<polygon fill="midnightblue" stroke="midnightblue" points="341.587,-11.5001 331.587,-15 341.587,-18.5001 341.587,-11.5001"/>
</g>
</g>
</svg>
