<?xml version="1.0" encoding="UTF-8" standalone="no"?>
<!DOCTYPE svg PUBLIC "-//W3C//DTD SVG 1.1//EN"
 "http://www.w3.org/Graphics/SVG/1.1/DTD/svg11.dtd">
<!-- Generated by graphviz version 2.36.0 (20140111.2315)
 -->
<!-- Title: CellSocietyView.setButtonsPause Pages: 1 -->
<svg width="886pt" height="79pt"
 viewBox="0.00 0.00 886.00 79.39" xmlns="http://www.w3.org/2000/svg" xmlns:xlink="http://www.w3.org/1999/xlink">
<g id="graph0" class="graph" transform="scale(1 1) rotate(0) translate(4 75.3907)">
<title>CellSocietyView.setButtonsPause</title>
<polygon fill="white" stroke="none" points="-4,4 -4,-75.3907 882,-75.3907 882,4 -4,4"/>
<!-- Node1 -->
<g id="node1" class="node"><title>Node1</title>
<polygon fill="#bfbfbf" stroke="black" points="0,-14 0,-44 146,-44 146,-14 0,-14"/>
<text text-anchor="start" x="8" y="-32" font-family="Helvetica,sans-Serif" font-size="10.00">CellSocietyView.setButtons</text>
<text text-anchor="middle" x="73" y="-21" font-family="Helvetica,sans-Serif" font-size="10.00">Pause</text>
</g>
<!-- Node2 -->
<g id="node2" class="node"><title>Node2</title>
<g id="a_node2"><a xlink:href="../../d3/dff/class_cell_society.html#ae565a305ea53e5a37da9816a236b4fbc" target="_top" xlink:title="CellSociety.pauseAnimation">
<polygon fill="white" stroke="black" points="182.5,-38.5 182.5,-57.5 331.5,-57.5 331.5,-38.5 182.5,-38.5"/>
<text text-anchor="middle" x="257" y="-45.5" font-family="Helvetica,sans-Serif" font-size="10.00">CellSociety.pauseAnimation</text>
</a>
</g>
</g>
<!-- Node1&#45;&gt;Node2 -->
<g id="edge1" class="edge"><title>Node1&#45;&gt;Node2</title>
<path fill="none" stroke="midnightblue" d="M156.329,-37.5947C165.021,-38.5022 173.82,-39.4207 182.404,-40.3169"/>
<polygon fill="midnightblue" stroke="midnightblue" points="156.502,-34.0939 146.193,-36.5366 155.775,-41.0561 156.502,-34.0939"/>
</g>
<!-- Node6 -->
<g id="node6" class="node"><title>Node6</title>
<g id="a_node6"><a xlink:href="../../d3/dff/class_cell_society.html#a6a4056cd40e4162583f2b9845b77a191" target="_top" xlink:title="CellSociety.resumeAnimation">
<polygon fill="white" stroke="black" points="368,-0.5 368,-19.5 524,-19.5 524,-0.5 368,-0.5"/>
<text text-anchor="middle" x="446" y="-7.5" font-family="Helvetica,sans-Serif" font-size="10.00">CellSociety.resumeAnimation</text>
</a>
</g>
</g>
<!-- Node1&#45;&gt;Node6 -->
<g id="edge6" class="edge"><title>Node1&#45;&gt;Node6</title>
<path fill="none" stroke="midnightblue" d="M156.737,-24.7628C219.897,-21.5282 306.278,-17.1044 367.976,-13.9446"/>
<polygon fill="midnightblue" stroke="midnightblue" points="156.221,-21.2845 146.413,-25.2915 156.579,-28.2754 156.221,-21.2845"/>
</g>
<!-- Node3 -->
<g id="node3" class="node"><title>Node3</title>
<g id="a_node3"><a xlink:href="../../d3/dff/class_cell_society.html#a656ff46d1459fb7f86b42e3c542506ee" target="_top" xlink:title="CellSociety.configureListeners">
<polygon fill="white" stroke="black" points="560,-38.5 560,-57.5 718,-57.5 718,-38.5 560,-38.5"/>
<text text-anchor="middle" x="639" y="-45.5" font-family="Helvetica,sans-Serif" font-size="10.00">CellSociety.configureListeners</text>
</a>
</g>
</g>
<!-- Node2&#45;&gt;Node3 -->
<g id="edge2" class="edge"><title>Node2&#45;&gt;Node3</title>
<path fill="none" stroke="midnightblue" d="M312.804,-59.3644C330.354,-62.4927 349.922,-65.4502 368,-67 437.08,-72.9221 454.903,-72.7187 524,-67 546.396,-65.1465 571.016,-61.2781 591.627,-57.5126"/>
<polygon fill="midnightblue" stroke="midnightblue" points="313.199,-55.8784 302.731,-57.5121 311.933,-62.7629 313.199,-55.8784"/>
</g>
<!-- Node5 -->
<g id="node5" class="node"><title>Node5</title>
<g id="a_node5"><a xlink:href="../../d3/dff/class_cell_society.html#af9f22af39a97a58b26126020ca6c8844" target="_top" xlink:title="CellSociety.readNewXML">
<polygon fill="white" stroke="black" points="380,-38.5 380,-57.5 512,-57.5 512,-38.5 380,-38.5"/>
<text text-anchor="middle" x="446" y="-45.5" font-family="Helvetica,sans-Serif" font-size="10.00">CellSociety.readNewXML</text>
</a>
</g>
</g>
<!-- Node2&#45;&gt;Node5 -->
<g id="edge4" class="edge"><title>Node2&#45;&gt;Node5</title>
<path fill="none" stroke="midnightblue" d="M341.818,-48C354.599,-48 367.623,-48 379.923,-48"/>
<polygon fill="midnightblue" stroke="midnightblue" points="341.639,-44.5001 331.639,-48 341.639,-51.5001 341.639,-44.5001"/>
</g>
<!-- Node4 -->
<g id="node4" class="node"><title>Node4</title>
<g id="a_node4"><a xlink:href="../../d3/dff/class_cell_society.html#ac5e08680a3da358d402461bc25aa1727" target="_top" xlink:title="CellSociety.CellSociety">
<polygon fill="white" stroke="black" points="754.5,-38.5 754.5,-57.5 877.5,-57.5 877.5,-38.5 754.5,-38.5"/>
<text text-anchor="middle" x="816" y="-45.5" font-family="Helvetica,sans-Serif" font-size="10.00">CellSociety.CellSociety</text>
</a>
</g>
</g>
<!-- Node3&#45;&gt;Node4 -->
<g id="edge3" class="edge"><title>Node3&#45;&gt;Node4</title>
<path fill="none" stroke="midnightblue" d="M728.087,-48C737.007,-48 745.919,-48 754.452,-48"/>
<polygon fill="midnightblue" stroke="midnightblue" points="728.032,-44.5001 718.032,-48 728.032,-51.5001 728.032,-44.5001"/>
</g>
<!-- Node5&#45;&gt;Node3 -->
<g id="edge5" class="edge"><title>Node5&#45;&gt;Node3</title>
<path fill="none" stroke="midnightblue" d="M522.416,-48C534.735,-48 547.52,-48 559.902,-48"/>
<polygon fill="midnightblue" stroke="midnightblue" points="522.197,-44.5001 512.197,-48 522.197,-51.5001 522.197,-44.5001"/>
</g>
<!-- Node6&#45;&gt;Node3 -->
<g id="edge7" class="edge"><title>Node6&#45;&gt;Node3</title>
<path fill="none" stroke="midnightblue" d="M505.353,-21.6095C532.518,-27.014 564.432,-33.3635 590.149,-38.4799"/>
<polygon fill="midnightblue" stroke="midnightblue" points="505.688,-18.1076 495.197,-19.589 504.322,-24.9731 505.688,-18.1076"/>
</g>
</g>
</svg>
