<?xml version="1.0" encoding="UTF-8" standalone="no"?>
<!DOCTYPE svg PUBLIC "-//W3C//DTD SVG 1.1//EN"
 "http://www.w3.org/Graphics/SVG/1.1/DTD/svg11.dtd">
<!-- Generated by graphviz version 2.36.0 (20140111.2315)
 -->
<!-- Title: CellSocietyView.configureUI Pages: 1 -->
<svg width="538pt" height="224pt"
 viewBox="0.00 0.00 538.00 224.00" xmlns="http://www.w3.org/2000/svg" xmlns:xlink="http://www.w3.org/1999/xlink">
<g id="graph0" class="graph" transform="scale(1 1) rotate(0) translate(4 220)">
<title>CellSocietyView.configureUI</title>
<polygon fill="white" stroke="none" points="-4,4 -4,-220 534,-220 534,4 -4,4"/>
<!-- Node1 -->
<g id="node1" class="node"><title>Node1</title>
<polygon fill="#bfbfbf" stroke="black" points="0.5,-103.5 0.5,-122.5 147.5,-122.5 147.5,-103.5 0.5,-103.5"/>
<text text-anchor="middle" x="74" y="-110.5" font-family="Helvetica,sans-Serif" font-size="10.00">CellSocietyView.configureUI</text>
</g>
<!-- Node2 -->
<g id="node2" class="node"><title>Node2</title>
<g id="a_node2"><a xlink:href="../../df/df8/class_cell_society_view.html#a591320c85d7b334d166bd59d9cdb6ecb" target="_top" xlink:title="CellSocietyView.createError\lLocation">
<polygon fill="white" stroke="black" points="196.5,-186 196.5,-216 343.5,-216 343.5,-186 196.5,-186"/>
<text text-anchor="start" x="204.5" y="-204" font-family="Helvetica,sans-Serif" font-size="10.00">CellSocietyView.createError</text>
<text text-anchor="middle" x="270" y="-193" font-family="Helvetica,sans-Serif" font-size="10.00">Location</text>
</a>
</g>
</g>
<!-- Node1&#45;&gt;Node2 -->
<g id="edge1" class="edge"><title>Node1&#45;&gt;Node2</title>
<path fill="none" stroke="midnightblue" d="M89.2321,-122.712C109.513,-136.199 148.243,-160.668 184,-176 189.434,-178.33 195.152,-180.524 200.947,-182.57"/>
<polygon fill="midnightblue" stroke="midnightblue" points="200.141,-185.992 210.735,-185.872 202.379,-179.359 200.141,-185.992"/>
</g>
<!-- Node3 -->
<g id="node3" class="node"><title>Node3</title>
<g id="a_node3"><a xlink:href="../../df/df8/class_cell_society_view.html#a330d0d6412aace5de81b9d27a0a1c62d" target="_top" xlink:title="CellSocietyView.createTitle">
<polygon fill="white" stroke="black" points="198.5,-147.5 198.5,-166.5 341.5,-166.5 341.5,-147.5 198.5,-147.5"/>
<text text-anchor="middle" x="270" y="-154.5" font-family="Helvetica,sans-Serif" font-size="10.00">CellSocietyView.createTitle</text>
</a>
</g>
</g>
<!-- Node1&#45;&gt;Node3 -->
<g id="edge2" class="edge"><title>Node1&#45;&gt;Node3</title>
<path fill="none" stroke="midnightblue" d="M117.095,-122.547C146.458,-129.207 185.828,-138.136 217.13,-145.236"/>
<polygon fill="midnightblue" stroke="midnightblue" points="216.461,-148.673 226.987,-147.471 218.009,-141.846 216.461,-148.673"/>
</g>
<!-- Node5 -->
<g id="node5" class="node"><title>Node5</title>
<g id="a_node5"><a xlink:href="../../df/df8/class_cell_society_view.html#accc93b8d859185496ec792a1bad1616d" target="_top" xlink:title="CellSocietyView.makeFrame\lControlButtons">
<polygon fill="white" stroke="black" points="195,-98 195,-128 345,-128 345,-98 195,-98"/>
<text text-anchor="start" x="203" y="-116" font-family="Helvetica,sans-Serif" font-size="10.00">CellSocietyView.makeFrame</text>
<text text-anchor="middle" x="270" y="-105" font-family="Helvetica,sans-Serif" font-size="10.00">ControlButtons</text>
</a>
</g>
</g>
<!-- Node1&#45;&gt;Node5 -->
<g id="edge4" class="edge"><title>Node1&#45;&gt;Node5</title>
<path fill="none" stroke="midnightblue" d="M147.514,-113C159.622,-113 172.274,-113 184.647,-113"/>
<polygon fill="midnightblue" stroke="midnightblue" points="184.956,-116.5 194.956,-113 184.956,-109.5 184.956,-116.5"/>
</g>
<!-- Node6 -->
<g id="node6" class="node"><title>Node6</title>
<g id="a_node6"><a xlink:href="../../df/df8/class_cell_society_view.html#a5267d613dcd4adf7c93e6a6dc9f1cd26" target="_top" xlink:title="CellSocietyView.makeSimulation\lButtons">
<polygon fill="white" stroke="black" points="184.5,-49 184.5,-79 355.5,-79 355.5,-49 184.5,-49"/>
<text text-anchor="start" x="192.5" y="-67" font-family="Helvetica,sans-Serif" font-size="10.00">CellSocietyView.makeSimulation</text>
<text text-anchor="middle" x="270" y="-56" font-family="Helvetica,sans-Serif" font-size="10.00">Buttons</text>
</a>
</g>
</g>
<!-- Node1&#45;&gt;Node6 -->
<g id="edge5" class="edge"><title>Node1&#45;&gt;Node6</title>
<path fill="none" stroke="midnightblue" d="M112.866,-103.436C137.534,-97.2053 170.453,-88.8906 199.704,-81.5026"/>
<polygon fill="midnightblue" stroke="midnightblue" points="200.628,-84.8793 209.466,-79.037 198.913,-78.0925 200.628,-84.8793"/>
</g>
<!-- Node7 -->
<g id="node7" class="node"><title>Node7</title>
<g id="a_node7"><a xlink:href="../../df/df8/class_cell_society_view.html#a3fe30cb4101a6ab480305dcf07daf95f" target="_top" xlink:title="CellSocietyView.makeSpeed\lDisplay">
<polygon fill="white" stroke="black" points="194.5,-0 194.5,-30 345.5,-30 345.5,-0 194.5,-0"/>
<text text-anchor="start" x="202.5" y="-18" font-family="Helvetica,sans-Serif" font-size="10.00">CellSocietyView.makeSpeed</text>
<text text-anchor="middle" x="270" y="-7" font-family="Helvetica,sans-Serif" font-size="10.00">Display</text>
</a>
</g>
</g>
<!-- Node1&#45;&gt;Node7 -->
<g id="edge6" class="edge"><title>Node1&#45;&gt;Node7</title>
<path fill="none" stroke="midnightblue" d="M86.6973,-103.394C105.912,-88.0373 145.844,-57.8738 184,-40 188.962,-37.6754 194.19,-35.5137 199.512,-33.5145"/>
<polygon fill="midnightblue" stroke="midnightblue" points="200.905,-36.7342 209.158,-30.0914 198.564,-30.1372 200.905,-36.7342"/>
</g>
<!-- Node4 -->
<g id="node4" class="node"><title>Node4</title>
<g id="a_node4"><a xlink:href="../../df/df8/class_cell_society_view.html#a45365a3c2504cf68a47ee8abdfbbcdf1" target="_top" xlink:title="CellSocietyView.generate\lTitle">
<polygon fill="white" stroke="black" points="392.5,-142 392.5,-172 529.5,-172 529.5,-142 392.5,-142"/>
<text text-anchor="start" x="400.5" y="-160" font-family="Helvetica,sans-Serif" font-size="10.00">CellSocietyView.generate</text>
<text text-anchor="middle" x="461" y="-149" font-family="Helvetica,sans-Serif" font-size="10.00">Title</text>
</a>
</g>
</g>
<!-- Node3&#45;&gt;Node4 -->
<g id="edge3" class="edge"><title>Node3&#45;&gt;Node4</title>
<path fill="none" stroke="midnightblue" d="M341.645,-157C354.847,-157 368.712,-157 382.117,-157"/>
<polygon fill="midnightblue" stroke="midnightblue" points="382.26,-160.5 392.26,-157 382.26,-153.5 382.26,-160.5"/>
</g>
</g>
</svg>
