<?xml version="1.0" encoding="UTF-8" standalone="no"?>
<!DOCTYPE svg PUBLIC "-//W3C//DTD SVG 1.1//EN"
 "http://www.w3.org/Graphics/SVG/1.1/DTD/svg11.dtd">
<!-- Generated by graphviz version 2.36.0 (20140111.2315)
 -->
<!-- Title: CellSocietyView.setupInitialGrid Pages: 1 -->
<svg width="330pt" height="66pt"
 viewBox="0.00 0.00 330.00 66.00" xmlns="http://www.w3.org/2000/svg" xmlns:xlink="http://www.w3.org/1999/xlink">
<g id="graph0" class="graph" transform="scale(1 1) rotate(0) translate(4 62)">
<title>CellSocietyView.setupInitialGrid</title>
<polygon fill="white" stroke="none" points="-4,4 -4,-62 326,-62 326,4 -4,4"/>
<!-- Node1 -->
<g id="node1" class="node"><title>Node1</title>
<polygon fill="#bfbfbf" stroke="black" points="0,-19.5 0,-38.5 164,-38.5 164,-19.5 0,-19.5"/>
<text text-anchor="middle" x="82" y="-26.5" font-family="Helvetica,sans-Serif" font-size="10.00">CellSocietyView.setupInitialGrid</text>
</g>
<!-- Node2 -->
<g id="node2" class="node"><title>Node2</title>
<g id="a_node2"><a xlink:href="../../d4/d92/class_grid_factory.html#a9bc3ce970ef2787f2474ae7bd6f79d83" target="_top" xlink:title="GridFactory.createGrid">
<polygon fill="white" stroke="black" points="200,-38.5 200,-57.5 322,-57.5 322,-38.5 200,-38.5"/>
<text text-anchor="middle" x="261" y="-45.5" font-family="Helvetica,sans-Serif" font-size="10.00">GridFactory.createGrid</text>
</a>
</g>
</g>
<!-- Node1&#45;&gt;Node2 -->
<g id="edge1" class="edge"><title>Node1&#45;&gt;Node2</title>
<path fill="none" stroke="midnightblue" d="M164.247,-37.7215C172.776,-38.637 181.395,-39.5622 189.785,-40.4627"/>
<polygon fill="midnightblue" stroke="midnightblue" points="189.566,-43.9594 199.883,-41.5468 190.314,-36.9993 189.566,-43.9594"/>
</g>
<!-- Node3 -->
<g id="node3" class="node"><title>Node3</title>
<g id="a_node3"><a xlink:href="../../d8/ddc/class_abstract_grid.html#a47b90d7ce407289123405378af0dd8cb" target="_top" xlink:title="AbstractGrid.getGrid">
<polygon fill="white" stroke="black" points="203.5,-0.5 203.5,-19.5 318.5,-19.5 318.5,-0.5 203.5,-0.5"/>
<text text-anchor="middle" x="261" y="-7.5" font-family="Helvetica,sans-Serif" font-size="10.00">AbstractGrid.getGrid</text>
</a>
</g>
</g>
<!-- Node1&#45;&gt;Node3 -->
<g id="edge2" class="edge"><title>Node1&#45;&gt;Node3</title>
<path fill="none" stroke="midnightblue" d="M164.247,-20.2785C173.925,-19.2397 183.718,-18.1884 193.162,-17.1748"/>
<polygon fill="midnightblue" stroke="midnightblue" points="193.679,-20.6394 203.249,-16.092 192.932,-13.6794 193.679,-20.6394"/>
</g>
</g>
</svg>
