<?xml version="1.0" encoding="UTF-8" standalone="no"?>
<!DOCTYPE svg PUBLIC "-//W3C//DTD SVG 1.1//EN"
 "http://www.w3.org/Graphics/SVG/1.1/DTD/svg11.dtd">
<!-- Generated by graphviz version 2.36.0 (20140111.2315)
 -->
<!-- Title: Cell Pages: 1 -->
<svg width="576pt" height="84pt"
 viewBox="0.00 0.00 576.00 84.00" xmlns="http://www.w3.org/2000/svg" xmlns:xlink="http://www.w3.org/1999/xlink">
<g id="graph0" class="graph" transform="scale(1 1) rotate(0) translate(4 80)">
<title>Cell</title>
<polygon fill="white" stroke="none" points="-4,4 -4,-80 572,-80 572,4 -4,4"/>
<!-- Node1 -->
<g id="node1" class="node"><title>Node1</title>
<polygon fill="#bfbfbf" stroke="black" points="268,-56.5 268,-75.5 302,-75.5 302,-56.5 268,-56.5"/>
<text text-anchor="middle" x="285" y="-63.5" font-family="Helvetica,sans-Serif" font-size="10.00">Cell</text>
</g>
<!-- Node2 -->
<g id="node2" class="node"><title>Node2</title>
<g id="a_node2"><a xlink:href="../../df/d9e/class_blue_cell.html" target="_top" xlink:title="BlueCell">
<polygon fill="white" stroke="black" points="-0.5,-0.5 -0.5,-19.5 54.5,-19.5 54.5,-0.5 -0.5,-0.5"/>
<text text-anchor="middle" x="27" y="-7.5" font-family="Helvetica,sans-Serif" font-size="10.00">BlueCell</text>
</a>
</g>
</g>
<!-- Node1&#45;&gt;Node2 -->
<g id="edge1" class="edge"><title>Node1&#45;&gt;Node2</title>
<path fill="none" stroke="midnightblue" d="M257.991,-59.9316C216.114,-51.9815 133.04,-35.8453 63,-20 60.3609,-19.403 57.6188,-18.7596 54.8784,-18.1011"/>
<polygon fill="midnightblue" stroke="midnightblue" points="257.479,-63.3967 267.955,-61.8161 258.78,-56.5186 257.479,-63.3967"/>
</g>
<!-- Node3 -->
<g id="node3" class="node"><title>Node3</title>
<g id="a_node3"><a xlink:href="../../d4/dbb/class_empty_cell.html" target="_top" xlink:title="EmptyCell">
<polygon fill="white" stroke="black" points="72.5,-0.5 72.5,-19.5 137.5,-19.5 137.5,-0.5 72.5,-0.5"/>
<text text-anchor="middle" x="105" y="-7.5" font-family="Helvetica,sans-Serif" font-size="10.00">EmptyCell</text>
</a>
</g>
</g>
<!-- Node1&#45;&gt;Node3 -->
<g id="edge2" class="edge"><title>Node1&#45;&gt;Node3</title>
<path fill="none" stroke="midnightblue" d="M258.146,-56.9437C224.626,-46.8878 167.552,-29.7657 133.349,-19.5048"/>
<polygon fill="midnightblue" stroke="midnightblue" points="257.157,-60.3011 267.741,-59.8223 259.168,-53.5963 257.157,-60.3011"/>
</g>
<!-- Node4 -->
<g id="node4" class="node"><title>Node4</title>
<g id="a_node4"><a xlink:href="../../d7/d2e/class_fire_cell.html" target="_top" xlink:title="FireCell">
<polygon fill="white" stroke="black" points="156,-0.5 156,-19.5 206,-19.5 206,-0.5 156,-0.5"/>
<text text-anchor="middle" x="181" y="-7.5" font-family="Helvetica,sans-Serif" font-size="10.00">FireCell</text>
</a>
</g>
</g>
<!-- Node1&#45;&gt;Node4 -->
<g id="edge3" class="edge"><title>Node1&#45;&gt;Node4</title>
<path fill="none" stroke="midnightblue" d="M259.172,-51.5895C239.943,-41.6052 214.255,-28.2672 197.668,-19.6545"/>
<polygon fill="midnightblue" stroke="midnightblue" points="257.803,-54.822 268.291,-56.324 261.029,-48.6095 257.803,-54.822"/>
</g>
<!-- Node5 -->
<g id="node5" class="node"><title>Node5</title>
<g id="a_node5"><a xlink:href="../../d2/ddc/class_fish_cell.html" target="_top" xlink:title="FishCell">
<polygon fill="white" stroke="black" points="224,-0.5 224,-19.5 276,-19.5 276,-0.5 224,-0.5"/>
<text text-anchor="middle" x="250" y="-7.5" font-family="Helvetica,sans-Serif" font-size="10.00">FishCell</text>
</a>
</g>
</g>
<!-- Node1&#45;&gt;Node5 -->
<g id="edge4" class="edge"><title>Node1&#45;&gt;Node5</title>
<path fill="none" stroke="midnightblue" d="M273.7,-47.5656C267.678,-38.2747 260.531,-27.2484 255.672,-19.7511"/>
<polygon fill="midnightblue" stroke="midnightblue" points="270.844,-49.5951 279.22,-56.083 276.719,-45.7878 270.844,-49.5951"/>
</g>
<!-- Node6 -->
<g id="node6" class="node"><title>Node6</title>
<g id="a_node6"><a xlink:href="../../d2/d85/class_live_cell.html" target="_top" xlink:title="LiveCell">
<polygon fill="white" stroke="black" points="294.5,-0.5 294.5,-19.5 347.5,-19.5 347.5,-0.5 294.5,-0.5"/>
<text text-anchor="middle" x="321" y="-7.5" font-family="Helvetica,sans-Serif" font-size="10.00">LiveCell</text>
</a>
</g>
</g>
<!-- Node1&#45;&gt;Node6 -->
<g id="edge5" class="edge"><title>Node1&#45;&gt;Node6</title>
<path fill="none" stroke="midnightblue" d="M296.623,-47.5656C302.817,-38.2747 310.168,-27.2484 315.166,-19.7511"/>
<polygon fill="midnightblue" stroke="midnightblue" points="293.58,-45.821 290.945,-56.083 299.404,-49.7039 293.58,-45.821"/>
</g>
<!-- Node7 -->
<g id="node7" class="node"><title>Node7</title>
<g id="a_node7"><a xlink:href="../../db/d8c/class_red_cell.html" target="_top" xlink:title="RedCell">
<polygon fill="white" stroke="black" points="365.5,-0.5 365.5,-19.5 416.5,-19.5 416.5,-0.5 365.5,-0.5"/>
<text text-anchor="middle" x="391" y="-7.5" font-family="Helvetica,sans-Serif" font-size="10.00">RedCell</text>
</a>
</g>
</g>
<!-- Node1&#45;&gt;Node7 -->
<g id="edge6" class="edge"><title>Node1&#45;&gt;Node7</title>
<path fill="none" stroke="midnightblue" d="M311.056,-51.7261C330.684,-41.7271 357.028,-28.3065 374.012,-19.6545"/>
<polygon fill="midnightblue" stroke="midnightblue" points="309.352,-48.666 302.031,-56.324 312.53,-54.9033 309.352,-48.666"/>
</g>
<!-- Node8 -->
<g id="node8" class="node"><title>Node8</title>
<g id="a_node8"><a xlink:href="../../d1/dd5/class_shark_cell.html" target="_top" xlink:title="SharkCell">
<polygon fill="white" stroke="black" points="435,-0.5 435,-19.5 497,-19.5 497,-0.5 435,-0.5"/>
<text text-anchor="middle" x="466" y="-7.5" font-family="Helvetica,sans-Serif" font-size="10.00">SharkCell</text>
</a>
</g>
</g>
<!-- Node1&#45;&gt;Node8 -->
<g id="edge7" class="edge"><title>Node1&#45;&gt;Node8</title>
<path fill="none" stroke="midnightblue" d="M311.639,-57.0525C345.254,-47.0238 402.838,-29.8439 437.369,-19.5418"/>
<polygon fill="midnightblue" stroke="midnightblue" points="310.61,-53.7069 302.028,-59.9198 312.611,-60.4148 310.61,-53.7069"/>
</g>
<!-- Node9 -->
<g id="node9" class="node"><title>Node9</title>
<g id="a_node9"><a xlink:href="../../d4/dd9/class_tree_cell.html" target="_top" xlink:title="TreeCell">
<polygon fill="white" stroke="black" points="515.5,-0.5 515.5,-19.5 568.5,-19.5 568.5,-0.5 515.5,-0.5"/>
<text text-anchor="middle" x="542" y="-7.5" font-family="Helvetica,sans-Serif" font-size="10.00">TreeCell</text>
</a>
</g>
</g>
<!-- Node1&#45;&gt;Node9 -->
<g id="edge8" class="edge"><title>Node1&#45;&gt;Node9</title>
<path fill="none" stroke="midnightblue" d="M312.065,-59.7974C353.645,-51.7294 435.705,-35.5093 505,-20 508.355,-19.2492 511.873,-18.432 515.35,-17.6065"/>
<polygon fill="midnightblue" stroke="midnightblue" points="311.315,-56.3776 302.161,-61.7132 312.644,-63.2502 311.315,-56.3776"/>
</g>
</g>
</svg>
