<?xml version="1.0" encoding="UTF-8" standalone="no"?>
<!DOCTYPE svg PUBLIC "-//W3C//DTD SVG 1.1//EN"
 "http://www.w3.org/Graphics/SVG/1.1/DTD/svg11.dtd">
<!-- Generated by graphviz version 2.36.0 (20140111.2315)
 -->
<!-- Title: Grid Pages: 1 -->
<svg width="169pt" height="84pt"
 viewBox="0.00 0.00 169.00 84.00" xmlns="http://www.w3.org/2000/svg" xmlns:xlink="http://www.w3.org/1999/xlink">
<g id="graph0" class="graph" transform="scale(1 1) rotate(0) translate(4 80)">
<title>Grid</title>
<polygon fill="white" stroke="none" points="-4,4 -4,-80 165,-80 165,4 -4,4"/>
<!-- Node1 -->
<g id="node1" class="node"><title>Node1</title>
<polygon fill="#bfbfbf" stroke="black" points="62,-56.5 62,-75.5 98,-75.5 98,-56.5 62,-56.5"/>
<text text-anchor="middle" x="80" y="-63.5" font-family="Helvetica,sans-Serif" font-size="10.00">Grid</text>
</g>
<!-- Node2 -->
<g id="node2" class="node"><title>Node2</title>
<g id="a_node2"><a xlink:href="../../dd/dc3/class_square_grid.html" target="_top" xlink:title="SquareGrid">
<polygon fill="white" stroke="black" points="-0.5,-0.5 -0.5,-19.5 70.5,-19.5 70.5,-0.5 -0.5,-0.5"/>
<text text-anchor="middle" x="35" y="-7.5" font-family="Helvetica,sans-Serif" font-size="10.00">SquareGrid</text>
</a>
</g>
</g>
<!-- Node1&#45;&gt;Node2 -->
<g id="edge1" class="edge"><title>Node1&#45;&gt;Node2</title>
<path fill="none" stroke="midnightblue" d="M65.9533,-48.144C58.1131,-38.7357 48.6705,-27.4046 42.2926,-19.7511"/>
<polygon fill="midnightblue" stroke="midnightblue" points="63.4785,-50.6414 72.5692,-56.083 68.8561,-46.1601 63.4785,-50.6414"/>
</g>
<!-- Node3 -->
<g id="node3" class="node"><title>Node3</title>
<g id="a_node3"><a xlink:href="../../d1/de7/class_triangle_grid.html" target="_top" xlink:title="TriangleGrid">
<polygon fill="white" stroke="black" points="89,-0.5 89,-19.5 161,-19.5 161,-0.5 89,-0.5"/>
<text text-anchor="middle" x="125" y="-7.5" font-family="Helvetica,sans-Serif" font-size="10.00">TriangleGrid</text>
</a>
</g>
</g>
<!-- Node1&#45;&gt;Node3 -->
<g id="edge2" class="edge"><title>Node1&#45;&gt;Node3</title>
<path fill="none" stroke="midnightblue" d="M94.0467,-48.144C101.887,-38.7357 111.329,-27.4046 117.707,-19.7511"/>
<polygon fill="midnightblue" stroke="midnightblue" points="91.1439,-46.1601 87.4308,-56.083 96.5215,-50.6414 91.1439,-46.1601"/>
</g>
</g>
</svg>
