<?xml version="1.0" encoding="UTF-8" standalone="no"?>
<!DOCTYPE svg PUBLIC "-//W3C//DTD SVG 1.1//EN"
 "http://www.w3.org/Graphics/SVG/1.1/DTD/svg11.dtd">
<!-- Generated by graphviz version 2.36.0 (20140111.2315)
 -->
<!-- Title: SimController.runOneSim Pages: 1 -->
<svg width="1180pt" height="130pt"
 viewBox="0.00 0.00 1180.00 129.56" xmlns="http://www.w3.org/2000/svg" xmlns:xlink="http://www.w3.org/1999/xlink">
<g id="graph0" class="graph" transform="scale(1 1) rotate(0) translate(4 125.562)">
<title>SimController.runOneSim</title>
<polygon fill="white" stroke="none" points="-4,4 -4,-125.562 1176,-125.562 1176,4 -4,4"/>
<!-- Node1 -->
<g id="node1" class="node"><title>Node1</title>
<polygon fill="#bfbfbf" stroke="black" points="0,-85.5 0,-104.5 138,-104.5 138,-85.5 0,-85.5"/>
<text text-anchor="middle" x="69" y="-92.5" font-family="Helvetica,sans-Serif" font-size="10.00">SimController.runOneSim</text>
</g>
<!-- Node2 -->
<g id="node2" class="node"><title>Node2</title>
<g id="a_node2"><a xlink:href="../../d3/dff/class_cell_society.html#a0ff19c30a1cc433d8ea8444f6a5617f1" target="_top" xlink:title="CellSociety.updateGrid">
<polygon fill="white" stroke="black" points="174,-85.5 174,-104.5 298,-104.5 298,-85.5 174,-85.5"/>
<text text-anchor="middle" x="236" y="-92.5" font-family="Helvetica,sans-Serif" font-size="10.00">CellSociety.updateGrid</text>
</a>
</g>
</g>
<!-- Node1&#45;&gt;Node2 -->
<g id="edge1" class="edge"><title>Node1&#45;&gt;Node2</title>
<path fill="none" stroke="midnightblue" d="M148.176,-95C156.835,-95 165.557,-95 173.959,-95"/>
<polygon fill="midnightblue" stroke="midnightblue" points="148.064,-91.5001 138.064,-95 148.064,-98.5001 148.064,-91.5001"/>
</g>
<!-- Node3 -->
<g id="node3" class="node"><title>Node3</title>
<g id="a_node3"><a xlink:href="../../d3/dff/class_cell_society.html#a656ff46d1459fb7f86b42e3c542506ee" target="_top" xlink:title="CellSociety.configureListeners">
<polygon fill="white" stroke="black" points="854,-57.5 854,-76.5 1012,-76.5 1012,-57.5 854,-57.5"/>
<text text-anchor="middle" x="933" y="-64.5" font-family="Helvetica,sans-Serif" font-size="10.00">CellSociety.configureListeners</text>
</a>
</g>
</g>
<!-- Node2&#45;&gt;Node3 -->
<g id="edge2" class="edge"><title>Node2&#45;&gt;Node3</title>
<path fill="none" stroke="midnightblue" d="M308.143,-104.282C418.251,-116.843 636.215,-134.5 818,-105 851.155,-99.6198 887.696,-85.977 910.252,-76.5924"/>
<polygon fill="midnightblue" stroke="midnightblue" points="308.488,-100.799 298.151,-103.122 307.681,-107.752 308.488,-100.799"/>
</g>
<!-- Node5 -->
<g id="node5" class="node"><title>Node5</title>
<g id="a_node5"><a xlink:href="../../d3/dff/class_cell_society.html#abf13a64ee79f2cb063447b499c695c58" target="_top" xlink:title="CellSociety.start">
<polygon fill="white" stroke="black" points="334.5,-57.5 334.5,-76.5 427.5,-76.5 427.5,-57.5 334.5,-57.5"/>
<text text-anchor="middle" x="381" y="-64.5" font-family="Helvetica,sans-Serif" font-size="10.00">CellSociety.start</text>
</a>
</g>
</g>
<!-- Node2&#45;&gt;Node5 -->
<g id="edge4" class="edge"><title>Node2&#45;&gt;Node5</title>
<path fill="none" stroke="midnightblue" d="M295.93,-83.4613C308.735,-80.954 322.095,-78.338 334.298,-75.9487"/>
<polygon fill="midnightblue" stroke="midnightblue" points="294.954,-80.0859 285.813,-85.4423 296.299,-86.9554 294.954,-80.0859"/>
</g>
<!-- Node4 -->
<g id="node4" class="node"><title>Node4</title>
<g id="a_node4"><a xlink:href="../../d3/dff/class_cell_society.html#ac5e08680a3da358d402461bc25aa1727" target="_top" xlink:title="CellSociety.CellSociety">
<polygon fill="white" stroke="black" points="1048.5,-57.5 1048.5,-76.5 1171.5,-76.5 1171.5,-57.5 1048.5,-57.5"/>
<text text-anchor="middle" x="1110" y="-64.5" font-family="Helvetica,sans-Serif" font-size="10.00">CellSociety.CellSociety</text>
</a>
</g>
</g>
<!-- Node3&#45;&gt;Node4 -->
<g id="edge3" class="edge"><title>Node3&#45;&gt;Node4</title>
<path fill="none" stroke="midnightblue" d="M1022.09,-67C1031.01,-67 1039.92,-67 1048.45,-67"/>
<polygon fill="midnightblue" stroke="midnightblue" points="1022.03,-63.5001 1012.03,-67 1022.03,-70.5001 1022.03,-63.5001"/>
</g>
<!-- Node6 -->
<g id="node6" class="node"><title>Node6</title>
<g id="a_node6"><a xlink:href="../../d3/dff/class_cell_society.html#adc5feda3db5472cea4e092d463681033" target="_top" xlink:title="CellSociety.reframeTimeline">
<polygon fill="white" stroke="black" points="464.5,-57.5 464.5,-76.5 613.5,-76.5 613.5,-57.5 464.5,-57.5"/>
<text text-anchor="middle" x="539" y="-64.5" font-family="Helvetica,sans-Serif" font-size="10.00">CellSociety.reframeTimeline</text>
</a>
</g>
</g>
<!-- Node5&#45;&gt;Node6 -->
<g id="edge5" class="edge"><title>Node5&#45;&gt;Node6</title>
<path fill="none" stroke="midnightblue" d="M437.78,-67C446.359,-67 455.329,-67 464.226,-67"/>
<polygon fill="midnightblue" stroke="midnightblue" points="437.541,-63.5001 427.541,-67 437.541,-70.5001 437.541,-63.5001"/>
</g>
<!-- Node9 -->
<g id="node9" class="node"><title>Node9</title>
<g id="a_node9"><a xlink:href="../../d3/dff/class_cell_society.html#ab9e56a2a70e210e021b51e898508329b" target="_top" xlink:title="CellSociety.setupAnimation">
<polygon fill="white" stroke="black" points="466,-9.5 466,-28.5 612,-28.5 612,-9.5 466,-9.5"/>
<text text-anchor="middle" x="539" y="-16.5" font-family="Helvetica,sans-Serif" font-size="10.00">CellSociety.setupAnimation</text>
</a>
</g>
</g>
<!-- Node5&#45;&gt;Node9 -->
<g id="edge10" class="edge"><title>Node5&#45;&gt;Node9</title>
<path fill="none" stroke="midnightblue" d="M422.87,-54.4247C449.143,-46.3405 482.748,-36.0005 506.86,-28.5815"/>
<polygon fill="midnightblue" stroke="midnightblue" points="421.722,-51.1157 413.194,-57.4018 423.781,-57.8061 421.722,-51.1157"/>
</g>
<!-- Node7 -->
<g id="node7" class="node"><title>Node7</title>
<g id="a_node7"><a xlink:href="../../d3/dff/class_cell_society.html#a045267ba1843ca4a47891d7be73c2ac1" target="_top" xlink:title="CellSociety.decreaseFrameRate">
<polygon fill="white" stroke="black" points="650.5,-76.5 650.5,-95.5 817.5,-95.5 817.5,-76.5 650.5,-76.5"/>
<text text-anchor="middle" x="734" y="-83.5" font-family="Helvetica,sans-Serif" font-size="10.00">CellSociety.decreaseFrameRate</text>
</a>
</g>
</g>
<!-- Node6&#45;&gt;Node7 -->
<g id="edge6" class="edge"><title>Node6&#45;&gt;Node7</title>
<path fill="none" stroke="midnightblue" d="M623.487,-75.2189C632.391,-76.0954 641.444,-76.9868 650.338,-77.8623"/>
<polygon fill="midnightblue" stroke="midnightblue" points="623.81,-71.7339 613.516,-74.2373 623.125,-78.7003 623.81,-71.7339"/>
</g>
<!-- Node8 -->
<g id="node8" class="node"><title>Node8</title>
<g id="a_node8"><a xlink:href="../../d3/dff/class_cell_society.html#a8250bfacdaf51dabf6b9d1cafc0ce9b2" target="_top" xlink:title="CellSociety.increaseFrameRate">
<polygon fill="white" stroke="black" points="652.5,-38.5 652.5,-57.5 815.5,-57.5 815.5,-38.5 652.5,-38.5"/>
<text text-anchor="middle" x="734" y="-45.5" font-family="Helvetica,sans-Serif" font-size="10.00">CellSociety.increaseFrameRate</text>
</a>
</g>
</g>
<!-- Node6&#45;&gt;Node8 -->
<g id="edge8" class="edge"><title>Node6&#45;&gt;Node8</title>
<path fill="none" stroke="midnightblue" d="M623.719,-58.7583C633.198,-57.8251 642.845,-56.8753 652.285,-55.946"/>
<polygon fill="midnightblue" stroke="midnightblue" points="623.125,-55.2997 613.516,-59.7627 623.81,-62.2661 623.125,-55.2997"/>
</g>
<!-- Node7&#45;&gt;Node3 -->
<g id="edge7" class="edge"><title>Node7&#45;&gt;Node3</title>
<path fill="none" stroke="midnightblue" d="M827.877,-77.0423C836.593,-76.2017 845.368,-75.3554 853.927,-74.5299"/>
<polygon fill="midnightblue" stroke="midnightblue" points="827.307,-73.5809 817.689,-78.0249 827.979,-80.5486 827.307,-73.5809"/>
</g>
<!-- Node8&#45;&gt;Node3 -->
<g id="edge9" class="edge"><title>Node8&#45;&gt;Node3</title>
<path fill="none" stroke="midnightblue" d="M825.842,-56.7614C835.24,-57.6678 844.733,-58.5834 853.974,-59.4746"/>
<polygon fill="midnightblue" stroke="midnightblue" points="825.986,-53.2591 815.696,-55.7828 825.314,-60.2268 825.986,-53.2591"/>
</g>
<!-- Node10 -->
<g id="node10" class="node"><title>Node10</title>
<g id="a_node10"><a xlink:href="../../d3/dff/class_cell_society.html#af9f22af39a97a58b26126020ca6c8844" target="_top" xlink:title="CellSociety.readNewXML">
<polygon fill="white" stroke="black" points="668,-0.5 668,-19.5 800,-19.5 800,-0.5 668,-0.5"/>
<text text-anchor="middle" x="734" y="-7.5" font-family="Helvetica,sans-Serif" font-size="10.00">CellSociety.readNewXML</text>
</a>
</g>
</g>
<!-- Node9&#45;&gt;Node10 -->
<g id="edge11" class="edge"><title>Node9&#45;&gt;Node10</title>
<path fill="none" stroke="midnightblue" d="M622.552,-15.1504C637.727,-14.4428 653.372,-13.7132 667.943,-13.0337"/>
<polygon fill="midnightblue" stroke="midnightblue" points="621.967,-11.6738 612.141,-15.6359 622.293,-18.6662 621.967,-11.6738"/>
</g>
<!-- Node10&#45;&gt;Node3 -->
<g id="edge12" class="edge"><title>Node10&#45;&gt;Node3</title>
<path fill="none" stroke="midnightblue" d="M790.362,-21.8882C799.628,-24.1025 809.115,-26.5086 818,-29 848.332,-37.5056 882.544,-49.198 905.506,-57.3586"/>
<polygon fill="midnightblue" stroke="midnightblue" points="790.965,-18.4351 780.431,-19.5659 789.371,-25.2512 790.965,-18.4351"/>
</g>
</g>
</svg>
