<?xml version="1.0" encoding="UTF-8" standalone="no"?>
<!DOCTYPE svg PUBLIC "-//W3C//DTD SVG 1.1//EN"
 "http://www.w3.org/Graphics/SVG/1.1/DTD/svg11.dtd">
<!-- Generated by graphviz version 2.36.0 (20140111.2315)
 -->
<!-- Title: SimController.newState Pages: 1 -->
<svg width="1346pt" height="130pt"
 viewBox="0.00 0.00 1346.00 129.56" xmlns="http://www.w3.org/2000/svg" xmlns:xlink="http://www.w3.org/1999/xlink">
<g id="graph0" class="graph" transform="scale(1 1) rotate(0) translate(4 125.562)">
<title>SimController.newState</title>
<polygon fill="white" stroke="none" points="-4,4 -4,-125.562 1342,-125.562 1342,4 -4,4"/>
<!-- Node1 -->
<g id="node1" class="node"><title>Node1</title>
<polygon fill="#bfbfbf" stroke="black" points="0.5,-85.5 0.5,-104.5 129.5,-104.5 129.5,-85.5 0.5,-85.5"/>
<text text-anchor="middle" x="65" y="-92.5" font-family="Helvetica,sans-Serif" font-size="10.00">SimController.newState</text>
</g>
<!-- Node2 -->
<g id="node2" class="node"><title>Node2</title>
<g id="a_node2"><a xlink:href="../../d6/d6e/class_sim_controller.html#a10145cee2eaceb4ecad9396a825051d1" target="_top" xlink:title="SimController.runOneSim">
<polygon fill="white" stroke="black" points="166,-85.5 166,-104.5 304,-104.5 304,-85.5 166,-85.5"/>
<text text-anchor="middle" x="235" y="-92.5" font-family="Helvetica,sans-Serif" font-size="10.00">SimController.runOneSim</text>
</a>
</g>
</g>
<!-- Node1&#45;&gt;Node2 -->
<g id="edge1" class="edge"><title>Node1&#45;&gt;Node2</title>
<path fill="none" stroke="midnightblue" d="M139.664,-95C148.39,-95 157.267,-95 165.91,-95"/>
<polygon fill="midnightblue" stroke="midnightblue" points="139.514,-91.5001 129.514,-95 139.514,-98.5001 139.514,-91.5001"/>
</g>
<!-- Node3 -->
<g id="node3" class="node"><title>Node3</title>
<g id="a_node3"><a xlink:href="../../d3/dff/class_cell_society.html#a0ff19c30a1cc433d8ea8444f6a5617f1" target="_top" xlink:title="CellSociety.updateGrid">
<polygon fill="white" stroke="black" points="340,-85.5 340,-104.5 464,-104.5 464,-85.5 340,-85.5"/>
<text text-anchor="middle" x="402" y="-92.5" font-family="Helvetica,sans-Serif" font-size="10.00">CellSociety.updateGrid</text>
</a>
</g>
</g>
<!-- Node2&#45;&gt;Node3 -->
<g id="edge2" class="edge"><title>Node2&#45;&gt;Node3</title>
<path fill="none" stroke="midnightblue" d="M314.176,-95C322.835,-95 331.557,-95 339.959,-95"/>
<polygon fill="midnightblue" stroke="midnightblue" points="314.064,-91.5001 304.064,-95 314.064,-98.5001 314.064,-91.5001"/>
</g>
<!-- Node4 -->
<g id="node4" class="node"><title>Node4</title>
<g id="a_node4"><a xlink:href="../../d3/dff/class_cell_society.html#a656ff46d1459fb7f86b42e3c542506ee" target="_top" xlink:title="CellSociety.configureListeners">
<polygon fill="white" stroke="black" points="1020,-57.5 1020,-76.5 1178,-76.5 1178,-57.5 1020,-57.5"/>
<text text-anchor="middle" x="1099" y="-64.5" font-family="Helvetica,sans-Serif" font-size="10.00">CellSociety.configureListeners</text>
</a>
</g>
</g>
<!-- Node3&#45;&gt;Node4 -->
<g id="edge3" class="edge"><title>Node3&#45;&gt;Node4</title>
<path fill="none" stroke="midnightblue" d="M474.143,-104.282C584.251,-116.843 802.215,-134.5 984,-105 1017.15,-99.6198 1053.7,-85.977 1076.25,-76.5924"/>
<polygon fill="midnightblue" stroke="midnightblue" points="474.488,-100.799 464.151,-103.122 473.681,-107.752 474.488,-100.799"/>
</g>
<!-- Node6 -->
<g id="node6" class="node"><title>Node6</title>
<g id="a_node6"><a xlink:href="../../d3/dff/class_cell_society.html#abf13a64ee79f2cb063447b499c695c58" target="_top" xlink:title="CellSociety.start">
<polygon fill="white" stroke="black" points="500.5,-57.5 500.5,-76.5 593.5,-76.5 593.5,-57.5 500.5,-57.5"/>
<text text-anchor="middle" x="547" y="-64.5" font-family="Helvetica,sans-Serif" font-size="10.00">CellSociety.start</text>
</a>
</g>
</g>
<!-- Node3&#45;&gt;Node6 -->
<g id="edge5" class="edge"><title>Node3&#45;&gt;Node6</title>
<path fill="none" stroke="midnightblue" d="M461.93,-83.4613C474.735,-80.954 488.095,-78.338 500.298,-75.9487"/>
<polygon fill="midnightblue" stroke="midnightblue" points="460.954,-80.0859 451.813,-85.4423 462.299,-86.9554 460.954,-80.0859"/>
</g>
<!-- Node5 -->
<g id="node5" class="node"><title>Node5</title>
<g id="a_node5"><a xlink:href="../../d3/dff/class_cell_society.html#ac5e08680a3da358d402461bc25aa1727" target="_top" xlink:title="CellSociety.CellSociety">
<polygon fill="white" stroke="black" points="1214.5,-57.5 1214.5,-76.5 1337.5,-76.5 1337.5,-57.5 1214.5,-57.5"/>
<text text-anchor="middle" x="1276" y="-64.5" font-family="Helvetica,sans-Serif" font-size="10.00">CellSociety.CellSociety</text>
</a>
</g>
</g>
<!-- Node4&#45;&gt;Node5 -->
<g id="edge4" class="edge"><title>Node4&#45;&gt;Node5</title>
<path fill="none" stroke="midnightblue" d="M1188.09,-67C1197.01,-67 1205.92,-67 1214.45,-67"/>
<polygon fill="midnightblue" stroke="midnightblue" points="1188.03,-63.5001 1178.03,-67 1188.03,-70.5001 1188.03,-63.5001"/>
</g>
<!-- Node7 -->
<g id="node7" class="node"><title>Node7</title>
<g id="a_node7"><a xlink:href="../../d3/dff/class_cell_society.html#adc5feda3db5472cea4e092d463681033" target="_top" xlink:title="CellSociety.reframeTimeline">
<polygon fill="white" stroke="black" points="630.5,-57.5 630.5,-76.5 779.5,-76.5 779.5,-57.5 630.5,-57.5"/>
<text text-anchor="middle" x="705" y="-64.5" font-family="Helvetica,sans-Serif" font-size="10.00">CellSociety.reframeTimeline</text>
</a>
</g>
</g>
<!-- Node6&#45;&gt;Node7 -->
<g id="edge6" class="edge"><title>Node6&#45;&gt;Node7</title>
<path fill="none" stroke="midnightblue" d="M603.78,-67C612.359,-67 621.329,-67 630.226,-67"/>
<polygon fill="midnightblue" stroke="midnightblue" points="603.541,-63.5001 593.541,-67 603.541,-70.5001 603.541,-63.5001"/>
</g>
<!-- Node10 -->
<g id="node10" class="node"><title>Node10</title>
<g id="a_node10"><a xlink:href="../../d3/dff/class_cell_society.html#ab9e56a2a70e210e021b51e898508329b" target="_top" xlink:title="CellSociety.setupAnimation">
<polygon fill="white" stroke="black" points="632,-9.5 632,-28.5 778,-28.5 778,-9.5 632,-9.5"/>
<text text-anchor="middle" x="705" y="-16.5" font-family="Helvetica,sans-Serif" font-size="10.00">CellSociety.setupAnimation</text>
</a>
</g>
</g>
<!-- Node6&#45;&gt;Node10 -->
<g id="edge11" class="edge"><title>Node6&#45;&gt;Node10</title>
<path fill="none" stroke="midnightblue" d="M588.87,-54.4247C615.143,-46.3405 648.748,-36.0005 672.86,-28.5815"/>
<polygon fill="midnightblue" stroke="midnightblue" points="587.722,-51.1157 579.194,-57.4018 589.781,-57.8061 587.722,-51.1157"/>
</g>
<!-- Node8 -->
<g id="node8" class="node"><title>Node8</title>
<g id="a_node8"><a xlink:href="../../d3/dff/class_cell_society.html#a045267ba1843ca4a47891d7be73c2ac1" target="_top" xlink:title="CellSociety.decreaseFrameRate">
<polygon fill="white" stroke="black" points="816.5,-76.5 816.5,-95.5 983.5,-95.5 983.5,-76.5 816.5,-76.5"/>
<text text-anchor="middle" x="900" y="-83.5" font-family="Helvetica,sans-Serif" font-size="10.00">CellSociety.decreaseFrameRate</text>
</a>
</g>
</g>
<!-- Node7&#45;&gt;Node8 -->
<g id="edge7" class="edge"><title>Node7&#45;&gt;Node8</title>
<path fill="none" stroke="midnightblue" d="M789.487,-75.2189C798.391,-76.0954 807.444,-76.9868 816.338,-77.8623"/>
<polygon fill="midnightblue" stroke="midnightblue" points="789.81,-71.7339 779.516,-74.2373 789.125,-78.7003 789.81,-71.7339"/>
</g>
<!-- Node9 -->
<g id="node9" class="node"><title>Node9</title>
<g id="a_node9"><a xlink:href="../../d3/dff/class_cell_society.html#a8250bfacdaf51dabf6b9d1cafc0ce9b2" target="_top" xlink:title="CellSociety.increaseFrameRate">
<polygon fill="white" stroke="black" points="818.5,-38.5 818.5,-57.5 981.5,-57.5 981.5,-38.5 818.5,-38.5"/>
<text text-anchor="middle" x="900" y="-45.5" font-family="Helvetica,sans-Serif" font-size="10.00">CellSociety.increaseFrameRate</text>
</a>
</g>
</g>
<!-- Node7&#45;&gt;Node9 -->
<g id="edge9" class="edge"><title>Node7&#45;&gt;Node9</title>
<path fill="none" stroke="midnightblue" d="M789.719,-58.7583C799.198,-57.8251 808.845,-56.8753 818.285,-55.946"/>
<polygon fill="midnightblue" stroke="midnightblue" points="789.125,-55.2997 779.516,-59.7627 789.81,-62.2661 789.125,-55.2997"/>
</g>
<!-- Node8&#45;&gt;Node4 -->
<g id="edge8" class="edge"><title>Node8&#45;&gt;Node4</title>
<path fill="none" stroke="midnightblue" d="M993.877,-77.0423C1002.59,-76.2017 1011.37,-75.3554 1019.93,-74.5299"/>
<polygon fill="midnightblue" stroke="midnightblue" points="993.307,-73.5809 983.689,-78.0249 993.979,-80.5486 993.307,-73.5809"/>
</g>
<!-- Node9&#45;&gt;Node4 -->
<g id="edge10" class="edge"><title>Node9&#45;&gt;Node4</title>
<path fill="none" stroke="midnightblue" d="M991.842,-56.7614C1001.24,-57.6678 1010.73,-58.5834 1019.97,-59.4746"/>
<polygon fill="midnightblue" stroke="midnightblue" points="991.986,-53.2591 981.696,-55.7828 991.314,-60.2268 991.986,-53.2591"/>
</g>
<!-- Node11 -->
<g id="node11" class="node"><title>Node11</title>
<g id="a_node11"><a xlink:href="../../d3/dff/class_cell_society.html#af9f22af39a97a58b26126020ca6c8844" target="_top" xlink:title="CellSociety.readNewXML">
<polygon fill="white" stroke="black" points="834,-0.5 834,-19.5 966,-19.5 966,-0.5 834,-0.5"/>
<text text-anchor="middle" x="900" y="-7.5" font-family="Helvetica,sans-Serif" font-size="10.00">CellSociety.readNewXML</text>
</a>
</g>
</g>
<!-- Node10&#45;&gt;Node11 -->
<g id="edge12" class="edge"><title>Node10&#45;&gt;Node11</title>
<path fill="none" stroke="midnightblue" d="M788.552,-15.1504C803.727,-14.4428 819.372,-13.7132 833.943,-13.0337"/>
<polygon fill="midnightblue" stroke="midnightblue" points="787.967,-11.6738 778.141,-15.6359 788.293,-18.6662 787.967,-11.6738"/>
</g>
<!-- Node11&#45;&gt;Node4 -->
<g id="edge13" class="edge"><title>Node11&#45;&gt;Node4</title>
<path fill="none" stroke="midnightblue" d="M956.362,-21.8882C965.628,-24.1025 975.115,-26.5086 984,-29 1014.33,-37.5056 1048.54,-49.198 1071.51,-57.3586"/>
<polygon fill="midnightblue" stroke="midnightblue" points="956.965,-18.4351 946.431,-19.5659 955.371,-25.2512 956.965,-18.4351"/>
</g>
</g>
</svg>
