<?xml version="1.0" encoding="UTF-8" standalone="no"?>
<!DOCTYPE svg PUBLIC "-//W3C//DTD SVG 1.1//EN"
 "http://www.w3.org/Graphics/SVG/1.1/DTD/svg11.dtd">
<!-- Generated by graphviz version 2.36.0 (20140111.2315)
 -->
<!-- Title: SimController.contains Pages: 1 -->
<svg width="932pt" height="164pt"
 viewBox="0.00 0.00 932.00 164.00" xmlns="http://www.w3.org/2000/svg" xmlns:xlink="http://www.w3.org/1999/xlink">
<g id="graph0" class="graph" transform="scale(1 1) rotate(0) translate(4 160)">
<title>SimController.contains</title>
<polygon fill="white" stroke="none" points="-4,4 -4,-160 928,-160 928,4 -4,4"/>
<!-- Node1 -->
<g id="node1" class="node"><title>Node1</title>
<polygon fill="#bfbfbf" stroke="black" points="0.5,-49.5 0.5,-68.5 125.5,-68.5 125.5,-49.5 0.5,-49.5"/>
<text text-anchor="middle" x="63" y="-56.5" font-family="Helvetica,sans-Serif" font-size="10.00">SimController.contains</text>
</g>
<!-- Node2 -->
<g id="node2" class="node"><title>Node2</title>
<g id="a_node2"><a xlink:href="../../dc/da7/class_wator_controller.html#aa2798e4be6f701485c448df33a18db55" target="_top" xlink:title="WatorController.getNeighbors">
<polygon fill="white" stroke="black" points="162.5,-87.5 162.5,-106.5 319.5,-106.5 319.5,-87.5 162.5,-87.5"/>
<text text-anchor="middle" x="241" y="-94.5" font-family="Helvetica,sans-Serif" font-size="10.00">WatorController.getNeighbors</text>
</a>
</g>
</g>
<!-- Node1&#45;&gt;Node2 -->
<g id="edge1" class="edge"><title>Node1&#45;&gt;Node2</title>
<path fill="none" stroke="midnightblue" d="M118.433,-70.7526C143.319,-76.1258 172.419,-82.4086 195.907,-87.4799"/>
<polygon fill="midnightblue" stroke="midnightblue" points="118.926,-67.2784 108.412,-68.589 117.448,-74.1207 118.926,-67.2784"/>
</g>
<!-- Node5 -->
<g id="node5" class="node"><title>Node5</title>
<g id="a_node5"><a xlink:href="../../dc/da7/class_wator_controller.html#acc1968e8357ac21f25473b4fcbadc954" target="_top" xlink:title="WatorController.runOneSim">
<polygon fill="white" stroke="black" points="778,-68.5 778,-87.5 924,-87.5 924,-68.5 778,-68.5"/>
<text text-anchor="middle" x="851" y="-75.5" font-family="Helvetica,sans-Serif" font-size="10.00">WatorController.runOneSim</text>
</a>
</g>
</g>
<!-- Node1&#45;&gt;Node5 -->
<g id="edge8" class="edge"><title>Node1&#45;&gt;Node5</title>
<path fill="none" stroke="midnightblue" d="M136.11,-60.7431C285.728,-64.3598 628.395,-72.6431 777.956,-76.2585"/>
<polygon fill="midnightblue" stroke="midnightblue" points="135.758,-57.2337 125.676,-60.4909 135.589,-64.2316 135.758,-57.2337"/>
</g>
<!-- Node7 -->
<g id="node7" class="node"><title>Node7</title>
<g id="a_node7"><a xlink:href="../../db/df8/class_segregation_controller.html#a2253ad6843821c07a63332369bc6db60" target="_top" xlink:title="SegregationController.new\lState">
<polygon fill="white" stroke="black" points="169.5,-0 169.5,-30 312.5,-30 312.5,-0 169.5,-0"/>
<text text-anchor="start" x="177.5" y="-18" font-family="Helvetica,sans-Serif" font-size="10.00">SegregationController.new</text>
<text text-anchor="middle" x="241" y="-7" font-family="Helvetica,sans-Serif" font-size="10.00">State</text>
</a>
</g>
</g>
<!-- Node1&#45;&gt;Node7 -->
<g id="edge7" class="edge"><title>Node1&#45;&gt;Node7</title>
<path fill="none" stroke="midnightblue" d="M112.105,-46.9739C132.981,-41.7547 157.658,-35.5856 179.739,-30.0654"/>
<polygon fill="midnightblue" stroke="midnightblue" points="111.042,-43.6317 102.189,-49.4527 112.74,-50.4227 111.042,-43.6317"/>
</g>
<!-- Node3 -->
<g id="node3" class="node"><title>Node3</title>
<g id="a_node3"><a xlink:href="../../dc/da7/class_wator_controller.html#a1cf19c6619c3be6edf4e18c4758f6c01" target="_top" xlink:title="WatorController.updateFrom\lShark">
<polygon fill="white" stroke="black" points="365,-126 365,-156 515,-156 515,-126 365,-126"/>
<text text-anchor="start" x="373" y="-144" font-family="Helvetica,sans-Serif" font-size="10.00">WatorController.updateFrom</text>
<text text-anchor="middle" x="440" y="-133" font-family="Helvetica,sans-Serif" font-size="10.00">Shark</text>
</a>
</g>
</g>
<!-- Node2&#45;&gt;Node3 -->
<g id="edge2" class="edge"><title>Node2&#45;&gt;Node3</title>
<path fill="none" stroke="midnightblue" d="M294.574,-108.742C318.206,-114.021 346.383,-120.314 371.548,-125.935"/>
<polygon fill="midnightblue" stroke="midnightblue" points="295.269,-105.311 284.746,-106.547 293.743,-112.143 295.269,-105.311"/>
</g>
<!-- Node6 -->
<g id="node6" class="node"><title>Node6</title>
<g id="a_node6"><a xlink:href="../../dc/da7/class_wator_controller.html#a92a5ed25c56db84dd6f20e244d092a46" target="_top" xlink:title="WatorController.updateFromFish">
<polygon fill="white" stroke="black" points="356,-87.5 356,-106.5 524,-106.5 524,-87.5 356,-87.5"/>
<text text-anchor="middle" x="440" y="-94.5" font-family="Helvetica,sans-Serif" font-size="10.00">WatorController.updateFromFish</text>
</a>
</g>
</g>
<!-- Node2&#45;&gt;Node6 -->
<g id="edge5" class="edge"><title>Node2&#45;&gt;Node6</title>
<path fill="none" stroke="midnightblue" d="M329.747,-97C338.468,-97 347.304,-97 355.976,-97"/>
<polygon fill="midnightblue" stroke="midnightblue" points="329.577,-93.5001 319.577,-97 329.577,-100.5 329.577,-93.5001"/>
</g>
<!-- Node4 -->
<g id="node4" class="node"><title>Node4</title>
<g id="a_node4"><a xlink:href="../../dc/da7/class_wator_controller.html#a0d61c3c9e96000370bacec79d64725ab" target="_top" xlink:title="WatorController.updateDestination">
<polygon fill="white" stroke="black" points="560.5,-87.5 560.5,-106.5 741.5,-106.5 741.5,-87.5 560.5,-87.5"/>
<text text-anchor="middle" x="651" y="-94.5" font-family="Helvetica,sans-Serif" font-size="10.00">WatorController.updateDestination</text>
</a>
</g>
</g>
<!-- Node3&#45;&gt;Node4 -->
<g id="edge3" class="edge"><title>Node3&#45;&gt;Node4</title>
<path fill="none" stroke="midnightblue" d="M522.159,-123.914C550.236,-118.003 580.682,-111.593 604.816,-106.512"/>
<polygon fill="midnightblue" stroke="midnightblue" points="521.406,-120.496 512.341,-125.981 522.848,-127.346 521.406,-120.496"/>
</g>
<!-- Node4&#45;&gt;Node5 -->
<g id="edge4" class="edge"><title>Node4&#45;&gt;Node5</title>
<path fill="none" stroke="midnightblue" d="M751.946,-87.4092C760.658,-86.5732 769.36,-85.7382 777.782,-84.93"/>
<polygon fill="midnightblue" stroke="midnightblue" points="751.351,-83.9502 741.731,-88.3895 752.019,-90.9182 751.351,-83.9502"/>
</g>
<!-- Node6&#45;&gt;Node4 -->
<g id="edge6" class="edge"><title>Node6&#45;&gt;Node4</title>
<path fill="none" stroke="midnightblue" d="M534.268,-97C542.894,-97 551.624,-97 560.219,-97"/>
<polygon fill="midnightblue" stroke="midnightblue" points="534.203,-93.5001 524.203,-97 534.203,-100.5 534.203,-93.5001"/>
</g>
</g>
</svg>
