<?xml version="1.0" encoding="UTF-8" standalone="no"?>
<!DOCTYPE svg PUBLIC "-//W3C//DTD SVG 1.1//EN"
 "http://www.w3.org/Graphics/SVG/1.1/DTD/svg11.dtd">
<!-- Generated by graphviz version 2.36.0 (20140111.2315)
 -->
<!-- Title: SimController.runOneSim Pages: 1 -->
<svg width="332pt" height="116pt"
 viewBox="0.00 0.00 332.00 116.00" xmlns="http://www.w3.org/2000/svg" xmlns:xlink="http://www.w3.org/1999/xlink">
<g id="graph0" class="graph" transform="scale(1 1) rotate(0) translate(4 112)">
<title>SimController.runOneSim</title>
<polygon fill="white" stroke="none" points="-4,4 -4,-112 328,-112 328,4 -4,4"/>
<!-- Node1 -->
<g id="node1" class="node"><title>Node1</title>
<polygon fill="#bfbfbf" stroke="black" points="0,-44.5 0,-63.5 138,-63.5 138,-44.5 0,-44.5"/>
<text text-anchor="middle" x="69" y="-51.5" font-family="Helvetica,sans-Serif" font-size="10.00">SimController.runOneSim</text>
</g>
<!-- Node2 -->
<g id="node2" class="node"><title>Node2</title>
<g id="a_node2"><a xlink:href="../../dd/ddd/class_neighbor.html#ac769186595af20512a2ec4754db75640" target="_top" xlink:title="Neighbor.getNeighbors">
<polygon fill="white" stroke="black" points="185.5,-88.5 185.5,-107.5 312.5,-107.5 312.5,-88.5 185.5,-88.5"/>
<text text-anchor="middle" x="249" y="-95.5" font-family="Helvetica,sans-Serif" font-size="10.00">Neighbor.getNeighbors</text>
</a>
</g>
</g>
<!-- Node1&#45;&gt;Node2 -->
<g id="edge1" class="edge"><title>Node1&#45;&gt;Node2</title>
<path fill="none" stroke="midnightblue" d="M108.623,-63.5473C135.331,-70.1492 171.063,-78.9819 199.661,-86.051"/>
<polygon fill="midnightblue" stroke="midnightblue" points="198.904,-89.4693 209.452,-88.4713 200.584,-82.6738 198.904,-89.4693"/>
</g>
<!-- Node3 -->
<g id="node3" class="node"><title>Node3</title>
<g id="a_node3"><a xlink:href="../../d6/d6e/class_sim_controller.html#a1538c5c647988e5d5b6602c8eb1b8949" target="_top" xlink:title="SimController.getNeighbors\lState">
<polygon fill="white" stroke="black" points="174.5,-39 174.5,-69 323.5,-69 323.5,-39 174.5,-39"/>
<text text-anchor="start" x="182.5" y="-57" font-family="Helvetica,sans-Serif" font-size="10.00">SimController.getNeighbors</text>
<text text-anchor="middle" x="249" y="-46" font-family="Helvetica,sans-Serif" font-size="10.00">State</text>
</a>
</g>
</g>
<!-- Node1&#45;&gt;Node3 -->
<g id="edge2" class="edge"><title>Node1&#45;&gt;Node3</title>
<path fill="none" stroke="midnightblue" d="M138.056,-54C146.592,-54 155.4,-54 164.141,-54"/>
<polygon fill="midnightblue" stroke="midnightblue" points="164.352,-57.5001 174.352,-54 164.352,-50.5001 164.352,-57.5001"/>
</g>
<!-- Node4 -->
<g id="node4" class="node"><title>Node4</title>
<g id="a_node4"><a xlink:href="../../d6/d6e/class_sim_controller.html#a6b7a166a6fd312895c8356d24de980e3" target="_top" xlink:title="SimController.newState">
<polygon fill="white" stroke="black" points="184.5,-0.5 184.5,-19.5 313.5,-19.5 313.5,-0.5 184.5,-0.5"/>
<text text-anchor="middle" x="249" y="-7.5" font-family="Helvetica,sans-Serif" font-size="10.00">SimController.newState</text>
</a>
</g>
</g>
<!-- Node1&#45;&gt;Node4 -->
<g id="edge3" class="edge"><title>Node1&#45;&gt;Node4</title>
<path fill="none" stroke="midnightblue" d="M108.623,-44.4527C135.331,-37.8508 171.063,-29.0181 199.661,-21.949"/>
<polygon fill="midnightblue" stroke="midnightblue" points="200.584,-25.3262 209.452,-19.5287 198.904,-18.5307 200.584,-25.3262"/>
</g>
</g>
</svg>
