<?xml version="1.0" encoding="UTF-8" standalone="no"?>
<!DOCTYPE svg PUBLIC "-//W3C//DTD SVG 1.1//EN"
 "http://www.w3.org/Graphics/SVG/1.1/DTD/svg11.dtd">
<!-- Generated by graphviz version 2.36.0 (20140111.2315)
 -->
<!-- Title: SimController.makeCell Pages: 1 -->
<svg width="318pt" height="154pt"
 viewBox="0.00 0.00 318.00 154.00" xmlns="http://www.w3.org/2000/svg" xmlns:xlink="http://www.w3.org/1999/xlink">
<g id="graph0" class="graph" transform="scale(1 1) rotate(0) translate(4 150)">
<title>SimController.makeCell</title>
<polygon fill="white" stroke="none" points="-4,4 -4,-150 314,-150 314,4 -4,4"/>
<!-- Node1 -->
<g id="node1" class="node"><title>Node1</title>
<polygon fill="#bfbfbf" stroke="black" points="0,-66.5 0,-85.5 128,-85.5 128,-66.5 0,-66.5"/>
<text text-anchor="middle" x="64" y="-73.5" font-family="Helvetica,sans-Serif" font-size="10.00">SimController.makeCell</text>
</g>
<!-- Node2 -->
<g id="node2" class="node"><title>Node2</title>
<g id="a_node2"><a xlink:href="../../d5/d1b/class_fire_controller.html#ab4e08aed3cc0e59a18ab11cfc85ba1ad" target="_top" xlink:title="FireController.newState">
<polygon fill="white" stroke="black" points="173.5,-126.5 173.5,-145.5 300.5,-145.5 300.5,-126.5 173.5,-126.5"/>
<text text-anchor="middle" x="237" y="-133.5" font-family="Helvetica,sans-Serif" font-size="10.00">FireController.newState</text>
</a>
</g>
</g>
<!-- Node1&#45;&gt;Node2 -->
<g id="edge1" class="edge"><title>Node1&#45;&gt;Node2</title>
<path fill="none" stroke="midnightblue" d="M95.1667,-89.7359C114.574,-98.2612 140.476,-109.065 164,-117 174.29,-120.471 185.579,-123.71 196.104,-126.495"/>
<polygon fill="midnightblue" stroke="midnightblue" points="96.489,-86.4935 85.929,-85.6347 93.6486,-92.8914 96.489,-86.4935"/>
</g>
<!-- Node3 -->
<g id="node3" class="node"><title>Node3</title>
<g id="a_node3"><a xlink:href="../../d9/da2/class_life_controller.html#a36d1c0657f422c009b45e38e8676b4c7" target="_top" xlink:title="LifeController.newState">
<polygon fill="white" stroke="black" points="173.5,-88.5 173.5,-107.5 300.5,-107.5 300.5,-88.5 173.5,-88.5"/>
<text text-anchor="middle" x="237" y="-95.5" font-family="Helvetica,sans-Serif" font-size="10.00">LifeController.newState</text>
</a>
</g>
</g>
<!-- Node1&#45;&gt;Node3 -->
<g id="edge2" class="edge"><title>Node1&#45;&gt;Node3</title>
<path fill="none" stroke="midnightblue" d="M138.336,-85.435C149.998,-86.9355 161.969,-88.4756 173.357,-89.9406"/>
<polygon fill="midnightblue" stroke="midnightblue" points="138.553,-81.9342 128.188,-84.1295 137.66,-88.877 138.553,-81.9342"/>
</g>
<!-- Node4 -->
<g id="node4" class="node"><title>Node4</title>
<g id="a_node4"><a xlink:href="../../db/df8/class_segregation_controller.html#a2253ad6843821c07a63332369bc6db60" target="_top" xlink:title="SegregationController.new\lState">
<polygon fill="white" stroke="black" points="165.5,-39 165.5,-69 308.5,-69 308.5,-39 165.5,-39"/>
<text text-anchor="start" x="173.5" y="-57" font-family="Helvetica,sans-Serif" font-size="10.00">SegregationController.new</text>
<text text-anchor="middle" x="237" y="-46" font-family="Helvetica,sans-Serif" font-size="10.00">State</text>
</a>
</g>
</g>
<!-- Node1&#45;&gt;Node4 -->
<g id="edge3" class="edge"><title>Node1&#45;&gt;Node4</title>
<path fill="none" stroke="midnightblue" d="M138.222,-66.5797C147.197,-65.425 156.356,-64.2465 165.294,-63.0967"/>
<polygon fill="midnightblue" stroke="midnightblue" points="137.66,-63.123 128.188,-67.8705 138.553,-70.0658 137.66,-63.123"/>
</g>
<!-- Node5 -->
<g id="node5" class="node"><title>Node5</title>
<g id="a_node5"><a xlink:href="../../dc/da7/class_wator_controller.html#acc1968e8357ac21f25473b4fcbadc954" target="_top" xlink:title="WatorController.runOneSim">
<polygon fill="white" stroke="black" points="164,-0.5 164,-19.5 310,-19.5 310,-0.5 164,-0.5"/>
<text text-anchor="middle" x="237" y="-7.5" font-family="Helvetica,sans-Serif" font-size="10.00">WatorController.runOneSim</text>
</a>
</g>
</g>
<!-- Node1&#45;&gt;Node5 -->
<g id="edge4" class="edge"><title>Node1&#45;&gt;Node5</title>
<path fill="none" stroke="midnightblue" d="M92.1906,-61.8908C111.798,-52.0837 139.089,-39.1769 164,-30 174.591,-26.0985 186.299,-22.5389 197.142,-19.5394"/>
<polygon fill="midnightblue" stroke="midnightblue" points="90.5692,-58.7887 83.2264,-66.4264 93.7295,-65.0347 90.5692,-58.7887"/>
</g>
</g>
</svg>
