<?xml version="1.0" encoding="UTF-8" standalone="no"?>
<!DOCTYPE svg PUBLIC "-//W3C//DTD SVG 1.1//EN"
 "http://www.w3.org/Graphics/SVG/1.1/DTD/svg11.dtd">
<!-- Generated by graphviz version 2.36.0 (20140111.2315)
 -->
<!-- Title: SimController.getNeighborsState Pages: 1 -->
<svg width="1366pt" height="130pt"
 viewBox="0.00 0.00 1366.00 129.56" xmlns="http://www.w3.org/2000/svg" xmlns:xlink="http://www.w3.org/1999/xlink">
<g id="graph0" class="graph" transform="scale(1 1) rotate(0) translate(4 125.562)">
<title>SimController.getNeighborsState</title>
<polygon fill="white" stroke="none" points="-4,4 -4,-125.562 1362,-125.562 1362,4 -4,4"/>
<!-- Node1 -->
<g id="node1" class="node"><title>Node1</title>
<polygon fill="#bfbfbf" stroke="black" points="0.5,-80 0.5,-110 149.5,-110 149.5,-80 0.5,-80"/>
<text text-anchor="start" x="8.5" y="-98" font-family="Helvetica,sans-Serif" font-size="10.00">SimController.getNeighbors</text>
<text text-anchor="middle" x="75" y="-87" font-family="Helvetica,sans-Serif" font-size="10.00">State</text>
</g>
<!-- Node2 -->
<g id="node2" class="node"><title>Node2</title>
<g id="a_node2"><a xlink:href="../../d6/d6e/class_sim_controller.html#a10145cee2eaceb4ecad9396a825051d1" target="_top" xlink:title="SimController.runOneSim">
<polygon fill="white" stroke="black" points="186,-85.5 186,-104.5 324,-104.5 324,-85.5 186,-85.5"/>
<text text-anchor="middle" x="255" y="-92.5" font-family="Helvetica,sans-Serif" font-size="10.00">SimController.runOneSim</text>
</a>
</g>
</g>
<!-- Node1&#45;&gt;Node2 -->
<g id="edge1" class="edge"><title>Node1&#45;&gt;Node2</title>
<path fill="none" stroke="midnightblue" d="M159.842,-95C168.537,-95 177.299,-95 185.792,-95"/>
<polygon fill="midnightblue" stroke="midnightblue" points="159.684,-91.5001 149.684,-95 159.684,-98.5001 159.684,-91.5001"/>
</g>
<!-- Node3 -->
<g id="node3" class="node"><title>Node3</title>
<g id="a_node3"><a xlink:href="../../d3/dff/class_cell_society.html#a0ff19c30a1cc433d8ea8444f6a5617f1" target="_top" xlink:title="CellSociety.updateGrid">
<polygon fill="white" stroke="black" points="360,-85.5 360,-104.5 484,-104.5 484,-85.5 360,-85.5"/>
<text text-anchor="middle" x="422" y="-92.5" font-family="Helvetica,sans-Serif" font-size="10.00">CellSociety.updateGrid</text>
</a>
</g>
</g>
<!-- Node2&#45;&gt;Node3 -->
<g id="edge2" class="edge"><title>Node2&#45;&gt;Node3</title>
<path fill="none" stroke="midnightblue" d="M334.176,-95C342.835,-95 351.557,-95 359.959,-95"/>
<polygon fill="midnightblue" stroke="midnightblue" points="334.064,-91.5001 324.064,-95 334.064,-98.5001 334.064,-91.5001"/>
</g>
<!-- Node4 -->
<g id="node4" class="node"><title>Node4</title>
<g id="a_node4"><a xlink:href="../../d3/dff/class_cell_society.html#a656ff46d1459fb7f86b42e3c542506ee" target="_top" xlink:title="CellSociety.configureListeners">
<polygon fill="white" stroke="black" points="1040,-57.5 1040,-76.5 1198,-76.5 1198,-57.5 1040,-57.5"/>
<text text-anchor="middle" x="1119" y="-64.5" font-family="Helvetica,sans-Serif" font-size="10.00">CellSociety.configureListeners</text>
</a>
</g>
</g>
<!-- Node3&#45;&gt;Node4 -->
<g id="edge3" class="edge"><title>Node3&#45;&gt;Node4</title>
<path fill="none" stroke="midnightblue" d="M494.143,-104.282C604.251,-116.843 822.215,-134.5 1004,-105 1037.15,-99.6198 1073.7,-85.977 1096.25,-76.5924"/>
<polygon fill="midnightblue" stroke="midnightblue" points="494.488,-100.799 484.151,-103.122 493.681,-107.752 494.488,-100.799"/>
</g>
<!-- Node6 -->
<g id="node6" class="node"><title>Node6</title>
<g id="a_node6"><a xlink:href="../../d3/dff/class_cell_society.html#abf13a64ee79f2cb063447b499c695c58" target="_top" xlink:title="CellSociety.start">
<polygon fill="white" stroke="black" points="520.5,-57.5 520.5,-76.5 613.5,-76.5 613.5,-57.5 520.5,-57.5"/>
<text text-anchor="middle" x="567" y="-64.5" font-family="Helvetica,sans-Serif" font-size="10.00">CellSociety.start</text>
</a>
</g>
</g>
<!-- Node3&#45;&gt;Node6 -->
<g id="edge5" class="edge"><title>Node3&#45;&gt;Node6</title>
<path fill="none" stroke="midnightblue" d="M481.93,-83.4613C494.735,-80.954 508.095,-78.338 520.298,-75.9487"/>
<polygon fill="midnightblue" stroke="midnightblue" points="480.954,-80.0859 471.813,-85.4423 482.299,-86.9554 480.954,-80.0859"/>
</g>
<!-- Node5 -->
<g id="node5" class="node"><title>Node5</title>
<g id="a_node5"><a xlink:href="../../d3/dff/class_cell_society.html#ac5e08680a3da358d402461bc25aa1727" target="_top" xlink:title="CellSociety.CellSociety">
<polygon fill="white" stroke="black" points="1234.5,-57.5 1234.5,-76.5 1357.5,-76.5 1357.5,-57.5 1234.5,-57.5"/>
<text text-anchor="middle" x="1296" y="-64.5" font-family="Helvetica,sans-Serif" font-size="10.00">CellSociety.CellSociety</text>
</a>
</g>
</g>
<!-- Node4&#45;&gt;Node5 -->
<g id="edge4" class="edge"><title>Node4&#45;&gt;Node5</title>
<path fill="none" stroke="midnightblue" d="M1208.09,-67C1217.01,-67 1225.92,-67 1234.45,-67"/>
<polygon fill="midnightblue" stroke="midnightblue" points="1208.03,-63.5001 1198.03,-67 1208.03,-70.5001 1208.03,-63.5001"/>
</g>
<!-- Node7 -->
<g id="node7" class="node"><title>Node7</title>
<g id="a_node7"><a xlink:href="../../d3/dff/class_cell_society.html#adc5feda3db5472cea4e092d463681033" target="_top" xlink:title="CellSociety.reframeTimeline">
<polygon fill="white" stroke="black" points="650.5,-57.5 650.5,-76.5 799.5,-76.5 799.5,-57.5 650.5,-57.5"/>
<text text-anchor="middle" x="725" y="-64.5" font-family="Helvetica,sans-Serif" font-size="10.00">CellSociety.reframeTimeline</text>
</a>
</g>
</g>
<!-- Node6&#45;&gt;Node7 -->
<g id="edge6" class="edge"><title>Node6&#45;&gt;Node7</title>
<path fill="none" stroke="midnightblue" d="M623.78,-67C632.359,-67 641.329,-67 650.226,-67"/>
<polygon fill="midnightblue" stroke="midnightblue" points="623.541,-63.5001 613.541,-67 623.541,-70.5001 623.541,-63.5001"/>
</g>
<!-- Node10 -->
<g id="node10" class="node"><title>Node10</title>
<g id="a_node10"><a xlink:href="../../d3/dff/class_cell_society.html#ab9e56a2a70e210e021b51e898508329b" target="_top" xlink:title="CellSociety.setupAnimation">
<polygon fill="white" stroke="black" points="652,-9.5 652,-28.5 798,-28.5 798,-9.5 652,-9.5"/>
<text text-anchor="middle" x="725" y="-16.5" font-family="Helvetica,sans-Serif" font-size="10.00">CellSociety.setupAnimation</text>
</a>
</g>
</g>
<!-- Node6&#45;&gt;Node10 -->
<g id="edge11" class="edge"><title>Node6&#45;&gt;Node10</title>
<path fill="none" stroke="midnightblue" d="M608.87,-54.4247C635.143,-46.3405 668.748,-36.0005 692.86,-28.5815"/>
<polygon fill="midnightblue" stroke="midnightblue" points="607.722,-51.1157 599.194,-57.4018 609.781,-57.8061 607.722,-51.1157"/>
</g>
<!-- Node8 -->
<g id="node8" class="node"><title>Node8</title>
<g id="a_node8"><a xlink:href="../../d3/dff/class_cell_society.html#a045267ba1843ca4a47891d7be73c2ac1" target="_top" xlink:title="CellSociety.decreaseFrameRate">
<polygon fill="white" stroke="black" points="836.5,-76.5 836.5,-95.5 1003.5,-95.5 1003.5,-76.5 836.5,-76.5"/>
<text text-anchor="middle" x="920" y="-83.5" font-family="Helvetica,sans-Serif" font-size="10.00">CellSociety.decreaseFrameRate</text>
</a>
</g>
</g>
<!-- Node7&#45;&gt;Node8 -->
<g id="edge7" class="edge"><title>Node7&#45;&gt;Node8</title>
<path fill="none" stroke="midnightblue" d="M809.487,-75.2189C818.391,-76.0954 827.444,-76.9868 836.338,-77.8623"/>
<polygon fill="midnightblue" stroke="midnightblue" points="809.81,-71.7339 799.516,-74.2373 809.125,-78.7003 809.81,-71.7339"/>
</g>
<!-- Node9 -->
<g id="node9" class="node"><title>Node9</title>
<g id="a_node9"><a xlink:href="../../d3/dff/class_cell_society.html#a8250bfacdaf51dabf6b9d1cafc0ce9b2" target="_top" xlink:title="CellSociety.increaseFrameRate">
<polygon fill="white" stroke="black" points="838.5,-38.5 838.5,-57.5 1001.5,-57.5 1001.5,-38.5 838.5,-38.5"/>
<text text-anchor="middle" x="920" y="-45.5" font-family="Helvetica,sans-Serif" font-size="10.00">CellSociety.increaseFrameRate</text>
</a>
</g>
</g>
<!-- Node7&#45;&gt;Node9 -->
<g id="edge9" class="edge"><title>Node7&#45;&gt;Node9</title>
<path fill="none" stroke="midnightblue" d="M809.719,-58.7583C819.198,-57.8251 828.845,-56.8753 838.285,-55.946"/>
<polygon fill="midnightblue" stroke="midnightblue" points="809.125,-55.2997 799.516,-59.7627 809.81,-62.2661 809.125,-55.2997"/>
</g>
<!-- Node8&#45;&gt;Node4 -->
<g id="edge8" class="edge"><title>Node8&#45;&gt;Node4</title>
<path fill="none" stroke="midnightblue" d="M1013.88,-77.0423C1022.59,-76.2017 1031.37,-75.3554 1039.93,-74.5299"/>
<polygon fill="midnightblue" stroke="midnightblue" points="1013.31,-73.5809 1003.69,-78.0249 1013.98,-80.5486 1013.31,-73.5809"/>
</g>
<!-- Node9&#45;&gt;Node4 -->
<g id="edge10" class="edge"><title>Node9&#45;&gt;Node4</title>
<path fill="none" stroke="midnightblue" d="M1011.84,-56.7614C1021.24,-57.6678 1030.73,-58.5834 1039.97,-59.4746"/>
<polygon fill="midnightblue" stroke="midnightblue" points="1011.99,-53.2591 1001.7,-55.7828 1011.31,-60.2268 1011.99,-53.2591"/>
</g>
<!-- Node11 -->
<g id="node11" class="node"><title>Node11</title>
<g id="a_node11"><a xlink:href="../../d3/dff/class_cell_society.html#af9f22af39a97a58b26126020ca6c8844" target="_top" xlink:title="CellSociety.readNewXML">
<polygon fill="white" stroke="black" points="854,-0.5 854,-19.5 986,-19.5 986,-0.5 854,-0.5"/>
<text text-anchor="middle" x="920" y="-7.5" font-family="Helvetica,sans-Serif" font-size="10.00">CellSociety.readNewXML</text>
</a>
</g>
</g>
<!-- Node10&#45;&gt;Node11 -->
<g id="edge12" class="edge"><title>Node10&#45;&gt;Node11</title>
<path fill="none" stroke="midnightblue" d="M808.552,-15.1504C823.727,-14.4428 839.372,-13.7132 853.943,-13.0337"/>
<polygon fill="midnightblue" stroke="midnightblue" points="807.967,-11.6738 798.141,-15.6359 808.293,-18.6662 807.967,-11.6738"/>
</g>
<!-- Node11&#45;&gt;Node4 -->
<g id="edge13" class="edge"><title>Node11&#45;&gt;Node4</title>
<path fill="none" stroke="midnightblue" d="M976.362,-21.8882C985.628,-24.1025 995.115,-26.5086 1004,-29 1034.33,-37.5056 1068.54,-49.198 1091.51,-57.3586"/>
<polygon fill="midnightblue" stroke="midnightblue" points="976.965,-18.4351 966.431,-19.5659 975.371,-25.2512 976.965,-18.4351"/>
</g>
</g>
</svg>
