<?xml version="1.0" encoding="UTF-8" standalone="no"?>
<!DOCTYPE svg PUBLIC "-//W3C//DTD SVG 1.1//EN"
 "http://www.w3.org/Graphics/SVG/1.1/DTD/svg11.dtd">
<!-- Generated by graphviz version 2.36.0 (20140111.2315)
 -->
<!-- Title: SimController.contains Pages: 1 -->
<svg width="932pt" height="202pt"
 viewBox="0.00 0.00 932.00 202.00" xmlns="http://www.w3.org/2000/svg" xmlns:xlink="http://www.w3.org/1999/xlink">
<g id="graph0" class="graph" transform="scale(1 1) rotate(0) translate(4 198)">
<title>SimController.contains</title>
<polygon fill="white" stroke="none" points="-4,4 -4,-198 928,-198 928,4 -4,4"/>
<!-- Node1 -->
<g id="node1" class="node"><title>Node1</title>
<polygon fill="#bfbfbf" stroke="black" points="0.5,-49.5 0.5,-68.5 125.5,-68.5 125.5,-49.5 0.5,-49.5"/>
<text text-anchor="middle" x="63" y="-56.5" font-family="Helvetica,sans-Serif" font-size="10.00">SimController.contains</text>
</g>
<!-- Node2 -->
<g id="node2" class="node"><title>Node2</title>
<g id="a_node2"><a xlink:href="../../dc/da7/class_wator_controller.html#aa2798e4be6f701485c448df33a18db55" target="_top" xlink:title="WatorController.getNeighbors">
<polygon fill="white" stroke="black" points="162.5,-106.5 162.5,-125.5 319.5,-125.5 319.5,-106.5 162.5,-106.5"/>
<text text-anchor="middle" x="241" y="-113.5" font-family="Helvetica,sans-Serif" font-size="10.00">WatorController.getNeighbors</text>
</a>
</g>
</g>
<!-- Node1&#45;&gt;Node2 -->
<g id="edge1" class="edge"><title>Node1&#45;&gt;Node2</title>
<path fill="none" stroke="midnightblue" d="M103.077,-71.6558C135.521,-82.163 180.968,-96.8816 210.445,-106.428"/>
<polygon fill="midnightblue" stroke="midnightblue" points="104.05,-68.2919 93.4584,-68.5405 101.894,-74.9514 104.05,-68.2919"/>
</g>
<!-- Node5 -->
<g id="node5" class="node"><title>Node5</title>
<g id="a_node5"><a xlink:href="../../dc/da7/class_wator_controller.html#acc1968e8357ac21f25473b4fcbadc954" target="_top" xlink:title="WatorController.runOneSim">
<polygon fill="white" stroke="black" points="778,-87.5 778,-106.5 924,-106.5 924,-87.5 778,-87.5"/>
<text text-anchor="middle" x="851" y="-94.5" font-family="Helvetica,sans-Serif" font-size="10.00">WatorController.runOneSim</text>
</a>
</g>
</g>
<!-- Node1&#45;&gt;Node5 -->
<g id="edge9" class="edge"><title>Node1&#45;&gt;Node5</title>
<path fill="none" stroke="midnightblue" d="M135.923,-61.5936C226.472,-64.9456 386.791,-71.1684 524,-78 611.341,-82.3487 711.785,-88.3549 777.832,-92.4424"/>
<polygon fill="midnightblue" stroke="midnightblue" points="135.892,-58.0902 125.77,-61.2189 135.634,-65.0854 135.892,-58.0902"/>
</g>
<!-- Node8 -->
<g id="node8" class="node"><title>Node8</title>
<g id="a_node8"><a xlink:href="../../db/df8/class_segregation_controller.html#a2253ad6843821c07a63332369bc6db60" target="_top" xlink:title="SegregationController.new\lState">
<polygon fill="white" stroke="black" points="169.5,-0 169.5,-30 312.5,-30 312.5,-0 169.5,-0"/>
<text text-anchor="start" x="177.5" y="-18" font-family="Helvetica,sans-Serif" font-size="10.00">SegregationController.new</text>
<text text-anchor="middle" x="241" y="-7" font-family="Helvetica,sans-Serif" font-size="10.00">State</text>
</a>
</g>
</g>
<!-- Node1&#45;&gt;Node8 -->
<g id="edge8" class="edge"><title>Node1&#45;&gt;Node8</title>
<path fill="none" stroke="midnightblue" d="M112.105,-46.9739C132.981,-41.7547 157.658,-35.5856 179.739,-30.0654"/>
<polygon fill="midnightblue" stroke="midnightblue" points="111.042,-43.6317 102.189,-49.4527 112.74,-50.4227 111.042,-43.6317"/>
</g>
<!-- Node3 -->
<g id="node3" class="node"><title>Node3</title>
<g id="a_node3"><a xlink:href="../../dc/da7/class_wator_controller.html#a1cf19c6619c3be6edf4e18c4758f6c01" target="_top" xlink:title="WatorController.updateFrom\lShark">
<polygon fill="white" stroke="black" points="365,-164 365,-194 515,-194 515,-164 365,-164"/>
<text text-anchor="start" x="373" y="-182" font-family="Helvetica,sans-Serif" font-size="10.00">WatorController.updateFrom</text>
<text text-anchor="middle" x="440" y="-171" font-family="Helvetica,sans-Serif" font-size="10.00">Shark</text>
</a>
</g>
</g>
<!-- Node2&#45;&gt;Node3 -->
<g id="edge2" class="edge"><title>Node2&#45;&gt;Node3</title>
<path fill="none" stroke="midnightblue" d="M279.731,-128.884C301.893,-136.375 330.478,-145.904 356,-154 366.328,-157.276 377.412,-160.687 388.01,-163.898"/>
<polygon fill="midnightblue" stroke="midnightblue" points="280.629,-125.493 270.035,-125.599 278.383,-132.123 280.629,-125.493"/>
</g>
<!-- Node6 -->
<g id="node6" class="node"><title>Node6</title>
<g id="a_node6"><a xlink:href="../../dc/da7/class_wator_controller.html#a92a5ed25c56db84dd6f20e244d092a46" target="_top" xlink:title="WatorController.updateFromFish">
<polygon fill="white" stroke="black" points="356,-125.5 356,-144.5 524,-144.5 524,-125.5 356,-125.5"/>
<text text-anchor="middle" x="440" y="-132.5" font-family="Helvetica,sans-Serif" font-size="10.00">WatorController.updateFromFish</text>
</a>
</g>
</g>
<!-- Node2&#45;&gt;Node6 -->
<g id="edge5" class="edge"><title>Node2&#45;&gt;Node6</title>
<path fill="none" stroke="midnightblue" d="M329.747,-124.463C338.468,-125.304 347.304,-126.156 355.976,-126.993"/>
<polygon fill="midnightblue" stroke="midnightblue" points="329.867,-120.958 319.577,-123.482 329.195,-127.926 329.867,-120.958"/>
</g>
<!-- Node7 -->
<g id="node7" class="node"><title>Node7</title>
<g id="a_node7"><a xlink:href="../../dc/da7/class_wator_controller.html#a4b2c805aa780ce6f89ae2bf98714bbbb" target="_top" xlink:title="WatorController.updateFromCell">
<polygon fill="white" stroke="black" points="356.5,-87.5 356.5,-106.5 523.5,-106.5 523.5,-87.5 356.5,-87.5"/>
<text text-anchor="middle" x="440" y="-94.5" font-family="Helvetica,sans-Serif" font-size="10.00">WatorController.updateFromCell</text>
</a>
</g>
</g>
<!-- Node2&#45;&gt;Node7 -->
<g id="edge7" class="edge"><title>Node2&#45;&gt;Node7</title>
<path fill="none" stroke="midnightblue" d="M329.552,-107.556C338.446,-106.698 347.461,-105.829 356.302,-104.976"/>
<polygon fill="midnightblue" stroke="midnightblue" points="329.195,-104.074 319.577,-108.518 329.867,-111.042 329.195,-104.074"/>
</g>
<!-- Node4 -->
<g id="node4" class="node"><title>Node4</title>
<g id="a_node4"><a xlink:href="../../dc/da7/class_wator_controller.html#a0d61c3c9e96000370bacec79d64725ab" target="_top" xlink:title="WatorController.updateDestination">
<polygon fill="white" stroke="black" points="560.5,-125.5 560.5,-144.5 741.5,-144.5 741.5,-125.5 560.5,-125.5"/>
<text text-anchor="middle" x="651" y="-132.5" font-family="Helvetica,sans-Serif" font-size="10.00">WatorController.updateDestination</text>
</a>
</g>
</g>
<!-- Node3&#45;&gt;Node4 -->
<g id="edge3" class="edge"><title>Node3&#45;&gt;Node4</title>
<path fill="none" stroke="midnightblue" d="M522.159,-161.914C550.236,-156.003 580.682,-149.593 604.816,-144.512"/>
<polygon fill="midnightblue" stroke="midnightblue" points="521.406,-158.496 512.341,-163.981 522.848,-165.346 521.406,-158.496"/>
</g>
<!-- Node4&#45;&gt;Node5 -->
<g id="edge4" class="edge"><title>Node4&#45;&gt;Node5</title>
<path fill="none" stroke="midnightblue" d="M711.866,-123.511C740.117,-118.089 773.436,-111.694 800.271,-106.544"/>
<polygon fill="midnightblue" stroke="midnightblue" points="710.869,-120.138 701.708,-125.46 712.189,-127.012 710.869,-120.138"/>
</g>
<!-- Node6&#45;&gt;Node4 -->
<g id="edge6" class="edge"><title>Node6&#45;&gt;Node4</title>
<path fill="none" stroke="midnightblue" d="M534.268,-135C542.894,-135 551.624,-135 560.219,-135"/>
<polygon fill="midnightblue" stroke="midnightblue" points="534.203,-131.5 524.203,-135 534.203,-138.5 534.203,-131.5"/>
</g>
</g>
</svg>
