<?xml version="1.0" encoding="UTF-8" standalone="no"?>
<!DOCTYPE svg PUBLIC "-//W3C//DTD SVG 1.1//EN"
 "http://www.w3.org/Graphics/SVG/1.1/DTD/svg11.dtd">
<!-- Generated by graphviz version 2.36.0 (20140111.2315)
 -->
<!-- Title: HexagonalNeighbor Pages: 1 -->
<svg width="155pt" height="154pt"
 viewBox="0.00 0.00 155.00 154.00" xmlns="http://www.w3.org/2000/svg" xmlns:xlink="http://www.w3.org/1999/xlink">
<g id="graph0" class="graph" transform="scale(1 1) rotate(0) translate(4 150)">
<title>HexagonalNeighbor</title>
<polygon fill="white" stroke="none" points="-4,4 -4,-150 151,-150 151,4 -4,4"/>
<!-- Node1 -->
<g id="node1" class="node"><title>Node1</title>
<polygon fill="#bfbfbf" stroke="black" points="13.5,-0.5 13.5,-19.5 124.5,-19.5 124.5,-0.5 13.5,-0.5"/>
<text text-anchor="middle" x="69" y="-7.5" font-family="Helvetica,sans-Serif" font-size="10.00">HexagonalNeighbor</text>
</g>
<!-- Node2 -->
<g id="node2" class="node"><title>Node2</title>
<g id="a_node2"><a xlink:href="../../d3/dcc/class_half_neighbor.html" target="_top" xlink:title="HalfNeighbor">
<polygon fill="white" stroke="black" points="29.5,-58.5 29.5,-77.5 108.5,-77.5 108.5,-58.5 29.5,-58.5"/>
<text text-anchor="middle" x="69" y="-65.5" font-family="Helvetica,sans-Serif" font-size="10.00">HalfNeighbor</text>
</a>
</g>
</g>
<!-- Node2&#45;&gt;Node1 -->
<g id="edge1" class="edge"><title>Node2&#45;&gt;Node1</title>
<path fill="none" stroke="midnightblue" d="M69,-47.953C69,-38.2875 69,-27.0312 69,-19.5052"/>
<polygon fill="midnightblue" stroke="midnightblue" points="65.5001,-48.25 69,-58.25 72.5001,-48.25 65.5001,-48.25"/>
</g>
<!-- Node3 -->
<g id="node3" class="node"><title>Node3</title>
<g id="a_node3"><a xlink:href="../../dd/ddd/class_neighbor.html" target="_top" xlink:title="Neighbor">
<polygon fill="white" stroke="black" points="0,-126.5 0,-145.5 60,-145.5 60,-126.5 0,-126.5"/>
<text text-anchor="middle" x="30" y="-133.5" font-family="Helvetica,sans-Serif" font-size="10.00">Neighbor</text>
</a>
</g>
</g>
<!-- Node3&#45;&gt;Node2 -->
<g id="edge2" class="edge"><title>Node3&#45;&gt;Node2</title>
<path fill="none" stroke="midnightblue" d="M40.3037,-117.563C47.8564,-104.781 57.7964,-87.9599 63.7757,-77.8411"/>
<polygon fill="midnightblue" stroke="midnightblue" points="37.1727,-115.982 35.0986,-126.372 43.1992,-119.543 37.1727,-115.982"/>
</g>
<!-- Node4 -->
<g id="node4" class="node"><title>Node4</title>
<g id="a_node4"><a xlink:href="../../d5/dda/class_boundary.html" target="_top" xlink:title="Boundary">
<polygon fill="white" stroke="black" points="78,-126.5 78,-145.5 140,-145.5 140,-126.5 78,-126.5"/>
<text text-anchor="middle" x="109" y="-133.5" font-family="Helvetica,sans-Serif" font-size="10.00">Boundary</text>
</a>
</g>
</g>
<!-- Node4&#45;&gt;Node2 -->
<g id="edge3" class="edge"><title>Node4&#45;&gt;Node2</title>
<path fill="none" stroke="#9a32cd" stroke-dasharray="5,2" d="M98.4321,-117.563C90.6857,-104.781 80.4909,-87.9599 74.3583,-77.8411"/>
<polygon fill="#9a32cd" stroke="#9a32cd" points="95.5944,-119.634 103.771,-126.372 101.581,-116.006 95.5944,-119.634"/>
<text text-anchor="middle" x="119.5" y="-99.5" font-family="Helvetica,sans-Serif" font-size="10.00"> myBounds</text>
</g>
</g>
</svg>
