<?xml version="1.0" encoding="UTF-8" standalone="no"?>
<!DOCTYPE svg PUBLIC "-//W3C//DTD SVG 1.1//EN"
 "http://www.w3.org/Graphics/SVG/1.1/DTD/svg11.dtd">
<!-- Generated by graphviz version 2.36.0 (20140111.2315)
 -->
<!-- Title: SharkCell.reproducingResult Pages: 1 -->
<svg width="424pt" height="66pt"
 viewBox="0.00 0.00 424.00 66.00" xmlns="http://www.w3.org/2000/svg" xmlns:xlink="http://www.w3.org/1999/xlink">
<g id="graph0" class="graph" transform="scale(1 1) rotate(0) translate(4 62)">
<title>SharkCell.reproducingResult</title>
<polygon fill="white" stroke="none" points="-4,4 -4,-62 420,-62 420,4 -4,4"/>
<!-- Node1 -->
<g id="node1" class="node"><title>Node1</title>
<polygon fill="#bfbfbf" stroke="black" points="0,-19.5 0,-38.5 150,-38.5 150,-19.5 0,-19.5"/>
<text text-anchor="middle" x="75" y="-26.5" font-family="Helvetica,sans-Serif" font-size="10.00">SharkCell.reproducingResult</text>
</g>
<!-- Node2 -->
<g id="node2" class="node"><title>Node2</title>
<g id="a_node2"><a xlink:href="../../dd/d11/class_cell.html#a36cd17d80459721e92de1ebf978c4e50" target="_top" xlink:title="Cell.Cell">
<polygon fill="white" stroke="black" points="214,-38.5 214,-57.5 268,-57.5 268,-38.5 214,-38.5"/>
<text text-anchor="middle" x="241" y="-45.5" font-family="Helvetica,sans-Serif" font-size="10.00">Cell.Cell</text>
</a>
</g>
</g>
<!-- Node1&#45;&gt;Node2 -->
<g id="edge1" class="edge"><title>Node1&#45;&gt;Node2</title>
<path fill="none" stroke="midnightblue" d="M150.323,-37.6105C168.777,-39.7486 187.755,-41.9472 203.473,-43.7682"/>
<polygon fill="midnightblue" stroke="midnightblue" points="203.451,-47.2889 213.787,-44.9631 204.256,-40.3355 203.451,-47.2889"/>
</g>
<!-- Node3 -->
<g id="node3" class="node"><title>Node3</title>
<g id="a_node3"><a xlink:href="../../d1/dd5/class_shark_cell.html#afd3aef1b16f3f512834ac1ad776f5647" target="_top" xlink:title="SharkCell.SharkCell">
<polygon fill="white" stroke="black" points="186,-0.5 186,-19.5 296,-19.5 296,-0.5 186,-0.5"/>
<text text-anchor="middle" x="241" y="-7.5" font-family="Helvetica,sans-Serif" font-size="10.00">SharkCell.SharkCell</text>
</a>
</g>
</g>
<!-- Node1&#45;&gt;Node3 -->
<g id="edge2" class="edge"><title>Node1&#45;&gt;Node3</title>
<path fill="none" stroke="midnightblue" d="M150.323,-20.3895C158.758,-19.4122 167.303,-18.4223 175.595,-17.4615"/>
<polygon fill="midnightblue" stroke="midnightblue" points="176.031,-20.9346 185.561,-16.3069 175.225,-13.9811 176.031,-20.9346"/>
</g>
<!-- Node4 -->
<g id="node4" class="node"><title>Node4</title>
<g id="a_node4"><a xlink:href="../../dd/d11/class_cell.html#adcdc17232ec0cff0752168e9846c39a8" target="_top" xlink:title="Cell.getShape">
<polygon fill="white" stroke="black" points="332.5,-0.5 332.5,-19.5 415.5,-19.5 415.5,-0.5 332.5,-0.5"/>
<text text-anchor="middle" x="374" y="-7.5" font-family="Helvetica,sans-Serif" font-size="10.00">Cell.getShape</text>
</a>
</g>
</g>
<!-- Node3&#45;&gt;Node4 -->
<g id="edge3" class="edge"><title>Node3&#45;&gt;Node4</title>
<path fill="none" stroke="midnightblue" d="M296.039,-10C304.657,-10 313.549,-10 322.092,-10"/>
<polygon fill="midnightblue" stroke="midnightblue" points="322.297,-13.5001 332.297,-10 322.297,-6.5001 322.297,-13.5001"/>
</g>
</g>
</svg>
