<?xml version="1.0" encoding="UTF-8" standalone="no"?>
<!DOCTYPE svg PUBLIC "-//W3C//DTD SVG 1.1//EN"
 "http://www.w3.org/Graphics/SVG/1.1/DTD/svg11.dtd">
<!-- Generated by graphviz version 2.36.0 (20140111.2315)
 -->
<!-- Title: SharkCell.reproducingResult Pages: 1 -->
<svg width="424pt" height="28pt"
 viewBox="0.00 0.00 424.00 28.00" xmlns="http://www.w3.org/2000/svg" xmlns:xlink="http://www.w3.org/1999/xlink">
<g id="graph0" class="graph" transform="scale(1 1) rotate(0) translate(4 24)">
<title>SharkCell.reproducingResult</title>
<polygon fill="white" stroke="none" points="-4,4 -4,-24 420,-24 420,4 -4,4"/>
<!-- Node1 -->
<g id="node1" class="node"><title>Node1</title>
<polygon fill="#bfbfbf" stroke="black" points="0,-0.5 0,-19.5 150,-19.5 150,-0.5 0,-0.5"/>
<text text-anchor="middle" x="75" y="-7.5" font-family="Helvetica,sans-Serif" font-size="10.00">SharkCell.reproducingResult</text>
</g>
<!-- Node2 -->
<g id="node2" class="node"><title>Node2</title>
<g id="a_node2"><a xlink:href="../../d1/dd5/class_shark_cell.html#ad9215a6aaab9153ae732d48165bd08a6" target="_top" xlink:title="SharkCell.SharkCell">
<polygon fill="white" stroke="black" points="186,-0.5 186,-19.5 296,-19.5 296,-0.5 186,-0.5"/>
<text text-anchor="middle" x="241" y="-7.5" font-family="Helvetica,sans-Serif" font-size="10.00">SharkCell.SharkCell</text>
</a>
</g>
</g>
<!-- Node1&#45;&gt;Node2 -->
<g id="edge1" class="edge"><title>Node1&#45;&gt;Node2</title>
<path fill="none" stroke="midnightblue" d="M150.323,-10C158.665,-10 167.115,-10 175.322,-10"/>
<polygon fill="midnightblue" stroke="midnightblue" points="175.561,-13.5001 185.561,-10 175.561,-6.5001 175.561,-13.5001"/>
</g>
<!-- Node3 -->
<g id="node3" class="node"><title>Node3</title>
<g id="a_node3"><a xlink:href="../../dd/d11/class_cell.html#a1e0ece61fecc69a9b7986d17d925434a" target="_top" xlink:title="Cell.getShape">
<polygon fill="white" stroke="black" points="332.5,-0.5 332.5,-19.5 415.5,-19.5 415.5,-0.5 332.5,-0.5"/>
<text text-anchor="middle" x="374" y="-7.5" font-family="Helvetica,sans-Serif" font-size="10.00">Cell.getShape</text>
</a>
</g>
</g>
<!-- Node2&#45;&gt;Node3 -->
<g id="edge2" class="edge"><title>Node2&#45;&gt;Node3</title>
<path fill="none" stroke="midnightblue" d="M296.039,-10C304.657,-10 313.549,-10 322.092,-10"/>
<polygon fill="midnightblue" stroke="midnightblue" points="322.297,-13.5001 332.297,-10 322.297,-6.5001 322.297,-13.5001"/>
</g>
</g>
</svg>
