<?xml version="1.0" encoding="UTF-8" standalone="no"?>
<!DOCTYPE svg PUBLIC "-//W3C//DTD SVG 1.1//EN"
 "http://www.w3.org/Graphics/SVG/1.1/DTD/svg11.dtd">
<!-- Generated by graphviz version 2.36.0 (20140111.2315)
 -->
<!-- Title: SimpleController.runOneSim Pages: 1 -->
<svg width="360pt" height="116pt"
 viewBox="0.00 0.00 360.00 116.00" xmlns="http://www.w3.org/2000/svg" xmlns:xlink="http://www.w3.org/1999/xlink">
<g id="graph0" class="graph" transform="scale(1 1) rotate(0) translate(4 112)">
<title>SimpleController.runOneSim</title>
<polygon fill="white" stroke="none" points="-4,4 -4,-112 356,-112 356,4 -4,4"/>
<!-- Node1 -->
<g id="node1" class="node"><title>Node1</title>
<polygon fill="#bfbfbf" stroke="black" points="0,-44.5 0,-63.5 152,-63.5 152,-44.5 0,-44.5"/>
<text text-anchor="middle" x="76" y="-51.5" font-family="Helvetica,sans-Serif" font-size="10.00">SimpleController.runOneSim</text>
</g>
<!-- Node2 -->
<g id="node2" class="node"><title>Node2</title>
<g id="a_node2"><a xlink:href="../../dd/ddd/class_neighbor.html#aa58f169b804a808f37a8faa21c3ea830" target="_top" xlink:title="Neighbor.getNeighbors">
<polygon fill="white" stroke="black" points="206.5,-88.5 206.5,-107.5 333.5,-107.5 333.5,-88.5 206.5,-88.5"/>
<text text-anchor="middle" x="270" y="-95.5" font-family="Helvetica,sans-Serif" font-size="10.00">Neighbor.getNeighbors</text>
</a>
</g>
</g>
<!-- Node1&#45;&gt;Node2 -->
<g id="edge1" class="edge"><title>Node1&#45;&gt;Node2</title>
<path fill="none" stroke="midnightblue" d="M118.661,-63.5473C147.721,-70.2069 186.686,-79.1363 217.665,-86.2358"/>
<polygon fill="midnightblue" stroke="midnightblue" points="216.891,-89.649 227.42,-88.4713 218.455,-82.8259 216.891,-89.649"/>
</g>
<!-- Node3 -->
<g id="node3" class="node"><title>Node3</title>
<g id="a_node3"><a xlink:href="../../da/d56/class_simple_controller.html#acab17af6527ebb8cd70ae4120f76ac5f" target="_top" xlink:title="SimpleController.getNeighbors\lState">
<polygon fill="white" stroke="black" points="188.5,-39 188.5,-69 351.5,-69 351.5,-39 188.5,-39"/>
<text text-anchor="start" x="196.5" y="-57" font-family="Helvetica,sans-Serif" font-size="10.00">SimpleController.getNeighbors</text>
<text text-anchor="middle" x="270" y="-46" font-family="Helvetica,sans-Serif" font-size="10.00">State</text>
</a>
</g>
</g>
<!-- Node1&#45;&gt;Node3 -->
<g id="edge2" class="edge"><title>Node1&#45;&gt;Node3</title>
<path fill="none" stroke="midnightblue" d="M152.057,-54C160.599,-54 169.374,-54 178.093,-54"/>
<polygon fill="midnightblue" stroke="midnightblue" points="178.285,-57.5001 188.285,-54 178.285,-50.5001 178.285,-57.5001"/>
</g>
<!-- Node4 -->
<g id="node4" class="node"><title>Node4</title>
<g id="a_node4"><a xlink:href="../../da/d56/class_simple_controller.html#a6a685344940c1625bd22c65f82681400" target="_top" xlink:title="SimpleController.newState">
<polygon fill="white" stroke="black" points="198.5,-0.5 198.5,-19.5 341.5,-19.5 341.5,-0.5 198.5,-0.5"/>
<text text-anchor="middle" x="270" y="-7.5" font-family="Helvetica,sans-Serif" font-size="10.00">SimpleController.newState</text>
</a>
</g>
</g>
<!-- Node1&#45;&gt;Node4 -->
<g id="edge3" class="edge"><title>Node1&#45;&gt;Node4</title>
<path fill="none" stroke="midnightblue" d="M118.661,-44.4527C147.721,-37.7931 186.686,-28.8637 217.665,-21.7642"/>
<polygon fill="midnightblue" stroke="midnightblue" points="218.455,-25.1741 227.42,-19.5287 216.891,-18.351 218.455,-25.1741"/>
</g>
</g>
</svg>
