<?xml version="1.0" encoding="UTF-8" standalone="no"?>
<!DOCTYPE svg PUBLIC "-//W3C//DTD SVG 1.1//EN"
 "http://www.w3.org/Graphics/SVG/1.1/DTD/svg11.dtd">
<!-- Generated by graphviz version 2.36.0 (20140111.2315)
 -->
<!-- Title: Graphical Class Hierarchy Pages: 1 -->
<svg width="372pt" height="180pt"
 viewBox="0.00 0.00 372.00 180.00" xmlns="http://www.w3.org/2000/svg" xmlns:xlink="http://www.w3.org/1999/xlink">
<g id="graph0" class="graph" transform="scale(1 1) rotate(0) translate(4 176)">
<title>Graphical Class Hierarchy</title>
<polygon fill="white" stroke="none" points="-4,4 -4,-176 368,-176 368,4 -4,4"/>
<!-- Node1 -->
<g id="node1" class="node"><title>Node1</title>
<g id="a_node1"><a xlink:href="d8/d87/class_controller.html" target="_top" xlink:title="Controller">
<polygon fill="white" stroke="black" points="0.5,-95.5 0.5,-114.5 63.5,-114.5 63.5,-95.5 0.5,-95.5"/>
<text text-anchor="middle" x="32" y="-102.5" font-family="Helvetica,sans-Serif" font-size="10.00">Controller</text>
</a>
</g>
</g>
<!-- Node2 -->
<g id="node2" class="node"><title>Node2</title>
<g id="a_node2"><a xlink:href="de/d92/class_complex_controller.html" target="_top" xlink:title="ComplexController">
<polygon fill="white" stroke="black" points="100.5,-114.5 100.5,-133.5 205.5,-133.5 205.5,-114.5 100.5,-114.5"/>
<text text-anchor="middle" x="153" y="-121.5" font-family="Helvetica,sans-Serif" font-size="10.00">ComplexController</text>
</a>
</g>
</g>
<!-- Node1&#45;&gt;Node2 -->
<g id="edge1" class="edge"><title>Node1&#45;&gt;Node2</title>
<path fill="none" stroke="midnightblue" d="M73.7133,-111.5C82.245,-112.863 91.3511,-114.317 100.224,-115.733"/>
<polygon fill="midnightblue" stroke="midnightblue" points="74.0722,-108.013 63.6455,-109.893 72.9685,-114.926 74.0722,-108.013"/>
</g>
<!-- Node5 -->
<g id="node5" class="node"><title>Node5</title>
<g id="a_node5"><a xlink:href="da/d56/class_simple_controller.html" target="_top" xlink:title="SimpleController">
<polygon fill="white" stroke="black" points="105,-57.5 105,-76.5 201,-76.5 201,-57.5 105,-57.5"/>
<text text-anchor="middle" x="153" y="-64.5" font-family="Helvetica,sans-Serif" font-size="10.00">SimpleController</text>
</a>
</g>
</g>
<!-- Node1&#45;&gt;Node5 -->
<g id="edge4" class="edge"><title>Node1&#45;&gt;Node5</title>
<path fill="none" stroke="midnightblue" d="M72.7098,-92.3196C88.7886,-87.1852 107.043,-81.3559 121.981,-76.5859"/>
<polygon fill="midnightblue" stroke="midnightblue" points="71.4901,-89.0348 63.0287,-95.411 73.6195,-95.7031 71.4901,-89.0348"/>
</g>
<!-- Node3 -->
<g id="node3" class="node"><title>Node3</title>
<g id="a_node3"><a xlink:href="dd/dc0/class_sugar_controller.html" target="_top" xlink:title="SugarController">
<polygon fill="white" stroke="black" points="257,-152.5 257,-171.5 349,-171.5 349,-152.5 257,-152.5"/>
<text text-anchor="middle" x="303" y="-159.5" font-family="Helvetica,sans-Serif" font-size="10.00">SugarController</text>
</a>
</g>
</g>
<!-- Node2&#45;&gt;Node3 -->
<g id="edge2" class="edge"><title>Node2&#45;&gt;Node3</title>
<path fill="none" stroke="midnightblue" d="M201.173,-136.112C221.786,-141.404 245.609,-147.521 264.922,-152.48"/>
<polygon fill="midnightblue" stroke="midnightblue" points="201.903,-132.686 191.347,-133.589 200.162,-139.466 201.903,-132.686"/>
</g>
<!-- Node4 -->
<g id="node4" class="node"><title>Node4</title>
<g id="a_node4"><a xlink:href="dc/da7/class_wator_controller.html" target="_top" xlink:title="WatorController">
<polygon fill="white" stroke="black" points="258,-114.5 258,-133.5 348,-133.5 348,-114.5 258,-114.5"/>
<text text-anchor="middle" x="303" y="-121.5" font-family="Helvetica,sans-Serif" font-size="10.00">WatorController</text>
</a>
</g>
</g>
<!-- Node2&#45;&gt;Node4 -->
<g id="edge3" class="edge"><title>Node2&#45;&gt;Node4</title>
<path fill="none" stroke="midnightblue" d="M215.894,-124C229.996,-124 244.7,-124 257.883,-124"/>
<polygon fill="midnightblue" stroke="midnightblue" points="215.763,-120.5 205.763,-124 215.763,-127.5 215.763,-120.5"/>
</g>
<!-- Node6 -->
<g id="node6" class="node"><title>Node6</title>
<g id="a_node6"><a xlink:href="d5/d1b/class_fire_controller.html" target="_top" xlink:title="FireController">
<polygon fill="white" stroke="black" points="263,-76.5 263,-95.5 343,-95.5 343,-76.5 263,-76.5"/>
<text text-anchor="middle" x="303" y="-83.5" font-family="Helvetica,sans-Serif" font-size="10.00">FireController</text>
</a>
</g>
</g>
<!-- Node5&#45;&gt;Node6 -->
<g id="edge5" class="edge"><title>Node5&#45;&gt;Node6</title>
<path fill="none" stroke="midnightblue" d="M211.186,-74.3415C228.39,-76.5501 246.875,-78.9231 262.647,-80.9479"/>
<polygon fill="midnightblue" stroke="midnightblue" points="211.599,-70.8659 201.235,-73.064 210.708,-77.8089 211.599,-70.8659"/>
</g>
<!-- Node7 -->
<g id="node7" class="node"><title>Node7</title>
<g id="a_node7"><a xlink:href="d9/da2/class_life_controller.html" target="_top" xlink:title="LifeController">
<polygon fill="white" stroke="black" points="263,-38.5 263,-57.5 343,-57.5 343,-38.5 263,-38.5"/>
<text text-anchor="middle" x="303" y="-45.5" font-family="Helvetica,sans-Serif" font-size="10.00">LifeController</text>
</a>
</g>
</g>
<!-- Node5&#45;&gt;Node7 -->
<g id="edge6" class="edge"><title>Node5&#45;&gt;Node7</title>
<path fill="none" stroke="midnightblue" d="M211.186,-59.6585C228.39,-57.4499 246.875,-55.0769 262.647,-53.0521"/>
<polygon fill="midnightblue" stroke="midnightblue" points="210.708,-56.1911 201.235,-60.936 211.599,-63.1341 210.708,-56.1911"/>
</g>
<!-- Node8 -->
<g id="node8" class="node"><title>Node8</title>
<g id="a_node8"><a xlink:href="db/df8/class_segregation_controller.html" target="_top" xlink:title="SegregationController">
<polygon fill="white" stroke="black" points="242,-0.5 242,-19.5 364,-19.5 364,-0.5 242,-0.5"/>
<text text-anchor="middle" x="303" y="-7.5" font-family="Helvetica,sans-Serif" font-size="10.00">SegregationController</text>
</a>
</g>
</g>
<!-- Node5&#45;&gt;Node8 -->
<g id="edge7" class="edge"><title>Node5&#45;&gt;Node8</title>
<path fill="none" stroke="midnightblue" d="M183.742,-53.2667C200.653,-45.6841 222.32,-36.3438 242,-29 250.906,-25.6766 260.689,-22.4177 269.723,-19.5633"/>
<polygon fill="midnightblue" stroke="midnightblue" points="182.055,-50.1886 174.387,-57.4997 184.94,-56.5662 182.055,-50.1886"/>
</g>
</g>
</svg>
