<?xml version="1.0" encoding="UTF-8" standalone="no"?>
<!DOCTYPE svg PUBLIC "-//W3C//DTD SVG 1.1//EN"
 "http://www.w3.org/Graphics/SVG/1.1/DTD/svg11.dtd">
<!-- Generated by graphviz version 2.36.0 (20140111.2315)
 -->
<!-- Title: Graphical Class Hierarchy Pages: 1 -->
<svg width="206pt" height="142pt"
 viewBox="0.00 0.00 206.00 142.00" xmlns="http://www.w3.org/2000/svg" xmlns:xlink="http://www.w3.org/1999/xlink">
<g id="graph0" class="graph" transform="scale(1 1) rotate(0) translate(4 138)">
<title>Graphical Class Hierarchy</title>
<polygon fill="white" stroke="none" points="-4,4 -4,-138 202,-138 202,4 -4,4"/>
<!-- Node1 -->
<g id="node1" class="node"><title>Node1</title>
<g id="a_node1"><a xlink:href="dd/d11/class_cell.html" target="_top" xlink:title="Cell">
<polygon fill="white" stroke="black" points="29,-66.5 29,-85.5 63,-85.5 63,-66.5 29,-66.5"/>
<text text-anchor="middle" x="46" y="-73.5" font-family="Helvetica,sans-Serif" font-size="10.00">Cell</text>
</a>
</g>
</g>
<!-- Node2 -->
<g id="node2" class="node"><title>Node2</title>
<g id="a_node2"><a xlink:href="db/dfe/class_agent_cell.html" target="_top" xlink:title="AgentCell">
<polygon fill="white" stroke="black" points="132,-114.5 132,-133.5 194,-133.5 194,-114.5 132,-114.5"/>
<text text-anchor="middle" x="163" y="-121.5" font-family="Helvetica,sans-Serif" font-size="10.00">AgentCell</text>
</a>
</g>
</g>
<!-- Node1&#45;&gt;Node2 -->
<g id="edge1" class="edge"><title>Node1&#45;&gt;Node2</title>
<path fill="none" stroke="midnightblue" d="M72.874,-86.7996C92.8059,-95.119 120.097,-106.51 139.211,-114.488"/>
<polygon fill="midnightblue" stroke="midnightblue" points="74.0533,-83.4992 63.4767,-82.8772 71.3569,-89.9591 74.0533,-83.4992"/>
</g>
<!-- Node3 -->
<g id="node3" class="node"><title>Node3</title>
<g id="a_node3"><a xlink:href="d2/ddc/class_fish_cell.html" target="_top" xlink:title="FishCell">
<polygon fill="white" stroke="black" points="137,-38.5 137,-57.5 189,-57.5 189,-38.5 137,-38.5"/>
<text text-anchor="middle" x="163" y="-45.5" font-family="Helvetica,sans-Serif" font-size="10.00">FishCell</text>
</a>
</g>
</g>
<!-- Node1&#45;&gt;Node3 -->
<g id="edge2" class="edge"><title>Node1&#45;&gt;Node3</title>
<path fill="none" stroke="midnightblue" d="M73.2846,-69.6003C92.3013,-64.9701 117.854,-58.7485 136.652,-54.1718"/>
<polygon fill="midnightblue" stroke="midnightblue" points="72.3648,-66.2219 63.4767,-71.9883 74.0209,-73.0232 72.3648,-66.2219"/>
</g>
<!-- Node4 -->
<g id="node4" class="node"><title>Node4</title>
<g id="a_node4"><a xlink:href="d7/dd7/class_ground_cell.html" target="_top" xlink:title="GroundCell">
<polygon fill="white" stroke="black" points="128.5,-76.5 128.5,-95.5 197.5,-95.5 197.5,-76.5 128.5,-76.5"/>
<text text-anchor="middle" x="163" y="-83.5" font-family="Helvetica,sans-Serif" font-size="10.00">GroundCell</text>
</a>
</g>
</g>
<!-- Node1&#45;&gt;Node4 -->
<g id="edge3" class="edge"><title>Node1&#45;&gt;Node4</title>
<path fill="none" stroke="midnightblue" d="M73.4494,-78.3C89.8091,-79.7225 110.959,-81.5617 128.486,-83.0857"/>
<polygon fill="midnightblue" stroke="midnightblue" points="73.7423,-74.8123 63.4767,-77.4328 73.1359,-81.786 73.7423,-74.8123"/>
</g>
<!-- Node5 -->
<g id="node5" class="node"><title>Node5</title>
<g id="a_node5"><a xlink:href="d1/dd5/class_shark_cell.html" target="_top" xlink:title="SharkCell">
<polygon fill="white" stroke="black" points="132,-0.5 132,-19.5 194,-19.5 194,-0.5 132,-0.5"/>
<text text-anchor="middle" x="163" y="-7.5" font-family="Helvetica,sans-Serif" font-size="10.00">SharkCell</text>
</a>
</g>
</g>
<!-- Node1&#45;&gt;Node5 -->
<g id="edge4" class="edge"><title>Node1&#45;&gt;Node5</title>
<path fill="none" stroke="midnightblue" d="M71.8453,-61.4445C87.8424,-52.1071 109.104,-39.7611 128,-29 133.406,-25.9215 139.317,-22.6018 144.673,-19.6118"/>
<polygon fill="midnightblue" stroke="midnightblue" points="69.9602,-58.4922 63.0925,-66.5598 73.4922,-64.5358 69.9602,-58.4922"/>
</g>
<!-- Node6 -->
<g id="node6" class="node"><title>Node6</title>
<g id="a_node6"><a xlink:href="d1/dd8/interface_reproducing_cell.html" target="_top" xlink:title="ReproducingCell">
<polygon fill="white" stroke="black" points="0,-19.5 0,-38.5 92,-38.5 92,-19.5 0,-19.5"/>
<text text-anchor="middle" x="46" y="-26.5" font-family="Helvetica,sans-Serif" font-size="10.00">ReproducingCell</text>
</a>
</g>
</g>
<!-- Node6&#45;&gt;Node3 -->
<g id="edge5" class="edge"><title>Node6&#45;&gt;Node3</title>
<path fill="none" stroke="midnightblue" d="M102.241,-38.1268C114.384,-40.1329 126.66,-42.1613 136.902,-43.8533"/>
<polygon fill="midnightblue" stroke="midnightblue" points="102.558,-34.6317 92.121,-36.4548 101.417,-41.5381 102.558,-34.6317"/>
</g>
<!-- Node6&#45;&gt;Node5 -->
<g id="edge6" class="edge"><title>Node6&#45;&gt;Node5</title>
<path fill="none" stroke="midnightblue" d="M102.253,-19.8712C112.465,-18.184 122.771,-16.4813 131.881,-14.9761"/>
<polygon fill="midnightblue" stroke="midnightblue" points="101.417,-16.4619 92.121,-21.5452 102.558,-23.3683 101.417,-16.4619"/>
</g>
<!-- Node7 -->
<g id="node7" class="node"><title>Node7</title>
<g id="a_node7"><a xlink:href="dd/dbc/interface_updatable.html" target="_top" xlink:title="Updatable">
<polygon fill="white" stroke="black" points="13,-109.5 13,-128.5 79,-128.5 79,-109.5 13,-109.5"/>
<text text-anchor="middle" x="46" y="-116.5" font-family="Helvetica,sans-Serif" font-size="10.00">Updatable</text>
</a>
</g>
</g>
<!-- Node7&#45;&gt;Node2 -->
<g id="edge7" class="edge"><title>Node7&#45;&gt;Node2</title>
<path fill="none" stroke="midnightblue" d="M89.0377,-120.828C103.178,-121.443 118.665,-122.116 131.719,-122.683"/>
<polygon fill="midnightblue" stroke="midnightblue" points="89.1765,-117.331 79.0339,-120.393 88.8724,-124.324 89.1765,-117.331"/>
</g>
<!-- Node7&#45;&gt;Node4 -->
<g id="edge8" class="edge"><title>Node7&#45;&gt;Node4</title>
<path fill="none" stroke="midnightblue" d="M88.7589,-107.017C101.841,-103.263 116.102,-99.1707 128.534,-95.6032"/>
<polygon fill="midnightblue" stroke="midnightblue" points="87.6806,-103.685 79.0339,-109.808 89.6114,-110.414 87.6806,-103.685"/>
</g>
</g>
</svg>
