<?xml version="1.0" encoding="UTF-8" standalone="no"?>
<!DOCTYPE svg PUBLIC "-//W3C//DTD SVG 1.1//EN"
 "http://www.w3.org/Graphics/SVG/1.1/DTD/svg11.dtd">
<!-- Generated by graphviz version 2.36.0 (20140111.2315)
 -->
<!-- Title: Graphical Class Hierarchy Pages: 1 -->
<svg width="202pt" height="294pt"
 viewBox="0.00 0.00 202.00 294.00" xmlns="http://www.w3.org/2000/svg" xmlns:xlink="http://www.w3.org/1999/xlink">
<g id="graph0" class="graph" transform="scale(1 1) rotate(0) translate(4 290)">
<title>Graphical Class Hierarchy</title>
<polygon fill="white" stroke="none" points="-4,4 -4,-290 198,-290 198,4 -4,4"/>
<!-- Node1 -->
<g id="node1" class="node"><title>Node1</title>
<g id="a_node1"><a xlink:href="dd/d11/class_cell.html" target="_top" xlink:title="Cell">
<polygon fill="white" stroke="black" points="29,-133.5 29,-152.5 63,-152.5 63,-133.5 29,-133.5"/>
<text text-anchor="middle" x="46" y="-140.5" font-family="Helvetica,sans-Serif" font-size="10.00">Cell</text>
</a>
</g>
</g>
<!-- Node2 -->
<g id="node2" class="node"><title>Node2</title>
<g id="a_node2"><a xlink:href="df/d9e/class_blue_cell.html" target="_top" xlink:title="BlueCell">
<polygon fill="white" stroke="black" points="133.5,-266.5 133.5,-285.5 188.5,-285.5 188.5,-266.5 133.5,-266.5"/>
<text text-anchor="middle" x="161" y="-273.5" font-family="Helvetica,sans-Serif" font-size="10.00">BlueCell</text>
</a>
</g>
</g>
<!-- Node1&#45;&gt;Node2 -->
<g id="edge1" class="edge"><title>Node1&#45;&gt;Node2</title>
<path fill="none" stroke="midnightblue" d="M56.8333,-161.411C70.4034,-185.558 96.7685,-228.228 128,-257 131.802,-260.502 136.352,-263.671 140.812,-266.373"/>
<polygon fill="midnightblue" stroke="midnightblue" points="59.8578,-159.647 51.9737,-152.569 53.7234,-163.019 59.8578,-159.647"/>
</g>
<!-- Node3 -->
<g id="node3" class="node"><title>Node3</title>
<g id="a_node3"><a xlink:href="d4/dbb/class_empty_cell.html" target="_top" xlink:title="EmptyCell">
<polygon fill="white" stroke="black" points="128.5,-228.5 128.5,-247.5 193.5,-247.5 193.5,-228.5 128.5,-228.5"/>
<text text-anchor="middle" x="161" y="-235.5" font-family="Helvetica,sans-Serif" font-size="10.00">EmptyCell</text>
</a>
</g>
</g>
<!-- Node1&#45;&gt;Node3 -->
<g id="edge2" class="edge"><title>Node1&#45;&gt;Node3</title>
<path fill="none" stroke="midnightblue" d="M63.209,-160.241C78.9183,-176.441 103.85,-200.843 128,-219 132.441,-222.339 137.51,-225.579 142.283,-228.41"/>
<polygon fill="midnightblue" stroke="midnightblue" points="65.3313,-157.397 55.8877,-152.594 60.2749,-162.237 65.3313,-157.397"/>
</g>
<!-- Node4 -->
<g id="node4" class="node"><title>Node4</title>
<g id="a_node4"><a xlink:href="d7/d2e/class_fire_cell.html" target="_top" xlink:title="FireCell">
<polygon fill="white" stroke="black" points="136,-190.5 136,-209.5 186,-209.5 186,-190.5 136,-190.5"/>
<text text-anchor="middle" x="161" y="-197.5" font-family="Helvetica,sans-Serif" font-size="10.00">FireCell</text>
</a>
</g>
</g>
<!-- Node1&#45;&gt;Node4 -->
<g id="edge3" class="edge"><title>Node1&#45;&gt;Node4</title>
<path fill="none" stroke="midnightblue" d="M72.357,-155.791C93.0918,-166.25 121.965,-180.814 140.815,-190.323"/>
<polygon fill="midnightblue" stroke="midnightblue" points="73.6949,-152.546 63.1901,-151.167 70.5423,-158.795 73.6949,-152.546"/>
</g>
<!-- Node5 -->
<g id="node5" class="node"><title>Node5</title>
<g id="a_node5"><a xlink:href="d2/ddc/class_fish_cell.html" target="_top" xlink:title="FishCell">
<polygon fill="white" stroke="black" points="135,-38.5 135,-57.5 187,-57.5 187,-38.5 135,-38.5"/>
<text text-anchor="middle" x="161" y="-45.5" font-family="Helvetica,sans-Serif" font-size="10.00">FishCell</text>
</a>
</g>
</g>
<!-- Node1&#45;&gt;Node5 -->
<g id="edge4" class="edge"><title>Node1&#45;&gt;Node5</title>
<path fill="none" stroke="midnightblue" d="M63.209,-125.759C78.9183,-109.559 103.85,-85.1574 128,-67 132.441,-63.6608 137.51,-60.4209 142.283,-57.5905"/>
<polygon fill="midnightblue" stroke="midnightblue" points="60.2749,-123.763 55.8877,-133.406 65.3313,-128.603 60.2749,-123.763"/>
</g>
<!-- Node6 -->
<g id="node6" class="node"><title>Node6</title>
<g id="a_node6"><a xlink:href="d2/d85/class_live_cell.html" target="_top" xlink:title="LiveCell">
<polygon fill="white" stroke="black" points="134.5,-152.5 134.5,-171.5 187.5,-171.5 187.5,-152.5 134.5,-152.5"/>
<text text-anchor="middle" x="161" y="-159.5" font-family="Helvetica,sans-Serif" font-size="10.00">LiveCell</text>
</a>
</g>
</g>
<!-- Node1&#45;&gt;Node6 -->
<g id="edge5" class="edge"><title>Node1&#45;&gt;Node6</title>
<path fill="none" stroke="midnightblue" d="M73.2059,-147.406C91.5623,-150.493 115.976,-154.598 134.235,-157.668"/>
<polygon fill="midnightblue" stroke="midnightblue" points="73.6321,-143.929 63.1901,-145.722 72.4713,-150.832 73.6321,-143.929"/>
</g>
<!-- Node7 -->
<g id="node7" class="node"><title>Node7</title>
<g id="a_node7"><a xlink:href="db/d8c/class_red_cell.html" target="_top" xlink:title="RedCell">
<polygon fill="white" stroke="black" points="135.5,-114.5 135.5,-133.5 186.5,-133.5 186.5,-114.5 135.5,-114.5"/>
<text text-anchor="middle" x="161" y="-121.5" font-family="Helvetica,sans-Serif" font-size="10.00">RedCell</text>
</a>
</g>
</g>
<!-- Node1&#45;&gt;Node7 -->
<g id="edge6" class="edge"><title>Node1&#45;&gt;Node7</title>
<path fill="none" stroke="midnightblue" d="M73.0874,-138.614C91.7458,-135.476 116.708,-131.279 135.092,-128.188"/>
<polygon fill="midnightblue" stroke="midnightblue" points="72.4713,-135.168 63.1901,-140.278 73.6321,-142.071 72.4713,-135.168"/>
</g>
<!-- Node8 -->
<g id="node8" class="node"><title>Node8</title>
<g id="a_node8"><a xlink:href="d1/dd5/class_shark_cell.html" target="_top" xlink:title="SharkCell">
<polygon fill="white" stroke="black" points="130,-0.5 130,-19.5 192,-19.5 192,-0.5 130,-0.5"/>
<text text-anchor="middle" x="161" y="-7.5" font-family="Helvetica,sans-Serif" font-size="10.00">SharkCell</text>
</a>
</g>
</g>
<!-- Node1&#45;&gt;Node8 -->
<g id="edge7" class="edge"><title>Node1&#45;&gt;Node8</title>
<path fill="none" stroke="midnightblue" d="M56.8333,-124.589C70.4034,-100.442 96.7685,-57.7717 128,-29 131.802,-25.4979 136.352,-22.3291 140.812,-19.6273"/>
<polygon fill="midnightblue" stroke="midnightblue" points="53.7234,-122.981 51.9737,-133.431 59.8578,-126.353 53.7234,-122.981"/>
</g>
<!-- Node9 -->
<g id="node9" class="node"><title>Node9</title>
<g id="a_node9"><a xlink:href="d4/dd9/class_tree_cell.html" target="_top" xlink:title="TreeCell">
<polygon fill="white" stroke="black" points="134.5,-76.5 134.5,-95.5 187.5,-95.5 187.5,-76.5 134.5,-76.5"/>
<text text-anchor="middle" x="161" y="-83.5" font-family="Helvetica,sans-Serif" font-size="10.00">TreeCell</text>
</a>
</g>
</g>
<!-- Node1&#45;&gt;Node9 -->
<g id="edge8" class="edge"><title>Node1&#45;&gt;Node9</title>
<path fill="none" stroke="midnightblue" d="M72.357,-130.209C93.0918,-119.75 121.965,-105.186 140.815,-95.6773"/>
<polygon fill="midnightblue" stroke="midnightblue" points="70.5423,-127.205 63.1901,-134.833 73.6949,-133.454 70.5423,-127.205"/>
</g>
<!-- Node10 -->
<g id="node10" class="node"><title>Node10</title>
<g id="a_node10"><a xlink:href="d1/dd8/interface_reproducing_cell.html" target="_top" xlink:title="ReproducingCell">
<polygon fill="white" stroke="black" points="0,-19.5 0,-38.5 92,-38.5 92,-19.5 0,-19.5"/>
<text text-anchor="middle" x="46" y="-26.5" font-family="Helvetica,sans-Serif" font-size="10.00">ReproducingCell</text>
</a>
</g>
</g>
<!-- Node10&#45;&gt;Node5 -->
<g id="edge9" class="edge"><title>Node10&#45;&gt;Node5</title>
<path fill="none" stroke="midnightblue" d="M102.27,-38.2932C113.677,-40.2111 125.15,-42.1403 134.83,-43.7678"/>
<polygon fill="midnightblue" stroke="midnightblue" points="102.752,-34.8252 92.3103,-36.6185 101.592,-41.7283 102.752,-34.8252"/>
</g>
<!-- Node10&#45;&gt;Node8 -->
<g id="edge10" class="edge"><title>Node10&#45;&gt;Node8</title>
<path fill="none" stroke="midnightblue" d="M102.203,-19.7181C111.757,-18.1117 121.36,-16.4969 129.92,-15.0577"/>
<polygon fill="midnightblue" stroke="midnightblue" points="101.592,-16.2717 92.3103,-21.3815 102.752,-23.1748 101.592,-16.2717"/>
</g>
</g>
</svg>
