<?xml version="1.0" encoding="UTF-8" standalone="no"?>
<!DOCTYPE svg PUBLIC "-//W3C//DTD SVG 1.1//EN"
 "http://www.w3.org/Graphics/SVG/1.1/DTD/svg11.dtd">
<!-- Generated by graphviz version 2.36.0 (20140111.2315)
 -->
<!-- Title: Graphical Class Hierarchy Pages: 1 -->
<svg width="198pt" height="66pt"
 viewBox="0.00 0.00 198.00 66.00" xmlns="http://www.w3.org/2000/svg" xmlns:xlink="http://www.w3.org/1999/xlink">
<g id="graph0" class="graph" transform="scale(1 1) rotate(0) translate(4 62)">
<title>Graphical Class Hierarchy</title>
<polygon fill="white" stroke="none" points="-4,4 -4,-62 194,-62 194,4 -4,4"/>
<!-- Node1 -->
<g id="node1" class="node"><title>Node1</title>
<g id="a_node1"><a xlink:href="dd/d11/class_cell.html" target="_top" xlink:title="Cell">
<polygon fill="white" stroke="black" points="29,-38.5 29,-57.5 63,-57.5 63,-38.5 29,-38.5"/>
<text text-anchor="middle" x="46" y="-45.5" font-family="Helvetica,sans-Serif" font-size="10.00">Cell</text>
</a>
</g>
</g>
<!-- Node2 -->
<g id="node2" class="node"><title>Node2</title>
<g id="a_node2"><a xlink:href="d2/ddc/class_fish_cell.html" target="_top" xlink:title="FishCell">
<polygon fill="white" stroke="black" points="133,-38.5 133,-57.5 185,-57.5 185,-38.5 133,-38.5"/>
<text text-anchor="middle" x="159" y="-45.5" font-family="Helvetica,sans-Serif" font-size="10.00">FishCell</text>
</a>
</g>
</g>
<!-- Node1&#45;&gt;Node2 -->
<g id="edge1" class="edge"><title>Node1&#45;&gt;Node2</title>
<path fill="none" stroke="midnightblue" d="M73.5014,-48C91.5191,-48 115.207,-48 132.916,-48"/>
<polygon fill="midnightblue" stroke="midnightblue" points="73.3785,-44.5001 63.3784,-48 73.3784,-51.5001 73.3785,-44.5001"/>
</g>
<!-- Node3 -->
<g id="node3" class="node"><title>Node3</title>
<g id="a_node3"><a xlink:href="d1/dd5/class_shark_cell.html" target="_top" xlink:title="SharkCell">
<polygon fill="white" stroke="black" points="128,-0.5 128,-19.5 190,-19.5 190,-0.5 128,-0.5"/>
<text text-anchor="middle" x="159" y="-7.5" font-family="Helvetica,sans-Serif" font-size="10.00">SharkCell</text>
</a>
</g>
</g>
<!-- Node1&#45;&gt;Node3 -->
<g id="edge2" class="edge"><title>Node1&#45;&gt;Node3</title>
<path fill="none" stroke="midnightblue" d="M73.2414,-39.0165C90.2964,-33.1778 112.514,-25.5719 129.923,-19.612"/>
<polygon fill="midnightblue" stroke="midnightblue" points="71.7058,-35.8427 63.3784,-42.393 73.973,-42.4654 71.7058,-35.8427"/>
</g>
<!-- Node4 -->
<g id="node4" class="node"><title>Node4</title>
<g id="a_node4"><a xlink:href="d1/dd8/interface_reproducing_cell.html" target="_top" xlink:title="ReproducingCell">
<polygon fill="white" stroke="black" points="0,-0.5 0,-19.5 92,-19.5 92,-0.5 0,-0.5"/>
<text text-anchor="middle" x="46" y="-7.5" font-family="Helvetica,sans-Serif" font-size="10.00">ReproducingCell</text>
</a>
</g>
</g>
<!-- Node4&#45;&gt;Node2 -->
<g id="edge3" class="edge"><title>Node4&#45;&gt;Node2</title>
<path fill="none" stroke="midnightblue" d="M84.5399,-22.8515C100.386,-28.2763 118.421,-34.4506 132.656,-39.3237"/>
<polygon fill="midnightblue" stroke="midnightblue" points="85.6046,-19.5166 75.01,-19.589 83.3373,-26.1393 85.6046,-19.5166"/>
</g>
<!-- Node4&#45;&gt;Node3 -->
<g id="edge4" class="edge"><title>Node4&#45;&gt;Node3</title>
<path fill="none" stroke="midnightblue" d="M102.383,-10C111.148,-10 119.917,-10 127.815,-10"/>
<polygon fill="midnightblue" stroke="midnightblue" points="102.148,-6.5001 92.1479,-10 102.148,-13.5001 102.148,-6.5001"/>
</g>
</g>
</svg>
