<?xml version="1.0" encoding="UTF-8" standalone="no"?>
<!DOCTYPE svg PUBLIC "-//W3C//DTD SVG 1.1//EN"
 "http://www.w3.org/Graphics/SVG/1.1/DTD/svg11.dtd">
<!-- Generated by graphviz version 2.36.0 (20140111.2315)
 -->
<!-- Title: Graphical Class Hierarchy Pages: 1 -->
<svg width="372pt" height="218pt"
 viewBox="0.00 0.00 372.00 218.00" xmlns="http://www.w3.org/2000/svg" xmlns:xlink="http://www.w3.org/1999/xlink">
<g id="graph0" class="graph" transform="scale(1 1) rotate(0) translate(4 214)">
<title>Graphical Class Hierarchy</title>
<polygon fill="white" stroke="none" points="-4,4 -4,-214 368,-214 368,4 -4,4"/>
<!-- Node1 -->
<g id="node1" class="node"><title>Node1</title>
<g id="a_node1"><a xlink:href="d8/d87/class_controller.html" target="_top" xlink:title="Controller">
<polygon fill="white" stroke="black" points="0.5,-114.5 0.5,-133.5 63.5,-133.5 63.5,-114.5 0.5,-114.5"/>
<text text-anchor="middle" x="32" y="-121.5" font-family="Helvetica,sans-Serif" font-size="10.00">Controller</text>
</a>
</g>
</g>
<!-- Node2 -->
<g id="node2" class="node"><title>Node2</title>
<g id="a_node2"><a xlink:href="de/d92/class_complex_controller.html" target="_top" xlink:title="ComplexController">
<polygon fill="white" stroke="black" points="100.5,-152.5 100.5,-171.5 205.5,-171.5 205.5,-152.5 100.5,-152.5"/>
<text text-anchor="middle" x="153" y="-159.5" font-family="Helvetica,sans-Serif" font-size="10.00">ComplexController</text>
</a>
</g>
</g>
<!-- Node1&#45;&gt;Node2 -->
<g id="edge1" class="edge"><title>Node1&#45;&gt;Node2</title>
<path fill="none" stroke="midnightblue" d="M72.7098,-136.68C88.7886,-141.815 107.043,-147.644 121.981,-152.414"/>
<polygon fill="midnightblue" stroke="midnightblue" points="73.6195,-133.297 63.0287,-133.589 71.4901,-139.965 73.6195,-133.297"/>
</g>
<!-- Node5 -->
<g id="node5" class="node"><title>Node5</title>
<g id="a_node5"><a xlink:href="da/d56/class_simple_controller.html" target="_top" xlink:title="SimpleController">
<polygon fill="white" stroke="black" points="105,-76.5 105,-95.5 201,-95.5 201,-76.5 105,-76.5"/>
<text text-anchor="middle" x="153" y="-83.5" font-family="Helvetica,sans-Serif" font-size="10.00">SimpleController</text>
</a>
</g>
</g>
<!-- Node1&#45;&gt;Node5 -->
<g id="edge4" class="edge"><title>Node1&#45;&gt;Node5</title>
<path fill="none" stroke="midnightblue" d="M72.7098,-111.32C88.7886,-106.185 107.043,-100.356 121.981,-95.5859"/>
<polygon fill="midnightblue" stroke="midnightblue" points="71.4901,-108.035 63.0287,-114.411 73.6195,-114.703 71.4901,-108.035"/>
</g>
<!-- Node3 -->
<g id="node3" class="node"><title>Node3</title>
<g id="a_node3"><a xlink:href="dd/dc0/class_sugar_controller.html" target="_top" xlink:title="SugarController">
<polygon fill="white" stroke="black" points="257,-190.5 257,-209.5 349,-209.5 349,-190.5 257,-190.5"/>
<text text-anchor="middle" x="303" y="-197.5" font-family="Helvetica,sans-Serif" font-size="10.00">SugarController</text>
</a>
</g>
</g>
<!-- Node2&#45;&gt;Node3 -->
<g id="edge2" class="edge"><title>Node2&#45;&gt;Node3</title>
<path fill="none" stroke="midnightblue" d="M201.173,-174.112C221.786,-179.404 245.609,-185.521 264.922,-190.48"/>
<polygon fill="midnightblue" stroke="midnightblue" points="201.903,-170.686 191.347,-171.589 200.162,-177.466 201.903,-170.686"/>
</g>
<!-- Node4 -->
<g id="node4" class="node"><title>Node4</title>
<g id="a_node4"><a xlink:href="dc/da7/class_wator_controller.html" target="_top" xlink:title="WatorController">
<polygon fill="white" stroke="black" points="258,-152.5 258,-171.5 348,-171.5 348,-152.5 258,-152.5"/>
<text text-anchor="middle" x="303" y="-159.5" font-family="Helvetica,sans-Serif" font-size="10.00">WatorController</text>
</a>
</g>
</g>
<!-- Node2&#45;&gt;Node4 -->
<g id="edge3" class="edge"><title>Node2&#45;&gt;Node4</title>
<path fill="none" stroke="midnightblue" d="M215.894,-162C229.996,-162 244.7,-162 257.883,-162"/>
<polygon fill="midnightblue" stroke="midnightblue" points="215.763,-158.5 205.763,-162 215.763,-165.5 215.763,-158.5"/>
</g>
<!-- Node6 -->
<g id="node6" class="node"><title>Node6</title>
<g id="a_node6"><a xlink:href="dd/da4/class_cardinal_sim_controller.html" target="_top" xlink:title="CardinalSimController">
<polygon fill="white" stroke="black" points="242.5,-114.5 242.5,-133.5 363.5,-133.5 363.5,-114.5 242.5,-114.5"/>
<text text-anchor="middle" x="303" y="-121.5" font-family="Helvetica,sans-Serif" font-size="10.00">CardinalSimController</text>
</a>
</g>
</g>
<!-- Node5&#45;&gt;Node6 -->
<g id="edge5" class="edge"><title>Node5&#45;&gt;Node6</title>
<path fill="none" stroke="midnightblue" d="M201.173,-98.1121C221.786,-103.404 245.609,-109.521 264.922,-114.48"/>
<polygon fill="midnightblue" stroke="midnightblue" points="201.903,-94.6859 191.347,-95.589 200.162,-101.466 201.903,-94.6859"/>
</g>
<!-- Node7 -->
<g id="node7" class="node"><title>Node7</title>
<g id="a_node7"><a xlink:href="d5/d1b/class_fire_controller.html" target="_top" xlink:title="FireController">
<polygon fill="white" stroke="black" points="263,-76.5 263,-95.5 343,-95.5 343,-76.5 263,-76.5"/>
<text text-anchor="middle" x="303" y="-83.5" font-family="Helvetica,sans-Serif" font-size="10.00">FireController</text>
</a>
</g>
</g>
<!-- Node5&#45;&gt;Node7 -->
<g id="edge6" class="edge"><title>Node5&#45;&gt;Node7</title>
<path fill="none" stroke="midnightblue" d="M211.669,-86C228.736,-86 247.022,-86 262.647,-86"/>
<polygon fill="midnightblue" stroke="midnightblue" points="211.235,-82.5001 201.235,-86 211.235,-89.5001 211.235,-82.5001"/>
</g>
<!-- Node8 -->
<g id="node8" class="node"><title>Node8</title>
<g id="a_node8"><a xlink:href="d9/da2/class_life_controller.html" target="_top" xlink:title="LifeController">
<polygon fill="white" stroke="black" points="263,-38.5 263,-57.5 343,-57.5 343,-38.5 263,-38.5"/>
<text text-anchor="middle" x="303" y="-45.5" font-family="Helvetica,sans-Serif" font-size="10.00">LifeController</text>
</a>
</g>
</g>
<!-- Node5&#45;&gt;Node8 -->
<g id="edge7" class="edge"><title>Node5&#45;&gt;Node8</title>
<path fill="none" stroke="midnightblue" d="M201.173,-73.8879C221.786,-68.5956 245.609,-62.4787 264.922,-57.5201"/>
<polygon fill="midnightblue" stroke="midnightblue" points="200.162,-70.534 191.347,-76.411 201.903,-77.3141 200.162,-70.534"/>
</g>
<!-- Node9 -->
<g id="node9" class="node"><title>Node9</title>
<g id="a_node9"><a xlink:href="db/df8/class_segregation_controller.html" target="_top" xlink:title="SegregationController">
<polygon fill="white" stroke="black" points="242,-0.5 242,-19.5 364,-19.5 364,-0.5 242,-0.5"/>
<text text-anchor="middle" x="303" y="-7.5" font-family="Helvetica,sans-Serif" font-size="10.00">SegregationController</text>
</a>
</g>
</g>
<!-- Node5&#45;&gt;Node9 -->
<g id="edge8" class="edge"><title>Node5&#45;&gt;Node9</title>
<path fill="none" stroke="midnightblue" d="M174.702,-70.3052C191.97,-57.7879 217.606,-40.5058 242,-29 249.708,-25.3643 258.289,-22.1802 266.496,-19.5101"/>
<polygon fill="midnightblue" stroke="midnightblue" points="172.459,-67.6104 166.485,-76.3607 176.612,-73.2454 172.459,-67.6104"/>
</g>
</g>
</svg>
