<?xml version="1.0" encoding="UTF-8" standalone="no"?>
<!DOCTYPE svg PUBLIC "-//W3C//DTD SVG 1.1//EN"
 "http://www.w3.org/Graphics/SVG/1.1/DTD/svg11.dtd">
<!-- Generated by graphviz version 2.36.0 (20140111.2315)
 -->
<!-- Title: Graphical Class Hierarchy Pages: 1 -->
<svg width="194pt" height="66pt"
 viewBox="0.00 0.00 194.00 66.00" xmlns="http://www.w3.org/2000/svg" xmlns:xlink="http://www.w3.org/1999/xlink">
<g id="graph0" class="graph" transform="scale(1 1) rotate(0) translate(4 62)">
<title>Graphical Class Hierarchy</title>
<polygon fill="white" stroke="none" points="-4,4 -4,-62 190,-62 190,4 -4,4"/>
<!-- Node1 -->
<g id="node1" class="node"><title>Node1</title>
<g id="a_node1"><a xlink:href="d8/ddc/class_abstract_grid.html" target="_top" xlink:title="AbstractGrid">
<polygon fill="white" stroke="black" points="0.5,-19.5 0.5,-38.5 77.5,-38.5 77.5,-19.5 0.5,-19.5"/>
<text text-anchor="middle" x="39" y="-26.5" font-family="Helvetica,sans-Serif" font-size="10.00">AbstractGrid</text>
</a>
</g>
</g>
<!-- Node2 -->
<g id="node2" class="node"><title>Node2</title>
<g id="a_node2"><a xlink:href="dd/dc3/class_square_grid.html" target="_top" xlink:title="SquareGrid">
<polygon fill="white" stroke="black" points="114.5,-38.5 114.5,-57.5 185.5,-57.5 185.5,-38.5 114.5,-38.5"/>
<text text-anchor="middle" x="150" y="-45.5" font-family="Helvetica,sans-Serif" font-size="10.00">SquareGrid</text>
</a>
</g>
</g>
<!-- Node1&#45;&gt;Node2 -->
<g id="edge1" class="edge"><title>Node1&#45;&gt;Node2</title>
<path fill="none" stroke="midnightblue" d="M87.5294,-37.2849C96.5473,-38.8569 105.824,-40.4739 114.35,-41.9601"/>
<polygon fill="midnightblue" stroke="midnightblue" points="87.9641,-33.808 77.5116,-35.5387 86.762,-40.704 87.9641,-33.808"/>
</g>
<!-- Node3 -->
<g id="node3" class="node"><title>Node3</title>
<g id="a_node3"><a xlink:href="d1/de7/class_triangle_grid.html" target="_top" xlink:title="TriangleGrid">
<polygon fill="white" stroke="black" points="114,-0.5 114,-19.5 186,-19.5 186,-0.5 114,-0.5"/>
<text text-anchor="middle" x="150" y="-7.5" font-family="Helvetica,sans-Serif" font-size="10.00">TriangleGrid</text>
</a>
</g>
</g>
<!-- Node1&#45;&gt;Node3 -->
<g id="edge2" class="edge"><title>Node1&#45;&gt;Node3</title>
<path fill="none" stroke="midnightblue" d="M87.4244,-20.7334C96.3474,-19.178 105.528,-17.5777 113.987,-16.1032"/>
<polygon fill="midnightblue" stroke="midnightblue" points="86.762,-17.296 77.5116,-22.4613 87.9641,-24.192 86.762,-17.296"/>
</g>
</g>
</svg>
