<?xml version="1.0" encoding="UTF-8" standalone="no"?>
<!DOCTYPE svg PUBLIC "-//W3C//DTD SVG 1.1//EN"
 "http://www.w3.org/Graphics/SVG/1.1/DTD/svg11.dtd">
<!-- Generated by graphviz version 2.36.0 (20140111.2315)
 -->
<!-- Title: Graphical Class Hierarchy Pages: 1 -->
<svg width="364pt" height="142pt"
 viewBox="0.00 0.00 364.00 142.00" xmlns="http://www.w3.org/2000/svg" xmlns:xlink="http://www.w3.org/1999/xlink">
<g id="graph0" class="graph" transform="scale(1 1) rotate(0) translate(4 138)">
<title>Graphical Class Hierarchy</title>
<polygon fill="white" stroke="none" points="-4,4 -4,-138 360,-138 360,4 -4,4"/>
<!-- Node1 -->
<g id="node1" class="node"><title>Node1</title>
<g id="a_node1"><a xlink:href="d6/d6e/class_sim_controller.html" target="_top" xlink:title="SimController">
<polygon fill="white" stroke="black" points="0,-57.5 0,-76.5 82,-76.5 82,-57.5 0,-57.5"/>
<text text-anchor="middle" x="41" y="-64.5" font-family="Helvetica,sans-Serif" font-size="10.00">SimController</text>
</a>
</g>
</g>
<!-- Node2 -->
<g id="node2" class="node"><title>Node2</title>
<g id="a_node2"><a xlink:href="dd/da4/class_cardinal_sim_controller.html" target="_top" xlink:title="CardinalSimController">
<polygon fill="white" stroke="black" points="118.5,-114.5 118.5,-133.5 239.5,-133.5 239.5,-114.5 118.5,-114.5"/>
<text text-anchor="middle" x="179" y="-121.5" font-family="Helvetica,sans-Serif" font-size="10.00">CardinalSimController</text>
</a>
</g>
</g>
<!-- Node1&#45;&gt;Node2 -->
<g id="edge1" class="edge"><title>Node1&#45;&gt;Node2</title>
<path fill="none" stroke="midnightblue" d="M68.0199,-81.2826C82.4834,-88.8958 100.954,-98.0893 118,-105 126.506,-108.448 135.89,-111.679 144.66,-114.464"/>
<polygon fill="midnightblue" stroke="midnightblue" points="69.6193,-78.169 59.1492,-76.5478 66.323,-84.3444 69.6193,-78.169"/>
</g>
<!-- Node4 -->
<g id="node4" class="node"><title>Node4</title>
<g id="a_node4"><a xlink:href="d9/da2/class_life_controller.html" target="_top" xlink:title="LifeController">
<polygon fill="white" stroke="black" points="139,-76.5 139,-95.5 219,-95.5 219,-76.5 139,-76.5"/>
<text text-anchor="middle" x="179" y="-83.5" font-family="Helvetica,sans-Serif" font-size="10.00">LifeController</text>
</a>
</g>
</g>
<!-- Node1&#45;&gt;Node4 -->
<g id="edge3" class="edge"><title>Node1&#45;&gt;Node4</title>
<path fill="none" stroke="midnightblue" d="M92.4043,-74.0418C107.687,-76.1769 124.244,-78.4899 138.686,-80.5076"/>
<polygon fill="midnightblue" stroke="midnightblue" points="92.457,-70.5152 82.0689,-72.5979 91.4884,-77.4479 92.457,-70.5152"/>
</g>
<!-- Node5 -->
<g id="node5" class="node"><title>Node5</title>
<g id="a_node5"><a xlink:href="db/df8/class_segregation_controller.html" target="_top" xlink:title="SegregationController">
<polygon fill="white" stroke="black" points="118,-38.5 118,-57.5 240,-57.5 240,-38.5 118,-38.5"/>
<text text-anchor="middle" x="179" y="-45.5" font-family="Helvetica,sans-Serif" font-size="10.00">SegregationController</text>
</a>
</g>
</g>
<!-- Node1&#45;&gt;Node5 -->
<g id="edge4" class="edge"><title>Node1&#45;&gt;Node5</title>
<path fill="none" stroke="midnightblue" d="M92.0546,-60.0071C100.431,-58.8368 109.199,-57.6119 117.798,-56.4106"/>
<polygon fill="midnightblue" stroke="midnightblue" points="91.4884,-56.5521 82.0689,-61.4021 92.457,-63.4848 91.4884,-56.5521"/>
</g>
<!-- Node6 -->
<g id="node6" class="node"><title>Node6</title>
<g id="a_node6"><a xlink:href="dc/da7/class_wator_controller.html" target="_top" xlink:title="WatorController">
<polygon fill="white" stroke="black" points="134,-0.5 134,-19.5 224,-19.5 224,-0.5 134,-0.5"/>
<text text-anchor="middle" x="179" y="-7.5" font-family="Helvetica,sans-Serif" font-size="10.00">WatorController</text>
</a>
</g>
</g>
<!-- Node1&#45;&gt;Node6 -->
<g id="edge5" class="edge"><title>Node1&#45;&gt;Node6</title>
<path fill="none" stroke="midnightblue" d="M68.0199,-52.7174C82.4834,-45.1042 100.954,-35.9107 118,-29 126.506,-25.5517 135.89,-22.3206 144.66,-19.5356"/>
<polygon fill="midnightblue" stroke="midnightblue" points="66.323,-49.6556 59.1492,-57.4522 69.6193,-55.831 66.323,-49.6556"/>
</g>
<!-- Node3 -->
<g id="node3" class="node"><title>Node3</title>
<g id="a_node3"><a xlink:href="d5/d1b/class_fire_controller.html" target="_top" xlink:title="FireController">
<polygon fill="white" stroke="black" points="276,-114.5 276,-133.5 356,-133.5 356,-114.5 276,-114.5"/>
<text text-anchor="middle" x="316" y="-121.5" font-family="Helvetica,sans-Serif" font-size="10.00">FireController</text>
</a>
</g>
</g>
<!-- Node2&#45;&gt;Node3 -->
<g id="edge2" class="edge"><title>Node2&#45;&gt;Node3</title>
<path fill="none" stroke="midnightblue" d="M249.733,-124C258.713,-124 267.641,-124 275.879,-124"/>
<polygon fill="midnightblue" stroke="midnightblue" points="249.606,-120.5 239.606,-124 249.606,-127.5 249.606,-120.5"/>
</g>
</g>
</svg>
