<?xml version="1.0" encoding="UTF-8" standalone="no"?>
<!DOCTYPE svg PUBLIC "-//W3C//DTD SVG 1.1//EN"
 "http://www.w3.org/Graphics/SVG/1.1/DTD/svg11.dtd">
<!-- Generated by graphviz version 2.36.0 (20140111.2315)
 -->
<!-- Title: Graphical Class Hierarchy Pages: 1 -->
<svg width="204pt" height="104pt"
 viewBox="0.00 0.00 204.00 104.00" xmlns="http://www.w3.org/2000/svg" xmlns:xlink="http://www.w3.org/1999/xlink">
<g id="graph0" class="graph" transform="scale(1 1) rotate(0) translate(4 100)">
<title>Graphical Class Hierarchy</title>
<polygon fill="white" stroke="none" points="-4,4 -4,-100 200,-100 200,4 -4,4"/>
<!-- Node1 -->
<g id="node1" class="node"><title>Node1</title>
<g id="a_node1"><a xlink:href="d5/dda/class_boundary.html" target="_top" xlink:title="Boundary">
<polygon fill="white" stroke="black" points="0,-38.5 0,-57.5 62,-57.5 62,-38.5 0,-38.5"/>
<text text-anchor="middle" x="31" y="-45.5" font-family="Helvetica,sans-Serif" font-size="10.00">Boundary</text>
</a>
</g>
</g>
<!-- Node2 -->
<g id="node2" class="node"><title>Node2</title>
<g id="a_node2"><a xlink:href="d6/dfd/class_finite_boundary.html" target="_top" xlink:title="FiniteBoundary">
<polygon fill="white" stroke="black" points="103.5,-76.5 103.5,-95.5 190.5,-95.5 190.5,-76.5 103.5,-76.5"/>
<text text-anchor="middle" x="147" y="-83.5" font-family="Helvetica,sans-Serif" font-size="10.00">FiniteBoundary</text>
</a>
</g>
</g>
<!-- Node1&#45;&gt;Node2 -->
<g id="edge1" class="edge"><title>Node1&#45;&gt;Node2</title>
<path fill="none" stroke="midnightblue" d="M70.4778,-60.8259C85.7742,-65.9247 103.067,-71.6891 117.242,-76.4141"/>
<polygon fill="midnightblue" stroke="midnightblue" points="71.3607,-57.431 60.767,-57.589 69.147,-64.0717 71.3607,-57.431"/>
</g>
<!-- Node3 -->
<g id="node3" class="node"><title>Node3</title>
<g id="a_node3"><a xlink:href="d2/de6/class_infinite_boundary.html" target="_top" xlink:title="InfiniteBoundary">
<polygon fill="white" stroke="black" points="100,-38.5 100,-57.5 194,-57.5 194,-38.5 100,-38.5"/>
<text text-anchor="middle" x="147" y="-45.5" font-family="Helvetica,sans-Serif" font-size="10.00">InfiniteBoundary</text>
</a>
</g>
</g>
<!-- Node1&#45;&gt;Node3 -->
<g id="edge2" class="edge"><title>Node1&#45;&gt;Node3</title>
<path fill="none" stroke="midnightblue" d="M72.3211,-48C81.1795,-48 90.6273,-48 99.6999,-48"/>
<polygon fill="midnightblue" stroke="midnightblue" points="72.2506,-44.5001 62.2506,-48 72.2506,-51.5001 72.2506,-44.5001"/>
</g>
<!-- Node4 -->
<g id="node4" class="node"><title>Node4</title>
<g id="a_node4"><a xlink:href="d6/d9e/class_toroidal_boundary.html" target="_top" xlink:title="ToroidalBoundary">
<polygon fill="white" stroke="black" points="98,-0.5 98,-19.5 196,-19.5 196,-0.5 98,-0.5"/>
<text text-anchor="middle" x="147" y="-7.5" font-family="Helvetica,sans-Serif" font-size="10.00">ToroidalBoundary</text>
</a>
</g>
</g>
<!-- Node1&#45;&gt;Node4 -->
<g id="edge3" class="edge"><title>Node1&#45;&gt;Node4</title>
<path fill="none" stroke="midnightblue" d="M70.4778,-35.1741C85.7742,-30.0753 103.067,-24.3109 117.242,-19.5859"/>
<polygon fill="midnightblue" stroke="midnightblue" points="69.147,-31.9283 60.767,-38.411 71.3607,-38.569 69.147,-31.9283"/>
</g>
</g>
</svg>
