<?xml version="1.0" encoding="UTF-8" standalone="no"?>
<!DOCTYPE svg PUBLIC "-//W3C//DTD SVG 1.1//EN"
 "http://www.w3.org/Graphics/SVG/1.1/DTD/svg11.dtd">
<!-- Generated by graphviz version 2.36.0 (20140111.2315)
 -->
<!-- Title: Graphical Class Hierarchy Pages: 1 -->
<svg width="152pt" height="66pt"
 viewBox="0.00 0.00 152.00 66.00" xmlns="http://www.w3.org/2000/svg" xmlns:xlink="http://www.w3.org/1999/xlink">
<g id="graph0" class="graph" transform="scale(1 1) rotate(0) translate(4 62)">
<title>Graphical Class Hierarchy</title>
<polygon fill="white" stroke="none" points="-4,4 -4,-62 148,-62 148,4 -4,4"/>
<!-- Node1 -->
<g id="node1" class="node"><title>Node1</title>
<g id="a_node1"><a xlink:href="da/d74/class_grid.html" target="_top" xlink:title="Grid">
<polygon fill="white" stroke="black" points="0,-19.5 0,-38.5 36,-38.5 36,-19.5 0,-19.5"/>
<text text-anchor="middle" x="18" y="-26.5" font-family="Helvetica,sans-Serif" font-size="10.00">Grid</text>
</a>
</g>
</g>
<!-- Node2 -->
<g id="node2" class="node"><title>Node2</title>
<g id="a_node2"><a xlink:href="dd/dc3/class_square_grid.html" target="_top" xlink:title="SquareGrid">
<polygon fill="white" stroke="black" points="72.5,-38.5 72.5,-57.5 143.5,-57.5 143.5,-38.5 72.5,-38.5"/>
<text text-anchor="middle" x="108" y="-45.5" font-family="Helvetica,sans-Serif" font-size="10.00">SquareGrid</text>
</a>
</g>
</g>
<!-- Node1&#45;&gt;Node2 -->
<g id="edge1" class="edge"><title>Node1&#45;&gt;Node2</title>
<path fill="none" stroke="midnightblue" d="M46.1913,-34.8708C54.4046,-36.6442 63.5376,-38.6161 72.1766,-40.4813"/>
<polygon fill="midnightblue" stroke="midnightblue" points="46.8994,-31.4432 36.386,-32.7538 45.422,-38.2855 46.8994,-31.4432"/>
</g>
<!-- Node3 -->
<g id="node3" class="node"><title>Node3</title>
<g id="a_node3"><a xlink:href="d1/de7/class_triangle_grid.html" target="_top" xlink:title="TriangleGrid">
<polygon fill="white" stroke="black" points="72,-0.5 72,-19.5 144,-19.5 144,-0.5 72,-0.5"/>
<text text-anchor="middle" x="108" y="-7.5" font-family="Helvetica,sans-Serif" font-size="10.00">TriangleGrid</text>
</a>
</g>
</g>
<!-- Node1&#45;&gt;Node3 -->
<g id="edge2" class="edge"><title>Node1&#45;&gt;Node3</title>
<path fill="none" stroke="midnightblue" d="M46.3605,-23.0926C54.4152,-21.3535 63.3425,-19.4261 71.815,-17.5968"/>
<polygon fill="midnightblue" stroke="midnightblue" points="45.422,-19.7145 36.386,-25.2462 46.8994,-26.5568 45.422,-19.7145"/>
</g>
</g>
</svg>
