<?xml version="1.0" encoding="UTF-8" standalone="no"?>
<!DOCTYPE svg PUBLIC "-//W3C//DTD SVG 1.1//EN"
 "http://www.w3.org/Graphics/SVG/1.1/DTD/svg11.dtd">
<!-- Generated by graphviz version 2.36.0 (20140111.2315)
 -->
<!-- Title: Graphical Class Hierarchy Pages: 1 -->
<svg width="332pt" height="66pt"
 viewBox="0.00 0.00 332.00 66.00" xmlns="http://www.w3.org/2000/svg" xmlns:xlink="http://www.w3.org/1999/xlink">
<g id="graph0" class="graph" transform="scale(1 1) rotate(0) translate(4 62)">
<title>Graphical Class Hierarchy</title>
<polygon fill="white" stroke="none" points="-4,4 -4,-62 328,-62 328,4 -4,4"/>
<!-- Node1 -->
<g id="node1" class="node"><title>Node1</title>
<g id="a_node1"><a xlink:href="dd/ddd/class_neighbor.html" target="_top" xlink:title="Neighbor">
<polygon fill="white" stroke="black" points="0,-19.5 0,-38.5 60,-38.5 60,-19.5 0,-19.5"/>
<text text-anchor="middle" x="30" y="-26.5" font-family="Helvetica,sans-Serif" font-size="10.00">Neighbor</text>
</a>
</g>
</g>
<!-- Node2 -->
<g id="node2" class="node"><title>Node2</title>
<g id="a_node2"><a xlink:href="d9/d94/class_full_neighbor.html" target="_top" xlink:title="FullNeighbor">
<polygon fill="white" stroke="black" points="98.5,-38.5 98.5,-57.5 173.5,-57.5 173.5,-38.5 98.5,-38.5"/>
<text text-anchor="middle" x="136" y="-45.5" font-family="Helvetica,sans-Serif" font-size="10.00">FullNeighbor</text>
</a>
</g>
</g>
<!-- Node1&#45;&gt;Node2 -->
<g id="edge1" class="edge"><title>Node1&#45;&gt;Node2</title>
<path fill="none" stroke="midnightblue" d="M70.2755,-36.1753C79.4273,-37.8473 89.1393,-39.6216 98.1803,-41.2733"/>
<polygon fill="midnightblue" stroke="midnightblue" points="70.7128,-32.6974 60.2466,-34.3431 69.4547,-39.5834 70.7128,-32.6974"/>
</g>
<!-- Node3 -->
<g id="node3" class="node"><title>Node3</title>
<g id="a_node3"><a xlink:href="d3/dcc/class_half_neighbor.html" target="_top" xlink:title="HalfNeighbor">
<polygon fill="white" stroke="black" points="96.5,-0.5 96.5,-19.5 175.5,-19.5 175.5,-0.5 96.5,-0.5"/>
<text text-anchor="middle" x="136" y="-7.5" font-family="Helvetica,sans-Serif" font-size="10.00">HalfNeighbor</text>
</a>
</g>
</g>
<!-- Node1&#45;&gt;Node3 -->
<g id="edge2" class="edge"><title>Node1&#45;&gt;Node3</title>
<path fill="none" stroke="midnightblue" d="M70.3086,-21.8186C78.808,-20.2659 87.7891,-18.6251 96.2662,-17.0764"/>
<polygon fill="midnightblue" stroke="midnightblue" points="69.4547,-18.4166 60.2466,-23.6569 70.7128,-25.3026 69.4547,-18.4166"/>
</g>
<!-- Node4 -->
<g id="node4" class="node"><title>Node4</title>
<g id="a_node4"><a xlink:href="df/d6f/class_hexagonal_neighbor.html" target="_top" xlink:title="HexagonalNeighbor">
<polygon fill="white" stroke="black" points="212.5,-0.5 212.5,-19.5 323.5,-19.5 323.5,-0.5 212.5,-0.5"/>
<text text-anchor="middle" x="268" y="-7.5" font-family="Helvetica,sans-Serif" font-size="10.00">HexagonalNeighbor</text>
</a>
</g>
</g>
<!-- Node3&#45;&gt;Node4 -->
<g id="edge3" class="edge"><title>Node3&#45;&gt;Node4</title>
<path fill="none" stroke="midnightblue" d="M185.937,-10C194.568,-10 203.603,-10 212.379,-10"/>
<polygon fill="midnightblue" stroke="midnightblue" points="185.652,-6.5001 175.652,-10 185.652,-13.5001 185.652,-6.5001"/>
</g>
</g>
</svg>
