<?xml version="1.0" encoding="UTF-8" standalone="no"?>
<!DOCTYPE svg PUBLIC "-//W3C//DTD SVG 1.1//EN"
 "http://www.w3.org/Graphics/SVG/1.1/DTD/svg11.dtd">
<!-- Generated by graphviz version 2.36.0 (20140111.2315)
 -->
<!-- Title: Graphical Class Hierarchy Pages: 1 -->
<svg width="488pt" height="142pt"
 viewBox="0.00 0.00 488.00 142.00" xmlns="http://www.w3.org/2000/svg" xmlns:xlink="http://www.w3.org/1999/xlink">
<g id="graph0" class="graph" transform="scale(1 1) rotate(0) translate(4 138)">
<title>Graphical Class Hierarchy</title>
<polygon fill="white" stroke="none" points="-4,4 -4,-138 484,-138 484,4 -4,4"/>
<!-- Node1 -->
<g id="node1" class="node"><title>Node1</title>
<g id="a_node1"><a xlink:href="d8/d87/class_controller.html" target="_top" xlink:title="Controller">
<polygon fill="white" stroke="black" points="0.5,-75.5 0.5,-94.5 63.5,-94.5 63.5,-75.5 0.5,-75.5"/>
<text text-anchor="middle" x="32" y="-82.5" font-family="Helvetica,sans-Serif" font-size="10.00">Controller</text>
</a>
</g>
</g>
<!-- Node2 -->
<g id="node2" class="node"><title>Node2</title>
<g id="a_node2"><a xlink:href="de/d92/class_complex_controller.html" target="_top" xlink:title="ComplexController">
<polygon fill="white" stroke="black" points="100.5,-104.5 100.5,-123.5 205.5,-123.5 205.5,-104.5 100.5,-104.5"/>
<text text-anchor="middle" x="153" y="-111.5" font-family="Helvetica,sans-Serif" font-size="10.00">ComplexController</text>
</a>
</g>
</g>
<!-- Node1&#45;&gt;Node2 -->
<g id="edge1" class="edge"><title>Node1&#45;&gt;Node2</title>
<path fill="none" stroke="midnightblue" d="M73.5258,-94.876C86.2559,-97.9783 100.28,-101.396 112.909,-104.474"/>
<polygon fill="midnightblue" stroke="midnightblue" points="74.1898,-91.4355 63.6455,-92.4682 72.5324,-98.2365 74.1898,-91.4355"/>
</g>
<!-- Node4 -->
<g id="node4" class="node"><title>Node4</title>
<g id="a_node4"><a xlink:href="da/d56/class_simple_controller.html" target="_top" xlink:title="SimpleController">
<polygon fill="white" stroke="black" points="105,-47.5 105,-66.5 201,-66.5 201,-47.5 105,-47.5"/>
<text text-anchor="middle" x="153" y="-54.5" font-family="Helvetica,sans-Serif" font-size="10.00">SimpleController</text>
</a>
</g>
</g>
<!-- Node1&#45;&gt;Node4 -->
<g id="edge3" class="edge"><title>Node1&#45;&gt;Node4</title>
<path fill="none" stroke="midnightblue" d="M73.6126,-75.4441C85.8753,-72.5587 99.3323,-69.3924 111.582,-66.51"/>
<polygon fill="midnightblue" stroke="midnightblue" points="72.578,-72.0919 63.6455,-77.7893 74.1813,-78.9058 72.578,-72.0919"/>
</g>
<!-- Node3 -->
<g id="node3" class="node"><title>Node3</title>
<g id="a_node3"><a xlink:href="dc/da7/class_wator_controller.html" target="_top" xlink:title="WatorController">
<polygon fill="white" stroke="black" points="258,-114.5 258,-133.5 348,-133.5 348,-114.5 258,-114.5"/>
<text text-anchor="middle" x="303" y="-121.5" font-family="Helvetica,sans-Serif" font-size="10.00">WatorController</text>
</a>
</g>
</g>
<!-- Node2&#45;&gt;Node3 -->
<g id="edge2" class="edge"><title>Node2&#45;&gt;Node3</title>
<path fill="none" stroke="midnightblue" d="M215.894,-118.182C229.996,-119.135 244.7,-120.128 257.883,-121.019"/>
<polygon fill="midnightblue" stroke="midnightblue" points="215.976,-114.68 205.763,-117.498 215.504,-121.664 215.976,-114.68"/>
</g>
<!-- Node5 -->
<g id="node5" class="node"><title>Node5</title>
<g id="a_node5"><a xlink:href="dd/da4/class_cardinal_sim_controller.html" target="_top" xlink:title="CardinalSimController">
<polygon fill="white" stroke="black" points="242.5,-76.5 242.5,-95.5 363.5,-95.5 363.5,-76.5 242.5,-76.5"/>
<text text-anchor="middle" x="303" y="-83.5" font-family="Helvetica,sans-Serif" font-size="10.00">CardinalSimController</text>
</a>
</g>
</g>
<!-- Node4&#45;&gt;Node5 -->
<g id="edge4" class="edge"><title>Node4&#45;&gt;Node5</title>
<path fill="none" stroke="midnightblue" d="M211.209,-68.2099C225.152,-70.942 239.935,-73.8386 253.433,-76.4835"/>
<polygon fill="midnightblue" stroke="midnightblue" points="211.721,-64.7438 201.235,-66.2555 210.375,-71.6132 211.721,-64.7438"/>
</g>
<!-- Node7 -->
<g id="node7" class="node"><title>Node7</title>
<g id="a_node7"><a xlink:href="d9/da2/class_life_controller.html" target="_top" xlink:title="LifeController">
<polygon fill="white" stroke="black" points="263,-38.5 263,-57.5 343,-57.5 343,-38.5 263,-38.5"/>
<text text-anchor="middle" x="303" y="-45.5" font-family="Helvetica,sans-Serif" font-size="10.00">LifeController</text>
</a>
</g>
</g>
<!-- Node4&#45;&gt;Node7 -->
<g id="edge6" class="edge"><title>Node4&#45;&gt;Node7</title>
<path fill="none" stroke="midnightblue" d="M211.669,-53.4931C228.736,-52.4553 247.022,-51.3432 262.647,-50.3931"/>
<polygon fill="midnightblue" stroke="midnightblue" points="211.004,-50.027 201.235,-54.1276 211.429,-57.0141 211.004,-50.027"/>
</g>
<!-- Node8 -->
<g id="node8" class="node"><title>Node8</title>
<g id="a_node8"><a xlink:href="db/df8/class_segregation_controller.html" target="_top" xlink:title="SegregationController">
<polygon fill="white" stroke="black" points="242,-0.5 242,-19.5 364,-19.5 364,-0.5 242,-0.5"/>
<text text-anchor="middle" x="303" y="-7.5" font-family="Helvetica,sans-Serif" font-size="10.00">SegregationController</text>
</a>
</g>
</g>
<!-- Node4&#45;&gt;Node8 -->
<g id="edge7" class="edge"><title>Node4&#45;&gt;Node8</title>
<path fill="none" stroke="midnightblue" d="M193.703,-44.3545C208.82,-39.543 226.206,-34.0135 242,-29 251.685,-25.9256 262.252,-22.5775 271.782,-19.5602"/>
<polygon fill="midnightblue" stroke="midnightblue" points="192.603,-41.0315 184.136,-47.4001 194.726,-47.7017 192.603,-41.0315"/>
</g>
<!-- Node6 -->
<g id="node6" class="node"><title>Node6</title>
<g id="a_node6"><a xlink:href="d5/d1b/class_fire_controller.html" target="_top" xlink:title="FireController">
<polygon fill="white" stroke="black" points="400,-76.5 400,-95.5 480,-95.5 480,-76.5 400,-76.5"/>
<text text-anchor="middle" x="440" y="-83.5" font-family="Helvetica,sans-Serif" font-size="10.00">FireController</text>
</a>
</g>
</g>
<!-- Node5&#45;&gt;Node6 -->
<g id="edge5" class="edge"><title>Node5&#45;&gt;Node6</title>
<path fill="none" stroke="midnightblue" d="M373.733,-86C382.713,-86 391.641,-86 399.879,-86"/>
<polygon fill="midnightblue" stroke="midnightblue" points="373.606,-82.5001 363.606,-86 373.606,-89.5001 373.606,-82.5001"/>
</g>
</g>
</svg>
