<?xml version="1.0" encoding="UTF-8" standalone="no"?>
<!DOCTYPE svg PUBLIC "-//W3C//DTD SVG 1.1//EN"
 "http://www.w3.org/Graphics/SVG/1.1/DTD/svg11.dtd">
<!-- Generated by graphviz version 2.36.0 (20140111.2315)
 -->
<!-- Title: Graphical Class Hierarchy Pages: 1 -->
<svg width="160pt" height="104pt"
 viewBox="0.00 0.00 160.00 104.00" xmlns="http://www.w3.org/2000/svg" xmlns:xlink="http://www.w3.org/1999/xlink">
<g id="graph0" class="graph" transform="scale(1 1) rotate(0) translate(4 100)">
<title>Graphical Class Hierarchy</title>
<polygon fill="white" stroke="none" points="-4,4 -4,-100 156,-100 156,4 -4,4"/>
<!-- Node1 -->
<g id="node1" class="node"><title>Node1</title>
<g id="a_node1"><a xlink:href="da/d74/class_grid.html" target="_top" xlink:title="Grid">
<polygon fill="white" stroke="black" points="0,-38.5 0,-57.5 36,-57.5 36,-38.5 0,-38.5"/>
<text text-anchor="middle" x="18" y="-45.5" font-family="Helvetica,sans-Serif" font-size="10.00">Grid</text>
</a>
</g>
</g>
<!-- Node2 -->
<g id="node2" class="node"><title>Node2</title>
<g id="a_node2"><a xlink:href="dc/dba/class_hexagon_grid.html" target="_top" xlink:title="HexagonGrid">
<polygon fill="white" stroke="black" points="72.5,-76.5 72.5,-95.5 151.5,-95.5 151.5,-76.5 72.5,-76.5"/>
<text text-anchor="middle" x="112" y="-83.5" font-family="Helvetica,sans-Serif" font-size="10.00">HexagonGrid</text>
</a>
</g>
</g>
<!-- Node1&#45;&gt;Node2 -->
<g id="edge1" class="edge"><title>Node1&#45;&gt;Node2</title>
<path fill="none" stroke="midnightblue" d="M45.8826,-59.1037C59.1945,-64.6021 75.1047,-71.1737 87.8662,-76.4447"/>
<polygon fill="midnightblue" stroke="midnightblue" points="46.8833,-55.7303 36.3045,-55.1475 44.2109,-62.2001 46.8833,-55.7303"/>
</g>
<!-- Node3 -->
<g id="node3" class="node"><title>Node3</title>
<g id="a_node3"><a xlink:href="dd/dc3/class_square_grid.html" target="_top" xlink:title="SquareGrid">
<polygon fill="white" stroke="black" points="76.5,-38.5 76.5,-57.5 147.5,-57.5 147.5,-38.5 76.5,-38.5"/>
<text text-anchor="middle" x="112" y="-45.5" font-family="Helvetica,sans-Serif" font-size="10.00">SquareGrid</text>
</a>
</g>
</g>
<!-- Node1&#45;&gt;Node3 -->
<g id="edge2" class="edge"><title>Node1&#45;&gt;Node3</title>
<path fill="none" stroke="midnightblue" d="M46.5784,-48C55.9025,-48 66.4361,-48 76.2433,-48"/>
<polygon fill="midnightblue" stroke="midnightblue" points="46.3045,-44.5001 36.3045,-48 46.3045,-51.5001 46.3045,-44.5001"/>
</g>
<!-- Node4 -->
<g id="node4" class="node"><title>Node4</title>
<g id="a_node4"><a xlink:href="d1/de7/class_triangle_grid.html" target="_top" xlink:title="TriangleGrid">
<polygon fill="white" stroke="black" points="76,-0.5 76,-19.5 148,-19.5 148,-0.5 76,-0.5"/>
<text text-anchor="middle" x="112" y="-7.5" font-family="Helvetica,sans-Serif" font-size="10.00">TriangleGrid</text>
</a>
</g>
</g>
<!-- Node1&#45;&gt;Node4 -->
<g id="edge3" class="edge"><title>Node1&#45;&gt;Node4</title>
<path fill="none" stroke="midnightblue" d="M45.8826,-36.8963C59.1945,-31.3979 75.1047,-24.8263 87.8662,-19.5553"/>
<polygon fill="midnightblue" stroke="midnightblue" points="44.2109,-33.7999 36.3045,-40.8525 46.8833,-40.2697 44.2109,-33.7999"/>
</g>
</g>
</svg>
