<?xml version="1.0" encoding="UTF-8" standalone="no"?>
<!DOCTYPE svg PUBLIC "-//W3C//DTD SVG 1.1//EN"
 "http://www.w3.org/Graphics/SVG/1.1/DTD/svg11.dtd">
<!-- Generated by graphviz version 2.36.0 (20140111.2315)
 -->
<!-- Title: SimController Pages: 1 -->
<svg width="172pt" height="96pt"
 viewBox="0.00 0.00 172.00 96.00" xmlns="http://www.w3.org/2000/svg" xmlns:xlink="http://www.w3.org/1999/xlink">
<g id="graph0" class="graph" transform="scale(1 1) rotate(0) translate(4 92)">
<title>SimController</title>
<polygon fill="white" stroke="none" points="-4,4 -4,-92 168,-92 168,4 -4,4"/>
<!-- Node1 -->
<g id="node1" class="node"><title>Node1</title>
<polygon fill="#bfbfbf" stroke="black" points="31,-0.5 31,-19.5 113,-19.5 113,-0.5 31,-0.5"/>
<text text-anchor="middle" x="72" y="-7.5" font-family="Helvetica,sans-Serif" font-size="10.00">SimController</text>
</g>
<!-- Node2 -->
<g id="node2" class="node"><title>Node2</title>
<g id="a_node2"><a xlink:href="../../dd/ddd/class_neighbor.html" target="_top" xlink:title="Neighbor">
<polygon fill="white" stroke="black" points="0,-68.5 0,-87.5 60,-87.5 60,-68.5 0,-68.5"/>
<text text-anchor="middle" x="30" y="-75.5" font-family="Helvetica,sans-Serif" font-size="10.00">Neighbor</text>
</a>
</g>
</g>
<!-- Node2&#45;&gt;Node1 -->
<g id="edge1" class="edge"><title>Node2&#45;&gt;Node1</title>
<path fill="none" stroke="#9a32cd" stroke-dasharray="5,2" d="M27.0038,-58.0418C26.8181,-51.3439 27.671,-43.9931 31,-38 35.4697,-29.9534 43.4652,-23.8907 51.2161,-19.5701"/>
<polygon fill="#9a32cd" stroke="#9a32cd" points="23.5568,-58.7446 28.0429,-68.3428 30.5215,-58.0419 23.5568,-58.7446"/>
<text text-anchor="middle" x="62" y="-41.5" font-family="Helvetica,sans-Serif" font-size="10.00"> myNeighbor</text>
</g>
<!-- Node3 -->
<g id="node3" class="node"><title>Node3</title>
<g id="a_node3"><a xlink:href="../../d5/dda/class_boundary.html" target="_top" xlink:title="Boundary">
<polygon fill="white" stroke="black" points="84,-68.5 84,-87.5 146,-87.5 146,-68.5 84,-68.5"/>
<text text-anchor="middle" x="115" y="-75.5" font-family="Helvetica,sans-Serif" font-size="10.00">Boundary</text>
</a>
</g>
</g>
<!-- Node3&#45;&gt;Node1 -->
<g id="edge2" class="edge"><title>Node3&#45;&gt;Node1</title>
<path fill="none" stroke="#9a32cd" stroke-dasharray="5,2" d="M105.768,-59.3561C102.021,-52.5487 97.5151,-44.7826 93,-38 88.7879,-31.6726 83.5379,-24.9226 79.3409,-19.7544"/>
<polygon fill="#9a32cd" stroke="#9a32cd" points="102.817,-61.2593 110.628,-68.4175 108.986,-57.9507 102.817,-61.2593"/>
<text text-anchor="middle" x="132" y="-41.5" font-family="Helvetica,sans-Serif" font-size="10.00"> myBoundary</text>
</g>
</g>
</svg>
