<?xml version="1.0" encoding="UTF-8" standalone="no"?>
<!DOCTYPE svg PUBLIC "-//W3C//DTD SVG 1.1//EN"
 "http://www.w3.org/Graphics/SVG/1.1/DTD/svg11.dtd">
<!-- Generated by graphviz version 2.36.0 (20140111.2315)
 -->
<!-- Title: OldHalfNeighbor Pages: 1 -->
<svg width="193pt" height="96pt"
 viewBox="0.00 0.00 193.00 96.00" xmlns="http://www.w3.org/2000/svg" xmlns:xlink="http://www.w3.org/1999/xlink">
<g id="graph0" class="graph" transform="scale(1 1) rotate(0) translate(4 92)">
<title>OldHalfNeighbor</title>
<polygon fill="white" stroke="none" points="-4,4 -4,-92 189,-92 189,4 -4,4"/>
<!-- Node1 -->
<g id="node1" class="node"><title>Node1</title>
<polygon fill="#bfbfbf" stroke="black" points="52.5,-0.5 52.5,-19.5 147.5,-19.5 147.5,-0.5 52.5,-0.5"/>
<text text-anchor="middle" x="100" y="-7.5" font-family="Helvetica,sans-Serif" font-size="10.00">OldHalfNeighbor</text>
</g>
<!-- Node2 -->
<g id="node2" class="node"><title>Node2</title>
<polygon fill="white" stroke="#bfbfbf" points="-0.5,-68.5 -0.5,-87.5 100.5,-87.5 100.5,-68.5 -0.5,-68.5"/>
<text text-anchor="middle" x="50" y="-75.5" font-family="Helvetica,sans-Serif" font-size="10.00">ScalableNeighbor</text>
</g>
<!-- Node2&#45;&gt;Node1 -->
<g id="edge1" class="edge"><title>Node2&#45;&gt;Node1</title>
<path fill="none" stroke="midnightblue" d="M62.6439,-60.3101C72.3911,-47.4437 85.4861,-30.1583 93.3022,-19.8411"/>
<polygon fill="midnightblue" stroke="midnightblue" points="59.7854,-58.2872 56.5366,-68.3717 65.3651,-62.5142 59.7854,-58.2872"/>
</g>
<!-- Node3 -->
<g id="node3" class="node"><title>Node3</title>
<g id="a_node3"><a xlink:href="../../d5/dda/class_boundary.html" target="_top" xlink:title="Boundary">
<polygon fill="white" stroke="black" points="119,-68.5 119,-87.5 181,-87.5 181,-68.5 119,-68.5"/>
<text text-anchor="middle" x="150" y="-75.5" font-family="Helvetica,sans-Serif" font-size="10.00">Boundary</text>
</a>
</g>
</g>
<!-- Node3&#45;&gt;Node1 -->
<g id="edge2" class="edge"><title>Node3&#45;&gt;Node1</title>
<path fill="none" stroke="#9a32cd" stroke-dasharray="5,2" d="M137.356,-60.3101C127.609,-47.4437 114.514,-30.1583 106.698,-19.8411"/>
<polygon fill="#9a32cd" stroke="#9a32cd" points="134.635,-62.5142 143.463,-68.3717 140.215,-58.2872 134.635,-62.5142"/>
<text text-anchor="middle" x="157.5" y="-41.5" font-family="Helvetica,sans-Serif" font-size="10.00"> myBounds</text>
</g>
</g>
</svg>
