<?xml version="1.0" encoding="UTF-8" standalone="no"?>
<!DOCTYPE svg PUBLIC "-//W3C//DTD SVG 1.1//EN"
 "http://www.w3.org/Graphics/SVG/1.1/DTD/svg11.dtd">
<!-- Generated by graphviz version 2.36.0 (20140111.2315)
 -->
<!-- Title: Neighbor Pages: 1 -->
<svg width="195pt" height="140pt"
 viewBox="0.00 0.00 195.00 140.00" xmlns="http://www.w3.org/2000/svg" xmlns:xlink="http://www.w3.org/1999/xlink">
<g id="graph0" class="graph" transform="scale(1 1) rotate(0) translate(4 136)">
<title>Neighbor</title>
<polygon fill="white" stroke="none" points="-4,4 -4,-136 191,-136 191,4 -4,4"/>
<!-- Node1 -->
<g id="node1" class="node"><title>Node1</title>
<polygon fill="#bfbfbf" stroke="black" points="54,-112.5 54,-131.5 114,-131.5 114,-112.5 54,-112.5"/>
<text text-anchor="middle" x="84" y="-119.5" font-family="Helvetica,sans-Serif" font-size="10.00">Neighbor</text>
</g>
<!-- Node2 -->
<g id="node2" class="node"><title>Node2</title>
<g id="a_node2"><a xlink:href="../../d9/d94/class_full_neighbor.html" target="_top" xlink:title="FullNeighbor">
<polygon fill="white" stroke="black" points="-0.5,-56.5 -0.5,-75.5 74.5,-75.5 74.5,-56.5 -0.5,-56.5"/>
<text text-anchor="middle" x="37" y="-63.5" font-family="Helvetica,sans-Serif" font-size="10.00">FullNeighbor</text>
</a>
</g>
</g>
<!-- Node1&#45;&gt;Node2 -->
<g id="edge1" class="edge"><title>Node1&#45;&gt;Node2</title>
<path fill="none" stroke="midnightblue" d="M69.5792,-104.431C61.3419,-94.9673 51.3461,-83.4827 44.6167,-75.7511"/>
<polygon fill="midnightblue" stroke="midnightblue" points="67.0336,-106.838 76.2389,-112.083 72.3137,-102.242 67.0336,-106.838"/>
</g>
<!-- Node3 -->
<g id="node3" class="node"><title>Node3</title>
<g id="a_node3"><a xlink:href="../../d3/dcc/class_half_neighbor.html" target="_top" xlink:title="HalfNeighbor">
<polygon fill="white" stroke="black" points="92.5,-56.5 92.5,-75.5 171.5,-75.5 171.5,-56.5 92.5,-56.5"/>
<text text-anchor="middle" x="132" y="-63.5" font-family="Helvetica,sans-Serif" font-size="10.00">HalfNeighbor</text>
</a>
</g>
</g>
<!-- Node1&#45;&gt;Node3 -->
<g id="edge2" class="edge"><title>Node1&#45;&gt;Node3</title>
<path fill="none" stroke="midnightblue" d="M98.7277,-104.431C107.14,-94.9673 117.349,-83.4827 124.221,-75.7511"/>
<polygon fill="midnightblue" stroke="midnightblue" points="95.954,-102.284 91.9262,-112.083 101.186,-106.934 95.954,-102.284"/>
</g>
<!-- Node4 -->
<g id="node4" class="node"><title>Node4</title>
<g id="a_node4"><a xlink:href="../../df/d6f/class_hexagonal_neighbor.html" target="_top" xlink:title="HexagonalNeighbor">
<polygon fill="white" stroke="black" points="76.5,-0.5 76.5,-19.5 187.5,-19.5 187.5,-0.5 76.5,-0.5"/>
<text text-anchor="middle" x="132" y="-7.5" font-family="Helvetica,sans-Serif" font-size="10.00">HexagonalNeighbor</text>
</a>
</g>
</g>
<!-- Node3&#45;&gt;Node4 -->
<g id="edge3" class="edge"><title>Node3&#45;&gt;Node4</title>
<path fill="none" stroke="midnightblue" d="M132,-45.8045C132,-36.9102 132,-26.7798 132,-19.7511"/>
<polygon fill="midnightblue" stroke="midnightblue" points="128.5,-46.083 132,-56.083 135.5,-46.083 128.5,-46.083"/>
</g>
</g>
</svg>
