<?xml version="1.0" encoding="UTF-8" standalone="no"?>
<!DOCTYPE svg PUBLIC "-//W3C//DTD SVG 1.1//EN"
 "http://www.w3.org/Graphics/SVG/1.1/DTD/svg11.dtd">
<!-- Generated by graphviz version 2.36.0 (20140111.2315)
 -->
<!-- Title: Grid.getGrid Pages: 1 -->
<svg width="804pt" height="28pt"
 viewBox="0.00 0.00 804.00 28.00" xmlns="http://www.w3.org/2000/svg" xmlns:xlink="http://www.w3.org/1999/xlink">
<g id="graph0" class="graph" transform="scale(1 1) rotate(0) translate(4 24)">
<title>Grid.getGrid</title>
<polygon fill="white" stroke="none" points="-4,4 -4,-24 800,-24 800,4 -4,4"/>
<!-- Node1 -->
<g id="node1" class="node"><title>Node1</title>
<polygon fill="#bfbfbf" stroke="black" points="0,-0.5 0,-19.5 74,-19.5 74,-0.5 0,-0.5"/>
<text text-anchor="middle" x="37" y="-7.5" font-family="Helvetica,sans-Serif" font-size="10.00">Grid.getGrid</text>
</g>
<!-- Node2 -->
<g id="node2" class="node"><title>Node2</title>
<g id="a_node2"><a xlink:href="../../df/df8/class_cell_society_view.html#a068f17fd6777087a8debf1f67b576836" target="_top" xlink:title="CellSocietyView.setupInitialGrid">
<polygon fill="white" stroke="black" points="110,-0.5 110,-19.5 274,-19.5 274,-0.5 110,-0.5"/>
<text text-anchor="middle" x="192" y="-7.5" font-family="Helvetica,sans-Serif" font-size="10.00">CellSocietyView.setupInitialGrid</text>
</a>
</g>
</g>
<!-- Node1&#45;&gt;Node2 -->
<g id="edge1" class="edge"><title>Node1&#45;&gt;Node2</title>
<path fill="none" stroke="midnightblue" d="M84.4909,-10C92.5332,-10 101.101,-10 109.751,-10"/>
<polygon fill="midnightblue" stroke="midnightblue" points="84.2589,-6.5001 74.2589,-10 84.2588,-13.5001 84.2589,-6.5001"/>
</g>
<!-- Node3 -->
<g id="node3" class="node"><title>Node3</title>
<g id="a_node3"><a xlink:href="../../d3/dff/class_cell_society.html#af9f22af39a97a58b26126020ca6c8844" target="_top" xlink:title="CellSociety.readNewXML">
<polygon fill="white" stroke="black" points="310,-0.5 310,-19.5 442,-19.5 442,-0.5 310,-0.5"/>
<text text-anchor="middle" x="376" y="-7.5" font-family="Helvetica,sans-Serif" font-size="10.00">CellSociety.readNewXML</text>
</a>
</g>
</g>
<!-- Node2&#45;&gt;Node3 -->
<g id="edge2" class="edge"><title>Node2&#45;&gt;Node3</title>
<path fill="none" stroke="midnightblue" d="M284.266,-10C292.896,-10 301.522,-10 309.835,-10"/>
<polygon fill="midnightblue" stroke="midnightblue" points="284.153,-6.5001 274.153,-10 284.153,-13.5001 284.153,-6.5001"/>
</g>
<!-- Node4 -->
<g id="node4" class="node"><title>Node4</title>
<g id="a_node4"><a xlink:href="../../d3/dff/class_cell_society.html#a656ff46d1459fb7f86b42e3c542506ee" target="_top" xlink:title="CellSociety.configureListeners">
<polygon fill="white" stroke="black" points="478,-0.5 478,-19.5 636,-19.5 636,-0.5 478,-0.5"/>
<text text-anchor="middle" x="557" y="-7.5" font-family="Helvetica,sans-Serif" font-size="10.00">CellSociety.configureListeners</text>
</a>
</g>
</g>
<!-- Node3&#45;&gt;Node4 -->
<g id="edge3" class="edge"><title>Node3&#45;&gt;Node4</title>
<path fill="none" stroke="midnightblue" d="M452.312,-10C460.748,-10 469.355,-10 477.826,-10"/>
<polygon fill="midnightblue" stroke="midnightblue" points="452.13,-6.5001 442.129,-10 452.129,-13.5001 452.13,-6.5001"/>
</g>
<!-- Node5 -->
<g id="node5" class="node"><title>Node5</title>
<g id="a_node5"><a xlink:href="../../d3/dff/class_cell_society.html#ac5e08680a3da358d402461bc25aa1727" target="_top" xlink:title="CellSociety.CellSociety">
<polygon fill="white" stroke="black" points="672.5,-0.5 672.5,-19.5 795.5,-19.5 795.5,-0.5 672.5,-0.5"/>
<text text-anchor="middle" x="734" y="-7.5" font-family="Helvetica,sans-Serif" font-size="10.00">CellSociety.CellSociety</text>
</a>
</g>
</g>
<!-- Node4&#45;&gt;Node5 -->
<g id="edge4" class="edge"><title>Node4&#45;&gt;Node5</title>
<path fill="none" stroke="midnightblue" d="M646.087,-10C655.007,-10 663.919,-10 672.452,-10"/>
<polygon fill="midnightblue" stroke="midnightblue" points="646.032,-6.5001 636.032,-10 646.032,-13.5001 646.032,-6.5001"/>
</g>
</g>
</svg>
