<?xml version="1.0" encoding="UTF-8" standalone="no"?>
<!DOCTYPE svg PUBLIC "-//W3C//DTD SVG 1.1//EN"
 "http://www.w3.org/Graphics/SVG/1.1/DTD/svg11.dtd">
<!-- Generated by graphviz version 2.36.0 (20140111.2315)
 -->
<!-- Title: Grid.update Pages: 1 -->
<svg width="1318pt" height="130pt"
 viewBox="0.00 0.00 1318.00 129.56" xmlns="http://www.w3.org/2000/svg" xmlns:xlink="http://www.w3.org/1999/xlink">
<g id="graph0" class="graph" transform="scale(1 1) rotate(0) translate(4 125.562)">
<title>Grid.update</title>
<polygon fill="white" stroke="none" points="-4,4 -4,-125.562 1314,-125.562 1314,4 -4,4"/>
<!-- Node1 -->
<g id="node1" class="node"><title>Node1</title>
<polygon fill="#bfbfbf" stroke="black" points="0.5,-85.5 0.5,-104.5 73.5,-104.5 73.5,-85.5 0.5,-85.5"/>
<text text-anchor="middle" x="37" y="-92.5" font-family="Helvetica,sans-Serif" font-size="10.00">Grid.update</text>
</g>
<!-- Node2 -->
<g id="node2" class="node"><title>Node2</title>
<g id="a_node2"><a xlink:href="../../df/df8/class_cell_society_view.html#a43ac2666d3a002024be53fe74028a576" target="_top" xlink:title="CellSocietyView.updateSimGrid">
<polygon fill="white" stroke="black" points="110.5,-85.5 110.5,-104.5 275.5,-104.5 275.5,-85.5 110.5,-85.5"/>
<text text-anchor="middle" x="193" y="-92.5" font-family="Helvetica,sans-Serif" font-size="10.00">CellSocietyView.updateSimGrid</text>
</a>
</g>
</g>
<!-- Node1&#45;&gt;Node2 -->
<g id="edge1" class="edge"><title>Node1&#45;&gt;Node2</title>
<path fill="none" stroke="midnightblue" d="M83.722,-95C92.2004,-95 101.288,-95 110.462,-95"/>
<polygon fill="midnightblue" stroke="midnightblue" points="83.7178,-91.5001 73.7178,-95 83.7177,-98.5001 83.7178,-91.5001"/>
</g>
<!-- Node3 -->
<g id="node3" class="node"><title>Node3</title>
<g id="a_node3"><a xlink:href="../../d3/dff/class_cell_society.html#a0ff19c30a1cc433d8ea8444f6a5617f1" target="_top" xlink:title="CellSociety.updateGrid">
<polygon fill="white" stroke="black" points="312,-85.5 312,-104.5 436,-104.5 436,-85.5 312,-85.5"/>
<text text-anchor="middle" x="374" y="-92.5" font-family="Helvetica,sans-Serif" font-size="10.00">CellSociety.updateGrid</text>
</a>
</g>
</g>
<!-- Node2&#45;&gt;Node3 -->
<g id="edge2" class="edge"><title>Node2&#45;&gt;Node3</title>
<path fill="none" stroke="midnightblue" d="M285.652,-95C294.523,-95 303.367,-95 311.833,-95"/>
<polygon fill="midnightblue" stroke="midnightblue" points="285.643,-91.5001 275.643,-95 285.643,-98.5001 285.643,-91.5001"/>
</g>
<!-- Node4 -->
<g id="node4" class="node"><title>Node4</title>
<g id="a_node4"><a xlink:href="../../d3/dff/class_cell_society.html#a656ff46d1459fb7f86b42e3c542506ee" target="_top" xlink:title="CellSociety.configureListeners">
<polygon fill="white" stroke="black" points="992,-57.5 992,-76.5 1150,-76.5 1150,-57.5 992,-57.5"/>
<text text-anchor="middle" x="1071" y="-64.5" font-family="Helvetica,sans-Serif" font-size="10.00">CellSociety.configureListeners</text>
</a>
</g>
</g>
<!-- Node3&#45;&gt;Node4 -->
<g id="edge3" class="edge"><title>Node3&#45;&gt;Node4</title>
<path fill="none" stroke="midnightblue" d="M446.143,-104.282C556.251,-116.843 774.215,-134.5 956,-105 989.155,-99.6198 1025.7,-85.977 1048.25,-76.5924"/>
<polygon fill="midnightblue" stroke="midnightblue" points="446.488,-100.799 436.151,-103.122 445.681,-107.752 446.488,-100.799"/>
</g>
<!-- Node6 -->
<g id="node6" class="node"><title>Node6</title>
<g id="a_node6"><a xlink:href="../../d3/dff/class_cell_society.html#abf13a64ee79f2cb063447b499c695c58" target="_top" xlink:title="CellSociety.start">
<polygon fill="white" stroke="black" points="472.5,-57.5 472.5,-76.5 565.5,-76.5 565.5,-57.5 472.5,-57.5"/>
<text text-anchor="middle" x="519" y="-64.5" font-family="Helvetica,sans-Serif" font-size="10.00">CellSociety.start</text>
</a>
</g>
</g>
<!-- Node3&#45;&gt;Node6 -->
<g id="edge5" class="edge"><title>Node3&#45;&gt;Node6</title>
<path fill="none" stroke="midnightblue" d="M433.93,-83.4613C446.735,-80.954 460.095,-78.338 472.298,-75.9487"/>
<polygon fill="midnightblue" stroke="midnightblue" points="432.954,-80.0859 423.813,-85.4423 434.299,-86.9554 432.954,-80.0859"/>
</g>
<!-- Node5 -->
<g id="node5" class="node"><title>Node5</title>
<g id="a_node5"><a xlink:href="../../d3/dff/class_cell_society.html#ac5e08680a3da358d402461bc25aa1727" target="_top" xlink:title="CellSociety.CellSociety">
<polygon fill="white" stroke="black" points="1186.5,-57.5 1186.5,-76.5 1309.5,-76.5 1309.5,-57.5 1186.5,-57.5"/>
<text text-anchor="middle" x="1248" y="-64.5" font-family="Helvetica,sans-Serif" font-size="10.00">CellSociety.CellSociety</text>
</a>
</g>
</g>
<!-- Node4&#45;&gt;Node5 -->
<g id="edge4" class="edge"><title>Node4&#45;&gt;Node5</title>
<path fill="none" stroke="midnightblue" d="M1160.09,-67C1169.01,-67 1177.92,-67 1186.45,-67"/>
<polygon fill="midnightblue" stroke="midnightblue" points="1160.03,-63.5001 1150.03,-67 1160.03,-70.5001 1160.03,-63.5001"/>
</g>
<!-- Node7 -->
<g id="node7" class="node"><title>Node7</title>
<g id="a_node7"><a xlink:href="../../d3/dff/class_cell_society.html#adc5feda3db5472cea4e092d463681033" target="_top" xlink:title="CellSociety.reframeTimeline">
<polygon fill="white" stroke="black" points="602.5,-57.5 602.5,-76.5 751.5,-76.5 751.5,-57.5 602.5,-57.5"/>
<text text-anchor="middle" x="677" y="-64.5" font-family="Helvetica,sans-Serif" font-size="10.00">CellSociety.reframeTimeline</text>
</a>
</g>
</g>
<!-- Node6&#45;&gt;Node7 -->
<g id="edge6" class="edge"><title>Node6&#45;&gt;Node7</title>
<path fill="none" stroke="midnightblue" d="M575.78,-67C584.359,-67 593.329,-67 602.226,-67"/>
<polygon fill="midnightblue" stroke="midnightblue" points="575.541,-63.5001 565.541,-67 575.541,-70.5001 575.541,-63.5001"/>
</g>
<!-- Node10 -->
<g id="node10" class="node"><title>Node10</title>
<g id="a_node10"><a xlink:href="../../d3/dff/class_cell_society.html#ab9e56a2a70e210e021b51e898508329b" target="_top" xlink:title="CellSociety.setupAnimation">
<polygon fill="white" stroke="black" points="604,-9.5 604,-28.5 750,-28.5 750,-9.5 604,-9.5"/>
<text text-anchor="middle" x="677" y="-16.5" font-family="Helvetica,sans-Serif" font-size="10.00">CellSociety.setupAnimation</text>
</a>
</g>
</g>
<!-- Node6&#45;&gt;Node10 -->
<g id="edge11" class="edge"><title>Node6&#45;&gt;Node10</title>
<path fill="none" stroke="midnightblue" d="M560.87,-54.4247C587.143,-46.3405 620.748,-36.0005 644.86,-28.5815"/>
<polygon fill="midnightblue" stroke="midnightblue" points="559.722,-51.1157 551.194,-57.4018 561.781,-57.8061 559.722,-51.1157"/>
</g>
<!-- Node8 -->
<g id="node8" class="node"><title>Node8</title>
<g id="a_node8"><a xlink:href="../../d3/dff/class_cell_society.html#a045267ba1843ca4a47891d7be73c2ac1" target="_top" xlink:title="CellSociety.decreaseFrameRate">
<polygon fill="white" stroke="black" points="788.5,-76.5 788.5,-95.5 955.5,-95.5 955.5,-76.5 788.5,-76.5"/>
<text text-anchor="middle" x="872" y="-83.5" font-family="Helvetica,sans-Serif" font-size="10.00">CellSociety.decreaseFrameRate</text>
</a>
</g>
</g>
<!-- Node7&#45;&gt;Node8 -->
<g id="edge7" class="edge"><title>Node7&#45;&gt;Node8</title>
<path fill="none" stroke="midnightblue" d="M761.487,-75.2189C770.391,-76.0954 779.444,-76.9868 788.338,-77.8623"/>
<polygon fill="midnightblue" stroke="midnightblue" points="761.81,-71.7339 751.516,-74.2373 761.125,-78.7003 761.81,-71.7339"/>
</g>
<!-- Node9 -->
<g id="node9" class="node"><title>Node9</title>
<g id="a_node9"><a xlink:href="../../d3/dff/class_cell_society.html#a8250bfacdaf51dabf6b9d1cafc0ce9b2" target="_top" xlink:title="CellSociety.increaseFrameRate">
<polygon fill="white" stroke="black" points="790.5,-38.5 790.5,-57.5 953.5,-57.5 953.5,-38.5 790.5,-38.5"/>
<text text-anchor="middle" x="872" y="-45.5" font-family="Helvetica,sans-Serif" font-size="10.00">CellSociety.increaseFrameRate</text>
</a>
</g>
</g>
<!-- Node7&#45;&gt;Node9 -->
<g id="edge9" class="edge"><title>Node7&#45;&gt;Node9</title>
<path fill="none" stroke="midnightblue" d="M761.719,-58.7583C771.198,-57.8251 780.845,-56.8753 790.285,-55.946"/>
<polygon fill="midnightblue" stroke="midnightblue" points="761.125,-55.2997 751.516,-59.7627 761.81,-62.2661 761.125,-55.2997"/>
</g>
<!-- Node8&#45;&gt;Node4 -->
<g id="edge8" class="edge"><title>Node8&#45;&gt;Node4</title>
<path fill="none" stroke="midnightblue" d="M965.877,-77.0423C974.593,-76.2017 983.368,-75.3554 991.927,-74.5299"/>
<polygon fill="midnightblue" stroke="midnightblue" points="965.307,-73.5809 955.689,-78.0249 965.979,-80.5486 965.307,-73.5809"/>
</g>
<!-- Node9&#45;&gt;Node4 -->
<g id="edge10" class="edge"><title>Node9&#45;&gt;Node4</title>
<path fill="none" stroke="midnightblue" d="M963.842,-56.7614C973.24,-57.6678 982.733,-58.5834 991.974,-59.4746"/>
<polygon fill="midnightblue" stroke="midnightblue" points="963.986,-53.2591 953.696,-55.7828 963.314,-60.2268 963.986,-53.2591"/>
</g>
<!-- Node11 -->
<g id="node11" class="node"><title>Node11</title>
<g id="a_node11"><a xlink:href="../../d3/dff/class_cell_society.html#af9f22af39a97a58b26126020ca6c8844" target="_top" xlink:title="CellSociety.readNewXML">
<polygon fill="white" stroke="black" points="806,-0.5 806,-19.5 938,-19.5 938,-0.5 806,-0.5"/>
<text text-anchor="middle" x="872" y="-7.5" font-family="Helvetica,sans-Serif" font-size="10.00">CellSociety.readNewXML</text>
</a>
</g>
</g>
<!-- Node10&#45;&gt;Node11 -->
<g id="edge12" class="edge"><title>Node10&#45;&gt;Node11</title>
<path fill="none" stroke="midnightblue" d="M760.552,-15.1504C775.727,-14.4428 791.372,-13.7132 805.943,-13.0337"/>
<polygon fill="midnightblue" stroke="midnightblue" points="759.967,-11.6738 750.141,-15.6359 760.293,-18.6662 759.967,-11.6738"/>
</g>
<!-- Node11&#45;&gt;Node4 -->
<g id="edge13" class="edge"><title>Node11&#45;&gt;Node4</title>
<path fill="none" stroke="midnightblue" d="M928.362,-21.8882C937.628,-24.1025 947.115,-26.5086 956,-29 986.332,-37.5056 1020.54,-49.198 1043.51,-57.3586"/>
<polygon fill="midnightblue" stroke="midnightblue" points="928.965,-18.4351 918.431,-19.5659 927.371,-25.2512 928.965,-18.4351"/>
</g>
</g>
</svg>
