<?xml version="1.0" encoding="UTF-8" standalone="no"?>
<!DOCTYPE svg PUBLIC "-//W3C//DTD SVG 1.1//EN"
 "http://www.w3.org/Graphics/SVG/1.1/DTD/svg11.dtd">
<!-- Generated by graphviz version 2.36.0 (20140111.2315)
 -->
<!-- Title: SharkCell Pages: 1 -->
<svg width="258pt" height="164pt"
 viewBox="0.00 0.00 258.00 164.00" xmlns="http://www.w3.org/2000/svg" xmlns:xlink="http://www.w3.org/1999/xlink">
<g id="graph0" class="graph" transform="scale(1 1) rotate(0) translate(4 160)">
<title>SharkCell</title>
<polygon fill="white" stroke="none" points="-4,4 -4,-160 254,-160 254,4 -4,4"/>
<!-- Node1 -->
<g id="node1" class="node"><title>Node1</title>
<polygon fill="#bfbfbf" stroke="black" points="114,-0.5 114,-19.5 176,-19.5 176,-0.5 114,-0.5"/>
<text text-anchor="middle" x="145" y="-7.5" font-family="Helvetica,sans-Serif" font-size="10.00">SharkCell</text>
</g>
<!-- Node2 -->
<g id="node2" class="node"><title>Node2</title>
<g id="a_node2"><a xlink:href="../../dd/d11/class_cell.html" target="_top" xlink:title="Cell">
<polygon fill="white" stroke="black" points="47,-68.5 47,-87.5 81,-87.5 81,-68.5 47,-68.5"/>
<text text-anchor="middle" x="64" y="-75.5" font-family="Helvetica,sans-Serif" font-size="10.00">Cell</text>
</a>
</g>
</g>
<!-- Node2&#45;&gt;Node1 -->
<g id="edge1" class="edge"><title>Node2&#45;&gt;Node1</title>
<path fill="none" stroke="midnightblue" d="M82.7352,-61.7343C98.7802,-48.6606 121.309,-30.3039 134.408,-19.6305"/>
<polygon fill="midnightblue" stroke="midnightblue" points="80.1308,-59.3416 74.5893,-68.3717 84.5526,-64.7682 80.1308,-59.3416"/>
</g>
<!-- Node3 -->
<g id="node3" class="node"><title>Node3</title>
<g id="a_node3"><a xlink:href="../../d2/dc7/class_ground.html" target="_top" xlink:title="Ground">
<polygon fill="white" stroke="black" points="0,-136.5 0,-155.5 52,-155.5 52,-136.5 0,-136.5"/>
<text text-anchor="middle" x="26" y="-143.5" font-family="Helvetica,sans-Serif" font-size="10.00">Ground</text>
</a>
</g>
</g>
<!-- Node3&#45;&gt;Node2 -->
<g id="edge2" class="edge"><title>Node3&#45;&gt;Node2</title>
<path fill="none" stroke="#9a32cd" stroke-dasharray="5,2" d="M23.1627,-126.128C22.9934,-119.438 23.8159,-112.071 27,-106 31.2843,-97.8309 39.2829,-91.5213 46.75,-87.0634"/>
<polygon fill="#9a32cd" stroke="#9a32cd" points="19.7084,-126.774 24.1423,-136.396 26.6768,-126.109 19.7084,-126.774"/>
<text text-anchor="middle" x="54" y="-109.5" font-family="Helvetica,sans-Serif" font-size="10.00"> myGround</text>
</g>
<!-- Node4 -->
<g id="node4" class="node"><title>Node4</title>
<polygon fill="white" stroke="#bfbfbf" points="79.5,-136.5 79.5,-155.5 126.5,-155.5 126.5,-136.5 79.5,-136.5"/>
<text text-anchor="middle" x="103" y="-143.5" font-family="Helvetica,sans-Serif" font-size="10.00">Shape</text>
</g>
<!-- Node4&#45;&gt;Node2 -->
<g id="edge3" class="edge"><title>Node4&#45;&gt;Node2</title>
<path fill="none" stroke="#9a32cd" stroke-dasharray="5,2" d="M93.2644,-127.32C89.5035,-120.603 85.12,-112.908 81,-106 77.3683,-99.9105 73.1183,-93.1605 69.7762,-87.9329"/>
<polygon fill="#9a32cd" stroke="#9a32cd" points="90.3117,-129.213 98.2259,-136.257 96.4317,-125.815 90.3117,-129.213"/>
<text text-anchor="middle" x="112.5" y="-109.5" font-family="Helvetica,sans-Serif" font-size="10.00"> myShape</text>
</g>
<!-- Node5 -->
<g id="node5" class="node"><title>Node5</title>
<g id="a_node5"><a xlink:href="../../d1/dd8/interface_reproducing_cell.html" target="_top" xlink:title="ReproducingCell">
<polygon fill="white" stroke="black" points="99,-68.5 99,-87.5 191,-87.5 191,-68.5 99,-68.5"/>
<text text-anchor="middle" x="145" y="-75.5" font-family="Helvetica,sans-Serif" font-size="10.00">ReproducingCell</text>
</a>
</g>
</g>
<!-- Node5&#45;&gt;Node1 -->
<g id="edge4" class="edge"><title>Node5&#45;&gt;Node1</title>
<path fill="none" stroke="midnightblue" d="M145,-58.0413C145,-45.4724 145,-29.5631 145,-19.8411"/>
<polygon fill="midnightblue" stroke="midnightblue" points="141.5,-58.3716 145,-68.3717 148.5,-58.3717 141.5,-58.3716"/>
</g>
<!-- Node6 -->
<g id="node6" class="node"><title>Node6</title>
<polygon fill="white" stroke="#bfbfbf" points="209.5,-68.5 209.5,-87.5 250.5,-87.5 250.5,-68.5 209.5,-68.5"/>
<text text-anchor="middle" x="230" y="-75.5" font-family="Helvetica,sans-Serif" font-size="10.00">Color</text>
</g>
<!-- Node6&#45;&gt;Node1 -->
<g id="edge5" class="edge"><title>Node6&#45;&gt;Node1</title>
<path fill="none" stroke="#9a32cd" stroke-dasharray="5,2" d="M210.806,-62.0961C193.941,-49.0012 169.988,-30.4028 156.115,-19.6305"/>
<polygon fill="#9a32cd" stroke="#9a32cd" points="208.843,-65.0031 218.888,-68.3717 213.136,-59.4742 208.843,-65.0031"/>
<text text-anchor="middle" x="217.5" y="-41.5" font-family="Helvetica,sans-Serif" font-size="10.00"> myColor</text>
</g>
</g>
</svg>
