<?xml version="1.0" encoding="UTF-8" standalone="no"?>
<!DOCTYPE svg PUBLIC "-//W3C//DTD SVG 1.1//EN"
 "http://www.w3.org/Graphics/SVG/1.1/DTD/svg11.dtd">
<!-- Generated by graphviz version 2.36.0 (20140111.2315)
 -->
<!-- Title: SharkCell Pages: 1 -->
<svg width="217pt" height="164pt"
 viewBox="0.00 0.00 217.00 164.00" xmlns="http://www.w3.org/2000/svg" xmlns:xlink="http://www.w3.org/1999/xlink">
<g id="graph0" class="graph" transform="scale(1 1) rotate(0) translate(4 160)">
<title>SharkCell</title>
<polygon fill="white" stroke="none" points="-4,4 -4,-160 213,-160 213,4 -4,4"/>
<!-- Node1 -->
<g id="node1" class="node"><title>Node1</title>
<polygon fill="#bfbfbf" stroke="black" points="73,-0.5 73,-19.5 135,-19.5 135,-0.5 73,-0.5"/>
<text text-anchor="middle" x="104" y="-7.5" font-family="Helvetica,sans-Serif" font-size="10.00">SharkCell</text>
</g>
<!-- Node2 -->
<g id="node2" class="node"><title>Node2</title>
<g id="a_node2"><a xlink:href="../../dd/d11/class_cell.html" target="_top" xlink:title="Cell">
<polygon fill="white" stroke="black" points="6,-68.5 6,-87.5 40,-87.5 40,-68.5 6,-68.5"/>
<text text-anchor="middle" x="23" y="-75.5" font-family="Helvetica,sans-Serif" font-size="10.00">Cell</text>
</a>
</g>
</g>
<!-- Node2&#45;&gt;Node1 -->
<g id="edge1" class="edge"><title>Node2&#45;&gt;Node1</title>
<path fill="none" stroke="midnightblue" d="M41.7352,-61.7343C57.7802,-48.6606 80.3088,-30.3039 93.4081,-19.6305"/>
<polygon fill="midnightblue" stroke="midnightblue" points="39.1308,-59.3416 33.5893,-68.3717 43.5526,-64.7682 39.1308,-59.3416"/>
</g>
<!-- Node3 -->
<g id="node3" class="node"><title>Node3</title>
<polygon fill="white" stroke="#bfbfbf" points="-0.5,-136.5 -0.5,-155.5 46.5,-155.5 46.5,-136.5 -0.5,-136.5"/>
<text text-anchor="middle" x="23" y="-143.5" font-family="Helvetica,sans-Serif" font-size="10.00">Shape</text>
</g>
<!-- Node3&#45;&gt;Node2 -->
<g id="edge2" class="edge"><title>Node3&#45;&gt;Node2</title>
<path fill="none" stroke="#9a32cd" stroke-dasharray="5,2" d="M23,-126.041C23,-113.472 23,-97.5631 23,-87.8411"/>
<polygon fill="#9a32cd" stroke="#9a32cd" points="19.5001,-126.372 23,-136.372 26.5001,-126.372 19.5001,-126.372"/>
<text text-anchor="middle" x="47.5" y="-109.5" font-family="Helvetica,sans-Serif" font-size="10.00"> myShape</text>
</g>
<!-- Node4 -->
<g id="node4" class="node"><title>Node4</title>
<g id="a_node4"><a xlink:href="../../d1/dd8/interface_reproducing_cell.html" target="_top" xlink:title="ReproducingCell">
<polygon fill="white" stroke="black" points="58,-68.5 58,-87.5 150,-87.5 150,-68.5 58,-68.5"/>
<text text-anchor="middle" x="104" y="-75.5" font-family="Helvetica,sans-Serif" font-size="10.00">ReproducingCell</text>
</a>
</g>
</g>
<!-- Node4&#45;&gt;Node1 -->
<g id="edge3" class="edge"><title>Node4&#45;&gt;Node1</title>
<path fill="none" stroke="midnightblue" d="M104,-58.0413C104,-45.4724 104,-29.5631 104,-19.8411"/>
<polygon fill="midnightblue" stroke="midnightblue" points="100.5,-58.3716 104,-68.3717 107.5,-58.3717 100.5,-58.3716"/>
</g>
<!-- Node5 -->
<g id="node5" class="node"><title>Node5</title>
<polygon fill="white" stroke="#bfbfbf" points="168.5,-68.5 168.5,-87.5 209.5,-87.5 209.5,-68.5 168.5,-68.5"/>
<text text-anchor="middle" x="189" y="-75.5" font-family="Helvetica,sans-Serif" font-size="10.00">Color</text>
</g>
<!-- Node5&#45;&gt;Node1 -->
<g id="edge4" class="edge"><title>Node5&#45;&gt;Node1</title>
<path fill="none" stroke="#9a32cd" stroke-dasharray="5,2" d="M169.806,-62.0961C152.941,-49.0012 128.988,-30.4028 115.115,-19.6305"/>
<polygon fill="#9a32cd" stroke="#9a32cd" points="167.843,-65.0031 177.888,-68.3717 172.136,-59.4742 167.843,-65.0031"/>
<text text-anchor="middle" x="176.5" y="-41.5" font-family="Helvetica,sans-Serif" font-size="10.00"> myColor</text>
</g>
</g>
</svg>
