<?xml version="1.0" encoding="UTF-8" standalone="no"?>
<!DOCTYPE svg PUBLIC "-//W3C//DTD SVG 1.1//EN"
 "http://www.w3.org/Graphics/SVG/1.1/DTD/svg11.dtd">
<!-- Generated by graphviz version 2.36.0 (20140111.2315)
 -->
<!-- Title: SharkCell Pages: 1 -->
<svg width="155pt" height="154pt"
 viewBox="0.00 0.00 155.00 154.00" xmlns="http://www.w3.org/2000/svg" xmlns:xlink="http://www.w3.org/1999/xlink">
<g id="graph0" class="graph" transform="scale(1 1) rotate(0) translate(4 150)">
<title>SharkCell</title>
<polygon fill="white" stroke="none" points="-4,4 -4,-150 151,-150 151,4 -4,4"/>
<!-- Node1 -->
<g id="node1" class="node"><title>Node1</title>
<polygon fill="#bfbfbf" stroke="black" points="49,-0.5 49,-19.5 111,-19.5 111,-0.5 49,-0.5"/>
<text text-anchor="middle" x="80" y="-7.5" font-family="Helvetica,sans-Serif" font-size="10.00">SharkCell</text>
</g>
<!-- Node2 -->
<g id="node2" class="node"><title>Node2</title>
<g id="a_node2"><a xlink:href="../../dd/d11/class_cell.html" target="_top" xlink:title="Cell">
<polygon fill="white" stroke="black" points="3,-58.5 3,-77.5 37,-77.5 37,-58.5 3,-58.5"/>
<text text-anchor="middle" x="20" y="-65.5" font-family="Helvetica,sans-Serif" font-size="10.00">Cell</text>
</a>
</g>
</g>
<!-- Node2&#45;&gt;Node1 -->
<g id="edge1" class="edge"><title>Node2&#45;&gt;Node1</title>
<path fill="none" stroke="midnightblue" d="M36.4989,-51.601C47.5522,-41.2846 61.6951,-28.0846 70.8015,-19.5852"/>
<polygon fill="midnightblue" stroke="midnightblue" points="34.0352,-49.1129 29.1127,-58.4948 38.8114,-54.2303 34.0352,-49.1129"/>
</g>
<!-- Node3 -->
<g id="node3" class="node"><title>Node3</title>
<polygon fill="white" stroke="#bfbfbf" points="-0.5,-126.5 -0.5,-145.5 40.5,-145.5 40.5,-126.5 -0.5,-126.5"/>
<text text-anchor="middle" x="20" y="-133.5" font-family="Helvetica,sans-Serif" font-size="10.00">Color</text>
</g>
<!-- Node3&#45;&gt;Node2 -->
<g id="edge2" class="edge"><title>Node3&#45;&gt;Node2</title>
<path fill="none" stroke="#9a32cd" stroke-dasharray="5,2" d="M20,-116.041C20,-103.472 20,-87.5631 20,-77.8411"/>
<polygon fill="#9a32cd" stroke="#9a32cd" points="16.5001,-116.372 20,-126.372 23.5001,-116.372 16.5001,-116.372"/>
<text text-anchor="middle" x="41.5" y="-99.5" font-family="Helvetica,sans-Serif" font-size="10.00"> myColor</text>
</g>
<!-- Node4 -->
<g id="node4" class="node"><title>Node4</title>
<g id="a_node4"><a xlink:href="../../d1/dd8/interface_reproducing_cell.html" target="_top" xlink:title="ReproducingCell">
<polygon fill="white" stroke="black" points="55,-58.5 55,-77.5 147,-77.5 147,-58.5 55,-58.5"/>
<text text-anchor="middle" x="101" y="-65.5" font-family="Helvetica,sans-Serif" font-size="10.00">ReproducingCell</text>
</a>
</g>
</g>
<!-- Node4&#45;&gt;Node1 -->
<g id="edge3" class="edge"><title>Node4&#45;&gt;Node1</title>
<path fill="none" stroke="midnightblue" d="M94.0929,-48.5811C90.417,-38.7787 86.073,-27.1948 83.1894,-19.5052"/>
<polygon fill="midnightblue" stroke="midnightblue" points="90.9303,-50.1157 97.7188,-58.25 97.4846,-47.6577 90.9303,-50.1157"/>
</g>
</g>
</svg>
