<?xml version="1.0" encoding="UTF-8" standalone="no"?>
<!DOCTYPE svg PUBLIC "-//W3C//DTD SVG 1.1//EN"
 "http://www.w3.org/Graphics/SVG/1.1/DTD/svg11.dtd">
<!-- Generated by graphviz version 2.36.0 (20140111.2315)
 -->
<!-- Title: TriangleGrid.setRed Pages: 1 -->
<svg width="430pt" height="28pt"
 viewBox="0.00 0.00 430.00 28.00" xmlns="http://www.w3.org/2000/svg" xmlns:xlink="http://www.w3.org/1999/xlink">
<g id="graph0" class="graph" transform="scale(1 1) rotate(0) translate(4 24)">
<title>TriangleGrid.setRed</title>
<polygon fill="white" stroke="none" points="-4,4 -4,-24 426,-24 426,4 -4,4"/>
<!-- Node1 -->
<g id="node1" class="node"><title>Node1</title>
<polygon fill="#bfbfbf" stroke="black" points="0.5,-0.5 0.5,-19.5 107.5,-19.5 107.5,-0.5 0.5,-0.5"/>
<text text-anchor="middle" x="54" y="-7.5" font-family="Helvetica,sans-Serif" font-size="10.00">TriangleGrid.setRed</text>
</g>
<!-- Node2 -->
<g id="node2" class="node"><title>Node2</title>
<g id="a_node2"><a xlink:href="../../d1/de7/class_triangle_grid.html#a004586bea634fbe566ba5c63e5114f50" target="_top" xlink:title="TriangleGrid.update">
<polygon fill="white" stroke="black" points="144.5,-0.5 144.5,-19.5 253.5,-19.5 253.5,-0.5 144.5,-0.5"/>
<text text-anchor="middle" x="199" y="-7.5" font-family="Helvetica,sans-Serif" font-size="10.00">TriangleGrid.update</text>
</a>
</g>
</g>
<!-- Node1&#45;&gt;Node2 -->
<g id="edge1" class="edge"><title>Node1&#45;&gt;Node2</title>
<path fill="none" stroke="midnightblue" d="M118.056,-10C126.852,-10 135.821,-10 144.42,-10"/>
<polygon fill="midnightblue" stroke="midnightblue" points="117.842,-6.5001 107.842,-10 117.842,-13.5001 117.842,-6.5001"/>
</g>
<!-- Node3 -->
<g id="node3" class="node"><title>Node3</title>
<g id="a_node3"><a xlink:href="../../d1/de7/class_triangle_grid.html#a2b0333511e694209e681e8716a7c1043" target="_top" xlink:title="TriangleGrid.TriangleGrid">
<polygon fill="white" stroke="black" points="290.5,-0.5 290.5,-19.5 421.5,-19.5 421.5,-0.5 290.5,-0.5"/>
<text text-anchor="middle" x="356" y="-7.5" font-family="Helvetica,sans-Serif" font-size="10.00">TriangleGrid.TriangleGrid</text>
</a>
</g>
</g>
<!-- Node2&#45;&gt;Node3 -->
<g id="edge2" class="edge"><title>Node2&#45;&gt;Node3</title>
<path fill="none" stroke="midnightblue" d="M263.901,-10C272.643,-10 281.623,-10 290.377,-10"/>
<polygon fill="midnightblue" stroke="midnightblue" points="263.777,-6.5001 253.776,-10 263.776,-13.5001 263.777,-6.5001"/>
</g>
</g>
</svg>
