<?xml version="1.0" encoding="UTF-8" standalone="no"?>
<!DOCTYPE svg PUBLIC "-//W3C//DTD SVG 1.1//EN"
 "http://www.w3.org/Graphics/SVG/1.1/DTD/svg11.dtd">
<!-- Generated by graphviz version 2.36.0 (20140111.2315)
 -->
<!-- Title: TriangleGrid.update Pages: 1 -->
<svg width="424pt" height="104pt"
 viewBox="0.00 0.00 424.00 104.00" xmlns="http://www.w3.org/2000/svg" xmlns:xlink="http://www.w3.org/1999/xlink">
<g id="graph0" class="graph" transform="scale(1 1) rotate(0) translate(4 100)">
<title>TriangleGrid.update</title>
<polygon fill="white" stroke="none" points="-4,4 -4,-100 420,-100 420,4 -4,4"/>
<!-- Node1 -->
<g id="node1" class="node"><title>Node1</title>
<polygon fill="#bfbfbf" stroke="black" points="0.5,-38.5 0.5,-57.5 109.5,-57.5 109.5,-38.5 0.5,-38.5"/>
<text text-anchor="middle" x="55" y="-45.5" font-family="Helvetica,sans-Serif" font-size="10.00">TriangleGrid.update</text>
</g>
<!-- Node2 -->
<g id="node2" class="node"><title>Node2</title>
<g id="a_node2"><a xlink:href="../../d1/de7/class_triangle_grid.html#a87d13397aff674fad324547f32fea609" target="_top" xlink:title="TriangleGrid.generateTriangle">
<polygon fill="white" stroke="black" points="146.5,-76.5 146.5,-95.5 301.5,-95.5 301.5,-76.5 146.5,-76.5"/>
<text text-anchor="middle" x="224" y="-83.5" font-family="Helvetica,sans-Serif" font-size="10.00">TriangleGrid.generateTriangle</text>
</a>
</g>
</g>
<!-- Node1&#45;&gt;Node2 -->
<g id="edge1" class="edge"><title>Node1&#45;&gt;Node2</title>
<path fill="none" stroke="midnightblue" d="M98.1412,-57.589C120.377,-62.6487 147.848,-68.8996 171.356,-74.2488"/>
<polygon fill="midnightblue" stroke="midnightblue" points="170.635,-77.6739 181.162,-76.4799 172.188,-70.8484 170.635,-77.6739"/>
</g>
<!-- Node3 -->
<g id="node3" class="node"><title>Node3</title>
<g id="a_node3"><a xlink:href="../../d1/de7/class_triangle_grid.html#a6ad8d77ab737d34950c7741545b610cd" target="_top" xlink:title="TriangleGrid.setBack">
<polygon fill="white" stroke="black" points="167.5,-38.5 167.5,-57.5 280.5,-57.5 280.5,-38.5 167.5,-38.5"/>
<text text-anchor="middle" x="224" y="-45.5" font-family="Helvetica,sans-Serif" font-size="10.00">TriangleGrid.setBack</text>
</a>
</g>
</g>
<!-- Node1&#45;&gt;Node3 -->
<g id="edge2" class="edge"><title>Node1&#45;&gt;Node3</title>
<path fill="none" stroke="midnightblue" d="M109.759,-48C124.855,-48 141.443,-48 157.156,-48"/>
<polygon fill="midnightblue" stroke="midnightblue" points="157.332,-51.5001 167.332,-48 157.332,-44.5001 157.332,-51.5001"/>
</g>
<!-- Node5 -->
<g id="node5" class="node"><title>Node5</title>
<g id="a_node5"><a xlink:href="../../d1/de7/class_triangle_grid.html#a9325124627d99d47fbdf8844e547e4b7" target="_top" xlink:title="TriangleGrid.setRed">
<polygon fill="white" stroke="black" points="170.5,-0.5 170.5,-19.5 277.5,-19.5 277.5,-0.5 170.5,-0.5"/>
<text text-anchor="middle" x="224" y="-7.5" font-family="Helvetica,sans-Serif" font-size="10.00">TriangleGrid.setRed</text>
</a>
</g>
</g>
<!-- Node1&#45;&gt;Node5 -->
<g id="edge4" class="edge"><title>Node1&#45;&gt;Node5</title>
<path fill="none" stroke="midnightblue" d="M98.1412,-38.411C120.377,-33.3513 147.848,-27.1004 171.356,-21.7512"/>
<polygon fill="midnightblue" stroke="midnightblue" points="172.188,-25.1516 181.162,-19.5201 170.635,-18.3261 172.188,-25.1516"/>
</g>
<!-- Node4 -->
<g id="node4" class="node"><title>Node4</title>
<g id="a_node4"><a xlink:href="../../dd/d11/class_cell.html#a790b7140ab91d2b94677731a56b67b88" target="_top" xlink:title="Cell.getColor">
<polygon fill="white" stroke="black" points="338.5,-38.5 338.5,-57.5 415.5,-57.5 415.5,-38.5 338.5,-38.5"/>
<text text-anchor="middle" x="377" y="-45.5" font-family="Helvetica,sans-Serif" font-size="10.00">Cell.getColor</text>
</a>
</g>
</g>
<!-- Node3&#45;&gt;Node4 -->
<g id="edge3" class="edge"><title>Node3&#45;&gt;Node4</title>
<path fill="none" stroke="midnightblue" d="M280.798,-48C296.361,-48 313.125,-48 328.184,-48"/>
<polygon fill="midnightblue" stroke="midnightblue" points="328.301,-51.5001 338.301,-48 328.301,-44.5001 328.301,-51.5001"/>
</g>
</g>
</svg>
