<?xml version="1.0" encoding="UTF-8" standalone="no"?>
<!DOCTYPE svg PUBLIC "-//W3C//DTD SVG 1.1//EN"
 "http://www.w3.org/Graphics/SVG/1.1/DTD/svg11.dtd">
<!-- Generated by graphviz version 2.36.0 (20140111.2315)
 -->
<!-- Title: TriangleGrid.generateTriangle Pages: 1 -->
<svg width="478pt" height="28pt"
 viewBox="0.00 0.00 478.00 28.00" xmlns="http://www.w3.org/2000/svg" xmlns:xlink="http://www.w3.org/1999/xlink">
<g id="graph0" class="graph" transform="scale(1 1) rotate(0) translate(4 24)">
<title>TriangleGrid.generateTriangle</title>
<polygon fill="white" stroke="none" points="-4,4 -4,-24 474,-24 474,4 -4,4"/>
<!-- Node1 -->
<g id="node1" class="node"><title>Node1</title>
<polygon fill="#bfbfbf" stroke="black" points="0.5,-0.5 0.5,-19.5 155.5,-19.5 155.5,-0.5 0.5,-0.5"/>
<text text-anchor="middle" x="78" y="-7.5" font-family="Helvetica,sans-Serif" font-size="10.00">TriangleGrid.generateTriangle</text>
</g>
<!-- Node2 -->
<g id="node2" class="node"><title>Node2</title>
<g id="a_node2"><a xlink:href="../../d1/de7/class_triangle_grid.html#a004586bea634fbe566ba5c63e5114f50" target="_top" xlink:title="TriangleGrid.update">
<polygon fill="white" stroke="black" points="192.5,-0.5 192.5,-19.5 301.5,-19.5 301.5,-0.5 192.5,-0.5"/>
<text text-anchor="middle" x="247" y="-7.5" font-family="Helvetica,sans-Serif" font-size="10.00">TriangleGrid.update</text>
</a>
</g>
</g>
<!-- Node1&#45;&gt;Node2 -->
<g id="edge1" class="edge"><title>Node1&#45;&gt;Node2</title>
<path fill="none" stroke="midnightblue" d="M165.809,-10C174.8,-10 183.741,-10 192.212,-10"/>
<polygon fill="midnightblue" stroke="midnightblue" points="165.657,-6.5001 155.657,-10 165.657,-13.5001 165.657,-6.5001"/>
</g>
<!-- Node3 -->
<g id="node3" class="node"><title>Node3</title>
<g id="a_node3"><a xlink:href="../../d1/de7/class_triangle_grid.html#a2b0333511e694209e681e8716a7c1043" target="_top" xlink:title="TriangleGrid.TriangleGrid">
<polygon fill="white" stroke="black" points="338.5,-0.5 338.5,-19.5 469.5,-19.5 469.5,-0.5 338.5,-0.5"/>
<text text-anchor="middle" x="404" y="-7.5" font-family="Helvetica,sans-Serif" font-size="10.00">TriangleGrid.TriangleGrid</text>
</a>
</g>
</g>
<!-- Node2&#45;&gt;Node3 -->
<g id="edge2" class="edge"><title>Node2&#45;&gt;Node3</title>
<path fill="none" stroke="midnightblue" d="M311.901,-10C320.643,-10 329.623,-10 338.377,-10"/>
<polygon fill="midnightblue" stroke="midnightblue" points="311.777,-6.5001 301.776,-10 311.776,-13.5001 311.777,-6.5001"/>
</g>
</g>
</svg>
