<?xml version="1.0" encoding="UTF-8" standalone="no"?>
<!DOCTYPE svg PUBLIC "-//W3C//DTD SVG 1.1//EN"
 "http://www.w3.org/Graphics/SVG/1.1/DTD/svg11.dtd">
<!-- Generated by graphviz version 2.36.0 (20140111.2315)
 -->
<!-- Title: TriangleGrid.setBack Pages: 1 -->
<svg width="436pt" height="28pt"
 viewBox="0.00 0.00 436.00 28.00" xmlns="http://www.w3.org/2000/svg" xmlns:xlink="http://www.w3.org/1999/xlink">
<g id="graph0" class="graph" transform="scale(1 1) rotate(0) translate(4 24)">
<title>TriangleGrid.setBack</title>
<polygon fill="white" stroke="none" points="-4,4 -4,-24 432,-24 432,4 -4,4"/>
<!-- Node1 -->
<g id="node1" class="node"><title>Node1</title>
<polygon fill="#bfbfbf" stroke="black" points="0.5,-0.5 0.5,-19.5 113.5,-19.5 113.5,-0.5 0.5,-0.5"/>
<text text-anchor="middle" x="57" y="-7.5" font-family="Helvetica,sans-Serif" font-size="10.00">TriangleGrid.setBack</text>
</g>
<!-- Node2 -->
<g id="node2" class="node"><title>Node2</title>
<g id="a_node2"><a xlink:href="../../d1/de7/class_triangle_grid.html#a004586bea634fbe566ba5c63e5114f50" target="_top" xlink:title="TriangleGrid.update">
<polygon fill="white" stroke="black" points="150.5,-0.5 150.5,-19.5 259.5,-19.5 259.5,-0.5 150.5,-0.5"/>
<text text-anchor="middle" x="205" y="-7.5" font-family="Helvetica,sans-Serif" font-size="10.00">TriangleGrid.update</text>
</a>
</g>
</g>
<!-- Node1&#45;&gt;Node2 -->
<g id="edge1" class="edge"><title>Node1&#45;&gt;Node2</title>
<path fill="none" stroke="midnightblue" d="M123.651,-10C132.624,-10 141.746,-10 150.469,-10"/>
<polygon fill="midnightblue" stroke="midnightblue" points="123.613,-6.5001 113.613,-10 123.613,-13.5001 123.613,-6.5001"/>
</g>
<!-- Node3 -->
<g id="node3" class="node"><title>Node3</title>
<g id="a_node3"><a xlink:href="../../d1/de7/class_triangle_grid.html#a2b0333511e694209e681e8716a7c1043" target="_top" xlink:title="TriangleGrid.TriangleGrid">
<polygon fill="white" stroke="black" points="296.5,-0.5 296.5,-19.5 427.5,-19.5 427.5,-0.5 296.5,-0.5"/>
<text text-anchor="middle" x="362" y="-7.5" font-family="Helvetica,sans-Serif" font-size="10.00">TriangleGrid.TriangleGrid</text>
</a>
</g>
</g>
<!-- Node2&#45;&gt;Node3 -->
<g id="edge2" class="edge"><title>Node2&#45;&gt;Node3</title>
<path fill="none" stroke="midnightblue" d="M269.901,-10C278.643,-10 287.623,-10 296.377,-10"/>
<polygon fill="midnightblue" stroke="midnightblue" points="269.777,-6.5001 259.776,-10 269.776,-13.5001 269.777,-6.5001"/>
</g>
</g>
</svg>
