<?xml version="1.0" encoding="UTF-8" standalone="no"?>
<!DOCTYPE svg PUBLIC "-//W3C//DTD SVG 1.1//EN"
 "http://www.w3.org/Graphics/SVG/1.1/DTD/svg11.dtd">
<!-- Generated by graphviz version 2.36.0 (20140111.2315)
 -->
<!-- Title: TriangleGrid.TriangleGrid Pages: 1 -->
<svg width="592pt" height="104pt"
 viewBox="0.00 0.00 592.00 104.00" xmlns="http://www.w3.org/2000/svg" xmlns:xlink="http://www.w3.org/1999/xlink">
<g id="graph0" class="graph" transform="scale(1 1) rotate(0) translate(4 100)">
<title>TriangleGrid.TriangleGrid</title>
<polygon fill="white" stroke="none" points="-4,4 -4,-100 588,-100 588,4 -4,4"/>
<!-- Node1 -->
<g id="node1" class="node"><title>Node1</title>
<polygon fill="#bfbfbf" stroke="black" points="0.5,-38.5 0.5,-57.5 131.5,-57.5 131.5,-38.5 0.5,-38.5"/>
<text text-anchor="middle" x="66" y="-45.5" font-family="Helvetica,sans-Serif" font-size="10.00">TriangleGrid.TriangleGrid</text>
</g>
<!-- Node2 -->
<g id="node2" class="node"><title>Node2</title>
<g id="a_node2"><a xlink:href="../../d1/de7/class_triangle_grid.html#a004586bea634fbe566ba5c63e5114f50" target="_top" xlink:title="TriangleGrid.update">
<polygon fill="white" stroke="black" points="168.5,-38.5 168.5,-57.5 277.5,-57.5 277.5,-38.5 168.5,-38.5"/>
<text text-anchor="middle" x="223" y="-45.5" font-family="Helvetica,sans-Serif" font-size="10.00">TriangleGrid.update</text>
</a>
</g>
</g>
<!-- Node1&#45;&gt;Node2 -->
<g id="edge1" class="edge"><title>Node1&#45;&gt;Node2</title>
<path fill="none" stroke="midnightblue" d="M131.836,-48C140.541,-48 149.466,-48 158.154,-48"/>
<polygon fill="midnightblue" stroke="midnightblue" points="158.217,-51.5001 168.217,-48 158.217,-44.5001 158.217,-51.5001"/>
</g>
<!-- Node3 -->
<g id="node3" class="node"><title>Node3</title>
<g id="a_node3"><a xlink:href="../../d1/de7/class_triangle_grid.html#a87d13397aff674fad324547f32fea609" target="_top" xlink:title="TriangleGrid.generateTriangle">
<polygon fill="white" stroke="black" points="314.5,-76.5 314.5,-95.5 469.5,-95.5 469.5,-76.5 314.5,-76.5"/>
<text text-anchor="middle" x="392" y="-83.5" font-family="Helvetica,sans-Serif" font-size="10.00">TriangleGrid.generateTriangle</text>
</a>
</g>
</g>
<!-- Node2&#45;&gt;Node3 -->
<g id="edge2" class="edge"><title>Node2&#45;&gt;Node3</title>
<path fill="none" stroke="midnightblue" d="M266.141,-57.589C288.377,-62.6487 315.848,-68.8996 339.356,-74.2488"/>
<polygon fill="midnightblue" stroke="midnightblue" points="338.635,-77.6739 349.162,-76.4799 340.188,-70.8484 338.635,-77.6739"/>
</g>
<!-- Node4 -->
<g id="node4" class="node"><title>Node4</title>
<g id="a_node4"><a xlink:href="../../d1/de7/class_triangle_grid.html#a9325124627d99d47fbdf8844e547e4b7" target="_top" xlink:title="TriangleGrid.setRed">
<polygon fill="white" stroke="black" points="338.5,-38.5 338.5,-57.5 445.5,-57.5 445.5,-38.5 338.5,-38.5"/>
<text text-anchor="middle" x="392" y="-45.5" font-family="Helvetica,sans-Serif" font-size="10.00">TriangleGrid.setRed</text>
</a>
</g>
</g>
<!-- Node2&#45;&gt;Node4 -->
<g id="edge3" class="edge"><title>Node2&#45;&gt;Node4</title>
<path fill="none" stroke="midnightblue" d="M277.759,-48C293.867,-48 311.674,-48 328.305,-48"/>
<polygon fill="midnightblue" stroke="midnightblue" points="328.482,-51.5001 338.482,-48 328.482,-44.5001 328.482,-51.5001"/>
</g>
<!-- Node5 -->
<g id="node5" class="node"><title>Node5</title>
<g id="a_node5"><a xlink:href="../../d1/de7/class_triangle_grid.html#a6ad8d77ab737d34950c7741545b610cd" target="_top" xlink:title="TriangleGrid.setBack">
<polygon fill="white" stroke="black" points="335.5,-0.5 335.5,-19.5 448.5,-19.5 448.5,-0.5 335.5,-0.5"/>
<text text-anchor="middle" x="392" y="-7.5" font-family="Helvetica,sans-Serif" font-size="10.00">TriangleGrid.setBack</text>
</a>
</g>
</g>
<!-- Node2&#45;&gt;Node5 -->
<g id="edge4" class="edge"><title>Node2&#45;&gt;Node5</title>
<path fill="none" stroke="midnightblue" d="M266.141,-38.411C288.377,-33.3513 315.848,-27.1004 339.356,-21.7512"/>
<polygon fill="midnightblue" stroke="midnightblue" points="340.188,-25.1516 349.162,-19.5201 338.635,-18.3261 340.188,-25.1516"/>
</g>
<!-- Node6 -->
<g id="node6" class="node"><title>Node6</title>
<g id="a_node6"><a xlink:href="../../dd/d11/class_cell.html#a790b7140ab91d2b94677731a56b67b88" target="_top" xlink:title="Cell.getColor">
<polygon fill="white" stroke="black" points="506.5,-0.5 506.5,-19.5 583.5,-19.5 583.5,-0.5 506.5,-0.5"/>
<text text-anchor="middle" x="545" y="-7.5" font-family="Helvetica,sans-Serif" font-size="10.00">Cell.getColor</text>
</a>
</g>
</g>
<!-- Node5&#45;&gt;Node6 -->
<g id="edge5" class="edge"><title>Node5&#45;&gt;Node6</title>
<path fill="none" stroke="midnightblue" d="M448.798,-10C464.361,-10 481.125,-10 496.184,-10"/>
<polygon fill="midnightblue" stroke="midnightblue" points="496.301,-13.5001 506.301,-10 496.301,-6.5001 496.301,-13.5001"/>
</g>
</g>
</svg>
