<?xml version="1.0" encoding="UTF-8" standalone="no"?>
<!DOCTYPE svg PUBLIC "-//W3C//DTD SVG 1.1//EN"
 "http://www.w3.org/Graphics/SVG/1.1/DTD/svg11.dtd">
<!-- Generated by graphviz version 2.36.0 (20140111.2315)
 -->
<!-- Title: CellSociety.setupAnimation Pages: 1 -->
<svg width="960pt" height="192pt"
 viewBox="0.00 0.00 960.00 192.00" xmlns="http://www.w3.org/2000/svg" xmlns:xlink="http://www.w3.org/1999/xlink">
<g id="graph0" class="graph" transform="scale(1 1) rotate(0) translate(4 188)">
<title>CellSociety.setupAnimation</title>
<polygon fill="white" stroke="none" points="-4,4 -4,-188 956,-188 956,4 -4,4"/>
<!-- Node1 -->
<g id="node1" class="node"><title>Node1</title>
<polygon fill="#bfbfbf" stroke="black" points="0,-88.5 0,-107.5 146,-107.5 146,-88.5 0,-88.5"/>
<text text-anchor="middle" x="73" y="-95.5" font-family="Helvetica,sans-Serif" font-size="10.00">CellSociety.setupAnimation</text>
</g>
<!-- Node2 -->
<g id="node2" class="node"><title>Node2</title>
<g id="a_node2"><a xlink:href="../../d3/dff/class_cell_society.html#abf13a64ee79f2cb063447b499c695c58" target="_top" xlink:title="CellSociety.start">
<polygon fill="white" stroke="black" points="182.5,-88.5 182.5,-107.5 275.5,-107.5 275.5,-88.5 182.5,-88.5"/>
<text text-anchor="middle" x="229" y="-95.5" font-family="Helvetica,sans-Serif" font-size="10.00">CellSociety.start</text>
</a>
</g>
</g>
<!-- Node1&#45;&gt;Node2 -->
<g id="edge1" class="edge"><title>Node1&#45;&gt;Node2</title>
<path fill="none" stroke="midnightblue" d="M146.04,-98C154.833,-98 163.713,-98 172.218,-98"/>
<polygon fill="midnightblue" stroke="midnightblue" points="172.376,-101.5 182.376,-98 172.376,-94.5001 172.376,-101.5"/>
</g>
<!-- Node3 -->
<g id="node3" class="node"><title>Node3</title>
<g id="a_node3"><a xlink:href="../../d3/dff/class_cell_society.html#a0ff19c30a1cc433d8ea8444f6a5617f1" target="_top" xlink:title="CellSociety.updateGrid">
<polygon fill="white" stroke="black" points="312,-88.5 312,-107.5 436,-107.5 436,-88.5 312,-88.5"/>
<text text-anchor="middle" x="374" y="-95.5" font-family="Helvetica,sans-Serif" font-size="10.00">CellSociety.updateGrid</text>
</a>
</g>
</g>
<!-- Node2&#45;&gt;Node3 -->
<g id="edge2" class="edge"><title>Node2&#45;&gt;Node3</title>
<path fill="none" stroke="midnightblue" d="M275.639,-98C284.013,-98 292.934,-98 301.847,-98"/>
<polygon fill="midnightblue" stroke="midnightblue" points="301.878,-101.5 311.878,-98 301.878,-94.5001 301.878,-101.5"/>
</g>
<!-- Node4 -->
<g id="node4" class="node"><title>Node4</title>
<g id="a_node4"><a xlink:href="../../d3/dff/class_cell_society.html#a64ebaee33d25e0e730024e67d5582c63" target="_top" xlink:title="CellSociety.updateColors">
<polygon fill="white" stroke="black" points="488,-126.5 488,-145.5 622,-145.5 622,-126.5 488,-126.5"/>
<text text-anchor="middle" x="555" y="-133.5" font-family="Helvetica,sans-Serif" font-size="10.00">CellSociety.updateColors</text>
</a>
</g>
</g>
<!-- Node3&#45;&gt;Node4 -->
<g id="edge3" class="edge"><title>Node3&#45;&gt;Node4</title>
<path fill="none" stroke="midnightblue" d="M420.169,-107.589C444.216,-112.694 473.974,-119.011 499.319,-124.392"/>
<polygon fill="midnightblue" stroke="midnightblue" points="498.647,-127.827 509.156,-126.48 500.1,-120.98 498.647,-127.827"/>
</g>
<!-- Node6 -->
<g id="node6" class="node"><title>Node6</title>
<g id="a_node6"><a xlink:href="../../d2/d95/class_x_m_l_parser.html#ac4e3257aed1deb9fe950149f706fce5b" target="_top" xlink:title="XMLParser.getCellParamList">
<polygon fill="white" stroke="black" points="674.5,-164.5 674.5,-183.5 823.5,-183.5 823.5,-164.5 674.5,-164.5"/>
<text text-anchor="middle" x="749" y="-171.5" font-family="Helvetica,sans-Serif" font-size="10.00">XMLParser.getCellParamList</text>
</a>
</g>
</g>
<!-- Node3&#45;&gt;Node6 -->
<g id="edge11" class="edge"><title>Node3&#45;&gt;Node6</title>
<path fill="none" stroke="midnightblue" d="M386.982,-107.564C404.483,-120.917 438.598,-144.668 472,-155 534.419,-174.309 608.434,-178.462 664.096,-178.114"/>
<polygon fill="midnightblue" stroke="midnightblue" points="664.31,-181.612 674.269,-177.999 664.231,-174.612 664.31,-181.612"/>
</g>
<!-- Node8 -->
<g id="node8" class="node"><title>Node8</title>
<g id="a_node8"><a xlink:href="../../d8/d87/class_controller.html#aa8f10b5f28542d34053a7e4d5f1d6013" target="_top" xlink:title="Controller.runOneSim">
<polygon fill="white" stroke="black" points="495.5,-88.5 495.5,-107.5 614.5,-107.5 614.5,-88.5 495.5,-88.5"/>
<text text-anchor="middle" x="555" y="-95.5" font-family="Helvetica,sans-Serif" font-size="10.00">Controller.runOneSim</text>
</a>
</g>
</g>
<!-- Node3&#45;&gt;Node8 -->
<g id="edge7" class="edge"><title>Node3&#45;&gt;Node8</title>
<path fill="none" stroke="midnightblue" d="M436.101,-98C451.803,-98 468.807,-98 484.883,-98"/>
<polygon fill="midnightblue" stroke="midnightblue" points="485.291,-101.5 495.291,-98 485.291,-94.5001 485.291,-101.5"/>
</g>
<!-- Node9 -->
<g id="node9" class="node"><title>Node9</title>
<g id="a_node9"><a xlink:href="../../df/df8/class_cell_society_view.html#a43ac2666d3a002024be53fe74028a576" target="_top" xlink:title="CellSocietyView.updateSimGrid">
<polygon fill="white" stroke="black" points="472.5,-0.5 472.5,-19.5 637.5,-19.5 637.5,-0.5 472.5,-0.5"/>
<text text-anchor="middle" x="555" y="-7.5" font-family="Helvetica,sans-Serif" font-size="10.00">CellSocietyView.updateSimGrid</text>
</a>
</g>
</g>
<!-- Node3&#45;&gt;Node9 -->
<g id="edge8" class="edge"><title>Node3&#45;&gt;Node9</title>
<path fill="none" stroke="midnightblue" d="M385.474,-88.4003C402.385,-73.4258 437.325,-44.6093 472,-29 477.463,-26.5406 483.28,-24.3816 489.197,-22.4899"/>
<polygon fill="midnightblue" stroke="midnightblue" points="490.594,-25.7274 499.204,-19.5527 488.623,-19.0107 490.594,-25.7274"/>
</g>
<!-- Node12 -->
<g id="node12" class="node"><title>Node12</title>
<g id="a_node12"><a xlink:href="../../df/df8/class_cell_society_view.html#a7ca77bdfdef97e9be9c9941c2f4d3513" target="_top" xlink:title="CellSocietyView.updateChart\lLines">
<polygon fill="white" stroke="black" points="478.5,-39 478.5,-69 631.5,-69 631.5,-39 478.5,-39"/>
<text text-anchor="start" x="486.5" y="-57" font-family="Helvetica,sans-Serif" font-size="10.00">CellSocietyView.updateChart</text>
<text text-anchor="middle" x="555" y="-46" font-family="Helvetica,sans-Serif" font-size="10.00">Lines</text>
</a>
</g>
</g>
<!-- Node3&#45;&gt;Node12 -->
<g id="edge12" class="edge"><title>Node3&#45;&gt;Node12</title>
<path fill="none" stroke="midnightblue" d="M413.84,-88.4527C433.994,-83.4988 459.257,-77.2888 482.764,-71.5105"/>
<polygon fill="midnightblue" stroke="midnightblue" points="483.836,-74.8513 492.711,-69.0654 482.165,-68.0537 483.836,-74.8513"/>
</g>
<!-- Node5 -->
<g id="node5" class="node"><title>Node5</title>
<g id="a_node5"><a xlink:href="../../dd/d11/class_cell.html#a7f8d2520a26a1376a44372149e561f6b" target="_top" xlink:title="Cell.toString">
<polygon fill="white" stroke="black" points="711.5,-66.5 711.5,-85.5 786.5,-85.5 786.5,-66.5 711.5,-66.5"/>
<text text-anchor="middle" x="749" y="-73.5" font-family="Helvetica,sans-Serif" font-size="10.00">Cell.toString</text>
</a>
</g>
</g>
<!-- Node4&#45;&gt;Node5 -->
<g id="edge4" class="edge"><title>Node4&#45;&gt;Node5</title>
<path fill="none" stroke="midnightblue" d="M601.818,-126.484C613.682,-123.72 626.385,-120.494 638,-117 664.571,-109.006 693.993,-97.9184 715.717,-89.2887"/>
<polygon fill="midnightblue" stroke="midnightblue" points="717.141,-92.4885 725.119,-85.5166 714.535,-85.9919 717.141,-92.4885"/>
</g>
<!-- Node4&#45;&gt;Node6 -->
<g id="edge5" class="edge"><title>Node4&#45;&gt;Node6</title>
<path fill="none" stroke="midnightblue" d="M604.45,-145.589C630.471,-150.739 662.728,-157.123 690.069,-162.534"/>
<polygon fill="midnightblue" stroke="midnightblue" points="689.409,-165.972 699.899,-164.48 690.769,-159.105 689.409,-165.972"/>
</g>
<!-- Node7 -->
<g id="node7" class="node"><title>Node7</title>
<g id="a_node7"><a xlink:href="../../dd/d11/class_cell.html#a03cf6177b031a2270a723aa5977b812e" target="_top" xlink:title="Cell.setColor">
<polygon fill="white" stroke="black" points="710.5,-126.5 710.5,-145.5 787.5,-145.5 787.5,-126.5 710.5,-126.5"/>
<text text-anchor="middle" x="749" y="-133.5" font-family="Helvetica,sans-Serif" font-size="10.00">Cell.setColor</text>
</a>
</g>
</g>
<!-- Node4&#45;&gt;Node7 -->
<g id="edge6" class="edge"><title>Node4&#45;&gt;Node7</title>
<path fill="none" stroke="midnightblue" d="M622.076,-136C647.777,-136 676.658,-136 700.272,-136"/>
<polygon fill="midnightblue" stroke="midnightblue" points="700.382,-139.5 710.382,-136 700.382,-132.5 700.382,-139.5"/>
</g>
<!-- Node10 -->
<g id="node10" class="node"><title>Node10</title>
<g id="a_node10"><a xlink:href="../../da/d74/class_grid.html#a35a1ac27af1320c129643842e74a904b" target="_top" xlink:title="Grid.update">
<polygon fill="white" stroke="black" points="712.5,-0.5 712.5,-19.5 785.5,-19.5 785.5,-0.5 712.5,-0.5"/>
<text text-anchor="middle" x="749" y="-7.5" font-family="Helvetica,sans-Serif" font-size="10.00">Grid.update</text>
</a>
</g>
</g>
<!-- Node9&#45;&gt;Node10 -->
<g id="edge9" class="edge"><title>Node9&#45;&gt;Node10</title>
<path fill="none" stroke="midnightblue" d="M637.704,-10C659.852,-10 683.039,-10 702.405,-10"/>
<polygon fill="midnightblue" stroke="midnightblue" points="702.448,-13.5001 712.448,-10 702.448,-6.5001 702.448,-13.5001"/>
</g>
<!-- Node11 -->
<g id="node11" class="node"><title>Node11</title>
<g id="a_node11"><a xlink:href="../../da/d74/class_grid.html#a12ccb8909871030fc2e2839dff169f3a" target="_top" xlink:title="Grid.displayGrid">
<polygon fill="white" stroke="black" points="860,-0.5 860,-19.5 952,-19.5 952,-0.5 860,-0.5"/>
<text text-anchor="middle" x="906" y="-7.5" font-family="Helvetica,sans-Serif" font-size="10.00">Grid.displayGrid</text>
</a>
</g>
</g>
<!-- Node10&#45;&gt;Node11 -->
<g id="edge10" class="edge"><title>Node10&#45;&gt;Node11</title>
<path fill="none" stroke="midnightblue" d="M785.56,-10C804.532,-10 828.302,-10 849.631,-10"/>
<polygon fill="midnightblue" stroke="midnightblue" points="849.874,-13.5001 859.874,-10 849.874,-6.5001 849.874,-13.5001"/>
</g>
<!-- Node12&#45;&gt;Node5 -->
<g id="edge13" class="edge"><title>Node12&#45;&gt;Node5</title>
<path fill="none" stroke="midnightblue" d="M631.608,-62.6634C655.038,-65.3482 680.168,-68.2276 701.059,-70.6213"/>
<polygon fill="midnightblue" stroke="midnightblue" points="700.922,-74.1285 711.256,-71.7897 701.719,-67.174 700.922,-74.1285"/>
</g>
</g>
</svg>
