<?xml version="1.0" encoding="UTF-8" standalone="no"?>
<!DOCTYPE svg PUBLIC "-//W3C//DTD SVG 1.1//EN"
 "http://www.w3.org/Graphics/SVG/1.1/DTD/svg11.dtd">
<!-- Generated by graphviz version 2.36.0 (20140111.2315)
 -->
<!-- Title: CellSociety.readNewXML Pages: 1 -->
<svg width="1142pt" height="626pt"
 viewBox="0.00 0.00 1142.00 626.02" xmlns="http://www.w3.org/2000/svg" xmlns:xlink="http://www.w3.org/1999/xlink">
<g id="graph0" class="graph" transform="scale(1 1) rotate(0) translate(4 622.02)">
<title>CellSociety.readNewXML</title>
<polygon fill="white" stroke="none" points="-4,4 -4,-622.02 1138,-622.02 1138,4 -4,4"/>
<!-- Node1 -->
<g id="node1" class="node"><title>Node1</title>
<polygon fill="#bfbfbf" stroke="black" points="0,-302.938 0,-321.938 132,-321.938 132,-302.938 0,-302.938"/>
<text text-anchor="middle" x="66" y="-309.938" font-family="Helvetica,sans-Serif" font-size="10.00">CellSociety.readNewXML</text>
</g>
<!-- Node2 -->
<g id="node2" class="node"><title>Node2</title>
<g id="a_node2"><a xlink:href="../../d3/dff/class_cell_society.html#a7a6dab68551f91cc4b120faa51670bf8" target="_top" xlink:title="CellSociety.createCellArray">
<polygon fill="white" stroke="black" points="189,-523.938 189,-542.938 333,-542.938 333,-523.938 189,-523.938"/>
<text text-anchor="middle" x="261" y="-530.938" font-family="Helvetica,sans-Serif" font-size="10.00">CellSociety.createCellArray</text>
</a>
</g>
</g>
<!-- Node1&#45;&gt;Node2 -->
<g id="edge1" class="edge"><title>Node1&#45;&gt;Node2</title>
<path fill="none" stroke="midnightblue" d="M68.9823,-322C76.1151,-353.923 103.545,-457.729 168,-509.438 173.277,-513.672 179.222,-517.165 185.487,-520.046"/>
<polygon fill="midnightblue" stroke="midnightblue" points="184.27,-523.329 194.852,-523.844 186.901,-516.843 184.27,-523.329"/>
</g>
<!-- Node4 -->
<g id="node4" class="node"><title>Node4</title>
<g id="a_node4"><a xlink:href="../../d2/d95/class_x_m_l_parser.html#ac4e3257aed1deb9fe950149f706fce5b" target="_top" xlink:title="XMLParser.getCellParamList">
<polygon fill="white" stroke="black" points="790.5,-466.938 790.5,-485.938 939.5,-485.938 939.5,-466.938 790.5,-466.938"/>
<text text-anchor="middle" x="865" y="-473.938" font-family="Helvetica,sans-Serif" font-size="10.00">XMLParser.getCellParamList</text>
</a>
</g>
</g>
<!-- Node1&#45;&gt;Node4 -->
<g id="edge9" class="edge"><title>Node1&#45;&gt;Node4</title>
<path fill="none" stroke="midnightblue" d="M67.6805,-322.124C70.8663,-359.352 87.7587,-494.066 168,-552.438 382.986,-708.832 738.655,-542.517 837.693,-490.756"/>
<polygon fill="midnightblue" stroke="midnightblue" points="839.515,-493.752 846.718,-485.982 836.242,-487.564 839.515,-493.752"/>
</g>
<!-- Node5 -->
<g id="node5" class="node"><title>Node5</title>
<g id="a_node5"><a xlink:href="../../d2/d95/class_x_m_l_parser.html#aea9b535964c91fa3c3d2b1c0b6a334c2" target="_top" xlink:title="XMLParser.getInitParamMap">
<polygon fill="white" stroke="black" points="395.5,-428.938 395.5,-447.938 544.5,-447.938 544.5,-428.938 395.5,-428.938"/>
<text text-anchor="middle" x="470" y="-435.938" font-family="Helvetica,sans-Serif" font-size="10.00">XMLParser.getInitParamMap</text>
</a>
</g>
</g>
<!-- Node1&#45;&gt;Node5 -->
<g id="edge10" class="edge"><title>Node1&#45;&gt;Node5</title>
<path fill="none" stroke="midnightblue" d="M69.4405,-322.243C77.4607,-352.085 106.111,-441.869 168,-476.438 240.171,-516.751 272.751,-491.681 354,-476.438 370.873,-473.273 373.775,-468.048 390,-462.438 401.421,-458.489 413.887,-454.538 425.472,-451.015"/>
<polygon fill="midnightblue" stroke="midnightblue" points="426.806,-454.269 435.376,-448.04 424.792,-447.565 426.806,-454.269"/>
</g>
<!-- Node7 -->
<g id="node7" class="node"><title>Node7</title>
<g id="a_node7"><a xlink:href="../../df/df8/class_cell_society_view.html#a99eb733c00ed7c1bcba8f2d684791a09" target="_top" xlink:title="CellSocietyView.displayFrameRate">
<polygon fill="white" stroke="black" points="172,-447.938 172,-466.938 350,-466.938 350,-447.938 172,-447.938"/>
<text text-anchor="middle" x="261" y="-454.938" font-family="Helvetica,sans-Serif" font-size="10.00">CellSocietyView.displayFrameRate</text>
</a>
</g>
</g>
<!-- Node1&#45;&gt;Node7 -->
<g id="edge6" class="edge"><title>Node1&#45;&gt;Node7</title>
<path fill="none" stroke="midnightblue" d="M71.7713,-322.226C84.0486,-346.295 119.224,-408.575 168,-438.438 171.423,-440.534 175.038,-442.402 178.777,-444.068"/>
<polygon fill="midnightblue" stroke="midnightblue" points="177.698,-447.404 188.285,-447.803 180.257,-440.889 177.698,-447.404"/>
</g>
<!-- Node8 -->
<g id="node8" class="node"><title>Node8</title>
<g id="a_node8"><a xlink:href="../../df/df8/class_cell_society_view.html#a053b6ef6afa80722445223c4e373e51c" target="_top" xlink:title="CellSocietyView.displayXMLChooser">
<polygon fill="white" stroke="black" points="168.5,-409.938 168.5,-428.938 353.5,-428.938 353.5,-409.938 168.5,-409.938"/>
<text text-anchor="middle" x="261" y="-416.938" font-family="Helvetica,sans-Serif" font-size="10.00">CellSocietyView.displayXMLChooser</text>
</a>
</g>
</g>
<!-- Node1&#45;&gt;Node8 -->
<g id="edge7" class="edge"><title>Node1&#45;&gt;Node8</title>
<path fill="none" stroke="midnightblue" d="M75.0773,-322.03C90.9203,-340.179 128.028,-379.506 168,-399.438 173.76,-402.31 179.924,-404.772 186.232,-406.881"/>
<polygon fill="midnightblue" stroke="midnightblue" points="185.641,-410.36 196.226,-409.915 187.674,-403.661 185.641,-410.36"/>
</g>
<!-- Node9 -->
<g id="node9" class="node"><title>Node9</title>
<g id="a_node9"><a xlink:href="../../df/df8/class_cell_society_view.html#a930d889b8619ae93731b8542ce285180" target="_top" xlink:title="CellSocietyView.generate\lChartLines">
<polygon fill="white" stroke="black" points="192.5,-360.438 192.5,-390.438 329.5,-390.438 329.5,-360.438 192.5,-360.438"/>
<text text-anchor="start" x="200.5" y="-378.438" font-family="Helvetica,sans-Serif" font-size="10.00">CellSocietyView.generate</text>
<text text-anchor="middle" x="261" y="-367.438" font-family="Helvetica,sans-Serif" font-size="10.00">ChartLines</text>
</a>
</g>
</g>
<!-- Node1&#45;&gt;Node9 -->
<g id="edge8" class="edge"><title>Node1&#45;&gt;Node9</title>
<path fill="none" stroke="midnightblue" d="M90.4498,-321.982C110.779,-330.081 141.081,-341.738 168,-350.438 175.614,-352.899 183.633,-355.322 191.633,-357.633"/>
<polygon fill="midnightblue" stroke="midnightblue" points="190.777,-361.029 201.352,-360.393 192.688,-354.295 190.777,-361.029"/>
</g>
<!-- Node10 -->
<g id="node10" class="node"><title>Node10</title>
<g id="a_node10"><a xlink:href="../../d2/d95/class_x_m_l_parser.html#a77ee23818c822b69cdf4200eef726a61" target="_top" xlink:title="XMLParser.parseXMLFile">
<polygon fill="white" stroke="black" points="196,-283.938 196,-302.938 326,-302.938 326,-283.938 196,-283.938"/>
<text text-anchor="middle" x="261" y="-290.938" font-family="Helvetica,sans-Serif" font-size="10.00">XMLParser.parseXMLFile</text>
</a>
</g>
</g>
<!-- Node1&#45;&gt;Node10 -->
<g id="edge11" class="edge"><title>Node1&#45;&gt;Node10</title>
<path fill="none" stroke="midnightblue" d="M132.072,-306.032C149.27,-304.339 167.963,-302.499 185.613,-300.761"/>
<polygon fill="midnightblue" stroke="midnightblue" points="186.257,-304.215 195.866,-299.752 185.571,-297.249 186.257,-304.215"/>
</g>
<!-- Node14 -->
<g id="node14" class="node"><title>Node14</title>
<g id="a_node14"><a xlink:href="../../d3/dff/class_cell_society.html#ae565a305ea53e5a37da9816a236b4fbc" target="_top" xlink:title="CellSociety.pauseAnimation">
<polygon fill="white" stroke="black" points="186.5,-245.938 186.5,-264.938 335.5,-264.938 335.5,-245.938 186.5,-245.938"/>
<text text-anchor="middle" x="261" y="-252.938" font-family="Helvetica,sans-Serif" font-size="10.00">CellSociety.pauseAnimation</text>
</a>
</g>
</g>
<!-- Node1&#45;&gt;Node14 -->
<g id="edge15" class="edge"><title>Node1&#45;&gt;Node14</title>
<path fill="none" stroke="midnightblue" d="M89.5216,-302.804C109.767,-294.425 140.466,-282.408 168,-274.438 177.186,-271.779 186.989,-269.342 196.647,-267.164"/>
<polygon fill="midnightblue" stroke="midnightblue" points="197.6,-270.538 206.625,-264.989 196.109,-263.699 197.6,-270.538"/>
</g>
<!-- Node16 -->
<g id="node16" class="node"><title>Node16</title>
<g id="a_node16"><a xlink:href="../../d3/dff/class_cell_society.html#abfbf43ce46b4c82c16a2d933b6a11abf" target="_top" xlink:title="CellSociety.retrieveParserInfo">
<polygon fill="white" stroke="black" points="183.5,-321.938 183.5,-340.938 338.5,-340.938 338.5,-321.938 183.5,-321.938"/>
<text text-anchor="middle" x="261" y="-328.938" font-family="Helvetica,sans-Serif" font-size="10.00">CellSociety.retrieveParserInfo</text>
</a>
</g>
</g>
<!-- Node1&#45;&gt;Node16 -->
<g id="edge17" class="edge"><title>Node1&#45;&gt;Node16</title>
<path fill="none" stroke="midnightblue" d="M132.072,-318.844C145.281,-320.145 159.372,-321.532 173.195,-322.893"/>
<polygon fill="midnightblue" stroke="midnightblue" points="172.901,-326.38 183.196,-323.877 173.587,-319.414 172.901,-326.38"/>
</g>
<!-- Node18 -->
<g id="node18" class="node"><title>Node18</title>
<g id="a_node18"><a xlink:href="../../dd/d11/class_cell.html#a7157b57f4ff263ea68e1ff5fc424176e" target="_top" xlink:title="Cell.setCellSize">
<polygon fill="white" stroke="black" points="216.5,-207.938 216.5,-226.938 305.5,-226.938 305.5,-207.938 216.5,-207.938"/>
<text text-anchor="middle" x="261" y="-214.938" font-family="Helvetica,sans-Serif" font-size="10.00">Cell.setCellSize</text>
</a>
</g>
</g>
<!-- Node1&#45;&gt;Node18 -->
<g id="edge20" class="edge"><title>Node1&#45;&gt;Node18</title>
<path fill="none" stroke="midnightblue" d="M76.6349,-302.796C93.5571,-286.45 130.404,-253.425 168,-236.438 179.845,-231.086 193.231,-227.225 206.051,-224.446"/>
<polygon fill="midnightblue" stroke="midnightblue" points="207.041,-227.817 216.17,-222.44 205.681,-220.951 207.041,-227.817"/>
</g>
<!-- Node19 -->
<g id="node19" class="node"><title>Node19</title>
<g id="a_node19"><a xlink:href="../../df/df8/class_cell_society_view.html#a989874eb178e925124f50d7cabcc184c" target="_top" xlink:title="CellSocietyView.setGridGap">
<polygon fill="white" stroke="black" points="187.5,-169.938 187.5,-188.938 334.5,-188.938 334.5,-169.938 187.5,-169.938"/>
<text text-anchor="middle" x="261" y="-176.938" font-family="Helvetica,sans-Serif" font-size="10.00">CellSocietyView.setGridGap</text>
</a>
</g>
</g>
<!-- Node1&#45;&gt;Node19 -->
<g id="edge21" class="edge"><title>Node1&#45;&gt;Node19</title>
<path fill="none" stroke="midnightblue" d="M72.4155,-302.933C85.6135,-280.705 121.773,-225.197 168,-198.438 171.732,-196.278 175.674,-194.361 179.743,-192.661"/>
<polygon fill="midnightblue" stroke="midnightblue" points="181.268,-195.829 189.43,-189.073 178.837,-189.265 181.268,-195.829"/>
</g>
<!-- Node20 -->
<g id="node20" class="node"><title>Node20</title>
<g id="a_node20"><a xlink:href="../../d3/dff/class_cell_society.html#ab9e56a2a70e210e021b51e898508329b" target="_top" xlink:title="CellSociety.setupAnimation">
<polygon fill="white" stroke="black" points="188,-131.938 188,-150.938 334,-150.938 334,-131.938 188,-131.938"/>
<text text-anchor="middle" x="261" y="-138.938" font-family="Helvetica,sans-Serif" font-size="10.00">CellSociety.setupAnimation</text>
</a>
</g>
</g>
<!-- Node1&#45;&gt;Node20 -->
<g id="edge22" class="edge"><title>Node1&#45;&gt;Node20</title>
<path fill="none" stroke="midnightblue" d="M70.414,-302.697C80.5317,-275.357 113.124,-197.498 168,-160.438 171.326,-158.192 174.863,-156.202 178.539,-154.44"/>
<polygon fill="midnightblue" stroke="midnightblue" points="180.051,-157.601 187.924,-150.512 177.348,-151.144 180.051,-157.601"/>
</g>
<!-- Node27 -->
<g id="node27" class="node"><title>Node27</title>
<g id="a_node27"><a xlink:href="../../df/df8/class_cell_society_view.html#a43ac2666d3a002024be53fe74028a576" target="_top" xlink:title="CellSocietyView.updateSimGrid">
<polygon fill="white" stroke="black" points="782.5,-99.9381 782.5,-118.938 947.5,-118.938 947.5,-99.9381 782.5,-99.9381"/>
<text text-anchor="middle" x="865" y="-106.938" font-family="Helvetica,sans-Serif" font-size="10.00">CellSocietyView.updateSimGrid</text>
</a>
</g>
</g>
<!-- Node1&#45;&gt;Node27 -->
<g id="edge34" class="edge"><title>Node1&#45;&gt;Node27</title>
<path fill="none" stroke="midnightblue" d="M68.6746,-302.611C74.8341,-269.909 99.5457,-164.449 168,-122.438 266.558,-61.9519 606.693,-84.632 772.158,-99.9394"/>
<polygon fill="midnightblue" stroke="midnightblue" points="772.035,-103.443 782.317,-100.89 772.687,-96.4736 772.035,-103.443"/>
</g>
<!-- Node29 -->
<g id="node29" class="node"><title>Node29</title>
<g id="a_node29"><a xlink:href="../../df/df8/class_cell_society_view.html#a7ca77bdfdef97e9be9c9941c2f4d3513" target="_top" xlink:title="CellSocietyView.updateChart\lLines">
<polygon fill="white" stroke="black" points="788.5,-50.4381 788.5,-80.4381 941.5,-80.4381 941.5,-50.4381 788.5,-50.4381"/>
<text text-anchor="start" x="796.5" y="-68.4381" font-family="Helvetica,sans-Serif" font-size="10.00">CellSocietyView.updateChart</text>
<text text-anchor="middle" x="865" y="-57.4381" font-family="Helvetica,sans-Serif" font-size="10.00">Lines</text>
</a>
</g>
</g>
<!-- Node1&#45;&gt;Node29 -->
<g id="edge33" class="edge"><title>Node1&#45;&gt;Node29</title>
<path fill="none" stroke="midnightblue" d="M67.7307,-302.703C71.0737,-265.924 88.3918,-134.832 168,-81.4381 367.861,52.6111 677.856,-12.1786 805.768,-47.5962"/>
<polygon fill="midnightblue" stroke="midnightblue" points="805.179,-51.0664 815.754,-50.4045 807.075,-44.3278 805.179,-51.0664"/>
</g>
<!-- Node3 -->
<g id="node3" class="node"><title>Node3</title>
<g id="a_node3"><a xlink:href="../../d3/dff/class_cell_society.html#a117f1698760a3f6bbe51bd7af16f79bb" target="_top" xlink:title="CellSociety.createCellInstance">
<polygon fill="white" stroke="black" points="390.5,-542.938 390.5,-561.938 549.5,-561.938 549.5,-542.938 390.5,-542.938"/>
<text text-anchor="middle" x="470" y="-549.938" font-family="Helvetica,sans-Serif" font-size="10.00">CellSociety.createCellInstance</text>
</a>
</g>
</g>
<!-- Node2&#45;&gt;Node3 -->
<g id="edge2" class="edge"><title>Node2&#45;&gt;Node3</title>
<path fill="none" stroke="midnightblue" d="M333.238,-539.977C348.299,-541.359 364.374,-542.835 379.999,-544.269"/>
<polygon fill="midnightblue" stroke="midnightblue" points="379.908,-547.775 390.186,-545.204 380.548,-540.805 379.908,-547.775"/>
</g>
<!-- Node2&#45;&gt;Node4 -->
<g id="edge3" class="edge"><title>Node2&#45;&gt;Node4</title>
<path fill="none" stroke="midnightblue" d="M287.544,-523.802C313.068,-514.666 353.639,-501.468 390,-495.438 525.226,-473.015 684.971,-471.717 780.196,-473.554"/>
<polygon fill="midnightblue" stroke="midnightblue" points="780.273,-477.056 790.344,-473.766 780.42,-470.058 780.273,-477.056"/>
</g>
<!-- Node2&#45;&gt;Node5 -->
<g id="edge4" class="edge"><title>Node2&#45;&gt;Node5</title>
<path fill="none" stroke="midnightblue" d="M322.364,-523.814C333.455,-520.386 344.512,-515.739 354,-509.438 375.92,-494.883 368.374,-477.426 390,-462.438 396.379,-458.017 403.592,-454.393 411.003,-451.426"/>
<polygon fill="midnightblue" stroke="midnightblue" points="412.235,-454.703 420.447,-448.009 409.853,-448.12 412.235,-454.703"/>
</g>
<!-- Node6 -->
<g id="node6" class="node"><title>Node6</title>
<g id="a_node6"><a xlink:href="../../d3/dff/class_cell_society.html#a42451b17e2bca5fd025c8d4ea74310ca" target="_top" xlink:title="CellSociety.stringToIntArray">
<polygon fill="white" stroke="black" points="397.5,-504.938 397.5,-523.938 542.5,-523.938 542.5,-504.938 397.5,-504.938"/>
<text text-anchor="middle" x="470" y="-511.938" font-family="Helvetica,sans-Serif" font-size="10.00">CellSociety.stringToIntArray</text>
</a>
</g>
</g>
<!-- Node2&#45;&gt;Node6 -->
<g id="edge5" class="edge"><title>Node2&#45;&gt;Node6</title>
<path fill="none" stroke="midnightblue" d="M333.238,-526.899C350.541,-525.311 369.182,-523.6 386.942,-521.97"/>
<polygon fill="midnightblue" stroke="midnightblue" points="387.642,-525.421 397.28,-521.021 387.002,-518.45 387.642,-525.421"/>
</g>
<!-- Node11 -->
<g id="node11" class="node"><title>Node11</title>
<g id="a_node11"><a xlink:href="../../d2/d95/class_x_m_l_parser.html#ae67767f9678fb650ac38b1321ea9f723" target="_top" xlink:title="XMLParser.parseInitialTags">
<polygon fill="white" stroke="black" points="399.5,-283.938 399.5,-302.938 540.5,-302.938 540.5,-283.938 399.5,-283.938"/>
<text text-anchor="middle" x="470" y="-290.938" font-family="Helvetica,sans-Serif" font-size="10.00">XMLParser.parseInitialTags</text>
</a>
</g>
</g>
<!-- Node10&#45;&gt;Node11 -->
<g id="edge12" class="edge"><title>Node10&#45;&gt;Node11</title>
<path fill="none" stroke="midnightblue" d="M326.078,-293.438C346.078,-293.438 368.387,-293.438 389.321,-293.438"/>
<polygon fill="midnightblue" stroke="midnightblue" points="389.471,-296.938 399.471,-293.438 389.471,-289.938 389.471,-296.938"/>
</g>
<!-- Node12 -->
<g id="node12" class="node"><title>Node12</title>
<g id="a_node12"><a xlink:href="../../d2/d95/class_x_m_l_parser.html#a09c6848239104ae94825c045796dddd0" target="_top" xlink:title="XMLParser.makeParamMap">
<polygon fill="white" stroke="black" points="593,-264.938 593,-283.938 739,-283.938 739,-264.938 593,-264.938"/>
<text text-anchor="middle" x="666" y="-271.938" font-family="Helvetica,sans-Serif" font-size="10.00">XMLParser.makeParamMap</text>
</a>
</g>
</g>
<!-- Node11&#45;&gt;Node12 -->
<g id="edge13" class="edge"><title>Node11&#45;&gt;Node12</title>
<path fill="none" stroke="midnightblue" d="M540.764,-286.606C554.401,-285.27 568.818,-283.858 582.815,-282.487"/>
<polygon fill="midnightblue" stroke="midnightblue" points="583.303,-285.956 592.915,-281.498 582.621,-278.99 583.303,-285.956"/>
</g>
<!-- Node13 -->
<g id="node13" class="node"><title>Node13</title>
<g id="a_node13"><a xlink:href="../../d2/d95/class_x_m_l_parser.html#a5a419f71699eb7d3d76ee238fb262a5f" target="_top" xlink:title="XMLParser.makeCellParamList">
<polygon fill="white" stroke="black" points="586,-302.938 586,-321.938 746,-321.938 746,-302.938 586,-302.938"/>
<text text-anchor="middle" x="666" y="-309.938" font-family="Helvetica,sans-Serif" font-size="10.00">XMLParser.makeCellParamList</text>
</a>
</g>
</g>
<!-- Node11&#45;&gt;Node13 -->
<g id="edge14" class="edge"><title>Node11&#45;&gt;Node13</title>
<path fill="none" stroke="midnightblue" d="M540.764,-300.271C552.107,-301.382 563.99,-302.545 575.721,-303.694"/>
<polygon fill="midnightblue" stroke="midnightblue" points="575.681,-307.207 585.974,-304.698 576.363,-300.24 575.681,-307.207"/>
</g>
<!-- Node15 -->
<g id="node15" class="node"><title>Node15</title>
<g id="a_node15"><a xlink:href="../../df/df8/class_cell_society_view.html#ae83511f9bf3610b0750d41c4aeb0f778" target="_top" xlink:title="CellSocietyView.setButtons\lPause">
<polygon fill="white" stroke="black" points="397,-234.438 397,-264.438 543,-264.438 543,-234.438 397,-234.438"/>
<text text-anchor="start" x="405" y="-252.438" font-family="Helvetica,sans-Serif" font-size="10.00">CellSocietyView.setButtons</text>
<text text-anchor="middle" x="470" y="-241.438" font-family="Helvetica,sans-Serif" font-size="10.00">Pause</text>
</a>
</g>
</g>
<!-- Node14&#45;&gt;Node15 -->
<g id="edge16" class="edge"><title>Node14&#45;&gt;Node15</title>
<path fill="none" stroke="midnightblue" d="M335.563,-253.306C352.019,-252.829 369.58,-252.32 386.375,-251.833"/>
<polygon fill="midnightblue" stroke="midnightblue" points="386.823,-255.322 396.717,-251.533 386.62,-248.325 386.823,-255.322"/>
</g>
<!-- Node16&#45;&gt;Node5 -->
<g id="edge18" class="edge"><title>Node16&#45;&gt;Node5</title>
<path fill="none" stroke="midnightblue" d="M327.019,-341.031C336.292,-343.492 345.544,-346.576 354,-350.438 393.136,-368.311 431.34,-401.615 452.368,-421.731"/>
<polygon fill="midnightblue" stroke="midnightblue" points="449.949,-424.26 459.553,-428.735 454.836,-419.248 449.949,-424.26"/>
</g>
<!-- Node17 -->
<g id="node17" class="node"><title>Node17</title>
<g id="a_node17"><a xlink:href="../../d2/d95/class_x_m_l_parser.html#a0df3a2904766f59d1246cb55416f8146" target="_top" xlink:title="XMLParser.getSimParamMap">
<polygon fill="white" stroke="black" points="393,-321.938 393,-340.938 547,-340.938 547,-321.938 393,-321.938"/>
<text text-anchor="middle" x="470" y="-328.938" font-family="Helvetica,sans-Serif" font-size="10.00">XMLParser.getSimParamMap</text>
</a>
</g>
</g>
<!-- Node16&#45;&gt;Node17 -->
<g id="edge19" class="edge"><title>Node16&#45;&gt;Node17</title>
<path fill="none" stroke="midnightblue" d="M338.785,-331.438C352.951,-331.438 367.833,-331.438 382.268,-331.438"/>
<polygon fill="midnightblue" stroke="midnightblue" points="382.684,-334.938 392.684,-331.438 382.684,-327.938 382.684,-334.938"/>
</g>
<!-- Node21 -->
<g id="node21" class="node"><title>Node21</title>
<g id="a_node21"><a xlink:href="../../d3/dff/class_cell_society.html#abf13a64ee79f2cb063447b499c695c58" target="_top" xlink:title="CellSociety.start">
<polygon fill="white" stroke="black" points="423.5,-131.938 423.5,-150.938 516.5,-150.938 516.5,-131.938 423.5,-131.938"/>
<text text-anchor="middle" x="470" y="-138.938" font-family="Helvetica,sans-Serif" font-size="10.00">CellSociety.start</text>
</a>
</g>
</g>
<!-- Node20&#45;&gt;Node21 -->
<g id="edge23" class="edge"><title>Node20&#45;&gt;Node21</title>
<path fill="none" stroke="midnightblue" d="M334.108,-141.438C360.04,-141.438 388.876,-141.438 413.209,-141.438"/>
<polygon fill="midnightblue" stroke="midnightblue" points="413.34,-144.938 423.34,-141.438 413.34,-137.938 413.34,-144.938"/>
</g>
<!-- Node22 -->
<g id="node22" class="node"><title>Node22</title>
<g id="a_node22"><a xlink:href="../../d3/dff/class_cell_society.html#a0ff19c30a1cc433d8ea8444f6a5617f1" target="_top" xlink:title="CellSociety.updateGrid">
<polygon fill="white" stroke="black" points="604,-131.938 604,-150.938 728,-150.938 728,-131.938 604,-131.938"/>
<text text-anchor="middle" x="666" y="-138.938" font-family="Helvetica,sans-Serif" font-size="10.00">CellSociety.updateGrid</text>
</a>
</g>
</g>
<!-- Node21&#45;&gt;Node22 -->
<g id="edge24" class="edge"><title>Node21&#45;&gt;Node22</title>
<path fill="none" stroke="midnightblue" d="M516.975,-141.438C539.924,-141.438 568.2,-141.438 593.868,-141.438"/>
<polygon fill="midnightblue" stroke="midnightblue" points="593.933,-144.938 603.933,-141.438 593.933,-137.938 593.933,-144.938"/>
</g>
<!-- Node22&#45;&gt;Node4 -->
<g id="edge31" class="edge"><title>Node22&#45;&gt;Node4</title>
<path fill="none" stroke="midnightblue" d="M674.151,-150.946C688.501,-170.196 721.529,-215.364 746,-255.438 790.322,-328.02 835.776,-418.651 854.777,-457.419"/>
<polygon fill="midnightblue" stroke="midnightblue" points="851.687,-459.067 859.217,-466.52 857.978,-455.997 851.687,-459.067"/>
</g>
<!-- Node23 -->
<g id="node23" class="node"><title>Node23</title>
<g id="a_node23"><a xlink:href="../../d6/d6e/class_sim_controller.html#a10145cee2eaceb4ecad9396a825051d1" target="_top" xlink:title="SimController.runOneSim">
<polygon fill="white" stroke="black" points="796,-148.938 796,-167.938 934,-167.938 934,-148.938 796,-148.938"/>
<text text-anchor="middle" x="865" y="-155.938" font-family="Helvetica,sans-Serif" font-size="10.00">SimController.runOneSim</text>
</a>
</g>
</g>
<!-- Node22&#45;&gt;Node23 -->
<g id="edge25" class="edge"><title>Node22&#45;&gt;Node23</title>
<path fill="none" stroke="midnightblue" d="M728.252,-146.724C746.443,-148.294 766.622,-150.035 785.738,-151.685"/>
<polygon fill="midnightblue" stroke="midnightblue" points="785.66,-155.191 795.924,-152.564 786.262,-148.217 785.66,-155.191"/>
</g>
<!-- Node22&#45;&gt;Node27 -->
<g id="edge29" class="edge"><title>Node22&#45;&gt;Node27</title>
<path fill="none" stroke="midnightblue" d="M725.573,-131.924C747.506,-128.361 772.619,-124.282 795.38,-120.585"/>
<polygon fill="midnightblue" stroke="midnightblue" points="796.003,-124.029 805.312,-118.971 794.881,-117.12 796.003,-124.029"/>
</g>
<!-- Node22&#45;&gt;Node29 -->
<g id="edge32" class="edge"><title>Node22&#45;&gt;Node29</title>
<path fill="none" stroke="midnightblue" d="M686.641,-131.849C709.297,-120.996 747.822,-103.173 782,-90.4381 788.278,-88.0989 794.884,-85.8093 801.508,-83.6243"/>
<polygon fill="midnightblue" stroke="midnightblue" points="802.745,-86.9028 811.189,-80.5041 800.598,-80.2402 802.745,-86.9028"/>
</g>
<!-- Node24 -->
<g id="node24" class="node"><title>Node24</title>
<g id="a_node24"><a xlink:href="../../dd/ddd/class_neighbor.html#ac769186595af20512a2ec4754db75640" target="_top" xlink:title="Neighbor.getNeighbors">
<polygon fill="white" stroke="black" points="995.5,-214.938 995.5,-233.938 1122.5,-233.938 1122.5,-214.938 995.5,-214.938"/>
<text text-anchor="middle" x="1059" y="-221.938" font-family="Helvetica,sans-Serif" font-size="10.00">Neighbor.getNeighbors</text>
</a>
</g>
</g>
<!-- Node23&#45;&gt;Node24 -->
<g id="edge26" class="edge"><title>Node23&#45;&gt;Node24</title>
<path fill="none" stroke="midnightblue" d="M888.359,-167.987C911.898,-177.843 950.164,-193.306 984,-204.438 992.178,-207.128 1000.95,-209.736 1009.49,-212.131"/>
<polygon fill="midnightblue" stroke="midnightblue" points="1008.79,-215.569 1019.36,-214.837 1010.64,-208.818 1008.79,-215.569"/>
</g>
<!-- Node25 -->
<g id="node25" class="node"><title>Node25</title>
<g id="a_node25"><a xlink:href="../../d6/d6e/class_sim_controller.html#a1538c5c647988e5d5b6602c8eb1b8949" target="_top" xlink:title="SimController.getNeighbors\lState">
<polygon fill="white" stroke="black" points="984.5,-165.438 984.5,-195.438 1133.5,-195.438 1133.5,-165.438 984.5,-165.438"/>
<text text-anchor="start" x="992.5" y="-183.438" font-family="Helvetica,sans-Serif" font-size="10.00">SimController.getNeighbors</text>
<text text-anchor="middle" x="1059" y="-172.438" font-family="Helvetica,sans-Serif" font-size="10.00">State</text>
</a>
</g>
</g>
<!-- Node23&#45;&gt;Node25 -->
<g id="edge27" class="edge"><title>Node23&#45;&gt;Node25</title>
<path fill="none" stroke="midnightblue" d="M934.233,-166.256C947.202,-167.743 960.912,-169.313 974.297,-170.847"/>
<polygon fill="midnightblue" stroke="midnightblue" points="974.118,-174.35 984.452,-172.011 974.915,-167.395 974.118,-174.35"/>
</g>
<!-- Node26 -->
<g id="node26" class="node"><title>Node26</title>
<g id="a_node26"><a xlink:href="../../d6/d6e/class_sim_controller.html#a6b7a166a6fd312895c8356d24de980e3" target="_top" xlink:title="SimController.newState">
<polygon fill="white" stroke="black" points="994.5,-126.938 994.5,-145.938 1123.5,-145.938 1123.5,-126.938 994.5,-126.938"/>
<text text-anchor="middle" x="1059" y="-133.938" font-family="Helvetica,sans-Serif" font-size="10.00">SimController.newState</text>
</a>
</g>
</g>
<!-- Node23&#45;&gt;Node26 -->
<g id="edge28" class="edge"><title>Node23&#45;&gt;Node26</title>
<path fill="none" stroke="midnightblue" d="M934.233,-150.62C950.478,-148.758 967.884,-146.764 984.36,-144.876"/>
<polygon fill="midnightblue" stroke="midnightblue" points="984.943,-148.332 994.479,-143.717 984.146,-141.378 984.943,-148.332"/>
</g>
<!-- Node28 -->
<g id="node28" class="node"><title>Node28</title>
<g id="a_node28"><a xlink:href="../../dd/d11/class_cell.html#a1e0ece61fecc69a9b7986d17d925434a" target="_top" xlink:title="Cell.getShape">
<polygon fill="white" stroke="black" points="1017.5,-88.9381 1017.5,-107.938 1100.5,-107.938 1100.5,-88.9381 1017.5,-88.9381"/>
<text text-anchor="middle" x="1059" y="-95.9381" font-family="Helvetica,sans-Serif" font-size="10.00">Cell.getShape</text>
</a>
</g>
</g>
<!-- Node27&#45;&gt;Node28 -->
<g id="edge30" class="edge"><title>Node27&#45;&gt;Node28</title>
<path fill="none" stroke="midnightblue" d="M947.704,-104.757C967.933,-103.598 989.029,-102.39 1007.29,-101.343"/>
<polygon fill="midnightblue" stroke="midnightblue" points="1007.62,-104.83 1017.4,-100.764 1007.22,-97.8419 1007.62,-104.83"/>
</g>
</g>
</svg>
