<?xml version="1.0" encoding="UTF-8" standalone="no"?>
<!DOCTYPE svg PUBLIC "-//W3C//DTD SVG 1.1//EN"
 "http://www.w3.org/Graphics/SVG/1.1/DTD/svg11.dtd">
<!-- Generated by graphviz version 2.36.0 (20140111.2315)
 -->
<!-- Title: CellSociety.retrieveParserInfo Pages: 1 -->
<svg width="354pt" height="66pt"
 viewBox="0.00 0.00 354.00 66.00" xmlns="http://www.w3.org/2000/svg" xmlns:xlink="http://www.w3.org/1999/xlink">
<g id="graph0" class="graph" transform="scale(1 1) rotate(0) translate(4 62)">
<title>CellSociety.retrieveParserInfo</title>
<polygon fill="white" stroke="none" points="-4,4 -4,-62 350,-62 350,4 -4,4"/>
<!-- Node1 -->
<g id="node1" class="node"><title>Node1</title>
<polygon fill="#bfbfbf" stroke="black" points="0.5,-19.5 0.5,-38.5 155.5,-38.5 155.5,-19.5 0.5,-19.5"/>
<text text-anchor="middle" x="78" y="-26.5" font-family="Helvetica,sans-Serif" font-size="10.00">CellSociety.retrieveParserInfo</text>
</g>
<!-- Node2 -->
<g id="node2" class="node"><title>Node2</title>
<g id="a_node2"><a xlink:href="../../d2/d95/class_x_m_l_parser.html#aea9b535964c91fa3c3d2b1c0b6a334c2" target="_top" xlink:title="XMLParser.getInitParamMap">
<polygon fill="white" stroke="black" points="194.5,-38.5 194.5,-57.5 343.5,-57.5 343.5,-38.5 194.5,-38.5"/>
<text text-anchor="middle" x="269" y="-45.5" font-family="Helvetica,sans-Serif" font-size="10.00">XMLParser.getInitParamMap</text>
</a>
</g>
</g>
<!-- Node1&#45;&gt;Node2 -->
<g id="edge1" class="edge"><title>Node1&#45;&gt;Node2</title>
<path fill="none" stroke="midnightblue" d="M155.601,-36.7006C164.994,-37.6449 174.632,-38.6138 184.125,-39.5682"/>
<polygon fill="midnightblue" stroke="midnightblue" points="184.051,-43.0782 194.351,-40.5961 184.751,-36.1134 184.051,-43.0782"/>
</g>
<!-- Node3 -->
<g id="node3" class="node"><title>Node3</title>
<g id="a_node3"><a xlink:href="../../d2/d95/class_x_m_l_parser.html#a0df3a2904766f59d1246cb55416f8146" target="_top" xlink:title="XMLParser.getSimParamMap">
<polygon fill="white" stroke="black" points="192,-0.5 192,-19.5 346,-19.5 346,-0.5 192,-0.5"/>
<text text-anchor="middle" x="269" y="-7.5" font-family="Helvetica,sans-Serif" font-size="10.00">XMLParser.getSimParamMap</text>
</a>
</g>
</g>
<!-- Node1&#45;&gt;Node3 -->
<g id="edge2" class="edge"><title>Node1&#45;&gt;Node3</title>
<path fill="none" stroke="midnightblue" d="M155.601,-21.2994C164.206,-20.4343 173.016,-19.5486 181.733,-18.6724"/>
<polygon fill="midnightblue" stroke="midnightblue" points="182.304,-22.1327 191.904,-17.6499 181.604,-15.1678 182.304,-22.1327"/>
</g>
</g>
</svg>
