<?xml version="1.0" encoding="UTF-8" standalone="no"?>
<!DOCTYPE svg PUBLIC "-//W3C//DTD SVG 1.1//EN"
 "http://www.w3.org/Graphics/SVG/1.1/DTD/svg11.dtd">
<!-- Generated by graphviz version 2.36.0 (20140111.2315)
 -->
<!-- Title: CellSociety.setupAnimation Pages: 1 -->
<svg width="960pt" height="192pt"
 viewBox="0.00 0.00 960.00 192.00" xmlns="http://www.w3.org/2000/svg" xmlns:xlink="http://www.w3.org/1999/xlink">
<g id="graph0" class="graph" transform="scale(1 1) rotate(0) translate(4 188)">
<title>CellSociety.setupAnimation</title>
<polygon fill="white" stroke="none" points="-4,4 -4,-188 956,-188 956,4 -4,4"/>
<!-- Node1 -->
<g id="node1" class="node"><title>Node1</title>
<polygon fill="#bfbfbf" stroke="black" points="0,-76.5 0,-95.5 146,-95.5 146,-76.5 0,-76.5"/>
<text text-anchor="middle" x="73" y="-83.5" font-family="Helvetica,sans-Serif" font-size="10.00">CellSociety.setupAnimation</text>
</g>
<!-- Node2 -->
<g id="node2" class="node"><title>Node2</title>
<g id="a_node2"><a xlink:href="../../d3/dff/class_cell_society.html#abf13a64ee79f2cb063447b499c695c58" target="_top" xlink:title="CellSociety.start">
<polygon fill="white" stroke="black" points="182.5,-76.5 182.5,-95.5 275.5,-95.5 275.5,-76.5 182.5,-76.5"/>
<text text-anchor="middle" x="229" y="-83.5" font-family="Helvetica,sans-Serif" font-size="10.00">CellSociety.start</text>
</a>
</g>
</g>
<!-- Node1&#45;&gt;Node2 -->
<g id="edge1" class="edge"><title>Node1&#45;&gt;Node2</title>
<path fill="none" stroke="midnightblue" d="M146.04,-86C154.833,-86 163.713,-86 172.218,-86"/>
<polygon fill="midnightblue" stroke="midnightblue" points="172.376,-89.5001 182.376,-86 172.376,-82.5001 172.376,-89.5001"/>
</g>
<!-- Node3 -->
<g id="node3" class="node"><title>Node3</title>
<g id="a_node3"><a xlink:href="../../d3/dff/class_cell_society.html#a0ff19c30a1cc433d8ea8444f6a5617f1" target="_top" xlink:title="CellSociety.updateGrid">
<polygon fill="white" stroke="black" points="312,-76.5 312,-95.5 436,-95.5 436,-76.5 312,-76.5"/>
<text text-anchor="middle" x="374" y="-83.5" font-family="Helvetica,sans-Serif" font-size="10.00">CellSociety.updateGrid</text>
</a>
</g>
</g>
<!-- Node2&#45;&gt;Node3 -->
<g id="edge2" class="edge"><title>Node2&#45;&gt;Node3</title>
<path fill="none" stroke="midnightblue" d="M275.639,-86C284.013,-86 292.934,-86 301.847,-86"/>
<polygon fill="midnightblue" stroke="midnightblue" points="301.878,-89.5001 311.878,-86 301.878,-82.5001 301.878,-89.5001"/>
</g>
<!-- Node4 -->
<g id="node4" class="node"><title>Node4</title>
<g id="a_node4"><a xlink:href="../../d8/d87/class_controller.html#aa8f10b5f28542d34053a7e4d5f1d6013" target="_top" xlink:title="Controller.runOneSim">
<polygon fill="white" stroke="black" points="495.5,-164.5 495.5,-183.5 614.5,-183.5 614.5,-164.5 495.5,-164.5"/>
<text text-anchor="middle" x="555" y="-171.5" font-family="Helvetica,sans-Serif" font-size="10.00">Controller.runOneSim</text>
</a>
</g>
</g>
<!-- Node3&#45;&gt;Node4 -->
<g id="edge3" class="edge"><title>Node3&#45;&gt;Node4</title>
<path fill="none" stroke="midnightblue" d="M385.801,-95.6464C402.881,-110.395 437.717,-138.471 472,-154 478.515,-156.951 485.527,-159.504 492.61,-161.704"/>
<polygon fill="midnightblue" stroke="midnightblue" points="491.693,-165.082 502.271,-164.487 493.631,-158.355 491.693,-165.082"/>
</g>
<!-- Node5 -->
<g id="node5" class="node"><title>Node5</title>
<g id="a_node5"><a xlink:href="../../d3/dff/class_cell_society.html#a64ebaee33d25e0e730024e67d5582c63" target="_top" xlink:title="CellSociety.updateColors">
<polygon fill="white" stroke="black" points="488,-76.5 488,-95.5 622,-95.5 622,-76.5 488,-76.5"/>
<text text-anchor="middle" x="555" y="-83.5" font-family="Helvetica,sans-Serif" font-size="10.00">CellSociety.updateColors</text>
</a>
</g>
</g>
<!-- Node3&#45;&gt;Node5 -->
<g id="edge4" class="edge"><title>Node3&#45;&gt;Node5</title>
<path fill="none" stroke="midnightblue" d="M436.101,-86C449.548,-86 463.95,-86 477.906,-86"/>
<polygon fill="midnightblue" stroke="midnightblue" points="477.97,-89.5001 487.97,-86 477.97,-82.5001 477.97,-89.5001"/>
</g>
<!-- Node7 -->
<g id="node7" class="node"><title>Node7</title>
<g id="a_node7"><a xlink:href="../../d2/d95/class_x_m_l_parser.html#ac4e3257aed1deb9fe950149f706fce5b" target="_top" xlink:title="XMLParser.getCellParamList">
<polygon fill="white" stroke="black" points="674.5,-57.5 674.5,-76.5 823.5,-76.5 823.5,-57.5 674.5,-57.5"/>
<text text-anchor="middle" x="749" y="-64.5" font-family="Helvetica,sans-Serif" font-size="10.00">XMLParser.getCellParamList</text>
</a>
</g>
</g>
<!-- Node3&#45;&gt;Node7 -->
<g id="edge10" class="edge"><title>Node3&#45;&gt;Node7</title>
<path fill="none" stroke="midnightblue" d="M414.388,-76.4897C431.913,-72.7246 452.87,-68.8559 472,-67 536.317,-60.7602 609.462,-61.0945 664.286,-62.8081"/>
<polygon fill="midnightblue" stroke="midnightblue" points="664.192,-66.3068 674.303,-63.1429 664.426,-59.3107 664.192,-66.3068"/>
</g>
<!-- Node8 -->
<g id="node8" class="node"><title>Node8</title>
<g id="a_node8"><a xlink:href="../../df/df8/class_cell_society_view.html#a43ac2666d3a002024be53fe74028a576" target="_top" xlink:title="CellSocietyView.updateSimGrid">
<polygon fill="white" stroke="black" points="472.5,-0.5 472.5,-19.5 637.5,-19.5 637.5,-0.5 472.5,-0.5"/>
<text text-anchor="middle" x="555" y="-7.5" font-family="Helvetica,sans-Serif" font-size="10.00">CellSocietyView.updateSimGrid</text>
</a>
</g>
</g>
<!-- Node3&#45;&gt;Node8 -->
<g id="edge7" class="edge"><title>Node3&#45;&gt;Node8</title>
<path fill="none" stroke="midnightblue" d="M390.639,-76.3022C409.413,-64.9742 442.114,-46.2295 472,-34 482.724,-29.6116 494.539,-25.6667 505.78,-22.3032"/>
<polygon fill="midnightblue" stroke="midnightblue" points="506.835,-25.6415 515.469,-19.5006 504.89,-18.9172 506.835,-25.6415"/>
</g>
<!-- Node11 -->
<g id="node11" class="node"><title>Node11</title>
<g id="a_node11"><a xlink:href="../../df/df8/class_cell_society_view.html#a7ca77bdfdef97e9be9c9941c2f4d3513" target="_top" xlink:title="CellSocietyView.updateChart\lLines">
<polygon fill="white" stroke="black" points="478.5,-115 478.5,-145 631.5,-145 631.5,-115 478.5,-115"/>
<text text-anchor="start" x="486.5" y="-133" font-family="Helvetica,sans-Serif" font-size="10.00">CellSocietyView.updateChart</text>
<text text-anchor="middle" x="555" y="-122" font-family="Helvetica,sans-Serif" font-size="10.00">Lines</text>
</a>
</g>
</g>
<!-- Node3&#45;&gt;Node11 -->
<g id="edge11" class="edge"><title>Node3&#45;&gt;Node11</title>
<path fill="none" stroke="midnightblue" d="M413.84,-95.5473C433.994,-100.501 459.257,-106.711 482.764,-112.49"/>
<polygon fill="midnightblue" stroke="midnightblue" points="482.165,-115.946 492.711,-114.935 483.836,-109.149 482.165,-115.946"/>
</g>
<!-- Node6 -->
<g id="node6" class="node"><title>Node6</title>
<g id="a_node6"><a xlink:href="../../dd/d11/class_cell.html#a7f8d2520a26a1376a44372149e561f6b" target="_top" xlink:title="Cell.toString">
<polygon fill="white" stroke="black" points="711.5,-95.5 711.5,-114.5 786.5,-114.5 786.5,-95.5 711.5,-95.5"/>
<text text-anchor="middle" x="749" y="-102.5" font-family="Helvetica,sans-Serif" font-size="10.00">Cell.toString</text>
</a>
</g>
</g>
<!-- Node5&#45;&gt;Node6 -->
<g id="edge5" class="edge"><title>Node5&#45;&gt;Node6</title>
<path fill="none" stroke="midnightblue" d="M622.076,-92.5387C648.155,-95.1195 677.508,-98.0243 701.31,-100.38"/>
<polygon fill="midnightblue" stroke="midnightblue" points="701.188,-103.885 711.484,-101.386 701.877,-96.9186 701.188,-103.885"/>
</g>
<!-- Node5&#45;&gt;Node7 -->
<g id="edge6" class="edge"><title>Node5&#45;&gt;Node7</title>
<path fill="none" stroke="midnightblue" d="M622.076,-79.4613C635.605,-78.1224 650.016,-76.6964 664.075,-75.305"/>
<polygon fill="midnightblue" stroke="midnightblue" points="664.627,-78.7677 674.233,-74.2998 663.937,-71.8017 664.627,-78.7677"/>
</g>
<!-- Node9 -->
<g id="node9" class="node"><title>Node9</title>
<g id="a_node9"><a xlink:href="../../da/d74/class_grid.html#a35a1ac27af1320c129643842e74a904b" target="_top" xlink:title="Grid.update">
<polygon fill="white" stroke="black" points="712.5,-0.5 712.5,-19.5 785.5,-19.5 785.5,-0.5 712.5,-0.5"/>
<text text-anchor="middle" x="749" y="-7.5" font-family="Helvetica,sans-Serif" font-size="10.00">Grid.update</text>
</a>
</g>
</g>
<!-- Node8&#45;&gt;Node9 -->
<g id="edge8" class="edge"><title>Node8&#45;&gt;Node9</title>
<path fill="none" stroke="midnightblue" d="M637.704,-10C659.852,-10 683.039,-10 702.405,-10"/>
<polygon fill="midnightblue" stroke="midnightblue" points="702.448,-13.5001 712.448,-10 702.448,-6.5001 702.448,-13.5001"/>
</g>
<!-- Node10 -->
<g id="node10" class="node"><title>Node10</title>
<g id="a_node10"><a xlink:href="../../da/d74/class_grid.html#a12ccb8909871030fc2e2839dff169f3a" target="_top" xlink:title="Grid.displayGrid">
<polygon fill="white" stroke="black" points="860,-0.5 860,-19.5 952,-19.5 952,-0.5 860,-0.5"/>
<text text-anchor="middle" x="906" y="-7.5" font-family="Helvetica,sans-Serif" font-size="10.00">Grid.displayGrid</text>
</a>
</g>
</g>
<!-- Node9&#45;&gt;Node10 -->
<g id="edge9" class="edge"><title>Node9&#45;&gt;Node10</title>
<path fill="none" stroke="midnightblue" d="M785.56,-10C804.532,-10 828.302,-10 849.631,-10"/>
<polygon fill="midnightblue" stroke="midnightblue" points="849.874,-13.5001 859.874,-10 849.874,-6.5001 849.874,-13.5001"/>
</g>
<!-- Node11&#45;&gt;Node6 -->
<g id="edge12" class="edge"><title>Node11&#45;&gt;Node6</title>
<path fill="none" stroke="midnightblue" d="M631.608,-120.155C655.038,-117.104 680.168,-113.832 701.059,-111.112"/>
<polygon fill="midnightblue" stroke="midnightblue" points="701.792,-114.546 711.256,-109.784 700.888,-107.605 701.792,-114.546"/>
</g>
</g>
</svg>
