<?xml version="1.0" encoding="UTF-8" standalone="no"?>
<!DOCTYPE svg PUBLIC "-//W3C//DTD SVG 1.1//EN"
 "http://www.w3.org/Graphics/SVG/1.1/DTD/svg11.dtd">
<!-- Generated by graphviz version 2.36.0 (20140111.2315)
 -->
<!-- Title: CellSociety.createCellInstance Pages: 1 -->
<svg width="1076pt" height="80pt"
 viewBox="0.00 0.00 1076.00 79.86" xmlns="http://www.w3.org/2000/svg" xmlns:xlink="http://www.w3.org/1999/xlink">
<g id="graph0" class="graph" transform="scale(1 1) rotate(0) translate(4 75.8599)">
<title>CellSociety.createCellInstance</title>
<polygon fill="white" stroke="none" points="-4,4 -4,-75.8599 1072,-75.8599 1072,4 -4,4"/>
<!-- Node1 -->
<g id="node1" class="node"><title>Node1</title>
<polygon fill="#bfbfbf" stroke="black" points="0.5,-38.5 0.5,-57.5 159.5,-57.5 159.5,-38.5 0.5,-38.5"/>
<text text-anchor="middle" x="80" y="-45.5" font-family="Helvetica,sans-Serif" font-size="10.00">CellSociety.createCellInstance</text>
</g>
<!-- Node2 -->
<g id="node2" class="node"><title>Node2</title>
<g id="a_node2"><a xlink:href="../../d3/dff/class_cell_society.html#a7a6dab68551f91cc4b120faa51670bf8" target="_top" xlink:title="CellSociety.createCellArray">
<polygon fill="white" stroke="black" points="402,-38.5 402,-57.5 546,-57.5 546,-38.5 402,-38.5"/>
<text text-anchor="middle" x="474" y="-45.5" font-family="Helvetica,sans-Serif" font-size="10.00">CellSociety.createCellArray</text>
</a>
</g>
</g>
<!-- Node1&#45;&gt;Node2 -->
<g id="edge1" class="edge"><title>Node1&#45;&gt;Node2</title>
<path fill="none" stroke="midnightblue" d="M137.802,-59.2772C156.283,-62.4379 176.941,-65.4362 196,-67 271.302,-73.1788 290.736,-73.6305 366,-67 387.049,-65.1456 410.161,-61.2771 429.502,-57.5118"/>
<polygon fill="midnightblue" stroke="midnightblue" points="138.239,-55.8004 127.784,-57.5127 137.025,-62.6943 138.239,-55.8004"/>
</g>
<!-- Node6 -->
<g id="node6" class="node"><title>Node6</title>
<g id="a_node6"><a xlink:href="../../d3/dff/class_cell_society.html#a5c0b747b2fbaaa317266890c48e0267f" target="_top" xlink:title="CellSociety.populateLocations">
<polygon fill="white" stroke="black" points="202,-38.5 202,-57.5 360,-57.5 360,-38.5 202,-38.5"/>
<text text-anchor="middle" x="281" y="-45.5" font-family="Helvetica,sans-Serif" font-size="10.00">CellSociety.populateLocations</text>
</a>
</g>
</g>
<!-- Node1&#45;&gt;Node6 -->
<g id="edge5" class="edge"><title>Node1&#45;&gt;Node6</title>
<path fill="none" stroke="midnightblue" d="M169.837,-48C180.533,-48 191.395,-48 201.921,-48"/>
<polygon fill="midnightblue" stroke="midnightblue" points="169.65,-44.5001 159.65,-48 169.65,-51.5001 169.65,-44.5001"/>
</g>
<!-- Node7 -->
<g id="node7" class="node"><title>Node7</title>
<g id="a_node7"><a xlink:href="../../d3/dff/class_cell_society.html#a276d7f4c12da9d40e8720f762b47592a" target="_top" xlink:title="CellSociety.populateProbabilities">
<polygon fill="white" stroke="black" points="196,-0.5 196,-19.5 366,-19.5 366,-0.5 196,-0.5"/>
<text text-anchor="middle" x="281" y="-7.5" font-family="Helvetica,sans-Serif" font-size="10.00">CellSociety.populateProbabilities</text>
</a>
</g>
</g>
<!-- Node1&#45;&gt;Node7 -->
<g id="edge7" class="edge"><title>Node1&#45;&gt;Node7</title>
<path fill="none" stroke="midnightblue" d="M140.795,-36.5819C169.268,-31.1448 202.931,-24.7168 230.02,-19.5439"/>
<polygon fill="midnightblue" stroke="midnightblue" points="140.125,-33.1464 130.959,-38.46 141.438,-40.0222 140.125,-33.1464"/>
</g>
<!-- Node3 -->
<g id="node3" class="node"><title>Node3</title>
<g id="a_node3"><a xlink:href="../../d3/dff/class_cell_society.html#af9f22af39a97a58b26126020ca6c8844" target="_top" xlink:title="CellSociety.readNewXML">
<polygon fill="white" stroke="black" points="582,-38.5 582,-57.5 714,-57.5 714,-38.5 582,-38.5"/>
<text text-anchor="middle" x="648" y="-45.5" font-family="Helvetica,sans-Serif" font-size="10.00">CellSociety.readNewXML</text>
</a>
</g>
</g>
<!-- Node2&#45;&gt;Node3 -->
<g id="edge2" class="edge"><title>Node2&#45;&gt;Node3</title>
<path fill="none" stroke="midnightblue" d="M556.686,-48C565.118,-48 573.606,-48 581.824,-48"/>
<polygon fill="midnightblue" stroke="midnightblue" points="556.449,-44.5001 546.449,-48 556.449,-51.5001 556.449,-44.5001"/>
</g>
<!-- Node4 -->
<g id="node4" class="node"><title>Node4</title>
<g id="a_node4"><a xlink:href="../../d3/dff/class_cell_society.html#a656ff46d1459fb7f86b42e3c542506ee" target="_top" xlink:title="CellSociety.configureListeners">
<polygon fill="white" stroke="black" points="750,-38.5 750,-57.5 908,-57.5 908,-38.5 750,-38.5"/>
<text text-anchor="middle" x="829" y="-45.5" font-family="Helvetica,sans-Serif" font-size="10.00">CellSociety.configureListeners</text>
</a>
</g>
</g>
<!-- Node3&#45;&gt;Node4 -->
<g id="edge3" class="edge"><title>Node3&#45;&gt;Node4</title>
<path fill="none" stroke="midnightblue" d="M724.312,-48C732.748,-48 741.355,-48 749.826,-48"/>
<polygon fill="midnightblue" stroke="midnightblue" points="724.13,-44.5001 714.129,-48 724.129,-51.5001 724.13,-44.5001"/>
</g>
<!-- Node5 -->
<g id="node5" class="node"><title>Node5</title>
<g id="a_node5"><a xlink:href="../../d3/dff/class_cell_society.html#ac5e08680a3da358d402461bc25aa1727" target="_top" xlink:title="CellSociety.CellSociety">
<polygon fill="white" stroke="black" points="944.5,-38.5 944.5,-57.5 1067.5,-57.5 1067.5,-38.5 944.5,-38.5"/>
<text text-anchor="middle" x="1006" y="-45.5" font-family="Helvetica,sans-Serif" font-size="10.00">CellSociety.CellSociety</text>
</a>
</g>
</g>
<!-- Node4&#45;&gt;Node5 -->
<g id="edge4" class="edge"><title>Node4&#45;&gt;Node5</title>
<path fill="none" stroke="midnightblue" d="M918.087,-48C927.007,-48 935.919,-48 944.452,-48"/>
<polygon fill="midnightblue" stroke="midnightblue" points="918.032,-44.5001 908.032,-48 918.032,-51.5001 918.032,-44.5001"/>
</g>
<!-- Node6&#45;&gt;Node2 -->
<g id="edge6" class="edge"><title>Node6&#45;&gt;Node2</title>
<path fill="none" stroke="midnightblue" d="M370.339,-48C380.929,-48 391.638,-48 401.94,-48"/>
<polygon fill="midnightblue" stroke="midnightblue" points="370.238,-44.5001 360.238,-48 370.238,-51.5001 370.238,-44.5001"/>
</g>
<!-- Node7&#45;&gt;Node2 -->
<g id="edge8" class="edge"><title>Node7&#45;&gt;Node2</title>
<path fill="none" stroke="midnightblue" d="M340.353,-21.6095C367.518,-27.014 399.432,-33.3635 425.149,-38.4799"/>
<polygon fill="midnightblue" stroke="midnightblue" points="340.688,-18.1076 330.197,-19.589 339.322,-24.9731 340.688,-18.1076"/>
</g>
</g>
</svg>
