<?xml version="1.0" encoding="UTF-8" standalone="no"?>
<!DOCTYPE svg PUBLIC "-//W3C//DTD SVG 1.1//EN"
 "http://www.w3.org/Graphics/SVG/1.1/DTD/svg11.dtd">
<!-- Generated by graphviz version 2.36.0 (20140111.2315)
 -->
<!-- Title: CellSociety.increaseFrameRate Pages: 1 -->
<svg width="1054pt" height="153pt"
 viewBox="0.00 0.00 1054.00 153.00" xmlns="http://www.w3.org/2000/svg" xmlns:xlink="http://www.w3.org/1999/xlink">
<g id="graph0" class="graph" transform="scale(1 1) rotate(0) translate(4 149)">
<title>CellSociety.increaseFrameRate</title>
<polygon fill="white" stroke="none" points="-4,4 -4,-149 1050,-149 1050,4 -4,4"/>
<!-- Node1 -->
<g id="node1" class="node"><title>Node1</title>
<polygon fill="#bfbfbf" stroke="black" points="0.5,-87.5 0.5,-106.5 163.5,-106.5 163.5,-87.5 0.5,-87.5"/>
<text text-anchor="middle" x="82" y="-94.5" font-family="Helvetica,sans-Serif" font-size="10.00">CellSociety.increaseFrameRate</text>
</g>
<!-- Node2 -->
<g id="node2" class="node"><title>Node2</title>
<g id="a_node2"><a xlink:href="../../d3/dff/class_cell_society.html#adc5feda3db5472cea4e092d463681033" target="_top" xlink:title="CellSociety.reframeTimeline">
<polygon fill="white" stroke="black" points="200.5,-87.5 200.5,-106.5 349.5,-106.5 349.5,-87.5 200.5,-87.5"/>
<text text-anchor="middle" x="275" y="-94.5" font-family="Helvetica,sans-Serif" font-size="10.00">CellSociety.reframeTimeline</text>
</a>
</g>
</g>
<!-- Node1&#45;&gt;Node2 -->
<g id="edge1" class="edge"><title>Node1&#45;&gt;Node2</title>
<path fill="none" stroke="midnightblue" d="M163.724,-97C172.433,-97 181.309,-97 190.054,-97"/>
<polygon fill="midnightblue" stroke="midnightblue" points="190.241,-100.5 200.241,-97 190.241,-93.5001 190.241,-100.5"/>
</g>
<!-- Node3 -->
<g id="node3" class="node"><title>Node3</title>
<g id="a_node3"><a xlink:href="../../df/df8/class_cell_society_view.html#a99eb733c00ed7c1bcba8f2d684791a09" target="_top" xlink:title="CellSocietyView.displayFrameRate">
<polygon fill="white" stroke="black" points="386,-106.5 386,-125.5 564,-125.5 564,-106.5 386,-106.5"/>
<text text-anchor="middle" x="475" y="-113.5" font-family="Helvetica,sans-Serif" font-size="10.00">CellSocietyView.displayFrameRate</text>
</a>
</g>
</g>
<!-- Node2&#45;&gt;Node3 -->
<g id="edge2" class="edge"><title>Node2&#45;&gt;Node3</title>
<path fill="none" stroke="midnightblue" d="M349.728,-104.075C358.184,-104.886 366.903,-105.723 375.616,-106.559"/>
<polygon fill="midnightblue" stroke="midnightblue" points="375.537,-110.068 385.825,-107.539 376.206,-103.1 375.537,-110.068"/>
</g>
<!-- Node4 -->
<g id="node4" class="node"><title>Node4</title>
<g id="a_node4"><a xlink:href="../../d3/dff/class_cell_society.html#abf13a64ee79f2cb063447b499c695c58" target="_top" xlink:title="CellSociety.start">
<polygon fill="white" stroke="black" points="428.5,-68.5 428.5,-87.5 521.5,-87.5 521.5,-68.5 428.5,-68.5"/>
<text text-anchor="middle" x="475" y="-75.5" font-family="Helvetica,sans-Serif" font-size="10.00">CellSociety.start</text>
</a>
</g>
</g>
<!-- Node2&#45;&gt;Node4 -->
<g id="edge3" class="edge"><title>Node2&#45;&gt;Node4</title>
<path fill="none" stroke="midnightblue" d="M349.728,-89.9251C372.405,-87.749 396.978,-85.391 418.24,-83.3507"/>
<polygon fill="midnightblue" stroke="midnightblue" points="418.768,-86.8162 428.388,-82.3769 418.1,-79.8482 418.768,-86.8162"/>
</g>
<!-- Node5 -->
<g id="node5" class="node"><title>Node5</title>
<g id="a_node5"><a xlink:href="../../d3/dff/class_cell_society.html#a0ff19c30a1cc433d8ea8444f6a5617f1" target="_top" xlink:title="CellSociety.updateGrid">
<polygon fill="white" stroke="black" points="600,-68.5 600,-87.5 724,-87.5 724,-68.5 600,-68.5"/>
<text text-anchor="middle" x="662" y="-75.5" font-family="Helvetica,sans-Serif" font-size="10.00">CellSociety.updateGrid</text>
</a>
</g>
</g>
<!-- Node4&#45;&gt;Node5 -->
<g id="edge4" class="edge"><title>Node4&#45;&gt;Node5</title>
<path fill="none" stroke="midnightblue" d="M521.73,-78C542.236,-78 566.903,-78 589.743,-78"/>
<polygon fill="midnightblue" stroke="midnightblue" points="589.743,-81.5001 599.743,-78 589.743,-74.5001 589.743,-81.5001"/>
</g>
<!-- Node6 -->
<g id="node6" class="node"><title>Node6</title>
<g id="a_node6"><a xlink:href="../../d8/d87/class_controller.html#aa8f10b5f28542d34053a7e4d5f1d6013" target="_top" xlink:title="Controller.runOneSim">
<polygon fill="white" stroke="black" points="783.5,-125.5 783.5,-144.5 902.5,-144.5 902.5,-125.5 783.5,-125.5"/>
<text text-anchor="middle" x="843" y="-132.5" font-family="Helvetica,sans-Serif" font-size="10.00">Controller.runOneSim</text>
</a>
</g>
</g>
<!-- Node5&#45;&gt;Node6 -->
<g id="edge5" class="edge"><title>Node5&#45;&gt;Node6</title>
<path fill="none" stroke="midnightblue" d="M684.635,-87.5261C704.083,-95.8348 733.568,-107.808 760,-116 768.126,-118.519 776.797,-120.874 785.345,-123.011"/>
<polygon fill="midnightblue" stroke="midnightblue" points="784.74,-126.465 795.283,-125.415 786.386,-119.662 784.74,-126.465"/>
</g>
<!-- Node7 -->
<g id="node7" class="node"><title>Node7</title>
<g id="a_node7"><a xlink:href="../../df/df8/class_cell_society_view.html#a43ac2666d3a002024be53fe74028a576" target="_top" xlink:title="CellSocietyView.updateSimGrid">
<polygon fill="white" stroke="black" points="760.5,-87.5 760.5,-106.5 925.5,-106.5 925.5,-87.5 760.5,-87.5"/>
<text text-anchor="middle" x="843" y="-94.5" font-family="Helvetica,sans-Serif" font-size="10.00">CellSocietyView.updateSimGrid</text>
</a>
</g>
</g>
<!-- Node5&#45;&gt;Node7 -->
<g id="edge6" class="edge"><title>Node5&#45;&gt;Node7</title>
<path fill="none" stroke="midnightblue" d="M724.101,-84.4856C732.563,-85.3838 741.404,-86.3222 750.273,-87.2636"/>
<polygon fill="midnightblue" stroke="midnightblue" points="749.967,-90.7507 760.281,-88.3259 750.706,-83.7898 749.967,-90.7507"/>
</g>
<!-- Node9 -->
<g id="node9" class="node"><title>Node9</title>
<g id="a_node9"><a xlink:href="../../d2/d95/class_x_m_l_parser.html#ac4e3257aed1deb9fe950149f706fce5b" target="_top" xlink:title="XMLParser.getCellParamList">
<polygon fill="white" stroke="black" points="768.5,-49.5 768.5,-68.5 917.5,-68.5 917.5,-49.5 768.5,-49.5"/>
<text text-anchor="middle" x="843" y="-56.5" font-family="Helvetica,sans-Serif" font-size="10.00">XMLParser.getCellParamList</text>
</a>
</g>
</g>
<!-- Node5&#45;&gt;Node9 -->
<g id="edge8" class="edge"><title>Node5&#45;&gt;Node9</title>
<path fill="none" stroke="midnightblue" d="M724.101,-71.5144C735.146,-70.342 746.835,-69.1013 758.392,-67.8746"/>
<polygon fill="midnightblue" stroke="midnightblue" points="758.92,-71.3383 768.495,-66.8022 758.181,-64.3774 758.92,-71.3383"/>
</g>
<!-- Node10 -->
<g id="node10" class="node"><title>Node10</title>
<g id="a_node10"><a xlink:href="../../df/df8/class_cell_society_view.html#a7ca77bdfdef97e9be9c9941c2f4d3513" target="_top" xlink:title="CellSocietyView.updateChart\lLines">
<polygon fill="white" stroke="black" points="766.5,-0 766.5,-30 919.5,-30 919.5,-0 766.5,-0"/>
<text text-anchor="start" x="774.5" y="-18" font-family="Helvetica,sans-Serif" font-size="10.00">CellSocietyView.updateChart</text>
<text text-anchor="middle" x="843" y="-7" font-family="Helvetica,sans-Serif" font-size="10.00">Lines</text>
</a>
</g>
</g>
<!-- Node5&#45;&gt;Node10 -->
<g id="edge9" class="edge"><title>Node5&#45;&gt;Node10</title>
<path fill="none" stroke="midnightblue" d="M685.939,-68.4332C705.477,-60.4252 734.375,-48.9104 760,-40 766.517,-37.7339 773.363,-35.4686 780.204,-33.2783"/>
<polygon fill="midnightblue" stroke="midnightblue" points="781.702,-36.4762 790.187,-30.1314 779.597,-29.8 781.702,-36.4762"/>
</g>
<!-- Node8 -->
<g id="node8" class="node"><title>Node8</title>
<g id="a_node8"><a xlink:href="../../dd/d11/class_cell.html#a1e0ece61fecc69a9b7986d17d925434a" target="_top" xlink:title="Cell.getShape">
<polygon fill="white" stroke="black" points="962.5,-87.5 962.5,-106.5 1045.5,-106.5 1045.5,-87.5 962.5,-87.5"/>
<text text-anchor="middle" x="1004" y="-94.5" font-family="Helvetica,sans-Serif" font-size="10.00">Cell.getShape</text>
</a>
</g>
</g>
<!-- Node7&#45;&gt;Node8 -->
<g id="edge7" class="edge"><title>Node7&#45;&gt;Node8</title>
<path fill="none" stroke="midnightblue" d="M925.829,-97C934.809,-97 943.749,-97 952.191,-97"/>
<polygon fill="midnightblue" stroke="midnightblue" points="952.21,-100.5 962.21,-97 952.21,-93.5001 952.21,-100.5"/>
</g>
</g>
</svg>
