<?xml version="1.0" encoding="UTF-8" standalone="no"?>
<!DOCTYPE svg PUBLIC "-//W3C//DTD SVG 1.1//EN"
 "http://www.w3.org/Graphics/SVG/1.1/DTD/svg11.dtd">
<!-- Generated by graphviz version 2.36.0 (20140111.2315)
 -->
<!-- Title: CellSociety.updateGrid Pages: 1 -->
<svg width="520pt" height="174pt"
 viewBox="0.00 0.00 520.00 174.17" xmlns="http://www.w3.org/2000/svg" xmlns:xlink="http://www.w3.org/1999/xlink">
<g id="graph0" class="graph" transform="scale(1 1) rotate(0) translate(4 170.171)">
<title>CellSociety.updateGrid</title>
<polygon fill="white" stroke="none" points="-4,4 -4,-170.171 516,-170.171 516,4 -4,4"/>
<!-- Node1 -->
<g id="node1" class="node"><title>Node1</title>
<polygon fill="#bfbfbf" stroke="black" points="0,-88.5 0,-107.5 124,-107.5 124,-88.5 0,-88.5"/>
<text text-anchor="middle" x="62" y="-95.5" font-family="Helvetica,sans-Serif" font-size="10.00">CellSociety.updateGrid</text>
</g>
<!-- Node2 -->
<g id="node2" class="node"><title>Node2</title>
<g id="a_node2"><a xlink:href="../../d2/d95/class_x_m_l_parser.html#ac4e3257aed1deb9fe950149f706fce5b" target="_top" xlink:title="XMLParser.getCellParamList">
<polygon fill="white" stroke="black" points="362.5,-126.5 362.5,-145.5 511.5,-145.5 511.5,-126.5 362.5,-126.5"/>
<text text-anchor="middle" x="437" y="-133.5" font-family="Helvetica,sans-Serif" font-size="10.00">XMLParser.getCellParamList</text>
</a>
</g>
</g>
<!-- Node1&#45;&gt;Node2 -->
<g id="edge1" class="edge"><title>Node1&#45;&gt;Node2</title>
<path fill="none" stroke="midnightblue" d="M74.6012,-107.648C91.9014,-121.34 126.074,-145.77 160,-155 239.406,-176.604 336.153,-160.779 391.46,-147.949"/>
<polygon fill="midnightblue" stroke="midnightblue" points="392.379,-151.327 401.291,-145.597 390.751,-144.519 392.379,-151.327"/>
</g>
<!-- Node3 -->
<g id="node3" class="node"><title>Node3</title>
<g id="a_node3"><a xlink:href="../../d8/d87/class_controller.html#aa8f10b5f28542d34053a7e4d5f1d6013" target="_top" xlink:title="Controller.runOneSim">
<polygon fill="white" stroke="black" points="183.5,-126.5 183.5,-145.5 302.5,-145.5 302.5,-126.5 183.5,-126.5"/>
<text text-anchor="middle" x="243" y="-133.5" font-family="Helvetica,sans-Serif" font-size="10.00">Controller.runOneSim</text>
</a>
</g>
</g>
<!-- Node1&#45;&gt;Node3 -->
<g id="edge2" class="edge"><title>Node1&#45;&gt;Node3</title>
<path fill="none" stroke="midnightblue" d="M108.169,-107.589C132.216,-112.694 161.974,-119.011 187.319,-124.392"/>
<polygon fill="midnightblue" stroke="midnightblue" points="186.647,-127.827 197.156,-126.48 188.1,-120.98 186.647,-127.827"/>
</g>
<!-- Node4 -->
<g id="node4" class="node"><title>Node4</title>
<g id="a_node4"><a xlink:href="../../df/df8/class_cell_society_view.html#a7ca77bdfdef97e9be9c9941c2f4d3513" target="_top" xlink:title="CellSocietyView.updateChart\lLines">
<polygon fill="white" stroke="black" points="166.5,-39 166.5,-69 319.5,-69 319.5,-39 166.5,-39"/>
<text text-anchor="start" x="174.5" y="-57" font-family="Helvetica,sans-Serif" font-size="10.00">CellSocietyView.updateChart</text>
<text text-anchor="middle" x="243" y="-46" font-family="Helvetica,sans-Serif" font-size="10.00">Lines</text>
</a>
</g>
</g>
<!-- Node1&#45;&gt;Node4 -->
<g id="edge3" class="edge"><title>Node1&#45;&gt;Node4</title>
<path fill="none" stroke="midnightblue" d="M101.84,-88.4527C121.994,-83.4988 147.257,-77.2888 170.764,-71.5105"/>
<polygon fill="midnightblue" stroke="midnightblue" points="171.836,-74.8513 180.711,-69.0654 170.165,-68.0537 171.836,-74.8513"/>
</g>
<!-- Node6 -->
<g id="node6" class="node"><title>Node6</title>
<g id="a_node6"><a xlink:href="../../d3/dff/class_cell_society.html#a64ebaee33d25e0e730024e67d5582c63" target="_top" xlink:title="CellSociety.updateColors">
<polygon fill="white" stroke="black" points="176,-88.5 176,-107.5 310,-107.5 310,-88.5 176,-88.5"/>
<text text-anchor="middle" x="243" y="-95.5" font-family="Helvetica,sans-Serif" font-size="10.00">CellSociety.updateColors</text>
</a>
</g>
</g>
<!-- Node1&#45;&gt;Node6 -->
<g id="edge5" class="edge"><title>Node1&#45;&gt;Node6</title>
<path fill="none" stroke="midnightblue" d="M124.101,-98C137.548,-98 151.95,-98 165.906,-98"/>
<polygon fill="midnightblue" stroke="midnightblue" points="165.97,-101.5 175.97,-98 165.97,-94.5001 165.97,-101.5"/>
</g>
<!-- Node7 -->
<g id="node7" class="node"><title>Node7</title>
<g id="a_node7"><a xlink:href="../../df/df8/class_cell_society_view.html#a43ac2666d3a002024be53fe74028a576" target="_top" xlink:title="CellSocietyView.updateSimGrid">
<polygon fill="white" stroke="black" points="160.5,-0.5 160.5,-19.5 325.5,-19.5 325.5,-0.5 160.5,-0.5"/>
<text text-anchor="middle" x="243" y="-7.5" font-family="Helvetica,sans-Serif" font-size="10.00">CellSocietyView.updateSimGrid</text>
</a>
</g>
</g>
<!-- Node1&#45;&gt;Node7 -->
<g id="edge8" class="edge"><title>Node1&#45;&gt;Node7</title>
<path fill="none" stroke="midnightblue" d="M73.4741,-88.4003C90.3852,-73.4258 125.325,-44.6093 160,-29 165.463,-26.5406 171.28,-24.3816 177.197,-22.4899"/>
<polygon fill="midnightblue" stroke="midnightblue" points="178.594,-25.7274 187.204,-19.5527 176.623,-19.0107 178.594,-25.7274"/>
</g>
<!-- Node5 -->
<g id="node5" class="node"><title>Node5</title>
<g id="a_node5"><a xlink:href="../../dd/d11/class_cell.html#a7f8d2520a26a1376a44372149e561f6b" target="_top" xlink:title="Cell.toString">
<polygon fill="white" stroke="black" points="399.5,-66.5 399.5,-85.5 474.5,-85.5 474.5,-66.5 399.5,-66.5"/>
<text text-anchor="middle" x="437" y="-73.5" font-family="Helvetica,sans-Serif" font-size="10.00">Cell.toString</text>
</a>
</g>
</g>
<!-- Node4&#45;&gt;Node5 -->
<g id="edge4" class="edge"><title>Node4&#45;&gt;Node5</title>
<path fill="none" stroke="midnightblue" d="M319.608,-62.6634C343.038,-65.3482 368.168,-68.2276 389.059,-70.6213"/>
<polygon fill="midnightblue" stroke="midnightblue" points="388.922,-74.1285 399.256,-71.7897 389.719,-67.174 388.922,-74.1285"/>
</g>
<!-- Node6&#45;&gt;Node2 -->
<g id="edge6" class="edge"><title>Node6&#45;&gt;Node2</title>
<path fill="none" stroke="midnightblue" d="M292.45,-107.589C318.471,-112.739 350.728,-119.123 378.069,-124.534"/>
<polygon fill="midnightblue" stroke="midnightblue" points="377.409,-127.972 387.899,-126.48 378.769,-121.105 377.409,-127.972"/>
</g>
<!-- Node6&#45;&gt;Node5 -->
<g id="edge7" class="edge"><title>Node6&#45;&gt;Node5</title>
<path fill="none" stroke="midnightblue" d="M310.076,-90.4288C336.155,-87.4406 365.508,-84.0772 389.31,-81.3499"/>
<polygon fill="midnightblue" stroke="midnightblue" points="389.947,-84.7999 399.484,-80.1841 389.15,-77.8454 389.947,-84.7999"/>
</g>
<!-- Node8 -->
<g id="node8" class="node"><title>Node8</title>
<g id="a_node8"><a xlink:href="../../dd/d11/class_cell.html#adcdc17232ec0cff0752168e9846c39a8" target="_top" xlink:title="Cell.getShape">
<polygon fill="white" stroke="black" points="395.5,-0.5 395.5,-19.5 478.5,-19.5 478.5,-0.5 395.5,-0.5"/>
<text text-anchor="middle" x="437" y="-7.5" font-family="Helvetica,sans-Serif" font-size="10.00">Cell.getShape</text>
</a>
</g>
</g>
<!-- Node7&#45;&gt;Node8 -->
<g id="edge9" class="edge"><title>Node7&#45;&gt;Node8</title>
<path fill="none" stroke="midnightblue" d="M325.704,-10C345.933,-10 367.029,-10 385.29,-10"/>
<polygon fill="midnightblue" stroke="midnightblue" points="385.401,-13.5001 395.401,-10 385.401,-6.5001 385.401,-13.5001"/>
</g>
</g>
</svg>
