<?xml version="1.0" encoding="UTF-8" standalone="no"?>
<!DOCTYPE svg PUBLIC "-//W3C//DTD SVG 1.1//EN"
 "http://www.w3.org/Graphics/SVG/1.1/DTD/svg11.dtd">
<!-- Generated by graphviz version 2.36.0 (20140111.2315)
 -->
<!-- Title: CellSociety.createCellInstance Pages: 1 -->
<svg width="1076pt" height="115pt"
 viewBox="0.00 0.00 1076.00 115.00" xmlns="http://www.w3.org/2000/svg" xmlns:xlink="http://www.w3.org/1999/xlink">
<g id="graph0" class="graph" transform="scale(1 1) rotate(0) translate(4 111)">
<title>CellSociety.createCellInstance</title>
<polygon fill="white" stroke="none" points="-4,4 -4,-111 1072,-111 1072,4 -4,4"/>
<!-- Node1 -->
<g id="node1" class="node"><title>Node1</title>
<polygon fill="#bfbfbf" stroke="black" points="0.5,-49.5 0.5,-68.5 159.5,-68.5 159.5,-49.5 0.5,-49.5"/>
<text text-anchor="middle" x="80" y="-56.5" font-family="Helvetica,sans-Serif" font-size="10.00">CellSociety.createCellInstance</text>
</g>
<!-- Node2 -->
<g id="node2" class="node"><title>Node2</title>
<g id="a_node2"><a xlink:href="../../d3/dff/class_cell_society.html#a5c0b747b2fbaaa317266890c48e0267f" target="_top" xlink:title="CellSociety.populateLocations">
<polygon fill="white" stroke="black" points="202,-87.5 202,-106.5 360,-106.5 360,-87.5 202,-87.5"/>
<text text-anchor="middle" x="281" y="-94.5" font-family="Helvetica,sans-Serif" font-size="10.00">CellSociety.populateLocations</text>
</a>
</g>
</g>
<!-- Node1&#45;&gt;Node2 -->
<g id="edge1" class="edge"><title>Node1&#45;&gt;Node2</title>
<path fill="none" stroke="midnightblue" d="M140.795,-70.4181C169.268,-75.8552 202.931,-82.2832 230.02,-87.4561"/>
<polygon fill="midnightblue" stroke="midnightblue" points="141.438,-66.9778 130.959,-68.54 140.125,-73.8536 141.438,-66.9778"/>
</g>
<!-- Node7 -->
<g id="node7" class="node"><title>Node7</title>
<g id="a_node7"><a xlink:href="../../d3/dff/class_cell_society.html#a276d7f4c12da9d40e8720f762b47592a" target="_top" xlink:title="CellSociety.populateProbabilities">
<polygon fill="white" stroke="black" points="196,-49.5 196,-68.5 366,-68.5 366,-49.5 196,-49.5"/>
<text text-anchor="middle" x="281" y="-56.5" font-family="Helvetica,sans-Serif" font-size="10.00">CellSociety.populateProbabilities</text>
</a>
</g>
</g>
<!-- Node1&#45;&gt;Node7 -->
<g id="edge6" class="edge"><title>Node1&#45;&gt;Node7</title>
<path fill="none" stroke="midnightblue" d="M169.724,-59C178.361,-59 187.108,-59 195.701,-59"/>
<polygon fill="midnightblue" stroke="midnightblue" points="169.65,-55.5001 159.65,-59 169.65,-62.5001 169.65,-55.5001"/>
</g>
<!-- Node8 -->
<g id="node8" class="node"><title>Node8</title>
<g id="a_node8"><a xlink:href="../../d3/dff/class_cell_society.html#a7ef59819b70a8f07c010bd2bb28b7740" target="_top" xlink:title="CellSociety.populateRemaining\lState">
<polygon fill="white" stroke="black" points="200,-0 200,-30 362,-30 362,-0 200,-0"/>
<text text-anchor="start" x="208" y="-18" font-family="Helvetica,sans-Serif" font-size="10.00">CellSociety.populateRemaining</text>
<text text-anchor="middle" x="281" y="-7" font-family="Helvetica,sans-Serif" font-size="10.00">State</text>
</a>
</g>
</g>
<!-- Node1&#45;&gt;Node8 -->
<g id="edge8" class="edge"><title>Node1&#45;&gt;Node8</title>
<path fill="none" stroke="midnightblue" d="M134.108,-47.2576C157.98,-41.9793 186.443,-35.686 211.863,-30.0654"/>
<polygon fill="midnightblue" stroke="midnightblue" points="133.189,-43.8762 124.18,-49.4527 134.7,-50.7111 133.189,-43.8762"/>
</g>
<!-- Node3 -->
<g id="node3" class="node"><title>Node3</title>
<g id="a_node3"><a xlink:href="../../d3/dff/class_cell_society.html#a7a6dab68551f91cc4b120faa51670bf8" target="_top" xlink:title="CellSociety.createCellArray">
<polygon fill="white" stroke="black" points="402,-49.5 402,-68.5 546,-68.5 546,-49.5 402,-49.5"/>
<text text-anchor="middle" x="474" y="-56.5" font-family="Helvetica,sans-Serif" font-size="10.00">CellSociety.createCellArray</text>
</a>
</g>
</g>
<!-- Node2&#45;&gt;Node3 -->
<g id="edge2" class="edge"><title>Node2&#45;&gt;Node3</title>
<path fill="none" stroke="midnightblue" d="M340.353,-85.3905C367.518,-79.986 399.432,-73.6365 425.149,-68.5201"/>
<polygon fill="midnightblue" stroke="midnightblue" points="339.322,-82.0269 330.197,-87.411 340.688,-88.8924 339.322,-82.0269"/>
</g>
<!-- Node4 -->
<g id="node4" class="node"><title>Node4</title>
<g id="a_node4"><a xlink:href="../../d3/dff/class_cell_society.html#af9f22af39a97a58b26126020ca6c8844" target="_top" xlink:title="CellSociety.readNewXML">
<polygon fill="white" stroke="black" points="582,-49.5 582,-68.5 714,-68.5 714,-49.5 582,-49.5"/>
<text text-anchor="middle" x="648" y="-56.5" font-family="Helvetica,sans-Serif" font-size="10.00">CellSociety.readNewXML</text>
</a>
</g>
</g>
<!-- Node3&#45;&gt;Node4 -->
<g id="edge3" class="edge"><title>Node3&#45;&gt;Node4</title>
<path fill="none" stroke="midnightblue" d="M556.686,-59C565.118,-59 573.606,-59 581.824,-59"/>
<polygon fill="midnightblue" stroke="midnightblue" points="556.449,-55.5001 546.449,-59 556.449,-62.5001 556.449,-55.5001"/>
</g>
<!-- Node5 -->
<g id="node5" class="node"><title>Node5</title>
<g id="a_node5"><a xlink:href="../../d3/dff/class_cell_society.html#a656ff46d1459fb7f86b42e3c542506ee" target="_top" xlink:title="CellSociety.configureListeners">
<polygon fill="white" stroke="black" points="750,-49.5 750,-68.5 908,-68.5 908,-49.5 750,-49.5"/>
<text text-anchor="middle" x="829" y="-56.5" font-family="Helvetica,sans-Serif" font-size="10.00">CellSociety.configureListeners</text>
</a>
</g>
</g>
<!-- Node4&#45;&gt;Node5 -->
<g id="edge4" class="edge"><title>Node4&#45;&gt;Node5</title>
<path fill="none" stroke="midnightblue" d="M724.312,-59C732.748,-59 741.355,-59 749.826,-59"/>
<polygon fill="midnightblue" stroke="midnightblue" points="724.13,-55.5001 714.129,-59 724.129,-62.5001 724.13,-55.5001"/>
</g>
<!-- Node6 -->
<g id="node6" class="node"><title>Node6</title>
<g id="a_node6"><a xlink:href="../../d3/dff/class_cell_society.html#ac5e08680a3da358d402461bc25aa1727" target="_top" xlink:title="CellSociety.CellSociety">
<polygon fill="white" stroke="black" points="944.5,-49.5 944.5,-68.5 1067.5,-68.5 1067.5,-49.5 944.5,-49.5"/>
<text text-anchor="middle" x="1006" y="-56.5" font-family="Helvetica,sans-Serif" font-size="10.00">CellSociety.CellSociety</text>
</a>
</g>
</g>
<!-- Node5&#45;&gt;Node6 -->
<g id="edge5" class="edge"><title>Node5&#45;&gt;Node6</title>
<path fill="none" stroke="midnightblue" d="M918.087,-59C927.007,-59 935.919,-59 944.452,-59"/>
<polygon fill="midnightblue" stroke="midnightblue" points="918.032,-55.5001 908.032,-59 918.032,-62.5001 918.032,-55.5001"/>
</g>
<!-- Node7&#45;&gt;Node3 -->
<g id="edge7" class="edge"><title>Node7&#45;&gt;Node3</title>
<path fill="none" stroke="midnightblue" d="M376.143,-59C384.758,-59 393.387,-59 401.751,-59"/>
<polygon fill="midnightblue" stroke="midnightblue" points="376.053,-55.5001 366.053,-59 376.053,-62.5001 376.053,-55.5001"/>
</g>
<!-- Node8&#45;&gt;Node3 -->
<g id="edge9" class="edge"><title>Node8&#45;&gt;Node3</title>
<path fill="none" stroke="midnightblue" d="M357.179,-32.3187C382.556,-38.1648 409.941,-44.4732 431.707,-49.4876"/>
<polygon fill="midnightblue" stroke="midnightblue" points="357.728,-28.8535 347.197,-30.0192 356.156,-35.6749 357.728,-28.8535"/>
</g>
</g>
</svg>
