<?xml version="1.0" encoding="UTF-8" standalone="no"?>
<!DOCTYPE svg PUBLIC "-//W3C//DTD SVG 1.1//EN"
 "http://www.w3.org/Graphics/SVG/1.1/DTD/svg11.dtd">
<!-- Generated by graphviz version 2.36.0 (20140111.2315)
 -->
<!-- Title: CellSociety.configureListeners Pages: 1 -->
<!--zoomable 710 -->
<svg id="main" version="1.1" xmlns="http://www.w3.org/2000/svg" xmlns:xlink="http://www.w3.org/1999/xlink" xml:space="preserve" onload="init(evt)">
<style type="text/css"><![CDATA[
.edge:hover path { stroke: red; }
.edge:hover polygon { stroke: red; fill: red; }
]]></style>
<script type="text/javascript"><![CDATA[
var edges = document.getElementsByTagName('g');
if (edges && edges.length) {
  for (var i=0;i<edges.length;i++) {
    if (edges[i].id.substr(0,4)=='edge') {
      edges[i].setAttribute('class','edge');
    }
  }
}
]]></script>
        <defs>
                <circle id="rim" cx="0" cy="0" r="7"/>
                <circle id="rim2" cx="0" cy="0" r="3.5"/>
                <g id="zoomPlus">
                        <use xlink:href="#rim" fill="#404040">
                                <set attributeName="fill" to="#808080" begin="zoomplus.mouseover" end="zoomplus.mouseout"/>
                        </use>
                        <path d="M-4,0h8M0,-4v8" fill="none" stroke="white" stroke-width="1.5" pointer-events="none"/>
                </g>
                <g id="zoomMin">
                        <use xlink:href="#rim" fill="#404040">
                                <set attributeName="fill" to="#808080" begin="zoomminus.mouseover" end="zoomminus.mouseout"/>
                        </use>
                        <path d="M-4,0h8" fill="none" stroke="white" stroke-width="1.5" pointer-events="none"/>
                </g>
                <g id="dirArrow">
                        <path fill="none" stroke="white" stroke-width="1.5" d="M0,-3.0v7 M-2.5,-0.5L0,-3.0L2.5,-0.5"/>
                </g>
               <g id="resetDef">
                       <use xlink:href="#rim2" fill="#404040">
                               <set attributeName="fill" to="#808080" begin="reset.mouseover" end="reset.mouseout"/>
                       </use>
               </g>
        </defs>

<script type="text/javascript">
var viewWidth = 1394;
var viewHeight = 710;
var sectionId = 'dynsection-2';
</script>
<script xlink:href="../../svgpan.js"/>
<svg id="graph" class="graph">
<g id="viewport">
<title>CellSociety.configureListeners</title>
<polygon fill="white" stroke="none" points="-4,4 -4,-705.592 1390,-705.592 1390,4 -4,4"/>
<!-- Node1 -->
<g id="node1" class="node"><title>Node1</title>
<polygon fill="#bfbfbf" stroke="black" points="0,-241.5 0,-260.5 158,-260.5 158,-241.5 0,-241.5"/>
<text text-anchor="middle" x="79" y="-248.5" font-family="Helvetica,sans-Serif" font-size="10.00">CellSociety.configureListeners</text>
</g>
<!-- Node2 -->
<g id="node2" class="node"><title>Node2</title>
<g id="a_node2"><a xlink:href="../../d3/dff/class_cell_society.html#a045267ba1843ca4a47891d7be73c2ac1" target="_top" xlink:title="CellSociety.decreaseFrameRate">
<polygon fill="white" stroke="black" points="196.5,-567.5 196.5,-586.5 363.5,-586.5 363.5,-567.5 196.5,-567.5"/>
<text text-anchor="middle" x="280" y="-574.5" font-family="Helvetica,sans-Serif" font-size="10.00">CellSociety.decreaseFrameRate</text>
</a>
</g>
</g>
<!-- Node1&#45;&gt;Node2 -->
<g id="edge1" class="edge"><title>Node1&#45;&gt;Node2</title>
<path fill="none" stroke="midnightblue" d="M82.5447,-260.668C92.2661,-296.301 129.778,-422.593 194,-507 210.911,-529.227 236.203,-548.882 254.803,-561.662"/>
<polygon fill="midnightblue" stroke="midnightblue" points="253.072,-564.715 263.33,-567.365 256.963,-558.896 253.072,-564.715"/>
</g>
<!-- Node6 -->
<g id="node6" class="node"><title>Node6</title>
<g id="a_node6"><a xlink:href="../../d3/dff/class_cell_society.html#a0ff19c30a1cc433d8ea8444f6a5617f1" target="_top" xlink:title="CellSociety.updateGrid">
<polygon fill="white" stroke="black" points="856,-617.5 856,-636.5 980,-636.5 980,-617.5 856,-617.5"/>
<text text-anchor="middle" x="918" y="-624.5" font-family="Helvetica,sans-Serif" font-size="10.00">CellSociety.updateGrid</text>
</a>
</g>
</g>
<!-- Node1&#45;&gt;Node6 -->
<g id="edge56" class="edge"><title>Node1&#45;&gt;Node6</title>
<path fill="none" stroke="midnightblue" d="M80.0153,-260.724C80.6413,-306.222 89.5501,-499.901 194,-596 391.421,-777.637 762.502,-677.838 880.202,-639.723"/>
<polygon fill="midnightblue" stroke="midnightblue" points="881.429,-643.003 889.837,-636.556 879.244,-636.353 881.429,-643.003"/>
</g>
<!-- Node14 -->
<g id="node14" class="node"><title>Node14</title>
<g id="a_node14"><a xlink:href="../../df/df8/class_cell_society_view.html#ada088eb9125561f8dd941badb141fa86" target="_top" xlink:title="CellSocietyView.getPause\lElement">
<polygon fill="white" stroke="black" points="211.5,-214 211.5,-244 348.5,-244 348.5,-214 211.5,-214"/>
<text text-anchor="start" x="219.5" y="-232" font-family="Helvetica,sans-Serif" font-size="10.00">CellSocietyView.getPause</text>
<text text-anchor="middle" x="280" y="-221" font-family="Helvetica,sans-Serif" font-size="10.00">Element</text>
</a>
</g>
</g>
<!-- Node1&#45;&gt;Node14 -->
<g id="edge15" class="edge"><title>Node1&#45;&gt;Node14</title>
<path fill="none" stroke="midnightblue" d="M158.079,-242.368C172.274,-240.799 187.079,-239.162 201.264,-237.594"/>
<polygon fill="midnightblue" stroke="midnightblue" points="201.91,-241.044 211.465,-236.466 201.141,-234.086 201.91,-241.044"/>
</g>
<!-- Node15 -->
<g id="node15" class="node"><title>Node15</title>
<g id="a_node15"><a xlink:href="../../df/df8/class_cell_society_view.html#aae7c36ea6b5215b0ba9ee01c72dfcb94" target="_top" xlink:title="CellSocietyView.getPlayElement">
<polygon fill="white" stroke="black" points="196,-175.5 196,-194.5 364,-194.5 364,-175.5 196,-175.5"/>
<text text-anchor="middle" x="280" y="-182.5" font-family="Helvetica,sans-Serif" font-size="10.00">CellSocietyView.getPlayElement</text>
</a>
</g>
</g>
<!-- Node1&#45;&gt;Node15 -->
<g id="edge16" class="edge"><title>Node1&#45;&gt;Node15</title>
<path fill="none" stroke="midnightblue" d="M101.076,-241.365C123.692,-231.295 160.842,-215.523 194,-205 203.223,-202.073 213.131,-199.362 222.809,-196.942"/>
<polygon fill="midnightblue" stroke="midnightblue" points="223.878,-200.284 232.773,-194.528 222.23,-193.481 223.878,-200.284"/>
</g>
<!-- Node16 -->
<g id="node16" class="node"><title>Node16</title>
<g id="a_node16"><a xlink:href="../../df/df8/class_cell_society_view.html#a0f616a01579a7293ef781d3e341ea1ac" target="_top" xlink:title="CellSocietyView.getSlowdown\lElement">
<polygon fill="white" stroke="black" points="202.5,-126 202.5,-156 357.5,-156 357.5,-126 202.5,-126"/>
<text text-anchor="start" x="210.5" y="-144" font-family="Helvetica,sans-Serif" font-size="10.00">CellSocietyView.getSlowdown</text>
<text text-anchor="middle" x="280" y="-133" font-family="Helvetica,sans-Serif" font-size="10.00">Element</text>
</a>
</g>
</g>
<!-- Node1&#45;&gt;Node16 -->
<g id="edge17" class="edge"><title>Node1&#45;&gt;Node16</title>
<path fill="none" stroke="midnightblue" d="M90.158,-241.419C109.121,-224.018 151.819,-187.076 194,-166 198.612,-163.696 203.473,-161.566 208.439,-159.605"/>
<polygon fill="midnightblue" stroke="midnightblue" points="209.915,-162.791 218.081,-156.041 207.487,-156.226 209.915,-162.791"/>
</g>
<!-- Node17 -->
<g id="node17" class="node"><title>Node17</title>
<g id="a_node17"><a xlink:href="../../df/df8/class_cell_society_view.html#a572d464cbe7d186dc9a5b0e4a8130689" target="_top" xlink:title="CellSocietyView.getSpeedup\lElement">
<polygon fill="white" stroke="black" points="204,-77 204,-107 356,-107 356,-77 204,-77"/>
<text text-anchor="start" x="212" y="-95" font-family="Helvetica,sans-Serif" font-size="10.00">CellSocietyView.getSpeedup</text>
<text text-anchor="middle" x="280" y="-84" font-family="Helvetica,sans-Serif" font-size="10.00">Element</text>
</a>
</g>
</g>
<!-- Node1&#45;&gt;Node17 -->
<g id="edge18" class="edge"><title>Node1&#45;&gt;Node17</title>
<path fill="none" stroke="midnightblue" d="M85.5182,-241.225C99.9743,-216.515 141.487,-151.102 194,-117 197.153,-114.953 200.478,-113.068 203.914,-111.335"/>
<polygon fill="midnightblue" stroke="midnightblue" points="205.58,-114.422 213.227,-107.089 202.676,-108.053 205.58,-114.422"/>
</g>
<!-- Node18 -->
<g id="node18" class="node"><title>Node18</title>
<g id="a_node18"><a xlink:href="../../df/df8/class_cell_society_view.html#a3c3a7039f77d392c374cd309967ca1cc" target="_top" xlink:title="CellSocietyView.getStepElement">
<polygon fill="white" stroke="black" points="194.5,-38.5 194.5,-57.5 365.5,-57.5 365.5,-38.5 194.5,-38.5"/>
<text text-anchor="middle" x="280" y="-45.5" font-family="Helvetica,sans-Serif" font-size="10.00">CellSocietyView.getStepElement</text>
</a>
</g>
</g>
<!-- Node1&#45;&gt;Node18 -->
<g id="edge19" class="edge"><title>Node1&#45;&gt;Node18</title>
<path fill="none" stroke="midnightblue" d="M83.0468,-241.096C93.1649,-209.959 128.763,-113.378 194,-67 196.711,-65.0725 199.584,-63.3359 202.571,-61.7718"/>
<polygon fill="midnightblue" stroke="midnightblue" points="204.162,-64.8934 211.826,-57.5779 201.273,-58.5175 204.162,-64.8934"/>
</g>
<!-- Node19 -->
<g id="node19" class="node"><title>Node19</title>
<g id="a_node19"><a xlink:href="../../df/df8/class_cell_society_view.html#aebad9aaff0e9784fec1518d319e03c85" target="_top" xlink:title="CellSocietyView.getXMLElement">
<polygon fill="white" stroke="black" points="196,-0.5 196,-19.5 364,-19.5 364,-0.5 196,-0.5"/>
<text text-anchor="middle" x="280" y="-7.5" font-family="Helvetica,sans-Serif" font-size="10.00">CellSocietyView.getXMLElement</text>
</a>
</g>
</g>
<!-- Node1&#45;&gt;Node19 -->
<g id="edge20" class="edge"><title>Node1&#45;&gt;Node19</title>
<path fill="none" stroke="midnightblue" d="M81.9525,-241.117C89.426,-206.033 119.62,-86.507 194,-29 196.299,-27.2225 198.732,-25.6047 201.266,-24.1328"/>
<polygon fill="midnightblue" stroke="midnightblue" points="202.832,-27.263 210.221,-19.67 199.709,-20.9979 202.832,-27.263"/>
</g>
<!-- Node20 -->
<g id="node20" class="node"><title>Node20</title>
<g id="a_node20"><a xlink:href="../../d3/dff/class_cell_society.html#a8250bfacdaf51dabf6b9d1cafc0ce9b2" target="_top" xlink:title="CellSociety.increaseFrameRate">
<polygon fill="white" stroke="black" points="198.5,-478.5 198.5,-497.5 361.5,-497.5 361.5,-478.5 198.5,-478.5"/>
<text text-anchor="middle" x="280" y="-485.5" font-family="Helvetica,sans-Serif" font-size="10.00">CellSociety.increaseFrameRate</text>
</a>
</g>
</g>
<!-- Node1&#45;&gt;Node20 -->
<g id="edge21" class="edge"><title>Node1&#45;&gt;Node20</title>
<path fill="none" stroke="midnightblue" d="M88.0475,-260.584C118.236,-296.537 225.017,-423.709 264.331,-470.529"/>
<polygon fill="midnightblue" stroke="midnightblue" points="261.741,-472.889 270.852,-478.297 267.102,-468.388 261.741,-472.889"/>
</g>
<!-- Node21 -->
<g id="node21" class="node"><title>Node21</title>
<g id="a_node21"><a xlink:href="../../d3/dff/class_cell_society.html#ae565a305ea53e5a37da9816a236b4fbc" target="_top" xlink:title="CellSociety.pauseAnimation">
<polygon fill="white" stroke="black" points="420.5,-73.5 420.5,-92.5 569.5,-92.5 569.5,-73.5 420.5,-73.5"/>
<text text-anchor="middle" x="495" y="-80.5" font-family="Helvetica,sans-Serif" font-size="10.00">CellSociety.pauseAnimation</text>
</a>
</g>
</g>
<!-- Node1&#45;&gt;Node21 -->
<g id="edge23" class="edge"><title>Node1&#45;&gt;Node21</title>
<path fill="none" stroke="midnightblue" d="M95.849,-260.614C143.055,-287.883 284.492,-359.515 366,-292 432.189,-237.174 341.727,-163.27 402,-102 404.877,-99.0752 408.077,-96.5417 411.509,-94.3509"/>
<polygon fill="midnightblue" stroke="midnightblue" points="413.282,-97.372 420.465,-89.5834 409.993,-91.193 413.282,-97.372"/>
</g>
<!-- Node23 -->
<g id="node23" class="node"><title>Node23</title>
<g id="a_node23"><a xlink:href="../../d3/dff/class_cell_society.html#af9f22af39a97a58b26126020ca6c8844" target="_top" xlink:title="CellSociety.readNewXML">
<polygon fill="white" stroke="black" points="214,-339.5 214,-358.5 346,-358.5 346,-339.5 214,-339.5"/>
<text text-anchor="middle" x="280" y="-346.5" font-family="Helvetica,sans-Serif" font-size="10.00">CellSociety.readNewXML</text>
</a>
</g>
</g>
<!-- Node1&#45;&gt;Node23 -->
<g id="edge25" class="edge"><title>Node1&#45;&gt;Node23</title>
<path fill="none" stroke="midnightblue" d="M91.9427,-260.509C111.959,-276.029 154.025,-306.885 194,-325 204.052,-329.555 215.17,-333.446 225.96,-336.686"/>
<polygon fill="midnightblue" stroke="midnightblue" points="225.16,-340.097 235.737,-339.478 227.083,-333.366 225.16,-340.097"/>
</g>
<!-- Node41 -->
<g id="node41" class="node"><title>Node41</title>
<g id="a_node41"><a xlink:href="../../d3/dff/class_cell_society.html#a6a4056cd40e4162583f2b9845b77a191" target="_top" xlink:title="CellSociety.resumeAnimation">
<polygon fill="white" stroke="black" points="202,-263.5 202,-282.5 358,-282.5 358,-263.5 202,-263.5"/>
<text text-anchor="middle" x="280" y="-270.5" font-family="Helvetica,sans-Serif" font-size="10.00">CellSociety.resumeAnimation</text>
</a>
</g>
</g>
<!-- Node1&#45;&gt;Node41 -->
<g id="edge54" class="edge"><title>Node1&#45;&gt;Node41</title>
<path fill="none" stroke="midnightblue" d="M158.079,-259.632C169.083,-260.848 180.455,-262.106 191.62,-263.34"/>
<polygon fill="midnightblue" stroke="midnightblue" points="191.475,-266.845 201.799,-264.465 192.244,-259.887 191.475,-266.845"/>
</g>
<!-- Node3 -->
<g id="node3" class="node"><title>Node3</title>
<g id="a_node3"><a xlink:href="../../d3/dff/class_cell_society.html#adc5feda3db5472cea4e092d463681033" target="_top" xlink:title="CellSociety.reframeTimeline">
<polygon fill="white" stroke="black" points="420.5,-617.5 420.5,-636.5 569.5,-636.5 569.5,-617.5 420.5,-617.5"/>
<text text-anchor="middle" x="495" y="-624.5" font-family="Helvetica,sans-Serif" font-size="10.00">CellSociety.reframeTimeline</text>
</a>
</g>
</g>
<!-- Node2&#45;&gt;Node3 -->
<g id="edge2" class="edge"><title>Node2&#45;&gt;Node3</title>
<path fill="none" stroke="midnightblue" d="M321.565,-586.522C356.098,-594.629 405.88,-606.315 443.086,-615.048"/>
<polygon fill="midnightblue" stroke="midnightblue" points="442.689,-618.55 453.224,-617.428 444.288,-611.735 442.689,-618.55"/>
</g>
<!-- Node4 -->
<g id="node4" class="node"><title>Node4</title>
<g id="a_node4"><a xlink:href="../../df/df8/class_cell_society_view.html#a99eb733c00ed7c1bcba8f2d684791a09" target="_top" xlink:title="CellSocietyView.displayFrameRate">
<polygon fill="white" stroke="black" points="624,-617.5 624,-636.5 802,-636.5 802,-617.5 624,-617.5"/>
<text text-anchor="middle" x="713" y="-624.5" font-family="Helvetica,sans-Serif" font-size="10.00">CellSocietyView.displayFrameRate</text>
</a>
</g>
</g>
<!-- Node3&#45;&gt;Node4 -->
<g id="edge3" class="edge"><title>Node3&#45;&gt;Node4</title>
<path fill="none" stroke="midnightblue" d="M569.731,-627C583.831,-627 598.801,-627 613.533,-627"/>
<polygon fill="midnightblue" stroke="midnightblue" points="613.68,-630.5 623.68,-627 613.68,-623.5 613.68,-630.5"/>
</g>
<!-- Node5 -->
<g id="node5" class="node"><title>Node5</title>
<g id="a_node5"><a xlink:href="../../d3/dff/class_cell_society.html#abf13a64ee79f2cb063447b499c695c58" target="_top" xlink:title="CellSociety.start">
<polygon fill="white" stroke="black" points="666.5,-579.5 666.5,-598.5 759.5,-598.5 759.5,-579.5 666.5,-579.5"/>
<text text-anchor="middle" x="713" y="-586.5" font-family="Helvetica,sans-Serif" font-size="10.00">CellSociety.start</text>
</a>
</g>
</g>
<!-- Node3&#45;&gt;Node5 -->
<g id="edge4" class="edge"><title>Node3&#45;&gt;Node5</title>
<path fill="none" stroke="midnightblue" d="M550.227,-617.46C582.478,-611.786 623.317,-604.602 655.893,-598.871"/>
<polygon fill="midnightblue" stroke="midnightblue" points="656.916,-602.245 666.158,-597.065 655.703,-595.35 656.916,-602.245"/>
</g>
<!-- Node5&#45;&gt;Node6 -->
<g id="edge5" class="edge"><title>Node5&#45;&gt;Node6</title>
<path fill="none" stroke="midnightblue" d="M759.557,-597.528C788.143,-602.879 825.337,-609.841 856.396,-615.655"/>
<polygon fill="midnightblue" stroke="midnightblue" points="855.773,-619.099 866.246,-617.499 857.061,-612.219 855.773,-619.099"/>
</g>
<!-- Node7 -->
<g id="node7" class="node"><title>Node7</title>
<g id="a_node7"><a xlink:href="../../d8/d87/class_controller.html#aa8f10b5f28542d34053a7e4d5f1d6013" target="_top" xlink:title="Controller.runOneSim">
<polygon fill="white" stroke="black" points="1057.5,-623.5 1057.5,-642.5 1176.5,-642.5 1176.5,-623.5 1057.5,-623.5"/>
<text text-anchor="middle" x="1117" y="-630.5" font-family="Helvetica,sans-Serif" font-size="10.00">Controller.runOneSim</text>
</a>
</g>
</g>
<!-- Node6&#45;&gt;Node7 -->
<g id="edge6" class="edge"><title>Node6&#45;&gt;Node7</title>
<path fill="none" stroke="midnightblue" d="M980.252,-628.866C1001.51,-629.513 1025.48,-630.243 1047.3,-630.908"/>
<polygon fill="midnightblue" stroke="midnightblue" points="1047.38,-634.412 1057.48,-631.218 1047.59,-627.415 1047.38,-634.412"/>
</g>
<!-- Node8 -->
<g id="node8" class="node"><title>Node8</title>
<g id="a_node8"><a xlink:href="../../d3/dff/class_cell_society.html#a64ebaee33d25e0e730024e67d5582c63" target="_top" xlink:title="CellSociety.updateColors">
<polygon fill="white" stroke="black" points="1050,-585.5 1050,-604.5 1184,-604.5 1184,-585.5 1050,-585.5"/>
<text text-anchor="middle" x="1117" y="-592.5" font-family="Helvetica,sans-Serif" font-size="10.00">CellSociety.updateColors</text>
</a>
</g>
</g>
<!-- Node6&#45;&gt;Node8 -->
<g id="edge7" class="edge"><title>Node6&#45;&gt;Node8</title>
<path fill="none" stroke="midnightblue" d="M977.573,-617.486C999.506,-613.923 1024.62,-609.844 1047.38,-606.146"/>
<polygon fill="midnightblue" stroke="midnightblue" points="1048,-609.591 1057.31,-604.533 1046.88,-602.682 1048,-609.591"/>
</g>
<!-- Node10 -->
<g id="node10" class="node"><title>Node10</title>
<g id="a_node10"><a xlink:href="../../d2/d95/class_x_m_l_parser.html#ac4e3257aed1deb9fe950149f706fce5b" target="_top" xlink:title="XMLParser.getCellParamList">
<polygon fill="white" stroke="black" points="1236.5,-460.5 1236.5,-479.5 1385.5,-479.5 1385.5,-460.5 1236.5,-460.5"/>
<text text-anchor="middle" x="1311" y="-467.5" font-family="Helvetica,sans-Serif" font-size="10.00">XMLParser.getCellParamList</text>
</a>
</g>
</g>
<!-- Node6&#45;&gt;Node10 -->
<g id="edge12" class="edge"><title>Node6&#45;&gt;Node10</title>
<path fill="none" stroke="midnightblue" d="M974.24,-617.408C982.45,-614.939 990.623,-611.853 998,-608 1016.97,-598.089 1015,-585.861 1034,-576 1101.27,-541.091 1129.87,-565.737 1200,-537 1232.95,-523.497 1267.47,-500.867 1288.86,-485.69"/>
<polygon fill="midnightblue" stroke="midnightblue" points="1291.12,-488.378 1297.18,-479.69 1287.02,-482.701 1291.12,-488.378"/>
</g>
<!-- Node11 -->
<g id="node11" class="node"><title>Node11</title>
<g id="a_node11"><a xlink:href="../../df/df8/class_cell_society_view.html#a43ac2666d3a002024be53fe74028a576" target="_top" xlink:title="CellSocietyView.updateSimGrid">
<polygon fill="white" stroke="black" points="1034.5,-282.5 1034.5,-301.5 1199.5,-301.5 1199.5,-282.5 1034.5,-282.5"/>
<text text-anchor="middle" x="1117" y="-289.5" font-family="Helvetica,sans-Serif" font-size="10.00">CellSocietyView.updateSimGrid</text>
</a>
</g>
</g>
<!-- Node6&#45;&gt;Node11 -->
<g id="edge10" class="edge"><title>Node6&#45;&gt;Node11</title>
<path fill="none" stroke="midnightblue" d="M980.172,-619.296C986.731,-616.516 992.871,-612.841 998,-608 1038.18,-570.072 1015.36,-541.017 1034,-489 1057.78,-422.63 1091.52,-346.067 1107.27,-311.146"/>
<polygon fill="midnightblue" stroke="midnightblue" points="1110.61,-312.255 1111.55,-301.702 1104.24,-309.366 1110.61,-312.255"/>
</g>
<!-- Node13 -->
<g id="node13" class="node"><title>Node13</title>
<g id="a_node13"><a xlink:href="../../df/df8/class_cell_society_view.html#a7ca77bdfdef97e9be9c9941c2f4d3513" target="_top" xlink:title="CellSocietyView.updateChart\lLines">
<polygon fill="white" stroke="black" points="1040.5,-498 1040.5,-528 1193.5,-528 1193.5,-498 1040.5,-498"/>
<text text-anchor="start" x="1048.5" y="-516" font-family="Helvetica,sans-Serif" font-size="10.00">CellSocietyView.updateChart</text>
<text text-anchor="middle" x="1117" y="-505" font-family="Helvetica,sans-Serif" font-size="10.00">Lines</text>
</a>
</g>
</g>
<!-- Node6&#45;&gt;Node13 -->
<g id="edge13" class="edge"><title>Node6&#45;&gt;Node13</title>
<path fill="none" stroke="midnightblue" d="M980.038,-617.874C986.467,-615.331 992.612,-612.101 998,-608 1024.28,-588.001 1008.91,-564.473 1034,-543 1038.57,-539.085 1043.7,-535.663 1049.1,-532.675"/>
<polygon fill="midnightblue" stroke="midnightblue" points="1051.01,-535.636 1058.4,-528.045 1047.89,-529.37 1051.01,-535.636"/>
</g>
<!-- Node9 -->
<g id="node9" class="node"><title>Node9</title>
<g id="a_node9"><a xlink:href="../../dd/d11/class_cell.html#a7f8d2520a26a1376a44372149e561f6b" target="_top" xlink:title="Cell.toString">
<polygon fill="white" stroke="black" points="1273.5,-544.5 1273.5,-563.5 1348.5,-563.5 1348.5,-544.5 1273.5,-544.5"/>
<text text-anchor="middle" x="1311" y="-551.5" font-family="Helvetica,sans-Serif" font-size="10.00">Cell.toString</text>
</a>
</g>
</g>
<!-- Node8&#45;&gt;Node9 -->
<g id="edge8" class="edge"><title>Node8&#45;&gt;Node9</title>
<path fill="none" stroke="midnightblue" d="M1162.53,-585.491C1192.79,-579.03 1232.73,-570.501 1263.41,-563.949"/>
<polygon fill="midnightblue" stroke="midnightblue" points="1264.39,-567.32 1273.43,-561.808 1262.92,-560.474 1264.39,-567.32"/>
</g>
<!-- Node8&#45;&gt;Node10 -->
<g id="edge9" class="edge"><title>Node8&#45;&gt;Node10</title>
<path fill="none" stroke="midnightblue" d="M1165.65,-585.405C1177.36,-581.893 1189.54,-577.202 1200,-571 1219.46,-559.462 1219.49,-550.474 1236,-535 1254.21,-517.93 1275.71,-499.194 1290.83,-486.241"/>
<polygon fill="midnightblue" stroke="midnightblue" points="1293.18,-488.841 1298.51,-479.688 1288.63,-483.515 1293.18,-488.841"/>
</g>
<!-- Node12 -->
<g id="node12" class="node"><title>Node12</title>
<g id="a_node12"><a xlink:href="../../dd/d11/class_cell.html#a1e0ece61fecc69a9b7986d17d925434a" target="_top" xlink:title="Cell.getShape">
<polygon fill="white" stroke="black" points="1269.5,-282.5 1269.5,-301.5 1352.5,-301.5 1352.5,-282.5 1269.5,-282.5"/>
<text text-anchor="middle" x="1311" y="-289.5" font-family="Helvetica,sans-Serif" font-size="10.00">Cell.getShape</text>
</a>
</g>
</g>
<!-- Node11&#45;&gt;Node12 -->
<g id="edge11" class="edge"><title>Node11&#45;&gt;Node12</title>
<path fill="none" stroke="midnightblue" d="M1199.7,-292C1219.93,-292 1241.03,-292 1259.29,-292"/>
<polygon fill="midnightblue" stroke="midnightblue" points="1259.4,-295.5 1269.4,-292 1259.4,-288.5 1259.4,-295.5"/>
</g>
<!-- Node13&#45;&gt;Node9 -->
<g id="edge14" class="edge"><title>Node13&#45;&gt;Node9</title>
<path fill="none" stroke="midnightblue" d="M1188.4,-528.034C1213.37,-533.365 1240.83,-539.229 1263.32,-544.033"/>
<polygon fill="midnightblue" stroke="midnightblue" points="1262.77,-547.494 1273.28,-546.16 1264.24,-540.648 1262.77,-547.494"/>
</g>
<!-- Node20&#45;&gt;Node3 -->
<g id="edge22" class="edge"><title>Node20&#45;&gt;Node3</title>
<path fill="none" stroke="midnightblue" d="M294.388,-497.654C311.771,-510.487 342.647,-534.313 366,-558 383.982,-576.239 380.515,-589.058 402,-603 408.891,-607.472 416.579,-611.112 424.495,-614.075"/>
<polygon fill="midnightblue" stroke="midnightblue" points="423.63,-617.477 434.224,-617.363 425.872,-610.845 423.63,-617.477"/>
</g>
<!-- Node22 -->
<g id="node22" class="node"><title>Node22</title>
<g id="a_node22"><a xlink:href="../../df/df8/class_cell_society_view.html#ae83511f9bf3610b0750d41c4aeb0f778" target="_top" xlink:title="CellSocietyView.setButtons\lPause">
<polygon fill="white" stroke="black" points="640,-49 640,-79 786,-79 786,-49 640,-49"/>
<text text-anchor="start" x="648" y="-67" font-family="Helvetica,sans-Serif" font-size="10.00">CellSocietyView.setButtons</text>
<text text-anchor="middle" x="713" y="-56" font-family="Helvetica,sans-Serif" font-size="10.00">Pause</text>
</a>
</g>
</g>
<!-- Node21&#45;&gt;Node22 -->
<g id="edge24" class="edge"><title>Node21&#45;&gt;Node22</title>
<path fill="none" stroke="midnightblue" d="M569.731,-76.5144C588.984,-74.8208 609.859,-72.9846 629.534,-71.254"/>
<polygon fill="midnightblue" stroke="midnightblue" points="630.044,-74.7227 639.699,-70.3599 629.43,-67.7496 630.044,-74.7227"/>
</g>
<!-- Node23&#45;&gt;Node4 -->
<g id="edge49" class="edge"><title>Node23&#45;&gt;Node4</title>
<path fill="none" stroke="midnightblue" d="M289.267,-358.669C305.74,-378.323 343.04,-424.827 366,-469 387.979,-511.284 365.709,-539.114 402,-570 411.129,-577.769 553.03,-601.613 641.646,-615.882"/>
<polygon fill="midnightblue" stroke="midnightblue" points="641.215,-619.358 651.643,-617.488 642.325,-612.446 641.215,-619.358"/>
</g>
<!-- Node23&#45;&gt;Node10 -->
<g id="edge50" class="edge"><title>Node23&#45;&gt;Node10</title>
<path fill="none" stroke="midnightblue" d="M329.302,-339.462C404.627,-325.662 545.816,-304.429 588,-330 617.579,-347.931 595.384,-379.569 624,-399 720.139,-464.282 1064.9,-471.385 1225.97,-471.004"/>
<polygon fill="midnightblue" stroke="midnightblue" points="1226.32,-474.503 1236.31,-470.968 1226.29,-467.503 1226.32,-474.503"/>
</g>
<!-- Node23&#45;&gt;Node11 -->
<g id="edge47" class="edge"><title>Node23&#45;&gt;Node11</title>
<path fill="none" stroke="midnightblue" d="M328.774,-339.493C341.88,-335.17 355.387,-328.941 366,-320 391.553,-298.472 373.268,-271.056 402,-254 511.758,-188.844 905.934,-252.892 1056.74,-280.607"/>
<polygon fill="midnightblue" stroke="midnightblue" points="1056.28,-284.08 1066.75,-282.458 1057.55,-277.197 1056.28,-284.08"/>
</g>
<!-- Node23&#45;&gt;Node13 -->
<g id="edge52" class="edge"><title>Node23&#45;&gt;Node13</title>
<path fill="none" stroke="midnightblue" d="M287.435,-358.61C307.677,-388.507 370.573,-478.781 402,-494 510.359,-546.476 865.145,-530.274 1030.17,-519.391"/>
<polygon fill="midnightblue" stroke="midnightblue" points="1030.53,-522.874 1040.28,-518.715 1030.07,-515.89 1030.53,-522.874"/>
</g>
<!-- Node23&#45;&gt;Node21 -->
<g id="edge48" class="edge"><title>Node23&#45;&gt;Node21</title>
<path fill="none" stroke="midnightblue" d="M345.539,-339.493C353.266,-335.996 360.39,-331.297 366,-325 432.787,-250.044 332.575,-174.52 402,-102 404.837,-99.0363 408.005,-96.4716 411.411,-94.2561"/>
<polygon fill="midnightblue" stroke="midnightblue" points="413.186,-97.2756 420.317,-89.4399 409.856,-91.1183 413.186,-97.2756"/>
</g>
<!-- Node24 -->
<g id="node24" class="node"><title>Node24</title>
<g id="a_node24"><a xlink:href="../../df/df8/class_cell_society_view.html#a053b6ef6afa80722445223c4e373e51c" target="_top" xlink:title="CellSocietyView.displayXMLChooser">
<polygon fill="white" stroke="black" points="402.5,-111.5 402.5,-130.5 587.5,-130.5 587.5,-111.5 402.5,-111.5"/>
<text text-anchor="middle" x="495" y="-118.5" font-family="Helvetica,sans-Serif" font-size="10.00">CellSocietyView.displayXMLChooser</text>
</a>
</g>
</g>
<!-- Node23&#45;&gt;Node24 -->
<g id="edge26" class="edge"><title>Node23&#45;&gt;Node24</title>
<path fill="none" stroke="midnightblue" d="M345.354,-339.324C353.109,-335.853 360.289,-331.206 366,-325 422.722,-263.363 343.11,-199.569 402,-140 403.261,-138.724 404.584,-137.523 405.961,-136.392"/>
<polygon fill="midnightblue" stroke="midnightblue" points="408.085,-139.18 414.381,-130.659 404.145,-133.394 408.085,-139.18"/>
</g>
<!-- Node25 -->
<g id="node25" class="node"><title>Node25</title>
<g id="a_node25"><a xlink:href="../../d2/d95/class_x_m_l_parser.html#a77ee23818c822b69cdf4200eef726a61" target="_top" xlink:title="XMLParser.parseXMLFile">
<polygon fill="white" stroke="black" points="430,-541.5 430,-560.5 560,-560.5 560,-541.5 430,-541.5"/>
<text text-anchor="middle" x="495" y="-548.5" font-family="Helvetica,sans-Serif" font-size="10.00">XMLParser.parseXMLFile</text>
</a>
</g>
</g>
<!-- Node23&#45;&gt;Node25 -->
<g id="edge27" class="edge"><title>Node23&#45;&gt;Node25</title>
<path fill="none" stroke="midnightblue" d="M288.032,-358.506C302.846,-378.622 338.19,-427.094 366,-469 382.776,-494.28 377.579,-508.997 402,-527 407.938,-531.377 414.605,-534.957 421.568,-537.885"/>
<polygon fill="midnightblue" stroke="midnightblue" points="420.611,-541.264 431.204,-541.488 423.063,-534.708 420.611,-541.264"/>
</g>
<!-- Node29 -->
<g id="node29" class="node"><title>Node29</title>
<g id="a_node29"><a xlink:href="../../d3/dff/class_cell_society.html#abfbf43ce46b4c82c16a2d933b6a11abf" target="_top" xlink:title="CellSociety.retrieveParserInfo">
<polygon fill="white" stroke="black" points="417.5,-149.5 417.5,-168.5 572.5,-168.5 572.5,-149.5 417.5,-149.5"/>
<text text-anchor="middle" x="495" y="-156.5" font-family="Helvetica,sans-Serif" font-size="10.00">CellSociety.retrieveParserInfo</text>
</a>
</g>
</g>
<!-- Node23&#45;&gt;Node29 -->
<g id="edge31" class="edge"><title>Node23&#45;&gt;Node29</title>
<path fill="none" stroke="midnightblue" d="M344.183,-339.393C352.308,-335.927 359.903,-331.263 366,-325 411.415,-278.347 356.121,-229.196 402,-183 405.757,-179.217 410.03,-176.007 414.629,-173.285"/>
<polygon fill="midnightblue" stroke="midnightblue" points="416.485,-176.269 423.826,-168.63 413.324,-170.023 416.485,-176.269"/>
</g>
<!-- Node30 -->
<g id="node30" class="node"><title>Node30</title>
<g id="a_node30"><a xlink:href="../../d2/d95/class_x_m_l_parser.html#aea9b535964c91fa3c3d2b1c0b6a334c2" target="_top" xlink:title="XMLParser.getInitParamMap">
<polygon fill="white" stroke="black" points="638.5,-187.5 638.5,-206.5 787.5,-206.5 787.5,-187.5 638.5,-187.5"/>
<text text-anchor="middle" x="713" y="-194.5" font-family="Helvetica,sans-Serif" font-size="10.00">XMLParser.getInitParamMap</text>
</a>
</g>
</g>
<!-- Node23&#45;&gt;Node30 -->
<g id="edge35" class="edge"><title>Node23&#45;&gt;Node30</title>
<path fill="none" stroke="midnightblue" d="M342.413,-339.441C351.084,-335.987 359.308,-331.314 366,-325 401.576,-291.432 363.281,-250.889 402,-221 436.165,-194.626 548.606,-191.837 628.202,-193.458"/>
<polygon fill="midnightblue" stroke="midnightblue" points="628.148,-196.958 638.226,-193.689 628.309,-189.96 628.148,-196.958"/>
</g>
<!-- Node32 -->
<g id="node32" class="node"><title>Node32</title>
<g id="a_node32"><a xlink:href="../../dd/d11/class_cell.html#a7157b57f4ff263ea68e1ff5fc424176e" target="_top" xlink:title="Cell.setCellSize">
<polygon fill="white" stroke="black" points="450.5,-465.5 450.5,-484.5 539.5,-484.5 539.5,-465.5 450.5,-465.5"/>
<text text-anchor="middle" x="495" y="-472.5" font-family="Helvetica,sans-Serif" font-size="10.00">Cell.setCellSize</text>
</a>
</g>
</g>
<!-- Node23&#45;&gt;Node32 -->
<g id="edge34" class="edge"><title>Node23&#45;&gt;Node32</title>
<path fill="none" stroke="midnightblue" d="M288.943,-358.706C306.783,-379.812 352.368,-429.992 402,-455 413.865,-460.978 427.47,-465.176 440.514,-468.122"/>
<polygon fill="midnightblue" stroke="midnightblue" points="439.841,-471.557 450.341,-470.14 441.249,-464.7 439.841,-471.557"/>
</g>
<!-- Node33 -->
<g id="node33" class="node"><title>Node33</title>
<g id="a_node33"><a xlink:href="../../d3/dff/class_cell_society.html#a7a6dab68551f91cc4b120faa51670bf8" target="_top" xlink:title="CellSociety.createCellArray">
<polygon fill="white" stroke="black" points="423,-263.5 423,-282.5 567,-282.5 567,-263.5 423,-263.5"/>
<text text-anchor="middle" x="495" y="-270.5" font-family="Helvetica,sans-Serif" font-size="10.00">CellSociety.createCellArray</text>
</a>
</g>
</g>
<!-- Node23&#45;&gt;Node33 -->
<g id="edge36" class="edge"><title>Node23&#45;&gt;Node33</title>
<path fill="none" stroke="midnightblue" d="M327.215,-339.424C340.151,-335.827 353.958,-331.088 366,-325 384.089,-315.854 383.82,-305.964 402,-297 411.635,-292.249 422.316,-288.363 432.89,-285.208"/>
<polygon fill="midnightblue" stroke="midnightblue" points="433.847,-288.575 442.537,-282.513 431.964,-281.833 433.847,-288.575"/>
</g>
<!-- Node38 -->
<g id="node38" class="node"><title>Node38</title>
<g id="a_node38"><a xlink:href="../../d3/dff/class_cell_society.html#ab9e56a2a70e210e021b51e898508329b" target="_top" xlink:title="CellSociety.setupAnimation">
<polygon fill="white" stroke="black" points="422,-339.5 422,-358.5 568,-358.5 568,-339.5 422,-339.5"/>
<text text-anchor="middle" x="495" y="-346.5" font-family="Helvetica,sans-Serif" font-size="10.00">CellSociety.setupAnimation</text>
</a>
</g>
</g>
<!-- Node23&#45;&gt;Node38 -->
<g id="edge45" class="edge"><title>Node23&#45;&gt;Node38</title>
<path fill="none" stroke="midnightblue" d="M346.064,-349C366.765,-349 389.94,-349 411.694,-349"/>
<polygon fill="midnightblue" stroke="midnightblue" points="411.907,-352.5 421.906,-349 411.906,-345.5 411.907,-352.5"/>
</g>
<!-- Node39 -->
<g id="node39" class="node"><title>Node39</title>
<g id="a_node39"><a xlink:href="../../df/df8/class_cell_society_view.html#a930d889b8619ae93731b8542ce285180" target="_top" xlink:title="CellSocietyView.generate\lChartLines">
<polygon fill="white" stroke="black" points="426.5,-416 426.5,-446 563.5,-446 563.5,-416 426.5,-416"/>
<text text-anchor="start" x="434.5" y="-434" font-family="Helvetica,sans-Serif" font-size="10.00">CellSocietyView.generate</text>
<text text-anchor="middle" x="495" y="-423" font-family="Helvetica,sans-Serif" font-size="10.00">ChartLines</text>
</a>
</g>
</g>
<!-- Node23&#45;&gt;Node39 -->
<g id="edge51" class="edge"><title>Node23&#45;&gt;Node39</title>
<path fill="none" stroke="midnightblue" d="M298.62,-358.501C321.811,-370.724 364.084,-392.04 402,-406 408.727,-408.477 415.812,-410.831 422.94,-413.034"/>
<polygon fill="midnightblue" stroke="midnightblue" points="422.074,-416.428 432.658,-415.94 424.08,-409.722 422.074,-416.428"/>
</g>
<!-- Node40 -->
<g id="node40" class="node"><title>Node40</title>
<g id="a_node40"><a xlink:href="../../df/df8/class_cell_society_view.html#a989874eb178e925124f50d7cabcc184c" target="_top" xlink:title="CellSocietyView.setGridGap">
<polygon fill="white" stroke="black" points="421.5,-377.5 421.5,-396.5 568.5,-396.5 568.5,-377.5 421.5,-377.5"/>
<text text-anchor="middle" x="495" y="-384.5" font-family="Helvetica,sans-Serif" font-size="10.00">CellSocietyView.setGridGap</text>
</a>
</g>
</g>
<!-- Node23&#45;&gt;Node40 -->
<g id="edge53" class="edge"><title>Node23&#45;&gt;Node40</title>
<path fill="none" stroke="midnightblue" d="M334.474,-358.54C363.592,-363.735 399.811,-370.196 430.374,-375.649"/>
<polygon fill="midnightblue" stroke="midnightblue" points="430.045,-379.145 440.504,-377.456 431.274,-372.254 430.045,-379.145"/>
</g>
<!-- Node26 -->
<g id="node26" class="node"><title>Node26</title>
<g id="a_node26"><a xlink:href="../../d2/d95/class_x_m_l_parser.html#ae67767f9678fb650ac38b1321ea9f723" target="_top" xlink:title="XMLParser.parseInitialTags">
<polygon fill="white" stroke="black" points="642.5,-541.5 642.5,-560.5 783.5,-560.5 783.5,-541.5 642.5,-541.5"/>
<text text-anchor="middle" x="713" y="-548.5" font-family="Helvetica,sans-Serif" font-size="10.00">XMLParser.parseInitialTags</text>
</a>
</g>
</g>
<!-- Node25&#45;&gt;Node26 -->
<g id="edge28" class="edge"><title>Node25&#45;&gt;Node26</title>
<path fill="none" stroke="midnightblue" d="M560.222,-551C582.855,-551 608.576,-551 632.329,-551"/>
<polygon fill="midnightblue" stroke="midnightblue" points="632.374,-554.5 642.374,-551 632.374,-547.5 632.374,-554.5"/>
</g>
<!-- Node27 -->
<g id="node27" class="node"><title>Node27</title>
<g id="a_node27"><a xlink:href="../../d2/d95/class_x_m_l_parser.html#a09c6848239104ae94825c045796dddd0" target="_top" xlink:title="XMLParser.makeParamMap">
<polygon fill="white" stroke="black" points="845,-541.5 845,-560.5 991,-560.5 991,-541.5 845,-541.5"/>
<text text-anchor="middle" x="918" y="-548.5" font-family="Helvetica,sans-Serif" font-size="10.00">XMLParser.makeParamMap</text>
</a>
</g>
</g>
<!-- Node26&#45;&gt;Node27 -->
<g id="edge29" class="edge"><title>Node26&#45;&gt;Node27</title>
<path fill="none" stroke="midnightblue" d="M783.577,-551C799.925,-551 817.504,-551 834.362,-551"/>
<polygon fill="midnightblue" stroke="midnightblue" points="834.749,-554.5 844.749,-551 834.749,-547.5 834.749,-554.5"/>
</g>
<!-- Node28 -->
<g id="node28" class="node"><title>Node28</title>
<g id="a_node28"><a xlink:href="../../d2/d95/class_x_m_l_parser.html#a5a419f71699eb7d3d76ee238fb262a5f" target="_top" xlink:title="XMLParser.makeCellParamList">
<polygon fill="white" stroke="black" points="838,-579.5 838,-598.5 998,-598.5 998,-579.5 838,-579.5"/>
<text text-anchor="middle" x="918" y="-586.5" font-family="Helvetica,sans-Serif" font-size="10.00">XMLParser.makeCellParamList</text>
</a>
</g>
</g>
<!-- Node26&#45;&gt;Node28 -->
<g id="edge30" class="edge"><title>Node26&#45;&gt;Node28</title>
<path fill="none" stroke="midnightblue" d="M764.963,-560.54C792.594,-565.712 826.933,-572.14 855.981,-577.578"/>
<polygon fill="midnightblue" stroke="midnightblue" points="855.542,-581.056 866.016,-579.456 856.83,-574.176 855.542,-581.056"/>
</g>
<!-- Node29&#45;&gt;Node30 -->
<g id="edge32" class="edge"><title>Node29&#45;&gt;Node30</title>
<path fill="none" stroke="midnightblue" d="M550.227,-168.54C579.884,-173.757 616.804,-180.253 647.882,-185.72"/>
<polygon fill="midnightblue" stroke="midnightblue" points="647.295,-189.17 657.751,-187.456 648.508,-182.276 647.295,-189.17"/>
</g>
<!-- Node31 -->
<g id="node31" class="node"><title>Node31</title>
<g id="a_node31"><a xlink:href="../../d2/d95/class_x_m_l_parser.html#a0df3a2904766f59d1246cb55416f8146" target="_top" xlink:title="XMLParser.getSimParamMap">
<polygon fill="white" stroke="black" points="636,-149.5 636,-168.5 790,-168.5 790,-149.5 636,-149.5"/>
<text text-anchor="middle" x="713" y="-156.5" font-family="Helvetica,sans-Serif" font-size="10.00">XMLParser.getSimParamMap</text>
</a>
</g>
</g>
<!-- Node29&#45;&gt;Node31 -->
<g id="edge33" class="edge"><title>Node29&#45;&gt;Node31</title>
<path fill="none" stroke="midnightblue" d="M572.762,-159C589.892,-159 608.17,-159 625.658,-159"/>
<polygon fill="midnightblue" stroke="midnightblue" points="625.849,-162.5 635.849,-159 625.849,-155.5 625.849,-162.5"/>
</g>
<!-- Node33&#45;&gt;Node10 -->
<g id="edge38" class="edge"><title>Node33&#45;&gt;Node10</title>
<path fill="none" stroke="midnightblue" d="M561.172,-282.563C570.833,-286.011 580.16,-290.681 588,-297 615.547,-319.202 594.562,-348.374 624,-368 730.797,-439.201 1076.76,-375.107 1200,-411 1232.77,-420.544 1266.85,-440.677 1288.23,-454.757"/>
<polygon fill="midnightblue" stroke="midnightblue" points="1286.32,-457.692 1296.57,-460.372 1290.23,-451.885 1286.32,-457.692"/>
</g>
<!-- Node33&#45;&gt;Node30 -->
<g id="edge37" class="edge"><title>Node33&#45;&gt;Node30</title>
<path fill="none" stroke="midnightblue" d="M523.357,-263.375C561.903,-249.812 632.29,-225.046 675.333,-209.901"/>
<polygon fill="midnightblue" stroke="midnightblue" points="676.594,-213.168 684.866,-206.547 674.271,-206.565 676.594,-213.168"/>
</g>
<!-- Node34 -->
<g id="node34" class="node"><title>Node34</title>
<g id="a_node34"><a xlink:href="../../d3/dff/class_cell_society.html#a276d7f4c12da9d40e8720f762b47592a" target="_top" xlink:title="CellSociety.populateProbabilities">
<polygon fill="white" stroke="black" points="628,-263.5 628,-282.5 798,-282.5 798,-263.5 628,-263.5"/>
<text text-anchor="middle" x="713" y="-270.5" font-family="Helvetica,sans-Serif" font-size="10.00">CellSociety.populateProbabilities</text>
</a>
</g>
</g>
<!-- Node33&#45;&gt;Node34 -->
<g id="edge39" class="edge"><title>Node33&#45;&gt;Node34</title>
<path fill="none" stroke="midnightblue" d="M567.026,-273C583.114,-273 600.448,-273 617.339,-273"/>
<polygon fill="midnightblue" stroke="midnightblue" points="617.784,-276.5 627.784,-273 617.784,-269.5 617.784,-276.5"/>
</g>
<!-- Node35 -->
<g id="node35" class="node"><title>Node35</title>
<g id="a_node35"><a xlink:href="../../d3/dff/class_cell_society.html#a117f1698760a3f6bbe51bd7af16f79bb" target="_top" xlink:title="CellSociety.createCellInstance">
<polygon fill="white" stroke="black" points="838.5,-301.5 838.5,-320.5 997.5,-320.5 997.5,-301.5 838.5,-301.5"/>
<text text-anchor="middle" x="918" y="-308.5" font-family="Helvetica,sans-Serif" font-size="10.00">CellSociety.createCellInstance</text>
</a>
</g>
</g>
<!-- Node33&#45;&gt;Node35 -->
<g id="edge44" class="edge"><title>Node33&#45;&gt;Node35</title>
<path fill="none" stroke="midnightblue" d="M553.217,-282.525C575.286,-285.927 600.767,-289.527 624,-292 692.259,-299.267 769.782,-304.146 827.934,-307.139"/>
<polygon fill="midnightblue" stroke="midnightblue" points="828.028,-310.648 838.192,-307.657 828.382,-303.657 828.028,-310.648"/>
</g>
<!-- Node36 -->
<g id="node36" class="node"><title>Node36</title>
<g id="a_node36"><a xlink:href="../../d3/dff/class_cell_society.html#a5c0b747b2fbaaa317266890c48e0267f" target="_top" xlink:title="CellSociety.populateLocations">
<polygon fill="white" stroke="black" points="634,-339.5 634,-358.5 792,-358.5 792,-339.5 634,-339.5"/>
<text text-anchor="middle" x="713" y="-346.5" font-family="Helvetica,sans-Serif" font-size="10.00">CellSociety.populateLocations</text>
</a>
</g>
</g>
<!-- Node33&#45;&gt;Node36 -->
<g id="edge41" class="edge"><title>Node33&#45;&gt;Node36</title>
<path fill="none" stroke="midnightblue" d="M547.463,-282.513C561.046,-286.064 575.416,-290.795 588,-297 606.18,-305.964 605.87,-315.935 624,-325 633.338,-329.669 643.703,-333.525 653.947,-336.677"/>
<polygon fill="midnightblue" stroke="midnightblue" points="653.115,-340.08 663.693,-339.487 655.054,-333.354 653.115,-340.08"/>
</g>
<!-- Node34&#45;&gt;Node35 -->
<g id="edge40" class="edge"><title>Node34&#45;&gt;Node35</title>
<path fill="none" stroke="midnightblue" d="M764.963,-282.54C792.594,-287.712 826.933,-294.14 855.981,-299.578"/>
<polygon fill="midnightblue" stroke="midnightblue" points="855.542,-303.056 866.016,-301.456 856.83,-296.176 855.542,-303.056"/>
</g>
<!-- Node36&#45;&gt;Node35 -->
<g id="edge43" class="edge"><title>Node36&#45;&gt;Node35</title>
<path fill="none" stroke="midnightblue" d="M764.963,-339.46C792.594,-334.288 826.933,-327.86 855.981,-322.422"/>
<polygon fill="midnightblue" stroke="midnightblue" points="856.83,-325.824 866.016,-320.544 855.542,-318.944 856.83,-325.824"/>
</g>
<!-- Node37 -->
<g id="node37" class="node"><title>Node37</title>
<g id="a_node37"><a xlink:href="../../d3/dff/class_cell_society.html#a42451b17e2bca5fd025c8d4ea74310ca" target="_top" xlink:title="CellSociety.stringToIntArray">
<polygon fill="white" stroke="black" points="845.5,-339.5 845.5,-358.5 990.5,-358.5 990.5,-339.5 845.5,-339.5"/>
<text text-anchor="middle" x="918" y="-346.5" font-family="Helvetica,sans-Serif" font-size="10.00">CellSociety.stringToIntArray</text>
</a>
</g>
</g>
<!-- Node36&#45;&gt;Node37 -->
<g id="edge42" class="edge"><title>Node36&#45;&gt;Node37</title>
<path fill="none" stroke="midnightblue" d="M792.195,-349C806.305,-349 821.051,-349 835.26,-349"/>
<polygon fill="midnightblue" stroke="midnightblue" points="835.494,-352.5 845.494,-349 835.494,-345.5 835.494,-352.5"/>
</g>
<!-- Node38&#45;&gt;Node5 -->
<g id="edge46" class="edge"><title>Node38&#45;&gt;Node5</title>
<path fill="none" stroke="midnightblue" d="M568.247,-354.944C575.616,-358.042 582.427,-362.273 588,-368 651.597,-433.357 560.697,-504.358 624,-570 632.561,-578.877 644.205,-584.087 656.218,-587.047"/>
<polygon fill="midnightblue" stroke="midnightblue" points="655.849,-590.542 666.336,-589.036 657.199,-583.673 655.849,-590.542"/>
</g>
<!-- Node41&#45;&gt;Node22 -->
<g id="edge55" class="edge"><title>Node41&#45;&gt;Node22</title>
<path fill="none" stroke="midnightblue" d="M351.866,-263.454C357.093,-260.702 361.91,-257.269 366,-253 425.155,-191.253 336.121,-118.515 402,-64 474.619,-3.90799 592.966,-26.0372 660.486,-46.0129"/>
<polygon fill="midnightblue" stroke="midnightblue" points="659.481,-49.3657 670.067,-48.9345 661.523,-42.67 659.481,-49.3657"/>
</g>
</g>
</svg>
        <g id="navigator" transform="translate(0 0)" fill="#404254">
                <rect fill="#f2f5e9" fill-opacity="0.5" stroke="#606060" stroke-width=".5" x="0" y="0" width="60" height="60"/>
                <use id="zoomplus" xlink:href="#zoomPlus" x="17" y="9" onmousedown="handleZoom(evt,'in')"/>
                <use id="zoomminus" xlink:href="#zoomMin" x="42" y="9" onmousedown="handleZoom(evt,'out')"/>
                <use id="reset" xlink:href="#resetDef" x="30" y="36" onmousedown="handleReset()"/>
                <g id="arrowUp" xlink:href="#dirArrow" transform="translate(30 24)" onmousedown="handlePan(0,-1)">
                  <use xlink:href="#rim" fill="#404040">
                        <set attributeName="fill" to="#808080" begin="arrowUp.mouseover" end="arrowUp.mouseout"/>
                  </use>
                  <path fill="none" stroke="white" stroke-width="1.5" d="M0,-3.0v7 M-2.5,-0.5L0,-3.0L2.5,-0.5"/>
                </g>
                <g id="arrowRight" xlink:href="#dirArrow" transform="rotate(90) translate(36 -43)" onmousedown="handlePan(1,0)">
                  <use xlink:href="#rim" fill="#404040">
                        <set attributeName="fill" to="#808080" begin="arrowRight.mouseover" end="arrowRight.mouseout"/>
                  </use>
                  <path fill="none" stroke="white" stroke-width="1.5" d="M0,-3.0v7 M-2.5,-0.5L0,-3.0L2.5,-0.5"/>
                </g>
                <g id="arrowDown" xlink:href="#dirArrow" transform="rotate(180) translate(-30 -48)" onmousedown="handlePan(0,1)">
                  <use xlink:href="#rim" fill="#404040">
                        <set attributeName="fill" to="#808080" begin="arrowDown.mouseover" end="arrowDown.mouseout"/>
                  </use>
                  <path fill="none" stroke="white" stroke-width="1.5" d="M0,-3.0v7 M-2.5,-0.5L0,-3.0L2.5,-0.5"/>
                </g>
                <g id="arrowLeft" xlink:href="#dirArrow" transform="rotate(270) translate(-36 17)" onmousedown="handlePan(-1,0)">
                  <use xlink:href="#rim" fill="#404040">
                        <set attributeName="fill" to="#808080" begin="arrowLeft.mouseover" end="arrowLeft.mouseout"/>
                  </use>
                  <path fill="none" stroke="white" stroke-width="1.5" d="M0,-3.0v7 M-2.5,-0.5L0,-3.0L2.5,-0.5"/>
                </g>
        </g>
        <svg viewBox="0 0 15 15" width="100%" height="30px" preserveAspectRatio="xMaxYMin meet">
         <g id="arrow_out" transform="scale(0.3 0.3)">
          <a xlink:href="class_cell_society_a656ff46d1459fb7f86b42e3c542506ee_cgraph_org.svg" target="_base">
           <rect id="button" ry="5" rx="5" y="6" x="6" height="38" width="38"
                fill="#f2f5e9" fill-opacity="0.5" stroke="#606060" stroke-width="1.0"/>
           <path id="arrow"
             d="M 11.500037,31.436501 C 11.940474,20.09759 22.043105,11.32322 32.158766,21.979434 L 37.068811,17.246167 C 37.068811,17.246167 37.088388,32 37.088388,32 L 22.160133,31.978069 C 22.160133,31.978069 26.997745,27.140456 26.997745,27.140456 C 18.528582,18.264221 13.291696,25.230495 11.500037,31.436501 z"
             style="fill:#404040;"/>
          </a>
         </g>
        </svg>
</svg>
