<?xml version="1.0" encoding="UTF-8" standalone="no"?>
<!DOCTYPE svg PUBLIC "-//W3C//DTD SVG 1.1//EN"
 "http://www.w3.org/Graphics/SVG/1.1/DTD/svg11.dtd">
<!-- Generated by graphviz version 2.36.0 (20140111.2315)
 -->
<!-- Title: CellSociety.increaseFrameRate Pages: 1 -->
<svg width="1248pt" height="192pt"
 viewBox="0.00 0.00 1248.00 192.00" xmlns="http://www.w3.org/2000/svg" xmlns:xlink="http://www.w3.org/1999/xlink">
<g id="graph0" class="graph" transform="scale(1 1) rotate(0) translate(4 188)">
<title>CellSociety.increaseFrameRate</title>
<polygon fill="white" stroke="none" points="-4,4 -4,-188 1244,-188 1244,4 -4,4"/>
<!-- Node1 -->
<g id="node1" class="node"><title>Node1</title>
<polygon fill="#bfbfbf" stroke="black" points="0.5,-107.5 0.5,-126.5 163.5,-126.5 163.5,-107.5 0.5,-107.5"/>
<text text-anchor="middle" x="82" y="-114.5" font-family="Helvetica,sans-Serif" font-size="10.00">CellSociety.increaseFrameRate</text>
</g>
<!-- Node2 -->
<g id="node2" class="node"><title>Node2</title>
<g id="a_node2"><a xlink:href="../../d3/dff/class_cell_society.html#adc5feda3db5472cea4e092d463681033" target="_top" xlink:title="CellSociety.reframeTimeline">
<polygon fill="white" stroke="black" points="200.5,-107.5 200.5,-126.5 349.5,-126.5 349.5,-107.5 200.5,-107.5"/>
<text text-anchor="middle" x="275" y="-114.5" font-family="Helvetica,sans-Serif" font-size="10.00">CellSociety.reframeTimeline</text>
</a>
</g>
</g>
<!-- Node1&#45;&gt;Node2 -->
<g id="edge1" class="edge"><title>Node1&#45;&gt;Node2</title>
<path fill="none" stroke="midnightblue" d="M163.724,-117C172.433,-117 181.309,-117 190.054,-117"/>
<polygon fill="midnightblue" stroke="midnightblue" points="190.241,-120.5 200.241,-117 190.241,-113.5 190.241,-120.5"/>
</g>
<!-- Node3 -->
<g id="node3" class="node"><title>Node3</title>
<g id="a_node3"><a xlink:href="../../df/df8/class_cell_society_view.html#a99eb733c00ed7c1bcba8f2d684791a09" target="_top" xlink:title="CellSocietyView.displayFrameRate">
<polygon fill="white" stroke="black" points="386,-126.5 386,-145.5 564,-145.5 564,-126.5 386,-126.5"/>
<text text-anchor="middle" x="475" y="-133.5" font-family="Helvetica,sans-Serif" font-size="10.00">CellSocietyView.displayFrameRate</text>
</a>
</g>
</g>
<!-- Node2&#45;&gt;Node3 -->
<g id="edge2" class="edge"><title>Node2&#45;&gt;Node3</title>
<path fill="none" stroke="midnightblue" d="M349.728,-124.075C358.184,-124.886 366.903,-125.723 375.616,-126.559"/>
<polygon fill="midnightblue" stroke="midnightblue" points="375.537,-130.068 385.825,-127.539 376.206,-123.1 375.537,-130.068"/>
</g>
<!-- Node4 -->
<g id="node4" class="node"><title>Node4</title>
<g id="a_node4"><a xlink:href="../../d3/dff/class_cell_society.html#abf13a64ee79f2cb063447b499c695c58" target="_top" xlink:title="CellSociety.start">
<polygon fill="white" stroke="black" points="428.5,-88.5 428.5,-107.5 521.5,-107.5 521.5,-88.5 428.5,-88.5"/>
<text text-anchor="middle" x="475" y="-95.5" font-family="Helvetica,sans-Serif" font-size="10.00">CellSociety.start</text>
</a>
</g>
</g>
<!-- Node2&#45;&gt;Node4 -->
<g id="edge3" class="edge"><title>Node2&#45;&gt;Node4</title>
<path fill="none" stroke="midnightblue" d="M349.728,-109.925C372.405,-107.749 396.978,-105.391 418.24,-103.351"/>
<polygon fill="midnightblue" stroke="midnightblue" points="418.768,-106.816 428.388,-102.377 418.1,-99.8482 418.768,-106.816"/>
</g>
<!-- Node5 -->
<g id="node5" class="node"><title>Node5</title>
<g id="a_node5"><a xlink:href="../../d3/dff/class_cell_society.html#a0ff19c30a1cc433d8ea8444f6a5617f1" target="_top" xlink:title="CellSociety.updateGrid">
<polygon fill="white" stroke="black" points="600,-88.5 600,-107.5 724,-107.5 724,-88.5 600,-88.5"/>
<text text-anchor="middle" x="662" y="-95.5" font-family="Helvetica,sans-Serif" font-size="10.00">CellSociety.updateGrid</text>
</a>
</g>
</g>
<!-- Node4&#45;&gt;Node5 -->
<g id="edge4" class="edge"><title>Node4&#45;&gt;Node5</title>
<path fill="none" stroke="midnightblue" d="M521.73,-98C542.236,-98 566.903,-98 589.743,-98"/>
<polygon fill="midnightblue" stroke="midnightblue" points="589.743,-101.5 599.743,-98 589.743,-94.5001 589.743,-101.5"/>
</g>
<!-- Node6 -->
<g id="node6" class="node"><title>Node6</title>
<g id="a_node6"><a xlink:href="../../d3/dff/class_cell_society.html#a64ebaee33d25e0e730024e67d5582c63" target="_top" xlink:title="CellSociety.updateColors">
<polygon fill="white" stroke="black" points="776,-126.5 776,-145.5 910,-145.5 910,-126.5 776,-126.5"/>
<text text-anchor="middle" x="843" y="-133.5" font-family="Helvetica,sans-Serif" font-size="10.00">CellSociety.updateColors</text>
</a>
</g>
</g>
<!-- Node5&#45;&gt;Node6 -->
<g id="edge5" class="edge"><title>Node5&#45;&gt;Node6</title>
<path fill="none" stroke="midnightblue" d="M708.169,-107.589C732.216,-112.694 761.974,-119.011 787.319,-124.392"/>
<polygon fill="midnightblue" stroke="midnightblue" points="786.647,-127.827 797.156,-126.48 788.1,-120.98 786.647,-127.827"/>
</g>
<!-- Node8 -->
<g id="node8" class="node"><title>Node8</title>
<g id="a_node8"><a xlink:href="../../d2/d95/class_x_m_l_parser.html#ac4e3257aed1deb9fe950149f706fce5b" target="_top" xlink:title="XMLParser.getCellParamList">
<polygon fill="white" stroke="black" points="962.5,-164.5 962.5,-183.5 1111.5,-183.5 1111.5,-164.5 962.5,-164.5"/>
<text text-anchor="middle" x="1037" y="-171.5" font-family="Helvetica,sans-Serif" font-size="10.00">XMLParser.getCellParamList</text>
</a>
</g>
</g>
<!-- Node5&#45;&gt;Node8 -->
<g id="edge13" class="edge"><title>Node5&#45;&gt;Node8</title>
<path fill="none" stroke="midnightblue" d="M674.982,-107.564C692.483,-120.917 726.598,-144.668 760,-155 822.419,-174.309 896.434,-178.462 952.096,-178.114"/>
<polygon fill="midnightblue" stroke="midnightblue" points="952.31,-181.612 962.269,-177.999 952.231,-174.612 952.31,-181.612"/>
</g>
<!-- Node10 -->
<g id="node10" class="node"><title>Node10</title>
<g id="a_node10"><a xlink:href="../../d8/d87/class_controller.html#aa8f10b5f28542d34053a7e4d5f1d6013" target="_top" xlink:title="Controller.runOneSim">
<polygon fill="white" stroke="black" points="783.5,-88.5 783.5,-107.5 902.5,-107.5 902.5,-88.5 783.5,-88.5"/>
<text text-anchor="middle" x="843" y="-95.5" font-family="Helvetica,sans-Serif" font-size="10.00">Controller.runOneSim</text>
</a>
</g>
</g>
<!-- Node5&#45;&gt;Node10 -->
<g id="edge9" class="edge"><title>Node5&#45;&gt;Node10</title>
<path fill="none" stroke="midnightblue" d="M724.101,-98C739.803,-98 756.807,-98 772.883,-98"/>
<polygon fill="midnightblue" stroke="midnightblue" points="773.291,-101.5 783.291,-98 773.291,-94.5001 773.291,-101.5"/>
</g>
<!-- Node11 -->
<g id="node11" class="node"><title>Node11</title>
<g id="a_node11"><a xlink:href="../../df/df8/class_cell_society_view.html#a43ac2666d3a002024be53fe74028a576" target="_top" xlink:title="CellSocietyView.updateSimGrid">
<polygon fill="white" stroke="black" points="760.5,-0.5 760.5,-19.5 925.5,-19.5 925.5,-0.5 760.5,-0.5"/>
<text text-anchor="middle" x="843" y="-7.5" font-family="Helvetica,sans-Serif" font-size="10.00">CellSocietyView.updateSimGrid</text>
</a>
</g>
</g>
<!-- Node5&#45;&gt;Node11 -->
<g id="edge10" class="edge"><title>Node5&#45;&gt;Node11</title>
<path fill="none" stroke="midnightblue" d="M673.474,-88.4003C690.385,-73.4258 725.325,-44.6093 760,-29 765.463,-26.5406 771.28,-24.3816 777.197,-22.4899"/>
<polygon fill="midnightblue" stroke="midnightblue" points="778.594,-25.7274 787.204,-19.5527 776.623,-19.0107 778.594,-25.7274"/>
</g>
<!-- Node14 -->
<g id="node14" class="node"><title>Node14</title>
<g id="a_node14"><a xlink:href="../../df/df8/class_cell_society_view.html#a7ca77bdfdef97e9be9c9941c2f4d3513" target="_top" xlink:title="CellSocietyView.updateChart\lLines">
<polygon fill="white" stroke="black" points="766.5,-39 766.5,-69 919.5,-69 919.5,-39 766.5,-39"/>
<text text-anchor="start" x="774.5" y="-57" font-family="Helvetica,sans-Serif" font-size="10.00">CellSocietyView.updateChart</text>
<text text-anchor="middle" x="843" y="-46" font-family="Helvetica,sans-Serif" font-size="10.00">Lines</text>
</a>
</g>
</g>
<!-- Node5&#45;&gt;Node14 -->
<g id="edge14" class="edge"><title>Node5&#45;&gt;Node14</title>
<path fill="none" stroke="midnightblue" d="M701.84,-88.4527C721.994,-83.4988 747.257,-77.2888 770.764,-71.5105"/>
<polygon fill="midnightblue" stroke="midnightblue" points="771.836,-74.8513 780.711,-69.0654 770.165,-68.0537 771.836,-74.8513"/>
</g>
<!-- Node7 -->
<g id="node7" class="node"><title>Node7</title>
<g id="a_node7"><a xlink:href="../../dd/d11/class_cell.html#a7f8d2520a26a1376a44372149e561f6b" target="_top" xlink:title="Cell.toString">
<polygon fill="white" stroke="black" points="999.5,-66.5 999.5,-85.5 1074.5,-85.5 1074.5,-66.5 999.5,-66.5"/>
<text text-anchor="middle" x="1037" y="-73.5" font-family="Helvetica,sans-Serif" font-size="10.00">Cell.toString</text>
</a>
</g>
</g>
<!-- Node6&#45;&gt;Node7 -->
<g id="edge6" class="edge"><title>Node6&#45;&gt;Node7</title>
<path fill="none" stroke="midnightblue" d="M889.818,-126.484C901.682,-123.72 914.385,-120.494 926,-117 952.571,-109.006 981.993,-97.9184 1003.72,-89.2887"/>
<polygon fill="midnightblue" stroke="midnightblue" points="1005.14,-92.4885 1013.12,-85.5166 1002.53,-85.9919 1005.14,-92.4885"/>
</g>
<!-- Node6&#45;&gt;Node8 -->
<g id="edge7" class="edge"><title>Node6&#45;&gt;Node8</title>
<path fill="none" stroke="midnightblue" d="M892.45,-145.589C918.471,-150.739 950.728,-157.123 978.069,-162.534"/>
<polygon fill="midnightblue" stroke="midnightblue" points="977.409,-165.972 987.899,-164.48 978.769,-159.105 977.409,-165.972"/>
</g>
<!-- Node9 -->
<g id="node9" class="node"><title>Node9</title>
<g id="a_node9"><a xlink:href="../../dd/d11/class_cell.html#a03cf6177b031a2270a723aa5977b812e" target="_top" xlink:title="Cell.setColor">
<polygon fill="white" stroke="black" points="998.5,-126.5 998.5,-145.5 1075.5,-145.5 1075.5,-126.5 998.5,-126.5"/>
<text text-anchor="middle" x="1037" y="-133.5" font-family="Helvetica,sans-Serif" font-size="10.00">Cell.setColor</text>
</a>
</g>
</g>
<!-- Node6&#45;&gt;Node9 -->
<g id="edge8" class="edge"><title>Node6&#45;&gt;Node9</title>
<path fill="none" stroke="midnightblue" d="M910.076,-136C935.777,-136 964.658,-136 988.272,-136"/>
<polygon fill="midnightblue" stroke="midnightblue" points="988.382,-139.5 998.382,-136 988.382,-132.5 988.382,-139.5"/>
</g>
<!-- Node12 -->
<g id="node12" class="node"><title>Node12</title>
<g id="a_node12"><a xlink:href="../../da/d74/class_grid.html#a35a1ac27af1320c129643842e74a904b" target="_top" xlink:title="Grid.update">
<polygon fill="white" stroke="black" points="1000.5,-0.5 1000.5,-19.5 1073.5,-19.5 1073.5,-0.5 1000.5,-0.5"/>
<text text-anchor="middle" x="1037" y="-7.5" font-family="Helvetica,sans-Serif" font-size="10.00">Grid.update</text>
</a>
</g>
</g>
<!-- Node11&#45;&gt;Node12 -->
<g id="edge11" class="edge"><title>Node11&#45;&gt;Node12</title>
<path fill="none" stroke="midnightblue" d="M925.704,-10C947.852,-10 971.039,-10 990.405,-10"/>
<polygon fill="midnightblue" stroke="midnightblue" points="990.448,-13.5001 1000.45,-10 990.448,-6.5001 990.448,-13.5001"/>
</g>
<!-- Node13 -->
<g id="node13" class="node"><title>Node13</title>
<g id="a_node13"><a xlink:href="../../da/d74/class_grid.html#a12ccb8909871030fc2e2839dff169f3a" target="_top" xlink:title="Grid.displayGrid">
<polygon fill="white" stroke="black" points="1148,-0.5 1148,-19.5 1240,-19.5 1240,-0.5 1148,-0.5"/>
<text text-anchor="middle" x="1194" y="-7.5" font-family="Helvetica,sans-Serif" font-size="10.00">Grid.displayGrid</text>
</a>
</g>
</g>
<!-- Node12&#45;&gt;Node13 -->
<g id="edge12" class="edge"><title>Node12&#45;&gt;Node13</title>
<path fill="none" stroke="midnightblue" d="M1073.56,-10C1092.53,-10 1116.3,-10 1137.63,-10"/>
<polygon fill="midnightblue" stroke="midnightblue" points="1137.87,-13.5001 1147.87,-10 1137.87,-6.5001 1137.87,-13.5001"/>
</g>
<!-- Node14&#45;&gt;Node7 -->
<g id="edge15" class="edge"><title>Node14&#45;&gt;Node7</title>
<path fill="none" stroke="midnightblue" d="M919.608,-62.6634C943.038,-65.3482 968.168,-68.2276 989.059,-70.6213"/>
<polygon fill="midnightblue" stroke="midnightblue" points="988.922,-74.1285 999.256,-71.7897 989.719,-67.174 988.922,-74.1285"/>
</g>
</g>
</svg>
