<?xml version="1.0" encoding="UTF-8" standalone="no"?>
<!DOCTYPE svg PUBLIC "-//W3C//DTD SVG 1.1//EN"
 "http://www.w3.org/Graphics/SVG/1.1/DTD/svg11.dtd">
<!-- Generated by graphviz version 2.36.0 (20140111.2315)
 -->
<!-- Title: CellSociety.decreaseFrameRate Pages: 1 -->
<svg width="1124pt" height="192pt"
 viewBox="0.00 0.00 1124.00 192.00" xmlns="http://www.w3.org/2000/svg" xmlns:xlink="http://www.w3.org/1999/xlink">
<g id="graph0" class="graph" transform="scale(1 1) rotate(0) translate(4 188)">
<title>CellSociety.decreaseFrameRate</title>
<polygon fill="white" stroke="none" points="-4,4 -4,-188 1120,-188 1120,4 -4,4"/>
<!-- Node1 -->
<g id="node1" class="node"><title>Node1</title>
<polygon fill="#bfbfbf" stroke="black" points="0.5,-95.5 0.5,-114.5 167.5,-114.5 167.5,-95.5 0.5,-95.5"/>
<text text-anchor="middle" x="84" y="-102.5" font-family="Helvetica,sans-Serif" font-size="10.00">CellSociety.decreaseFrameRate</text>
</g>
<!-- Node2 -->
<g id="node2" class="node"><title>Node2</title>
<g id="a_node2"><a xlink:href="../../d3/dff/class_cell_society.html#adc5feda3db5472cea4e092d463681033" target="_top" xlink:title="CellSociety.reframeTimeline">
<polygon fill="white" stroke="black" points="204.5,-95.5 204.5,-114.5 353.5,-114.5 353.5,-95.5 204.5,-95.5"/>
<text text-anchor="middle" x="279" y="-102.5" font-family="Helvetica,sans-Serif" font-size="10.00">CellSociety.reframeTimeline</text>
</a>
</g>
</g>
<!-- Node1&#45;&gt;Node2 -->
<g id="edge1" class="edge"><title>Node1&#45;&gt;Node2</title>
<path fill="none" stroke="midnightblue" d="M167.689,-105C176.44,-105 185.346,-105 194.11,-105"/>
<polygon fill="midnightblue" stroke="midnightblue" points="194.316,-108.5 204.316,-105 194.316,-101.5 194.316,-108.5"/>
</g>
<!-- Node3 -->
<g id="node3" class="node"><title>Node3</title>
<g id="a_node3"><a xlink:href="../../df/df8/class_cell_society_view.html#a99eb733c00ed7c1bcba8f2d684791a09" target="_top" xlink:title="CellSocietyView.displayFrameRate">
<polygon fill="white" stroke="black" points="390,-114.5 390,-133.5 568,-133.5 568,-114.5 390,-114.5"/>
<text text-anchor="middle" x="479" y="-121.5" font-family="Helvetica,sans-Serif" font-size="10.00">CellSocietyView.displayFrameRate</text>
</a>
</g>
</g>
<!-- Node2&#45;&gt;Node3 -->
<g id="edge2" class="edge"><title>Node2&#45;&gt;Node3</title>
<path fill="none" stroke="midnightblue" d="M353.728,-112.075C362.184,-112.886 370.903,-113.723 379.616,-114.559"/>
<polygon fill="midnightblue" stroke="midnightblue" points="379.537,-118.068 389.825,-115.539 380.206,-111.1 379.537,-118.068"/>
</g>
<!-- Node4 -->
<g id="node4" class="node"><title>Node4</title>
<g id="a_node4"><a xlink:href="../../d3/dff/class_cell_society.html#abf13a64ee79f2cb063447b499c695c58" target="_top" xlink:title="CellSociety.start">
<polygon fill="white" stroke="black" points="432.5,-76.5 432.5,-95.5 525.5,-95.5 525.5,-76.5 432.5,-76.5"/>
<text text-anchor="middle" x="479" y="-83.5" font-family="Helvetica,sans-Serif" font-size="10.00">CellSociety.start</text>
</a>
</g>
</g>
<!-- Node2&#45;&gt;Node4 -->
<g id="edge3" class="edge"><title>Node2&#45;&gt;Node4</title>
<path fill="none" stroke="midnightblue" d="M353.728,-97.9251C376.405,-95.749 400.978,-93.391 422.24,-91.3507"/>
<polygon fill="midnightblue" stroke="midnightblue" points="422.768,-94.8162 432.388,-90.3769 422.1,-87.8482 422.768,-94.8162"/>
</g>
<!-- Node5 -->
<g id="node5" class="node"><title>Node5</title>
<g id="a_node5"><a xlink:href="../../d3/dff/class_cell_society.html#a0ff19c30a1cc433d8ea8444f6a5617f1" target="_top" xlink:title="CellSociety.updateGrid">
<polygon fill="white" stroke="black" points="604,-76.5 604,-95.5 728,-95.5 728,-76.5 604,-76.5"/>
<text text-anchor="middle" x="666" y="-83.5" font-family="Helvetica,sans-Serif" font-size="10.00">CellSociety.updateGrid</text>
</a>
</g>
</g>
<!-- Node4&#45;&gt;Node5 -->
<g id="edge4" class="edge"><title>Node4&#45;&gt;Node5</title>
<path fill="none" stroke="midnightblue" d="M525.73,-86C546.236,-86 570.903,-86 593.743,-86"/>
<polygon fill="midnightblue" stroke="midnightblue" points="593.743,-89.5001 603.743,-86 593.743,-82.5001 593.743,-89.5001"/>
</g>
<!-- Node6 -->
<g id="node6" class="node"><title>Node6</title>
<g id="a_node6"><a xlink:href="../../d8/d87/class_controller.html#aa8f10b5f28542d34053a7e4d5f1d6013" target="_top" xlink:title="Controller.runOneSim">
<polygon fill="white" stroke="black" points="787.5,-164.5 787.5,-183.5 906.5,-183.5 906.5,-164.5 787.5,-164.5"/>
<text text-anchor="middle" x="847" y="-171.5" font-family="Helvetica,sans-Serif" font-size="10.00">Controller.runOneSim</text>
</a>
</g>
</g>
<!-- Node5&#45;&gt;Node6 -->
<g id="edge5" class="edge"><title>Node5&#45;&gt;Node6</title>
<path fill="none" stroke="midnightblue" d="M677.801,-95.6464C694.881,-110.395 729.717,-138.471 764,-154 770.515,-156.951 777.527,-159.504 784.61,-161.704"/>
<polygon fill="midnightblue" stroke="midnightblue" points="783.693,-165.082 794.271,-164.487 785.631,-158.355 783.693,-165.082"/>
</g>
<!-- Node7 -->
<g id="node7" class="node"><title>Node7</title>
<g id="a_node7"><a xlink:href="../../d3/dff/class_cell_society.html#a64ebaee33d25e0e730024e67d5582c63" target="_top" xlink:title="CellSociety.updateColors">
<polygon fill="white" stroke="black" points="780,-76.5 780,-95.5 914,-95.5 914,-76.5 780,-76.5"/>
<text text-anchor="middle" x="847" y="-83.5" font-family="Helvetica,sans-Serif" font-size="10.00">CellSociety.updateColors</text>
</a>
</g>
</g>
<!-- Node5&#45;&gt;Node7 -->
<g id="edge6" class="edge"><title>Node5&#45;&gt;Node7</title>
<path fill="none" stroke="midnightblue" d="M728.101,-86C741.548,-86 755.95,-86 769.906,-86"/>
<polygon fill="midnightblue" stroke="midnightblue" points="769.97,-89.5001 779.97,-86 769.97,-82.5001 769.97,-89.5001"/>
</g>
<!-- Node9 -->
<g id="node9" class="node"><title>Node9</title>
<g id="a_node9"><a xlink:href="../../d2/d95/class_x_m_l_parser.html#ac4e3257aed1deb9fe950149f706fce5b" target="_top" xlink:title="XMLParser.getCellParamList">
<polygon fill="white" stroke="black" points="966.5,-49.5 966.5,-68.5 1115.5,-68.5 1115.5,-49.5 966.5,-49.5"/>
<text text-anchor="middle" x="1041" y="-56.5" font-family="Helvetica,sans-Serif" font-size="10.00">XMLParser.getCellParamList</text>
</a>
</g>
</g>
<!-- Node5&#45;&gt;Node9 -->
<g id="edge11" class="edge"><title>Node5&#45;&gt;Node9</title>
<path fill="none" stroke="midnightblue" d="M707.831,-76.4536C725.066,-72.8283 745.411,-69.0757 764,-67 828.247,-59.826 901.395,-57.9903 956.239,-57.8594"/>
<polygon fill="midnightblue" stroke="midnightblue" points="956.262,-61.3595 966.26,-57.8539 956.258,-54.3595 956.262,-61.3595"/>
</g>
<!-- Node10 -->
<g id="node10" class="node"><title>Node10</title>
<g id="a_node10"><a xlink:href="../../df/df8/class_cell_society_view.html#a43ac2666d3a002024be53fe74028a576" target="_top" xlink:title="CellSocietyView.updateSimGrid">
<polygon fill="white" stroke="black" points="764.5,-0.5 764.5,-19.5 929.5,-19.5 929.5,-0.5 764.5,-0.5"/>
<text text-anchor="middle" x="847" y="-7.5" font-family="Helvetica,sans-Serif" font-size="10.00">CellSocietyView.updateSimGrid</text>
</a>
</g>
</g>
<!-- Node5&#45;&gt;Node10 -->
<g id="edge9" class="edge"><title>Node5&#45;&gt;Node10</title>
<path fill="none" stroke="midnightblue" d="M682.639,-76.3022C701.413,-64.9742 734.114,-46.2295 764,-34 774.724,-29.6116 786.539,-25.6667 797.78,-22.3032"/>
<polygon fill="midnightblue" stroke="midnightblue" points="798.835,-25.6415 807.469,-19.5006 796.89,-18.9172 798.835,-25.6415"/>
</g>
<!-- Node12 -->
<g id="node12" class="node"><title>Node12</title>
<g id="a_node12"><a xlink:href="../../df/df8/class_cell_society_view.html#a7ca77bdfdef97e9be9c9941c2f4d3513" target="_top" xlink:title="CellSocietyView.updateChart\lLines">
<polygon fill="white" stroke="black" points="770.5,-115 770.5,-145 923.5,-145 923.5,-115 770.5,-115"/>
<text text-anchor="start" x="778.5" y="-133" font-family="Helvetica,sans-Serif" font-size="10.00">CellSocietyView.updateChart</text>
<text text-anchor="middle" x="847" y="-122" font-family="Helvetica,sans-Serif" font-size="10.00">Lines</text>
</a>
</g>
</g>
<!-- Node5&#45;&gt;Node12 -->
<g id="edge12" class="edge"><title>Node5&#45;&gt;Node12</title>
<path fill="none" stroke="midnightblue" d="M705.84,-95.5473C725.994,-100.501 751.257,-106.711 774.764,-112.49"/>
<polygon fill="midnightblue" stroke="midnightblue" points="774.165,-115.946 784.711,-114.935 775.836,-109.149 774.165,-115.946"/>
</g>
<!-- Node8 -->
<g id="node8" class="node"><title>Node8</title>
<g id="a_node8"><a xlink:href="../../dd/d11/class_cell.html#a7f8d2520a26a1376a44372149e561f6b" target="_top" xlink:title="Cell.toString">
<polygon fill="white" stroke="black" points="1003.5,-109.5 1003.5,-128.5 1078.5,-128.5 1078.5,-109.5 1003.5,-109.5"/>
<text text-anchor="middle" x="1041" y="-116.5" font-family="Helvetica,sans-Serif" font-size="10.00">Cell.toString</text>
</a>
</g>
</g>
<!-- Node7&#45;&gt;Node8 -->
<g id="edge7" class="edge"><title>Node7&#45;&gt;Node8</title>
<path fill="none" stroke="midnightblue" d="M903.277,-95.5007C931.764,-100.397 966.125,-106.303 993.273,-110.969"/>
<polygon fill="midnightblue" stroke="midnightblue" points="992.849,-114.447 1003.3,-112.692 994.035,-107.548 992.849,-114.447"/>
</g>
<!-- Node7&#45;&gt;Node9 -->
<g id="edge8" class="edge"><title>Node7&#45;&gt;Node9</title>
<path fill="none" stroke="midnightblue" d="M914.076,-76.7081C929.47,-74.5433 946.004,-72.2182 961.864,-69.9878"/>
<polygon fill="midnightblue" stroke="midnightblue" points="962.756,-73.397 972.171,-68.5385 961.781,-66.4652 962.756,-73.397"/>
</g>
<!-- Node11 -->
<g id="node11" class="node"><title>Node11</title>
<g id="a_node11"><a xlink:href="../../dd/d11/class_cell.html#adcdc17232ec0cff0752168e9846c39a8" target="_top" xlink:title="Cell.getShape">
<polygon fill="white" stroke="black" points="999.5,-0.5 999.5,-19.5 1082.5,-19.5 1082.5,-0.5 999.5,-0.5"/>
<text text-anchor="middle" x="1041" y="-7.5" font-family="Helvetica,sans-Serif" font-size="10.00">Cell.getShape</text>
</a>
</g>
</g>
<!-- Node10&#45;&gt;Node11 -->
<g id="edge10" class="edge"><title>Node10&#45;&gt;Node11</title>
<path fill="none" stroke="midnightblue" d="M929.704,-10C949.933,-10 971.029,-10 989.29,-10"/>
<polygon fill="midnightblue" stroke="midnightblue" points="989.401,-13.5001 999.401,-10 989.401,-6.5001 989.401,-13.5001"/>
</g>
<!-- Node12&#45;&gt;Node8 -->
<g id="edge13" class="edge"><title>Node12&#45;&gt;Node8</title>
<path fill="none" stroke="midnightblue" d="M923.608,-125.668C947.038,-124.326 972.168,-122.886 993.059,-121.689"/>
<polygon fill="midnightblue" stroke="midnightblue" points="993.473,-125.171 1003.26,-121.105 993.072,-118.183 993.473,-125.171"/>
</g>
</g>
</svg>
