<?xml version="1.0" encoding="UTF-8" standalone="no"?>
<!DOCTYPE svg PUBLIC "-//W3C//DTD SVG 1.1//EN"
 "http://www.w3.org/Graphics/SVG/1.1/DTD/svg11.dtd">
<!-- Generated by graphviz version 2.36.0 (20140111.2315)
 -->
<!-- Title: CellSociety.start Pages: 1 -->
<svg width="584pt" height="153pt"
 viewBox="0.00 0.00 584.00 153.00" xmlns="http://www.w3.org/2000/svg" xmlns:xlink="http://www.w3.org/1999/xlink">
<g id="graph0" class="graph" transform="scale(1 1) rotate(0) translate(4 149)">
<title>CellSociety.start</title>
<polygon fill="white" stroke="none" points="-4,4 -4,-149 580,-149 580,4 -4,4"/>
<!-- Node1 -->
<g id="node1" class="node"><title>Node1</title>
<polygon fill="#bfbfbf" stroke="black" points="0.5,-68.5 0.5,-87.5 93.5,-87.5 93.5,-68.5 0.5,-68.5"/>
<text text-anchor="middle" x="47" y="-75.5" font-family="Helvetica,sans-Serif" font-size="10.00">CellSociety.start</text>
</g>
<!-- Node2 -->
<g id="node2" class="node"><title>Node2</title>
<g id="a_node2"><a xlink:href="../../d3/dff/class_cell_society.html#a0ff19c30a1cc433d8ea8444f6a5617f1" target="_top" xlink:title="CellSociety.updateGrid">
<polygon fill="white" stroke="black" points="130,-68.5 130,-87.5 254,-87.5 254,-68.5 130,-68.5"/>
<text text-anchor="middle" x="192" y="-75.5" font-family="Helvetica,sans-Serif" font-size="10.00">CellSociety.updateGrid</text>
</a>
</g>
</g>
<!-- Node1&#45;&gt;Node2 -->
<g id="edge1" class="edge"><title>Node1&#45;&gt;Node2</title>
<path fill="none" stroke="midnightblue" d="M93.6393,-78C102.013,-78 110.934,-78 119.847,-78"/>
<polygon fill="midnightblue" stroke="midnightblue" points="119.878,-81.5001 129.878,-78 119.878,-74.5001 119.878,-81.5001"/>
</g>
<!-- Node3 -->
<g id="node3" class="node"><title>Node3</title>
<g id="a_node3"><a xlink:href="../../d8/d87/class_controller.html#aa8f10b5f28542d34053a7e4d5f1d6013" target="_top" xlink:title="Controller.runOneSim">
<polygon fill="white" stroke="black" points="313.5,-125.5 313.5,-144.5 432.5,-144.5 432.5,-125.5 313.5,-125.5"/>
<text text-anchor="middle" x="373" y="-132.5" font-family="Helvetica,sans-Serif" font-size="10.00">Controller.runOneSim</text>
</a>
</g>
</g>
<!-- Node2&#45;&gt;Node3 -->
<g id="edge2" class="edge"><title>Node2&#45;&gt;Node3</title>
<path fill="none" stroke="midnightblue" d="M214.635,-87.5261C234.083,-95.8348 263.568,-107.808 290,-116 298.126,-118.519 306.797,-120.874 315.345,-123.011"/>
<polygon fill="midnightblue" stroke="midnightblue" points="314.74,-126.465 325.283,-125.415 316.386,-119.662 314.74,-126.465"/>
</g>
<!-- Node4 -->
<g id="node4" class="node"><title>Node4</title>
<g id="a_node4"><a xlink:href="../../df/df8/class_cell_society_view.html#a43ac2666d3a002024be53fe74028a576" target="_top" xlink:title="CellSocietyView.updateSimGrid">
<polygon fill="white" stroke="black" points="290.5,-87.5 290.5,-106.5 455.5,-106.5 455.5,-87.5 290.5,-87.5"/>
<text text-anchor="middle" x="373" y="-94.5" font-family="Helvetica,sans-Serif" font-size="10.00">CellSocietyView.updateSimGrid</text>
</a>
</g>
</g>
<!-- Node2&#45;&gt;Node4 -->
<g id="edge3" class="edge"><title>Node2&#45;&gt;Node4</title>
<path fill="none" stroke="midnightblue" d="M254.101,-84.4856C262.563,-85.3838 271.404,-86.3222 280.273,-87.2636"/>
<polygon fill="midnightblue" stroke="midnightblue" points="279.967,-90.7507 290.281,-88.3259 280.706,-83.7898 279.967,-90.7507"/>
</g>
<!-- Node6 -->
<g id="node6" class="node"><title>Node6</title>
<g id="a_node6"><a xlink:href="../../d2/d95/class_x_m_l_parser.html#ac4e3257aed1deb9fe950149f706fce5b" target="_top" xlink:title="XMLParser.getCellParamList">
<polygon fill="white" stroke="black" points="298.5,-49.5 298.5,-68.5 447.5,-68.5 447.5,-49.5 298.5,-49.5"/>
<text text-anchor="middle" x="373" y="-56.5" font-family="Helvetica,sans-Serif" font-size="10.00">XMLParser.getCellParamList</text>
</a>
</g>
</g>
<!-- Node2&#45;&gt;Node6 -->
<g id="edge5" class="edge"><title>Node2&#45;&gt;Node6</title>
<path fill="none" stroke="midnightblue" d="M254.101,-71.5144C265.146,-70.342 276.835,-69.1013 288.392,-67.8746"/>
<polygon fill="midnightblue" stroke="midnightblue" points="288.92,-71.3383 298.495,-66.8022 288.181,-64.3774 288.92,-71.3383"/>
</g>
<!-- Node7 -->
<g id="node7" class="node"><title>Node7</title>
<g id="a_node7"><a xlink:href="../../df/df8/class_cell_society_view.html#a7ca77bdfdef97e9be9c9941c2f4d3513" target="_top" xlink:title="CellSocietyView.updateChart\lLines">
<polygon fill="white" stroke="black" points="296.5,-0 296.5,-30 449.5,-30 449.5,-0 296.5,-0"/>
<text text-anchor="start" x="304.5" y="-18" font-family="Helvetica,sans-Serif" font-size="10.00">CellSocietyView.updateChart</text>
<text text-anchor="middle" x="373" y="-7" font-family="Helvetica,sans-Serif" font-size="10.00">Lines</text>
</a>
</g>
</g>
<!-- Node2&#45;&gt;Node7 -->
<g id="edge6" class="edge"><title>Node2&#45;&gt;Node7</title>
<path fill="none" stroke="midnightblue" d="M215.939,-68.4332C235.477,-60.4252 264.375,-48.9104 290,-40 296.517,-37.7339 303.363,-35.4686 310.204,-33.2783"/>
<polygon fill="midnightblue" stroke="midnightblue" points="311.702,-36.4762 320.187,-30.1314 309.597,-29.8 311.702,-36.4762"/>
</g>
<!-- Node5 -->
<g id="node5" class="node"><title>Node5</title>
<g id="a_node5"><a xlink:href="../../dd/d11/class_cell.html#a1e0ece61fecc69a9b7986d17d925434a" target="_top" xlink:title="Cell.getShape">
<polygon fill="white" stroke="black" points="492.5,-87.5 492.5,-106.5 575.5,-106.5 575.5,-87.5 492.5,-87.5"/>
<text text-anchor="middle" x="534" y="-94.5" font-family="Helvetica,sans-Serif" font-size="10.00">Cell.getShape</text>
</a>
</g>
</g>
<!-- Node4&#45;&gt;Node5 -->
<g id="edge4" class="edge"><title>Node4&#45;&gt;Node5</title>
<path fill="none" stroke="midnightblue" d="M455.829,-97C464.809,-97 473.749,-97 482.191,-97"/>
<polygon fill="midnightblue" stroke="midnightblue" points="482.21,-100.5 492.21,-97 482.21,-93.5001 482.21,-100.5"/>
</g>
</g>
</svg>
