<?xml version="1.0" encoding="UTF-8" standalone="no"?>
<!DOCTYPE svg PUBLIC "-//W3C//DTD SVG 1.1//EN"
 "http://www.w3.org/Graphics/SVG/1.1/DTD/svg11.dtd">
<!-- Generated by graphviz version 2.36.0 (20140111.2315)
 -->
<!-- Title: CellSociety.start Pages: 1 -->
<svg width="778pt" height="192pt"
 viewBox="0.00 0.00 778.00 192.00" xmlns="http://www.w3.org/2000/svg" xmlns:xlink="http://www.w3.org/1999/xlink">
<g id="graph0" class="graph" transform="scale(1 1) rotate(0) translate(4 188)">
<title>CellSociety.start</title>
<polygon fill="white" stroke="none" points="-4,4 -4,-188 774,-188 774,4 -4,4"/>
<!-- Node1 -->
<g id="node1" class="node"><title>Node1</title>
<polygon fill="#bfbfbf" stroke="black" points="0.5,-88.5 0.5,-107.5 93.5,-107.5 93.5,-88.5 0.5,-88.5"/>
<text text-anchor="middle" x="47" y="-95.5" font-family="Helvetica,sans-Serif" font-size="10.00">CellSociety.start</text>
</g>
<!-- Node2 -->
<g id="node2" class="node"><title>Node2</title>
<g id="a_node2"><a xlink:href="../../d3/dff/class_cell_society.html#a0ff19c30a1cc433d8ea8444f6a5617f1" target="_top" xlink:title="CellSociety.updateGrid">
<polygon fill="white" stroke="black" points="130,-88.5 130,-107.5 254,-107.5 254,-88.5 130,-88.5"/>
<text text-anchor="middle" x="192" y="-95.5" font-family="Helvetica,sans-Serif" font-size="10.00">CellSociety.updateGrid</text>
</a>
</g>
</g>
<!-- Node1&#45;&gt;Node2 -->
<g id="edge1" class="edge"><title>Node1&#45;&gt;Node2</title>
<path fill="none" stroke="midnightblue" d="M93.6393,-98C102.013,-98 110.934,-98 119.847,-98"/>
<polygon fill="midnightblue" stroke="midnightblue" points="119.878,-101.5 129.878,-98 119.878,-94.5001 119.878,-101.5"/>
</g>
<!-- Node3 -->
<g id="node3" class="node"><title>Node3</title>
<g id="a_node3"><a xlink:href="../../d3/dff/class_cell_society.html#a64ebaee33d25e0e730024e67d5582c63" target="_top" xlink:title="CellSociety.updateColors">
<polygon fill="white" stroke="black" points="306,-126.5 306,-145.5 440,-145.5 440,-126.5 306,-126.5"/>
<text text-anchor="middle" x="373" y="-133.5" font-family="Helvetica,sans-Serif" font-size="10.00">CellSociety.updateColors</text>
</a>
</g>
</g>
<!-- Node2&#45;&gt;Node3 -->
<g id="edge2" class="edge"><title>Node2&#45;&gt;Node3</title>
<path fill="none" stroke="midnightblue" d="M238.169,-107.589C262.216,-112.694 291.974,-119.011 317.319,-124.392"/>
<polygon fill="midnightblue" stroke="midnightblue" points="316.647,-127.827 327.156,-126.48 318.1,-120.98 316.647,-127.827"/>
</g>
<!-- Node5 -->
<g id="node5" class="node"><title>Node5</title>
<g id="a_node5"><a xlink:href="../../d2/d95/class_x_m_l_parser.html#ac4e3257aed1deb9fe950149f706fce5b" target="_top" xlink:title="XMLParser.getCellParamList">
<polygon fill="white" stroke="black" points="492.5,-164.5 492.5,-183.5 641.5,-183.5 641.5,-164.5 492.5,-164.5"/>
<text text-anchor="middle" x="567" y="-171.5" font-family="Helvetica,sans-Serif" font-size="10.00">XMLParser.getCellParamList</text>
</a>
</g>
</g>
<!-- Node2&#45;&gt;Node5 -->
<g id="edge10" class="edge"><title>Node2&#45;&gt;Node5</title>
<path fill="none" stroke="midnightblue" d="M204.982,-107.564C222.483,-120.917 256.598,-144.668 290,-155 352.419,-174.309 426.434,-178.462 482.096,-178.114"/>
<polygon fill="midnightblue" stroke="midnightblue" points="482.31,-181.612 492.269,-177.999 482.231,-174.612 482.31,-181.612"/>
</g>
<!-- Node7 -->
<g id="node7" class="node"><title>Node7</title>
<g id="a_node7"><a xlink:href="../../d8/d87/class_controller.html#aa8f10b5f28542d34053a7e4d5f1d6013" target="_top" xlink:title="Controller.runOneSim">
<polygon fill="white" stroke="black" points="313.5,-88.5 313.5,-107.5 432.5,-107.5 432.5,-88.5 313.5,-88.5"/>
<text text-anchor="middle" x="373" y="-95.5" font-family="Helvetica,sans-Serif" font-size="10.00">Controller.runOneSim</text>
</a>
</g>
</g>
<!-- Node2&#45;&gt;Node7 -->
<g id="edge6" class="edge"><title>Node2&#45;&gt;Node7</title>
<path fill="none" stroke="midnightblue" d="M254.101,-98C269.803,-98 286.807,-98 302.883,-98"/>
<polygon fill="midnightblue" stroke="midnightblue" points="303.291,-101.5 313.291,-98 303.291,-94.5001 303.291,-101.5"/>
</g>
<!-- Node8 -->
<g id="node8" class="node"><title>Node8</title>
<g id="a_node8"><a xlink:href="../../df/df8/class_cell_society_view.html#a43ac2666d3a002024be53fe74028a576" target="_top" xlink:title="CellSocietyView.updateSimGrid">
<polygon fill="white" stroke="black" points="290.5,-0.5 290.5,-19.5 455.5,-19.5 455.5,-0.5 290.5,-0.5"/>
<text text-anchor="middle" x="373" y="-7.5" font-family="Helvetica,sans-Serif" font-size="10.00">CellSocietyView.updateSimGrid</text>
</a>
</g>
</g>
<!-- Node2&#45;&gt;Node8 -->
<g id="edge7" class="edge"><title>Node2&#45;&gt;Node8</title>
<path fill="none" stroke="midnightblue" d="M203.474,-88.4003C220.385,-73.4258 255.325,-44.6093 290,-29 295.463,-26.5406 301.28,-24.3816 307.197,-22.4899"/>
<polygon fill="midnightblue" stroke="midnightblue" points="308.594,-25.7274 317.204,-19.5527 306.623,-19.0107 308.594,-25.7274"/>
</g>
<!-- Node11 -->
<g id="node11" class="node"><title>Node11</title>
<g id="a_node11"><a xlink:href="../../df/df8/class_cell_society_view.html#a7ca77bdfdef97e9be9c9941c2f4d3513" target="_top" xlink:title="CellSocietyView.updateChart\lLines">
<polygon fill="white" stroke="black" points="296.5,-39 296.5,-69 449.5,-69 449.5,-39 296.5,-39"/>
<text text-anchor="start" x="304.5" y="-57" font-family="Helvetica,sans-Serif" font-size="10.00">CellSocietyView.updateChart</text>
<text text-anchor="middle" x="373" y="-46" font-family="Helvetica,sans-Serif" font-size="10.00">Lines</text>
</a>
</g>
</g>
<!-- Node2&#45;&gt;Node11 -->
<g id="edge11" class="edge"><title>Node2&#45;&gt;Node11</title>
<path fill="none" stroke="midnightblue" d="M231.84,-88.4527C251.994,-83.4988 277.257,-77.2888 300.764,-71.5105"/>
<polygon fill="midnightblue" stroke="midnightblue" points="301.836,-74.8513 310.711,-69.0654 300.165,-68.0537 301.836,-74.8513"/>
</g>
<!-- Node4 -->
<g id="node4" class="node"><title>Node4</title>
<g id="a_node4"><a xlink:href="../../dd/d11/class_cell.html#a7f8d2520a26a1376a44372149e561f6b" target="_top" xlink:title="Cell.toString">
<polygon fill="white" stroke="black" points="529.5,-66.5 529.5,-85.5 604.5,-85.5 604.5,-66.5 529.5,-66.5"/>
<text text-anchor="middle" x="567" y="-73.5" font-family="Helvetica,sans-Serif" font-size="10.00">Cell.toString</text>
</a>
</g>
</g>
<!-- Node3&#45;&gt;Node4 -->
<g id="edge3" class="edge"><title>Node3&#45;&gt;Node4</title>
<path fill="none" stroke="midnightblue" d="M419.818,-126.484C431.682,-123.72 444.385,-120.494 456,-117 482.571,-109.006 511.993,-97.9184 533.717,-89.2887"/>
<polygon fill="midnightblue" stroke="midnightblue" points="535.141,-92.4885 543.119,-85.5166 532.535,-85.9919 535.141,-92.4885"/>
</g>
<!-- Node3&#45;&gt;Node5 -->
<g id="edge4" class="edge"><title>Node3&#45;&gt;Node5</title>
<path fill="none" stroke="midnightblue" d="M422.45,-145.589C448.471,-150.739 480.728,-157.123 508.069,-162.534"/>
<polygon fill="midnightblue" stroke="midnightblue" points="507.409,-165.972 517.899,-164.48 508.769,-159.105 507.409,-165.972"/>
</g>
<!-- Node6 -->
<g id="node6" class="node"><title>Node6</title>
<g id="a_node6"><a xlink:href="../../dd/d11/class_cell.html#a03cf6177b031a2270a723aa5977b812e" target="_top" xlink:title="Cell.setColor">
<polygon fill="white" stroke="black" points="528.5,-126.5 528.5,-145.5 605.5,-145.5 605.5,-126.5 528.5,-126.5"/>
<text text-anchor="middle" x="567" y="-133.5" font-family="Helvetica,sans-Serif" font-size="10.00">Cell.setColor</text>
</a>
</g>
</g>
<!-- Node3&#45;&gt;Node6 -->
<g id="edge5" class="edge"><title>Node3&#45;&gt;Node6</title>
<path fill="none" stroke="midnightblue" d="M440.076,-136C465.777,-136 494.658,-136 518.272,-136"/>
<polygon fill="midnightblue" stroke="midnightblue" points="518.382,-139.5 528.382,-136 518.382,-132.5 518.382,-139.5"/>
</g>
<!-- Node9 -->
<g id="node9" class="node"><title>Node9</title>
<g id="a_node9"><a xlink:href="../../da/d74/class_grid.html#a35a1ac27af1320c129643842e74a904b" target="_top" xlink:title="Grid.update">
<polygon fill="white" stroke="black" points="530.5,-0.5 530.5,-19.5 603.5,-19.5 603.5,-0.5 530.5,-0.5"/>
<text text-anchor="middle" x="567" y="-7.5" font-family="Helvetica,sans-Serif" font-size="10.00">Grid.update</text>
</a>
</g>
</g>
<!-- Node8&#45;&gt;Node9 -->
<g id="edge8" class="edge"><title>Node8&#45;&gt;Node9</title>
<path fill="none" stroke="midnightblue" d="M455.704,-10C477.852,-10 501.039,-10 520.405,-10"/>
<polygon fill="midnightblue" stroke="midnightblue" points="520.448,-13.5001 530.448,-10 520.448,-6.5001 520.448,-13.5001"/>
</g>
<!-- Node10 -->
<g id="node10" class="node"><title>Node10</title>
<g id="a_node10"><a xlink:href="../../da/d74/class_grid.html#a12ccb8909871030fc2e2839dff169f3a" target="_top" xlink:title="Grid.displayGrid">
<polygon fill="white" stroke="black" points="678,-0.5 678,-19.5 770,-19.5 770,-0.5 678,-0.5"/>
<text text-anchor="middle" x="724" y="-7.5" font-family="Helvetica,sans-Serif" font-size="10.00">Grid.displayGrid</text>
</a>
</g>
</g>
<!-- Node9&#45;&gt;Node10 -->
<g id="edge9" class="edge"><title>Node9&#45;&gt;Node10</title>
<path fill="none" stroke="midnightblue" d="M603.56,-10C622.532,-10 646.302,-10 667.631,-10"/>
<polygon fill="midnightblue" stroke="midnightblue" points="667.874,-13.5001 677.874,-10 667.874,-6.5001 667.874,-13.5001"/>
</g>
<!-- Node11&#45;&gt;Node4 -->
<g id="edge12" class="edge"><title>Node11&#45;&gt;Node4</title>
<path fill="none" stroke="midnightblue" d="M449.608,-62.6634C473.038,-65.3482 498.168,-68.2276 519.059,-70.6213"/>
<polygon fill="midnightblue" stroke="midnightblue" points="518.922,-74.1285 529.256,-71.7897 519.719,-67.174 518.922,-74.1285"/>
</g>
</g>
</svg>
