<?xml version="1.0" encoding="UTF-8" standalone="no"?>
<!DOCTYPE svg PUBLIC "-//W3C//DTD SVG 1.1//EN"
 "http://www.w3.org/Graphics/SVG/1.1/DTD/svg11.dtd">
<!-- Generated by graphviz version 2.36.0 (20140111.2315)
 -->
<!-- Title: CellSociety.configureListeners Pages: 1 -->
<!--zoomable 632 -->
<svg id="main" version="1.1" xmlns="http://www.w3.org/2000/svg" xmlns:xlink="http://www.w3.org/1999/xlink" xml:space="preserve" onload="init(evt)">
<style type="text/css"><![CDATA[
.edge:hover path { stroke: red; }
.edge:hover polygon { stroke: red; fill: red; }
]]></style>
<script type="text/javascript"><![CDATA[
var edges = document.getElementsByTagName('g');
if (edges && edges.length) {
  for (var i=0;i<edges.length;i++) {
    if (edges[i].id.substr(0,4)=='edge') {
      edges[i].setAttribute('class','edge');
    }
  }
}
]]></script>
        <defs>
                <circle id="rim" cx="0" cy="0" r="7"/>
                <circle id="rim2" cx="0" cy="0" r="3.5"/>
                <g id="zoomPlus">
                        <use xlink:href="#rim" fill="#404040">
                                <set attributeName="fill" to="#808080" begin="zoomplus.mouseover" end="zoomplus.mouseout"/>
                        </use>
                        <path d="M-4,0h8M0,-4v8" fill="none" stroke="white" stroke-width="1.5" pointer-events="none"/>
                </g>
                <g id="zoomMin">
                        <use xlink:href="#rim" fill="#404040">
                                <set attributeName="fill" to="#808080" begin="zoomminus.mouseover" end="zoomminus.mouseout"/>
                        </use>
                        <path d="M-4,0h8" fill="none" stroke="white" stroke-width="1.5" pointer-events="none"/>
                </g>
                <g id="dirArrow">
                        <path fill="none" stroke="white" stroke-width="1.5" d="M0,-3.0v7 M-2.5,-0.5L0,-3.0L2.5,-0.5"/>
                </g>
               <g id="resetDef">
                       <use xlink:href="#rim2" fill="#404040">
                               <set attributeName="fill" to="#808080" begin="reset.mouseover" end="reset.mouseout"/>
                       </use>
               </g>
        </defs>

<script type="text/javascript">
var viewWidth = 1394;
var viewHeight = 632;
var sectionId = 'dynsection-2';
</script>
<script xlink:href="../../svgpan.js"/>
<svg id="graph" class="graph">
<g id="viewport">
<title>CellSociety.configureListeners</title>
<polygon fill="white" stroke="none" points="-4,4 -4,-627.75 1390,-627.75 1390,4 -4,4"/>
<!-- Node1 -->
<g id="node1" class="node"><title>Node1</title>
<polygon fill="#bfbfbf" stroke="black" points="0,-375.5 0,-394.5 158,-394.5 158,-375.5 0,-375.5"/>
<text text-anchor="middle" x="79" y="-382.5" font-family="Helvetica,sans-Serif" font-size="10.00">CellSociety.configureListeners</text>
</g>
<!-- Node2 -->
<g id="node2" class="node"><title>Node2</title>
<g id="a_node2"><a xlink:href="../../d3/dff/class_cell_society.html#a045267ba1843ca4a47891d7be73c2ac1" target="_top" xlink:title="CellSociety.decreaseFrameRate">
<polygon fill="white" stroke="black" points="196.5,-239.5 196.5,-258.5 363.5,-258.5 363.5,-239.5 196.5,-239.5"/>
<text text-anchor="middle" x="280" y="-246.5" font-family="Helvetica,sans-Serif" font-size="10.00">CellSociety.decreaseFrameRate</text>
</a>
</g>
</g>
<!-- Node1&#45;&gt;Node2 -->
<g id="edge1" class="edge"><title>Node1&#45;&gt;Node2</title>
<path fill="none" stroke="midnightblue" d="M86.4002,-375.306C101.919,-352.627 143.979,-295.924 194,-268 198.155,-265.681 202.573,-263.644 207.126,-261.857"/>
<polygon fill="midnightblue" stroke="midnightblue" points="208.344,-265.138 216.622,-258.525 206.027,-258.533 208.344,-265.138"/>
</g>
<!-- Node6 -->
<g id="node6" class="node"><title>Node6</title>
<g id="a_node6"><a xlink:href="../../d3/dff/class_cell_society.html#a0ff19c30a1cc433d8ea8444f6a5617f1" target="_top" xlink:title="CellSociety.updateGrid">
<polygon fill="white" stroke="black" points="856,-386.5 856,-405.5 980,-405.5 980,-386.5 856,-386.5"/>
<text text-anchor="middle" x="918" y="-393.5" font-family="Helvetica,sans-Serif" font-size="10.00">CellSociety.updateGrid</text>
</a>
</g>
</g>
<!-- Node1&#45;&gt;Node6 -->
<g id="edge45" class="edge"><title>Node1&#45;&gt;Node6</title>
<path fill="none" stroke="midnightblue" d="M81.8111,-394.75C88.8075,-429.26 117.59,-545.955 194,-591 303.917,-655.798 654.655,-616.199 802,-535 853.261,-506.751 890.963,-445.675 907.586,-414.752"/>
<polygon fill="midnightblue" stroke="midnightblue" points="910.884,-415.997 912.405,-405.511 904.678,-412.76 910.884,-415.997"/>
</g>
<!-- Node13 -->
<g id="node13" class="node"><title>Node13</title>
<g id="a_node13"><a xlink:href="../../df/df8/class_cell_society_view.html#ada088eb9125561f8dd941badb141fa86" target="_top" xlink:title="CellSocietyView.getPause\lElement">
<polygon fill="white" stroke="black" points="211.5,-529 211.5,-559 348.5,-559 348.5,-529 211.5,-529"/>
<text text-anchor="start" x="219.5" y="-547" font-family="Helvetica,sans-Serif" font-size="10.00">CellSocietyView.getPause</text>
<text text-anchor="middle" x="280" y="-536" font-family="Helvetica,sans-Serif" font-size="10.00">Element</text>
</a>
</g>
</g>
<!-- Node1&#45;&gt;Node13 -->
<g id="edge12" class="edge"><title>Node1&#45;&gt;Node13</title>
<path fill="none" stroke="midnightblue" d="M85.5182,-394.775C99.9743,-419.485 141.487,-484.898 194,-519 197.153,-521.047 200.478,-522.932 203.914,-524.665"/>
<polygon fill="midnightblue" stroke="midnightblue" points="202.676,-527.947 213.227,-528.911 205.58,-521.578 202.676,-527.947"/>
</g>
<!-- Node14 -->
<g id="node14" class="node"><title>Node14</title>
<g id="a_node14"><a xlink:href="../../df/df8/class_cell_society_view.html#aae7c36ea6b5215b0ba9ee01c72dfcb94" target="_top" xlink:title="CellSocietyView.getPlayElement">
<polygon fill="white" stroke="black" points="196,-490.5 196,-509.5 364,-509.5 364,-490.5 196,-490.5"/>
<text text-anchor="middle" x="280" y="-497.5" font-family="Helvetica,sans-Serif" font-size="10.00">CellSocietyView.getPlayElement</text>
</a>
</g>
</g>
<!-- Node1&#45;&gt;Node14 -->
<g id="edge13" class="edge"><title>Node1&#45;&gt;Node14</title>
<path fill="none" stroke="midnightblue" d="M88.6768,-394.79C106.434,-414.188 149.049,-457.566 194,-480 199.697,-482.843 205.813,-485.292 212.056,-487.399"/>
<polygon fill="midnightblue" stroke="midnightblue" points="211.344,-490.842 221.931,-490.436 213.402,-484.151 211.344,-490.842"/>
</g>
<!-- Node15 -->
<g id="node15" class="node"><title>Node15</title>
<g id="a_node15"><a xlink:href="../../df/df8/class_cell_society_view.html#a0f616a01579a7293ef781d3e341ea1ac" target="_top" xlink:title="CellSocietyView.getSlowdown\lElement">
<polygon fill="white" stroke="black" points="202.5,-441 202.5,-471 357.5,-471 357.5,-441 202.5,-441"/>
<text text-anchor="start" x="210.5" y="-459" font-family="Helvetica,sans-Serif" font-size="10.00">CellSocietyView.getSlowdown</text>
<text text-anchor="middle" x="280" y="-448" font-family="Helvetica,sans-Serif" font-size="10.00">Element</text>
</a>
</g>
</g>
<!-- Node1&#45;&gt;Node15 -->
<g id="edge14" class="edge"><title>Node1&#45;&gt;Node15</title>
<path fill="none" stroke="midnightblue" d="M102.038,-394.638C124.824,-404.427 161.547,-419.71 194,-431 200.792,-433.363 207.938,-435.696 215.082,-437.932"/>
<polygon fill="midnightblue" stroke="midnightblue" points="214.202,-441.324 224.789,-440.915 216.258,-434.632 214.202,-441.324"/>
</g>
<!-- Node16 -->
<g id="node16" class="node"><title>Node16</title>
<g id="a_node16"><a xlink:href="../../df/df8/class_cell_society_view.html#a572d464cbe7d186dc9a5b0e4a8130689" target="_top" xlink:title="CellSocietyView.getSpeedup\lElement">
<polygon fill="white" stroke="black" points="204,-392 204,-422 356,-422 356,-392 204,-392"/>
<text text-anchor="start" x="212" y="-410" font-family="Helvetica,sans-Serif" font-size="10.00">CellSocietyView.getSpeedup</text>
<text text-anchor="middle" x="280" y="-399" font-family="Helvetica,sans-Serif" font-size="10.00">Element</text>
</a>
</g>
</g>
<!-- Node1&#45;&gt;Node16 -->
<g id="edge15" class="edge"><title>Node1&#45;&gt;Node16</title>
<path fill="none" stroke="midnightblue" d="M158.079,-393.632C169.701,-394.917 181.733,-396.247 193.498,-397.547"/>
<polygon fill="midnightblue" stroke="midnightblue" points="193.427,-401.061 203.751,-398.681 194.196,-394.103 193.427,-401.061"/>
</g>
<!-- Node17 -->
<g id="node17" class="node"><title>Node17</title>
<g id="a_node17"><a xlink:href="../../df/df8/class_cell_society_view.html#a3c3a7039f77d392c374cd309967ca1cc" target="_top" xlink:title="CellSocietyView.getStepElement">
<polygon fill="white" stroke="black" points="194.5,-353.5 194.5,-372.5 365.5,-372.5 365.5,-353.5 194.5,-353.5"/>
<text text-anchor="middle" x="280" y="-360.5" font-family="Helvetica,sans-Serif" font-size="10.00">CellSocietyView.getStepElement</text>
</a>
</g>
</g>
<!-- Node1&#45;&gt;Node17 -->
<g id="edge16" class="edge"><title>Node1&#45;&gt;Node17</title>
<path fill="none" stroke="midnightblue" d="M158.079,-376.368C166.61,-375.425 175.361,-374.458 184.066,-373.495"/>
<polygon fill="midnightblue" stroke="midnightblue" points="184.692,-376.947 194.247,-372.37 183.922,-369.99 184.692,-376.947"/>
</g>
<!-- Node18 -->
<g id="node18" class="node"><title>Node18</title>
<g id="a_node18"><a xlink:href="../../df/df8/class_cell_society_view.html#aebad9aaff0e9784fec1518d319e03c85" target="_top" xlink:title="CellSocietyView.getXMLElement">
<polygon fill="white" stroke="black" points="196,-315.5 196,-334.5 364,-334.5 364,-315.5 196,-315.5"/>
<text text-anchor="middle" x="280" y="-322.5" font-family="Helvetica,sans-Serif" font-size="10.00">CellSocietyView.getXMLElement</text>
</a>
</g>
</g>
<!-- Node1&#45;&gt;Node18 -->
<g id="edge17" class="edge"><title>Node1&#45;&gt;Node18</title>
<path fill="none" stroke="midnightblue" d="M103.733,-375.479C126.596,-366.542 162.288,-353.207 194,-344 202.851,-341.43 212.306,-339.007 221.576,-336.806"/>
<polygon fill="midnightblue" stroke="midnightblue" points="222.568,-340.169 231.524,-334.509 220.993,-333.349 222.568,-340.169"/>
</g>
<!-- Node19 -->
<g id="node19" class="node"><title>Node19</title>
<g id="a_node19"><a xlink:href="../../d3/dff/class_cell_society.html#a8250bfacdaf51dabf6b9d1cafc0ce9b2" target="_top" xlink:title="CellSociety.increaseFrameRate">
<polygon fill="white" stroke="black" points="198.5,-277.5 198.5,-296.5 361.5,-296.5 361.5,-277.5 198.5,-277.5"/>
<text text-anchor="middle" x="280" y="-284.5" font-family="Helvetica,sans-Serif" font-size="10.00">CellSociety.increaseFrameRate</text>
</a>
</g>
</g>
<!-- Node1&#45;&gt;Node19 -->
<g id="edge18" class="edge"><title>Node1&#45;&gt;Node19</title>
<path fill="none" stroke="midnightblue" d="M90.7728,-375.352C110.044,-358.62 152.316,-324.264 194,-306 199.726,-303.491 205.82,-301.297 212.013,-299.381"/>
<polygon fill="midnightblue" stroke="midnightblue" points="213.13,-302.702 221.788,-296.595 211.211,-295.971 213.13,-302.702"/>
</g>
<!-- Node20 -->
<g id="node20" class="node"><title>Node20</title>
<g id="a_node20"><a xlink:href="../../d3/dff/class_cell_society.html#ae565a305ea53e5a37da9816a236b4fbc" target="_top" xlink:title="CellSociety.pauseAnimation">
<polygon fill="white" stroke="black" points="420.5,-501.5 420.5,-520.5 569.5,-520.5 569.5,-501.5 420.5,-501.5"/>
<text text-anchor="middle" x="495" y="-508.5" font-family="Helvetica,sans-Serif" font-size="10.00">CellSociety.pauseAnimation</text>
</a>
</g>
</g>
<!-- Node1&#45;&gt;Node20 -->
<g id="edge20" class="edge"><title>Node1&#45;&gt;Node20</title>
<path fill="none" stroke="midnightblue" d="M82.4215,-394.572C91.0544,-426.41 123.64,-528.935 194,-568 286.478,-619.345 417.034,-556.032 470.14,-525.597"/>
<polygon fill="midnightblue" stroke="midnightblue" points="471.981,-528.575 478.843,-520.502 468.445,-522.534 471.981,-528.575"/>
</g>
<!-- Node22 -->
<g id="node22" class="node"><title>Node22</title>
<g id="a_node22"><a xlink:href="../../d3/dff/class_cell_society.html#af9f22af39a97a58b26126020ca6c8844" target="_top" xlink:title="CellSociety.readNewXML">
<polygon fill="white" stroke="black" points="214,-201.5 214,-220.5 346,-220.5 346,-201.5 214,-201.5"/>
<text text-anchor="middle" x="280" y="-208.5" font-family="Helvetica,sans-Serif" font-size="10.00">CellSociety.readNewXML</text>
</a>
</g>
</g>
<!-- Node1&#45;&gt;Node22 -->
<g id="edge22" class="edge"><title>Node1&#45;&gt;Node22</title>
<path fill="none" stroke="midnightblue" d="M84.0296,-375.499C96.1772,-348.081 135.257,-268.342 194,-230 197.324,-227.83 200.86,-225.906 204.529,-224.199"/>
<polygon fill="midnightblue" stroke="midnightblue" points="205.941,-227.404 213.881,-220.39 203.3,-220.921 205.941,-227.404"/>
</g>
<!-- Node37 -->
<g id="node37" class="node"><title>Node37</title>
<g id="a_node37"><a xlink:href="../../d3/dff/class_cell_society.html#a6a4056cd40e4162583f2b9845b77a191" target="_top" xlink:title="CellSociety.resumeAnimation">
<polygon fill="white" stroke="black" points="202,-84.5 202,-103.5 358,-103.5 358,-84.5 202,-84.5"/>
<text text-anchor="middle" x="280" y="-91.5" font-family="Helvetica,sans-Serif" font-size="10.00">CellSociety.resumeAnimation</text>
</a>
</g>
</g>
<!-- Node1&#45;&gt;Node37 -->
<g id="edge43" class="edge"><title>Node1&#45;&gt;Node37</title>
<path fill="none" stroke="midnightblue" d="M84.8817,-375.383C99.6886,-346.539 146.023,-258.637 194,-192 215.762,-161.773 244.879,-129.703 262.767,-110.785"/>
<polygon fill="midnightblue" stroke="midnightblue" points="265.322,-113.177 269.692,-103.526 260.257,-108.346 265.322,-113.177"/>
</g>
<!-- Node3 -->
<g id="node3" class="node"><title>Node3</title>
<g id="a_node3"><a xlink:href="../../d3/dff/class_cell_society.html#adc5feda3db5472cea4e092d463681033" target="_top" xlink:title="CellSociety.reframeTimeline">
<polygon fill="white" stroke="black" points="420.5,-391.5 420.5,-410.5 569.5,-410.5 569.5,-391.5 420.5,-391.5"/>
<text text-anchor="middle" x="495" y="-398.5" font-family="Helvetica,sans-Serif" font-size="10.00">CellSociety.reframeTimeline</text>
</a>
</g>
</g>
<!-- Node2&#45;&gt;Node3 -->
<g id="edge2" class="edge"><title>Node2&#45;&gt;Node3</title>
<path fill="none" stroke="midnightblue" d="M352.136,-258.62C357.171,-261.132 361.878,-264.218 366,-268 405.15,-303.922 362.559,-346.398 402,-382 404.83,-384.554 407.91,-386.801 411.171,-388.774"/>
<polygon fill="midnightblue" stroke="midnightblue" points="409.682,-391.944 420.178,-393.384 412.871,-385.712 409.682,-391.944"/>
</g>
<!-- Node4 -->
<g id="node4" class="node"><title>Node4</title>
<g id="a_node4"><a xlink:href="../../df/df8/class_cell_society_view.html#a99eb733c00ed7c1bcba8f2d684791a09" target="_top" xlink:title="CellSocietyView.displayFrameRate">
<polygon fill="white" stroke="black" points="624,-329.5 624,-348.5 802,-348.5 802,-329.5 624,-329.5"/>
<text text-anchor="middle" x="713" y="-336.5" font-family="Helvetica,sans-Serif" font-size="10.00">CellSocietyView.displayFrameRate</text>
</a>
</g>
</g>
<!-- Node3&#45;&gt;Node4 -->
<g id="edge3" class="edge"><title>Node3&#45;&gt;Node4</title>
<path fill="none" stroke="midnightblue" d="M548.342,-391.42C561.377,-388.698 575.264,-385.507 588,-382 618.892,-373.493 653.262,-361.357 677.967,-352.145"/>
<polygon fill="midnightblue" stroke="midnightblue" points="679.468,-355.32 687.594,-348.522 677.002,-348.769 679.468,-355.32"/>
</g>
<!-- Node5 -->
<g id="node5" class="node"><title>Node5</title>
<g id="a_node5"><a xlink:href="../../d3/dff/class_cell_society.html#abf13a64ee79f2cb063447b499c695c58" target="_top" xlink:title="CellSociety.start">
<polygon fill="white" stroke="black" points="666.5,-386.5 666.5,-405.5 759.5,-405.5 759.5,-386.5 666.5,-386.5"/>
<text text-anchor="middle" x="713" y="-393.5" font-family="Helvetica,sans-Serif" font-size="10.00">CellSociety.start</text>
</a>
</g>
</g>
<!-- Node3&#45;&gt;Node5 -->
<g id="edge4" class="edge"><title>Node3&#45;&gt;Node5</title>
<path fill="none" stroke="midnightblue" d="M569.731,-399.293C597.999,-398.639 629.76,-397.904 656.091,-397.294"/>
<polygon fill="midnightblue" stroke="midnightblue" points="656.352,-400.789 666.268,-397.059 656.19,-393.791 656.352,-400.789"/>
</g>
<!-- Node5&#45;&gt;Node6 -->
<g id="edge5" class="edge"><title>Node5&#45;&gt;Node6</title>
<path fill="none" stroke="midnightblue" d="M759.557,-396C784.856,-396 816.898,-396 845.463,-396"/>
<polygon fill="midnightblue" stroke="midnightblue" points="845.811,-399.5 855.81,-396 845.81,-392.5 845.811,-399.5"/>
</g>
<!-- Node7 -->
<g id="node7" class="node"><title>Node7</title>
<g id="a_node7"><a xlink:href="../../d6/d6e/class_sim_controller.html#a10145cee2eaceb4ecad9396a825051d1" target="_top" xlink:title="SimController.runOneSim">
<polygon fill="white" stroke="black" points="1048,-386.5 1048,-405.5 1186,-405.5 1186,-386.5 1048,-386.5"/>
<text text-anchor="middle" x="1117" y="-393.5" font-family="Helvetica,sans-Serif" font-size="10.00">SimController.runOneSim</text>
</a>
</g>
</g>
<!-- Node6&#45;&gt;Node7 -->
<g id="edge6" class="edge"><title>Node6&#45;&gt;Node7</title>
<path fill="none" stroke="midnightblue" d="M980.252,-396C998.443,-396 1018.62,-396 1037.74,-396"/>
<polygon fill="midnightblue" stroke="midnightblue" points="1037.92,-399.5 1047.92,-396 1037.92,-392.5 1037.92,-399.5"/>
</g>
<!-- Node11 -->
<g id="node11" class="node"><title>Node11</title>
<g id="a_node11"><a xlink:href="../../df/df8/class_cell_society_view.html#a43ac2666d3a002024be53fe74028a576" target="_top" xlink:title="CellSocietyView.updateSimGrid">
<polygon fill="white" stroke="black" points="1034.5,-193.5 1034.5,-212.5 1199.5,-212.5 1199.5,-193.5 1034.5,-193.5"/>
<text text-anchor="middle" x="1117" y="-200.5" font-family="Helvetica,sans-Serif" font-size="10.00">CellSocietyView.updateSimGrid</text>
</a>
</g>
</g>
<!-- Node6&#45;&gt;Node11 -->
<g id="edge10" class="edge"><title>Node6&#45;&gt;Node11</title>
<path fill="none" stroke="midnightblue" d="M928.769,-386.429C960.213,-355.624 1059.06,-258.781 1099.01,-219.649"/>
<polygon fill="midnightblue" stroke="midnightblue" points="1101.48,-222.127 1106.17,-212.629 1096.58,-217.127 1101.48,-222.127"/>
</g>
<!-- Node8 -->
<g id="node8" class="node"><title>Node8</title>
<g id="a_node8"><a xlink:href="../../dd/ddd/class_neighbor.html#ac769186595af20512a2ec4754db75640" target="_top" xlink:title="Neighbor.getNeighbors">
<polygon fill="white" stroke="black" points="1247.5,-386.5 1247.5,-405.5 1374.5,-405.5 1374.5,-386.5 1247.5,-386.5"/>
<text text-anchor="middle" x="1311" y="-393.5" font-family="Helvetica,sans-Serif" font-size="10.00">Neighbor.getNeighbors</text>
</a>
</g>
</g>
<!-- Node7&#45;&gt;Node8 -->
<g id="edge7" class="edge"><title>Node7&#45;&gt;Node8</title>
<path fill="none" stroke="midnightblue" d="M1186.23,-396C1202.75,-396 1220.46,-396 1237.17,-396"/>
<polygon fill="midnightblue" stroke="midnightblue" points="1237.43,-399.5 1247.43,-396 1237.43,-392.5 1237.43,-399.5"/>
</g>
<!-- Node9 -->
<g id="node9" class="node"><title>Node9</title>
<g id="a_node9"><a xlink:href="../../d6/d6e/class_sim_controller.html#a0b75005badf06910bcd21f152c640762" target="_top" xlink:title="SimController.getNeighbors\lState">
<polygon fill="white" stroke="black" points="1236.5,-337 1236.5,-367 1385.5,-367 1385.5,-337 1236.5,-337"/>
<text text-anchor="start" x="1244.5" y="-355" font-family="Helvetica,sans-Serif" font-size="10.00">SimController.getNeighbors</text>
<text text-anchor="middle" x="1311" y="-344" font-family="Helvetica,sans-Serif" font-size="10.00">State</text>
</a>
</g>
</g>
<!-- Node7&#45;&gt;Node9 -->
<g id="edge8" class="edge"><title>Node7&#45;&gt;Node9</title>
<path fill="none" stroke="midnightblue" d="M1159.66,-386.453C1181.47,-381.455 1208.86,-375.178 1234.27,-369.356"/>
<polygon fill="midnightblue" stroke="midnightblue" points="1235.29,-372.711 1244.26,-367.065 1233.73,-365.888 1235.29,-372.711"/>
</g>
<!-- Node10 -->
<g id="node10" class="node"><title>Node10</title>
<g id="a_node10"><a xlink:href="../../d6/d6e/class_sim_controller.html#a0a26878930cc1e557b0e101867cb2c23" target="_top" xlink:title="SimController.newState">
<polygon fill="white" stroke="black" points="1246.5,-424.5 1246.5,-443.5 1375.5,-443.5 1375.5,-424.5 1246.5,-424.5"/>
<text text-anchor="middle" x="1311" y="-431.5" font-family="Helvetica,sans-Serif" font-size="10.00">SimController.newState</text>
</a>
</g>
</g>
<!-- Node7&#45;&gt;Node10 -->
<g id="edge9" class="edge"><title>Node7&#45;&gt;Node10</title>
<path fill="none" stroke="midnightblue" d="M1166.45,-405.589C1192.47,-410.739 1224.73,-417.123 1252.07,-422.534"/>
<polygon fill="midnightblue" stroke="midnightblue" points="1251.41,-425.972 1261.9,-424.48 1252.77,-419.105 1251.41,-425.972"/>
</g>
<!-- Node12 -->
<g id="node12" class="node"><title>Node12</title>
<g id="a_node12"><a xlink:href="../../dd/d11/class_cell.html#a1e0ece61fecc69a9b7986d17d925434a" target="_top" xlink:title="Cell.getShape">
<polygon fill="white" stroke="black" points="1269.5,-193.5 1269.5,-212.5 1352.5,-212.5 1352.5,-193.5 1269.5,-193.5"/>
<text text-anchor="middle" x="1311" y="-200.5" font-family="Helvetica,sans-Serif" font-size="10.00">Cell.getShape</text>
</a>
</g>
</g>
<!-- Node11&#45;&gt;Node12 -->
<g id="edge11" class="edge"><title>Node11&#45;&gt;Node12</title>
<path fill="none" stroke="midnightblue" d="M1199.7,-203C1219.93,-203 1241.03,-203 1259.29,-203"/>
<polygon fill="midnightblue" stroke="midnightblue" points="1259.4,-206.5 1269.4,-203 1259.4,-199.5 1259.4,-206.5"/>
</g>
<!-- Node19&#45;&gt;Node3 -->
<g id="edge19" class="edge"><title>Node19&#45;&gt;Node3</title>
<path fill="none" stroke="midnightblue" d="M349.909,-296.505C355.684,-299.012 361.157,-302.13 366,-306 395.199,-329.332 372.612,-358.906 402,-382 404.843,-384.234 407.884,-386.224 411.067,-387.995"/>
<polygon fill="midnightblue" stroke="midnightblue" points="409.834,-391.284 420.367,-392.427 412.846,-384.965 409.834,-391.284"/>
</g>
<!-- Node21 -->
<g id="node21" class="node"><title>Node21</title>
<g id="a_node21"><a xlink:href="../../df/df8/class_cell_society_view.html#a444613a006f141c6445693c30171be76" target="_top" xlink:title="CellSocietyView.changePause\lButtonPermissions">
<polygon fill="white" stroke="black" points="634.5,-496 634.5,-526 791.5,-526 791.5,-496 634.5,-496"/>
<text text-anchor="start" x="642.5" y="-514" font-family="Helvetica,sans-Serif" font-size="10.00">CellSocietyView.changePause</text>
<text text-anchor="middle" x="713" y="-503" font-family="Helvetica,sans-Serif" font-size="10.00">ButtonPermissions</text>
</a>
</g>
</g>
<!-- Node20&#45;&gt;Node21 -->
<g id="edge21" class="edge"><title>Node20&#45;&gt;Node21</title>
<path fill="none" stroke="midnightblue" d="M569.731,-511C587.18,-511 605.96,-511 623.972,-511"/>
<polygon fill="midnightblue" stroke="midnightblue" points="624.179,-514.5 634.179,-511 624.179,-507.5 624.179,-514.5"/>
</g>
<!-- Node22&#45;&gt;Node4 -->
<g id="edge42" class="edge"><title>Node22&#45;&gt;Node4</title>
<path fill="none" stroke="midnightblue" d="M343.876,-220.574C351.594,-223.031 359.161,-226.119 366,-230 386.234,-241.482 381.662,-256.704 402,-268 475.761,-308.967 505.863,-286.698 588,-306 614.85,-312.31 644.734,-320.235 668.436,-326.738"/>
<polygon fill="midnightblue" stroke="midnightblue" points="667.617,-330.143 678.188,-329.428 669.479,-323.395 667.617,-330.143"/>
</g>
<!-- Node22&#45;&gt;Node11 -->
<g id="edge40" class="edge"><title>Node22&#45;&gt;Node11</title>
<path fill="none" stroke="midnightblue" d="M289.122,-201.241C306.97,-180.658 352.02,-133.276 402,-116 654.14,-28.8455 982.692,-147.743 1084.53,-189.481"/>
<polygon fill="midnightblue" stroke="midnightblue" points="1083.36,-192.785 1093.94,-193.383 1086.04,-186.319 1083.36,-192.785"/>
</g>
<!-- Node22&#45;&gt;Node20 -->
<g id="edge41" class="edge"><title>Node22&#45;&gt;Node20</title>
<path fill="none" stroke="midnightblue" d="M346.065,-217.031C353.517,-220.053 360.426,-224.241 366,-230 425.773,-291.758 361.623,-344.128 402,-420 418.79,-451.549 450.239,-479.028 471.645,-495.313"/>
<polygon fill="midnightblue" stroke="midnightblue" points="469.736,-498.254 479.856,-501.388 473.899,-492.627 469.736,-498.254"/>
</g>
<!-- Node23 -->
<g id="node23" class="node"><title>Node23</title>
<g id="a_node23"><a xlink:href="../../df/df8/class_cell_society_view.html#a053b6ef6afa80722445223c4e373e51c" target="_top" xlink:title="CellSocietyView.displayXMLChooser">
<polygon fill="white" stroke="black" points="402.5,-315.5 402.5,-334.5 587.5,-334.5 587.5,-315.5 402.5,-315.5"/>
<text text-anchor="middle" x="495" y="-322.5" font-family="Helvetica,sans-Serif" font-size="10.00">CellSocietyView.displayXMLChooser</text>
</a>
</g>
</g>
<!-- Node22&#45;&gt;Node23 -->
<g id="edge23" class="edge"><title>Node22&#45;&gt;Node23</title>
<path fill="none" stroke="midnightblue" d="M346.375,-219.259C353.425,-221.951 360.15,-225.453 366,-230 393.934,-251.712 374.453,-278.798 402,-301 407.267,-305.245 413.206,-308.746 419.467,-311.633"/>
<polygon fill="midnightblue" stroke="midnightblue" points="418.246,-314.915 428.828,-315.437 420.881,-308.43 418.246,-314.915"/>
</g>
<!-- Node24 -->
<g id="node24" class="node"><title>Node24</title>
<g id="a_node24"><a xlink:href="../../d2/d95/class_x_m_l_parser.html#a77ee23818c822b69cdf4200eef726a61" target="_top" xlink:title="XMLParser.parseXMLFile">
<polygon fill="white" stroke="black" points="430,-49.5 430,-68.5 560,-68.5 560,-49.5 430,-49.5"/>
<text text-anchor="middle" x="495" y="-56.5" font-family="Helvetica,sans-Serif" font-size="10.00">XMLParser.parseXMLFile</text>
</a>
</g>
</g>
<!-- Node22&#45;&gt;Node24 -->
<g id="edge24" class="edge"><title>Node22&#45;&gt;Node24</title>
<path fill="none" stroke="midnightblue" d="M288.957,-201.287C311.253,-174.29 374.499,-99.2743 402,-83 409.824,-78.3699 418.54,-74.6211 427.402,-71.5889"/>
<polygon fill="midnightblue" stroke="midnightblue" points="428.543,-74.8994 437.041,-68.5719 426.452,-68.2191 428.543,-74.8994"/>
</g>
<!-- Node28 -->
<g id="node28" class="node"><title>Node28</title>
<g id="a_node28"><a xlink:href="../../d3/dff/class_cell_society.html#abfbf43ce46b4c82c16a2d933b6a11abf" target="_top" xlink:title="CellSociety.retrieveParserInfo">
<polygon fill="white" stroke="black" points="417.5,-125.5 417.5,-144.5 572.5,-144.5 572.5,-125.5 417.5,-125.5"/>
<text text-anchor="middle" x="495" y="-132.5" font-family="Helvetica,sans-Serif" font-size="10.00">CellSociety.retrieveParserInfo</text>
</a>
</g>
</g>
<!-- Node22&#45;&gt;Node28 -->
<g id="edge28" class="edge"><title>Node22&#45;&gt;Node28</title>
<path fill="none" stroke="midnightblue" d="M298.098,-201.354C321.062,-188.773 363.451,-166.858 402,-154 410.006,-151.329 418.535,-148.962 427.048,-146.885"/>
<polygon fill="midnightblue" stroke="midnightblue" points="428.051,-150.245 437.002,-144.578 426.47,-143.426 428.051,-150.245"/>
</g>
<!-- Node29 -->
<g id="node29" class="node"><title>Node29</title>
<g id="a_node29"><a xlink:href="../../d2/d95/class_x_m_l_parser.html#aea9b535964c91fa3c3d2b1c0b6a334c2" target="_top" xlink:title="XMLParser.getInitParamMap">
<polygon fill="white" stroke="black" points="638.5,-168.5 638.5,-187.5 787.5,-187.5 787.5,-168.5 638.5,-168.5"/>
<text text-anchor="middle" x="713" y="-175.5" font-family="Helvetica,sans-Serif" font-size="10.00">XMLParser.getInitParamMap</text>
</a>
</g>
</g>
<!-- Node22&#45;&gt;Node29 -->
<g id="edge32" class="edge"><title>Node22&#45;&gt;Node29</title>
<path fill="none" stroke="midnightblue" d="M346.052,-207.931C408.242,-204.771 504.612,-199.283 588,-192 600.985,-190.866 614.715,-189.492 628.124,-188.053"/>
<polygon fill="midnightblue" stroke="midnightblue" points="628.735,-191.507 638.296,-186.943 627.976,-184.548 628.735,-191.507"/>
</g>
<!-- Node31 -->
<g id="node31" class="node"><title>Node31</title>
<g id="a_node31"><a xlink:href="../../dd/d11/class_cell.html#a7157b57f4ff263ea68e1ff5fc424176e" target="_top" xlink:title="Cell.setCellSize">
<polygon fill="white" stroke="black" points="450.5,-163.5 450.5,-182.5 539.5,-182.5 539.5,-163.5 450.5,-163.5"/>
<text text-anchor="middle" x="495" y="-170.5" font-family="Helvetica,sans-Serif" font-size="10.00">Cell.setCellSize</text>
</a>
</g>
</g>
<!-- Node22&#45;&gt;Node31 -->
<g id="edge31" class="edge"><title>Node22&#45;&gt;Node31</title>
<path fill="none" stroke="midnightblue" d="M334.474,-201.46C366.721,-195.707 407.677,-188.4 440.015,-182.631"/>
<polygon fill="midnightblue" stroke="midnightblue" points="440.96,-186.018 450.19,-180.816 439.731,-179.127 440.96,-186.018"/>
</g>
<!-- Node32 -->
<g id="node32" class="node"><title>Node32</title>
<g id="a_node32"><a xlink:href="../../d3/dff/class_cell_society.html#a7a6dab68551f91cc4b120faa51670bf8" target="_top" xlink:title="CellSociety.createCellArray">
<polygon fill="white" stroke="black" points="423,-239.5 423,-258.5 567,-258.5 567,-239.5 423,-239.5"/>
<text text-anchor="middle" x="495" y="-246.5" font-family="Helvetica,sans-Serif" font-size="10.00">CellSociety.createCellArray</text>
</a>
</g>
</g>
<!-- Node22&#45;&gt;Node32 -->
<g id="edge33" class="edge"><title>Node22&#45;&gt;Node32</title>
<path fill="none" stroke="midnightblue" d="M334.474,-220.54C363.592,-225.735 399.811,-232.196 430.374,-237.649"/>
<polygon fill="midnightblue" stroke="midnightblue" points="430.045,-241.145 440.504,-239.456 431.274,-234.254 430.045,-241.145"/>
</g>
<!-- Node36 -->
<g id="node36" class="node"><title>Node36</title>
<g id="a_node36"><a xlink:href="../../d3/dff/class_cell_society.html#ab9e56a2a70e210e021b51e898508329b" target="_top" xlink:title="CellSociety.setupAnimation">
<polygon fill="white" stroke="black" points="422,-353.5 422,-372.5 568,-372.5 568,-353.5 422,-353.5"/>
<text text-anchor="middle" x="495" y="-360.5" font-family="Helvetica,sans-Serif" font-size="10.00">CellSociety.setupAnimation</text>
</a>
</g>
</g>
<!-- Node22&#45;&gt;Node36 -->
<g id="edge38" class="edge"><title>Node22&#45;&gt;Node36</title>
<path fill="none" stroke="midnightblue" d="M346.292,-218.008C353.526,-220.896 360.318,-224.786 366,-230 405.15,-265.922 362.559,-308.398 402,-344 405.269,-346.951 408.871,-349.49 412.701,-351.673"/>
<polygon fill="midnightblue" stroke="midnightblue" points="411.47,-354.964 421.999,-356.142 414.503,-348.655 411.47,-354.964"/>
</g>
<!-- Node25 -->
<g id="node25" class="node"><title>Node25</title>
<g id="a_node25"><a xlink:href="../../d2/d95/class_x_m_l_parser.html#ae67767f9678fb650ac38b1321ea9f723" target="_top" xlink:title="XMLParser.parseInitialTags">
<polygon fill="white" stroke="black" points="642.5,-49.5 642.5,-68.5 783.5,-68.5 783.5,-49.5 642.5,-49.5"/>
<text text-anchor="middle" x="713" y="-56.5" font-family="Helvetica,sans-Serif" font-size="10.00">XMLParser.parseInitialTags</text>
</a>
</g>
</g>
<!-- Node24&#45;&gt;Node25 -->
<g id="edge25" class="edge"><title>Node24&#45;&gt;Node25</title>
<path fill="none" stroke="midnightblue" d="M560.222,-59C582.855,-59 608.576,-59 632.329,-59"/>
<polygon fill="midnightblue" stroke="midnightblue" points="632.374,-62.5001 642.374,-59 632.374,-55.5001 632.374,-62.5001"/>
</g>
<!-- Node26 -->
<g id="node26" class="node"><title>Node26</title>
<g id="a_node26"><a xlink:href="../../d2/d95/class_x_m_l_parser.html#a09c6848239104ae94825c045796dddd0" target="_top" xlink:title="XMLParser.makeParamMap">
<polygon fill="white" stroke="black" points="845,-11.5 845,-30.5 991,-30.5 991,-11.5 845,-11.5"/>
<text text-anchor="middle" x="918" y="-18.5" font-family="Helvetica,sans-Serif" font-size="10.00">XMLParser.makeParamMap</text>
</a>
</g>
</g>
<!-- Node25&#45;&gt;Node26 -->
<g id="edge26" class="edge"><title>Node25&#45;&gt;Node26</title>
<path fill="none" stroke="midnightblue" d="M764.963,-49.46C792.594,-44.2878 826.933,-37.8599 855.981,-32.4222"/>
<polygon fill="midnightblue" stroke="midnightblue" points="856.83,-35.8242 866.016,-30.5439 855.542,-28.9437 856.83,-35.8242"/>
</g>
<!-- Node27 -->
<g id="node27" class="node"><title>Node27</title>
<g id="a_node27"><a xlink:href="../../d2/d95/class_x_m_l_parser.html#a5a419f71699eb7d3d76ee238fb262a5f" target="_top" xlink:title="XMLParser.makeCellParamList">
<polygon fill="white" stroke="black" points="838,-49.5 838,-68.5 998,-68.5 998,-49.5 838,-49.5"/>
<text text-anchor="middle" x="918" y="-56.5" font-family="Helvetica,sans-Serif" font-size="10.00">XMLParser.makeCellParamList</text>
</a>
</g>
</g>
<!-- Node25&#45;&gt;Node27 -->
<g id="edge27" class="edge"><title>Node25&#45;&gt;Node27</title>
<path fill="none" stroke="midnightblue" d="M783.577,-59C797.752,-59 812.851,-59 827.604,-59"/>
<polygon fill="midnightblue" stroke="midnightblue" points="827.747,-62.5001 837.747,-59 827.747,-55.5001 827.747,-62.5001"/>
</g>
<!-- Node28&#45;&gt;Node29 -->
<g id="edge29" class="edge"><title>Node28&#45;&gt;Node29</title>
<path fill="none" stroke="midnightblue" d="M543.937,-144.543C576.516,-151.029 619.787,-159.643 654.263,-166.506"/>
<polygon fill="midnightblue" stroke="midnightblue" points="653.706,-169.964 664.197,-168.484 655.072,-163.098 653.706,-169.964"/>
</g>
<!-- Node30 -->
<g id="node30" class="node"><title>Node30</title>
<g id="a_node30"><a xlink:href="../../d2/d95/class_x_m_l_parser.html#a0df3a2904766f59d1246cb55416f8146" target="_top" xlink:title="XMLParser.getSimParamMap">
<polygon fill="white" stroke="black" points="636,-125.5 636,-144.5 790,-144.5 790,-125.5 636,-125.5"/>
<text text-anchor="middle" x="713" y="-132.5" font-family="Helvetica,sans-Serif" font-size="10.00">XMLParser.getSimParamMap</text>
</a>
</g>
</g>
<!-- Node28&#45;&gt;Node30 -->
<g id="edge30" class="edge"><title>Node28&#45;&gt;Node30</title>
<path fill="none" stroke="midnightblue" d="M572.762,-135C589.892,-135 608.17,-135 625.658,-135"/>
<polygon fill="midnightblue" stroke="midnightblue" points="625.849,-138.5 635.849,-135 625.849,-131.5 625.849,-138.5"/>
</g>
<!-- Node32&#45;&gt;Node29 -->
<g id="edge34" class="edge"><title>Node32&#45;&gt;Node29</title>
<path fill="none" stroke="midnightblue" d="M547.463,-239.487C561.046,-235.936 575.416,-231.205 588,-225 606.18,-216.036 605.634,-205.576 624,-197 629.353,-194.501 635.043,-192.325 640.855,-190.432"/>
<polygon fill="midnightblue" stroke="midnightblue" points="642.121,-193.707 650.712,-187.506 640.13,-186.997 642.121,-193.707"/>
</g>
<!-- Node33 -->
<g id="node33" class="node"><title>Node33</title>
<g id="a_node33"><a xlink:href="../../d2/d95/class_x_m_l_parser.html#ac4e3257aed1deb9fe950149f706fce5b" target="_top" xlink:title="XMLParser.getCellParamList">
<polygon fill="white" stroke="black" points="638.5,-206.5 638.5,-225.5 787.5,-225.5 787.5,-206.5 638.5,-206.5"/>
<text text-anchor="middle" x="713" y="-213.5" font-family="Helvetica,sans-Serif" font-size="10.00">XMLParser.getCellParamList</text>
</a>
</g>
</g>
<!-- Node32&#45;&gt;Node33 -->
<g id="edge35" class="edge"><title>Node32&#45;&gt;Node33</title>
<path fill="none" stroke="midnightblue" d="M558.186,-239.499C583.604,-235.616 613.178,-231.098 639.563,-227.067"/>
<polygon fill="midnightblue" stroke="midnightblue" points="640.148,-230.518 649.505,-225.548 639.091,-223.598 640.148,-230.518"/>
</g>
<!-- Node34 -->
<g id="node34" class="node"><title>Node34</title>
<g id="a_node34"><a xlink:href="../../d3/dff/class_cell_society.html#a42451b17e2bca5fd025c8d4ea74310ca" target="_top" xlink:title="CellSociety.stringToIntArray">
<polygon fill="white" stroke="black" points="640.5,-244.5 640.5,-263.5 785.5,-263.5 785.5,-244.5 640.5,-244.5"/>
<text text-anchor="middle" x="713" y="-251.5" font-family="Helvetica,sans-Serif" font-size="10.00">CellSociety.stringToIntArray</text>
</a>
</g>
</g>
<!-- Node32&#45;&gt;Node34 -->
<g id="edge36" class="edge"><title>Node32&#45;&gt;Node34</title>
<path fill="none" stroke="midnightblue" d="M567.026,-250.644C587.208,-251.111 609.35,-251.624 630.121,-252.105"/>
<polygon fill="midnightblue" stroke="midnightblue" points="630.115,-255.605 640.193,-252.338 630.277,-248.607 630.115,-255.605"/>
</g>
<!-- Node35 -->
<g id="node35" class="node"><title>Node35</title>
<g id="a_node35"><a xlink:href="../../d3/dff/class_cell_society.html#a117f1698760a3f6bbe51bd7af16f79bb" target="_top" xlink:title="CellSociety.createCellInstance">
<polygon fill="white" stroke="black" points="633.5,-282.5 633.5,-301.5 792.5,-301.5 792.5,-282.5 633.5,-282.5"/>
<text text-anchor="middle" x="713" y="-289.5" font-family="Helvetica,sans-Serif" font-size="10.00">CellSociety.createCellInstance</text>
</a>
</g>
</g>
<!-- Node32&#45;&gt;Node35 -->
<g id="edge37" class="edge"><title>Node32&#45;&gt;Node35</title>
<path fill="none" stroke="midnightblue" d="M543.937,-258.543C576.516,-265.029 619.787,-273.643 654.263,-280.506"/>
<polygon fill="midnightblue" stroke="midnightblue" points="653.706,-283.964 664.197,-282.484 655.072,-277.098 653.706,-283.964"/>
</g>
<!-- Node36&#45;&gt;Node5 -->
<g id="edge39" class="edge"><title>Node36&#45;&gt;Node5</title>
<path fill="none" stroke="midnightblue" d="M558.186,-372.501C589.203,-377.239 626.407,-382.923 656.456,-387.514"/>
<polygon fill="midnightblue" stroke="midnightblue" points="655.939,-390.976 666.353,-389.026 656.997,-384.056 655.939,-390.976"/>
</g>
<!-- Node38 -->
<g id="node38" class="node"><title>Node38</title>
<g id="a_node38"><a xlink:href="../../df/df8/class_cell_society_view.html#a835e3da6dc6b50fefa0ed4606a5d4c95" target="_top" xlink:title="CellSocietyView.changeResume\lButtonPermissions">
<polygon fill="white" stroke="black" points="411.5,-0 411.5,-30 578.5,-30 578.5,-0 411.5,-0"/>
<text text-anchor="start" x="419.5" y="-18" font-family="Helvetica,sans-Serif" font-size="10.00">CellSocietyView.changeResume</text>
<text text-anchor="middle" x="495" y="-7" font-family="Helvetica,sans-Serif" font-size="10.00">ButtonPermissions</text>
</a>
</g>
</g>
<!-- Node37&#45;&gt;Node38 -->
<g id="edge44" class="edge"><title>Node37&#45;&gt;Node38</title>
<path fill="none" stroke="midnightblue" d="M299.906,-84.4635C323.407,-72.8679 364.949,-53.2126 402,-40 408.86,-37.5539 416.079,-35.2101 423.332,-33.0057"/>
<polygon fill="midnightblue" stroke="midnightblue" points="424.612,-36.2772 433.212,-30.0896 422.63,-29.5635 424.612,-36.2772"/>
</g>
</g>
</svg>
        <g id="navigator" transform="translate(0 0)" fill="#404254">
                <rect fill="#f2f5e9" fill-opacity="0.5" stroke="#606060" stroke-width=".5" x="0" y="0" width="60" height="60"/>
                <use id="zoomplus" xlink:href="#zoomPlus" x="17" y="9" onmousedown="handleZoom(evt,'in')"/>
                <use id="zoomminus" xlink:href="#zoomMin" x="42" y="9" onmousedown="handleZoom(evt,'out')"/>
                <use id="reset" xlink:href="#resetDef" x="30" y="36" onmousedown="handleReset()"/>
                <g id="arrowUp" xlink:href="#dirArrow" transform="translate(30 24)" onmousedown="handlePan(0,-1)">
                  <use xlink:href="#rim" fill="#404040">
                        <set attributeName="fill" to="#808080" begin="arrowUp.mouseover" end="arrowUp.mouseout"/>
                  </use>
                  <path fill="none" stroke="white" stroke-width="1.5" d="M0,-3.0v7 M-2.5,-0.5L0,-3.0L2.5,-0.5"/>
                </g>
                <g id="arrowRight" xlink:href="#dirArrow" transform="rotate(90) translate(36 -43)" onmousedown="handlePan(1,0)">
                  <use xlink:href="#rim" fill="#404040">
                        <set attributeName="fill" to="#808080" begin="arrowRight.mouseover" end="arrowRight.mouseout"/>
                  </use>
                  <path fill="none" stroke="white" stroke-width="1.5" d="M0,-3.0v7 M-2.5,-0.5L0,-3.0L2.5,-0.5"/>
                </g>
                <g id="arrowDown" xlink:href="#dirArrow" transform="rotate(180) translate(-30 -48)" onmousedown="handlePan(0,1)">
                  <use xlink:href="#rim" fill="#404040">
                        <set attributeName="fill" to="#808080" begin="arrowDown.mouseover" end="arrowDown.mouseout"/>
                  </use>
                  <path fill="none" stroke="white" stroke-width="1.5" d="M0,-3.0v7 M-2.5,-0.5L0,-3.0L2.5,-0.5"/>
                </g>
                <g id="arrowLeft" xlink:href="#dirArrow" transform="rotate(270) translate(-36 17)" onmousedown="handlePan(-1,0)">
                  <use xlink:href="#rim" fill="#404040">
                        <set attributeName="fill" to="#808080" begin="arrowLeft.mouseover" end="arrowLeft.mouseout"/>
                  </use>
                  <path fill="none" stroke="white" stroke-width="1.5" d="M0,-3.0v7 M-2.5,-0.5L0,-3.0L2.5,-0.5"/>
                </g>
        </g>
        <svg viewBox="0 0 15 15" width="100%" height="30px" preserveAspectRatio="xMaxYMin meet">
         <g id="arrow_out" transform="scale(0.3 0.3)">
          <a xlink:href="class_cell_society_a656ff46d1459fb7f86b42e3c542506ee_cgraph_org.svg" target="_base">
           <rect id="button" ry="5" rx="5" y="6" x="6" height="38" width="38"
                fill="#f2f5e9" fill-opacity="0.5" stroke="#606060" stroke-width="1.0"/>
           <path id="arrow"
             d="M 11.500037,31.436501 C 11.940474,20.09759 22.043105,11.32322 32.158766,21.979434 L 37.068811,17.246167 C 37.068811,17.246167 37.088388,32 37.088388,32 L 22.160133,31.978069 C 22.160133,31.978069 26.997745,27.140456 26.997745,27.140456 C 18.528582,18.264221 13.291696,25.230495 11.500037,31.436501 z"
             style="fill:#404040;"/>
          </a>
         </g>
        </svg>
</svg>
