<?xml version="1.0" encoding="UTF-8" standalone="no"?>
<!DOCTYPE svg PUBLIC "-//W3C//DTD SVG 1.1//EN"
 "http://www.w3.org/Graphics/SVG/1.1/DTD/svg11.dtd">
<!-- Generated by graphviz version 2.36.0 (20140111.2315)
 -->
<!-- Title: CellSociety.configureListeners Pages: 1 -->
<!--zoomable 767 -->
<svg id="main" version="1.1" xmlns="http://www.w3.org/2000/svg" xmlns:xlink="http://www.w3.org/1999/xlink" xml:space="preserve" onload="init(evt)">
<style type="text/css"><![CDATA[
.edge:hover path { stroke: red; }
.edge:hover polygon { stroke: red; fill: red; }
]]></style>
<script type="text/javascript"><![CDATA[
var edges = document.getElementsByTagName('g');
if (edges && edges.length) {
  for (var i=0;i<edges.length;i++) {
    if (edges[i].id.substr(0,4)=='edge') {
      edges[i].setAttribute('class','edge');
    }
  }
}
]]></script>
        <defs>
                <circle id="rim" cx="0" cy="0" r="7"/>
                <circle id="rim2" cx="0" cy="0" r="3.5"/>
                <g id="zoomPlus">
                        <use xlink:href="#rim" fill="#404040">
                                <set attributeName="fill" to="#808080" begin="zoomplus.mouseover" end="zoomplus.mouseout"/>
                        </use>
                        <path d="M-4,0h8M0,-4v8" fill="none" stroke="white" stroke-width="1.5" pointer-events="none"/>
                </g>
                <g id="zoomMin">
                        <use xlink:href="#rim" fill="#404040">
                                <set attributeName="fill" to="#808080" begin="zoomminus.mouseover" end="zoomminus.mouseout"/>
                        </use>
                        <path d="M-4,0h8" fill="none" stroke="white" stroke-width="1.5" pointer-events="none"/>
                </g>
                <g id="dirArrow">
                        <path fill="none" stroke="white" stroke-width="1.5" d="M0,-3.0v7 M-2.5,-0.5L0,-3.0L2.5,-0.5"/>
                </g>
               <g id="resetDef">
                       <use xlink:href="#rim2" fill="#404040">
                               <set attributeName="fill" to="#808080" begin="reset.mouseover" end="reset.mouseout"/>
                       </use>
               </g>
        </defs>

<script type="text/javascript">
var viewWidth = 1394;
var viewHeight = 767;
var sectionId = 'dynsection-2';
</script>
<script xlink:href="../../svgpan.js"/>
<svg id="graph" class="graph">
<g id="viewport">
<title>CellSociety.configureListeners</title>
<polygon fill="white" stroke="none" points="-4,4 -4,-762.651 1390,-762.651 1390,4 -4,4"/>
<!-- Node1 -->
<g id="node1" class="node"><title>Node1</title>
<polygon fill="#bfbfbf" stroke="black" points="0,-248.275 0,-267.275 158,-267.275 158,-248.275 0,-248.275"/>
<text text-anchor="middle" x="79" y="-255.275" font-family="Helvetica,sans-Serif" font-size="10.00">CellSociety.configureListeners</text>
</g>
<!-- Node2 -->
<g id="node2" class="node"><title>Node2</title>
<g id="a_node2"><a xlink:href="../../d3/dff/class_cell_society.html#a045267ba1843ca4a47891d7be73c2ac1" target="_top" xlink:title="CellSociety.decreaseFrameRate">
<polygon fill="white" stroke="black" points="196.5,-603.275 196.5,-622.275 363.5,-622.275 363.5,-603.275 196.5,-603.275"/>
<text text-anchor="middle" x="280" y="-610.275" font-family="Helvetica,sans-Serif" font-size="10.00">CellSociety.decreaseFrameRate</text>
</a>
</g>
</g>
<!-- Node1&#45;&gt;Node2 -->
<g id="edge1" class="edge"><title>Node1&#45;&gt;Node2</title>
<path fill="none" stroke="midnightblue" d="M83.3384,-267.285C95.4912,-301.326 139.526,-419.753 194,-507.775 214.719,-541.254 244.816,-575.976 263.082,-595.915"/>
<polygon fill="midnightblue" stroke="midnightblue" points="260.537,-598.318 269.903,-603.272 265.671,-593.559 260.537,-598.318"/>
</g>
<!-- Node6 -->
<g id="node6" class="node"><title>Node6</title>
<g id="a_node6"><a xlink:href="../../d3/dff/class_cell_society.html#a0ff19c30a1cc433d8ea8444f6a5617f1" target="_top" xlink:title="CellSociety.updateGrid">
<polygon fill="white" stroke="black" points="856,-555.275 856,-574.275 980,-574.275 980,-555.275 856,-555.275"/>
<text text-anchor="middle" x="918" y="-562.275" font-family="Helvetica,sans-Serif" font-size="10.00">CellSociety.updateGrid</text>
</a>
</g>
</g>
<!-- Node1&#45;&gt;Node6 -->
<g id="edge52" class="edge"><title>Node1&#45;&gt;Node6</title>
<path fill="none" stroke="midnightblue" d="M79.7051,-267.361C78.7986,-314.888 81.3555,-527.134 194,-631.775 392.366,-816.047 551.685,-772.962 802,-669.775 846.745,-651.33 885.146,-607.337 904.195,-582.546"/>
<polygon fill="midnightblue" stroke="midnightblue" points="907.127,-584.469 910.313,-574.364 901.522,-580.277 907.127,-584.469"/>
</g>
<!-- Node15 -->
<g id="node15" class="node"><title>Node15</title>
<g id="a_node15"><a xlink:href="../../df/df8/class_cell_society_view.html#ada088eb9125561f8dd941badb141fa86" target="_top" xlink:title="CellSocietyView.getPause\lElement">
<polygon fill="white" stroke="black" points="211.5,-220.775 211.5,-250.775 348.5,-250.775 348.5,-220.775 211.5,-220.775"/>
<text text-anchor="start" x="219.5" y="-238.775" font-family="Helvetica,sans-Serif" font-size="10.00">CellSocietyView.getPause</text>
<text text-anchor="middle" x="280" y="-227.775" font-family="Helvetica,sans-Serif" font-size="10.00">Element</text>
</a>
</g>
</g>
<!-- Node1&#45;&gt;Node15 -->
<g id="edge14" class="edge"><title>Node1&#45;&gt;Node15</title>
<path fill="none" stroke="midnightblue" d="M158.079,-249.143C172.274,-247.574 187.079,-245.937 201.264,-244.369"/>
<polygon fill="midnightblue" stroke="midnightblue" points="201.91,-247.819 211.465,-243.241 201.141,-240.861 201.91,-247.819"/>
</g>
<!-- Node16 -->
<g id="node16" class="node"><title>Node16</title>
<g id="a_node16"><a xlink:href="../../df/df8/class_cell_society_view.html#aae7c36ea6b5215b0ba9ee01c72dfcb94" target="_top" xlink:title="CellSocietyView.getPlayElement">
<polygon fill="white" stroke="black" points="196,-182.275 196,-201.275 364,-201.275 364,-182.275 196,-182.275"/>
<text text-anchor="middle" x="280" y="-189.275" font-family="Helvetica,sans-Serif" font-size="10.00">CellSocietyView.getPlayElement</text>
</a>
</g>
</g>
<!-- Node1&#45;&gt;Node16 -->
<g id="edge15" class="edge"><title>Node1&#45;&gt;Node16</title>
<path fill="none" stroke="midnightblue" d="M101.076,-248.14C123.692,-238.07 160.842,-222.298 194,-211.775 203.223,-208.848 213.131,-206.137 222.809,-203.717"/>
<polygon fill="midnightblue" stroke="midnightblue" points="223.878,-207.059 232.773,-201.303 222.23,-200.256 223.878,-207.059"/>
</g>
<!-- Node17 -->
<g id="node17" class="node"><title>Node17</title>
<g id="a_node17"><a xlink:href="../../df/df8/class_cell_society_view.html#a0f616a01579a7293ef781d3e341ea1ac" target="_top" xlink:title="CellSocietyView.getSlowdown\lElement">
<polygon fill="white" stroke="black" points="202.5,-132.775 202.5,-162.775 357.5,-162.775 357.5,-132.775 202.5,-132.775"/>
<text text-anchor="start" x="210.5" y="-150.775" font-family="Helvetica,sans-Serif" font-size="10.00">CellSocietyView.getSlowdown</text>
<text text-anchor="middle" x="280" y="-139.775" font-family="Helvetica,sans-Serif" font-size="10.00">Element</text>
</a>
</g>
</g>
<!-- Node1&#45;&gt;Node17 -->
<g id="edge16" class="edge"><title>Node1&#45;&gt;Node17</title>
<path fill="none" stroke="midnightblue" d="M90.158,-248.194C109.121,-230.793 151.819,-193.851 194,-172.775 198.612,-170.471 203.473,-168.341 208.439,-166.38"/>
<polygon fill="midnightblue" stroke="midnightblue" points="209.915,-169.566 218.081,-162.816 207.487,-163.001 209.915,-169.566"/>
</g>
<!-- Node18 -->
<g id="node18" class="node"><title>Node18</title>
<g id="a_node18"><a xlink:href="../../df/df8/class_cell_society_view.html#a572d464cbe7d186dc9a5b0e4a8130689" target="_top" xlink:title="CellSocietyView.getSpeedup\lElement">
<polygon fill="white" stroke="black" points="204,-83.775 204,-113.775 356,-113.775 356,-83.775 204,-83.775"/>
<text text-anchor="start" x="212" y="-101.775" font-family="Helvetica,sans-Serif" font-size="10.00">CellSocietyView.getSpeedup</text>
<text text-anchor="middle" x="280" y="-90.775" font-family="Helvetica,sans-Serif" font-size="10.00">Element</text>
</a>
</g>
</g>
<!-- Node1&#45;&gt;Node18 -->
<g id="edge17" class="edge"><title>Node1&#45;&gt;Node18</title>
<path fill="none" stroke="midnightblue" d="M85.5182,-248C99.9743,-223.29 141.487,-157.877 194,-123.775 197.153,-121.728 200.478,-119.843 203.914,-118.11"/>
<polygon fill="midnightblue" stroke="midnightblue" points="205.58,-121.197 213.227,-113.864 202.676,-114.828 205.58,-121.197"/>
</g>
<!-- Node19 -->
<g id="node19" class="node"><title>Node19</title>
<g id="a_node19"><a xlink:href="../../df/df8/class_cell_society_view.html#a3c3a7039f77d392c374cd309967ca1cc" target="_top" xlink:title="CellSocietyView.getStepElement">
<polygon fill="white" stroke="black" points="194.5,-45.275 194.5,-64.275 365.5,-64.275 365.5,-45.275 194.5,-45.275"/>
<text text-anchor="middle" x="280" y="-52.275" font-family="Helvetica,sans-Serif" font-size="10.00">CellSocietyView.getStepElement</text>
</a>
</g>
</g>
<!-- Node1&#45;&gt;Node19 -->
<g id="edge18" class="edge"><title>Node1&#45;&gt;Node19</title>
<path fill="none" stroke="midnightblue" d="M83.0468,-247.871C93.1649,-216.734 128.763,-120.153 194,-73.775 196.711,-71.8475 199.584,-70.1109 202.571,-68.5467"/>
<polygon fill="midnightblue" stroke="midnightblue" points="204.162,-71.6684 211.826,-64.3528 201.273,-65.2925 204.162,-71.6684"/>
</g>
<!-- Node20 -->
<g id="node20" class="node"><title>Node20</title>
<g id="a_node20"><a xlink:href="../../df/df8/class_cell_society_view.html#aebad9aaff0e9784fec1518d319e03c85" target="_top" xlink:title="CellSocietyView.getXMLElement">
<polygon fill="white" stroke="black" points="196,-7.27498 196,-26.275 364,-26.275 364,-7.27498 196,-7.27498"/>
<text text-anchor="middle" x="280" y="-14.275" font-family="Helvetica,sans-Serif" font-size="10.00">CellSocietyView.getXMLElement</text>
</a>
</g>
</g>
<!-- Node1&#45;&gt;Node20 -->
<g id="edge19" class="edge"><title>Node1&#45;&gt;Node20</title>
<path fill="none" stroke="midnightblue" d="M81.9525,-247.892C89.426,-212.808 119.62,-93.282 194,-35.775 196.299,-33.9974 198.732,-32.3797 201.266,-30.9078"/>
<polygon fill="midnightblue" stroke="midnightblue" points="202.832,-34.038 210.221,-26.445 199.709,-27.7729 202.832,-34.038"/>
</g>
<!-- Node21 -->
<g id="node21" class="node"><title>Node21</title>
<g id="a_node21"><a xlink:href="../../d3/dff/class_cell_society.html#a8250bfacdaf51dabf6b9d1cafc0ce9b2" target="_top" xlink:title="CellSociety.increaseFrameRate">
<polygon fill="white" stroke="black" points="198.5,-479.275 198.5,-498.275 361.5,-498.275 361.5,-479.275 198.5,-479.275"/>
<text text-anchor="middle" x="280" y="-486.275" font-family="Helvetica,sans-Serif" font-size="10.00">CellSociety.increaseFrameRate</text>
</a>
</g>
</g>
<!-- Node1&#45;&gt;Node21 -->
<g id="edge20" class="edge"><title>Node1&#45;&gt;Node21</title>
<path fill="none" stroke="midnightblue" d="M88.2974,-267.407C118.767,-302.776 224.753,-425.805 264.124,-471.507"/>
<polygon fill="midnightblue" stroke="midnightblue" points="261.489,-473.81 270.667,-479.102 266.792,-469.241 261.489,-473.81"/>
</g>
<!-- Node22 -->
<g id="node22" class="node"><title>Node22</title>
<g id="a_node22"><a xlink:href="../../d3/dff/class_cell_society.html#ae565a305ea53e5a37da9816a236b4fbc" target="_top" xlink:title="CellSociety.pauseAnimation">
<polygon fill="white" stroke="black" points="420.5,-49.275 420.5,-68.275 569.5,-68.275 569.5,-49.275 420.5,-49.275"/>
<text text-anchor="middle" x="495" y="-56.275" font-family="Helvetica,sans-Serif" font-size="10.00">CellSociety.pauseAnimation</text>
</a>
</g>
</g>
<!-- Node1&#45;&gt;Node22 -->
<g id="edge22" class="edge"><title>Node1&#45;&gt;Node22</title>
<path fill="none" stroke="midnightblue" d="M95.5947,-267.29C142.69,-294.682 285.178,-367.497 366,-298.775 441.815,-234.311 333.131,-149.612 402,-77.775 404.839,-74.8133 408.009,-72.2503 411.417,-70.036"/>
<polygon fill="midnightblue" stroke="midnightblue" points="413.191,-73.0556 420.325,-65.2224 409.863,-66.8972 413.191,-73.0556"/>
</g>
<!-- Node24 -->
<g id="node24" class="node"><title>Node24</title>
<g id="a_node24"><a xlink:href="../../d3/dff/class_cell_society.html#af9f22af39a97a58b26126020ca6c8844" target="_top" xlink:title="CellSociety.readNewXML">
<polygon fill="white" stroke="black" points="214,-346.275 214,-365.275 346,-365.275 346,-346.275 214,-346.275"/>
<text text-anchor="middle" x="280" y="-353.275" font-family="Helvetica,sans-Serif" font-size="10.00">CellSociety.readNewXML</text>
</a>
</g>
</g>
<!-- Node1&#45;&gt;Node24 -->
<g id="edge24" class="edge"><title>Node1&#45;&gt;Node24</title>
<path fill="none" stroke="midnightblue" d="M91.9427,-267.284C111.959,-282.804 154.025,-313.66 194,-331.775 204.052,-336.33 215.17,-340.221 225.96,-343.461"/>
<polygon fill="midnightblue" stroke="midnightblue" points="225.16,-346.872 235.737,-346.253 227.083,-340.141 225.16,-346.872"/>
</g>
<!-- Node41 -->
<g id="node41" class="node"><title>Node41</title>
<g id="a_node41"><a xlink:href="../../d3/dff/class_cell_society.html#a6a4056cd40e4162583f2b9845b77a191" target="_top" xlink:title="CellSociety.resumeAnimation">
<polygon fill="white" stroke="black" points="202,-270.275 202,-289.275 358,-289.275 358,-270.275 202,-270.275"/>
<text text-anchor="middle" x="280" y="-277.275" font-family="Helvetica,sans-Serif" font-size="10.00">CellSociety.resumeAnimation</text>
</a>
</g>
</g>
<!-- Node1&#45;&gt;Node41 -->
<g id="edge50" class="edge"><title>Node1&#45;&gt;Node41</title>
<path fill="none" stroke="midnightblue" d="M158.079,-266.407C169.083,-267.623 180.455,-268.881 191.62,-270.115"/>
<polygon fill="midnightblue" stroke="midnightblue" points="191.475,-273.62 201.799,-271.24 192.244,-266.662 191.475,-273.62"/>
</g>
<!-- Node3 -->
<g id="node3" class="node"><title>Node3</title>
<g id="a_node3"><a xlink:href="../../d3/dff/class_cell_society.html#adc5feda3db5472cea4e092d463681033" target="_top" xlink:title="CellSociety.reframeTimeline">
<polygon fill="white" stroke="black" points="420.5,-650.275 420.5,-669.275 569.5,-669.275 569.5,-650.275 420.5,-650.275"/>
<text text-anchor="middle" x="495" y="-657.275" font-family="Helvetica,sans-Serif" font-size="10.00">CellSociety.reframeTimeline</text>
</a>
</g>
</g>
<!-- Node2&#45;&gt;Node3 -->
<g id="edge2" class="edge"><title>Node2&#45;&gt;Node3</title>
<path fill="none" stroke="midnightblue" d="M324.104,-622.286C357.771,-629.715 404.729,-640.077 440.747,-648.024"/>
<polygon fill="midnightblue" stroke="midnightblue" points="440.076,-651.46 450.595,-650.197 441.584,-644.625 440.076,-651.46"/>
</g>
<!-- Node4 -->
<g id="node4" class="node"><title>Node4</title>
<g id="a_node4"><a xlink:href="../../df/df8/class_cell_society_view.html#a99eb733c00ed7c1bcba8f2d684791a09" target="_top" xlink:title="CellSocietyView.displayFrameRate">
<polygon fill="white" stroke="black" points="624,-641.275 624,-660.275 802,-660.275 802,-641.275 624,-641.275"/>
<text text-anchor="middle" x="713" y="-648.275" font-family="Helvetica,sans-Serif" font-size="10.00">CellSocietyView.displayFrameRate</text>
</a>
</g>
</g>
<!-- Node3&#45;&gt;Node4 -->
<g id="edge3" class="edge"><title>Node3&#45;&gt;Node4</title>
<path fill="none" stroke="midnightblue" d="M569.731,-656.703C583.831,-656.115 598.801,-655.492 613.533,-654.878"/>
<polygon fill="midnightblue" stroke="midnightblue" points="613.834,-658.368 623.68,-654.455 613.543,-651.374 613.834,-658.368"/>
</g>
<!-- Node5 -->
<g id="node5" class="node"><title>Node5</title>
<g id="a_node5"><a xlink:href="../../d3/dff/class_cell_society.html#abf13a64ee79f2cb063447b499c695c58" target="_top" xlink:title="CellSociety.start">
<polygon fill="white" stroke="black" points="666.5,-555.275 666.5,-574.275 759.5,-574.275 759.5,-555.275 666.5,-555.275"/>
<text text-anchor="middle" x="713" y="-562.275" font-family="Helvetica,sans-Serif" font-size="10.00">CellSociety.start</text>
</a>
</g>
</g>
<!-- Node3&#45;&gt;Node5 -->
<g id="edge4" class="edge"><title>Node3&#45;&gt;Node5</title>
<path fill="none" stroke="midnightblue" d="M517.9,-650.143C556.488,-633.171 636.691,-597.897 680.967,-578.424"/>
<polygon fill="midnightblue" stroke="midnightblue" points="682.619,-581.521 690.363,-574.291 679.8,-575.113 682.619,-581.521"/>
</g>
<!-- Node5&#45;&gt;Node6 -->
<g id="edge5" class="edge"><title>Node5&#45;&gt;Node6</title>
<path fill="none" stroke="midnightblue" d="M759.557,-564.775C784.856,-564.775 816.898,-564.775 845.463,-564.775"/>
<polygon fill="midnightblue" stroke="midnightblue" points="845.811,-568.275 855.81,-564.775 845.81,-561.275 845.811,-568.275"/>
</g>
<!-- Node7 -->
<g id="node7" class="node"><title>Node7</title>
<g id="a_node7"><a xlink:href="../../d6/d6e/class_sim_controller.html#a10145cee2eaceb4ecad9396a825051d1" target="_top" xlink:title="SimController.runOneSim">
<polygon fill="white" stroke="black" points="1048,-555.275 1048,-574.275 1186,-574.275 1186,-555.275 1048,-555.275"/>
<text text-anchor="middle" x="1117" y="-562.275" font-family="Helvetica,sans-Serif" font-size="10.00">SimController.runOneSim</text>
</a>
</g>
</g>
<!-- Node6&#45;&gt;Node7 -->
<g id="edge6" class="edge"><title>Node6&#45;&gt;Node7</title>
<path fill="none" stroke="midnightblue" d="M980.252,-564.775C998.443,-564.775 1018.62,-564.775 1037.74,-564.775"/>
<polygon fill="midnightblue" stroke="midnightblue" points="1037.92,-568.275 1047.92,-564.775 1037.92,-561.275 1037.92,-568.275"/>
</g>
<!-- Node11 -->
<g id="node11" class="node"><title>Node11</title>
<g id="a_node11"><a xlink:href="../../df/df8/class_cell_society_view.html#a43ac2666d3a002024be53fe74028a576" target="_top" xlink:title="CellSocietyView.updateSimGrid">
<polygon fill="white" stroke="black" points="1034.5,-593.275 1034.5,-612.275 1199.5,-612.275 1199.5,-593.275 1034.5,-593.275"/>
<text text-anchor="middle" x="1117" y="-600.275" font-family="Helvetica,sans-Serif" font-size="10.00">CellSocietyView.updateSimGrid</text>
</a>
</g>
</g>
<!-- Node6&#45;&gt;Node11 -->
<g id="edge10" class="edge"><title>Node6&#45;&gt;Node11</title>
<path fill="none" stroke="midnightblue" d="M968.457,-574.315C995.154,-579.465 1028.3,-585.859 1056.42,-591.281"/>
<polygon fill="midnightblue" stroke="midnightblue" points="1056.04,-594.774 1066.52,-593.231 1057.37,-587.9 1056.04,-594.774"/>
</g>
<!-- Node13 -->
<g id="node13" class="node"><title>Node13</title>
<g id="a_node13"><a xlink:href="../../d2/d95/class_x_m_l_parser.html#ac4e3257aed1deb9fe950149f706fce5b" target="_top" xlink:title="XMLParser.getCellParamList">
<polygon fill="white" stroke="black" points="1042.5,-517.275 1042.5,-536.275 1191.5,-536.275 1191.5,-517.275 1042.5,-517.275"/>
<text text-anchor="middle" x="1117" y="-524.275" font-family="Helvetica,sans-Serif" font-size="10.00">XMLParser.getCellParamList</text>
</a>
</g>
</g>
<!-- Node6&#45;&gt;Node13 -->
<g id="edge12" class="edge"><title>Node6&#45;&gt;Node13</title>
<path fill="none" stroke="midnightblue" d="M968.457,-555.235C995.154,-550.085 1028.3,-543.691 1056.42,-538.269"/>
<polygon fill="midnightblue" stroke="midnightblue" points="1057.37,-541.65 1066.52,-536.319 1056.04,-534.776 1057.37,-541.65"/>
</g>
<!-- Node14 -->
<g id="node14" class="node"><title>Node14</title>
<g id="a_node14"><a xlink:href="../../df/df8/class_cell_society_view.html#a7ca77bdfdef97e9be9c9941c2f4d3513" target="_top" xlink:title="CellSocietyView.updateChart\lLines">
<polygon fill="white" stroke="black" points="1040.5,-375.775 1040.5,-405.775 1193.5,-405.775 1193.5,-375.775 1040.5,-375.775"/>
<text text-anchor="start" x="1048.5" y="-393.775" font-family="Helvetica,sans-Serif" font-size="10.00">CellSocietyView.updateChart</text>
<text text-anchor="middle" x="1117" y="-382.775" font-family="Helvetica,sans-Serif" font-size="10.00">Lines</text>
</a>
</g>
</g>
<!-- Node6&#45;&gt;Node14 -->
<g id="edge13" class="edge"><title>Node6&#45;&gt;Node14</title>
<path fill="none" stroke="midnightblue" d="M929.872,-555.172C960.55,-528.076 1048.36,-450.522 1091.49,-412.425"/>
<polygon fill="midnightblue" stroke="midnightblue" points="1093.82,-415.035 1099,-405.791 1089.19,-409.788 1093.82,-415.035"/>
</g>
<!-- Node8 -->
<g id="node8" class="node"><title>Node8</title>
<g id="a_node8"><a xlink:href="../../dd/ddd/class_neighbor.html#ac769186595af20512a2ec4754db75640" target="_top" xlink:title="Neighbor.getNeighbors">
<polygon fill="white" stroke="black" points="1247.5,-495.275 1247.5,-514.275 1374.5,-514.275 1374.5,-495.275 1247.5,-495.275"/>
<text text-anchor="middle" x="1311" y="-502.275" font-family="Helvetica,sans-Serif" font-size="10.00">Neighbor.getNeighbors</text>
</a>
</g>
</g>
<!-- Node7&#45;&gt;Node8 -->
<g id="edge7" class="edge"><title>Node7&#45;&gt;Node8</title>
<path fill="none" stroke="midnightblue" d="M1170.84,-555.169C1180.7,-552.639 1190.8,-549.536 1200,-545.775 1217.36,-538.679 1218.73,-531.076 1236,-523.775 1241.77,-521.335 1247.94,-519.148 1254.15,-517.204"/>
<polygon fill="midnightblue" stroke="midnightblue" points="1255.29,-520.518 1263.9,-514.349 1253.32,-513.8 1255.29,-520.518"/>
</g>
<!-- Node9 -->
<g id="node9" class="node"><title>Node9</title>
<g id="a_node9"><a xlink:href="../../d6/d6e/class_sim_controller.html#a1538c5c647988e5d5b6602c8eb1b8949" target="_top" xlink:title="SimController.getNeighbors\lState">
<polygon fill="white" stroke="black" points="1236.5,-571.775 1236.5,-601.775 1385.5,-601.775 1385.5,-571.775 1236.5,-571.775"/>
<text text-anchor="start" x="1244.5" y="-589.775" font-family="Helvetica,sans-Serif" font-size="10.00">SimController.getNeighbors</text>
<text text-anchor="middle" x="1311" y="-578.775" font-family="Helvetica,sans-Serif" font-size="10.00">State</text>
</a>
</g>
</g>
<!-- Node7&#45;&gt;Node9 -->
<g id="edge8" class="edge"><title>Node7&#45;&gt;Node9</title>
<path fill="none" stroke="midnightblue" d="M1186.23,-572.593C1199.2,-574.079 1212.91,-575.65 1226.3,-577.184"/>
<polygon fill="midnightblue" stroke="midnightblue" points="1226.12,-580.686 1236.45,-578.348 1226.92,-573.732 1226.12,-580.686"/>
</g>
<!-- Node10 -->
<g id="node10" class="node"><title>Node10</title>
<g id="a_node10"><a xlink:href="../../d6/d6e/class_sim_controller.html#a6b7a166a6fd312895c8356d24de980e3" target="_top" xlink:title="SimController.newState">
<polygon fill="white" stroke="black" points="1246.5,-533.275 1246.5,-552.275 1375.5,-552.275 1375.5,-533.275 1246.5,-533.275"/>
<text text-anchor="middle" x="1311" y="-540.275" font-family="Helvetica,sans-Serif" font-size="10.00">SimController.newState</text>
</a>
</g>
</g>
<!-- Node7&#45;&gt;Node10 -->
<g id="edge9" class="edge"><title>Node7&#45;&gt;Node10</title>
<path fill="none" stroke="midnightblue" d="M1186.23,-556.957C1202.48,-555.095 1219.88,-553.101 1236.36,-551.213"/>
<polygon fill="midnightblue" stroke="midnightblue" points="1236.94,-554.669 1246.48,-550.053 1236.15,-547.715 1236.94,-554.669"/>
</g>
<!-- Node12 -->
<g id="node12" class="node"><title>Node12</title>
<g id="a_node12"><a xlink:href="../../dd/d11/class_cell.html#a1e0ece61fecc69a9b7986d17d925434a" target="_top" xlink:title="Cell.getShape">
<polygon fill="white" stroke="black" points="1269.5,-621.275 1269.5,-640.275 1352.5,-640.275 1352.5,-621.275 1269.5,-621.275"/>
<text text-anchor="middle" x="1311" y="-628.275" font-family="Helvetica,sans-Serif" font-size="10.00">Cell.getShape</text>
</a>
</g>
</g>
<!-- Node11&#45;&gt;Node12 -->
<g id="edge11" class="edge"><title>Node11&#45;&gt;Node12</title>
<path fill="none" stroke="midnightblue" d="M1183.27,-612.294C1208.08,-615.912 1235.95,-619.977 1259.23,-623.371"/>
<polygon fill="midnightblue" stroke="midnightblue" points="1258.83,-626.85 1269.23,-624.83 1259.84,-619.924 1258.83,-626.85"/>
</g>
<!-- Node21&#45;&gt;Node3 -->
<g id="edge21" class="edge"><title>Node21&#45;&gt;Node3</title>
<path fill="none" stroke="midnightblue" d="M289.029,-498.695C315.455,-531.324 398.257,-633.383 402,-635.775 409.098,-640.311 417.022,-643.992 425.16,-646.979"/>
<polygon fill="midnightblue" stroke="midnightblue" points="424.183,-650.343 434.776,-650.177 426.391,-643.7 424.183,-650.343"/>
</g>
<!-- Node23 -->
<g id="node23" class="node"><title>Node23</title>
<g id="a_node23"><a xlink:href="../../df/df8/class_cell_society_view.html#ae83511f9bf3610b0750d41c4aeb0f778" target="_top" xlink:title="CellSocietyView.setButtons\lPause">
<polygon fill="white" stroke="black" points="640,-24.775 640,-54.775 786,-54.775 786,-24.775 640,-24.775"/>
<text text-anchor="start" x="648" y="-42.775" font-family="Helvetica,sans-Serif" font-size="10.00">CellSocietyView.setButtons</text>
<text text-anchor="middle" x="713" y="-31.775" font-family="Helvetica,sans-Serif" font-size="10.00">Pause</text>
</a>
</g>
</g>
<!-- Node22&#45;&gt;Node23 -->
<g id="edge23" class="edge"><title>Node22&#45;&gt;Node23</title>
<path fill="none" stroke="midnightblue" d="M569.731,-52.2894C588.984,-50.5958 609.859,-48.7596 629.534,-47.0289"/>
<polygon fill="midnightblue" stroke="midnightblue" points="630.044,-50.4977 639.699,-46.1348 629.43,-43.5246 630.044,-50.4977"/>
</g>
<!-- Node24&#45;&gt;Node4 -->
<g id="edge44" class="edge"><title>Node24&#45;&gt;Node4</title>
<path fill="none" stroke="midnightblue" d="M290.086,-365.322C307.331,-383.94 344.957,-427.026 366,-469.775 392.099,-522.795 358.081,-558.235 402,-597.775 418.15,-612.315 534.095,-629.267 619.472,-640.008"/>
<polygon fill="midnightblue" stroke="midnightblue" points="619.105,-643.489 629.461,-641.254 619.971,-636.543 619.105,-643.489"/>
</g>
<!-- Node24&#45;&gt;Node11 -->
<g id="edge42" class="edge"><title>Node24&#45;&gt;Node11</title>
<path fill="none" stroke="midnightblue" d="M289.748,-365.498C306.415,-384.416 343.096,-427.994 366,-469.775 387.705,-509.368 365.973,-537.558 402,-564.775 450.483,-601.401 842.476,-604.23 1024.16,-603.535"/>
<polygon fill="midnightblue" stroke="midnightblue" points="1024.25,-607.035 1034.23,-603.492 1024.22,-600.035 1024.25,-607.035"/>
</g>
<!-- Node24&#45;&gt;Node13 -->
<g id="edge45" class="edge"><title>Node24&#45;&gt;Node13</title>
<path fill="none" stroke="midnightblue" d="M287.812,-365.596C304.323,-388.506 349.047,-445.383 402,-469.775 512.077,-520.479 868.458,-527.016 1032.25,-527.248"/>
<polygon fill="midnightblue" stroke="midnightblue" points="1032.28,-530.748 1042.29,-527.255 1032.29,-523.748 1032.28,-530.748"/>
</g>
<!-- Node24&#45;&gt;Node14 -->
<g id="edge47" class="edge"><title>Node24&#45;&gt;Node14</title>
<path fill="none" stroke="midnightblue" d="M308.116,-346.2C337.872,-335.883 383.827,-320.562 402,-317.775 577.724,-290.831 625.38,-297.515 802,-317.775 892.517,-328.158 994.887,-354.855 1057.43,-372.919"/>
<polygon fill="midnightblue" stroke="midnightblue" points="1056.54,-376.305 1067.12,-375.741 1058.5,-369.584 1056.54,-376.305"/>
</g>
<!-- Node24&#45;&gt;Node22 -->
<g id="edge43" class="edge"><title>Node24&#45;&gt;Node22</title>
<path fill="none" stroke="midnightblue" d="M346.072,-346.174C353.619,-342.682 360.551,-338.01 366,-331.775 441.027,-245.921 323.951,-160.891 402,-77.775 404.809,-74.7841 407.953,-72.1976 411.342,-69.9648"/>
<polygon fill="midnightblue" stroke="midnightblue" points="413.117,-72.9833 420.211,-65.1146 409.758,-66.8416 413.117,-72.9833"/>
</g>
<!-- Node25 -->
<g id="node25" class="node"><title>Node25</title>
<g id="a_node25"><a xlink:href="../../df/df8/class_cell_society_view.html#a053b6ef6afa80722445223c4e373e51c" target="_top" xlink:title="CellSocietyView.displayXMLChooser">
<polygon fill="white" stroke="black" points="402.5,-365.275 402.5,-384.275 587.5,-384.275 587.5,-365.275 402.5,-365.275"/>
<text text-anchor="middle" x="495" y="-372.275" font-family="Helvetica,sans-Serif" font-size="10.00">CellSocietyView.displayXMLChooser</text>
</a>
</g>
</g>
<!-- Node24&#45;&gt;Node25 -->
<g id="edge25" class="edge"><title>Node24&#45;&gt;Node25</title>
<path fill="none" stroke="midnightblue" d="M346.064,-361.579C360.616,-362.877 376.391,-364.284 392.035,-365.68"/>
<polygon fill="midnightblue" stroke="midnightblue" points="392.011,-369.191 402.283,-366.594 392.633,-362.219 392.011,-369.191"/>
</g>
<!-- Node26 -->
<g id="node26" class="node"><title>Node26</title>
<g id="a_node26"><a xlink:href="../../d2/d95/class_x_m_l_parser.html#a77ee23818c822b69cdf4200eef726a61" target="_top" xlink:title="XMLParser.parseXMLFile">
<polygon fill="white" stroke="black" points="430,-251.275 430,-270.275 560,-270.275 560,-251.275 430,-251.275"/>
<text text-anchor="middle" x="495" y="-258.275" font-family="Helvetica,sans-Serif" font-size="10.00">XMLParser.parseXMLFile</text>
</a>
</g>
</g>
<!-- Node24&#45;&gt;Node26 -->
<g id="edge26" class="edge"><title>Node24&#45;&gt;Node26</title>
<path fill="none" stroke="midnightblue" d="M335.007,-346.152C345.846,-342.712 356.737,-338.06 366,-331.775 387.773,-317.001 380.08,-299.33 402,-284.775 408.746,-280.296 416.284,-276.652 424.064,-273.688"/>
<polygon fill="midnightblue" stroke="midnightblue" points="425.316,-276.958 433.636,-270.399 423.042,-270.338 425.316,-276.958"/>
</g>
<!-- Node30 -->
<g id="node30" class="node"><title>Node30</title>
<g id="a_node30"><a xlink:href="../../d3/dff/class_cell_society.html#abfbf43ce46b4c82c16a2d933b6a11abf" target="_top" xlink:title="CellSociety.retrieveParserInfo">
<polygon fill="white" stroke="black" points="417.5,-327.275 417.5,-346.275 572.5,-346.275 572.5,-327.275 417.5,-327.275"/>
<text text-anchor="middle" x="495" y="-334.275" font-family="Helvetica,sans-Serif" font-size="10.00">CellSociety.retrieveParserInfo</text>
</a>
</g>
</g>
<!-- Node24&#45;&gt;Node30 -->
<g id="edge30" class="edge"><title>Node24&#45;&gt;Node30</title>
<path fill="none" stroke="midnightblue" d="M346.064,-349.971C365.41,-348.245 386.916,-346.327 407.404,-344.5"/>
<polygon fill="midnightblue" stroke="midnightblue" points="407.716,-347.986 417.365,-343.611 407.094,-341.013 407.716,-347.986"/>
</g>
<!-- Node31 -->
<g id="node31" class="node"><title>Node31</title>
<g id="a_node31"><a xlink:href="../../d2/d95/class_x_m_l_parser.html#aea9b535964c91fa3c3d2b1c0b6a334c2" target="_top" xlink:title="XMLParser.getInitParamMap">
<polygon fill="white" stroke="black" points="638.5,-365.275 638.5,-384.275 787.5,-384.275 787.5,-365.275 638.5,-365.275"/>
<text text-anchor="middle" x="713" y="-372.275" font-family="Helvetica,sans-Serif" font-size="10.00">XMLParser.getInitParamMap</text>
</a>
</g>
</g>
<!-- Node24&#45;&gt;Node31 -->
<g id="edge34" class="edge"><title>Node24&#45;&gt;Node31</title>
<path fill="none" stroke="midnightblue" d="M304.146,-365.37C328.135,-374.757 366.96,-388.402 402,-393.775 488.333,-407.013 589.525,-395.891 652.209,-385.937"/>
<polygon fill="midnightblue" stroke="midnightblue" points="653.004,-389.354 662.31,-384.29 651.877,-382.445 653.004,-389.354"/>
</g>
<!-- Node33 -->
<g id="node33" class="node"><title>Node33</title>
<g id="a_node33"><a xlink:href="../../dd/d11/class_cell.html#a7157b57f4ff263ea68e1ff5fc424176e" target="_top" xlink:title="Cell.setCellSize">
<polygon fill="white" stroke="black" points="450.5,-213.275 450.5,-232.275 539.5,-232.275 539.5,-213.275 450.5,-213.275"/>
<text text-anchor="middle" x="495" y="-220.275" font-family="Helvetica,sans-Serif" font-size="10.00">Cell.setCellSize</text>
</a>
</g>
</g>
<!-- Node24&#45;&gt;Node33 -->
<g id="edge33" class="edge"><title>Node24&#45;&gt;Node33</title>
<path fill="none" stroke="midnightblue" d="M341.283,-346.272C350.303,-342.821 358.933,-338.134 366,-331.775 398.024,-302.958 368.966,-269.429 402,-241.775 412.768,-232.761 426.699,-227.661 440.449,-224.862"/>
<polygon fill="midnightblue" stroke="midnightblue" points="441.091,-228.304 450.38,-223.208 439.941,-221.399 441.091,-228.304"/>
</g>
<!-- Node34 -->
<g id="node34" class="node"><title>Node34</title>
<g id="a_node34"><a xlink:href="../../d3/dff/class_cell_society.html#a7a6dab68551f91cc4b120faa51670bf8" target="_top" xlink:title="CellSociety.createCellArray">
<polygon fill="white" stroke="black" points="423,-441.275 423,-460.275 567,-460.275 567,-441.275 423,-441.275"/>
<text text-anchor="middle" x="495" y="-448.275" font-family="Helvetica,sans-Serif" font-size="10.00">CellSociety.createCellArray</text>
</a>
</g>
</g>
<!-- Node24&#45;&gt;Node34 -->
<g id="edge35" class="edge"><title>Node24&#45;&gt;Node34</title>
<path fill="none" stroke="midnightblue" d="M294.505,-365.393C316.203,-380.444 360.599,-409.616 402,-426.775 413.198,-431.416 425.543,-435.37 437.454,-438.648"/>
<polygon fill="midnightblue" stroke="midnightblue" points="436.762,-442.085 447.323,-441.243 438.542,-435.315 436.762,-442.085"/>
</g>
<!-- Node37 -->
<g id="node37" class="node"><title>Node37</title>
<g id="a_node37"><a xlink:href="../../d3/dff/class_cell_society.html#ab9e56a2a70e210e021b51e898508329b" target="_top" xlink:title="CellSociety.setupAnimation">
<polygon fill="white" stroke="black" points="422,-536.275 422,-555.275 568,-555.275 568,-536.275 422,-536.275"/>
<text text-anchor="middle" x="495" y="-543.275" font-family="Helvetica,sans-Serif" font-size="10.00">CellSociety.setupAnimation</text>
</a>
</g>
</g>
<!-- Node24&#45;&gt;Node37 -->
<g id="edge40" class="edge"><title>Node24&#45;&gt;Node37</title>
<path fill="none" stroke="midnightblue" d="M288.393,-365.449C303.293,-385 337.907,-430.682 366,-469.775 382.404,-492.601 378.964,-505.667 402,-521.775 408.373,-526.231 415.516,-529.86 422.929,-532.815"/>
<polygon fill="midnightblue" stroke="midnightblue" points="421.832,-536.14 432.427,-536.209 424.188,-529.548 421.832,-536.14"/>
</g>
<!-- Node38 -->
<g id="node38" class="node"><title>Node38</title>
<g id="a_node38"><a xlink:href="../../df/df8/class_cell_society_view.html#a930d889b8619ae93731b8542ce285180" target="_top" xlink:title="CellSocietyView.generate\lChartLines">
<polygon fill="white" stroke="black" points="426.5,-163.775 426.5,-193.775 563.5,-193.775 563.5,-163.775 426.5,-163.775"/>
<text text-anchor="start" x="434.5" y="-181.775" font-family="Helvetica,sans-Serif" font-size="10.00">CellSocietyView.generate</text>
<text text-anchor="middle" x="495" y="-170.775" font-family="Helvetica,sans-Serif" font-size="10.00">ChartLines</text>
</a>
</g>
</g>
<!-- Node24&#45;&gt;Node38 -->
<g id="edge46" class="edge"><title>Node24&#45;&gt;Node38</title>
<path fill="none" stroke="midnightblue" d="M343.608,-346.204C351.914,-342.74 359.714,-338.067 366,-331.775 407.766,-289.966 360.029,-245.377 402,-203.775 406.368,-199.446 411.406,-195.846 416.827,-192.856"/>
<polygon fill="midnightblue" stroke="midnightblue" points="418.729,-195.828 426.263,-188.379 415.728,-189.504 418.729,-195.828"/>
</g>
<!-- Node39 -->
<g id="node39" class="node"><title>Node39</title>
<g id="a_node39"><a xlink:href="../../df/df8/class_cell_society_view.html#a657e807b4a00834e06468273d93fa7a5" target="_top" xlink:title="CellSocietyView.openDialogBox">
<polygon fill="white" stroke="black" points="412.5,-125.275 412.5,-144.275 577.5,-144.275 577.5,-125.275 412.5,-125.275"/>
<text text-anchor="middle" x="495" y="-132.275" font-family="Helvetica,sans-Serif" font-size="10.00">CellSocietyView.openDialogBox</text>
</a>
</g>
</g>
<!-- Node24&#45;&gt;Node39 -->
<g id="edge48" class="edge"><title>Node24&#45;&gt;Node39</title>
<path fill="none" stroke="midnightblue" d="M344.881,-346.242C352.805,-342.758 360.159,-338.069 366,-331.775 420.61,-272.935 345.617,-211.919 402,-154.775 403.679,-153.073 405.466,-151.501 407.344,-150.048"/>
<polygon fill="midnightblue" stroke="midnightblue" points="409.583,-152.77 416.103,-144.419 405.798,-146.882 409.583,-152.77"/>
</g>
<!-- Node40 -->
<g id="node40" class="node"><title>Node40</title>
<g id="a_node40"><a xlink:href="../../df/df8/class_cell_society_view.html#a989874eb178e925124f50d7cabcc184c" target="_top" xlink:title="CellSocietyView.setGridGap">
<polygon fill="white" stroke="black" points="421.5,-87.275 421.5,-106.275 568.5,-106.275 568.5,-87.275 421.5,-87.275"/>
<text text-anchor="middle" x="495" y="-94.275" font-family="Helvetica,sans-Serif" font-size="10.00">CellSocietyView.setGridGap</text>
</a>
</g>
</g>
<!-- Node24&#45;&gt;Node40 -->
<g id="edge49" class="edge"><title>Node24&#45;&gt;Node40</title>
<path fill="none" stroke="midnightblue" d="M345.51,-346.241C353.241,-342.748 360.373,-338.057 366,-331.775 430.93,-259.276 334.519,-185.906 402,-115.775 405.053,-112.602 408.486,-109.887 412.184,-107.568"/>
<polygon fill="midnightblue" stroke="midnightblue" points="413.989,-110.574 421.24,-102.85 410.754,-104.366 413.989,-110.574"/>
</g>
<!-- Node27 -->
<g id="node27" class="node"><title>Node27</title>
<g id="a_node27"><a xlink:href="../../d2/d95/class_x_m_l_parser.html#ae67767f9678fb650ac38b1321ea9f723" target="_top" xlink:title="XMLParser.parseInitialTags">
<polygon fill="white" stroke="black" points="642.5,-251.275 642.5,-270.275 783.5,-270.275 783.5,-251.275 642.5,-251.275"/>
<text text-anchor="middle" x="713" y="-258.275" font-family="Helvetica,sans-Serif" font-size="10.00">XMLParser.parseInitialTags</text>
</a>
</g>
</g>
<!-- Node26&#45;&gt;Node27 -->
<g id="edge27" class="edge"><title>Node26&#45;&gt;Node27</title>
<path fill="none" stroke="midnightblue" d="M560.222,-260.775C582.855,-260.775 608.576,-260.775 632.329,-260.775"/>
<polygon fill="midnightblue" stroke="midnightblue" points="632.374,-264.275 642.374,-260.775 632.374,-257.275 632.374,-264.275"/>
</g>
<!-- Node28 -->
<g id="node28" class="node"><title>Node28</title>
<g id="a_node28"><a xlink:href="../../d2/d95/class_x_m_l_parser.html#a09c6848239104ae94825c045796dddd0" target="_top" xlink:title="XMLParser.makeParamMap">
<polygon fill="white" stroke="black" points="845,-251.275 845,-270.275 991,-270.275 991,-251.275 845,-251.275"/>
<text text-anchor="middle" x="918" y="-258.275" font-family="Helvetica,sans-Serif" font-size="10.00">XMLParser.makeParamMap</text>
</a>
</g>
</g>
<!-- Node27&#45;&gt;Node28 -->
<g id="edge28" class="edge"><title>Node27&#45;&gt;Node28</title>
<path fill="none" stroke="midnightblue" d="M783.577,-260.775C799.925,-260.775 817.504,-260.775 834.362,-260.775"/>
<polygon fill="midnightblue" stroke="midnightblue" points="834.749,-264.275 844.749,-260.775 834.749,-257.275 834.749,-264.275"/>
</g>
<!-- Node29 -->
<g id="node29" class="node"><title>Node29</title>
<g id="a_node29"><a xlink:href="../../d2/d95/class_x_m_l_parser.html#a5a419f71699eb7d3d76ee238fb262a5f" target="_top" xlink:title="XMLParser.makeCellParamList">
<polygon fill="white" stroke="black" points="838,-213.275 838,-232.275 998,-232.275 998,-213.275 838,-213.275"/>
<text text-anchor="middle" x="918" y="-220.275" font-family="Helvetica,sans-Serif" font-size="10.00">XMLParser.makeCellParamList</text>
</a>
</g>
</g>
<!-- Node27&#45;&gt;Node29 -->
<g id="edge29" class="edge"><title>Node27&#45;&gt;Node29</title>
<path fill="none" stroke="midnightblue" d="M764.963,-251.235C792.594,-246.063 826.933,-239.635 855.981,-234.197"/>
<polygon fill="midnightblue" stroke="midnightblue" points="856.83,-237.599 866.016,-232.319 855.542,-230.719 856.83,-237.599"/>
</g>
<!-- Node30&#45;&gt;Node31 -->
<g id="edge31" class="edge"><title>Node30&#45;&gt;Node31</title>
<path fill="none" stroke="midnightblue" d="M550.227,-346.315C579.884,-351.532 616.804,-358.027 647.882,-363.495"/>
<polygon fill="midnightblue" stroke="midnightblue" points="647.295,-366.945 657.751,-365.231 648.508,-360.051 647.295,-366.945"/>
</g>
<!-- Node32 -->
<g id="node32" class="node"><title>Node32</title>
<g id="a_node32"><a xlink:href="../../d2/d95/class_x_m_l_parser.html#a0df3a2904766f59d1246cb55416f8146" target="_top" xlink:title="XMLParser.getSimParamMap">
<polygon fill="white" stroke="black" points="636,-327.275 636,-346.275 790,-346.275 790,-327.275 636,-327.275"/>
<text text-anchor="middle" x="713" y="-334.275" font-family="Helvetica,sans-Serif" font-size="10.00">XMLParser.getSimParamMap</text>
</a>
</g>
</g>
<!-- Node30&#45;&gt;Node32 -->
<g id="edge32" class="edge"><title>Node30&#45;&gt;Node32</title>
<path fill="none" stroke="midnightblue" d="M572.762,-336.775C589.892,-336.775 608.17,-336.775 625.658,-336.775"/>
<polygon fill="midnightblue" stroke="midnightblue" points="625.849,-340.275 635.849,-336.775 625.849,-333.275 625.849,-340.275"/>
</g>
<!-- Node34&#45;&gt;Node13 -->
<g id="edge37" class="edge"><title>Node34&#45;&gt;Node13</title>
<path fill="none" stroke="midnightblue" d="M557.468,-460.318C578.542,-463.478 602.283,-466.916 624,-469.775 789.885,-491.617 831.813,-493.363 998,-512.775 1009.09,-514.071 1020.77,-515.445 1032.29,-516.806"/>
<polygon fill="midnightblue" stroke="midnightblue" points="1032.02,-520.297 1042.36,-517.996 1032.84,-513.346 1032.02,-520.297"/>
</g>
<!-- Node34&#45;&gt;Node31 -->
<g id="edge36" class="edge"><title>Node34&#45;&gt;Node31</title>
<path fill="none" stroke="midnightblue" d="M550.699,-441.163C563.402,-437.683 576.547,-433.01 588,-426.775 607.063,-416.396 604.721,-403.746 624,-393.775 628.568,-391.412 633.416,-389.343 638.396,-387.531"/>
<polygon fill="midnightblue" stroke="midnightblue" points="639.684,-390.792 648.098,-384.353 637.505,-384.14 639.684,-390.792"/>
</g>
<!-- Node35 -->
<g id="node35" class="node"><title>Node35</title>
<g id="a_node35"><a xlink:href="../../d3/dff/class_cell_society.html#a42451b17e2bca5fd025c8d4ea74310ca" target="_top" xlink:title="CellSociety.stringToIntArray">
<polygon fill="white" stroke="black" points="640.5,-441.275 640.5,-460.275 785.5,-460.275 785.5,-441.275 640.5,-441.275"/>
<text text-anchor="middle" x="713" y="-448.275" font-family="Helvetica,sans-Serif" font-size="10.00">CellSociety.stringToIntArray</text>
</a>
</g>
</g>
<!-- Node34&#45;&gt;Node35 -->
<g id="edge38" class="edge"><title>Node34&#45;&gt;Node35</title>
<path fill="none" stroke="midnightblue" d="M567.026,-450.775C587.208,-450.775 609.35,-450.775 630.121,-450.775"/>
<polygon fill="midnightblue" stroke="midnightblue" points="630.193,-454.275 640.193,-450.775 630.193,-447.275 630.193,-454.275"/>
</g>
<!-- Node36 -->
<g id="node36" class="node"><title>Node36</title>
<g id="a_node36"><a xlink:href="../../d3/dff/class_cell_society.html#a117f1698760a3f6bbe51bd7af16f79bb" target="_top" xlink:title="CellSociety.createCellInstance">
<polygon fill="white" stroke="black" points="633.5,-403.275 633.5,-422.275 792.5,-422.275 792.5,-403.275 633.5,-403.275"/>
<text text-anchor="middle" x="713" y="-410.275" font-family="Helvetica,sans-Serif" font-size="10.00">CellSociety.createCellInstance</text>
</a>
</g>
</g>
<!-- Node34&#45;&gt;Node36 -->
<g id="edge39" class="edge"><title>Node34&#45;&gt;Node36</title>
<path fill="none" stroke="midnightblue" d="M550.227,-441.235C579.884,-436.018 616.804,-429.522 647.882,-424.055"/>
<polygon fill="midnightblue" stroke="midnightblue" points="648.508,-427.499 657.751,-422.319 647.295,-420.605 648.508,-427.499"/>
</g>
<!-- Node37&#45;&gt;Node5 -->
<g id="edge41" class="edge"><title>Node37&#45;&gt;Node5</title>
<path fill="none" stroke="midnightblue" d="M568.225,-552.128C596.935,-554.654 629.447,-557.513 656.283,-559.874"/>
<polygon fill="midnightblue" stroke="midnightblue" points="656.002,-563.363 666.27,-560.752 656.616,-556.39 656.002,-563.363"/>
</g>
<!-- Node41&#45;&gt;Node23 -->
<g id="edge51" class="edge"><title>Node41&#45;&gt;Node23</title>
<path fill="none" stroke="midnightblue" d="M352.386,-270.128C357.433,-267.388 362.069,-263.986 366,-259.775 433.605,-187.345 326.496,-103.928 402,-39.775 474.124,21.5059 593.437,-1.40337 661.077,-21.7549"/>
<polygon fill="midnightblue" stroke="midnightblue" points="660.082,-25.1107 670.67,-24.7287 662.155,-18.4246 660.082,-25.1107"/>
</g>
</g>
</svg>
        <g id="navigator" transform="translate(0 0)" fill="#404254">
                <rect fill="#f2f5e9" fill-opacity="0.5" stroke="#606060" stroke-width=".5" x="0" y="0" width="60" height="60"/>
                <use id="zoomplus" xlink:href="#zoomPlus" x="17" y="9" onmousedown="handleZoom(evt,'in')"/>
                <use id="zoomminus" xlink:href="#zoomMin" x="42" y="9" onmousedown="handleZoom(evt,'out')"/>
                <use id="reset" xlink:href="#resetDef" x="30" y="36" onmousedown="handleReset()"/>
                <g id="arrowUp" xlink:href="#dirArrow" transform="translate(30 24)" onmousedown="handlePan(0,-1)">
                  <use xlink:href="#rim" fill="#404040">
                        <set attributeName="fill" to="#808080" begin="arrowUp.mouseover" end="arrowUp.mouseout"/>
                  </use>
                  <path fill="none" stroke="white" stroke-width="1.5" d="M0,-3.0v7 M-2.5,-0.5L0,-3.0L2.5,-0.5"/>
                </g>
                <g id="arrowRight" xlink:href="#dirArrow" transform="rotate(90) translate(36 -43)" onmousedown="handlePan(1,0)">
                  <use xlink:href="#rim" fill="#404040">
                        <set attributeName="fill" to="#808080" begin="arrowRight.mouseover" end="arrowRight.mouseout"/>
                  </use>
                  <path fill="none" stroke="white" stroke-width="1.5" d="M0,-3.0v7 M-2.5,-0.5L0,-3.0L2.5,-0.5"/>
                </g>
                <g id="arrowDown" xlink:href="#dirArrow" transform="rotate(180) translate(-30 -48)" onmousedown="handlePan(0,1)">
                  <use xlink:href="#rim" fill="#404040">
                        <set attributeName="fill" to="#808080" begin="arrowDown.mouseover" end="arrowDown.mouseout"/>
                  </use>
                  <path fill="none" stroke="white" stroke-width="1.5" d="M0,-3.0v7 M-2.5,-0.5L0,-3.0L2.5,-0.5"/>
                </g>
                <g id="arrowLeft" xlink:href="#dirArrow" transform="rotate(270) translate(-36 17)" onmousedown="handlePan(-1,0)">
                  <use xlink:href="#rim" fill="#404040">
                        <set attributeName="fill" to="#808080" begin="arrowLeft.mouseover" end="arrowLeft.mouseout"/>
                  </use>
                  <path fill="none" stroke="white" stroke-width="1.5" d="M0,-3.0v7 M-2.5,-0.5L0,-3.0L2.5,-0.5"/>
                </g>
        </g>
        <svg viewBox="0 0 15 15" width="100%" height="30px" preserveAspectRatio="xMaxYMin meet">
         <g id="arrow_out" transform="scale(0.3 0.3)">
          <a xlink:href="class_cell_society_a656ff46d1459fb7f86b42e3c542506ee_cgraph_org.svg" target="_base">
           <rect id="button" ry="5" rx="5" y="6" x="6" height="38" width="38"
                fill="#f2f5e9" fill-opacity="0.5" stroke="#606060" stroke-width="1.0"/>
           <path id="arrow"
             d="M 11.500037,31.436501 C 11.940474,20.09759 22.043105,11.32322 32.158766,21.979434 L 37.068811,17.246167 C 37.068811,17.246167 37.088388,32 37.088388,32 L 22.160133,31.978069 C 22.160133,31.978069 26.997745,27.140456 26.997745,27.140456 C 18.528582,18.264221 13.291696,25.230495 11.500037,31.436501 z"
             style="fill:#404040;"/>
          </a>
         </g>
        </svg>
</svg>
