<?xml version="1.0" encoding="UTF-8" standalone="no"?>
<!DOCTYPE svg PUBLIC "-//W3C//DTD SVG 1.1//EN"
 "http://www.w3.org/Graphics/SVG/1.1/DTD/svg11.dtd">
<!-- Generated by graphviz version 2.36.0 (20140111.2315)
 -->
<!-- Title: CellSociety.readNewXML Pages: 1 -->
<!--zoomable 687 -->
<svg id="main" version="1.1" xmlns="http://www.w3.org/2000/svg" xmlns:xlink="http://www.w3.org/1999/xlink" xml:space="preserve" onload="init(evt)">
<style type="text/css"><![CDATA[
.edge:hover path { stroke: red; }
.edge:hover polygon { stroke: red; fill: red; }
]]></style>
<script type="text/javascript"><![CDATA[
var edges = document.getElementsByTagName('g');
if (edges && edges.length) {
  for (var i=0;i<edges.length;i++) {
    if (edges[i].id.substr(0,4)=='edge') {
      edges[i].setAttribute('class','edge');
    }
  }
}
]]></script>
        <defs>
                <circle id="rim" cx="0" cy="0" r="7"/>
                <circle id="rim2" cx="0" cy="0" r="3.5"/>
                <g id="zoomPlus">
                        <use xlink:href="#rim" fill="#404040">
                                <set attributeName="fill" to="#808080" begin="zoomplus.mouseover" end="zoomplus.mouseout"/>
                        </use>
                        <path d="M-4,0h8M0,-4v8" fill="none" stroke="white" stroke-width="1.5" pointer-events="none"/>
                </g>
                <g id="zoomMin">
                        <use xlink:href="#rim" fill="#404040">
                                <set attributeName="fill" to="#808080" begin="zoomminus.mouseover" end="zoomminus.mouseout"/>
                        </use>
                        <path d="M-4,0h8" fill="none" stroke="white" stroke-width="1.5" pointer-events="none"/>
                </g>
                <g id="dirArrow">
                        <path fill="none" stroke="white" stroke-width="1.5" d="M0,-3.0v7 M-2.5,-0.5L0,-3.0L2.5,-0.5"/>
                </g>
               <g id="resetDef">
                       <use xlink:href="#rim2" fill="#404040">
                               <set attributeName="fill" to="#808080" begin="reset.mouseover" end="reset.mouseout"/>
                       </use>
               </g>
        </defs>

<script type="text/javascript">
var viewWidth = 1152;
var viewHeight = 687;
var sectionId = 'dynsection-17';
</script>
<script xlink:href="../../svgpan.js"/>
<svg id="graph" class="graph">
<g id="viewport">
<title>CellSociety.readNewXML</title>
<polygon fill="white" stroke="none" points="-4,4 -4,-683.343 1148,-683.343 1148,4 -4,4"/>
<!-- Node1 -->
<g id="node1" class="node"><title>Node1</title>
<polygon fill="#bfbfbf" stroke="black" points="0,-304.097 0,-323.097 132,-323.097 132,-304.097 0,-304.097"/>
<text text-anchor="middle" x="66" y="-311.097" font-family="Helvetica,sans-Serif" font-size="10.00">CellSociety.readNewXML</text>
</g>
<!-- Node2 -->
<g id="node2" class="node"><title>Node2</title>
<g id="a_node2"><a xlink:href="../../d3/dff/class_cell_society.html#a7a6dab68551f91cc4b120faa51670bf8" target="_top" xlink:title="CellSociety.createCellArray">
<polygon fill="white" stroke="black" points="189,-582.097 189,-601.097 333,-601.097 333,-582.097 189,-582.097"/>
<text text-anchor="middle" x="261" y="-589.097" font-family="Helvetica,sans-Serif" font-size="10.00">CellSociety.createCellArray</text>
</a>
</g>
</g>
<!-- Node1&#45;&gt;Node2 -->
<g id="edge1" class="edge"><title>Node1&#45;&gt;Node2</title>
<path fill="none" stroke="midnightblue" d="M68.6486,-323.479C74.9957,-358.661 100.936,-479.4 168,-548.597 181.026,-562.038 199.071,-571.726 215.731,-578.462"/>
<polygon fill="midnightblue" stroke="midnightblue" points="214.74,-581.829 225.332,-582.093 217.216,-575.282 214.74,-581.829"/>
</g>
<!-- Node4 -->
<g id="node4" class="node"><title>Node4</title>
<g id="a_node4"><a xlink:href="../../d2/d95/class_x_m_l_parser.html#ac4e3257aed1deb9fe950149f706fce5b" target="_top" xlink:title="XMLParser.getCellParamList">
<polygon fill="white" stroke="black" points="994.5,-411.097 994.5,-430.097 1143.5,-430.097 1143.5,-411.097 994.5,-411.097"/>
<text text-anchor="middle" x="1069" y="-418.097" font-family="Helvetica,sans-Serif" font-size="10.00">XMLParser.getCellParamList</text>
</a>
</g>
</g>
<!-- Node1&#45;&gt;Node4 -->
<g id="edge13" class="edge"><title>Node1&#45;&gt;Node4</title>
<path fill="none" stroke="midnightblue" d="M69.5381,-323.233C77.8393,-352.59 107.212,-441.125 168,-477.597 226.422,-512.649 405.869,-496.597 474,-496.597 474,-496.597 474,-496.597 677,-496.597 808.163,-496.597 959.603,-454.877 1029.27,-433.259"/>
<polygon fill="midnightblue" stroke="midnightblue" points="1030.45,-436.557 1038.95,-430.222 1028.36,-429.878 1030.45,-436.557"/>
</g>
<!-- Node5 -->
<g id="node5" class="node"><title>Node5</title>
<g id="a_node5"><a xlink:href="../../d2/d95/class_x_m_l_parser.html#aea9b535964c91fa3c3d2b1c0b6a334c2" target="_top" xlink:title="XMLParser.getInitParamMap">
<polygon fill="white" stroke="black" points="400.5,-525.097 400.5,-544.097 549.5,-544.097 549.5,-525.097 400.5,-525.097"/>
<text text-anchor="middle" x="475" y="-532.097" font-family="Helvetica,sans-Serif" font-size="10.00">XMLParser.getInitParamMap</text>
</a>
</g>
</g>
<!-- Node1&#45;&gt;Node5 -->
<g id="edge14" class="edge"><title>Node1&#45;&gt;Node5</title>
<path fill="none" stroke="midnightblue" d="M68.5665,-323.152C74.5057,-355.967 98.9088,-464.57 168,-510.597 242.406,-560.164 350.714,-555.07 416.531,-545.671"/>
<polygon fill="midnightblue" stroke="midnightblue" points="417.352,-549.087 426.717,-544.134 416.307,-542.166 417.352,-549.087"/>
</g>
<!-- Node9 -->
<g id="node9" class="node"><title>Node9</title>
<g id="a_node9"><a xlink:href="../../df/df8/class_cell_society_view.html#a99eb733c00ed7c1bcba8f2d684791a09" target="_top" xlink:title="CellSocietyView.displayFrameRate">
<polygon fill="white" stroke="black" points="172,-449.097 172,-468.097 350,-468.097 350,-449.097 172,-449.097"/>
<text text-anchor="middle" x="261" y="-456.097" font-family="Helvetica,sans-Serif" font-size="10.00">CellSocietyView.displayFrameRate</text>
</a>
</g>
</g>
<!-- Node1&#45;&gt;Node9 -->
<g id="edge10" class="edge"><title>Node1&#45;&gt;Node9</title>
<path fill="none" stroke="midnightblue" d="M71.7713,-323.385C84.0486,-347.454 119.224,-409.734 168,-439.597 171.423,-441.693 175.038,-443.561 178.777,-445.226"/>
<polygon fill="midnightblue" stroke="midnightblue" points="177.698,-448.563 188.285,-448.962 180.257,-442.048 177.698,-448.563"/>
</g>
<!-- Node10 -->
<g id="node10" class="node"><title>Node10</title>
<g id="a_node10"><a xlink:href="../../df/df8/class_cell_society_view.html#a053b6ef6afa80722445223c4e373e51c" target="_top" xlink:title="CellSocietyView.displayXMLChooser">
<polygon fill="white" stroke="black" points="168.5,-411.097 168.5,-430.097 353.5,-430.097 353.5,-411.097 168.5,-411.097"/>
<text text-anchor="middle" x="261" y="-418.097" font-family="Helvetica,sans-Serif" font-size="10.00">CellSocietyView.displayXMLChooser</text>
</a>
</g>
</g>
<!-- Node1&#45;&gt;Node10 -->
<g id="edge11" class="edge"><title>Node1&#45;&gt;Node10</title>
<path fill="none" stroke="midnightblue" d="M75.0773,-323.189C90.9203,-341.338 128.028,-380.665 168,-400.597 173.76,-403.469 179.924,-405.931 186.232,-408.04"/>
<polygon fill="midnightblue" stroke="midnightblue" points="185.641,-411.518 196.226,-411.074 187.674,-404.82 185.641,-411.518"/>
</g>
<!-- Node11 -->
<g id="node11" class="node"><title>Node11</title>
<g id="a_node11"><a xlink:href="../../df/df8/class_cell_society_view.html#a930d889b8619ae93731b8542ce285180" target="_top" xlink:title="CellSocietyView.generate\lChartLines">
<polygon fill="white" stroke="black" points="192.5,-361.597 192.5,-391.597 329.5,-391.597 329.5,-361.597 192.5,-361.597"/>
<text text-anchor="start" x="200.5" y="-379.597" font-family="Helvetica,sans-Serif" font-size="10.00">CellSocietyView.generate</text>
<text text-anchor="middle" x="261" y="-368.597" font-family="Helvetica,sans-Serif" font-size="10.00">ChartLines</text>
</a>
</g>
</g>
<!-- Node1&#45;&gt;Node11 -->
<g id="edge12" class="edge"><title>Node1&#45;&gt;Node11</title>
<path fill="none" stroke="midnightblue" d="M90.4498,-323.14C110.779,-331.24 141.081,-342.897 168,-351.597 175.614,-354.058 183.633,-356.48 191.633,-358.792"/>
<polygon fill="midnightblue" stroke="midnightblue" points="190.777,-362.187 201.352,-361.552 192.688,-355.453 190.777,-362.187"/>
</g>
<!-- Node12 -->
<g id="node12" class="node"><title>Node12</title>
<g id="a_node12"><a xlink:href="../../d2/d95/class_x_m_l_parser.html#a77ee23818c822b69cdf4200eef726a61" target="_top" xlink:title="XMLParser.parseXMLFile">
<polygon fill="white" stroke="black" points="196,-285.097 196,-304.097 326,-304.097 326,-285.097 196,-285.097"/>
<text text-anchor="middle" x="261" y="-292.097" font-family="Helvetica,sans-Serif" font-size="10.00">XMLParser.parseXMLFile</text>
</a>
</g>
</g>
<!-- Node1&#45;&gt;Node12 -->
<g id="edge15" class="edge"><title>Node1&#45;&gt;Node12</title>
<path fill="none" stroke="midnightblue" d="M132.072,-307.191C149.27,-305.498 167.963,-303.658 185.613,-301.92"/>
<polygon fill="midnightblue" stroke="midnightblue" points="186.257,-305.374 195.866,-300.911 185.571,-298.407 186.257,-305.374"/>
</g>
<!-- Node16 -->
<g id="node16" class="node"><title>Node16</title>
<g id="a_node16"><a xlink:href="../../d3/dff/class_cell_society.html#ae565a305ea53e5a37da9816a236b4fbc" target="_top" xlink:title="CellSociety.pauseAnimation">
<polygon fill="white" stroke="black" points="186.5,-247.097 186.5,-266.097 335.5,-266.097 335.5,-247.097 186.5,-247.097"/>
<text text-anchor="middle" x="261" y="-254.097" font-family="Helvetica,sans-Serif" font-size="10.00">CellSociety.pauseAnimation</text>
</a>
</g>
</g>
<!-- Node1&#45;&gt;Node16 -->
<g id="edge19" class="edge"><title>Node1&#45;&gt;Node16</title>
<path fill="none" stroke="midnightblue" d="M89.5216,-303.963C109.767,-295.583 140.466,-283.567 168,-275.597 177.186,-272.938 186.989,-270.501 196.647,-268.322"/>
<polygon fill="midnightblue" stroke="midnightblue" points="197.6,-271.697 206.625,-266.148 196.109,-264.857 197.6,-271.697"/>
</g>
<!-- Node18 -->
<g id="node18" class="node"><title>Node18</title>
<g id="a_node18"><a xlink:href="../../d3/dff/class_cell_society.html#abfbf43ce46b4c82c16a2d933b6a11abf" target="_top" xlink:title="CellSociety.retrieveParserInfo">
<polygon fill="white" stroke="black" points="183.5,-323.097 183.5,-342.097 338.5,-342.097 338.5,-323.097 183.5,-323.097"/>
<text text-anchor="middle" x="261" y="-330.097" font-family="Helvetica,sans-Serif" font-size="10.00">CellSociety.retrieveParserInfo</text>
</a>
</g>
</g>
<!-- Node1&#45;&gt;Node18 -->
<g id="edge21" class="edge"><title>Node1&#45;&gt;Node18</title>
<path fill="none" stroke="midnightblue" d="M132.072,-320.003C145.281,-321.303 159.372,-322.69 173.195,-324.051"/>
<polygon fill="midnightblue" stroke="midnightblue" points="172.901,-327.539 183.196,-325.036 173.587,-320.573 172.901,-327.539"/>
</g>
<!-- Node20 -->
<g id="node20" class="node"><title>Node20</title>
<g id="a_node20"><a xlink:href="../../dd/d11/class_cell.html#a7157b57f4ff263ea68e1ff5fc424176e" target="_top" xlink:title="Cell.setCellSize">
<polygon fill="white" stroke="black" points="216.5,-209.097 216.5,-228.097 305.5,-228.097 305.5,-209.097 216.5,-209.097"/>
<text text-anchor="middle" x="261" y="-216.097" font-family="Helvetica,sans-Serif" font-size="10.00">Cell.setCellSize</text>
</a>
</g>
</g>
<!-- Node1&#45;&gt;Node20 -->
<g id="edge24" class="edge"><title>Node1&#45;&gt;Node20</title>
<path fill="none" stroke="midnightblue" d="M76.6349,-303.954C93.5571,-287.608 130.404,-254.584 168,-237.597 179.845,-232.245 193.231,-228.384 206.051,-225.604"/>
<polygon fill="midnightblue" stroke="midnightblue" points="207.041,-228.976 216.17,-223.599 205.681,-222.11 207.041,-228.976"/>
</g>
<!-- Node21 -->
<g id="node21" class="node"><title>Node21</title>
<g id="a_node21"><a xlink:href="../../df/df8/class_cell_society_view.html#a989874eb178e925124f50d7cabcc184c" target="_top" xlink:title="CellSocietyView.setGridGap">
<polygon fill="white" stroke="black" points="187.5,-171.097 187.5,-190.097 334.5,-190.097 334.5,-171.097 187.5,-171.097"/>
<text text-anchor="middle" x="261" y="-178.097" font-family="Helvetica,sans-Serif" font-size="10.00">CellSocietyView.setGridGap</text>
</a>
</g>
</g>
<!-- Node1&#45;&gt;Node21 -->
<g id="edge25" class="edge"><title>Node1&#45;&gt;Node21</title>
<path fill="none" stroke="midnightblue" d="M72.4155,-304.091C85.6135,-281.864 121.773,-226.355 168,-199.597 171.732,-197.437 175.674,-195.52 179.743,-193.82"/>
<polygon fill="midnightblue" stroke="midnightblue" points="181.268,-196.988 189.43,-190.232 178.837,-190.423 181.268,-196.988"/>
</g>
<!-- Node22 -->
<g id="node22" class="node"><title>Node22</title>
<g id="a_node22"><a xlink:href="../../d3/dff/class_cell_society.html#ab9e56a2a70e210e021b51e898508329b" target="_top" xlink:title="CellSociety.setupAnimation">
<polygon fill="white" stroke="black" points="188,-133.097 188,-152.097 334,-152.097 334,-133.097 188,-133.097"/>
<text text-anchor="middle" x="261" y="-140.097" font-family="Helvetica,sans-Serif" font-size="10.00">CellSociety.setupAnimation</text>
</a>
</g>
</g>
<!-- Node1&#45;&gt;Node22 -->
<g id="edge26" class="edge"><title>Node1&#45;&gt;Node22</title>
<path fill="none" stroke="midnightblue" d="M70.414,-303.855C80.5317,-276.516 113.124,-198.657 168,-161.597 171.326,-159.351 174.863,-157.361 178.539,-155.598"/>
<polygon fill="midnightblue" stroke="midnightblue" points="180.051,-158.76 187.924,-151.671 177.348,-152.303 180.051,-158.76"/>
</g>
<!-- Node28 -->
<g id="node28" class="node"><title>Node28</title>
<g id="a_node28"><a xlink:href="../../df/df8/class_cell_society_view.html#a43ac2666d3a002024be53fe74028a576" target="_top" xlink:title="CellSocietyView.updateSimGrid">
<polygon fill="white" stroke="black" points="792.5,-57.0969 792.5,-76.0969 957.5,-76.0969 957.5,-57.0969 792.5,-57.0969"/>
<text text-anchor="middle" x="875" y="-64.0969" font-family="Helvetica,sans-Serif" font-size="10.00">CellSocietyView.updateSimGrid</text>
</a>
</g>
</g>
<!-- Node1&#45;&gt;Node28 -->
<g id="edge39" class="edge"><title>Node1&#45;&gt;Node28</title>
<path fill="none" stroke="midnightblue" d="M67.7302,-303.861C71.0712,-267.079 88.3831,-135.978 168,-82.5969 382.005,60.8883 720.433,-20.4254 834.777,-54.1488"/>
<polygon fill="midnightblue" stroke="midnightblue" points="833.925,-57.547 844.509,-57.0647 835.934,-50.8416 833.925,-57.547"/>
</g>
<!-- Node30 -->
<g id="node30" class="node"><title>Node30</title>
<g id="a_node30"><a xlink:href="../../df/df8/class_cell_society_view.html#a7ca77bdfdef97e9be9c9941c2f4d3513" target="_top" xlink:title="CellSocietyView.updateChart\lLines">
<polygon fill="white" stroke="black" points="798.5,-95.5969 798.5,-125.597 951.5,-125.597 951.5,-95.5969 798.5,-95.5969"/>
<text text-anchor="start" x="806.5" y="-113.597" font-family="Helvetica,sans-Serif" font-size="10.00">CellSocietyView.updateChart</text>
<text text-anchor="middle" x="875" y="-102.597" font-family="Helvetica,sans-Serif" font-size="10.00">Lines</text>
</a>
</g>
</g>
<!-- Node1&#45;&gt;Node30 -->
<g id="edge38" class="edge"><title>Node1&#45;&gt;Node30</title>
<path fill="none" stroke="midnightblue" d="M68.6742,-303.77C74.8324,-271.065 99.5402,-165.599 168,-123.597 269.453,-61.3525 623.208,-86.0571 788.133,-101.617"/>
<polygon fill="midnightblue" stroke="midnightblue" points="787.952,-105.116 798.239,-102.581 788.617,-98.1473 787.952,-105.116"/>
</g>
<!-- Node3 -->
<g id="node3" class="node"><title>Node3</title>
<g id="a_node3"><a xlink:href="../../d3/dff/class_cell_society.html#a117f1698760a3f6bbe51bd7af16f79bb" target="_top" xlink:title="CellSociety.createCellInstance">
<polygon fill="white" stroke="black" points="596.5,-639.097 596.5,-658.097 755.5,-658.097 755.5,-639.097 596.5,-639.097"/>
<text text-anchor="middle" x="676" y="-646.097" font-family="Helvetica,sans-Serif" font-size="10.00">CellSociety.createCellInstance</text>
</a>
</g>
</g>
<!-- Node2&#45;&gt;Node3 -->
<g id="edge2" class="edge"><title>Node2&#45;&gt;Node3</title>
<path fill="none" stroke="midnightblue" d="M273.359,-601.28C294.575,-618.656 342.399,-654.53 390,-667.597 472.78,-690.32 573.923,-673.625 630.744,-660.431"/>
<polygon fill="midnightblue" stroke="midnightblue" points="631.574,-663.831 640.486,-658.101 629.946,-657.023 631.574,-663.831"/>
</g>
<!-- Node2&#45;&gt;Node4 -->
<g id="edge3" class="edge"><title>Node2&#45;&gt;Node4</title>
<path fill="none" stroke="midnightblue" d="M333.283,-588.376C487.353,-580.6 846.482,-557.85 958,-510.597 997.111,-494.024 1033.36,-459.043 1052.91,-437.905"/>
<polygon fill="midnightblue" stroke="midnightblue" points="1055.68,-440.062 1059.79,-430.294 1050.49,-435.371 1055.68,-440.062"/>
</g>
<!-- Node2&#45;&gt;Node5 -->
<g id="edge4" class="edge"><title>Node2&#45;&gt;Node5</title>
<path fill="none" stroke="midnightblue" d="M297.484,-582.056C333.484,-572.377 389.344,-557.358 428.561,-546.814"/>
<polygon fill="midnightblue" stroke="midnightblue" points="429.652,-550.145 438.4,-544.169 427.834,-543.385 429.652,-550.145"/>
</g>
<!-- Node6 -->
<g id="node6" class="node"><title>Node6</title>
<g id="a_node6"><a xlink:href="../../d3/dff/class_cell_society.html#a5c0b747b2fbaaa317266890c48e0267f" target="_top" xlink:title="CellSociety.populateLocations">
<polygon fill="white" stroke="black" points="396,-601.097 396,-620.097 554,-620.097 554,-601.097 396,-601.097"/>
<text text-anchor="middle" x="475" y="-608.097" font-family="Helvetica,sans-Serif" font-size="10.00">CellSociety.populateLocations</text>
</a>
</g>
</g>
<!-- Node2&#45;&gt;Node6 -->
<g id="edge5" class="edge"><title>Node2&#45;&gt;Node6</title>
<path fill="none" stroke="midnightblue" d="M333.183,-597.976C349.975,-599.481 368.079,-601.104 385.531,-602.668"/>
<polygon fill="midnightblue" stroke="midnightblue" points="385.444,-606.174 395.717,-603.581 386.069,-599.202 385.444,-606.174"/>
</g>
<!-- Node8 -->
<g id="node8" class="node"><title>Node8</title>
<g id="a_node8"><a xlink:href="../../d3/dff/class_cell_society.html#a276d7f4c12da9d40e8720f762b47592a" target="_top" xlink:title="CellSociety.populateProbabilities">
<polygon fill="white" stroke="black" points="390,-639.097 390,-658.097 560,-658.097 560,-639.097 390,-639.097"/>
<text text-anchor="middle" x="475" y="-646.097" font-family="Helvetica,sans-Serif" font-size="10.00">CellSociety.populateProbabilities</text>
</a>
</g>
</g>
<!-- Node2&#45;&gt;Node8 -->
<g id="edge8" class="edge"><title>Node2&#45;&gt;Node8</title>
<path fill="none" stroke="midnightblue" d="M292.101,-601.146C317.94,-609.196 356.246,-620.779 390,-629.597 399.548,-632.091 409.756,-634.562 419.649,-636.856"/>
<polygon fill="midnightblue" stroke="midnightblue" points="418.872,-640.269 429.401,-639.085 420.432,-633.445 418.872,-640.269"/>
</g>
<!-- Node6&#45;&gt;Node3 -->
<g id="edge6" class="edge"><title>Node6&#45;&gt;Node3</title>
<path fill="none" stroke="midnightblue" d="M525.959,-620.137C553.045,-625.309 586.708,-631.737 615.183,-637.175"/>
<polygon fill="midnightblue" stroke="midnightblue" points="614.541,-640.615 625.02,-639.053 615.854,-633.739 614.541,-640.615"/>
</g>
<!-- Node7 -->
<g id="node7" class="node"><title>Node7</title>
<g id="a_node7"><a xlink:href="../../d3/dff/class_cell_society.html#a42451b17e2bca5fd025c8d4ea74310ca" target="_top" xlink:title="CellSociety.stringToIntArray">
<polygon fill="white" stroke="black" points="603.5,-601.097 603.5,-620.097 748.5,-620.097 748.5,-601.097 603.5,-601.097"/>
<text text-anchor="middle" x="676" y="-608.097" font-family="Helvetica,sans-Serif" font-size="10.00">CellSociety.stringToIntArray</text>
</a>
</g>
</g>
<!-- Node6&#45;&gt;Node7 -->
<g id="edge7" class="edge"><title>Node6&#45;&gt;Node7</title>
<path fill="none" stroke="midnightblue" d="M554.079,-610.597C566.881,-610.597 580.18,-610.597 593.072,-610.597"/>
<polygon fill="midnightblue" stroke="midnightblue" points="593.307,-614.097 603.307,-610.597 593.307,-607.097 593.307,-614.097"/>
</g>
<!-- Node8&#45;&gt;Node3 -->
<g id="edge9" class="edge"><title>Node8&#45;&gt;Node3</title>
<path fill="none" stroke="midnightblue" d="M560.105,-648.597C568.721,-648.597 577.494,-648.597 586.158,-648.597"/>
<polygon fill="midnightblue" stroke="midnightblue" points="586.263,-652.097 596.263,-648.597 586.263,-645.097 586.263,-652.097"/>
</g>
<!-- Node13 -->
<g id="node13" class="node"><title>Node13</title>
<g id="a_node13"><a xlink:href="../../d2/d95/class_x_m_l_parser.html#ae67767f9678fb650ac38b1321ea9f723" target="_top" xlink:title="XMLParser.parseInitialTags">
<polygon fill="white" stroke="black" points="404.5,-285.097 404.5,-304.097 545.5,-304.097 545.5,-285.097 404.5,-285.097"/>
<text text-anchor="middle" x="475" y="-292.097" font-family="Helvetica,sans-Serif" font-size="10.00">XMLParser.parseInitialTags</text>
</a>
</g>
</g>
<!-- Node12&#45;&gt;Node13 -->
<g id="edge16" class="edge"><title>Node12&#45;&gt;Node13</title>
<path fill="none" stroke="midnightblue" d="M326.182,-294.597C347.636,-294.597 371.812,-294.597 394.301,-294.597"/>
<polygon fill="midnightblue" stroke="midnightblue" points="394.5,-298.097 404.5,-294.597 394.5,-291.097 394.5,-298.097"/>
</g>
<!-- Node14 -->
<g id="node14" class="node"><title>Node14</title>
<g id="a_node14"><a xlink:href="../../d2/d95/class_x_m_l_parser.html#a09c6848239104ae94825c045796dddd0" target="_top" xlink:title="XMLParser.makeParamMap">
<polygon fill="white" stroke="black" points="603,-266.097 603,-285.097 749,-285.097 749,-266.097 603,-266.097"/>
<text text-anchor="middle" x="676" y="-273.097" font-family="Helvetica,sans-Serif" font-size="10.00">XMLParser.makeParamMap</text>
</a>
</g>
</g>
<!-- Node13&#45;&gt;Node14 -->
<g id="edge17" class="edge"><title>Node13&#45;&gt;Node14</title>
<path fill="none" stroke="midnightblue" d="M545.601,-287.952C560.771,-286.503 576.964,-284.957 592.578,-283.466"/>
<polygon fill="midnightblue" stroke="midnightblue" points="593.117,-286.931 602.739,-282.496 592.451,-279.963 593.117,-286.931"/>
</g>
<!-- Node15 -->
<g id="node15" class="node"><title>Node15</title>
<g id="a_node15"><a xlink:href="../../d2/d95/class_x_m_l_parser.html#a5a419f71699eb7d3d76ee238fb262a5f" target="_top" xlink:title="XMLParser.makeCellParamList">
<polygon fill="white" stroke="black" points="596,-304.097 596,-323.097 756,-323.097 756,-304.097 596,-304.097"/>
<text text-anchor="middle" x="676" y="-311.097" font-family="Helvetica,sans-Serif" font-size="10.00">XMLParser.makeCellParamList</text>
</a>
</g>
</g>
<!-- Node13&#45;&gt;Node15 -->
<g id="edge18" class="edge"><title>Node13&#45;&gt;Node15</title>
<path fill="none" stroke="midnightblue" d="M545.601,-301.242C558.551,-302.479 572.247,-303.786 585.692,-305.07"/>
<polygon fill="midnightblue" stroke="midnightblue" points="585.62,-308.579 595.908,-306.045 586.286,-301.611 585.62,-308.579"/>
</g>
<!-- Node17 -->
<g id="node17" class="node"><title>Node17</title>
<g id="a_node17"><a xlink:href="../../df/df8/class_cell_society_view.html#ae83511f9bf3610b0750d41c4aeb0f778" target="_top" xlink:title="CellSocietyView.setButtons\lPause">
<polygon fill="white" stroke="black" points="402,-235.597 402,-265.597 548,-265.597 548,-235.597 402,-235.597"/>
<text text-anchor="start" x="410" y="-253.597" font-family="Helvetica,sans-Serif" font-size="10.00">CellSocietyView.setButtons</text>
<text text-anchor="middle" x="475" y="-242.597" font-family="Helvetica,sans-Serif" font-size="10.00">Pause</text>
</a>
</g>
</g>
<!-- Node16&#45;&gt;Node17 -->
<g id="edge20" class="edge"><title>Node16&#45;&gt;Node17</title>
<path fill="none" stroke="midnightblue" d="M335.552,-254.515C353.614,-254.004 373.067,-253.453 391.519,-252.931"/>
<polygon fill="midnightblue" stroke="midnightblue" points="391.755,-256.426 401.652,-252.644 391.557,-249.429 391.755,-256.426"/>
</g>
<!-- Node18&#45;&gt;Node5 -->
<g id="edge22" class="edge"><title>Node18&#45;&gt;Node5</title>
<path fill="none" stroke="midnightblue" d="M335.508,-342.157C342.053,-344.647 348.335,-347.746 354,-351.597 415.173,-393.181 452.707,-477.361 467.175,-515.294"/>
<polygon fill="midnightblue" stroke="midnightblue" points="463.898,-516.524 470.645,-524.693 470.465,-514.099 463.898,-516.524"/>
</g>
<!-- Node19 -->
<g id="node19" class="node"><title>Node19</title>
<g id="a_node19"><a xlink:href="../../d2/d95/class_x_m_l_parser.html#a0df3a2904766f59d1246cb55416f8146" target="_top" xlink:title="XMLParser.getSimParamMap">
<polygon fill="white" stroke="black" points="398,-323.097 398,-342.097 552,-342.097 552,-323.097 398,-323.097"/>
<text text-anchor="middle" x="475" y="-330.097" font-family="Helvetica,sans-Serif" font-size="10.00">XMLParser.getSimParamMap</text>
</a>
</g>
</g>
<!-- Node18&#45;&gt;Node19 -->
<g id="edge23" class="edge"><title>Node18&#45;&gt;Node19</title>
<path fill="none" stroke="midnightblue" d="M338.537,-332.597C354.546,-332.597 371.53,-332.597 387.861,-332.597"/>
<polygon fill="midnightblue" stroke="midnightblue" points="387.931,-336.097 397.931,-332.597 387.931,-329.097 387.931,-336.097"/>
</g>
<!-- Node23 -->
<g id="node23" class="node"><title>Node23</title>
<g id="a_node23"><a xlink:href="../../d3/dff/class_cell_society.html#abf13a64ee79f2cb063447b499c695c58" target="_top" xlink:title="CellSociety.start">
<polygon fill="white" stroke="black" points="428.5,-139.097 428.5,-158.097 521.5,-158.097 521.5,-139.097 428.5,-139.097"/>
<text text-anchor="middle" x="475" y="-146.097" font-family="Helvetica,sans-Serif" font-size="10.00">CellSociety.start</text>
</a>
</g>
</g>
<!-- Node22&#45;&gt;Node23 -->
<g id="edge27" class="edge"><title>Node22&#45;&gt;Node23</title>
<path fill="none" stroke="midnightblue" d="M334.069,-144.637C361.5,-145.413 392.319,-146.285 418.038,-147.013"/>
<polygon fill="midnightblue" stroke="midnightblue" points="418.261,-150.521 428.356,-147.305 418.459,-143.523 418.261,-150.521"/>
</g>
<!-- Node24 -->
<g id="node24" class="node"><title>Node24</title>
<g id="a_node24"><a xlink:href="../../d3/dff/class_cell_society.html#a0ff19c30a1cc433d8ea8444f6a5617f1" target="_top" xlink:title="CellSociety.updateGrid">
<polygon fill="white" stroke="black" points="614,-142.097 614,-161.097 738,-161.097 738,-142.097 614,-142.097"/>
<text text-anchor="middle" x="676" y="-149.097" font-family="Helvetica,sans-Serif" font-size="10.00">CellSociety.updateGrid</text>
</a>
</g>
</g>
<!-- Node23&#45;&gt;Node24 -->
<g id="edge28" class="edge"><title>Node23&#45;&gt;Node24</title>
<path fill="none" stroke="midnightblue" d="M521.655,-149.285C545.871,-149.65 576.177,-150.107 603.438,-150.518"/>
<polygon fill="midnightblue" stroke="midnightblue" points="603.667,-154.022 613.718,-150.673 603.772,-147.023 603.667,-154.022"/>
</g>
<!-- Node24&#45;&gt;Node4 -->
<g id="edge35" class="edge"><title>Node24&#45;&gt;Node4</title>
<path fill="none" stroke="midnightblue" d="M690.916,-161.171C749.101,-201.201 973.217,-355.388 1045.43,-405.072"/>
<polygon fill="midnightblue" stroke="midnightblue" points="1043.62,-408.072 1053.84,-410.857 1047.59,-402.305 1043.62,-408.072"/>
</g>
<!-- Node25 -->
<g id="node25" class="node"><title>Node25</title>
<g id="a_node25"><a xlink:href="../../d8/d87/class_controller.html#aa8f10b5f28542d34053a7e4d5f1d6013" target="_top" xlink:title="Controller.runOneSim">
<polygon fill="white" stroke="black" points="815.5,-145.097 815.5,-164.097 934.5,-164.097 934.5,-145.097 815.5,-145.097"/>
<text text-anchor="middle" x="875" y="-152.097" font-family="Helvetica,sans-Serif" font-size="10.00">Controller.runOneSim</text>
</a>
</g>
</g>
<!-- Node24&#45;&gt;Node25 -->
<g id="edge29" class="edge"><title>Node24&#45;&gt;Node25</title>
<path fill="none" stroke="midnightblue" d="M738.252,-152.53C759.509,-152.853 783.479,-153.218 805.297,-153.551"/>
<polygon fill="midnightblue" stroke="midnightblue" points="805.429,-157.053 815.481,-153.706 805.535,-150.054 805.429,-157.053"/>
</g>
<!-- Node26 -->
<g id="node26" class="node"><title>Node26</title>
<g id="a_node26"><a xlink:href="../../d3/dff/class_cell_society.html#a64ebaee33d25e0e730024e67d5582c63" target="_top" xlink:title="CellSociety.updateColors">
<polygon fill="white" stroke="black" points="808,-183.097 808,-202.097 942,-202.097 942,-183.097 808,-183.097"/>
<text text-anchor="middle" x="875" y="-190.097" font-family="Helvetica,sans-Serif" font-size="10.00">CellSociety.updateColors</text>
</a>
</g>
</g>
<!-- Node24&#45;&gt;Node26 -->
<g id="edge30" class="edge"><title>Node24&#45;&gt;Node26</title>
<path fill="none" stroke="midnightblue" d="M722.691,-161.106C751.182,-167.036 788.043,-174.707 818.249,-180.994"/>
<polygon fill="midnightblue" stroke="midnightblue" points="817.713,-184.457 828.216,-183.068 819.139,-177.604 817.713,-184.457"/>
</g>
<!-- Node24&#45;&gt;Node28 -->
<g id="edge33" class="edge"><title>Node24&#45;&gt;Node28</title>
<path fill="none" stroke="midnightblue" d="M690.497,-142.081C711.332,-127.812 753.006,-100.917 792,-85.5969 798.397,-83.0837 805.211,-80.8527 812.073,-78.8849"/>
<polygon fill="midnightblue" stroke="midnightblue" points="813.368,-82.1614 822.118,-76.1882 811.553,-75.4008 813.368,-82.1614"/>
</g>
<!-- Node24&#45;&gt;Node30 -->
<g id="edge36" class="edge"><title>Node24&#45;&gt;Node30</title>
<path fill="none" stroke="midnightblue" d="M722.691,-142.088C743.179,-137.824 767.994,-132.659 791.551,-127.756"/>
<polygon fill="midnightblue" stroke="midnightblue" points="792.477,-131.139 801.554,-125.675 791.05,-124.286 792.477,-131.139"/>
</g>
<!-- Node26&#45;&gt;Node4 -->
<g id="edge32" class="edge"><title>Node26&#45;&gt;Node4</title>
<path fill="none" stroke="midnightblue" d="M884.006,-202.104C913.342,-236.941 1015.24,-357.941 1053.41,-403.272"/>
<polygon fill="midnightblue" stroke="midnightblue" points="1050.84,-405.655 1059.96,-411.05 1056.2,-401.146 1050.84,-405.655"/>
</g>
<!-- Node27 -->
<g id="node27" class="node"><title>Node27</title>
<g id="a_node27"><a xlink:href="../../dd/d11/class_cell.html#a7f8d2520a26a1376a44372149e561f6b" target="_top" xlink:title="Cell.toString">
<polygon fill="white" stroke="black" points="1031.5,-142.097 1031.5,-161.097 1106.5,-161.097 1106.5,-142.097 1031.5,-142.097"/>
<text text-anchor="middle" x="1069" y="-149.097" font-family="Helvetica,sans-Serif" font-size="10.00">Cell.toString</text>
</a>
</g>
</g>
<!-- Node26&#45;&gt;Node27 -->
<g id="edge31" class="edge"><title>Node26&#45;&gt;Node27</title>
<path fill="none" stroke="midnightblue" d="M920.531,-183.088C950.788,-176.627 990.728,-168.098 1021.41,-161.546"/>
<polygon fill="midnightblue" stroke="midnightblue" points="1022.39,-164.916 1031.43,-159.405 1020.92,-158.071 1022.39,-164.916"/>
</g>
<!-- Node29 -->
<g id="node29" class="node"><title>Node29</title>
<g id="a_node29"><a xlink:href="../../dd/d11/class_cell.html#adcdc17232ec0cff0752168e9846c39a8" target="_top" xlink:title="Cell.getShape">
<polygon fill="white" stroke="black" points="1027.5,-57.0969 1027.5,-76.0969 1110.5,-76.0969 1110.5,-57.0969 1027.5,-57.0969"/>
<text text-anchor="middle" x="1069" y="-64.0969" font-family="Helvetica,sans-Serif" font-size="10.00">Cell.getShape</text>
</a>
</g>
</g>
<!-- Node28&#45;&gt;Node29 -->
<g id="edge34" class="edge"><title>Node28&#45;&gt;Node29</title>
<path fill="none" stroke="midnightblue" d="M957.704,-66.5969C977.933,-66.5969 999.029,-66.5969 1017.29,-66.5969"/>
<polygon fill="midnightblue" stroke="midnightblue" points="1017.4,-70.097 1027.4,-66.5969 1017.4,-63.097 1017.4,-70.097"/>
</g>
<!-- Node30&#45;&gt;Node27 -->
<g id="edge37" class="edge"><title>Node30&#45;&gt;Node27</title>
<path fill="none" stroke="midnightblue" d="M946.403,-125.631C971.37,-130.962 998.827,-136.826 1021.32,-141.63"/>
<polygon fill="midnightblue" stroke="midnightblue" points="1020.77,-145.091 1031.28,-143.756 1022.24,-138.245 1020.77,-145.091"/>
</g>
</g>
</svg>
        <g id="navigator" transform="translate(0 0)" fill="#404254">
                <rect fill="#f2f5e9" fill-opacity="0.5" stroke="#606060" stroke-width=".5" x="0" y="0" width="60" height="60"/>
                <use id="zoomplus" xlink:href="#zoomPlus" x="17" y="9" onmousedown="handleZoom(evt,'in')"/>
                <use id="zoomminus" xlink:href="#zoomMin" x="42" y="9" onmousedown="handleZoom(evt,'out')"/>
                <use id="reset" xlink:href="#resetDef" x="30" y="36" onmousedown="handleReset()"/>
                <g id="arrowUp" xlink:href="#dirArrow" transform="translate(30 24)" onmousedown="handlePan(0,-1)">
                  <use xlink:href="#rim" fill="#404040">
                        <set attributeName="fill" to="#808080" begin="arrowUp.mouseover" end="arrowUp.mouseout"/>
                  </use>
                  <path fill="none" stroke="white" stroke-width="1.5" d="M0,-3.0v7 M-2.5,-0.5L0,-3.0L2.5,-0.5"/>
                </g>
                <g id="arrowRight" xlink:href="#dirArrow" transform="rotate(90) translate(36 -43)" onmousedown="handlePan(1,0)">
                  <use xlink:href="#rim" fill="#404040">
                        <set attributeName="fill" to="#808080" begin="arrowRight.mouseover" end="arrowRight.mouseout"/>
                  </use>
                  <path fill="none" stroke="white" stroke-width="1.5" d="M0,-3.0v7 M-2.5,-0.5L0,-3.0L2.5,-0.5"/>
                </g>
                <g id="arrowDown" xlink:href="#dirArrow" transform="rotate(180) translate(-30 -48)" onmousedown="handlePan(0,1)">
                  <use xlink:href="#rim" fill="#404040">
                        <set attributeName="fill" to="#808080" begin="arrowDown.mouseover" end="arrowDown.mouseout"/>
                  </use>
                  <path fill="none" stroke="white" stroke-width="1.5" d="M0,-3.0v7 M-2.5,-0.5L0,-3.0L2.5,-0.5"/>
                </g>
                <g id="arrowLeft" xlink:href="#dirArrow" transform="rotate(270) translate(-36 17)" onmousedown="handlePan(-1,0)">
                  <use xlink:href="#rim" fill="#404040">
                        <set attributeName="fill" to="#808080" begin="arrowLeft.mouseover" end="arrowLeft.mouseout"/>
                  </use>
                  <path fill="none" stroke="white" stroke-width="1.5" d="M0,-3.0v7 M-2.5,-0.5L0,-3.0L2.5,-0.5"/>
                </g>
        </g>
        <svg viewBox="0 0 15 15" width="100%" height="30px" preserveAspectRatio="xMaxYMin meet">
         <g id="arrow_out" transform="scale(0.3 0.3)">
          <a xlink:href="class_cell_society_af9f22af39a97a58b26126020ca6c8844_cgraph_org.svg" target="_base">
           <rect id="button" ry="5" rx="5" y="6" x="6" height="38" width="38"
                fill="#f2f5e9" fill-opacity="0.5" stroke="#606060" stroke-width="1.0"/>
           <path id="arrow"
             d="M 11.500037,31.436501 C 11.940474,20.09759 22.043105,11.32322 32.158766,21.979434 L 37.068811,17.246167 C 37.068811,17.246167 37.088388,32 37.088388,32 L 22.160133,31.978069 C 22.160133,31.978069 26.997745,27.140456 26.997745,27.140456 C 18.528582,18.264221 13.291696,25.230495 11.500037,31.436501 z"
             style="fill:#404040;"/>
          </a>
         </g>
        </svg>
</svg>
