<?xml version="1.0" encoding="UTF-8" standalone="no"?>
<!DOCTYPE svg PUBLIC "-//W3C//DTD SVG 1.1//EN"
 "http://www.w3.org/Graphics/SVG/1.1/DTD/svg11.dtd">
<!-- Generated by graphviz version 2.36.0 (20140111.2315)
 -->
<!-- Title: CellSociety.updateGrid Pages: 1 -->
<svg width="1006pt" height="130pt"
 viewBox="0.00 0.00 1006.00 129.56" xmlns="http://www.w3.org/2000/svg" xmlns:xlink="http://www.w3.org/1999/xlink">
<g id="graph0" class="graph" transform="scale(1 1) rotate(0) translate(4 125.562)">
<title>CellSociety.updateGrid</title>
<polygon fill="white" stroke="none" points="-4,4 -4,-125.562 1002,-125.562 1002,4 -4,4"/>
<!-- Node1 -->
<g id="node1" class="node"><title>Node1</title>
<polygon fill="#bfbfbf" stroke="black" points="0,-85.5 0,-104.5 124,-104.5 124,-85.5 0,-85.5"/>
<text text-anchor="middle" x="62" y="-92.5" font-family="Helvetica,sans-Serif" font-size="10.00">CellSociety.updateGrid</text>
</g>
<!-- Node2 -->
<g id="node2" class="node"><title>Node2</title>
<g id="a_node2"><a xlink:href="../../d3/dff/class_cell_society.html#a656ff46d1459fb7f86b42e3c542506ee" target="_top" xlink:title="CellSociety.configureListeners">
<polygon fill="white" stroke="black" points="680,-57.5 680,-76.5 838,-76.5 838,-57.5 680,-57.5"/>
<text text-anchor="middle" x="759" y="-64.5" font-family="Helvetica,sans-Serif" font-size="10.00">CellSociety.configureListeners</text>
</a>
</g>
</g>
<!-- Node1&#45;&gt;Node2 -->
<g id="edge1" class="edge"><title>Node1&#45;&gt;Node2</title>
<path fill="none" stroke="midnightblue" d="M134.143,-104.282C244.251,-116.843 462.215,-134.5 644,-105 677.155,-99.6198 713.696,-85.977 736.252,-76.5924"/>
<polygon fill="midnightblue" stroke="midnightblue" points="134.488,-100.799 124.151,-103.122 133.681,-107.752 134.488,-100.799"/>
</g>
<!-- Node4 -->
<g id="node4" class="node"><title>Node4</title>
<g id="a_node4"><a xlink:href="../../d3/dff/class_cell_society.html#abf13a64ee79f2cb063447b499c695c58" target="_top" xlink:title="CellSociety.start">
<polygon fill="white" stroke="black" points="160.5,-57.5 160.5,-76.5 253.5,-76.5 253.5,-57.5 160.5,-57.5"/>
<text text-anchor="middle" x="207" y="-64.5" font-family="Helvetica,sans-Serif" font-size="10.00">CellSociety.start</text>
</a>
</g>
</g>
<!-- Node1&#45;&gt;Node4 -->
<g id="edge3" class="edge"><title>Node1&#45;&gt;Node4</title>
<path fill="none" stroke="midnightblue" d="M121.93,-83.4613C134.735,-80.954 148.095,-78.338 160.298,-75.9487"/>
<polygon fill="midnightblue" stroke="midnightblue" points="120.954,-80.0859 111.813,-85.4423 122.299,-86.9554 120.954,-80.0859"/>
</g>
<!-- Node3 -->
<g id="node3" class="node"><title>Node3</title>
<g id="a_node3"><a xlink:href="../../d3/dff/class_cell_society.html#ac5e08680a3da358d402461bc25aa1727" target="_top" xlink:title="CellSociety.CellSociety">
<polygon fill="white" stroke="black" points="874.5,-57.5 874.5,-76.5 997.5,-76.5 997.5,-57.5 874.5,-57.5"/>
<text text-anchor="middle" x="936" y="-64.5" font-family="Helvetica,sans-Serif" font-size="10.00">CellSociety.CellSociety</text>
</a>
</g>
</g>
<!-- Node2&#45;&gt;Node3 -->
<g id="edge2" class="edge"><title>Node2&#45;&gt;Node3</title>
<path fill="none" stroke="midnightblue" d="M848.087,-67C857.007,-67 865.919,-67 874.452,-67"/>
<polygon fill="midnightblue" stroke="midnightblue" points="848.032,-63.5001 838.032,-67 848.032,-70.5001 848.032,-63.5001"/>
</g>
<!-- Node5 -->
<g id="node5" class="node"><title>Node5</title>
<g id="a_node5"><a xlink:href="../../d3/dff/class_cell_society.html#adc5feda3db5472cea4e092d463681033" target="_top" xlink:title="CellSociety.reframeTimeline">
<polygon fill="white" stroke="black" points="290.5,-57.5 290.5,-76.5 439.5,-76.5 439.5,-57.5 290.5,-57.5"/>
<text text-anchor="middle" x="365" y="-64.5" font-family="Helvetica,sans-Serif" font-size="10.00">CellSociety.reframeTimeline</text>
</a>
</g>
</g>
<!-- Node4&#45;&gt;Node5 -->
<g id="edge4" class="edge"><title>Node4&#45;&gt;Node5</title>
<path fill="none" stroke="midnightblue" d="M263.78,-67C272.359,-67 281.329,-67 290.226,-67"/>
<polygon fill="midnightblue" stroke="midnightblue" points="263.541,-63.5001 253.541,-67 263.541,-70.5001 263.541,-63.5001"/>
</g>
<!-- Node8 -->
<g id="node8" class="node"><title>Node8</title>
<g id="a_node8"><a xlink:href="../../d3/dff/class_cell_society.html#ab9e56a2a70e210e021b51e898508329b" target="_top" xlink:title="CellSociety.setupAnimation">
<polygon fill="white" stroke="black" points="292,-9.5 292,-28.5 438,-28.5 438,-9.5 292,-9.5"/>
<text text-anchor="middle" x="365" y="-16.5" font-family="Helvetica,sans-Serif" font-size="10.00">CellSociety.setupAnimation</text>
</a>
</g>
</g>
<!-- Node4&#45;&gt;Node8 -->
<g id="edge9" class="edge"><title>Node4&#45;&gt;Node8</title>
<path fill="none" stroke="midnightblue" d="M248.87,-54.4247C275.143,-46.3405 308.748,-36.0005 332.86,-28.5815"/>
<polygon fill="midnightblue" stroke="midnightblue" points="247.722,-51.1157 239.194,-57.4018 249.781,-57.8061 247.722,-51.1157"/>
</g>
<!-- Node6 -->
<g id="node6" class="node"><title>Node6</title>
<g id="a_node6"><a xlink:href="../../d3/dff/class_cell_society.html#a045267ba1843ca4a47891d7be73c2ac1" target="_top" xlink:title="CellSociety.decreaseFrameRate">
<polygon fill="white" stroke="black" points="476.5,-76.5 476.5,-95.5 643.5,-95.5 643.5,-76.5 476.5,-76.5"/>
<text text-anchor="middle" x="560" y="-83.5" font-family="Helvetica,sans-Serif" font-size="10.00">CellSociety.decreaseFrameRate</text>
</a>
</g>
</g>
<!-- Node5&#45;&gt;Node6 -->
<g id="edge5" class="edge"><title>Node5&#45;&gt;Node6</title>
<path fill="none" stroke="midnightblue" d="M449.487,-75.2189C458.391,-76.0954 467.444,-76.9868 476.338,-77.8623"/>
<polygon fill="midnightblue" stroke="midnightblue" points="449.81,-71.7339 439.516,-74.2373 449.125,-78.7003 449.81,-71.7339"/>
</g>
<!-- Node7 -->
<g id="node7" class="node"><title>Node7</title>
<g id="a_node7"><a xlink:href="../../d3/dff/class_cell_society.html#a8250bfacdaf51dabf6b9d1cafc0ce9b2" target="_top" xlink:title="CellSociety.increaseFrameRate">
<polygon fill="white" stroke="black" points="478.5,-38.5 478.5,-57.5 641.5,-57.5 641.5,-38.5 478.5,-38.5"/>
<text text-anchor="middle" x="560" y="-45.5" font-family="Helvetica,sans-Serif" font-size="10.00">CellSociety.increaseFrameRate</text>
</a>
</g>
</g>
<!-- Node5&#45;&gt;Node7 -->
<g id="edge7" class="edge"><title>Node5&#45;&gt;Node7</title>
<path fill="none" stroke="midnightblue" d="M449.719,-58.7583C459.198,-57.8251 468.845,-56.8753 478.285,-55.946"/>
<polygon fill="midnightblue" stroke="midnightblue" points="449.125,-55.2997 439.516,-59.7627 449.81,-62.2661 449.125,-55.2997"/>
</g>
<!-- Node6&#45;&gt;Node2 -->
<g id="edge6" class="edge"><title>Node6&#45;&gt;Node2</title>
<path fill="none" stroke="midnightblue" d="M653.877,-77.0423C662.593,-76.2017 671.368,-75.3554 679.927,-74.5299"/>
<polygon fill="midnightblue" stroke="midnightblue" points="653.307,-73.5809 643.689,-78.0249 653.979,-80.5486 653.307,-73.5809"/>
</g>
<!-- Node7&#45;&gt;Node2 -->
<g id="edge8" class="edge"><title>Node7&#45;&gt;Node2</title>
<path fill="none" stroke="midnightblue" d="M651.842,-56.7614C661.24,-57.6678 670.733,-58.5834 679.974,-59.4746"/>
<polygon fill="midnightblue" stroke="midnightblue" points="651.986,-53.2591 641.696,-55.7828 651.314,-60.2268 651.986,-53.2591"/>
</g>
<!-- Node9 -->
<g id="node9" class="node"><title>Node9</title>
<g id="a_node9"><a xlink:href="../../d3/dff/class_cell_society.html#af9f22af39a97a58b26126020ca6c8844" target="_top" xlink:title="CellSociety.readNewXML">
<polygon fill="white" stroke="black" points="494,-0.5 494,-19.5 626,-19.5 626,-0.5 494,-0.5"/>
<text text-anchor="middle" x="560" y="-7.5" font-family="Helvetica,sans-Serif" font-size="10.00">CellSociety.readNewXML</text>
</a>
</g>
</g>
<!-- Node8&#45;&gt;Node9 -->
<g id="edge10" class="edge"><title>Node8&#45;&gt;Node9</title>
<path fill="none" stroke="midnightblue" d="M448.552,-15.1504C463.727,-14.4428 479.372,-13.7132 493.943,-13.0337"/>
<polygon fill="midnightblue" stroke="midnightblue" points="447.967,-11.6738 438.141,-15.6359 448.293,-18.6662 447.967,-11.6738"/>
</g>
<!-- Node9&#45;&gt;Node2 -->
<g id="edge11" class="edge"><title>Node9&#45;&gt;Node2</title>
<path fill="none" stroke="midnightblue" d="M616.362,-21.8882C625.628,-24.1025 635.115,-26.5086 644,-29 674.332,-37.5056 708.544,-49.198 731.506,-57.3586"/>
<polygon fill="midnightblue" stroke="midnightblue" points="616.965,-18.4351 606.431,-19.5659 615.371,-25.2512 616.965,-18.4351"/>
</g>
</g>
</svg>
