<?xml version="1.0" encoding="UTF-8" standalone="no"?>
<!DOCTYPE svg PUBLIC "-//W3C//DTD SVG 1.1//EN"
 "http://www.w3.org/Graphics/SVG/1.1/DTD/svg11.dtd">
<!-- Generated by graphviz version 2.36.0 (20140111.2315)
 -->
<!-- Title: CellSociety.reframeTimeline Pages: 1 -->
<!--zoomable 192 -->
<svg id="main" version="1.1" xmlns="http://www.w3.org/2000/svg" xmlns:xlink="http://www.w3.org/1999/xlink" xml:space="preserve" onload="init(evt)">
<style type="text/css"><![CDATA[
.edge:hover path { stroke: red; }
.edge:hover polygon { stroke: red; fill: red; }
]]></style>
<script type="text/javascript"><![CDATA[
var edges = document.getElementsByTagName('g');
if (edges && edges.length) {
  for (var i=0;i<edges.length;i++) {
    if (edges[i].id.substr(0,4)=='edge') {
      edges[i].setAttribute('class','edge');
    }
  }
}
]]></script>
        <defs>
                <circle id="rim" cx="0" cy="0" r="7"/>
                <circle id="rim2" cx="0" cy="0" r="3.5"/>
                <g id="zoomPlus">
                        <use xlink:href="#rim" fill="#404040">
                                <set attributeName="fill" to="#808080" begin="zoomplus.mouseover" end="zoomplus.mouseout"/>
                        </use>
                        <path d="M-4,0h8M0,-4v8" fill="none" stroke="white" stroke-width="1.5" pointer-events="none"/>
                </g>
                <g id="zoomMin">
                        <use xlink:href="#rim" fill="#404040">
                                <set attributeName="fill" to="#808080" begin="zoomminus.mouseover" end="zoomminus.mouseout"/>
                        </use>
                        <path d="M-4,0h8" fill="none" stroke="white" stroke-width="1.5" pointer-events="none"/>
                </g>
                <g id="dirArrow">
                        <path fill="none" stroke="white" stroke-width="1.5" d="M0,-3.0v7 M-2.5,-0.5L0,-3.0L2.5,-0.5"/>
                </g>
               <g id="resetDef">
                       <use xlink:href="#rim2" fill="#404040">
                               <set attributeName="fill" to="#808080" begin="reset.mouseover" end="reset.mouseout"/>
                       </use>
               </g>
        </defs>

<script type="text/javascript">
var viewWidth = 1048;
var viewHeight = 192;
var sectionId = 'dynsection-21';
</script>
<script xlink:href="../../svgpan.js"/>
<svg id="graph" class="graph">
<g id="viewport">
<title>CellSociety.reframeTimeline</title>
<polygon fill="white" stroke="none" points="-4,4 -4,-188 1044,-188 1044,4 -4,4"/>
<!-- Node1 -->
<g id="node1" class="node"><title>Node1</title>
<polygon fill="#bfbfbf" stroke="black" points="0.5,-95.5 0.5,-114.5 149.5,-114.5 149.5,-95.5 0.5,-95.5"/>
<text text-anchor="middle" x="75" y="-102.5" font-family="Helvetica,sans-Serif" font-size="10.00">CellSociety.reframeTimeline</text>
</g>
<!-- Node2 -->
<g id="node2" class="node"><title>Node2</title>
<g id="a_node2"><a xlink:href="../../df/df8/class_cell_society_view.html#a99eb733c00ed7c1bcba8f2d684791a09" target="_top" xlink:title="CellSocietyView.displayFrameRate">
<polygon fill="white" stroke="black" points="186,-114.5 186,-133.5 364,-133.5 364,-114.5 186,-114.5"/>
<text text-anchor="middle" x="275" y="-121.5" font-family="Helvetica,sans-Serif" font-size="10.00">CellSocietyView.displayFrameRate</text>
</a>
</g>
</g>
<!-- Node1&#45;&gt;Node2 -->
<g id="edge1" class="edge"><title>Node1&#45;&gt;Node2</title>
<path fill="none" stroke="midnightblue" d="M149.728,-112.075C158.184,-112.886 166.903,-113.723 175.616,-114.559"/>
<polygon fill="midnightblue" stroke="midnightblue" points="175.537,-118.068 185.825,-115.539 176.206,-111.1 175.537,-118.068"/>
</g>
<!-- Node3 -->
<g id="node3" class="node"><title>Node3</title>
<g id="a_node3"><a xlink:href="../../d3/dff/class_cell_society.html#abf13a64ee79f2cb063447b499c695c58" target="_top" xlink:title="CellSociety.start">
<polygon fill="white" stroke="black" points="228.5,-76.5 228.5,-95.5 321.5,-95.5 321.5,-76.5 228.5,-76.5"/>
<text text-anchor="middle" x="275" y="-83.5" font-family="Helvetica,sans-Serif" font-size="10.00">CellSociety.start</text>
</a>
</g>
</g>
<!-- Node1&#45;&gt;Node3 -->
<g id="edge2" class="edge"><title>Node1&#45;&gt;Node3</title>
<path fill="none" stroke="midnightblue" d="M149.728,-97.9251C172.405,-95.749 196.978,-93.391 218.24,-91.3507"/>
<polygon fill="midnightblue" stroke="midnightblue" points="218.768,-94.8162 228.388,-90.3769 218.1,-87.8482 218.768,-94.8162"/>
</g>
<!-- Node4 -->
<g id="node4" class="node"><title>Node4</title>
<g id="a_node4"><a xlink:href="../../d3/dff/class_cell_society.html#a0ff19c30a1cc433d8ea8444f6a5617f1" target="_top" xlink:title="CellSociety.updateGrid">
<polygon fill="white" stroke="black" points="400,-76.5 400,-95.5 524,-95.5 524,-76.5 400,-76.5"/>
<text text-anchor="middle" x="462" y="-83.5" font-family="Helvetica,sans-Serif" font-size="10.00">CellSociety.updateGrid</text>
</a>
</g>
</g>
<!-- Node3&#45;&gt;Node4 -->
<g id="edge3" class="edge"><title>Node3&#45;&gt;Node4</title>
<path fill="none" stroke="midnightblue" d="M321.73,-86C342.236,-86 366.903,-86 389.743,-86"/>
<polygon fill="midnightblue" stroke="midnightblue" points="389.743,-89.5001 399.743,-86 389.743,-82.5001 389.743,-89.5001"/>
</g>
<!-- Node5 -->
<g id="node5" class="node"><title>Node5</title>
<g id="a_node5"><a xlink:href="../../d8/d87/class_controller.html#aa8f10b5f28542d34053a7e4d5f1d6013" target="_top" xlink:title="Controller.runOneSim">
<polygon fill="white" stroke="black" points="583.5,-164.5 583.5,-183.5 702.5,-183.5 702.5,-164.5 583.5,-164.5"/>
<text text-anchor="middle" x="643" y="-171.5" font-family="Helvetica,sans-Serif" font-size="10.00">Controller.runOneSim</text>
</a>
</g>
</g>
<!-- Node4&#45;&gt;Node5 -->
<g id="edge4" class="edge"><title>Node4&#45;&gt;Node5</title>
<path fill="none" stroke="midnightblue" d="M473.801,-95.6464C490.881,-110.395 525.717,-138.471 560,-154 566.515,-156.951 573.527,-159.504 580.61,-161.704"/>
<polygon fill="midnightblue" stroke="midnightblue" points="579.693,-165.082 590.271,-164.487 581.631,-158.355 579.693,-165.082"/>
</g>
<!-- Node6 -->
<g id="node6" class="node"><title>Node6</title>
<g id="a_node6"><a xlink:href="../../d3/dff/class_cell_society.html#a64ebaee33d25e0e730024e67d5582c63" target="_top" xlink:title="CellSociety.updateColors">
<polygon fill="white" stroke="black" points="576,-76.5 576,-95.5 710,-95.5 710,-76.5 576,-76.5"/>
<text text-anchor="middle" x="643" y="-83.5" font-family="Helvetica,sans-Serif" font-size="10.00">CellSociety.updateColors</text>
</a>
</g>
</g>
<!-- Node4&#45;&gt;Node6 -->
<g id="edge5" class="edge"><title>Node4&#45;&gt;Node6</title>
<path fill="none" stroke="midnightblue" d="M524.101,-86C537.548,-86 551.95,-86 565.906,-86"/>
<polygon fill="midnightblue" stroke="midnightblue" points="565.97,-89.5001 575.97,-86 565.97,-82.5001 565.97,-89.5001"/>
</g>
<!-- Node8 -->
<g id="node8" class="node"><title>Node8</title>
<g id="a_node8"><a xlink:href="../../d2/d95/class_x_m_l_parser.html#ac4e3257aed1deb9fe950149f706fce5b" target="_top" xlink:title="XMLParser.getCellParamList">
<polygon fill="white" stroke="black" points="762.5,-57.5 762.5,-76.5 911.5,-76.5 911.5,-57.5 762.5,-57.5"/>
<text text-anchor="middle" x="837" y="-64.5" font-family="Helvetica,sans-Serif" font-size="10.00">XMLParser.getCellParamList</text>
</a>
</g>
</g>
<!-- Node4&#45;&gt;Node8 -->
<g id="edge11" class="edge"><title>Node4&#45;&gt;Node8</title>
<path fill="none" stroke="midnightblue" d="M502.388,-76.4897C519.913,-72.7246 540.87,-68.8559 560,-67 624.317,-60.7602 697.462,-61.0945 752.286,-62.8081"/>
<polygon fill="midnightblue" stroke="midnightblue" points="752.192,-66.3068 762.303,-63.1429 752.426,-59.3107 752.192,-66.3068"/>
</g>
<!-- Node9 -->
<g id="node9" class="node"><title>Node9</title>
<g id="a_node9"><a xlink:href="../../df/df8/class_cell_society_view.html#a43ac2666d3a002024be53fe74028a576" target="_top" xlink:title="CellSocietyView.updateSimGrid">
<polygon fill="white" stroke="black" points="560.5,-0.5 560.5,-19.5 725.5,-19.5 725.5,-0.5 560.5,-0.5"/>
<text text-anchor="middle" x="643" y="-7.5" font-family="Helvetica,sans-Serif" font-size="10.00">CellSocietyView.updateSimGrid</text>
</a>
</g>
</g>
<!-- Node4&#45;&gt;Node9 -->
<g id="edge8" class="edge"><title>Node4&#45;&gt;Node9</title>
<path fill="none" stroke="midnightblue" d="M478.639,-76.3022C497.413,-64.9742 530.114,-46.2295 560,-34 570.724,-29.6116 582.539,-25.6667 593.78,-22.3032"/>
<polygon fill="midnightblue" stroke="midnightblue" points="594.835,-25.6415 603.469,-19.5006 592.89,-18.9172 594.835,-25.6415"/>
</g>
<!-- Node12 -->
<g id="node12" class="node"><title>Node12</title>
<g id="a_node12"><a xlink:href="../../df/df8/class_cell_society_view.html#a7ca77bdfdef97e9be9c9941c2f4d3513" target="_top" xlink:title="CellSocietyView.updateChart\lLines">
<polygon fill="white" stroke="black" points="566.5,-115 566.5,-145 719.5,-145 719.5,-115 566.5,-115"/>
<text text-anchor="start" x="574.5" y="-133" font-family="Helvetica,sans-Serif" font-size="10.00">CellSocietyView.updateChart</text>
<text text-anchor="middle" x="643" y="-122" font-family="Helvetica,sans-Serif" font-size="10.00">Lines</text>
</a>
</g>
</g>
<!-- Node4&#45;&gt;Node12 -->
<g id="edge12" class="edge"><title>Node4&#45;&gt;Node12</title>
<path fill="none" stroke="midnightblue" d="M501.84,-95.5473C521.994,-100.501 547.257,-106.711 570.764,-112.49"/>
<polygon fill="midnightblue" stroke="midnightblue" points="570.165,-115.946 580.711,-114.935 571.836,-109.149 570.165,-115.946"/>
</g>
<!-- Node7 -->
<g id="node7" class="node"><title>Node7</title>
<g id="a_node7"><a xlink:href="../../dd/d11/class_cell.html#a7f8d2520a26a1376a44372149e561f6b" target="_top" xlink:title="Cell.toString">
<polygon fill="white" stroke="black" points="799.5,-95.5 799.5,-114.5 874.5,-114.5 874.5,-95.5 799.5,-95.5"/>
<text text-anchor="middle" x="837" y="-102.5" font-family="Helvetica,sans-Serif" font-size="10.00">Cell.toString</text>
</a>
</g>
</g>
<!-- Node6&#45;&gt;Node7 -->
<g id="edge6" class="edge"><title>Node6&#45;&gt;Node7</title>
<path fill="none" stroke="midnightblue" d="M710.076,-92.5387C736.155,-95.1195 765.508,-98.0243 789.31,-100.38"/>
<polygon fill="midnightblue" stroke="midnightblue" points="789.188,-103.885 799.484,-101.386 789.877,-96.9186 789.188,-103.885"/>
</g>
<!-- Node6&#45;&gt;Node8 -->
<g id="edge7" class="edge"><title>Node6&#45;&gt;Node8</title>
<path fill="none" stroke="midnightblue" d="M710.076,-79.4613C723.605,-78.1224 738.016,-76.6964 752.075,-75.305"/>
<polygon fill="midnightblue" stroke="midnightblue" points="752.627,-78.7677 762.233,-74.2998 751.937,-71.8017 752.627,-78.7677"/>
</g>
<!-- Node10 -->
<g id="node10" class="node"><title>Node10</title>
<g id="a_node10"><a xlink:href="../../da/d74/class_grid.html#a35a1ac27af1320c129643842e74a904b" target="_top" xlink:title="Grid.update">
<polygon fill="white" stroke="black" points="800.5,-0.5 800.5,-19.5 873.5,-19.5 873.5,-0.5 800.5,-0.5"/>
<text text-anchor="middle" x="837" y="-7.5" font-family="Helvetica,sans-Serif" font-size="10.00">Grid.update</text>
</a>
</g>
</g>
<!-- Node9&#45;&gt;Node10 -->
<g id="edge9" class="edge"><title>Node9&#45;&gt;Node10</title>
<path fill="none" stroke="midnightblue" d="M725.704,-10C747.852,-10 771.039,-10 790.405,-10"/>
<polygon fill="midnightblue" stroke="midnightblue" points="790.448,-13.5001 800.448,-10 790.448,-6.5001 790.448,-13.5001"/>
</g>
<!-- Node11 -->
<g id="node11" class="node"><title>Node11</title>
<g id="a_node11"><a xlink:href="../../da/d74/class_grid.html#a12ccb8909871030fc2e2839dff169f3a" target="_top" xlink:title="Grid.displayGrid">
<polygon fill="white" stroke="black" points="948,-0.5 948,-19.5 1040,-19.5 1040,-0.5 948,-0.5"/>
<text text-anchor="middle" x="994" y="-7.5" font-family="Helvetica,sans-Serif" font-size="10.00">Grid.displayGrid</text>
</a>
</g>
</g>
<!-- Node10&#45;&gt;Node11 -->
<g id="edge10" class="edge"><title>Node10&#45;&gt;Node11</title>
<path fill="none" stroke="midnightblue" d="M873.56,-10C892.532,-10 916.302,-10 937.631,-10"/>
<polygon fill="midnightblue" stroke="midnightblue" points="937.874,-13.5001 947.874,-10 937.874,-6.5001 937.874,-13.5001"/>
</g>
<!-- Node12&#45;&gt;Node7 -->
<g id="edge13" class="edge"><title>Node12&#45;&gt;Node7</title>
<path fill="none" stroke="midnightblue" d="M719.608,-120.155C743.038,-117.104 768.168,-113.832 789.059,-111.112"/>
<polygon fill="midnightblue" stroke="midnightblue" points="789.792,-114.546 799.256,-109.784 788.888,-107.605 789.792,-114.546"/>
</g>
</g>
</svg>
        <g id="navigator" transform="translate(0 0)" fill="#404254">
                <rect fill="#f2f5e9" fill-opacity="0.5" stroke="#606060" stroke-width=".5" x="0" y="0" width="60" height="60"/>
                <use id="zoomplus" xlink:href="#zoomPlus" x="17" y="9" onmousedown="handleZoom(evt,'in')"/>
                <use id="zoomminus" xlink:href="#zoomMin" x="42" y="9" onmousedown="handleZoom(evt,'out')"/>
                <use id="reset" xlink:href="#resetDef" x="30" y="36" onmousedown="handleReset()"/>
                <g id="arrowUp" xlink:href="#dirArrow" transform="translate(30 24)" onmousedown="handlePan(0,-1)">
                  <use xlink:href="#rim" fill="#404040">
                        <set attributeName="fill" to="#808080" begin="arrowUp.mouseover" end="arrowUp.mouseout"/>
                  </use>
                  <path fill="none" stroke="white" stroke-width="1.5" d="M0,-3.0v7 M-2.5,-0.5L0,-3.0L2.5,-0.5"/>
                </g>
                <g id="arrowRight" xlink:href="#dirArrow" transform="rotate(90) translate(36 -43)" onmousedown="handlePan(1,0)">
                  <use xlink:href="#rim" fill="#404040">
                        <set attributeName="fill" to="#808080" begin="arrowRight.mouseover" end="arrowRight.mouseout"/>
                  </use>
                  <path fill="none" stroke="white" stroke-width="1.5" d="M0,-3.0v7 M-2.5,-0.5L0,-3.0L2.5,-0.5"/>
                </g>
                <g id="arrowDown" xlink:href="#dirArrow" transform="rotate(180) translate(-30 -48)" onmousedown="handlePan(0,1)">
                  <use xlink:href="#rim" fill="#404040">
                        <set attributeName="fill" to="#808080" begin="arrowDown.mouseover" end="arrowDown.mouseout"/>
                  </use>
                  <path fill="none" stroke="white" stroke-width="1.5" d="M0,-3.0v7 M-2.5,-0.5L0,-3.0L2.5,-0.5"/>
                </g>
                <g id="arrowLeft" xlink:href="#dirArrow" transform="rotate(270) translate(-36 17)" onmousedown="handlePan(-1,0)">
                  <use xlink:href="#rim" fill="#404040">
                        <set attributeName="fill" to="#808080" begin="arrowLeft.mouseover" end="arrowLeft.mouseout"/>
                  </use>
                  <path fill="none" stroke="white" stroke-width="1.5" d="M0,-3.0v7 M-2.5,-0.5L0,-3.0L2.5,-0.5"/>
                </g>
        </g>
        <svg viewBox="0 0 15 15" width="100%" height="30px" preserveAspectRatio="xMaxYMin meet">
         <g id="arrow_out" transform="scale(0.3 0.3)">
          <a xlink:href="class_cell_society_adc5feda3db5472cea4e092d463681033_cgraph_org.svg" target="_base">
           <rect id="button" ry="5" rx="5" y="6" x="6" height="38" width="38"
                fill="#f2f5e9" fill-opacity="0.5" stroke="#606060" stroke-width="1.0"/>
           <path id="arrow"
             d="M 11.500037,31.436501 C 11.940474,20.09759 22.043105,11.32322 32.158766,21.979434 L 37.068811,17.246167 C 37.068811,17.246167 37.088388,32 37.088388,32 L 22.160133,31.978069 C 22.160133,31.978069 26.997745,27.140456 26.997745,27.140456 C 18.528582,18.264221 13.291696,25.230495 11.500037,31.436501 z"
             style="fill:#404040;"/>
          </a>
         </g>
        </svg>
</svg>
