<?xml version="1.0" encoding="UTF-8" standalone="no"?>
<!DOCTYPE svg PUBLIC "-//W3C//DTD SVG 1.1//EN"
 "http://www.w3.org/Graphics/SVG/1.1/DTD/svg11.dtd">
<!-- Generated by graphviz version 2.36.0 (20140111.2315)
 -->
<!-- Title: CellSociety.readNewXML Pages: 1 -->
<svg width="1142pt" height="511pt"
 viewBox="0.00 0.00 1142.00 511.49" xmlns="http://www.w3.org/2000/svg" xmlns:xlink="http://www.w3.org/1999/xlink">
<g id="graph0" class="graph" transform="scale(1 1) rotate(0) translate(4 507.488)">
<title>CellSociety.readNewXML</title>
<polygon fill="white" stroke="none" points="-4,4 -4,-507.488 1138,-507.488 1138,4 -4,4"/>
<!-- Node1 -->
<g id="node1" class="node"><title>Node1</title>
<polygon fill="#bfbfbf" stroke="black" points="0,-236.988 0,-255.988 132,-255.988 132,-236.988 0,-236.988"/>
<text text-anchor="middle" x="66" y="-243.988" font-family="Helvetica,sans-Serif" font-size="10.00">CellSociety.readNewXML</text>
</g>
<!-- Node2 -->
<g id="node2" class="node"><title>Node2</title>
<g id="a_node2"><a xlink:href="../../d3/dff/class_cell_society.html#a7a6dab68551f91cc4b120faa51670bf8" target="_top" xlink:title="CellSociety.createCellArray">
<polygon fill="white" stroke="black" points="189,-426.988 189,-445.988 333,-445.988 333,-426.988 189,-426.988"/>
<text text-anchor="middle" x="261" y="-433.988" font-family="Helvetica,sans-Serif" font-size="10.00">CellSociety.createCellArray</text>
</a>
</g>
</g>
<!-- Node1&#45;&gt;Node2 -->
<g id="edge1" class="edge"><title>Node1&#45;&gt;Node2</title>
<path fill="none" stroke="midnightblue" d="M69.9717,-256.134C79.3105,-284.78 110.894,-369.998 168,-412.488 173.827,-416.824 180.369,-420.378 187.207,-423.292"/>
<polygon fill="midnightblue" stroke="midnightblue" points="186.086,-426.609 196.677,-426.88 188.567,-420.064 186.086,-426.609"/>
</g>
<!-- Node5 -->
<g id="node5" class="node"><title>Node5</title>
<g id="a_node5"><a xlink:href="../../d2/d95/class_x_m_l_parser.html#aea9b535964c91fa3c3d2b1c0b6a334c2" target="_top" xlink:title="XMLParser.getInitParamMap">
<polygon fill="white" stroke="black" points="395.5,-369.988 395.5,-388.988 544.5,-388.988 544.5,-369.988 395.5,-369.988"/>
<text text-anchor="middle" x="470" y="-376.988" font-family="Helvetica,sans-Serif" font-size="10.00">XMLParser.getInitParamMap</text>
</a>
</g>
</g>
<!-- Node1&#45;&gt;Node5 -->
<g id="edge8" class="edge"><title>Node1&#45;&gt;Node5</title>
<path fill="none" stroke="midnightblue" d="M70.7755,-256.309C81.3835,-282.317 114.239,-352.809 168,-379.488 250.697,-420.528 362.602,-404.925 424.02,-391.312"/>
<polygon fill="midnightblue" stroke="midnightblue" points="424.831,-394.717 433.794,-389.068 423.265,-387.895 424.831,-394.717"/>
</g>
<!-- Node7 -->
<g id="node7" class="node"><title>Node7</title>
<g id="a_node7"><a xlink:href="../../df/df8/class_cell_society_view.html#a99eb733c00ed7c1bcba8f2d684791a09" target="_top" xlink:title="CellSocietyView.displayFrameRate">
<polygon fill="white" stroke="black" points="172,-350.988 172,-369.988 350,-369.988 350,-350.988 172,-350.988"/>
<text text-anchor="middle" x="261" y="-357.988" font-family="Helvetica,sans-Serif" font-size="10.00">CellSocietyView.displayFrameRate</text>
</a>
</g>
</g>
<!-- Node1&#45;&gt;Node7 -->
<g id="edge6" class="edge"><title>Node1&#45;&gt;Node7</title>
<path fill="none" stroke="midnightblue" d="M74.1441,-256.112C89.1704,-275.603 126.133,-319.733 168,-341.488 172.586,-343.871 177.446,-345.955 182.442,-347.778"/>
<polygon fill="midnightblue" stroke="midnightblue" points="181.589,-351.182 192.182,-350.971 183.77,-344.53 181.589,-351.182"/>
</g>
<!-- Node8 -->
<g id="node8" class="node"><title>Node8</title>
<g id="a_node8"><a xlink:href="../../df/df8/class_cell_society_view.html#a053b6ef6afa80722445223c4e373e51c" target="_top" xlink:title="CellSocietyView.displayXMLChooser">
<polygon fill="white" stroke="black" points="168.5,-312.988 168.5,-331.988 353.5,-331.988 353.5,-312.988 168.5,-312.988"/>
<text text-anchor="middle" x="261" y="-319.988" font-family="Helvetica,sans-Serif" font-size="10.00">CellSocietyView.displayXMLChooser</text>
</a>
</g>
</g>
<!-- Node1&#45;&gt;Node8 -->
<g id="edge7" class="edge"><title>Node1&#45;&gt;Node8</title>
<path fill="none" stroke="midnightblue" d="M80.7044,-256.064C99.5237,-268.771 134.819,-291.047 168,-303.488 175.194,-306.186 182.856,-308.534 190.57,-310.57"/>
<polygon fill="midnightblue" stroke="midnightblue" points="189.789,-313.982 200.337,-312.985 191.469,-307.187 189.789,-313.982"/>
</g>
<!-- Node9 -->
<g id="node9" class="node"><title>Node9</title>
<g id="a_node9"><a xlink:href="../../d2/d95/class_x_m_l_parser.html#a77ee23818c822b69cdf4200eef726a61" target="_top" xlink:title="XMLParser.parseXMLFile">
<polygon fill="white" stroke="black" points="196,-236.988 196,-255.988 326,-255.988 326,-236.988 196,-236.988"/>
<text text-anchor="middle" x="261" y="-243.988" font-family="Helvetica,sans-Serif" font-size="10.00">XMLParser.parseXMLFile</text>
</a>
</g>
</g>
<!-- Node1&#45;&gt;Node9 -->
<g id="edge9" class="edge"><title>Node1&#45;&gt;Node9</title>
<path fill="none" stroke="midnightblue" d="M132.072,-246.488C149.27,-246.488 167.963,-246.488 185.613,-246.488"/>
<polygon fill="midnightblue" stroke="midnightblue" points="185.866,-249.988 195.866,-246.488 185.866,-242.988 185.866,-249.988"/>
</g>
<!-- Node13 -->
<g id="node13" class="node"><title>Node13</title>
<g id="a_node13"><a xlink:href="../../d3/dff/class_cell_society.html#ae565a305ea53e5a37da9816a236b4fbc" target="_top" xlink:title="CellSociety.pauseAnimation">
<polygon fill="white" stroke="black" points="186.5,-198.988 186.5,-217.988 335.5,-217.988 335.5,-198.988 186.5,-198.988"/>
<text text-anchor="middle" x="261" y="-205.988" font-family="Helvetica,sans-Serif" font-size="10.00">CellSociety.pauseAnimation</text>
</a>
</g>
</g>
<!-- Node1&#45;&gt;Node13 -->
<g id="edge13" class="edge"><title>Node1&#45;&gt;Node13</title>
<path fill="none" stroke="midnightblue" d="M115.702,-236.899C141.859,-231.749 174.284,-225.365 201.767,-219.954"/>
<polygon fill="midnightblue" stroke="midnightblue" points="202.513,-223.374 211.648,-218.008 201.16,-216.506 202.513,-223.374"/>
</g>
<!-- Node15 -->
<g id="node15" class="node"><title>Node15</title>
<g id="a_node15"><a xlink:href="../../d3/dff/class_cell_society.html#abfbf43ce46b4c82c16a2d933b6a11abf" target="_top" xlink:title="CellSociety.retrieveParserInfo">
<polygon fill="white" stroke="black" points="183.5,-274.988 183.5,-293.988 338.5,-293.988 338.5,-274.988 183.5,-274.988"/>
<text text-anchor="middle" x="261" y="-281.988" font-family="Helvetica,sans-Serif" font-size="10.00">CellSociety.retrieveParserInfo</text>
</a>
</g>
</g>
<!-- Node1&#45;&gt;Node15 -->
<g id="edge15" class="edge"><title>Node1&#45;&gt;Node15</title>
<path fill="none" stroke="midnightblue" d="M115.702,-256.077C141.859,-261.227 174.284,-267.612 201.767,-273.023"/>
<polygon fill="midnightblue" stroke="midnightblue" points="201.16,-276.47 211.648,-274.968 202.513,-269.602 201.16,-276.47"/>
</g>
<!-- Node17 -->
<g id="node17" class="node"><title>Node17</title>
<g id="a_node17"><a xlink:href="../../dd/d11/class_cell.html#a7157b57f4ff263ea68e1ff5fc424176e" target="_top" xlink:title="Cell.setCellSize">
<polygon fill="white" stroke="black" points="216.5,-160.988 216.5,-179.988 305.5,-179.988 305.5,-160.988 216.5,-160.988"/>
<text text-anchor="middle" x="261" y="-167.988" font-family="Helvetica,sans-Serif" font-size="10.00">Cell.setCellSize</text>
</a>
</g>
</g>
<!-- Node1&#45;&gt;Node17 -->
<g id="edge18" class="edge"><title>Node1&#45;&gt;Node17</title>
<path fill="none" stroke="midnightblue" d="M80.7044,-236.913C99.5237,-224.205 134.819,-201.93 168,-189.488 180.05,-184.97 193.412,-181.432 206.132,-178.699"/>
<polygon fill="midnightblue" stroke="midnightblue" points="207.049,-182.085 216.159,-176.677 205.665,-175.223 207.049,-182.085"/>
</g>
<!-- Node18 -->
<g id="node18" class="node"><title>Node18</title>
<g id="a_node18"><a xlink:href="../../df/df8/class_cell_society_view.html#a989874eb178e925124f50d7cabcc184c" target="_top" xlink:title="CellSocietyView.setGridGap">
<polygon fill="white" stroke="black" points="187.5,-122.988 187.5,-141.988 334.5,-141.988 334.5,-122.988 187.5,-122.988"/>
<text text-anchor="middle" x="261" y="-129.988" font-family="Helvetica,sans-Serif" font-size="10.00">CellSocietyView.setGridGap</text>
</a>
</g>
</g>
<!-- Node1&#45;&gt;Node18 -->
<g id="edge19" class="edge"><title>Node1&#45;&gt;Node18</title>
<path fill="none" stroke="midnightblue" d="M74.1441,-236.864C89.1704,-217.373 126.133,-173.244 168,-151.488 172.586,-149.105 177.446,-147.021 182.442,-145.198"/>
<polygon fill="midnightblue" stroke="midnightblue" points="183.77,-148.447 192.182,-142.005 181.589,-141.795 183.77,-148.447"/>
</g>
<!-- Node19 -->
<g id="node19" class="node"><title>Node19</title>
<g id="a_node19"><a xlink:href="../../d3/dff/class_cell_society.html#ab9e56a2a70e210e021b51e898508329b" target="_top" xlink:title="CellSociety.setupAnimation">
<polygon fill="white" stroke="black" points="188,-84.9883 188,-103.988 334,-103.988 334,-84.9883 188,-84.9883"/>
<text text-anchor="middle" x="261" y="-91.9883" font-family="Helvetica,sans-Serif" font-size="10.00">CellSociety.setupAnimation</text>
</a>
</g>
</g>
<!-- Node1&#45;&gt;Node19 -->
<g id="edge20" class="edge"><title>Node1&#45;&gt;Node19</title>
<path fill="none" stroke="midnightblue" d="M71.2714,-236.895C82.864,-212.051 117.475,-145.34 168,-113.488 171.225,-111.455 174.628,-109.635 178.15,-108.006"/>
<polygon fill="midnightblue" stroke="midnightblue" points="179.76,-111.129 187.708,-104.124 177.126,-104.644 179.76,-111.129"/>
</g>
<!-- Node26 -->
<g id="node26" class="node"><title>Node26</title>
<g id="a_node26"><a xlink:href="../../df/df8/class_cell_society_view.html#a43ac2666d3a002024be53fe74028a576" target="_top" xlink:title="CellSocietyView.updateSimGrid">
<polygon fill="white" stroke="black" points="782.5,-46.9883 782.5,-65.9883 947.5,-65.9883 947.5,-46.9883 782.5,-46.9883"/>
<text text-anchor="middle" x="865" y="-53.9883" font-family="Helvetica,sans-Serif" font-size="10.00">CellSocietyView.updateSimGrid</text>
</a>
</g>
</g>
<!-- Node1&#45;&gt;Node26 -->
<g id="edge29" class="edge"><title>Node1&#45;&gt;Node26</title>
<path fill="none" stroke="midnightblue" d="M69.2354,-236.79C76.822,-206.388 104.72,-112.76 168,-75.4883 383.602,51.5006 705.603,-14.4549 820.965,-44.3541"/>
<polygon fill="midnightblue" stroke="midnightblue" points="820.275,-47.7917 830.837,-46.9565 822.06,-41.023 820.275,-47.7917"/>
</g>
<!-- Node3 -->
<g id="node3" class="node"><title>Node3</title>
<g id="a_node3"><a xlink:href="../../d3/dff/class_cell_society.html#a117f1698760a3f6bbe51bd7af16f79bb" target="_top" xlink:title="CellSociety.createCellInstance">
<polygon fill="white" stroke="black" points="390.5,-483.988 390.5,-502.988 549.5,-502.988 549.5,-483.988 390.5,-483.988"/>
<text text-anchor="middle" x="470" y="-490.988" font-family="Helvetica,sans-Serif" font-size="10.00">CellSociety.createCellInstance</text>
</a>
</g>
</g>
<!-- Node2&#45;&gt;Node3 -->
<g id="edge2" class="edge"><title>Node2&#45;&gt;Node3</title>
<path fill="none" stroke="midnightblue" d="M292.39,-446.001C318.245,-453.975 356.418,-465.472 390,-474.488 398.904,-476.879 408.412,-479.288 417.633,-481.549"/>
<polygon fill="midnightblue" stroke="midnightblue" points="416.943,-484.983 427.486,-483.937 418.592,-478.18 416.943,-484.983"/>
</g>
<!-- Node4 -->
<g id="node4" class="node"><title>Node4</title>
<g id="a_node4"><a xlink:href="../../d2/d95/class_x_m_l_parser.html#ac4e3257aed1deb9fe950149f706fce5b" target="_top" xlink:title="XMLParser.getCellParamList">
<polygon fill="white" stroke="black" points="395.5,-445.988 395.5,-464.988 544.5,-464.988 544.5,-445.988 395.5,-445.988"/>
<text text-anchor="middle" x="470" y="-452.988" font-family="Helvetica,sans-Serif" font-size="10.00">XMLParser.getCellParamList</text>
</a>
</g>
</g>
<!-- Node2&#45;&gt;Node4 -->
<g id="edge3" class="edge"><title>Node2&#45;&gt;Node4</title>
<path fill="none" stroke="midnightblue" d="M333.238,-443.027C349.955,-444.561 367.92,-446.21 385.133,-447.79"/>
<polygon fill="midnightblue" stroke="midnightblue" points="384.887,-451.282 395.165,-448.711 385.527,-444.312 384.887,-451.282"/>
</g>
<!-- Node2&#45;&gt;Node5 -->
<g id="edge4" class="edge"><title>Node2&#45;&gt;Node5</title>
<path fill="none" stroke="midnightblue" d="M302.597,-426.975C318.719,-422.917 337.353,-417.877 354,-412.488 370.333,-407.202 373.617,-403.618 390,-398.488 398.031,-395.974 406.609,-393.599 415.043,-391.436"/>
<polygon fill="midnightblue" stroke="midnightblue" points="415.978,-394.81 424.836,-388.998 414.287,-388.018 415.978,-394.81"/>
</g>
<!-- Node6 -->
<g id="node6" class="node"><title>Node6</title>
<g id="a_node6"><a xlink:href="../../d3/dff/class_cell_society.html#a42451b17e2bca5fd025c8d4ea74310ca" target="_top" xlink:title="CellSociety.stringToIntArray">
<polygon fill="white" stroke="black" points="397.5,-407.988 397.5,-426.988 542.5,-426.988 542.5,-407.988 397.5,-407.988"/>
<text text-anchor="middle" x="470" y="-414.988" font-family="Helvetica,sans-Serif" font-size="10.00">CellSociety.stringToIntArray</text>
</a>
</g>
</g>
<!-- Node2&#45;&gt;Node6 -->
<g id="edge5" class="edge"><title>Node2&#45;&gt;Node6</title>
<path fill="none" stroke="midnightblue" d="M333.238,-429.95C350.541,-428.361 369.182,-426.65 386.942,-425.02"/>
<polygon fill="midnightblue" stroke="midnightblue" points="387.642,-428.471 397.28,-424.071 387.002,-421.5 387.642,-428.471"/>
</g>
<!-- Node10 -->
<g id="node10" class="node"><title>Node10</title>
<g id="a_node10"><a xlink:href="../../d2/d95/class_x_m_l_parser.html#ae67767f9678fb650ac38b1321ea9f723" target="_top" xlink:title="XMLParser.parseInitialTags">
<polygon fill="white" stroke="black" points="399.5,-236.988 399.5,-255.988 540.5,-255.988 540.5,-236.988 399.5,-236.988"/>
<text text-anchor="middle" x="470" y="-243.988" font-family="Helvetica,sans-Serif" font-size="10.00">XMLParser.parseInitialTags</text>
</a>
</g>
</g>
<!-- Node9&#45;&gt;Node10 -->
<g id="edge10" class="edge"><title>Node9&#45;&gt;Node10</title>
<path fill="none" stroke="midnightblue" d="M326.078,-246.488C346.078,-246.488 368.387,-246.488 389.321,-246.488"/>
<polygon fill="midnightblue" stroke="midnightblue" points="389.471,-249.988 399.471,-246.488 389.471,-242.988 389.471,-249.988"/>
</g>
<!-- Node11 -->
<g id="node11" class="node"><title>Node11</title>
<g id="a_node11"><a xlink:href="../../d2/d95/class_x_m_l_parser.html#a09c6848239104ae94825c045796dddd0" target="_top" xlink:title="XMLParser.makeParamMap">
<polygon fill="white" stroke="black" points="593,-255.988 593,-274.988 739,-274.988 739,-255.988 593,-255.988"/>
<text text-anchor="middle" x="666" y="-262.988" font-family="Helvetica,sans-Serif" font-size="10.00">XMLParser.makeParamMap</text>
</a>
</g>
</g>
<!-- Node10&#45;&gt;Node11 -->
<g id="edge11" class="edge"><title>Node10&#45;&gt;Node11</title>
<path fill="none" stroke="midnightblue" d="M540.764,-253.321C554.401,-254.656 568.818,-256.068 582.815,-257.439"/>
<polygon fill="midnightblue" stroke="midnightblue" points="582.621,-260.937 592.915,-258.428 583.303,-253.97 582.621,-260.937"/>
</g>
<!-- Node12 -->
<g id="node12" class="node"><title>Node12</title>
<g id="a_node12"><a xlink:href="../../d2/d95/class_x_m_l_parser.html#a5a419f71699eb7d3d76ee238fb262a5f" target="_top" xlink:title="XMLParser.makeCellParamList">
<polygon fill="white" stroke="black" points="586,-217.988 586,-236.988 746,-236.988 746,-217.988 586,-217.988"/>
<text text-anchor="middle" x="666" y="-224.988" font-family="Helvetica,sans-Serif" font-size="10.00">XMLParser.makeCellParamList</text>
</a>
</g>
</g>
<!-- Node10&#45;&gt;Node12 -->
<g id="edge12" class="edge"><title>Node10&#45;&gt;Node12</title>
<path fill="none" stroke="midnightblue" d="M540.764,-239.656C552.107,-238.545 563.99,-237.381 575.721,-236.232"/>
<polygon fill="midnightblue" stroke="midnightblue" points="576.363,-239.686 585.974,-235.228 575.681,-232.719 576.363,-239.686"/>
</g>
<!-- Node14 -->
<g id="node14" class="node"><title>Node14</title>
<g id="a_node14"><a xlink:href="../../df/df8/class_cell_society_view.html#ae83511f9bf3610b0750d41c4aeb0f778" target="_top" xlink:title="CellSocietyView.setButtons\lPause">
<polygon fill="white" stroke="black" points="397,-187.488 397,-217.488 543,-217.488 543,-187.488 397,-187.488"/>
<text text-anchor="start" x="405" y="-205.488" font-family="Helvetica,sans-Serif" font-size="10.00">CellSocietyView.setButtons</text>
<text text-anchor="middle" x="470" y="-194.488" font-family="Helvetica,sans-Serif" font-size="10.00">Pause</text>
</a>
</g>
</g>
<!-- Node13&#45;&gt;Node14 -->
<g id="edge14" class="edge"><title>Node13&#45;&gt;Node14</title>
<path fill="none" stroke="midnightblue" d="M335.563,-206.356C352.019,-205.879 369.58,-205.37 386.375,-204.883"/>
<polygon fill="midnightblue" stroke="midnightblue" points="386.823,-208.372 396.717,-204.583 386.62,-201.375 386.823,-208.372"/>
</g>
<!-- Node15&#45;&gt;Node5 -->
<g id="edge16" class="edge"><title>Node15&#45;&gt;Node5</title>
<path fill="none" stroke="midnightblue" d="M324.338,-294C334.451,-296.493 344.662,-299.608 354,-303.488 390.678,-318.729 428.134,-346.152 449.943,-363.555"/>
<polygon fill="midnightblue" stroke="midnightblue" points="447.793,-366.318 457.763,-369.904 452.206,-360.884 447.793,-366.318"/>
</g>
<!-- Node16 -->
<g id="node16" class="node"><title>Node16</title>
<g id="a_node16"><a xlink:href="../../d2/d95/class_x_m_l_parser.html#a0df3a2904766f59d1246cb55416f8146" target="_top" xlink:title="XMLParser.getSimParamMap">
<polygon fill="white" stroke="black" points="393,-274.988 393,-293.988 547,-293.988 547,-274.988 393,-274.988"/>
<text text-anchor="middle" x="470" y="-281.988" font-family="Helvetica,sans-Serif" font-size="10.00">XMLParser.getSimParamMap</text>
</a>
</g>
</g>
<!-- Node15&#45;&gt;Node16 -->
<g id="edge17" class="edge"><title>Node15&#45;&gt;Node16</title>
<path fill="none" stroke="midnightblue" d="M338.785,-284.488C352.951,-284.488 367.833,-284.488 382.268,-284.488"/>
<polygon fill="midnightblue" stroke="midnightblue" points="382.684,-287.988 392.684,-284.488 382.684,-280.988 382.684,-287.988"/>
</g>
<!-- Node20 -->
<g id="node20" class="node"><title>Node20</title>
<g id="a_node20"><a xlink:href="../../d3/dff/class_cell_society.html#abf13a64ee79f2cb063447b499c695c58" target="_top" xlink:title="CellSociety.start">
<polygon fill="white" stroke="black" points="423.5,-84.9883 423.5,-103.988 516.5,-103.988 516.5,-84.9883 423.5,-84.9883"/>
<text text-anchor="middle" x="470" y="-91.9883" font-family="Helvetica,sans-Serif" font-size="10.00">CellSociety.start</text>
</a>
</g>
</g>
<!-- Node19&#45;&gt;Node20 -->
<g id="edge21" class="edge"><title>Node19&#45;&gt;Node20</title>
<path fill="none" stroke="midnightblue" d="M334.108,-94.4883C360.04,-94.4883 388.876,-94.4883 413.209,-94.4883"/>
<polygon fill="midnightblue" stroke="midnightblue" points="413.34,-97.9884 423.34,-94.4883 413.34,-90.9884 413.34,-97.9884"/>
</g>
<!-- Node21 -->
<g id="node21" class="node"><title>Node21</title>
<g id="a_node21"><a xlink:href="../../d3/dff/class_cell_society.html#a0ff19c30a1cc433d8ea8444f6a5617f1" target="_top" xlink:title="CellSociety.updateGrid">
<polygon fill="white" stroke="black" points="604,-84.9883 604,-103.988 728,-103.988 728,-84.9883 604,-84.9883"/>
<text text-anchor="middle" x="666" y="-91.9883" font-family="Helvetica,sans-Serif" font-size="10.00">CellSociety.updateGrid</text>
</a>
</g>
</g>
<!-- Node20&#45;&gt;Node21 -->
<g id="edge22" class="edge"><title>Node20&#45;&gt;Node21</title>
<path fill="none" stroke="midnightblue" d="M516.975,-94.4883C539.924,-94.4883 568.2,-94.4883 593.868,-94.4883"/>
<polygon fill="midnightblue" stroke="midnightblue" points="593.933,-97.9884 603.933,-94.4883 593.933,-90.9884 593.933,-97.9884"/>
</g>
<!-- Node22 -->
<g id="node22" class="node"><title>Node22</title>
<g id="a_node22"><a xlink:href="../../d6/d6e/class_sim_controller.html#a10145cee2eaceb4ecad9396a825051d1" target="_top" xlink:title="SimController.runOneSim">
<polygon fill="white" stroke="black" points="796,-109.988 796,-128.988 934,-128.988 934,-109.988 796,-109.988"/>
<text text-anchor="middle" x="865" y="-116.988" font-family="Helvetica,sans-Serif" font-size="10.00">SimController.runOneSim</text>
</a>
</g>
</g>
<!-- Node21&#45;&gt;Node22 -->
<g id="edge23" class="edge"><title>Node21&#45;&gt;Node22</title>
<path fill="none" stroke="midnightblue" d="M728.252,-102.261C746.527,-104.581 766.808,-107.154 786.002,-109.59"/>
<polygon fill="midnightblue" stroke="midnightblue" points="785.563,-113.062 795.924,-110.849 786.444,-106.118 785.563,-113.062"/>
</g>
<!-- Node21&#45;&gt;Node26 -->
<g id="edge27" class="edge"><title>Node21&#45;&gt;Node26</title>
<path fill="none" stroke="midnightblue" d="M716.457,-84.9484C743.154,-79.7987 776.304,-73.4043 804.415,-67.9819"/>
<polygon fill="midnightblue" stroke="midnightblue" points="805.366,-71.3629 814.523,-66.0322 804.041,-64.4896 805.366,-71.3629"/>
</g>
<!-- Node23 -->
<g id="node23" class="node"><title>Node23</title>
<g id="a_node23"><a xlink:href="../../dd/ddd/class_neighbor.html#ac769186595af20512a2ec4754db75640" target="_top" xlink:title="Neighbor.getNeighbors">
<polygon fill="white" stroke="black" points="995.5,-131.988 995.5,-150.988 1122.5,-150.988 1122.5,-131.988 995.5,-131.988"/>
<text text-anchor="middle" x="1059" y="-138.988" font-family="Helvetica,sans-Serif" font-size="10.00">Neighbor.getNeighbors</text>
</a>
</g>
</g>
<!-- Node22&#45;&gt;Node23 -->
<g id="edge24" class="edge"><title>Node22&#45;&gt;Node23</title>
<path fill="none" stroke="midnightblue" d="M934.233,-127.307C950.746,-129.199 968.458,-131.228 985.174,-133.144"/>
<polygon fill="midnightblue" stroke="midnightblue" points="985.099,-136.658 995.433,-134.319 985.896,-129.703 985.099,-136.658"/>
</g>
<!-- Node24 -->
<g id="node24" class="node"><title>Node24</title>
<g id="a_node24"><a xlink:href="../../d6/d6e/class_sim_controller.html#a1538c5c647988e5d5b6602c8eb1b8949" target="_top" xlink:title="SimController.getNeighbors\lState">
<polygon fill="white" stroke="black" points="984.5,-82.4883 984.5,-112.488 1133.5,-112.488 1133.5,-82.4883 984.5,-82.4883"/>
<text text-anchor="start" x="992.5" y="-100.488" font-family="Helvetica,sans-Serif" font-size="10.00">SimController.getNeighbors</text>
<text text-anchor="middle" x="1059" y="-89.4883" font-family="Helvetica,sans-Serif" font-size="10.00">State</text>
</a>
</g>
</g>
<!-- Node22&#45;&gt;Node24 -->
<g id="edge25" class="edge"><title>Node22&#45;&gt;Node24</title>
<path fill="none" stroke="midnightblue" d="M934.233,-111.67C947.202,-110.184 960.912,-108.613 974.297,-107.079"/>
<polygon fill="midnightblue" stroke="midnightblue" points="974.915,-110.531 984.452,-105.916 974.118,-103.577 974.915,-110.531"/>
</g>
<!-- Node25 -->
<g id="node25" class="node"><title>Node25</title>
<g id="a_node25"><a xlink:href="../../d6/d6e/class_sim_controller.html#a6b7a166a6fd312895c8356d24de980e3" target="_top" xlink:title="SimController.newState">
<polygon fill="white" stroke="black" points="994.5,-169.988 994.5,-188.988 1123.5,-188.988 1123.5,-169.988 994.5,-169.988"/>
<text text-anchor="middle" x="1059" y="-176.988" font-family="Helvetica,sans-Serif" font-size="10.00">SimController.newState</text>
</a>
</g>
</g>
<!-- Node22&#45;&gt;Node25 -->
<g id="edge26" class="edge"><title>Node22&#45;&gt;Node25</title>
<path fill="none" stroke="midnightblue" d="M891.58,-129.066C915.347,-137.8 951.816,-150.784 984,-160.488 991.855,-162.857 1000.23,-165.19 1008.42,-167.366"/>
<polygon fill="midnightblue" stroke="midnightblue" points="1007.72,-170.799 1018.28,-169.936 1009.48,-164.025 1007.72,-170.799"/>
</g>
<!-- Node27 -->
<g id="node27" class="node"><title>Node27</title>
<g id="a_node27"><a xlink:href="../../dd/d11/class_cell.html#a1e0ece61fecc69a9b7986d17d925434a" target="_top" xlink:title="Cell.getShape">
<polygon fill="white" stroke="black" points="1017.5,-43.9883 1017.5,-62.9883 1100.5,-62.9883 1100.5,-43.9883 1017.5,-43.9883"/>
<text text-anchor="middle" x="1059" y="-50.9883" font-family="Helvetica,sans-Serif" font-size="10.00">Cell.getShape</text>
</a>
</g>
</g>
<!-- Node26&#45;&gt;Node27 -->
<g id="edge28" class="edge"><title>Node26&#45;&gt;Node27</title>
<path fill="none" stroke="midnightblue" d="M947.704,-55.2117C967.933,-54.8956 989.029,-54.566 1007.29,-54.2807"/>
<polygon fill="midnightblue" stroke="midnightblue" points="1007.46,-57.7786 1017.4,-54.1227 1007.35,-50.7794 1007.46,-57.7786"/>
</g>
</g>
</svg>
