<?xml version="1.0" encoding="UTF-8" standalone="no"?>
<!DOCTYPE svg PUBLIC "-//W3C//DTD SVG 1.1//EN"
 "http://www.w3.org/Graphics/SVG/1.1/DTD/svg11.dtd">
<!-- Generated by graphviz version 2.36.0 (20140111.2315)
 -->
<!-- Title: CellSociety.increaseFrameRate Pages: 1 -->
<svg width="1120pt" height="192pt"
 viewBox="0.00 0.00 1120.00 192.00" xmlns="http://www.w3.org/2000/svg" xmlns:xlink="http://www.w3.org/1999/xlink">
<g id="graph0" class="graph" transform="scale(1 1) rotate(0) translate(4 188)">
<title>CellSociety.increaseFrameRate</title>
<polygon fill="white" stroke="none" points="-4,4 -4,-188 1116,-188 1116,4 -4,4"/>
<!-- Node1 -->
<g id="node1" class="node"><title>Node1</title>
<polygon fill="#bfbfbf" stroke="black" points="0.5,-95.5 0.5,-114.5 163.5,-114.5 163.5,-95.5 0.5,-95.5"/>
<text text-anchor="middle" x="82" y="-102.5" font-family="Helvetica,sans-Serif" font-size="10.00">CellSociety.increaseFrameRate</text>
</g>
<!-- Node2 -->
<g id="node2" class="node"><title>Node2</title>
<g id="a_node2"><a xlink:href="../../d3/dff/class_cell_society.html#adc5feda3db5472cea4e092d463681033" target="_top" xlink:title="CellSociety.reframeTimeline">
<polygon fill="white" stroke="black" points="200.5,-95.5 200.5,-114.5 349.5,-114.5 349.5,-95.5 200.5,-95.5"/>
<text text-anchor="middle" x="275" y="-102.5" font-family="Helvetica,sans-Serif" font-size="10.00">CellSociety.reframeTimeline</text>
</a>
</g>
</g>
<!-- Node1&#45;&gt;Node2 -->
<g id="edge1" class="edge"><title>Node1&#45;&gt;Node2</title>
<path fill="none" stroke="midnightblue" d="M163.724,-105C172.433,-105 181.309,-105 190.054,-105"/>
<polygon fill="midnightblue" stroke="midnightblue" points="190.241,-108.5 200.241,-105 190.241,-101.5 190.241,-108.5"/>
</g>
<!-- Node3 -->
<g id="node3" class="node"><title>Node3</title>
<g id="a_node3"><a xlink:href="../../df/df8/class_cell_society_view.html#a99eb733c00ed7c1bcba8f2d684791a09" target="_top" xlink:title="CellSocietyView.displayFrameRate">
<polygon fill="white" stroke="black" points="386,-114.5 386,-133.5 564,-133.5 564,-114.5 386,-114.5"/>
<text text-anchor="middle" x="475" y="-121.5" font-family="Helvetica,sans-Serif" font-size="10.00">CellSocietyView.displayFrameRate</text>
</a>
</g>
</g>
<!-- Node2&#45;&gt;Node3 -->
<g id="edge2" class="edge"><title>Node2&#45;&gt;Node3</title>
<path fill="none" stroke="midnightblue" d="M349.728,-112.075C358.184,-112.886 366.903,-113.723 375.616,-114.559"/>
<polygon fill="midnightblue" stroke="midnightblue" points="375.537,-118.068 385.825,-115.539 376.206,-111.1 375.537,-118.068"/>
</g>
<!-- Node4 -->
<g id="node4" class="node"><title>Node4</title>
<g id="a_node4"><a xlink:href="../../d3/dff/class_cell_society.html#abf13a64ee79f2cb063447b499c695c58" target="_top" xlink:title="CellSociety.start">
<polygon fill="white" stroke="black" points="428.5,-76.5 428.5,-95.5 521.5,-95.5 521.5,-76.5 428.5,-76.5"/>
<text text-anchor="middle" x="475" y="-83.5" font-family="Helvetica,sans-Serif" font-size="10.00">CellSociety.start</text>
</a>
</g>
</g>
<!-- Node2&#45;&gt;Node4 -->
<g id="edge3" class="edge"><title>Node2&#45;&gt;Node4</title>
<path fill="none" stroke="midnightblue" d="M349.728,-97.9251C372.405,-95.749 396.978,-93.391 418.24,-91.3507"/>
<polygon fill="midnightblue" stroke="midnightblue" points="418.768,-94.8162 428.388,-90.3769 418.1,-87.8482 418.768,-94.8162"/>
</g>
<!-- Node5 -->
<g id="node5" class="node"><title>Node5</title>
<g id="a_node5"><a xlink:href="../../d3/dff/class_cell_society.html#a0ff19c30a1cc433d8ea8444f6a5617f1" target="_top" xlink:title="CellSociety.updateGrid">
<polygon fill="white" stroke="black" points="600,-76.5 600,-95.5 724,-95.5 724,-76.5 600,-76.5"/>
<text text-anchor="middle" x="662" y="-83.5" font-family="Helvetica,sans-Serif" font-size="10.00">CellSociety.updateGrid</text>
</a>
</g>
</g>
<!-- Node4&#45;&gt;Node5 -->
<g id="edge4" class="edge"><title>Node4&#45;&gt;Node5</title>
<path fill="none" stroke="midnightblue" d="M521.73,-86C542.236,-86 566.903,-86 589.743,-86"/>
<polygon fill="midnightblue" stroke="midnightblue" points="589.743,-89.5001 599.743,-86 589.743,-82.5001 589.743,-89.5001"/>
</g>
<!-- Node6 -->
<g id="node6" class="node"><title>Node6</title>
<g id="a_node6"><a xlink:href="../../d8/d87/class_controller.html#aa8f10b5f28542d34053a7e4d5f1d6013" target="_top" xlink:title="Controller.runOneSim">
<polygon fill="white" stroke="black" points="783.5,-164.5 783.5,-183.5 902.5,-183.5 902.5,-164.5 783.5,-164.5"/>
<text text-anchor="middle" x="843" y="-171.5" font-family="Helvetica,sans-Serif" font-size="10.00">Controller.runOneSim</text>
</a>
</g>
</g>
<!-- Node5&#45;&gt;Node6 -->
<g id="edge5" class="edge"><title>Node5&#45;&gt;Node6</title>
<path fill="none" stroke="midnightblue" d="M673.801,-95.6464C690.881,-110.395 725.717,-138.471 760,-154 766.515,-156.951 773.527,-159.504 780.61,-161.704"/>
<polygon fill="midnightblue" stroke="midnightblue" points="779.693,-165.082 790.271,-164.487 781.631,-158.355 779.693,-165.082"/>
</g>
<!-- Node7 -->
<g id="node7" class="node"><title>Node7</title>
<g id="a_node7"><a xlink:href="../../d3/dff/class_cell_society.html#a64ebaee33d25e0e730024e67d5582c63" target="_top" xlink:title="CellSociety.updateColors">
<polygon fill="white" stroke="black" points="776,-76.5 776,-95.5 910,-95.5 910,-76.5 776,-76.5"/>
<text text-anchor="middle" x="843" y="-83.5" font-family="Helvetica,sans-Serif" font-size="10.00">CellSociety.updateColors</text>
</a>
</g>
</g>
<!-- Node5&#45;&gt;Node7 -->
<g id="edge6" class="edge"><title>Node5&#45;&gt;Node7</title>
<path fill="none" stroke="midnightblue" d="M724.101,-86C737.548,-86 751.95,-86 765.906,-86"/>
<polygon fill="midnightblue" stroke="midnightblue" points="765.97,-89.5001 775.97,-86 765.97,-82.5001 765.97,-89.5001"/>
</g>
<!-- Node9 -->
<g id="node9" class="node"><title>Node9</title>
<g id="a_node9"><a xlink:href="../../d2/d95/class_x_m_l_parser.html#ac4e3257aed1deb9fe950149f706fce5b" target="_top" xlink:title="XMLParser.getCellParamList">
<polygon fill="white" stroke="black" points="962.5,-49.5 962.5,-68.5 1111.5,-68.5 1111.5,-49.5 962.5,-49.5"/>
<text text-anchor="middle" x="1037" y="-56.5" font-family="Helvetica,sans-Serif" font-size="10.00">XMLParser.getCellParamList</text>
</a>
</g>
</g>
<!-- Node5&#45;&gt;Node9 -->
<g id="edge11" class="edge"><title>Node5&#45;&gt;Node9</title>
<path fill="none" stroke="midnightblue" d="M703.831,-76.4536C721.066,-72.8283 741.411,-69.0757 760,-67 824.247,-59.826 897.395,-57.9903 952.239,-57.8594"/>
<polygon fill="midnightblue" stroke="midnightblue" points="952.262,-61.3595 962.26,-57.8539 952.258,-54.3595 952.262,-61.3595"/>
</g>
<!-- Node10 -->
<g id="node10" class="node"><title>Node10</title>
<g id="a_node10"><a xlink:href="../../df/df8/class_cell_society_view.html#a43ac2666d3a002024be53fe74028a576" target="_top" xlink:title="CellSocietyView.updateSimGrid">
<polygon fill="white" stroke="black" points="760.5,-0.5 760.5,-19.5 925.5,-19.5 925.5,-0.5 760.5,-0.5"/>
<text text-anchor="middle" x="843" y="-7.5" font-family="Helvetica,sans-Serif" font-size="10.00">CellSocietyView.updateSimGrid</text>
</a>
</g>
</g>
<!-- Node5&#45;&gt;Node10 -->
<g id="edge9" class="edge"><title>Node5&#45;&gt;Node10</title>
<path fill="none" stroke="midnightblue" d="M678.639,-76.3022C697.413,-64.9742 730.114,-46.2295 760,-34 770.724,-29.6116 782.539,-25.6667 793.78,-22.3032"/>
<polygon fill="midnightblue" stroke="midnightblue" points="794.835,-25.6415 803.469,-19.5006 792.89,-18.9172 794.835,-25.6415"/>
</g>
<!-- Node12 -->
<g id="node12" class="node"><title>Node12</title>
<g id="a_node12"><a xlink:href="../../df/df8/class_cell_society_view.html#a7ca77bdfdef97e9be9c9941c2f4d3513" target="_top" xlink:title="CellSocietyView.updateChart\lLines">
<polygon fill="white" stroke="black" points="766.5,-115 766.5,-145 919.5,-145 919.5,-115 766.5,-115"/>
<text text-anchor="start" x="774.5" y="-133" font-family="Helvetica,sans-Serif" font-size="10.00">CellSocietyView.updateChart</text>
<text text-anchor="middle" x="843" y="-122" font-family="Helvetica,sans-Serif" font-size="10.00">Lines</text>
</a>
</g>
</g>
<!-- Node5&#45;&gt;Node12 -->
<g id="edge12" class="edge"><title>Node5&#45;&gt;Node12</title>
<path fill="none" stroke="midnightblue" d="M701.84,-95.5473C721.994,-100.501 747.257,-106.711 770.764,-112.49"/>
<polygon fill="midnightblue" stroke="midnightblue" points="770.165,-115.946 780.711,-114.935 771.836,-109.149 770.165,-115.946"/>
</g>
<!-- Node8 -->
<g id="node8" class="node"><title>Node8</title>
<g id="a_node8"><a xlink:href="../../dd/d11/class_cell.html#a7f8d2520a26a1376a44372149e561f6b" target="_top" xlink:title="Cell.toString">
<polygon fill="white" stroke="black" points="999.5,-109.5 999.5,-128.5 1074.5,-128.5 1074.5,-109.5 999.5,-109.5"/>
<text text-anchor="middle" x="1037" y="-116.5" font-family="Helvetica,sans-Serif" font-size="10.00">Cell.toString</text>
</a>
</g>
</g>
<!-- Node7&#45;&gt;Node8 -->
<g id="edge7" class="edge"><title>Node7&#45;&gt;Node8</title>
<path fill="none" stroke="midnightblue" d="M899.277,-95.5007C927.764,-100.397 962.125,-106.303 989.273,-110.969"/>
<polygon fill="midnightblue" stroke="midnightblue" points="988.849,-114.447 999.297,-112.692 990.035,-107.548 988.849,-114.447"/>
</g>
<!-- Node7&#45;&gt;Node9 -->
<g id="edge8" class="edge"><title>Node7&#45;&gt;Node9</title>
<path fill="none" stroke="midnightblue" d="M910.076,-76.7081C925.47,-74.5433 942.004,-72.2182 957.864,-69.9878"/>
<polygon fill="midnightblue" stroke="midnightblue" points="958.756,-73.397 968.171,-68.5385 957.781,-66.4652 958.756,-73.397"/>
</g>
<!-- Node11 -->
<g id="node11" class="node"><title>Node11</title>
<g id="a_node11"><a xlink:href="../../dd/d11/class_cell.html#adcdc17232ec0cff0752168e9846c39a8" target="_top" xlink:title="Cell.getShape">
<polygon fill="white" stroke="black" points="995.5,-0.5 995.5,-19.5 1078.5,-19.5 1078.5,-0.5 995.5,-0.5"/>
<text text-anchor="middle" x="1037" y="-7.5" font-family="Helvetica,sans-Serif" font-size="10.00">Cell.getShape</text>
</a>
</g>
</g>
<!-- Node10&#45;&gt;Node11 -->
<g id="edge10" class="edge"><title>Node10&#45;&gt;Node11</title>
<path fill="none" stroke="midnightblue" d="M925.704,-10C945.933,-10 967.029,-10 985.29,-10"/>
<polygon fill="midnightblue" stroke="midnightblue" points="985.401,-13.5001 995.401,-10 985.401,-6.5001 985.401,-13.5001"/>
</g>
<!-- Node12&#45;&gt;Node8 -->
<g id="edge13" class="edge"><title>Node12&#45;&gt;Node8</title>
<path fill="none" stroke="midnightblue" d="M919.608,-125.668C943.038,-124.326 968.168,-122.886 989.059,-121.689"/>
<polygon fill="midnightblue" stroke="midnightblue" points="989.473,-125.171 999.256,-121.105 989.072,-118.183 989.473,-125.171"/>
</g>
</g>
</svg>
