<?xml version="1.0" encoding="UTF-8" standalone="no"?>
<!DOCTYPE svg PUBLIC "-//W3C//DTD SVG 1.1//EN"
 "http://www.w3.org/Graphics/SVG/1.1/DTD/svg11.dtd">
<!-- Generated by graphviz version 2.36.0 (20140111.2315)
 -->
<!-- Title: CellSociety.reframeTimeline Pages: 1 -->
<svg width="920pt" height="154pt"
 viewBox="0.00 0.00 920.00 154.00" xmlns="http://www.w3.org/2000/svg" xmlns:xlink="http://www.w3.org/1999/xlink">
<g id="graph0" class="graph" transform="scale(1 1) rotate(0) translate(4 150)">
<title>CellSociety.reframeTimeline</title>
<polygon fill="white" stroke="none" points="-4,4 -4,-150 916,-150 916,4 -4,4"/>
<!-- Node1 -->
<g id="node1" class="node"><title>Node1</title>
<polygon fill="#bfbfbf" stroke="black" points="0.5,-65.5 0.5,-84.5 149.5,-84.5 149.5,-65.5 0.5,-65.5"/>
<text text-anchor="middle" x="75" y="-72.5" font-family="Helvetica,sans-Serif" font-size="10.00">CellSociety.reframeTimeline</text>
</g>
<!-- Node2 -->
<g id="node2" class="node"><title>Node2</title>
<g id="a_node2"><a xlink:href="../../df/df8/class_cell_society_view.html#a99eb733c00ed7c1bcba8f2d684791a09" target="_top" xlink:title="CellSocietyView.displayFrameRate">
<polygon fill="white" stroke="black" points="186,-84.5 186,-103.5 364,-103.5 364,-84.5 186,-84.5"/>
<text text-anchor="middle" x="275" y="-91.5" font-family="Helvetica,sans-Serif" font-size="10.00">CellSocietyView.displayFrameRate</text>
</a>
</g>
</g>
<!-- Node1&#45;&gt;Node2 -->
<g id="edge1" class="edge"><title>Node1&#45;&gt;Node2</title>
<path fill="none" stroke="midnightblue" d="M149.728,-82.0749C158.184,-82.8863 166.903,-83.723 175.616,-84.5591"/>
<polygon fill="midnightblue" stroke="midnightblue" points="175.537,-88.0675 185.825,-85.5388 176.206,-81.0995 175.537,-88.0675"/>
</g>
<!-- Node3 -->
<g id="node3" class="node"><title>Node3</title>
<g id="a_node3"><a xlink:href="../../d3/dff/class_cell_society.html#abf13a64ee79f2cb063447b499c695c58" target="_top" xlink:title="CellSociety.start">
<polygon fill="white" stroke="black" points="228.5,-46.5 228.5,-65.5 321.5,-65.5 321.5,-46.5 228.5,-46.5"/>
<text text-anchor="middle" x="275" y="-53.5" font-family="Helvetica,sans-Serif" font-size="10.00">CellSociety.start</text>
</a>
</g>
</g>
<!-- Node1&#45;&gt;Node3 -->
<g id="edge2" class="edge"><title>Node1&#45;&gt;Node3</title>
<path fill="none" stroke="midnightblue" d="M149.728,-67.9251C172.405,-65.749 196.978,-63.391 218.24,-61.3507"/>
<polygon fill="midnightblue" stroke="midnightblue" points="218.768,-64.8162 228.388,-60.3769 218.1,-57.8482 218.768,-64.8162"/>
</g>
<!-- Node4 -->
<g id="node4" class="node"><title>Node4</title>
<g id="a_node4"><a xlink:href="../../d3/dff/class_cell_society.html#a0ff19c30a1cc433d8ea8444f6a5617f1" target="_top" xlink:title="CellSociety.updateGrid">
<polygon fill="white" stroke="black" points="400,-46.5 400,-65.5 524,-65.5 524,-46.5 400,-46.5"/>
<text text-anchor="middle" x="462" y="-53.5" font-family="Helvetica,sans-Serif" font-size="10.00">CellSociety.updateGrid</text>
</a>
</g>
</g>
<!-- Node3&#45;&gt;Node4 -->
<g id="edge3" class="edge"><title>Node3&#45;&gt;Node4</title>
<path fill="none" stroke="midnightblue" d="M321.73,-56C342.236,-56 366.903,-56 389.743,-56"/>
<polygon fill="midnightblue" stroke="midnightblue" points="389.743,-59.5001 399.743,-56 389.743,-52.5001 389.743,-59.5001"/>
</g>
<!-- Node5 -->
<g id="node5" class="node"><title>Node5</title>
<g id="a_node5"><a xlink:href="../../d6/d6e/class_sim_controller.html#a10145cee2eaceb4ecad9396a825051d1" target="_top" xlink:title="SimController.runOneSim">
<polygon fill="white" stroke="black" points="574,-71.5 574,-90.5 712,-90.5 712,-71.5 574,-71.5"/>
<text text-anchor="middle" x="643" y="-78.5" font-family="Helvetica,sans-Serif" font-size="10.00">SimController.runOneSim</text>
</a>
</g>
</g>
<!-- Node4&#45;&gt;Node5 -->
<g id="edge4" class="edge"><title>Node4&#45;&gt;Node5</title>
<path fill="none" stroke="midnightblue" d="M524.101,-64.5337C536.853,-66.3146 550.462,-68.2154 563.737,-70.0694"/>
<polygon fill="midnightblue" stroke="midnightblue" points="563.415,-73.5584 573.803,-71.4753 564.383,-66.6256 563.415,-73.5584"/>
</g>
<!-- Node9 -->
<g id="node9" class="node"><title>Node9</title>
<g id="a_node9"><a xlink:href="../../df/df8/class_cell_society_view.html#a43ac2666d3a002024be53fe74028a576" target="_top" xlink:title="CellSocietyView.updateSimGrid">
<polygon fill="white" stroke="black" points="560.5,-22.5 560.5,-41.5 725.5,-41.5 725.5,-22.5 560.5,-22.5"/>
<text text-anchor="middle" x="643" y="-29.5" font-family="Helvetica,sans-Serif" font-size="10.00">CellSocietyView.updateSimGrid</text>
</a>
</g>
</g>
<!-- Node4&#45;&gt;Node9 -->
<g id="edge8" class="edge"><title>Node4&#45;&gt;Node9</title>
<path fill="none" stroke="midnightblue" d="M524.101,-47.8077C535.891,-46.227 548.413,-44.5479 560.727,-42.8969"/>
<polygon fill="midnightblue" stroke="midnightblue" points="561.554,-46.3174 571,-41.5195 560.624,-39.3795 561.554,-46.3174"/>
</g>
<!-- Node6 -->
<g id="node6" class="node"><title>Node6</title>
<g id="a_node6"><a xlink:href="../../dd/ddd/class_neighbor.html#ac769186595af20512a2ec4754db75640" target="_top" xlink:title="Neighbor.getNeighbors">
<polygon fill="white" stroke="black" points="773.5,-126.5 773.5,-145.5 900.5,-145.5 900.5,-126.5 773.5,-126.5"/>
<text text-anchor="middle" x="837" y="-133.5" font-family="Helvetica,sans-Serif" font-size="10.00">Neighbor.getNeighbors</text>
</a>
</g>
</g>
<!-- Node5&#45;&gt;Node6 -->
<g id="edge5" class="edge"><title>Node5&#45;&gt;Node6</title>
<path fill="none" stroke="midnightblue" d="M675.492,-90.568C699.227,-97.7239 732.601,-107.669 762,-116 771.027,-118.558 780.694,-121.224 789.964,-123.744"/>
<polygon fill="midnightblue" stroke="midnightblue" points="789.251,-127.177 799.818,-126.41 791.079,-120.42 789.251,-127.177"/>
</g>
<!-- Node7 -->
<g id="node7" class="node"><title>Node7</title>
<g id="a_node7"><a xlink:href="../../d6/d6e/class_sim_controller.html#a1538c5c647988e5d5b6602c8eb1b8949" target="_top" xlink:title="SimController.getNeighbors\lState">
<polygon fill="white" stroke="black" points="762.5,-77 762.5,-107 911.5,-107 911.5,-77 762.5,-77"/>
<text text-anchor="start" x="770.5" y="-95" font-family="Helvetica,sans-Serif" font-size="10.00">SimController.getNeighbors</text>
<text text-anchor="middle" x="837" y="-84" font-family="Helvetica,sans-Serif" font-size="10.00">State</text>
</a>
</g>
</g>
<!-- Node5&#45;&gt;Node7 -->
<g id="edge6" class="edge"><title>Node5&#45;&gt;Node7</title>
<path fill="none" stroke="midnightblue" d="M712.233,-84.9092C725.202,-85.6522 738.912,-86.4377 752.297,-87.2045"/>
<polygon fill="midnightblue" stroke="midnightblue" points="752.268,-90.7085 762.452,-87.7863 752.669,-83.72 752.268,-90.7085"/>
</g>
<!-- Node8 -->
<g id="node8" class="node"><title>Node8</title>
<g id="a_node8"><a xlink:href="../../d6/d6e/class_sim_controller.html#a6b7a166a6fd312895c8356d24de980e3" target="_top" xlink:title="SimController.newState">
<polygon fill="white" stroke="black" points="772.5,-38.5 772.5,-57.5 901.5,-57.5 901.5,-38.5 772.5,-38.5"/>
<text text-anchor="middle" x="837" y="-45.5" font-family="Helvetica,sans-Serif" font-size="10.00">SimController.newState</text>
</a>
</g>
</g>
<!-- Node5&#45;&gt;Node8 -->
<g id="edge7" class="edge"><title>Node5&#45;&gt;Node8</title>
<path fill="none" stroke="midnightblue" d="M699.277,-71.4993C721.472,-67.6845 747.233,-63.2569 770.369,-59.2802"/>
<polygon fill="midnightblue" stroke="midnightblue" points="771.186,-62.6913 780.449,-57.5479 770,-55.7925 771.186,-62.6913"/>
</g>
<!-- Node10 -->
<g id="node10" class="node"><title>Node10</title>
<g id="a_node10"><a xlink:href="../../dd/d11/class_cell.html#a1e0ece61fecc69a9b7986d17d925434a" target="_top" xlink:title="Cell.getShape">
<polygon fill="white" stroke="black" points="795.5,-0.5 795.5,-19.5 878.5,-19.5 878.5,-0.5 795.5,-0.5"/>
<text text-anchor="middle" x="837" y="-7.5" font-family="Helvetica,sans-Serif" font-size="10.00">Cell.getShape</text>
</a>
</g>
</g>
<!-- Node9&#45;&gt;Node10 -->
<g id="edge9" class="edge"><title>Node9&#45;&gt;Node10</title>
<path fill="none" stroke="midnightblue" d="M725.704,-22.6381C745.933,-20.3201 767.029,-17.9029 785.29,-15.8106"/>
<polygon fill="midnightblue" stroke="midnightblue" points="785.864,-19.2677 795.401,-14.652 785.067,-12.3132 785.864,-19.2677"/>
</g>
</g>
</svg>
