<?xml version="1.0" encoding="UTF-8" standalone="no"?>
<!DOCTYPE svg PUBLIC "-//W3C//DTD SVG 1.1//EN"
 "http://www.w3.org/Graphics/SVG/1.1/DTD/svg11.dtd">
<!-- Generated by graphviz version 2.36.0 (20140111.2315)
 -->
<!-- Title: CellSociety.CellSociety Pages: 1 -->
<svg width="1554pt" height="560pt"
 viewBox="0.00 0.00 1554.00 560.00" xmlns="http://www.w3.org/2000/svg" xmlns:xlink="http://www.w3.org/1999/xlink">
<g id="graph0" class="graph" transform="scale(1 1) rotate(0) translate(4 556)">
<title>CellSociety.CellSociety</title>
<polygon fill="white" stroke="none" points="-4,4 -4,-556 1550,-556 1550,4 -4,4"/>
<!-- Node1 -->
<g id="node1" class="node"><title>Node1</title>
<polygon fill="#bfbfbf" stroke="black" points="0.5,-323.5 0.5,-342.5 123.5,-342.5 123.5,-323.5 0.5,-323.5"/>
<text text-anchor="middle" x="62" y="-330.5" font-family="Helvetica,sans-Serif" font-size="10.00">CellSociety.CellSociety</text>
</g>
<!-- Node2 -->
<g id="node2" class="node"><title>Node2</title>
<g id="a_node2"><a xlink:href="../../d3/dff/class_cell_society.html#a656ff46d1459fb7f86b42e3c542506ee" target="_top" xlink:title="CellSociety.configureListeners">
<polygon fill="white" stroke="black" points="160,-323.5 160,-342.5 318,-342.5 318,-323.5 160,-323.5"/>
<text text-anchor="middle" x="239" y="-330.5" font-family="Helvetica,sans-Serif" font-size="10.00">CellSociety.configureListeners</text>
</a>
</g>
</g>
<!-- Node1&#45;&gt;Node2 -->
<g id="edge1" class="edge"><title>Node1&#45;&gt;Node2</title>
<path fill="none" stroke="midnightblue" d="M123.715,-333C132.088,-333 140.823,-333 149.57,-333"/>
<polygon fill="midnightblue" stroke="midnightblue" points="149.823,-336.5 159.823,-333 149.823,-329.5 149.823,-336.5"/>
</g>
<!-- Node3 -->
<g id="node3" class="node"><title>Node3</title>
<g id="a_node3"><a xlink:href="../../df/df8/class_cell_society_view.html#aae7c36ea6b5215b0ba9ee01c72dfcb94" target="_top" xlink:title="CellSocietyView.getPlayElement">
<polygon fill="white" stroke="black" points="356,-532.5 356,-551.5 524,-551.5 524,-532.5 356,-532.5"/>
<text text-anchor="middle" x="440" y="-539.5" font-family="Helvetica,sans-Serif" font-size="10.00">CellSocietyView.getPlayElement</text>
</a>
</g>
</g>
<!-- Node2&#45;&gt;Node3 -->
<g id="edge2" class="edge"><title>Node2&#45;&gt;Node3</title>
<path fill="none" stroke="midnightblue" d="M243.141,-342.806C253.539,-373.659 289.877,-469.57 354,-518 359.805,-522.384 366.376,-525.967 373.232,-528.896"/>
<polygon fill="midnightblue" stroke="midnightblue" points="372.12,-532.218 382.711,-532.498 374.607,-525.674 372.12,-532.218"/>
</g>
<!-- Node4 -->
<g id="node4" class="node"><title>Node4</title>
<g id="a_node4"><a xlink:href="../../d3/dff/class_cell_society.html#a6a4056cd40e4162583f2b9845b77a191" target="_top" xlink:title="CellSociety.resumeAnimation">
<polygon fill="white" stroke="black" points="577,-494.5 577,-513.5 733,-513.5 733,-494.5 577,-494.5"/>
<text text-anchor="middle" x="655" y="-501.5" font-family="Helvetica,sans-Serif" font-size="10.00">CellSociety.resumeAnimation</text>
</a>
</g>
</g>
<!-- Node2&#45;&gt;Node4 -->
<g id="edge3" class="edge"><title>Node2&#45;&gt;Node4</title>
<path fill="none" stroke="midnightblue" d="M244.496,-342.575C257.321,-368.673 296.878,-441.158 354,-472 419.161,-507.183 503.849,-513.265 566.621,-511.658"/>
<polygon fill="midnightblue" stroke="midnightblue" points="567.014,-515.148 576.894,-511.322 566.785,-508.151 567.014,-515.148"/>
</g>
<!-- Node6 -->
<g id="node6" class="node"><title>Node6</title>
<g id="a_node6"><a xlink:href="../../df/df8/class_cell_society_view.html#ada088eb9125561f8dd941badb141fa86" target="_top" xlink:title="CellSocietyView.getPause\lElement">
<polygon fill="white" stroke="black" points="371.5,-255 371.5,-285 508.5,-285 508.5,-255 371.5,-255"/>
<text text-anchor="start" x="379.5" y="-273" font-family="Helvetica,sans-Serif" font-size="10.00">CellSocietyView.getPause</text>
<text text-anchor="middle" x="440" y="-262" font-family="Helvetica,sans-Serif" font-size="10.00">Element</text>
</a>
</g>
</g>
<!-- Node2&#45;&gt;Node6 -->
<g id="edge5" class="edge"><title>Node2&#45;&gt;Node6</title>
<path fill="none" stroke="midnightblue" d="M268.019,-323.35C291.04,-315.497 324.539,-304.24 354,-295 361.43,-292.67 369.246,-290.283 377.004,-287.954"/>
<polygon fill="midnightblue" stroke="midnightblue" points="378.184,-291.255 386.766,-285.043 376.183,-284.547 378.184,-291.255"/>
</g>
<!-- Node7 -->
<g id="node7" class="node"><title>Node7</title>
<g id="a_node7"><a xlink:href="../../d3/dff/class_cell_society.html#ae565a305ea53e5a37da9816a236b4fbc" target="_top" xlink:title="CellSociety.pauseAnimation">
<polygon fill="white" stroke="black" points="580.5,-456.5 580.5,-475.5 729.5,-475.5 729.5,-456.5 580.5,-456.5"/>
<text text-anchor="middle" x="655" y="-463.5" font-family="Helvetica,sans-Serif" font-size="10.00">CellSociety.pauseAnimation</text>
</a>
</g>
</g>
<!-- Node2&#45;&gt;Node7 -->
<g id="edge6" class="edge"><title>Node2&#45;&gt;Node7</title>
<path fill="none" stroke="midnightblue" d="M246.57,-342.814C262.142,-365.131 303.776,-419.487 354,-442 422.198,-472.57 507.843,-476.472 570.148,-473.962"/>
<polygon fill="midnightblue" stroke="midnightblue" points="570.503,-477.449 580.329,-473.487 570.177,-470.457 570.503,-477.449"/>
</g>
<!-- Node8 -->
<g id="node8" class="node"><title>Node8</title>
<g id="a_node8"><a xlink:href="../../df/df8/class_cell_society_view.html#a3c3a7039f77d392c374cd309967ca1cc" target="_top" xlink:title="CellSocietyView.getStepElement">
<polygon fill="white" stroke="black" points="354.5,-216.5 354.5,-235.5 525.5,-235.5 525.5,-216.5 354.5,-216.5"/>
<text text-anchor="middle" x="440" y="-223.5" font-family="Helvetica,sans-Serif" font-size="10.00">CellSocietyView.getStepElement</text>
</a>
</g>
</g>
<!-- Node2&#45;&gt;Node8 -->
<g id="edge8" class="edge"><title>Node2&#45;&gt;Node8</title>
<path fill="none" stroke="midnightblue" d="M249.709,-323.236C268.266,-305.15 310.782,-266.425 354,-246 360.17,-243.084 366.798,-240.575 373.533,-238.421"/>
<polygon fill="midnightblue" stroke="midnightblue" points="374.828,-241.688 383.435,-235.511 372.854,-234.972 374.828,-241.688"/>
</g>
<!-- Node9 -->
<g id="node9" class="node"><title>Node9</title>
<g id="a_node9"><a xlink:href="../../d3/dff/class_cell_society.html#a0ff19c30a1cc433d8ea8444f6a5617f1" target="_top" xlink:title="CellSociety.updateGrid">
<polygon fill="white" stroke="black" points="1016,-361.5 1016,-380.5 1140,-380.5 1140,-361.5 1016,-361.5"/>
<text text-anchor="middle" x="1078" y="-368.5" font-family="Helvetica,sans-Serif" font-size="10.00">CellSociety.updateGrid</text>
</a>
</g>
</g>
<!-- Node2&#45;&gt;Node9 -->
<g id="edge9" class="edge"><title>Node2&#45;&gt;Node9</title>
<path fill="none" stroke="midnightblue" d="M249.906,-342.664C268.46,-360.008 310.517,-395.834 354,-409 602.442,-484.222 920.556,-413.35 1034.25,-383.142"/>
<polygon fill="midnightblue" stroke="midnightblue" points="1035.23,-386.502 1043.98,-380.523 1033.41,-379.743 1035.23,-386.502"/>
</g>
<!-- Node16 -->
<g id="node16" class="node"><title>Node16</title>
<g id="a_node16"><a xlink:href="../../df/df8/class_cell_society_view.html#aebad9aaff0e9784fec1518d319e03c85" target="_top" xlink:title="CellSocietyView.getXMLElement">
<polygon fill="white" stroke="black" points="356,-178.5 356,-197.5 524,-197.5 524,-178.5 356,-178.5"/>
<text text-anchor="middle" x="440" y="-185.5" font-family="Helvetica,sans-Serif" font-size="10.00">CellSocietyView.getXMLElement</text>
</a>
</g>
</g>
<!-- Node2&#45;&gt;Node16 -->
<g id="edge16" class="edge"><title>Node2&#45;&gt;Node16</title>
<path fill="none" stroke="midnightblue" d="M245.764,-323.266C260.486,-299.32 302.005,-237.3 354,-207 357.852,-204.755 361.944,-202.776 366.17,-201.03"/>
<polygon fill="midnightblue" stroke="midnightblue" points="367.414,-204.302 375.594,-197.569 365.001,-197.731 367.414,-204.302"/>
</g>
<!-- Node17 -->
<g id="node17" class="node"><title>Node17</title>
<g id="a_node17"><a xlink:href="../../d3/dff/class_cell_society.html#af9f22af39a97a58b26126020ca6c8844" target="_top" xlink:title="CellSociety.readNewXML">
<polygon fill="white" stroke="black" points="374,-304.5 374,-323.5 506,-323.5 506,-304.5 374,-304.5"/>
<text text-anchor="middle" x="440" y="-311.5" font-family="Helvetica,sans-Serif" font-size="10.00">CellSociety.readNewXML</text>
</a>
</g>
</g>
<!-- Node2&#45;&gt;Node17 -->
<g id="edge17" class="edge"><title>Node2&#45;&gt;Node17</title>
<path fill="none" stroke="midnightblue" d="M318.079,-325.545C333.119,-324.109 348.845,-322.608 363.792,-321.181"/>
<polygon fill="midnightblue" stroke="midnightblue" points="364.375,-324.641 373.997,-320.206 363.71,-317.673 364.375,-324.641"/>
</g>
<!-- Node34 -->
<g id="node34" class="node"><title>Node34</title>
<g id="a_node34"><a xlink:href="../../df/df8/class_cell_society_view.html#a572d464cbe7d186dc9a5b0e4a8130689" target="_top" xlink:title="CellSocietyView.getSpeedup\lElement">
<polygon fill="white" stroke="black" points="364,-129 364,-159 516,-159 516,-129 364,-129"/>
<text text-anchor="start" x="372" y="-147" font-family="Helvetica,sans-Serif" font-size="10.00">CellSocietyView.getSpeedup</text>
<text text-anchor="middle" x="440" y="-136" font-family="Helvetica,sans-Serif" font-size="10.00">Element</text>
</a>
</g>
</g>
<!-- Node2&#45;&gt;Node34 -->
<g id="edge39" class="edge"><title>Node2&#45;&gt;Node34</title>
<path fill="none" stroke="midnightblue" d="M243.998,-323.143C256.061,-294.663 294.934,-211.588 354,-169 356.683,-167.066 359.514,-165.28 362.451,-163.632"/>
<polygon fill="midnightblue" stroke="midnightblue" points="364.155,-166.693 371.531,-159.087 361.022,-160.433 364.155,-166.693"/>
</g>
<!-- Node35 -->
<g id="node35" class="node"><title>Node35</title>
<g id="a_node35"><a xlink:href="../../d3/dff/class_cell_society.html#a8250bfacdaf51dabf6b9d1cafc0ce9b2" target="_top" xlink:title="CellSociety.increaseFrameRate">
<polygon fill="white" stroke="black" points="358.5,-380.5 358.5,-399.5 521.5,-399.5 521.5,-380.5 358.5,-380.5"/>
<text text-anchor="middle" x="440" y="-387.5" font-family="Helvetica,sans-Serif" font-size="10.00">CellSociety.increaseFrameRate</text>
</a>
</g>
</g>
<!-- Node2&#45;&gt;Node35 -->
<g id="edge40" class="edge"><title>Node2&#45;&gt;Node35</title>
<path fill="none" stroke="midnightblue" d="M266.028,-342.518C288.985,-350.711 323.445,-362.516 354,-371 363.192,-373.552 373.015,-376 382.6,-378.241"/>
<polygon fill="midnightblue" stroke="midnightblue" points="381.938,-381.679 392.467,-380.496 383.498,-374.855 381.938,-381.679"/>
</g>
<!-- Node37 -->
<g id="node37" class="node"><title>Node37</title>
<g id="a_node37"><a xlink:href="../../df/df8/class_cell_society_view.html#a0f616a01579a7293ef781d3e341ea1ac" target="_top" xlink:title="CellSocietyView.getSlowdown\lElement">
<polygon fill="white" stroke="black" points="362.5,-80 362.5,-110 517.5,-110 517.5,-80 362.5,-80"/>
<text text-anchor="start" x="370.5" y="-98" font-family="Helvetica,sans-Serif" font-size="10.00">CellSocietyView.getSlowdown</text>
<text text-anchor="middle" x="440" y="-87" font-family="Helvetica,sans-Serif" font-size="10.00">Element</text>
</a>
</g>
</g>
<!-- Node2&#45;&gt;Node37 -->
<g id="edge44" class="edge"><title>Node2&#45;&gt;Node37</title>
<path fill="none" stroke="midnightblue" d="M242.294,-323.137C250.716,-289.178 283.198,-176.051 354,-119 355.612,-117.701 357.29,-116.473 359.023,-115.31"/>
<polygon fill="midnightblue" stroke="midnightblue" points="361.208,-118.089 368.093,-110.036 357.689,-112.037 361.208,-118.089"/>
</g>
<!-- Node38 -->
<g id="node38" class="node"><title>Node38</title>
<g id="a_node38"><a xlink:href="../../d3/dff/class_cell_society.html#a045267ba1843ca4a47891d7be73c2ac1" target="_top" xlink:title="CellSociety.decreaseFrameRate">
<polygon fill="white" stroke="black" points="356.5,-342.5 356.5,-361.5 523.5,-361.5 523.5,-342.5 356.5,-342.5"/>
<text text-anchor="middle" x="440" y="-349.5" font-family="Helvetica,sans-Serif" font-size="10.00">CellSociety.decreaseFrameRate</text>
</a>
</g>
</g>
<!-- Node2&#45;&gt;Node38 -->
<g id="edge45" class="edge"><title>Node2&#45;&gt;Node38</title>
<path fill="none" stroke="midnightblue" d="M318.079,-340.455C327.275,-341.333 336.727,-342.235 346.101,-343.13"/>
<polygon fill="midnightblue" stroke="midnightblue" points="345.938,-346.631 356.226,-344.097 346.604,-339.662 345.938,-346.631"/>
</g>
<!-- Node5 -->
<g id="node5" class="node"><title>Node5</title>
<g id="a_node5"><a xlink:href="../../df/df8/class_cell_society_view.html#ae83511f9bf3610b0750d41c4aeb0f778" target="_top" xlink:title="CellSocietyView.setButtons\lPause">
<polygon fill="white" stroke="black" points="800,-473 800,-503 946,-503 946,-473 800,-473"/>
<text text-anchor="start" x="808" y="-491" font-family="Helvetica,sans-Serif" font-size="10.00">CellSocietyView.setButtons</text>
<text text-anchor="middle" x="873" y="-480" font-family="Helvetica,sans-Serif" font-size="10.00">Pause</text>
</a>
</g>
</g>
<!-- Node4&#45;&gt;Node5 -->
<g id="edge4" class="edge"><title>Node4&#45;&gt;Node5</title>
<path fill="none" stroke="midnightblue" d="M733.066,-498.291C751.365,-496.936 770.957,-495.485 789.487,-494.112"/>
<polygon fill="midnightblue" stroke="midnightblue" points="789.944,-497.588 799.658,-493.359 789.427,-490.607 789.944,-497.588"/>
</g>
<!-- Node7&#45;&gt;Node5 -->
<g id="edge7" class="edge"><title>Node7&#45;&gt;Node5</title>
<path fill="none" stroke="midnightblue" d="M729.731,-473.51C748.984,-475.471 769.859,-477.597 789.534,-479.601"/>
<polygon fill="midnightblue" stroke="midnightblue" points="789.395,-483.105 799.699,-480.636 790.105,-476.141 789.395,-483.105"/>
</g>
<!-- Node10 -->
<g id="node10" class="node"><title>Node10</title>
<g id="a_node10"><a xlink:href="../../d6/d6e/class_sim_controller.html#a10145cee2eaceb4ecad9396a825051d1" target="_top" xlink:title="SimController.runOneSim">
<polygon fill="white" stroke="black" points="1208,-361.5 1208,-380.5 1346,-380.5 1346,-361.5 1208,-361.5"/>
<text text-anchor="middle" x="1277" y="-368.5" font-family="Helvetica,sans-Serif" font-size="10.00">SimController.runOneSim</text>
</a>
</g>
</g>
<!-- Node9&#45;&gt;Node10 -->
<g id="edge10" class="edge"><title>Node9&#45;&gt;Node10</title>
<path fill="none" stroke="midnightblue" d="M1140.25,-371C1158.44,-371 1178.62,-371 1197.74,-371"/>
<polygon fill="midnightblue" stroke="midnightblue" points="1197.92,-374.5 1207.92,-371 1197.92,-367.5 1197.92,-374.5"/>
</g>
<!-- Node14 -->
<g id="node14" class="node"><title>Node14</title>
<g id="a_node14"><a xlink:href="../../df/df8/class_cell_society_view.html#a43ac2666d3a002024be53fe74028a576" target="_top" xlink:title="CellSocietyView.updateSimGrid">
<polygon fill="white" stroke="black" points="1194.5,-178.5 1194.5,-197.5 1359.5,-197.5 1359.5,-178.5 1194.5,-178.5"/>
<text text-anchor="middle" x="1277" y="-185.5" font-family="Helvetica,sans-Serif" font-size="10.00">CellSocietyView.updateSimGrid</text>
</a>
</g>
</g>
<!-- Node9&#45;&gt;Node14 -->
<g id="edge14" class="edge"><title>Node9&#45;&gt;Node14</title>
<path fill="none" stroke="midnightblue" d="M1089.31,-361.419C1121.01,-331.971 1217.31,-242.518 1257.78,-204.925"/>
<polygon fill="midnightblue" stroke="midnightblue" points="1260.37,-207.3 1265.31,-197.93 1255.6,-202.172 1260.37,-207.3"/>
</g>
<!-- Node11 -->
<g id="node11" class="node"><title>Node11</title>
<g id="a_node11"><a xlink:href="../../dd/ddd/class_neighbor.html#ac769186595af20512a2ec4754db75640" target="_top" xlink:title="Neighbor.getNeighbors">
<polygon fill="white" stroke="black" points="1407.5,-405.5 1407.5,-424.5 1534.5,-424.5 1534.5,-405.5 1407.5,-405.5"/>
<text text-anchor="middle" x="1471" y="-412.5" font-family="Helvetica,sans-Serif" font-size="10.00">Neighbor.getNeighbors</text>
</a>
</g>
</g>
<!-- Node10&#45;&gt;Node11 -->
<g id="edge11" class="edge"><title>Node10&#45;&gt;Node11</title>
<path fill="none" stroke="midnightblue" d="M1319.66,-380.547C1348.72,-387.207 1387.69,-396.136 1418.67,-403.236"/>
<polygon fill="midnightblue" stroke="midnightblue" points="1417.89,-406.649 1428.42,-405.471 1419.45,-399.826 1417.89,-406.649"/>
</g>
<!-- Node12 -->
<g id="node12" class="node"><title>Node12</title>
<g id="a_node12"><a xlink:href="../../d6/d6e/class_sim_controller.html#a1538c5c647988e5d5b6602c8eb1b8949" target="_top" xlink:title="SimController.getNeighbors\lState">
<polygon fill="white" stroke="black" points="1396.5,-356 1396.5,-386 1545.5,-386 1545.5,-356 1396.5,-356"/>
<text text-anchor="start" x="1404.5" y="-374" font-family="Helvetica,sans-Serif" font-size="10.00">SimController.getNeighbors</text>
<text text-anchor="middle" x="1471" y="-363" font-family="Helvetica,sans-Serif" font-size="10.00">State</text>
</a>
</g>
</g>
<!-- Node10&#45;&gt;Node12 -->
<g id="edge12" class="edge"><title>Node10&#45;&gt;Node12</title>
<path fill="none" stroke="midnightblue" d="M1346.23,-371C1359.2,-371 1372.91,-371 1386.3,-371"/>
<polygon fill="midnightblue" stroke="midnightblue" points="1386.45,-374.5 1396.45,-371 1386.45,-367.5 1386.45,-374.5"/>
</g>
<!-- Node13 -->
<g id="node13" class="node"><title>Node13</title>
<g id="a_node13"><a xlink:href="../../d6/d6e/class_sim_controller.html#a6b7a166a6fd312895c8356d24de980e3" target="_top" xlink:title="SimController.newState">
<polygon fill="white" stroke="black" points="1406.5,-317.5 1406.5,-336.5 1535.5,-336.5 1535.5,-317.5 1406.5,-317.5"/>
<text text-anchor="middle" x="1471" y="-324.5" font-family="Helvetica,sans-Serif" font-size="10.00">SimController.newState</text>
</a>
</g>
</g>
<!-- Node10&#45;&gt;Node13 -->
<g id="edge13" class="edge"><title>Node10&#45;&gt;Node13</title>
<path fill="none" stroke="midnightblue" d="M1319.66,-361.453C1348.72,-354.793 1387.69,-345.864 1418.67,-338.764"/>
<polygon fill="midnightblue" stroke="midnightblue" points="1419.45,-342.174 1428.42,-336.529 1417.89,-335.351 1419.45,-342.174"/>
</g>
<!-- Node15 -->
<g id="node15" class="node"><title>Node15</title>
<g id="a_node15"><a xlink:href="../../dd/d11/class_cell.html#a1e0ece61fecc69a9b7986d17d925434a" target="_top" xlink:title="Cell.getShape">
<polygon fill="white" stroke="black" points="1429.5,-178.5 1429.5,-197.5 1512.5,-197.5 1512.5,-178.5 1429.5,-178.5"/>
<text text-anchor="middle" x="1471" y="-185.5" font-family="Helvetica,sans-Serif" font-size="10.00">Cell.getShape</text>
</a>
</g>
</g>
<!-- Node14&#45;&gt;Node15 -->
<g id="edge15" class="edge"><title>Node14&#45;&gt;Node15</title>
<path fill="none" stroke="midnightblue" d="M1359.7,-188C1379.93,-188 1401.03,-188 1419.29,-188"/>
<polygon fill="midnightblue" stroke="midnightblue" points="1419.4,-191.5 1429.4,-188 1419.4,-184.5 1419.4,-191.5"/>
</g>
<!-- Node17&#45;&gt;Node7 -->
<g id="edge37" class="edge"><title>Node17&#45;&gt;Node7</title>
<path fill="none" stroke="midnightblue" d="M506.065,-321.94C513.252,-324.68 520.093,-328.28 526,-333 555.199,-356.332 537.096,-381.13 562,-409 578.569,-427.542 602.594,-442.147 621.938,-451.929"/>
<polygon fill="midnightblue" stroke="midnightblue" points="620.482,-455.113 631.005,-456.34 623.544,-448.818 620.482,-455.113"/>
</g>
<!-- Node17&#45;&gt;Node14 -->
<g id="edge36" class="edge"><title>Node17&#45;&gt;Node14</title>
<path fill="none" stroke="midnightblue" d="M506.093,-307.161C513.542,-304.059 520.442,-299.802 526,-294 585.155,-232.253 496.121,-159.515 562,-105 630.482,-48.3307 873.852,-93.5466 962,-105 1064.6,-118.331 1181.43,-155.19 1239.38,-175.002"/>
<polygon fill="midnightblue" stroke="midnightblue" points="1238.58,-178.426 1249.17,-178.378 1240.86,-171.808 1238.58,-178.426"/>
</g>
<!-- Node18 -->
<g id="node18" class="node"><title>Node18</title>
<g id="a_node18"><a xlink:href="../../df/df8/class_cell_society_view.html#a053b6ef6afa80722445223c4e373e51c" target="_top" xlink:title="CellSocietyView.displayXMLChooser">
<polygon fill="white" stroke="black" points="562.5,-114.5 562.5,-133.5 747.5,-133.5 747.5,-114.5 562.5,-114.5"/>
<text text-anchor="middle" x="655" y="-121.5" font-family="Helvetica,sans-Serif" font-size="10.00">CellSocietyView.displayXMLChooser</text>
</a>
</g>
</g>
<!-- Node17&#45;&gt;Node18 -->
<g id="edge18" class="edge"><title>Node17&#45;&gt;Node18</title>
<path fill="none" stroke="midnightblue" d="M506.269,-306.744C513.596,-303.696 520.418,-299.566 526,-294 574.857,-245.287 512.48,-191.038 562,-143 563.449,-141.595 564.972,-140.281 566.56,-139.053"/>
<polygon fill="midnightblue" stroke="midnightblue" points="568.49,-141.973 574.986,-133.604 564.688,-136.095 568.49,-141.973"/>
</g>
<!-- Node19 -->
<g id="node19" class="node"><title>Node19</title>
<g id="a_node19"><a xlink:href="../../d2/d95/class_x_m_l_parser.html#a77ee23818c822b69cdf4200eef726a61" target="_top" xlink:title="XMLParser.parseXMLFile">
<polygon fill="white" stroke="black" points="590,-38.5 590,-57.5 720,-57.5 720,-38.5 590,-38.5"/>
<text text-anchor="middle" x="655" y="-45.5" font-family="Helvetica,sans-Serif" font-size="10.00">XMLParser.parseXMLFile</text>
</a>
</g>
</g>
<!-- Node17&#45;&gt;Node19 -->
<g id="edge19" class="edge"><title>Node17&#45;&gt;Node19</title>
<path fill="none" stroke="midnightblue" d="M506.245,-307.304C513.669,-304.179 520.522,-299.878 526,-294 594.151,-220.88 494.735,-145.936 562,-72 567.117,-66.3758 573.371,-61.9986 580.187,-58.6016"/>
<polygon fill="midnightblue" stroke="midnightblue" points="581.926,-61.6667 589.776,-54.552 579.202,-55.2181 581.926,-61.6667"/>
</g>
<!-- Node23 -->
<g id="node23" class="node"><title>Node23</title>
<g id="a_node23"><a xlink:href="../../d3/dff/class_cell_society.html#abfbf43ce46b4c82c16a2d933b6a11abf" target="_top" xlink:title="CellSociety.retrieveParserInfo">
<polygon fill="white" stroke="black" points="577.5,-228.5 577.5,-247.5 732.5,-247.5 732.5,-228.5 577.5,-228.5"/>
<text text-anchor="middle" x="655" y="-235.5" font-family="Helvetica,sans-Serif" font-size="10.00">CellSociety.retrieveParserInfo</text>
</a>
</g>
</g>
<!-- Node17&#45;&gt;Node23 -->
<g id="edge23" class="edge"><title>Node17&#45;&gt;Node23</title>
<path fill="none" stroke="midnightblue" d="M501.156,-304.388C509.8,-301.727 518.348,-298.331 526,-294 545.967,-282.697 541.88,-268.028 562,-257 566.161,-254.719 570.564,-252.712 575.102,-250.945"/>
<polygon fill="midnightblue" stroke="midnightblue" points="576.277,-254.241 584.567,-247.644 573.972,-247.632 576.277,-254.241"/>
</g>
<!-- Node24 -->
<g id="node24" class="node"><title>Node24</title>
<g id="a_node24"><a xlink:href="../../d2/d95/class_x_m_l_parser.html#aea9b535964c91fa3c3d2b1c0b6a334c2" target="_top" xlink:title="XMLParser.getInitParamMap">
<polygon fill="white" stroke="black" points="798.5,-228.5 798.5,-247.5 947.5,-247.5 947.5,-228.5 798.5,-228.5"/>
<text text-anchor="middle" x="873" y="-235.5" font-family="Helvetica,sans-Serif" font-size="10.00">XMLParser.getInitParamMap</text>
</a>
</g>
</g>
<!-- Node17&#45;&gt;Node24 -->
<g id="edge27" class="edge"><title>Node17&#45;&gt;Node24</title>
<path fill="none" stroke="midnightblue" d="M506.064,-305.217C513.25,-302.407 520.093,-298.75 526,-294 554.816,-270.832 530.705,-238.692 562,-219 602.564,-193.475 736.275,-212.562 814.209,-226.611"/>
<polygon fill="midnightblue" stroke="midnightblue" points="813.888,-230.11 824.355,-228.468 815.149,-223.224 813.888,-230.11"/>
</g>
<!-- Node26 -->
<g id="node26" class="node"><title>Node26</title>
<g id="a_node26"><a xlink:href="../../dd/d11/class_cell.html#a7157b57f4ff263ea68e1ff5fc424176e" target="_top" xlink:title="Cell.setCellSize">
<polygon fill="white" stroke="black" points="610.5,-266.5 610.5,-285.5 699.5,-285.5 699.5,-266.5 610.5,-266.5"/>
<text text-anchor="middle" x="655" y="-273.5" font-family="Helvetica,sans-Serif" font-size="10.00">Cell.setCellSize</text>
</a>
</g>
</g>
<!-- Node17&#45;&gt;Node26 -->
<g id="edge26" class="edge"><title>Node17&#45;&gt;Node26</title>
<path fill="none" stroke="midnightblue" d="M494.474,-304.46C526.721,-298.707 567.677,-291.4 600.015,-285.631"/>
<polygon fill="midnightblue" stroke="midnightblue" points="600.96,-289.018 610.19,-283.816 599.731,-282.127 600.96,-289.018"/>
</g>
<!-- Node27 -->
<g id="node27" class="node"><title>Node27</title>
<g id="a_node27"><a xlink:href="../../d3/dff/class_cell_society.html#a7a6dab68551f91cc4b120faa51670bf8" target="_top" xlink:title="CellSociety.createCellArray">
<polygon fill="white" stroke="black" points="583,-152.5 583,-171.5 727,-171.5 727,-152.5 583,-152.5"/>
<text text-anchor="middle" x="655" y="-159.5" font-family="Helvetica,sans-Serif" font-size="10.00">CellSociety.createCellArray</text>
</a>
</g>
</g>
<!-- Node17&#45;&gt;Node27 -->
<g id="edge28" class="edge"><title>Node17&#45;&gt;Node27</title>
<path fill="none" stroke="midnightblue" d="M506.241,-306.095C513.483,-303.144 520.291,-299.214 526,-294 563.362,-259.881 525.052,-220.567 562,-186 566.144,-182.123 570.833,-178.855 575.847,-176.102"/>
<polygon fill="midnightblue" stroke="midnightblue" points="577.638,-179.127 585.176,-171.682 574.64,-172.801 577.638,-179.127"/>
</g>
<!-- Node31 -->
<g id="node31" class="node"><title>Node31</title>
<g id="a_node31"><a xlink:href="../../d3/dff/class_cell_society.html#ab9e56a2a70e210e021b51e898508329b" target="_top" xlink:title="CellSociety.setupAnimation">
<polygon fill="white" stroke="black" points="582,-342.5 582,-361.5 728,-361.5 728,-342.5 582,-342.5"/>
<text text-anchor="middle" x="655" y="-349.5" font-family="Helvetica,sans-Serif" font-size="10.00">CellSociety.setupAnimation</text>
</a>
</g>
</g>
<!-- Node17&#45;&gt;Node31 -->
<g id="edge33" class="edge"><title>Node17&#45;&gt;Node31</title>
<path fill="none" stroke="midnightblue" d="M494.474,-323.54C523.592,-328.735 559.811,-335.196 590.374,-340.649"/>
<polygon fill="midnightblue" stroke="midnightblue" points="590.045,-344.145 600.504,-342.456 591.274,-337.254 590.045,-344.145"/>
</g>
<!-- Node33 -->
<g id="node33" class="node"><title>Node33</title>
<g id="a_node33"><a xlink:href="../../df/df8/class_cell_society_view.html#a99eb733c00ed7c1bcba8f2d684791a09" target="_top" xlink:title="CellSocietyView.displayFrameRate">
<polygon fill="white" stroke="black" points="784,-323.5 784,-342.5 962,-342.5 962,-323.5 784,-323.5"/>
<text text-anchor="middle" x="873" y="-330.5" font-family="Helvetica,sans-Serif" font-size="10.00">CellSocietyView.displayFrameRate</text>
</a>
</g>
</g>
<!-- Node17&#45;&gt;Node33 -->
<g id="edge38" class="edge"><title>Node17&#45;&gt;Node33</title>
<path fill="none" stroke="midnightblue" d="M506.46,-316.886C577.556,-320.02 691.906,-325.061 773.779,-328.67"/>
<polygon fill="midnightblue" stroke="midnightblue" points="773.704,-332.17 783.849,-329.114 774.012,-325.177 773.704,-332.17"/>
</g>
<!-- Node20 -->
<g id="node20" class="node"><title>Node20</title>
<g id="a_node20"><a xlink:href="../../d2/d95/class_x_m_l_parser.html#ae67767f9678fb650ac38b1321ea9f723" target="_top" xlink:title="XMLParser.parseInitialTags">
<polygon fill="white" stroke="black" points="802.5,-38.5 802.5,-57.5 943.5,-57.5 943.5,-38.5 802.5,-38.5"/>
<text text-anchor="middle" x="873" y="-45.5" font-family="Helvetica,sans-Serif" font-size="10.00">XMLParser.parseInitialTags</text>
</a>
</g>
</g>
<!-- Node19&#45;&gt;Node20 -->
<g id="edge20" class="edge"><title>Node19&#45;&gt;Node20</title>
<path fill="none" stroke="midnightblue" d="M720.222,-48C742.855,-48 768.576,-48 792.329,-48"/>
<polygon fill="midnightblue" stroke="midnightblue" points="792.374,-51.5001 802.374,-48 792.374,-44.5001 792.374,-51.5001"/>
</g>
<!-- Node21 -->
<g id="node21" class="node"><title>Node21</title>
<g id="a_node21"><a xlink:href="../../d2/d95/class_x_m_l_parser.html#a09c6848239104ae94825c045796dddd0" target="_top" xlink:title="XMLParser.makeParamMap">
<polygon fill="white" stroke="black" points="1005,-38.5 1005,-57.5 1151,-57.5 1151,-38.5 1005,-38.5"/>
<text text-anchor="middle" x="1078" y="-45.5" font-family="Helvetica,sans-Serif" font-size="10.00">XMLParser.makeParamMap</text>
</a>
</g>
</g>
<!-- Node20&#45;&gt;Node21 -->
<g id="edge21" class="edge"><title>Node20&#45;&gt;Node21</title>
<path fill="none" stroke="midnightblue" d="M943.577,-48C959.925,-48 977.504,-48 994.362,-48"/>
<polygon fill="midnightblue" stroke="midnightblue" points="994.749,-51.5001 1004.75,-48 994.749,-44.5001 994.749,-51.5001"/>
</g>
<!-- Node22 -->
<g id="node22" class="node"><title>Node22</title>
<g id="a_node22"><a xlink:href="../../d2/d95/class_x_m_l_parser.html#a5a419f71699eb7d3d76ee238fb262a5f" target="_top" xlink:title="XMLParser.makeCellParamList">
<polygon fill="white" stroke="black" points="998,-0.5 998,-19.5 1158,-19.5 1158,-0.5 998,-0.5"/>
<text text-anchor="middle" x="1078" y="-7.5" font-family="Helvetica,sans-Serif" font-size="10.00">XMLParser.makeCellParamList</text>
</a>
</g>
</g>
<!-- Node20&#45;&gt;Node22 -->
<g id="edge22" class="edge"><title>Node20&#45;&gt;Node22</title>
<path fill="none" stroke="midnightblue" d="M924.963,-38.46C952.594,-33.2878 986.933,-26.8599 1015.98,-21.4222"/>
<polygon fill="midnightblue" stroke="midnightblue" points="1016.83,-24.8242 1026.02,-19.5439 1015.54,-17.9437 1016.83,-24.8242"/>
</g>
<!-- Node23&#45;&gt;Node24 -->
<g id="edge24" class="edge"><title>Node23&#45;&gt;Node24</title>
<path fill="none" stroke="midnightblue" d="M732.762,-238C750.769,-238 770.043,-238 788.335,-238"/>
<polygon fill="midnightblue" stroke="midnightblue" points="788.382,-241.5 798.382,-238 788.382,-234.5 788.382,-241.5"/>
</g>
<!-- Node25 -->
<g id="node25" class="node"><title>Node25</title>
<g id="a_node25"><a xlink:href="../../d2/d95/class_x_m_l_parser.html#a0df3a2904766f59d1246cb55416f8146" target="_top" xlink:title="XMLParser.getSimParamMap">
<polygon fill="white" stroke="black" points="796,-266.5 796,-285.5 950,-285.5 950,-266.5 796,-266.5"/>
<text text-anchor="middle" x="873" y="-273.5" font-family="Helvetica,sans-Serif" font-size="10.00">XMLParser.getSimParamMap</text>
</a>
</g>
</g>
<!-- Node23&#45;&gt;Node25 -->
<g id="edge25" class="edge"><title>Node23&#45;&gt;Node25</title>
<path fill="none" stroke="midnightblue" d="M710.227,-247.54C739.884,-252.757 776.804,-259.253 807.882,-264.72"/>
<polygon fill="midnightblue" stroke="midnightblue" points="807.295,-268.17 817.751,-266.456 808.508,-261.276 807.295,-268.17"/>
</g>
<!-- Node27&#45;&gt;Node24 -->
<g id="edge29" class="edge"><title>Node27&#45;&gt;Node24</title>
<path fill="none" stroke="midnightblue" d="M710.699,-171.612C723.402,-175.092 736.547,-179.765 748,-186 767.063,-196.379 764.721,-209.029 784,-219 788.568,-221.363 793.416,-223.432 798.396,-225.244"/>
<polygon fill="midnightblue" stroke="midnightblue" points="797.505,-228.635 808.098,-228.422 799.684,-221.983 797.505,-228.635"/>
</g>
<!-- Node28 -->
<g id="node28" class="node"><title>Node28</title>
<g id="a_node28"><a xlink:href="../../d2/d95/class_x_m_l_parser.html#ac4e3257aed1deb9fe950149f706fce5b" target="_top" xlink:title="XMLParser.getCellParamList">
<polygon fill="white" stroke="black" points="798.5,-190.5 798.5,-209.5 947.5,-209.5 947.5,-190.5 798.5,-190.5"/>
<text text-anchor="middle" x="873" y="-197.5" font-family="Helvetica,sans-Serif" font-size="10.00">XMLParser.getCellParamList</text>
</a>
</g>
</g>
<!-- Node27&#45;&gt;Node28 -->
<g id="edge30" class="edge"><title>Node27&#45;&gt;Node28</title>
<path fill="none" stroke="midnightblue" d="M710.227,-171.54C739.884,-176.757 776.804,-183.253 807.882,-188.72"/>
<polygon fill="midnightblue" stroke="midnightblue" points="807.295,-192.17 817.751,-190.456 808.508,-185.276 807.295,-192.17"/>
</g>
<!-- Node29 -->
<g id="node29" class="node"><title>Node29</title>
<g id="a_node29"><a xlink:href="../../d3/dff/class_cell_society.html#a42451b17e2bca5fd025c8d4ea74310ca" target="_top" xlink:title="CellSociety.stringToIntArray">
<polygon fill="white" stroke="black" points="800.5,-152.5 800.5,-171.5 945.5,-171.5 945.5,-152.5 800.5,-152.5"/>
<text text-anchor="middle" x="873" y="-159.5" font-family="Helvetica,sans-Serif" font-size="10.00">CellSociety.stringToIntArray</text>
</a>
</g>
</g>
<!-- Node27&#45;&gt;Node29 -->
<g id="edge31" class="edge"><title>Node27&#45;&gt;Node29</title>
<path fill="none" stroke="midnightblue" d="M727.026,-162C747.208,-162 769.35,-162 790.121,-162"/>
<polygon fill="midnightblue" stroke="midnightblue" points="790.193,-165.5 800.193,-162 790.193,-158.5 790.193,-165.5"/>
</g>
<!-- Node30 -->
<g id="node30" class="node"><title>Node30</title>
<g id="a_node30"><a xlink:href="../../d3/dff/class_cell_society.html#a117f1698760a3f6bbe51bd7af16f79bb" target="_top" xlink:title="CellSociety.createCellInstance">
<polygon fill="white" stroke="black" points="793.5,-114.5 793.5,-133.5 952.5,-133.5 952.5,-114.5 793.5,-114.5"/>
<text text-anchor="middle" x="873" y="-121.5" font-family="Helvetica,sans-Serif" font-size="10.00">CellSociety.createCellInstance</text>
</a>
</g>
</g>
<!-- Node27&#45;&gt;Node30 -->
<g id="edge32" class="edge"><title>Node27&#45;&gt;Node30</title>
<path fill="none" stroke="midnightblue" d="M710.227,-152.46C739.884,-147.243 776.804,-140.747 807.882,-135.28"/>
<polygon fill="midnightblue" stroke="midnightblue" points="808.508,-138.724 817.751,-133.544 807.295,-131.83 808.508,-138.724"/>
</g>
<!-- Node32 -->
<g id="node32" class="node"><title>Node32</title>
<g id="a_node32"><a xlink:href="../../d3/dff/class_cell_society.html#abf13a64ee79f2cb063447b499c695c58" target="_top" xlink:title="CellSociety.start">
<polygon fill="white" stroke="black" points="826.5,-361.5 826.5,-380.5 919.5,-380.5 919.5,-361.5 826.5,-361.5"/>
<text text-anchor="middle" x="873" y="-368.5" font-family="Helvetica,sans-Serif" font-size="10.00">CellSociety.start</text>
</a>
</g>
</g>
<!-- Node31&#45;&gt;Node32 -->
<g id="edge34" class="edge"><title>Node31&#45;&gt;Node32</title>
<path fill="none" stroke="midnightblue" d="M728.225,-358.353C756.935,-360.879 789.447,-363.738 816.283,-366.099"/>
<polygon fill="midnightblue" stroke="midnightblue" points="816.002,-369.588 826.27,-366.977 816.616,-362.615 816.002,-369.588"/>
</g>
<!-- Node32&#45;&gt;Node9 -->
<g id="edge35" class="edge"><title>Node32&#45;&gt;Node9</title>
<path fill="none" stroke="midnightblue" d="M919.557,-371C944.856,-371 976.898,-371 1005.46,-371"/>
<polygon fill="midnightblue" stroke="midnightblue" points="1005.81,-374.5 1015.81,-371 1005.81,-367.5 1005.81,-374.5"/>
</g>
<!-- Node36 -->
<g id="node36" class="node"><title>Node36</title>
<g id="a_node36"><a xlink:href="../../d3/dff/class_cell_society.html#adc5feda3db5472cea4e092d463681033" target="_top" xlink:title="CellSociety.reframeTimeline">
<polygon fill="white" stroke="black" points="580.5,-380.5 580.5,-399.5 729.5,-399.5 729.5,-380.5 580.5,-380.5"/>
<text text-anchor="middle" x="655" y="-387.5" font-family="Helvetica,sans-Serif" font-size="10.00">CellSociety.reframeTimeline</text>
</a>
</g>
</g>
<!-- Node35&#45;&gt;Node36 -->
<g id="edge41" class="edge"><title>Node35&#45;&gt;Node36</title>
<path fill="none" stroke="midnightblue" d="M521.526,-390C537.375,-390 554.041,-390 570.001,-390"/>
<polygon fill="midnightblue" stroke="midnightblue" points="570.371,-393.5 580.371,-390 570.371,-386.5 570.371,-393.5"/>
</g>
<!-- Node36&#45;&gt;Node32 -->
<g id="edge43" class="edge"><title>Node36&#45;&gt;Node32</title>
<path fill="none" stroke="midnightblue" d="M729.731,-383.514C757.999,-381.028 789.76,-378.234 816.091,-375.918"/>
<polygon fill="midnightblue" stroke="midnightblue" points="816.613,-379.386 826.268,-375.023 816,-372.412 816.613,-379.386"/>
</g>
<!-- Node36&#45;&gt;Node33 -->
<g id="edge42" class="edge"><title>Node36&#45;&gt;Node33</title>
<path fill="none" stroke="midnightblue" d="M714.598,-380.483C725.843,-377.935 737.408,-374.802 748,-371 765.028,-364.888 767,-358.189 784,-352 791.229,-349.368 798.931,-347.046 806.657,-345.012"/>
<polygon fill="midnightblue" stroke="midnightblue" points="807.56,-348.394 816.422,-342.588 805.873,-341.601 807.56,-348.394"/>
</g>
<!-- Node38&#45;&gt;Node36 -->
<g id="edge46" class="edge"><title>Node38&#45;&gt;Node36</title>
<path fill="none" stroke="midnightblue" d="M494.474,-361.54C523.592,-366.735 559.811,-373.196 590.374,-378.649"/>
<polygon fill="midnightblue" stroke="midnightblue" points="590.045,-382.145 600.504,-380.456 591.274,-375.254 590.045,-382.145"/>
</g>
</g>
</svg>
