<?xml version="1.0" encoding="UTF-8" standalone="no"?>
<!DOCTYPE svg PUBLIC "-//W3C//DTD SVG 1.1//EN"
 "http://www.w3.org/Graphics/SVG/1.1/DTD/svg11.dtd">
<!-- Generated by graphviz version 2.36.0 (20140111.2315)
 -->
<!-- Title: CellSociety.readNewXML Pages: 1 -->
<svg width="1280pt" height="632pt"
 viewBox="0.00 0.00 1280.00 632.24" xmlns="http://www.w3.org/2000/svg" xmlns:xlink="http://www.w3.org/1999/xlink">
<g id="graph0" class="graph" transform="scale(1 1) rotate(0) translate(4 628.239)">
<title>CellSociety.readNewXML</title>
<polygon fill="white" stroke="none" points="-4,4 -4,-628.239 1276,-628.239 1276,4 -4,4"/>
<!-- Node1 -->
<g id="node1" class="node"><title>Node1</title>
<polygon fill="#bfbfbf" stroke="black" points="0,-266.5 0,-285.5 132,-285.5 132,-266.5 0,-266.5"/>
<text text-anchor="middle" x="66" y="-273.5" font-family="Helvetica,sans-Serif" font-size="10.00">CellSociety.readNewXML</text>
</g>
<!-- Node2 -->
<g id="node2" class="node"><title>Node2</title>
<g id="a_node2"><a xlink:href="../../d3/dff/class_cell_society.html#a7a6dab68551f91cc4b120faa51670bf8" target="_top" xlink:title="CellSociety.createCellArray">
<polygon fill="white" stroke="black" points="189,-509.5 189,-528.5 333,-528.5 333,-509.5 189,-509.5"/>
<text text-anchor="middle" x="261" y="-516.5" font-family="Helvetica,sans-Serif" font-size="10.00">CellSociety.createCellArray</text>
</a>
</g>
</g>
<!-- Node1&#45;&gt;Node2 -->
<g id="edge1" class="edge"><title>Node1&#45;&gt;Node2</title>
<path fill="none" stroke="midnightblue" d="M68.6579,-285.906C74.8955,-320.024 100.156,-433.753 168,-492 174.699,-497.751 182.571,-502.278 190.842,-505.841"/>
<polygon fill="midnightblue" stroke="midnightblue" points="189.72,-509.159 200.31,-509.469 192.224,-502.623 189.72,-509.159"/>
</g>
<!-- Node3 -->
<g id="node3" class="node"><title>Node3</title>
<g id="a_node3"><a xlink:href="../../d2/d95/class_x_m_l_parser.html#ac4e3257aed1deb9fe950149f706fce5b" target="_top" xlink:title="XMLParser.getCellParamList">
<polygon fill="white" stroke="black" points="994.5,-247.5 994.5,-266.5 1143.5,-266.5 1143.5,-247.5 994.5,-247.5"/>
<text text-anchor="middle" x="1069" y="-254.5" font-family="Helvetica,sans-Serif" font-size="10.00">XMLParser.getCellParamList</text>
</a>
</g>
</g>
<!-- Node1&#45;&gt;Node3 -->
<g id="edge14" class="edge"><title>Node1&#45;&gt;Node3</title>
<path fill="none" stroke="midnightblue" d="M132.203,-276C212.579,-276 353.349,-276 474,-276 474,-276 474,-276 677,-276 782.856,-276 904.642,-268.967 983.787,-263.458"/>
<polygon fill="midnightblue" stroke="midnightblue" points="984.455,-266.92 994.185,-262.726 983.963,-259.937 984.455,-266.92"/>
</g>
<!-- Node4 -->
<g id="node4" class="node"><title>Node4</title>
<g id="a_node4"><a xlink:href="../../d2/d95/class_x_m_l_parser.html#aea9b535964c91fa3c3d2b1c0b6a334c2" target="_top" xlink:title="XMLParser.getInitParamMap">
<polygon fill="white" stroke="black" points="400.5,-430.5 400.5,-449.5 549.5,-449.5 549.5,-430.5 400.5,-430.5"/>
<text text-anchor="middle" x="475" y="-437.5" font-family="Helvetica,sans-Serif" font-size="10.00">XMLParser.getInitParamMap</text>
</a>
</g>
</g>
<!-- Node1&#45;&gt;Node4 -->
<g id="edge15" class="edge"><title>Node1&#45;&gt;Node4</title>
<path fill="none" stroke="midnightblue" d="M68.772,-285.526C75.2397,-317.22 100.812,-419.34 168,-459 208.413,-482.855 338.334,-464.833 415.282,-451.306"/>
<polygon fill="midnightblue" stroke="midnightblue" points="416.084,-454.718 425.314,-449.515 414.854,-447.827 416.084,-454.718"/>
</g>
<!-- Node10 -->
<g id="node10" class="node"><title>Node10</title>
<g id="a_node10"><a xlink:href="../../df/df8/class_cell_society_view.html#a99eb733c00ed7c1bcba8f2d684791a09" target="_top" xlink:title="CellSocietyView.displayFrameRate">
<polygon fill="white" stroke="black" points="172,-392.5 172,-411.5 350,-411.5 350,-392.5 172,-392.5"/>
<text text-anchor="middle" x="261" y="-399.5" font-family="Helvetica,sans-Serif" font-size="10.00">CellSocietyView.displayFrameRate</text>
</a>
</g>
</g>
<!-- Node1&#45;&gt;Node10 -->
<g id="edge11" class="edge"><title>Node1&#45;&gt;Node10</title>
<path fill="none" stroke="midnightblue" d="M72.9799,-285.547C86.8355,-306.801 123.385,-358.106 168,-383 172.144,-385.312 176.534,-387.344 181.061,-389.13"/>
<polygon fill="midnightblue" stroke="midnightblue" points="179.915,-392.437 190.51,-392.46 182.242,-385.835 179.915,-392.437"/>
</g>
<!-- Node11 -->
<g id="node11" class="node"><title>Node11</title>
<g id="a_node11"><a xlink:href="../../df/df8/class_cell_society_view.html#a053b6ef6afa80722445223c4e373e51c" target="_top" xlink:title="CellSocietyView.displayXMLChooser">
<polygon fill="white" stroke="black" points="168.5,-354.5 168.5,-373.5 353.5,-373.5 353.5,-354.5 168.5,-354.5"/>
<text text-anchor="middle" x="261" y="-361.5" font-family="Helvetica,sans-Serif" font-size="10.00">CellSocietyView.displayXMLChooser</text>
</a>
</g>
</g>
<!-- Node1&#45;&gt;Node11 -->
<g id="edge12" class="edge"><title>Node1&#45;&gt;Node11</title>
<path fill="none" stroke="midnightblue" d="M78.2749,-285.731C96.0972,-300.593 132.42,-328.818 168,-344 175.082,-347.022 182.674,-349.609 190.347,-351.819"/>
<polygon fill="midnightblue" stroke="midnightblue" points="189.512,-355.219 200.077,-354.421 191.321,-348.456 189.512,-355.219"/>
</g>
<!-- Node12 -->
<g id="node12" class="node"><title>Node12</title>
<g id="a_node12"><a xlink:href="../../df/df8/class_cell_society_view.html#a930d889b8619ae93731b8542ce285180" target="_top" xlink:title="CellSocietyView.generate\lChartLines">
<polygon fill="white" stroke="black" points="192.5,-305 192.5,-335 329.5,-335 329.5,-305 192.5,-305"/>
<text text-anchor="start" x="200.5" y="-323" font-family="Helvetica,sans-Serif" font-size="10.00">CellSocietyView.generate</text>
<text text-anchor="middle" x="261" y="-312" font-family="Helvetica,sans-Serif" font-size="10.00">ChartLines</text>
</a>
</g>
</g>
<!-- Node1&#45;&gt;Node12 -->
<g id="edge13" class="edge"><title>Node1&#45;&gt;Node12</title>
<path fill="none" stroke="midnightblue" d="M108.878,-285.547C130.802,-290.545 158.334,-296.822 183.871,-302.644"/>
<polygon fill="midnightblue" stroke="midnightblue" points="183.39,-306.124 193.918,-304.935 184.946,-299.299 183.39,-306.124"/>
</g>
<!-- Node13 -->
<g id="node13" class="node"><title>Node13</title>
<g id="a_node13"><a xlink:href="../../d2/d95/class_x_m_l_parser.html#a77ee23818c822b69cdf4200eef726a61" target="_top" xlink:title="XMLParser.parseXMLFile">
<polygon fill="white" stroke="black" points="196,-228.5 196,-247.5 326,-247.5 326,-228.5 196,-228.5"/>
<text text-anchor="middle" x="261" y="-235.5" font-family="Helvetica,sans-Serif" font-size="10.00">XMLParser.parseXMLFile</text>
</a>
</g>
</g>
<!-- Node1&#45;&gt;Node13 -->
<g id="edge16" class="edge"><title>Node1&#45;&gt;Node13</title>
<path fill="none" stroke="midnightblue" d="M115.702,-266.411C141.859,-261.261 174.284,-254.877 201.767,-249.466"/>
<polygon fill="midnightblue" stroke="midnightblue" points="202.513,-252.886 211.648,-247.52 201.16,-246.018 202.513,-252.886"/>
</g>
<!-- Node17 -->
<g id="node17" class="node"><title>Node17</title>
<g id="a_node17"><a xlink:href="../../d3/dff/class_cell_society.html#ae565a305ea53e5a37da9816a236b4fbc" target="_top" xlink:title="CellSociety.pauseAnimation">
<polygon fill="white" stroke="black" points="186.5,-190.5 186.5,-209.5 335.5,-209.5 335.5,-190.5 186.5,-190.5"/>
<text text-anchor="middle" x="261" y="-197.5" font-family="Helvetica,sans-Serif" font-size="10.00">CellSociety.pauseAnimation</text>
</a>
</g>
</g>
<!-- Node1&#45;&gt;Node17 -->
<g id="edge20" class="edge"><title>Node1&#45;&gt;Node17</title>
<path fill="none" stroke="midnightblue" d="M80.7044,-266.425C99.5237,-253.717 134.819,-231.441 168,-219 175.194,-216.303 182.856,-213.954 190.57,-211.919"/>
<polygon fill="midnightblue" stroke="midnightblue" points="191.469,-215.302 200.337,-209.504 189.789,-208.506 191.469,-215.302"/>
</g>
<!-- Node19 -->
<g id="node19" class="node"><title>Node19</title>
<g id="a_node19"><a xlink:href="../../d3/dff/class_cell_society.html#abfbf43ce46b4c82c16a2d933b6a11abf" target="_top" xlink:title="CellSociety.retrieveParserInfo">
<polygon fill="white" stroke="black" points="183.5,-430.5 183.5,-449.5 338.5,-449.5 338.5,-430.5 183.5,-430.5"/>
<text text-anchor="middle" x="261" y="-437.5" font-family="Helvetica,sans-Serif" font-size="10.00">CellSociety.retrieveParserInfo</text>
</a>
</g>
</g>
<!-- Node1&#45;&gt;Node19 -->
<g id="edge22" class="edge"><title>Node1&#45;&gt;Node19</title>
<path fill="none" stroke="midnightblue" d="M70.7025,-285.676C81.348,-312.103 114.73,-385.869 168,-421 171.11,-423.051 174.398,-424.888 177.807,-426.531"/>
<polygon fill="midnightblue" stroke="midnightblue" points="176.5,-429.779 187.074,-430.447 179.224,-423.331 176.5,-429.779"/>
</g>
<!-- Node21 -->
<g id="node21" class="node"><title>Node21</title>
<g id="a_node21"><a xlink:href="../../dd/d11/class_cell.html#a7157b57f4ff263ea68e1ff5fc424176e" target="_top" xlink:title="Cell.setCellSize">
<polygon fill="white" stroke="black" points="216.5,-152.5 216.5,-171.5 305.5,-171.5 305.5,-152.5 216.5,-152.5"/>
<text text-anchor="middle" x="261" y="-159.5" font-family="Helvetica,sans-Serif" font-size="10.00">Cell.setCellSize</text>
</a>
</g>
</g>
<!-- Node1&#45;&gt;Node21 -->
<g id="edge25" class="edge"><title>Node1&#45;&gt;Node21</title>
<path fill="none" stroke="midnightblue" d="M74.1441,-266.376C89.1704,-246.885 126.133,-202.755 168,-181 179.763,-174.888 193.331,-170.741 206.372,-167.929"/>
<polygon fill="midnightblue" stroke="midnightblue" points="207.049,-171.363 216.203,-166.027 205.72,-164.49 207.049,-171.363"/>
</g>
<!-- Node22 -->
<g id="node22" class="node"><title>Node22</title>
<g id="a_node22"><a xlink:href="../../d3/dff/class_cell_society.html#ab9e56a2a70e210e021b51e898508329b" target="_top" xlink:title="CellSociety.setupAnimation">
<polygon fill="white" stroke="black" points="188,-114.5 188,-133.5 334,-133.5 334,-114.5 188,-114.5"/>
<text text-anchor="middle" x="261" y="-121.5" font-family="Helvetica,sans-Serif" font-size="10.00">CellSociety.setupAnimation</text>
</a>
</g>
</g>
<!-- Node1&#45;&gt;Node22 -->
<g id="edge26" class="edge"><title>Node1&#45;&gt;Node22</title>
<path fill="none" stroke="midnightblue" d="M71.2714,-266.406C82.864,-241.562 117.475,-174.852 168,-143 171.225,-140.967 174.628,-139.147 178.15,-137.518"/>
<polygon fill="midnightblue" stroke="midnightblue" points="179.76,-140.641 187.708,-133.636 177.126,-134.156 179.76,-140.641"/>
</g>
<!-- Node31 -->
<g id="node31" class="node"><title>Node31</title>
<g id="a_node31"><a xlink:href="../../df/df8/class_cell_society_view.html#a7ca77bdfdef97e9be9c9941c2f4d3513" target="_top" xlink:title="CellSocietyView.updateChart\lLines">
<polygon fill="white" stroke="black" points="798.5,-65 798.5,-95 951.5,-95 951.5,-65 798.5,-65"/>
<text text-anchor="start" x="806.5" y="-83" font-family="Helvetica,sans-Serif" font-size="10.00">CellSocietyView.updateChart</text>
<text text-anchor="middle" x="875" y="-72" font-family="Helvetica,sans-Serif" font-size="10.00">Lines</text>
</a>
</g>
</g>
<!-- Node1&#45;&gt;Node31 -->
<g id="edge42" class="edge"><title>Node1&#45;&gt;Node31</title>
<path fill="none" stroke="midnightblue" d="M69.2482,-266.324C76.8729,-235.986 104.872,-142.528 168,-105 220.032,-74.0689 611.666,-75.9763 788.182,-78.469"/>
<polygon fill="midnightblue" stroke="midnightblue" points="788.165,-81.9691 798.215,-78.6146 788.267,-74.9698 788.165,-81.9691"/>
</g>
<!-- Node32 -->
<g id="node32" class="node"><title>Node32</title>
<g id="a_node32"><a xlink:href="../../df/df8/class_cell_society_view.html#a068f17fd6777087a8debf1f67b576836" target="_top" xlink:title="CellSocietyView.setupInitialGrid">
<polygon fill="white" stroke="black" points="179,-38.5 179,-57.5 343,-57.5 343,-38.5 179,-38.5"/>
<text text-anchor="middle" x="261" y="-45.5" font-family="Helvetica,sans-Serif" font-size="10.00">CellSocietyView.setupInitialGrid</text>
</a>
</g>
</g>
<!-- Node1&#45;&gt;Node32 -->
<g id="edge39" class="edge"><title>Node1&#45;&gt;Node32</title>
<path fill="none" stroke="midnightblue" d="M68.8711,-266.105C75.6521,-233.068 102.099,-125.633 168,-72 173.041,-67.8973 178.708,-64.489 184.689,-61.6583"/>
<polygon fill="midnightblue" stroke="midnightblue" points="186.406,-64.735 194.301,-57.6691 183.723,-58.2697 186.406,-64.735"/>
</g>
<!-- Node2&#45;&gt;Node3 -->
<g id="edge2" class="edge"><title>Node2&#45;&gt;Node3</title>
<path fill="none" stroke="midnightblue" d="M275.34,-528.646C297.715,-544.162 344.807,-574.035 390,-585 548.08,-623.356 606.505,-649.123 756,-585 910.308,-518.812 1024.36,-334.662 1057.87,-275.533"/>
<polygon fill="midnightblue" stroke="midnightblue" points="1061.06,-277.011 1062.88,-266.573 1054.95,-273.599 1061.06,-277.011"/>
</g>
<!-- Node2&#45;&gt;Node4 -->
<g id="edge3" class="edge"><title>Node2&#45;&gt;Node4</title>
<path fill="none" stroke="midnightblue" d="M309.526,-509.485C324.349,-505.372 340.372,-499.689 354,-492 372.904,-481.334 370.77,-469.065 390,-459 394.521,-456.634 399.328,-454.561 404.267,-452.745"/>
<polygon fill="midnightblue" stroke="midnightblue" points="405.491,-456.027 413.883,-449.561 403.29,-449.382 405.491,-456.027"/>
</g>
<!-- Node5 -->
<g id="node5" class="node"><title>Node5</title>
<g id="a_node5"><a xlink:href="../../d3/dff/class_cell_society.html#a5c0b747b2fbaaa317266890c48e0267f" target="_top" xlink:title="CellSociety.populateLocations">
<polygon fill="white" stroke="black" points="396,-556.5 396,-575.5 554,-575.5 554,-556.5 396,-556.5"/>
<text text-anchor="middle" x="475" y="-563.5" font-family="Helvetica,sans-Serif" font-size="10.00">CellSociety.populateLocations</text>
</a>
</g>
</g>
<!-- Node2&#45;&gt;Node5 -->
<g id="edge4" class="edge"><title>Node2&#45;&gt;Node5</title>
<path fill="none" stroke="midnightblue" d="M304.901,-528.511C338.411,-535.94 385.148,-546.302 420.997,-554.249"/>
<polygon fill="midnightblue" stroke="midnightblue" points="420.279,-557.675 430.799,-556.422 421.794,-550.841 420.279,-557.675"/>
</g>
<!-- Node8 -->
<g id="node8" class="node"><title>Node8</title>
<g id="a_node8"><a xlink:href="../../d3/dff/class_cell_society.html#a276d7f4c12da9d40e8720f762b47592a" target="_top" xlink:title="CellSociety.populateProbabilities">
<polygon fill="white" stroke="black" points="390,-468.5 390,-487.5 560,-487.5 560,-468.5 390,-468.5"/>
<text text-anchor="middle" x="475" y="-475.5" font-family="Helvetica,sans-Serif" font-size="10.00">CellSociety.populateProbabilities</text>
</a>
</g>
</g>
<!-- Node2&#45;&gt;Node8 -->
<g id="edge7" class="edge"><title>Node2&#45;&gt;Node8</title>
<path fill="none" stroke="midnightblue" d="M311.17,-509.491C342.097,-503.509 382.189,-495.756 414.85,-489.439"/>
<polygon fill="midnightblue" stroke="midnightblue" points="415.576,-492.864 424.73,-487.529 414.247,-485.991 415.576,-492.864"/>
</g>
<!-- Node9 -->
<g id="node9" class="node"><title>Node9</title>
<g id="a_node9"><a xlink:href="../../d3/dff/class_cell_society.html#a7ef59819b70a8f07c010bd2bb28b7740" target="_top" xlink:title="CellSociety.populateRemaining\lState">
<polygon fill="white" stroke="black" points="394,-507 394,-537 556,-537 556,-507 394,-507"/>
<text text-anchor="start" x="402" y="-525" font-family="Helvetica,sans-Serif" font-size="10.00">CellSociety.populateRemaining</text>
<text text-anchor="middle" x="475" y="-514" font-family="Helvetica,sans-Serif" font-size="10.00">State</text>
</a>
</g>
</g>
<!-- Node2&#45;&gt;Node9 -->
<g id="edge9" class="edge"><title>Node2&#45;&gt;Node9</title>
<path fill="none" stroke="midnightblue" d="M333.183,-520.007C349.32,-520.236 366.669,-520.481 383.486,-520.719"/>
<polygon fill="midnightblue" stroke="midnightblue" points="383.825,-524.224 393.873,-520.866 383.924,-517.225 383.825,-524.224"/>
</g>
<!-- Node6 -->
<g id="node6" class="node"><title>Node6</title>
<g id="a_node6"><a xlink:href="../../d3/dff/class_cell_society.html#a117f1698760a3f6bbe51bd7af16f79bb" target="_top" xlink:title="CellSociety.createCellInstance">
<polygon fill="white" stroke="black" points="596.5,-512.5 596.5,-531.5 755.5,-531.5 755.5,-512.5 596.5,-512.5"/>
<text text-anchor="middle" x="676" y="-519.5" font-family="Helvetica,sans-Serif" font-size="10.00">CellSociety.createCellInstance</text>
</a>
</g>
</g>
<!-- Node5&#45;&gt;Node6 -->
<g id="edge5" class="edge"><title>Node5&#45;&gt;Node6</title>
<path fill="none" stroke="midnightblue" d="M519.18,-556.453C549.299,-549.793 589.685,-540.864 621.794,-533.764"/>
<polygon fill="midnightblue" stroke="midnightblue" points="622.896,-537.105 631.904,-531.529 621.384,-530.27 622.896,-537.105"/>
</g>
<!-- Node7 -->
<g id="node7" class="node"><title>Node7</title>
<g id="a_node7"><a xlink:href="../../d3/dff/class_cell_society.html#a42451b17e2bca5fd025c8d4ea74310ca" target="_top" xlink:title="CellSociety.stringToIntArray">
<polygon fill="white" stroke="black" points="603.5,-556.5 603.5,-575.5 748.5,-575.5 748.5,-556.5 603.5,-556.5"/>
<text text-anchor="middle" x="676" y="-563.5" font-family="Helvetica,sans-Serif" font-size="10.00">CellSociety.stringToIntArray</text>
</a>
</g>
</g>
<!-- Node5&#45;&gt;Node7 -->
<g id="edge6" class="edge"><title>Node5&#45;&gt;Node7</title>
<path fill="none" stroke="midnightblue" d="M554.079,-566C566.881,-566 580.18,-566 593.072,-566"/>
<polygon fill="midnightblue" stroke="midnightblue" points="593.307,-569.5 603.307,-566 593.307,-562.5 593.307,-569.5"/>
</g>
<!-- Node8&#45;&gt;Node6 -->
<g id="edge8" class="edge"><title>Node8&#45;&gt;Node6</title>
<path fill="none" stroke="midnightblue" d="M519.18,-487.547C549.299,-494.207 589.685,-503.136 621.794,-510.236"/>
<polygon fill="midnightblue" stroke="midnightblue" points="621.384,-513.73 631.904,-512.471 622.896,-506.895 621.384,-513.73"/>
</g>
<!-- Node9&#45;&gt;Node6 -->
<g id="edge10" class="edge"><title>Node9&#45;&gt;Node6</title>
<path fill="none" stroke="midnightblue" d="M556.081,-522C566.044,-522 576.277,-522 586.36,-522"/>
<polygon fill="midnightblue" stroke="midnightblue" points="586.377,-525.5 596.377,-522 586.377,-518.5 586.377,-525.5"/>
</g>
<!-- Node14 -->
<g id="node14" class="node"><title>Node14</title>
<g id="a_node14"><a xlink:href="../../d2/d95/class_x_m_l_parser.html#ae67767f9678fb650ac38b1321ea9f723" target="_top" xlink:title="XMLParser.parseInitialTags">
<polygon fill="white" stroke="black" points="404.5,-228.5 404.5,-247.5 545.5,-247.5 545.5,-228.5 404.5,-228.5"/>
<text text-anchor="middle" x="475" y="-235.5" font-family="Helvetica,sans-Serif" font-size="10.00">XMLParser.parseInitialTags</text>
</a>
</g>
</g>
<!-- Node13&#45;&gt;Node14 -->
<g id="edge17" class="edge"><title>Node13&#45;&gt;Node14</title>
<path fill="none" stroke="midnightblue" d="M326.182,-238C347.636,-238 371.812,-238 394.301,-238"/>
<polygon fill="midnightblue" stroke="midnightblue" points="394.5,-241.5 404.5,-238 394.5,-234.5 394.5,-241.5"/>
</g>
<!-- Node15 -->
<g id="node15" class="node"><title>Node15</title>
<g id="a_node15"><a xlink:href="../../d2/d95/class_x_m_l_parser.html#a09c6848239104ae94825c045796dddd0" target="_top" xlink:title="XMLParser.makeParamMap">
<polygon fill="white" stroke="black" points="603,-228.5 603,-247.5 749,-247.5 749,-228.5 603,-228.5"/>
<text text-anchor="middle" x="676" y="-235.5" font-family="Helvetica,sans-Serif" font-size="10.00">XMLParser.makeParamMap</text>
</a>
</g>
</g>
<!-- Node14&#45;&gt;Node15 -->
<g id="edge18" class="edge"><title>Node14&#45;&gt;Node15</title>
<path fill="none" stroke="midnightblue" d="M545.601,-238C560.771,-238 576.964,-238 592.578,-238"/>
<polygon fill="midnightblue" stroke="midnightblue" points="592.739,-241.5 602.739,-238 592.739,-234.5 592.739,-241.5"/>
</g>
<!-- Node16 -->
<g id="node16" class="node"><title>Node16</title>
<g id="a_node16"><a xlink:href="../../d2/d95/class_x_m_l_parser.html#a5a419f71699eb7d3d76ee238fb262a5f" target="_top" xlink:title="XMLParser.makeCellParamList">
<polygon fill="white" stroke="black" points="596,-190.5 596,-209.5 756,-209.5 756,-190.5 596,-190.5"/>
<text text-anchor="middle" x="676" y="-197.5" font-family="Helvetica,sans-Serif" font-size="10.00">XMLParser.makeCellParamList</text>
</a>
</g>
</g>
<!-- Node14&#45;&gt;Node16 -->
<g id="edge19" class="edge"><title>Node14&#45;&gt;Node16</title>
<path fill="none" stroke="midnightblue" d="M525.959,-228.46C553.045,-223.288 586.708,-216.86 615.183,-211.422"/>
<polygon fill="midnightblue" stroke="midnightblue" points="615.854,-214.858 625.02,-209.544 614.541,-207.982 615.854,-214.858"/>
</g>
<!-- Node18 -->
<g id="node18" class="node"><title>Node18</title>
<g id="a_node18"><a xlink:href="../../df/df8/class_cell_society_view.html#ae83511f9bf3610b0750d41c4aeb0f778" target="_top" xlink:title="CellSocietyView.setButtons\lPause">
<polygon fill="white" stroke="black" points="402,-179 402,-209 548,-209 548,-179 402,-179"/>
<text text-anchor="start" x="410" y="-197" font-family="Helvetica,sans-Serif" font-size="10.00">CellSocietyView.setButtons</text>
<text text-anchor="middle" x="475" y="-186" font-family="Helvetica,sans-Serif" font-size="10.00">Pause</text>
</a>
</g>
</g>
<!-- Node17&#45;&gt;Node18 -->
<g id="edge21" class="edge"><title>Node17&#45;&gt;Node18</title>
<path fill="none" stroke="midnightblue" d="M335.552,-197.918C353.614,-197.407 373.067,-196.857 391.519,-196.334"/>
<polygon fill="midnightblue" stroke="midnightblue" points="391.755,-199.829 401.652,-196.048 391.557,-192.832 391.755,-199.829"/>
</g>
<!-- Node19&#45;&gt;Node4 -->
<g id="edge23" class="edge"><title>Node19&#45;&gt;Node4</title>
<path fill="none" stroke="midnightblue" d="M338.537,-440C355.234,-440 372.991,-440 389.962,-440"/>
<polygon fill="midnightblue" stroke="midnightblue" points="390.411,-443.5 400.411,-440 390.41,-436.5 390.411,-443.5"/>
</g>
<!-- Node20 -->
<g id="node20" class="node"><title>Node20</title>
<g id="a_node20"><a xlink:href="../../d2/d95/class_x_m_l_parser.html#a0df3a2904766f59d1246cb55416f8146" target="_top" xlink:title="XMLParser.getSimParamMap">
<polygon fill="white" stroke="black" points="398,-392.5 398,-411.5 552,-411.5 552,-392.5 398,-392.5"/>
<text text-anchor="middle" x="475" y="-399.5" font-family="Helvetica,sans-Serif" font-size="10.00">XMLParser.getSimParamMap</text>
</a>
</g>
</g>
<!-- Node19&#45;&gt;Node20 -->
<g id="edge24" class="edge"><title>Node19&#45;&gt;Node20</title>
<path fill="none" stroke="midnightblue" d="M315.223,-430.46C344.205,-425.265 380.253,-418.804 410.673,-413.351"/>
<polygon fill="midnightblue" stroke="midnightblue" points="411.53,-416.753 420.755,-411.544 410.295,-409.863 411.53,-416.753"/>
</g>
<!-- Node23 -->
<g id="node23" class="node"><title>Node23</title>
<g id="a_node23"><a xlink:href="../../d3/dff/class_cell_society.html#abf13a64ee79f2cb063447b499c695c58" target="_top" xlink:title="CellSociety.start">
<polygon fill="white" stroke="black" points="428.5,-127.5 428.5,-146.5 521.5,-146.5 521.5,-127.5 428.5,-127.5"/>
<text text-anchor="middle" x="475" y="-134.5" font-family="Helvetica,sans-Serif" font-size="10.00">CellSociety.start</text>
</a>
</g>
</g>
<!-- Node22&#45;&gt;Node23 -->
<g id="edge27" class="edge"><title>Node22&#45;&gt;Node23</title>
<path fill="none" stroke="midnightblue" d="M334.069,-128.419C361.5,-130.101 392.319,-131.991 418.038,-133.568"/>
<polygon fill="midnightblue" stroke="midnightblue" points="418.16,-137.082 428.356,-134.201 418.589,-130.095 418.16,-137.082"/>
</g>
<!-- Node24 -->
<g id="node24" class="node"><title>Node24</title>
<g id="a_node24"><a xlink:href="../../d3/dff/class_cell_society.html#a0ff19c30a1cc433d8ea8444f6a5617f1" target="_top" xlink:title="CellSociety.updateGrid">
<polygon fill="white" stroke="black" points="614,-127.5 614,-146.5 738,-146.5 738,-127.5 614,-127.5"/>
<text text-anchor="middle" x="676" y="-134.5" font-family="Helvetica,sans-Serif" font-size="10.00">CellSociety.updateGrid</text>
</a>
</g>
</g>
<!-- Node23&#45;&gt;Node24 -->
<g id="edge28" class="edge"><title>Node23&#45;&gt;Node24</title>
<path fill="none" stroke="midnightblue" d="M521.655,-137C545.871,-137 576.177,-137 603.438,-137"/>
<polygon fill="midnightblue" stroke="midnightblue" points="603.718,-140.5 613.718,-137 603.718,-133.5 603.718,-140.5"/>
</g>
<!-- Node24&#45;&gt;Node3 -->
<g id="edge36" class="edge"><title>Node24&#45;&gt;Node3</title>
<path fill="none" stroke="midnightblue" d="M698.196,-146.603C714.747,-154.607 737.897,-166.942 756,-181 774.375,-195.269 771.307,-208.368 792,-219 851.458,-249.549 927.156,-258.189 984.232,-259.672"/>
<polygon fill="midnightblue" stroke="midnightblue" points="984.238,-263.172 994.304,-259.865 984.373,-256.174 984.238,-263.172"/>
</g>
<!-- Node25 -->
<g id="node25" class="node"><title>Node25</title>
<g id="a_node25"><a xlink:href="../../d8/d87/class_controller.html#aa8f10b5f28542d34053a7e4d5f1d6013" target="_top" xlink:title="Controller.runOneSim">
<polygon fill="white" stroke="black" points="815.5,-190.5 815.5,-209.5 934.5,-209.5 934.5,-190.5 815.5,-190.5"/>
<text text-anchor="middle" x="875" y="-197.5" font-family="Helvetica,sans-Serif" font-size="10.00">Controller.runOneSim</text>
</a>
</g>
</g>
<!-- Node24&#45;&gt;Node25 -->
<g id="edge29" class="edge"><title>Node24&#45;&gt;Node25</title>
<path fill="none" stroke="midnightblue" d="M699.158,-146.526C722.086,-156.132 759.086,-170.942 792,-181 800.326,-183.544 809.218,-185.933 817.962,-188.102"/>
<polygon fill="midnightblue" stroke="midnightblue" points="817.191,-191.516 827.732,-190.453 818.829,-184.71 817.191,-191.516"/>
</g>
<!-- Node26 -->
<g id="node26" class="node"><title>Node26</title>
<g id="a_node26"><a xlink:href="../../d3/dff/class_cell_society.html#a64ebaee33d25e0e730024e67d5582c63" target="_top" xlink:title="CellSociety.updateColors">
<polygon fill="white" stroke="black" points="808,-114.5 808,-133.5 942,-133.5 942,-114.5 808,-114.5"/>
<text text-anchor="middle" x="875" y="-121.5" font-family="Helvetica,sans-Serif" font-size="10.00">CellSociety.updateColors</text>
</a>
</g>
</g>
<!-- Node24&#45;&gt;Node26 -->
<g id="edge30" class="edge"><title>Node24&#45;&gt;Node26</title>
<path fill="none" stroke="midnightblue" d="M738.252,-132.958C757.104,-131.714 778.091,-130.329 797.817,-129.027"/>
<polygon fill="midnightblue" stroke="midnightblue" points="798.252,-132.506 807.999,-128.355 797.791,-125.522 798.252,-132.506"/>
</g>
<!-- Node28 -->
<g id="node28" class="node"><title>Node28</title>
<g id="a_node28"><a xlink:href="../../df/df8/class_cell_society_view.html#a43ac2666d3a002024be53fe74028a576" target="_top" xlink:title="CellSocietyView.updateSimGrid">
<polygon fill="white" stroke="black" points="792.5,-152.5 792.5,-171.5 957.5,-171.5 957.5,-152.5 792.5,-152.5"/>
<text text-anchor="middle" x="875" y="-159.5" font-family="Helvetica,sans-Serif" font-size="10.00">CellSocietyView.updateSimGrid</text>
</a>
</g>
</g>
<!-- Node24&#45;&gt;Node28 -->
<g id="edge33" class="edge"><title>Node24&#45;&gt;Node28</title>
<path fill="none" stroke="midnightblue" d="M738.252,-144.773C754.303,-146.81 771.902,-149.043 788.952,-151.207"/>
<polygon fill="midnightblue" stroke="midnightblue" points="788.551,-154.684 798.912,-152.471 789.433,-147.74 788.551,-154.684"/>
</g>
<!-- Node24&#45;&gt;Node31 -->
<g id="edge37" class="edge"><title>Node24&#45;&gt;Node31</title>
<path fill="none" stroke="midnightblue" d="M709.973,-127.459C737.788,-119.412 778.359,-107.673 812.192,-97.8834"/>
<polygon fill="midnightblue" stroke="midnightblue" points="813.363,-101.188 821.996,-95.0468 811.417,-94.4642 813.363,-101.188"/>
</g>
<!-- Node26&#45;&gt;Node3 -->
<g id="edge32" class="edge"><title>Node26&#45;&gt;Node3</title>
<path fill="none" stroke="midnightblue" d="M936.233,-133.634C943.826,-136.082 951.279,-139.151 958,-143 978.189,-154.561 977.885,-164.221 994,-181 1013.55,-201.359 1036.22,-224.584 1051.26,-239.945"/>
<polygon fill="midnightblue" stroke="midnightblue" points="1048.88,-242.512 1058.38,-247.204 1053.88,-237.612 1048.88,-242.512"/>
</g>
<!-- Node27 -->
<g id="node27" class="node"><title>Node27</title>
<g id="a_node27"><a xlink:href="../../dd/d11/class_cell.html#a7f8d2520a26a1376a44372149e561f6b" target="_top" xlink:title="Cell.toString">
<polygon fill="white" stroke="black" points="1031.5,-92.5 1031.5,-111.5 1106.5,-111.5 1106.5,-92.5 1031.5,-92.5"/>
<text text-anchor="middle" x="1069" y="-99.5" font-family="Helvetica,sans-Serif" font-size="10.00">Cell.toString</text>
</a>
</g>
</g>
<!-- Node26&#45;&gt;Node27 -->
<g id="edge31" class="edge"><title>Node26&#45;&gt;Node27</title>
<path fill="none" stroke="midnightblue" d="M942.076,-116.429C968.155,-113.441 997.508,-110.077 1021.31,-107.35"/>
<polygon fill="midnightblue" stroke="midnightblue" points="1021.95,-110.8 1031.48,-106.184 1021.15,-103.845 1021.95,-110.8"/>
</g>
<!-- Node29 -->
<g id="node29" class="node"><title>Node29</title>
<g id="a_node29"><a xlink:href="../../da/d74/class_grid.html#a35a1ac27af1320c129643842e74a904b" target="_top" xlink:title="Grid.update">
<polygon fill="white" stroke="black" points="1032.5,-152.5 1032.5,-171.5 1105.5,-171.5 1105.5,-152.5 1032.5,-152.5"/>
<text text-anchor="middle" x="1069" y="-159.5" font-family="Helvetica,sans-Serif" font-size="10.00">Grid.update</text>
</a>
</g>
</g>
<!-- Node28&#45;&gt;Node29 -->
<g id="edge34" class="edge"><title>Node28&#45;&gt;Node29</title>
<path fill="none" stroke="midnightblue" d="M957.704,-162C979.852,-162 1003.04,-162 1022.41,-162"/>
<polygon fill="midnightblue" stroke="midnightblue" points="1022.45,-165.5 1032.45,-162 1022.45,-158.5 1022.45,-165.5"/>
</g>
<!-- Node30 -->
<g id="node30" class="node"><title>Node30</title>
<g id="a_node30"><a xlink:href="../../da/d74/class_grid.html#a12ccb8909871030fc2e2839dff169f3a" target="_top" xlink:title="Grid.displayGrid">
<polygon fill="white" stroke="black" points="1180,-152.5 1180,-171.5 1272,-171.5 1272,-152.5 1180,-152.5"/>
<text text-anchor="middle" x="1226" y="-159.5" font-family="Helvetica,sans-Serif" font-size="10.00">Grid.displayGrid</text>
</a>
</g>
</g>
<!-- Node29&#45;&gt;Node30 -->
<g id="edge35" class="edge"><title>Node29&#45;&gt;Node30</title>
<path fill="none" stroke="midnightblue" d="M1105.56,-162C1124.53,-162 1148.3,-162 1169.63,-162"/>
<polygon fill="midnightblue" stroke="midnightblue" points="1169.87,-165.5 1179.87,-162 1169.87,-158.5 1169.87,-165.5"/>
</g>
<!-- Node31&#45;&gt;Node27 -->
<g id="edge38" class="edge"><title>Node31&#45;&gt;Node27</title>
<path fill="none" stroke="midnightblue" d="M951.608,-88.6634C975.038,-91.3482 1000.17,-94.2276 1021.06,-96.6213"/>
<polygon fill="midnightblue" stroke="midnightblue" points="1020.92,-100.129 1031.26,-97.7897 1021.72,-93.174 1020.92,-100.129"/>
</g>
<!-- Node33 -->
<g id="node33" class="node"><title>Node33</title>
<g id="a_node33"><a xlink:href="../../da/d74/class_grid.html#a1febd1c7daf70dbedc9ca16a3c8099db" target="_top" xlink:title="Grid.getGrid">
<polygon fill="white" stroke="black" points="438,-38.5 438,-57.5 512,-57.5 512,-38.5 438,-38.5"/>
<text text-anchor="middle" x="475" y="-45.5" font-family="Helvetica,sans-Serif" font-size="10.00">Grid.getGrid</text>
</a>
</g>
</g>
<!-- Node32&#45;&gt;Node33 -->
<g id="edge40" class="edge"><title>Node32&#45;&gt;Node33</title>
<path fill="none" stroke="midnightblue" d="M343.056,-48C371.694,-48 402.908,-48 427.675,-48"/>
<polygon fill="midnightblue" stroke="midnightblue" points="427.868,-51.5001 437.868,-48 427.868,-44.5001 427.868,-51.5001"/>
</g>
<!-- Node34 -->
<g id="node34" class="node"><title>Node34</title>
<g id="a_node34"><a xlink:href="../../d4/d92/class_grid_factory.html#a3c5221912f2534ff2cf8cacb935e7fc9" target="_top" xlink:title="GridFactory.createGrid">
<polygon fill="white" stroke="black" points="414,-0.5 414,-19.5 536,-19.5 536,-0.5 414,-0.5"/>
<text text-anchor="middle" x="475" y="-7.5" font-family="Helvetica,sans-Serif" font-size="10.00">GridFactory.createGrid</text>
</a>
</g>
</g>
<!-- Node32&#45;&gt;Node34 -->
<g id="edge41" class="edge"><title>Node32&#45;&gt;Node34</title>
<path fill="none" stroke="midnightblue" d="M315.223,-38.46C344.205,-33.2652 380.253,-26.8037 410.673,-21.3511"/>
<polygon fill="midnightblue" stroke="midnightblue" points="411.53,-24.7534 420.755,-19.5439 410.295,-17.8632 411.53,-24.7534"/>
</g>
</g>
</svg>
