<?xml version="1.0" encoding="UTF-8" standalone="no"?>
<!DOCTYPE svg PUBLIC "-//W3C//DTD SVG 1.1//EN"
 "http://www.w3.org/Graphics/SVG/1.1/DTD/svg11.dtd">
<!-- Generated by graphviz version 2.36.0 (20140111.2315)
 -->
<!-- Title: CellSociety.decreaseFrameRate Pages: 1 -->
<svg width="1124pt" height="230pt"
 viewBox="0.00 0.00 1124.00 230.00" xmlns="http://www.w3.org/2000/svg" xmlns:xlink="http://www.w3.org/1999/xlink">
<g id="graph0" class="graph" transform="scale(1 1) rotate(0) translate(4 226)">
<title>CellSociety.decreaseFrameRate</title>
<polygon fill="white" stroke="none" points="-4,4 -4,-226 1120,-226 1120,4 -4,4"/>
<!-- Node1 -->
<g id="node1" class="node"><title>Node1</title>
<polygon fill="#bfbfbf" stroke="black" points="0.5,-87.5 0.5,-106.5 167.5,-106.5 167.5,-87.5 0.5,-87.5"/>
<text text-anchor="middle" x="84" y="-94.5" font-family="Helvetica,sans-Serif" font-size="10.00">CellSociety.decreaseFrameRate</text>
</g>
<!-- Node2 -->
<g id="node2" class="node"><title>Node2</title>
<g id="a_node2"><a xlink:href="../../d3/dff/class_cell_society.html#adc5feda3db5472cea4e092d463681033" target="_top" xlink:title="CellSociety.reframeTimeline">
<polygon fill="white" stroke="black" points="204.5,-87.5 204.5,-106.5 353.5,-106.5 353.5,-87.5 204.5,-87.5"/>
<text text-anchor="middle" x="279" y="-94.5" font-family="Helvetica,sans-Serif" font-size="10.00">CellSociety.reframeTimeline</text>
</a>
</g>
</g>
<!-- Node1&#45;&gt;Node2 -->
<g id="edge1" class="edge"><title>Node1&#45;&gt;Node2</title>
<path fill="none" stroke="midnightblue" d="M167.689,-97C176.44,-97 185.346,-97 194.11,-97"/>
<polygon fill="midnightblue" stroke="midnightblue" points="194.316,-100.5 204.316,-97 194.316,-93.5001 194.316,-100.5"/>
</g>
<!-- Node3 -->
<g id="node3" class="node"><title>Node3</title>
<g id="a_node3"><a xlink:href="../../df/df8/class_cell_society_view.html#a99eb733c00ed7c1bcba8f2d684791a09" target="_top" xlink:title="CellSocietyView.displayFrameRate">
<polygon fill="white" stroke="black" points="390,-106.5 390,-125.5 568,-125.5 568,-106.5 390,-106.5"/>
<text text-anchor="middle" x="479" y="-113.5" font-family="Helvetica,sans-Serif" font-size="10.00">CellSocietyView.displayFrameRate</text>
</a>
</g>
</g>
<!-- Node2&#45;&gt;Node3 -->
<g id="edge2" class="edge"><title>Node2&#45;&gt;Node3</title>
<path fill="none" stroke="midnightblue" d="M353.728,-104.075C362.184,-104.886 370.903,-105.723 379.616,-106.559"/>
<polygon fill="midnightblue" stroke="midnightblue" points="379.537,-110.068 389.825,-107.539 380.206,-103.1 379.537,-110.068"/>
</g>
<!-- Node4 -->
<g id="node4" class="node"><title>Node4</title>
<g id="a_node4"><a xlink:href="../../d3/dff/class_cell_society.html#abf13a64ee79f2cb063447b499c695c58" target="_top" xlink:title="CellSociety.start">
<polygon fill="white" stroke="black" points="432.5,-68.5 432.5,-87.5 525.5,-87.5 525.5,-68.5 432.5,-68.5"/>
<text text-anchor="middle" x="479" y="-75.5" font-family="Helvetica,sans-Serif" font-size="10.00">CellSociety.start</text>
</a>
</g>
</g>
<!-- Node2&#45;&gt;Node4 -->
<g id="edge3" class="edge"><title>Node2&#45;&gt;Node4</title>
<path fill="none" stroke="midnightblue" d="M353.728,-89.9251C376.405,-87.749 400.978,-85.391 422.24,-83.3507"/>
<polygon fill="midnightblue" stroke="midnightblue" points="422.768,-86.8162 432.388,-82.3769 422.1,-79.8482 422.768,-86.8162"/>
</g>
<!-- Node5 -->
<g id="node5" class="node"><title>Node5</title>
<g id="a_node5"><a xlink:href="../../d3/dff/class_cell_society.html#a0ff19c30a1cc433d8ea8444f6a5617f1" target="_top" xlink:title="CellSociety.updateGrid">
<polygon fill="white" stroke="black" points="604,-68.5 604,-87.5 728,-87.5 728,-68.5 604,-68.5"/>
<text text-anchor="middle" x="666" y="-75.5" font-family="Helvetica,sans-Serif" font-size="10.00">CellSociety.updateGrid</text>
</a>
</g>
</g>
<!-- Node4&#45;&gt;Node5 -->
<g id="edge4" class="edge"><title>Node4&#45;&gt;Node5</title>
<path fill="none" stroke="midnightblue" d="M525.73,-78C546.236,-78 570.903,-78 593.743,-78"/>
<polygon fill="midnightblue" stroke="midnightblue" points="593.743,-81.5001 603.743,-78 593.743,-74.5001 593.743,-81.5001"/>
</g>
<!-- Node6 -->
<g id="node6" class="node"><title>Node6</title>
<g id="a_node6"><a xlink:href="../../d6/d6e/class_sim_controller.html#a10145cee2eaceb4ecad9396a825051d1" target="_top" xlink:title="SimController.runOneSim">
<polygon fill="white" stroke="black" points="778,-147.5 778,-166.5 916,-166.5 916,-147.5 778,-147.5"/>
<text text-anchor="middle" x="847" y="-154.5" font-family="Helvetica,sans-Serif" font-size="10.00">SimController.runOneSim</text>
</a>
</g>
</g>
<!-- Node5&#45;&gt;Node6 -->
<g id="edge5" class="edge"><title>Node5&#45;&gt;Node6</title>
<path fill="none" stroke="midnightblue" d="M688.592,-87.5292C720.04,-101.409 778.623,-127.264 814.772,-143.218"/>
<polygon fill="midnightblue" stroke="midnightblue" points="813.77,-146.601 824.332,-147.437 816.596,-140.197 813.77,-146.601"/>
</g>
<!-- Node10 -->
<g id="node10" class="node"><title>Node10</title>
<g id="a_node10"><a xlink:href="../../df/df8/class_cell_society_view.html#a43ac2666d3a002024be53fe74028a576" target="_top" xlink:title="CellSocietyView.updateSimGrid">
<polygon fill="white" stroke="black" points="764.5,-87.5 764.5,-106.5 929.5,-106.5 929.5,-87.5 764.5,-87.5"/>
<text text-anchor="middle" x="847" y="-94.5" font-family="Helvetica,sans-Serif" font-size="10.00">CellSocietyView.updateSimGrid</text>
</a>
</g>
</g>
<!-- Node5&#45;&gt;Node10 -->
<g id="edge9" class="edge"><title>Node5&#45;&gt;Node10</title>
<path fill="none" stroke="midnightblue" d="M728.101,-84.4856C736.563,-85.3838 745.404,-86.3222 754.273,-87.2636"/>
<polygon fill="midnightblue" stroke="midnightblue" points="753.967,-90.7507 764.281,-88.3259 754.706,-83.7898 753.967,-90.7507"/>
</g>
<!-- Node12 -->
<g id="node12" class="node"><title>Node12</title>
<g id="a_node12"><a xlink:href="../../d2/d95/class_x_m_l_parser.html#ac4e3257aed1deb9fe950149f706fce5b" target="_top" xlink:title="XMLParser.getCellParamList">
<polygon fill="white" stroke="black" points="772.5,-49.5 772.5,-68.5 921.5,-68.5 921.5,-49.5 772.5,-49.5"/>
<text text-anchor="middle" x="847" y="-56.5" font-family="Helvetica,sans-Serif" font-size="10.00">XMLParser.getCellParamList</text>
</a>
</g>
</g>
<!-- Node5&#45;&gt;Node12 -->
<g id="edge11" class="edge"><title>Node5&#45;&gt;Node12</title>
<path fill="none" stroke="midnightblue" d="M728.101,-71.5144C739.146,-70.342 750.835,-69.1013 762.392,-67.8746"/>
<polygon fill="midnightblue" stroke="midnightblue" points="762.92,-71.3383 772.495,-66.8022 762.181,-64.3774 762.92,-71.3383"/>
</g>
<!-- Node13 -->
<g id="node13" class="node"><title>Node13</title>
<g id="a_node13"><a xlink:href="../../df/df8/class_cell_society_view.html#a7ca77bdfdef97e9be9c9941c2f4d3513" target="_top" xlink:title="CellSocietyView.updateChart\lLines">
<polygon fill="white" stroke="black" points="770.5,-0 770.5,-30 923.5,-30 923.5,-0 770.5,-0"/>
<text text-anchor="start" x="778.5" y="-18" font-family="Helvetica,sans-Serif" font-size="10.00">CellSocietyView.updateChart</text>
<text text-anchor="middle" x="847" y="-7" font-family="Helvetica,sans-Serif" font-size="10.00">Lines</text>
</a>
</g>
</g>
<!-- Node5&#45;&gt;Node13 -->
<g id="edge12" class="edge"><title>Node5&#45;&gt;Node13</title>
<path fill="none" stroke="midnightblue" d="M689.939,-68.4332C709.477,-60.4252 738.375,-48.9104 764,-40 770.517,-37.7339 777.363,-35.4686 784.204,-33.2783"/>
<polygon fill="midnightblue" stroke="midnightblue" points="785.702,-36.4762 794.187,-30.1314 783.597,-29.8 785.702,-36.4762"/>
</g>
<!-- Node7 -->
<g id="node7" class="node"><title>Node7</title>
<g id="a_node7"><a xlink:href="../../dd/ddd/class_neighbor.html#ac769186595af20512a2ec4754db75640" target="_top" xlink:title="Neighbor.getNeighbors">
<polygon fill="white" stroke="black" points="977.5,-202.5 977.5,-221.5 1104.5,-221.5 1104.5,-202.5 977.5,-202.5"/>
<text text-anchor="middle" x="1041" y="-209.5" font-family="Helvetica,sans-Serif" font-size="10.00">Neighbor.getNeighbors</text>
</a>
</g>
</g>
<!-- Node6&#45;&gt;Node7 -->
<g id="edge6" class="edge"><title>Node6&#45;&gt;Node7</title>
<path fill="none" stroke="midnightblue" d="M879.492,-166.568C903.227,-173.724 936.601,-183.669 966,-192 975.027,-194.558 984.694,-197.224 993.964,-199.744"/>
<polygon fill="midnightblue" stroke="midnightblue" points="993.251,-203.177 1003.82,-202.41 995.079,-196.42 993.251,-203.177"/>
</g>
<!-- Node8 -->
<g id="node8" class="node"><title>Node8</title>
<g id="a_node8"><a xlink:href="../../d6/d6e/class_sim_controller.html#a1538c5c647988e5d5b6602c8eb1b8949" target="_top" xlink:title="SimController.getNeighbors\lState">
<polygon fill="white" stroke="black" points="966.5,-153 966.5,-183 1115.5,-183 1115.5,-153 966.5,-153"/>
<text text-anchor="start" x="974.5" y="-171" font-family="Helvetica,sans-Serif" font-size="10.00">SimController.getNeighbors</text>
<text text-anchor="middle" x="1041" y="-160" font-family="Helvetica,sans-Serif" font-size="10.00">State</text>
</a>
</g>
</g>
<!-- Node6&#45;&gt;Node8 -->
<g id="edge7" class="edge"><title>Node6&#45;&gt;Node8</title>
<path fill="none" stroke="midnightblue" d="M916.233,-160.909C929.202,-161.652 942.912,-162.438 956.297,-163.205"/>
<polygon fill="midnightblue" stroke="midnightblue" points="956.268,-166.709 966.452,-163.786 956.669,-159.72 956.268,-166.709"/>
</g>
<!-- Node9 -->
<g id="node9" class="node"><title>Node9</title>
<g id="a_node9"><a xlink:href="../../d6/d6e/class_sim_controller.html#a6b7a166a6fd312895c8356d24de980e3" target="_top" xlink:title="SimController.newState">
<polygon fill="white" stroke="black" points="976.5,-114.5 976.5,-133.5 1105.5,-133.5 1105.5,-114.5 976.5,-114.5"/>
<text text-anchor="middle" x="1041" y="-121.5" font-family="Helvetica,sans-Serif" font-size="10.00">SimController.newState</text>
</a>
</g>
</g>
<!-- Node6&#45;&gt;Node9 -->
<g id="edge8" class="edge"><title>Node6&#45;&gt;Node9</title>
<path fill="none" stroke="midnightblue" d="M903.277,-147.499C925.472,-143.684 951.233,-139.257 974.369,-135.28"/>
<polygon fill="midnightblue" stroke="midnightblue" points="975.186,-138.691 984.449,-133.548 974,-131.792 975.186,-138.691"/>
</g>
<!-- Node11 -->
<g id="node11" class="node"><title>Node11</title>
<g id="a_node11"><a xlink:href="../../dd/d11/class_cell.html#a1e0ece61fecc69a9b7986d17d925434a" target="_top" xlink:title="Cell.getShape">
<polygon fill="white" stroke="black" points="999.5,-76.5 999.5,-95.5 1082.5,-95.5 1082.5,-76.5 999.5,-76.5"/>
<text text-anchor="middle" x="1041" y="-83.5" font-family="Helvetica,sans-Serif" font-size="10.00">Cell.getShape</text>
</a>
</g>
</g>
<!-- Node10&#45;&gt;Node11 -->
<g id="edge10" class="edge"><title>Node10&#45;&gt;Node11</title>
<path fill="none" stroke="midnightblue" d="M929.704,-92.3191C949.933,-91.1601 971.029,-89.9514 989.29,-88.9053"/>
<polygon fill="midnightblue" stroke="midnightblue" points="989.618,-92.3923 999.401,-88.326 989.217,-85.4038 989.618,-92.3923"/>
</g>
</g>
</svg>
