<?xml version="1.0" encoding="UTF-8" standalone="no"?>
<!DOCTYPE svg PUBLIC "-//W3C//DTD SVG 1.1//EN"
 "http://www.w3.org/Graphics/SVG/1.1/DTD/svg11.dtd">
<!-- Generated by graphviz version 2.36.0 (20140111.2315)
 -->
<!-- Title: CellSociety.start Pages: 1 -->
<svg width="846pt" height="104pt"
 viewBox="0.00 0.00 846.00 104.00" xmlns="http://www.w3.org/2000/svg" xmlns:xlink="http://www.w3.org/1999/xlink">
<g id="graph0" class="graph" transform="scale(1 1) rotate(0) translate(4 100)">
<title>CellSociety.start</title>
<polygon fill="white" stroke="none" points="-4,4 -4,-100 842,-100 842,4 -4,4"/>
<!-- Node1 -->
<g id="node1" class="node"><title>Node1</title>
<polygon fill="#bfbfbf" stroke="black" points="0.5,-19.5 0.5,-38.5 93.5,-38.5 93.5,-19.5 0.5,-19.5"/>
<text text-anchor="middle" x="47" y="-26.5" font-family="Helvetica,sans-Serif" font-size="10.00">CellSociety.start</text>
</g>
<!-- Node2 -->
<g id="node2" class="node"><title>Node2</title>
<g id="a_node2"><a xlink:href="../../d3/dff/class_cell_society.html#adc5feda3db5472cea4e092d463681033" target="_top" xlink:title="CellSociety.reframeTimeline">
<polygon fill="white" stroke="black" points="130.5,-38.5 130.5,-57.5 279.5,-57.5 279.5,-38.5 130.5,-38.5"/>
<text text-anchor="middle" x="205" y="-45.5" font-family="Helvetica,sans-Serif" font-size="10.00">CellSociety.reframeTimeline</text>
</a>
</g>
</g>
<!-- Node1&#45;&gt;Node2 -->
<g id="edge1" class="edge"><title>Node1&#45;&gt;Node2</title>
<path fill="none" stroke="midnightblue" d="M103.497,-35.7593C112.162,-36.8146 121.231,-37.9192 130.226,-39.0147"/>
<polygon fill="midnightblue" stroke="midnightblue" points="103.891,-32.2814 93.541,-34.5467 103.044,-39.2301 103.891,-32.2814"/>
</g>
<!-- Node7 -->
<g id="node7" class="node"><title>Node7</title>
<g id="a_node7"><a xlink:href="../../d3/dff/class_cell_society.html#ab9e56a2a70e210e021b51e898508329b" target="_top" xlink:title="CellSociety.setupAnimation">
<polygon fill="white" stroke="black" points="132,-0.5 132,-19.5 278,-19.5 278,-0.5 132,-0.5"/>
<text text-anchor="middle" x="205" y="-7.5" font-family="Helvetica,sans-Serif" font-size="10.00">CellSociety.setupAnimation</text>
</a>
</g>
</g>
<!-- Node1&#45;&gt;Node7 -->
<g id="edge7" class="edge"><title>Node1&#45;&gt;Node7</title>
<path fill="none" stroke="midnightblue" d="M103.678,-22.2186C112.854,-21.1012 122.479,-19.9289 131.984,-18.7711"/>
<polygon fill="midnightblue" stroke="midnightblue" points="103.044,-18.7699 93.541,-23.4533 103.891,-25.7186 103.044,-18.7699"/>
</g>
<!-- Node3 -->
<g id="node3" class="node"><title>Node3</title>
<g id="a_node3"><a xlink:href="../../d3/dff/class_cell_society.html#a045267ba1843ca4a47891d7be73c2ac1" target="_top" xlink:title="CellSociety.decreaseFrameRate">
<polygon fill="white" stroke="black" points="316.5,-76.5 316.5,-95.5 483.5,-95.5 483.5,-76.5 316.5,-76.5"/>
<text text-anchor="middle" x="400" y="-83.5" font-family="Helvetica,sans-Serif" font-size="10.00">CellSociety.decreaseFrameRate</text>
</a>
</g>
</g>
<!-- Node2&#45;&gt;Node3 -->
<g id="edge2" class="edge"><title>Node2&#45;&gt;Node3</title>
<path fill="none" stroke="midnightblue" d="M264.602,-59.5381C292.129,-64.958 324.548,-71.341 350.648,-76.4799"/>
<polygon fill="midnightblue" stroke="midnightblue" points="265.19,-56.0868 254.702,-57.589 263.838,-62.955 265.19,-56.0868"/>
</g>
<!-- Node6 -->
<g id="node6" class="node"><title>Node6</title>
<g id="a_node6"><a xlink:href="../../d3/dff/class_cell_society.html#a8250bfacdaf51dabf6b9d1cafc0ce9b2" target="_top" xlink:title="CellSociety.increaseFrameRate">
<polygon fill="white" stroke="black" points="318.5,-38.5 318.5,-57.5 481.5,-57.5 481.5,-38.5 318.5,-38.5"/>
<text text-anchor="middle" x="400" y="-45.5" font-family="Helvetica,sans-Serif" font-size="10.00">CellSociety.increaseFrameRate</text>
</a>
</g>
</g>
<!-- Node2&#45;&gt;Node6 -->
<g id="edge5" class="edge"><title>Node2&#45;&gt;Node6</title>
<path fill="none" stroke="midnightblue" d="M289.719,-48C299.198,-48 308.845,-48 318.285,-48"/>
<polygon fill="midnightblue" stroke="midnightblue" points="289.516,-44.5001 279.516,-48 289.516,-51.5001 289.516,-44.5001"/>
</g>
<!-- Node4 -->
<g id="node4" class="node"><title>Node4</title>
<g id="a_node4"><a xlink:href="../../d3/dff/class_cell_society.html#a656ff46d1459fb7f86b42e3c542506ee" target="_top" xlink:title="CellSociety.configureListeners">
<polygon fill="white" stroke="black" points="520,-38.5 520,-57.5 678,-57.5 678,-38.5 520,-38.5"/>
<text text-anchor="middle" x="599" y="-45.5" font-family="Helvetica,sans-Serif" font-size="10.00">CellSociety.configureListeners</text>
</a>
</g>
</g>
<!-- Node3&#45;&gt;Node4 -->
<g id="edge3" class="edge"><title>Node3&#45;&gt;Node4</title>
<path fill="none" stroke="midnightblue" d="M460.564,-74.5106C488.672,-69.0886 521.822,-62.6942 548.523,-57.5439"/>
<polygon fill="midnightblue" stroke="midnightblue" points="459.613,-71.1293 450.457,-76.46 460.939,-78.0026 459.613,-71.1293"/>
</g>
<!-- Node5 -->
<g id="node5" class="node"><title>Node5</title>
<g id="a_node5"><a xlink:href="../../d3/dff/class_cell_society.html#ac5e08680a3da358d402461bc25aa1727" target="_top" xlink:title="CellSociety.CellSociety">
<polygon fill="white" stroke="black" points="714.5,-38.5 714.5,-57.5 837.5,-57.5 837.5,-38.5 714.5,-38.5"/>
<text text-anchor="middle" x="776" y="-45.5" font-family="Helvetica,sans-Serif" font-size="10.00">CellSociety.CellSociety</text>
</a>
</g>
</g>
<!-- Node4&#45;&gt;Node5 -->
<g id="edge4" class="edge"><title>Node4&#45;&gt;Node5</title>
<path fill="none" stroke="midnightblue" d="M688.087,-48C697.007,-48 705.919,-48 714.452,-48"/>
<polygon fill="midnightblue" stroke="midnightblue" points="688.032,-44.5001 678.032,-48 688.032,-51.5001 688.032,-44.5001"/>
</g>
<!-- Node6&#45;&gt;Node4 -->
<g id="edge6" class="edge"><title>Node6&#45;&gt;Node4</title>
<path fill="none" stroke="midnightblue" d="M491.842,-48C501.24,-48 510.733,-48 519.974,-48"/>
<polygon fill="midnightblue" stroke="midnightblue" points="491.696,-44.5001 481.696,-48 491.696,-51.5001 491.696,-44.5001"/>
</g>
<!-- Node8 -->
<g id="node8" class="node"><title>Node8</title>
<g id="a_node8"><a xlink:href="../../d3/dff/class_cell_society.html#af9f22af39a97a58b26126020ca6c8844" target="_top" xlink:title="CellSociety.readNewXML">
<polygon fill="white" stroke="black" points="334,-0.5 334,-19.5 466,-19.5 466,-0.5 334,-0.5"/>
<text text-anchor="middle" x="400" y="-7.5" font-family="Helvetica,sans-Serif" font-size="10.00">CellSociety.readNewXML</text>
</a>
</g>
</g>
<!-- Node7&#45;&gt;Node8 -->
<g id="edge8" class="edge"><title>Node7&#45;&gt;Node8</title>
<path fill="none" stroke="midnightblue" d="M288.552,-10C303.727,-10 319.372,-10 333.943,-10"/>
<polygon fill="midnightblue" stroke="midnightblue" points="288.141,-6.5001 278.141,-10 288.141,-13.5001 288.141,-6.5001"/>
</g>
<!-- Node8&#45;&gt;Node4 -->
<g id="edge9" class="edge"><title>Node8&#45;&gt;Node4</title>
<path fill="none" stroke="midnightblue" d="M460.564,-21.4894C488.672,-26.9114 521.822,-33.3058 548.523,-38.4561"/>
<polygon fill="midnightblue" stroke="midnightblue" points="460.939,-17.9974 450.457,-19.54 459.613,-24.8707 460.939,-17.9974"/>
</g>
</g>
</svg>
