<?xml version="1.0" encoding="UTF-8" standalone="no"?>
<!DOCTYPE svg PUBLIC "-//W3C//DTD SVG 1.1//EN"
 "http://www.w3.org/Graphics/SVG/1.1/DTD/svg11.dtd">
<!-- Generated by graphviz version 2.36.0 (20140111.2315)
 -->
<!-- Title: CellSociety.configureListeners Pages: 1 -->
<svg width="1394pt" height="720pt"
 viewBox="0.00 0.00 1394.00 720.34" xmlns="http://www.w3.org/2000/svg" xmlns:xlink="http://www.w3.org/1999/xlink">
<g id="graph0" class="graph" transform="scale(1 1) rotate(0) translate(4 716.345)">
<title>CellSociety.configureListeners</title>
<polygon fill="white" stroke="none" points="-4,4 -4,-716.345 1390,-716.345 1390,4 -4,4"/>
<!-- Node1 -->
<g id="node1" class="node"><title>Node1</title>
<polygon fill="#bfbfbf" stroke="black" points="0,-241.5 0,-260.5 158,-260.5 158,-241.5 0,-241.5"/>
<text text-anchor="middle" x="79" y="-248.5" font-family="Helvetica,sans-Serif" font-size="10.00">CellSociety.configureListeners</text>
</g>
<!-- Node2 -->
<g id="node2" class="node"><title>Node2</title>
<g id="a_node2"><a xlink:href="../../d3/dff/class_cell_society.html#a045267ba1843ca4a47891d7be73c2ac1" target="_top" xlink:title="CellSociety.decreaseFrameRate">
<polygon fill="white" stroke="black" points="196.5,-558.5 196.5,-577.5 363.5,-577.5 363.5,-558.5 196.5,-558.5"/>
<text text-anchor="middle" x="280" y="-565.5" font-family="Helvetica,sans-Serif" font-size="10.00">CellSociety.decreaseFrameRate</text>
</a>
</g>
</g>
<!-- Node1&#45;&gt;Node2 -->
<g id="edge1" class="edge"><title>Node1&#45;&gt;Node2</title>
<path fill="none" stroke="midnightblue" d="M82.6808,-260.97C92.6132,-296.562 130.081,-419.578 194,-501 210.752,-522.338 235.643,-540.918 254.166,-553.064"/>
<polygon fill="midnightblue" stroke="midnightblue" points="252.37,-556.07 262.683,-558.494 256.132,-550.167 252.37,-556.07"/>
</g>
<!-- Node6 -->
<g id="node6" class="node"><title>Node6</title>
<g id="a_node6"><a xlink:href="../../d3/dff/class_cell_society.html#a0ff19c30a1cc433d8ea8444f6a5617f1" target="_top" xlink:title="CellSociety.updateGrid">
<polygon fill="white" stroke="black" points="856,-488.5 856,-507.5 980,-507.5 980,-488.5 856,-488.5"/>
<text text-anchor="middle" x="918" y="-495.5" font-family="Helvetica,sans-Serif" font-size="10.00">CellSociety.updateGrid</text>
</a>
</g>
</g>
<!-- Node1&#45;&gt;Node6 -->
<g id="edge51" class="edge"><title>Node1&#45;&gt;Node6</title>
<path fill="none" stroke="midnightblue" d="M80.0788,-260.508C80.991,-304.989 90.9942,-494.267 194,-587 395.041,-767.991 557.405,-730.535 802,-615 848.765,-592.91 887.049,-543.289 905.354,-516.309"/>
<polygon fill="midnightblue" stroke="midnightblue" points="908.387,-518.067 910.976,-507.793 902.546,-514.21 908.387,-518.067"/>
</g>
<!-- Node15 -->
<g id="node15" class="node"><title>Node15</title>
<g id="a_node15"><a xlink:href="../../df/df8/class_cell_society_view.html#ada088eb9125561f8dd941badb141fa86" target="_top" xlink:title="CellSocietyView.getPause\lElement">
<polygon fill="white" stroke="black" points="211.5,-214 211.5,-244 348.5,-244 348.5,-214 211.5,-214"/>
<text text-anchor="start" x="219.5" y="-232" font-family="Helvetica,sans-Serif" font-size="10.00">CellSocietyView.getPause</text>
<text text-anchor="middle" x="280" y="-221" font-family="Helvetica,sans-Serif" font-size="10.00">Element</text>
</a>
</g>
</g>
<!-- Node1&#45;&gt;Node15 -->
<g id="edge14" class="edge"><title>Node1&#45;&gt;Node15</title>
<path fill="none" stroke="midnightblue" d="M158.079,-242.368C172.274,-240.799 187.079,-239.162 201.264,-237.594"/>
<polygon fill="midnightblue" stroke="midnightblue" points="201.91,-241.044 211.465,-236.466 201.141,-234.086 201.91,-241.044"/>
</g>
<!-- Node16 -->
<g id="node16" class="node"><title>Node16</title>
<g id="a_node16"><a xlink:href="../../df/df8/class_cell_society_view.html#aae7c36ea6b5215b0ba9ee01c72dfcb94" target="_top" xlink:title="CellSocietyView.getPlayElement">
<polygon fill="white" stroke="black" points="196,-175.5 196,-194.5 364,-194.5 364,-175.5 196,-175.5"/>
<text text-anchor="middle" x="280" y="-182.5" font-family="Helvetica,sans-Serif" font-size="10.00">CellSocietyView.getPlayElement</text>
</a>
</g>
</g>
<!-- Node1&#45;&gt;Node16 -->
<g id="edge15" class="edge"><title>Node1&#45;&gt;Node16</title>
<path fill="none" stroke="midnightblue" d="M101.076,-241.365C123.692,-231.295 160.842,-215.523 194,-205 203.223,-202.073 213.131,-199.362 222.809,-196.942"/>
<polygon fill="midnightblue" stroke="midnightblue" points="223.878,-200.284 232.773,-194.528 222.23,-193.481 223.878,-200.284"/>
</g>
<!-- Node17 -->
<g id="node17" class="node"><title>Node17</title>
<g id="a_node17"><a xlink:href="../../df/df8/class_cell_society_view.html#a0f616a01579a7293ef781d3e341ea1ac" target="_top" xlink:title="CellSocietyView.getSlowdown\lElement">
<polygon fill="white" stroke="black" points="202.5,-126 202.5,-156 357.5,-156 357.5,-126 202.5,-126"/>
<text text-anchor="start" x="210.5" y="-144" font-family="Helvetica,sans-Serif" font-size="10.00">CellSocietyView.getSlowdown</text>
<text text-anchor="middle" x="280" y="-133" font-family="Helvetica,sans-Serif" font-size="10.00">Element</text>
</a>
</g>
</g>
<!-- Node1&#45;&gt;Node17 -->
<g id="edge16" class="edge"><title>Node1&#45;&gt;Node17</title>
<path fill="none" stroke="midnightblue" d="M90.158,-241.419C109.121,-224.018 151.819,-187.076 194,-166 198.612,-163.696 203.473,-161.566 208.439,-159.605"/>
<polygon fill="midnightblue" stroke="midnightblue" points="209.915,-162.791 218.081,-156.041 207.487,-156.226 209.915,-162.791"/>
</g>
<!-- Node18 -->
<g id="node18" class="node"><title>Node18</title>
<g id="a_node18"><a xlink:href="../../df/df8/class_cell_society_view.html#a572d464cbe7d186dc9a5b0e4a8130689" target="_top" xlink:title="CellSocietyView.getSpeedup\lElement">
<polygon fill="white" stroke="black" points="204,-77 204,-107 356,-107 356,-77 204,-77"/>
<text text-anchor="start" x="212" y="-95" font-family="Helvetica,sans-Serif" font-size="10.00">CellSocietyView.getSpeedup</text>
<text text-anchor="middle" x="280" y="-84" font-family="Helvetica,sans-Serif" font-size="10.00">Element</text>
</a>
</g>
</g>
<!-- Node1&#45;&gt;Node18 -->
<g id="edge17" class="edge"><title>Node1&#45;&gt;Node18</title>
<path fill="none" stroke="midnightblue" d="M85.5182,-241.225C99.9743,-216.515 141.487,-151.102 194,-117 197.153,-114.953 200.478,-113.068 203.914,-111.335"/>
<polygon fill="midnightblue" stroke="midnightblue" points="205.58,-114.422 213.227,-107.089 202.676,-108.053 205.58,-114.422"/>
</g>
<!-- Node19 -->
<g id="node19" class="node"><title>Node19</title>
<g id="a_node19"><a xlink:href="../../df/df8/class_cell_society_view.html#a3c3a7039f77d392c374cd309967ca1cc" target="_top" xlink:title="CellSocietyView.getStepElement">
<polygon fill="white" stroke="black" points="194.5,-38.5 194.5,-57.5 365.5,-57.5 365.5,-38.5 194.5,-38.5"/>
<text text-anchor="middle" x="280" y="-45.5" font-family="Helvetica,sans-Serif" font-size="10.00">CellSocietyView.getStepElement</text>
</a>
</g>
</g>
<!-- Node1&#45;&gt;Node19 -->
<g id="edge18" class="edge"><title>Node1&#45;&gt;Node19</title>
<path fill="none" stroke="midnightblue" d="M83.0468,-241.096C93.1649,-209.959 128.763,-113.378 194,-67 196.711,-65.0725 199.584,-63.3359 202.571,-61.7718"/>
<polygon fill="midnightblue" stroke="midnightblue" points="204.162,-64.8934 211.826,-57.5779 201.273,-58.5175 204.162,-64.8934"/>
</g>
<!-- Node20 -->
<g id="node20" class="node"><title>Node20</title>
<g id="a_node20"><a xlink:href="../../df/df8/class_cell_society_view.html#aebad9aaff0e9784fec1518d319e03c85" target="_top" xlink:title="CellSocietyView.getXMLElement">
<polygon fill="white" stroke="black" points="196,-0.5 196,-19.5 364,-19.5 364,-0.5 196,-0.5"/>
<text text-anchor="middle" x="280" y="-7.5" font-family="Helvetica,sans-Serif" font-size="10.00">CellSocietyView.getXMLElement</text>
</a>
</g>
</g>
<!-- Node1&#45;&gt;Node20 -->
<g id="edge19" class="edge"><title>Node1&#45;&gt;Node20</title>
<path fill="none" stroke="midnightblue" d="M81.9525,-241.117C89.426,-206.033 119.62,-86.507 194,-29 196.299,-27.2225 198.732,-25.6047 201.266,-24.1328"/>
<polygon fill="midnightblue" stroke="midnightblue" points="202.832,-27.263 210.221,-19.67 199.709,-20.9979 202.832,-27.263"/>
</g>
<!-- Node21 -->
<g id="node21" class="node"><title>Node21</title>
<g id="a_node21"><a xlink:href="../../d3/dff/class_cell_society.html#a8250bfacdaf51dabf6b9d1cafc0ce9b2" target="_top" xlink:title="CellSociety.increaseFrameRate">
<polygon fill="white" stroke="black" points="198.5,-472.5 198.5,-491.5 361.5,-491.5 361.5,-472.5 198.5,-472.5"/>
<text text-anchor="middle" x="280" y="-479.5" font-family="Helvetica,sans-Serif" font-size="10.00">CellSociety.increaseFrameRate</text>
</a>
</g>
</g>
<!-- Node1&#45;&gt;Node21 -->
<g id="edge20" class="edge"><title>Node1&#45;&gt;Node21</title>
<path fill="none" stroke="midnightblue" d="M88.2974,-260.632C118.767,-296.001 224.753,-419.03 264.124,-464.732"/>
<polygon fill="midnightblue" stroke="midnightblue" points="261.489,-467.035 270.667,-472.327 266.792,-462.466 261.489,-467.035"/>
</g>
<!-- Node22 -->
<g id="node22" class="node"><title>Node22</title>
<g id="a_node22"><a xlink:href="../../d3/dff/class_cell_society.html#ae565a305ea53e5a37da9816a236b4fbc" target="_top" xlink:title="CellSociety.pauseAnimation">
<polygon fill="white" stroke="black" points="420.5,-61.5 420.5,-80.5 569.5,-80.5 569.5,-61.5 420.5,-61.5"/>
<text text-anchor="middle" x="495" y="-68.5" font-family="Helvetica,sans-Serif" font-size="10.00">CellSociety.pauseAnimation</text>
</a>
</g>
</g>
<!-- Node1&#45;&gt;Node22 -->
<g id="edge22" class="edge"><title>Node1&#45;&gt;Node22</title>
<path fill="none" stroke="midnightblue" d="M95.8694,-260.638C143.132,-287.976 284.712,-359.779 366,-292 434.36,-235 341.449,-160.235 402,-95 405.4,-91.3365 409.284,-88.2039 413.488,-85.5278"/>
<polygon fill="midnightblue" stroke="midnightblue" points="415.381,-88.4835 422.517,-80.6522 412.055,-82.3242 415.381,-88.4835"/>
</g>
<!-- Node24 -->
<g id="node24" class="node"><title>Node24</title>
<g id="a_node24"><a xlink:href="../../d3/dff/class_cell_society.html#af9f22af39a97a58b26126020ca6c8844" target="_top" xlink:title="CellSociety.readNewXML">
<polygon fill="white" stroke="black" points="214,-339.5 214,-358.5 346,-358.5 346,-339.5 214,-339.5"/>
<text text-anchor="middle" x="280" y="-346.5" font-family="Helvetica,sans-Serif" font-size="10.00">CellSociety.readNewXML</text>
</a>
</g>
</g>
<!-- Node1&#45;&gt;Node24 -->
<g id="edge24" class="edge"><title>Node1&#45;&gt;Node24</title>
<path fill="none" stroke="midnightblue" d="M91.9427,-260.509C111.959,-276.029 154.025,-306.885 194,-325 204.052,-329.555 215.17,-333.446 225.96,-336.686"/>
<polygon fill="midnightblue" stroke="midnightblue" points="225.16,-340.097 235.737,-339.478 227.083,-333.366 225.16,-340.097"/>
</g>
<!-- Node40 -->
<g id="node40" class="node"><title>Node40</title>
<g id="a_node40"><a xlink:href="../../d3/dff/class_cell_society.html#a6a4056cd40e4162583f2b9845b77a191" target="_top" xlink:title="CellSociety.resumeAnimation">
<polygon fill="white" stroke="black" points="202,-263.5 202,-282.5 358,-282.5 358,-263.5 202,-263.5"/>
<text text-anchor="middle" x="280" y="-270.5" font-family="Helvetica,sans-Serif" font-size="10.00">CellSociety.resumeAnimation</text>
</a>
</g>
</g>
<!-- Node1&#45;&gt;Node40 -->
<g id="edge49" class="edge"><title>Node1&#45;&gt;Node40</title>
<path fill="none" stroke="midnightblue" d="M158.079,-259.632C169.083,-260.848 180.455,-262.106 191.62,-263.34"/>
<polygon fill="midnightblue" stroke="midnightblue" points="191.475,-266.845 201.799,-264.465 192.244,-259.887 191.475,-266.845"/>
</g>
<!-- Node3 -->
<g id="node3" class="node"><title>Node3</title>
<g id="a_node3"><a xlink:href="../../d3/dff/class_cell_society.html#adc5feda3db5472cea4e092d463681033" target="_top" xlink:title="CellSociety.reframeTimeline">
<polygon fill="white" stroke="black" points="420.5,-605.5 420.5,-624.5 569.5,-624.5 569.5,-605.5 420.5,-605.5"/>
<text text-anchor="middle" x="495" y="-612.5" font-family="Helvetica,sans-Serif" font-size="10.00">CellSociety.reframeTimeline</text>
</a>
</g>
</g>
<!-- Node2&#45;&gt;Node3 -->
<g id="edge2" class="edge"><title>Node2&#45;&gt;Node3</title>
<path fill="none" stroke="midnightblue" d="M324.104,-577.511C357.771,-584.94 404.729,-595.302 440.747,-603.249"/>
<polygon fill="midnightblue" stroke="midnightblue" points="440.076,-606.685 450.595,-605.422 441.584,-599.85 440.076,-606.685"/>
</g>
<!-- Node4 -->
<g id="node4" class="node"><title>Node4</title>
<g id="a_node4"><a xlink:href="../../df/df8/class_cell_society_view.html#a99eb733c00ed7c1bcba8f2d684791a09" target="_top" xlink:title="CellSocietyView.displayFrameRate">
<polygon fill="white" stroke="black" points="624,-586.5 624,-605.5 802,-605.5 802,-586.5 624,-586.5"/>
<text text-anchor="middle" x="713" y="-593.5" font-family="Helvetica,sans-Serif" font-size="10.00">CellSocietyView.displayFrameRate</text>
</a>
</g>
</g>
<!-- Node3&#45;&gt;Node4 -->
<g id="edge3" class="edge"><title>Node3&#45;&gt;Node4</title>
<path fill="none" stroke="midnightblue" d="M569.731,-608.514C583.831,-607.274 598.801,-605.957 613.533,-604.661"/>
<polygon fill="midnightblue" stroke="midnightblue" points="614.025,-608.132 623.68,-603.769 613.411,-601.159 614.025,-608.132"/>
</g>
<!-- Node5 -->
<g id="node5" class="node"><title>Node5</title>
<g id="a_node5"><a xlink:href="../../d3/dff/class_cell_society.html#abf13a64ee79f2cb063447b499c695c58" target="_top" xlink:title="CellSociety.start">
<polygon fill="white" stroke="black" points="666.5,-491.5 666.5,-510.5 759.5,-510.5 759.5,-491.5 666.5,-491.5"/>
<text text-anchor="middle" x="713" y="-498.5" font-family="Helvetica,sans-Serif" font-size="10.00">CellSociety.start</text>
</a>
</g>
</g>
<!-- Node3&#45;&gt;Node5 -->
<g id="edge4" class="edge"><title>Node3&#45;&gt;Node5</title>
<path fill="none" stroke="midnightblue" d="M514.045,-605.477C552.003,-585.443 640.287,-538.848 685.007,-515.246"/>
<polygon fill="midnightblue" stroke="midnightblue" points="686.645,-518.34 693.855,-510.577 683.377,-512.149 686.645,-518.34"/>
</g>
<!-- Node5&#45;&gt;Node6 -->
<g id="edge5" class="edge"><title>Node5&#45;&gt;Node6</title>
<path fill="none" stroke="midnightblue" d="M759.557,-500.327C784.856,-499.953 816.898,-499.479 845.463,-499.057"/>
<polygon fill="midnightblue" stroke="midnightblue" points="845.863,-502.552 855.81,-498.904 845.76,-495.553 845.863,-502.552"/>
</g>
<!-- Node7 -->
<g id="node7" class="node"><title>Node7</title>
<g id="a_node7"><a xlink:href="../../d6/d6e/class_sim_controller.html#a10145cee2eaceb4ecad9396a825051d1" target="_top" xlink:title="SimController.runOneSim">
<polygon fill="white" stroke="black" points="1048,-485.5 1048,-504.5 1186,-504.5 1186,-485.5 1048,-485.5"/>
<text text-anchor="middle" x="1117" y="-492.5" font-family="Helvetica,sans-Serif" font-size="10.00">SimController.runOneSim</text>
</a>
</g>
</g>
<!-- Node6&#45;&gt;Node7 -->
<g id="edge6" class="edge"><title>Node6&#45;&gt;Node7</title>
<path fill="none" stroke="midnightblue" d="M980.252,-497.067C998.443,-496.79 1018.62,-496.483 1037.74,-496.192"/>
<polygon fill="midnightblue" stroke="midnightblue" points="1037.98,-499.689 1047.92,-496.037 1037.87,-492.689 1037.98,-499.689"/>
</g>
<!-- Node11 -->
<g id="node11" class="node"><title>Node11</title>
<g id="a_node11"><a xlink:href="../../df/df8/class_cell_society_view.html#a43ac2666d3a002024be53fe74028a576" target="_top" xlink:title="CellSocietyView.updateSimGrid">
<polygon fill="white" stroke="black" points="1034.5,-330.5 1034.5,-349.5 1199.5,-349.5 1199.5,-330.5 1034.5,-330.5"/>
<text text-anchor="middle" x="1117" y="-337.5" font-family="Helvetica,sans-Serif" font-size="10.00">CellSocietyView.updateSimGrid</text>
</a>
</g>
</g>
<!-- Node6&#45;&gt;Node11 -->
<g id="edge10" class="edge"><title>Node6&#45;&gt;Node11</title>
<path fill="none" stroke="midnightblue" d="M931.027,-488.354C963.939,-461.958 1055.72,-388.343 1096.29,-355.807"/>
<polygon fill="midnightblue" stroke="midnightblue" points="1098.52,-358.507 1104.13,-349.52 1094.14,-353.046 1098.52,-358.507"/>
</g>
<!-- Node13 -->
<g id="node13" class="node"><title>Node13</title>
<g id="a_node13"><a xlink:href="../../d2/d95/class_x_m_l_parser.html#ac4e3257aed1deb9fe950149f706fce5b" target="_top" xlink:title="XMLParser.getCellParamList">
<polygon fill="white" stroke="black" points="1042.5,-213.5 1042.5,-232.5 1191.5,-232.5 1191.5,-213.5 1042.5,-213.5"/>
<text text-anchor="middle" x="1117" y="-220.5" font-family="Helvetica,sans-Serif" font-size="10.00">XMLParser.getCellParamList</text>
</a>
</g>
</g>
<!-- Node6&#45;&gt;Node13 -->
<g id="edge12" class="edge"><title>Node6&#45;&gt;Node13</title>
<path fill="none" stroke="midnightblue" d="M926.375,-488.467C940.845,-469.589 973.666,-425.904 998,-387 1015.72,-358.672 1015.19,-348.614 1034,-321 1054.56,-290.816 1082.59,-258.923 1099.98,-240.003"/>
<polygon fill="midnightblue" stroke="midnightblue" points="1102.7,-242.214 1106.94,-232.504 1097.57,-237.452 1102.7,-242.214"/>
</g>
<!-- Node14 -->
<g id="node14" class="node"><title>Node14</title>
<g id="a_node14"><a xlink:href="../../df/df8/class_cell_society_view.html#a7ca77bdfdef97e9be9c9941c2f4d3513" target="_top" xlink:title="CellSocietyView.updateChart\lLines">
<polygon fill="white" stroke="black" points="1040.5,-524 1040.5,-554 1193.5,-554 1193.5,-524 1040.5,-524"/>
<text text-anchor="start" x="1048.5" y="-542" font-family="Helvetica,sans-Serif" font-size="10.00">CellSocietyView.updateChart</text>
<text text-anchor="middle" x="1117" y="-531" font-family="Helvetica,sans-Serif" font-size="10.00">Lines</text>
</a>
</g>
</g>
<!-- Node6&#45;&gt;Node14 -->
<g id="edge13" class="edge"><title>Node6&#45;&gt;Node14</title>
<path fill="none" stroke="midnightblue" d="M964.691,-507.509C985.179,-511.773 1009.99,-516.938 1033.55,-521.841"/>
<polygon fill="midnightblue" stroke="midnightblue" points="1033.05,-525.311 1043.55,-523.922 1034.48,-518.458 1033.05,-525.311"/>
</g>
<!-- Node8 -->
<g id="node8" class="node"><title>Node8</title>
<g id="a_node8"><a xlink:href="../../dd/ddd/class_neighbor.html#ac769186595af20512a2ec4754db75640" target="_top" xlink:title="Neighbor.getNeighbors">
<polygon fill="white" stroke="black" points="1247.5,-447.5 1247.5,-466.5 1374.5,-466.5 1374.5,-447.5 1247.5,-447.5"/>
<text text-anchor="middle" x="1311" y="-454.5" font-family="Helvetica,sans-Serif" font-size="10.00">Neighbor.getNeighbors</text>
</a>
</g>
</g>
<!-- Node7&#45;&gt;Node8 -->
<g id="edge7" class="edge"><title>Node7&#45;&gt;Node8</title>
<path fill="none" stroke="midnightblue" d="M1166.45,-485.411C1192.47,-480.261 1224.73,-473.877 1252.07,-468.466"/>
<polygon fill="midnightblue" stroke="midnightblue" points="1252.77,-471.895 1261.9,-466.52 1251.41,-465.028 1252.77,-471.895"/>
</g>
<!-- Node9 -->
<g id="node9" class="node"><title>Node9</title>
<g id="a_node9"><a xlink:href="../../d6/d6e/class_sim_controller.html#a1538c5c647988e5d5b6602c8eb1b8949" target="_top" xlink:title="SimController.getNeighbors\lState">
<polygon fill="white" stroke="black" points="1236.5,-524 1236.5,-554 1385.5,-554 1385.5,-524 1236.5,-524"/>
<text text-anchor="start" x="1244.5" y="-542" font-family="Helvetica,sans-Serif" font-size="10.00">SimController.getNeighbors</text>
<text text-anchor="middle" x="1311" y="-531" font-family="Helvetica,sans-Serif" font-size="10.00">State</text>
</a>
</g>
</g>
<!-- Node7&#45;&gt;Node9 -->
<g id="edge8" class="edge"><title>Node7&#45;&gt;Node9</title>
<path fill="none" stroke="midnightblue" d="M1159.66,-504.547C1181.47,-509.545 1208.86,-515.822 1234.27,-521.644"/>
<polygon fill="midnightblue" stroke="midnightblue" points="1233.73,-525.112 1244.26,-523.935 1235.29,-518.289 1233.73,-525.112"/>
</g>
<!-- Node10 -->
<g id="node10" class="node"><title>Node10</title>
<g id="a_node10"><a xlink:href="../../d6/d6e/class_sim_controller.html#a6b7a166a6fd312895c8356d24de980e3" target="_top" xlink:title="SimController.newState">
<polygon fill="white" stroke="black" points="1246.5,-485.5 1246.5,-504.5 1375.5,-504.5 1375.5,-485.5 1246.5,-485.5"/>
<text text-anchor="middle" x="1311" y="-492.5" font-family="Helvetica,sans-Serif" font-size="10.00">SimController.newState</text>
</a>
</g>
</g>
<!-- Node7&#45;&gt;Node10 -->
<g id="edge9" class="edge"><title>Node7&#45;&gt;Node10</title>
<path fill="none" stroke="midnightblue" d="M1186.23,-495C1202.48,-495 1219.88,-495 1236.36,-495"/>
<polygon fill="midnightblue" stroke="midnightblue" points="1236.48,-498.5 1246.48,-495 1236.48,-491.5 1236.48,-498.5"/>
</g>
<!-- Node12 -->
<g id="node12" class="node"><title>Node12</title>
<g id="a_node12"><a xlink:href="../../dd/d11/class_cell.html#a1e0ece61fecc69a9b7986d17d925434a" target="_top" xlink:title="Cell.getShape">
<polygon fill="white" stroke="black" points="1269.5,-330.5 1269.5,-349.5 1352.5,-349.5 1352.5,-330.5 1269.5,-330.5"/>
<text text-anchor="middle" x="1311" y="-337.5" font-family="Helvetica,sans-Serif" font-size="10.00">Cell.getShape</text>
</a>
</g>
</g>
<!-- Node11&#45;&gt;Node12 -->
<g id="edge11" class="edge"><title>Node11&#45;&gt;Node12</title>
<path fill="none" stroke="midnightblue" d="M1199.7,-340C1219.93,-340 1241.03,-340 1259.29,-340"/>
<polygon fill="midnightblue" stroke="midnightblue" points="1259.4,-343.5 1269.4,-340 1259.4,-336.5 1259.4,-343.5"/>
</g>
<!-- Node21&#45;&gt;Node3 -->
<g id="edge21" class="edge"><title>Node21&#45;&gt;Node3</title>
<path fill="none" stroke="midnightblue" d="M294.917,-491.679C312.327,-504.069 342.682,-526.621 366,-549 383.738,-566.024 381.153,-577.968 402,-591 409.243,-595.528 417.318,-599.206 425.591,-602.193"/>
<polygon fill="midnightblue" stroke="midnightblue" points="424.765,-605.605 435.357,-605.391 426.943,-598.952 424.765,-605.605"/>
</g>
<!-- Node23 -->
<g id="node23" class="node"><title>Node23</title>
<g id="a_node23"><a xlink:href="../../df/df8/class_cell_society_view.html#ae83511f9bf3610b0750d41c4aeb0f778" target="_top" xlink:title="CellSocietyView.setButtons\lPause">
<polygon fill="white" stroke="black" points="640,-34 640,-64 786,-64 786,-34 640,-34"/>
<text text-anchor="start" x="648" y="-52" font-family="Helvetica,sans-Serif" font-size="10.00">CellSocietyView.setButtons</text>
<text text-anchor="middle" x="713" y="-41" font-family="Helvetica,sans-Serif" font-size="10.00">Pause</text>
</a>
</g>
</g>
<!-- Node22&#45;&gt;Node23 -->
<g id="edge23" class="edge"><title>Node22&#45;&gt;Node23</title>
<path fill="none" stroke="midnightblue" d="M569.731,-63.4904C588.984,-61.5294 609.859,-59.4033 629.534,-57.3993"/>
<polygon fill="midnightblue" stroke="midnightblue" points="630.105,-60.8594 639.699,-56.364 629.395,-53.8954 630.105,-60.8594"/>
</g>
<!-- Node24&#45;&gt;Node4 -->
<g id="edge44" class="edge"><title>Node24&#45;&gt;Node4</title>
<path fill="none" stroke="midnightblue" d="M289.679,-358.761C306.228,-377.745 342.715,-421.43 366,-463 387.054,-500.586 368.074,-526.448 402,-553 434.146,-578.158 535.347,-588.597 613.47,-592.928"/>
<polygon fill="midnightblue" stroke="midnightblue" points="613.674,-596.444 623.844,-593.476 614.043,-589.454 613.674,-596.444"/>
</g>
<!-- Node24&#45;&gt;Node11 -->
<g id="edge42" class="edge"><title>Node24&#45;&gt;Node11</title>
<path fill="none" stroke="midnightblue" d="M333.954,-339.406C345.742,-335.128 357.304,-328.942 366,-320 403.635,-281.301 358.539,-236.018 402,-204 468.556,-154.968 510.957,-174.031 588,-204 608.229,-211.869 604.635,-227.196 624,-237 775.176,-313.534 832.572,-274.326 998,-311 1021.56,-316.223 1047.62,-322.568 1069.25,-327.99"/>
<polygon fill="midnightblue" stroke="midnightblue" points="1068.61,-331.438 1079.16,-330.488 1070.32,-324.651 1068.61,-331.438"/>
</g>
<!-- Node24&#45;&gt;Node13 -->
<g id="edge45" class="edge"><title>Node24&#45;&gt;Node13</title>
<path fill="none" stroke="midnightblue" d="M336.468,-339.437C347.6,-335.153 358.243,-328.958 366,-320 422.834,-254.367 335.191,-183.447 402,-128 470.401,-71.2324 714.068,-114.989 802,-128 907.768,-143.65 1027.27,-187.433 1083.48,-209.673"/>
<polygon fill="midnightblue" stroke="midnightblue" points="1082.32,-212.979 1092.91,-213.435 1084.92,-206.477 1082.32,-212.979"/>
</g>
<!-- Node24&#45;&gt;Node14 -->
<g id="edge47" class="edge"><title>Node24&#45;&gt;Node14</title>
<path fill="none" stroke="midnightblue" d="M288.535,-358.575C303.69,-377.946 338.738,-423.322 366,-463 382.968,-487.696 375.954,-505.189 402,-520 455.3,-550.308 852.435,-545.126 1030.3,-541.201"/>
<polygon fill="midnightblue" stroke="midnightblue" points="1030.48,-544.698 1040.4,-540.974 1030.33,-537.7 1030.48,-544.698"/>
</g>
<!-- Node24&#45;&gt;Node22 -->
<g id="edge43" class="edge"><title>Node24&#45;&gt;Node22</title>
<path fill="none" stroke="midnightblue" d="M345.988,-339.325C353.548,-335.845 360.506,-331.195 366,-325 434.646,-247.585 332.583,-171.724 402,-95 405.354,-91.2935 409.201,-88.128 413.378,-85.4274"/>
<polygon fill="midnightblue" stroke="midnightblue" points="415.27,-88.382 422.365,-80.5128 411.911,-82.2405 415.27,-88.382"/>
</g>
<!-- Node25 -->
<g id="node25" class="node"><title>Node25</title>
<g id="a_node25"><a xlink:href="../../df/df8/class_cell_society_view.html#a053b6ef6afa80722445223c4e373e51c" target="_top" xlink:title="CellSocietyView.displayXMLChooser">
<polygon fill="white" stroke="black" points="402.5,-415.5 402.5,-434.5 587.5,-434.5 587.5,-415.5 402.5,-415.5"/>
<text text-anchor="middle" x="495" y="-422.5" font-family="Helvetica,sans-Serif" font-size="10.00">CellSocietyView.displayXMLChooser</text>
</a>
</g>
</g>
<!-- Node24&#45;&gt;Node25 -->
<g id="edge25" class="edge"><title>Node24&#45;&gt;Node25</title>
<path fill="none" stroke="midnightblue" d="M300.762,-358.59C324.425,-369.814 365.45,-388.459 402,-401 414.815,-405.397 428.87,-409.442 442.052,-412.908"/>
<polygon fill="midnightblue" stroke="midnightblue" points="441.371,-416.347 451.928,-415.442 443.111,-409.566 441.371,-416.347"/>
</g>
<!-- Node26 -->
<g id="node26" class="node"><title>Node26</title>
<g id="a_node26"><a xlink:href="../../d2/d95/class_x_m_l_parser.html#a77ee23818c822b69cdf4200eef726a61" target="_top" xlink:title="XMLParser.parseXMLFile">
<polygon fill="white" stroke="black" points="430,-339.5 430,-358.5 560,-358.5 560,-339.5 430,-339.5"/>
<text text-anchor="middle" x="495" y="-346.5" font-family="Helvetica,sans-Serif" font-size="10.00">XMLParser.parseXMLFile</text>
</a>
</g>
</g>
<!-- Node24&#45;&gt;Node26 -->
<g id="edge26" class="edge"><title>Node24&#45;&gt;Node26</title>
<path fill="none" stroke="midnightblue" d="M346.064,-349C369.294,-349 395.64,-349 419.596,-349"/>
<polygon fill="midnightblue" stroke="midnightblue" points="419.7,-352.5 429.7,-349 419.7,-345.5 419.7,-352.5"/>
</g>
<!-- Node30 -->
<g id="node30" class="node"><title>Node30</title>
<g id="a_node30"><a xlink:href="../../d3/dff/class_cell_society.html#abfbf43ce46b4c82c16a2d933b6a11abf" target="_top" xlink:title="CellSociety.retrieveParserInfo">
<polygon fill="white" stroke="black" points="417.5,-453.5 417.5,-472.5 572.5,-472.5 572.5,-453.5 417.5,-453.5"/>
<text text-anchor="middle" x="495" y="-460.5" font-family="Helvetica,sans-Serif" font-size="10.00">CellSociety.retrieveParserInfo</text>
</a>
</g>
</g>
<!-- Node24&#45;&gt;Node30 -->
<g id="edge30" class="edge"><title>Node24&#45;&gt;Node30</title>
<path fill="none" stroke="midnightblue" d="M290,-358.577C308.816,-377.98 354.519,-421.958 402,-444 407.307,-446.464 412.933,-448.61 418.685,-450.48"/>
<polygon fill="midnightblue" stroke="midnightblue" points="417.867,-453.888 428.45,-453.372 419.855,-447.176 417.867,-453.888"/>
</g>
<!-- Node31 -->
<g id="node31" class="node"><title>Node31</title>
<g id="a_node31"><a xlink:href="../../d2/d95/class_x_m_l_parser.html#aea9b535964c91fa3c3d2b1c0b6a334c2" target="_top" xlink:title="XMLParser.getInitParamMap">
<polygon fill="white" stroke="black" points="638.5,-377.5 638.5,-396.5 787.5,-396.5 787.5,-377.5 638.5,-377.5"/>
<text text-anchor="middle" x="713" y="-384.5" font-family="Helvetica,sans-Serif" font-size="10.00">XMLParser.getInitParamMap</text>
</a>
</g>
</g>
<!-- Node24&#45;&gt;Node31 -->
<g id="edge34" class="edge"><title>Node24&#45;&gt;Node31</title>
<path fill="none" stroke="midnightblue" d="M334.464,-358.51C355.46,-361.952 379.804,-365.583 402,-368 478.292,-376.309 565.572,-381.252 628.041,-384.003"/>
<polygon fill="midnightblue" stroke="midnightblue" points="628.096,-387.509 638.238,-384.442 628.398,-380.515 628.096,-387.509"/>
</g>
<!-- Node33 -->
<g id="node33" class="node"><title>Node33</title>
<g id="a_node33"><a xlink:href="../../dd/d11/class_cell.html#a7157b57f4ff263ea68e1ff5fc424176e" target="_top" xlink:title="Cell.setCellSize">
<polygon fill="white" stroke="black" points="450.5,-301.5 450.5,-320.5 539.5,-320.5 539.5,-301.5 450.5,-301.5"/>
<text text-anchor="middle" x="495" y="-308.5" font-family="Helvetica,sans-Serif" font-size="10.00">Cell.setCellSize</text>
</a>
</g>
</g>
<!-- Node24&#45;&gt;Node33 -->
<g id="edge33" class="edge"><title>Node24&#45;&gt;Node33</title>
<path fill="none" stroke="midnightblue" d="M334.474,-339.46C366.721,-333.707 407.677,-326.4 440.015,-320.631"/>
<polygon fill="midnightblue" stroke="midnightblue" points="440.96,-324.018 450.19,-318.816 439.731,-317.127 440.96,-324.018"/>
</g>
<!-- Node34 -->
<g id="node34" class="node"><title>Node34</title>
<g id="a_node34"><a xlink:href="../../d3/dff/class_cell_society.html#a7a6dab68551f91cc4b120faa51670bf8" target="_top" xlink:title="CellSociety.createCellArray">
<polygon fill="white" stroke="black" points="423,-137.5 423,-156.5 567,-156.5 567,-137.5 423,-137.5"/>
<text text-anchor="middle" x="495" y="-144.5" font-family="Helvetica,sans-Serif" font-size="10.00">CellSociety.createCellArray</text>
</a>
</g>
</g>
<!-- Node24&#45;&gt;Node34 -->
<g id="edge35" class="edge"><title>Node24&#45;&gt;Node34</title>
<path fill="none" stroke="midnightblue" d="M344.289,-339.495C352.399,-336.015 359.962,-331.319 366,-325 414.558,-274.179 352.936,-221.333 402,-171 405.721,-167.182 409.968,-163.946 414.548,-161.205"/>
<polygon fill="midnightblue" stroke="midnightblue" points="416.403,-164.188 423.717,-156.522 413.219,-157.954 416.403,-164.188"/>
</g>
<!-- Node37 -->
<g id="node37" class="node"><title>Node37</title>
<g id="a_node37"><a xlink:href="../../d3/dff/class_cell_society.html#ab9e56a2a70e210e021b51e898508329b" target="_top" xlink:title="CellSociety.setupAnimation">
<polygon fill="white" stroke="black" points="422,-491.5 422,-510.5 568,-510.5 568,-491.5 422,-491.5"/>
<text text-anchor="middle" x="495" y="-498.5" font-family="Helvetica,sans-Serif" font-size="10.00">CellSociety.setupAnimation</text>
</a>
</g>
</g>
<!-- Node24&#45;&gt;Node37 -->
<g id="edge40" class="edge"><title>Node24&#45;&gt;Node37</title>
<path fill="none" stroke="midnightblue" d="M286.651,-358.594C301.828,-383.439 346.135,-450.152 402,-482 405.932,-484.241 410.092,-486.22 414.385,-487.967"/>
<polygon fill="midnightblue" stroke="midnightblue" points="413.365,-491.32 423.959,-491.432 415.747,-484.738 413.365,-491.32"/>
</g>
<!-- Node38 -->
<g id="node38" class="node"><title>Node38</title>
<g id="a_node38"><a xlink:href="../../df/df8/class_cell_society_view.html#a930d889b8619ae93731b8542ce285180" target="_top" xlink:title="CellSocietyView.generate\lChartLines">
<polygon fill="white" stroke="black" points="426.5,-252 426.5,-282 563.5,-282 563.5,-252 426.5,-252"/>
<text text-anchor="start" x="434.5" y="-270" font-family="Helvetica,sans-Serif" font-size="10.00">CellSocietyView.generate</text>
<text text-anchor="middle" x="495" y="-259" font-family="Helvetica,sans-Serif" font-size="10.00">ChartLines</text>
</a>
</g>
</g>
<!-- Node24&#45;&gt;Node38 -->
<g id="edge46" class="edge"><title>Node24&#45;&gt;Node38</title>
<path fill="none" stroke="midnightblue" d="M329.759,-339.423C342.04,-335.899 354.884,-331.197 366,-325 384.958,-314.431 382.99,-302.475 402,-292 406.711,-289.404 411.709,-287.064 416.845,-284.957"/>
<polygon fill="midnightblue" stroke="midnightblue" points="418.094,-288.227 426.206,-281.412 415.614,-281.681 418.094,-288.227"/>
</g>
<!-- Node39 -->
<g id="node39" class="node"><title>Node39</title>
<g id="a_node39"><a xlink:href="../../df/df8/class_cell_society_view.html#a989874eb178e925124f50d7cabcc184c" target="_top" xlink:title="CellSocietyView.setGridGap">
<polygon fill="white" stroke="black" points="421.5,-213.5 421.5,-232.5 568.5,-232.5 568.5,-213.5 421.5,-213.5"/>
<text text-anchor="middle" x="495" y="-220.5" font-family="Helvetica,sans-Serif" font-size="10.00">CellSocietyView.setGridGap</text>
</a>
</g>
</g>
<!-- Node24&#45;&gt;Node39 -->
<g id="edge48" class="edge"><title>Node24&#45;&gt;Node39</title>
<path fill="none" stroke="midnightblue" d="M340.665,-339.459C349.864,-336.016 358.713,-331.342 366,-325 396.024,-298.871 371.191,-268.2 402,-243 405.114,-240.453 408.479,-238.211 412.018,-236.239"/>
<polygon fill="midnightblue" stroke="midnightblue" points="413.626,-239.35 421.132,-231.873 410.601,-233.037 413.626,-239.35"/>
</g>
<!-- Node27 -->
<g id="node27" class="node"><title>Node27</title>
<g id="a_node27"><a xlink:href="../../d2/d95/class_x_m_l_parser.html#ae67767f9678fb650ac38b1321ea9f723" target="_top" xlink:title="XMLParser.parseInitialTags">
<polygon fill="white" stroke="black" points="642.5,-339.5 642.5,-358.5 783.5,-358.5 783.5,-339.5 642.5,-339.5"/>
<text text-anchor="middle" x="713" y="-346.5" font-family="Helvetica,sans-Serif" font-size="10.00">XMLParser.parseInitialTags</text>
</a>
</g>
</g>
<!-- Node26&#45;&gt;Node27 -->
<g id="edge27" class="edge"><title>Node26&#45;&gt;Node27</title>
<path fill="none" stroke="midnightblue" d="M560.222,-349C582.855,-349 608.576,-349 632.329,-349"/>
<polygon fill="midnightblue" stroke="midnightblue" points="632.374,-352.5 642.374,-349 632.374,-345.5 632.374,-352.5"/>
</g>
<!-- Node28 -->
<g id="node28" class="node"><title>Node28</title>
<g id="a_node28"><a xlink:href="../../d2/d95/class_x_m_l_parser.html#a09c6848239104ae94825c045796dddd0" target="_top" xlink:title="XMLParser.makeParamMap">
<polygon fill="white" stroke="black" points="845,-320.5 845,-339.5 991,-339.5 991,-320.5 845,-320.5"/>
<text text-anchor="middle" x="918" y="-327.5" font-family="Helvetica,sans-Serif" font-size="10.00">XMLParser.makeParamMap</text>
</a>
</g>
</g>
<!-- Node27&#45;&gt;Node28 -->
<g id="edge28" class="edge"><title>Node27&#45;&gt;Node28</title>
<path fill="none" stroke="midnightblue" d="M783.577,-342.488C799.925,-340.958 817.504,-339.312 834.362,-337.735"/>
<polygon fill="midnightblue" stroke="midnightblue" points="835.118,-341.179 844.749,-336.762 834.466,-334.21 835.118,-341.179"/>
</g>
<!-- Node29 -->
<g id="node29" class="node"><title>Node29</title>
<g id="a_node29"><a xlink:href="../../d2/d95/class_x_m_l_parser.html#a5a419f71699eb7d3d76ee238fb262a5f" target="_top" xlink:title="XMLParser.makeCellParamList">
<polygon fill="white" stroke="black" points="838,-358.5 838,-377.5 998,-377.5 998,-358.5 838,-358.5"/>
<text text-anchor="middle" x="918" y="-365.5" font-family="Helvetica,sans-Serif" font-size="10.00">XMLParser.makeCellParamList</text>
</a>
</g>
</g>
<!-- Node27&#45;&gt;Node29 -->
<g id="edge29" class="edge"><title>Node27&#45;&gt;Node29</title>
<path fill="none" stroke="midnightblue" d="M783.577,-355.512C797.752,-356.839 812.851,-358.252 827.604,-359.633"/>
<polygon fill="midnightblue" stroke="midnightblue" points="827.465,-363.135 837.747,-360.582 828.117,-356.166 827.465,-363.135"/>
</g>
<!-- Node30&#45;&gt;Node31 -->
<g id="edge31" class="edge"><title>Node30&#45;&gt;Node31</title>
<path fill="none" stroke="midnightblue" d="M552.483,-453.448C564.347,-450.855 576.688,-447.714 588,-444 622.777,-432.581 660.74,-414.185 685.377,-401.392"/>
<polygon fill="midnightblue" stroke="midnightblue" points="687.224,-404.376 694.445,-396.623 683.965,-398.18 687.224,-404.376"/>
</g>
<!-- Node32 -->
<g id="node32" class="node"><title>Node32</title>
<g id="a_node32"><a xlink:href="../../d2/d95/class_x_m_l_parser.html#a0df3a2904766f59d1246cb55416f8146" target="_top" xlink:title="XMLParser.getSimParamMap">
<polygon fill="white" stroke="black" points="636,-453.5 636,-472.5 790,-472.5 790,-453.5 636,-453.5"/>
<text text-anchor="middle" x="713" y="-460.5" font-family="Helvetica,sans-Serif" font-size="10.00">XMLParser.getSimParamMap</text>
</a>
</g>
</g>
<!-- Node30&#45;&gt;Node32 -->
<g id="edge32" class="edge"><title>Node30&#45;&gt;Node32</title>
<path fill="none" stroke="midnightblue" d="M572.762,-463C589.892,-463 608.17,-463 625.658,-463"/>
<polygon fill="midnightblue" stroke="midnightblue" points="625.849,-466.5 635.849,-463 625.849,-459.5 625.849,-466.5"/>
</g>
<!-- Node34&#45;&gt;Node13 -->
<g id="edge37" class="edge"><title>Node34&#45;&gt;Node13</title>
<path fill="none" stroke="midnightblue" d="M550.699,-156.612C563.402,-160.092 576.547,-164.765 588,-171 607.063,-181.379 603.927,-195.742 624,-204 767.921,-263.205 955.969,-247.811 1052.59,-233.978"/>
<polygon fill="midnightblue" stroke="midnightblue" points="1053.12,-237.439 1062.5,-232.519 1052.1,-230.514 1053.12,-237.439"/>
</g>
<!-- Node34&#45;&gt;Node31 -->
<g id="edge36" class="edge"><title>Node34&#45;&gt;Node31</title>
<path fill="none" stroke="midnightblue" d="M522.303,-156.574C543.31,-165.591 571.822,-181.151 588,-204 631.122,-264.904 571.142,-315.323 624,-368 625.709,-369.703 627.532,-371.27 629.449,-372.711"/>
<polygon fill="midnightblue" stroke="midnightblue" points="628.049,-375.961 638.393,-378.252 631.736,-370.01 628.049,-375.961"/>
</g>
<!-- Node35 -->
<g id="node35" class="node"><title>Node35</title>
<g id="a_node35"><a xlink:href="../../d3/dff/class_cell_society.html#a42451b17e2bca5fd025c8d4ea74310ca" target="_top" xlink:title="CellSociety.stringToIntArray">
<polygon fill="white" stroke="black" points="640.5,-137.5 640.5,-156.5 785.5,-156.5 785.5,-137.5 640.5,-137.5"/>
<text text-anchor="middle" x="713" y="-144.5" font-family="Helvetica,sans-Serif" font-size="10.00">CellSociety.stringToIntArray</text>
</a>
</g>
</g>
<!-- Node34&#45;&gt;Node35 -->
<g id="edge38" class="edge"><title>Node34&#45;&gt;Node35</title>
<path fill="none" stroke="midnightblue" d="M567.026,-147C587.208,-147 609.35,-147 630.121,-147"/>
<polygon fill="midnightblue" stroke="midnightblue" points="630.193,-150.5 640.193,-147 630.193,-143.5 630.193,-150.5"/>
</g>
<!-- Node36 -->
<g id="node36" class="node"><title>Node36</title>
<g id="a_node36"><a xlink:href="../../d3/dff/class_cell_society.html#a117f1698760a3f6bbe51bd7af16f79bb" target="_top" xlink:title="CellSociety.createCellInstance">
<polygon fill="white" stroke="black" points="633.5,-175.5 633.5,-194.5 792.5,-194.5 792.5,-175.5 633.5,-175.5"/>
<text text-anchor="middle" x="713" y="-182.5" font-family="Helvetica,sans-Serif" font-size="10.00">CellSociety.createCellInstance</text>
</a>
</g>
</g>
<!-- Node34&#45;&gt;Node36 -->
<g id="edge39" class="edge"><title>Node34&#45;&gt;Node36</title>
<path fill="none" stroke="midnightblue" d="M550.227,-156.54C579.884,-161.757 616.804,-168.253 647.882,-173.72"/>
<polygon fill="midnightblue" stroke="midnightblue" points="647.295,-177.17 657.751,-175.456 648.508,-170.276 647.295,-177.17"/>
</g>
<!-- Node37&#45;&gt;Node5 -->
<g id="edge41" class="edge"><title>Node37&#45;&gt;Node5</title>
<path fill="none" stroke="midnightblue" d="M568.225,-501C596.808,-501 629.161,-501 655.928,-501"/>
<polygon fill="midnightblue" stroke="midnightblue" points="656.27,-504.5 666.27,-501 656.27,-497.5 656.27,-504.5"/>
</g>
<!-- Node40&#45;&gt;Node23 -->
<g id="edge50" class="edge"><title>Node40&#45;&gt;Node23</title>
<path fill="none" stroke="midnightblue" d="M352.318,-263.288C357.379,-260.563 362.038,-257.182 366,-253 428.422,-187.122 332.682,-110.579 402,-52 473.507,8.42837 590.962,-11.8772 658.91,-31.1024"/>
<polygon fill="midnightblue" stroke="midnightblue" points="657.985,-34.4782 668.565,-33.9213 659.947,-27.7587 657.985,-34.4782"/>
</g>
</g>
</svg>
