<?xml version="1.0" encoding="UTF-8" standalone="no"?>
<!DOCTYPE svg PUBLIC "-//W3C//DTD SVG 1.1//EN"
 "http://www.w3.org/Graphics/SVG/1.1/DTD/svg11.dtd">
<!-- Generated by graphviz version 2.36.0 (20140111.2315)
 -->
<!-- Title: CellSociety.readNewXML Pages: 1 -->
<!--zoomable 707 -->
<svg id="main" version="1.1" xmlns="http://www.w3.org/2000/svg" xmlns:xlink="http://www.w3.org/1999/xlink" xml:space="preserve" onload="init(evt)">
<style type="text/css"><![CDATA[
.edge:hover path { stroke: red; }
.edge:hover polygon { stroke: red; fill: red; }
]]></style>
<script type="text/javascript"><![CDATA[
var edges = document.getElementsByTagName('g');
if (edges && edges.length) {
  for (var i=0;i<edges.length;i++) {
    if (edges[i].id.substr(0,4)=='edge') {
      edges[i].setAttribute('class','edge');
    }
  }
}
]]></script>
        <defs>
                <circle id="rim" cx="0" cy="0" r="7"/>
                <circle id="rim2" cx="0" cy="0" r="3.5"/>
                <g id="zoomPlus">
                        <use xlink:href="#rim" fill="#404040">
                                <set attributeName="fill" to="#808080" begin="zoomplus.mouseover" end="zoomplus.mouseout"/>
                        </use>
                        <path d="M-4,0h8M0,-4v8" fill="none" stroke="white" stroke-width="1.5" pointer-events="none"/>
                </g>
                <g id="zoomMin">
                        <use xlink:href="#rim" fill="#404040">
                                <set attributeName="fill" to="#808080" begin="zoomminus.mouseover" end="zoomminus.mouseout"/>
                        </use>
                        <path d="M-4,0h8" fill="none" stroke="white" stroke-width="1.5" pointer-events="none"/>
                </g>
                <g id="dirArrow">
                        <path fill="none" stroke="white" stroke-width="1.5" d="M0,-3.0v7 M-2.5,-0.5L0,-3.0L2.5,-0.5"/>
                </g>
               <g id="resetDef">
                       <use xlink:href="#rim2" fill="#404040">
                               <set attributeName="fill" to="#808080" begin="reset.mouseover" end="reset.mouseout"/>
                       </use>
               </g>
        </defs>

<script type="text/javascript">
var viewWidth = 1280;
var viewHeight = 707;
var sectionId = 'dynsection-19';
</script>
<script xlink:href="../../svgpan.js"/>
<svg id="graph" class="graph">
<g id="viewport">
<title>CellSociety.readNewXML</title>
<polygon fill="white" stroke="none" points="-4,4 -4,-703.475 1276,-703.475 1276,4 -4,4"/>
<!-- Node1 -->
<g id="node1" class="node"><title>Node1</title>
<polygon fill="#bfbfbf" stroke="black" points="0,-285.5 0,-304.5 132,-304.5 132,-285.5 0,-285.5"/>
<text text-anchor="middle" x="66" y="-292.5" font-family="Helvetica,sans-Serif" font-size="10.00">CellSociety.readNewXML</text>
</g>
<!-- Node2 -->
<g id="node2" class="node"><title>Node2</title>
<g id="a_node2"><a xlink:href="../../d3/dff/class_cell_society.html#a7a6dab68551f91cc4b120faa51670bf8" target="_top" xlink:title="CellSociety.createCellArray">
<polygon fill="white" stroke="black" points="189,-566.5 189,-585.5 333,-585.5 333,-566.5 189,-566.5"/>
<text text-anchor="middle" x="261" y="-573.5" font-family="Helvetica,sans-Serif" font-size="10.00">CellSociety.createCellArray</text>
</a>
</g>
</g>
<!-- Node1&#45;&gt;Node2 -->
<g id="edge1" class="edge"><title>Node1&#45;&gt;Node2</title>
<path fill="none" stroke="midnightblue" d="M68.7126,-304.821C75.276,-339.796 101.856,-459.923 168,-530 181.859,-544.683 201.421,-555.369 218.946,-562.724"/>
<polygon fill="midnightblue" stroke="midnightblue" points="217.837,-566.049 228.423,-566.472 220.411,-559.54 217.837,-566.049"/>
</g>
<!-- Node3 -->
<g id="node3" class="node"><title>Node3</title>
<g id="a_node3"><a xlink:href="../../d2/d95/class_x_m_l_parser.html#ac4e3257aed1deb9fe950149f706fce5b" target="_top" xlink:title="XMLParser.getCellParamList">
<polygon fill="white" stroke="black" points="994.5,-394.5 994.5,-413.5 1143.5,-413.5 1143.5,-394.5 994.5,-394.5"/>
<text text-anchor="middle" x="1069" y="-401.5" font-family="Helvetica,sans-Serif" font-size="10.00">XMLParser.getCellParamList</text>
</a>
</g>
</g>
<!-- Node1&#45;&gt;Node3 -->
<g id="edge14" class="edge"><title>Node1&#45;&gt;Node3</title>
<path fill="none" stroke="midnightblue" d="M69.5381,-304.637C77.8393,-333.993 107.212,-422.528 168,-459 226.422,-494.052 405.869,-478 474,-478 474,-478 474,-478 677,-478 807.709,-478 958.778,-437.582 1028.72,-416.488"/>
<polygon fill="midnightblue" stroke="midnightblue" points="1029.9,-419.788 1038.44,-413.523 1027.85,-413.093 1029.9,-419.788"/>
</g>
<!-- Node4 -->
<g id="node4" class="node"><title>Node4</title>
<g id="a_node4"><a xlink:href="../../d2/d95/class_x_m_l_parser.html#aea9b535964c91fa3c3d2b1c0b6a334c2" target="_top" xlink:title="XMLParser.getInitParamMap">
<polygon fill="white" stroke="black" points="400.5,-506.5 400.5,-525.5 549.5,-525.5 549.5,-506.5 400.5,-506.5"/>
<text text-anchor="middle" x="475" y="-513.5" font-family="Helvetica,sans-Serif" font-size="10.00">XMLParser.getInitParamMap</text>
</a>
</g>
</g>
<!-- Node1&#45;&gt;Node4 -->
<g id="edge15" class="edge"><title>Node1&#45;&gt;Node4</title>
<path fill="none" stroke="midnightblue" d="M68.5665,-304.555C74.5057,-337.37 98.9088,-445.973 168,-492 242.406,-541.567 350.714,-536.473 416.531,-527.075"/>
<polygon fill="midnightblue" stroke="midnightblue" points="417.352,-530.49 426.717,-525.537 416.307,-523.569 417.352,-530.49"/>
</g>
<!-- Node10 -->
<g id="node10" class="node"><title>Node10</title>
<g id="a_node10"><a xlink:href="../../df/df8/class_cell_society_view.html#a99eb733c00ed7c1bcba8f2d684791a09" target="_top" xlink:title="CellSocietyView.displayFrameRate">
<polygon fill="white" stroke="black" points="172,-430.5 172,-449.5 350,-449.5 350,-430.5 172,-430.5"/>
<text text-anchor="middle" x="261" y="-437.5" font-family="Helvetica,sans-Serif" font-size="10.00">CellSocietyView.displayFrameRate</text>
</a>
</g>
</g>
<!-- Node1&#45;&gt;Node10 -->
<g id="edge11" class="edge"><title>Node1&#45;&gt;Node10</title>
<path fill="none" stroke="midnightblue" d="M71.7713,-304.788C84.0486,-328.857 119.224,-391.137 168,-421 171.423,-423.096 175.038,-424.964 178.777,-426.629"/>
<polygon fill="midnightblue" stroke="midnightblue" points="177.698,-429.966 188.285,-430.365 180.257,-423.451 177.698,-429.966"/>
</g>
<!-- Node11 -->
<g id="node11" class="node"><title>Node11</title>
<g id="a_node11"><a xlink:href="../../df/df8/class_cell_society_view.html#a053b6ef6afa80722445223c4e373e51c" target="_top" xlink:title="CellSocietyView.displayXMLChooser">
<polygon fill="white" stroke="black" points="168.5,-392.5 168.5,-411.5 353.5,-411.5 353.5,-392.5 168.5,-392.5"/>
<text text-anchor="middle" x="261" y="-399.5" font-family="Helvetica,sans-Serif" font-size="10.00">CellSocietyView.displayXMLChooser</text>
</a>
</g>
</g>
<!-- Node1&#45;&gt;Node11 -->
<g id="edge12" class="edge"><title>Node1&#45;&gt;Node11</title>
<path fill="none" stroke="midnightblue" d="M75.0773,-304.592C90.9203,-322.741 128.028,-362.068 168,-382 173.76,-384.872 179.924,-387.334 186.232,-389.443"/>
<polygon fill="midnightblue" stroke="midnightblue" points="185.641,-392.921 196.226,-392.477 187.674,-386.223 185.641,-392.921"/>
</g>
<!-- Node12 -->
<g id="node12" class="node"><title>Node12</title>
<g id="a_node12"><a xlink:href="../../df/df8/class_cell_society_view.html#a930d889b8619ae93731b8542ce285180" target="_top" xlink:title="CellSocietyView.generate\lChartLines">
<polygon fill="white" stroke="black" points="192.5,-343 192.5,-373 329.5,-373 329.5,-343 192.5,-343"/>
<text text-anchor="start" x="200.5" y="-361" font-family="Helvetica,sans-Serif" font-size="10.00">CellSocietyView.generate</text>
<text text-anchor="middle" x="261" y="-350" font-family="Helvetica,sans-Serif" font-size="10.00">ChartLines</text>
</a>
</g>
</g>
<!-- Node1&#45;&gt;Node12 -->
<g id="edge13" class="edge"><title>Node1&#45;&gt;Node12</title>
<path fill="none" stroke="midnightblue" d="M90.4498,-304.543C110.779,-312.643 141.081,-324.3 168,-333 175.614,-335.461 183.633,-337.884 191.633,-340.195"/>
<polygon fill="midnightblue" stroke="midnightblue" points="190.777,-343.59 201.352,-342.955 192.688,-336.857 190.777,-343.59"/>
</g>
<!-- Node13 -->
<g id="node13" class="node"><title>Node13</title>
<g id="a_node13"><a xlink:href="../../df/df8/class_cell_society_view.html#ab0adb0e17b74be4e0192b02e2116e4a1" target="_top" xlink:title="CellSocietyView.openDialogBox">
<polygon fill="white" stroke="black" points="178.5,-304.5 178.5,-323.5 343.5,-323.5 343.5,-304.5 178.5,-304.5"/>
<text text-anchor="middle" x="261" y="-311.5" font-family="Helvetica,sans-Serif" font-size="10.00">CellSocietyView.openDialogBox</text>
</a>
</g>
</g>
<!-- Node1&#45;&gt;Node13 -->
<g id="edge16" class="edge"><title>Node1&#45;&gt;Node13</title>
<path fill="none" stroke="midnightblue" d="M132.072,-301.406C143.699,-302.551 156.01,-303.763 168.22,-304.965"/>
<polygon fill="midnightblue" stroke="midnightblue" points="168.14,-308.474 178.435,-305.97 168.826,-301.507 168.14,-308.474"/>
</g>
<!-- Node14 -->
<g id="node14" class="node"><title>Node14</title>
<g id="a_node14"><a xlink:href="../../d2/d95/class_x_m_l_parser.html#a77ee23818c822b69cdf4200eef726a61" target="_top" xlink:title="XMLParser.parseXMLFile">
<polygon fill="white" stroke="black" points="196,-228.5 196,-247.5 326,-247.5 326,-228.5 196,-228.5"/>
<text text-anchor="middle" x="261" y="-235.5" font-family="Helvetica,sans-Serif" font-size="10.00">XMLParser.parseXMLFile</text>
</a>
</g>
</g>
<!-- Node1&#45;&gt;Node14 -->
<g id="edge17" class="edge"><title>Node1&#45;&gt;Node14</title>
<path fill="none" stroke="midnightblue" d="M89.5216,-285.366C109.767,-276.987 140.466,-264.97 168,-257 177.186,-254.341 186.989,-251.904 196.647,-249.725"/>
<polygon fill="midnightblue" stroke="midnightblue" points="197.6,-253.1 206.625,-247.551 196.109,-246.26 197.6,-253.1"/>
</g>
<!-- Node18 -->
<g id="node18" class="node"><title>Node18</title>
<g id="a_node18"><a xlink:href="../../d3/dff/class_cell_society.html#ae565a305ea53e5a37da9816a236b4fbc" target="_top" xlink:title="CellSociety.pauseAnimation">
<polygon fill="white" stroke="black" points="186.5,-190.5 186.5,-209.5 335.5,-209.5 335.5,-190.5 186.5,-190.5"/>
<text text-anchor="middle" x="261" y="-197.5" font-family="Helvetica,sans-Serif" font-size="10.00">CellSociety.pauseAnimation</text>
</a>
</g>
</g>
<!-- Node1&#45;&gt;Node18 -->
<g id="edge21" class="edge"><title>Node1&#45;&gt;Node18</title>
<path fill="none" stroke="midnightblue" d="M76.6349,-285.357C93.5571,-269.012 130.404,-235.987 168,-219 173.657,-216.444 179.666,-214.228 185.796,-212.307"/>
<polygon fill="midnightblue" stroke="midnightblue" points="186.849,-215.647 195.498,-209.526 184.92,-208.918 186.849,-215.647"/>
</g>
<!-- Node20 -->
<g id="node20" class="node"><title>Node20</title>
<g id="a_node20"><a xlink:href="../../d3/dff/class_cell_society.html#abfbf43ce46b4c82c16a2d933b6a11abf" target="_top" xlink:title="CellSociety.retrieveParserInfo">
<polygon fill="white" stroke="black" points="183.5,-266.5 183.5,-285.5 338.5,-285.5 338.5,-266.5 183.5,-266.5"/>
<text text-anchor="middle" x="261" y="-273.5" font-family="Helvetica,sans-Serif" font-size="10.00">CellSociety.retrieveParserInfo</text>
</a>
</g>
</g>
<!-- Node1&#45;&gt;Node20 -->
<g id="edge23" class="edge"><title>Node1&#45;&gt;Node20</title>
<path fill="none" stroke="midnightblue" d="M132.072,-288.594C145.281,-287.294 159.372,-285.906 173.195,-284.546"/>
<polygon fill="midnightblue" stroke="midnightblue" points="173.587,-288.024 183.196,-283.561 172.901,-281.058 173.587,-288.024"/>
</g>
<!-- Node22 -->
<g id="node22" class="node"><title>Node22</title>
<g id="a_node22"><a xlink:href="../../dd/d11/class_cell.html#a7157b57f4ff263ea68e1ff5fc424176e" target="_top" xlink:title="Cell.setCellSize">
<polygon fill="white" stroke="black" points="216.5,-152.5 216.5,-171.5 305.5,-171.5 305.5,-152.5 216.5,-152.5"/>
<text text-anchor="middle" x="261" y="-159.5" font-family="Helvetica,sans-Serif" font-size="10.00">Cell.setCellSize</text>
</a>
</g>
</g>
<!-- Node1&#45;&gt;Node22 -->
<g id="edge26" class="edge"><title>Node1&#45;&gt;Node22</title>
<path fill="none" stroke="midnightblue" d="M72.4155,-285.495C85.6135,-263.267 121.773,-207.758 168,-181 179.585,-174.294 193.199,-169.935 206.349,-167.107"/>
<polygon fill="midnightblue" stroke="midnightblue" points="207.099,-170.527 216.274,-165.23 205.798,-163.649 207.099,-170.527"/>
</g>
<!-- Node23 -->
<g id="node23" class="node"><title>Node23</title>
<g id="a_node23"><a xlink:href="../../d3/dff/class_cell_society.html#ab9e56a2a70e210e021b51e898508329b" target="_top" xlink:title="CellSociety.setupAnimation">
<polygon fill="white" stroke="black" points="188,-114.5 188,-133.5 334,-133.5 334,-114.5 188,-114.5"/>
<text text-anchor="middle" x="261" y="-121.5" font-family="Helvetica,sans-Serif" font-size="10.00">CellSociety.setupAnimation</text>
</a>
</g>
</g>
<!-- Node1&#45;&gt;Node23 -->
<g id="edge27" class="edge"><title>Node1&#45;&gt;Node23</title>
<path fill="none" stroke="midnightblue" d="M70.414,-285.259C80.5317,-257.919 113.124,-180.06 168,-143 171.326,-140.754 174.863,-138.764 178.539,-137.001"/>
<polygon fill="midnightblue" stroke="midnightblue" points="180.051,-140.163 187.924,-133.074 177.348,-133.706 180.051,-140.163"/>
</g>
<!-- Node32 -->
<g id="node32" class="node"><title>Node32</title>
<g id="a_node32"><a xlink:href="../../df/df8/class_cell_society_view.html#a7ca77bdfdef97e9be9c9941c2f4d3513" target="_top" xlink:title="CellSocietyView.updateChart\lLines">
<polygon fill="white" stroke="black" points="798.5,-83 798.5,-113 951.5,-113 951.5,-83 798.5,-83"/>
<text text-anchor="start" x="806.5" y="-101" font-family="Helvetica,sans-Serif" font-size="10.00">CellSocietyView.updateChart</text>
<text text-anchor="middle" x="875" y="-90" font-family="Helvetica,sans-Serif" font-size="10.00">Lines</text>
</a>
</g>
</g>
<!-- Node1&#45;&gt;Node32 -->
<g id="edge43" class="edge"><title>Node1&#45;&gt;Node32</title>
<path fill="none" stroke="midnightblue" d="M68.6605,-285.15C74.7754,-252.375 99.3623,-146.711 168,-105 219.731,-73.5632 612,-86.4743 788.459,-94.0103"/>
<polygon fill="midnightblue" stroke="midnightblue" points="788.346,-97.5086 798.487,-94.4428 788.648,-90.5151 788.346,-97.5086"/>
</g>
<!-- Node33 -->
<g id="node33" class="node"><title>Node33</title>
<g id="a_node33"><a xlink:href="../../df/df8/class_cell_society_view.html#a068f17fd6777087a8debf1f67b576836" target="_top" xlink:title="CellSocietyView.setupInitialGrid">
<polygon fill="white" stroke="black" points="179,-38.5 179,-57.5 343,-57.5 343,-38.5 179,-38.5"/>
<text text-anchor="middle" x="261" y="-45.5" font-family="Helvetica,sans-Serif" font-size="10.00">CellSocietyView.setupInitialGrid</text>
</a>
</g>
</g>
<!-- Node1&#45;&gt;Node33 -->
<g id="edge40" class="edge"><title>Node1&#45;&gt;Node33</title>
<path fill="none" stroke="midnightblue" d="M68.4081,-285.189C73.9433,-250.341 97.4816,-131.439 168,-72 172.887,-67.881 178.4,-64.4589 184.238,-61.6172"/>
<polygon fill="midnightblue" stroke="midnightblue" points="185.809,-64.7524 193.637,-57.6126 183.065,-58.3126 185.809,-64.7524"/>
</g>
<!-- Node2&#45;&gt;Node3 -->
<g id="edge2" class="edge"><title>Node2&#45;&gt;Node3</title>
<path fill="none" stroke="midnightblue" d="M271.857,-585.618C292,-604.519 340.201,-645.971 390,-661 545.729,-707.998 602.892,-715.94 756,-661 894.332,-611.362 1015.14,-470.945 1054.51,-421.495"/>
<polygon fill="midnightblue" stroke="midnightblue" points="1057.28,-423.636 1060.71,-413.611 1051.78,-419.309 1057.28,-423.636"/>
</g>
<!-- Node2&#45;&gt;Node4 -->
<g id="edge3" class="edge"><title>Node2&#45;&gt;Node4</title>
<path fill="none" stroke="midnightblue" d="M289.507,-566.418C315.287,-557.622 354.993,-544.546 390,-535 399.207,-532.489 409.045,-530.049 418.627,-527.801"/>
<polygon fill="midnightblue" stroke="midnightblue" points="419.522,-531.187 428.482,-525.533 417.951,-524.365 419.522,-531.187"/>
</g>
<!-- Node5 -->
<g id="node5" class="node"><title>Node5</title>
<g id="a_node5"><a xlink:href="../../d3/dff/class_cell_society.html#a5c0b747b2fbaaa317266890c48e0267f" target="_top" xlink:title="CellSociety.populateLocations">
<polygon fill="white" stroke="black" points="396,-632.5 396,-651.5 554,-651.5 554,-632.5 396,-632.5"/>
<text text-anchor="middle" x="475" y="-639.5" font-family="Helvetica,sans-Serif" font-size="10.00">CellSociety.populateLocations</text>
</a>
</g>
</g>
<!-- Node2&#45;&gt;Node5 -->
<g id="edge4" class="edge"><title>Node2&#45;&gt;Node5</title>
<path fill="none" stroke="midnightblue" d="M286.27,-585.636C311.817,-595.563 353.336,-611.084 390,-622 399.59,-624.855 409.89,-627.581 419.878,-630.051"/>
<polygon fill="midnightblue" stroke="midnightblue" points="419.181,-633.484 429.724,-632.432 420.826,-626.68 419.181,-633.484"/>
</g>
<!-- Node8 -->
<g id="node8" class="node"><title>Node8</title>
<g id="a_node8"><a xlink:href="../../d3/dff/class_cell_society.html#a276d7f4c12da9d40e8720f762b47592a" target="_top" xlink:title="CellSociety.populateProbabilities">
<polygon fill="white" stroke="black" points="390,-544.5 390,-563.5 560,-563.5 560,-544.5 390,-544.5"/>
<text text-anchor="middle" x="475" y="-551.5" font-family="Helvetica,sans-Serif" font-size="10.00">CellSociety.populateProbabilities</text>
</a>
</g>
</g>
<!-- Node2&#45;&gt;Node8 -->
<g id="edge7" class="edge"><title>Node2&#45;&gt;Node8</title>
<path fill="none" stroke="midnightblue" d="M333.183,-568.613C348.083,-567.067 364.015,-565.414 379.608,-563.795"/>
<polygon fill="midnightblue" stroke="midnightblue" points="380.207,-567.252 389.792,-562.739 379.484,-560.29 380.207,-567.252"/>
</g>
<!-- Node9 -->
<g id="node9" class="node"><title>Node9</title>
<g id="a_node9"><a xlink:href="../../d3/dff/class_cell_society.html#a7ef59819b70a8f07c010bd2bb28b7740" target="_top" xlink:title="CellSociety.populateRemaining\lState">
<polygon fill="white" stroke="black" points="394,-583 394,-613 556,-613 556,-583 394,-583"/>
<text text-anchor="start" x="402" y="-601" font-family="Helvetica,sans-Serif" font-size="10.00">CellSociety.populateRemaining</text>
<text text-anchor="middle" x="475" y="-590" font-family="Helvetica,sans-Serif" font-size="10.00">State</text>
</a>
</g>
</g>
<!-- Node2&#45;&gt;Node9 -->
<g id="edge9" class="edge"><title>Node2&#45;&gt;Node9</title>
<path fill="none" stroke="midnightblue" d="M333.183,-583.387C349.32,-585.062 366.669,-586.862 383.486,-588.607"/>
<polygon fill="midnightblue" stroke="midnightblue" points="383.565,-592.134 393.873,-589.685 384.288,-585.171 383.565,-592.134"/>
</g>
<!-- Node6 -->
<g id="node6" class="node"><title>Node6</title>
<g id="a_node6"><a xlink:href="../../d3/dff/class_cell_society.html#a117f1698760a3f6bbe51bd7af16f79bb" target="_top" xlink:title="CellSociety.createCellInstance">
<polygon fill="white" stroke="black" points="596.5,-588.5 596.5,-607.5 755.5,-607.5 755.5,-588.5 596.5,-588.5"/>
<text text-anchor="middle" x="676" y="-595.5" font-family="Helvetica,sans-Serif" font-size="10.00">CellSociety.createCellInstance</text>
</a>
</g>
</g>
<!-- Node5&#45;&gt;Node6 -->
<g id="edge5" class="edge"><title>Node5&#45;&gt;Node6</title>
<path fill="none" stroke="midnightblue" d="M519.18,-632.453C549.299,-625.793 589.685,-616.864 621.794,-609.764"/>
<polygon fill="midnightblue" stroke="midnightblue" points="622.896,-613.105 631.904,-607.529 621.384,-606.27 622.896,-613.105"/>
</g>
<!-- Node7 -->
<g id="node7" class="node"><title>Node7</title>
<g id="a_node7"><a xlink:href="../../d3/dff/class_cell_society.html#a42451b17e2bca5fd025c8d4ea74310ca" target="_top" xlink:title="CellSociety.stringToIntArray">
<polygon fill="white" stroke="black" points="603.5,-632.5 603.5,-651.5 748.5,-651.5 748.5,-632.5 603.5,-632.5"/>
<text text-anchor="middle" x="676" y="-639.5" font-family="Helvetica,sans-Serif" font-size="10.00">CellSociety.stringToIntArray</text>
</a>
</g>
</g>
<!-- Node5&#45;&gt;Node7 -->
<g id="edge6" class="edge"><title>Node5&#45;&gt;Node7</title>
<path fill="none" stroke="midnightblue" d="M554.079,-642C566.881,-642 580.18,-642 593.072,-642"/>
<polygon fill="midnightblue" stroke="midnightblue" points="593.307,-645.5 603.307,-642 593.307,-638.5 593.307,-645.5"/>
</g>
<!-- Node8&#45;&gt;Node6 -->
<g id="edge8" class="edge"><title>Node8&#45;&gt;Node6</title>
<path fill="none" stroke="midnightblue" d="M519.18,-563.547C549.299,-570.207 589.685,-579.136 621.794,-586.236"/>
<polygon fill="midnightblue" stroke="midnightblue" points="621.384,-589.73 631.904,-588.471 622.896,-582.895 621.384,-589.73"/>
</g>
<!-- Node9&#45;&gt;Node6 -->
<g id="edge10" class="edge"><title>Node9&#45;&gt;Node6</title>
<path fill="none" stroke="midnightblue" d="M556.081,-598C566.044,-598 576.277,-598 586.36,-598"/>
<polygon fill="midnightblue" stroke="midnightblue" points="586.377,-601.5 596.377,-598 586.377,-594.5 586.377,-601.5"/>
</g>
<!-- Node15 -->
<g id="node15" class="node"><title>Node15</title>
<g id="a_node15"><a xlink:href="../../d2/d95/class_x_m_l_parser.html#ae67767f9678fb650ac38b1321ea9f723" target="_top" xlink:title="XMLParser.parseInitialTags">
<polygon fill="white" stroke="black" points="404.5,-228.5 404.5,-247.5 545.5,-247.5 545.5,-228.5 404.5,-228.5"/>
<text text-anchor="middle" x="475" y="-235.5" font-family="Helvetica,sans-Serif" font-size="10.00">XMLParser.parseInitialTags</text>
</a>
</g>
</g>
<!-- Node14&#45;&gt;Node15 -->
<g id="edge18" class="edge"><title>Node14&#45;&gt;Node15</title>
<path fill="none" stroke="midnightblue" d="M326.182,-238C347.636,-238 371.812,-238 394.301,-238"/>
<polygon fill="midnightblue" stroke="midnightblue" points="394.5,-241.5 404.5,-238 394.5,-234.5 394.5,-241.5"/>
</g>
<!-- Node16 -->
<g id="node16" class="node"><title>Node16</title>
<g id="a_node16"><a xlink:href="../../d2/d95/class_x_m_l_parser.html#a09c6848239104ae94825c045796dddd0" target="_top" xlink:title="XMLParser.makeParamMap">
<polygon fill="white" stroke="black" points="603,-250.5 603,-269.5 749,-269.5 749,-250.5 603,-250.5"/>
<text text-anchor="middle" x="676" y="-257.5" font-family="Helvetica,sans-Serif" font-size="10.00">XMLParser.makeParamMap</text>
</a>
</g>
</g>
<!-- Node15&#45;&gt;Node16 -->
<g id="edge19" class="edge"><title>Node15&#45;&gt;Node16</title>
<path fill="none" stroke="midnightblue" d="M545.601,-245.695C560.771,-247.372 576.964,-249.162 592.578,-250.888"/>
<polygon fill="midnightblue" stroke="midnightblue" points="592.415,-254.391 602.739,-252.011 593.184,-247.434 592.415,-254.391"/>
</g>
<!-- Node17 -->
<g id="node17" class="node"><title>Node17</title>
<g id="a_node17"><a xlink:href="../../d2/d95/class_x_m_l_parser.html#a5a419f71699eb7d3d76ee238fb262a5f" target="_top" xlink:title="XMLParser.makeCellParamList">
<polygon fill="white" stroke="black" points="596,-212.5 596,-231.5 756,-231.5 756,-212.5 596,-212.5"/>
<text text-anchor="middle" x="676" y="-219.5" font-family="Helvetica,sans-Serif" font-size="10.00">XMLParser.makeCellParamList</text>
</a>
</g>
</g>
<!-- Node15&#45;&gt;Node17 -->
<g id="edge20" class="edge"><title>Node15&#45;&gt;Node17</title>
<path fill="none" stroke="midnightblue" d="M545.601,-232.404C558.551,-231.363 572.247,-230.262 585.692,-229.181"/>
<polygon fill="midnightblue" stroke="midnightblue" points="586.22,-232.649 595.908,-228.359 585.659,-225.672 586.22,-232.649"/>
</g>
<!-- Node19 -->
<g id="node19" class="node"><title>Node19</title>
<g id="a_node19"><a xlink:href="../../df/df8/class_cell_society_view.html#ae83511f9bf3610b0750d41c4aeb0f778" target="_top" xlink:title="CellSocietyView.setButtons\lPause">
<polygon fill="white" stroke="black" points="402,-179 402,-209 548,-209 548,-179 402,-179"/>
<text text-anchor="start" x="410" y="-197" font-family="Helvetica,sans-Serif" font-size="10.00">CellSocietyView.setButtons</text>
<text text-anchor="middle" x="475" y="-186" font-family="Helvetica,sans-Serif" font-size="10.00">Pause</text>
</a>
</g>
</g>
<!-- Node18&#45;&gt;Node19 -->
<g id="edge22" class="edge"><title>Node18&#45;&gt;Node19</title>
<path fill="none" stroke="midnightblue" d="M335.552,-197.918C353.614,-197.407 373.067,-196.857 391.519,-196.334"/>
<polygon fill="midnightblue" stroke="midnightblue" points="391.755,-199.829 401.652,-196.048 391.557,-192.832 391.755,-199.829"/>
</g>
<!-- Node20&#45;&gt;Node4 -->
<g id="edge24" class="edge"><title>Node20&#45;&gt;Node4</title>
<path fill="none" stroke="midnightblue" d="M337.235,-285.64C343.206,-288.132 348.893,-291.209 354,-295 424.132,-347.054 457.934,-452.705 469.359,-496.403"/>
<polygon fill="midnightblue" stroke="midnightblue" points="465.965,-497.257 471.79,-506.107 472.755,-495.556 465.965,-497.257"/>
</g>
<!-- Node21 -->
<g id="node21" class="node"><title>Node21</title>
<g id="a_node21"><a xlink:href="../../d2/d95/class_x_m_l_parser.html#a0df3a2904766f59d1246cb55416f8146" target="_top" xlink:title="XMLParser.getSimParamMap">
<polygon fill="white" stroke="black" points="398,-266.5 398,-285.5 552,-285.5 552,-266.5 398,-266.5"/>
<text text-anchor="middle" x="475" y="-273.5" font-family="Helvetica,sans-Serif" font-size="10.00">XMLParser.getSimParamMap</text>
</a>
</g>
</g>
<!-- Node20&#45;&gt;Node21 -->
<g id="edge25" class="edge"><title>Node20&#45;&gt;Node21</title>
<path fill="none" stroke="midnightblue" d="M338.537,-276C354.546,-276 371.53,-276 387.861,-276"/>
<polygon fill="midnightblue" stroke="midnightblue" points="387.931,-279.5 397.931,-276 387.931,-272.5 387.931,-279.5"/>
</g>
<!-- Node24 -->
<g id="node24" class="node"><title>Node24</title>
<g id="a_node24"><a xlink:href="../../d3/dff/class_cell_society.html#abf13a64ee79f2cb063447b499c695c58" target="_top" xlink:title="CellSociety.start">
<polygon fill="white" stroke="black" points="428.5,-127.5 428.5,-146.5 521.5,-146.5 521.5,-127.5 428.5,-127.5"/>
<text text-anchor="middle" x="475" y="-134.5" font-family="Helvetica,sans-Serif" font-size="10.00">CellSociety.start</text>
</a>
</g>
</g>
<!-- Node23&#45;&gt;Node24 -->
<g id="edge28" class="edge"><title>Node23&#45;&gt;Node24</title>
<path fill="none" stroke="midnightblue" d="M334.069,-128.419C361.5,-130.101 392.319,-131.991 418.038,-133.568"/>
<polygon fill="midnightblue" stroke="midnightblue" points="418.16,-137.082 428.356,-134.201 418.589,-130.095 418.16,-137.082"/>
</g>
<!-- Node25 -->
<g id="node25" class="node"><title>Node25</title>
<g id="a_node25"><a xlink:href="../../d3/dff/class_cell_society.html#a0ff19c30a1cc433d8ea8444f6a5617f1" target="_top" xlink:title="CellSociety.updateGrid">
<polygon fill="white" stroke="black" points="614,-143.5 614,-162.5 738,-162.5 738,-143.5 614,-143.5"/>
<text text-anchor="middle" x="676" y="-150.5" font-family="Helvetica,sans-Serif" font-size="10.00">CellSociety.updateGrid</text>
</a>
</g>
</g>
<!-- Node24&#45;&gt;Node25 -->
<g id="edge29" class="edge"><title>Node24&#45;&gt;Node25</title>
<path fill="none" stroke="midnightblue" d="M521.655,-140.671C545.871,-142.618 576.177,-145.054 603.438,-147.246"/>
<polygon fill="midnightblue" stroke="midnightblue" points="603.47,-150.76 613.718,-148.073 604.031,-143.783 603.47,-150.76"/>
</g>
<!-- Node25&#45;&gt;Node3 -->
<g id="edge37" class="edge"><title>Node25&#45;&gt;Node3</title>
<path fill="none" stroke="midnightblue" d="M694.278,-162.634C710.723,-172.101 735.877,-187.365 756,-203 773.379,-216.503 774.486,-223.673 792,-237 876.996,-301.68 988.525,-362.671 1039.88,-389.574"/>
<polygon fill="midnightblue" stroke="midnightblue" points="1038.56,-392.828 1049.04,-394.343 1041.79,-386.62 1038.56,-392.828"/>
</g>
<!-- Node26 -->
<g id="node26" class="node"><title>Node26</title>
<g id="a_node26"><a xlink:href="../../d8/d87/class_controller.html#aa8f10b5f28542d34053a7e4d5f1d6013" target="_top" xlink:title="Controller.runOneSim">
<polygon fill="white" stroke="black" points="815.5,-208.5 815.5,-227.5 934.5,-227.5 934.5,-208.5 815.5,-208.5"/>
<text text-anchor="middle" x="875" y="-215.5" font-family="Helvetica,sans-Serif" font-size="10.00">Controller.runOneSim</text>
</a>
</g>
</g>
<!-- Node25&#45;&gt;Node26 -->
<g id="edge30" class="edge"><title>Node25&#45;&gt;Node26</title>
<path fill="none" stroke="midnightblue" d="M698.263,-162.646C721.08,-172.726 758.558,-188.505 792,-199 800.117,-201.547 808.784,-203.919 817.329,-206.063"/>
<polygon fill="midnightblue" stroke="midnightblue" points="816.722,-209.517 827.265,-208.472 818.372,-202.714 816.722,-209.517"/>
</g>
<!-- Node27 -->
<g id="node27" class="node"><title>Node27</title>
<g id="a_node27"><a xlink:href="../../d3/dff/class_cell_society.html#a64ebaee33d25e0e730024e67d5582c63" target="_top" xlink:title="CellSociety.updateColors">
<polygon fill="white" stroke="black" points="808,-170.5 808,-189.5 942,-189.5 942,-170.5 808,-170.5"/>
<text text-anchor="middle" x="875" y="-177.5" font-family="Helvetica,sans-Serif" font-size="10.00">CellSociety.updateColors</text>
</a>
</g>
</g>
<!-- Node25&#45;&gt;Node27 -->
<g id="edge31" class="edge"><title>Node25&#45;&gt;Node27</title>
<path fill="none" stroke="midnightblue" d="M738.252,-161.395C757.19,-163.991 778.283,-166.881 798.088,-169.596"/>
<polygon fill="midnightblue" stroke="midnightblue" points="797.617,-173.064 807.999,-170.954 798.567,-166.129 797.617,-173.064"/>
</g>
<!-- Node29 -->
<g id="node29" class="node"><title>Node29</title>
<g id="a_node29"><a xlink:href="../../df/df8/class_cell_society_view.html#a43ac2666d3a002024be53fe74028a576" target="_top" xlink:title="CellSocietyView.updateSimGrid">
<polygon fill="white" stroke="black" points="792.5,-132.5 792.5,-151.5 957.5,-151.5 957.5,-132.5 792.5,-132.5"/>
<text text-anchor="middle" x="875" y="-139.5" font-family="Helvetica,sans-Serif" font-size="10.00">CellSocietyView.updateSimGrid</text>
</a>
</g>
</g>
<!-- Node25&#45;&gt;Node29 -->
<g id="edge34" class="edge"><title>Node25&#45;&gt;Node29</title>
<path fill="none" stroke="midnightblue" d="M738.252,-149.58C752.11,-148.806 767.12,-147.968 781.936,-147.141"/>
<polygon fill="midnightblue" stroke="midnightblue" points="782.356,-150.623 792.146,-146.571 781.966,-143.634 782.356,-150.623"/>
</g>
<!-- Node25&#45;&gt;Node32 -->
<g id="edge38" class="edge"><title>Node25&#45;&gt;Node32</title>
<path fill="none" stroke="midnightblue" d="M711.315,-143.42C738.488,-135.833 777.206,-125.024 810.053,-115.853"/>
<polygon fill="midnightblue" stroke="midnightblue" points="811.348,-119.126 820.039,-113.065 809.466,-112.383 811.348,-119.126"/>
</g>
<!-- Node27&#45;&gt;Node3 -->
<g id="edge33" class="edge"><title>Node27&#45;&gt;Node3</title>
<path fill="none" stroke="midnightblue" d="M941.471,-189.643C947.381,-192.111 953.009,-195.182 958,-199 1021.47,-247.555 1052.54,-343.513 1063.38,-384.595"/>
<polygon fill="midnightblue" stroke="midnightblue" points="1060.02,-385.591 1065.86,-394.432 1066.81,-383.879 1060.02,-385.591"/>
</g>
<!-- Node28 -->
<g id="node28" class="node"><title>Node28</title>
<g id="a_node28"><a xlink:href="../../dd/d11/class_cell.html#a7f8d2520a26a1376a44372149e561f6b" target="_top" xlink:title="Cell.toString">
<polygon fill="white" stroke="black" points="1031.5,-91.5 1031.5,-110.5 1106.5,-110.5 1106.5,-91.5 1031.5,-91.5"/>
<text text-anchor="middle" x="1069" y="-98.5" font-family="Helvetica,sans-Serif" font-size="10.00">Cell.toString</text>
</a>
</g>
</g>
<!-- Node27&#45;&gt;Node28 -->
<g id="edge32" class="edge"><title>Node27&#45;&gt;Node28</title>
<path fill="none" stroke="midnightblue" d="M936.233,-170.366C943.826,-167.918 951.279,-164.849 958,-161 978.189,-149.439 974.175,-135.174 994,-123 1002.39,-117.847 1012.06,-113.839 1021.59,-110.744"/>
<polygon fill="midnightblue" stroke="midnightblue" points="1022.8,-114.034 1031.4,-107.84 1020.82,-107.322 1022.8,-114.034"/>
</g>
<!-- Node30 -->
<g id="node30" class="node"><title>Node30</title>
<g id="a_node30"><a xlink:href="../../da/d74/class_grid.html#a35a1ac27af1320c129643842e74a904b" target="_top" xlink:title="Grid.update">
<polygon fill="white" stroke="black" points="1032.5,-132.5 1032.5,-151.5 1105.5,-151.5 1105.5,-132.5 1032.5,-132.5"/>
<text text-anchor="middle" x="1069" y="-139.5" font-family="Helvetica,sans-Serif" font-size="10.00">Grid.update</text>
</a>
</g>
</g>
<!-- Node29&#45;&gt;Node30 -->
<g id="edge35" class="edge"><title>Node29&#45;&gt;Node30</title>
<path fill="none" stroke="midnightblue" d="M957.704,-142C979.852,-142 1003.04,-142 1022.41,-142"/>
<polygon fill="midnightblue" stroke="midnightblue" points="1022.45,-145.5 1032.45,-142 1022.45,-138.5 1022.45,-145.5"/>
</g>
<!-- Node31 -->
<g id="node31" class="node"><title>Node31</title>
<g id="a_node31"><a xlink:href="../../da/d74/class_grid.html#a12ccb8909871030fc2e2839dff169f3a" target="_top" xlink:title="Grid.displayGrid">
<polygon fill="white" stroke="black" points="1180,-132.5 1180,-151.5 1272,-151.5 1272,-132.5 1180,-132.5"/>
<text text-anchor="middle" x="1226" y="-139.5" font-family="Helvetica,sans-Serif" font-size="10.00">Grid.displayGrid</text>
</a>
</g>
</g>
<!-- Node30&#45;&gt;Node31 -->
<g id="edge36" class="edge"><title>Node30&#45;&gt;Node31</title>
<path fill="none" stroke="midnightblue" d="M1105.56,-142C1124.53,-142 1148.3,-142 1169.63,-142"/>
<polygon fill="midnightblue" stroke="midnightblue" points="1169.87,-145.5 1179.87,-142 1169.87,-138.5 1169.87,-145.5"/>
</g>
<!-- Node32&#45;&gt;Node28 -->
<g id="edge39" class="edge"><title>Node32&#45;&gt;Node28</title>
<path fill="none" stroke="midnightblue" d="M951.608,-99.1814C975.038,-99.5475 1000.17,-99.9401 1021.06,-100.267"/>
<polygon fill="midnightblue" stroke="midnightblue" points="1021.2,-103.769 1031.26,-100.426 1021.31,-96.77 1021.2,-103.769"/>
</g>
<!-- Node34 -->
<g id="node34" class="node"><title>Node34</title>
<g id="a_node34"><a xlink:href="../../da/d74/class_grid.html#a1febd1c7daf70dbedc9ca16a3c8099db" target="_top" xlink:title="Grid.getGrid">
<polygon fill="white" stroke="black" points="438,-0.5 438,-19.5 512,-19.5 512,-0.5 438,-0.5"/>
<text text-anchor="middle" x="475" y="-7.5" font-family="Helvetica,sans-Serif" font-size="10.00">Grid.getGrid</text>
</a>
</g>
</g>
<!-- Node33&#45;&gt;Node34 -->
<g id="edge41" class="edge"><title>Node33&#45;&gt;Node34</title>
<path fill="none" stroke="midnightblue" d="M315.223,-38.46C349.903,-32.2438 394.702,-24.2137 427.868,-18.269"/>
<polygon fill="midnightblue" stroke="midnightblue" points="428.537,-21.7048 437.763,-16.4953 427.302,-14.8146 428.537,-21.7048"/>
</g>
<!-- Node35 -->
<g id="node35" class="node"><title>Node35</title>
<g id="a_node35"><a xlink:href="../../d4/d92/class_grid_factory.html#a3c5221912f2534ff2cf8cacb935e7fc9" target="_top" xlink:title="GridFactory.createGrid">
<polygon fill="white" stroke="black" points="414,-38.5 414,-57.5 536,-57.5 536,-38.5 414,-38.5"/>
<text text-anchor="middle" x="475" y="-45.5" font-family="Helvetica,sans-Serif" font-size="10.00">GridFactory.createGrid</text>
</a>
</g>
</g>
<!-- Node33&#45;&gt;Node35 -->
<g id="edge42" class="edge"><title>Node33&#45;&gt;Node35</title>
<path fill="none" stroke="midnightblue" d="M343.056,-48C362.971,-48 384.133,-48 403.505,-48"/>
<polygon fill="midnightblue" stroke="midnightblue" points="403.759,-51.5001 413.759,-48 403.759,-44.5001 403.759,-51.5001"/>
</g>
</g>
</svg>
        <g id="navigator" transform="translate(0 0)" fill="#404254">
                <rect fill="#f2f5e9" fill-opacity="0.5" stroke="#606060" stroke-width=".5" x="0" y="0" width="60" height="60"/>
                <use id="zoomplus" xlink:href="#zoomPlus" x="17" y="9" onmousedown="handleZoom(evt,'in')"/>
                <use id="zoomminus" xlink:href="#zoomMin" x="42" y="9" onmousedown="handleZoom(evt,'out')"/>
                <use id="reset" xlink:href="#resetDef" x="30" y="36" onmousedown="handleReset()"/>
                <g id="arrowUp" xlink:href="#dirArrow" transform="translate(30 24)" onmousedown="handlePan(0,-1)">
                  <use xlink:href="#rim" fill="#404040">
                        <set attributeName="fill" to="#808080" begin="arrowUp.mouseover" end="arrowUp.mouseout"/>
                  </use>
                  <path fill="none" stroke="white" stroke-width="1.5" d="M0,-3.0v7 M-2.5,-0.5L0,-3.0L2.5,-0.5"/>
                </g>
                <g id="arrowRight" xlink:href="#dirArrow" transform="rotate(90) translate(36 -43)" onmousedown="handlePan(1,0)">
                  <use xlink:href="#rim" fill="#404040">
                        <set attributeName="fill" to="#808080" begin="arrowRight.mouseover" end="arrowRight.mouseout"/>
                  </use>
                  <path fill="none" stroke="white" stroke-width="1.5" d="M0,-3.0v7 M-2.5,-0.5L0,-3.0L2.5,-0.5"/>
                </g>
                <g id="arrowDown" xlink:href="#dirArrow" transform="rotate(180) translate(-30 -48)" onmousedown="handlePan(0,1)">
                  <use xlink:href="#rim" fill="#404040">
                        <set attributeName="fill" to="#808080" begin="arrowDown.mouseover" end="arrowDown.mouseout"/>
                  </use>
                  <path fill="none" stroke="white" stroke-width="1.5" d="M0,-3.0v7 M-2.5,-0.5L0,-3.0L2.5,-0.5"/>
                </g>
                <g id="arrowLeft" xlink:href="#dirArrow" transform="rotate(270) translate(-36 17)" onmousedown="handlePan(-1,0)">
                  <use xlink:href="#rim" fill="#404040">
                        <set attributeName="fill" to="#808080" begin="arrowLeft.mouseover" end="arrowLeft.mouseout"/>
                  </use>
                  <path fill="none" stroke="white" stroke-width="1.5" d="M0,-3.0v7 M-2.5,-0.5L0,-3.0L2.5,-0.5"/>
                </g>
        </g>
        <svg viewBox="0 0 15 15" width="100%" height="30px" preserveAspectRatio="xMaxYMin meet">
         <g id="arrow_out" transform="scale(0.3 0.3)">
          <a xlink:href="class_cell_society_af9f22af39a97a58b26126020ca6c8844_cgraph_org.svg" target="_base">
           <rect id="button" ry="5" rx="5" y="6" x="6" height="38" width="38"
                fill="#f2f5e9" fill-opacity="0.5" stroke="#606060" stroke-width="1.0"/>
           <path id="arrow"
             d="M 11.500037,31.436501 C 11.940474,20.09759 22.043105,11.32322 32.158766,21.979434 L 37.068811,17.246167 C 37.068811,17.246167 37.088388,32 37.088388,32 L 22.160133,31.978069 C 22.160133,31.978069 26.997745,27.140456 26.997745,27.140456 C 18.528582,18.264221 13.291696,25.230495 11.500037,31.436501 z"
             style="fill:#404040;"/>
          </a>
         </g>
        </svg>
</svg>
