<?xml version="1.0" encoding="UTF-8" standalone="no"?>
<!DOCTYPE svg PUBLIC "-//W3C//DTD SVG 1.1//EN"
 "http://www.w3.org/Graphics/SVG/1.1/DTD/svg11.dtd">
<!-- Generated by graphviz version 2.36.0 (20140111.2315)
 -->
<!-- Title: CellSociety.CellSociety Pages: 1 -->
<!--zoomable 556 -->
<svg id="main" version="1.1" xmlns="http://www.w3.org/2000/svg" xmlns:xlink="http://www.w3.org/1999/xlink" xml:space="preserve" onload="init(evt)">
<style type="text/css"><![CDATA[
.edge:hover path { stroke: red; }
.edge:hover polygon { stroke: red; fill: red; }
]]></style>
<script type="text/javascript"><![CDATA[
var edges = document.getElementsByTagName('g');
if (edges && edges.length) {
  for (var i=0;i<edges.length;i++) {
    if (edges[i].id.substr(0,4)=='edge') {
      edges[i].setAttribute('class','edge');
    }
  }
}
]]></script>
        <defs>
                <circle id="rim" cx="0" cy="0" r="7"/>
                <circle id="rim2" cx="0" cy="0" r="3.5"/>
                <g id="zoomPlus">
                        <use xlink:href="#rim" fill="#404040">
                                <set attributeName="fill" to="#808080" begin="zoomplus.mouseover" end="zoomplus.mouseout"/>
                        </use>
                        <path d="M-4,0h8M0,-4v8" fill="none" stroke="white" stroke-width="1.5" pointer-events="none"/>
                </g>
                <g id="zoomMin">
                        <use xlink:href="#rim" fill="#404040">
                                <set attributeName="fill" to="#808080" begin="zoomminus.mouseover" end="zoomminus.mouseout"/>
                        </use>
                        <path d="M-4,0h8" fill="none" stroke="white" stroke-width="1.5" pointer-events="none"/>
                </g>
                <g id="dirArrow">
                        <path fill="none" stroke="white" stroke-width="1.5" d="M0,-3.0v7 M-2.5,-0.5L0,-3.0L2.5,-0.5"/>
                </g>
               <g id="resetDef">
                       <use xlink:href="#rim2" fill="#404040">
                               <set attributeName="fill" to="#808080" begin="reset.mouseover" end="reset.mouseout"/>
                       </use>
               </g>
        </defs>

<script type="text/javascript">
var viewWidth = 1554;
var viewHeight = 556;
var sectionId = 'dynsection-1';
</script>
<script xlink:href="../../svgpan.js"/>
<svg id="graph" class="graph">
<g id="viewport">
<title>CellSociety.CellSociety</title>
<polygon fill="white" stroke="none" points="-4,4 -4,-552 1550,-552 1550,4 -4,4"/>
<!-- Node1 -->
<g id="node1" class="node"><title>Node1</title>
<polygon fill="#bfbfbf" stroke="black" points="0.5,-243.5 0.5,-262.5 123.5,-262.5 123.5,-243.5 0.5,-243.5"/>
<text text-anchor="middle" x="62" y="-250.5" font-family="Helvetica,sans-Serif" font-size="10.00">CellSociety.CellSociety</text>
</g>
<!-- Node2 -->
<g id="node2" class="node"><title>Node2</title>
<g id="a_node2"><a xlink:href="../../d3/dff/class_cell_society.html#a656ff46d1459fb7f86b42e3c542506ee" target="_top" xlink:title="CellSociety.configureListeners">
<polygon fill="white" stroke="black" points="160,-243.5 160,-262.5 318,-262.5 318,-243.5 160,-243.5"/>
<text text-anchor="middle" x="239" y="-250.5" font-family="Helvetica,sans-Serif" font-size="10.00">CellSociety.configureListeners</text>
</a>
</g>
</g>
<!-- Node1&#45;&gt;Node2 -->
<g id="edge1" class="edge"><title>Node1&#45;&gt;Node2</title>
<path fill="none" stroke="midnightblue" d="M123.715,-253C132.088,-253 140.823,-253 149.57,-253"/>
<polygon fill="midnightblue" stroke="midnightblue" points="149.823,-256.5 159.823,-253 149.823,-249.5 149.823,-256.5"/>
</g>
<!-- Node3 -->
<g id="node3" class="node"><title>Node3</title>
<g id="a_node3"><a xlink:href="../../df/df8/class_cell_society_view.html#aae7c36ea6b5215b0ba9ee01c72dfcb94" target="_top" xlink:title="CellSocietyView.getPlayElement">
<polygon fill="white" stroke="black" points="356,-452.5 356,-471.5 524,-471.5 524,-452.5 356,-452.5"/>
<text text-anchor="middle" x="440" y="-459.5" font-family="Helvetica,sans-Serif" font-size="10.00">CellSocietyView.getPlayElement</text>
</a>
</g>
</g>
<!-- Node2&#45;&gt;Node3 -->
<g id="edge2" class="edge"><title>Node2&#45;&gt;Node3</title>
<path fill="none" stroke="midnightblue" d="M243.141,-262.806C253.539,-293.659 289.877,-389.57 354,-438 359.805,-442.384 366.376,-445.967 373.232,-448.896"/>
<polygon fill="midnightblue" stroke="midnightblue" points="372.12,-452.218 382.711,-452.498 374.607,-445.674 372.12,-452.218"/>
</g>
<!-- Node4 -->
<g id="node4" class="node"><title>Node4</title>
<g id="a_node4"><a xlink:href="../../d3/dff/class_cell_society.html#a6a4056cd40e4162583f2b9845b77a191" target="_top" xlink:title="CellSociety.resumeAnimation">
<polygon fill="white" stroke="black" points="577,-528.5 577,-547.5 733,-547.5 733,-528.5 577,-528.5"/>
<text text-anchor="middle" x="655" y="-535.5" font-family="Helvetica,sans-Serif" font-size="10.00">CellSociety.resumeAnimation</text>
</a>
</g>
</g>
<!-- Node2&#45;&gt;Node4 -->
<g id="edge3" class="edge"><title>Node2&#45;&gt;Node4</title>
<path fill="none" stroke="midnightblue" d="M244.528,-262.86C257.434,-289.802 297.178,-365.108 354,-402 419.913,-444.794 464.953,-393.511 526,-443 555.034,-466.537 532.612,-495.906 562,-519 564.208,-520.735 566.535,-522.323 568.956,-523.775"/>
<polygon fill="midnightblue" stroke="midnightblue" points="567.586,-527.006 578.081,-528.462 570.785,-520.78 567.586,-527.006"/>
</g>
<!-- Node6 -->
<g id="node6" class="node"><title>Node6</title>
<g id="a_node6"><a xlink:href="../../df/df8/class_cell_society_view.html#ada088eb9125561f8dd941badb141fa86" target="_top" xlink:title="CellSocietyView.getPause\lElement">
<polygon fill="white" stroke="black" points="371.5,-175 371.5,-205 508.5,-205 508.5,-175 371.5,-175"/>
<text text-anchor="start" x="379.5" y="-193" font-family="Helvetica,sans-Serif" font-size="10.00">CellSocietyView.getPause</text>
<text text-anchor="middle" x="440" y="-182" font-family="Helvetica,sans-Serif" font-size="10.00">Element</text>
</a>
</g>
</g>
<!-- Node2&#45;&gt;Node6 -->
<g id="edge5" class="edge"><title>Node2&#45;&gt;Node6</title>
<path fill="none" stroke="midnightblue" d="M270.224,-243.432C299.642,-234.118 345.1,-219.727 381.43,-208.226"/>
<polygon fill="midnightblue" stroke="midnightblue" points="382.936,-211.42 391.414,-205.065 380.824,-204.747 382.936,-211.42"/>
</g>
<!-- Node7 -->
<g id="node7" class="node"><title>Node7</title>
<g id="a_node7"><a xlink:href="../../d3/dff/class_cell_society.html#ae565a305ea53e5a37da9816a236b4fbc" target="_top" xlink:title="CellSociety.pauseAnimation">
<polygon fill="white" stroke="black" points="580.5,-490.5 580.5,-509.5 729.5,-509.5 729.5,-490.5 580.5,-490.5"/>
<text text-anchor="middle" x="655" y="-497.5" font-family="Helvetica,sans-Serif" font-size="10.00">CellSociety.pauseAnimation</text>
</a>
</g>
</g>
<!-- Node2&#45;&gt;Node7 -->
<g id="edge6" class="edge"><title>Node2&#45;&gt;Node7</title>
<path fill="none" stroke="midnightblue" d="M246.746,-262.687C262.686,-284.812 305.043,-339.281 354,-367 422.569,-405.823 464.397,-360.867 526,-410 553.66,-432.061 533.89,-459.515 562,-481 564.873,-483.196 567.938,-485.154 571.141,-486.899"/>
<polygon fill="midnightblue" stroke="midnightblue" points="569.946,-490.204 580.487,-491.273 572.913,-483.864 569.946,-490.204"/>
</g>
<!-- Node8 -->
<g id="node8" class="node"><title>Node8</title>
<g id="a_node8"><a xlink:href="../../df/df8/class_cell_society_view.html#a3c3a7039f77d392c374cd309967ca1cc" target="_top" xlink:title="CellSocietyView.getStepElement">
<polygon fill="white" stroke="black" points="354.5,-136.5 354.5,-155.5 525.5,-155.5 525.5,-136.5 354.5,-136.5"/>
<text text-anchor="middle" x="440" y="-143.5" font-family="Helvetica,sans-Serif" font-size="10.00">CellSocietyView.getStepElement</text>
</a>
</g>
</g>
<!-- Node2&#45;&gt;Node8 -->
<g id="edge8" class="edge"><title>Node2&#45;&gt;Node8</title>
<path fill="none" stroke="midnightblue" d="M249.377,-243.358C267.704,-225.104 310.314,-185.495 354,-165 359.262,-162.531 364.86,-160.376 370.575,-158.495"/>
<polygon fill="midnightblue" stroke="midnightblue" points="371.694,-161.813 380.263,-155.582 369.679,-155.11 371.694,-161.813"/>
</g>
<!-- Node9 -->
<g id="node9" class="node"><title>Node9</title>
<g id="a_node9"><a xlink:href="../../d3/dff/class_cell_society.html#a0ff19c30a1cc433d8ea8444f6a5617f1" target="_top" xlink:title="CellSociety.updateGrid">
<polygon fill="white" stroke="black" points="1016,-151.5 1016,-170.5 1140,-170.5 1140,-151.5 1016,-151.5"/>
<text text-anchor="middle" x="1078" y="-158.5" font-family="Helvetica,sans-Serif" font-size="10.00">CellSociety.updateGrid</text>
</a>
</g>
</g>
<!-- Node2&#45;&gt;Node9 -->
<g id="edge9" class="edge"><title>Node2&#45;&gt;Node9</title>
<path fill="none" stroke="midnightblue" d="M318.306,-252.004C392.325,-249.396 496.337,-240.876 526,-214 577.128,-167.676 507.853,-105.755 562,-63 626.879,-11.7704 672.06,-30.3359 748,-63 769.371,-72.1925 763.664,-89.6997 784,-101 853.112,-139.405 943.671,-153.35 1005.71,-158.346"/>
<polygon fill="midnightblue" stroke="midnightblue" points="1005.57,-161.845 1015.8,-159.1 1006.09,-154.865 1005.57,-161.845"/>
</g>
<!-- Node16 -->
<g id="node16" class="node"><title>Node16</title>
<g id="a_node16"><a xlink:href="../../df/df8/class_cell_society_view.html#aebad9aaff0e9784fec1518d319e03c85" target="_top" xlink:title="CellSocietyView.getXMLElement">
<polygon fill="white" stroke="black" points="356,-98.5 356,-117.5 524,-117.5 524,-98.5 356,-98.5"/>
<text text-anchor="middle" x="440" y="-105.5" font-family="Helvetica,sans-Serif" font-size="10.00">CellSocietyView.getXMLElement</text>
</a>
</g>
</g>
<!-- Node2&#45;&gt;Node16 -->
<g id="edge16" class="edge"><title>Node2&#45;&gt;Node16</title>
<path fill="none" stroke="midnightblue" d="M245.764,-243.266C260.486,-219.32 302.005,-157.3 354,-127 357.852,-124.755 361.944,-122.776 366.17,-121.03"/>
<polygon fill="midnightblue" stroke="midnightblue" points="367.414,-124.302 375.594,-117.569 365.001,-117.731 367.414,-124.302"/>
</g>
<!-- Node17 -->
<g id="node17" class="node"><title>Node17</title>
<g id="a_node17"><a xlink:href="../../d3/dff/class_cell_society.html#af9f22af39a97a58b26126020ca6c8844" target="_top" xlink:title="CellSociety.readNewXML">
<polygon fill="white" stroke="black" points="374,-262.5 374,-281.5 506,-281.5 506,-262.5 374,-262.5"/>
<text text-anchor="middle" x="440" y="-269.5" font-family="Helvetica,sans-Serif" font-size="10.00">CellSociety.readNewXML</text>
</a>
</g>
</g>
<!-- Node2&#45;&gt;Node17 -->
<g id="edge17" class="edge"><title>Node2&#45;&gt;Node17</title>
<path fill="none" stroke="midnightblue" d="M318.079,-260.455C333.119,-261.891 348.845,-263.392 363.792,-264.819"/>
<polygon fill="midnightblue" stroke="midnightblue" points="363.71,-268.327 373.997,-265.794 364.375,-261.359 363.71,-268.327"/>
</g>
<!-- Node35 -->
<g id="node35" class="node"><title>Node35</title>
<g id="a_node35"><a xlink:href="../../df/df8/class_cell_society_view.html#a572d464cbe7d186dc9a5b0e4a8130689" target="_top" xlink:title="CellSocietyView.getSpeedup\lElement">
<polygon fill="white" stroke="black" points="364,-49 364,-79 516,-79 516,-49 364,-49"/>
<text text-anchor="start" x="372" y="-67" font-family="Helvetica,sans-Serif" font-size="10.00">CellSocietyView.getSpeedup</text>
<text text-anchor="middle" x="440" y="-56" font-family="Helvetica,sans-Serif" font-size="10.00">Element</text>
</a>
</g>
</g>
<!-- Node2&#45;&gt;Node35 -->
<g id="edge40" class="edge"><title>Node2&#45;&gt;Node35</title>
<path fill="none" stroke="midnightblue" d="M243.998,-243.143C256.061,-214.663 294.934,-131.588 354,-89 356.683,-87.0658 359.514,-85.2802 362.451,-83.6318"/>
<polygon fill="midnightblue" stroke="midnightblue" points="364.155,-86.6926 371.531,-79.087 361.022,-80.4328 364.155,-86.6926"/>
</g>
<!-- Node36 -->
<g id="node36" class="node"><title>Node36</title>
<g id="a_node36"><a xlink:href="../../d3/dff/class_cell_society.html#a8250bfacdaf51dabf6b9d1cafc0ce9b2" target="_top" xlink:title="CellSociety.increaseFrameRate">
<polygon fill="white" stroke="black" points="358.5,-338.5 358.5,-357.5 521.5,-357.5 521.5,-338.5 358.5,-338.5"/>
<text text-anchor="middle" x="440" y="-345.5" font-family="Helvetica,sans-Serif" font-size="10.00">CellSociety.increaseFrameRate</text>
</a>
</g>
</g>
<!-- Node2&#45;&gt;Node36 -->
<g id="edge41" class="edge"><title>Node2&#45;&gt;Node36</title>
<path fill="none" stroke="midnightblue" d="M251.154,-262.518C270.674,-278.675 312.88,-311.423 354,-329 359.84,-331.496 366.051,-333.685 372.355,-335.6"/>
<polygon fill="midnightblue" stroke="midnightblue" points="371.724,-339.058 382.298,-338.388 373.614,-332.318 371.724,-339.058"/>
</g>
<!-- Node38 -->
<g id="node38" class="node"><title>Node38</title>
<g id="a_node38"><a xlink:href="../../df/df8/class_cell_society_view.html#a0f616a01579a7293ef781d3e341ea1ac" target="_top" xlink:title="CellSocietyView.getSlowdown\lElement">
<polygon fill="white" stroke="black" points="362.5,-0 362.5,-30 517.5,-30 517.5,-0 362.5,-0"/>
<text text-anchor="start" x="370.5" y="-18" font-family="Helvetica,sans-Serif" font-size="10.00">CellSocietyView.getSlowdown</text>
<text text-anchor="middle" x="440" y="-7" font-family="Helvetica,sans-Serif" font-size="10.00">Element</text>
</a>
</g>
</g>
<!-- Node2&#45;&gt;Node38 -->
<g id="edge45" class="edge"><title>Node2&#45;&gt;Node38</title>
<path fill="none" stroke="midnightblue" d="M242.294,-243.137C250.716,-209.178 283.198,-96.0506 354,-39 355.612,-37.7012 357.29,-36.4726 359.023,-35.3104"/>
<polygon fill="midnightblue" stroke="midnightblue" points="361.208,-38.0886 368.093,-30.0358 357.689,-32.0374 361.208,-38.0886"/>
</g>
<!-- Node39 -->
<g id="node39" class="node"><title>Node39</title>
<g id="a_node39"><a xlink:href="../../d3/dff/class_cell_society.html#a045267ba1843ca4a47891d7be73c2ac1" target="_top" xlink:title="CellSociety.decreaseFrameRate">
<polygon fill="white" stroke="black" points="356.5,-300.5 356.5,-319.5 523.5,-319.5 523.5,-300.5 356.5,-300.5"/>
<text text-anchor="middle" x="440" y="-307.5" font-family="Helvetica,sans-Serif" font-size="10.00">CellSociety.decreaseFrameRate</text>
</a>
</g>
</g>
<!-- Node2&#45;&gt;Node39 -->
<g id="edge46" class="edge"><title>Node2&#45;&gt;Node39</title>
<path fill="none" stroke="midnightblue" d="M266.028,-262.518C288.985,-270.711 323.445,-282.516 354,-291 363.192,-293.552 373.015,-296 382.6,-298.241"/>
<polygon fill="midnightblue" stroke="midnightblue" points="381.938,-301.679 392.467,-300.496 383.498,-294.855 381.938,-301.679"/>
</g>
<!-- Node5 -->
<g id="node5" class="node"><title>Node5</title>
<g id="a_node5"><a xlink:href="../../df/df8/class_cell_society_view.html#ae83511f9bf3610b0750d41c4aeb0f778" target="_top" xlink:title="CellSocietyView.setButtons\lPause">
<polygon fill="white" stroke="black" points="800,-504 800,-534 946,-534 946,-504 800,-504"/>
<text text-anchor="start" x="808" y="-522" font-family="Helvetica,sans-Serif" font-size="10.00">CellSocietyView.setButtons</text>
<text text-anchor="middle" x="873" y="-511" font-family="Helvetica,sans-Serif" font-size="10.00">Pause</text>
</a>
</g>
</g>
<!-- Node4&#45;&gt;Node5 -->
<g id="edge4" class="edge"><title>Node4&#45;&gt;Node5</title>
<path fill="none" stroke="midnightblue" d="M733.066,-531.221C751.365,-529.611 770.957,-527.888 789.487,-526.258"/>
<polygon fill="midnightblue" stroke="midnightblue" points="790.003,-529.726 799.658,-525.363 789.39,-522.753 790.003,-529.726"/>
</g>
<!-- Node7&#45;&gt;Node5 -->
<g id="edge7" class="edge"><title>Node7&#45;&gt;Node5</title>
<path fill="none" stroke="midnightblue" d="M729.731,-506.486C748.984,-508.179 769.859,-510.015 789.534,-511.746"/>
<polygon fill="midnightblue" stroke="midnightblue" points="789.43,-515.25 799.699,-512.64 790.044,-508.277 789.43,-515.25"/>
</g>
<!-- Node10 -->
<g id="node10" class="node"><title>Node10</title>
<g id="a_node10"><a xlink:href="../../d6/d6e/class_sim_controller.html#a10145cee2eaceb4ecad9396a825051d1" target="_top" xlink:title="SimController.runOneSim">
<polygon fill="white" stroke="black" points="1208,-151.5 1208,-170.5 1346,-170.5 1346,-151.5 1208,-151.5"/>
<text text-anchor="middle" x="1277" y="-158.5" font-family="Helvetica,sans-Serif" font-size="10.00">SimController.runOneSim</text>
</a>
</g>
</g>
<!-- Node9&#45;&gt;Node10 -->
<g id="edge10" class="edge"><title>Node9&#45;&gt;Node10</title>
<path fill="none" stroke="midnightblue" d="M1140.25,-161C1158.44,-161 1178.62,-161 1197.74,-161"/>
<polygon fill="midnightblue" stroke="midnightblue" points="1197.92,-164.5 1207.92,-161 1197.92,-157.5 1197.92,-164.5"/>
</g>
<!-- Node14 -->
<g id="node14" class="node"><title>Node14</title>
<g id="a_node14"><a xlink:href="../../df/df8/class_cell_society_view.html#a43ac2666d3a002024be53fe74028a576" target="_top" xlink:title="CellSocietyView.updateSimGrid">
<polygon fill="white" stroke="black" points="1194.5,-110.5 1194.5,-129.5 1359.5,-129.5 1359.5,-110.5 1194.5,-110.5"/>
<text text-anchor="middle" x="1277" y="-117.5" font-family="Helvetica,sans-Serif" font-size="10.00">CellSocietyView.updateSimGrid</text>
</a>
</g>
</g>
<!-- Node9&#45;&gt;Node14 -->
<g id="edge14" class="edge"><title>Node9&#45;&gt;Node14</title>
<path fill="none" stroke="midnightblue" d="M1124.69,-151.491C1153.18,-145.561 1190.04,-137.89 1220.25,-131.603"/>
<polygon fill="midnightblue" stroke="midnightblue" points="1221.14,-134.993 1230.22,-129.529 1219.71,-128.14 1221.14,-134.993"/>
</g>
<!-- Node11 -->
<g id="node11" class="node"><title>Node11</title>
<g id="a_node11"><a xlink:href="../../dd/ddd/class_neighbor.html#ac769186595af20512a2ec4754db75640" target="_top" xlink:title="Neighbor.getNeighbors">
<polygon fill="white" stroke="black" points="1407.5,-173.5 1407.5,-192.5 1534.5,-192.5 1534.5,-173.5 1407.5,-173.5"/>
<text text-anchor="middle" x="1471" y="-180.5" font-family="Helvetica,sans-Serif" font-size="10.00">Neighbor.getNeighbors</text>
</a>
</g>
</g>
<!-- Node10&#45;&gt;Node11 -->
<g id="edge11" class="edge"><title>Node10&#45;&gt;Node11</title>
<path fill="none" stroke="midnightblue" d="M1346.23,-168.818C1362.75,-170.71 1380.46,-172.74 1397.17,-174.655"/>
<polygon fill="midnightblue" stroke="midnightblue" points="1397.1,-178.17 1407.43,-175.831 1397.9,-171.215 1397.1,-178.17"/>
</g>
<!-- Node12 -->
<g id="node12" class="node"><title>Node12</title>
<g id="a_node12"><a xlink:href="../../d6/d6e/class_sim_controller.html#a1538c5c647988e5d5b6602c8eb1b8949" target="_top" xlink:title="SimController.getNeighbors\lState">
<polygon fill="white" stroke="black" points="1396.5,-124 1396.5,-154 1545.5,-154 1545.5,-124 1396.5,-124"/>
<text text-anchor="start" x="1404.5" y="-142" font-family="Helvetica,sans-Serif" font-size="10.00">SimController.getNeighbors</text>
<text text-anchor="middle" x="1471" y="-131" font-family="Helvetica,sans-Serif" font-size="10.00">State</text>
</a>
</g>
</g>
<!-- Node10&#45;&gt;Node12 -->
<g id="edge12" class="edge"><title>Node10&#45;&gt;Node12</title>
<path fill="none" stroke="midnightblue" d="M1346.23,-153.182C1359.2,-151.696 1372.91,-150.125 1386.3,-148.591"/>
<polygon fill="midnightblue" stroke="midnightblue" points="1386.92,-152.043 1396.45,-147.427 1386.12,-145.089 1386.92,-152.043"/>
</g>
<!-- Node13 -->
<g id="node13" class="node"><title>Node13</title>
<g id="a_node13"><a xlink:href="../../d6/d6e/class_sim_controller.html#a6b7a166a6fd312895c8356d24de980e3" target="_top" xlink:title="SimController.newState">
<polygon fill="white" stroke="black" points="1406.5,-211.5 1406.5,-230.5 1535.5,-230.5 1535.5,-211.5 1406.5,-211.5"/>
<text text-anchor="middle" x="1471" y="-218.5" font-family="Helvetica,sans-Serif" font-size="10.00">SimController.newState</text>
</a>
</g>
</g>
<!-- Node10&#45;&gt;Node13 -->
<g id="edge13" class="edge"><title>Node10&#45;&gt;Node13</title>
<path fill="none" stroke="midnightblue" d="M1303.58,-170.578C1327.35,-179.312 1363.82,-192.295 1396,-202 1403.85,-204.368 1412.23,-206.702 1420.42,-208.878"/>
<polygon fill="midnightblue" stroke="midnightblue" points="1419.72,-212.31 1430.28,-211.447 1421.48,-205.537 1419.72,-212.31"/>
</g>
<!-- Node15 -->
<g id="node15" class="node"><title>Node15</title>
<g id="a_node15"><a xlink:href="../../dd/d11/class_cell.html#a1e0ece61fecc69a9b7986d17d925434a" target="_top" xlink:title="Cell.getShape">
<polygon fill="white" stroke="black" points="1429.5,-85.5 1429.5,-104.5 1512.5,-104.5 1512.5,-85.5 1429.5,-85.5"/>
<text text-anchor="middle" x="1471" y="-92.5" font-family="Helvetica,sans-Serif" font-size="10.00">Cell.getShape</text>
</a>
</g>
</g>
<!-- Node14&#45;&gt;Node15 -->
<g id="edge15" class="edge"><title>Node14&#45;&gt;Node15</title>
<path fill="none" stroke="midnightblue" d="M1351.13,-110.477C1373.9,-107.513 1398.49,-104.311 1419.37,-101.593"/>
<polygon fill="midnightblue" stroke="midnightblue" points="1419.83,-105.063 1429.29,-100.301 1418.92,-98.1212 1419.83,-105.063"/>
</g>
<!-- Node17&#45;&gt;Node7 -->
<g id="edge37" class="edge"><title>Node17&#45;&gt;Node7</title>
<path fill="none" stroke="midnightblue" d="M506.065,-278.031C513.517,-281.053 520.426,-285.241 526,-291 585.773,-352.758 501.727,-419.73 562,-481 564.877,-483.925 568.077,-486.458 571.509,-488.649"/>
<polygon fill="midnightblue" stroke="midnightblue" points="569.993,-491.807 580.465,-493.417 573.282,-485.628 569.993,-491.807"/>
</g>
<!-- Node17&#45;&gt;Node14 -->
<g id="edge36" class="edge"><title>Node17&#45;&gt;Node14</title>
<path fill="none" stroke="midnightblue" d="M460.745,-262.421C479.539,-252.486 507.606,-235.41 526,-214 550.095,-185.954 530.97,-159.106 562,-139 612.908,-106.014 1003.14,-112.353 1184.23,-117.173"/>
<polygon fill="midnightblue" stroke="midnightblue" points="1184.18,-120.673 1194.27,-117.444 1184.37,-113.675 1184.18,-120.673"/>
</g>
<!-- Node18 -->
<g id="node18" class="node"><title>Node18</title>
<g id="a_node18"><a xlink:href="../../df/df8/class_cell_society_view.html#a053b6ef6afa80722445223c4e373e51c" target="_top" xlink:title="CellSocietyView.displayXMLChooser">
<polygon fill="white" stroke="black" points="562.5,-148.5 562.5,-167.5 747.5,-167.5 747.5,-148.5 562.5,-148.5"/>
<text text-anchor="middle" x="655" y="-155.5" font-family="Helvetica,sans-Serif" font-size="10.00">CellSocietyView.displayXMLChooser</text>
</a>
</g>
</g>
<!-- Node17&#45;&gt;Node18 -->
<g id="edge18" class="edge"><title>Node17&#45;&gt;Node18</title>
<path fill="none" stroke="midnightblue" d="M499.489,-262.43C509.034,-258.995 518.303,-254.332 526,-248 553.324,-225.524 533.89,-198.485 562,-177 564.231,-175.295 566.578,-173.733 569.016,-172.303"/>
<polygon fill="midnightblue" stroke="midnightblue" points="570.835,-175.306 578.192,-167.681 567.686,-169.054 570.835,-175.306"/>
</g>
<!-- Node19 -->
<g id="node19" class="node"><title>Node19</title>
<g id="a_node19"><a xlink:href="../../d2/d95/class_x_m_l_parser.html#a77ee23818c822b69cdf4200eef726a61" target="_top" xlink:title="XMLParser.parseXMLFile">
<polygon fill="white" stroke="black" points="590,-72.5 590,-91.5 720,-91.5 720,-72.5 590,-72.5"/>
<text text-anchor="middle" x="655" y="-79.5" font-family="Helvetica,sans-Serif" font-size="10.00">XMLParser.parseXMLFile</text>
</a>
</g>
</g>
<!-- Node17&#45;&gt;Node19 -->
<g id="edge19" class="edge"><title>Node17&#45;&gt;Node19</title>
<path fill="none" stroke="midnightblue" d="M504.183,-262.393C512.308,-258.927 519.903,-254.263 526,-248 571.415,-201.347 516.121,-152.196 562,-106 567.278,-100.686 573.575,-96.5011 580.365,-93.213"/>
<polygon fill="midnightblue" stroke="midnightblue" points="581.985,-96.3299 589.878,-89.2628 579.301,-89.8651 581.985,-96.3299"/>
</g>
<!-- Node23 -->
<g id="node23" class="node"><title>Node23</title>
<g id="a_node23"><a xlink:href="../../d3/dff/class_cell_society.html#abfbf43ce46b4c82c16a2d933b6a11abf" target="_top" xlink:title="CellSociety.retrieveParserInfo">
<polygon fill="white" stroke="black" points="577.5,-186.5 577.5,-205.5 732.5,-205.5 732.5,-186.5 577.5,-186.5"/>
<text text-anchor="middle" x="655" y="-193.5" font-family="Helvetica,sans-Serif" font-size="10.00">CellSociety.retrieveParserInfo</text>
</a>
</g>
</g>
<!-- Node17&#45;&gt;Node23 -->
<g id="edge23" class="edge"><title>Node17&#45;&gt;Node23</title>
<path fill="none" stroke="midnightblue" d="M487.215,-262.424C500.151,-258.827 513.958,-254.088 526,-248 544.089,-238.854 543.82,-228.964 562,-220 571.635,-215.249 582.316,-211.363 592.89,-208.208"/>
<polygon fill="midnightblue" stroke="midnightblue" points="593.847,-211.575 602.537,-205.513 591.964,-204.833 593.847,-211.575"/>
</g>
<!-- Node24 -->
<g id="node24" class="node"><title>Node24</title>
<g id="a_node24"><a xlink:href="../../d2/d95/class_x_m_l_parser.html#aea9b535964c91fa3c3d2b1c0b6a334c2" target="_top" xlink:title="XMLParser.getInitParamMap">
<polygon fill="white" stroke="black" points="798.5,-224.5 798.5,-243.5 947.5,-243.5 947.5,-224.5 798.5,-224.5"/>
<text text-anchor="middle" x="873" y="-231.5" font-family="Helvetica,sans-Serif" font-size="10.00">XMLParser.getInitParamMap</text>
</a>
</g>
</g>
<!-- Node17&#45;&gt;Node24 -->
<g id="edge27" class="edge"><title>Node17&#45;&gt;Node24</title>
<path fill="none" stroke="midnightblue" d="M494.464,-262.49C515.46,-259.048 539.804,-255.417 562,-253 638.292,-244.691 725.572,-239.748 788.041,-236.997"/>
<polygon fill="midnightblue" stroke="midnightblue" points="788.398,-240.485 798.238,-236.558 788.096,-233.491 788.398,-240.485"/>
</g>
<!-- Node26 -->
<g id="node26" class="node"><title>Node26</title>
<g id="a_node26"><a xlink:href="../../dd/d11/class_cell.html#a7157b57f4ff263ea68e1ff5fc424176e" target="_top" xlink:title="Cell.setCellSize">
<polygon fill="white" stroke="black" points="610.5,-300.5 610.5,-319.5 699.5,-319.5 699.5,-300.5 610.5,-300.5"/>
<text text-anchor="middle" x="655" y="-307.5" font-family="Helvetica,sans-Serif" font-size="10.00">Cell.setCellSize</text>
</a>
</g>
</g>
<!-- Node17&#45;&gt;Node26 -->
<g id="edge26" class="edge"><title>Node17&#45;&gt;Node26</title>
<path fill="none" stroke="midnightblue" d="M494.474,-281.54C526.721,-287.293 567.677,-294.6 600.015,-300.369"/>
<polygon fill="midnightblue" stroke="midnightblue" points="599.731,-303.873 610.19,-302.184 600.96,-296.982 599.731,-303.873"/>
</g>
<!-- Node27 -->
<g id="node27" class="node"><title>Node27</title>
<g id="a_node27"><a xlink:href="../../d3/dff/class_cell_society.html#a7a6dab68551f91cc4b120faa51670bf8" target="_top" xlink:title="CellSociety.createCellArray">
<polygon fill="white" stroke="black" points="583,-338.5 583,-357.5 727,-357.5 727,-338.5 583,-338.5"/>
<text text-anchor="middle" x="655" y="-345.5" font-family="Helvetica,sans-Serif" font-size="10.00">CellSociety.createCellArray</text>
</a>
</g>
</g>
<!-- Node17&#45;&gt;Node27 -->
<g id="edge28" class="edge"><title>Node17&#45;&gt;Node27</title>
<path fill="none" stroke="midnightblue" d="M503.876,-281.574C511.594,-284.031 519.161,-287.119 526,-291 546.234,-302.482 541.674,-317.683 562,-329 566.146,-331.308 570.537,-333.337 575.065,-335.121"/>
<polygon fill="midnightblue" stroke="midnightblue" points="573.922,-338.429 584.517,-338.447 576.246,-331.826 573.922,-338.429"/>
</g>
<!-- Node31 -->
<g id="node31" class="node"><title>Node31</title>
<g id="a_node31"><a xlink:href="../../d3/dff/class_cell_society.html#ab9e56a2a70e210e021b51e898508329b" target="_top" xlink:title="CellSociety.setupAnimation">
<polygon fill="white" stroke="black" points="582,-414.5 582,-433.5 728,-433.5 728,-414.5 582,-414.5"/>
<text text-anchor="middle" x="655" y="-421.5" font-family="Helvetica,sans-Serif" font-size="10.00">CellSociety.setupAnimation</text>
</a>
</g>
</g>
<!-- Node17&#45;&gt;Node31 -->
<g id="edge33" class="edge"><title>Node17&#45;&gt;Node31</title>
<path fill="none" stroke="midnightblue" d="M506.227,-279.08C513.471,-281.956 520.284,-285.824 526,-291 563.818,-325.245 524.792,-365.094 562,-400 566.138,-403.882 570.824,-407.155 575.835,-409.911"/>
<polygon fill="midnightblue" stroke="midnightblue" points="574.625,-413.211 585.16,-414.335 577.626,-406.886 574.625,-413.211"/>
</g>
<!-- Node33 -->
<g id="node33" class="node"><title>Node33</title>
<g id="a_node33"><a xlink:href="../../df/df8/class_cell_society_view.html#a99eb733c00ed7c1bcba8f2d684791a09" target="_top" xlink:title="CellSocietyView.displayFrameRate">
<polygon fill="white" stroke="black" points="784,-395.5 784,-414.5 962,-414.5 962,-395.5 784,-395.5"/>
<text text-anchor="middle" x="873" y="-402.5" font-family="Helvetica,sans-Serif" font-size="10.00">CellSocietyView.displayFrameRate</text>
</a>
</g>
</g>
<!-- Node17&#45;&gt;Node33 -->
<g id="edge38" class="edge"><title>Node17&#45;&gt;Node33</title>
<path fill="none" stroke="midnightblue" d="M506.065,-279.94C513.252,-282.68 520.093,-286.28 526,-291 555.199,-314.332 531.694,-345.126 562,-367 594.978,-390.803 695.757,-399.758 773.55,-403.093"/>
<polygon fill="midnightblue" stroke="midnightblue" points="773.749,-406.604 783.882,-403.509 774.031,-399.609 773.749,-406.604"/>
</g>
<!-- Node34 -->
<g id="node34" class="node"><title>Node34</title>
<g id="a_node34"><a xlink:href="../../df/df8/class_cell_society_view.html#a989874eb178e925124f50d7cabcc184c" target="_top" xlink:title="CellSocietyView.setGridGap">
<polygon fill="white" stroke="black" points="581.5,-262.5 581.5,-281.5 728.5,-281.5 728.5,-262.5 581.5,-262.5"/>
<text text-anchor="middle" x="655" y="-269.5" font-family="Helvetica,sans-Serif" font-size="10.00">CellSocietyView.setGridGap</text>
</a>
</g>
</g>
<!-- Node17&#45;&gt;Node34 -->
<g id="edge39" class="edge"><title>Node17&#45;&gt;Node34</title>
<path fill="none" stroke="midnightblue" d="M506.064,-272C526.554,-272 549.468,-272 571.027,-272"/>
<polygon fill="midnightblue" stroke="midnightblue" points="571.154,-275.5 581.154,-272 571.154,-268.5 571.154,-275.5"/>
</g>
<!-- Node20 -->
<g id="node20" class="node"><title>Node20</title>
<g id="a_node20"><a xlink:href="../../d2/d95/class_x_m_l_parser.html#ae67767f9678fb650ac38b1321ea9f723" target="_top" xlink:title="XMLParser.parseInitialTags">
<polygon fill="white" stroke="black" points="802.5,-72.5 802.5,-91.5 943.5,-91.5 943.5,-72.5 802.5,-72.5"/>
<text text-anchor="middle" x="873" y="-79.5" font-family="Helvetica,sans-Serif" font-size="10.00">XMLParser.parseInitialTags</text>
</a>
</g>
</g>
<!-- Node19&#45;&gt;Node20 -->
<g id="edge20" class="edge"><title>Node19&#45;&gt;Node20</title>
<path fill="none" stroke="midnightblue" d="M720.222,-82C742.855,-82 768.576,-82 792.329,-82"/>
<polygon fill="midnightblue" stroke="midnightblue" points="792.374,-85.5001 802.374,-82 792.374,-78.5001 792.374,-85.5001"/>
</g>
<!-- Node21 -->
<g id="node21" class="node"><title>Node21</title>
<g id="a_node21"><a xlink:href="../../d2/d95/class_x_m_l_parser.html#a09c6848239104ae94825c045796dddd0" target="_top" xlink:title="XMLParser.makeParamMap">
<polygon fill="white" stroke="black" points="1005,-72.5 1005,-91.5 1151,-91.5 1151,-72.5 1005,-72.5"/>
<text text-anchor="middle" x="1078" y="-79.5" font-family="Helvetica,sans-Serif" font-size="10.00">XMLParser.makeParamMap</text>
</a>
</g>
</g>
<!-- Node20&#45;&gt;Node21 -->
<g id="edge21" class="edge"><title>Node20&#45;&gt;Node21</title>
<path fill="none" stroke="midnightblue" d="M943.577,-82C959.925,-82 977.504,-82 994.362,-82"/>
<polygon fill="midnightblue" stroke="midnightblue" points="994.749,-85.5001 1004.75,-82 994.749,-78.5001 994.749,-85.5001"/>
</g>
<!-- Node22 -->
<g id="node22" class="node"><title>Node22</title>
<g id="a_node22"><a xlink:href="../../d2/d95/class_x_m_l_parser.html#a5a419f71699eb7d3d76ee238fb262a5f" target="_top" xlink:title="XMLParser.makeCellParamList">
<polygon fill="white" stroke="black" points="998,-34.5 998,-53.5 1158,-53.5 1158,-34.5 998,-34.5"/>
<text text-anchor="middle" x="1078" y="-41.5" font-family="Helvetica,sans-Serif" font-size="10.00">XMLParser.makeCellParamList</text>
</a>
</g>
</g>
<!-- Node20&#45;&gt;Node22 -->
<g id="edge22" class="edge"><title>Node20&#45;&gt;Node22</title>
<path fill="none" stroke="midnightblue" d="M924.963,-72.46C952.594,-67.2878 986.933,-60.8599 1015.98,-55.4222"/>
<polygon fill="midnightblue" stroke="midnightblue" points="1016.83,-58.8242 1026.02,-53.5439 1015.54,-51.9437 1016.83,-58.8242"/>
</g>
<!-- Node23&#45;&gt;Node24 -->
<g id="edge24" class="edge"><title>Node23&#45;&gt;Node24</title>
<path fill="none" stroke="midnightblue" d="M710.227,-205.54C739.884,-210.757 776.804,-217.253 807.882,-222.72"/>
<polygon fill="midnightblue" stroke="midnightblue" points="807.295,-226.17 817.751,-224.456 808.508,-219.276 807.295,-226.17"/>
</g>
<!-- Node25 -->
<g id="node25" class="node"><title>Node25</title>
<g id="a_node25"><a xlink:href="../../d2/d95/class_x_m_l_parser.html#a0df3a2904766f59d1246cb55416f8146" target="_top" xlink:title="XMLParser.getSimParamMap">
<polygon fill="white" stroke="black" points="796,-186.5 796,-205.5 950,-205.5 950,-186.5 796,-186.5"/>
<text text-anchor="middle" x="873" y="-193.5" font-family="Helvetica,sans-Serif" font-size="10.00">XMLParser.getSimParamMap</text>
</a>
</g>
</g>
<!-- Node23&#45;&gt;Node25 -->
<g id="edge25" class="edge"><title>Node23&#45;&gt;Node25</title>
<path fill="none" stroke="midnightblue" d="M732.762,-196C749.892,-196 768.17,-196 785.658,-196"/>
<polygon fill="midnightblue" stroke="midnightblue" points="785.849,-199.5 795.849,-196 785.849,-192.5 785.849,-199.5"/>
</g>
<!-- Node27&#45;&gt;Node24 -->
<g id="edge29" class="edge"><title>Node27&#45;&gt;Node24</title>
<path fill="none" stroke="midnightblue" d="M727.234,-339.411C734.609,-336.765 741.698,-333.363 748,-329 772.635,-311.944 761.23,-291.475 784,-272 796.553,-261.264 812.601,-253.14 827.546,-247.218"/>
<polygon fill="midnightblue" stroke="midnightblue" points="829.01,-250.407 837.161,-243.638 826.568,-243.847 829.01,-250.407"/>
</g>
<!-- Node28 -->
<g id="node28" class="node"><title>Node28</title>
<g id="a_node28"><a xlink:href="../../d2/d95/class_x_m_l_parser.html#ac4e3257aed1deb9fe950149f706fce5b" target="_top" xlink:title="XMLParser.getCellParamList">
<polygon fill="white" stroke="black" points="798.5,-281.5 798.5,-300.5 947.5,-300.5 947.5,-281.5 798.5,-281.5"/>
<text text-anchor="middle" x="873" y="-288.5" font-family="Helvetica,sans-Serif" font-size="10.00">XMLParser.getCellParamList</text>
</a>
</g>
</g>
<!-- Node27&#45;&gt;Node28 -->
<g id="edge30" class="edge"><title>Node27&#45;&gt;Node28</title>
<path fill="none" stroke="midnightblue" d="M714.598,-338.483C725.843,-335.935 737.408,-332.802 748,-329 765.028,-322.888 767,-316.189 784,-310 791.229,-307.368 798.931,-305.046 806.657,-303.012"/>
<polygon fill="midnightblue" stroke="midnightblue" points="807.56,-306.394 816.422,-300.588 805.873,-299.601 807.56,-306.394"/>
</g>
<!-- Node29 -->
<g id="node29" class="node"><title>Node29</title>
<g id="a_node29"><a xlink:href="../../d3/dff/class_cell_society.html#a42451b17e2bca5fd025c8d4ea74310ca" target="_top" xlink:title="CellSociety.stringToIntArray">
<polygon fill="white" stroke="black" points="800.5,-357.5 800.5,-376.5 945.5,-376.5 945.5,-357.5 800.5,-357.5"/>
<text text-anchor="middle" x="873" y="-364.5" font-family="Helvetica,sans-Serif" font-size="10.00">CellSociety.stringToIntArray</text>
</a>
</g>
</g>
<!-- Node27&#45;&gt;Node29 -->
<g id="edge31" class="edge"><title>Node27&#45;&gt;Node29</title>
<path fill="none" stroke="midnightblue" d="M727.026,-354.248C747.208,-356.023 769.35,-357.971 790.121,-359.798"/>
<polygon fill="midnightblue" stroke="midnightblue" points="789.925,-363.294 800.193,-360.684 790.538,-356.321 789.925,-363.294"/>
</g>
<!-- Node30 -->
<g id="node30" class="node"><title>Node30</title>
<g id="a_node30"><a xlink:href="../../d3/dff/class_cell_society.html#a117f1698760a3f6bbe51bd7af16f79bb" target="_top" xlink:title="CellSociety.createCellInstance">
<polygon fill="white" stroke="black" points="793.5,-319.5 793.5,-338.5 952.5,-338.5 952.5,-319.5 793.5,-319.5"/>
<text text-anchor="middle" x="873" y="-326.5" font-family="Helvetica,sans-Serif" font-size="10.00">CellSociety.createCellInstance</text>
</a>
</g>
</g>
<!-- Node27&#45;&gt;Node30 -->
<g id="edge32" class="edge"><title>Node27&#45;&gt;Node30</title>
<path fill="none" stroke="midnightblue" d="M727.026,-341.752C745.057,-340.166 764.652,-338.443 783.436,-336.79"/>
<polygon fill="midnightblue" stroke="midnightblue" points="783.817,-340.27 793.472,-335.908 783.204,-333.297 783.817,-340.27"/>
</g>
<!-- Node32 -->
<g id="node32" class="node"><title>Node32</title>
<g id="a_node32"><a xlink:href="../../d3/dff/class_cell_society.html#abf13a64ee79f2cb063447b499c695c58" target="_top" xlink:title="CellSociety.start">
<polygon fill="white" stroke="black" points="826.5,-433.5 826.5,-452.5 919.5,-452.5 919.5,-433.5 826.5,-433.5"/>
<text text-anchor="middle" x="873" y="-440.5" font-family="Helvetica,sans-Serif" font-size="10.00">CellSociety.start</text>
</a>
</g>
</g>
<!-- Node31&#45;&gt;Node32 -->
<g id="edge34" class="edge"><title>Node31&#45;&gt;Node32</title>
<path fill="none" stroke="midnightblue" d="M728.225,-430.353C756.935,-432.879 789.447,-435.738 816.283,-438.099"/>
<polygon fill="midnightblue" stroke="midnightblue" points="816.002,-441.588 826.27,-438.977 816.616,-434.615 816.002,-441.588"/>
</g>
<!-- Node32&#45;&gt;Node9 -->
<g id="edge35" class="edge"><title>Node32&#45;&gt;Node9</title>
<path fill="none" stroke="midnightblue" d="M919.637,-441.304C934.469,-438.755 950.144,-433.698 962,-424 1040.91,-359.455 1067.14,-230.129 1074.49,-180.767"/>
<polygon fill="midnightblue" stroke="midnightblue" points="1077.98,-181.143 1075.89,-170.756 1071.04,-180.179 1077.98,-181.143"/>
</g>
<!-- Node37 -->
<g id="node37" class="node"><title>Node37</title>
<g id="a_node37"><a xlink:href="../../d3/dff/class_cell_society.html#adc5feda3db5472cea4e092d463681033" target="_top" xlink:title="CellSociety.reframeTimeline">
<polygon fill="white" stroke="black" points="580.5,-452.5 580.5,-471.5 729.5,-471.5 729.5,-452.5 580.5,-452.5"/>
<text text-anchor="middle" x="655" y="-459.5" font-family="Helvetica,sans-Serif" font-size="10.00">CellSociety.reframeTimeline</text>
</a>
</g>
</g>
<!-- Node36&#45;&gt;Node37 -->
<g id="edge42" class="edge"><title>Node36&#45;&gt;Node37</title>
<path fill="none" stroke="midnightblue" d="M499.489,-357.57C509.034,-361.005 518.303,-365.668 526,-372 553.324,-394.476 533.89,-421.515 562,-443 564.873,-445.196 567.938,-447.154 571.141,-448.899"/>
<polygon fill="midnightblue" stroke="midnightblue" points="569.946,-452.204 580.487,-453.273 572.913,-445.864 569.946,-452.204"/>
</g>
<!-- Node37&#45;&gt;Node32 -->
<g id="edge44" class="edge"><title>Node37&#45;&gt;Node32</title>
<path fill="none" stroke="midnightblue" d="M729.731,-455.514C757.999,-453.028 789.76,-450.234 816.091,-447.918"/>
<polygon fill="midnightblue" stroke="midnightblue" points="816.613,-451.386 826.268,-447.023 816,-444.412 816.613,-451.386"/>
</g>
<!-- Node37&#45;&gt;Node33 -->
<g id="edge43" class="edge"><title>Node37&#45;&gt;Node33</title>
<path fill="none" stroke="midnightblue" d="M714.598,-452.483C725.843,-449.935 737.408,-446.802 748,-443 765.028,-436.888 767,-430.189 784,-424 791.229,-421.368 798.931,-419.046 806.657,-417.012"/>
<polygon fill="midnightblue" stroke="midnightblue" points="807.56,-420.394 816.422,-414.588 805.873,-413.601 807.56,-420.394"/>
</g>
<!-- Node39&#45;&gt;Node37 -->
<g id="edge47" class="edge"><title>Node39&#45;&gt;Node37</title>
<path fill="none" stroke="midnightblue" d="M512.136,-319.62C517.171,-322.132 521.878,-325.218 526,-329 565.15,-364.922 522.559,-407.398 562,-443 564.83,-445.554 567.91,-447.801 571.171,-449.774"/>
<polygon fill="midnightblue" stroke="midnightblue" points="569.682,-452.944 580.178,-454.384 572.871,-446.712 569.682,-452.944"/>
</g>
</g>
</svg>
        <g id="navigator" transform="translate(0 0)" fill="#404254">
                <rect fill="#f2f5e9" fill-opacity="0.5" stroke="#606060" stroke-width=".5" x="0" y="0" width="60" height="60"/>
                <use id="zoomplus" xlink:href="#zoomPlus" x="17" y="9" onmousedown="handleZoom(evt,'in')"/>
                <use id="zoomminus" xlink:href="#zoomMin" x="42" y="9" onmousedown="handleZoom(evt,'out')"/>
                <use id="reset" xlink:href="#resetDef" x="30" y="36" onmousedown="handleReset()"/>
                <g id="arrowUp" xlink:href="#dirArrow" transform="translate(30 24)" onmousedown="handlePan(0,-1)">
                  <use xlink:href="#rim" fill="#404040">
                        <set attributeName="fill" to="#808080" begin="arrowUp.mouseover" end="arrowUp.mouseout"/>
                  </use>
                  <path fill="none" stroke="white" stroke-width="1.5" d="M0,-3.0v7 M-2.5,-0.5L0,-3.0L2.5,-0.5"/>
                </g>
                <g id="arrowRight" xlink:href="#dirArrow" transform="rotate(90) translate(36 -43)" onmousedown="handlePan(1,0)">
                  <use xlink:href="#rim" fill="#404040">
                        <set attributeName="fill" to="#808080" begin="arrowRight.mouseover" end="arrowRight.mouseout"/>
                  </use>
                  <path fill="none" stroke="white" stroke-width="1.5" d="M0,-3.0v7 M-2.5,-0.5L0,-3.0L2.5,-0.5"/>
                </g>
                <g id="arrowDown" xlink:href="#dirArrow" transform="rotate(180) translate(-30 -48)" onmousedown="handlePan(0,1)">
                  <use xlink:href="#rim" fill="#404040">
                        <set attributeName="fill" to="#808080" begin="arrowDown.mouseover" end="arrowDown.mouseout"/>
                  </use>
                  <path fill="none" stroke="white" stroke-width="1.5" d="M0,-3.0v7 M-2.5,-0.5L0,-3.0L2.5,-0.5"/>
                </g>
                <g id="arrowLeft" xlink:href="#dirArrow" transform="rotate(270) translate(-36 17)" onmousedown="handlePan(-1,0)">
                  <use xlink:href="#rim" fill="#404040">
                        <set attributeName="fill" to="#808080" begin="arrowLeft.mouseover" end="arrowLeft.mouseout"/>
                  </use>
                  <path fill="none" stroke="white" stroke-width="1.5" d="M0,-3.0v7 M-2.5,-0.5L0,-3.0L2.5,-0.5"/>
                </g>
        </g>
        <svg viewBox="0 0 15 15" width="100%" height="30px" preserveAspectRatio="xMaxYMin meet">
         <g id="arrow_out" transform="scale(0.3 0.3)">
          <a xlink:href="class_cell_society_ac5e08680a3da358d402461bc25aa1727_cgraph_org.svg" target="_base">
           <rect id="button" ry="5" rx="5" y="6" x="6" height="38" width="38"
                fill="#f2f5e9" fill-opacity="0.5" stroke="#606060" stroke-width="1.0"/>
           <path id="arrow"
             d="M 11.500037,31.436501 C 11.940474,20.09759 22.043105,11.32322 32.158766,21.979434 L 37.068811,17.246167 C 37.068811,17.246167 37.088388,32 37.088388,32 L 22.160133,31.978069 C 22.160133,31.978069 26.997745,27.140456 26.997745,27.140456 C 18.528582,18.264221 13.291696,25.230495 11.500037,31.436501 z"
             style="fill:#404040;"/>
          </a>
         </g>
        </svg>
</svg>
