<?xml version="1.0" encoding="UTF-8" standalone="no"?>
<!DOCTYPE svg PUBLIC "-//W3C//DTD SVG 1.1//EN"
 "http://www.w3.org/Graphics/SVG/1.1/DTD/svg11.dtd">
<!-- Generated by graphviz version 2.36.0 (20140111.2315)
 -->
<!-- Title: CellSociety.CellSociety Pages: 1 -->
<svg width="1554pt" height="733pt"
 viewBox="0.00 0.00 1554.00 733.00" xmlns="http://www.w3.org/2000/svg" xmlns:xlink="http://www.w3.org/1999/xlink">
<g id="graph0" class="graph" transform="scale(1 1) rotate(0) translate(4 729)">
<title>CellSociety.CellSociety</title>
<polygon fill="white" stroke="none" points="-4,4 -4,-729 1550,-729 1550,4 -4,4"/>
<!-- Node1 -->
<g id="node1" class="node"><title>Node1</title>
<polygon fill="#bfbfbf" stroke="black" points="0.5,-441.5 0.5,-460.5 123.5,-460.5 123.5,-441.5 0.5,-441.5"/>
<text text-anchor="middle" x="62" y="-448.5" font-family="Helvetica,sans-Serif" font-size="10.00">CellSociety.CellSociety</text>
</g>
<!-- Node2 -->
<g id="node2" class="node"><title>Node2</title>
<g id="a_node2"><a xlink:href="../../d3/dff/class_cell_society.html#a656ff46d1459fb7f86b42e3c542506ee" target="_top" xlink:title="CellSociety.configureListeners">
<polygon fill="white" stroke="black" points="160,-441.5 160,-460.5 318,-460.5 318,-441.5 160,-441.5"/>
<text text-anchor="middle" x="239" y="-448.5" font-family="Helvetica,sans-Serif" font-size="10.00">CellSociety.configureListeners</text>
</a>
</g>
</g>
<!-- Node1&#45;&gt;Node2 -->
<g id="edge1" class="edge"><title>Node1&#45;&gt;Node2</title>
<path fill="none" stroke="midnightblue" d="M123.715,-451C132.088,-451 140.823,-451 149.57,-451"/>
<polygon fill="midnightblue" stroke="midnightblue" points="149.823,-454.5 159.823,-451 149.823,-447.5 149.823,-454.5"/>
</g>
<!-- Node3 -->
<g id="node3" class="node"><title>Node3</title>
<g id="a_node3"><a xlink:href="../../df/df8/class_cell_society_view.html#aae7c36ea6b5215b0ba9ee01c72dfcb94" target="_top" xlink:title="CellSocietyView.getPlayElement">
<polygon fill="white" stroke="black" points="356,-705.5 356,-724.5 524,-724.5 524,-705.5 356,-705.5"/>
<text text-anchor="middle" x="440" y="-712.5" font-family="Helvetica,sans-Serif" font-size="10.00">CellSocietyView.getPlayElement</text>
</a>
</g>
</g>
<!-- Node2&#45;&gt;Node3 -->
<g id="edge2" class="edge"><title>Node2&#45;&gt;Node3</title>
<path fill="none" stroke="midnightblue" d="M241.399,-460.584C247.313,-497.474 273.774,-631.442 354,-696 356.062,-697.659 358.239,-699.18 360.505,-700.574"/>
<polygon fill="midnightblue" stroke="midnightblue" points="359.157,-703.818 369.641,-705.345 362.398,-697.613 359.157,-703.818"/>
</g>
<!-- Node4 -->
<g id="node4" class="node"><title>Node4</title>
<g id="a_node4"><a xlink:href="../../d3/dff/class_cell_society.html#a6a4056cd40e4162583f2b9845b77a191" target="_top" xlink:title="CellSociety.resumeAnimation">
<polygon fill="white" stroke="black" points="362,-667.5 362,-686.5 518,-686.5 518,-667.5 362,-667.5"/>
<text text-anchor="middle" x="440" y="-674.5" font-family="Helvetica,sans-Serif" font-size="10.00">CellSociety.resumeAnimation</text>
</a>
</g>
</g>
<!-- Node2&#45;&gt;Node4 -->
<g id="edge3" class="edge"><title>Node2&#45;&gt;Node4</title>
<path fill="none" stroke="midnightblue" d="M242.598,-460.768C251.787,-493.386 285.929,-599.502 354,-653 359.427,-657.265 365.574,-660.773 372.019,-663.657"/>
<polygon fill="midnightblue" stroke="midnightblue" points="371.041,-667.033 381.627,-667.452 373.613,-660.523 371.041,-667.033"/>
</g>
<!-- Node6 -->
<g id="node6" class="node"><title>Node6</title>
<g id="a_node6"><a xlink:href="../../df/df8/class_cell_society_view.html#ada088eb9125561f8dd941badb141fa86" target="_top" xlink:title="CellSocietyView.getPause\lElement">
<polygon fill="white" stroke="black" points="371.5,-368 371.5,-398 508.5,-398 508.5,-368 371.5,-368"/>
<text text-anchor="start" x="379.5" y="-386" font-family="Helvetica,sans-Serif" font-size="10.00">CellSocietyView.getPause</text>
<text text-anchor="middle" x="440" y="-375" font-family="Helvetica,sans-Serif" font-size="10.00">Element</text>
</a>
</g>
</g>
<!-- Node2&#45;&gt;Node6 -->
<g id="edge5" class="edge"><title>Node2&#45;&gt;Node6</title>
<path fill="none" stroke="midnightblue" d="M263.833,-441.416C286.769,-432.335 322.511,-418.553 354,-408 360.919,-405.681 368.192,-403.364 375.451,-401.126"/>
<polygon fill="midnightblue" stroke="midnightblue" points="376.755,-404.388 385.305,-398.132 374.72,-397.69 376.755,-404.388"/>
</g>
<!-- Node7 -->
<g id="node7" class="node"><title>Node7</title>
<g id="a_node7"><a xlink:href="../../d3/dff/class_cell_society.html#ae565a305ea53e5a37da9816a236b4fbc" target="_top" xlink:title="CellSociety.pauseAnimation">
<polygon fill="white" stroke="black" points="580.5,-629.5 580.5,-648.5 729.5,-648.5 729.5,-629.5 580.5,-629.5"/>
<text text-anchor="middle" x="655" y="-636.5" font-family="Helvetica,sans-Serif" font-size="10.00">CellSociety.pauseAnimation</text>
</a>
</g>
</g>
<!-- Node2&#45;&gt;Node7 -->
<g id="edge6" class="edge"><title>Node2&#45;&gt;Node7</title>
<path fill="none" stroke="midnightblue" d="M243.297,-460.623C253.91,-489.939 290.263,-578.372 354,-615 424.415,-655.466 519.918,-655.64 584.085,-649.533"/>
<polygon fill="midnightblue" stroke="midnightblue" points="584.516,-653.007 594.106,-648.504 583.801,-646.044 584.516,-653.007"/>
</g>
<!-- Node8 -->
<g id="node8" class="node"><title>Node8</title>
<g id="a_node8"><a xlink:href="../../df/df8/class_cell_society_view.html#a3c3a7039f77d392c374cd309967ca1cc" target="_top" xlink:title="CellSocietyView.getStepElement">
<polygon fill="white" stroke="black" points="354.5,-329.5 354.5,-348.5 525.5,-348.5 525.5,-329.5 354.5,-329.5"/>
<text text-anchor="middle" x="440" y="-336.5" font-family="Helvetica,sans-Serif" font-size="10.00">CellSocietyView.getStepElement</text>
</a>
</g>
</g>
<!-- Node2&#45;&gt;Node8 -->
<g id="edge8" class="edge"><title>Node2&#45;&gt;Node8</title>
<path fill="none" stroke="midnightblue" d="M248.702,-441.382C266.504,-422.329 309.197,-379.759 354,-358 359.016,-355.564 364.35,-353.436 369.807,-351.577"/>
<polygon fill="midnightblue" stroke="midnightblue" points="371.199,-354.81 379.72,-348.514 369.133,-348.122 371.199,-354.81"/>
</g>
<!-- Node9 -->
<g id="node9" class="node"><title>Node9</title>
<g id="a_node9"><a xlink:href="../../d3/dff/class_cell_society.html#a0ff19c30a1cc433d8ea8444f6a5617f1" target="_top" xlink:title="CellSociety.updateGrid">
<polygon fill="white" stroke="black" points="1016,-430.5 1016,-449.5 1140,-449.5 1140,-430.5 1016,-430.5"/>
<text text-anchor="middle" x="1078" y="-437.5" font-family="Helvetica,sans-Serif" font-size="10.00">CellSociety.updateGrid</text>
</a>
</g>
</g>
<!-- Node2&#45;&gt;Node9 -->
<g id="edge9" class="edge"><title>Node2&#45;&gt;Node9</title>
<path fill="none" stroke="midnightblue" d="M245.343,-460.639C259.388,-484.87 300.015,-548.159 354,-573 513.119,-646.219 573.015,-589.753 748,-582 843.392,-577.774 876.178,-604.857 962,-563 1010.18,-539.5 1048.35,-486.553 1066.12,-458.405"/>
<polygon fill="midnightblue" stroke="midnightblue" points="1069.29,-459.926 1071.54,-449.572 1063.33,-456.265 1069.29,-459.926"/>
</g>
<!-- Node17 -->
<g id="node17" class="node"><title>Node17</title>
<g id="a_node17"><a xlink:href="../../df/df8/class_cell_society_view.html#aebad9aaff0e9784fec1518d319e03c85" target="_top" xlink:title="CellSocietyView.getXMLElement">
<polygon fill="white" stroke="black" points="356,-291.5 356,-310.5 524,-310.5 524,-291.5 356,-291.5"/>
<text text-anchor="middle" x="440" y="-298.5" font-family="Helvetica,sans-Serif" font-size="10.00">CellSocietyView.getXMLElement</text>
</a>
</g>
</g>
<!-- Node2&#45;&gt;Node17 -->
<g id="edge19" class="edge"><title>Node2&#45;&gt;Node17</title>
<path fill="none" stroke="midnightblue" d="M245.449,-441.24C259.742,-416.608 300.903,-351.633 354,-320 357.654,-317.823 361.53,-315.896 365.537,-314.188"/>
<polygon fill="midnightblue" stroke="midnightblue" points="366.956,-317.394 375.078,-310.592 364.486,-310.844 366.956,-317.394"/>
</g>
<!-- Node18 -->
<g id="node18" class="node"><title>Node18</title>
<g id="a_node18"><a xlink:href="../../d3/dff/class_cell_society.html#af9f22af39a97a58b26126020ca6c8844" target="_top" xlink:title="CellSociety.readNewXML">
<polygon fill="white" stroke="black" points="374,-417.5 374,-436.5 506,-436.5 506,-417.5 374,-417.5"/>
<text text-anchor="middle" x="440" y="-424.5" font-family="Helvetica,sans-Serif" font-size="10.00">CellSociety.readNewXML</text>
</a>
</g>
</g>
<!-- Node2&#45;&gt;Node18 -->
<g id="edge20" class="edge"><title>Node2&#45;&gt;Node18</title>
<path fill="none" stroke="midnightblue" d="M318.079,-441.583C333.119,-439.77 348.845,-437.873 363.792,-436.07"/>
<polygon fill="midnightblue" stroke="midnightblue" points="364.488,-439.512 373.997,-434.84 363.65,-432.562 364.488,-439.512"/>
</g>
<!-- Node39 -->
<g id="node39" class="node"><title>Node39</title>
<g id="a_node39"><a xlink:href="../../df/df8/class_cell_society_view.html#a572d464cbe7d186dc9a5b0e4a8130689" target="_top" xlink:title="CellSocietyView.getSpeedup\lElement">
<polygon fill="white" stroke="black" points="364,-242 364,-272 516,-272 516,-242 364,-242"/>
<text text-anchor="start" x="372" y="-260" font-family="Helvetica,sans-Serif" font-size="10.00">CellSocietyView.getSpeedup</text>
<text text-anchor="middle" x="440" y="-249" font-family="Helvetica,sans-Serif" font-size="10.00">Element</text>
</a>
</g>
</g>
<!-- Node2&#45;&gt;Node39 -->
<g id="edge51" class="edge"><title>Node2&#45;&gt;Node39</title>
<path fill="none" stroke="midnightblue" d="M243.743,-441.258C255.369,-412.311 293.735,-326.098 354,-282 356.669,-280.047 359.489,-278.246 362.416,-276.585"/>
<polygon fill="midnightblue" stroke="midnightblue" points="364.127,-279.642 371.475,-272.009 360.971,-273.394 364.127,-279.642"/>
</g>
<!-- Node40 -->
<g id="node40" class="node"><title>Node40</title>
<g id="a_node40"><a xlink:href="../../d3/dff/class_cell_society.html#a8250bfacdaf51dabf6b9d1cafc0ce9b2" target="_top" xlink:title="CellSociety.increaseFrameRate">
<polygon fill="white" stroke="black" points="358.5,-544.5 358.5,-563.5 521.5,-563.5 521.5,-544.5 358.5,-544.5"/>
<text text-anchor="middle" x="440" y="-551.5" font-family="Helvetica,sans-Serif" font-size="10.00">CellSociety.increaseFrameRate</text>
</a>
</g>
</g>
<!-- Node2&#45;&gt;Node40 -->
<g id="edge52" class="edge"><title>Node2&#45;&gt;Node40</title>
<path fill="none" stroke="midnightblue" d="M255.593,-460.539C277.306,-473.671 318.034,-497.762 354,-516 371.073,-524.657 390.539,-533.437 406.531,-540.372"/>
<polygon fill="midnightblue" stroke="midnightblue" points="405.417,-543.703 415.987,-544.435 408.181,-537.272 405.417,-543.703"/>
</g>
<!-- Node42 -->
<g id="node42" class="node"><title>Node42</title>
<g id="a_node42"><a xlink:href="../../df/df8/class_cell_society_view.html#a0f616a01579a7293ef781d3e341ea1ac" target="_top" xlink:title="CellSocietyView.getSlowdown\lElement">
<polygon fill="white" stroke="black" points="362.5,-193 362.5,-223 517.5,-223 517.5,-193 362.5,-193"/>
<text text-anchor="start" x="370.5" y="-211" font-family="Helvetica,sans-Serif" font-size="10.00">CellSocietyView.getSlowdown</text>
<text text-anchor="middle" x="440" y="-200" font-family="Helvetica,sans-Serif" font-size="10.00">Element</text>
</a>
</g>
</g>
<!-- Node2&#45;&gt;Node42 -->
<g id="edge56" class="edge"><title>Node2&#45;&gt;Node42</title>
<path fill="none" stroke="midnightblue" d="M242.108,-441.388C250.106,-407.243 281.852,-290.705 354,-232 355.561,-230.73 357.186,-229.527 358.863,-228.387"/>
<polygon fill="midnightblue" stroke="midnightblue" points="360.809,-231.303 367.639,-223.204 357.249,-225.276 360.809,-231.303"/>
</g>
<!-- Node43 -->
<g id="node43" class="node"><title>Node43</title>
<g id="a_node43"><a xlink:href="../../d3/dff/class_cell_society.html#a045267ba1843ca4a47891d7be73c2ac1" target="_top" xlink:title="CellSociety.decreaseFrameRate">
<polygon fill="white" stroke="black" points="356.5,-487.5 356.5,-506.5 523.5,-506.5 523.5,-487.5 356.5,-487.5"/>
<text text-anchor="middle" x="440" y="-494.5" font-family="Helvetica,sans-Serif" font-size="10.00">CellSociety.decreaseFrameRate</text>
</a>
</g>
</g>
<!-- Node2&#45;&gt;Node43 -->
<g id="edge57" class="edge"><title>Node2&#45;&gt;Node43</title>
<path fill="none" stroke="midnightblue" d="M281.233,-460.531C312.184,-467.686 354.75,-477.525 387.868,-485.181"/>
<polygon fill="midnightblue" stroke="midnightblue" points="387.289,-488.639 397.82,-487.481 388.865,-481.819 387.289,-488.639"/>
</g>
<!-- Node5 -->
<g id="node5" class="node"><title>Node5</title>
<g id="a_node5"><a xlink:href="../../df/df8/class_cell_society_view.html#ae83511f9bf3610b0750d41c4aeb0f778" target="_top" xlink:title="CellSocietyView.setButtons\lPause">
<polygon fill="white" stroke="black" points="800,-646 800,-676 946,-676 946,-646 800,-646"/>
<text text-anchor="start" x="808" y="-664" font-family="Helvetica,sans-Serif" font-size="10.00">CellSocietyView.setButtons</text>
<text text-anchor="middle" x="873" y="-653" font-family="Helvetica,sans-Serif" font-size="10.00">Pause</text>
</a>
</g>
</g>
<!-- Node4&#45;&gt;Node5 -->
<g id="edge4" class="edge"><title>Node4&#45;&gt;Node5</title>
<path fill="none" stroke="midnightblue" d="M518.054,-674.14C594.524,-671.301 711.327,-666.965 789.609,-664.059"/>
<polygon fill="midnightblue" stroke="midnightblue" points="790.05,-667.545 799.913,-663.676 789.79,-660.55 790.05,-667.545"/>
</g>
<!-- Node7&#45;&gt;Node5 -->
<g id="edge7" class="edge"><title>Node7&#45;&gt;Node5</title>
<path fill="none" stroke="midnightblue" d="M729.731,-646.51C748.984,-648.471 769.859,-650.597 789.534,-652.601"/>
<polygon fill="midnightblue" stroke="midnightblue" points="789.395,-656.105 799.699,-653.636 790.105,-649.141 789.395,-656.105"/>
</g>
<!-- Node10 -->
<g id="node10" class="node"><title>Node10</title>
<g id="a_node10"><a xlink:href="../../d8/d87/class_controller.html#aa8f10b5f28542d34053a7e4d5f1d6013" target="_top" xlink:title="Controller.runOneSim">
<polygon fill="white" stroke="black" points="1217.5,-430.5 1217.5,-449.5 1336.5,-449.5 1336.5,-430.5 1217.5,-430.5"/>
<text text-anchor="middle" x="1277" y="-437.5" font-family="Helvetica,sans-Serif" font-size="10.00">Controller.runOneSim</text>
</a>
</g>
</g>
<!-- Node9&#45;&gt;Node10 -->
<g id="edge10" class="edge"><title>Node9&#45;&gt;Node10</title>
<path fill="none" stroke="midnightblue" d="M1140.25,-440C1161.51,-440 1185.48,-440 1207.3,-440"/>
<polygon fill="midnightblue" stroke="midnightblue" points="1207.48,-443.5 1217.48,-440 1207.48,-436.5 1207.48,-443.5"/>
</g>
<!-- Node11 -->
<g id="node11" class="node"><title>Node11</title>
<g id="a_node11"><a xlink:href="../../d3/dff/class_cell_society.html#a64ebaee33d25e0e730024e67d5582c63" target="_top" xlink:title="CellSociety.updateColors">
<polygon fill="white" stroke="black" points="1210,-392.5 1210,-411.5 1344,-411.5 1344,-392.5 1210,-392.5"/>
<text text-anchor="middle" x="1277" y="-399.5" font-family="Helvetica,sans-Serif" font-size="10.00">CellSociety.updateColors</text>
</a>
</g>
</g>
<!-- Node9&#45;&gt;Node11 -->
<g id="edge11" class="edge"><title>Node9&#45;&gt;Node11</title>
<path fill="none" stroke="midnightblue" d="M1128.46,-430.46C1155.15,-425.31 1188.3,-418.916 1216.42,-413.494"/>
<polygon fill="midnightblue" stroke="midnightblue" points="1217.37,-416.875 1226.52,-411.544 1216.04,-410.001 1217.37,-416.875"/>
</g>
<!-- Node13 -->
<g id="node13" class="node"><title>Node13</title>
<g id="a_node13"><a xlink:href="../../d2/d95/class_x_m_l_parser.html#ac4e3257aed1deb9fe950149f706fce5b" target="_top" xlink:title="XMLParser.getCellParamList">
<polygon fill="white" stroke="black" points="1396.5,-335.5 1396.5,-354.5 1545.5,-354.5 1545.5,-335.5 1396.5,-335.5"/>
<text text-anchor="middle" x="1471" y="-342.5" font-family="Helvetica,sans-Serif" font-size="10.00">XMLParser.getCellParamList</text>
</a>
</g>
</g>
<!-- Node9&#45;&gt;Node13 -->
<g id="edge16" class="edge"><title>Node9&#45;&gt;Node13</title>
<path fill="none" stroke="midnightblue" d="M1136.21,-430.436C1143.81,-427.975 1151.28,-424.883 1158,-421 1178.14,-409.355 1173.31,-393.632 1194,-383 1253.46,-352.451 1329.16,-343.811 1386.23,-342.328"/>
<polygon fill="midnightblue" stroke="midnightblue" points="1386.37,-345.826 1396.3,-342.135 1386.24,-338.828 1386.37,-345.826"/>
</g>
<!-- Node14 -->
<g id="node14" class="node"><title>Node14</title>
<g id="a_node14"><a xlink:href="../../df/df8/class_cell_society_view.html#a43ac2666d3a002024be53fe74028a576" target="_top" xlink:title="CellSocietyView.updateSimGrid">
<polygon fill="white" stroke="black" points="1194.5,-177.5 1194.5,-196.5 1359.5,-196.5 1359.5,-177.5 1194.5,-177.5"/>
<text text-anchor="middle" x="1277" y="-184.5" font-family="Helvetica,sans-Serif" font-size="10.00">CellSocietyView.updateSimGrid</text>
</a>
</g>
</g>
<!-- Node9&#45;&gt;Node14 -->
<g id="edge14" class="edge"><title>Node9&#45;&gt;Node14</title>
<path fill="none" stroke="midnightblue" d="M1140.2,-431.079C1146.6,-428.5 1152.69,-425.204 1158,-421 1158.59,-420.534 1238.63,-261.351 1266.54,-205.833"/>
<polygon fill="midnightblue" stroke="midnightblue" points="1269.74,-207.241 1271.11,-196.734 1263.49,-204.097 1269.74,-207.241"/>
</g>
<!-- Node16 -->
<g id="node16" class="node"><title>Node16</title>
<g id="a_node16"><a xlink:href="../../df/df8/class_cell_society_view.html#a7ca77bdfdef97e9be9c9941c2f4d3513" target="_top" xlink:title="CellSocietyView.updateChart\lLines">
<polygon fill="white" stroke="black" points="1200.5,-469 1200.5,-499 1353.5,-499 1353.5,-469 1200.5,-469"/>
<text text-anchor="start" x="1208.5" y="-487" font-family="Helvetica,sans-Serif" font-size="10.00">CellSocietyView.updateChart</text>
<text text-anchor="middle" x="1277" y="-476" font-family="Helvetica,sans-Serif" font-size="10.00">Lines</text>
</a>
</g>
</g>
<!-- Node9&#45;&gt;Node16 -->
<g id="edge17" class="edge"><title>Node9&#45;&gt;Node16</title>
<path fill="none" stroke="midnightblue" d="M1121.75,-449.547C1144.22,-454.568 1172.48,-460.878 1198.64,-466.721"/>
<polygon fill="midnightblue" stroke="midnightblue" points="1198.03,-470.171 1208.55,-468.935 1199.55,-463.339 1198.03,-470.171"/>
</g>
<!-- Node12 -->
<g id="node12" class="node"><title>Node12</title>
<g id="a_node12"><a xlink:href="../../dd/d11/class_cell.html#a7f8d2520a26a1376a44372149e561f6b" target="_top" xlink:title="Cell.toString">
<polygon fill="white" stroke="black" points="1433.5,-433.5 1433.5,-452.5 1508.5,-452.5 1508.5,-433.5 1433.5,-433.5"/>
<text text-anchor="middle" x="1471" y="-440.5" font-family="Helvetica,sans-Serif" font-size="10.00">Cell.toString</text>
</a>
</g>
</g>
<!-- Node11&#45;&gt;Node12 -->
<g id="edge12" class="edge"><title>Node11&#45;&gt;Node12</title>
<path fill="none" stroke="midnightblue" d="M1322.53,-411.509C1352.79,-417.97 1392.73,-426.499 1423.41,-433.051"/>
<polygon fill="midnightblue" stroke="midnightblue" points="1422.92,-436.526 1433.43,-435.192 1424.39,-429.68 1422.92,-436.526"/>
</g>
<!-- Node11&#45;&gt;Node13 -->
<g id="edge13" class="edge"><title>Node11&#45;&gt;Node13</title>
<path fill="none" stroke="midnightblue" d="M1310.73,-392.474C1325.75,-388.089 1343.79,-382.805 1360,-378 1382.67,-371.282 1407.94,-363.706 1428.54,-357.509"/>
<polygon fill="midnightblue" stroke="midnightblue" points="1429.68,-360.822 1438.25,-354.587 1427.66,-354.119 1429.68,-360.822"/>
</g>
<!-- Node15 -->
<g id="node15" class="node"><title>Node15</title>
<g id="a_node15"><a xlink:href="../../dd/d11/class_cell.html#a1e0ece61fecc69a9b7986d17d925434a" target="_top" xlink:title="Cell.getShape">
<polygon fill="white" stroke="black" points="1429.5,-177.5 1429.5,-196.5 1512.5,-196.5 1512.5,-177.5 1429.5,-177.5"/>
<text text-anchor="middle" x="1471" y="-184.5" font-family="Helvetica,sans-Serif" font-size="10.00">Cell.getShape</text>
</a>
</g>
</g>
<!-- Node14&#45;&gt;Node15 -->
<g id="edge15" class="edge"><title>Node14&#45;&gt;Node15</title>
<path fill="none" stroke="midnightblue" d="M1359.7,-187C1379.93,-187 1401.03,-187 1419.29,-187"/>
<polygon fill="midnightblue" stroke="midnightblue" points="1419.4,-190.5 1429.4,-187 1419.4,-183.5 1419.4,-190.5"/>
</g>
<!-- Node16&#45;&gt;Node12 -->
<g id="edge18" class="edge"><title>Node16&#45;&gt;Node12</title>
<path fill="none" stroke="midnightblue" d="M1348.4,-468.966C1373.37,-463.635 1400.83,-457.771 1423.32,-452.967"/>
<polygon fill="midnightblue" stroke="midnightblue" points="1424.24,-456.352 1433.28,-450.84 1422.77,-449.506 1424.24,-456.352"/>
</g>
<!-- Node18&#45;&gt;Node7 -->
<g id="edge45" class="edge"><title>Node18&#45;&gt;Node7</title>
<path fill="none" stroke="midnightblue" d="M466.213,-436.522C485.093,-444.837 510.274,-458.625 526,-478 556.825,-515.978 531.447,-543.803 562,-582 577.331,-601.166 600.97,-615.614 620.446,-625.168"/>
<polygon fill="midnightblue" stroke="midnightblue" points="619.078,-628.392 629.619,-629.464 622.048,-622.053 619.078,-628.392"/>
</g>
<!-- Node18&#45;&gt;Node13 -->
<g id="edge47" class="edge"><title>Node18&#45;&gt;Node13</title>
<path fill="none" stroke="midnightblue" d="M506.185,-419.659C513.525,-416.625 520.373,-412.521 526,-407 572.163,-361.7 510.922,-305.675 562,-266 627.285,-215.289 670.73,-236.622 748,-266 768.01,-273.608 764.262,-289.712 784,-298 811.33,-309.475 1209.29,-331.441 1386.24,-340.707"/>
<polygon fill="midnightblue" stroke="midnightblue" points="1386.12,-344.206 1396.29,-341.233 1386.49,-337.216 1386.12,-344.206"/>
</g>
<!-- Node18&#45;&gt;Node14 -->
<g id="edge44" class="edge"><title>Node18&#45;&gt;Node14</title>
<path fill="none" stroke="midnightblue" d="M506.225,-420.286C513.652,-417.163 520.511,-412.868 526,-407 592.786,-335.605 494.417,-260.64 562,-190 685.743,-60.6594 783.433,-130.55 962,-143 1050.04,-149.138 1150.96,-164.846 1214.1,-175.729"/>
<polygon fill="midnightblue" stroke="midnightblue" points="1213.83,-179.235 1224.28,-177.499 1215.03,-172.338 1213.83,-179.235"/>
</g>
<!-- Node18&#45;&gt;Node16 -->
<g id="edge49" class="edge"><title>Node18&#45;&gt;Node16</title>
<path fill="none" stroke="midnightblue" d="M462.77,-436.632C486.594,-446.633 526.177,-461.683 562,-468 785.878,-507.48 1055.32,-498.616 1190.22,-490.405"/>
<polygon fill="midnightblue" stroke="midnightblue" points="1190.72,-493.88 1200.48,-489.765 1190.28,-486.894 1190.72,-493.88"/>
</g>
<!-- Node19 -->
<g id="node19" class="node"><title>Node19</title>
<g id="a_node19"><a xlink:href="../../df/df8/class_cell_society_view.html#a053b6ef6afa80722445223c4e373e51c" target="_top" xlink:title="CellSocietyView.displayXMLChooser">
<polygon fill="white" stroke="black" points="562.5,-0.5 562.5,-19.5 747.5,-19.5 747.5,-0.5 562.5,-0.5"/>
<text text-anchor="middle" x="655" y="-7.5" font-family="Helvetica,sans-Serif" font-size="10.00">CellSocietyView.displayXMLChooser</text>
</a>
</g>
</g>
<!-- Node18&#45;&gt;Node19 -->
<g id="edge21" class="edge"><title>Node18&#45;&gt;Node19</title>
<path fill="none" stroke="midnightblue" d="M506.198,-420.817C513.725,-417.625 520.618,-413.169 526,-407 581.469,-343.414 505.664,-91.8191 562,-29 563.055,-27.8238 564.162,-26.7093 565.315,-25.6537"/>
<polygon fill="midnightblue" stroke="midnightblue" points="567.625,-28.2968 573.543,-19.5089 563.436,-22.6882 567.625,-28.2968"/>
</g>
<!-- Node20 -->
<g id="node20" class="node"><title>Node20</title>
<g id="a_node20"><a xlink:href="../../d2/d95/class_x_m_l_parser.html#a77ee23818c822b69cdf4200eef726a61" target="_top" xlink:title="XMLParser.parseXMLFile">
<polygon fill="white" stroke="black" points="590,-275.5 590,-294.5 720,-294.5 720,-275.5 590,-275.5"/>
<text text-anchor="middle" x="655" y="-282.5" font-family="Helvetica,sans-Serif" font-size="10.00">XMLParser.parseXMLFile</text>
</a>
</g>
</g>
<!-- Node18&#45;&gt;Node20 -->
<g id="edge22" class="edge"><title>Node18&#45;&gt;Node20</title>
<path fill="none" stroke="midnightblue" d="M506.168,-419.015C513.423,-416.077 520.253,-412.172 526,-407 562.045,-374.559 525.514,-335.943 562,-304 567.277,-299.38 573.376,-295.777 579.873,-292.978"/>
<polygon fill="midnightblue" stroke="midnightblue" points="581.427,-296.137 589.628,-289.429 579.034,-289.559 581.427,-296.137"/>
</g>
<!-- Node24 -->
<g id="node24" class="node"><title>Node24</title>
<g id="a_node24"><a xlink:href="../../d3/dff/class_cell_society.html#abfbf43ce46b4c82c16a2d933b6a11abf" target="_top" xlink:title="CellSociety.retrieveParserInfo">
<polygon fill="white" stroke="black" points="577.5,-38.5 577.5,-57.5 732.5,-57.5 732.5,-38.5 577.5,-38.5"/>
<text text-anchor="middle" x="655" y="-45.5" font-family="Helvetica,sans-Serif" font-size="10.00">CellSociety.retrieveParserInfo</text>
</a>
</g>
</g>
<!-- Node18&#45;&gt;Node24 -->
<g id="edge26" class="edge"><title>Node18&#45;&gt;Node24</title>
<path fill="none" stroke="midnightblue" d="M506.128,-420.756C513.667,-417.574 520.581,-413.136 526,-407 625.12,-294.754 464.239,-185.432 562,-72 565.053,-68.4579 568.556,-65.4059 572.374,-62.7788"/>
<polygon fill="midnightblue" stroke="midnightblue" points="574.278,-65.7206 581.179,-57.6812 570.771,-59.6626 574.278,-65.7206"/>
</g>
<!-- Node25 -->
<g id="node25" class="node"><title>Node25</title>
<g id="a_node25"><a xlink:href="../../d2/d95/class_x_m_l_parser.html#aea9b535964c91fa3c3d2b1c0b6a334c2" target="_top" xlink:title="XMLParser.getInitParamMap">
<polygon fill="white" stroke="black" points="798.5,-76.5 798.5,-95.5 947.5,-95.5 947.5,-76.5 798.5,-76.5"/>
<text text-anchor="middle" x="873" y="-83.5" font-family="Helvetica,sans-Serif" font-size="10.00">XMLParser.getInitParamMap</text>
</a>
</g>
</g>
<!-- Node18&#45;&gt;Node25 -->
<g id="edge30" class="edge"><title>Node18&#45;&gt;Node25</title>
<path fill="none" stroke="midnightblue" d="M506.05,-420.687C513.601,-417.515 520.54,-413.099 526,-407 614.687,-307.932 465.963,-201.961 562,-110 593.314,-80.0156 707.38,-78.2103 788.023,-81.0266"/>
<polygon fill="midnightblue" stroke="midnightblue" points="788.052,-84.5301 798.178,-81.4115 788.317,-77.5351 788.052,-84.5301"/>
</g>
<!-- Node27 -->
<g id="node27" class="node"><title>Node27</title>
<g id="a_node27"><a xlink:href="../../dd/d11/class_cell.html#a7157b57f4ff263ea68e1ff5fc424176e" target="_top" xlink:title="Cell.setCellSize">
<polygon fill="white" stroke="black" points="610.5,-439.5 610.5,-458.5 699.5,-458.5 699.5,-439.5 610.5,-439.5"/>
<text text-anchor="middle" x="655" y="-446.5" font-family="Helvetica,sans-Serif" font-size="10.00">Cell.setCellSize</text>
</a>
</g>
</g>
<!-- Node18&#45;&gt;Node27 -->
<g id="edge29" class="edge"><title>Node18&#45;&gt;Node27</title>
<path fill="none" stroke="midnightblue" d="M506.064,-433.72C536.138,-436.826 571.433,-440.472 600.005,-443.423"/>
<polygon fill="midnightblue" stroke="midnightblue" points="599.898,-446.931 610.205,-444.477 600.618,-439.968 599.898,-446.931"/>
</g>
<!-- Node28 -->
<g id="node28" class="node"><title>Node28</title>
<g id="a_node28"><a xlink:href="../../d3/dff/class_cell_society.html#a7a6dab68551f91cc4b120faa51670bf8" target="_top" xlink:title="CellSociety.createCellArray">
<polygon fill="white" stroke="black" points="583,-199.5 583,-218.5 727,-218.5 727,-199.5 583,-199.5"/>
<text text-anchor="middle" x="655" y="-206.5" font-family="Helvetica,sans-Serif" font-size="10.00">CellSociety.createCellArray</text>
</a>
</g>
</g>
<!-- Node18&#45;&gt;Node28 -->
<g id="edge31" class="edge"><title>Node18&#45;&gt;Node28</title>
<path fill="none" stroke="midnightblue" d="M506.007,-420.078C513.469,-416.989 520.396,-412.758 526,-407 581.08,-350.408 507.606,-290.251 562,-233 565.603,-229.208 569.723,-225.987 574.178,-223.254"/>
<polygon fill="midnightblue" stroke="midnightblue" points="575.873,-226.317 583.109,-218.577 572.626,-220.116 575.873,-226.317"/>
</g>
<!-- Node34 -->
<g id="node34" class="node"><title>Node34</title>
<g id="a_node34"><a xlink:href="../../d3/dff/class_cell_society.html#ab9e56a2a70e210e021b51e898508329b" target="_top" xlink:title="CellSociety.setupAnimation">
<polygon fill="white" stroke="black" points="582,-313.5 582,-332.5 728,-332.5 728,-313.5 582,-313.5"/>
<text text-anchor="middle" x="655" y="-320.5" font-family="Helvetica,sans-Serif" font-size="10.00">CellSociety.setupAnimation</text>
</a>
</g>
</g>
<!-- Node18&#45;&gt;Node34 -->
<g id="edge41" class="edge"><title>Node18&#45;&gt;Node34</title>
<path fill="none" stroke="midnightblue" d="M506.233,-417.713C513.308,-414.984 520.078,-411.484 526,-407 552.329,-387.066 535.4,-361.571 562,-342 565.233,-339.621 568.694,-337.524 572.311,-335.677"/>
<polygon fill="midnightblue" stroke="midnightblue" points="573.845,-338.825 581.576,-331.581 571.015,-332.423 573.845,-338.825"/>
</g>
<!-- Node36 -->
<g id="node36" class="node"><title>Node36</title>
<g id="a_node36"><a xlink:href="../../df/df8/class_cell_society_view.html#a99eb733c00ed7c1bcba8f2d684791a09" target="_top" xlink:title="CellSocietyView.displayFrameRate">
<polygon fill="white" stroke="black" points="784,-534.5 784,-553.5 962,-553.5 962,-534.5 784,-534.5"/>
<text text-anchor="middle" x="873" y="-541.5" font-family="Helvetica,sans-Serif" font-size="10.00">CellSocietyView.displayFrameRate</text>
</a>
</g>
</g>
<!-- Node18&#45;&gt;Node36 -->
<g id="edge46" class="edge"><title>Node18&#45;&gt;Node36</title>
<path fill="none" stroke="midnightblue" d="M457.378,-436.642C474.555,-446.798 502.298,-463.322 526,-478 542.142,-487.996 544.185,-494.433 562,-501 629.972,-526.057 711.228,-536.677 773.495,-541.102"/>
<polygon fill="midnightblue" stroke="midnightblue" points="773.501,-544.61 783.712,-541.785 773.968,-537.626 773.501,-544.61"/>
</g>
<!-- Node37 -->
<g id="node37" class="node"><title>Node37</title>
<g id="a_node37"><a xlink:href="../../df/df8/class_cell_society_view.html#a930d889b8619ae93731b8542ce285180" target="_top" xlink:title="CellSocietyView.generate\lChartLines">
<polygon fill="white" stroke="black" points="586.5,-390 586.5,-420 723.5,-420 723.5,-390 586.5,-390"/>
<text text-anchor="start" x="594.5" y="-408" font-family="Helvetica,sans-Serif" font-size="10.00">CellSocietyView.generate</text>
<text text-anchor="middle" x="655" y="-397" font-family="Helvetica,sans-Serif" font-size="10.00">ChartLines</text>
</a>
</g>
</g>
<!-- Node18&#45;&gt;Node37 -->
<g id="edge48" class="edge"><title>Node18&#45;&gt;Node37</title>
<path fill="none" stroke="midnightblue" d="M506.064,-420.28C528.231,-417.99 553.236,-415.408 576.293,-413.026"/>
<polygon fill="midnightblue" stroke="midnightblue" points="576.799,-416.493 586.386,-411.984 576.079,-409.53 576.799,-416.493"/>
</g>
<!-- Node38 -->
<g id="node38" class="node"><title>Node38</title>
<g id="a_node38"><a xlink:href="../../df/df8/class_cell_society_view.html#a989874eb178e925124f50d7cabcc184c" target="_top" xlink:title="CellSocietyView.setGridGap">
<polygon fill="white" stroke="black" points="581.5,-351.5 581.5,-370.5 728.5,-370.5 728.5,-351.5 581.5,-351.5"/>
<text text-anchor="middle" x="655" y="-358.5" font-family="Helvetica,sans-Serif" font-size="10.00">CellSocietyView.setGridGap</text>
</a>
</g>
</g>
<!-- Node18&#45;&gt;Node38 -->
<g id="edge50" class="edge"><title>Node18&#45;&gt;Node38</title>
<path fill="none" stroke="midnightblue" d="M496.535,-417.426C506.591,-414.721 516.799,-411.301 526,-407 544.118,-398.53 543.768,-388.221 562,-380 567.659,-377.448 573.669,-375.236 579.801,-373.317"/>
<polygon fill="midnightblue" stroke="midnightblue" points="580.853,-376.657 589.503,-370.539 578.926,-369.927 580.853,-376.657"/>
</g>
<!-- Node21 -->
<g id="node21" class="node"><title>Node21</title>
<g id="a_node21"><a xlink:href="../../d2/d95/class_x_m_l_parser.html#ae67767f9678fb650ac38b1321ea9f723" target="_top" xlink:title="XMLParser.parseInitialTags">
<polygon fill="white" stroke="black" points="802.5,-354.5 802.5,-373.5 943.5,-373.5 943.5,-354.5 802.5,-354.5"/>
<text text-anchor="middle" x="873" y="-361.5" font-family="Helvetica,sans-Serif" font-size="10.00">XMLParser.parseInitialTags</text>
</a>
</g>
</g>
<!-- Node20&#45;&gt;Node21 -->
<g id="edge23" class="edge"><title>Node20&#45;&gt;Node21</title>
<path fill="none" stroke="midnightblue" d="M720.061,-293.191C729.757,-295.845 739.387,-299.356 748,-304 767.916,-314.739 764.429,-328.643 784,-340 791.946,-344.611 800.81,-348.365 809.768,-351.413"/>
<polygon fill="midnightblue" stroke="midnightblue" points="808.897,-354.808 819.486,-354.451 810.986,-348.127 808.897,-354.808"/>
</g>
<!-- Node22 -->
<g id="node22" class="node"><title>Node22</title>
<g id="a_node22"><a xlink:href="../../d2/d95/class_x_m_l_parser.html#a09c6848239104ae94825c045796dddd0" target="_top" xlink:title="XMLParser.makeParamMap">
<polygon fill="white" stroke="black" points="1005,-392.5 1005,-411.5 1151,-411.5 1151,-392.5 1005,-392.5"/>
<text text-anchor="middle" x="1078" y="-399.5" font-family="Helvetica,sans-Serif" font-size="10.00">XMLParser.makeParamMap</text>
</a>
</g>
</g>
<!-- Node21&#45;&gt;Node22 -->
<g id="edge24" class="edge"><title>Node21&#45;&gt;Node22</title>
<path fill="none" stroke="midnightblue" d="M924.963,-373.54C952.594,-378.712 986.933,-385.14 1015.98,-390.578"/>
<polygon fill="midnightblue" stroke="midnightblue" points="1015.54,-394.056 1026.02,-392.456 1016.83,-387.176 1015.54,-394.056"/>
</g>
<!-- Node23 -->
<g id="node23" class="node"><title>Node23</title>
<g id="a_node23"><a xlink:href="../../d2/d95/class_x_m_l_parser.html#a5a419f71699eb7d3d76ee238fb262a5f" target="_top" xlink:title="XMLParser.makeCellParamList">
<polygon fill="white" stroke="black" points="998,-354.5 998,-373.5 1158,-373.5 1158,-354.5 998,-354.5"/>
<text text-anchor="middle" x="1078" y="-361.5" font-family="Helvetica,sans-Serif" font-size="10.00">XMLParser.makeCellParamList</text>
</a>
</g>
</g>
<!-- Node21&#45;&gt;Node23 -->
<g id="edge25" class="edge"><title>Node21&#45;&gt;Node23</title>
<path fill="none" stroke="midnightblue" d="M943.577,-364C957.752,-364 972.851,-364 987.604,-364"/>
<polygon fill="midnightblue" stroke="midnightblue" points="987.747,-367.5 997.747,-364 987.747,-360.5 987.747,-367.5"/>
</g>
<!-- Node24&#45;&gt;Node25 -->
<g id="edge27" class="edge"><title>Node24&#45;&gt;Node25</title>
<path fill="none" stroke="midnightblue" d="M710.227,-57.54C739.884,-62.7574 776.804,-69.2525 807.882,-74.72"/>
<polygon fill="midnightblue" stroke="midnightblue" points="807.295,-78.1705 817.751,-76.4561 808.508,-71.2763 807.295,-78.1705"/>
</g>
<!-- Node26 -->
<g id="node26" class="node"><title>Node26</title>
<g id="a_node26"><a xlink:href="../../d2/d95/class_x_m_l_parser.html#a0df3a2904766f59d1246cb55416f8146" target="_top" xlink:title="XMLParser.getSimParamMap">
<polygon fill="white" stroke="black" points="796,-38.5 796,-57.5 950,-57.5 950,-38.5 796,-38.5"/>
<text text-anchor="middle" x="873" y="-45.5" font-family="Helvetica,sans-Serif" font-size="10.00">XMLParser.getSimParamMap</text>
</a>
</g>
</g>
<!-- Node24&#45;&gt;Node26 -->
<g id="edge28" class="edge"><title>Node24&#45;&gt;Node26</title>
<path fill="none" stroke="midnightblue" d="M732.762,-48C749.892,-48 768.17,-48 785.658,-48"/>
<polygon fill="midnightblue" stroke="midnightblue" points="785.849,-51.5001 795.849,-48 785.849,-44.5001 785.849,-51.5001"/>
</g>
<!-- Node28&#45;&gt;Node13 -->
<g id="edge33" class="edge"><title>Node28&#45;&gt;Node13</title>
<path fill="none" stroke="midnightblue" d="M711.862,-218.525C724.254,-221.993 736.972,-226.681 748,-233 767.633,-244.249 763.432,-259.568 784,-269 900.674,-322.503 1233.79,-288.644 1360,-312 1385.22,-316.667 1412.86,-324.975 1434.13,-332.087"/>
<polygon fill="midnightblue" stroke="midnightblue" points="1433.13,-335.443 1443.72,-335.357 1435.39,-328.817 1433.13,-335.443"/>
</g>
<!-- Node28&#45;&gt;Node25 -->
<g id="edge32" class="edge"><title>Node28&#45;&gt;Node25</title>
<path fill="none" stroke="midnightblue" d="M672.949,-199.348C710.646,-177.882 801.62,-126.078 846.327,-100.619"/>
<polygon fill="midnightblue" stroke="midnightblue" points="848.172,-103.597 855.13,-95.6068 844.708,-97.5138 848.172,-103.597"/>
</g>
<!-- Node29 -->
<g id="node29" class="node"><title>Node29</title>
<g id="a_node29"><a xlink:href="../../d3/dff/class_cell_society.html#a276d7f4c12da9d40e8720f762b47592a" target="_top" xlink:title="CellSociety.populateProbabilities">
<polygon fill="white" stroke="black" points="788,-202.5 788,-221.5 958,-221.5 958,-202.5 788,-202.5"/>
<text text-anchor="middle" x="873" y="-209.5" font-family="Helvetica,sans-Serif" font-size="10.00">CellSociety.populateProbabilities</text>
</a>
</g>
</g>
<!-- Node28&#45;&gt;Node29 -->
<g id="edge34" class="edge"><title>Node28&#45;&gt;Node29</title>
<path fill="none" stroke="midnightblue" d="M727.026,-209.986C743.114,-210.21 760.448,-210.451 777.339,-210.685"/>
<polygon fill="midnightblue" stroke="midnightblue" points="777.737,-214.191 787.784,-210.83 777.834,-207.192 777.737,-214.191"/>
</g>
<!-- Node31 -->
<g id="node31" class="node"><title>Node31</title>
<g id="a_node31"><a xlink:href="../../d3/dff/class_cell_society.html#a5c0b747b2fbaaa317266890c48e0267f" target="_top" xlink:title="CellSociety.populateLocations">
<polygon fill="white" stroke="black" points="794,-240.5 794,-259.5 952,-259.5 952,-240.5 794,-240.5"/>
<text text-anchor="middle" x="873" y="-247.5" font-family="Helvetica,sans-Serif" font-size="10.00">CellSociety.populateLocations</text>
</a>
</g>
</g>
<!-- Node28&#45;&gt;Node31 -->
<g id="edge36" class="edge"><title>Node28&#45;&gt;Node31</title>
<path fill="none" stroke="midnightblue" d="M706.098,-218.509C737.609,-224.491 778.456,-232.244 811.734,-238.561"/>
<polygon fill="midnightblue" stroke="midnightblue" points="811.323,-242.045 821.8,-240.471 812.628,-235.168 811.323,-242.045"/>
</g>
<!-- Node33 -->
<g id="node33" class="node"><title>Node33</title>
<g id="a_node33"><a xlink:href="../../d3/dff/class_cell_society.html#a7ef59819b70a8f07c010bd2bb28b7740" target="_top" xlink:title="CellSociety.populateRemaining\lState">
<polygon fill="white" stroke="black" points="792,-153 792,-183 954,-183 954,-153 792,-153"/>
<text text-anchor="start" x="800" y="-171" font-family="Helvetica,sans-Serif" font-size="10.00">CellSociety.populateRemaining</text>
<text text-anchor="middle" x="873" y="-160" font-family="Helvetica,sans-Serif" font-size="10.00">State</text>
</a>
</g>
</g>
<!-- Node28&#45;&gt;Node33 -->
<g id="edge39" class="edge"><title>Node28&#45;&gt;Node33</title>
<path fill="none" stroke="midnightblue" d="M706.098,-199.491C728.862,-195.17 756.5,-189.924 782.636,-184.963"/>
<polygon fill="midnightblue" stroke="midnightblue" points="783.395,-188.381 792.566,-183.078 782.089,-181.504 783.395,-188.381"/>
</g>
<!-- Node30 -->
<g id="node30" class="node"><title>Node30</title>
<g id="a_node30"><a xlink:href="../../d3/dff/class_cell_society.html#a117f1698760a3f6bbe51bd7af16f79bb" target="_top" xlink:title="CellSociety.createCellInstance">
<polygon fill="white" stroke="black" points="998.5,-202.5 998.5,-221.5 1157.5,-221.5 1157.5,-202.5 998.5,-202.5"/>
<text text-anchor="middle" x="1078" y="-209.5" font-family="Helvetica,sans-Serif" font-size="10.00">CellSociety.createCellInstance</text>
</a>
</g>
</g>
<!-- Node29&#45;&gt;Node30 -->
<g id="edge35" class="edge"><title>Node29&#45;&gt;Node30</title>
<path fill="none" stroke="midnightblue" d="M958.033,-212C967.91,-212 978.014,-212 987.956,-212"/>
<polygon fill="midnightblue" stroke="midnightblue" points="988.241,-215.5 998.241,-212 988.241,-208.5 988.241,-215.5"/>
</g>
<!-- Node31&#45;&gt;Node30 -->
<g id="edge38" class="edge"><title>Node31&#45;&gt;Node30</title>
<path fill="none" stroke="midnightblue" d="M924.963,-240.46C952.594,-235.288 986.933,-228.86 1015.98,-223.422"/>
<polygon fill="midnightblue" stroke="midnightblue" points="1016.83,-226.824 1026.02,-221.544 1015.54,-219.944 1016.83,-226.824"/>
</g>
<!-- Node32 -->
<g id="node32" class="node"><title>Node32</title>
<g id="a_node32"><a xlink:href="../../d3/dff/class_cell_society.html#a42451b17e2bca5fd025c8d4ea74310ca" target="_top" xlink:title="CellSociety.stringToIntArray">
<polygon fill="white" stroke="black" points="1005.5,-240.5 1005.5,-259.5 1150.5,-259.5 1150.5,-240.5 1005.5,-240.5"/>
<text text-anchor="middle" x="1078" y="-247.5" font-family="Helvetica,sans-Serif" font-size="10.00">CellSociety.stringToIntArray</text>
</a>
</g>
</g>
<!-- Node31&#45;&gt;Node32 -->
<g id="edge37" class="edge"><title>Node31&#45;&gt;Node32</title>
<path fill="none" stroke="midnightblue" d="M952.195,-250C966.305,-250 981.051,-250 995.26,-250"/>
<polygon fill="midnightblue" stroke="midnightblue" points="995.494,-253.5 1005.49,-250 995.494,-246.5 995.494,-253.5"/>
</g>
<!-- Node33&#45;&gt;Node30 -->
<g id="edge40" class="edge"><title>Node33&#45;&gt;Node30</title>
<path fill="none" stroke="midnightblue" d="M943.293,-183.019C969.439,-188.686 998.766,-195.043 1023.28,-200.356"/>
<polygon fill="midnightblue" stroke="midnightblue" points="1022.6,-203.79 1033.11,-202.488 1024.08,-196.949 1022.6,-203.79"/>
</g>
<!-- Node35 -->
<g id="node35" class="node"><title>Node35</title>
<g id="a_node35"><a xlink:href="../../d3/dff/class_cell_society.html#abf13a64ee79f2cb063447b499c695c58" target="_top" xlink:title="CellSociety.start">
<polygon fill="white" stroke="black" points="826.5,-430.5 826.5,-449.5 919.5,-449.5 919.5,-430.5 826.5,-430.5"/>
<text text-anchor="middle" x="873" y="-437.5" font-family="Helvetica,sans-Serif" font-size="10.00">CellSociety.start</text>
</a>
</g>
</g>
<!-- Node34&#45;&gt;Node35 -->
<g id="edge42" class="edge"><title>Node34&#45;&gt;Node35</title>
<path fill="none" stroke="midnightblue" d="M726.588,-332.606C734.081,-335.065 741.374,-338.145 748,-342 768.96,-354.195 765.65,-367.147 784,-383 803.002,-399.416 827.079,-414.692 845.243,-425.289"/>
<polygon fill="midnightblue" stroke="midnightblue" points="843.727,-428.454 854.145,-430.386 847.206,-422.38 843.727,-428.454"/>
</g>
<!-- Node35&#45;&gt;Node9 -->
<g id="edge43" class="edge"><title>Node35&#45;&gt;Node9</title>
<path fill="none" stroke="midnightblue" d="M919.557,-440C944.856,-440 976.898,-440 1005.46,-440"/>
<polygon fill="midnightblue" stroke="midnightblue" points="1005.81,-443.5 1015.81,-440 1005.81,-436.5 1005.81,-443.5"/>
</g>
<!-- Node41 -->
<g id="node41" class="node"><title>Node41</title>
<g id="a_node41"><a xlink:href="../../d3/dff/class_cell_society.html#adc5feda3db5472cea4e092d463681033" target="_top" xlink:title="CellSociety.reframeTimeline">
<polygon fill="white" stroke="black" points="580.5,-553.5 580.5,-572.5 729.5,-572.5 729.5,-553.5 580.5,-553.5"/>
<text text-anchor="middle" x="655" y="-560.5" font-family="Helvetica,sans-Serif" font-size="10.00">CellSociety.reframeTimeline</text>
</a>
</g>
</g>
<!-- Node40&#45;&gt;Node41 -->
<g id="edge53" class="edge"><title>Node40&#45;&gt;Node41</title>
<path fill="none" stroke="midnightblue" d="M521.526,-557.403C537.375,-558.072 554.041,-558.776 570.001,-559.451"/>
<polygon fill="midnightblue" stroke="midnightblue" points="570.232,-562.964 580.371,-559.889 570.528,-555.97 570.232,-562.964"/>
</g>
<!-- Node41&#45;&gt;Node35 -->
<g id="edge55" class="edge"><title>Node41&#45;&gt;Node35</title>
<path fill="none" stroke="midnightblue" d="M672.949,-553.348C710.646,-531.882 801.62,-480.078 846.327,-454.619"/>
<polygon fill="midnightblue" stroke="midnightblue" points="848.172,-457.597 855.13,-449.607 844.708,-451.514 848.172,-457.597"/>
</g>
<!-- Node41&#45;&gt;Node36 -->
<g id="edge54" class="edge"><title>Node41&#45;&gt;Node36</title>
<path fill="none" stroke="midnightblue" d="M729.731,-556.514C743.831,-555.274 758.801,-553.957 773.533,-552.661"/>
<polygon fill="midnightblue" stroke="midnightblue" points="774.025,-556.132 783.68,-551.769 773.411,-549.159 774.025,-556.132"/>
</g>
<!-- Node43&#45;&gt;Node41 -->
<g id="edge58" class="edge"><title>Node43&#45;&gt;Node41</title>
<path fill="none" stroke="midnightblue" d="M466.77,-506.608C491.135,-515.534 528.806,-528.927 562,-539 575.727,-543.166 590.737,-547.269 604.576,-550.872"/>
<polygon fill="midnightblue" stroke="midnightblue" points="603.855,-554.301 614.411,-553.401 605.598,-547.521 603.855,-554.301"/>
</g>
</g>
</svg>
