<?xml version="1.0" encoding="UTF-8" standalone="no"?>
<!DOCTYPE svg PUBLIC "-//W3C//DTD SVG 1.1//EN"
 "http://www.w3.org/Graphics/SVG/1.1/DTD/svg11.dtd">
<!-- Generated by graphviz version 2.36.0 (20140111.2315)
 -->
<!-- Title: CellSociety.CellSociety Pages: 1 -->
<svg width="1682pt" height="724pt"
 viewBox="0.00 0.00 1682.00 724.00" xmlns="http://www.w3.org/2000/svg" xmlns:xlink="http://www.w3.org/1999/xlink">
<g id="graph0" class="graph" transform="scale(1 1) rotate(0) translate(4 720)">
<title>CellSociety.CellSociety</title>
<polygon fill="white" stroke="none" points="-4,4 -4,-720 1678,-720 1678,4 -4,4"/>
<!-- Node1 -->
<g id="node1" class="node"><title>Node1</title>
<polygon fill="#bfbfbf" stroke="black" points="0.5,-428.5 0.5,-447.5 123.5,-447.5 123.5,-428.5 0.5,-428.5"/>
<text text-anchor="middle" x="62" y="-435.5" font-family="Helvetica,sans-Serif" font-size="10.00">CellSociety.CellSociety</text>
</g>
<!-- Node2 -->
<g id="node2" class="node"><title>Node2</title>
<g id="a_node2"><a xlink:href="../../d3/dff/class_cell_society.html#a656ff46d1459fb7f86b42e3c542506ee" target="_top" xlink:title="CellSociety.configureListeners">
<polygon fill="white" stroke="black" points="160,-428.5 160,-447.5 318,-447.5 318,-428.5 160,-428.5"/>
<text text-anchor="middle" x="239" y="-435.5" font-family="Helvetica,sans-Serif" font-size="10.00">CellSociety.configureListeners</text>
</a>
</g>
</g>
<!-- Node1&#45;&gt;Node2 -->
<g id="edge1" class="edge"><title>Node1&#45;&gt;Node2</title>
<path fill="none" stroke="midnightblue" d="M123.715,-438C132.088,-438 140.823,-438 149.57,-438"/>
<polygon fill="midnightblue" stroke="midnightblue" points="149.823,-441.5 159.823,-438 149.823,-434.5 149.823,-441.5"/>
</g>
<!-- Node3 -->
<g id="node3" class="node"><title>Node3</title>
<g id="a_node3"><a xlink:href="../../df/df8/class_cell_society_view.html#aae7c36ea6b5215b0ba9ee01c72dfcb94" target="_top" xlink:title="CellSocietyView.getPlayElement">
<polygon fill="white" stroke="black" points="356,-696.5 356,-715.5 524,-715.5 524,-696.5 356,-696.5"/>
<text text-anchor="middle" x="440" y="-703.5" font-family="Helvetica,sans-Serif" font-size="10.00">CellSocietyView.getPlayElement</text>
</a>
</g>
</g>
<!-- Node2&#45;&gt;Node3 -->
<g id="edge2" class="edge"><title>Node2&#45;&gt;Node3</title>
<path fill="none" stroke="midnightblue" d="M241.566,-447.662C248.018,-484.265 275.977,-615.686 354,-682 358.907,-686.171 364.492,-689.619 370.4,-692.47"/>
<polygon fill="midnightblue" stroke="midnightblue" points="369.326,-695.815 379.9,-696.475 372.045,-689.365 369.326,-695.815"/>
</g>
<!-- Node4 -->
<g id="node4" class="node"><title>Node4</title>
<g id="a_node4"><a xlink:href="../../d3/dff/class_cell_society.html#a6a4056cd40e4162583f2b9845b77a191" target="_top" xlink:title="CellSociety.resumeAnimation">
<polygon fill="white" stroke="black" points="362,-618.5 362,-637.5 518,-637.5 518,-618.5 362,-618.5"/>
<text text-anchor="middle" x="440" y="-625.5" font-family="Helvetica,sans-Serif" font-size="10.00">CellSociety.resumeAnimation</text>
</a>
</g>
</g>
<!-- Node2&#45;&gt;Node4 -->
<g id="edge3" class="edge"><title>Node2&#45;&gt;Node4</title>
<path fill="none" stroke="midnightblue" d="M244.139,-447.557C256.583,-475.189 296.386,-555.948 354,-599 362.989,-605.717 373.642,-610.949 384.312,-615.001"/>
<polygon fill="midnightblue" stroke="midnightblue" points="383.475,-618.415 394.07,-618.398 385.777,-611.804 383.475,-618.415"/>
</g>
<!-- Node6 -->
<g id="node6" class="node"><title>Node6</title>
<g id="a_node6"><a xlink:href="../../df/df8/class_cell_society_view.html#ada088eb9125561f8dd941badb141fa86" target="_top" xlink:title="CellSocietyView.getPause\lElement">
<polygon fill="white" stroke="black" points="371.5,-359 371.5,-389 508.5,-389 508.5,-359 371.5,-359"/>
<text text-anchor="start" x="379.5" y="-377" font-family="Helvetica,sans-Serif" font-size="10.00">CellSocietyView.getPause</text>
<text text-anchor="middle" x="440" y="-366" font-family="Helvetica,sans-Serif" font-size="10.00">Element</text>
</a>
</g>
</g>
<!-- Node2&#45;&gt;Node6 -->
<g id="edge5" class="edge"><title>Node2&#45;&gt;Node6</title>
<path fill="none" stroke="midnightblue" d="M267.07,-428.368C290.099,-420.263 324.098,-408.507 354,-399 361.318,-396.673 369.014,-394.303 376.663,-391.995"/>
<polygon fill="midnightblue" stroke="midnightblue" points="377.717,-395.333 386.294,-389.113 375.71,-388.627 377.717,-395.333"/>
</g>
<!-- Node7 -->
<g id="node7" class="node"><title>Node7</title>
<g id="a_node7"><a xlink:href="../../d3/dff/class_cell_society.html#ae565a305ea53e5a37da9816a236b4fbc" target="_top" xlink:title="CellSociety.pauseAnimation">
<polygon fill="white" stroke="black" points="580.5,-582.5 580.5,-601.5 729.5,-601.5 729.5,-582.5 580.5,-582.5"/>
<text text-anchor="middle" x="655" y="-589.5" font-family="Helvetica,sans-Serif" font-size="10.00">CellSociety.pauseAnimation</text>
</a>
</g>
</g>
<!-- Node2&#45;&gt;Node7 -->
<g id="edge6" class="edge"><title>Node2&#45;&gt;Node7</title>
<path fill="none" stroke="midnightblue" d="M245.731,-447.518C260.379,-470.876 301.741,-531.011 354,-557 421.38,-590.509 507.493,-597.448 570.161,-597.075"/>
<polygon fill="midnightblue" stroke="midnightblue" points="570.446,-600.572 580.402,-596.949 570.359,-593.573 570.446,-600.572"/>
</g>
<!-- Node8 -->
<g id="node8" class="node"><title>Node8</title>
<g id="a_node8"><a xlink:href="../../df/df8/class_cell_society_view.html#a3c3a7039f77d392c374cd309967ca1cc" target="_top" xlink:title="CellSocietyView.getStepElement">
<polygon fill="white" stroke="black" points="354.5,-320.5 354.5,-339.5 525.5,-339.5 525.5,-320.5 354.5,-320.5"/>
<text text-anchor="middle" x="440" y="-327.5" font-family="Helvetica,sans-Serif" font-size="10.00">CellSocietyView.getStepElement</text>
</a>
</g>
</g>
<!-- Node2&#45;&gt;Node8 -->
<g id="edge8" class="edge"><title>Node2&#45;&gt;Node8</title>
<path fill="none" stroke="midnightblue" d="M249.353,-428.244C267.64,-409.775 310.184,-369.702 354,-349 359.255,-346.517 364.848,-344.351 370.56,-342.464"/>
<polygon fill="midnightblue" stroke="midnightblue" points="371.681,-345.781 380.244,-339.542 369.66,-339.08 371.681,-345.781"/>
</g>
<!-- Node9 -->
<g id="node9" class="node"><title>Node9</title>
<g id="a_node9"><a xlink:href="../../d3/dff/class_cell_society.html#a0ff19c30a1cc433d8ea8444f6a5617f1" target="_top" xlink:title="CellSociety.updateGrid">
<polygon fill="white" stroke="black" points="1016,-480.5 1016,-499.5 1140,-499.5 1140,-480.5 1016,-480.5"/>
<text text-anchor="middle" x="1078" y="-487.5" font-family="Helvetica,sans-Serif" font-size="10.00">CellSociety.updateGrid</text>
</a>
</g>
</g>
<!-- Node2&#45;&gt;Node9 -->
<g id="edge9" class="edge"><title>Node2&#45;&gt;Node9</title>
<path fill="none" stroke="midnightblue" d="M241.761,-447.886C248.59,-482.88 276.876,-601.217 354,-647 395.482,-671.625 859.349,-683.144 962,-632 1015.55,-605.32 1052.61,-540.887 1068.42,-508.803"/>
<polygon fill="midnightblue" stroke="midnightblue" points="1071.65,-510.145 1072.8,-499.612 1065.33,-507.134 1071.65,-510.145"/>
</g>
<!-- Node19 -->
<g id="node19" class="node"><title>Node19</title>
<g id="a_node19"><a xlink:href="../../df/df8/class_cell_society_view.html#aebad9aaff0e9784fec1518d319e03c85" target="_top" xlink:title="CellSocietyView.getXMLElement">
<polygon fill="white" stroke="black" points="356,-282.5 356,-301.5 524,-301.5 524,-282.5 356,-282.5"/>
<text text-anchor="middle" x="440" y="-289.5" font-family="Helvetica,sans-Serif" font-size="10.00">CellSocietyView.getXMLElement</text>
</a>
</g>
</g>
<!-- Node2&#45;&gt;Node19 -->
<g id="edge21" class="edge"><title>Node2&#45;&gt;Node19</title>
<path fill="none" stroke="midnightblue" d="M245.743,-428.188C260.418,-404.051 301.838,-341.535 354,-311 357.848,-308.748 361.936,-306.762 366.16,-305.012"/>
<polygon fill="midnightblue" stroke="midnightblue" points="367.405,-308.283 375.58,-301.543 364.986,-301.714 367.405,-308.283"/>
</g>
<!-- Node20 -->
<g id="node20" class="node"><title>Node20</title>
<g id="a_node20"><a xlink:href="../../d3/dff/class_cell_society.html#af9f22af39a97a58b26126020ca6c8844" target="_top" xlink:title="CellSociety.readNewXML">
<polygon fill="white" stroke="black" points="374,-408.5 374,-427.5 506,-427.5 506,-408.5 374,-408.5"/>
<text text-anchor="middle" x="440" y="-415.5" font-family="Helvetica,sans-Serif" font-size="10.00">CellSociety.readNewXML</text>
</a>
</g>
</g>
<!-- Node2&#45;&gt;Node20 -->
<g id="edge22" class="edge"><title>Node2&#45;&gt;Node20</title>
<path fill="none" stroke="midnightblue" d="M318.079,-430.153C333.119,-428.641 348.845,-427.061 363.792,-425.559"/>
<polygon fill="midnightblue" stroke="midnightblue" points="364.397,-429.015 373.997,-424.533 363.697,-422.051 364.397,-429.015"/>
</g>
<!-- Node44 -->
<g id="node44" class="node"><title>Node44</title>
<g id="a_node44"><a xlink:href="../../df/df8/class_cell_society_view.html#a572d464cbe7d186dc9a5b0e4a8130689" target="_top" xlink:title="CellSocietyView.getSpeedup\lElement">
<polygon fill="white" stroke="black" points="364,-233 364,-263 516,-263 516,-233 364,-233"/>
<text text-anchor="start" x="372" y="-251" font-family="Helvetica,sans-Serif" font-size="10.00">CellSocietyView.getSpeedup</text>
<text text-anchor="middle" x="440" y="-240" font-family="Helvetica,sans-Serif" font-size="10.00">Element</text>
</a>
</g>
</g>
<!-- Node2&#45;&gt;Node44 -->
<g id="edge55" class="edge"><title>Node2&#45;&gt;Node44</title>
<path fill="none" stroke="midnightblue" d="M243.811,-428.488C255.627,-400.226 294.47,-316.052 354,-273 356.68,-271.062 359.509,-269.273 362.444,-267.622"/>
<polygon fill="midnightblue" stroke="midnightblue" points="364.149,-270.682 371.52,-263.071 361.012,-264.425 364.149,-270.682"/>
</g>
<!-- Node45 -->
<g id="node45" class="node"><title>Node45</title>
<g id="a_node45"><a xlink:href="../../d3/dff/class_cell_society.html#a8250bfacdaf51dabf6b9d1cafc0ce9b2" target="_top" xlink:title="CellSociety.increaseFrameRate">
<polygon fill="white" stroke="black" points="358.5,-528.5 358.5,-547.5 521.5,-547.5 521.5,-528.5 358.5,-528.5"/>
<text text-anchor="middle" x="440" y="-535.5" font-family="Helvetica,sans-Serif" font-size="10.00">CellSociety.increaseFrameRate</text>
</a>
</g>
</g>
<!-- Node2&#45;&gt;Node45 -->
<g id="edge56" class="edge"><title>Node2&#45;&gt;Node45</title>
<path fill="none" stroke="midnightblue" d="M256.78,-447.66C278.824,-460.225 318.861,-482.623 354,-500 371.279,-508.545 390.904,-517.375 406.94,-524.37"/>
<polygon fill="midnightblue" stroke="midnightblue" points="405.841,-527.707 416.408,-528.469 408.622,-521.284 405.841,-527.707"/>
</g>
<!-- Node47 -->
<g id="node47" class="node"><title>Node47</title>
<g id="a_node47"><a xlink:href="../../df/df8/class_cell_society_view.html#a0f616a01579a7293ef781d3e341ea1ac" target="_top" xlink:title="CellSocietyView.getSlowdown\lElement">
<polygon fill="white" stroke="black" points="362.5,-184 362.5,-214 517.5,-214 517.5,-184 362.5,-184"/>
<text text-anchor="start" x="370.5" y="-202" font-family="Helvetica,sans-Serif" font-size="10.00">CellSocietyView.getSlowdown</text>
<text text-anchor="middle" x="440" y="-191" font-family="Helvetica,sans-Serif" font-size="10.00">Element</text>
</a>
</g>
</g>
<!-- Node2&#45;&gt;Node47 -->
<g id="edge60" class="edge"><title>Node2&#45;&gt;Node47</title>
<path fill="none" stroke="midnightblue" d="M242.279,-428.092C250.653,-393.976 282.996,-280.327 354,-223 355.611,-221.7 357.288,-220.47 359.02,-219.306"/>
<polygon fill="midnightblue" stroke="midnightblue" points="361.206,-222.084 368.086,-214.027 357.683,-216.035 361.206,-222.084"/>
</g>
<!-- Node48 -->
<g id="node48" class="node"><title>Node48</title>
<g id="a_node48"><a xlink:href="../../d3/dff/class_cell_society.html#a045267ba1843ca4a47891d7be73c2ac1" target="_top" xlink:title="CellSociety.decreaseFrameRate">
<polygon fill="white" stroke="black" points="356.5,-471.5 356.5,-490.5 523.5,-490.5 523.5,-471.5 356.5,-471.5"/>
<text text-anchor="middle" x="440" y="-478.5" font-family="Helvetica,sans-Serif" font-size="10.00">CellSociety.decreaseFrameRate</text>
</a>
</g>
</g>
<!-- Node2&#45;&gt;Node48 -->
<g id="edge61" class="edge"><title>Node2&#45;&gt;Node48</title>
<path fill="none" stroke="midnightblue" d="M284.165,-447.543C313.922,-453.973 353.361,-462.495 384.987,-469.329"/>
<polygon fill="midnightblue" stroke="midnightblue" points="384.445,-472.792 394.959,-471.484 385.924,-465.95 384.445,-472.792"/>
</g>
<!-- Node5 -->
<g id="node5" class="node"><title>Node5</title>
<g id="a_node5"><a xlink:href="../../df/df8/class_cell_society_view.html#ae83511f9bf3610b0750d41c4aeb0f778" target="_top" xlink:title="CellSocietyView.setButtons\lPause">
<polygon fill="white" stroke="black" points="800,-593 800,-623 946,-623 946,-593 800,-593"/>
<text text-anchor="start" x="808" y="-611" font-family="Helvetica,sans-Serif" font-size="10.00">CellSocietyView.setButtons</text>
<text text-anchor="middle" x="873" y="-600" font-family="Helvetica,sans-Serif" font-size="10.00">Pause</text>
</a>
</g>
</g>
<!-- Node4&#45;&gt;Node5 -->
<g id="edge4" class="edge"><title>Node4&#45;&gt;Node5</title>
<path fill="none" stroke="midnightblue" d="M518.054,-624.424C594.524,-620.876 711.327,-615.456 789.609,-611.823"/>
<polygon fill="midnightblue" stroke="midnightblue" points="790.086,-615.305 799.913,-611.345 789.762,-608.312 790.086,-615.305"/>
</g>
<!-- Node7&#45;&gt;Node5 -->
<g id="edge7" class="edge"><title>Node7&#45;&gt;Node5</title>
<path fill="none" stroke="midnightblue" d="M729.731,-597.462C748.984,-598.888 769.859,-600.434 789.534,-601.891"/>
<polygon fill="midnightblue" stroke="midnightblue" points="789.467,-605.396 799.699,-602.644 789.984,-598.415 789.467,-605.396"/>
</g>
<!-- Node10 -->
<g id="node10" class="node"><title>Node10</title>
<g id="a_node10"><a xlink:href="../../d3/dff/class_cell_society.html#a64ebaee33d25e0e730024e67d5582c63" target="_top" xlink:title="CellSociety.updateColors">
<polygon fill="white" stroke="black" points="1210,-442.5 1210,-461.5 1344,-461.5 1344,-442.5 1210,-442.5"/>
<text text-anchor="middle" x="1277" y="-449.5" font-family="Helvetica,sans-Serif" font-size="10.00">CellSociety.updateColors</text>
</a>
</g>
</g>
<!-- Node9&#45;&gt;Node10 -->
<g id="edge10" class="edge"><title>Node9&#45;&gt;Node10</title>
<path fill="none" stroke="midnightblue" d="M1128.46,-480.46C1155.15,-475.31 1188.3,-468.916 1216.42,-463.494"/>
<polygon fill="midnightblue" stroke="midnightblue" points="1217.37,-466.875 1226.52,-461.544 1216.04,-460.001 1217.37,-466.875"/>
</g>
<!-- Node12 -->
<g id="node12" class="node"><title>Node12</title>
<g id="a_node12"><a xlink:href="../../d2/d95/class_x_m_l_parser.html#ac4e3257aed1deb9fe950149f706fce5b" target="_top" xlink:title="XMLParser.getCellParamList">
<polygon fill="white" stroke="black" points="1396.5,-335.5 1396.5,-354.5 1545.5,-354.5 1545.5,-335.5 1396.5,-335.5"/>
<text text-anchor="middle" x="1471" y="-342.5" font-family="Helvetica,sans-Serif" font-size="10.00">XMLParser.getCellParamList</text>
</a>
</g>
</g>
<!-- Node9&#45;&gt;Node12 -->
<g id="edge18" class="edge"><title>Node9&#45;&gt;Node12</title>
<path fill="none" stroke="midnightblue" d="M1086.06,-480.341C1102.34,-458.872 1144.93,-407.255 1194,-384 1254.23,-355.458 1329.54,-346.339 1386.27,-344.005"/>
<polygon fill="midnightblue" stroke="midnightblue" points="1386.41,-347.502 1396.28,-343.655 1386.17,-340.507 1386.41,-347.502"/>
</g>
<!-- Node14 -->
<g id="node14" class="node"><title>Node14</title>
<g id="a_node14"><a xlink:href="../../d8/d87/class_controller.html#aa8f10b5f28542d34053a7e4d5f1d6013" target="_top" xlink:title="Controller.runOneSim">
<polygon fill="white" stroke="black" points="1217.5,-480.5 1217.5,-499.5 1336.5,-499.5 1336.5,-480.5 1217.5,-480.5"/>
<text text-anchor="middle" x="1277" y="-487.5" font-family="Helvetica,sans-Serif" font-size="10.00">Controller.runOneSim</text>
</a>
</g>
</g>
<!-- Node9&#45;&gt;Node14 -->
<g id="edge14" class="edge"><title>Node9&#45;&gt;Node14</title>
<path fill="none" stroke="midnightblue" d="M1140.25,-490C1161.51,-490 1185.48,-490 1207.3,-490"/>
<polygon fill="midnightblue" stroke="midnightblue" points="1207.48,-493.5 1217.48,-490 1207.48,-486.5 1207.48,-493.5"/>
</g>
<!-- Node15 -->
<g id="node15" class="node"><title>Node15</title>
<g id="a_node15"><a xlink:href="../../df/df8/class_cell_society_view.html#a43ac2666d3a002024be53fe74028a576" target="_top" xlink:title="CellSocietyView.updateSimGrid">
<polygon fill="white" stroke="black" points="1194.5,-518.5 1194.5,-537.5 1359.5,-537.5 1359.5,-518.5 1194.5,-518.5"/>
<text text-anchor="middle" x="1277" y="-525.5" font-family="Helvetica,sans-Serif" font-size="10.00">CellSocietyView.updateSimGrid</text>
</a>
</g>
</g>
<!-- Node9&#45;&gt;Node15 -->
<g id="edge15" class="edge"><title>Node9&#45;&gt;Node15</title>
<path fill="none" stroke="midnightblue" d="M1128.46,-499.54C1155.15,-504.69 1188.3,-511.084 1216.42,-516.506"/>
<polygon fill="midnightblue" stroke="midnightblue" points="1216.04,-519.999 1226.52,-518.456 1217.37,-513.125 1216.04,-519.999"/>
</g>
<!-- Node18 -->
<g id="node18" class="node"><title>Node18</title>
<g id="a_node18"><a xlink:href="../../df/df8/class_cell_society_view.html#a7ca77bdfdef97e9be9c9941c2f4d3513" target="_top" xlink:title="CellSocietyView.updateChart\lLines">
<polygon fill="white" stroke="black" points="1200.5,-393 1200.5,-423 1353.5,-423 1353.5,-393 1200.5,-393"/>
<text text-anchor="start" x="1208.5" y="-411" font-family="Helvetica,sans-Serif" font-size="10.00">CellSocietyView.updateChart</text>
<text text-anchor="middle" x="1277" y="-400" font-family="Helvetica,sans-Serif" font-size="10.00">Lines</text>
</a>
</g>
</g>
<!-- Node9&#45;&gt;Node18 -->
<g id="edge19" class="edge"><title>Node9&#45;&gt;Node18</title>
<path fill="none" stroke="midnightblue" d="M1096.13,-480.397C1118.25,-468.257 1158.17,-447.229 1194,-433 1199.9,-430.657 1206.11,-428.4 1212.36,-426.267"/>
<polygon fill="midnightblue" stroke="midnightblue" points="1213.79,-429.481 1222.19,-423.02 1211.6,-422.835 1213.79,-429.481"/>
</g>
<!-- Node11 -->
<g id="node11" class="node"><title>Node11</title>
<g id="a_node11"><a xlink:href="../../dd/d11/class_cell.html#a7f8d2520a26a1376a44372149e561f6b" target="_top" xlink:title="Cell.toString">
<polygon fill="white" stroke="black" points="1433.5,-401.5 1433.5,-420.5 1508.5,-420.5 1508.5,-401.5 1433.5,-401.5"/>
<text text-anchor="middle" x="1471" y="-408.5" font-family="Helvetica,sans-Serif" font-size="10.00">Cell.toString</text>
</a>
</g>
</g>
<!-- Node10&#45;&gt;Node11 -->
<g id="edge11" class="edge"><title>Node10&#45;&gt;Node11</title>
<path fill="none" stroke="midnightblue" d="M1322.53,-442.491C1352.79,-436.03 1392.73,-427.501 1423.41,-420.949"/>
<polygon fill="midnightblue" stroke="midnightblue" points="1424.39,-424.32 1433.43,-418.808 1422.92,-417.474 1424.39,-424.32"/>
</g>
<!-- Node10&#45;&gt;Node12 -->
<g id="edge12" class="edge"><title>Node10&#45;&gt;Node12</title>
<path fill="none" stroke="midnightblue" d="M1336.19,-442.438C1344.51,-439.77 1352.7,-436.359 1360,-432 1380.53,-419.732 1377.74,-407.443 1396,-392 1410.49,-379.747 1428.42,-368.28 1443,-359.74"/>
<polygon fill="midnightblue" stroke="midnightblue" points="1445.09,-362.578 1452.03,-354.573 1441.61,-356.503 1445.09,-362.578"/>
</g>
<!-- Node13 -->
<g id="node13" class="node"><title>Node13</title>
<g id="a_node13"><a xlink:href="../../dd/d11/class_cell.html#a03cf6177b031a2270a723aa5977b812e" target="_top" xlink:title="Cell.setColor">
<polygon fill="white" stroke="black" points="1432.5,-442.5 1432.5,-461.5 1509.5,-461.5 1509.5,-442.5 1432.5,-442.5"/>
<text text-anchor="middle" x="1471" y="-449.5" font-family="Helvetica,sans-Serif" font-size="10.00">Cell.setColor</text>
</a>
</g>
</g>
<!-- Node10&#45;&gt;Node13 -->
<g id="edge13" class="edge"><title>Node10&#45;&gt;Node13</title>
<path fill="none" stroke="midnightblue" d="M1344.08,-452C1369.78,-452 1398.66,-452 1422.27,-452"/>
<polygon fill="midnightblue" stroke="midnightblue" points="1422.38,-455.5 1432.38,-452 1422.38,-448.5 1422.38,-455.5"/>
</g>
<!-- Node16 -->
<g id="node16" class="node"><title>Node16</title>
<g id="a_node16"><a xlink:href="../../da/d74/class_grid.html#a35a1ac27af1320c129643842e74a904b" target="_top" xlink:title="Grid.update">
<polygon fill="white" stroke="black" points="1434.5,-518.5 1434.5,-537.5 1507.5,-537.5 1507.5,-518.5 1434.5,-518.5"/>
<text text-anchor="middle" x="1471" y="-525.5" font-family="Helvetica,sans-Serif" font-size="10.00">Grid.update</text>
</a>
</g>
</g>
<!-- Node15&#45;&gt;Node16 -->
<g id="edge16" class="edge"><title>Node15&#45;&gt;Node16</title>
<path fill="none" stroke="midnightblue" d="M1359.7,-528C1381.85,-528 1405.04,-528 1424.41,-528"/>
<polygon fill="midnightblue" stroke="midnightblue" points="1424.45,-531.5 1434.45,-528 1424.45,-524.5 1424.45,-531.5"/>
</g>
<!-- Node17 -->
<g id="node17" class="node"><title>Node17</title>
<g id="a_node17"><a xlink:href="../../da/d74/class_grid.html#a12ccb8909871030fc2e2839dff169f3a" target="_top" xlink:title="Grid.displayGrid">
<polygon fill="white" stroke="black" points="1582,-518.5 1582,-537.5 1674,-537.5 1674,-518.5 1582,-518.5"/>
<text text-anchor="middle" x="1628" y="-525.5" font-family="Helvetica,sans-Serif" font-size="10.00">Grid.displayGrid</text>
</a>
</g>
</g>
<!-- Node16&#45;&gt;Node17 -->
<g id="edge17" class="edge"><title>Node16&#45;&gt;Node17</title>
<path fill="none" stroke="midnightblue" d="M1507.56,-528C1526.53,-528 1550.3,-528 1571.63,-528"/>
<polygon fill="midnightblue" stroke="midnightblue" points="1571.87,-531.5 1581.87,-528 1571.87,-524.5 1571.87,-531.5"/>
</g>
<!-- Node18&#45;&gt;Node11 -->
<g id="edge20" class="edge"><title>Node18&#45;&gt;Node11</title>
<path fill="none" stroke="midnightblue" d="M1353.61,-409.181C1377.04,-409.547 1402.17,-409.94 1423.06,-410.267"/>
<polygon fill="midnightblue" stroke="midnightblue" points="1423.2,-413.769 1433.26,-410.426 1423.31,-406.77 1423.2,-413.769"/>
</g>
<!-- Node20&#45;&gt;Node7 -->
<g id="edge50" class="edge"><title>Node20&#45;&gt;Node7</title>
<path fill="none" stroke="midnightblue" d="M472.35,-427.511C490.327,-434.436 512.028,-445.525 526,-462 559.545,-501.554 523.367,-538.398 562,-573 564.84,-575.543 567.928,-577.781 571.196,-579.747"/>
<polygon fill="midnightblue" stroke="midnightblue" points="569.717,-582.922 580.217,-584.341 572.894,-576.684 569.717,-582.922"/>
</g>
<!-- Node20&#45;&gt;Node12 -->
<g id="edge52" class="edge"><title>Node20&#45;&gt;Node12</title>
<path fill="none" stroke="midnightblue" d="M506.038,-411.108C513.494,-408.013 520.412,-403.773 526,-398 582.437,-339.691 503.795,-275.544 562,-219 633.799,-149.249 684.258,-189.475 784,-181 949.625,-166.927 996.62,-141.17 1158,-181 1277.13,-210.403 1401.06,-294.363 1449.18,-329.373"/>
<polygon fill="midnightblue" stroke="midnightblue" points="1447.13,-332.214 1457.26,-335.317 1451.28,-326.574 1447.13,-332.214"/>
</g>
<!-- Node20&#45;&gt;Node18 -->
<g id="edge54" class="edge"><title>Node20&#45;&gt;Node18</title>
<path fill="none" stroke="midnightblue" d="M506.168,-410.015C513.423,-407.077 520.253,-403.172 526,-398 562.045,-365.559 522.456,-323.069 562,-295 629.411,-247.151 673.492,-259.19 748,-295 771.085,-306.095 761.731,-327.347 784,-340 851.635,-378.429 1068.33,-396.467 1190.37,-403.768"/>
<polygon fill="midnightblue" stroke="midnightblue" points="1190.24,-407.266 1200.43,-404.358 1190.65,-400.278 1190.24,-407.266"/>
</g>
<!-- Node21 -->
<g id="node21" class="node"><title>Node21</title>
<g id="a_node21"><a xlink:href="../../df/df8/class_cell_society_view.html#a053b6ef6afa80722445223c4e373e51c" target="_top" xlink:title="CellSocietyView.displayXMLChooser">
<polygon fill="white" stroke="black" points="562.5,-57.5 562.5,-76.5 747.5,-76.5 747.5,-57.5 562.5,-57.5"/>
<text text-anchor="middle" x="655" y="-64.5" font-family="Helvetica,sans-Serif" font-size="10.00">CellSocietyView.displayXMLChooser</text>
</a>
</g>
</g>
<!-- Node20&#45;&gt;Node21 -->
<g id="edge23" class="edge"><title>Node20&#45;&gt;Node21</title>
<path fill="none" stroke="midnightblue" d="M506.083,-411.716C513.629,-408.54 520.557,-404.115 526,-398 618.804,-293.732 467.775,-188.986 562,-86 563.067,-84.8343 564.184,-83.7297 565.347,-82.6831"/>
<polygon fill="midnightblue" stroke="midnightblue" points="567.65,-85.3337 573.63,-76.5872 563.501,-79.6961 567.65,-85.3337"/>
</g>
<!-- Node22 -->
<g id="node22" class="node"><title>Node22</title>
<g id="a_node22"><a xlink:href="../../d2/d95/class_x_m_l_parser.html#a77ee23818c822b69cdf4200eef726a61" target="_top" xlink:title="XMLParser.parseXMLFile">
<polygon fill="white" stroke="black" points="590,-19.5 590,-38.5 720,-38.5 720,-19.5 590,-19.5"/>
<text text-anchor="middle" x="655" y="-26.5" font-family="Helvetica,sans-Serif" font-size="10.00">XMLParser.parseXMLFile</text>
</a>
</g>
</g>
<!-- Node20&#45;&gt;Node22 -->
<g id="edge24" class="edge"><title>Node20&#45;&gt;Node22</title>
<path fill="none" stroke="midnightblue" d="M506.154,-411.779C513.689,-408.593 520.595,-404.149 526,-398 629.241,-280.549 457.157,-164.024 562,-48 567.037,-42.4261 573.239,-38.2429 580.026,-35.1304"/>
<polygon fill="midnightblue" stroke="midnightblue" points="581.468,-38.3272 589.586,-31.5197 578.994,-31.7786 581.468,-38.3272"/>
</g>
<!-- Node26 -->
<g id="node26" class="node"><title>Node26</title>
<g id="a_node26"><a xlink:href="../../d3/dff/class_cell_society.html#abfbf43ce46b4c82c16a2d933b6a11abf" target="_top" xlink:title="CellSociety.retrieveParserInfo">
<polygon fill="white" stroke="black" points="577.5,-95.5 577.5,-114.5 732.5,-114.5 732.5,-95.5 577.5,-95.5"/>
<text text-anchor="middle" x="655" y="-102.5" font-family="Helvetica,sans-Serif" font-size="10.00">CellSociety.retrieveParserInfo</text>
</a>
</g>
</g>
<!-- Node20&#45;&gt;Node26 -->
<g id="edge28" class="edge"><title>Node20&#45;&gt;Node26</title>
<path fill="none" stroke="midnightblue" d="M506.399,-411.447C513.799,-408.298 520.604,-403.953 526,-398 607.01,-308.63 482.073,-219.339 562,-129 565.247,-125.33 568.978,-122.188 573.038,-119.502"/>
<polygon fill="midnightblue" stroke="midnightblue" points="574.768,-122.544 581.781,-114.603 571.347,-116.437 574.768,-122.544"/>
</g>
<!-- Node27 -->
<g id="node27" class="node"><title>Node27</title>
<g id="a_node27"><a xlink:href="../../d2/d95/class_x_m_l_parser.html#aea9b535964c91fa3c3d2b1c0b6a334c2" target="_top" xlink:title="XMLParser.getInitParamMap">
<polygon fill="white" stroke="black" points="798.5,-114.5 798.5,-133.5 947.5,-133.5 947.5,-114.5 798.5,-114.5"/>
<text text-anchor="middle" x="873" y="-121.5" font-family="Helvetica,sans-Serif" font-size="10.00">XMLParser.getInitParamMap</text>
</a>
</g>
</g>
<!-- Node20&#45;&gt;Node27 -->
<g id="edge32" class="edge"><title>Node20&#45;&gt;Node27</title>
<path fill="none" stroke="midnightblue" d="M506.279,-411.336C513.697,-408.206 520.54,-403.895 526,-398 596.61,-321.772 487.914,-239.854 562,-167 593.161,-136.357 707.573,-127.246 788.301,-124.706"/>
<polygon fill="midnightblue" stroke="midnightblue" points="788.57,-128.2 798.466,-124.415 788.369,-121.203 788.57,-128.2"/>
</g>
<!-- Node29 -->
<g id="node29" class="node"><title>Node29</title>
<g id="a_node29"><a xlink:href="../../dd/d11/class_cell.html#a7157b57f4ff263ea68e1ff5fc424176e" target="_top" xlink:title="Cell.setCellSize">
<polygon fill="white" stroke="black" points="610.5,-468.5 610.5,-487.5 699.5,-487.5 699.5,-468.5 610.5,-468.5"/>
<text text-anchor="middle" x="655" y="-475.5" font-family="Helvetica,sans-Serif" font-size="10.00">Cell.setCellSize</text>
</a>
</g>
</g>
<!-- Node20&#45;&gt;Node29 -->
<g id="edge31" class="edge"><title>Node20&#45;&gt;Node29</title>
<path fill="none" stroke="midnightblue" d="M466.214,-427.558C490.498,-436.521 528.394,-449.874 562,-459 574.295,-462.339 587.653,-465.409 600.28,-468.064"/>
<polygon fill="midnightblue" stroke="midnightblue" points="599.717,-471.522 610.216,-470.101 601.123,-464.664 599.717,-471.522"/>
</g>
<!-- Node30 -->
<g id="node30" class="node"><title>Node30</title>
<g id="a_node30"><a xlink:href="../../d3/dff/class_cell_society.html#a7a6dab68551f91cc4b120faa51670bf8" target="_top" xlink:title="CellSociety.createCellArray">
<polygon fill="white" stroke="black" points="583,-228.5 583,-247.5 727,-247.5 727,-228.5 583,-228.5"/>
<text text-anchor="middle" x="655" y="-235.5" font-family="Helvetica,sans-Serif" font-size="10.00">CellSociety.createCellArray</text>
</a>
</g>
</g>
<!-- Node20&#45;&gt;Node30 -->
<g id="edge33" class="edge"><title>Node20&#45;&gt;Node30</title>
<path fill="none" stroke="midnightblue" d="M506.138,-410.611C513.487,-407.585 520.349,-403.497 526,-398 570.82,-354.403 517.708,-306.133 562,-262 565.776,-258.237 570.064,-255.042 574.675,-252.33"/>
<polygon fill="midnightblue" stroke="midnightblue" points="576.53,-255.315 583.888,-247.691 573.382,-249.063 576.53,-255.315"/>
</g>
<!-- Node36 -->
<g id="node36" class="node"><title>Node36</title>
<g id="a_node36"><a xlink:href="../../df/df8/class_cell_society_view.html#ab0adb0e17b74be4e0192b02e2116e4a1" target="_top" xlink:title="CellSocietyView.openDialogBox">
<polygon fill="white" stroke="black" points="572.5,-430.5 572.5,-449.5 737.5,-449.5 737.5,-430.5 572.5,-430.5"/>
<text text-anchor="middle" x="655" y="-437.5" font-family="Helvetica,sans-Serif" font-size="10.00">CellSocietyView.openDialogBox</text>
</a>
</g>
</g>
<!-- Node20&#45;&gt;Node36 -->
<g id="edge43" class="edge"><title>Node20&#45;&gt;Node36</title>
<path fill="none" stroke="midnightblue" d="M506.064,-424.72C523.798,-426.552 543.347,-428.571 562.263,-430.525"/>
<polygon fill="midnightblue" stroke="midnightblue" points="562.08,-434.024 572.386,-431.57 562.799,-427.061 562.08,-434.024"/>
</g>
<!-- Node37 -->
<g id="node37" class="node"><title>Node37</title>
<g id="a_node37"><a xlink:href="../../d3/dff/class_cell_society.html#ab9e56a2a70e210e021b51e898508329b" target="_top" xlink:title="CellSociety.setupAnimation">
<polygon fill="white" stroke="black" points="582,-506.5 582,-525.5 728,-525.5 728,-506.5 582,-506.5"/>
<text text-anchor="middle" x="655" y="-513.5" font-family="Helvetica,sans-Serif" font-size="10.00">CellSociety.setupAnimation</text>
</a>
</g>
</g>
<!-- Node20&#45;&gt;Node37 -->
<g id="edge44" class="edge"><title>Node20&#45;&gt;Node37</title>
<path fill="none" stroke="midnightblue" d="M463.693,-427.533C481.439,-435.499 506.318,-447.815 526,-462 544.104,-475.047 542.284,-486.547 562,-497 566.478,-499.374 571.225,-501.452 576.109,-503.27"/>
<polygon fill="midnightblue" stroke="midnightblue" points="575.043,-506.604 585.636,-506.457 577.263,-499.966 575.043,-506.604"/>
</g>
<!-- Node39 -->
<g id="node39" class="node"><title>Node39</title>
<g id="a_node39"><a xlink:href="../../df/df8/class_cell_society_view.html#a068f17fd6777087a8debf1f67b576836" target="_top" xlink:title="CellSocietyView.setupInitialGrid">
<polygon fill="white" stroke="black" points="573,-304.5 573,-323.5 737,-323.5 737,-304.5 573,-304.5"/>
<text text-anchor="middle" x="655" y="-311.5" font-family="Helvetica,sans-Serif" font-size="10.00">CellSocietyView.setupInitialGrid</text>
</a>
</g>
</g>
<!-- Node20&#45;&gt;Node39 -->
<g id="edge47" class="edge"><title>Node20&#45;&gt;Node39</title>
<path fill="none" stroke="midnightblue" d="M506.083,-408.51C513.184,-405.817 520.001,-402.381 526,-398 551.115,-379.66 537.108,-356.641 562,-338 567.814,-333.646 574.346,-330.08 581.18,-327.16"/>
<polygon fill="midnightblue" stroke="midnightblue" points="582.54,-330.387 590.645,-323.564 580.053,-323.844 582.54,-330.387"/>
</g>
<!-- Node42 -->
<g id="node42" class="node"><title>Node42</title>
<g id="a_node42"><a xlink:href="../../df/df8/class_cell_society_view.html#a99eb733c00ed7c1bcba8f2d684791a09" target="_top" xlink:title="CellSocietyView.displayFrameRate">
<polygon fill="white" stroke="black" points="784,-468.5 784,-487.5 962,-487.5 962,-468.5 784,-468.5"/>
<text text-anchor="middle" x="873" y="-475.5" font-family="Helvetica,sans-Serif" font-size="10.00">CellSocietyView.displayFrameRate</text>
</a>
</g>
</g>
<!-- Node20&#45;&gt;Node42 -->
<g id="edge51" class="edge"><title>Node20&#45;&gt;Node42</title>
<path fill="none" stroke="midnightblue" d="M496.022,-408.411C506.229,-405.699 516.622,-402.281 526,-398 543.954,-389.803 543.221,-378.072 562,-372 640.657,-346.566 679.273,-326.061 748,-372 782.79,-395.255 751.875,-432.185 784,-459 785.995,-460.665 788.102,-462.194 790.298,-463.598"/>
<polygon fill="midnightblue" stroke="midnightblue" points="788.703,-466.714 799.161,-468.411 792.044,-460.563 788.703,-466.714"/>
</g>
<!-- Node43 -->
<g id="node43" class="node"><title>Node43</title>
<g id="a_node43"><a xlink:href="../../df/df8/class_cell_society_view.html#a930d889b8619ae93731b8542ce285180" target="_top" xlink:title="CellSocietyView.generate\lChartLines">
<polygon fill="white" stroke="black" points="586.5,-381 586.5,-411 723.5,-411 723.5,-381 586.5,-381"/>
<text text-anchor="start" x="594.5" y="-399" font-family="Helvetica,sans-Serif" font-size="10.00">CellSocietyView.generate</text>
<text text-anchor="middle" x="655" y="-388" font-family="Helvetica,sans-Serif" font-size="10.00">ChartLines</text>
</a>
</g>
</g>
<!-- Node20&#45;&gt;Node43 -->
<g id="edge53" class="edge"><title>Node20&#45;&gt;Node43</title>
<path fill="none" stroke="midnightblue" d="M506.064,-411.28C528.231,-408.99 553.236,-406.408 576.293,-404.026"/>
<polygon fill="midnightblue" stroke="midnightblue" points="576.799,-407.493 586.386,-402.984 576.079,-400.53 576.799,-407.493"/>
</g>
<!-- Node23 -->
<g id="node23" class="node"><title>Node23</title>
<g id="a_node23"><a xlink:href="../../d2/d95/class_x_m_l_parser.html#ae67767f9678fb650ac38b1321ea9f723" target="_top" xlink:title="XMLParser.parseInitialTags">
<polygon fill="white" stroke="black" points="802.5,-19.5 802.5,-38.5 943.5,-38.5 943.5,-19.5 802.5,-19.5"/>
<text text-anchor="middle" x="873" y="-26.5" font-family="Helvetica,sans-Serif" font-size="10.00">XMLParser.parseInitialTags</text>
</a>
</g>
</g>
<!-- Node22&#45;&gt;Node23 -->
<g id="edge25" class="edge"><title>Node22&#45;&gt;Node23</title>
<path fill="none" stroke="midnightblue" d="M720.222,-29C742.855,-29 768.576,-29 792.329,-29"/>
<polygon fill="midnightblue" stroke="midnightblue" points="792.374,-32.5001 802.374,-29 792.374,-25.5001 792.374,-32.5001"/>
</g>
<!-- Node24 -->
<g id="node24" class="node"><title>Node24</title>
<g id="a_node24"><a xlink:href="../../d2/d95/class_x_m_l_parser.html#a09c6848239104ae94825c045796dddd0" target="_top" xlink:title="XMLParser.makeParamMap">
<polygon fill="white" stroke="black" points="1005,-38.5 1005,-57.5 1151,-57.5 1151,-38.5 1005,-38.5"/>
<text text-anchor="middle" x="1078" y="-45.5" font-family="Helvetica,sans-Serif" font-size="10.00">XMLParser.makeParamMap</text>
</a>
</g>
</g>
<!-- Node23&#45;&gt;Node24 -->
<g id="edge26" class="edge"><title>Node23&#45;&gt;Node24</title>
<path fill="none" stroke="midnightblue" d="M943.577,-35.5121C959.925,-37.0423 977.504,-38.6875 994.362,-40.2654"/>
<polygon fill="midnightblue" stroke="midnightblue" points="994.466,-43.7904 1004.75,-41.2376 995.118,-36.8208 994.466,-43.7904"/>
</g>
<!-- Node25 -->
<g id="node25" class="node"><title>Node25</title>
<g id="a_node25"><a xlink:href="../../d2/d95/class_x_m_l_parser.html#a5a419f71699eb7d3d76ee238fb262a5f" target="_top" xlink:title="XMLParser.makeCellParamList">
<polygon fill="white" stroke="black" points="998,-0.5 998,-19.5 1158,-19.5 1158,-0.5 998,-0.5"/>
<text text-anchor="middle" x="1078" y="-7.5" font-family="Helvetica,sans-Serif" font-size="10.00">XMLParser.makeCellParamList</text>
</a>
</g>
</g>
<!-- Node23&#45;&gt;Node25 -->
<g id="edge27" class="edge"><title>Node23&#45;&gt;Node25</title>
<path fill="none" stroke="midnightblue" d="M943.577,-22.4879C957.752,-21.1612 972.851,-19.7479 987.604,-18.3671"/>
<polygon fill="midnightblue" stroke="midnightblue" points="988.117,-21.8345 997.747,-17.4177 987.465,-14.8649 988.117,-21.8345"/>
</g>
<!-- Node26&#45;&gt;Node27 -->
<g id="edge29" class="edge"><title>Node26&#45;&gt;Node27</title>
<path fill="none" stroke="midnightblue" d="M732.762,-111.752C750.769,-113.336 770.043,-115.032 788.335,-116.641"/>
<polygon fill="midnightblue" stroke="midnightblue" points="788.114,-120.135 798.382,-117.524 788.728,-113.161 788.114,-120.135"/>
</g>
<!-- Node28 -->
<g id="node28" class="node"><title>Node28</title>
<g id="a_node28"><a xlink:href="../../d2/d95/class_x_m_l_parser.html#a0df3a2904766f59d1246cb55416f8146" target="_top" xlink:title="XMLParser.getSimParamMap">
<polygon fill="white" stroke="black" points="796,-76.5 796,-95.5 950,-95.5 950,-76.5 796,-76.5"/>
<text text-anchor="middle" x="873" y="-83.5" font-family="Helvetica,sans-Serif" font-size="10.00">XMLParser.getSimParamMap</text>
</a>
</g>
</g>
<!-- Node26&#45;&gt;Node28 -->
<g id="edge30" class="edge"><title>Node26&#45;&gt;Node28</title>
<path fill="none" stroke="midnightblue" d="M732.762,-98.2478C749.892,-96.7409 768.17,-95.1332 785.658,-93.5949"/>
<polygon fill="midnightblue" stroke="midnightblue" points="786.194,-97.0614 795.849,-92.6985 785.581,-90.0883 786.194,-97.0614"/>
</g>
<!-- Node30&#45;&gt;Node12 -->
<g id="edge35" class="edge"><title>Node30&#45;&gt;Node12</title>
<path fill="none" stroke="midnightblue" d="M720.626,-247.58C730.25,-250.64 739.708,-254.677 748,-260 769.846,-274.025 760.994,-293.971 784,-306 810.265,-319.733 1209.3,-335.651 1386.41,-342.083"/>
<polygon fill="midnightblue" stroke="midnightblue" points="1386.34,-345.583 1396.46,-342.447 1386.6,-338.587 1386.34,-345.583"/>
</g>
<!-- Node30&#45;&gt;Node27 -->
<g id="edge34" class="edge"><title>Node30&#45;&gt;Node27</title>
<path fill="none" stroke="midnightblue" d="M674.045,-228.477C712.003,-208.443 800.287,-161.848 845.007,-138.246"/>
<polygon fill="midnightblue" stroke="midnightblue" points="846.645,-141.34 853.855,-133.577 843.377,-135.149 846.645,-141.34"/>
</g>
<!-- Node31 -->
<g id="node31" class="node"><title>Node31</title>
<g id="a_node31"><a xlink:href="../../d3/dff/class_cell_society.html#a276d7f4c12da9d40e8720f762b47592a" target="_top" xlink:title="CellSociety.populateProbabilities">
<polygon fill="white" stroke="black" points="788,-228.5 788,-247.5 958,-247.5 958,-228.5 788,-228.5"/>
<text text-anchor="middle" x="873" y="-235.5" font-family="Helvetica,sans-Serif" font-size="10.00">CellSociety.populateProbabilities</text>
</a>
</g>
</g>
<!-- Node30&#45;&gt;Node31 -->
<g id="edge36" class="edge"><title>Node30&#45;&gt;Node31</title>
<path fill="none" stroke="midnightblue" d="M727.026,-238C743.114,-238 760.448,-238 777.339,-238"/>
<polygon fill="midnightblue" stroke="midnightblue" points="777.784,-241.5 787.784,-238 777.784,-234.5 777.784,-241.5"/>
</g>
<!-- Node33 -->
<g id="node33" class="node"><title>Node33</title>
<g id="a_node33"><a xlink:href="../../d3/dff/class_cell_society.html#a5c0b747b2fbaaa317266890c48e0267f" target="_top" xlink:title="CellSociety.populateLocations">
<polygon fill="white" stroke="black" points="794,-190.5 794,-209.5 952,-209.5 952,-190.5 794,-190.5"/>
<text text-anchor="middle" x="873" y="-197.5" font-family="Helvetica,sans-Serif" font-size="10.00">CellSociety.populateLocations</text>
</a>
</g>
</g>
<!-- Node30&#45;&gt;Node33 -->
<g id="edge38" class="edge"><title>Node30&#45;&gt;Node33</title>
<path fill="none" stroke="midnightblue" d="M710.227,-228.46C739.884,-223.243 776.804,-216.747 807.882,-211.28"/>
<polygon fill="midnightblue" stroke="midnightblue" points="808.508,-214.724 817.751,-209.544 807.295,-207.83 808.508,-214.724"/>
</g>
<!-- Node35 -->
<g id="node35" class="node"><title>Node35</title>
<g id="a_node35"><a xlink:href="../../d3/dff/class_cell_society.html#a7ef59819b70a8f07c010bd2bb28b7740" target="_top" xlink:title="CellSociety.populateRemaining\lState">
<polygon fill="white" stroke="black" points="792,-267 792,-297 954,-297 954,-267 792,-267"/>
<text text-anchor="start" x="800" y="-285" font-family="Helvetica,sans-Serif" font-size="10.00">CellSociety.populateRemaining</text>
<text text-anchor="middle" x="873" y="-274" font-family="Helvetica,sans-Serif" font-size="10.00">State</text>
</a>
</g>
</g>
<!-- Node30&#45;&gt;Node35 -->
<g id="edge41" class="edge"><title>Node30&#45;&gt;Node35</title>
<path fill="none" stroke="midnightblue" d="M702.869,-247.547C727.731,-252.612 759.037,-258.989 787.936,-264.876"/>
<polygon fill="midnightblue" stroke="midnightblue" points="787.545,-268.368 798.043,-266.935 788.943,-261.509 787.545,-268.368"/>
</g>
<!-- Node32 -->
<g id="node32" class="node"><title>Node32</title>
<g id="a_node32"><a xlink:href="../../d3/dff/class_cell_society.html#a117f1698760a3f6bbe51bd7af16f79bb" target="_top" xlink:title="CellSociety.createCellInstance">
<polygon fill="white" stroke="black" points="998.5,-228.5 998.5,-247.5 1157.5,-247.5 1157.5,-228.5 998.5,-228.5"/>
<text text-anchor="middle" x="1078" y="-235.5" font-family="Helvetica,sans-Serif" font-size="10.00">CellSociety.createCellInstance</text>
</a>
</g>
</g>
<!-- Node31&#45;&gt;Node32 -->
<g id="edge37" class="edge"><title>Node31&#45;&gt;Node32</title>
<path fill="none" stroke="midnightblue" d="M958.033,-238C967.91,-238 978.014,-238 987.956,-238"/>
<polygon fill="midnightblue" stroke="midnightblue" points="988.241,-241.5 998.241,-238 988.241,-234.5 988.241,-241.5"/>
</g>
<!-- Node33&#45;&gt;Node32 -->
<g id="edge40" class="edge"><title>Node33&#45;&gt;Node32</title>
<path fill="none" stroke="midnightblue" d="M924.963,-209.54C952.594,-214.712 986.933,-221.14 1015.98,-226.578"/>
<polygon fill="midnightblue" stroke="midnightblue" points="1015.54,-230.056 1026.02,-228.456 1016.83,-223.176 1015.54,-230.056"/>
</g>
<!-- Node34 -->
<g id="node34" class="node"><title>Node34</title>
<g id="a_node34"><a xlink:href="../../d3/dff/class_cell_society.html#a42451b17e2bca5fd025c8d4ea74310ca" target="_top" xlink:title="CellSociety.stringToIntArray">
<polygon fill="white" stroke="black" points="1005.5,-190.5 1005.5,-209.5 1150.5,-209.5 1150.5,-190.5 1005.5,-190.5"/>
<text text-anchor="middle" x="1078" y="-197.5" font-family="Helvetica,sans-Serif" font-size="10.00">CellSociety.stringToIntArray</text>
</a>
</g>
</g>
<!-- Node33&#45;&gt;Node34 -->
<g id="edge39" class="edge"><title>Node33&#45;&gt;Node34</title>
<path fill="none" stroke="midnightblue" d="M952.195,-200C966.305,-200 981.051,-200 995.26,-200"/>
<polygon fill="midnightblue" stroke="midnightblue" points="995.494,-203.5 1005.49,-200 995.494,-196.5 995.494,-203.5"/>
</g>
<!-- Node35&#45;&gt;Node32 -->
<g id="edge42" class="edge"><title>Node35&#45;&gt;Node32</title>
<path fill="none" stroke="midnightblue" d="M943.293,-266.981C969.439,-261.314 998.766,-254.957 1023.28,-249.644"/>
<polygon fill="midnightblue" stroke="midnightblue" points="1024.08,-253.051 1033.11,-247.512 1022.6,-246.21 1024.08,-253.051"/>
</g>
<!-- Node38 -->
<g id="node38" class="node"><title>Node38</title>
<g id="a_node38"><a xlink:href="../../d3/dff/class_cell_society.html#abf13a64ee79f2cb063447b499c695c58" target="_top" xlink:title="CellSociety.start">
<polygon fill="white" stroke="black" points="826.5,-506.5 826.5,-525.5 919.5,-525.5 919.5,-506.5 826.5,-506.5"/>
<text text-anchor="middle" x="873" y="-513.5" font-family="Helvetica,sans-Serif" font-size="10.00">CellSociety.start</text>
</a>
</g>
</g>
<!-- Node37&#45;&gt;Node38 -->
<g id="edge45" class="edge"><title>Node37&#45;&gt;Node38</title>
<path fill="none" stroke="midnightblue" d="M728.225,-516C756.808,-516 789.161,-516 815.928,-516"/>
<polygon fill="midnightblue" stroke="midnightblue" points="816.27,-519.5 826.27,-516 816.27,-512.5 816.27,-519.5"/>
</g>
<!-- Node38&#45;&gt;Node9 -->
<g id="edge46" class="edge"><title>Node38&#45;&gt;Node9</title>
<path fill="none" stroke="midnightblue" d="M919.557,-510.165C944.967,-506.911 977.18,-502.785 1005.84,-499.114"/>
<polygon fill="midnightblue" stroke="midnightblue" points="1006.34,-502.579 1015.81,-497.837 1005.45,-495.636 1006.34,-502.579"/>
</g>
<!-- Node40 -->
<g id="node40" class="node"><title>Node40</title>
<g id="a_node40"><a xlink:href="../../da/d74/class_grid.html#a1febd1c7daf70dbedc9ca16a3c8099db" target="_top" xlink:title="Grid.getGrid">
<polygon fill="white" stroke="black" points="836,-392.5 836,-411.5 910,-411.5 910,-392.5 836,-392.5"/>
<text text-anchor="middle" x="873" y="-399.5" font-family="Helvetica,sans-Serif" font-size="10.00">Grid.getGrid</text>
</a>
</g>
</g>
<!-- Node39&#45;&gt;Node40 -->
<g id="edge48" class="edge"><title>Node39&#45;&gt;Node40</title>
<path fill="none" stroke="midnightblue" d="M713.559,-323.516C725.475,-326.967 737.565,-331.651 748,-338 768.433,-350.432 763.636,-365.455 784,-378 796.585,-385.753 811.693,-391.043 825.809,-394.635"/>
<polygon fill="midnightblue" stroke="midnightblue" points="825.332,-398.117 835.863,-396.962 826.91,-391.297 825.332,-398.117"/>
</g>
<!-- Node41 -->
<g id="node41" class="node"><title>Node41</title>
<g id="a_node41"><a xlink:href="../../d4/d92/class_grid_factory.html#a3c5221912f2534ff2cf8cacb935e7fc9" target="_top" xlink:title="GridFactory.createGrid">
<polygon fill="white" stroke="black" points="812,-430.5 812,-449.5 934,-449.5 934,-430.5 812,-430.5"/>
<text text-anchor="middle" x="873" y="-437.5" font-family="Helvetica,sans-Serif" font-size="10.00">GridFactory.createGrid</text>
</a>
</g>
</g>
<!-- Node39&#45;&gt;Node41 -->
<g id="edge49" class="edge"><title>Node39&#45;&gt;Node41</title>
<path fill="none" stroke="midnightblue" d="M722.453,-323.507C731.73,-326.974 740.604,-331.664 748,-338 778.536,-364.16 752.915,-395.495 784,-421 789.358,-425.396 795.5,-428.84 801.994,-431.528"/>
<polygon fill="midnightblue" stroke="midnightblue" points="801.115,-434.929 811.71,-434.95 803.441,-428.327 801.115,-434.929"/>
</g>
<!-- Node46 -->
<g id="node46" class="node"><title>Node46</title>
<g id="a_node46"><a xlink:href="../../d3/dff/class_cell_society.html#adc5feda3db5472cea4e092d463681033" target="_top" xlink:title="CellSociety.reframeTimeline">
<polygon fill="white" stroke="black" points="580.5,-544.5 580.5,-563.5 729.5,-563.5 729.5,-544.5 580.5,-544.5"/>
<text text-anchor="middle" x="655" y="-551.5" font-family="Helvetica,sans-Serif" font-size="10.00">CellSociety.reframeTimeline</text>
</a>
</g>
</g>
<!-- Node45&#45;&gt;Node46 -->
<g id="edge57" class="edge"><title>Node45&#45;&gt;Node46</title>
<path fill="none" stroke="midnightblue" d="M521.526,-544.049C537.375,-545.239 554.041,-546.491 570.001,-547.69"/>
<polygon fill="midnightblue" stroke="midnightblue" points="570.137,-551.21 580.371,-548.469 570.662,-544.23 570.137,-551.21"/>
</g>
<!-- Node46&#45;&gt;Node38 -->
<g id="edge59" class="edge"><title>Node46&#45;&gt;Node38</title>
<path fill="none" stroke="midnightblue" d="M710.227,-544.46C742.478,-538.786 783.317,-531.602 815.893,-525.871"/>
<polygon fill="midnightblue" stroke="midnightblue" points="816.916,-529.245 826.158,-524.065 815.703,-522.35 816.916,-529.245"/>
</g>
<!-- Node46&#45;&gt;Node42 -->
<g id="edge58" class="edge"><title>Node46&#45;&gt;Node42</title>
<path fill="none" stroke="midnightblue" d="M725.483,-544.447C733.338,-541.983 741.018,-538.888 748,-535 768.326,-523.683 763.725,-508.409 784,-497 788.016,-494.74 792.275,-492.749 796.666,-490.994"/>
<polygon fill="midnightblue" stroke="midnightblue" points="798.199,-494.164 806.45,-487.518 795.856,-487.568 798.199,-494.164"/>
</g>
<!-- Node48&#45;&gt;Node46 -->
<g id="edge62" class="edge"><title>Node48&#45;&gt;Node46</title>
<path fill="none" stroke="midnightblue" d="M462.493,-490.609C497.091,-506.075 561.36,-534.794 562,-535 570.346,-537.689 579.245,-540.087 588.095,-542.197"/>
<polygon fill="midnightblue" stroke="midnightblue" points="587.509,-545.653 598.036,-544.457 589.061,-538.827 587.509,-545.653"/>
</g>
</g>
</svg>
