<?xml version="1.0" encoding="UTF-8" standalone="no"?>
<!DOCTYPE svg PUBLIC "-//W3C//DTD SVG 1.1//EN"
 "http://www.w3.org/Graphics/SVG/1.1/DTD/svg11.dtd">
<!-- Generated by graphviz version 2.36.0 (20140111.2315)
 -->
<!-- Title: CellSociety.reframeTimeline Pages: 1 -->
<svg width="854pt" height="153pt"
 viewBox="0.00 0.00 854.00 153.00" xmlns="http://www.w3.org/2000/svg" xmlns:xlink="http://www.w3.org/1999/xlink">
<g id="graph0" class="graph" transform="scale(1 1) rotate(0) translate(4 149)">
<title>CellSociety.reframeTimeline</title>
<polygon fill="white" stroke="none" points="-4,4 -4,-149 850,-149 850,4 -4,4"/>
<!-- Node1 -->
<g id="node1" class="node"><title>Node1</title>
<polygon fill="#bfbfbf" stroke="black" points="0.5,-87.5 0.5,-106.5 149.5,-106.5 149.5,-87.5 0.5,-87.5"/>
<text text-anchor="middle" x="75" y="-94.5" font-family="Helvetica,sans-Serif" font-size="10.00">CellSociety.reframeTimeline</text>
</g>
<!-- Node2 -->
<g id="node2" class="node"><title>Node2</title>
<g id="a_node2"><a xlink:href="../../df/df8/class_cell_society_view.html#a99eb733c00ed7c1bcba8f2d684791a09" target="_top" xlink:title="CellSocietyView.displayFrameRate">
<polygon fill="white" stroke="black" points="186,-106.5 186,-125.5 364,-125.5 364,-106.5 186,-106.5"/>
<text text-anchor="middle" x="275" y="-113.5" font-family="Helvetica,sans-Serif" font-size="10.00">CellSocietyView.displayFrameRate</text>
</a>
</g>
</g>
<!-- Node1&#45;&gt;Node2 -->
<g id="edge1" class="edge"><title>Node1&#45;&gt;Node2</title>
<path fill="none" stroke="midnightblue" d="M149.728,-104.075C158.184,-104.886 166.903,-105.723 175.616,-106.559"/>
<polygon fill="midnightblue" stroke="midnightblue" points="175.537,-110.068 185.825,-107.539 176.206,-103.1 175.537,-110.068"/>
</g>
<!-- Node3 -->
<g id="node3" class="node"><title>Node3</title>
<g id="a_node3"><a xlink:href="../../d3/dff/class_cell_society.html#abf13a64ee79f2cb063447b499c695c58" target="_top" xlink:title="CellSociety.start">
<polygon fill="white" stroke="black" points="228.5,-68.5 228.5,-87.5 321.5,-87.5 321.5,-68.5 228.5,-68.5"/>
<text text-anchor="middle" x="275" y="-75.5" font-family="Helvetica,sans-Serif" font-size="10.00">CellSociety.start</text>
</a>
</g>
</g>
<!-- Node1&#45;&gt;Node3 -->
<g id="edge2" class="edge"><title>Node1&#45;&gt;Node3</title>
<path fill="none" stroke="midnightblue" d="M149.728,-89.9251C172.405,-87.749 196.978,-85.391 218.24,-83.3507"/>
<polygon fill="midnightblue" stroke="midnightblue" points="218.768,-86.8162 228.388,-82.3769 218.1,-79.8482 218.768,-86.8162"/>
</g>
<!-- Node4 -->
<g id="node4" class="node"><title>Node4</title>
<g id="a_node4"><a xlink:href="../../d3/dff/class_cell_society.html#a0ff19c30a1cc433d8ea8444f6a5617f1" target="_top" xlink:title="CellSociety.updateGrid">
<polygon fill="white" stroke="black" points="400,-68.5 400,-87.5 524,-87.5 524,-68.5 400,-68.5"/>
<text text-anchor="middle" x="462" y="-75.5" font-family="Helvetica,sans-Serif" font-size="10.00">CellSociety.updateGrid</text>
</a>
</g>
</g>
<!-- Node3&#45;&gt;Node4 -->
<g id="edge3" class="edge"><title>Node3&#45;&gt;Node4</title>
<path fill="none" stroke="midnightblue" d="M321.73,-78C342.236,-78 366.903,-78 389.743,-78"/>
<polygon fill="midnightblue" stroke="midnightblue" points="389.743,-81.5001 399.743,-78 389.743,-74.5001 389.743,-81.5001"/>
</g>
<!-- Node5 -->
<g id="node5" class="node"><title>Node5</title>
<g id="a_node5"><a xlink:href="../../d8/d87/class_controller.html#aa8f10b5f28542d34053a7e4d5f1d6013" target="_top" xlink:title="Controller.runOneSim">
<polygon fill="white" stroke="black" points="583.5,-125.5 583.5,-144.5 702.5,-144.5 702.5,-125.5 583.5,-125.5"/>
<text text-anchor="middle" x="643" y="-132.5" font-family="Helvetica,sans-Serif" font-size="10.00">Controller.runOneSim</text>
</a>
</g>
</g>
<!-- Node4&#45;&gt;Node5 -->
<g id="edge4" class="edge"><title>Node4&#45;&gt;Node5</title>
<path fill="none" stroke="midnightblue" d="M484.635,-87.5261C504.083,-95.8348 533.568,-107.808 560,-116 568.126,-118.519 576.797,-120.874 585.345,-123.011"/>
<polygon fill="midnightblue" stroke="midnightblue" points="584.74,-126.465 595.283,-125.415 586.386,-119.662 584.74,-126.465"/>
</g>
<!-- Node6 -->
<g id="node6" class="node"><title>Node6</title>
<g id="a_node6"><a xlink:href="../../df/df8/class_cell_society_view.html#a43ac2666d3a002024be53fe74028a576" target="_top" xlink:title="CellSocietyView.updateSimGrid">
<polygon fill="white" stroke="black" points="560.5,-87.5 560.5,-106.5 725.5,-106.5 725.5,-87.5 560.5,-87.5"/>
<text text-anchor="middle" x="643" y="-94.5" font-family="Helvetica,sans-Serif" font-size="10.00">CellSocietyView.updateSimGrid</text>
</a>
</g>
</g>
<!-- Node4&#45;&gt;Node6 -->
<g id="edge5" class="edge"><title>Node4&#45;&gt;Node6</title>
<path fill="none" stroke="midnightblue" d="M524.101,-84.4856C532.563,-85.3838 541.404,-86.3222 550.273,-87.2636"/>
<polygon fill="midnightblue" stroke="midnightblue" points="549.967,-90.7507 560.281,-88.3259 550.706,-83.7898 549.967,-90.7507"/>
</g>
<!-- Node8 -->
<g id="node8" class="node"><title>Node8</title>
<g id="a_node8"><a xlink:href="../../d2/d95/class_x_m_l_parser.html#ac4e3257aed1deb9fe950149f706fce5b" target="_top" xlink:title="XMLParser.getCellParamList">
<polygon fill="white" stroke="black" points="568.5,-49.5 568.5,-68.5 717.5,-68.5 717.5,-49.5 568.5,-49.5"/>
<text text-anchor="middle" x="643" y="-56.5" font-family="Helvetica,sans-Serif" font-size="10.00">XMLParser.getCellParamList</text>
</a>
</g>
</g>
<!-- Node4&#45;&gt;Node8 -->
<g id="edge7" class="edge"><title>Node4&#45;&gt;Node8</title>
<path fill="none" stroke="midnightblue" d="M524.101,-71.5144C535.146,-70.342 546.835,-69.1013 558.392,-67.8746"/>
<polygon fill="midnightblue" stroke="midnightblue" points="558.92,-71.3383 568.495,-66.8022 558.181,-64.3774 558.92,-71.3383"/>
</g>
<!-- Node9 -->
<g id="node9" class="node"><title>Node9</title>
<g id="a_node9"><a xlink:href="../../df/df8/class_cell_society_view.html#a7ca77bdfdef97e9be9c9941c2f4d3513" target="_top" xlink:title="CellSocietyView.updateChart\lLines">
<polygon fill="white" stroke="black" points="566.5,-0 566.5,-30 719.5,-30 719.5,-0 566.5,-0"/>
<text text-anchor="start" x="574.5" y="-18" font-family="Helvetica,sans-Serif" font-size="10.00">CellSocietyView.updateChart</text>
<text text-anchor="middle" x="643" y="-7" font-family="Helvetica,sans-Serif" font-size="10.00">Lines</text>
</a>
</g>
</g>
<!-- Node4&#45;&gt;Node9 -->
<g id="edge8" class="edge"><title>Node4&#45;&gt;Node9</title>
<path fill="none" stroke="midnightblue" d="M485.939,-68.4332C505.477,-60.4252 534.375,-48.9104 560,-40 566.517,-37.7339 573.363,-35.4686 580.204,-33.2783"/>
<polygon fill="midnightblue" stroke="midnightblue" points="581.702,-36.4762 590.187,-30.1314 579.597,-29.8 581.702,-36.4762"/>
</g>
<!-- Node7 -->
<g id="node7" class="node"><title>Node7</title>
<g id="a_node7"><a xlink:href="../../dd/d11/class_cell.html#a1e0ece61fecc69a9b7986d17d925434a" target="_top" xlink:title="Cell.getShape">
<polygon fill="white" stroke="black" points="762.5,-87.5 762.5,-106.5 845.5,-106.5 845.5,-87.5 762.5,-87.5"/>
<text text-anchor="middle" x="804" y="-94.5" font-family="Helvetica,sans-Serif" font-size="10.00">Cell.getShape</text>
</a>
</g>
</g>
<!-- Node6&#45;&gt;Node7 -->
<g id="edge6" class="edge"><title>Node6&#45;&gt;Node7</title>
<path fill="none" stroke="midnightblue" d="M725.829,-97C734.809,-97 743.749,-97 752.191,-97"/>
<polygon fill="midnightblue" stroke="midnightblue" points="752.21,-100.5 762.21,-97 752.21,-93.5001 752.21,-100.5"/>
</g>
</g>
</svg>
