<?xml version="1.0" encoding="UTF-8" standalone="no"?>
<!DOCTYPE svg PUBLIC "-//W3C//DTD SVG 1.1//EN"
 "http://www.w3.org/Graphics/SVG/1.1/DTD/svg11.dtd">
<!-- Generated by graphviz version 2.36.0 (20140111.2315)
 -->
<!-- Title: CellSociety.decreaseFrameRate Pages: 1 -->
<svg width="1058pt" height="153pt"
 viewBox="0.00 0.00 1058.00 153.00" xmlns="http://www.w3.org/2000/svg" xmlns:xlink="http://www.w3.org/1999/xlink">
<g id="graph0" class="graph" transform="scale(1 1) rotate(0) translate(4 149)">
<title>CellSociety.decreaseFrameRate</title>
<polygon fill="white" stroke="none" points="-4,4 -4,-149 1054,-149 1054,4 -4,4"/>
<!-- Node1 -->
<g id="node1" class="node"><title>Node1</title>
<polygon fill="#bfbfbf" stroke="black" points="0.5,-87.5 0.5,-106.5 167.5,-106.5 167.5,-87.5 0.5,-87.5"/>
<text text-anchor="middle" x="84" y="-94.5" font-family="Helvetica,sans-Serif" font-size="10.00">CellSociety.decreaseFrameRate</text>
</g>
<!-- Node2 -->
<g id="node2" class="node"><title>Node2</title>
<g id="a_node2"><a xlink:href="../../d3/dff/class_cell_society.html#adc5feda3db5472cea4e092d463681033" target="_top" xlink:title="CellSociety.reframeTimeline">
<polygon fill="white" stroke="black" points="204.5,-87.5 204.5,-106.5 353.5,-106.5 353.5,-87.5 204.5,-87.5"/>
<text text-anchor="middle" x="279" y="-94.5" font-family="Helvetica,sans-Serif" font-size="10.00">CellSociety.reframeTimeline</text>
</a>
</g>
</g>
<!-- Node1&#45;&gt;Node2 -->
<g id="edge1" class="edge"><title>Node1&#45;&gt;Node2</title>
<path fill="none" stroke="midnightblue" d="M167.689,-97C176.44,-97 185.346,-97 194.11,-97"/>
<polygon fill="midnightblue" stroke="midnightblue" points="194.316,-100.5 204.316,-97 194.316,-93.5001 194.316,-100.5"/>
</g>
<!-- Node3 -->
<g id="node3" class="node"><title>Node3</title>
<g id="a_node3"><a xlink:href="../../df/df8/class_cell_society_view.html#a99eb733c00ed7c1bcba8f2d684791a09" target="_top" xlink:title="CellSocietyView.displayFrameRate">
<polygon fill="white" stroke="black" points="390,-106.5 390,-125.5 568,-125.5 568,-106.5 390,-106.5"/>
<text text-anchor="middle" x="479" y="-113.5" font-family="Helvetica,sans-Serif" font-size="10.00">CellSocietyView.displayFrameRate</text>
</a>
</g>
</g>
<!-- Node2&#45;&gt;Node3 -->
<g id="edge2" class="edge"><title>Node2&#45;&gt;Node3</title>
<path fill="none" stroke="midnightblue" d="M353.728,-104.075C362.184,-104.886 370.903,-105.723 379.616,-106.559"/>
<polygon fill="midnightblue" stroke="midnightblue" points="379.537,-110.068 389.825,-107.539 380.206,-103.1 379.537,-110.068"/>
</g>
<!-- Node4 -->
<g id="node4" class="node"><title>Node4</title>
<g id="a_node4"><a xlink:href="../../d3/dff/class_cell_society.html#abf13a64ee79f2cb063447b499c695c58" target="_top" xlink:title="CellSociety.start">
<polygon fill="white" stroke="black" points="432.5,-68.5 432.5,-87.5 525.5,-87.5 525.5,-68.5 432.5,-68.5"/>
<text text-anchor="middle" x="479" y="-75.5" font-family="Helvetica,sans-Serif" font-size="10.00">CellSociety.start</text>
</a>
</g>
</g>
<!-- Node2&#45;&gt;Node4 -->
<g id="edge3" class="edge"><title>Node2&#45;&gt;Node4</title>
<path fill="none" stroke="midnightblue" d="M353.728,-89.9251C376.405,-87.749 400.978,-85.391 422.24,-83.3507"/>
<polygon fill="midnightblue" stroke="midnightblue" points="422.768,-86.8162 432.388,-82.3769 422.1,-79.8482 422.768,-86.8162"/>
</g>
<!-- Node5 -->
<g id="node5" class="node"><title>Node5</title>
<g id="a_node5"><a xlink:href="../../d3/dff/class_cell_society.html#a0ff19c30a1cc433d8ea8444f6a5617f1" target="_top" xlink:title="CellSociety.updateGrid">
<polygon fill="white" stroke="black" points="604,-68.5 604,-87.5 728,-87.5 728,-68.5 604,-68.5"/>
<text text-anchor="middle" x="666" y="-75.5" font-family="Helvetica,sans-Serif" font-size="10.00">CellSociety.updateGrid</text>
</a>
</g>
</g>
<!-- Node4&#45;&gt;Node5 -->
<g id="edge4" class="edge"><title>Node4&#45;&gt;Node5</title>
<path fill="none" stroke="midnightblue" d="M525.73,-78C546.236,-78 570.903,-78 593.743,-78"/>
<polygon fill="midnightblue" stroke="midnightblue" points="593.743,-81.5001 603.743,-78 593.743,-74.5001 593.743,-81.5001"/>
</g>
<!-- Node6 -->
<g id="node6" class="node"><title>Node6</title>
<g id="a_node6"><a xlink:href="../../d8/d87/class_controller.html#aa8f10b5f28542d34053a7e4d5f1d6013" target="_top" xlink:title="Controller.runOneSim">
<polygon fill="white" stroke="black" points="787.5,-125.5 787.5,-144.5 906.5,-144.5 906.5,-125.5 787.5,-125.5"/>
<text text-anchor="middle" x="847" y="-132.5" font-family="Helvetica,sans-Serif" font-size="10.00">Controller.runOneSim</text>
</a>
</g>
</g>
<!-- Node5&#45;&gt;Node6 -->
<g id="edge5" class="edge"><title>Node5&#45;&gt;Node6</title>
<path fill="none" stroke="midnightblue" d="M688.635,-87.5261C708.083,-95.8348 737.568,-107.808 764,-116 772.126,-118.519 780.797,-120.874 789.345,-123.011"/>
<polygon fill="midnightblue" stroke="midnightblue" points="788.74,-126.465 799.283,-125.415 790.386,-119.662 788.74,-126.465"/>
</g>
<!-- Node7 -->
<g id="node7" class="node"><title>Node7</title>
<g id="a_node7"><a xlink:href="../../df/df8/class_cell_society_view.html#a43ac2666d3a002024be53fe74028a576" target="_top" xlink:title="CellSocietyView.updateSimGrid">
<polygon fill="white" stroke="black" points="764.5,-87.5 764.5,-106.5 929.5,-106.5 929.5,-87.5 764.5,-87.5"/>
<text text-anchor="middle" x="847" y="-94.5" font-family="Helvetica,sans-Serif" font-size="10.00">CellSocietyView.updateSimGrid</text>
</a>
</g>
</g>
<!-- Node5&#45;&gt;Node7 -->
<g id="edge6" class="edge"><title>Node5&#45;&gt;Node7</title>
<path fill="none" stroke="midnightblue" d="M728.101,-84.4856C736.563,-85.3838 745.404,-86.3222 754.273,-87.2636"/>
<polygon fill="midnightblue" stroke="midnightblue" points="753.967,-90.7507 764.281,-88.3259 754.706,-83.7898 753.967,-90.7507"/>
</g>
<!-- Node9 -->
<g id="node9" class="node"><title>Node9</title>
<g id="a_node9"><a xlink:href="../../d2/d95/class_x_m_l_parser.html#ac4e3257aed1deb9fe950149f706fce5b" target="_top" xlink:title="XMLParser.getCellParamList">
<polygon fill="white" stroke="black" points="772.5,-49.5 772.5,-68.5 921.5,-68.5 921.5,-49.5 772.5,-49.5"/>
<text text-anchor="middle" x="847" y="-56.5" font-family="Helvetica,sans-Serif" font-size="10.00">XMLParser.getCellParamList</text>
</a>
</g>
</g>
<!-- Node5&#45;&gt;Node9 -->
<g id="edge8" class="edge"><title>Node5&#45;&gt;Node9</title>
<path fill="none" stroke="midnightblue" d="M728.101,-71.5144C739.146,-70.342 750.835,-69.1013 762.392,-67.8746"/>
<polygon fill="midnightblue" stroke="midnightblue" points="762.92,-71.3383 772.495,-66.8022 762.181,-64.3774 762.92,-71.3383"/>
</g>
<!-- Node10 -->
<g id="node10" class="node"><title>Node10</title>
<g id="a_node10"><a xlink:href="../../df/df8/class_cell_society_view.html#a7ca77bdfdef97e9be9c9941c2f4d3513" target="_top" xlink:title="CellSocietyView.updateChart\lLines">
<polygon fill="white" stroke="black" points="770.5,-0 770.5,-30 923.5,-30 923.5,-0 770.5,-0"/>
<text text-anchor="start" x="778.5" y="-18" font-family="Helvetica,sans-Serif" font-size="10.00">CellSocietyView.updateChart</text>
<text text-anchor="middle" x="847" y="-7" font-family="Helvetica,sans-Serif" font-size="10.00">Lines</text>
</a>
</g>
</g>
<!-- Node5&#45;&gt;Node10 -->
<g id="edge9" class="edge"><title>Node5&#45;&gt;Node10</title>
<path fill="none" stroke="midnightblue" d="M689.939,-68.4332C709.477,-60.4252 738.375,-48.9104 764,-40 770.517,-37.7339 777.363,-35.4686 784.204,-33.2783"/>
<polygon fill="midnightblue" stroke="midnightblue" points="785.702,-36.4762 794.187,-30.1314 783.597,-29.8 785.702,-36.4762"/>
</g>
<!-- Node8 -->
<g id="node8" class="node"><title>Node8</title>
<g id="a_node8"><a xlink:href="../../dd/d11/class_cell.html#a1e0ece61fecc69a9b7986d17d925434a" target="_top" xlink:title="Cell.getShape">
<polygon fill="white" stroke="black" points="966.5,-87.5 966.5,-106.5 1049.5,-106.5 1049.5,-87.5 966.5,-87.5"/>
<text text-anchor="middle" x="1008" y="-94.5" font-family="Helvetica,sans-Serif" font-size="10.00">Cell.getShape</text>
</a>
</g>
</g>
<!-- Node7&#45;&gt;Node8 -->
<g id="edge7" class="edge"><title>Node7&#45;&gt;Node8</title>
<path fill="none" stroke="midnightblue" d="M929.829,-97C938.809,-97 947.749,-97 956.191,-97"/>
<polygon fill="midnightblue" stroke="midnightblue" points="956.21,-100.5 966.21,-97 956.21,-93.5001 956.21,-100.5"/>
</g>
</g>
</svg>
