<?xml version="1.0" encoding="UTF-8" standalone="no"?>
<!DOCTYPE svg PUBLIC "-//W3C//DTD SVG 1.1//EN"
 "http://www.w3.org/Graphics/SVG/1.1/DTD/svg11.dtd">
<!-- Generated by graphviz version 2.36.0 (20140111.2315)
 -->
<!-- Title: CellSociety.configureListeners Pages: 1 -->
<svg width="1394pt" height="584pt"
 viewBox="0.00 0.00 1394.00 583.78" xmlns="http://www.w3.org/2000/svg" xmlns:xlink="http://www.w3.org/1999/xlink">
<g id="graph0" class="graph" transform="scale(1 1) rotate(0) translate(4 579.777)">
<title>CellSociety.configureListeners</title>
<polygon fill="white" stroke="none" points="-4,4 -4,-579.777 1390,-579.777 1390,4 -4,4"/>
<!-- Node1 -->
<g id="node1" class="node"><title>Node1</title>
<polygon fill="#bfbfbf" stroke="black" points="0,-288.5 0,-307.5 158,-307.5 158,-288.5 0,-288.5"/>
<text text-anchor="middle" x="79" y="-295.5" font-family="Helvetica,sans-Serif" font-size="10.00">CellSociety.configureListeners</text>
</g>
<!-- Node2 -->
<g id="node2" class="node"><title>Node2</title>
<g id="a_node2"><a xlink:href="../../d3/dff/class_cell_society.html#a045267ba1843ca4a47891d7be73c2ac1" target="_top" xlink:title="CellSociety.decreaseFrameRate">
<polygon fill="white" stroke="black" points="196.5,-491.5 196.5,-510.5 363.5,-510.5 363.5,-491.5 196.5,-491.5"/>
<text text-anchor="middle" x="280" y="-498.5" font-family="Helvetica,sans-Serif" font-size="10.00">CellSociety.decreaseFrameRate</text>
</a>
</g>
</g>
<!-- Node1&#45;&gt;Node2 -->
<g id="edge1" class="edge"><title>Node1&#45;&gt;Node2</title>
<path fill="none" stroke="midnightblue" d="M83.0856,-307.821C93.3189,-338.699 129.221,-434.521 194,-481 197.301,-483.368 200.842,-485.46 204.537,-487.307"/>
<polygon fill="midnightblue" stroke="midnightblue" points="203.422,-490.639 213.989,-491.412 206.211,-484.218 203.422,-490.639"/>
</g>
<!-- Node6 -->
<g id="node6" class="node"><title>Node6</title>
<g id="a_node6"><a xlink:href="../../d3/dff/class_cell_society.html#a0ff19c30a1cc433d8ea8444f6a5617f1" target="_top" xlink:title="CellSociety.updateGrid">
<polygon fill="white" stroke="black" points="856,-408.5 856,-427.5 980,-427.5 980,-408.5 856,-408.5"/>
<text text-anchor="middle" x="918" y="-415.5" font-family="Helvetica,sans-Serif" font-size="10.00">CellSociety.updateGrid</text>
</a>
</g>
</g>
<!-- Node1&#45;&gt;Node6 -->
<g id="edge45" class="edge"><title>Node1&#45;&gt;Node6</title>
<path fill="none" stroke="midnightblue" d="M81.4614,-307.969C87.4005,-344.402 113.389,-470.777 194,-520 431.412,-664.97 793.058,-486.456 891.504,-432.515"/>
<polygon fill="midnightblue" stroke="midnightblue" points="893.399,-435.466 900.449,-427.557 890.006,-429.344 893.399,-435.466"/>
</g>
<!-- Node13 -->
<g id="node13" class="node"><title>Node13</title>
<g id="a_node13"><a xlink:href="../../df/df8/class_cell_society_view.html#ada088eb9125561f8dd941badb141fa86" target="_top" xlink:title="CellSocietyView.getPause\lElement">
<polygon fill="white" stroke="black" points="211.5,-442 211.5,-472 348.5,-472 348.5,-442 211.5,-442"/>
<text text-anchor="start" x="219.5" y="-460" font-family="Helvetica,sans-Serif" font-size="10.00">CellSocietyView.getPause</text>
<text text-anchor="middle" x="280" y="-449" font-family="Helvetica,sans-Serif" font-size="10.00">Element</text>
</a>
</g>
</g>
<!-- Node1&#45;&gt;Node13 -->
<g id="edge12" class="edge"><title>Node1&#45;&gt;Node13</title>
<path fill="none" stroke="midnightblue" d="M85.5182,-307.775C99.9743,-332.485 141.487,-397.898 194,-432 197.153,-434.047 200.478,-435.932 203.914,-437.665"/>
<polygon fill="midnightblue" stroke="midnightblue" points="202.676,-440.947 213.227,-441.911 205.58,-434.578 202.676,-440.947"/>
</g>
<!-- Node14 -->
<g id="node14" class="node"><title>Node14</title>
<g id="a_node14"><a xlink:href="../../df/df8/class_cell_society_view.html#aae7c36ea6b5215b0ba9ee01c72dfcb94" target="_top" xlink:title="CellSocietyView.getPlayElement">
<polygon fill="white" stroke="black" points="196,-403.5 196,-422.5 364,-422.5 364,-403.5 196,-403.5"/>
<text text-anchor="middle" x="280" y="-410.5" font-family="Helvetica,sans-Serif" font-size="10.00">CellSocietyView.getPlayElement</text>
</a>
</g>
</g>
<!-- Node1&#45;&gt;Node14 -->
<g id="edge13" class="edge"><title>Node1&#45;&gt;Node14</title>
<path fill="none" stroke="midnightblue" d="M88.6768,-307.79C106.434,-327.188 149.049,-370.566 194,-393 199.697,-395.843 205.813,-398.292 212.056,-400.399"/>
<polygon fill="midnightblue" stroke="midnightblue" points="211.344,-403.842 221.931,-403.436 213.402,-397.151 211.344,-403.842"/>
</g>
<!-- Node15 -->
<g id="node15" class="node"><title>Node15</title>
<g id="a_node15"><a xlink:href="../../df/df8/class_cell_society_view.html#a0f616a01579a7293ef781d3e341ea1ac" target="_top" xlink:title="CellSocietyView.getSlowdown\lElement">
<polygon fill="white" stroke="black" points="202.5,-354 202.5,-384 357.5,-384 357.5,-354 202.5,-354"/>
<text text-anchor="start" x="210.5" y="-372" font-family="Helvetica,sans-Serif" font-size="10.00">CellSocietyView.getSlowdown</text>
<text text-anchor="middle" x="280" y="-361" font-family="Helvetica,sans-Serif" font-size="10.00">Element</text>
</a>
</g>
</g>
<!-- Node1&#45;&gt;Node15 -->
<g id="edge14" class="edge"><title>Node1&#45;&gt;Node15</title>
<path fill="none" stroke="midnightblue" d="M102.038,-307.638C124.824,-317.427 161.547,-332.71 194,-344 200.792,-346.363 207.938,-348.696 215.082,-350.932"/>
<polygon fill="midnightblue" stroke="midnightblue" points="214.202,-354.324 224.789,-353.915 216.258,-347.632 214.202,-354.324"/>
</g>
<!-- Node16 -->
<g id="node16" class="node"><title>Node16</title>
<g id="a_node16"><a xlink:href="../../df/df8/class_cell_society_view.html#a572d464cbe7d186dc9a5b0e4a8130689" target="_top" xlink:title="CellSocietyView.getSpeedup\lElement">
<polygon fill="white" stroke="black" points="204,-305 204,-335 356,-335 356,-305 204,-305"/>
<text text-anchor="start" x="212" y="-323" font-family="Helvetica,sans-Serif" font-size="10.00">CellSocietyView.getSpeedup</text>
<text text-anchor="middle" x="280" y="-312" font-family="Helvetica,sans-Serif" font-size="10.00">Element</text>
</a>
</g>
</g>
<!-- Node1&#45;&gt;Node16 -->
<g id="edge15" class="edge"><title>Node1&#45;&gt;Node16</title>
<path fill="none" stroke="midnightblue" d="M158.079,-306.632C169.701,-307.917 181.733,-309.247 193.498,-310.547"/>
<polygon fill="midnightblue" stroke="midnightblue" points="193.427,-314.061 203.751,-311.681 194.196,-307.103 193.427,-314.061"/>
</g>
<!-- Node17 -->
<g id="node17" class="node"><title>Node17</title>
<g id="a_node17"><a xlink:href="../../df/df8/class_cell_society_view.html#a3c3a7039f77d392c374cd309967ca1cc" target="_top" xlink:title="CellSocietyView.getStepElement">
<polygon fill="white" stroke="black" points="194.5,-266.5 194.5,-285.5 365.5,-285.5 365.5,-266.5 194.5,-266.5"/>
<text text-anchor="middle" x="280" y="-273.5" font-family="Helvetica,sans-Serif" font-size="10.00">CellSocietyView.getStepElement</text>
</a>
</g>
</g>
<!-- Node1&#45;&gt;Node17 -->
<g id="edge16" class="edge"><title>Node1&#45;&gt;Node17</title>
<path fill="none" stroke="midnightblue" d="M158.079,-289.368C166.61,-288.425 175.361,-287.458 184.066,-286.495"/>
<polygon fill="midnightblue" stroke="midnightblue" points="184.692,-289.947 194.247,-285.37 183.922,-282.99 184.692,-289.947"/>
</g>
<!-- Node18 -->
<g id="node18" class="node"><title>Node18</title>
<g id="a_node18"><a xlink:href="../../df/df8/class_cell_society_view.html#aebad9aaff0e9784fec1518d319e03c85" target="_top" xlink:title="CellSocietyView.getXMLElement">
<polygon fill="white" stroke="black" points="196,-228.5 196,-247.5 364,-247.5 364,-228.5 196,-228.5"/>
<text text-anchor="middle" x="280" y="-235.5" font-family="Helvetica,sans-Serif" font-size="10.00">CellSocietyView.getXMLElement</text>
</a>
</g>
</g>
<!-- Node1&#45;&gt;Node18 -->
<g id="edge17" class="edge"><title>Node1&#45;&gt;Node18</title>
<path fill="none" stroke="midnightblue" d="M103.733,-288.479C126.596,-279.542 162.288,-266.207 194,-257 202.851,-254.43 212.306,-252.007 221.576,-249.806"/>
<polygon fill="midnightblue" stroke="midnightblue" points="222.568,-253.169 231.524,-247.509 220.993,-246.349 222.568,-253.169"/>
</g>
<!-- Node19 -->
<g id="node19" class="node"><title>Node19</title>
<g id="a_node19"><a xlink:href="../../d3/dff/class_cell_society.html#a8250bfacdaf51dabf6b9d1cafc0ce9b2" target="_top" xlink:title="CellSociety.increaseFrameRate">
<polygon fill="white" stroke="black" points="198.5,-190.5 198.5,-209.5 361.5,-209.5 361.5,-190.5 198.5,-190.5"/>
<text text-anchor="middle" x="280" y="-197.5" font-family="Helvetica,sans-Serif" font-size="10.00">CellSociety.increaseFrameRate</text>
</a>
</g>
</g>
<!-- Node1&#45;&gt;Node19 -->
<g id="edge18" class="edge"><title>Node1&#45;&gt;Node19</title>
<path fill="none" stroke="midnightblue" d="M90.7728,-288.352C110.044,-271.62 152.316,-237.264 194,-219 199.726,-216.491 205.82,-214.297 212.013,-212.381"/>
<polygon fill="midnightblue" stroke="midnightblue" points="213.13,-215.702 221.788,-209.595 211.211,-208.971 213.13,-215.702"/>
</g>
<!-- Node20 -->
<g id="node20" class="node"><title>Node20</title>
<g id="a_node20"><a xlink:href="../../d3/dff/class_cell_society.html#ae565a305ea53e5a37da9816a236b4fbc" target="_top" xlink:title="CellSociety.pauseAnimation">
<polygon fill="white" stroke="black" points="420.5,-38.5 420.5,-57.5 569.5,-57.5 569.5,-38.5 420.5,-38.5"/>
<text text-anchor="middle" x="495" y="-45.5" font-family="Helvetica,sans-Serif" font-size="10.00">CellSociety.pauseAnimation</text>
</a>
</g>
</g>
<!-- Node1&#45;&gt;Node20 -->
<g id="edge20" class="edge"><title>Node1&#45;&gt;Node20</title>
<path fill="none" stroke="midnightblue" d="M84.4689,-288.48C97.5084,-261.691 138.147,-184.888 194,-143 257.683,-95.2399 346.057,-71.0715 410.387,-59.1114"/>
<polygon fill="midnightblue" stroke="midnightblue" points="411.274,-62.5082 420.497,-57.295 410.036,-55.6185 411.274,-62.5082"/>
</g>
<!-- Node22 -->
<g id="node22" class="node"><title>Node22</title>
<g id="a_node22"><a xlink:href="../../d3/dff/class_cell_society.html#af9f22af39a97a58b26126020ca6c8844" target="_top" xlink:title="CellSociety.readNewXML">
<polygon fill="white" stroke="black" points="214,-152.5 214,-171.5 346,-171.5 346,-152.5 214,-152.5"/>
<text text-anchor="middle" x="280" y="-159.5" font-family="Helvetica,sans-Serif" font-size="10.00">CellSociety.readNewXML</text>
</a>
</g>
</g>
<!-- Node1&#45;&gt;Node22 -->
<g id="edge22" class="edge"><title>Node1&#45;&gt;Node22</title>
<path fill="none" stroke="midnightblue" d="M86.4002,-288.306C101.919,-265.627 143.979,-208.924 194,-181 198.155,-178.681 202.573,-176.644 207.126,-174.857"/>
<polygon fill="midnightblue" stroke="midnightblue" points="208.344,-178.138 216.622,-171.525 206.027,-171.533 208.344,-178.138"/>
</g>
<!-- Node37 -->
<g id="node37" class="node"><title>Node37</title>
<g id="a_node37"><a xlink:href="../../d3/dff/class_cell_society.html#a6a4056cd40e4162583f2b9845b77a191" target="_top" xlink:title="CellSociety.resumeAnimation">
<polygon fill="white" stroke="black" points="417,-0.5 417,-19.5 573,-19.5 573,-0.5 417,-0.5"/>
<text text-anchor="middle" x="495" y="-7.5" font-family="Helvetica,sans-Serif" font-size="10.00">CellSociety.resumeAnimation</text>
</a>
</g>
</g>
<!-- Node1&#45;&gt;Node37 -->
<g id="edge43" class="edge"><title>Node1&#45;&gt;Node37</title>
<path fill="none" stroke="midnightblue" d="M81.6389,-288.092C88.198,-251.798 116.075,-125.153 194,-66 254.688,-19.9311 341.861,-7.94894 406.613,-6.29478"/>
<polygon fill="midnightblue" stroke="midnightblue" points="406.868,-9.7909 416.805,-6.11434 406.744,-2.79199 406.868,-9.7909"/>
</g>
<!-- Node3 -->
<g id="node3" class="node"><title>Node3</title>
<g id="a_node3"><a xlink:href="../../d3/dff/class_cell_society.html#adc5feda3db5472cea4e092d463681033" target="_top" xlink:title="CellSociety.reframeTimeline">
<polygon fill="white" stroke="black" points="420.5,-418.5 420.5,-437.5 569.5,-437.5 569.5,-418.5 420.5,-418.5"/>
<text text-anchor="middle" x="495" y="-425.5" font-family="Helvetica,sans-Serif" font-size="10.00">CellSociety.reframeTimeline</text>
</a>
</g>
</g>
<!-- Node2&#45;&gt;Node3 -->
<g id="edge2" class="edge"><title>Node2&#45;&gt;Node3</title>
<path fill="none" stroke="midnightblue" d="M327.694,-491.442C340.245,-488.486 353.735,-484.953 366,-481 400.508,-469.877 438.758,-453.476 464.378,-441.87"/>
<polygon fill="midnightblue" stroke="midnightblue" points="465.907,-445.02 473.545,-437.678 462.995,-438.654 465.907,-445.02"/>
</g>
<!-- Node4 -->
<g id="node4" class="node"><title>Node4</title>
<g id="a_node4"><a xlink:href="../../df/df8/class_cell_society_view.html#a99eb733c00ed7c1bcba8f2d684791a09" target="_top" xlink:title="CellSocietyView.displayFrameRate">
<polygon fill="white" stroke="black" points="624,-351.5 624,-370.5 802,-370.5 802,-351.5 624,-351.5"/>
<text text-anchor="middle" x="713" y="-358.5" font-family="Helvetica,sans-Serif" font-size="10.00">CellSocietyView.displayFrameRate</text>
</a>
</g>
</g>
<!-- Node3&#45;&gt;Node4 -->
<g id="edge3" class="edge"><title>Node3&#45;&gt;Node4</title>
<path fill="none" stroke="midnightblue" d="M549.884,-418.431C562.49,-415.763 575.797,-412.595 588,-409 620.451,-399.44 656.383,-385.096 681.177,-374.578"/>
<polygon fill="midnightblue" stroke="midnightblue" points="682.616,-377.769 690.428,-370.611 679.858,-371.335 682.616,-377.769"/>
</g>
<!-- Node5 -->
<g id="node5" class="node"><title>Node5</title>
<g id="a_node5"><a xlink:href="../../d3/dff/class_cell_society.html#abf13a64ee79f2cb063447b499c695c58" target="_top" xlink:title="CellSociety.start">
<polygon fill="white" stroke="black" points="666.5,-408.5 666.5,-427.5 759.5,-427.5 759.5,-408.5 666.5,-408.5"/>
<text text-anchor="middle" x="713" y="-415.5" font-family="Helvetica,sans-Serif" font-size="10.00">CellSociety.start</text>
</a>
</g>
</g>
<!-- Node3&#45;&gt;Node5 -->
<g id="edge4" class="edge"><title>Node3&#45;&gt;Node5</title>
<path fill="none" stroke="midnightblue" d="M569.731,-424.587C597.999,-423.278 629.76,-421.807 656.091,-420.588"/>
<polygon fill="midnightblue" stroke="midnightblue" points="656.441,-424.076 666.268,-420.117 656.117,-417.084 656.441,-424.076"/>
</g>
<!-- Node5&#45;&gt;Node6 -->
<g id="edge5" class="edge"><title>Node5&#45;&gt;Node6</title>
<path fill="none" stroke="midnightblue" d="M759.557,-418C784.856,-418 816.898,-418 845.463,-418"/>
<polygon fill="midnightblue" stroke="midnightblue" points="845.811,-421.5 855.81,-418 845.81,-414.5 845.811,-421.5"/>
</g>
<!-- Node7 -->
<g id="node7" class="node"><title>Node7</title>
<g id="a_node7"><a xlink:href="../../d6/d6e/class_sim_controller.html#a10145cee2eaceb4ecad9396a825051d1" target="_top" xlink:title="SimController.runOneSim">
<polygon fill="white" stroke="black" points="1048,-408.5 1048,-427.5 1186,-427.5 1186,-408.5 1048,-408.5"/>
<text text-anchor="middle" x="1117" y="-415.5" font-family="Helvetica,sans-Serif" font-size="10.00">SimController.runOneSim</text>
</a>
</g>
</g>
<!-- Node6&#45;&gt;Node7 -->
<g id="edge6" class="edge"><title>Node6&#45;&gt;Node7</title>
<path fill="none" stroke="midnightblue" d="M980.252,-418C998.443,-418 1018.62,-418 1037.74,-418"/>
<polygon fill="midnightblue" stroke="midnightblue" points="1037.92,-421.5 1047.92,-418 1037.92,-414.5 1037.92,-421.5"/>
</g>
<!-- Node11 -->
<g id="node11" class="node"><title>Node11</title>
<g id="a_node11"><a xlink:href="../../df/df8/class_cell_society_view.html#a43ac2666d3a002024be53fe74028a576" target="_top" xlink:title="CellSocietyView.updateSimGrid">
<polygon fill="white" stroke="black" points="1034.5,-217.5 1034.5,-236.5 1199.5,-236.5 1199.5,-217.5 1034.5,-217.5"/>
<text text-anchor="middle" x="1117" y="-224.5" font-family="Helvetica,sans-Serif" font-size="10.00">CellSocietyView.updateSimGrid</text>
</a>
</g>
</g>
<!-- Node6&#45;&gt;Node11 -->
<g id="edge10" class="edge"><title>Node6&#45;&gt;Node11</title>
<path fill="none" stroke="midnightblue" d="M929.04,-408.266C960.648,-377.62 1058.38,-282.861 1098.52,-243.947"/>
<polygon fill="midnightblue" stroke="midnightblue" points="1101,-246.418 1105.74,-236.944 1096.13,-241.392 1101,-246.418"/>
</g>
<!-- Node8 -->
<g id="node8" class="node"><title>Node8</title>
<g id="a_node8"><a xlink:href="../../dd/ddd/class_neighbor.html#ac769186595af20512a2ec4754db75640" target="_top" xlink:title="Neighbor.getNeighbors">
<polygon fill="white" stroke="black" points="1247.5,-408.5 1247.5,-427.5 1374.5,-427.5 1374.5,-408.5 1247.5,-408.5"/>
<text text-anchor="middle" x="1311" y="-415.5" font-family="Helvetica,sans-Serif" font-size="10.00">Neighbor.getNeighbors</text>
</a>
</g>
</g>
<!-- Node7&#45;&gt;Node8 -->
<g id="edge7" class="edge"><title>Node7&#45;&gt;Node8</title>
<path fill="none" stroke="midnightblue" d="M1186.23,-418C1202.75,-418 1220.46,-418 1237.17,-418"/>
<polygon fill="midnightblue" stroke="midnightblue" points="1237.43,-421.5 1247.43,-418 1237.43,-414.5 1237.43,-421.5"/>
</g>
<!-- Node9 -->
<g id="node9" class="node"><title>Node9</title>
<g id="a_node9"><a xlink:href="../../d6/d6e/class_sim_controller.html#a0b75005badf06910bcd21f152c640762" target="_top" xlink:title="SimController.getNeighbors\lState">
<polygon fill="white" stroke="black" points="1236.5,-359 1236.5,-389 1385.5,-389 1385.5,-359 1236.5,-359"/>
<text text-anchor="start" x="1244.5" y="-377" font-family="Helvetica,sans-Serif" font-size="10.00">SimController.getNeighbors</text>
<text text-anchor="middle" x="1311" y="-366" font-family="Helvetica,sans-Serif" font-size="10.00">State</text>
</a>
</g>
</g>
<!-- Node7&#45;&gt;Node9 -->
<g id="edge8" class="edge"><title>Node7&#45;&gt;Node9</title>
<path fill="none" stroke="midnightblue" d="M1159.66,-408.453C1181.47,-403.455 1208.86,-397.178 1234.27,-391.356"/>
<polygon fill="midnightblue" stroke="midnightblue" points="1235.29,-394.711 1244.26,-389.065 1233.73,-387.888 1235.29,-394.711"/>
</g>
<!-- Node10 -->
<g id="node10" class="node"><title>Node10</title>
<g id="a_node10"><a xlink:href="../../d6/d6e/class_sim_controller.html#a0a26878930cc1e557b0e101867cb2c23" target="_top" xlink:title="SimController.newState">
<polygon fill="white" stroke="black" points="1246.5,-446.5 1246.5,-465.5 1375.5,-465.5 1375.5,-446.5 1246.5,-446.5"/>
<text text-anchor="middle" x="1311" y="-453.5" font-family="Helvetica,sans-Serif" font-size="10.00">SimController.newState</text>
</a>
</g>
</g>
<!-- Node7&#45;&gt;Node10 -->
<g id="edge9" class="edge"><title>Node7&#45;&gt;Node10</title>
<path fill="none" stroke="midnightblue" d="M1166.45,-427.589C1192.47,-432.739 1224.73,-439.123 1252.07,-444.534"/>
<polygon fill="midnightblue" stroke="midnightblue" points="1251.41,-447.972 1261.9,-446.48 1252.77,-441.105 1251.41,-447.972"/>
</g>
<!-- Node12 -->
<g id="node12" class="node"><title>Node12</title>
<g id="a_node12"><a xlink:href="../../dd/d11/class_cell.html#a1e0ece61fecc69a9b7986d17d925434a" target="_top" xlink:title="Cell.getShape">
<polygon fill="white" stroke="black" points="1269.5,-217.5 1269.5,-236.5 1352.5,-236.5 1352.5,-217.5 1269.5,-217.5"/>
<text text-anchor="middle" x="1311" y="-224.5" font-family="Helvetica,sans-Serif" font-size="10.00">Cell.getShape</text>
</a>
</g>
</g>
<!-- Node11&#45;&gt;Node12 -->
<g id="edge11" class="edge"><title>Node11&#45;&gt;Node12</title>
<path fill="none" stroke="midnightblue" d="M1199.7,-227C1219.93,-227 1241.03,-227 1259.29,-227"/>
<polygon fill="midnightblue" stroke="midnightblue" points="1259.4,-230.5 1269.4,-227 1259.4,-223.5 1259.4,-230.5"/>
</g>
<!-- Node19&#45;&gt;Node3 -->
<g id="edge19" class="edge"><title>Node19&#45;&gt;Node3</title>
<path fill="none" stroke="midnightblue" d="M353.439,-209.529C358.056,-212.079 362.319,-215.197 366,-219 425.773,-280.758 341.727,-347.73 402,-409 404.877,-411.925 408.077,-414.458 411.509,-416.649"/>
<polygon fill="midnightblue" stroke="midnightblue" points="409.993,-419.807 420.465,-421.417 413.282,-413.628 409.993,-419.807"/>
</g>
<!-- Node21 -->
<g id="node21" class="node"><title>Node21</title>
<g id="a_node21"><a xlink:href="../../df/df8/class_cell_society_view.html#ae83511f9bf3610b0750d41c4aeb0f778" target="_top" xlink:title="CellSocietyView.setButtons\lPause">
<polygon fill="white" stroke="black" points="640,-11 640,-41 786,-41 786,-11 640,-11"/>
<text text-anchor="start" x="648" y="-29" font-family="Helvetica,sans-Serif" font-size="10.00">CellSocietyView.setButtons</text>
<text text-anchor="middle" x="713" y="-18" font-family="Helvetica,sans-Serif" font-size="10.00">Pause</text>
</a>
</g>
</g>
<!-- Node20&#45;&gt;Node21 -->
<g id="edge21" class="edge"><title>Node20&#45;&gt;Node21</title>
<path fill="none" stroke="midnightblue" d="M569.731,-40.4904C588.984,-38.5294 609.859,-36.4033 629.534,-34.3993"/>
<polygon fill="midnightblue" stroke="midnightblue" points="630.105,-37.8594 639.699,-33.364 629.395,-30.8954 630.105,-37.8594"/>
</g>
<!-- Node22&#45;&gt;Node4 -->
<g id="edge42" class="edge"><title>Node22&#45;&gt;Node4</title>
<path fill="none" stroke="midnightblue" d="M346.245,-168.442C353.576,-171.411 360.405,-175.475 366,-181 415.4,-229.779 349.54,-287.528 402,-333 432.775,-359.675 534.781,-364.645 613.468,-364.222"/>
<polygon fill="midnightblue" stroke="midnightblue" points="613.947,-367.718 623.917,-364.133 613.888,-360.718 613.947,-367.718"/>
</g>
<!-- Node22&#45;&gt;Node11 -->
<g id="edge40" class="edge"><title>Node22&#45;&gt;Node11</title>
<path fill="none" stroke="midnightblue" d="M330.247,-152.487C352.128,-148.721 378.256,-144.853 402,-143 579.239,-129.169 625.738,-119.831 802,-143 904.922,-156.529 1022.06,-193.988 1079.85,-214.001"/>
<polygon fill="midnightblue" stroke="midnightblue" points="1079,-217.413 1089.6,-217.408 1081.31,-210.805 1079,-217.413"/>
</g>
<!-- Node22&#45;&gt;Node20 -->
<g id="edge41" class="edge"><title>Node22&#45;&gt;Node20</title>
<path fill="none" stroke="midnightblue" d="M295.199,-152.37C312.375,-140.557 341.974,-119.671 366,-100 382.794,-86.2498 382.676,-76.8841 402,-67 406.601,-64.6466 411.473,-62.5847 416.477,-60.7781"/>
<polygon fill="midnightblue" stroke="midnightblue" points="417.8,-64.0284 426.229,-57.6094 415.637,-57.371 417.8,-64.0284"/>
</g>
<!-- Node23 -->
<g id="node23" class="node"><title>Node23</title>
<g id="a_node23"><a xlink:href="../../df/df8/class_cell_society_view.html#a053b6ef6afa80722445223c4e373e51c" target="_top" xlink:title="CellSocietyView.displayXMLChooser">
<polygon fill="white" stroke="black" points="402.5,-152.5 402.5,-171.5 587.5,-171.5 587.5,-152.5 402.5,-152.5"/>
<text text-anchor="middle" x="495" y="-159.5" font-family="Helvetica,sans-Serif" font-size="10.00">CellSocietyView.displayXMLChooser</text>
</a>
</g>
</g>
<!-- Node22&#45;&gt;Node23 -->
<g id="edge23" class="edge"><title>Node22&#45;&gt;Node23</title>
<path fill="none" stroke="midnightblue" d="M346.064,-162C360.616,-162 376.391,-162 392.035,-162"/>
<polygon fill="midnightblue" stroke="midnightblue" points="392.283,-165.5 402.283,-162 392.283,-158.5 392.283,-165.5"/>
</g>
<!-- Node24 -->
<g id="node24" class="node"><title>Node24</title>
<g id="a_node24"><a xlink:href="../../d2/d95/class_x_m_l_parser.html#a77ee23818c822b69cdf4200eef726a61" target="_top" xlink:title="XMLParser.parseXMLFile">
<polygon fill="white" stroke="black" points="430,-76.5 430,-95.5 560,-95.5 560,-76.5 430,-76.5"/>
<text text-anchor="middle" x="495" y="-83.5" font-family="Helvetica,sans-Serif" font-size="10.00">XMLParser.parseXMLFile</text>
</a>
</g>
</g>
<!-- Node22&#45;&gt;Node24 -->
<g id="edge24" class="edge"><title>Node22&#45;&gt;Node24</title>
<path fill="none" stroke="midnightblue" d="M300.762,-152.41C324.425,-141.186 365.45,-122.541 402,-110 414.815,-105.603 428.87,-101.558 442.052,-98.0921"/>
<polygon fill="midnightblue" stroke="midnightblue" points="443.111,-101.434 451.928,-95.558 441.371,-94.6534 443.111,-101.434"/>
</g>
<!-- Node28 -->
<g id="node28" class="node"><title>Node28</title>
<g id="a_node28"><a xlink:href="../../d3/dff/class_cell_society.html#abfbf43ce46b4c82c16a2d933b6a11abf" target="_top" xlink:title="CellSociety.retrieveParserInfo">
<polygon fill="white" stroke="black" points="417.5,-266.5 417.5,-285.5 572.5,-285.5 572.5,-266.5 417.5,-266.5"/>
<text text-anchor="middle" x="495" y="-273.5" font-family="Helvetica,sans-Serif" font-size="10.00">CellSociety.retrieveParserInfo</text>
</a>
</g>
</g>
<!-- Node22&#45;&gt;Node28 -->
<g id="edge28" class="edge"><title>Node22&#45;&gt;Node28</title>
<path fill="none" stroke="midnightblue" d="M346.375,-170.259C353.425,-172.951 360.15,-176.453 366,-181 393.934,-202.712 374.453,-229.798 402,-252 407.267,-256.245 413.206,-259.746 419.467,-262.633"/>
<polygon fill="midnightblue" stroke="midnightblue" points="418.246,-265.915 428.828,-266.437 420.881,-259.43 418.246,-265.915"/>
</g>
<!-- Node29 -->
<g id="node29" class="node"><title>Node29</title>
<g id="a_node29"><a xlink:href="../../d2/d95/class_x_m_l_parser.html#aea9b535964c91fa3c3d2b1c0b6a334c2" target="_top" xlink:title="XMLParser.getInitParamMap">
<polygon fill="white" stroke="black" points="638.5,-266.5 638.5,-285.5 787.5,-285.5 787.5,-266.5 638.5,-266.5"/>
<text text-anchor="middle" x="713" y="-273.5" font-family="Helvetica,sans-Serif" font-size="10.00">XMLParser.getInitParamMap</text>
</a>
</g>
</g>
<!-- Node22&#45;&gt;Node29 -->
<g id="edge32" class="edge"><title>Node22&#45;&gt;Node29</title>
<path fill="none" stroke="midnightblue" d="M343.876,-171.574C351.594,-174.031 359.161,-177.119 366,-181 386.234,-192.482 381.552,-207.905 402,-219 422.51,-230.128 553.305,-251.731 638.32,-264.911"/>
<polygon fill="midnightblue" stroke="midnightblue" points="638.034,-268.408 648.451,-266.475 639.102,-261.49 638.034,-268.408"/>
</g>
<!-- Node31 -->
<g id="node31" class="node"><title>Node31</title>
<g id="a_node31"><a xlink:href="../../dd/d11/class_cell.html#a7157b57f4ff263ea68e1ff5fc424176e" target="_top" xlink:title="Cell.setCellSize">
<polygon fill="white" stroke="black" points="450.5,-304.5 450.5,-323.5 539.5,-323.5 539.5,-304.5 450.5,-304.5"/>
<text text-anchor="middle" x="495" y="-311.5" font-family="Helvetica,sans-Serif" font-size="10.00">Cell.setCellSize</text>
</a>
</g>
</g>
<!-- Node22&#45;&gt;Node31 -->
<g id="edge31" class="edge"><title>Node22&#45;&gt;Node31</title>
<path fill="none" stroke="midnightblue" d="M346.292,-169.008C353.526,-171.896 360.318,-175.786 366,-181 405.15,-216.922 362.559,-259.398 402,-295 412.521,-304.497 426.502,-309.736 440.38,-312.513"/>
<polygon fill="midnightblue" stroke="midnightblue" points="439.988,-315.995 450.417,-314.126 441.099,-309.083 439.988,-315.995"/>
</g>
<!-- Node32 -->
<g id="node32" class="node"><title>Node32</title>
<g id="a_node32"><a xlink:href="../../d3/dff/class_cell_society.html#a7a6dab68551f91cc4b120faa51670bf8" target="_top" xlink:title="CellSociety.createCellArray">
<polygon fill="white" stroke="black" points="423,-190.5 423,-209.5 567,-209.5 567,-190.5 423,-190.5"/>
<text text-anchor="middle" x="495" y="-197.5" font-family="Helvetica,sans-Serif" font-size="10.00">CellSociety.createCellArray</text>
</a>
</g>
</g>
<!-- Node22&#45;&gt;Node32 -->
<g id="edge33" class="edge"><title>Node22&#45;&gt;Node32</title>
<path fill="none" stroke="midnightblue" d="M334.474,-171.54C363.592,-176.735 399.811,-183.196 430.374,-188.649"/>
<polygon fill="midnightblue" stroke="midnightblue" points="430.045,-192.145 440.504,-190.456 431.274,-185.254 430.045,-192.145"/>
</g>
<!-- Node36 -->
<g id="node36" class="node"><title>Node36</title>
<g id="a_node36"><a xlink:href="../../d3/dff/class_cell_society.html#ab9e56a2a70e210e021b51e898508329b" target="_top" xlink:title="CellSociety.setupAnimation">
<polygon fill="white" stroke="black" points="422,-380.5 422,-399.5 568,-399.5 568,-380.5 422,-380.5"/>
<text text-anchor="middle" x="495" y="-387.5" font-family="Helvetica,sans-Serif" font-size="10.00">CellSociety.setupAnimation</text>
</a>
</g>
</g>
<!-- Node22&#45;&gt;Node36 -->
<g id="edge38" class="edge"><title>Node22&#45;&gt;Node36</title>
<path fill="none" stroke="midnightblue" d="M346.038,-168.057C353.495,-171.075 360.412,-175.255 366,-181 424.404,-241.046 344.664,-304.934 402,-366 405.58,-369.813 409.684,-373.05 414.126,-375.795"/>
<polygon fill="midnightblue" stroke="midnightblue" points="412.559,-378.926 423.038,-380.489 415.822,-372.732 412.559,-378.926"/>
</g>
<!-- Node25 -->
<g id="node25" class="node"><title>Node25</title>
<g id="a_node25"><a xlink:href="../../d2/d95/class_x_m_l_parser.html#ae67767f9678fb650ac38b1321ea9f723" target="_top" xlink:title="XMLParser.parseInitialTags">
<polygon fill="white" stroke="black" points="642.5,-76.5 642.5,-95.5 783.5,-95.5 783.5,-76.5 642.5,-76.5"/>
<text text-anchor="middle" x="713" y="-83.5" font-family="Helvetica,sans-Serif" font-size="10.00">XMLParser.parseInitialTags</text>
</a>
</g>
</g>
<!-- Node24&#45;&gt;Node25 -->
<g id="edge25" class="edge"><title>Node24&#45;&gt;Node25</title>
<path fill="none" stroke="midnightblue" d="M560.222,-86C582.855,-86 608.576,-86 632.329,-86"/>
<polygon fill="midnightblue" stroke="midnightblue" points="632.374,-89.5001 642.374,-86 632.374,-82.5001 632.374,-89.5001"/>
</g>
<!-- Node26 -->
<g id="node26" class="node"><title>Node26</title>
<g id="a_node26"><a xlink:href="../../d2/d95/class_x_m_l_parser.html#a09c6848239104ae94825c045796dddd0" target="_top" xlink:title="XMLParser.makeParamMap">
<polygon fill="white" stroke="black" points="845,-76.5 845,-95.5 991,-95.5 991,-76.5 845,-76.5"/>
<text text-anchor="middle" x="918" y="-83.5" font-family="Helvetica,sans-Serif" font-size="10.00">XMLParser.makeParamMap</text>
</a>
</g>
</g>
<!-- Node25&#45;&gt;Node26 -->
<g id="edge26" class="edge"><title>Node25&#45;&gt;Node26</title>
<path fill="none" stroke="midnightblue" d="M783.577,-86C799.925,-86 817.504,-86 834.362,-86"/>
<polygon fill="midnightblue" stroke="midnightblue" points="834.749,-89.5001 844.749,-86 834.749,-82.5001 834.749,-89.5001"/>
</g>
<!-- Node27 -->
<g id="node27" class="node"><title>Node27</title>
<g id="a_node27"><a xlink:href="../../d2/d95/class_x_m_l_parser.html#a5a419f71699eb7d3d76ee238fb262a5f" target="_top" xlink:title="XMLParser.makeCellParamList">
<polygon fill="white" stroke="black" points="838,-38.5 838,-57.5 998,-57.5 998,-38.5 838,-38.5"/>
<text text-anchor="middle" x="918" y="-45.5" font-family="Helvetica,sans-Serif" font-size="10.00">XMLParser.makeCellParamList</text>
</a>
</g>
</g>
<!-- Node25&#45;&gt;Node27 -->
<g id="edge27" class="edge"><title>Node25&#45;&gt;Node27</title>
<path fill="none" stroke="midnightblue" d="M764.963,-76.46C792.594,-71.2878 826.933,-64.8599 855.981,-59.4222"/>
<polygon fill="midnightblue" stroke="midnightblue" points="856.83,-62.8242 866.016,-57.5439 855.542,-55.9437 856.83,-62.8242"/>
</g>
<!-- Node28&#45;&gt;Node29 -->
<g id="edge29" class="edge"><title>Node28&#45;&gt;Node29</title>
<path fill="none" stroke="midnightblue" d="M572.762,-276C590.769,-276 610.043,-276 628.335,-276"/>
<polygon fill="midnightblue" stroke="midnightblue" points="628.382,-279.5 638.382,-276 628.382,-272.5 628.382,-279.5"/>
</g>
<!-- Node30 -->
<g id="node30" class="node"><title>Node30</title>
<g id="a_node30"><a xlink:href="../../d2/d95/class_x_m_l_parser.html#a0df3a2904766f59d1246cb55416f8146" target="_top" xlink:title="XMLParser.getSimParamMap">
<polygon fill="white" stroke="black" points="636,-304.5 636,-323.5 790,-323.5 790,-304.5 636,-304.5"/>
<text text-anchor="middle" x="713" y="-311.5" font-family="Helvetica,sans-Serif" font-size="10.00">XMLParser.getSimParamMap</text>
</a>
</g>
</g>
<!-- Node28&#45;&gt;Node30 -->
<g id="edge30" class="edge"><title>Node28&#45;&gt;Node30</title>
<path fill="none" stroke="midnightblue" d="M550.227,-285.54C579.884,-290.757 616.804,-297.253 647.882,-302.72"/>
<polygon fill="midnightblue" stroke="midnightblue" points="647.295,-306.17 657.751,-304.456 648.508,-299.276 647.295,-306.17"/>
</g>
<!-- Node32&#45;&gt;Node29 -->
<g id="edge34" class="edge"><title>Node32&#45;&gt;Node29</title>
<path fill="none" stroke="midnightblue" d="M550.699,-209.612C563.402,-213.092 576.547,-217.765 588,-224 607.063,-234.379 604.721,-247.029 624,-257 628.568,-259.363 633.416,-261.432 638.396,-263.244"/>
<polygon fill="midnightblue" stroke="midnightblue" points="637.505,-266.635 648.098,-266.422 639.684,-259.983 637.505,-266.635"/>
</g>
<!-- Node33 -->
<g id="node33" class="node"><title>Node33</title>
<g id="a_node33"><a xlink:href="../../d2/d95/class_x_m_l_parser.html#ac4e3257aed1deb9fe950149f706fce5b" target="_top" xlink:title="XMLParser.getCellParamList">
<polygon fill="white" stroke="black" points="638.5,-228.5 638.5,-247.5 787.5,-247.5 787.5,-228.5 638.5,-228.5"/>
<text text-anchor="middle" x="713" y="-235.5" font-family="Helvetica,sans-Serif" font-size="10.00">XMLParser.getCellParamList</text>
</a>
</g>
</g>
<!-- Node32&#45;&gt;Node33 -->
<g id="edge35" class="edge"><title>Node32&#45;&gt;Node33</title>
<path fill="none" stroke="midnightblue" d="M550.227,-209.54C579.884,-214.757 616.804,-221.253 647.882,-226.72"/>
<polygon fill="midnightblue" stroke="midnightblue" points="647.295,-230.17 657.751,-228.456 648.508,-223.276 647.295,-230.17"/>
</g>
<!-- Node34 -->
<g id="node34" class="node"><title>Node34</title>
<g id="a_node34"><a xlink:href="../../d3/dff/class_cell_society.html#a42451b17e2bca5fd025c8d4ea74310ca" target="_top" xlink:title="CellSociety.stringToIntArray">
<polygon fill="white" stroke="black" points="640.5,-190.5 640.5,-209.5 785.5,-209.5 785.5,-190.5 640.5,-190.5"/>
<text text-anchor="middle" x="713" y="-197.5" font-family="Helvetica,sans-Serif" font-size="10.00">CellSociety.stringToIntArray</text>
</a>
</g>
</g>
<!-- Node32&#45;&gt;Node34 -->
<g id="edge36" class="edge"><title>Node32&#45;&gt;Node34</title>
<path fill="none" stroke="midnightblue" d="M567.026,-200C587.208,-200 609.35,-200 630.121,-200"/>
<polygon fill="midnightblue" stroke="midnightblue" points="630.193,-203.5 640.193,-200 630.193,-196.5 630.193,-203.5"/>
</g>
<!-- Node35 -->
<g id="node35" class="node"><title>Node35</title>
<g id="a_node35"><a xlink:href="../../d3/dff/class_cell_society.html#a117f1698760a3f6bbe51bd7af16f79bb" target="_top" xlink:title="CellSociety.createCellInstance">
<polygon fill="white" stroke="black" points="633.5,-152.5 633.5,-171.5 792.5,-171.5 792.5,-152.5 633.5,-152.5"/>
<text text-anchor="middle" x="713" y="-159.5" font-family="Helvetica,sans-Serif" font-size="10.00">CellSociety.createCellInstance</text>
</a>
</g>
</g>
<!-- Node32&#45;&gt;Node35 -->
<g id="edge37" class="edge"><title>Node32&#45;&gt;Node35</title>
<path fill="none" stroke="midnightblue" d="M550.227,-190.46C579.884,-185.243 616.804,-178.747 647.882,-173.28"/>
<polygon fill="midnightblue" stroke="midnightblue" points="648.508,-176.724 657.751,-171.544 647.295,-169.83 648.508,-176.724"/>
</g>
<!-- Node36&#45;&gt;Node5 -->
<g id="edge39" class="edge"><title>Node36&#45;&gt;Node5</title>
<path fill="none" stroke="midnightblue" d="M568.225,-399.363C596.935,-403.084 629.447,-407.299 656.283,-410.777"/>
<polygon fill="midnightblue" stroke="midnightblue" points="655.903,-414.257 666.27,-412.072 656.803,-407.315 655.903,-414.257"/>
</g>
<!-- Node37&#45;&gt;Node21 -->
<g id="edge44" class="edge"><title>Node37&#45;&gt;Node21</title>
<path fill="none" stroke="midnightblue" d="M573.066,-15.7086C591.365,-17.064 610.957,-18.5153 629.487,-19.888"/>
<polygon fill="midnightblue" stroke="midnightblue" points="629.427,-23.393 639.658,-20.6413 629.944,-16.4121 629.427,-23.393"/>
</g>
</g>
</svg>
