<?xml version="1.0" encoding="UTF-8" standalone="no"?>
<!DOCTYPE svg PUBLIC "-//W3C//DTD SVG 1.1//EN"
 "http://www.w3.org/Graphics/SVG/1.1/DTD/svg11.dtd">
<!-- Generated by graphviz version 2.36.0 (20140111.2315)
 -->
<!-- Title: CellSociety.configureListeners Pages: 1 -->
<svg width="1394pt" height="545pt"
 viewBox="0.00 0.00 1394.00 544.99" xmlns="http://www.w3.org/2000/svg" xmlns:xlink="http://www.w3.org/1999/xlink">
<g id="graph0" class="graph" transform="scale(1 1) rotate(0) translate(4 540.987)">
<title>CellSociety.configureListeners</title>
<polygon fill="white" stroke="none" points="-4,4 -4,-540.987 1390,-540.987 1390,4 -4,4"/>
<!-- Node1 -->
<g id="node1" class="node"><title>Node1</title>
<polygon fill="#bfbfbf" stroke="black" points="0,-268.5 0,-287.5 158,-287.5 158,-268.5 0,-268.5"/>
<text text-anchor="middle" x="79" y="-275.5" font-family="Helvetica,sans-Serif" font-size="10.00">CellSociety.configureListeners</text>
</g>
<!-- Node2 -->
<g id="node2" class="node"><title>Node2</title>
<g id="a_node2"><a xlink:href="../../d3/dff/class_cell_society.html#a045267ba1843ca4a47891d7be73c2ac1" target="_top" xlink:title="CellSociety.decreaseFrameRate">
<polygon fill="white" stroke="black" points="196.5,-347.5 196.5,-366.5 363.5,-366.5 363.5,-347.5 196.5,-347.5"/>
<text text-anchor="middle" x="280" y="-354.5" font-family="Helvetica,sans-Serif" font-size="10.00">CellSociety.decreaseFrameRate</text>
</a>
</g>
</g>
<!-- Node1&#45;&gt;Node2 -->
<g id="edge1" class="edge"><title>Node1&#45;&gt;Node2</title>
<path fill="none" stroke="midnightblue" d="M104.004,-287.529C139.339,-301.557 205.49,-327.818 245.562,-343.726"/>
<polygon fill="midnightblue" stroke="midnightblue" points="244.325,-347 254.911,-347.437 246.908,-340.494 244.325,-347"/>
</g>
<!-- Node6 -->
<g id="node6" class="node"><title>Node6</title>
<g id="a_node6"><a xlink:href="../../d3/dff/class_cell_society.html#a0ff19c30a1cc433d8ea8444f6a5617f1" target="_top" xlink:title="CellSociety.updateGrid">
<polygon fill="white" stroke="black" points="856,-380.5 856,-399.5 980,-399.5 980,-380.5 856,-380.5"/>
<text text-anchor="middle" x="918" y="-387.5" font-family="Helvetica,sans-Serif" font-size="10.00">CellSociety.updateGrid</text>
</a>
</g>
</g>
<!-- Node1&#45;&gt;Node6 -->
<g id="edge46" class="edge"><title>Node1&#45;&gt;Node6</title>
<path fill="none" stroke="midnightblue" d="M84.0655,-287.837C96.0436,-315.351 134.158,-393.032 194,-423 314.841,-483.516 667.927,-426.003 802,-409 818.957,-406.85 837.244,-404.05 854.138,-401.263"/>
<polygon fill="midnightblue" stroke="midnightblue" points="855.167,-404.639 864.452,-399.536 854.011,-397.736 855.167,-404.639"/>
</g>
<!-- Node13 -->
<g id="node13" class="node"><title>Node13</title>
<g id="a_node13"><a xlink:href="../../df/df8/class_cell_society_view.html#ada088eb9125561f8dd941badb141fa86" target="_top" xlink:title="CellSocietyView.getPause\lElement">
<polygon fill="white" stroke="black" points="211.5,-241 211.5,-271 348.5,-271 348.5,-241 211.5,-241"/>
<text text-anchor="start" x="219.5" y="-259" font-family="Helvetica,sans-Serif" font-size="10.00">CellSocietyView.getPause</text>
<text text-anchor="middle" x="280" y="-248" font-family="Helvetica,sans-Serif" font-size="10.00">Element</text>
</a>
</g>
</g>
<!-- Node1&#45;&gt;Node13 -->
<g id="edge12" class="edge"><title>Node1&#45;&gt;Node13</title>
<path fill="none" stroke="midnightblue" d="M158.079,-269.368C172.274,-267.799 187.079,-266.162 201.264,-264.594"/>
<polygon fill="midnightblue" stroke="midnightblue" points="201.91,-268.044 211.465,-263.466 201.141,-261.086 201.91,-268.044"/>
</g>
<!-- Node14 -->
<g id="node14" class="node"><title>Node14</title>
<g id="a_node14"><a xlink:href="../../df/df8/class_cell_society_view.html#aae7c36ea6b5215b0ba9ee01c72dfcb94" target="_top" xlink:title="CellSocietyView.getPlayElement">
<polygon fill="white" stroke="black" points="196,-202.5 196,-221.5 364,-221.5 364,-202.5 196,-202.5"/>
<text text-anchor="middle" x="280" y="-209.5" font-family="Helvetica,sans-Serif" font-size="10.00">CellSocietyView.getPlayElement</text>
</a>
</g>
</g>
<!-- Node1&#45;&gt;Node14 -->
<g id="edge13" class="edge"><title>Node1&#45;&gt;Node14</title>
<path fill="none" stroke="midnightblue" d="M101.076,-268.365C123.692,-258.295 160.842,-242.523 194,-232 203.223,-229.073 213.131,-226.362 222.809,-223.942"/>
<polygon fill="midnightblue" stroke="midnightblue" points="223.878,-227.284 232.773,-221.528 222.23,-220.481 223.878,-227.284"/>
</g>
<!-- Node15 -->
<g id="node15" class="node"><title>Node15</title>
<g id="a_node15"><a xlink:href="../../df/df8/class_cell_society_view.html#a0f616a01579a7293ef781d3e341ea1ac" target="_top" xlink:title="CellSocietyView.getSlowdown\lElement">
<polygon fill="white" stroke="black" points="202.5,-153 202.5,-183 357.5,-183 357.5,-153 202.5,-153"/>
<text text-anchor="start" x="210.5" y="-171" font-family="Helvetica,sans-Serif" font-size="10.00">CellSocietyView.getSlowdown</text>
<text text-anchor="middle" x="280" y="-160" font-family="Helvetica,sans-Serif" font-size="10.00">Element</text>
</a>
</g>
</g>
<!-- Node1&#45;&gt;Node15 -->
<g id="edge14" class="edge"><title>Node1&#45;&gt;Node15</title>
<path fill="none" stroke="midnightblue" d="M90.158,-268.419C109.121,-251.018 151.819,-214.076 194,-193 198.612,-190.696 203.473,-188.566 208.439,-186.605"/>
<polygon fill="midnightblue" stroke="midnightblue" points="209.915,-189.791 218.081,-183.041 207.487,-183.226 209.915,-189.791"/>
</g>
<!-- Node16 -->
<g id="node16" class="node"><title>Node16</title>
<g id="a_node16"><a xlink:href="../../df/df8/class_cell_society_view.html#a572d464cbe7d186dc9a5b0e4a8130689" target="_top" xlink:title="CellSocietyView.getSpeedup\lElement">
<polygon fill="white" stroke="black" points="204,-104 204,-134 356,-134 356,-104 204,-104"/>
<text text-anchor="start" x="212" y="-122" font-family="Helvetica,sans-Serif" font-size="10.00">CellSocietyView.getSpeedup</text>
<text text-anchor="middle" x="280" y="-111" font-family="Helvetica,sans-Serif" font-size="10.00">Element</text>
</a>
</g>
</g>
<!-- Node1&#45;&gt;Node16 -->
<g id="edge15" class="edge"><title>Node1&#45;&gt;Node16</title>
<path fill="none" stroke="midnightblue" d="M85.2683,-268.479C99.4319,-243.785 140.879,-177.227 194,-143 196.477,-141.404 199.062,-139.912 201.723,-138.518"/>
<polygon fill="midnightblue" stroke="midnightblue" points="203.464,-141.567 211.025,-134.145 200.486,-135.232 203.464,-141.567"/>
</g>
<!-- Node17 -->
<g id="node17" class="node"><title>Node17</title>
<g id="a_node17"><a xlink:href="../../df/df8/class_cell_society_view.html#a3c3a7039f77d392c374cd309967ca1cc" target="_top" xlink:title="CellSocietyView.getStepElement">
<polygon fill="white" stroke="black" points="194.5,-65.5 194.5,-84.5 365.5,-84.5 365.5,-65.5 194.5,-65.5"/>
<text text-anchor="middle" x="280" y="-72.5" font-family="Helvetica,sans-Serif" font-size="10.00">CellSocietyView.getStepElement</text>
</a>
</g>
</g>
<!-- Node1&#45;&gt;Node17 -->
<g id="edge16" class="edge"><title>Node1&#45;&gt;Node17</title>
<path fill="none" stroke="midnightblue" d="M83.0468,-268.096C93.1649,-236.959 128.763,-140.378 194,-94 196.711,-92.0725 199.584,-90.3359 202.571,-88.7718"/>
<polygon fill="midnightblue" stroke="midnightblue" points="204.162,-91.8934 211.826,-84.5779 201.273,-85.5175 204.162,-91.8934"/>
</g>
<!-- Node18 -->
<g id="node18" class="node"><title>Node18</title>
<g id="a_node18"><a xlink:href="../../df/df8/class_cell_society_view.html#aebad9aaff0e9784fec1518d319e03c85" target="_top" xlink:title="CellSocietyView.getXMLElement">
<polygon fill="white" stroke="black" points="196,-27.5 196,-46.5 364,-46.5 364,-27.5 196,-27.5"/>
<text text-anchor="middle" x="280" y="-34.5" font-family="Helvetica,sans-Serif" font-size="10.00">CellSocietyView.getXMLElement</text>
</a>
</g>
</g>
<!-- Node1&#45;&gt;Node18 -->
<g id="edge17" class="edge"><title>Node1&#45;&gt;Node18</title>
<path fill="none" stroke="midnightblue" d="M81.9525,-268.117C89.426,-233.033 119.62,-113.507 194,-56 196.299,-54.2225 198.732,-52.6047 201.266,-51.1328"/>
<polygon fill="midnightblue" stroke="midnightblue" points="202.832,-54.263 210.221,-46.67 199.709,-47.9979 202.832,-54.263"/>
</g>
<!-- Node19 -->
<g id="node19" class="node"><title>Node19</title>
<g id="a_node19"><a xlink:href="../../d3/dff/class_cell_society.html#a8250bfacdaf51dabf6b9d1cafc0ce9b2" target="_top" xlink:title="CellSociety.increaseFrameRate">
<polygon fill="white" stroke="black" points="198.5,-394.5 198.5,-413.5 361.5,-413.5 361.5,-394.5 198.5,-394.5"/>
<text text-anchor="middle" x="280" y="-401.5" font-family="Helvetica,sans-Serif" font-size="10.00">CellSociety.increaseFrameRate</text>
</a>
</g>
</g>
<!-- Node1&#45;&gt;Node19 -->
<g id="edge18" class="edge"><title>Node1&#45;&gt;Node19</title>
<path fill="none" stroke="midnightblue" d="M88.7852,-287.778C106.737,-307.211 149.686,-350.971 194,-376 204.886,-382.149 217.327,-387.198 229.269,-391.232"/>
<polygon fill="midnightblue" stroke="midnightblue" points="228.548,-394.676 239.139,-394.384 230.677,-388.008 228.548,-394.676"/>
</g>
<!-- Node20 -->
<g id="node20" class="node"><title>Node20</title>
<g id="a_node20"><a xlink:href="../../d3/dff/class_cell_society.html#ae565a305ea53e5a37da9816a236b4fbc" target="_top" xlink:title="CellSociety.pauseAnimation">
<polygon fill="white" stroke="black" points="420.5,-475.5 420.5,-494.5 569.5,-494.5 569.5,-475.5 420.5,-475.5"/>
<text text-anchor="middle" x="495" y="-482.5" font-family="Helvetica,sans-Serif" font-size="10.00">CellSociety.pauseAnimation</text>
</a>
</g>
</g>
<!-- Node1&#45;&gt;Node20 -->
<g id="edge20" class="edge"><title>Node1&#45;&gt;Node20</title>
<path fill="none" stroke="midnightblue" d="M82.6733,-287.798C91.8857,-319.456 125.575,-419.353 194,-461 265.493,-504.514 364.971,-502.97 429.423,-495.718"/>
<polygon fill="midnightblue" stroke="midnightblue" points="429.947,-499.181 439.457,-494.512 429.111,-492.231 429.947,-499.181"/>
</g>
<!-- Node22 -->
<g id="node22" class="node"><title>Node22</title>
<g id="a_node22"><a xlink:href="../../d3/dff/class_cell_society.html#af9f22af39a97a58b26126020ca6c8844" target="_top" xlink:title="CellSociety.readNewXML">
<polygon fill="white" stroke="black" points="214,-290.5 214,-309.5 346,-309.5 346,-290.5 214,-290.5"/>
<text text-anchor="middle" x="280" y="-297.5" font-family="Helvetica,sans-Serif" font-size="10.00">CellSociety.readNewXML</text>
</a>
</g>
</g>
<!-- Node1&#45;&gt;Node22 -->
<g id="edge22" class="edge"><title>Node1&#45;&gt;Node22</title>
<path fill="none" stroke="midnightblue" d="M158.079,-286.632C173.119,-288.295 188.845,-290.033 203.792,-291.686"/>
<polygon fill="midnightblue" stroke="midnightblue" points="203.673,-295.194 213.997,-292.814 204.442,-288.236 203.673,-295.194"/>
</g>
<!-- Node38 -->
<g id="node38" class="node"><title>Node38</title>
<g id="a_node38"><a xlink:href="../../d3/dff/class_cell_society.html#a6a4056cd40e4162583f2b9845b77a191" target="_top" xlink:title="CellSociety.resumeAnimation">
<polygon fill="white" stroke="black" points="417,-513.5 417,-532.5 573,-532.5 573,-513.5 417,-513.5"/>
<text text-anchor="middle" x="495" y="-520.5" font-family="Helvetica,sans-Serif" font-size="10.00">CellSociety.resumeAnimation</text>
</a>
</g>
</g>
<!-- Node1&#45;&gt;Node38 -->
<g id="edge44" class="edge"><title>Node1&#45;&gt;Node38</title>
<path fill="none" stroke="midnightblue" d="M81.8105,-287.943C88.805,-323.184 117.582,-442.749 194,-494 263.095,-540.34 362.083,-540.305 427.18,-533.625"/>
<polygon fill="midnightblue" stroke="midnightblue" points="427.773,-537.081 437.328,-532.502 427.003,-530.123 427.773,-537.081"/>
</g>
<!-- Node3 -->
<g id="node3" class="node"><title>Node3</title>
<g id="a_node3"><a xlink:href="../../d3/dff/class_cell_society.html#adc5feda3db5472cea4e092d463681033" target="_top" xlink:title="CellSociety.reframeTimeline">
<polygon fill="white" stroke="black" points="420.5,-399.5 420.5,-418.5 569.5,-418.5 569.5,-399.5 420.5,-399.5"/>
<text text-anchor="middle" x="495" y="-406.5" font-family="Helvetica,sans-Serif" font-size="10.00">CellSociety.reframeTimeline</text>
</a>
</g>
</g>
<!-- Node2&#45;&gt;Node3 -->
<g id="edge2" class="edge"><title>Node2&#45;&gt;Node3</title>
<path fill="none" stroke="midnightblue" d="M313.725,-366.522C337.99,-373.436 371.93,-382.802 402,-390 412.565,-392.529 423.861,-395.028 434.791,-397.342"/>
<polygon fill="midnightblue" stroke="midnightblue" points="434.191,-400.792 444.696,-399.41 435.622,-393.94 434.191,-400.792"/>
</g>
<!-- Node4 -->
<g id="node4" class="node"><title>Node4</title>
<g id="a_node4"><a xlink:href="../../df/df8/class_cell_society_view.html#a99eb733c00ed7c1bcba8f2d684791a09" target="_top" xlink:title="CellSocietyView.displayFrameRate">
<polygon fill="white" stroke="black" points="624,-314.5 624,-333.5 802,-333.5 802,-314.5 624,-314.5"/>
<text text-anchor="middle" x="713" y="-321.5" font-family="Helvetica,sans-Serif" font-size="10.00">CellSocietyView.displayFrameRate</text>
</a>
</g>
</g>
<!-- Node3&#45;&gt;Node4 -->
<g id="edge3" class="edge"><title>Node3&#45;&gt;Node4</title>
<path fill="none" stroke="midnightblue" d="M555.097,-399.401C566.187,-396.871 577.568,-393.765 588,-390 589.28,-389.538 649.091,-357.616 685.167,-338.342"/>
<polygon fill="midnightblue" stroke="midnightblue" points="687.04,-341.31 694.211,-333.51 683.741,-335.136 687.04,-341.31"/>
</g>
<!-- Node5 -->
<g id="node5" class="node"><title>Node5</title>
<g id="a_node5"><a xlink:href="../../d3/dff/class_cell_society.html#abf13a64ee79f2cb063447b499c695c58" target="_top" xlink:title="CellSociety.start">
<polygon fill="white" stroke="black" points="666.5,-380.5 666.5,-399.5 759.5,-399.5 759.5,-380.5 666.5,-380.5"/>
<text text-anchor="middle" x="713" y="-387.5" font-family="Helvetica,sans-Serif" font-size="10.00">CellSociety.start</text>
</a>
</g>
</g>
<!-- Node3&#45;&gt;Node5 -->
<g id="edge4" class="edge"><title>Node3&#45;&gt;Node5</title>
<path fill="none" stroke="midnightblue" d="M569.731,-402.514C597.999,-400.028 629.76,-397.234 656.091,-394.918"/>
<polygon fill="midnightblue" stroke="midnightblue" points="656.613,-398.386 666.268,-394.023 656,-391.412 656.613,-398.386"/>
</g>
<!-- Node5&#45;&gt;Node6 -->
<g id="edge5" class="edge"><title>Node5&#45;&gt;Node6</title>
<path fill="none" stroke="midnightblue" d="M759.557,-390C784.856,-390 816.898,-390 845.463,-390"/>
<polygon fill="midnightblue" stroke="midnightblue" points="845.811,-393.5 855.81,-390 845.81,-386.5 845.811,-393.5"/>
</g>
<!-- Node7 -->
<g id="node7" class="node"><title>Node7</title>
<g id="a_node7"><a xlink:href="../../d6/d6e/class_sim_controller.html#a10145cee2eaceb4ecad9396a825051d1" target="_top" xlink:title="SimController.runOneSim">
<polygon fill="white" stroke="black" points="1048,-380.5 1048,-399.5 1186,-399.5 1186,-380.5 1048,-380.5"/>
<text text-anchor="middle" x="1117" y="-387.5" font-family="Helvetica,sans-Serif" font-size="10.00">SimController.runOneSim</text>
</a>
</g>
</g>
<!-- Node6&#45;&gt;Node7 -->
<g id="edge6" class="edge"><title>Node6&#45;&gt;Node7</title>
<path fill="none" stroke="midnightblue" d="M980.252,-390C998.443,-390 1018.62,-390 1037.74,-390"/>
<polygon fill="midnightblue" stroke="midnightblue" points="1037.92,-393.5 1047.92,-390 1037.92,-386.5 1037.92,-393.5"/>
</g>
<!-- Node11 -->
<g id="node11" class="node"><title>Node11</title>
<g id="a_node11"><a xlink:href="../../df/df8/class_cell_society_view.html#a43ac2666d3a002024be53fe74028a576" target="_top" xlink:title="CellSocietyView.updateSimGrid">
<polygon fill="white" stroke="black" points="1034.5,-276.5 1034.5,-295.5 1199.5,-295.5 1199.5,-276.5 1034.5,-276.5"/>
<text text-anchor="middle" x="1117" y="-283.5" font-family="Helvetica,sans-Serif" font-size="10.00">CellSocietyView.updateSimGrid</text>
</a>
</g>
</g>
<!-- Node6&#45;&gt;Node11 -->
<g id="edge10" class="edge"><title>Node6&#45;&gt;Node11</title>
<path fill="none" stroke="midnightblue" d="M937.18,-380.402C971.997,-362.022 1048.24,-321.77 1089.02,-300.245"/>
<polygon fill="midnightblue" stroke="midnightblue" points="1090.65,-303.338 1097.86,-295.574 1087.39,-297.148 1090.65,-303.338"/>
</g>
<!-- Node8 -->
<g id="node8" class="node"><title>Node8</title>
<g id="a_node8"><a xlink:href="../../dd/ddd/class_neighbor.html#ac769186595af20512a2ec4754db75640" target="_top" xlink:title="Neighbor.getNeighbors">
<polygon fill="white" stroke="black" points="1247.5,-342.5 1247.5,-361.5 1374.5,-361.5 1374.5,-342.5 1247.5,-342.5"/>
<text text-anchor="middle" x="1311" y="-349.5" font-family="Helvetica,sans-Serif" font-size="10.00">Neighbor.getNeighbors</text>
</a>
</g>
</g>
<!-- Node7&#45;&gt;Node8 -->
<g id="edge7" class="edge"><title>Node7&#45;&gt;Node8</title>
<path fill="none" stroke="midnightblue" d="M1166.45,-380.411C1192.47,-375.261 1224.73,-368.877 1252.07,-363.466"/>
<polygon fill="midnightblue" stroke="midnightblue" points="1252.77,-366.895 1261.9,-361.52 1251.41,-360.028 1252.77,-366.895"/>
</g>
<!-- Node9 -->
<g id="node9" class="node"><title>Node9</title>
<g id="a_node9"><a xlink:href="../../d6/d6e/class_sim_controller.html#a1538c5c647988e5d5b6602c8eb1b8949" target="_top" xlink:title="SimController.getNeighbors\lState">
<polygon fill="white" stroke="black" points="1236.5,-419 1236.5,-449 1385.5,-449 1385.5,-419 1236.5,-419"/>
<text text-anchor="start" x="1244.5" y="-437" font-family="Helvetica,sans-Serif" font-size="10.00">SimController.getNeighbors</text>
<text text-anchor="middle" x="1311" y="-426" font-family="Helvetica,sans-Serif" font-size="10.00">State</text>
</a>
</g>
</g>
<!-- Node7&#45;&gt;Node9 -->
<g id="edge8" class="edge"><title>Node7&#45;&gt;Node9</title>
<path fill="none" stroke="midnightblue" d="M1159.66,-399.547C1181.47,-404.545 1208.86,-410.822 1234.27,-416.644"/>
<polygon fill="midnightblue" stroke="midnightblue" points="1233.73,-420.112 1244.26,-418.935 1235.29,-413.289 1233.73,-420.112"/>
</g>
<!-- Node10 -->
<g id="node10" class="node"><title>Node10</title>
<g id="a_node10"><a xlink:href="../../d6/d6e/class_sim_controller.html#a6b7a166a6fd312895c8356d24de980e3" target="_top" xlink:title="SimController.newState">
<polygon fill="white" stroke="black" points="1246.5,-380.5 1246.5,-399.5 1375.5,-399.5 1375.5,-380.5 1246.5,-380.5"/>
<text text-anchor="middle" x="1311" y="-387.5" font-family="Helvetica,sans-Serif" font-size="10.00">SimController.newState</text>
</a>
</g>
</g>
<!-- Node7&#45;&gt;Node10 -->
<g id="edge9" class="edge"><title>Node7&#45;&gt;Node10</title>
<path fill="none" stroke="midnightblue" d="M1186.23,-390C1202.48,-390 1219.88,-390 1236.36,-390"/>
<polygon fill="midnightblue" stroke="midnightblue" points="1236.48,-393.5 1246.48,-390 1236.48,-386.5 1236.48,-393.5"/>
</g>
<!-- Node12 -->
<g id="node12" class="node"><title>Node12</title>
<g id="a_node12"><a xlink:href="../../dd/d11/class_cell.html#a1e0ece61fecc69a9b7986d17d925434a" target="_top" xlink:title="Cell.getShape">
<polygon fill="white" stroke="black" points="1269.5,-276.5 1269.5,-295.5 1352.5,-295.5 1352.5,-276.5 1269.5,-276.5"/>
<text text-anchor="middle" x="1311" y="-283.5" font-family="Helvetica,sans-Serif" font-size="10.00">Cell.getShape</text>
</a>
</g>
</g>
<!-- Node11&#45;&gt;Node12 -->
<g id="edge11" class="edge"><title>Node11&#45;&gt;Node12</title>
<path fill="none" stroke="midnightblue" d="M1199.7,-286C1219.93,-286 1241.03,-286 1259.29,-286"/>
<polygon fill="midnightblue" stroke="midnightblue" points="1259.4,-289.5 1269.4,-286 1259.4,-282.5 1259.4,-289.5"/>
</g>
<!-- Node19&#45;&gt;Node3 -->
<g id="edge19" class="edge"><title>Node19&#45;&gt;Node3</title>
<path fill="none" stroke="midnightblue" d="M361.526,-405.89C377.375,-406.262 394.041,-406.654 410.001,-407.028"/>
<polygon fill="midnightblue" stroke="midnightblue" points="410.292,-410.536 420.371,-407.272 410.456,-403.538 410.292,-410.536"/>
</g>
<!-- Node21 -->
<g id="node21" class="node"><title>Node21</title>
<g id="a_node21"><a xlink:href="../../df/df8/class_cell_society_view.html#ae83511f9bf3610b0750d41c4aeb0f778" target="_top" xlink:title="CellSocietyView.setButtons\lPause">
<polygon fill="white" stroke="black" points="640,-492 640,-522 786,-522 786,-492 640,-492"/>
<text text-anchor="start" x="648" y="-510" font-family="Helvetica,sans-Serif" font-size="10.00">CellSocietyView.setButtons</text>
<text text-anchor="middle" x="713" y="-499" font-family="Helvetica,sans-Serif" font-size="10.00">Pause</text>
</a>
</g>
</g>
<!-- Node20&#45;&gt;Node21 -->
<g id="edge21" class="edge"><title>Node20&#45;&gt;Node21</title>
<path fill="none" stroke="midnightblue" d="M569.731,-492.51C588.984,-494.471 609.859,-496.597 629.534,-498.601"/>
<polygon fill="midnightblue" stroke="midnightblue" points="629.395,-502.105 639.699,-499.636 630.105,-495.141 629.395,-502.105"/>
</g>
<!-- Node22&#45;&gt;Node4 -->
<g id="edge42" class="edge"><title>Node22&#45;&gt;Node4</title>
<path fill="none" stroke="midnightblue" d="M319.132,-290.445C342.812,-285.01 373.973,-278.753 402,-276 484.271,-267.92 506.739,-260.821 588,-276 622.657,-282.474 660.096,-298.307 684.662,-310.028"/>
<polygon fill="midnightblue" stroke="midnightblue" points="683.206,-313.212 693.728,-314.447 686.273,-306.92 683.206,-313.212"/>
</g>
<!-- Node22&#45;&gt;Node11 -->
<g id="edge40" class="edge"><title>Node22&#45;&gt;Node11</title>
<path fill="none" stroke="midnightblue" d="M329.605,-290.418C341.641,-287.54 354.408,-284.05 366,-280 382.704,-274.164 384.735,-266.872 402,-263 641.242,-209.353 936.774,-252.278 1058.99,-274.615"/>
<polygon fill="midnightblue" stroke="midnightblue" points="1058.41,-278.067 1068.88,-276.447 1059.68,-271.184 1058.41,-278.067"/>
</g>
<!-- Node22&#45;&gt;Node20 -->
<g id="edge41" class="edge"><title>Node22&#45;&gt;Node20</title>
<path fill="none" stroke="midnightblue" d="M317.803,-309.533C334.338,-315.41 353.008,-324.479 366,-338 395.849,-369.065 374.302,-395.003 402,-428 417.883,-446.922 441.72,-461.444 461.151,-471.093"/>
<polygon fill="midnightblue" stroke="midnightblue" points="459.747,-474.301 470.281,-475.437 462.754,-467.98 459.747,-474.301"/>
</g>
<!-- Node23 -->
<g id="node23" class="node"><title>Node23</title>
<g id="a_node23"><a xlink:href="../../df/df8/class_cell_society_view.html#a053b6ef6afa80722445223c4e373e51c" target="_top" xlink:title="CellSocietyView.displayXMLChooser">
<polygon fill="white" stroke="black" points="402.5,-285.5 402.5,-304.5 587.5,-304.5 587.5,-285.5 402.5,-285.5"/>
<text text-anchor="middle" x="495" y="-292.5" font-family="Helvetica,sans-Serif" font-size="10.00">CellSocietyView.displayXMLChooser</text>
</a>
</g>
</g>
<!-- Node22&#45;&gt;Node23 -->
<g id="edge23" class="edge"><title>Node22&#45;&gt;Node23</title>
<path fill="none" stroke="midnightblue" d="M346.064,-298.473C360.616,-298.131 376.391,-297.761 392.035,-297.394"/>
<polygon fill="midnightblue" stroke="midnightblue" points="392.368,-300.887 402.283,-297.153 392.203,-293.889 392.368,-300.887"/>
</g>
<!-- Node24 -->
<g id="node24" class="node"><title>Node24</title>
<g id="a_node24"><a xlink:href="../../d2/d95/class_x_m_l_parser.html#a77ee23818c822b69cdf4200eef726a61" target="_top" xlink:title="XMLParser.parseXMLFile">
<polygon fill="white" stroke="black" points="430,-171.5 430,-190.5 560,-190.5 560,-171.5 430,-171.5"/>
<text text-anchor="middle" x="495" y="-178.5" font-family="Helvetica,sans-Serif" font-size="10.00">XMLParser.parseXMLFile</text>
</a>
</g>
</g>
<!-- Node22&#45;&gt;Node24 -->
<g id="edge24" class="edge"><title>Node22&#45;&gt;Node24</title>
<path fill="none" stroke="midnightblue" d="M346.064,-291.217C353.25,-288.407 360.093,-284.75 366,-280 394.816,-256.832 373.465,-228.514 402,-205 407.392,-200.557 413.516,-196.927 419.983,-193.962"/>
<polygon fill="midnightblue" stroke="midnightblue" points="421.681,-197.052 429.657,-190.078 419.073,-190.556 421.681,-197.052"/>
</g>
<!-- Node28 -->
<g id="node28" class="node"><title>Node28</title>
<g id="a_node28"><a xlink:href="../../d3/dff/class_cell_society.html#abfbf43ce46b4c82c16a2d933b6a11abf" target="_top" xlink:title="CellSociety.retrieveParserInfo">
<polygon fill="white" stroke="black" points="417.5,-38.5 417.5,-57.5 572.5,-57.5 572.5,-38.5 417.5,-38.5"/>
<text text-anchor="middle" x="495" y="-45.5" font-family="Helvetica,sans-Serif" font-size="10.00">CellSociety.retrieveParserInfo</text>
</a>
</g>
</g>
<!-- Node22&#45;&gt;Node28 -->
<g id="edge28" class="edge"><title>Node22&#45;&gt;Node28</title>
<path fill="none" stroke="midnightblue" d="M346.186,-293.249C353.619,-290.133 360.491,-285.849 366,-280 430.33,-211.709 338.497,-141.061 402,-72 405.383,-68.3206 409.253,-65.1759 413.448,-62.4908"/>
<polygon fill="midnightblue" stroke="midnightblue" points="415.34,-65.446 422.461,-57.6007 412.002,-59.2932 415.34,-65.446"/>
</g>
<!-- Node29 -->
<g id="node29" class="node"><title>Node29</title>
<g id="a_node29"><a xlink:href="../../d2/d95/class_x_m_l_parser.html#aea9b535964c91fa3c3d2b1c0b6a334c2" target="_top" xlink:title="XMLParser.getInitParamMap">
<polygon fill="white" stroke="black" points="638.5,-38.5 638.5,-57.5 787.5,-57.5 787.5,-38.5 638.5,-38.5"/>
<text text-anchor="middle" x="713" y="-45.5" font-family="Helvetica,sans-Serif" font-size="10.00">XMLParser.getInitParamMap</text>
</a>
</g>
</g>
<!-- Node22&#45;&gt;Node29 -->
<g id="edge32" class="edge"><title>Node22&#45;&gt;Node29</title>
<path fill="none" stroke="midnightblue" d="M346.014,-293.084C353.474,-289.994 360.399,-285.761 366,-280 421.351,-223.065 345.263,-160.555 402,-105 410.53,-96.648 551.505,-73.1923 640.377,-59.108"/>
<polygon fill="midnightblue" stroke="midnightblue" points="641.078,-62.5407 650.409,-57.5227 639.986,-55.6265 641.078,-62.5407"/>
</g>
<!-- Node31 -->
<g id="node31" class="node"><title>Node31</title>
<g id="a_node31"><a xlink:href="../../dd/d11/class_cell.html#a7157b57f4ff263ea68e1ff5fc424176e" target="_top" xlink:title="Cell.setCellSize">
<polygon fill="white" stroke="black" points="450.5,-0.5 450.5,-19.5 539.5,-19.5 539.5,-0.5 450.5,-0.5"/>
<text text-anchor="middle" x="495" y="-7.5" font-family="Helvetica,sans-Serif" font-size="10.00">Cell.setCellSize</text>
</a>
</g>
</g>
<!-- Node22&#45;&gt;Node31 -->
<g id="edge31" class="edge"><title>Node22&#45;&gt;Node31</title>
<path fill="none" stroke="midnightblue" d="M346.347,-293.399C353.754,-290.258 360.576,-285.928 366,-280 442.08,-196.859 324.787,-111.09 402,-29 411.891,-18.4845 425.941,-12.9692 440.091,-10.2536"/>
<polygon fill="midnightblue" stroke="midnightblue" points="440.972,-13.6615 450.355,-8.73949 439.951,-6.73648 440.972,-13.6615"/>
</g>
<!-- Node32 -->
<g id="node32" class="node"><title>Node32</title>
<g id="a_node32"><a xlink:href="../../d3/dff/class_cell_society.html#a7a6dab68551f91cc4b120faa51670bf8" target="_top" xlink:title="CellSociety.createCellArray">
<polygon fill="white" stroke="black" points="423,-114.5 423,-133.5 567,-133.5 567,-114.5 423,-114.5"/>
<text text-anchor="middle" x="495" y="-121.5" font-family="Helvetica,sans-Serif" font-size="10.00">CellSociety.createCellArray</text>
</a>
</g>
</g>
<!-- Node22&#45;&gt;Node32 -->
<g id="edge33" class="edge"><title>Node22&#45;&gt;Node32</title>
<path fill="none" stroke="midnightblue" d="M346.37,-292.235C353.591,-289.26 360.358,-285.286 366,-280 406.011,-242.51 365.125,-202.579 402,-162 412.198,-150.777 426.214,-142.784 440.233,-137.124"/>
<polygon fill="midnightblue" stroke="midnightblue" points="441.717,-140.307 449.892,-133.567 439.298,-133.738 441.717,-140.307"/>
</g>
<!-- Node36 -->
<g id="node36" class="node"><title>Node36</title>
<g id="a_node36"><a xlink:href="../../d3/dff/class_cell_society.html#ab9e56a2a70e210e021b51e898508329b" target="_top" xlink:title="CellSociety.setupAnimation">
<polygon fill="white" stroke="black" points="422,-361.5 422,-380.5 568,-380.5 568,-361.5 422,-361.5"/>
<text text-anchor="middle" x="495" y="-368.5" font-family="Helvetica,sans-Serif" font-size="10.00">CellSociety.setupAnimation</text>
</a>
</g>
</g>
<!-- Node22&#45;&gt;Node36 -->
<g id="edge38" class="edge"><title>Node22&#45;&gt;Node36</title>
<path fill="none" stroke="midnightblue" d="M301.957,-309.617C331.099,-322.883 382.479,-345.859 402,-352 410.569,-354.696 419.709,-357.111 428.778,-359.241"/>
<polygon fill="midnightblue" stroke="midnightblue" points="428.037,-362.662 438.561,-361.441 429.573,-355.832 428.037,-362.662"/>
</g>
<!-- Node37 -->
<g id="node37" class="node"><title>Node37</title>
<g id="a_node37"><a xlink:href="../../df/df8/class_cell_society_view.html#a989874eb178e925124f50d7cabcc184c" target="_top" xlink:title="CellSocietyView.setGridGap">
<polygon fill="white" stroke="black" points="421.5,-323.5 421.5,-342.5 568.5,-342.5 568.5,-323.5 421.5,-323.5"/>
<text text-anchor="middle" x="495" y="-330.5" font-family="Helvetica,sans-Serif" font-size="10.00">CellSocietyView.setGridGap</text>
</a>
</g>
</g>
<!-- Node22&#45;&gt;Node37 -->
<g id="edge43" class="edge"><title>Node22&#45;&gt;Node37</title>
<path fill="none" stroke="midnightblue" d="M342.323,-309.501C367.277,-313.367 396.293,-317.862 422.225,-321.88"/>
<polygon fill="midnightblue" stroke="midnightblue" points="421.955,-325.38 432.373,-323.452 423.026,-318.462 421.955,-325.38"/>
</g>
<!-- Node25 -->
<g id="node25" class="node"><title>Node25</title>
<g id="a_node25"><a xlink:href="../../d2/d95/class_x_m_l_parser.html#ae67767f9678fb650ac38b1321ea9f723" target="_top" xlink:title="XMLParser.parseInitialTags">
<polygon fill="white" stroke="black" points="642.5,-190.5 642.5,-209.5 783.5,-209.5 783.5,-190.5 642.5,-190.5"/>
<text text-anchor="middle" x="713" y="-197.5" font-family="Helvetica,sans-Serif" font-size="10.00">XMLParser.parseInitialTags</text>
</a>
</g>
</g>
<!-- Node24&#45;&gt;Node25 -->
<g id="edge25" class="edge"><title>Node24&#45;&gt;Node25</title>
<path fill="none" stroke="midnightblue" d="M560.222,-186.649C582.855,-188.64 608.576,-190.903 632.329,-192.992"/>
<polygon fill="midnightblue" stroke="midnightblue" points="632.106,-196.486 642.374,-193.876 632.719,-189.513 632.106,-196.486"/>
</g>
<!-- Node26 -->
<g id="node26" class="node"><title>Node26</title>
<g id="a_node26"><a xlink:href="../../d2/d95/class_x_m_l_parser.html#a09c6848239104ae94825c045796dddd0" target="_top" xlink:title="XMLParser.makeParamMap">
<polygon fill="white" stroke="black" points="845,-190.5 845,-209.5 991,-209.5 991,-190.5 845,-190.5"/>
<text text-anchor="middle" x="918" y="-197.5" font-family="Helvetica,sans-Serif" font-size="10.00">XMLParser.makeParamMap</text>
</a>
</g>
</g>
<!-- Node25&#45;&gt;Node26 -->
<g id="edge26" class="edge"><title>Node25&#45;&gt;Node26</title>
<path fill="none" stroke="midnightblue" d="M783.577,-200C799.925,-200 817.504,-200 834.362,-200"/>
<polygon fill="midnightblue" stroke="midnightblue" points="834.749,-203.5 844.749,-200 834.749,-196.5 834.749,-203.5"/>
</g>
<!-- Node27 -->
<g id="node27" class="node"><title>Node27</title>
<g id="a_node27"><a xlink:href="../../d2/d95/class_x_m_l_parser.html#a5a419f71699eb7d3d76ee238fb262a5f" target="_top" xlink:title="XMLParser.makeCellParamList">
<polygon fill="white" stroke="black" points="838,-152.5 838,-171.5 998,-171.5 998,-152.5 838,-152.5"/>
<text text-anchor="middle" x="918" y="-159.5" font-family="Helvetica,sans-Serif" font-size="10.00">XMLParser.makeCellParamList</text>
</a>
</g>
</g>
<!-- Node25&#45;&gt;Node27 -->
<g id="edge27" class="edge"><title>Node25&#45;&gt;Node27</title>
<path fill="none" stroke="midnightblue" d="M764.963,-190.46C792.594,-185.288 826.933,-178.86 855.981,-173.422"/>
<polygon fill="midnightblue" stroke="midnightblue" points="856.83,-176.824 866.016,-171.544 855.542,-169.944 856.83,-176.824"/>
</g>
<!-- Node28&#45;&gt;Node29 -->
<g id="edge29" class="edge"><title>Node28&#45;&gt;Node29</title>
<path fill="none" stroke="midnightblue" d="M572.762,-48C590.769,-48 610.043,-48 628.335,-48"/>
<polygon fill="midnightblue" stroke="midnightblue" points="628.382,-51.5001 638.382,-48 628.382,-44.5001 628.382,-51.5001"/>
</g>
<!-- Node30 -->
<g id="node30" class="node"><title>Node30</title>
<g id="a_node30"><a xlink:href="../../d2/d95/class_x_m_l_parser.html#a0df3a2904766f59d1246cb55416f8146" target="_top" xlink:title="XMLParser.getSimParamMap">
<polygon fill="white" stroke="black" points="636,-0.5 636,-19.5 790,-19.5 790,-0.5 636,-0.5"/>
<text text-anchor="middle" x="713" y="-7.5" font-family="Helvetica,sans-Serif" font-size="10.00">XMLParser.getSimParamMap</text>
</a>
</g>
</g>
<!-- Node28&#45;&gt;Node30 -->
<g id="edge30" class="edge"><title>Node28&#45;&gt;Node30</title>
<path fill="none" stroke="midnightblue" d="M550.227,-38.46C579.884,-33.2426 616.804,-26.7475 647.882,-21.28"/>
<polygon fill="midnightblue" stroke="midnightblue" points="648.508,-24.7237 657.751,-19.5439 647.295,-17.8295 648.508,-24.7237"/>
</g>
<!-- Node32&#45;&gt;Node29 -->
<g id="edge34" class="edge"><title>Node32&#45;&gt;Node29</title>
<path fill="none" stroke="midnightblue" d="M550.699,-114.388C563.402,-110.908 576.547,-106.235 588,-100 607.063,-89.6214 604.721,-76.9709 624,-67 628.568,-64.6373 633.416,-62.5681 638.396,-60.756"/>
<polygon fill="midnightblue" stroke="midnightblue" points="639.684,-64.0173 648.098,-57.5784 637.505,-57.365 639.684,-64.0173"/>
</g>
<!-- Node33 -->
<g id="node33" class="node"><title>Node33</title>
<g id="a_node33"><a xlink:href="../../d2/d95/class_x_m_l_parser.html#ac4e3257aed1deb9fe950149f706fce5b" target="_top" xlink:title="XMLParser.getCellParamList">
<polygon fill="white" stroke="black" points="638.5,-76.5 638.5,-95.5 787.5,-95.5 787.5,-76.5 638.5,-76.5"/>
<text text-anchor="middle" x="713" y="-83.5" font-family="Helvetica,sans-Serif" font-size="10.00">XMLParser.getCellParamList</text>
</a>
</g>
</g>
<!-- Node32&#45;&gt;Node33 -->
<g id="edge35" class="edge"><title>Node32&#45;&gt;Node33</title>
<path fill="none" stroke="midnightblue" d="M550.227,-114.46C579.884,-109.243 616.804,-102.747 647.882,-97.28"/>
<polygon fill="midnightblue" stroke="midnightblue" points="648.508,-100.724 657.751,-95.5439 647.295,-93.8295 648.508,-100.724"/>
</g>
<!-- Node34 -->
<g id="node34" class="node"><title>Node34</title>
<g id="a_node34"><a xlink:href="../../d3/dff/class_cell_society.html#a42451b17e2bca5fd025c8d4ea74310ca" target="_top" xlink:title="CellSociety.stringToIntArray">
<polygon fill="white" stroke="black" points="640.5,-152.5 640.5,-171.5 785.5,-171.5 785.5,-152.5 640.5,-152.5"/>
<text text-anchor="middle" x="713" y="-159.5" font-family="Helvetica,sans-Serif" font-size="10.00">CellSociety.stringToIntArray</text>
</a>
</g>
</g>
<!-- Node32&#45;&gt;Node34 -->
<g id="edge36" class="edge"><title>Node32&#45;&gt;Node34</title>
<path fill="none" stroke="midnightblue" d="M550.227,-133.54C579.884,-138.757 616.804,-145.253 647.882,-150.72"/>
<polygon fill="midnightblue" stroke="midnightblue" points="647.295,-154.17 657.751,-152.456 648.508,-147.276 647.295,-154.17"/>
</g>
<!-- Node35 -->
<g id="node35" class="node"><title>Node35</title>
<g id="a_node35"><a xlink:href="../../d3/dff/class_cell_society.html#a117f1698760a3f6bbe51bd7af16f79bb" target="_top" xlink:title="CellSociety.createCellInstance">
<polygon fill="white" stroke="black" points="633.5,-114.5 633.5,-133.5 792.5,-133.5 792.5,-114.5 633.5,-114.5"/>
<text text-anchor="middle" x="713" y="-121.5" font-family="Helvetica,sans-Serif" font-size="10.00">CellSociety.createCellInstance</text>
</a>
</g>
</g>
<!-- Node32&#45;&gt;Node35 -->
<g id="edge37" class="edge"><title>Node32&#45;&gt;Node35</title>
<path fill="none" stroke="midnightblue" d="M567.026,-124C585.057,-124 604.652,-124 623.436,-124"/>
<polygon fill="midnightblue" stroke="midnightblue" points="623.472,-127.5 633.472,-124 623.472,-120.5 623.472,-127.5"/>
</g>
<!-- Node36&#45;&gt;Node5 -->
<g id="edge39" class="edge"><title>Node36&#45;&gt;Node5</title>
<path fill="none" stroke="midnightblue" d="M568.225,-377.353C596.935,-379.879 629.447,-382.738 656.283,-385.099"/>
<polygon fill="midnightblue" stroke="midnightblue" points="656.002,-388.588 666.27,-385.977 656.616,-381.615 656.002,-388.588"/>
</g>
<!-- Node38&#45;&gt;Node21 -->
<g id="edge45" class="edge"><title>Node38&#45;&gt;Node21</title>
<path fill="none" stroke="midnightblue" d="M573.066,-517.291C591.365,-515.936 610.957,-514.485 629.487,-513.112"/>
<polygon fill="midnightblue" stroke="midnightblue" points="629.944,-516.588 639.658,-512.359 629.427,-509.607 629.944,-516.588"/>
</g>
</g>
</svg>
