<?xml version="1.0" encoding="UTF-8" standalone="no"?>
<!DOCTYPE svg PUBLIC "-//W3C//DTD SVG 1.1//EN"
 "http://www.w3.org/Graphics/SVG/1.1/DTD/svg11.dtd">
<!-- Generated by graphviz version 2.36.0 (20140111.2315)
 -->
<!-- Title: CellSociety.readNewXML Pages: 1 -->
<svg width="1142pt" height="668pt"
 viewBox="0.00 0.00 1142.00 667.74" xmlns="http://www.w3.org/2000/svg" xmlns:xlink="http://www.w3.org/1999/xlink">
<g id="graph0" class="graph" transform="scale(1 1) rotate(0) translate(4 663.739)">
<title>CellSociety.readNewXML</title>
<polygon fill="white" stroke="none" points="-4,4 -4,-663.739 1138,-663.739 1138,4 -4,4"/>
<!-- Node1 -->
<g id="node1" class="node"><title>Node1</title>
<polygon fill="#bfbfbf" stroke="black" points="0,-324.248 0,-343.248 132,-343.248 132,-324.248 0,-324.248"/>
<text text-anchor="middle" x="66" y="-331.248" font-family="Helvetica,sans-Serif" font-size="10.00">CellSociety.readNewXML</text>
</g>
<!-- Node2 -->
<g id="node2" class="node"><title>Node2</title>
<g id="a_node2"><a xlink:href="../../d3/dff/class_cell_society.html#a7a6dab68551f91cc4b120faa51670bf8" target="_top" xlink:title="CellSociety.createCellArray">
<polygon fill="white" stroke="black" points="189,-564.248 189,-583.248 333,-583.248 333,-564.248 189,-564.248"/>
<text text-anchor="middle" x="261" y="-571.248" font-family="Helvetica,sans-Serif" font-size="10.00">CellSociety.createCellArray</text>
</a>
</g>
</g>
<!-- Node1&#45;&gt;Node2 -->
<g id="edge1" class="edge"><title>Node1&#45;&gt;Node2</title>
<path fill="none" stroke="midnightblue" d="M68.5113,-343.258C74.395,-377.035 98.964,-492.27 168,-549.748 172.995,-553.907 178.63,-557.354 184.59,-560.21"/>
<polygon fill="midnightblue" stroke="midnightblue" points="183.601,-563.591 194.177,-564.229 186.308,-557.135 183.601,-563.591"/>
</g>
<!-- Node4 -->
<g id="node4" class="node"><title>Node4</title>
<g id="a_node4"><a xlink:href="../../d2/d95/class_x_m_l_parser.html#ac4e3257aed1deb9fe950149f706fce5b" target="_top" xlink:title="XMLParser.getCellParamList">
<polygon fill="white" stroke="black" points="790.5,-507.248 790.5,-526.248 939.5,-526.248 939.5,-507.248 790.5,-507.248"/>
<text text-anchor="middle" x="865" y="-514.248" font-family="Helvetica,sans-Serif" font-size="10.00">XMLParser.getCellParamList</text>
</a>
</g>
</g>
<!-- Node1&#45;&gt;Node4 -->
<g id="edge9" class="edge"><title>Node1&#45;&gt;Node4</title>
<path fill="none" stroke="midnightblue" d="M67.3578,-343.366C69.3738,-382.259 82.5858,-528.864 168,-592.748 381.13,-752.155 738.836,-583.28 837.889,-531.073"/>
<polygon fill="midnightblue" stroke="midnightblue" points="839.732,-534.056 846.909,-526.262 836.438,-527.88 839.732,-534.056"/>
</g>
<!-- Node5 -->
<g id="node5" class="node"><title>Node5</title>
<g id="a_node5"><a xlink:href="../../d2/d95/class_x_m_l_parser.html#aea9b535964c91fa3c3d2b1c0b6a334c2" target="_top" xlink:title="XMLParser.getInitParamMap">
<polygon fill="white" stroke="black" points="395.5,-469.248 395.5,-488.248 544.5,-488.248 544.5,-469.248 395.5,-469.248"/>
<text text-anchor="middle" x="470" y="-476.248" font-family="Helvetica,sans-Serif" font-size="10.00">XMLParser.getInitParamMap</text>
</a>
</g>
</g>
<!-- Node1&#45;&gt;Node5 -->
<g id="edge10" class="edge"><title>Node1&#45;&gt;Node5</title>
<path fill="none" stroke="midnightblue" d="M68.772,-343.275C75.2397,-374.968 100.812,-477.088 168,-516.748 239.189,-558.77 272.751,-531.991 354,-516.748 370.873,-513.583 373.775,-508.358 390,-502.748 401.421,-498.799 413.887,-494.848 425.472,-491.325"/>
<polygon fill="midnightblue" stroke="midnightblue" points="426.806,-494.579 435.376,-488.35 424.792,-487.875 426.806,-494.579"/>
</g>
<!-- Node7 -->
<g id="node7" class="node"><title>Node7</title>
<g id="a_node7"><a xlink:href="../../df/df8/class_cell_society_view.html#a99eb733c00ed7c1bcba8f2d684791a09" target="_top" xlink:title="CellSocietyView.displayFrameRate">
<polygon fill="white" stroke="black" points="172,-488.248 172,-507.248 350,-507.248 350,-488.248 172,-488.248"/>
<text text-anchor="middle" x="261" y="-495.248" font-family="Helvetica,sans-Serif" font-size="10.00">CellSocietyView.displayFrameRate</text>
</a>
</g>
</g>
<!-- Node1&#45;&gt;Node7 -->
<g id="edge6" class="edge"><title>Node1&#45;&gt;Node7</title>
<path fill="none" stroke="midnightblue" d="M70.7025,-343.424C81.348,-369.851 114.73,-443.617 168,-478.748 171.11,-480.799 174.398,-482.636 177.807,-484.279"/>
<polygon fill="midnightblue" stroke="midnightblue" points="176.5,-487.527 187.074,-488.195 179.224,-481.079 176.5,-487.527"/>
</g>
<!-- Node8 -->
<g id="node8" class="node"><title>Node8</title>
<g id="a_node8"><a xlink:href="../../df/df8/class_cell_society_view.html#a053b6ef6afa80722445223c4e373e51c" target="_top" xlink:title="CellSocietyView.displayXMLChooser">
<polygon fill="white" stroke="black" points="168.5,-450.248 168.5,-469.248 353.5,-469.248 353.5,-450.248 168.5,-450.248"/>
<text text-anchor="middle" x="261" y="-457.248" font-family="Helvetica,sans-Serif" font-size="10.00">CellSocietyView.displayXMLChooser</text>
</a>
</g>
</g>
<!-- Node1&#45;&gt;Node8 -->
<g id="edge7" class="edge"><title>Node1&#45;&gt;Node8</title>
<path fill="none" stroke="midnightblue" d="M73.2325,-343.489C87.3301,-364.664 123.898,-414.975 168,-439.748 172.81,-442.45 177.95,-444.787 183.251,-446.808"/>
<polygon fill="midnightblue" stroke="midnightblue" points="182.333,-450.193 192.928,-450.117 184.598,-443.57 182.333,-450.193"/>
</g>
<!-- Node9 -->
<g id="node9" class="node"><title>Node9</title>
<g id="a_node9"><a xlink:href="../../df/df8/class_cell_society_view.html#a930d889b8619ae93731b8542ce285180" target="_top" xlink:title="CellSocietyView.generate\lChartLines">
<polygon fill="white" stroke="black" points="192.5,-400.748 192.5,-430.748 329.5,-430.748 329.5,-400.748 192.5,-400.748"/>
<text text-anchor="start" x="200.5" y="-418.748" font-family="Helvetica,sans-Serif" font-size="10.00">CellSocietyView.generate</text>
<text text-anchor="middle" x="261" y="-407.748" font-family="Helvetica,sans-Serif" font-size="10.00">ChartLines</text>
</a>
</g>
</g>
<!-- Node1&#45;&gt;Node9 -->
<g id="edge8" class="edge"><title>Node1&#45;&gt;Node9</title>
<path fill="none" stroke="midnightblue" d="M81.4738,-343.451C100.579,-355.892 135.591,-377.443 168,-390.748 173.928,-393.182 180.168,-395.452 186.489,-397.551"/>
<polygon fill="midnightblue" stroke="midnightblue" points="185.866,-401.025 196.456,-400.709 187.98,-394.352 185.866,-401.025"/>
</g>
<!-- Node10 -->
<g id="node10" class="node"><title>Node10</title>
<g id="a_node10"><a xlink:href="../../df/df8/class_cell_society_view.html#a657e807b4a00834e06468273d93fa7a5" target="_top" xlink:title="CellSocietyView.openDialogBox">
<polygon fill="white" stroke="black" points="178.5,-362.248 178.5,-381.248 343.5,-381.248 343.5,-362.248 178.5,-362.248"/>
<text text-anchor="middle" x="261" y="-369.248" font-family="Helvetica,sans-Serif" font-size="10.00">CellSocietyView.openDialogBox</text>
</a>
</g>
</g>
<!-- Node1&#45;&gt;Node10 -->
<g id="edge11" class="edge"><title>Node1&#45;&gt;Node10</title>
<path fill="none" stroke="midnightblue" d="M115.702,-343.337C141.859,-348.487 174.284,-354.871 201.767,-360.283"/>
<polygon fill="midnightblue" stroke="midnightblue" points="201.16,-363.73 211.648,-362.228 202.513,-356.862 201.16,-363.73"/>
</g>
<!-- Node11 -->
<g id="node11" class="node"><title>Node11</title>
<g id="a_node11"><a xlink:href="../../d2/d95/class_x_m_l_parser.html#a77ee23818c822b69cdf4200eef726a61" target="_top" xlink:title="XMLParser.parseXMLFile">
<polygon fill="white" stroke="black" points="196,-286.248 196,-305.248 326,-305.248 326,-286.248 196,-286.248"/>
<text text-anchor="middle" x="261" y="-293.248" font-family="Helvetica,sans-Serif" font-size="10.00">XMLParser.parseXMLFile</text>
</a>
</g>
</g>
<!-- Node1&#45;&gt;Node11 -->
<g id="edge12" class="edge"><title>Node1&#45;&gt;Node11</title>
<path fill="none" stroke="midnightblue" d="M115.702,-324.159C141.859,-319.009 174.284,-312.625 201.767,-307.214"/>
<polygon fill="midnightblue" stroke="midnightblue" points="202.513,-310.634 211.648,-305.268 201.16,-303.766 202.513,-310.634"/>
</g>
<!-- Node15 -->
<g id="node15" class="node"><title>Node15</title>
<g id="a_node15"><a xlink:href="../../d3/dff/class_cell_society.html#ae565a305ea53e5a37da9816a236b4fbc" target="_top" xlink:title="CellSociety.pauseAnimation">
<polygon fill="white" stroke="black" points="186.5,-248.248 186.5,-267.248 335.5,-267.248 335.5,-248.248 186.5,-248.248"/>
<text text-anchor="middle" x="261" y="-255.248" font-family="Helvetica,sans-Serif" font-size="10.00">CellSociety.pauseAnimation</text>
</a>
</g>
</g>
<!-- Node1&#45;&gt;Node15 -->
<g id="edge16" class="edge"><title>Node1&#45;&gt;Node15</title>
<path fill="none" stroke="midnightblue" d="M80.7044,-324.173C99.5237,-311.465 134.819,-289.189 168,-276.748 175.194,-274.051 182.856,-271.703 190.57,-269.667"/>
<polygon fill="midnightblue" stroke="midnightblue" points="191.469,-273.05 200.337,-267.252 189.789,-266.254 191.469,-273.05"/>
</g>
<!-- Node17 -->
<g id="node17" class="node"><title>Node17</title>
<g id="a_node17"><a xlink:href="../../d3/dff/class_cell_society.html#abfbf43ce46b4c82c16a2d933b6a11abf" target="_top" xlink:title="CellSociety.retrieveParserInfo">
<polygon fill="white" stroke="black" points="183.5,-324.248 183.5,-343.248 338.5,-343.248 338.5,-324.248 183.5,-324.248"/>
<text text-anchor="middle" x="261" y="-331.248" font-family="Helvetica,sans-Serif" font-size="10.00">CellSociety.retrieveParserInfo</text>
</a>
</g>
</g>
<!-- Node1&#45;&gt;Node17 -->
<g id="edge18" class="edge"><title>Node1&#45;&gt;Node17</title>
<path fill="none" stroke="midnightblue" d="M132.072,-333.748C145.281,-333.748 159.372,-333.748 173.195,-333.748"/>
<polygon fill="midnightblue" stroke="midnightblue" points="173.196,-337.248 183.196,-333.748 173.196,-330.248 173.196,-337.248"/>
</g>
<!-- Node19 -->
<g id="node19" class="node"><title>Node19</title>
<g id="a_node19"><a xlink:href="../../dd/d11/class_cell.html#a7157b57f4ff263ea68e1ff5fc424176e" target="_top" xlink:title="Cell.setCellSize">
<polygon fill="white" stroke="black" points="216.5,-210.248 216.5,-229.248 305.5,-229.248 305.5,-210.248 216.5,-210.248"/>
<text text-anchor="middle" x="261" y="-217.248" font-family="Helvetica,sans-Serif" font-size="10.00">Cell.setCellSize</text>
</a>
</g>
</g>
<!-- Node1&#45;&gt;Node19 -->
<g id="edge21" class="edge"><title>Node1&#45;&gt;Node19</title>
<path fill="none" stroke="midnightblue" d="M74.1441,-324.124C89.1704,-304.633 126.133,-260.504 168,-238.748 179.763,-232.636 193.331,-228.489 206.372,-225.677"/>
<polygon fill="midnightblue" stroke="midnightblue" points="207.049,-229.111 216.203,-223.776 205.72,-222.238 207.049,-229.111"/>
</g>
<!-- Node20 -->
<g id="node20" class="node"><title>Node20</title>
<g id="a_node20"><a xlink:href="../../df/df8/class_cell_society_view.html#a989874eb178e925124f50d7cabcc184c" target="_top" xlink:title="CellSocietyView.setGridGap">
<polygon fill="white" stroke="black" points="187.5,-172.248 187.5,-191.248 334.5,-191.248 334.5,-172.248 187.5,-172.248"/>
<text text-anchor="middle" x="261" y="-179.248" font-family="Helvetica,sans-Serif" font-size="10.00">CellSocietyView.setGridGap</text>
</a>
</g>
</g>
<!-- Node1&#45;&gt;Node20 -->
<g id="edge22" class="edge"><title>Node1&#45;&gt;Node20</title>
<path fill="none" stroke="midnightblue" d="M71.2714,-324.155C82.864,-299.311 117.475,-232.6 168,-200.748 171.225,-198.715 174.628,-196.895 178.15,-195.266"/>
<polygon fill="midnightblue" stroke="midnightblue" points="179.76,-198.389 187.708,-191.384 177.126,-191.904 179.76,-198.389"/>
</g>
<!-- Node21 -->
<g id="node21" class="node"><title>Node21</title>
<g id="a_node21"><a xlink:href="../../d3/dff/class_cell_society.html#ab9e56a2a70e210e021b51e898508329b" target="_top" xlink:title="CellSociety.setupAnimation">
<polygon fill="white" stroke="black" points="188,-134.248 188,-153.248 334,-153.248 334,-134.248 188,-134.248"/>
<text text-anchor="middle" x="261" y="-141.248" font-family="Helvetica,sans-Serif" font-size="10.00">CellSociety.setupAnimation</text>
</a>
</g>
</g>
<!-- Node1&#45;&gt;Node21 -->
<g id="edge23" class="edge"><title>Node1&#45;&gt;Node21</title>
<path fill="none" stroke="midnightblue" d="M69.6548,-324.097C78.2919,-294.628 108.529,-205.248 168,-162.748 171.265,-160.415 174.753,-158.354 178.391,-156.536"/>
<polygon fill="midnightblue" stroke="midnightblue" points="179.918,-159.688 187.698,-152.497 177.131,-153.267 179.918,-159.688"/>
</g>
<!-- Node28 -->
<g id="node28" class="node"><title>Node28</title>
<g id="a_node28"><a xlink:href="../../df/df8/class_cell_society_view.html#a43ac2666d3a002024be53fe74028a576" target="_top" xlink:title="CellSocietyView.updateSimGrid">
<polygon fill="white" stroke="black" points="782.5,-102.248 782.5,-121.248 947.5,-121.248 947.5,-102.248 782.5,-102.248"/>
<text text-anchor="middle" x="865" y="-109.248" font-family="Helvetica,sans-Serif" font-size="10.00">CellSocietyView.updateSimGrid</text>
</a>
</g>
</g>
<!-- Node1&#45;&gt;Node28 -->
<g id="edge35" class="edge"><title>Node1&#45;&gt;Node28</title>
<path fill="none" stroke="midnightblue" d="M68.1907,-323.958C72.9921,-289.29 94.3596,-171.914 168,-124.748 265.44,-62.3396 606.534,-86.0218 772.25,-101.92"/>
<polygon fill="midnightblue" stroke="midnightblue" points="772.133,-105.425 782.425,-102.908 772.809,-98.4578 772.133,-105.425"/>
</g>
<!-- Node30 -->
<g id="node30" class="node"><title>Node30</title>
<g id="a_node30"><a xlink:href="../../df/df8/class_cell_society_view.html#a7ca77bdfdef97e9be9c9941c2f4d3513" target="_top" xlink:title="CellSocietyView.updateChart\lLines">
<polygon fill="white" stroke="black" points="788.5,-52.7482 788.5,-82.7482 941.5,-82.7482 941.5,-52.7482 788.5,-52.7482"/>
<text text-anchor="start" x="796.5" y="-70.7482" font-family="Helvetica,sans-Serif" font-size="10.00">CellSocietyView.updateChart</text>
<text text-anchor="middle" x="865" y="-59.7482" font-family="Helvetica,sans-Serif" font-size="10.00">Lines</text>
</a>
</g>
</g>
<!-- Node1&#45;&gt;Node30 -->
<g id="edge34" class="edge"><title>Node1&#45;&gt;Node30</title>
<path fill="none" stroke="midnightblue" d="M67.3731,-324.005C69.441,-285.297 82.8043,-141.647 168,-82.7482 366.672,54.6014 679.287,-13.3436 806.89,-49.7659"/>
<polygon fill="midnightblue" stroke="midnightblue" points="806.265,-53.2287 816.844,-52.6509 808.214,-46.5054 806.265,-53.2287"/>
</g>
<!-- Node3 -->
<g id="node3" class="node"><title>Node3</title>
<g id="a_node3"><a xlink:href="../../d3/dff/class_cell_society.html#a117f1698760a3f6bbe51bd7af16f79bb" target="_top" xlink:title="CellSociety.createCellInstance">
<polygon fill="white" stroke="black" points="390.5,-583.248 390.5,-602.248 549.5,-602.248 549.5,-583.248 390.5,-583.248"/>
<text text-anchor="middle" x="470" y="-590.248" font-family="Helvetica,sans-Serif" font-size="10.00">CellSociety.createCellInstance</text>
</a>
</g>
</g>
<!-- Node2&#45;&gt;Node3 -->
<g id="edge2" class="edge"><title>Node2&#45;&gt;Node3</title>
<path fill="none" stroke="midnightblue" d="M333.238,-580.287C348.299,-581.669 364.374,-583.145 379.999,-584.579"/>
<polygon fill="midnightblue" stroke="midnightblue" points="379.908,-588.085 390.186,-585.514 380.548,-581.115 379.908,-588.085"/>
</g>
<!-- Node2&#45;&gt;Node4 -->
<g id="edge3" class="edge"><title>Node2&#45;&gt;Node4</title>
<path fill="none" stroke="midnightblue" d="M287.544,-564.112C313.068,-554.976 353.639,-541.778 390,-535.748 525.226,-513.325 684.971,-512.027 780.196,-513.864"/>
<polygon fill="midnightblue" stroke="midnightblue" points="780.273,-517.366 790.344,-514.076 780.42,-510.368 780.273,-517.366"/>
</g>
<!-- Node2&#45;&gt;Node5 -->
<g id="edge4" class="edge"><title>Node2&#45;&gt;Node5</title>
<path fill="none" stroke="midnightblue" d="M322.364,-564.124C333.455,-560.696 344.512,-556.049 354,-549.748 375.92,-535.193 368.374,-517.736 390,-502.748 396.379,-498.328 403.592,-494.703 411.003,-491.736"/>
<polygon fill="midnightblue" stroke="midnightblue" points="412.235,-495.013 420.447,-488.319 409.853,-488.43 412.235,-495.013"/>
</g>
<!-- Node6 -->
<g id="node6" class="node"><title>Node6</title>
<g id="a_node6"><a xlink:href="../../d3/dff/class_cell_society.html#a42451b17e2bca5fd025c8d4ea74310ca" target="_top" xlink:title="CellSociety.stringToIntArray">
<polygon fill="white" stroke="black" points="397.5,-545.248 397.5,-564.248 542.5,-564.248 542.5,-545.248 397.5,-545.248"/>
<text text-anchor="middle" x="470" y="-552.248" font-family="Helvetica,sans-Serif" font-size="10.00">CellSociety.stringToIntArray</text>
</a>
</g>
</g>
<!-- Node2&#45;&gt;Node6 -->
<g id="edge5" class="edge"><title>Node2&#45;&gt;Node6</title>
<path fill="none" stroke="midnightblue" d="M333.238,-567.209C350.541,-565.621 369.182,-563.91 386.942,-562.28"/>
<polygon fill="midnightblue" stroke="midnightblue" points="387.642,-565.731 397.28,-561.331 387.002,-558.76 387.642,-565.731"/>
</g>
<!-- Node12 -->
<g id="node12" class="node"><title>Node12</title>
<g id="a_node12"><a xlink:href="../../d2/d95/class_x_m_l_parser.html#ae67767f9678fb650ac38b1321ea9f723" target="_top" xlink:title="XMLParser.parseInitialTags">
<polygon fill="white" stroke="black" points="399.5,-286.248 399.5,-305.248 540.5,-305.248 540.5,-286.248 399.5,-286.248"/>
<text text-anchor="middle" x="470" y="-293.248" font-family="Helvetica,sans-Serif" font-size="10.00">XMLParser.parseInitialTags</text>
</a>
</g>
</g>
<!-- Node11&#45;&gt;Node12 -->
<g id="edge13" class="edge"><title>Node11&#45;&gt;Node12</title>
<path fill="none" stroke="midnightblue" d="M326.078,-295.748C346.078,-295.748 368.387,-295.748 389.321,-295.748"/>
<polygon fill="midnightblue" stroke="midnightblue" points="389.471,-299.248 399.471,-295.748 389.471,-292.248 389.471,-299.248"/>
</g>
<!-- Node13 -->
<g id="node13" class="node"><title>Node13</title>
<g id="a_node13"><a xlink:href="../../d2/d95/class_x_m_l_parser.html#a09c6848239104ae94825c045796dddd0" target="_top" xlink:title="XMLParser.makeParamMap">
<polygon fill="white" stroke="black" points="593,-267.248 593,-286.248 739,-286.248 739,-267.248 593,-267.248"/>
<text text-anchor="middle" x="666" y="-274.248" font-family="Helvetica,sans-Serif" font-size="10.00">XMLParser.makeParamMap</text>
</a>
</g>
</g>
<!-- Node12&#45;&gt;Node13 -->
<g id="edge14" class="edge"><title>Node12&#45;&gt;Node13</title>
<path fill="none" stroke="midnightblue" d="M540.764,-288.916C554.401,-287.58 568.818,-286.168 582.815,-284.797"/>
<polygon fill="midnightblue" stroke="midnightblue" points="583.303,-288.266 592.915,-283.808 582.621,-281.3 583.303,-288.266"/>
</g>
<!-- Node14 -->
<g id="node14" class="node"><title>Node14</title>
<g id="a_node14"><a xlink:href="../../d2/d95/class_x_m_l_parser.html#a5a419f71699eb7d3d76ee238fb262a5f" target="_top" xlink:title="XMLParser.makeCellParamList">
<polygon fill="white" stroke="black" points="586,-305.248 586,-324.248 746,-324.248 746,-305.248 586,-305.248"/>
<text text-anchor="middle" x="666" y="-312.248" font-family="Helvetica,sans-Serif" font-size="10.00">XMLParser.makeCellParamList</text>
</a>
</g>
</g>
<!-- Node12&#45;&gt;Node14 -->
<g id="edge15" class="edge"><title>Node12&#45;&gt;Node14</title>
<path fill="none" stroke="midnightblue" d="M540.764,-302.581C552.107,-303.692 563.99,-304.855 575.721,-306.004"/>
<polygon fill="midnightblue" stroke="midnightblue" points="575.681,-309.517 585.974,-307.009 576.363,-302.55 575.681,-309.517"/>
</g>
<!-- Node16 -->
<g id="node16" class="node"><title>Node16</title>
<g id="a_node16"><a xlink:href="../../df/df8/class_cell_society_view.html#ae83511f9bf3610b0750d41c4aeb0f778" target="_top" xlink:title="CellSocietyView.setButtons\lPause">
<polygon fill="white" stroke="black" points="397,-236.748 397,-266.748 543,-266.748 543,-236.748 397,-236.748"/>
<text text-anchor="start" x="405" y="-254.748" font-family="Helvetica,sans-Serif" font-size="10.00">CellSocietyView.setButtons</text>
<text text-anchor="middle" x="470" y="-243.748" font-family="Helvetica,sans-Serif" font-size="10.00">Pause</text>
</a>
</g>
</g>
<!-- Node15&#45;&gt;Node16 -->
<g id="edge17" class="edge"><title>Node15&#45;&gt;Node16</title>
<path fill="none" stroke="midnightblue" d="M335.563,-255.616C352.019,-255.139 369.58,-254.63 386.375,-254.143"/>
<polygon fill="midnightblue" stroke="midnightblue" points="386.823,-257.632 396.717,-253.843 386.62,-250.635 386.823,-257.632"/>
</g>
<!-- Node17&#45;&gt;Node5 -->
<g id="edge19" class="edge"><title>Node17&#45;&gt;Node5</title>
<path fill="none" stroke="midnightblue" d="M332.035,-343.327C339.709,-345.789 347.196,-348.876 354,-352.748 400.973,-379.477 439.413,-432.124 457.617,-460.156"/>
<polygon fill="midnightblue" stroke="midnightblue" points="454.886,-462.386 463.193,-468.963 460.8,-458.641 454.886,-462.386"/>
</g>
<!-- Node18 -->
<g id="node18" class="node"><title>Node18</title>
<g id="a_node18"><a xlink:href="../../d2/d95/class_x_m_l_parser.html#a0df3a2904766f59d1246cb55416f8146" target="_top" xlink:title="XMLParser.getSimParamMap">
<polygon fill="white" stroke="black" points="393,-324.248 393,-343.248 547,-343.248 547,-324.248 393,-324.248"/>
<text text-anchor="middle" x="470" y="-331.248" font-family="Helvetica,sans-Serif" font-size="10.00">XMLParser.getSimParamMap</text>
</a>
</g>
</g>
<!-- Node17&#45;&gt;Node18 -->
<g id="edge20" class="edge"><title>Node17&#45;&gt;Node18</title>
<path fill="none" stroke="midnightblue" d="M338.785,-333.748C352.951,-333.748 367.833,-333.748 382.268,-333.748"/>
<polygon fill="midnightblue" stroke="midnightblue" points="382.684,-337.248 392.684,-333.748 382.684,-330.248 382.684,-337.248"/>
</g>
<!-- Node22 -->
<g id="node22" class="node"><title>Node22</title>
<g id="a_node22"><a xlink:href="../../d3/dff/class_cell_society.html#abf13a64ee79f2cb063447b499c695c58" target="_top" xlink:title="CellSociety.start">
<polygon fill="white" stroke="black" points="423.5,-134.248 423.5,-153.248 516.5,-153.248 516.5,-134.248 423.5,-134.248"/>
<text text-anchor="middle" x="470" y="-141.248" font-family="Helvetica,sans-Serif" font-size="10.00">CellSociety.start</text>
</a>
</g>
</g>
<!-- Node21&#45;&gt;Node22 -->
<g id="edge24" class="edge"><title>Node21&#45;&gt;Node22</title>
<path fill="none" stroke="midnightblue" d="M334.108,-143.748C360.04,-143.748 388.876,-143.748 413.209,-143.748"/>
<polygon fill="midnightblue" stroke="midnightblue" points="413.34,-147.248 423.34,-143.748 413.34,-140.248 413.34,-147.248"/>
</g>
<!-- Node23 -->
<g id="node23" class="node"><title>Node23</title>
<g id="a_node23"><a xlink:href="../../d3/dff/class_cell_society.html#a0ff19c30a1cc433d8ea8444f6a5617f1" target="_top" xlink:title="CellSociety.updateGrid">
<polygon fill="white" stroke="black" points="604,-134.248 604,-153.248 728,-153.248 728,-134.248 604,-134.248"/>
<text text-anchor="middle" x="666" y="-141.248" font-family="Helvetica,sans-Serif" font-size="10.00">CellSociety.updateGrid</text>
</a>
</g>
</g>
<!-- Node22&#45;&gt;Node23 -->
<g id="edge25" class="edge"><title>Node22&#45;&gt;Node23</title>
<path fill="none" stroke="midnightblue" d="M516.975,-143.748C539.924,-143.748 568.2,-143.748 593.868,-143.748"/>
<polygon fill="midnightblue" stroke="midnightblue" points="593.933,-147.248 603.933,-143.748 593.933,-140.248 593.933,-147.248"/>
</g>
<!-- Node23&#45;&gt;Node4 -->
<g id="edge32" class="edge"><title>Node23&#45;&gt;Node4</title>
<path fill="none" stroke="midnightblue" d="M674.596,-153.423C689.453,-172.608 722.921,-217.134 746,-257.748 794.94,-343.871 839.592,-453.936 856.661,-497.633"/>
<polygon fill="midnightblue" stroke="midnightblue" points="853.429,-498.979 860.307,-507.037 859.955,-496.448 853.429,-498.979"/>
</g>
<!-- Node24 -->
<g id="node24" class="node"><title>Node24</title>
<g id="a_node24"><a xlink:href="../../d6/d6e/class_sim_controller.html#a10145cee2eaceb4ecad9396a825051d1" target="_top" xlink:title="SimController.runOneSim">
<polygon fill="white" stroke="black" points="796,-151.248 796,-170.248 934,-170.248 934,-151.248 796,-151.248"/>
<text text-anchor="middle" x="865" y="-158.248" font-family="Helvetica,sans-Serif" font-size="10.00">SimController.runOneSim</text>
</a>
</g>
</g>
<!-- Node23&#45;&gt;Node24 -->
<g id="edge26" class="edge"><title>Node23&#45;&gt;Node24</title>
<path fill="none" stroke="midnightblue" d="M728.252,-149.034C746.443,-150.604 766.622,-152.345 785.738,-153.995"/>
<polygon fill="midnightblue" stroke="midnightblue" points="785.66,-157.501 795.924,-154.874 786.262,-150.527 785.66,-157.501"/>
</g>
<!-- Node23&#45;&gt;Node28 -->
<g id="edge30" class="edge"><title>Node23&#45;&gt;Node28</title>
<path fill="none" stroke="midnightblue" d="M725.573,-134.234C747.506,-130.671 772.619,-126.592 795.38,-122.895"/>
<polygon fill="midnightblue" stroke="midnightblue" points="796.003,-126.339 805.312,-121.281 794.881,-119.43 796.003,-126.339"/>
</g>
<!-- Node23&#45;&gt;Node30 -->
<g id="edge33" class="edge"><title>Node23&#45;&gt;Node30</title>
<path fill="none" stroke="midnightblue" d="M686.641,-134.159C709.297,-123.306 747.822,-105.483 782,-92.7482 788.278,-90.4089 794.884,-88.1193 801.508,-85.9343"/>
<polygon fill="midnightblue" stroke="midnightblue" points="802.745,-89.2128 811.189,-82.8141 800.598,-82.5503 802.745,-89.2128"/>
</g>
<!-- Node25 -->
<g id="node25" class="node"><title>Node25</title>
<g id="a_node25"><a xlink:href="../../dd/ddd/class_neighbor.html#ac769186595af20512a2ec4754db75640" target="_top" xlink:title="Neighbor.getNeighbors">
<polygon fill="white" stroke="black" points="995.5,-217.248 995.5,-236.248 1122.5,-236.248 1122.5,-217.248 995.5,-217.248"/>
<text text-anchor="middle" x="1059" y="-224.248" font-family="Helvetica,sans-Serif" font-size="10.00">Neighbor.getNeighbors</text>
</a>
</g>
</g>
<!-- Node24&#45;&gt;Node25 -->
<g id="edge27" class="edge"><title>Node24&#45;&gt;Node25</title>
<path fill="none" stroke="midnightblue" d="M888.359,-170.297C911.898,-180.153 950.164,-195.616 984,-206.748 992.178,-209.439 1000.95,-212.046 1009.49,-214.441"/>
<polygon fill="midnightblue" stroke="midnightblue" points="1008.79,-217.879 1019.36,-217.147 1010.64,-211.128 1008.79,-217.879"/>
</g>
<!-- Node26 -->
<g id="node26" class="node"><title>Node26</title>
<g id="a_node26"><a xlink:href="../../d6/d6e/class_sim_controller.html#a1538c5c647988e5d5b6602c8eb1b8949" target="_top" xlink:title="SimController.getNeighbors\lState">
<polygon fill="white" stroke="black" points="984.5,-167.748 984.5,-197.748 1133.5,-197.748 1133.5,-167.748 984.5,-167.748"/>
<text text-anchor="start" x="992.5" y="-185.748" font-family="Helvetica,sans-Serif" font-size="10.00">SimController.getNeighbors</text>
<text text-anchor="middle" x="1059" y="-174.748" font-family="Helvetica,sans-Serif" font-size="10.00">State</text>
</a>
</g>
</g>
<!-- Node24&#45;&gt;Node26 -->
<g id="edge28" class="edge"><title>Node24&#45;&gt;Node26</title>
<path fill="none" stroke="midnightblue" d="M934.233,-168.566C947.202,-170.053 960.912,-171.623 974.297,-173.157"/>
<polygon fill="midnightblue" stroke="midnightblue" points="974.118,-176.66 984.452,-174.321 974.915,-169.705 974.118,-176.66"/>
</g>
<!-- Node27 -->
<g id="node27" class="node"><title>Node27</title>
<g id="a_node27"><a xlink:href="../../d6/d6e/class_sim_controller.html#a6b7a166a6fd312895c8356d24de980e3" target="_top" xlink:title="SimController.newState">
<polygon fill="white" stroke="black" points="994.5,-129.248 994.5,-148.248 1123.5,-148.248 1123.5,-129.248 994.5,-129.248"/>
<text text-anchor="middle" x="1059" y="-136.248" font-family="Helvetica,sans-Serif" font-size="10.00">SimController.newState</text>
</a>
</g>
</g>
<!-- Node24&#45;&gt;Node27 -->
<g id="edge29" class="edge"><title>Node24&#45;&gt;Node27</title>
<path fill="none" stroke="midnightblue" d="M934.233,-152.93C950.478,-151.068 967.884,-149.074 984.36,-147.186"/>
<polygon fill="midnightblue" stroke="midnightblue" points="984.943,-150.642 994.479,-146.027 984.146,-143.688 984.943,-150.642"/>
</g>
<!-- Node29 -->
<g id="node29" class="node"><title>Node29</title>
<g id="a_node29"><a xlink:href="../../dd/d11/class_cell.html#a1e0ece61fecc69a9b7986d17d925434a" target="_top" xlink:title="Cell.getShape">
<polygon fill="white" stroke="black" points="1017.5,-91.2482 1017.5,-110.248 1100.5,-110.248 1100.5,-91.2482 1017.5,-91.2482"/>
<text text-anchor="middle" x="1059" y="-98.2482" font-family="Helvetica,sans-Serif" font-size="10.00">Cell.getShape</text>
</a>
</g>
</g>
<!-- Node28&#45;&gt;Node29 -->
<g id="edge31" class="edge"><title>Node28&#45;&gt;Node29</title>
<path fill="none" stroke="midnightblue" d="M947.704,-107.067C967.933,-105.908 989.029,-104.7 1007.29,-103.653"/>
<polygon fill="midnightblue" stroke="midnightblue" points="1007.62,-107.141 1017.4,-103.074 1007.22,-100.152 1007.62,-107.141"/>
</g>
</g>
</svg>
