<?xml version="1.0" encoding="UTF-8" standalone="no"?>
<!DOCTYPE svg PUBLIC "-//W3C//DTD SVG 1.1//EN"
 "http://www.w3.org/Graphics/SVG/1.1/DTD/svg11.dtd">
<!-- Generated by graphviz version 2.36.0 (20140111.2315)
 -->
<!-- Title: CellSociety.CellSociety Pages: 1 -->
<!--zoomable 721 -->
<svg id="main" version="1.1" xmlns="http://www.w3.org/2000/svg" xmlns:xlink="http://www.w3.org/1999/xlink" xml:space="preserve" onload="init(evt)">
<style type="text/css"><![CDATA[
.edge:hover path { stroke: red; }
.edge:hover polygon { stroke: red; fill: red; }
]]></style>
<script type="text/javascript"><![CDATA[
var edges = document.getElementsByTagName('g');
if (edges && edges.length) {
  for (var i=0;i<edges.length;i++) {
    if (edges[i].id.substr(0,4)=='edge') {
      edges[i].setAttribute('class','edge');
    }
  }
}
]]></script>
        <defs>
                <circle id="rim" cx="0" cy="0" r="7"/>
                <circle id="rim2" cx="0" cy="0" r="3.5"/>
                <g id="zoomPlus">
                        <use xlink:href="#rim" fill="#404040">
                                <set attributeName="fill" to="#808080" begin="zoomplus.mouseover" end="zoomplus.mouseout"/>
                        </use>
                        <path d="M-4,0h8M0,-4v8" fill="none" stroke="white" stroke-width="1.5" pointer-events="none"/>
                </g>
                <g id="zoomMin">
                        <use xlink:href="#rim" fill="#404040">
                                <set attributeName="fill" to="#808080" begin="zoomminus.mouseover" end="zoomminus.mouseout"/>
                        </use>
                        <path d="M-4,0h8" fill="none" stroke="white" stroke-width="1.5" pointer-events="none"/>
                </g>
                <g id="dirArrow">
                        <path fill="none" stroke="white" stroke-width="1.5" d="M0,-3.0v7 M-2.5,-0.5L0,-3.0L2.5,-0.5"/>
                </g>
               <g id="resetDef">
                       <use xlink:href="#rim2" fill="#404040">
                               <set attributeName="fill" to="#808080" begin="reset.mouseover" end="reset.mouseout"/>
                       </use>
               </g>
        </defs>

<script type="text/javascript">
var viewWidth = 1554;
var viewHeight = 721;
var sectionId = 'dynsection-1';
</script>
<script xlink:href="../../svgpan.js"/>
<svg id="graph" class="graph">
<g id="viewport">
<title>CellSociety.CellSociety</title>
<polygon fill="white" stroke="none" points="-4,4 -4,-717 1550,-717 1550,4 -4,4"/>
<!-- Node1 -->
<g id="node1" class="node"><title>Node1</title>
<polygon fill="#bfbfbf" stroke="black" points="0.5,-429.5 0.5,-448.5 123.5,-448.5 123.5,-429.5 0.5,-429.5"/>
<text text-anchor="middle" x="62" y="-436.5" font-family="Helvetica,sans-Serif" font-size="10.00">CellSociety.CellSociety</text>
</g>
<!-- Node2 -->
<g id="node2" class="node"><title>Node2</title>
<g id="a_node2"><a xlink:href="../../d3/dff/class_cell_society.html#a656ff46d1459fb7f86b42e3c542506ee" target="_top" xlink:title="CellSociety.configureListeners">
<polygon fill="white" stroke="black" points="160,-429.5 160,-448.5 318,-448.5 318,-429.5 160,-429.5"/>
<text text-anchor="middle" x="239" y="-436.5" font-family="Helvetica,sans-Serif" font-size="10.00">CellSociety.configureListeners</text>
</a>
</g>
</g>
<!-- Node1&#45;&gt;Node2 -->
<g id="edge1" class="edge"><title>Node1&#45;&gt;Node2</title>
<path fill="none" stroke="midnightblue" d="M123.715,-439C132.088,-439 140.823,-439 149.57,-439"/>
<polygon fill="midnightblue" stroke="midnightblue" points="149.823,-442.5 159.823,-439 149.823,-435.5 149.823,-442.5"/>
</g>
<!-- Node3 -->
<g id="node3" class="node"><title>Node3</title>
<g id="a_node3"><a xlink:href="../../df/df8/class_cell_society_view.html#aae7c36ea6b5215b0ba9ee01c72dfcb94" target="_top" xlink:title="CellSocietyView.getPlayElement">
<polygon fill="white" stroke="black" points="356,-693.5 356,-712.5 524,-712.5 524,-693.5 356,-693.5"/>
<text text-anchor="middle" x="440" y="-700.5" font-family="Helvetica,sans-Serif" font-size="10.00">CellSocietyView.getPlayElement</text>
</a>
</g>
</g>
<!-- Node2&#45;&gt;Node3 -->
<g id="edge2" class="edge"><title>Node2&#45;&gt;Node3</title>
<path fill="none" stroke="midnightblue" d="M241.399,-448.584C247.313,-485.474 273.774,-619.442 354,-684 356.062,-685.659 358.239,-687.18 360.505,-688.574"/>
<polygon fill="midnightblue" stroke="midnightblue" points="359.157,-691.818 369.641,-693.345 362.398,-685.613 359.157,-691.818"/>
</g>
<!-- Node4 -->
<g id="node4" class="node"><title>Node4</title>
<g id="a_node4"><a xlink:href="../../d3/dff/class_cell_society.html#a6a4056cd40e4162583f2b9845b77a191" target="_top" xlink:title="CellSociety.resumeAnimation">
<polygon fill="white" stroke="black" points="362,-655.5 362,-674.5 518,-674.5 518,-655.5 362,-655.5"/>
<text text-anchor="middle" x="440" y="-662.5" font-family="Helvetica,sans-Serif" font-size="10.00">CellSociety.resumeAnimation</text>
</a>
</g>
</g>
<!-- Node2&#45;&gt;Node4 -->
<g id="edge3" class="edge"><title>Node2&#45;&gt;Node4</title>
<path fill="none" stroke="midnightblue" d="M242.598,-448.768C251.787,-481.386 285.929,-587.502 354,-641 359.427,-645.265 365.574,-648.773 372.019,-651.657"/>
<polygon fill="midnightblue" stroke="midnightblue" points="371.041,-655.033 381.627,-655.452 373.613,-648.523 371.041,-655.033"/>
</g>
<!-- Node6 -->
<g id="node6" class="node"><title>Node6</title>
<g id="a_node6"><a xlink:href="../../df/df8/class_cell_society_view.html#ada088eb9125561f8dd941badb141fa86" target="_top" xlink:title="CellSocietyView.getPause\lElement">
<polygon fill="white" stroke="black" points="371.5,-356 371.5,-386 508.5,-386 508.5,-356 371.5,-356"/>
<text text-anchor="start" x="379.5" y="-374" font-family="Helvetica,sans-Serif" font-size="10.00">CellSocietyView.getPause</text>
<text text-anchor="middle" x="440" y="-363" font-family="Helvetica,sans-Serif" font-size="10.00">Element</text>
</a>
</g>
</g>
<!-- Node2&#45;&gt;Node6 -->
<g id="edge5" class="edge"><title>Node2&#45;&gt;Node6</title>
<path fill="none" stroke="midnightblue" d="M263.833,-429.416C286.769,-420.335 322.511,-406.553 354,-396 360.919,-393.681 368.192,-391.364 375.451,-389.126"/>
<polygon fill="midnightblue" stroke="midnightblue" points="376.755,-392.388 385.305,-386.132 374.72,-385.69 376.755,-392.388"/>
</g>
<!-- Node7 -->
<g id="node7" class="node"><title>Node7</title>
<g id="a_node7"><a xlink:href="../../d3/dff/class_cell_society.html#ae565a305ea53e5a37da9816a236b4fbc" target="_top" xlink:title="CellSociety.pauseAnimation">
<polygon fill="white" stroke="black" points="580.5,-617.5 580.5,-636.5 729.5,-636.5 729.5,-617.5 580.5,-617.5"/>
<text text-anchor="middle" x="655" y="-624.5" font-family="Helvetica,sans-Serif" font-size="10.00">CellSociety.pauseAnimation</text>
</a>
</g>
</g>
<!-- Node2&#45;&gt;Node7 -->
<g id="edge6" class="edge"><title>Node2&#45;&gt;Node7</title>
<path fill="none" stroke="midnightblue" d="M243.297,-448.623C253.91,-477.939 290.263,-566.372 354,-603 424.415,-643.466 519.918,-643.64 584.085,-637.533"/>
<polygon fill="midnightblue" stroke="midnightblue" points="584.516,-641.007 594.106,-636.504 583.801,-634.044 584.516,-641.007"/>
</g>
<!-- Node8 -->
<g id="node8" class="node"><title>Node8</title>
<g id="a_node8"><a xlink:href="../../df/df8/class_cell_society_view.html#a3c3a7039f77d392c374cd309967ca1cc" target="_top" xlink:title="CellSocietyView.getStepElement">
<polygon fill="white" stroke="black" points="354.5,-317.5 354.5,-336.5 525.5,-336.5 525.5,-317.5 354.5,-317.5"/>
<text text-anchor="middle" x="440" y="-324.5" font-family="Helvetica,sans-Serif" font-size="10.00">CellSocietyView.getStepElement</text>
</a>
</g>
</g>
<!-- Node2&#45;&gt;Node8 -->
<g id="edge8" class="edge"><title>Node2&#45;&gt;Node8</title>
<path fill="none" stroke="midnightblue" d="M248.702,-429.382C266.504,-410.329 309.197,-367.759 354,-346 359.016,-343.564 364.35,-341.436 369.807,-339.577"/>
<polygon fill="midnightblue" stroke="midnightblue" points="371.199,-342.81 379.72,-336.514 369.133,-336.122 371.199,-342.81"/>
</g>
<!-- Node9 -->
<g id="node9" class="node"><title>Node9</title>
<g id="a_node9"><a xlink:href="../../d3/dff/class_cell_society.html#a0ff19c30a1cc433d8ea8444f6a5617f1" target="_top" xlink:title="CellSociety.updateGrid">
<polygon fill="white" stroke="black" points="1016,-418.5 1016,-437.5 1140,-437.5 1140,-418.5 1016,-418.5"/>
<text text-anchor="middle" x="1078" y="-425.5" font-family="Helvetica,sans-Serif" font-size="10.00">CellSociety.updateGrid</text>
</a>
</g>
</g>
<!-- Node2&#45;&gt;Node9 -->
<g id="edge9" class="edge"><title>Node2&#45;&gt;Node9</title>
<path fill="none" stroke="midnightblue" d="M245.343,-448.639C259.388,-472.87 300.015,-536.159 354,-561 513.119,-634.219 573.015,-577.753 748,-570 843.392,-565.774 876.178,-592.857 962,-551 1010.18,-527.5 1048.35,-474.553 1066.12,-446.405"/>
<polygon fill="midnightblue" stroke="midnightblue" points="1069.29,-447.926 1071.54,-437.572 1063.33,-444.265 1069.29,-447.926"/>
</g>
<!-- Node17 -->
<g id="node17" class="node"><title>Node17</title>
<g id="a_node17"><a xlink:href="../../df/df8/class_cell_society_view.html#aebad9aaff0e9784fec1518d319e03c85" target="_top" xlink:title="CellSocietyView.getXMLElement">
<polygon fill="white" stroke="black" points="356,-279.5 356,-298.5 524,-298.5 524,-279.5 356,-279.5"/>
<text text-anchor="middle" x="440" y="-286.5" font-family="Helvetica,sans-Serif" font-size="10.00">CellSocietyView.getXMLElement</text>
</a>
</g>
</g>
<!-- Node2&#45;&gt;Node17 -->
<g id="edge19" class="edge"><title>Node2&#45;&gt;Node17</title>
<path fill="none" stroke="midnightblue" d="M245.449,-429.24C259.742,-404.608 300.903,-339.633 354,-308 357.654,-305.823 361.53,-303.896 365.537,-302.188"/>
<polygon fill="midnightblue" stroke="midnightblue" points="366.956,-305.394 375.078,-298.592 364.486,-298.844 366.956,-305.394"/>
</g>
<!-- Node18 -->
<g id="node18" class="node"><title>Node18</title>
<g id="a_node18"><a xlink:href="../../d3/dff/class_cell_society.html#af9f22af39a97a58b26126020ca6c8844" target="_top" xlink:title="CellSociety.readNewXML">
<polygon fill="white" stroke="black" points="374,-405.5 374,-424.5 506,-424.5 506,-405.5 374,-405.5"/>
<text text-anchor="middle" x="440" y="-412.5" font-family="Helvetica,sans-Serif" font-size="10.00">CellSociety.readNewXML</text>
</a>
</g>
</g>
<!-- Node2&#45;&gt;Node18 -->
<g id="edge20" class="edge"><title>Node2&#45;&gt;Node18</title>
<path fill="none" stroke="midnightblue" d="M318.079,-429.583C333.119,-427.77 348.845,-425.873 363.792,-424.07"/>
<polygon fill="midnightblue" stroke="midnightblue" points="364.488,-427.512 373.997,-422.84 363.65,-420.562 364.488,-427.512"/>
</g>
<!-- Node38 -->
<g id="node38" class="node"><title>Node38</title>
<g id="a_node38"><a xlink:href="../../df/df8/class_cell_society_view.html#a572d464cbe7d186dc9a5b0e4a8130689" target="_top" xlink:title="CellSocietyView.getSpeedup\lElement">
<polygon fill="white" stroke="black" points="364,-230 364,-260 516,-260 516,-230 364,-230"/>
<text text-anchor="start" x="372" y="-248" font-family="Helvetica,sans-Serif" font-size="10.00">CellSocietyView.getSpeedup</text>
<text text-anchor="middle" x="440" y="-237" font-family="Helvetica,sans-Serif" font-size="10.00">Element</text>
</a>
</g>
</g>
<!-- Node2&#45;&gt;Node38 -->
<g id="edge50" class="edge"><title>Node2&#45;&gt;Node38</title>
<path fill="none" stroke="midnightblue" d="M243.743,-429.258C255.369,-400.311 293.735,-314.098 354,-270 356.669,-268.047 359.489,-266.246 362.416,-264.585"/>
<polygon fill="midnightblue" stroke="midnightblue" points="364.127,-267.642 371.475,-260.009 360.971,-261.394 364.127,-267.642"/>
</g>
<!-- Node39 -->
<g id="node39" class="node"><title>Node39</title>
<g id="a_node39"><a xlink:href="../../d3/dff/class_cell_society.html#a8250bfacdaf51dabf6b9d1cafc0ce9b2" target="_top" xlink:title="CellSociety.increaseFrameRate">
<polygon fill="white" stroke="black" points="358.5,-532.5 358.5,-551.5 521.5,-551.5 521.5,-532.5 358.5,-532.5"/>
<text text-anchor="middle" x="440" y="-539.5" font-family="Helvetica,sans-Serif" font-size="10.00">CellSociety.increaseFrameRate</text>
</a>
</g>
</g>
<!-- Node2&#45;&gt;Node39 -->
<g id="edge51" class="edge"><title>Node2&#45;&gt;Node39</title>
<path fill="none" stroke="midnightblue" d="M255.593,-448.539C277.306,-461.671 318.034,-485.762 354,-504 371.073,-512.657 390.539,-521.437 406.531,-528.372"/>
<polygon fill="midnightblue" stroke="midnightblue" points="405.417,-531.703 415.987,-532.435 408.181,-525.272 405.417,-531.703"/>
</g>
<!-- Node41 -->
<g id="node41" class="node"><title>Node41</title>
<g id="a_node41"><a xlink:href="../../df/df8/class_cell_society_view.html#a0f616a01579a7293ef781d3e341ea1ac" target="_top" xlink:title="CellSocietyView.getSlowdown\lElement">
<polygon fill="white" stroke="black" points="362.5,-181 362.5,-211 517.5,-211 517.5,-181 362.5,-181"/>
<text text-anchor="start" x="370.5" y="-199" font-family="Helvetica,sans-Serif" font-size="10.00">CellSocietyView.getSlowdown</text>
<text text-anchor="middle" x="440" y="-188" font-family="Helvetica,sans-Serif" font-size="10.00">Element</text>
</a>
</g>
</g>
<!-- Node2&#45;&gt;Node41 -->
<g id="edge55" class="edge"><title>Node2&#45;&gt;Node41</title>
<path fill="none" stroke="midnightblue" d="M242.108,-429.388C250.106,-395.243 281.852,-278.705 354,-220 355.561,-218.73 357.186,-217.527 358.863,-216.387"/>
<polygon fill="midnightblue" stroke="midnightblue" points="360.809,-219.303 367.639,-211.204 357.249,-213.276 360.809,-219.303"/>
</g>
<!-- Node42 -->
<g id="node42" class="node"><title>Node42</title>
<g id="a_node42"><a xlink:href="../../d3/dff/class_cell_society.html#a045267ba1843ca4a47891d7be73c2ac1" target="_top" xlink:title="CellSociety.decreaseFrameRate">
<polygon fill="white" stroke="black" points="356.5,-475.5 356.5,-494.5 523.5,-494.5 523.5,-475.5 356.5,-475.5"/>
<text text-anchor="middle" x="440" y="-482.5" font-family="Helvetica,sans-Serif" font-size="10.00">CellSociety.decreaseFrameRate</text>
</a>
</g>
</g>
<!-- Node2&#45;&gt;Node42 -->
<g id="edge56" class="edge"><title>Node2&#45;&gt;Node42</title>
<path fill="none" stroke="midnightblue" d="M281.233,-448.531C312.184,-455.686 354.75,-465.525 387.868,-473.181"/>
<polygon fill="midnightblue" stroke="midnightblue" points="387.289,-476.639 397.82,-475.481 388.865,-469.819 387.289,-476.639"/>
</g>
<!-- Node5 -->
<g id="node5" class="node"><title>Node5</title>
<g id="a_node5"><a xlink:href="../../df/df8/class_cell_society_view.html#ae83511f9bf3610b0750d41c4aeb0f778" target="_top" xlink:title="CellSocietyView.setButtons\lPause">
<polygon fill="white" stroke="black" points="800,-634 800,-664 946,-664 946,-634 800,-634"/>
<text text-anchor="start" x="808" y="-652" font-family="Helvetica,sans-Serif" font-size="10.00">CellSocietyView.setButtons</text>
<text text-anchor="middle" x="873" y="-641" font-family="Helvetica,sans-Serif" font-size="10.00">Pause</text>
</a>
</g>
</g>
<!-- Node4&#45;&gt;Node5 -->
<g id="edge4" class="edge"><title>Node4&#45;&gt;Node5</title>
<path fill="none" stroke="midnightblue" d="M518.054,-662.14C594.524,-659.301 711.327,-654.965 789.609,-652.059"/>
<polygon fill="midnightblue" stroke="midnightblue" points="790.05,-655.545 799.913,-651.676 789.79,-648.55 790.05,-655.545"/>
</g>
<!-- Node7&#45;&gt;Node5 -->
<g id="edge7" class="edge"><title>Node7&#45;&gt;Node5</title>
<path fill="none" stroke="midnightblue" d="M729.731,-634.51C748.984,-636.471 769.859,-638.597 789.534,-640.601"/>
<polygon fill="midnightblue" stroke="midnightblue" points="789.395,-644.105 799.699,-641.636 790.105,-637.141 789.395,-644.105"/>
</g>
<!-- Node10 -->
<g id="node10" class="node"><title>Node10</title>
<g id="a_node10"><a xlink:href="../../d8/d87/class_controller.html#aa8f10b5f28542d34053a7e4d5f1d6013" target="_top" xlink:title="Controller.runOneSim">
<polygon fill="white" stroke="black" points="1217.5,-418.5 1217.5,-437.5 1336.5,-437.5 1336.5,-418.5 1217.5,-418.5"/>
<text text-anchor="middle" x="1277" y="-425.5" font-family="Helvetica,sans-Serif" font-size="10.00">Controller.runOneSim</text>
</a>
</g>
</g>
<!-- Node9&#45;&gt;Node10 -->
<g id="edge10" class="edge"><title>Node9&#45;&gt;Node10</title>
<path fill="none" stroke="midnightblue" d="M1140.25,-428C1161.51,-428 1185.48,-428 1207.3,-428"/>
<polygon fill="midnightblue" stroke="midnightblue" points="1207.48,-431.5 1217.48,-428 1207.48,-424.5 1207.48,-431.5"/>
</g>
<!-- Node11 -->
<g id="node11" class="node"><title>Node11</title>
<g id="a_node11"><a xlink:href="../../d3/dff/class_cell_society.html#a64ebaee33d25e0e730024e67d5582c63" target="_top" xlink:title="CellSociety.updateColors">
<polygon fill="white" stroke="black" points="1210,-380.5 1210,-399.5 1344,-399.5 1344,-380.5 1210,-380.5"/>
<text text-anchor="middle" x="1277" y="-387.5" font-family="Helvetica,sans-Serif" font-size="10.00">CellSociety.updateColors</text>
</a>
</g>
</g>
<!-- Node9&#45;&gt;Node11 -->
<g id="edge11" class="edge"><title>Node9&#45;&gt;Node11</title>
<path fill="none" stroke="midnightblue" d="M1128.46,-418.46C1155.15,-413.31 1188.3,-406.916 1216.42,-401.494"/>
<polygon fill="midnightblue" stroke="midnightblue" points="1217.37,-404.875 1226.52,-399.544 1216.04,-398.001 1217.37,-404.875"/>
</g>
<!-- Node13 -->
<g id="node13" class="node"><title>Node13</title>
<g id="a_node13"><a xlink:href="../../d2/d95/class_x_m_l_parser.html#ac4e3257aed1deb9fe950149f706fce5b" target="_top" xlink:title="XMLParser.getCellParamList">
<polygon fill="white" stroke="black" points="1396.5,-323.5 1396.5,-342.5 1545.5,-342.5 1545.5,-323.5 1396.5,-323.5"/>
<text text-anchor="middle" x="1471" y="-330.5" font-family="Helvetica,sans-Serif" font-size="10.00">XMLParser.getCellParamList</text>
</a>
</g>
</g>
<!-- Node9&#45;&gt;Node13 -->
<g id="edge16" class="edge"><title>Node9&#45;&gt;Node13</title>
<path fill="none" stroke="midnightblue" d="M1136.21,-418.436C1143.81,-415.975 1151.28,-412.883 1158,-409 1178.14,-397.355 1173.31,-381.632 1194,-371 1253.46,-340.451 1329.16,-331.811 1386.23,-330.328"/>
<polygon fill="midnightblue" stroke="midnightblue" points="1386.37,-333.826 1396.3,-330.135 1386.24,-326.828 1386.37,-333.826"/>
</g>
<!-- Node14 -->
<g id="node14" class="node"><title>Node14</title>
<g id="a_node14"><a xlink:href="../../df/df8/class_cell_society_view.html#a43ac2666d3a002024be53fe74028a576" target="_top" xlink:title="CellSocietyView.updateSimGrid">
<polygon fill="white" stroke="black" points="1194.5,-171.5 1194.5,-190.5 1359.5,-190.5 1359.5,-171.5 1194.5,-171.5"/>
<text text-anchor="middle" x="1277" y="-178.5" font-family="Helvetica,sans-Serif" font-size="10.00">CellSocietyView.updateSimGrid</text>
</a>
</g>
</g>
<!-- Node9&#45;&gt;Node14 -->
<g id="edge14" class="edge"><title>Node9&#45;&gt;Node14</title>
<path fill="none" stroke="midnightblue" d="M1140.19,-419.068C1146.59,-416.49 1152.69,-413.198 1158,-409 1185.76,-387.063 1177.81,-369.459 1194,-338 1219.8,-287.86 1250.72,-228.993 1266.18,-199.63"/>
<polygon fill="midnightblue" stroke="midnightblue" points="1269.4,-201.015 1270.97,-190.537 1263.21,-197.752 1269.4,-201.015"/>
</g>
<!-- Node16 -->
<g id="node16" class="node"><title>Node16</title>
<g id="a_node16"><a xlink:href="../../df/df8/class_cell_society_view.html#a7ca77bdfdef97e9be9c9941c2f4d3513" target="_top" xlink:title="CellSocietyView.updateChart\lLines">
<polygon fill="white" stroke="black" points="1200.5,-457 1200.5,-487 1353.5,-487 1353.5,-457 1200.5,-457"/>
<text text-anchor="start" x="1208.5" y="-475" font-family="Helvetica,sans-Serif" font-size="10.00">CellSocietyView.updateChart</text>
<text text-anchor="middle" x="1277" y="-464" font-family="Helvetica,sans-Serif" font-size="10.00">Lines</text>
</a>
</g>
</g>
<!-- Node9&#45;&gt;Node16 -->
<g id="edge17" class="edge"><title>Node9&#45;&gt;Node16</title>
<path fill="none" stroke="midnightblue" d="M1121.75,-437.547C1144.22,-442.568 1172.48,-448.878 1198.64,-454.721"/>
<polygon fill="midnightblue" stroke="midnightblue" points="1198.03,-458.171 1208.55,-456.935 1199.55,-451.339 1198.03,-458.171"/>
</g>
<!-- Node12 -->
<g id="node12" class="node"><title>Node12</title>
<g id="a_node12"><a xlink:href="../../dd/d11/class_cell.html#a7f8d2520a26a1376a44372149e561f6b" target="_top" xlink:title="Cell.toString">
<polygon fill="white" stroke="black" points="1433.5,-421.5 1433.5,-440.5 1508.5,-440.5 1508.5,-421.5 1433.5,-421.5"/>
<text text-anchor="middle" x="1471" y="-428.5" font-family="Helvetica,sans-Serif" font-size="10.00">Cell.toString</text>
</a>
</g>
</g>
<!-- Node11&#45;&gt;Node12 -->
<g id="edge12" class="edge"><title>Node11&#45;&gt;Node12</title>
<path fill="none" stroke="midnightblue" d="M1322.53,-399.509C1352.79,-405.97 1392.73,-414.499 1423.41,-421.051"/>
<polygon fill="midnightblue" stroke="midnightblue" points="1422.92,-424.526 1433.43,-423.192 1424.39,-417.68 1422.92,-424.526"/>
</g>
<!-- Node11&#45;&gt;Node13 -->
<g id="edge13" class="edge"><title>Node11&#45;&gt;Node13</title>
<path fill="none" stroke="midnightblue" d="M1310.73,-380.474C1325.75,-376.089 1343.79,-370.805 1360,-366 1382.67,-359.282 1407.94,-351.706 1428.54,-345.509"/>
<polygon fill="midnightblue" stroke="midnightblue" points="1429.68,-348.822 1438.25,-342.587 1427.66,-342.119 1429.68,-348.822"/>
</g>
<!-- Node15 -->
<g id="node15" class="node"><title>Node15</title>
<g id="a_node15"><a xlink:href="../../dd/d11/class_cell.html#a1e0ece61fecc69a9b7986d17d925434a" target="_top" xlink:title="Cell.getShape">
<polygon fill="white" stroke="black" points="1429.5,-171.5 1429.5,-190.5 1512.5,-190.5 1512.5,-171.5 1429.5,-171.5"/>
<text text-anchor="middle" x="1471" y="-178.5" font-family="Helvetica,sans-Serif" font-size="10.00">Cell.getShape</text>
</a>
</g>
</g>
<!-- Node14&#45;&gt;Node15 -->
<g id="edge15" class="edge"><title>Node14&#45;&gt;Node15</title>
<path fill="none" stroke="midnightblue" d="M1359.7,-181C1379.93,-181 1401.03,-181 1419.29,-181"/>
<polygon fill="midnightblue" stroke="midnightblue" points="1419.4,-184.5 1429.4,-181 1419.4,-177.5 1419.4,-184.5"/>
</g>
<!-- Node16&#45;&gt;Node12 -->
<g id="edge18" class="edge"><title>Node16&#45;&gt;Node12</title>
<path fill="none" stroke="midnightblue" d="M1348.4,-456.966C1373.37,-451.635 1400.83,-445.771 1423.32,-440.967"/>
<polygon fill="midnightblue" stroke="midnightblue" points="1424.24,-444.352 1433.28,-438.84 1422.77,-437.506 1424.24,-444.352"/>
</g>
<!-- Node18&#45;&gt;Node7 -->
<g id="edge44" class="edge"><title>Node18&#45;&gt;Node7</title>
<path fill="none" stroke="midnightblue" d="M466.213,-424.522C485.093,-432.837 510.274,-446.625 526,-466 556.825,-503.978 531.447,-531.803 562,-570 577.331,-589.166 600.97,-603.614 620.446,-613.168"/>
<polygon fill="midnightblue" stroke="midnightblue" points="619.078,-616.392 629.619,-617.464 622.048,-610.053 619.078,-616.392"/>
</g>
<!-- Node18&#45;&gt;Node13 -->
<g id="edge46" class="edge"><title>Node18&#45;&gt;Node13</title>
<path fill="none" stroke="midnightblue" d="M506.185,-407.659C513.525,-404.625 520.373,-400.521 526,-395 572.163,-349.7 510.922,-293.675 562,-254 627.285,-203.289 670.73,-224.622 748,-254 768.01,-261.608 764.262,-277.712 784,-286 811.33,-297.475 1209.29,-319.441 1386.24,-328.707"/>
<polygon fill="midnightblue" stroke="midnightblue" points="1386.12,-332.206 1396.29,-329.233 1386.49,-325.216 1386.12,-332.206"/>
</g>
<!-- Node18&#45;&gt;Node14 -->
<g id="edge43" class="edge"><title>Node18&#45;&gt;Node14</title>
<path fill="none" stroke="midnightblue" d="M506.225,-408.286C513.652,-405.163 520.511,-400.868 526,-395 592.786,-323.605 492.594,-246.85 562,-178 651.934,-88.785 1053.38,-143.939 1211.6,-169.804"/>
<polygon fill="midnightblue" stroke="midnightblue" points="1211.23,-173.29 1221.67,-171.464 1212.37,-166.383 1211.23,-173.29"/>
</g>
<!-- Node18&#45;&gt;Node16 -->
<g id="edge48" class="edge"><title>Node18&#45;&gt;Node16</title>
<path fill="none" stroke="midnightblue" d="M462.77,-424.632C486.594,-434.633 526.177,-449.683 562,-456 785.878,-495.48 1055.32,-486.616 1190.22,-478.405"/>
<polygon fill="midnightblue" stroke="midnightblue" points="1190.72,-481.88 1200.48,-477.765 1190.28,-474.894 1190.72,-481.88"/>
</g>
<!-- Node19 -->
<g id="node19" class="node"><title>Node19</title>
<g id="a_node19"><a xlink:href="../../df/df8/class_cell_society_view.html#a053b6ef6afa80722445223c4e373e51c" target="_top" xlink:title="CellSocietyView.displayXMLChooser">
<polygon fill="white" stroke="black" points="562.5,-0.5 562.5,-19.5 747.5,-19.5 747.5,-0.5 562.5,-0.5"/>
<text text-anchor="middle" x="655" y="-7.5" font-family="Helvetica,sans-Serif" font-size="10.00">CellSocietyView.displayXMLChooser</text>
</a>
</g>
</g>
<!-- Node18&#45;&gt;Node19 -->
<g id="edge21" class="edge"><title>Node18&#45;&gt;Node19</title>
<path fill="none" stroke="midnightblue" d="M506.18,-408.801C513.71,-405.612 520.609,-401.161 526,-395 579.82,-333.497 507.342,-89.7586 562,-29 563.057,-27.8254 564.165,-26.7125 565.32,-25.6582"/>
<polygon fill="midnightblue" stroke="midnightblue" points="567.629,-28.3025 573.557,-19.521 563.447,-22.6894 567.629,-28.3025"/>
</g>
<!-- Node20 -->
<g id="node20" class="node"><title>Node20</title>
<g id="a_node20"><a xlink:href="../../d2/d95/class_x_m_l_parser.html#a77ee23818c822b69cdf4200eef726a61" target="_top" xlink:title="XMLParser.parseXMLFile">
<polygon fill="white" stroke="black" points="590,-263.5 590,-282.5 720,-282.5 720,-263.5 590,-263.5"/>
<text text-anchor="middle" x="655" y="-270.5" font-family="Helvetica,sans-Serif" font-size="10.00">XMLParser.parseXMLFile</text>
</a>
</g>
</g>
<!-- Node18&#45;&gt;Node20 -->
<g id="edge22" class="edge"><title>Node18&#45;&gt;Node20</title>
<path fill="none" stroke="midnightblue" d="M506.168,-407.015C513.423,-404.077 520.253,-400.172 526,-395 562.045,-362.559 525.514,-323.943 562,-292 567.277,-287.38 573.376,-283.777 579.873,-280.978"/>
<polygon fill="midnightblue" stroke="midnightblue" points="581.427,-284.137 589.628,-277.429 579.034,-277.559 581.427,-284.137"/>
</g>
<!-- Node24 -->
<g id="node24" class="node"><title>Node24</title>
<g id="a_node24"><a xlink:href="../../d3/dff/class_cell_society.html#abfbf43ce46b4c82c16a2d933b6a11abf" target="_top" xlink:title="CellSociety.retrieveParserInfo">
<polygon fill="white" stroke="black" points="577.5,-38.5 577.5,-57.5 732.5,-57.5 732.5,-38.5 577.5,-38.5"/>
<text text-anchor="middle" x="655" y="-45.5" font-family="Helvetica,sans-Serif" font-size="10.00">CellSociety.retrieveParserInfo</text>
</a>
</g>
</g>
<!-- Node18&#45;&gt;Node24 -->
<g id="edge26" class="edge"><title>Node18&#45;&gt;Node24</title>
<path fill="none" stroke="midnightblue" d="M506.105,-408.736C513.647,-405.557 520.569,-401.126 526,-395 621.824,-286.917 467.485,-181.229 562,-72 565.06,-68.464 568.569,-65.4166 572.39,-62.7931"/>
<polygon fill="midnightblue" stroke="midnightblue" points="574.295,-65.735 581.202,-57.7016 570.793,-59.674 574.295,-65.735"/>
</g>
<!-- Node25 -->
<g id="node25" class="node"><title>Node25</title>
<g id="a_node25"><a xlink:href="../../d2/d95/class_x_m_l_parser.html#aea9b535964c91fa3c3d2b1c0b6a334c2" target="_top" xlink:title="XMLParser.getInitParamMap">
<polygon fill="white" stroke="black" points="798.5,-76.5 798.5,-95.5 947.5,-95.5 947.5,-76.5 798.5,-76.5"/>
<text text-anchor="middle" x="873" y="-83.5" font-family="Helvetica,sans-Serif" font-size="10.00">XMLParser.getInitParamMap</text>
</a>
</g>
</g>
<!-- Node18&#45;&gt;Node25 -->
<g id="edge30" class="edge"><title>Node18&#45;&gt;Node25</title>
<path fill="none" stroke="midnightblue" d="M506.022,-408.661C513.577,-405.494 520.524,-401.086 526,-395 611.396,-300.09 469.564,-198.068 562,-110 593.389,-80.0944 707.436,-78.269 788.054,-81.0594"/>
<polygon fill="midnightblue" stroke="midnightblue" points="788.081,-84.5628 798.206,-81.4409 788.344,-77.5677 788.081,-84.5628"/>
</g>
<!-- Node27 -->
<g id="node27" class="node"><title>Node27</title>
<g id="a_node27"><a xlink:href="../../dd/d11/class_cell.html#a7157b57f4ff263ea68e1ff5fc424176e" target="_top" xlink:title="Cell.setCellSize">
<polygon fill="white" stroke="black" points="610.5,-427.5 610.5,-446.5 699.5,-446.5 699.5,-427.5 610.5,-427.5"/>
<text text-anchor="middle" x="655" y="-434.5" font-family="Helvetica,sans-Serif" font-size="10.00">Cell.setCellSize</text>
</a>
</g>
</g>
<!-- Node18&#45;&gt;Node27 -->
<g id="edge29" class="edge"><title>Node18&#45;&gt;Node27</title>
<path fill="none" stroke="midnightblue" d="M506.064,-421.72C536.138,-424.826 571.433,-428.472 600.005,-431.423"/>
<polygon fill="midnightblue" stroke="midnightblue" points="599.898,-434.931 610.205,-432.477 600.618,-427.968 599.898,-434.931"/>
</g>
<!-- Node28 -->
<g id="node28" class="node"><title>Node28</title>
<g id="a_node28"><a xlink:href="../../d3/dff/class_cell_society.html#a7a6dab68551f91cc4b120faa51670bf8" target="_top" xlink:title="CellSociety.createCellArray">
<polygon fill="white" stroke="black" points="583,-187.5 583,-206.5 727,-206.5 727,-187.5 583,-187.5"/>
<text text-anchor="middle" x="655" y="-194.5" font-family="Helvetica,sans-Serif" font-size="10.00">CellSociety.createCellArray</text>
</a>
</g>
</g>
<!-- Node18&#45;&gt;Node28 -->
<g id="edge31" class="edge"><title>Node18&#45;&gt;Node28</title>
<path fill="none" stroke="midnightblue" d="M506.007,-408.078C513.469,-404.989 520.396,-400.758 526,-395 581.08,-338.408 507.606,-278.251 562,-221 565.603,-217.208 569.723,-213.987 574.178,-211.254"/>
<polygon fill="midnightblue" stroke="midnightblue" points="575.873,-214.317 583.109,-206.577 572.626,-208.116 575.873,-214.317"/>
</g>
<!-- Node33 -->
<g id="node33" class="node"><title>Node33</title>
<g id="a_node33"><a xlink:href="../../d3/dff/class_cell_society.html#ab9e56a2a70e210e021b51e898508329b" target="_top" xlink:title="CellSociety.setupAnimation">
<polygon fill="white" stroke="black" points="582,-301.5 582,-320.5 728,-320.5 728,-301.5 582,-301.5"/>
<text text-anchor="middle" x="655" y="-308.5" font-family="Helvetica,sans-Serif" font-size="10.00">CellSociety.setupAnimation</text>
</a>
</g>
</g>
<!-- Node18&#45;&gt;Node33 -->
<g id="edge40" class="edge"><title>Node18&#45;&gt;Node33</title>
<path fill="none" stroke="midnightblue" d="M506.233,-405.713C513.308,-402.984 520.078,-399.484 526,-395 552.329,-375.066 535.4,-349.571 562,-330 565.233,-327.621 568.694,-325.524 572.311,-323.677"/>
<polygon fill="midnightblue" stroke="midnightblue" points="573.845,-326.825 581.576,-319.581 571.015,-320.423 573.845,-326.825"/>
</g>
<!-- Node35 -->
<g id="node35" class="node"><title>Node35</title>
<g id="a_node35"><a xlink:href="../../df/df8/class_cell_society_view.html#a99eb733c00ed7c1bcba8f2d684791a09" target="_top" xlink:title="CellSocietyView.displayFrameRate">
<polygon fill="white" stroke="black" points="784,-522.5 784,-541.5 962,-541.5 962,-522.5 784,-522.5"/>
<text text-anchor="middle" x="873" y="-529.5" font-family="Helvetica,sans-Serif" font-size="10.00">CellSocietyView.displayFrameRate</text>
</a>
</g>
</g>
<!-- Node18&#45;&gt;Node35 -->
<g id="edge45" class="edge"><title>Node18&#45;&gt;Node35</title>
<path fill="none" stroke="midnightblue" d="M457.378,-424.642C474.555,-434.798 502.298,-451.322 526,-466 542.142,-475.996 544.185,-482.433 562,-489 629.972,-514.057 711.228,-524.677 773.495,-529.102"/>
<polygon fill="midnightblue" stroke="midnightblue" points="773.501,-532.61 783.712,-529.785 773.968,-525.626 773.501,-532.61"/>
</g>
<!-- Node36 -->
<g id="node36" class="node"><title>Node36</title>
<g id="a_node36"><a xlink:href="../../df/df8/class_cell_society_view.html#a930d889b8619ae93731b8542ce285180" target="_top" xlink:title="CellSocietyView.generate\lChartLines">
<polygon fill="white" stroke="black" points="586.5,-378 586.5,-408 723.5,-408 723.5,-378 586.5,-378"/>
<text text-anchor="start" x="594.5" y="-396" font-family="Helvetica,sans-Serif" font-size="10.00">CellSocietyView.generate</text>
<text text-anchor="middle" x="655" y="-385" font-family="Helvetica,sans-Serif" font-size="10.00">ChartLines</text>
</a>
</g>
</g>
<!-- Node18&#45;&gt;Node36 -->
<g id="edge47" class="edge"><title>Node18&#45;&gt;Node36</title>
<path fill="none" stroke="midnightblue" d="M506.064,-408.28C528.231,-405.99 553.236,-403.408 576.293,-401.026"/>
<polygon fill="midnightblue" stroke="midnightblue" points="576.799,-404.493 586.386,-399.984 576.079,-397.53 576.799,-404.493"/>
</g>
<!-- Node37 -->
<g id="node37" class="node"><title>Node37</title>
<g id="a_node37"><a xlink:href="../../df/df8/class_cell_society_view.html#a989874eb178e925124f50d7cabcc184c" target="_top" xlink:title="CellSocietyView.setGridGap">
<polygon fill="white" stroke="black" points="581.5,-339.5 581.5,-358.5 728.5,-358.5 728.5,-339.5 581.5,-339.5"/>
<text text-anchor="middle" x="655" y="-346.5" font-family="Helvetica,sans-Serif" font-size="10.00">CellSocietyView.setGridGap</text>
</a>
</g>
</g>
<!-- Node18&#45;&gt;Node37 -->
<g id="edge49" class="edge"><title>Node18&#45;&gt;Node37</title>
<path fill="none" stroke="midnightblue" d="M496.535,-405.426C506.591,-402.721 516.799,-399.301 526,-395 544.118,-386.53 543.768,-376.221 562,-368 567.659,-365.448 573.669,-363.236 579.801,-361.317"/>
<polygon fill="midnightblue" stroke="midnightblue" points="580.853,-364.657 589.503,-358.539 578.926,-357.927 580.853,-364.657"/>
</g>
<!-- Node21 -->
<g id="node21" class="node"><title>Node21</title>
<g id="a_node21"><a xlink:href="../../d2/d95/class_x_m_l_parser.html#ae67767f9678fb650ac38b1321ea9f723" target="_top" xlink:title="XMLParser.parseInitialTags">
<polygon fill="white" stroke="black" points="802.5,-342.5 802.5,-361.5 943.5,-361.5 943.5,-342.5 802.5,-342.5"/>
<text text-anchor="middle" x="873" y="-349.5" font-family="Helvetica,sans-Serif" font-size="10.00">XMLParser.parseInitialTags</text>
</a>
</g>
</g>
<!-- Node20&#45;&gt;Node21 -->
<g id="edge23" class="edge"><title>Node20&#45;&gt;Node21</title>
<path fill="none" stroke="midnightblue" d="M720.061,-281.191C729.757,-283.845 739.387,-287.356 748,-292 767.916,-302.739 764.429,-316.643 784,-328 791.946,-332.611 800.81,-336.365 809.768,-339.413"/>
<polygon fill="midnightblue" stroke="midnightblue" points="808.897,-342.808 819.486,-342.451 810.986,-336.127 808.897,-342.808"/>
</g>
<!-- Node22 -->
<g id="node22" class="node"><title>Node22</title>
<g id="a_node22"><a xlink:href="../../d2/d95/class_x_m_l_parser.html#a09c6848239104ae94825c045796dddd0" target="_top" xlink:title="XMLParser.makeParamMap">
<polygon fill="white" stroke="black" points="1005,-380.5 1005,-399.5 1151,-399.5 1151,-380.5 1005,-380.5"/>
<text text-anchor="middle" x="1078" y="-387.5" font-family="Helvetica,sans-Serif" font-size="10.00">XMLParser.makeParamMap</text>
</a>
</g>
</g>
<!-- Node21&#45;&gt;Node22 -->
<g id="edge24" class="edge"><title>Node21&#45;&gt;Node22</title>
<path fill="none" stroke="midnightblue" d="M924.963,-361.54C952.594,-366.712 986.933,-373.14 1015.98,-378.578"/>
<polygon fill="midnightblue" stroke="midnightblue" points="1015.54,-382.056 1026.02,-380.456 1016.83,-375.176 1015.54,-382.056"/>
</g>
<!-- Node23 -->
<g id="node23" class="node"><title>Node23</title>
<g id="a_node23"><a xlink:href="../../d2/d95/class_x_m_l_parser.html#a5a419f71699eb7d3d76ee238fb262a5f" target="_top" xlink:title="XMLParser.makeCellParamList">
<polygon fill="white" stroke="black" points="998,-342.5 998,-361.5 1158,-361.5 1158,-342.5 998,-342.5"/>
<text text-anchor="middle" x="1078" y="-349.5" font-family="Helvetica,sans-Serif" font-size="10.00">XMLParser.makeCellParamList</text>
</a>
</g>
</g>
<!-- Node21&#45;&gt;Node23 -->
<g id="edge25" class="edge"><title>Node21&#45;&gt;Node23</title>
<path fill="none" stroke="midnightblue" d="M943.577,-352C957.752,-352 972.851,-352 987.604,-352"/>
<polygon fill="midnightblue" stroke="midnightblue" points="987.747,-355.5 997.747,-352 987.747,-348.5 987.747,-355.5"/>
</g>
<!-- Node24&#45;&gt;Node25 -->
<g id="edge27" class="edge"><title>Node24&#45;&gt;Node25</title>
<path fill="none" stroke="midnightblue" d="M710.227,-57.54C739.884,-62.7574 776.804,-69.2525 807.882,-74.72"/>
<polygon fill="midnightblue" stroke="midnightblue" points="807.295,-78.1705 817.751,-76.4561 808.508,-71.2763 807.295,-78.1705"/>
</g>
<!-- Node26 -->
<g id="node26" class="node"><title>Node26</title>
<g id="a_node26"><a xlink:href="../../d2/d95/class_x_m_l_parser.html#a0df3a2904766f59d1246cb55416f8146" target="_top" xlink:title="XMLParser.getSimParamMap">
<polygon fill="white" stroke="black" points="796,-38.5 796,-57.5 950,-57.5 950,-38.5 796,-38.5"/>
<text text-anchor="middle" x="873" y="-45.5" font-family="Helvetica,sans-Serif" font-size="10.00">XMLParser.getSimParamMap</text>
</a>
</g>
</g>
<!-- Node24&#45;&gt;Node26 -->
<g id="edge28" class="edge"><title>Node24&#45;&gt;Node26</title>
<path fill="none" stroke="midnightblue" d="M732.762,-48C749.892,-48 768.17,-48 785.658,-48"/>
<polygon fill="midnightblue" stroke="midnightblue" points="785.849,-51.5001 795.849,-48 785.849,-44.5001 785.849,-51.5001"/>
</g>
<!-- Node28&#45;&gt;Node13 -->
<g id="edge33" class="edge"><title>Node28&#45;&gt;Node13</title>
<path fill="none" stroke="midnightblue" d="M711.862,-206.525C724.254,-209.993 736.972,-214.681 748,-221 767.633,-232.249 763.432,-247.568 784,-257 900.674,-310.503 1233.79,-276.644 1360,-300 1385.22,-304.667 1412.86,-312.975 1434.13,-320.087"/>
<polygon fill="midnightblue" stroke="midnightblue" points="1433.13,-323.443 1443.72,-323.357 1435.39,-316.817 1433.13,-323.443"/>
</g>
<!-- Node28&#45;&gt;Node25 -->
<g id="edge32" class="edge"><title>Node28&#45;&gt;Node25</title>
<path fill="none" stroke="midnightblue" d="M674.791,-187.344C712.944,-167.737 799.648,-123.181 844.294,-100.238"/>
<polygon fill="midnightblue" stroke="midnightblue" points="846.112,-103.239 853.407,-95.555 842.912,-97.0127 846.112,-103.239"/>
</g>
<!-- Node29 -->
<g id="node29" class="node"><title>Node29</title>
<g id="a_node29"><a xlink:href="../../d3/dff/class_cell_society.html#a276d7f4c12da9d40e8720f762b47592a" target="_top" xlink:title="CellSociety.populateProbabilities">
<polygon fill="white" stroke="black" points="788,-152.5 788,-171.5 958,-171.5 958,-152.5 788,-152.5"/>
<text text-anchor="middle" x="873" y="-159.5" font-family="Helvetica,sans-Serif" font-size="10.00">CellSociety.populateProbabilities</text>
</a>
</g>
</g>
<!-- Node28&#45;&gt;Node29 -->
<g id="edge34" class="edge"><title>Node28&#45;&gt;Node29</title>
<path fill="none" stroke="midnightblue" d="M714.738,-187.482C742.116,-183.046 774.871,-177.739 803.382,-173.119"/>
<polygon fill="midnightblue" stroke="midnightblue" points="803.963,-176.57 813.274,-171.516 802.843,-169.66 803.963,-176.57"/>
</g>
<!-- Node30 -->
<g id="node30" class="node"><title>Node30</title>
<g id="a_node30"><a xlink:href="../../d3/dff/class_cell_society.html#a117f1698760a3f6bbe51bd7af16f79bb" target="_top" xlink:title="CellSociety.createCellInstance">
<polygon fill="white" stroke="black" points="998.5,-190.5 998.5,-209.5 1157.5,-209.5 1157.5,-190.5 998.5,-190.5"/>
<text text-anchor="middle" x="1078" y="-197.5" font-family="Helvetica,sans-Serif" font-size="10.00">CellSociety.createCellInstance</text>
</a>
</g>
</g>
<!-- Node28&#45;&gt;Node30 -->
<g id="edge39" class="edge"><title>Node28&#45;&gt;Node30</title>
<path fill="none" stroke="midnightblue" d="M727.417,-197.509C799.374,-198.022 910.579,-198.814 988.182,-199.367"/>
<polygon fill="midnightblue" stroke="midnightblue" points="988.4,-202.869 998.425,-199.44 988.45,-195.869 988.4,-202.869"/>
</g>
<!-- Node31 -->
<g id="node31" class="node"><title>Node31</title>
<g id="a_node31"><a xlink:href="../../d3/dff/class_cell_society.html#a5c0b747b2fbaaa317266890c48e0267f" target="_top" xlink:title="CellSociety.populateLocations">
<polygon fill="white" stroke="black" points="794,-228.5 794,-247.5 952,-247.5 952,-228.5 794,-228.5"/>
<text text-anchor="middle" x="873" y="-235.5" font-family="Helvetica,sans-Serif" font-size="10.00">CellSociety.populateLocations</text>
</a>
</g>
</g>
<!-- Node28&#45;&gt;Node31 -->
<g id="edge36" class="edge"><title>Node28&#45;&gt;Node31</title>
<path fill="none" stroke="midnightblue" d="M706.098,-206.509C737.609,-212.491 778.456,-220.244 811.734,-226.561"/>
<polygon fill="midnightblue" stroke="midnightblue" points="811.323,-230.045 821.8,-228.471 812.628,-223.168 811.323,-230.045"/>
</g>
<!-- Node29&#45;&gt;Node30 -->
<g id="edge35" class="edge"><title>Node29&#45;&gt;Node30</title>
<path fill="none" stroke="midnightblue" d="M924.963,-171.54C952.594,-176.712 986.933,-183.14 1015.98,-188.578"/>
<polygon fill="midnightblue" stroke="midnightblue" points="1015.54,-192.056 1026.02,-190.456 1016.83,-185.176 1015.54,-192.056"/>
</g>
<!-- Node31&#45;&gt;Node30 -->
<g id="edge38" class="edge"><title>Node31&#45;&gt;Node30</title>
<path fill="none" stroke="midnightblue" d="M924.963,-228.46C952.594,-223.288 986.933,-216.86 1015.98,-211.422"/>
<polygon fill="midnightblue" stroke="midnightblue" points="1016.83,-214.824 1026.02,-209.544 1015.54,-207.944 1016.83,-214.824"/>
</g>
<!-- Node32 -->
<g id="node32" class="node"><title>Node32</title>
<g id="a_node32"><a xlink:href="../../d3/dff/class_cell_society.html#a42451b17e2bca5fd025c8d4ea74310ca" target="_top" xlink:title="CellSociety.stringToIntArray">
<polygon fill="white" stroke="black" points="1005.5,-228.5 1005.5,-247.5 1150.5,-247.5 1150.5,-228.5 1005.5,-228.5"/>
<text text-anchor="middle" x="1078" y="-235.5" font-family="Helvetica,sans-Serif" font-size="10.00">CellSociety.stringToIntArray</text>
</a>
</g>
</g>
<!-- Node31&#45;&gt;Node32 -->
<g id="edge37" class="edge"><title>Node31&#45;&gt;Node32</title>
<path fill="none" stroke="midnightblue" d="M952.195,-238C966.305,-238 981.051,-238 995.26,-238"/>
<polygon fill="midnightblue" stroke="midnightblue" points="995.494,-241.5 1005.49,-238 995.494,-234.5 995.494,-241.5"/>
</g>
<!-- Node34 -->
<g id="node34" class="node"><title>Node34</title>
<g id="a_node34"><a xlink:href="../../d3/dff/class_cell_society.html#abf13a64ee79f2cb063447b499c695c58" target="_top" xlink:title="CellSociety.start">
<polygon fill="white" stroke="black" points="826.5,-418.5 826.5,-437.5 919.5,-437.5 919.5,-418.5 826.5,-418.5"/>
<text text-anchor="middle" x="873" y="-425.5" font-family="Helvetica,sans-Serif" font-size="10.00">CellSociety.start</text>
</a>
</g>
</g>
<!-- Node33&#45;&gt;Node34 -->
<g id="edge41" class="edge"><title>Node33&#45;&gt;Node34</title>
<path fill="none" stroke="midnightblue" d="M726.588,-320.606C734.081,-323.065 741.374,-326.145 748,-330 768.96,-342.195 765.65,-355.147 784,-371 803.002,-387.416 827.079,-402.692 845.243,-413.289"/>
<polygon fill="midnightblue" stroke="midnightblue" points="843.727,-416.454 854.145,-418.386 847.206,-410.38 843.727,-416.454"/>
</g>
<!-- Node34&#45;&gt;Node9 -->
<g id="edge42" class="edge"><title>Node34&#45;&gt;Node9</title>
<path fill="none" stroke="midnightblue" d="M919.557,-428C944.856,-428 976.898,-428 1005.46,-428"/>
<polygon fill="midnightblue" stroke="midnightblue" points="1005.81,-431.5 1015.81,-428 1005.81,-424.5 1005.81,-431.5"/>
</g>
<!-- Node40 -->
<g id="node40" class="node"><title>Node40</title>
<g id="a_node40"><a xlink:href="../../d3/dff/class_cell_society.html#adc5feda3db5472cea4e092d463681033" target="_top" xlink:title="CellSociety.reframeTimeline">
<polygon fill="white" stroke="black" points="580.5,-541.5 580.5,-560.5 729.5,-560.5 729.5,-541.5 580.5,-541.5"/>
<text text-anchor="middle" x="655" y="-548.5" font-family="Helvetica,sans-Serif" font-size="10.00">CellSociety.reframeTimeline</text>
</a>
</g>
</g>
<!-- Node39&#45;&gt;Node40 -->
<g id="edge52" class="edge"><title>Node39&#45;&gt;Node40</title>
<path fill="none" stroke="midnightblue" d="M521.526,-545.403C537.375,-546.072 554.041,-546.776 570.001,-547.451"/>
<polygon fill="midnightblue" stroke="midnightblue" points="570.232,-550.964 580.371,-547.889 570.528,-543.97 570.232,-550.964"/>
</g>
<!-- Node40&#45;&gt;Node34 -->
<g id="edge54" class="edge"><title>Node40&#45;&gt;Node34</title>
<path fill="none" stroke="midnightblue" d="M672.949,-541.348C710.646,-519.882 801.62,-468.078 846.327,-442.619"/>
<polygon fill="midnightblue" stroke="midnightblue" points="848.172,-445.597 855.13,-437.607 844.708,-439.514 848.172,-445.597"/>
</g>
<!-- Node40&#45;&gt;Node35 -->
<g id="edge53" class="edge"><title>Node40&#45;&gt;Node35</title>
<path fill="none" stroke="midnightblue" d="M729.731,-544.514C743.831,-543.274 758.801,-541.957 773.533,-540.661"/>
<polygon fill="midnightblue" stroke="midnightblue" points="774.025,-544.132 783.68,-539.769 773.411,-537.159 774.025,-544.132"/>
</g>
<!-- Node42&#45;&gt;Node40 -->
<g id="edge57" class="edge"><title>Node42&#45;&gt;Node40</title>
<path fill="none" stroke="midnightblue" d="M466.77,-494.608C491.135,-503.534 528.806,-516.927 562,-527 575.727,-531.166 590.737,-535.269 604.576,-538.872"/>
<polygon fill="midnightblue" stroke="midnightblue" points="603.855,-542.301 614.411,-541.401 605.598,-535.521 603.855,-542.301"/>
</g>
</g>
</svg>
        <g id="navigator" transform="translate(0 0)" fill="#404254">
                <rect fill="#f2f5e9" fill-opacity="0.5" stroke="#606060" stroke-width=".5" x="0" y="0" width="60" height="60"/>
                <use id="zoomplus" xlink:href="#zoomPlus" x="17" y="9" onmousedown="handleZoom(evt,'in')"/>
                <use id="zoomminus" xlink:href="#zoomMin" x="42" y="9" onmousedown="handleZoom(evt,'out')"/>
                <use id="reset" xlink:href="#resetDef" x="30" y="36" onmousedown="handleReset()"/>
                <g id="arrowUp" xlink:href="#dirArrow" transform="translate(30 24)" onmousedown="handlePan(0,-1)">
                  <use xlink:href="#rim" fill="#404040">
                        <set attributeName="fill" to="#808080" begin="arrowUp.mouseover" end="arrowUp.mouseout"/>
                  </use>
                  <path fill="none" stroke="white" stroke-width="1.5" d="M0,-3.0v7 M-2.5,-0.5L0,-3.0L2.5,-0.5"/>
                </g>
                <g id="arrowRight" xlink:href="#dirArrow" transform="rotate(90) translate(36 -43)" onmousedown="handlePan(1,0)">
                  <use xlink:href="#rim" fill="#404040">
                        <set attributeName="fill" to="#808080" begin="arrowRight.mouseover" end="arrowRight.mouseout"/>
                  </use>
                  <path fill="none" stroke="white" stroke-width="1.5" d="M0,-3.0v7 M-2.5,-0.5L0,-3.0L2.5,-0.5"/>
                </g>
                <g id="arrowDown" xlink:href="#dirArrow" transform="rotate(180) translate(-30 -48)" onmousedown="handlePan(0,1)">
                  <use xlink:href="#rim" fill="#404040">
                        <set attributeName="fill" to="#808080" begin="arrowDown.mouseover" end="arrowDown.mouseout"/>
                  </use>
                  <path fill="none" stroke="white" stroke-width="1.5" d="M0,-3.0v7 M-2.5,-0.5L0,-3.0L2.5,-0.5"/>
                </g>
                <g id="arrowLeft" xlink:href="#dirArrow" transform="rotate(270) translate(-36 17)" onmousedown="handlePan(-1,0)">
                  <use xlink:href="#rim" fill="#404040">
                        <set attributeName="fill" to="#808080" begin="arrowLeft.mouseover" end="arrowLeft.mouseout"/>
                  </use>
                  <path fill="none" stroke="white" stroke-width="1.5" d="M0,-3.0v7 M-2.5,-0.5L0,-3.0L2.5,-0.5"/>
                </g>
        </g>
        <svg viewBox="0 0 15 15" width="100%" height="30px" preserveAspectRatio="xMaxYMin meet">
         <g id="arrow_out" transform="scale(0.3 0.3)">
          <a xlink:href="class_cell_society_ac5e08680a3da358d402461bc25aa1727_cgraph_org.svg" target="_base">
           <rect id="button" ry="5" rx="5" y="6" x="6" height="38" width="38"
                fill="#f2f5e9" fill-opacity="0.5" stroke="#606060" stroke-width="1.0"/>
           <path id="arrow"
             d="M 11.500037,31.436501 C 11.940474,20.09759 22.043105,11.32322 32.158766,21.979434 L 37.068811,17.246167 C 37.068811,17.246167 37.088388,32 37.088388,32 L 22.160133,31.978069 C 22.160133,31.978069 26.997745,27.140456 26.997745,27.140456 C 18.528582,18.264221 13.291696,25.230495 11.500037,31.436501 z"
             style="fill:#404040;"/>
          </a>
         </g>
        </svg>
</svg>
