<?xml version="1.0" encoding="UTF-8" standalone="no"?>
<!DOCTYPE svg PUBLIC "-//W3C//DTD SVG 1.1//EN"
 "http://www.w3.org/Graphics/SVG/1.1/DTD/svg11.dtd">
<!-- Generated by graphviz version 2.36.0 (20140111.2315)
 -->
<!-- Title: CellSociety.readNewXML Pages: 1 -->
<svg width="1086pt" height="687pt"
 viewBox="0.00 0.00 1086.00 687.27" xmlns="http://www.w3.org/2000/svg" xmlns:xlink="http://www.w3.org/1999/xlink">
<g id="graph0" class="graph" transform="scale(1 1) rotate(0) translate(4 683.267)">
<title>CellSociety.readNewXML</title>
<polygon fill="white" stroke="none" points="-4,4 -4,-683.267 1082,-683.267 1082,4 -4,4"/>
<!-- Node1 -->
<g id="node1" class="node"><title>Node1</title>
<polygon fill="#bfbfbf" stroke="black" points="0,-304.021 0,-323.021 132,-323.021 132,-304.021 0,-304.021"/>
<text text-anchor="middle" x="66" y="-311.021" font-family="Helvetica,sans-Serif" font-size="10.00">CellSociety.readNewXML</text>
</g>
<!-- Node2 -->
<g id="node2" class="node"><title>Node2</title>
<g id="a_node2"><a xlink:href="../../d3/dff/class_cell_society.html#a7a6dab68551f91cc4b120faa51670bf8" target="_top" xlink:title="CellSociety.createCellArray">
<polygon fill="white" stroke="black" points="189,-582.021 189,-601.021 333,-601.021 333,-582.021 189,-582.021"/>
<text text-anchor="middle" x="261" y="-589.021" font-family="Helvetica,sans-Serif" font-size="10.00">CellSociety.createCellArray</text>
</a>
</g>
</g>
<!-- Node1&#45;&gt;Node2 -->
<g id="edge1" class="edge"><title>Node1&#45;&gt;Node2</title>
<path fill="none" stroke="midnightblue" d="M68.6486,-323.403C74.9957,-358.585 100.936,-479.323 168,-548.521 181.026,-561.962 199.071,-571.65 215.731,-578.386"/>
<polygon fill="midnightblue" stroke="midnightblue" points="214.74,-581.753 225.332,-582.017 217.216,-575.206 214.74,-581.753"/>
</g>
<!-- Node4 -->
<g id="node4" class="node"><title>Node4</title>
<g id="a_node4"><a xlink:href="../../d2/d95/class_x_m_l_parser.html#ac4e3257aed1deb9fe950149f706fce5b" target="_top" xlink:title="XMLParser.getCellParamList">
<polygon fill="white" stroke="black" points="800.5,-525.021 800.5,-544.021 949.5,-544.021 949.5,-525.021 800.5,-525.021"/>
<text text-anchor="middle" x="875" y="-532.021" font-family="Helvetica,sans-Serif" font-size="10.00">XMLParser.getCellParamList</text>
</a>
</g>
</g>
<!-- Node1&#45;&gt;Node4 -->
<g id="edge13" class="edge"><title>Node1&#45;&gt;Node4</title>
<path fill="none" stroke="midnightblue" d="M68.4931,-323.188C74.1925,-356.372 97.9066,-466.035 168,-510.521 219.302,-543.08 614.265,-539.612 790.068,-536.384"/>
<polygon fill="midnightblue" stroke="midnightblue" points="790.376,-539.879 800.309,-536.192 790.245,-532.88 790.376,-539.879"/>
</g>
<!-- Node5 -->
<g id="node5" class="node"><title>Node5</title>
<g id="a_node5"><a xlink:href="../../d2/d95/class_x_m_l_parser.html#aea9b535964c91fa3c3d2b1c0b6a334c2" target="_top" xlink:title="XMLParser.getInitParamMap">
<polygon fill="white" stroke="black" points="400.5,-487.021 400.5,-506.021 549.5,-506.021 549.5,-487.021 400.5,-487.021"/>
<text text-anchor="middle" x="475" y="-494.021" font-family="Helvetica,sans-Serif" font-size="10.00">XMLParser.getInitParamMap</text>
</a>
</g>
</g>
<!-- Node1&#45;&gt;Node5 -->
<g id="edge14" class="edge"><title>Node1&#45;&gt;Node5</title>
<path fill="none" stroke="midnightblue" d="M69.5381,-323.157C77.8393,-352.514 107.212,-441.049 168,-477.521 244.685,-523.53 352.515,-517.332 417.58,-507.636"/>
<polygon fill="midnightblue" stroke="midnightblue" points="418.307,-511.065 427.644,-506.057 417.222,-504.149 418.307,-511.065"/>
</g>
<!-- Node9 -->
<g id="node9" class="node"><title>Node9</title>
<g id="a_node9"><a xlink:href="../../df/df8/class_cell_society_view.html#a99eb733c00ed7c1bcba8f2d684791a09" target="_top" xlink:title="CellSocietyView.displayFrameRate">
<polygon fill="white" stroke="black" points="172,-449.021 172,-468.021 350,-468.021 350,-449.021 172,-449.021"/>
<text text-anchor="middle" x="261" y="-456.021" font-family="Helvetica,sans-Serif" font-size="10.00">CellSocietyView.displayFrameRate</text>
</a>
</g>
</g>
<!-- Node1&#45;&gt;Node9 -->
<g id="edge10" class="edge"><title>Node1&#45;&gt;Node9</title>
<path fill="none" stroke="midnightblue" d="M71.7713,-323.309C84.0486,-347.378 119.224,-409.658 168,-439.521 171.423,-441.617 175.038,-443.485 178.777,-445.15"/>
<polygon fill="midnightblue" stroke="midnightblue" points="177.698,-448.487 188.285,-448.886 180.257,-441.972 177.698,-448.487"/>
</g>
<!-- Node10 -->
<g id="node10" class="node"><title>Node10</title>
<g id="a_node10"><a xlink:href="../../df/df8/class_cell_society_view.html#a053b6ef6afa80722445223c4e373e51c" target="_top" xlink:title="CellSocietyView.displayXMLChooser">
<polygon fill="white" stroke="black" points="168.5,-411.021 168.5,-430.021 353.5,-430.021 353.5,-411.021 168.5,-411.021"/>
<text text-anchor="middle" x="261" y="-418.021" font-family="Helvetica,sans-Serif" font-size="10.00">CellSocietyView.displayXMLChooser</text>
</a>
</g>
</g>
<!-- Node1&#45;&gt;Node10 -->
<g id="edge11" class="edge"><title>Node1&#45;&gt;Node10</title>
<path fill="none" stroke="midnightblue" d="M75.0773,-323.113C90.9203,-341.262 128.028,-380.589 168,-400.521 173.76,-403.393 179.924,-405.855 186.232,-407.964"/>
<polygon fill="midnightblue" stroke="midnightblue" points="185.641,-411.442 196.226,-410.998 187.674,-404.744 185.641,-411.442"/>
</g>
<!-- Node11 -->
<g id="node11" class="node"><title>Node11</title>
<g id="a_node11"><a xlink:href="../../df/df8/class_cell_society_view.html#a930d889b8619ae93731b8542ce285180" target="_top" xlink:title="CellSocietyView.generate\lChartLines">
<polygon fill="white" stroke="black" points="192.5,-361.521 192.5,-391.521 329.5,-391.521 329.5,-361.521 192.5,-361.521"/>
<text text-anchor="start" x="200.5" y="-379.521" font-family="Helvetica,sans-Serif" font-size="10.00">CellSocietyView.generate</text>
<text text-anchor="middle" x="261" y="-368.521" font-family="Helvetica,sans-Serif" font-size="10.00">ChartLines</text>
</a>
</g>
</g>
<!-- Node1&#45;&gt;Node11 -->
<g id="edge12" class="edge"><title>Node1&#45;&gt;Node11</title>
<path fill="none" stroke="midnightblue" d="M90.4498,-323.064C110.779,-331.164 141.081,-342.821 168,-351.521 175.614,-353.982 183.633,-356.404 191.633,-358.716"/>
<polygon fill="midnightblue" stroke="midnightblue" points="190.777,-362.111 201.352,-361.475 192.688,-355.377 190.777,-362.111"/>
</g>
<!-- Node12 -->
<g id="node12" class="node"><title>Node12</title>
<g id="a_node12"><a xlink:href="../../d2/d95/class_x_m_l_parser.html#a77ee23818c822b69cdf4200eef726a61" target="_top" xlink:title="XMLParser.parseXMLFile">
<polygon fill="white" stroke="black" points="196,-285.021 196,-304.021 326,-304.021 326,-285.021 196,-285.021"/>
<text text-anchor="middle" x="261" y="-292.021" font-family="Helvetica,sans-Serif" font-size="10.00">XMLParser.parseXMLFile</text>
</a>
</g>
</g>
<!-- Node1&#45;&gt;Node12 -->
<g id="edge15" class="edge"><title>Node1&#45;&gt;Node12</title>
<path fill="none" stroke="midnightblue" d="M132.072,-307.115C149.27,-305.422 167.963,-303.581 185.613,-301.844"/>
<polygon fill="midnightblue" stroke="midnightblue" points="186.257,-305.298 195.866,-300.835 185.571,-298.331 186.257,-305.298"/>
</g>
<!-- Node16 -->
<g id="node16" class="node"><title>Node16</title>
<g id="a_node16"><a xlink:href="../../d3/dff/class_cell_society.html#ae565a305ea53e5a37da9816a236b4fbc" target="_top" xlink:title="CellSociety.pauseAnimation">
<polygon fill="white" stroke="black" points="186.5,-247.021 186.5,-266.021 335.5,-266.021 335.5,-247.021 186.5,-247.021"/>
<text text-anchor="middle" x="261" y="-254.021" font-family="Helvetica,sans-Serif" font-size="10.00">CellSociety.pauseAnimation</text>
</a>
</g>
</g>
<!-- Node1&#45;&gt;Node16 -->
<g id="edge19" class="edge"><title>Node1&#45;&gt;Node16</title>
<path fill="none" stroke="midnightblue" d="M89.5216,-303.887C109.767,-295.507 140.466,-283.491 168,-275.521 177.186,-272.862 186.989,-270.424 196.647,-268.246"/>
<polygon fill="midnightblue" stroke="midnightblue" points="197.6,-271.621 206.625,-266.072 196.109,-264.781 197.6,-271.621"/>
</g>
<!-- Node18 -->
<g id="node18" class="node"><title>Node18</title>
<g id="a_node18"><a xlink:href="../../d3/dff/class_cell_society.html#abfbf43ce46b4c82c16a2d933b6a11abf" target="_top" xlink:title="CellSociety.retrieveParserInfo">
<polygon fill="white" stroke="black" points="183.5,-323.021 183.5,-342.021 338.5,-342.021 338.5,-323.021 183.5,-323.021"/>
<text text-anchor="middle" x="261" y="-330.021" font-family="Helvetica,sans-Serif" font-size="10.00">CellSociety.retrieveParserInfo</text>
</a>
</g>
</g>
<!-- Node1&#45;&gt;Node18 -->
<g id="edge21" class="edge"><title>Node1&#45;&gt;Node18</title>
<path fill="none" stroke="midnightblue" d="M132.072,-319.927C145.281,-321.227 159.372,-322.614 173.195,-323.975"/>
<polygon fill="midnightblue" stroke="midnightblue" points="172.901,-327.463 183.196,-324.96 173.587,-320.497 172.901,-327.463"/>
</g>
<!-- Node20 -->
<g id="node20" class="node"><title>Node20</title>
<g id="a_node20"><a xlink:href="../../dd/d11/class_cell.html#a7157b57f4ff263ea68e1ff5fc424176e" target="_top" xlink:title="Cell.setCellSize">
<polygon fill="white" stroke="black" points="216.5,-209.021 216.5,-228.021 305.5,-228.021 305.5,-209.021 216.5,-209.021"/>
<text text-anchor="middle" x="261" y="-216.021" font-family="Helvetica,sans-Serif" font-size="10.00">Cell.setCellSize</text>
</a>
</g>
</g>
<!-- Node1&#45;&gt;Node20 -->
<g id="edge24" class="edge"><title>Node1&#45;&gt;Node20</title>
<path fill="none" stroke="midnightblue" d="M76.6349,-303.878C93.5571,-287.532 130.404,-254.508 168,-237.521 179.845,-232.169 193.231,-228.308 206.051,-225.528"/>
<polygon fill="midnightblue" stroke="midnightblue" points="207.041,-228.9 216.17,-223.523 205.681,-222.034 207.041,-228.9"/>
</g>
<!-- Node21 -->
<g id="node21" class="node"><title>Node21</title>
<g id="a_node21"><a xlink:href="../../df/df8/class_cell_society_view.html#a989874eb178e925124f50d7cabcc184c" target="_top" xlink:title="CellSocietyView.setGridGap">
<polygon fill="white" stroke="black" points="187.5,-171.021 187.5,-190.021 334.5,-190.021 334.5,-171.021 187.5,-171.021"/>
<text text-anchor="middle" x="261" y="-178.021" font-family="Helvetica,sans-Serif" font-size="10.00">CellSocietyView.setGridGap</text>
</a>
</g>
</g>
<!-- Node1&#45;&gt;Node21 -->
<g id="edge25" class="edge"><title>Node1&#45;&gt;Node21</title>
<path fill="none" stroke="midnightblue" d="M72.4155,-304.015C85.6135,-281.788 121.773,-226.279 168,-199.521 171.732,-197.361 175.674,-195.444 179.743,-193.744"/>
<polygon fill="midnightblue" stroke="midnightblue" points="181.268,-196.912 189.43,-190.156 178.837,-190.347 181.268,-196.912"/>
</g>
<!-- Node22 -->
<g id="node22" class="node"><title>Node22</title>
<g id="a_node22"><a xlink:href="../../d3/dff/class_cell_society.html#ab9e56a2a70e210e021b51e898508329b" target="_top" xlink:title="CellSociety.setupAnimation">
<polygon fill="white" stroke="black" points="188,-133.021 188,-152.021 334,-152.021 334,-133.021 188,-133.021"/>
<text text-anchor="middle" x="261" y="-140.021" font-family="Helvetica,sans-Serif" font-size="10.00">CellSociety.setupAnimation</text>
</a>
</g>
</g>
<!-- Node1&#45;&gt;Node22 -->
<g id="edge26" class="edge"><title>Node1&#45;&gt;Node22</title>
<path fill="none" stroke="midnightblue" d="M70.414,-303.779C80.5317,-276.44 113.124,-198.581 168,-161.521 171.326,-159.275 174.863,-157.285 178.539,-155.522"/>
<polygon fill="midnightblue" stroke="midnightblue" points="180.051,-158.684 187.924,-151.595 177.348,-152.227 180.051,-158.684"/>
</g>
<!-- Node26 -->
<g id="node26" class="node"><title>Node26</title>
<g id="a_node26"><a xlink:href="../../df/df8/class_cell_society_view.html#a43ac2666d3a002024be53fe74028a576" target="_top" xlink:title="CellSocietyView.updateSimGrid">
<polygon fill="white" stroke="black" points="792.5,-101.021 792.5,-120.021 957.5,-120.021 957.5,-101.021 792.5,-101.021"/>
<text text-anchor="middle" x="875" y="-108.021" font-family="Helvetica,sans-Serif" font-size="10.00">CellSocietyView.updateSimGrid</text>
</a>
</g>
</g>
<!-- Node1&#45;&gt;Node26 -->
<g id="edge35" class="edge"><title>Node1&#45;&gt;Node26</title>
<path fill="none" stroke="midnightblue" d="M68.6742,-303.693C74.8324,-270.989 99.5402,-165.523 168,-123.521 268.288,-61.9914 615.113,-85.4249 782.375,-101.001"/>
<polygon fill="midnightblue" stroke="midnightblue" points="782.113,-104.492 792.397,-101.945 782.769,-97.5228 782.113,-104.492"/>
</g>
<!-- Node28 -->
<g id="node28" class="node"><title>Node28</title>
<g id="a_node28"><a xlink:href="../../df/df8/class_cell_society_view.html#a7ca77bdfdef97e9be9c9941c2f4d3513" target="_top" xlink:title="CellSocietyView.updateChart\lLines">
<polygon fill="white" stroke="black" points="798.5,-51.5208 798.5,-81.5208 951.5,-81.5208 951.5,-51.5208 798.5,-51.5208"/>
<text text-anchor="start" x="806.5" y="-69.5208" font-family="Helvetica,sans-Serif" font-size="10.00">CellSocietyView.updateChart</text>
<text text-anchor="middle" x="875" y="-58.5208" font-family="Helvetica,sans-Serif" font-size="10.00">Lines</text>
</a>
</g>
</g>
<!-- Node1&#45;&gt;Node28 -->
<g id="edge34" class="edge"><title>Node1&#45;&gt;Node28</title>
<path fill="none" stroke="midnightblue" d="M67.7302,-303.785C71.0712,-267.003 88.3831,-135.902 168,-82.5208 371.453,53.8894 687.361,-12.8772 816.271,-48.7699"/>
<polygon fill="midnightblue" stroke="midnightblue" points="815.385,-52.1565 825.96,-51.5081 817.289,-45.4204 815.385,-52.1565"/>
</g>
<!-- Node3 -->
<g id="node3" class="node"><title>Node3</title>
<g id="a_node3"><a xlink:href="../../d3/dff/class_cell_society.html#a117f1698760a3f6bbe51bd7af16f79bb" target="_top" xlink:title="CellSociety.createCellInstance">
<polygon fill="white" stroke="black" points="596.5,-639.021 596.5,-658.021 755.5,-658.021 755.5,-639.021 596.5,-639.021"/>
<text text-anchor="middle" x="676" y="-646.021" font-family="Helvetica,sans-Serif" font-size="10.00">CellSociety.createCellInstance</text>
</a>
</g>
</g>
<!-- Node2&#45;&gt;Node3 -->
<g id="edge2" class="edge"><title>Node2&#45;&gt;Node3</title>
<path fill="none" stroke="midnightblue" d="M273.359,-601.204C294.575,-618.579 342.399,-654.454 390,-667.521 472.78,-690.244 573.923,-673.549 630.744,-660.355"/>
<polygon fill="midnightblue" stroke="midnightblue" points="631.574,-663.755 640.486,-658.025 629.946,-656.947 631.574,-663.755"/>
</g>
<!-- Node2&#45;&gt;Node4 -->
<g id="edge3" class="edge"><title>Node2&#45;&gt;Node4</title>
<path fill="none" stroke="midnightblue" d="M333.238,-586.023C429.313,-578.448 605.708,-563.974 756,-548.521 767.111,-547.378 778.799,-546.093 790.325,-544.776"/>
<polygon fill="midnightblue" stroke="midnightblue" points="790.86,-548.238 800.393,-543.614 790.057,-541.284 790.86,-548.238"/>
</g>
<!-- Node2&#45;&gt;Node5 -->
<g id="edge4" class="edge"><title>Node2&#45;&gt;Node5</title>
<path fill="none" stroke="midnightblue" d="M283.494,-581.889C321.368,-564.917 400.086,-529.643 443.542,-510.169"/>
<polygon fill="midnightblue" stroke="midnightblue" points="445.07,-513.32 452.764,-506.037 442.207,-506.932 445.07,-513.32"/>
</g>
<!-- Node6 -->
<g id="node6" class="node"><title>Node6</title>
<g id="a_node6"><a xlink:href="../../d3/dff/class_cell_society.html#a5c0b747b2fbaaa317266890c48e0267f" target="_top" xlink:title="CellSociety.populateLocations">
<polygon fill="white" stroke="black" points="396,-601.021 396,-620.021 554,-620.021 554,-601.021 396,-601.021"/>
<text text-anchor="middle" x="475" y="-608.021" font-family="Helvetica,sans-Serif" font-size="10.00">CellSociety.populateLocations</text>
</a>
</g>
</g>
<!-- Node2&#45;&gt;Node6 -->
<g id="edge5" class="edge"><title>Node2&#45;&gt;Node6</title>
<path fill="none" stroke="midnightblue" d="M333.183,-597.9C349.975,-599.405 368.079,-601.028 385.531,-602.592"/>
<polygon fill="midnightblue" stroke="midnightblue" points="385.444,-606.098 395.717,-603.505 386.069,-599.126 385.444,-606.098"/>
</g>
<!-- Node8 -->
<g id="node8" class="node"><title>Node8</title>
<g id="a_node8"><a xlink:href="../../d3/dff/class_cell_society.html#a276d7f4c12da9d40e8720f762b47592a" target="_top" xlink:title="CellSociety.populateProbabilities">
<polygon fill="white" stroke="black" points="390,-639.021 390,-658.021 560,-658.021 560,-639.021 390,-639.021"/>
<text text-anchor="middle" x="475" y="-646.021" font-family="Helvetica,sans-Serif" font-size="10.00">CellSociety.populateProbabilities</text>
</a>
</g>
</g>
<!-- Node2&#45;&gt;Node8 -->
<g id="edge8" class="edge"><title>Node2&#45;&gt;Node8</title>
<path fill="none" stroke="midnightblue" d="M292.101,-601.07C317.94,-609.12 356.246,-620.703 390,-629.521 399.548,-632.015 409.756,-634.486 419.649,-636.78"/>
<polygon fill="midnightblue" stroke="midnightblue" points="418.872,-640.193 429.401,-639.009 420.432,-633.369 418.872,-640.193"/>
</g>
<!-- Node6&#45;&gt;Node3 -->
<g id="edge6" class="edge"><title>Node6&#45;&gt;Node3</title>
<path fill="none" stroke="midnightblue" d="M525.959,-620.061C553.045,-625.233 586.708,-631.661 615.183,-637.099"/>
<polygon fill="midnightblue" stroke="midnightblue" points="614.541,-640.539 625.02,-638.977 615.854,-633.663 614.541,-640.539"/>
</g>
<!-- Node7 -->
<g id="node7" class="node"><title>Node7</title>
<g id="a_node7"><a xlink:href="../../d3/dff/class_cell_society.html#a42451b17e2bca5fd025c8d4ea74310ca" target="_top" xlink:title="CellSociety.stringToIntArray">
<polygon fill="white" stroke="black" points="603.5,-601.021 603.5,-620.021 748.5,-620.021 748.5,-601.021 603.5,-601.021"/>
<text text-anchor="middle" x="676" y="-608.021" font-family="Helvetica,sans-Serif" font-size="10.00">CellSociety.stringToIntArray</text>
</a>
</g>
</g>
<!-- Node6&#45;&gt;Node7 -->
<g id="edge7" class="edge"><title>Node6&#45;&gt;Node7</title>
<path fill="none" stroke="midnightblue" d="M554.079,-610.521C566.881,-610.521 580.18,-610.521 593.072,-610.521"/>
<polygon fill="midnightblue" stroke="midnightblue" points="593.307,-614.021 603.307,-610.521 593.307,-607.021 593.307,-614.021"/>
</g>
<!-- Node8&#45;&gt;Node3 -->
<g id="edge9" class="edge"><title>Node8&#45;&gt;Node3</title>
<path fill="none" stroke="midnightblue" d="M560.105,-648.521C568.721,-648.521 577.494,-648.521 586.158,-648.521"/>
<polygon fill="midnightblue" stroke="midnightblue" points="586.263,-652.021 596.263,-648.521 586.263,-645.021 586.263,-652.021"/>
</g>
<!-- Node13 -->
<g id="node13" class="node"><title>Node13</title>
<g id="a_node13"><a xlink:href="../../d2/d95/class_x_m_l_parser.html#ae67767f9678fb650ac38b1321ea9f723" target="_top" xlink:title="XMLParser.parseInitialTags">
<polygon fill="white" stroke="black" points="404.5,-285.021 404.5,-304.021 545.5,-304.021 545.5,-285.021 404.5,-285.021"/>
<text text-anchor="middle" x="475" y="-292.021" font-family="Helvetica,sans-Serif" font-size="10.00">XMLParser.parseInitialTags</text>
</a>
</g>
</g>
<!-- Node12&#45;&gt;Node13 -->
<g id="edge16" class="edge"><title>Node12&#45;&gt;Node13</title>
<path fill="none" stroke="midnightblue" d="M326.182,-294.521C347.636,-294.521 371.812,-294.521 394.301,-294.521"/>
<polygon fill="midnightblue" stroke="midnightblue" points="394.5,-298.021 404.5,-294.521 394.5,-291.021 394.5,-298.021"/>
</g>
<!-- Node14 -->
<g id="node14" class="node"><title>Node14</title>
<g id="a_node14"><a xlink:href="../../d2/d95/class_x_m_l_parser.html#a09c6848239104ae94825c045796dddd0" target="_top" xlink:title="XMLParser.makeParamMap">
<polygon fill="white" stroke="black" points="603,-266.021 603,-285.021 749,-285.021 749,-266.021 603,-266.021"/>
<text text-anchor="middle" x="676" y="-273.021" font-family="Helvetica,sans-Serif" font-size="10.00">XMLParser.makeParamMap</text>
</a>
</g>
</g>
<!-- Node13&#45;&gt;Node14 -->
<g id="edge17" class="edge"><title>Node13&#45;&gt;Node14</title>
<path fill="none" stroke="midnightblue" d="M545.601,-287.876C560.771,-286.427 576.964,-284.881 592.578,-283.39"/>
<polygon fill="midnightblue" stroke="midnightblue" points="593.117,-286.855 602.739,-282.42 592.451,-279.887 593.117,-286.855"/>
</g>
<!-- Node15 -->
<g id="node15" class="node"><title>Node15</title>
<g id="a_node15"><a xlink:href="../../d2/d95/class_x_m_l_parser.html#a5a419f71699eb7d3d76ee238fb262a5f" target="_top" xlink:title="XMLParser.makeCellParamList">
<polygon fill="white" stroke="black" points="596,-304.021 596,-323.021 756,-323.021 756,-304.021 596,-304.021"/>
<text text-anchor="middle" x="676" y="-311.021" font-family="Helvetica,sans-Serif" font-size="10.00">XMLParser.makeCellParamList</text>
</a>
</g>
</g>
<!-- Node13&#45;&gt;Node15 -->
<g id="edge18" class="edge"><title>Node13&#45;&gt;Node15</title>
<path fill="none" stroke="midnightblue" d="M545.601,-301.166C558.551,-302.403 572.247,-303.71 585.692,-304.994"/>
<polygon fill="midnightblue" stroke="midnightblue" points="585.62,-308.503 595.908,-305.969 586.286,-301.535 585.62,-308.503"/>
</g>
<!-- Node17 -->
<g id="node17" class="node"><title>Node17</title>
<g id="a_node17"><a xlink:href="../../df/df8/class_cell_society_view.html#ae83511f9bf3610b0750d41c4aeb0f778" target="_top" xlink:title="CellSocietyView.setButtons\lPause">
<polygon fill="white" stroke="black" points="402,-235.521 402,-265.521 548,-265.521 548,-235.521 402,-235.521"/>
<text text-anchor="start" x="410" y="-253.521" font-family="Helvetica,sans-Serif" font-size="10.00">CellSocietyView.setButtons</text>
<text text-anchor="middle" x="475" y="-242.521" font-family="Helvetica,sans-Serif" font-size="10.00">Pause</text>
</a>
</g>
</g>
<!-- Node16&#45;&gt;Node17 -->
<g id="edge20" class="edge"><title>Node16&#45;&gt;Node17</title>
<path fill="none" stroke="midnightblue" d="M335.552,-254.439C353.614,-253.928 373.067,-253.377 391.519,-252.855"/>
<polygon fill="midnightblue" stroke="midnightblue" points="391.755,-256.35 401.652,-252.568 391.557,-249.353 391.755,-256.35"/>
</g>
<!-- Node18&#45;&gt;Node5 -->
<g id="edge22" class="edge"><title>Node18&#45;&gt;Node5</title>
<path fill="none" stroke="midnightblue" d="M333.178,-342.094C340.482,-344.563 347.571,-347.654 354,-351.521 406.553,-383.134 446.549,-446.332 464.152,-477.81"/>
<polygon fill="midnightblue" stroke="midnightblue" points="461.211,-479.727 469.068,-486.835 467.358,-476.379 461.211,-479.727"/>
</g>
<!-- Node19 -->
<g id="node19" class="node"><title>Node19</title>
<g id="a_node19"><a xlink:href="../../d2/d95/class_x_m_l_parser.html#a0df3a2904766f59d1246cb55416f8146" target="_top" xlink:title="XMLParser.getSimParamMap">
<polygon fill="white" stroke="black" points="398,-323.021 398,-342.021 552,-342.021 552,-323.021 398,-323.021"/>
<text text-anchor="middle" x="475" y="-330.021" font-family="Helvetica,sans-Serif" font-size="10.00">XMLParser.getSimParamMap</text>
</a>
</g>
</g>
<!-- Node18&#45;&gt;Node19 -->
<g id="edge23" class="edge"><title>Node18&#45;&gt;Node19</title>
<path fill="none" stroke="midnightblue" d="M338.537,-332.521C354.546,-332.521 371.53,-332.521 387.861,-332.521"/>
<polygon fill="midnightblue" stroke="midnightblue" points="387.931,-336.021 397.931,-332.521 387.931,-329.021 387.931,-336.021"/>
</g>
<!-- Node23 -->
<g id="node23" class="node"><title>Node23</title>
<g id="a_node23"><a xlink:href="../../d3/dff/class_cell_society.html#abf13a64ee79f2cb063447b499c695c58" target="_top" xlink:title="CellSociety.start">
<polygon fill="white" stroke="black" points="428.5,-133.021 428.5,-152.021 521.5,-152.021 521.5,-133.021 428.5,-133.021"/>
<text text-anchor="middle" x="475" y="-140.021" font-family="Helvetica,sans-Serif" font-size="10.00">CellSociety.start</text>
</a>
</g>
</g>
<!-- Node22&#45;&gt;Node23 -->
<g id="edge27" class="edge"><title>Node22&#45;&gt;Node23</title>
<path fill="none" stroke="midnightblue" d="M334.069,-142.521C361.5,-142.521 392.319,-142.521 418.038,-142.521"/>
<polygon fill="midnightblue" stroke="midnightblue" points="418.356,-146.021 428.356,-142.521 418.356,-139.021 418.356,-146.021"/>
</g>
<!-- Node24 -->
<g id="node24" class="node"><title>Node24</title>
<g id="a_node24"><a xlink:href="../../d3/dff/class_cell_society.html#a0ff19c30a1cc433d8ea8444f6a5617f1" target="_top" xlink:title="CellSociety.updateGrid">
<polygon fill="white" stroke="black" points="614,-133.021 614,-152.021 738,-152.021 738,-133.021 614,-133.021"/>
<text text-anchor="middle" x="676" y="-140.021" font-family="Helvetica,sans-Serif" font-size="10.00">CellSociety.updateGrid</text>
</a>
</g>
</g>
<!-- Node23&#45;&gt;Node24 -->
<g id="edge28" class="edge"><title>Node23&#45;&gt;Node24</title>
<path fill="none" stroke="midnightblue" d="M521.655,-142.521C545.871,-142.521 576.177,-142.521 603.438,-142.521"/>
<polygon fill="midnightblue" stroke="midnightblue" points="603.718,-146.021 613.718,-142.521 603.718,-139.021 603.718,-146.021"/>
</g>
<!-- Node24&#45;&gt;Node4 -->
<g id="edge32" class="edge"><title>Node24&#45;&gt;Node4</title>
<path fill="none" stroke="midnightblue" d="M684.689,-152.143C699.71,-171.236 733.452,-215.609 756,-256.521 807.076,-349.196 850.958,-468.529 867.244,-514.889"/>
<polygon fill="midnightblue" stroke="midnightblue" points="864.025,-516.287 870.619,-524.58 870.636,-513.985 864.025,-516.287"/>
</g>
<!-- Node25 -->
<g id="node25" class="node"><title>Node25</title>
<g id="a_node25"><a xlink:href="../../d8/d87/class_controller.html#aa8f10b5f28542d34053a7e4d5f1d6013" target="_top" xlink:title="Controller.runOneSim">
<polygon fill="white" stroke="black" points="815.5,-139.021 815.5,-158.021 934.5,-158.021 934.5,-139.021 815.5,-139.021"/>
<text text-anchor="middle" x="875" y="-146.021" font-family="Helvetica,sans-Serif" font-size="10.00">Controller.runOneSim</text>
</a>
</g>
</g>
<!-- Node24&#45;&gt;Node25 -->
<g id="edge29" class="edge"><title>Node24&#45;&gt;Node25</title>
<path fill="none" stroke="midnightblue" d="M738.252,-144.386C759.509,-145.034 783.479,-145.764 805.297,-146.428"/>
<polygon fill="midnightblue" stroke="midnightblue" points="805.379,-149.932 815.481,-146.739 805.592,-142.936 805.379,-149.932"/>
</g>
<!-- Node24&#45;&gt;Node26 -->
<g id="edge30" class="edge"><title>Node24&#45;&gt;Node26</title>
<path fill="none" stroke="midnightblue" d="M735.573,-133.006C757.506,-129.444 782.619,-125.364 805.38,-121.667"/>
<polygon fill="midnightblue" stroke="midnightblue" points="806.003,-125.112 815.312,-120.054 804.881,-118.203 806.003,-125.112"/>
</g>
<!-- Node24&#45;&gt;Node28 -->
<g id="edge33" class="edge"><title>Node24&#45;&gt;Node28</title>
<path fill="none" stroke="midnightblue" d="M696.641,-132.932C719.297,-122.079 757.822,-104.256 792,-91.5208 798.278,-89.1816 804.884,-86.892 811.508,-84.707"/>
<polygon fill="midnightblue" stroke="midnightblue" points="812.745,-87.9855 821.189,-81.5868 810.598,-81.3229 812.745,-87.9855"/>
</g>
<!-- Node27 -->
<g id="node27" class="node"><title>Node27</title>
<g id="a_node27"><a xlink:href="../../dd/d11/class_cell.html#a1e0ece61fecc69a9b7986d17d925434a" target="_top" xlink:title="Cell.getShape">
<polygon fill="white" stroke="black" points="994.5,-101.021 994.5,-120.021 1077.5,-120.021 1077.5,-101.021 994.5,-101.021"/>
<text text-anchor="middle" x="1036" y="-108.021" font-family="Helvetica,sans-Serif" font-size="10.00">Cell.getShape</text>
</a>
</g>
</g>
<!-- Node26&#45;&gt;Node27 -->
<g id="edge31" class="edge"><title>Node26&#45;&gt;Node27</title>
<path fill="none" stroke="midnightblue" d="M957.829,-110.521C966.809,-110.521 975.749,-110.521 984.191,-110.521"/>
<polygon fill="midnightblue" stroke="midnightblue" points="984.21,-114.021 994.21,-110.521 984.21,-107.021 984.21,-114.021"/>
</g>
</g>
</svg>
