<?xml version="1.0" encoding="UTF-8" standalone="no"?>
<!DOCTYPE svg PUBLIC "-//W3C//DTD SVG 1.1//EN"
 "http://www.w3.org/Graphics/SVG/1.1/DTD/svg11.dtd">
<!-- Generated by graphviz version 2.36.0 (20140111.2315)
 -->
<!-- Title: CellSociety.updateColors Pages: 1 -->
<svg width="1176pt" height="130pt"
 viewBox="0.00 0.00 1176.00 129.56" xmlns="http://www.w3.org/2000/svg" xmlns:xlink="http://www.w3.org/1999/xlink">
<g id="graph0" class="graph" transform="scale(1 1) rotate(0) translate(4 125.562)">
<title>CellSociety.updateColors</title>
<polygon fill="white" stroke="none" points="-4,4 -4,-125.562 1172,-125.562 1172,4 -4,4"/>
<!-- Node1 -->
<g id="node1" class="node"><title>Node1</title>
<polygon fill="#bfbfbf" stroke="black" points="0,-85.5 0,-104.5 134,-104.5 134,-85.5 0,-85.5"/>
<text text-anchor="middle" x="67" y="-92.5" font-family="Helvetica,sans-Serif" font-size="10.00">CellSociety.updateColors</text>
</g>
<!-- Node2 -->
<g id="node2" class="node"><title>Node2</title>
<g id="a_node2"><a xlink:href="../../d3/dff/class_cell_society.html#a0ff19c30a1cc433d8ea8444f6a5617f1" target="_top" xlink:title="CellSociety.updateGrid">
<polygon fill="white" stroke="black" points="170,-85.5 170,-104.5 294,-104.5 294,-85.5 170,-85.5"/>
<text text-anchor="middle" x="232" y="-92.5" font-family="Helvetica,sans-Serif" font-size="10.00">CellSociety.updateGrid</text>
</a>
</g>
</g>
<!-- Node1&#45;&gt;Node2 -->
<g id="edge1" class="edge"><title>Node1&#45;&gt;Node2</title>
<path fill="none" stroke="midnightblue" d="M144.548,-95C153.001,-95 161.525,-95 169.754,-95"/>
<polygon fill="midnightblue" stroke="midnightblue" points="144.298,-91.5001 134.298,-95 144.298,-98.5001 144.298,-91.5001"/>
</g>
<!-- Node3 -->
<g id="node3" class="node"><title>Node3</title>
<g id="a_node3"><a xlink:href="../../d3/dff/class_cell_society.html#a656ff46d1459fb7f86b42e3c542506ee" target="_top" xlink:title="CellSociety.configureListeners">
<polygon fill="white" stroke="black" points="850,-57.5 850,-76.5 1008,-76.5 1008,-57.5 850,-57.5"/>
<text text-anchor="middle" x="929" y="-64.5" font-family="Helvetica,sans-Serif" font-size="10.00">CellSociety.configureListeners</text>
</a>
</g>
</g>
<!-- Node2&#45;&gt;Node3 -->
<g id="edge2" class="edge"><title>Node2&#45;&gt;Node3</title>
<path fill="none" stroke="midnightblue" d="M304.143,-104.282C414.251,-116.843 632.215,-134.5 814,-105 847.155,-99.6198 883.696,-85.977 906.252,-76.5924"/>
<polygon fill="midnightblue" stroke="midnightblue" points="304.488,-100.799 294.151,-103.122 303.681,-107.752 304.488,-100.799"/>
</g>
<!-- Node5 -->
<g id="node5" class="node"><title>Node5</title>
<g id="a_node5"><a xlink:href="../../d3/dff/class_cell_society.html#abf13a64ee79f2cb063447b499c695c58" target="_top" xlink:title="CellSociety.start">
<polygon fill="white" stroke="black" points="330.5,-57.5 330.5,-76.5 423.5,-76.5 423.5,-57.5 330.5,-57.5"/>
<text text-anchor="middle" x="377" y="-64.5" font-family="Helvetica,sans-Serif" font-size="10.00">CellSociety.start</text>
</a>
</g>
</g>
<!-- Node2&#45;&gt;Node5 -->
<g id="edge4" class="edge"><title>Node2&#45;&gt;Node5</title>
<path fill="none" stroke="midnightblue" d="M291.93,-83.4613C304.735,-80.954 318.095,-78.338 330.298,-75.9487"/>
<polygon fill="midnightblue" stroke="midnightblue" points="290.954,-80.0859 281.813,-85.4423 292.299,-86.9554 290.954,-80.0859"/>
</g>
<!-- Node4 -->
<g id="node4" class="node"><title>Node4</title>
<g id="a_node4"><a xlink:href="../../d3/dff/class_cell_society.html#ac5e08680a3da358d402461bc25aa1727" target="_top" xlink:title="CellSociety.CellSociety">
<polygon fill="white" stroke="black" points="1044.5,-57.5 1044.5,-76.5 1167.5,-76.5 1167.5,-57.5 1044.5,-57.5"/>
<text text-anchor="middle" x="1106" y="-64.5" font-family="Helvetica,sans-Serif" font-size="10.00">CellSociety.CellSociety</text>
</a>
</g>
</g>
<!-- Node3&#45;&gt;Node4 -->
<g id="edge3" class="edge"><title>Node3&#45;&gt;Node4</title>
<path fill="none" stroke="midnightblue" d="M1018.09,-67C1027.01,-67 1035.92,-67 1044.45,-67"/>
<polygon fill="midnightblue" stroke="midnightblue" points="1018.03,-63.5001 1008.03,-67 1018.03,-70.5001 1018.03,-63.5001"/>
</g>
<!-- Node6 -->
<g id="node6" class="node"><title>Node6</title>
<g id="a_node6"><a xlink:href="../../d3/dff/class_cell_society.html#adc5feda3db5472cea4e092d463681033" target="_top" xlink:title="CellSociety.reframeTimeline">
<polygon fill="white" stroke="black" points="460.5,-57.5 460.5,-76.5 609.5,-76.5 609.5,-57.5 460.5,-57.5"/>
<text text-anchor="middle" x="535" y="-64.5" font-family="Helvetica,sans-Serif" font-size="10.00">CellSociety.reframeTimeline</text>
</a>
</g>
</g>
<!-- Node5&#45;&gt;Node6 -->
<g id="edge5" class="edge"><title>Node5&#45;&gt;Node6</title>
<path fill="none" stroke="midnightblue" d="M433.78,-67C442.359,-67 451.329,-67 460.226,-67"/>
<polygon fill="midnightblue" stroke="midnightblue" points="433.541,-63.5001 423.541,-67 433.541,-70.5001 433.541,-63.5001"/>
</g>
<!-- Node9 -->
<g id="node9" class="node"><title>Node9</title>
<g id="a_node9"><a xlink:href="../../d3/dff/class_cell_society.html#ab9e56a2a70e210e021b51e898508329b" target="_top" xlink:title="CellSociety.setupAnimation">
<polygon fill="white" stroke="black" points="462,-9.5 462,-28.5 608,-28.5 608,-9.5 462,-9.5"/>
<text text-anchor="middle" x="535" y="-16.5" font-family="Helvetica,sans-Serif" font-size="10.00">CellSociety.setupAnimation</text>
</a>
</g>
</g>
<!-- Node5&#45;&gt;Node9 -->
<g id="edge10" class="edge"><title>Node5&#45;&gt;Node9</title>
<path fill="none" stroke="midnightblue" d="M418.87,-54.4247C445.143,-46.3405 478.748,-36.0005 502.86,-28.5815"/>
<polygon fill="midnightblue" stroke="midnightblue" points="417.722,-51.1157 409.194,-57.4018 419.781,-57.8061 417.722,-51.1157"/>
</g>
<!-- Node7 -->
<g id="node7" class="node"><title>Node7</title>
<g id="a_node7"><a xlink:href="../../d3/dff/class_cell_society.html#a045267ba1843ca4a47891d7be73c2ac1" target="_top" xlink:title="CellSociety.decreaseFrameRate">
<polygon fill="white" stroke="black" points="646.5,-76.5 646.5,-95.5 813.5,-95.5 813.5,-76.5 646.5,-76.5"/>
<text text-anchor="middle" x="730" y="-83.5" font-family="Helvetica,sans-Serif" font-size="10.00">CellSociety.decreaseFrameRate</text>
</a>
</g>
</g>
<!-- Node6&#45;&gt;Node7 -->
<g id="edge6" class="edge"><title>Node6&#45;&gt;Node7</title>
<path fill="none" stroke="midnightblue" d="M619.487,-75.2189C628.391,-76.0954 637.444,-76.9868 646.338,-77.8623"/>
<polygon fill="midnightblue" stroke="midnightblue" points="619.81,-71.7339 609.516,-74.2373 619.125,-78.7003 619.81,-71.7339"/>
</g>
<!-- Node8 -->
<g id="node8" class="node"><title>Node8</title>
<g id="a_node8"><a xlink:href="../../d3/dff/class_cell_society.html#a8250bfacdaf51dabf6b9d1cafc0ce9b2" target="_top" xlink:title="CellSociety.increaseFrameRate">
<polygon fill="white" stroke="black" points="648.5,-38.5 648.5,-57.5 811.5,-57.5 811.5,-38.5 648.5,-38.5"/>
<text text-anchor="middle" x="730" y="-45.5" font-family="Helvetica,sans-Serif" font-size="10.00">CellSociety.increaseFrameRate</text>
</a>
</g>
</g>
<!-- Node6&#45;&gt;Node8 -->
<g id="edge8" class="edge"><title>Node6&#45;&gt;Node8</title>
<path fill="none" stroke="midnightblue" d="M619.719,-58.7583C629.198,-57.8251 638.845,-56.8753 648.285,-55.946"/>
<polygon fill="midnightblue" stroke="midnightblue" points="619.125,-55.2997 609.516,-59.7627 619.81,-62.2661 619.125,-55.2997"/>
</g>
<!-- Node7&#45;&gt;Node3 -->
<g id="edge7" class="edge"><title>Node7&#45;&gt;Node3</title>
<path fill="none" stroke="midnightblue" d="M823.877,-77.0423C832.593,-76.2017 841.368,-75.3554 849.927,-74.5299"/>
<polygon fill="midnightblue" stroke="midnightblue" points="823.307,-73.5809 813.689,-78.0249 823.979,-80.5486 823.307,-73.5809"/>
</g>
<!-- Node8&#45;&gt;Node3 -->
<g id="edge9" class="edge"><title>Node8&#45;&gt;Node3</title>
<path fill="none" stroke="midnightblue" d="M821.842,-56.7614C831.24,-57.6678 840.733,-58.5834 849.974,-59.4746"/>
<polygon fill="midnightblue" stroke="midnightblue" points="821.986,-53.2591 811.696,-55.7828 821.314,-60.2268 821.986,-53.2591"/>
</g>
<!-- Node10 -->
<g id="node10" class="node"><title>Node10</title>
<g id="a_node10"><a xlink:href="../../d3/dff/class_cell_society.html#af9f22af39a97a58b26126020ca6c8844" target="_top" xlink:title="CellSociety.readNewXML">
<polygon fill="white" stroke="black" points="664,-0.5 664,-19.5 796,-19.5 796,-0.5 664,-0.5"/>
<text text-anchor="middle" x="730" y="-7.5" font-family="Helvetica,sans-Serif" font-size="10.00">CellSociety.readNewXML</text>
</a>
</g>
</g>
<!-- Node9&#45;&gt;Node10 -->
<g id="edge11" class="edge"><title>Node9&#45;&gt;Node10</title>
<path fill="none" stroke="midnightblue" d="M618.552,-15.1504C633.727,-14.4428 649.372,-13.7132 663.943,-13.0337"/>
<polygon fill="midnightblue" stroke="midnightblue" points="617.967,-11.6738 608.141,-15.6359 618.293,-18.6662 617.967,-11.6738"/>
</g>
<!-- Node10&#45;&gt;Node3 -->
<g id="edge12" class="edge"><title>Node10&#45;&gt;Node3</title>
<path fill="none" stroke="midnightblue" d="M786.362,-21.8882C795.628,-24.1025 805.115,-26.5086 814,-29 844.332,-37.5056 878.544,-49.198 901.506,-57.3586"/>
<polygon fill="midnightblue" stroke="midnightblue" points="786.965,-18.4351 776.431,-19.5659 785.371,-25.2512 786.965,-18.4351"/>
</g>
</g>
</svg>
