<?xml version="1.0" encoding="UTF-8" standalone="no"?>
<!DOCTYPE svg PUBLIC "-//W3C//DTD SVG 1.1//EN"
 "http://www.w3.org/Graphics/SVG/1.1/DTD/svg11.dtd">
<!-- Generated by graphviz version 2.36.0 (20140111.2315)
 -->
<!-- Title: CellSociety.CellSociety Pages: 1 -->
<svg width="1682pt" height="724pt"
 viewBox="0.00 0.00 1682.00 724.00" xmlns="http://www.w3.org/2000/svg" xmlns:xlink="http://www.w3.org/1999/xlink">
<g id="graph0" class="graph" transform="scale(1 1) rotate(0) translate(4 720)">
<title>CellSociety.CellSociety</title>
<polygon fill="white" stroke="none" points="-4,4 -4,-720 1678,-720 1678,4 -4,4"/>
<!-- Node1 -->
<g id="node1" class="node"><title>Node1</title>
<polygon fill="#bfbfbf" stroke="black" points="0.5,-454.5 0.5,-473.5 123.5,-473.5 123.5,-454.5 0.5,-454.5"/>
<text text-anchor="middle" x="62" y="-461.5" font-family="Helvetica,sans-Serif" font-size="10.00">CellSociety.CellSociety</text>
</g>
<!-- Node2 -->
<g id="node2" class="node"><title>Node2</title>
<g id="a_node2"><a xlink:href="../../d3/dff/class_cell_society.html#a656ff46d1459fb7f86b42e3c542506ee" target="_top" xlink:title="CellSociety.configureListeners">
<polygon fill="white" stroke="black" points="160,-454.5 160,-473.5 318,-473.5 318,-454.5 160,-454.5"/>
<text text-anchor="middle" x="239" y="-461.5" font-family="Helvetica,sans-Serif" font-size="10.00">CellSociety.configureListeners</text>
</a>
</g>
</g>
<!-- Node1&#45;&gt;Node2 -->
<g id="edge1" class="edge"><title>Node1&#45;&gt;Node2</title>
<path fill="none" stroke="midnightblue" d="M123.715,-464C132.088,-464 140.823,-464 149.57,-464"/>
<polygon fill="midnightblue" stroke="midnightblue" points="149.823,-467.5 159.823,-464 149.823,-460.5 149.823,-467.5"/>
</g>
<!-- Node3 -->
<g id="node3" class="node"><title>Node3</title>
<g id="a_node3"><a xlink:href="../../df/df8/class_cell_society_view.html#aae7c36ea6b5215b0ba9ee01c72dfcb94" target="_top" xlink:title="CellSocietyView.getPlayElement">
<polygon fill="white" stroke="black" points="356,-696.5 356,-715.5 524,-715.5 524,-696.5 356,-696.5"/>
<text text-anchor="middle" x="440" y="-703.5" font-family="Helvetica,sans-Serif" font-size="10.00">CellSocietyView.getPlayElement</text>
</a>
</g>
</g>
<!-- Node2&#45;&gt;Node3 -->
<g id="edge2" class="edge"><title>Node2&#45;&gt;Node3</title>
<path fill="none" stroke="midnightblue" d="M241.938,-473.927C249.361,-509.165 279.408,-629.22 354,-687 356.297,-688.78 358.729,-690.399 361.262,-691.873"/>
<polygon fill="midnightblue" stroke="midnightblue" points="359.703,-695.006 370.213,-696.339 362.828,-688.743 359.703,-695.006"/>
</g>
<!-- Node4 -->
<g id="node4" class="node"><title>Node4</title>
<g id="a_node4"><a xlink:href="../../d3/dff/class_cell_society.html#a6a4056cd40e4162583f2b9845b77a191" target="_top" xlink:title="CellSociety.resumeAnimation">
<polygon fill="white" stroke="black" points="362,-658.5 362,-677.5 518,-677.5 518,-658.5 362,-658.5"/>
<text text-anchor="middle" x="440" y="-665.5" font-family="Helvetica,sans-Serif" font-size="10.00">CellSociety.resumeAnimation</text>
</a>
</g>
</g>
<!-- Node2&#45;&gt;Node4 -->
<g id="edge3" class="edge"><title>Node2&#45;&gt;Node4</title>
<path fill="none" stroke="midnightblue" d="M243.222,-473.543C253.862,-503.569 290.837,-596.903 354,-644 359.831,-648.348 366.42,-651.909 373.286,-654.825"/>
<polygon fill="midnightblue" stroke="midnightblue" points="372.182,-658.149 382.774,-658.415 374.66,-651.602 372.182,-658.149"/>
</g>
<!-- Node6 -->
<g id="node6" class="node"><title>Node6</title>
<g id="a_node6"><a xlink:href="../../df/df8/class_cell_society_view.html#ada088eb9125561f8dd941badb141fa86" target="_top" xlink:title="CellSocietyView.getPause\lElement">
<polygon fill="white" stroke="black" points="371.5,-381 371.5,-411 508.5,-411 508.5,-381 371.5,-381"/>
<text text-anchor="start" x="379.5" y="-399" font-family="Helvetica,sans-Serif" font-size="10.00">CellSocietyView.getPause</text>
<text text-anchor="middle" x="440" y="-388" font-family="Helvetica,sans-Serif" font-size="10.00">Element</text>
</a>
</g>
</g>
<!-- Node2&#45;&gt;Node6 -->
<g id="edge5" class="edge"><title>Node2&#45;&gt;Node6</title>
<path fill="none" stroke="midnightblue" d="M263.833,-454.416C286.769,-445.335 322.511,-431.553 354,-421 360.919,-418.681 368.192,-416.364 375.451,-414.126"/>
<polygon fill="midnightblue" stroke="midnightblue" points="376.755,-417.388 385.305,-411.132 374.72,-410.69 376.755,-417.388"/>
</g>
<!-- Node7 -->
<g id="node7" class="node"><title>Node7</title>
<g id="a_node7"><a xlink:href="../../d3/dff/class_cell_society.html#ae565a305ea53e5a37da9816a236b4fbc" target="_top" xlink:title="CellSociety.pauseAnimation">
<polygon fill="white" stroke="black" points="580.5,-620.5 580.5,-639.5 729.5,-639.5 729.5,-620.5 580.5,-620.5"/>
<text text-anchor="middle" x="655" y="-627.5" font-family="Helvetica,sans-Serif" font-size="10.00">CellSociety.pauseAnimation</text>
</a>
</g>
</g>
<!-- Node2&#45;&gt;Node7 -->
<g id="edge6" class="edge"><title>Node2&#45;&gt;Node7</title>
<path fill="none" stroke="midnightblue" d="M244.392,-473.858C256.951,-500.716 295.89,-575.222 354,-606 421.466,-641.733 509.649,-644.495 572.922,-640.281"/>
<polygon fill="midnightblue" stroke="midnightblue" points="573.535,-643.746 583.25,-639.517 573.019,-636.765 573.535,-643.746"/>
</g>
<!-- Node8 -->
<g id="node8" class="node"><title>Node8</title>
<g id="a_node8"><a xlink:href="../../df/df8/class_cell_society_view.html#a3c3a7039f77d392c374cd309967ca1cc" target="_top" xlink:title="CellSocietyView.getStepElement">
<polygon fill="white" stroke="black" points="354.5,-342.5 354.5,-361.5 525.5,-361.5 525.5,-342.5 354.5,-342.5"/>
<text text-anchor="middle" x="440" y="-349.5" font-family="Helvetica,sans-Serif" font-size="10.00">CellSocietyView.getStepElement</text>
</a>
</g>
</g>
<!-- Node2&#45;&gt;Node8 -->
<g id="edge8" class="edge"><title>Node2&#45;&gt;Node8</title>
<path fill="none" stroke="midnightblue" d="M248.702,-454.382C266.504,-435.329 309.197,-392.759 354,-371 359.016,-368.564 364.35,-366.436 369.807,-364.577"/>
<polygon fill="midnightblue" stroke="midnightblue" points="371.199,-367.81 379.72,-361.514 369.133,-361.122 371.199,-367.81"/>
</g>
<!-- Node9 -->
<g id="node9" class="node"><title>Node9</title>
<g id="a_node9"><a xlink:href="../../d3/dff/class_cell_society.html#a0ff19c30a1cc433d8ea8444f6a5617f1" target="_top" xlink:title="CellSociety.updateGrid">
<polygon fill="white" stroke="black" points="1016,-506.5 1016,-525.5 1140,-525.5 1140,-506.5 1016,-506.5"/>
<text text-anchor="middle" x="1078" y="-513.5" font-family="Helvetica,sans-Serif" font-size="10.00">CellSociety.updateGrid</text>
</a>
</g>
</g>
<!-- Node2&#45;&gt;Node9 -->
<g id="edge9" class="edge"><title>Node2&#45;&gt;Node9</title>
<path fill="none" stroke="midnightblue" d="M247.207,-473.763C263.462,-494.884 305.379,-544.487 354,-564 600.801,-663.05 933.02,-565.78 1041.29,-528.882"/>
<polygon fill="midnightblue" stroke="midnightblue" points="1042.45,-532.183 1050.76,-525.611 1040.17,-525.566 1042.45,-532.183"/>
</g>
<!-- Node18 -->
<g id="node18" class="node"><title>Node18</title>
<g id="a_node18"><a xlink:href="../../df/df8/class_cell_society_view.html#aebad9aaff0e9784fec1518d319e03c85" target="_top" xlink:title="CellSocietyView.getXMLElement">
<polygon fill="white" stroke="black" points="356,-304.5 356,-323.5 524,-323.5 524,-304.5 356,-304.5"/>
<text text-anchor="middle" x="440" y="-311.5" font-family="Helvetica,sans-Serif" font-size="10.00">CellSocietyView.getXMLElement</text>
</a>
</g>
</g>
<!-- Node2&#45;&gt;Node18 -->
<g id="edge20" class="edge"><title>Node2&#45;&gt;Node18</title>
<path fill="none" stroke="midnightblue" d="M245.449,-454.24C259.742,-429.608 300.903,-364.633 354,-333 357.654,-330.823 361.53,-328.896 365.537,-327.188"/>
<polygon fill="midnightblue" stroke="midnightblue" points="366.956,-330.394 375.078,-323.592 364.486,-323.844 366.956,-330.394"/>
</g>
<!-- Node19 -->
<g id="node19" class="node"><title>Node19</title>
<g id="a_node19"><a xlink:href="../../d3/dff/class_cell_society.html#af9f22af39a97a58b26126020ca6c8844" target="_top" xlink:title="CellSociety.readNewXML">
<polygon fill="white" stroke="black" points="374,-430.5 374,-449.5 506,-449.5 506,-430.5 374,-430.5"/>
<text text-anchor="middle" x="440" y="-437.5" font-family="Helvetica,sans-Serif" font-size="10.00">CellSociety.readNewXML</text>
</a>
</g>
</g>
<!-- Node2&#45;&gt;Node19 -->
<g id="edge21" class="edge"><title>Node2&#45;&gt;Node19</title>
<path fill="none" stroke="midnightblue" d="M318.079,-454.583C333.119,-452.77 348.845,-450.873 363.792,-449.07"/>
<polygon fill="midnightblue" stroke="midnightblue" points="364.488,-452.512 373.997,-447.84 363.65,-445.562 364.488,-452.512"/>
</g>
<!-- Node42 -->
<g id="node42" class="node"><title>Node42</title>
<g id="a_node42"><a xlink:href="../../df/df8/class_cell_society_view.html#a572d464cbe7d186dc9a5b0e4a8130689" target="_top" xlink:title="CellSocietyView.getSpeedup\lElement">
<polygon fill="white" stroke="black" points="364,-255 364,-285 516,-285 516,-255 364,-255"/>
<text text-anchor="start" x="372" y="-273" font-family="Helvetica,sans-Serif" font-size="10.00">CellSocietyView.getSpeedup</text>
<text text-anchor="middle" x="440" y="-262" font-family="Helvetica,sans-Serif" font-size="10.00">Element</text>
</a>
</g>
</g>
<!-- Node2&#45;&gt;Node42 -->
<g id="edge53" class="edge"><title>Node2&#45;&gt;Node42</title>
<path fill="none" stroke="midnightblue" d="M243.743,-454.258C255.369,-425.311 293.735,-339.098 354,-295 356.669,-293.047 359.489,-291.246 362.416,-289.585"/>
<polygon fill="midnightblue" stroke="midnightblue" points="364.127,-292.642 371.475,-285.009 360.971,-286.394 364.127,-292.642"/>
</g>
<!-- Node43 -->
<g id="node43" class="node"><title>Node43</title>
<g id="a_node43"><a xlink:href="../../d3/dff/class_cell_society.html#a8250bfacdaf51dabf6b9d1cafc0ce9b2" target="_top" xlink:title="CellSociety.increaseFrameRate">
<polygon fill="white" stroke="black" points="358.5,-535.5 358.5,-554.5 521.5,-554.5 521.5,-535.5 358.5,-535.5"/>
<text text-anchor="middle" x="440" y="-542.5" font-family="Helvetica,sans-Serif" font-size="10.00">CellSociety.increaseFrameRate</text>
</a>
</g>
</g>
<!-- Node2&#45;&gt;Node43 -->
<g id="edge54" class="edge"><title>Node2&#45;&gt;Node43</title>
<path fill="none" stroke="midnightblue" d="M263.609,-473.61C298.991,-488.012 365.895,-515.244 406.063,-531.594"/>
<polygon fill="midnightblue" stroke="midnightblue" points="404.84,-534.874 415.421,-535.403 407.479,-528.391 404.84,-534.874"/>
</g>
<!-- Node45 -->
<g id="node45" class="node"><title>Node45</title>
<g id="a_node45"><a xlink:href="../../df/df8/class_cell_society_view.html#a0f616a01579a7293ef781d3e341ea1ac" target="_top" xlink:title="CellSocietyView.getSlowdown\lElement">
<polygon fill="white" stroke="black" points="362.5,-206 362.5,-236 517.5,-236 517.5,-206 362.5,-206"/>
<text text-anchor="start" x="370.5" y="-224" font-family="Helvetica,sans-Serif" font-size="10.00">CellSocietyView.getSlowdown</text>
<text text-anchor="middle" x="440" y="-213" font-family="Helvetica,sans-Serif" font-size="10.00">Element</text>
</a>
</g>
</g>
<!-- Node2&#45;&gt;Node45 -->
<g id="edge58" class="edge"><title>Node2&#45;&gt;Node45</title>
<path fill="none" stroke="midnightblue" d="M242.108,-454.388C250.106,-420.243 281.852,-303.705 354,-245 355.561,-243.73 357.186,-242.527 358.863,-241.387"/>
<polygon fill="midnightblue" stroke="midnightblue" points="360.809,-244.303 367.639,-236.204 357.249,-238.276 360.809,-244.303"/>
</g>
<!-- Node46 -->
<g id="node46" class="node"><title>Node46</title>
<g id="a_node46"><a xlink:href="../../d3/dff/class_cell_society.html#a045267ba1843ca4a47891d7be73c2ac1" target="_top" xlink:title="CellSociety.decreaseFrameRate">
<polygon fill="white" stroke="black" points="356.5,-478.5 356.5,-497.5 523.5,-497.5 523.5,-478.5 356.5,-478.5"/>
<text text-anchor="middle" x="440" y="-485.5" font-family="Helvetica,sans-Serif" font-size="10.00">CellSociety.decreaseFrameRate</text>
</a>
</g>
</g>
<!-- Node2&#45;&gt;Node46 -->
<g id="edge59" class="edge"><title>Node2&#45;&gt;Node46</title>
<path fill="none" stroke="midnightblue" d="M318.079,-473.417C328.559,-474.68 339.371,-475.984 350.021,-477.269"/>
<polygon fill="midnightblue" stroke="midnightblue" points="349.819,-480.77 360.166,-478.492 350.657,-473.82 349.819,-480.77"/>
</g>
<!-- Node5 -->
<g id="node5" class="node"><title>Node5</title>
<g id="a_node5"><a xlink:href="../../df/df8/class_cell_society_view.html#ae83511f9bf3610b0750d41c4aeb0f778" target="_top" xlink:title="CellSocietyView.setButtons\lPause">
<polygon fill="white" stroke="black" points="800,-637 800,-667 946,-667 946,-637 800,-637"/>
<text text-anchor="start" x="808" y="-655" font-family="Helvetica,sans-Serif" font-size="10.00">CellSocietyView.setButtons</text>
<text text-anchor="middle" x="873" y="-644" font-family="Helvetica,sans-Serif" font-size="10.00">Pause</text>
</a>
</g>
</g>
<!-- Node4&#45;&gt;Node5 -->
<g id="edge4" class="edge"><title>Node4&#45;&gt;Node5</title>
<path fill="none" stroke="midnightblue" d="M518.054,-665.14C594.524,-662.301 711.327,-657.965 789.609,-655.059"/>
<polygon fill="midnightblue" stroke="midnightblue" points="790.05,-658.545 799.913,-654.676 789.79,-651.55 790.05,-658.545"/>
</g>
<!-- Node7&#45;&gt;Node5 -->
<g id="edge7" class="edge"><title>Node7&#45;&gt;Node5</title>
<path fill="none" stroke="midnightblue" d="M729.731,-637.51C748.984,-639.471 769.859,-641.597 789.534,-643.601"/>
<polygon fill="midnightblue" stroke="midnightblue" points="789.395,-647.105 799.699,-644.636 790.105,-640.141 789.395,-647.105"/>
</g>
<!-- Node10 -->
<g id="node10" class="node"><title>Node10</title>
<g id="a_node10"><a xlink:href="../../d8/d87/class_controller.html#aa8f10b5f28542d34053a7e4d5f1d6013" target="_top" xlink:title="Controller.runOneSim">
<polygon fill="white" stroke="black" points="1217.5,-487.5 1217.5,-506.5 1336.5,-506.5 1336.5,-487.5 1217.5,-487.5"/>
<text text-anchor="middle" x="1277" y="-494.5" font-family="Helvetica,sans-Serif" font-size="10.00">Controller.runOneSim</text>
</a>
</g>
</g>
<!-- Node9&#45;&gt;Node10 -->
<g id="edge10" class="edge"><title>Node9&#45;&gt;Node10</title>
<path fill="none" stroke="midnightblue" d="M1140.25,-510.092C1161.51,-508.042 1185.48,-505.73 1207.3,-503.626"/>
<polygon fill="midnightblue" stroke="midnightblue" points="1207.86,-507.088 1217.48,-502.644 1207.19,-500.12 1207.86,-507.088"/>
</g>
<!-- Node11 -->
<g id="node11" class="node"><title>Node11</title>
<g id="a_node11"><a xlink:href="../../d3/dff/class_cell_society.html#a64ebaee33d25e0e730024e67d5582c63" target="_top" xlink:title="CellSociety.updateColors">
<polygon fill="white" stroke="black" points="1210,-436.5 1210,-455.5 1344,-455.5 1344,-436.5 1210,-436.5"/>
<text text-anchor="middle" x="1277" y="-443.5" font-family="Helvetica,sans-Serif" font-size="10.00">CellSociety.updateColors</text>
</a>
</g>
</g>
<!-- Node9&#45;&gt;Node11 -->
<g id="edge11" class="edge"><title>Node9&#45;&gt;Node11</title>
<path fill="none" stroke="midnightblue" d="M1127.2,-506.433C1137.51,-503.828 1148.23,-500.685 1158,-497 1174.93,-490.613 1177.55,-485.523 1194,-478 1208.68,-471.288 1225.21,-464.667 1239.55,-459.205"/>
<polygon fill="midnightblue" stroke="midnightblue" points="1240.96,-462.415 1249.09,-455.622 1238.5,-455.863 1240.96,-462.415"/>
</g>
<!-- Node13 -->
<g id="node13" class="node"><title>Node13</title>
<g id="a_node13"><a xlink:href="../../d2/d95/class_x_m_l_parser.html#ac4e3257aed1deb9fe950149f706fce5b" target="_top" xlink:title="XMLParser.getCellParamList">
<polygon fill="white" stroke="black" points="1396.5,-317.5 1396.5,-336.5 1545.5,-336.5 1545.5,-317.5 1396.5,-317.5"/>
<text text-anchor="middle" x="1471" y="-324.5" font-family="Helvetica,sans-Serif" font-size="10.00">XMLParser.getCellParamList</text>
</a>
</g>
</g>
<!-- Node9&#45;&gt;Node13 -->
<g id="edge17" class="edge"><title>Node9&#45;&gt;Node13</title>
<path fill="none" stroke="midnightblue" d="M1140.16,-507.038C1146.57,-504.465 1152.68,-501.183 1158,-497 1185.51,-475.388 1166.43,-448.54 1194,-427 1253.72,-380.338 1289.3,-415.302 1360,-388 1391.73,-375.747 1425.57,-355.825 1447.2,-342.1"/>
<polygon fill="midnightblue" stroke="midnightblue" points="1449.17,-344.994 1455.69,-336.638 1445.38,-339.108 1449.17,-344.994"/>
</g>
<!-- Node14 -->
<g id="node14" class="node"><title>Node14</title>
<g id="a_node14"><a xlink:href="../../df/df8/class_cell_society_view.html#a43ac2666d3a002024be53fe74028a576" target="_top" xlink:title="CellSocietyView.updateSimGrid">
<polygon fill="white" stroke="black" points="1194.5,-525.5 1194.5,-544.5 1359.5,-544.5 1359.5,-525.5 1194.5,-525.5"/>
<text text-anchor="middle" x="1277" y="-532.5" font-family="Helvetica,sans-Serif" font-size="10.00">CellSocietyView.updateSimGrid</text>
</a>
</g>
</g>
<!-- Node9&#45;&gt;Node14 -->
<g id="edge14" class="edge"><title>Node9&#45;&gt;Node14</title>
<path fill="none" stroke="midnightblue" d="M1140.25,-521.908C1154.11,-523.244 1169.12,-524.692 1183.94,-526.121"/>
<polygon fill="midnightblue" stroke="midnightblue" points="1183.86,-529.629 1194.15,-527.105 1184.53,-522.661 1183.86,-529.629"/>
</g>
<!-- Node17 -->
<g id="node17" class="node"><title>Node17</title>
<g id="a_node17"><a xlink:href="../../df/df8/class_cell_society_view.html#a7ca77bdfdef97e9be9c9941c2f4d3513" target="_top" xlink:title="CellSocietyView.updateChart\lLines">
<polygon fill="white" stroke="black" points="1200.5,-349 1200.5,-379 1353.5,-379 1353.5,-349 1200.5,-349"/>
<text text-anchor="start" x="1208.5" y="-367" font-family="Helvetica,sans-Serif" font-size="10.00">CellSocietyView.updateChart</text>
<text text-anchor="middle" x="1277" y="-356" font-family="Helvetica,sans-Serif" font-size="10.00">Lines</text>
</a>
</g>
</g>
<!-- Node9&#45;&gt;Node17 -->
<g id="edge18" class="edge"><title>Node9&#45;&gt;Node17</title>
<path fill="none" stroke="midnightblue" d="M1140.37,-507.916C1146.82,-505.194 1152.87,-501.637 1158,-497 1193.96,-464.471 1159.96,-428.537 1194,-394 1197.7,-390.25 1201.9,-386.965 1206.4,-384.089"/>
<polygon fill="midnightblue" stroke="midnightblue" points="1208.38,-386.994 1215.38,-379.045 1204.95,-380.891 1208.38,-386.994"/>
</g>
<!-- Node12 -->
<g id="node12" class="node"><title>Node12</title>
<g id="a_node12"><a xlink:href="../../dd/d11/class_cell.html#a7f8d2520a26a1376a44372149e561f6b" target="_top" xlink:title="Cell.toString">
<polygon fill="white" stroke="black" points="1433.5,-395.5 1433.5,-414.5 1508.5,-414.5 1508.5,-395.5 1433.5,-395.5"/>
<text text-anchor="middle" x="1471" y="-402.5" font-family="Helvetica,sans-Serif" font-size="10.00">Cell.toString</text>
</a>
</g>
</g>
<!-- Node11&#45;&gt;Node12 -->
<g id="edge12" class="edge"><title>Node11&#45;&gt;Node12</title>
<path fill="none" stroke="midnightblue" d="M1322.53,-436.491C1352.79,-430.03 1392.73,-421.501 1423.41,-414.949"/>
<polygon fill="midnightblue" stroke="midnightblue" points="1424.39,-418.32 1433.43,-412.808 1422.92,-411.474 1424.39,-418.32"/>
</g>
<!-- Node11&#45;&gt;Node13 -->
<g id="edge13" class="edge"><title>Node11&#45;&gt;Node13</title>
<path fill="none" stroke="midnightblue" d="M1325.65,-436.405C1337.36,-432.893 1349.54,-428.202 1360,-422 1379.46,-410.462 1379.13,-401.077 1396,-386 1413.21,-370.625 1433.8,-354.363 1448.89,-342.815"/>
<polygon fill="midnightblue" stroke="midnightblue" points="1451.23,-345.437 1457.08,-336.602 1447,-339.862 1451.23,-345.437"/>
</g>
<!-- Node15 -->
<g id="node15" class="node"><title>Node15</title>
<g id="a_node15"><a xlink:href="../../da/d74/class_grid.html#a35a1ac27af1320c129643842e74a904b" target="_top" xlink:title="Grid.update">
<polygon fill="white" stroke="black" points="1434.5,-525.5 1434.5,-544.5 1507.5,-544.5 1507.5,-525.5 1434.5,-525.5"/>
<text text-anchor="middle" x="1471" y="-532.5" font-family="Helvetica,sans-Serif" font-size="10.00">Grid.update</text>
</a>
</g>
</g>
<!-- Node14&#45;&gt;Node15 -->
<g id="edge15" class="edge"><title>Node14&#45;&gt;Node15</title>
<path fill="none" stroke="midnightblue" d="M1359.7,-535C1381.85,-535 1405.04,-535 1424.41,-535"/>
<polygon fill="midnightblue" stroke="midnightblue" points="1424.45,-538.5 1434.45,-535 1424.45,-531.5 1424.45,-538.5"/>
</g>
<!-- Node16 -->
<g id="node16" class="node"><title>Node16</title>
<g id="a_node16"><a xlink:href="../../da/d74/class_grid.html#a12ccb8909871030fc2e2839dff169f3a" target="_top" xlink:title="Grid.displayGrid">
<polygon fill="white" stroke="black" points="1582,-525.5 1582,-544.5 1674,-544.5 1674,-525.5 1582,-525.5"/>
<text text-anchor="middle" x="1628" y="-532.5" font-family="Helvetica,sans-Serif" font-size="10.00">Grid.displayGrid</text>
</a>
</g>
</g>
<!-- Node15&#45;&gt;Node16 -->
<g id="edge16" class="edge"><title>Node15&#45;&gt;Node16</title>
<path fill="none" stroke="midnightblue" d="M1507.56,-535C1526.53,-535 1550.3,-535 1571.63,-535"/>
<polygon fill="midnightblue" stroke="midnightblue" points="1571.87,-538.5 1581.87,-535 1571.87,-531.5 1571.87,-538.5"/>
</g>
<!-- Node17&#45;&gt;Node12 -->
<g id="edge19" class="edge"><title>Node17&#45;&gt;Node12</title>
<path fill="none" stroke="midnightblue" d="M1348.4,-379.034C1373.37,-384.365 1400.83,-390.229 1423.32,-395.033"/>
<polygon fill="midnightblue" stroke="midnightblue" points="1422.77,-398.494 1433.28,-397.16 1424.24,-391.648 1422.77,-398.494"/>
</g>
<!-- Node19&#45;&gt;Node7 -->
<g id="edge48" class="edge"><title>Node19&#45;&gt;Node7</title>
<path fill="none" stroke="midnightblue" d="M493.309,-449.636C505.254,-453.914 517.05,-460.089 526,-469 560.664,-503.51 531.447,-534.803 562,-573 577.331,-592.166 600.97,-606.614 620.446,-616.168"/>
<polygon fill="midnightblue" stroke="midnightblue" points="619.078,-619.392 629.619,-620.464 622.048,-613.053 619.078,-619.392"/>
</g>
<!-- Node19&#45;&gt;Node13 -->
<g id="edge50" class="edge"><title>Node19&#45;&gt;Node13</title>
<path fill="none" stroke="midnightblue" d="M506.212,-433.274C513.641,-430.153 520.504,-425.861 526,-420 591.967,-349.64 497.648,-277.84 562,-206 657.09,-99.8454 729.484,-124 872,-124 872,-124 872,-124 1079,-124 1240.54,-124 1401.66,-262.168 1453.11,-310.526"/>
<polygon fill="midnightblue" stroke="midnightblue" points="1450.75,-313.116 1460.41,-317.481 1455.58,-308.049 1450.75,-313.116"/>
</g>
<!-- Node19&#45;&gt;Node17 -->
<g id="edge52" class="edge"><title>Node19&#45;&gt;Node17</title>
<path fill="none" stroke="midnightblue" d="M506.026,-432.494C513.393,-429.487 520.29,-425.435 526,-420 567.876,-380.14 515.808,-329.766 562,-295 628.049,-245.288 665.714,-287.074 748,-295 764.225,-296.563 767.905,-299.424 784,-302 925.836,-324.7 1091.78,-344.147 1190.15,-354.938"/>
<polygon fill="midnightblue" stroke="midnightblue" points="1190.02,-358.444 1200.34,-356.051 1190.78,-351.486 1190.02,-358.444"/>
</g>
<!-- Node20 -->
<g id="node20" class="node"><title>Node20</title>
<g id="a_node20"><a xlink:href="../../df/df8/class_cell_society_view.html#a053b6ef6afa80722445223c4e373e51c" target="_top" xlink:title="CellSocietyView.displayXMLChooser">
<polygon fill="white" stroke="black" points="562.5,-0.5 562.5,-19.5 747.5,-19.5 747.5,-0.5 562.5,-0.5"/>
<text text-anchor="middle" x="655" y="-7.5" font-family="Helvetica,sans-Serif" font-size="10.00">CellSocietyView.displayXMLChooser</text>
</a>
</g>
</g>
<!-- Node19&#45;&gt;Node20 -->
<g id="edge22" class="edge"><title>Node19&#45;&gt;Node20</title>
<path fill="none" stroke="midnightblue" d="M506.216,-433.833C513.741,-430.639 520.628,-426.177 526,-420 583.257,-354.157 503.845,-94.0518 562,-29 562.917,-27.9741 563.874,-26.9952 564.866,-26.0612"/>
<polygon fill="midnightblue" stroke="midnightblue" points="567.302,-28.605 573.118,-19.7498 563.049,-23.0448 567.302,-28.605"/>
</g>
<!-- Node21 -->
<g id="node21" class="node"><title>Node21</title>
<g id="a_node21"><a xlink:href="../../d2/d95/class_x_m_l_parser.html#a77ee23818c822b69cdf4200eef726a61" target="_top" xlink:title="XMLParser.parseXMLFile">
<polygon fill="white" stroke="black" points="590,-468.5 590,-487.5 720,-487.5 720,-468.5 590,-468.5"/>
<text text-anchor="middle" x="655" y="-475.5" font-family="Helvetica,sans-Serif" font-size="10.00">XMLParser.parseXMLFile</text>
</a>
</g>
</g>
<!-- Node19&#45;&gt;Node21 -->
<g id="edge23" class="edge"><title>Node19&#45;&gt;Node21</title>
<path fill="none" stroke="midnightblue" d="M494.474,-449.54C523.592,-454.735 559.811,-461.196 590.374,-466.649"/>
<polygon fill="midnightblue" stroke="midnightblue" points="590.045,-470.145 600.504,-468.456 591.274,-463.254 590.045,-470.145"/>
</g>
<!-- Node25 -->
<g id="node25" class="node"><title>Node25</title>
<g id="a_node25"><a xlink:href="../../d3/dff/class_cell_society.html#abfbf43ce46b4c82c16a2d933b6a11abf" target="_top" xlink:title="CellSociety.retrieveParserInfo">
<polygon fill="white" stroke="black" points="577.5,-38.5 577.5,-57.5 732.5,-57.5 732.5,-38.5 577.5,-38.5"/>
<text text-anchor="middle" x="655" y="-45.5" font-family="Helvetica,sans-Serif" font-size="10.00">CellSociety.retrieveParserInfo</text>
</a>
</g>
</g>
<!-- Node19&#45;&gt;Node25 -->
<g id="edge27" class="edge"><title>Node19&#45;&gt;Node25</title>
<path fill="none" stroke="midnightblue" d="M506.151,-433.776C513.686,-430.591 520.593,-426.147 526,-420 628.692,-303.243 460.722,-189.985 562,-72 565.046,-68.4519 568.544,-65.3951 572.357,-62.7644"/>
<polygon fill="midnightblue" stroke="midnightblue" points="574.261,-65.7061 581.155,-57.6606 570.749,-59.6512 574.261,-65.7061"/>
</g>
<!-- Node26 -->
<g id="node26" class="node"><title>Node26</title>
<g id="a_node26"><a xlink:href="../../d2/d95/class_x_m_l_parser.html#aea9b535964c91fa3c3d2b1c0b6a334c2" target="_top" xlink:title="XMLParser.getInitParamMap">
<polygon fill="white" stroke="black" points="798.5,-76.5 798.5,-95.5 947.5,-95.5 947.5,-76.5 798.5,-76.5"/>
<text text-anchor="middle" x="873" y="-83.5" font-family="Helvetica,sans-Serif" font-size="10.00">XMLParser.getInitParamMap</text>
</a>
</g>
</g>
<!-- Node19&#45;&gt;Node26 -->
<g id="edge31" class="edge"><title>Node19&#45;&gt;Node26</title>
<path fill="none" stroke="midnightblue" d="M506.079,-433.713C513.625,-430.537 520.555,-426.113 526,-420 618.255,-316.425 462.059,-206.18 562,-110 593.238,-79.9372 707.324,-78.1519 787.992,-80.9939"/>
<polygon fill="midnightblue" stroke="midnightblue" points="788.023,-84.4976 798.149,-81.3822 788.29,-77.5027 788.023,-84.4976"/>
</g>
<!-- Node28 -->
<g id="node28" class="node"><title>Node28</title>
<g id="a_node28"><a xlink:href="../../dd/d11/class_cell.html#a7157b57f4ff263ea68e1ff5fc424176e" target="_top" xlink:title="Cell.setCellSize">
<polygon fill="white" stroke="black" points="610.5,-430.5 610.5,-449.5 699.5,-449.5 699.5,-430.5 610.5,-430.5"/>
<text text-anchor="middle" x="655" y="-437.5" font-family="Helvetica,sans-Serif" font-size="10.00">Cell.setCellSize</text>
</a>
</g>
</g>
<!-- Node19&#45;&gt;Node28 -->
<g id="edge30" class="edge"><title>Node19&#45;&gt;Node28</title>
<path fill="none" stroke="midnightblue" d="M506.064,-440C536.138,-440 571.433,-440 600.005,-440"/>
<polygon fill="midnightblue" stroke="midnightblue" points="600.205,-443.5 610.205,-440 600.205,-436.5 600.205,-443.5"/>
</g>
<!-- Node29 -->
<g id="node29" class="node"><title>Node29</title>
<g id="a_node29"><a xlink:href="../../d3/dff/class_cell_society.html#a7a6dab68551f91cc4b120faa51670bf8" target="_top" xlink:title="CellSociety.createCellArray">
<polygon fill="white" stroke="black" points="583,-215.5 583,-234.5 727,-234.5 727,-215.5 583,-215.5"/>
<text text-anchor="middle" x="655" y="-222.5" font-family="Helvetica,sans-Serif" font-size="10.00">CellSociety.createCellArray</text>
</a>
</g>
</g>
<!-- Node19&#45;&gt;Node29 -->
<g id="edge32" class="edge"><title>Node19&#45;&gt;Node29</title>
<path fill="none" stroke="midnightblue" d="M506.322,-432.797C513.64,-429.74 520.445,-425.594 526,-420 576.747,-368.893 515.26,-316.796 562,-262 571.17,-251.249 583.917,-243.589 597.005,-238.143"/>
<polygon fill="midnightblue" stroke="midnightblue" points="598.419,-241.35 606.549,-234.555 595.957,-234.797 598.419,-241.35"/>
</g>
<!-- Node35 -->
<g id="node35" class="node"><title>Node35</title>
<g id="a_node35"><a xlink:href="../../d3/dff/class_cell_society.html#ab9e56a2a70e210e021b51e898508329b" target="_top" xlink:title="CellSociety.setupAnimation">
<polygon fill="white" stroke="black" points="582,-506.5 582,-525.5 728,-525.5 728,-506.5 582,-506.5"/>
<text text-anchor="middle" x="655" y="-513.5" font-family="Helvetica,sans-Serif" font-size="10.00">CellSociety.setupAnimation</text>
</a>
</g>
</g>
<!-- Node19&#45;&gt;Node35 -->
<g id="edge42" class="edge"><title>Node19&#45;&gt;Node35</title>
<path fill="none" stroke="midnightblue" d="M477.678,-449.59C493.09,-454.354 510.907,-460.854 526,-469 543.838,-478.627 543.595,-488.507 562,-497 567.407,-499.495 573.144,-501.665 579.006,-503.552"/>
<polygon fill="midnightblue" stroke="midnightblue" points="578.373,-507.014 588.953,-506.468 580.341,-500.296 578.373,-507.014"/>
</g>
<!-- Node37 -->
<g id="node37" class="node"><title>Node37</title>
<g id="a_node37"><a xlink:href="../../df/df8/class_cell_society_view.html#a068f17fd6777087a8debf1f67b576836" target="_top" xlink:title="CellSocietyView.setupInitialGrid">
<polygon fill="white" stroke="black" points="573,-304.5 573,-323.5 737,-323.5 737,-304.5 573,-304.5"/>
<text text-anchor="middle" x="655" y="-311.5" font-family="Helvetica,sans-Serif" font-size="10.00">CellSocietyView.setupInitialGrid</text>
</a>
</g>
</g>
<!-- Node19&#45;&gt;Node37 -->
<g id="edge45" class="edge"><title>Node19&#45;&gt;Node37</title>
<path fill="none" stroke="midnightblue" d="M506.221,-431.41C513.381,-428.567 520.174,-424.849 526,-420 556.593,-394.539 531.716,-363.828 562,-338 566.863,-333.853 572.359,-330.411 578.186,-327.556"/>
<polygon fill="midnightblue" stroke="midnightblue" points="579.758,-330.691 587.572,-323.536 577.001,-324.256 579.758,-330.691"/>
</g>
<!-- Node40 -->
<g id="node40" class="node"><title>Node40</title>
<g id="a_node40"><a xlink:href="../../df/df8/class_cell_society_view.html#a99eb733c00ed7c1bcba8f2d684791a09" target="_top" xlink:title="CellSocietyView.displayFrameRate">
<polygon fill="white" stroke="black" points="784,-430.5 784,-449.5 962,-449.5 962,-430.5 784,-430.5"/>
<text text-anchor="middle" x="873" y="-437.5" font-family="Helvetica,sans-Serif" font-size="10.00">CellSocietyView.displayFrameRate</text>
</a>
</g>
</g>
<!-- Node19&#45;&gt;Node40 -->
<g id="edge49" class="edge"><title>Node19&#45;&gt;Node40</title>
<path fill="none" stroke="midnightblue" d="M504.376,-430.422C512.012,-427.754 519.424,-424.347 526,-420 548.543,-405.097 537.889,-383.204 562,-371 635.756,-333.666 674.424,-333.312 748,-371 772.372,-383.484 761.091,-406 784,-421 787.126,-423.047 790.436,-424.877 793.867,-426.513"/>
<polygon fill="midnightblue" stroke="midnightblue" points="792.617,-429.784 803.194,-430.407 795.314,-423.324 792.617,-429.784"/>
</g>
<!-- Node41 -->
<g id="node41" class="node"><title>Node41</title>
<g id="a_node41"><a xlink:href="../../df/df8/class_cell_society_view.html#a930d889b8619ae93731b8542ce285180" target="_top" xlink:title="CellSocietyView.generate\lChartLines">
<polygon fill="white" stroke="black" points="586.5,-381 586.5,-411 723.5,-411 723.5,-381 586.5,-381"/>
<text text-anchor="start" x="594.5" y="-399" font-family="Helvetica,sans-Serif" font-size="10.00">CellSocietyView.generate</text>
<text text-anchor="middle" x="655" y="-388" font-family="Helvetica,sans-Serif" font-size="10.00">ChartLines</text>
</a>
</g>
</g>
<!-- Node19&#45;&gt;Node41 -->
<g id="edge51" class="edge"><title>Node19&#45;&gt;Node41</title>
<path fill="none" stroke="midnightblue" d="M487.218,-430.453C513.271,-425.071 546.499,-418.207 576.43,-412.024"/>
<polygon fill="midnightblue" stroke="midnightblue" points="577.353,-415.407 586.439,-409.956 575.937,-408.552 577.353,-415.407"/>
</g>
<!-- Node22 -->
<g id="node22" class="node"><title>Node22</title>
<g id="a_node22"><a xlink:href="../../d2/d95/class_x_m_l_parser.html#ae67767f9678fb650ac38b1321ea9f723" target="_top" xlink:title="XMLParser.parseInitialTags">
<polygon fill="white" stroke="black" points="802.5,-468.5 802.5,-487.5 943.5,-487.5 943.5,-468.5 802.5,-468.5"/>
<text text-anchor="middle" x="873" y="-475.5" font-family="Helvetica,sans-Serif" font-size="10.00">XMLParser.parseInitialTags</text>
</a>
</g>
</g>
<!-- Node21&#45;&gt;Node22 -->
<g id="edge24" class="edge"><title>Node21&#45;&gt;Node22</title>
<path fill="none" stroke="midnightblue" d="M720.222,-478C742.855,-478 768.576,-478 792.329,-478"/>
<polygon fill="midnightblue" stroke="midnightblue" points="792.374,-481.5 802.374,-478 792.374,-474.5 792.374,-481.5"/>
</g>
<!-- Node23 -->
<g id="node23" class="node"><title>Node23</title>
<g id="a_node23"><a xlink:href="../../d2/d95/class_x_m_l_parser.html#a09c6848239104ae94825c045796dddd0" target="_top" xlink:title="XMLParser.makeParamMap">
<polygon fill="white" stroke="black" points="1005,-468.5 1005,-487.5 1151,-487.5 1151,-468.5 1005,-468.5"/>
<text text-anchor="middle" x="1078" y="-475.5" font-family="Helvetica,sans-Serif" font-size="10.00">XMLParser.makeParamMap</text>
</a>
</g>
</g>
<!-- Node22&#45;&gt;Node23 -->
<g id="edge25" class="edge"><title>Node22&#45;&gt;Node23</title>
<path fill="none" stroke="midnightblue" d="M943.577,-478C959.925,-478 977.504,-478 994.362,-478"/>
<polygon fill="midnightblue" stroke="midnightblue" points="994.749,-481.5 1004.75,-478 994.749,-474.5 994.749,-481.5"/>
</g>
<!-- Node24 -->
<g id="node24" class="node"><title>Node24</title>
<g id="a_node24"><a xlink:href="../../d2/d95/class_x_m_l_parser.html#a5a419f71699eb7d3d76ee238fb262a5f" target="_top" xlink:title="XMLParser.makeCellParamList">
<polygon fill="white" stroke="black" points="998,-430.5 998,-449.5 1158,-449.5 1158,-430.5 998,-430.5"/>
<text text-anchor="middle" x="1078" y="-437.5" font-family="Helvetica,sans-Serif" font-size="10.00">XMLParser.makeCellParamList</text>
</a>
</g>
</g>
<!-- Node22&#45;&gt;Node24 -->
<g id="edge26" class="edge"><title>Node22&#45;&gt;Node24</title>
<path fill="none" stroke="midnightblue" d="M924.963,-468.46C952.594,-463.288 986.933,-456.86 1015.98,-451.422"/>
<polygon fill="midnightblue" stroke="midnightblue" points="1016.83,-454.824 1026.02,-449.544 1015.54,-447.944 1016.83,-454.824"/>
</g>
<!-- Node25&#45;&gt;Node26 -->
<g id="edge28" class="edge"><title>Node25&#45;&gt;Node26</title>
<path fill="none" stroke="midnightblue" d="M710.227,-57.54C739.884,-62.7574 776.804,-69.2525 807.882,-74.72"/>
<polygon fill="midnightblue" stroke="midnightblue" points="807.295,-78.1705 817.751,-76.4561 808.508,-71.2763 807.295,-78.1705"/>
</g>
<!-- Node27 -->
<g id="node27" class="node"><title>Node27</title>
<g id="a_node27"><a xlink:href="../../d2/d95/class_x_m_l_parser.html#a0df3a2904766f59d1246cb55416f8146" target="_top" xlink:title="XMLParser.getSimParamMap">
<polygon fill="white" stroke="black" points="796,-38.5 796,-57.5 950,-57.5 950,-38.5 796,-38.5"/>
<text text-anchor="middle" x="873" y="-45.5" font-family="Helvetica,sans-Serif" font-size="10.00">XMLParser.getSimParamMap</text>
</a>
</g>
</g>
<!-- Node25&#45;&gt;Node27 -->
<g id="edge29" class="edge"><title>Node25&#45;&gt;Node27</title>
<path fill="none" stroke="midnightblue" d="M732.762,-48C749.892,-48 768.17,-48 785.658,-48"/>
<polygon fill="midnightblue" stroke="midnightblue" points="785.849,-51.5001 795.849,-48 785.849,-44.5001 785.849,-51.5001"/>
</g>
<!-- Node29&#45;&gt;Node13 -->
<g id="edge34" class="edge"><title>Node29&#45;&gt;Node13</title>
<path fill="none" stroke="midnightblue" d="M678.185,-234.508C703.342,-244.843 745.831,-260.955 784,-269 997.647,-314.029 1255.7,-324.328 1385.99,-326.533"/>
<polygon fill="midnightblue" stroke="midnightblue" points="1386.24,-330.037 1396.29,-326.695 1386.35,-323.038 1386.24,-330.037"/>
</g>
<!-- Node29&#45;&gt;Node26 -->
<g id="edge33" class="edge"><title>Node29&#45;&gt;Node26</title>
<path fill="none" stroke="midnightblue" d="M670.847,-215.446C707.763,-191.69 803.938,-129.799 848.591,-101.064"/>
<polygon fill="midnightblue" stroke="midnightblue" points="850.534,-103.976 857.05,-95.6209 846.746,-98.0892 850.534,-103.976"/>
</g>
<!-- Node30 -->
<g id="node30" class="node"><title>Node30</title>
<g id="a_node30"><a xlink:href="../../d3/dff/class_cell_society.html#a276d7f4c12da9d40e8720f762b47592a" target="_top" xlink:title="CellSociety.populateProbabilities">
<polygon fill="white" stroke="black" points="788,-202.5 788,-221.5 958,-221.5 958,-202.5 788,-202.5"/>
<text text-anchor="middle" x="873" y="-209.5" font-family="Helvetica,sans-Serif" font-size="10.00">CellSociety.populateProbabilities</text>
</a>
</g>
</g>
<!-- Node29&#45;&gt;Node30 -->
<g id="edge35" class="edge"><title>Node29&#45;&gt;Node30</title>
<path fill="none" stroke="midnightblue" d="M727.026,-220.725C743.114,-219.757 760.448,-218.714 777.339,-217.697"/>
<polygon fill="midnightblue" stroke="midnightblue" points="778.013,-221.163 787.784,-217.069 777.592,-214.176 778.013,-221.163"/>
</g>
<!-- Node32 -->
<g id="node32" class="node"><title>Node32</title>
<g id="a_node32"><a xlink:href="../../d3/dff/class_cell_society.html#a5c0b747b2fbaaa317266890c48e0267f" target="_top" xlink:title="CellSociety.populateLocations">
<polygon fill="white" stroke="black" points="794,-240.5 794,-259.5 952,-259.5 952,-240.5 794,-240.5"/>
<text text-anchor="middle" x="873" y="-247.5" font-family="Helvetica,sans-Serif" font-size="10.00">CellSociety.populateLocations</text>
</a>
</g>
</g>
<!-- Node29&#45;&gt;Node32 -->
<g id="edge37" class="edge"><title>Node29&#45;&gt;Node32</title>
<path fill="none" stroke="midnightblue" d="M727.026,-233.221C745.161,-235.32 764.879,-237.602 783.762,-239.787"/>
<polygon fill="midnightblue" stroke="midnightblue" points="783.512,-243.282 793.848,-240.955 784.317,-236.328 783.512,-243.282"/>
</g>
<!-- Node34 -->
<g id="node34" class="node"><title>Node34</title>
<g id="a_node34"><a xlink:href="../../d3/dff/class_cell_society.html#a7ef59819b70a8f07c010bd2bb28b7740" target="_top" xlink:title="CellSociety.populateRemaining\lState">
<polygon fill="white" stroke="black" points="792,-153 792,-183 954,-183 954,-153 792,-153"/>
<text text-anchor="start" x="800" y="-171" font-family="Helvetica,sans-Serif" font-size="10.00">CellSociety.populateRemaining</text>
<text text-anchor="middle" x="873" y="-160" font-family="Helvetica,sans-Serif" font-size="10.00">State</text>
</a>
</g>
</g>
<!-- Node29&#45;&gt;Node34 -->
<g id="edge40" class="edge"><title>Node29&#45;&gt;Node34</title>
<path fill="none" stroke="midnightblue" d="M692.154,-215.459C722.912,-207.343 767.9,-195.471 805.185,-185.632"/>
<polygon fill="midnightblue" stroke="midnightblue" points="806.204,-188.983 814.98,-183.047 804.418,-182.214 806.204,-188.983"/>
</g>
<!-- Node31 -->
<g id="node31" class="node"><title>Node31</title>
<g id="a_node31"><a xlink:href="../../d3/dff/class_cell_society.html#a117f1698760a3f6bbe51bd7af16f79bb" target="_top" xlink:title="CellSociety.createCellInstance">
<polygon fill="white" stroke="black" points="998.5,-202.5 998.5,-221.5 1157.5,-221.5 1157.5,-202.5 998.5,-202.5"/>
<text text-anchor="middle" x="1078" y="-209.5" font-family="Helvetica,sans-Serif" font-size="10.00">CellSociety.createCellInstance</text>
</a>
</g>
</g>
<!-- Node30&#45;&gt;Node31 -->
<g id="edge36" class="edge"><title>Node30&#45;&gt;Node31</title>
<path fill="none" stroke="midnightblue" d="M958.033,-212C967.91,-212 978.014,-212 987.956,-212"/>
<polygon fill="midnightblue" stroke="midnightblue" points="988.241,-215.5 998.241,-212 988.241,-208.5 988.241,-215.5"/>
</g>
<!-- Node32&#45;&gt;Node31 -->
<g id="edge39" class="edge"><title>Node32&#45;&gt;Node31</title>
<path fill="none" stroke="midnightblue" d="M924.963,-240.46C952.594,-235.288 986.933,-228.86 1015.98,-223.422"/>
<polygon fill="midnightblue" stroke="midnightblue" points="1016.83,-226.824 1026.02,-221.544 1015.54,-219.944 1016.83,-226.824"/>
</g>
<!-- Node33 -->
<g id="node33" class="node"><title>Node33</title>
<g id="a_node33"><a xlink:href="../../d3/dff/class_cell_society.html#a42451b17e2bca5fd025c8d4ea74310ca" target="_top" xlink:title="CellSociety.stringToIntArray">
<polygon fill="white" stroke="black" points="1005.5,-240.5 1005.5,-259.5 1150.5,-259.5 1150.5,-240.5 1005.5,-240.5"/>
<text text-anchor="middle" x="1078" y="-247.5" font-family="Helvetica,sans-Serif" font-size="10.00">CellSociety.stringToIntArray</text>
</a>
</g>
</g>
<!-- Node32&#45;&gt;Node33 -->
<g id="edge38" class="edge"><title>Node32&#45;&gt;Node33</title>
<path fill="none" stroke="midnightblue" d="M952.195,-250C966.305,-250 981.051,-250 995.26,-250"/>
<polygon fill="midnightblue" stroke="midnightblue" points="995.494,-253.5 1005.49,-250 995.494,-246.5 995.494,-253.5"/>
</g>
<!-- Node34&#45;&gt;Node31 -->
<g id="edge41" class="edge"><title>Node34&#45;&gt;Node31</title>
<path fill="none" stroke="midnightblue" d="M943.293,-183.019C969.439,-188.686 998.766,-195.043 1023.28,-200.356"/>
<polygon fill="midnightblue" stroke="midnightblue" points="1022.6,-203.79 1033.11,-202.488 1024.08,-196.949 1022.6,-203.79"/>
</g>
<!-- Node36 -->
<g id="node36" class="node"><title>Node36</title>
<g id="a_node36"><a xlink:href="../../d3/dff/class_cell_society.html#abf13a64ee79f2cb063447b499c695c58" target="_top" xlink:title="CellSociety.start">
<polygon fill="white" stroke="black" points="826.5,-506.5 826.5,-525.5 919.5,-525.5 919.5,-506.5 826.5,-506.5"/>
<text text-anchor="middle" x="873" y="-513.5" font-family="Helvetica,sans-Serif" font-size="10.00">CellSociety.start</text>
</a>
</g>
</g>
<!-- Node35&#45;&gt;Node36 -->
<g id="edge43" class="edge"><title>Node35&#45;&gt;Node36</title>
<path fill="none" stroke="midnightblue" d="M728.225,-516C756.808,-516 789.161,-516 815.928,-516"/>
<polygon fill="midnightblue" stroke="midnightblue" points="816.27,-519.5 826.27,-516 816.27,-512.5 816.27,-519.5"/>
</g>
<!-- Node36&#45;&gt;Node9 -->
<g id="edge44" class="edge"><title>Node36&#45;&gt;Node9</title>
<path fill="none" stroke="midnightblue" d="M919.557,-516C944.856,-516 976.898,-516 1005.46,-516"/>
<polygon fill="midnightblue" stroke="midnightblue" points="1005.81,-519.5 1015.81,-516 1005.81,-512.5 1005.81,-519.5"/>
</g>
<!-- Node38 -->
<g id="node38" class="node"><title>Node38</title>
<g id="a_node38"><a xlink:href="../../da/d74/class_grid.html#a1febd1c7daf70dbedc9ca16a3c8099db" target="_top" xlink:title="Grid.getGrid">
<polygon fill="white" stroke="black" points="836,-354.5 836,-373.5 910,-373.5 910,-354.5 836,-354.5"/>
<text text-anchor="middle" x="873" y="-361.5" font-family="Helvetica,sans-Serif" font-size="10.00">Grid.getGrid</text>
</a>
</g>
</g>
<!-- Node37&#45;&gt;Node38 -->
<g id="edge46" class="edge"><title>Node37&#45;&gt;Node38</title>
<path fill="none" stroke="midnightblue" d="M697.136,-323.522C733.879,-332.028 787.644,-344.473 825.842,-353.315"/>
<polygon fill="midnightblue" stroke="midnightblue" points="825.154,-356.748 835.686,-355.594 826.733,-349.929 825.154,-356.748"/>
</g>
<!-- Node39 -->
<g id="node39" class="node"><title>Node39</title>
<g id="a_node39"><a xlink:href="../../d4/d92/class_grid_factory.html#a3c5221912f2534ff2cf8cacb935e7fc9" target="_top" xlink:title="GridFactory.createGrid">
<polygon fill="white" stroke="black" points="812,-392.5 812,-411.5 934,-411.5 934,-392.5 812,-392.5"/>
<text text-anchor="middle" x="873" y="-399.5" font-family="Helvetica,sans-Serif" font-size="10.00">GridFactory.createGrid</text>
</a>
</g>
</g>
<!-- Node37&#45;&gt;Node39 -->
<g id="edge47" class="edge"><title>Node37&#45;&gt;Node39</title>
<path fill="none" stroke="midnightblue" d="M715.776,-323.637C727.037,-327.066 738.307,-331.71 748,-338 769.485,-351.942 762.223,-369.518 784,-383 789.494,-386.402 795.509,-389.2 801.733,-391.501"/>
<polygon fill="midnightblue" stroke="midnightblue" points="801.049,-394.959 811.641,-394.724 803.214,-388.302 801.049,-394.959"/>
</g>
<!-- Node44 -->
<g id="node44" class="node"><title>Node44</title>
<g id="a_node44"><a xlink:href="../../d3/dff/class_cell_society.html#adc5feda3db5472cea4e092d463681033" target="_top" xlink:title="CellSociety.reframeTimeline">
<polygon fill="white" stroke="black" points="580.5,-544.5 580.5,-563.5 729.5,-563.5 729.5,-544.5 580.5,-544.5"/>
<text text-anchor="middle" x="655" y="-551.5" font-family="Helvetica,sans-Serif" font-size="10.00">CellSociety.reframeTimeline</text>
</a>
</g>
</g>
<!-- Node43&#45;&gt;Node44 -->
<g id="edge55" class="edge"><title>Node43&#45;&gt;Node44</title>
<path fill="none" stroke="midnightblue" d="M521.526,-548.403C537.375,-549.072 554.041,-549.776 570.001,-550.451"/>
<polygon fill="midnightblue" stroke="midnightblue" points="570.232,-553.964 580.371,-550.889 570.528,-546.97 570.232,-553.964"/>
</g>
<!-- Node44&#45;&gt;Node36 -->
<g id="edge57" class="edge"><title>Node44&#45;&gt;Node36</title>
<path fill="none" stroke="midnightblue" d="M710.227,-544.46C742.478,-538.786 783.317,-531.602 815.893,-525.871"/>
<polygon fill="midnightblue" stroke="midnightblue" points="816.916,-529.245 826.158,-524.065 815.703,-522.35 816.916,-529.245"/>
</g>
<!-- Node44&#45;&gt;Node40 -->
<g id="edge56" class="edge"><title>Node44&#45;&gt;Node40</title>
<path fill="none" stroke="midnightblue" d="M729.633,-545.427C736.228,-542.747 742.486,-539.333 748,-535 777.388,-511.906 754.717,-482.225 784,-459 786.089,-457.343 788.291,-455.822 790.581,-454.427"/>
<polygon fill="midnightblue" stroke="midnightblue" points="792.534,-457.357 799.799,-449.647 789.311,-451.143 792.534,-457.357"/>
</g>
<!-- Node46&#45;&gt;Node44 -->
<g id="edge60" class="edge"><title>Node46&#45;&gt;Node44</title>
<path fill="none" stroke="midnightblue" d="M462.479,-497.603C486.38,-507.99 526.337,-524.471 562,-535 571.055,-537.673 580.72,-540.109 590.255,-542.278"/>
<polygon fill="midnightblue" stroke="midnightblue" points="589.596,-545.717 600.113,-544.441 591.096,-538.88 589.596,-545.717"/>
</g>
</g>
</svg>
