<?xml version="1.0" encoding="UTF-8" standalone="no"?>
<!DOCTYPE svg PUBLIC "-//W3C//DTD SVG 1.1//EN"
 "http://www.w3.org/Graphics/SVG/1.1/DTD/svg11.dtd">
<!-- Generated by graphviz version 2.36.0 (20140111.2315)
 -->
<!-- Title: CellSociety.stringToIntArray Pages: 1 -->
<svg width="856pt" height="28pt"
 viewBox="0.00 0.00 856.00 28.00" xmlns="http://www.w3.org/2000/svg" xmlns:xlink="http://www.w3.org/1999/xlink">
<g id="graph0" class="graph" transform="scale(1 1) rotate(0) translate(4 24)">
<title>CellSociety.stringToIntArray</title>
<polygon fill="white" stroke="none" points="-4,4 -4,-24 852,-24 852,4 -4,4"/>
<!-- Node1 -->
<g id="node1" class="node"><title>Node1</title>
<polygon fill="#bfbfbf" stroke="black" points="0.5,-0.5 0.5,-19.5 145.5,-19.5 145.5,-0.5 0.5,-0.5"/>
<text text-anchor="middle" x="73" y="-7.5" font-family="Helvetica,sans-Serif" font-size="10.00">CellSociety.stringToIntArray</text>
</g>
<!-- Node2 -->
<g id="node2" class="node"><title>Node2</title>
<g id="a_node2"><a xlink:href="../../d3/dff/class_cell_society.html#a7a6dab68551f91cc4b120faa51670bf8" target="_top" xlink:title="CellSociety.createCellArray">
<polygon fill="white" stroke="black" points="182,-0.5 182,-19.5 326,-19.5 326,-0.5 182,-0.5"/>
<text text-anchor="middle" x="254" y="-7.5" font-family="Helvetica,sans-Serif" font-size="10.00">CellSociety.createCellArray</text>
</a>
</g>
</g>
<!-- Node1&#45;&gt;Node2 -->
<g id="edge1" class="edge"><title>Node1&#45;&gt;Node2</title>
<path fill="none" stroke="midnightblue" d="M155.71,-10C164.448,-10 173.287,-10 181.888,-10"/>
<polygon fill="midnightblue" stroke="midnightblue" points="155.517,-6.5001 145.517,-10 155.517,-13.5001 155.517,-6.5001"/>
</g>
<!-- Node3 -->
<g id="node3" class="node"><title>Node3</title>
<g id="a_node3"><a xlink:href="../../d3/dff/class_cell_society.html#af9f22af39a97a58b26126020ca6c8844" target="_top" xlink:title="CellSociety.readNewXML">
<polygon fill="white" stroke="black" points="362,-0.5 362,-19.5 494,-19.5 494,-0.5 362,-0.5"/>
<text text-anchor="middle" x="428" y="-7.5" font-family="Helvetica,sans-Serif" font-size="10.00">CellSociety.readNewXML</text>
</a>
</g>
</g>
<!-- Node2&#45;&gt;Node3 -->
<g id="edge2" class="edge"><title>Node2&#45;&gt;Node3</title>
<path fill="none" stroke="midnightblue" d="M336.686,-10C345.118,-10 353.606,-10 361.824,-10"/>
<polygon fill="midnightblue" stroke="midnightblue" points="336.449,-6.5001 326.449,-10 336.449,-13.5001 336.449,-6.5001"/>
</g>
<!-- Node4 -->
<g id="node4" class="node"><title>Node4</title>
<g id="a_node4"><a xlink:href="../../d3/dff/class_cell_society.html#a656ff46d1459fb7f86b42e3c542506ee" target="_top" xlink:title="CellSociety.configureListeners">
<polygon fill="white" stroke="black" points="530,-0.5 530,-19.5 688,-19.5 688,-0.5 530,-0.5"/>
<text text-anchor="middle" x="609" y="-7.5" font-family="Helvetica,sans-Serif" font-size="10.00">CellSociety.configureListeners</text>
</a>
</g>
</g>
<!-- Node3&#45;&gt;Node4 -->
<g id="edge3" class="edge"><title>Node3&#45;&gt;Node4</title>
<path fill="none" stroke="midnightblue" d="M504.312,-10C512.748,-10 521.355,-10 529.826,-10"/>
<polygon fill="midnightblue" stroke="midnightblue" points="504.13,-6.5001 494.129,-10 504.129,-13.5001 504.13,-6.5001"/>
</g>
<!-- Node5 -->
<g id="node5" class="node"><title>Node5</title>
<g id="a_node5"><a xlink:href="../../d3/dff/class_cell_society.html#ac5e08680a3da358d402461bc25aa1727" target="_top" xlink:title="CellSociety.CellSociety">
<polygon fill="white" stroke="black" points="724.5,-0.5 724.5,-19.5 847.5,-19.5 847.5,-0.5 724.5,-0.5"/>
<text text-anchor="middle" x="786" y="-7.5" font-family="Helvetica,sans-Serif" font-size="10.00">CellSociety.CellSociety</text>
</a>
</g>
</g>
<!-- Node4&#45;&gt;Node5 -->
<g id="edge4" class="edge"><title>Node4&#45;&gt;Node5</title>
<path fill="none" stroke="midnightblue" d="M698.087,-10C707.007,-10 715.919,-10 724.452,-10"/>
<polygon fill="midnightblue" stroke="midnightblue" points="698.032,-6.5001 688.032,-10 698.032,-13.5001 698.032,-6.5001"/>
</g>
</g>
</svg>
