<?xml version="1.0" encoding="UTF-8" standalone="no"?>
<!DOCTYPE svg PUBLIC "-//W3C//DTD SVG 1.1//EN"
 "http://www.w3.org/Graphics/SVG/1.1/DTD/svg11.dtd">
<!-- Generated by graphviz version 2.36.0 (20140111.2315)
 -->
<!-- Title: CellSociety.readNewXML Pages: 1 -->
<svg width="1142pt" height="470pt"
 viewBox="0.00 0.00 1142.00 470.34" xmlns="http://www.w3.org/2000/svg" xmlns:xlink="http://www.w3.org/1999/xlink">
<g id="graph0" class="graph" transform="scale(1 1) rotate(0) translate(4 466.342)">
<title>CellSociety.readNewXML</title>
<polygon fill="white" stroke="none" points="-4,4 -4,-466.342 1138,-466.342 1138,4 -4,4"/>
<!-- Node1 -->
<g id="node1" class="node"><title>Node1</title>
<polygon fill="#bfbfbf" stroke="black" points="0,-214.842 0,-233.842 132,-233.842 132,-214.842 0,-214.842"/>
<text text-anchor="middle" x="66" y="-221.842" font-family="Helvetica,sans-Serif" font-size="10.00">CellSociety.readNewXML</text>
</g>
<!-- Node2 -->
<g id="node2" class="node"><title>Node2</title>
<g id="a_node2"><a xlink:href="../../d3/dff/class_cell_society.html#a7a6dab68551f91cc4b120faa51670bf8" target="_top" xlink:title="CellSociety.createCellArray">
<polygon fill="white" stroke="black" points="189,-385.842 189,-404.842 333,-404.842 333,-385.842 189,-385.842"/>
<text text-anchor="middle" x="261" y="-392.842" font-family="Helvetica,sans-Serif" font-size="10.00">CellSociety.createCellArray</text>
</a>
</g>
</g>
<!-- Node1&#45;&gt;Node2 -->
<g id="edge1" class="edge"><title>Node1&#45;&gt;Node2</title>
<path fill="none" stroke="midnightblue" d="M70.7609,-234.005C81.5556,-260.424 115.284,-334.341 168,-371.342 174.365,-375.809 181.503,-379.445 188.913,-382.404"/>
<polygon fill="midnightblue" stroke="midnightblue" points="187.814,-385.728 198.409,-385.802 190.173,-379.138 187.814,-385.728"/>
</g>
<!-- Node5 -->
<g id="node5" class="node"><title>Node5</title>
<g id="a_node5"><a xlink:href="../../d2/d95/class_x_m_l_parser.html#aea9b535964c91fa3c3d2b1c0b6a334c2" target="_top" xlink:title="XMLParser.getInitParamMap">
<polygon fill="white" stroke="black" points="395.5,-328.842 395.5,-347.842 544.5,-347.842 544.5,-328.842 395.5,-328.842"/>
<text text-anchor="middle" x="470" y="-335.842" font-family="Helvetica,sans-Serif" font-size="10.00">XMLParser.getInitParamMap</text>
</a>
</g>
</g>
<!-- Node1&#45;&gt;Node5 -->
<g id="edge8" class="edge"><title>Node1&#45;&gt;Node5</title>
<path fill="none" stroke="midnightblue" d="M71.9006,-234.145C84.2235,-257.537 119.052,-316.313 168,-338.342 250.607,-375.519 359.357,-362.347 420.967,-349.967"/>
<polygon fill="midnightblue" stroke="midnightblue" points="421.73,-353.383 430.805,-347.916 420.301,-346.531 421.73,-353.383"/>
</g>
<!-- Node7 -->
<g id="node7" class="node"><title>Node7</title>
<g id="a_node7"><a xlink:href="../../df/df8/class_cell_society_view.html#a99eb733c00ed7c1bcba8f2d684791a09" target="_top" xlink:title="CellSocietyView.displayFrameRate">
<polygon fill="white" stroke="black" points="172,-309.842 172,-328.842 350,-328.842 350,-309.842 172,-309.842"/>
<text text-anchor="middle" x="261" y="-316.842" font-family="Helvetica,sans-Serif" font-size="10.00">CellSocietyView.displayFrameRate</text>
</a>
</g>
</g>
<!-- Node1&#45;&gt;Node7 -->
<g id="edge6" class="edge"><title>Node1&#45;&gt;Node7</title>
<path fill="none" stroke="midnightblue" d="M76.6349,-233.984C93.5571,-250.33 130.404,-283.355 168,-300.342 173.657,-302.898 179.666,-305.114 185.796,-307.034"/>
<polygon fill="midnightblue" stroke="midnightblue" points="184.92,-310.424 195.498,-309.816 186.849,-303.695 184.92,-310.424"/>
</g>
<!-- Node8 -->
<g id="node8" class="node"><title>Node8</title>
<g id="a_node8"><a xlink:href="../../df/df8/class_cell_society_view.html#a053b6ef6afa80722445223c4e373e51c" target="_top" xlink:title="CellSocietyView.displayXMLChooser">
<polygon fill="white" stroke="black" points="168.5,-271.842 168.5,-290.842 353.5,-290.842 353.5,-271.842 168.5,-271.842"/>
<text text-anchor="middle" x="261" y="-278.842" font-family="Helvetica,sans-Serif" font-size="10.00">CellSocietyView.displayXMLChooser</text>
</a>
</g>
</g>
<!-- Node1&#45;&gt;Node8 -->
<g id="edge7" class="edge"><title>Node1&#45;&gt;Node8</title>
<path fill="none" stroke="midnightblue" d="M89.5216,-233.976C109.767,-242.355 140.466,-254.372 168,-262.342 177.186,-265.001 186.989,-267.438 196.647,-269.616"/>
<polygon fill="midnightblue" stroke="midnightblue" points="196.109,-273.081 206.625,-271.791 197.6,-266.242 196.109,-273.081"/>
</g>
<!-- Node9 -->
<g id="node9" class="node"><title>Node9</title>
<g id="a_node9"><a xlink:href="../../d2/d95/class_x_m_l_parser.html#a77ee23818c822b69cdf4200eef726a61" target="_top" xlink:title="XMLParser.parseXMLFile">
<polygon fill="white" stroke="black" points="196,-195.842 196,-214.842 326,-214.842 326,-195.842 196,-195.842"/>
<text text-anchor="middle" x="261" y="-202.842" font-family="Helvetica,sans-Serif" font-size="10.00">XMLParser.parseXMLFile</text>
</a>
</g>
</g>
<!-- Node1&#45;&gt;Node9 -->
<g id="edge9" class="edge"><title>Node1&#45;&gt;Node9</title>
<path fill="none" stroke="midnightblue" d="M132.072,-217.936C149.27,-216.243 167.963,-214.402 185.613,-212.665"/>
<polygon fill="midnightblue" stroke="midnightblue" points="186.257,-216.119 195.866,-211.656 185.571,-209.152 186.257,-216.119"/>
</g>
<!-- Node13 -->
<g id="node13" class="node"><title>Node13</title>
<g id="a_node13"><a xlink:href="../../d3/dff/class_cell_society.html#ae565a305ea53e5a37da9816a236b4fbc" target="_top" xlink:title="CellSociety.pauseAnimation">
<polygon fill="white" stroke="black" points="186.5,-157.842 186.5,-176.842 335.5,-176.842 335.5,-157.842 186.5,-157.842"/>
<text text-anchor="middle" x="261" y="-164.842" font-family="Helvetica,sans-Serif" font-size="10.00">CellSociety.pauseAnimation</text>
</a>
</g>
</g>
<!-- Node1&#45;&gt;Node13 -->
<g id="edge13" class="edge"><title>Node1&#45;&gt;Node13</title>
<path fill="none" stroke="midnightblue" d="M89.5216,-214.708C109.767,-206.328 140.466,-194.312 168,-186.342 177.186,-183.683 186.989,-181.245 196.647,-179.067"/>
<polygon fill="midnightblue" stroke="midnightblue" points="197.6,-182.442 206.625,-176.893 196.109,-175.602 197.6,-182.442"/>
</g>
<!-- Node15 -->
<g id="node15" class="node"><title>Node15</title>
<g id="a_node15"><a xlink:href="../../d3/dff/class_cell_society.html#abfbf43ce46b4c82c16a2d933b6a11abf" target="_top" xlink:title="CellSociety.retrieveParserInfo">
<polygon fill="white" stroke="black" points="183.5,-233.842 183.5,-252.842 338.5,-252.842 338.5,-233.842 183.5,-233.842"/>
<text text-anchor="middle" x="261" y="-240.842" font-family="Helvetica,sans-Serif" font-size="10.00">CellSociety.retrieveParserInfo</text>
</a>
</g>
</g>
<!-- Node1&#45;&gt;Node15 -->
<g id="edge15" class="edge"><title>Node1&#45;&gt;Node15</title>
<path fill="none" stroke="midnightblue" d="M132.072,-230.748C145.281,-232.048 159.372,-233.435 173.195,-234.796"/>
<polygon fill="midnightblue" stroke="midnightblue" points="172.901,-238.284 183.196,-235.781 173.587,-231.318 172.901,-238.284"/>
</g>
<!-- Node17 -->
<g id="node17" class="node"><title>Node17</title>
<g id="a_node17"><a xlink:href="../../dd/d11/class_cell.html#a7157b57f4ff263ea68e1ff5fc424176e" target="_top" xlink:title="Cell.setCellSize">
<polygon fill="white" stroke="black" points="216.5,-119.842 216.5,-138.842 305.5,-138.842 305.5,-119.842 216.5,-119.842"/>
<text text-anchor="middle" x="261" y="-126.842" font-family="Helvetica,sans-Serif" font-size="10.00">Cell.setCellSize</text>
</a>
</g>
</g>
<!-- Node1&#45;&gt;Node17 -->
<g id="edge18" class="edge"><title>Node1&#45;&gt;Node17</title>
<path fill="none" stroke="midnightblue" d="M76.6349,-214.699C93.5571,-198.353 130.404,-165.329 168,-148.342 179.845,-142.99 193.231,-139.129 206.051,-136.349"/>
<polygon fill="midnightblue" stroke="midnightblue" points="207.041,-139.721 216.17,-134.344 205.681,-132.855 207.041,-139.721"/>
</g>
<!-- Node18 -->
<g id="node18" class="node"><title>Node18</title>
<g id="a_node18"><a xlink:href="../../d3/dff/class_cell_society.html#ab9e56a2a70e210e021b51e898508329b" target="_top" xlink:title="CellSociety.setupAnimation">
<polygon fill="white" stroke="black" points="188,-81.8418 188,-100.842 334,-100.842 334,-81.8418 188,-81.8418"/>
<text text-anchor="middle" x="261" y="-88.8418" font-family="Helvetica,sans-Serif" font-size="10.00">CellSociety.setupAnimation</text>
</a>
</g>
</g>
<!-- Node1&#45;&gt;Node18 -->
<g id="edge19" class="edge"><title>Node1&#45;&gt;Node18</title>
<path fill="none" stroke="midnightblue" d="M72.4155,-214.836C85.6135,-192.609 121.773,-137.1 168,-110.342 171.732,-108.182 175.674,-106.265 179.743,-104.565"/>
<polygon fill="midnightblue" stroke="midnightblue" points="181.268,-107.733 189.43,-100.977 178.837,-101.168 181.268,-107.733"/>
</g>
<!-- Node25 -->
<g id="node25" class="node"><title>Node25</title>
<g id="a_node25"><a xlink:href="../../df/df8/class_cell_society_view.html#a43ac2666d3a002024be53fe74028a576" target="_top" xlink:title="CellSocietyView.updateSimGrid">
<polygon fill="white" stroke="black" points="782.5,-43.8418 782.5,-62.8418 947.5,-62.8418 947.5,-43.8418 782.5,-43.8418"/>
<text text-anchor="middle" x="865" y="-50.8418" font-family="Helvetica,sans-Serif" font-size="10.00">CellSocietyView.updateSimGrid</text>
</a>
</g>
</g>
<!-- Node1&#45;&gt;Node25 -->
<g id="edge28" class="edge"><title>Node1&#45;&gt;Node25</title>
<path fill="none" stroke="midnightblue" d="M69.9734,-214.505C79.1187,-186.21 109.796,-104.579 168,-72.3418 385.607,48.1821 703.114,-12.7858 819.292,-41.3384"/>
<polygon fill="midnightblue" stroke="midnightblue" points="818.703,-44.7986 829.253,-43.8291 820.401,-38.0077 818.703,-44.7986"/>
</g>
<!-- Node3 -->
<g id="node3" class="node"><title>Node3</title>
<g id="a_node3"><a xlink:href="../../d3/dff/class_cell_society.html#a117f1698760a3f6bbe51bd7af16f79bb" target="_top" xlink:title="CellSociety.createCellInstance">
<polygon fill="white" stroke="black" points="390.5,-442.842 390.5,-461.842 549.5,-461.842 549.5,-442.842 390.5,-442.842"/>
<text text-anchor="middle" x="470" y="-449.842" font-family="Helvetica,sans-Serif" font-size="10.00">CellSociety.createCellInstance</text>
</a>
</g>
</g>
<!-- Node2&#45;&gt;Node3 -->
<g id="edge2" class="edge"><title>Node2&#45;&gt;Node3</title>
<path fill="none" stroke="midnightblue" d="M292.39,-404.854C318.245,-412.829 356.418,-424.325 390,-433.342 398.904,-435.733 408.412,-438.141 417.633,-440.402"/>
<polygon fill="midnightblue" stroke="midnightblue" points="416.943,-443.836 427.486,-442.791 418.592,-437.033 416.943,-443.836"/>
</g>
<!-- Node4 -->
<g id="node4" class="node"><title>Node4</title>
<g id="a_node4"><a xlink:href="../../d2/d95/class_x_m_l_parser.html#ac4e3257aed1deb9fe950149f706fce5b" target="_top" xlink:title="XMLParser.getCellParamList">
<polygon fill="white" stroke="black" points="395.5,-404.842 395.5,-423.842 544.5,-423.842 544.5,-404.842 395.5,-404.842"/>
<text text-anchor="middle" x="470" y="-411.842" font-family="Helvetica,sans-Serif" font-size="10.00">XMLParser.getCellParamList</text>
</a>
</g>
</g>
<!-- Node2&#45;&gt;Node4 -->
<g id="edge3" class="edge"><title>Node2&#45;&gt;Node4</title>
<path fill="none" stroke="midnightblue" d="M333.238,-401.881C349.955,-403.415 367.92,-405.064 385.133,-406.644"/>
<polygon fill="midnightblue" stroke="midnightblue" points="384.887,-410.136 395.165,-407.565 385.527,-403.165 384.887,-410.136"/>
</g>
<!-- Node2&#45;&gt;Node5 -->
<g id="edge4" class="edge"><title>Node2&#45;&gt;Node5</title>
<path fill="none" stroke="midnightblue" d="M302.597,-385.828C318.719,-381.771 337.353,-376.73 354,-371.342 370.333,-366.055 373.617,-362.472 390,-357.342 398.031,-354.827 406.609,-352.453 415.043,-350.29"/>
<polygon fill="midnightblue" stroke="midnightblue" points="415.978,-353.664 424.836,-347.852 414.287,-346.871 415.978,-353.664"/>
</g>
<!-- Node6 -->
<g id="node6" class="node"><title>Node6</title>
<g id="a_node6"><a xlink:href="../../d3/dff/class_cell_society.html#a42451b17e2bca5fd025c8d4ea74310ca" target="_top" xlink:title="CellSociety.stringToIntArray">
<polygon fill="white" stroke="black" points="397.5,-366.842 397.5,-385.842 542.5,-385.842 542.5,-366.842 397.5,-366.842"/>
<text text-anchor="middle" x="470" y="-373.842" font-family="Helvetica,sans-Serif" font-size="10.00">CellSociety.stringToIntArray</text>
</a>
</g>
</g>
<!-- Node2&#45;&gt;Node6 -->
<g id="edge5" class="edge"><title>Node2&#45;&gt;Node6</title>
<path fill="none" stroke="midnightblue" d="M333.238,-388.803C350.541,-387.215 369.182,-385.504 386.942,-383.874"/>
<polygon fill="midnightblue" stroke="midnightblue" points="387.642,-387.324 397.28,-382.925 387.002,-380.354 387.642,-387.324"/>
</g>
<!-- Node10 -->
<g id="node10" class="node"><title>Node10</title>
<g id="a_node10"><a xlink:href="../../d2/d95/class_x_m_l_parser.html#ae67767f9678fb650ac38b1321ea9f723" target="_top" xlink:title="XMLParser.parseInitialTags">
<polygon fill="white" stroke="black" points="399.5,-195.842 399.5,-214.842 540.5,-214.842 540.5,-195.842 399.5,-195.842"/>
<text text-anchor="middle" x="470" y="-202.842" font-family="Helvetica,sans-Serif" font-size="10.00">XMLParser.parseInitialTags</text>
</a>
</g>
</g>
<!-- Node9&#45;&gt;Node10 -->
<g id="edge10" class="edge"><title>Node9&#45;&gt;Node10</title>
<path fill="none" stroke="midnightblue" d="M326.078,-205.342C346.078,-205.342 368.387,-205.342 389.321,-205.342"/>
<polygon fill="midnightblue" stroke="midnightblue" points="389.471,-208.842 399.471,-205.342 389.471,-201.842 389.471,-208.842"/>
</g>
<!-- Node11 -->
<g id="node11" class="node"><title>Node11</title>
<g id="a_node11"><a xlink:href="../../d2/d95/class_x_m_l_parser.html#a09c6848239104ae94825c045796dddd0" target="_top" xlink:title="XMLParser.makeParamMap">
<polygon fill="white" stroke="black" points="593,-214.842 593,-233.842 739,-233.842 739,-214.842 593,-214.842"/>
<text text-anchor="middle" x="666" y="-221.842" font-family="Helvetica,sans-Serif" font-size="10.00">XMLParser.makeParamMap</text>
</a>
</g>
</g>
<!-- Node10&#45;&gt;Node11 -->
<g id="edge11" class="edge"><title>Node10&#45;&gt;Node11</title>
<path fill="none" stroke="midnightblue" d="M540.764,-212.174C554.401,-213.51 568.818,-214.922 582.815,-216.293"/>
<polygon fill="midnightblue" stroke="midnightblue" points="582.621,-219.79 592.915,-217.282 583.303,-212.824 582.621,-219.79"/>
</g>
<!-- Node12 -->
<g id="node12" class="node"><title>Node12</title>
<g id="a_node12"><a xlink:href="../../d2/d95/class_x_m_l_parser.html#a5a419f71699eb7d3d76ee238fb262a5f" target="_top" xlink:title="XMLParser.makeCellParamList">
<polygon fill="white" stroke="black" points="586,-176.842 586,-195.842 746,-195.842 746,-176.842 586,-176.842"/>
<text text-anchor="middle" x="666" y="-183.842" font-family="Helvetica,sans-Serif" font-size="10.00">XMLParser.makeCellParamList</text>
</a>
</g>
</g>
<!-- Node10&#45;&gt;Node12 -->
<g id="edge12" class="edge"><title>Node10&#45;&gt;Node12</title>
<path fill="none" stroke="midnightblue" d="M540.764,-198.509C552.107,-197.398 563.99,-196.235 575.721,-195.086"/>
<polygon fill="midnightblue" stroke="midnightblue" points="576.363,-198.54 585.974,-194.081 575.681,-191.573 576.363,-198.54"/>
</g>
<!-- Node14 -->
<g id="node14" class="node"><title>Node14</title>
<g id="a_node14"><a xlink:href="../../df/df8/class_cell_society_view.html#ae83511f9bf3610b0750d41c4aeb0f778" target="_top" xlink:title="CellSocietyView.setButtons\lPause">
<polygon fill="white" stroke="black" points="397,-146.342 397,-176.342 543,-176.342 543,-146.342 397,-146.342"/>
<text text-anchor="start" x="405" y="-164.342" font-family="Helvetica,sans-Serif" font-size="10.00">CellSocietyView.setButtons</text>
<text text-anchor="middle" x="470" y="-153.342" font-family="Helvetica,sans-Serif" font-size="10.00">Pause</text>
</a>
</g>
</g>
<!-- Node13&#45;&gt;Node14 -->
<g id="edge14" class="edge"><title>Node13&#45;&gt;Node14</title>
<path fill="none" stroke="midnightblue" d="M335.563,-165.21C352.019,-164.733 369.58,-164.224 386.375,-163.737"/>
<polygon fill="midnightblue" stroke="midnightblue" points="386.823,-167.225 396.717,-163.437 386.62,-160.228 386.823,-167.225"/>
</g>
<!-- Node15&#45;&gt;Node5 -->
<g id="edge16" class="edge"><title>Node15&#45;&gt;Node5</title>
<path fill="none" stroke="midnightblue" d="M324.338,-252.854C334.451,-255.347 344.662,-258.462 354,-262.342 390.678,-277.582 428.134,-305.005 449.943,-322.409"/>
<polygon fill="midnightblue" stroke="midnightblue" points="447.793,-325.172 457.763,-328.758 452.206,-319.737 447.793,-325.172"/>
</g>
<!-- Node16 -->
<g id="node16" class="node"><title>Node16</title>
<g id="a_node16"><a xlink:href="../../d2/d95/class_x_m_l_parser.html#a0df3a2904766f59d1246cb55416f8146" target="_top" xlink:title="XMLParser.getSimParamMap">
<polygon fill="white" stroke="black" points="393,-233.842 393,-252.842 547,-252.842 547,-233.842 393,-233.842"/>
<text text-anchor="middle" x="470" y="-240.842" font-family="Helvetica,sans-Serif" font-size="10.00">XMLParser.getSimParamMap</text>
</a>
</g>
</g>
<!-- Node15&#45;&gt;Node16 -->
<g id="edge17" class="edge"><title>Node15&#45;&gt;Node16</title>
<path fill="none" stroke="midnightblue" d="M338.785,-243.342C352.951,-243.342 367.833,-243.342 382.268,-243.342"/>
<polygon fill="midnightblue" stroke="midnightblue" points="382.684,-246.842 392.684,-243.342 382.684,-239.842 382.684,-246.842"/>
</g>
<!-- Node19 -->
<g id="node19" class="node"><title>Node19</title>
<g id="a_node19"><a xlink:href="../../d3/dff/class_cell_society.html#abf13a64ee79f2cb063447b499c695c58" target="_top" xlink:title="CellSociety.start">
<polygon fill="white" stroke="black" points="423.5,-81.8418 423.5,-100.842 516.5,-100.842 516.5,-81.8418 423.5,-81.8418"/>
<text text-anchor="middle" x="470" y="-88.8418" font-family="Helvetica,sans-Serif" font-size="10.00">CellSociety.start</text>
</a>
</g>
</g>
<!-- Node18&#45;&gt;Node19 -->
<g id="edge20" class="edge"><title>Node18&#45;&gt;Node19</title>
<path fill="none" stroke="midnightblue" d="M334.108,-91.3418C360.04,-91.3418 388.876,-91.3418 413.209,-91.3418"/>
<polygon fill="midnightblue" stroke="midnightblue" points="413.34,-94.8419 423.34,-91.3418 413.34,-87.8419 413.34,-94.8419"/>
</g>
<!-- Node20 -->
<g id="node20" class="node"><title>Node20</title>
<g id="a_node20"><a xlink:href="../../d3/dff/class_cell_society.html#a0ff19c30a1cc433d8ea8444f6a5617f1" target="_top" xlink:title="CellSociety.updateGrid">
<polygon fill="white" stroke="black" points="604,-81.8418 604,-100.842 728,-100.842 728,-81.8418 604,-81.8418"/>
<text text-anchor="middle" x="666" y="-88.8418" font-family="Helvetica,sans-Serif" font-size="10.00">CellSociety.updateGrid</text>
</a>
</g>
</g>
<!-- Node19&#45;&gt;Node20 -->
<g id="edge21" class="edge"><title>Node19&#45;&gt;Node20</title>
<path fill="none" stroke="midnightblue" d="M516.975,-91.3418C539.924,-91.3418 568.2,-91.3418 593.868,-91.3418"/>
<polygon fill="midnightblue" stroke="midnightblue" points="593.933,-94.8419 603.933,-91.3418 593.933,-87.8419 593.933,-94.8419"/>
</g>
<!-- Node21 -->
<g id="node21" class="node"><title>Node21</title>
<g id="a_node21"><a xlink:href="../../d6/d6e/class_sim_controller.html#a10145cee2eaceb4ecad9396a825051d1" target="_top" xlink:title="SimController.runOneSim">
<polygon fill="white" stroke="black" points="796,-106.842 796,-125.842 934,-125.842 934,-106.842 796,-106.842"/>
<text text-anchor="middle" x="865" y="-113.842" font-family="Helvetica,sans-Serif" font-size="10.00">SimController.runOneSim</text>
</a>
</g>
</g>
<!-- Node20&#45;&gt;Node21 -->
<g id="edge22" class="edge"><title>Node20&#45;&gt;Node21</title>
<path fill="none" stroke="midnightblue" d="M728.252,-99.1149C746.527,-101.434 766.808,-104.008 786.002,-106.444"/>
<polygon fill="midnightblue" stroke="midnightblue" points="785.563,-109.916 795.924,-107.703 786.444,-102.972 785.563,-109.916"/>
</g>
<!-- Node20&#45;&gt;Node25 -->
<g id="edge26" class="edge"><title>Node20&#45;&gt;Node25</title>
<path fill="none" stroke="midnightblue" d="M716.457,-81.8019C743.154,-76.6522 776.304,-70.2578 804.415,-64.8354"/>
<polygon fill="midnightblue" stroke="midnightblue" points="805.366,-68.2164 814.523,-62.8857 804.041,-61.3431 805.366,-68.2164"/>
</g>
<!-- Node22 -->
<g id="node22" class="node"><title>Node22</title>
<g id="a_node22"><a xlink:href="../../dd/ddd/class_neighbor.html#ac769186595af20512a2ec4754db75640" target="_top" xlink:title="Neighbor.getNeighbors">
<polygon fill="white" stroke="black" points="995.5,-128.842 995.5,-147.842 1122.5,-147.842 1122.5,-128.842 995.5,-128.842"/>
<text text-anchor="middle" x="1059" y="-135.842" font-family="Helvetica,sans-Serif" font-size="10.00">Neighbor.getNeighbors</text>
</a>
</g>
</g>
<!-- Node21&#45;&gt;Node22 -->
<g id="edge23" class="edge"><title>Node21&#45;&gt;Node22</title>
<path fill="none" stroke="midnightblue" d="M934.233,-124.16C950.746,-126.052 968.458,-128.082 985.174,-129.997"/>
<polygon fill="midnightblue" stroke="midnightblue" points="985.099,-133.511 995.433,-131.173 985.896,-126.557 985.099,-133.511"/>
</g>
<!-- Node23 -->
<g id="node23" class="node"><title>Node23</title>
<g id="a_node23"><a xlink:href="../../d6/d6e/class_sim_controller.html#a0b75005badf06910bcd21f152c640762" target="_top" xlink:title="SimController.getNeighbors\lState">
<polygon fill="white" stroke="black" points="984.5,-79.3418 984.5,-109.342 1133.5,-109.342 1133.5,-79.3418 984.5,-79.3418"/>
<text text-anchor="start" x="992.5" y="-97.3418" font-family="Helvetica,sans-Serif" font-size="10.00">SimController.getNeighbors</text>
<text text-anchor="middle" x="1059" y="-86.3418" font-family="Helvetica,sans-Serif" font-size="10.00">State</text>
</a>
</g>
</g>
<!-- Node21&#45;&gt;Node23 -->
<g id="edge24" class="edge"><title>Node21&#45;&gt;Node23</title>
<path fill="none" stroke="midnightblue" d="M934.233,-108.523C947.202,-107.037 960.912,-105.467 974.297,-103.933"/>
<polygon fill="midnightblue" stroke="midnightblue" points="974.915,-107.385 984.452,-102.769 974.118,-100.43 974.915,-107.385"/>
</g>
<!-- Node24 -->
<g id="node24" class="node"><title>Node24</title>
<g id="a_node24"><a xlink:href="../../d6/d6e/class_sim_controller.html#a0a26878930cc1e557b0e101867cb2c23" target="_top" xlink:title="SimController.newState">
<polygon fill="white" stroke="black" points="994.5,-166.842 994.5,-185.842 1123.5,-185.842 1123.5,-166.842 994.5,-166.842"/>
<text text-anchor="middle" x="1059" y="-173.842" font-family="Helvetica,sans-Serif" font-size="10.00">SimController.newState</text>
</a>
</g>
</g>
<!-- Node21&#45;&gt;Node24 -->
<g id="edge25" class="edge"><title>Node21&#45;&gt;Node24</title>
<path fill="none" stroke="midnightblue" d="M891.58,-125.92C915.347,-134.654 951.816,-147.637 984,-157.342 991.855,-159.71 1000.23,-162.043 1008.42,-164.22"/>
<polygon fill="midnightblue" stroke="midnightblue" points="1007.72,-167.652 1018.28,-166.789 1009.48,-160.879 1007.72,-167.652"/>
</g>
<!-- Node26 -->
<g id="node26" class="node"><title>Node26</title>
<g id="a_node26"><a xlink:href="../../dd/d11/class_cell.html#a1e0ece61fecc69a9b7986d17d925434a" target="_top" xlink:title="Cell.getShape">
<polygon fill="white" stroke="black" points="1017.5,-40.8418 1017.5,-59.8418 1100.5,-59.8418 1100.5,-40.8418 1017.5,-40.8418"/>
<text text-anchor="middle" x="1059" y="-47.8418" font-family="Helvetica,sans-Serif" font-size="10.00">Cell.getShape</text>
</a>
</g>
</g>
<!-- Node25&#45;&gt;Node26 -->
<g id="edge27" class="edge"><title>Node25&#45;&gt;Node26</title>
<path fill="none" stroke="midnightblue" d="M947.704,-52.0652C967.933,-51.7491 989.029,-51.4195 1007.29,-51.1342"/>
<polygon fill="midnightblue" stroke="midnightblue" points="1007.46,-54.6321 1017.4,-50.9762 1007.35,-47.6329 1007.46,-54.6321"/>
</g>
</g>
</svg>
