<?xml version="1.0" encoding="UTF-8" standalone="no"?>
<!DOCTYPE svg PUBLIC "-//W3C//DTD SVG 1.1//EN"
 "http://www.w3.org/Graphics/SVG/1.1/DTD/svg11.dtd">
<!-- Generated by graphviz version 2.36.0 (20140111.2315)
 -->
<!-- Title: CellSociety.CellSociety Pages: 1 -->
<!--zoomable 626 -->
<svg id="main" version="1.1" xmlns="http://www.w3.org/2000/svg" xmlns:xlink="http://www.w3.org/1999/xlink" xml:space="preserve" onload="init(evt)">
<style type="text/css"><![CDATA[
.edge:hover path { stroke: red; }
.edge:hover polygon { stroke: red; fill: red; }
]]></style>
<script type="text/javascript"><![CDATA[
var edges = document.getElementsByTagName('g');
if (edges && edges.length) {
  for (var i=0;i<edges.length;i++) {
    if (edges[i].id.substr(0,4)=='edge') {
      edges[i].setAttribute('class','edge');
    }
  }
}
]]></script>
        <defs>
                <circle id="rim" cx="0" cy="0" r="7"/>
                <circle id="rim2" cx="0" cy="0" r="3.5"/>
                <g id="zoomPlus">
                        <use xlink:href="#rim" fill="#404040">
                                <set attributeName="fill" to="#808080" begin="zoomplus.mouseover" end="zoomplus.mouseout"/>
                        </use>
                        <path d="M-4,0h8M0,-4v8" fill="none" stroke="white" stroke-width="1.5" pointer-events="none"/>
                </g>
                <g id="zoomMin">
                        <use xlink:href="#rim" fill="#404040">
                                <set attributeName="fill" to="#808080" begin="zoomminus.mouseover" end="zoomminus.mouseout"/>
                        </use>
                        <path d="M-4,0h8" fill="none" stroke="white" stroke-width="1.5" pointer-events="none"/>
                </g>
                <g id="dirArrow">
                        <path fill="none" stroke="white" stroke-width="1.5" d="M0,-3.0v7 M-2.5,-0.5L0,-3.0L2.5,-0.5"/>
                </g>
               <g id="resetDef">
                       <use xlink:href="#rim2" fill="#404040">
                               <set attributeName="fill" to="#808080" begin="reset.mouseover" end="reset.mouseout"/>
                       </use>
               </g>
        </defs>

<script type="text/javascript">
var viewWidth = 1554;
var viewHeight = 626;
var sectionId = 'dynsection-1';
</script>
<script xlink:href="../../svgpan.js"/>
<svg id="graph" class="graph">
<g id="viewport">
<title>CellSociety.CellSociety</title>
<polygon fill="white" stroke="none" points="-4,4 -4,-622.34 1550,-622.34 1550,4 -4,4"/>
<!-- Node1 -->
<g id="node1" class="node"><title>Node1</title>
<polygon fill="#bfbfbf" stroke="black" points="0.5,-377.84 0.5,-396.84 123.5,-396.84 123.5,-377.84 0.5,-377.84"/>
<text text-anchor="middle" x="62" y="-384.84" font-family="Helvetica,sans-Serif" font-size="10.00">CellSociety.CellSociety</text>
</g>
<!-- Node2 -->
<g id="node2" class="node"><title>Node2</title>
<g id="a_node2"><a xlink:href="../../d3/dff/class_cell_society.html#a656ff46d1459fb7f86b42e3c542506ee" target="_top" xlink:title="CellSociety.configureListeners">
<polygon fill="white" stroke="black" points="160,-377.84 160,-396.84 318,-396.84 318,-377.84 160,-377.84"/>
<text text-anchor="middle" x="239" y="-384.84" font-family="Helvetica,sans-Serif" font-size="10.00">CellSociety.configureListeners</text>
</a>
</g>
</g>
<!-- Node1&#45;&gt;Node2 -->
<g id="edge1" class="edge"><title>Node1&#45;&gt;Node2</title>
<path fill="none" stroke="midnightblue" d="M123.715,-387.34C132.088,-387.34 140.823,-387.34 149.57,-387.34"/>
<polygon fill="midnightblue" stroke="midnightblue" points="149.823,-390.84 159.823,-387.34 149.823,-383.84 149.823,-390.84"/>
</g>
<!-- Node3 -->
<g id="node3" class="node"><title>Node3</title>
<g id="a_node3"><a xlink:href="../../df/df8/class_cell_society_view.html#aae7c36ea6b5215b0ba9ee01c72dfcb94" target="_top" xlink:title="CellSocietyView.getPlayElement">
<polygon fill="white" stroke="black" points="356,-598.84 356,-617.84 524,-617.84 524,-598.84 356,-598.84"/>
<text text-anchor="middle" x="440" y="-605.84" font-family="Helvetica,sans-Serif" font-size="10.00">CellSocietyView.getPlayElement</text>
</a>
</g>
</g>
<!-- Node2&#45;&gt;Node3 -->
<g id="edge2" class="edge"><title>Node2&#45;&gt;Node3</title>
<path fill="none" stroke="midnightblue" d="M242.486,-397.254C251.322,-430.334 284.476,-537.743 354,-589.34 356.529,-591.217 359.209,-592.914 361.999,-594.448"/>
<polygon fill="midnightblue" stroke="midnightblue" points="360.696,-597.704 371.233,-598.815 363.689,-591.376 360.696,-597.704"/>
</g>
<!-- Node4 -->
<g id="node4" class="node"><title>Node4</title>
<g id="a_node4"><a xlink:href="../../d3/dff/class_cell_society.html#a6a4056cd40e4162583f2b9845b77a191" target="_top" xlink:title="CellSociety.resumeAnimation">
<polygon fill="white" stroke="black" points="362,-560.84 362,-579.84 518,-579.84 518,-560.84 362,-560.84"/>
<text text-anchor="middle" x="440" y="-567.84" font-family="Helvetica,sans-Serif" font-size="10.00">CellSociety.resumeAnimation</text>
</a>
</g>
</g>
<!-- Node2&#45;&gt;Node4 -->
<g id="edge3" class="edge"><title>Node2&#45;&gt;Node4</title>
<path fill="none" stroke="midnightblue" d="M243.738,-396.888C255.353,-425.233 293.69,-509.451 354,-550.34 357.7,-552.848 361.675,-555.044 365.813,-556.966"/>
<polygon fill="midnightblue" stroke="midnightblue" points="364.506,-560.213 375.087,-560.751 367.151,-553.732 364.506,-560.213"/>
</g>
<!-- Node6 -->
<g id="node6" class="node"><title>Node6</title>
<g id="a_node6"><a xlink:href="../../df/df8/class_cell_society_view.html#ada088eb9125561f8dd941badb141fa86" target="_top" xlink:title="CellSocietyView.getPause\lElement">
<polygon fill="white" stroke="black" points="371.5,-511.34 371.5,-541.34 508.5,-541.34 508.5,-511.34 371.5,-511.34"/>
<text text-anchor="start" x="379.5" y="-529.34" font-family="Helvetica,sans-Serif" font-size="10.00">CellSocietyView.getPause</text>
<text text-anchor="middle" x="440" y="-518.34" font-family="Helvetica,sans-Serif" font-size="10.00">Element</text>
</a>
</g>
</g>
<!-- Node2&#45;&gt;Node6 -->
<g id="edge5" class="edge"><title>Node2&#45;&gt;Node6</title>
<path fill="none" stroke="midnightblue" d="M247.534,-396.901C264.441,-417.768 307.577,-467.805 354,-496.34 360.824,-500.534 368.318,-504.251 375.94,-507.513"/>
<polygon fill="midnightblue" stroke="midnightblue" points="374.682,-510.779 385.265,-511.268 377.297,-504.286 374.682,-510.779"/>
</g>
<!-- Node7 -->
<g id="node7" class="node"><title>Node7</title>
<g id="a_node7"><a xlink:href="../../d3/dff/class_cell_society.html#ae565a305ea53e5a37da9816a236b4fbc" target="_top" xlink:title="CellSociety.pauseAnimation">
<polygon fill="white" stroke="black" points="580.5,-434.84 580.5,-453.84 729.5,-453.84 729.5,-434.84 580.5,-434.84"/>
<text text-anchor="middle" x="655" y="-441.84" font-family="Helvetica,sans-Serif" font-size="10.00">CellSociety.pauseAnimation</text>
</a>
</g>
</g>
<!-- Node2&#45;&gt;Node7 -->
<g id="edge6" class="edge"><title>Node2&#45;&gt;Node7</title>
<path fill="none" stroke="midnightblue" d="M263.104,-397.01C285.804,-406.037 321.646,-419.034 354,-425.34 426.028,-439.379 509.441,-443.728 570.001,-444.796"/>
<polygon fill="midnightblue" stroke="midnightblue" points="570.224,-448.299 580.275,-444.95 570.329,-441.3 570.224,-448.299"/>
</g>
<!-- Node9 -->
<g id="node9" class="node"><title>Node9</title>
<g id="a_node9"><a xlink:href="../../df/df8/class_cell_society_view.html#a3c3a7039f77d392c374cd309967ca1cc" target="_top" xlink:title="CellSocietyView.getStepElement">
<polygon fill="white" stroke="black" points="354.5,-282.84 354.5,-301.84 525.5,-301.84 525.5,-282.84 354.5,-282.84"/>
<text text-anchor="middle" x="440" y="-289.84" font-family="Helvetica,sans-Serif" font-size="10.00">CellSocietyView.getStepElement</text>
</a>
</g>
</g>
<!-- Node2&#45;&gt;Node9 -->
<g id="edge8" class="edge"><title>Node2&#45;&gt;Node9</title>
<path fill="none" stroke="midnightblue" d="M251.154,-377.822C270.674,-361.665 312.88,-328.917 354,-311.34 359.84,-308.843 366.051,-306.655 372.355,-304.74"/>
<polygon fill="midnightblue" stroke="midnightblue" points="373.614,-308.022 382.298,-301.952 371.724,-301.282 373.614,-308.022"/>
</g>
<!-- Node10 -->
<g id="node10" class="node"><title>Node10</title>
<g id="a_node10"><a xlink:href="../../d3/dff/class_cell_society.html#a0ff19c30a1cc433d8ea8444f6a5617f1" target="_top" xlink:title="CellSociety.updateGrid">
<polygon fill="white" stroke="black" points="1016,-371.84 1016,-390.84 1140,-390.84 1140,-371.84 1016,-371.84"/>
<text text-anchor="middle" x="1078" y="-378.84" font-family="Helvetica,sans-Serif" font-size="10.00">CellSociety.updateGrid</text>
</a>
</g>
</g>
<!-- Node2&#45;&gt;Node10 -->
<g id="edge9" class="edge"><title>Node2&#45;&gt;Node10</title>
<path fill="none" stroke="midnightblue" d="M253.571,-397.071C274.144,-411.229 314.972,-437.047 354,-448.34 613.643,-523.467 704.521,-544.578 962,-462.34 1001.64,-449.68 1039.45,-417.992 1060.32,-398.212"/>
<polygon fill="midnightblue" stroke="midnightblue" points="1062.96,-400.518 1067.69,-391.036 1058.08,-395.5 1062.96,-400.518"/>
</g>
<!-- Node17 -->
<g id="node17" class="node"><title>Node17</title>
<g id="a_node17"><a xlink:href="../../df/df8/class_cell_society_view.html#aebad9aaff0e9784fec1518d319e03c85" target="_top" xlink:title="CellSocietyView.getXMLElement">
<polygon fill="white" stroke="black" points="356,-244.84 356,-263.84 524,-263.84 524,-244.84 356,-244.84"/>
<text text-anchor="middle" x="440" y="-251.84" font-family="Helvetica,sans-Serif" font-size="10.00">CellSocietyView.getXMLElement</text>
</a>
</g>
</g>
<!-- Node2&#45;&gt;Node17 -->
<g id="edge16" class="edge"><title>Node2&#45;&gt;Node17</title>
<path fill="none" stroke="midnightblue" d="M246.698,-377.568C262.539,-355.263 304.7,-300.443 354,-273.34 358.17,-271.047 362.599,-269.031 367.16,-267.259"/>
<polygon fill="midnightblue" stroke="midnightblue" points="368.374,-270.542 376.669,-263.951 366.074,-263.931 368.374,-270.542"/>
</g>
<!-- Node18 -->
<g id="node18" class="node"><title>Node18</title>
<g id="a_node18"><a xlink:href="../../d3/dff/class_cell_society.html#af9f22af39a97a58b26126020ca6c8844" target="_top" xlink:title="CellSociety.readNewXML">
<polygon fill="white" stroke="black" points="374,-320.84 374,-339.84 506,-339.84 506,-320.84 374,-320.84"/>
<text text-anchor="middle" x="440" y="-327.84" font-family="Helvetica,sans-Serif" font-size="10.00">CellSociety.readNewXML</text>
</a>
</g>
</g>
<!-- Node2&#45;&gt;Node18 -->
<g id="edge17" class="edge"><title>Node2&#45;&gt;Node18</title>
<path fill="none" stroke="midnightblue" d="M266.028,-377.821C288.985,-369.629 323.445,-357.823 354,-349.34 363.192,-346.788 373.015,-344.34 382.6,-342.099"/>
<polygon fill="midnightblue" stroke="midnightblue" points="383.498,-345.484 392.467,-339.844 381.938,-338.66 383.498,-345.484"/>
</g>
<!-- Node35 -->
<g id="node35" class="node"><title>Node35</title>
<g id="a_node35"><a xlink:href="../../df/df8/class_cell_society_view.html#a572d464cbe7d186dc9a5b0e4a8130689" target="_top" xlink:title="CellSocietyView.getSpeedup\lElement">
<polygon fill="white" stroke="black" points="364,-195.34 364,-225.34 516,-225.34 516,-195.34 364,-195.34"/>
<text text-anchor="start" x="372" y="-213.34" font-family="Helvetica,sans-Serif" font-size="10.00">CellSocietyView.getSpeedup</text>
<text text-anchor="middle" x="440" y="-202.34" font-family="Helvetica,sans-Serif" font-size="10.00">Element</text>
</a>
</g>
</g>
<!-- Node2&#45;&gt;Node35 -->
<g id="edge39" class="edge"><title>Node2&#45;&gt;Node35</title>
<path fill="none" stroke="midnightblue" d="M244.389,-377.825C257.22,-351.083 297.362,-274.646 354,-235.34 356.867,-233.35 359.893,-231.517 363.029,-229.828"/>
<polygon fill="midnightblue" stroke="midnightblue" points="364.629,-232.942 372.109,-225.439 361.583,-226.639 364.629,-232.942"/>
</g>
<!-- Node36 -->
<g id="node36" class="node"><title>Node36</title>
<g id="a_node36"><a xlink:href="../../d3/dff/class_cell_society.html#a8250bfacdaf51dabf6b9d1cafc0ce9b2" target="_top" xlink:title="CellSociety.increaseFrameRate">
<polygon fill="white" stroke="black" points="358.5,-358.84 358.5,-377.84 521.5,-377.84 521.5,-358.84 358.5,-358.84"/>
<text text-anchor="middle" x="440" y="-365.84" font-family="Helvetica,sans-Serif" font-size="10.00">CellSociety.increaseFrameRate</text>
</a>
</g>
</g>
<!-- Node2&#45;&gt;Node36 -->
<g id="edge40" class="edge"><title>Node2&#45;&gt;Node36</title>
<path fill="none" stroke="midnightblue" d="M318.079,-379.885C327.961,-378.941 338.138,-377.97 348.196,-377.009"/>
<polygon fill="midnightblue" stroke="midnightblue" points="348.577,-380.489 358.199,-376.054 347.912,-373.521 348.577,-380.489"/>
</g>
<!-- Node38 -->
<g id="node38" class="node"><title>Node38</title>
<g id="a_node38"><a xlink:href="../../df/df8/class_cell_society_view.html#a0f616a01579a7293ef781d3e341ea1ac" target="_top" xlink:title="CellSocietyView.getSlowdown\lElement">
<polygon fill="white" stroke="black" points="362.5,-146.34 362.5,-176.34 517.5,-176.34 517.5,-146.34 362.5,-146.34"/>
<text text-anchor="start" x="370.5" y="-164.34" font-family="Helvetica,sans-Serif" font-size="10.00">CellSocietyView.getSlowdown</text>
<text text-anchor="middle" x="440" y="-153.34" font-family="Helvetica,sans-Serif" font-size="10.00">Element</text>
</a>
</g>
</g>
<!-- Node2&#45;&gt;Node38 -->
<g id="edge44" class="edge"><title>Node2&#45;&gt;Node38</title>
<path fill="none" stroke="midnightblue" d="M242.598,-377.572C251.787,-344.954 285.929,-238.838 354,-185.34 355.628,-184.061 357.32,-182.85 359.066,-181.703"/>
<polygon fill="midnightblue" stroke="midnightblue" points="361.24,-184.492 368.186,-176.492 357.767,-178.414 361.24,-184.492"/>
</g>
<!-- Node39 -->
<g id="node39" class="node"><title>Node39</title>
<g id="a_node39"><a xlink:href="../../d3/dff/class_cell_society.html#a045267ba1843ca4a47891d7be73c2ac1" target="_top" xlink:title="CellSociety.decreaseFrameRate">
<polygon fill="white" stroke="black" points="356.5,-396.84 356.5,-415.84 523.5,-415.84 523.5,-396.84 356.5,-396.84"/>
<text text-anchor="middle" x="440" y="-403.84" font-family="Helvetica,sans-Serif" font-size="10.00">CellSociety.decreaseFrameRate</text>
</a>
</g>
</g>
<!-- Node2&#45;&gt;Node39 -->
<g id="edge45" class="edge"><title>Node2&#45;&gt;Node39</title>
<path fill="none" stroke="midnightblue" d="M318.079,-394.794C327.275,-395.672 336.727,-396.575 346.101,-397.47"/>
<polygon fill="midnightblue" stroke="midnightblue" points="345.938,-400.97 356.226,-398.437 346.604,-394.002 345.938,-400.97"/>
</g>
<!-- Node5 -->
<g id="node5" class="node"><title>Node5</title>
<g id="a_node5"><a xlink:href="../../df/df8/class_cell_society_view.html#a835e3da6dc6b50fefa0ed4606a5d4c95" target="_top" xlink:title="CellSocietyView.changeResume\lButtonPermissions">
<polygon fill="white" stroke="black" points="571.5,-555.34 571.5,-585.34 738.5,-585.34 738.5,-555.34 571.5,-555.34"/>
<text text-anchor="start" x="579.5" y="-573.34" font-family="Helvetica,sans-Serif" font-size="10.00">CellSocietyView.changeResume</text>
<text text-anchor="middle" x="655" y="-562.34" font-family="Helvetica,sans-Serif" font-size="10.00">ButtonPermissions</text>
</a>
</g>
</g>
<!-- Node4&#45;&gt;Node5 -->
<g id="edge4" class="edge"><title>Node4&#45;&gt;Node5</title>
<path fill="none" stroke="midnightblue" d="M518.199,-570.34C532.091,-570.34 546.703,-570.34 560.987,-570.34"/>
<polygon fill="midnightblue" stroke="midnightblue" points="561.315,-573.84 571.315,-570.34 561.315,-566.84 561.315,-573.84"/>
</g>
<!-- Node8 -->
<g id="node8" class="node"><title>Node8</title>
<g id="a_node8"><a xlink:href="../../df/df8/class_cell_society_view.html#a444613a006f141c6445693c30171be76" target="_top" xlink:title="CellSocietyView.changePause\lButtonPermissions">
<polygon fill="white" stroke="black" points="794.5,-423.34 794.5,-453.34 951.5,-453.34 951.5,-423.34 794.5,-423.34"/>
<text text-anchor="start" x="802.5" y="-441.34" font-family="Helvetica,sans-Serif" font-size="10.00">CellSocietyView.changePause</text>
<text text-anchor="middle" x="873" y="-430.34" font-family="Helvetica,sans-Serif" font-size="10.00">ButtonPermissions</text>
</a>
</g>
</g>
<!-- Node7&#45;&gt;Node8 -->
<g id="edge7" class="edge"><title>Node7&#45;&gt;Node8</title>
<path fill="none" stroke="midnightblue" d="M729.731,-442.292C747.18,-441.807 765.96,-441.285 783.972,-440.785"/>
<polygon fill="midnightblue" stroke="midnightblue" points="784.28,-444.278 794.179,-440.501 784.085,-437.281 784.28,-444.278"/>
</g>
<!-- Node11 -->
<g id="node11" class="node"><title>Node11</title>
<g id="a_node11"><a xlink:href="../../d6/d6e/class_sim_controller.html#a10145cee2eaceb4ecad9396a825051d1" target="_top" xlink:title="SimController.runOneSim">
<polygon fill="white" stroke="black" points="1208,-371.84 1208,-390.84 1346,-390.84 1346,-371.84 1208,-371.84"/>
<text text-anchor="middle" x="1277" y="-378.84" font-family="Helvetica,sans-Serif" font-size="10.00">SimController.runOneSim</text>
</a>
</g>
</g>
<!-- Node10&#45;&gt;Node11 -->
<g id="edge10" class="edge"><title>Node10&#45;&gt;Node11</title>
<path fill="none" stroke="midnightblue" d="M1140.25,-381.34C1158.44,-381.34 1178.62,-381.34 1197.74,-381.34"/>
<polygon fill="midnightblue" stroke="midnightblue" points="1197.92,-384.84 1207.92,-381.34 1197.92,-377.84 1197.92,-384.84"/>
</g>
<!-- Node15 -->
<g id="node15" class="node"><title>Node15</title>
<g id="a_node15"><a xlink:href="../../df/df8/class_cell_society_view.html#a43ac2666d3a002024be53fe74028a576" target="_top" xlink:title="CellSocietyView.updateSimGrid">
<polygon fill="white" stroke="black" points="1194.5,-156.84 1194.5,-175.84 1359.5,-175.84 1359.5,-156.84 1194.5,-156.84"/>
<text text-anchor="middle" x="1277" y="-163.84" font-family="Helvetica,sans-Serif" font-size="10.00">CellSocietyView.updateSimGrid</text>
</a>
</g>
</g>
<!-- Node10&#45;&gt;Node15 -->
<g id="edge14" class="edge"><title>Node10&#45;&gt;Node15</title>
<path fill="none" stroke="midnightblue" d="M1087.72,-371.824C1118.22,-338.537 1220.42,-226.998 1260.08,-183.715"/>
<polygon fill="midnightblue" stroke="midnightblue" points="1262.76,-185.974 1266.93,-176.236 1257.6,-181.245 1262.76,-185.974"/>
</g>
<!-- Node12 -->
<g id="node12" class="node"><title>Node12</title>
<g id="a_node12"><a xlink:href="../../dd/ddd/class_neighbor.html#ac769186595af20512a2ec4754db75640" target="_top" xlink:title="Neighbor.getNeighbors">
<polygon fill="white" stroke="black" points="1407.5,-333.84 1407.5,-352.84 1534.5,-352.84 1534.5,-333.84 1407.5,-333.84"/>
<text text-anchor="middle" x="1471" y="-340.84" font-family="Helvetica,sans-Serif" font-size="10.00">Neighbor.getNeighbors</text>
</a>
</g>
</g>
<!-- Node11&#45;&gt;Node12 -->
<g id="edge11" class="edge"><title>Node11&#45;&gt;Node12</title>
<path fill="none" stroke="midnightblue" d="M1326.45,-371.751C1352.47,-366.601 1384.73,-360.216 1412.07,-354.805"/>
<polygon fill="midnightblue" stroke="midnightblue" points="1412.77,-358.235 1421.9,-352.86 1411.41,-351.368 1412.77,-358.235"/>
</g>
<!-- Node13 -->
<g id="node13" class="node"><title>Node13</title>
<g id="a_node13"><a xlink:href="../../d6/d6e/class_sim_controller.html#a0b75005badf06910bcd21f152c640762" target="_top" xlink:title="SimController.getNeighbors\lState">
<polygon fill="white" stroke="black" points="1396.5,-410.34 1396.5,-440.34 1545.5,-440.34 1545.5,-410.34 1396.5,-410.34"/>
<text text-anchor="start" x="1404.5" y="-428.34" font-family="Helvetica,sans-Serif" font-size="10.00">SimController.getNeighbors</text>
<text text-anchor="middle" x="1471" y="-417.34" font-family="Helvetica,sans-Serif" font-size="10.00">State</text>
</a>
</g>
</g>
<!-- Node11&#45;&gt;Node13 -->
<g id="edge12" class="edge"><title>Node11&#45;&gt;Node13</title>
<path fill="none" stroke="midnightblue" d="M1319.66,-390.887C1341.47,-395.885 1368.86,-402.162 1394.27,-407.984"/>
<polygon fill="midnightblue" stroke="midnightblue" points="1393.73,-411.452 1404.26,-410.274 1395.29,-404.629 1393.73,-411.452"/>
</g>
<!-- Node14 -->
<g id="node14" class="node"><title>Node14</title>
<g id="a_node14"><a xlink:href="../../d6/d6e/class_sim_controller.html#a0a26878930cc1e557b0e101867cb2c23" target="_top" xlink:title="SimController.newState">
<polygon fill="white" stroke="black" points="1406.5,-371.84 1406.5,-390.84 1535.5,-390.84 1535.5,-371.84 1406.5,-371.84"/>
<text text-anchor="middle" x="1471" y="-378.84" font-family="Helvetica,sans-Serif" font-size="10.00">SimController.newState</text>
</a>
</g>
</g>
<!-- Node11&#45;&gt;Node14 -->
<g id="edge13" class="edge"><title>Node11&#45;&gt;Node14</title>
<path fill="none" stroke="midnightblue" d="M1346.23,-381.34C1362.48,-381.34 1379.88,-381.34 1396.36,-381.34"/>
<polygon fill="midnightblue" stroke="midnightblue" points="1396.48,-384.84 1406.48,-381.34 1396.48,-377.84 1396.48,-384.84"/>
</g>
<!-- Node16 -->
<g id="node16" class="node"><title>Node16</title>
<g id="a_node16"><a xlink:href="../../dd/d11/class_cell.html#a1e0ece61fecc69a9b7986d17d925434a" target="_top" xlink:title="Cell.getShape">
<polygon fill="white" stroke="black" points="1429.5,-156.84 1429.5,-175.84 1512.5,-175.84 1512.5,-156.84 1429.5,-156.84"/>
<text text-anchor="middle" x="1471" y="-163.84" font-family="Helvetica,sans-Serif" font-size="10.00">Cell.getShape</text>
</a>
</g>
</g>
<!-- Node15&#45;&gt;Node16 -->
<g id="edge15" class="edge"><title>Node15&#45;&gt;Node16</title>
<path fill="none" stroke="midnightblue" d="M1359.7,-166.34C1379.93,-166.34 1401.03,-166.34 1419.29,-166.34"/>
<polygon fill="midnightblue" stroke="midnightblue" points="1419.4,-169.84 1429.4,-166.34 1419.4,-162.84 1419.4,-169.84"/>
</g>
<!-- Node18&#45;&gt;Node7 -->
<g id="edge37" class="edge"><title>Node18&#45;&gt;Node7</title>
<path fill="none" stroke="midnightblue" d="M506.065,-338.28C513.252,-341.019 520.093,-344.62 526,-349.34 555.199,-372.671 532.612,-402.246 562,-425.34 564.843,-427.574 567.884,-429.564 571.067,-431.335"/>
<polygon fill="midnightblue" stroke="midnightblue" points="569.834,-434.624 580.367,-435.767 572.846,-428.305 569.834,-434.624"/>
</g>
<!-- Node18&#45;&gt;Node15 -->
<g id="edge36" class="edge"><title>Node18&#45;&gt;Node15</title>
<path fill="none" stroke="midnightblue" d="M506.232,-324.469C513.658,-321.421 520.515,-317.183 526,-311.34 596.209,-236.539 489.929,-156.348 562,-83.3397 756.474,113.664 1150.01,-93.0599 1251.62,-151.765"/>
<polygon fill="midnightblue" stroke="midnightblue" points="1249.87,-154.794 1260.27,-156.813 1253.4,-148.749 1249.87,-154.794"/>
</g>
<!-- Node19 -->
<g id="node19" class="node"><title>Node19</title>
<g id="a_node19"><a xlink:href="../../df/df8/class_cell_society_view.html#a053b6ef6afa80722445223c4e373e51c" target="_top" xlink:title="CellSocietyView.displayXMLChooser">
<polygon fill="white" stroke="black" points="562.5,-130.84 562.5,-149.84 747.5,-149.84 747.5,-130.84 562.5,-130.84"/>
<text text-anchor="middle" x="655" y="-137.84" font-family="Helvetica,sans-Serif" font-size="10.00">CellSocietyView.displayXMLChooser</text>
</a>
</g>
</g>
<!-- Node18&#45;&gt;Node19 -->
<g id="edge18" class="edge"><title>Node18&#45;&gt;Node19</title>
<path fill="none" stroke="midnightblue" d="M506.205,-323.857C513.542,-320.895 520.384,-316.843 526,-311.34 574.042,-264.261 514.796,-212.258 562,-164.34 565.741,-160.542 570.003,-157.32 574.594,-154.59"/>
<polygon fill="midnightblue" stroke="midnightblue" points="576.449,-157.573 583.779,-149.923 573.278,-151.333 576.449,-157.573"/>
</g>
<!-- Node20 -->
<g id="node20" class="node"><title>Node20</title>
<g id="a_node20"><a xlink:href="../../d2/d95/class_x_m_l_parser.html#a77ee23818c822b69cdf4200eef726a61" target="_top" xlink:title="XMLParser.parseXMLFile">
<polygon fill="white" stroke="black" points="590,-244.84 590,-263.84 720,-263.84 720,-244.84 590,-244.84"/>
<text text-anchor="middle" x="655" y="-251.84" font-family="Helvetica,sans-Serif" font-size="10.00">XMLParser.parseXMLFile</text>
</a>
</g>
</g>
<!-- Node18&#45;&gt;Node20 -->
<g id="edge19" class="edge"><title>Node18&#45;&gt;Node20</title>
<path fill="none" stroke="midnightblue" d="M502.279,-320.709C510.498,-318.258 518.627,-315.187 526,-311.34 545.243,-301.299 542.937,-288.718 562,-278.34 570.5,-273.712 579.933,-269.945 589.425,-266.887"/>
<polygon fill="midnightblue" stroke="midnightblue" points="590.713,-270.156 599.301,-263.951 588.718,-263.446 590.713,-270.156"/>
</g>
<!-- Node24 -->
<g id="node24" class="node"><title>Node24</title>
<g id="a_node24"><a xlink:href="../../d3/dff/class_cell_society.html#abfbf43ce46b4c82c16a2d933b6a11abf" target="_top" xlink:title="CellSociety.retrieveParserInfo">
<polygon fill="white" stroke="black" points="577.5,-206.84 577.5,-225.84 732.5,-225.84 732.5,-206.84 577.5,-206.84"/>
<text text-anchor="middle" x="655" y="-213.84" font-family="Helvetica,sans-Serif" font-size="10.00">CellSociety.retrieveParserInfo</text>
</a>
</g>
</g>
<!-- Node18&#45;&gt;Node24 -->
<g id="edge23" class="edge"><title>Node18&#45;&gt;Node24</title>
<path fill="none" stroke="midnightblue" d="M506.065,-322.399C513.252,-319.66 520.093,-316.059 526,-311.34 555.199,-288.008 532.612,-258.433 562,-235.34 564.208,-233.605 566.535,-232.017 568.956,-230.565"/>
<polygon fill="midnightblue" stroke="midnightblue" points="570.785,-233.56 578.081,-225.878 567.586,-227.333 570.785,-233.56"/>
</g>
<!-- Node25 -->
<g id="node25" class="node"><title>Node25</title>
<g id="a_node25"><a xlink:href="../../d2/d95/class_x_m_l_parser.html#aea9b535964c91fa3c3d2b1c0b6a334c2" target="_top" xlink:title="XMLParser.getInitParamMap">
<polygon fill="white" stroke="black" points="798.5,-168.84 798.5,-187.84 947.5,-187.84 947.5,-168.84 798.5,-168.84"/>
<text text-anchor="middle" x="873" y="-175.84" font-family="Helvetica,sans-Serif" font-size="10.00">XMLParser.getInitParamMap</text>
</a>
</g>
</g>
<!-- Node18&#45;&gt;Node25 -->
<g id="edge27" class="edge"><title>Node18&#45;&gt;Node25</title>
<path fill="none" stroke="midnightblue" d="M506.292,-323.331C513.526,-320.444 520.318,-316.553 526,-311.34 565.15,-275.418 520.125,-230.045 562,-197.34 595.977,-170.803 708.465,-170.005 788.123,-173.145"/>
<polygon fill="midnightblue" stroke="midnightblue" points="788.016,-176.643 798.155,-173.567 788.311,-169.649 788.016,-176.643"/>
</g>
<!-- Node27 -->
<g id="node27" class="node"><title>Node27</title>
<g id="a_node27"><a xlink:href="../../dd/d11/class_cell.html#a7157b57f4ff263ea68e1ff5fc424176e" target="_top" xlink:title="Cell.setCellSize">
<polygon fill="white" stroke="black" points="610.5,-320.84 610.5,-339.84 699.5,-339.84 699.5,-320.84 610.5,-320.84"/>
<text text-anchor="middle" x="655" y="-327.84" font-family="Helvetica,sans-Serif" font-size="10.00">Cell.setCellSize</text>
</a>
</g>
</g>
<!-- Node18&#45;&gt;Node27 -->
<g id="edge26" class="edge"><title>Node18&#45;&gt;Node27</title>
<path fill="none" stroke="midnightblue" d="M506.064,-330.34C536.138,-330.34 571.433,-330.34 600.005,-330.34"/>
<polygon fill="midnightblue" stroke="midnightblue" points="600.205,-333.84 610.205,-330.34 600.205,-326.84 600.205,-333.84"/>
</g>
<!-- Node28 -->
<g id="node28" class="node"><title>Node28</title>
<g id="a_node28"><a xlink:href="../../d3/dff/class_cell_society.html#a7a6dab68551f91cc4b120faa51670bf8" target="_top" xlink:title="CellSociety.createCellArray">
<polygon fill="white" stroke="black" points="583,-92.8397 583,-111.84 727,-111.84 727,-92.8397 583,-92.8397"/>
<text text-anchor="middle" x="655" y="-99.8397" font-family="Helvetica,sans-Serif" font-size="10.00">CellSociety.createCellArray</text>
</a>
</g>
</g>
<!-- Node18&#45;&gt;Node28 -->
<g id="edge28" class="edge"><title>Node18&#45;&gt;Node28</title>
<path fill="none" stroke="midnightblue" d="M506.065,-324.309C513.517,-321.287 520.426,-317.098 526,-311.34 585.773,-249.582 501.727,-182.61 562,-121.34 565.463,-117.819 569.395,-114.865 573.635,-112.394"/>
<polygon fill="midnightblue" stroke="midnightblue" points="575.261,-115.495 582.721,-107.971 572.197,-109.201 575.261,-115.495"/>
</g>
<!-- Node32 -->
<g id="node32" class="node"><title>Node32</title>
<g id="a_node32"><a xlink:href="../../d3/dff/class_cell_society.html#ab9e56a2a70e210e021b51e898508329b" target="_top" xlink:title="CellSociety.setupAnimation">
<polygon fill="white" stroke="black" points="582,-358.84 582,-377.84 728,-377.84 728,-358.84 582,-358.84"/>
<text text-anchor="middle" x="655" y="-365.84" font-family="Helvetica,sans-Serif" font-size="10.00">CellSociety.setupAnimation</text>
</a>
</g>
</g>
<!-- Node18&#45;&gt;Node32 -->
<g id="edge33" class="edge"><title>Node18&#45;&gt;Node32</title>
<path fill="none" stroke="midnightblue" d="M494.474,-339.88C523.592,-345.074 559.811,-351.536 590.374,-356.989"/>
<polygon fill="midnightblue" stroke="midnightblue" points="590.045,-360.485 600.504,-358.796 591.274,-353.594 590.045,-360.485"/>
</g>
<!-- Node34 -->
<g id="node34" class="node"><title>Node34</title>
<g id="a_node34"><a xlink:href="../../df/df8/class_cell_society_view.html#a99eb733c00ed7c1bcba8f2d684791a09" target="_top" xlink:title="CellSocietyView.displayFrameRate">
<polygon fill="white" stroke="black" points="784,-307.84 784,-326.84 962,-326.84 962,-307.84 784,-307.84"/>
<text text-anchor="middle" x="873" y="-314.84" font-family="Helvetica,sans-Serif" font-size="10.00">CellSocietyView.displayFrameRate</text>
</a>
</g>
</g>
<!-- Node18&#45;&gt;Node34 -->
<g id="edge38" class="edge"><title>Node18&#45;&gt;Node34</title>
<path fill="none" stroke="midnightblue" d="M490.247,-320.826C512.128,-317.061 538.256,-313.193 562,-311.34 632.662,-305.826 712.644,-307.571 773.666,-310.567"/>
<polygon fill="midnightblue" stroke="midnightblue" points="773.51,-314.063 783.676,-311.078 773.867,-307.073 773.51,-314.063"/>
</g>
<!-- Node21 -->
<g id="node21" class="node"><title>Node21</title>
<g id="a_node21"><a xlink:href="../../d2/d95/class_x_m_l_parser.html#ae67767f9678fb650ac38b1321ea9f723" target="_top" xlink:title="XMLParser.parseInitialTags">
<polygon fill="white" stroke="black" points="802.5,-244.84 802.5,-263.84 943.5,-263.84 943.5,-244.84 802.5,-244.84"/>
<text text-anchor="middle" x="873" y="-251.84" font-family="Helvetica,sans-Serif" font-size="10.00">XMLParser.parseInitialTags</text>
</a>
</g>
</g>
<!-- Node20&#45;&gt;Node21 -->
<g id="edge20" class="edge"><title>Node20&#45;&gt;Node21</title>
<path fill="none" stroke="midnightblue" d="M720.222,-254.34C742.855,-254.34 768.576,-254.34 792.329,-254.34"/>
<polygon fill="midnightblue" stroke="midnightblue" points="792.374,-257.84 802.374,-254.34 792.374,-250.84 792.374,-257.84"/>
</g>
<!-- Node22 -->
<g id="node22" class="node"><title>Node22</title>
<g id="a_node22"><a xlink:href="../../d2/d95/class_x_m_l_parser.html#a09c6848239104ae94825c045796dddd0" target="_top" xlink:title="XMLParser.makeParamMap">
<polygon fill="white" stroke="black" points="1005,-263.84 1005,-282.84 1151,-282.84 1151,-263.84 1005,-263.84"/>
<text text-anchor="middle" x="1078" y="-270.84" font-family="Helvetica,sans-Serif" font-size="10.00">XMLParser.makeParamMap</text>
</a>
</g>
</g>
<!-- Node21&#45;&gt;Node22 -->
<g id="edge21" class="edge"><title>Node21&#45;&gt;Node22</title>
<path fill="none" stroke="midnightblue" d="M943.577,-260.852C959.925,-262.382 977.504,-264.027 994.362,-265.605"/>
<polygon fill="midnightblue" stroke="midnightblue" points="994.466,-269.13 1004.75,-266.577 995.118,-262.161 994.466,-269.13"/>
</g>
<!-- Node23 -->
<g id="node23" class="node"><title>Node23</title>
<g id="a_node23"><a xlink:href="../../d2/d95/class_x_m_l_parser.html#a5a419f71699eb7d3d76ee238fb262a5f" target="_top" xlink:title="XMLParser.makeCellParamList">
<polygon fill="white" stroke="black" points="998,-225.84 998,-244.84 1158,-244.84 1158,-225.84 998,-225.84"/>
<text text-anchor="middle" x="1078" y="-232.84" font-family="Helvetica,sans-Serif" font-size="10.00">XMLParser.makeCellParamList</text>
</a>
</g>
</g>
<!-- Node21&#45;&gt;Node23 -->
<g id="edge22" class="edge"><title>Node21&#45;&gt;Node23</title>
<path fill="none" stroke="midnightblue" d="M943.577,-247.828C957.752,-246.501 972.851,-245.088 987.604,-243.707"/>
<polygon fill="midnightblue" stroke="midnightblue" points="988.117,-247.174 997.747,-242.757 987.465,-240.205 988.117,-247.174"/>
</g>
<!-- Node24&#45;&gt;Node25 -->
<g id="edge24" class="edge"><title>Node24&#45;&gt;Node25</title>
<path fill="none" stroke="midnightblue" d="M710.227,-206.8C739.884,-201.582 776.804,-195.087 807.882,-189.62"/>
<polygon fill="midnightblue" stroke="midnightblue" points="808.508,-193.063 817.751,-187.884 807.295,-186.169 808.508,-193.063"/>
</g>
<!-- Node26 -->
<g id="node26" class="node"><title>Node26</title>
<g id="a_node26"><a xlink:href="../../d2/d95/class_x_m_l_parser.html#a0df3a2904766f59d1246cb55416f8146" target="_top" xlink:title="XMLParser.getSimParamMap">
<polygon fill="white" stroke="black" points="796,-206.84 796,-225.84 950,-225.84 950,-206.84 796,-206.84"/>
<text text-anchor="middle" x="873" y="-213.84" font-family="Helvetica,sans-Serif" font-size="10.00">XMLParser.getSimParamMap</text>
</a>
</g>
</g>
<!-- Node24&#45;&gt;Node26 -->
<g id="edge25" class="edge"><title>Node24&#45;&gt;Node26</title>
<path fill="none" stroke="midnightblue" d="M732.762,-216.34C749.892,-216.34 768.17,-216.34 785.658,-216.34"/>
<polygon fill="midnightblue" stroke="midnightblue" points="785.849,-219.84 795.849,-216.34 785.849,-212.84 785.849,-219.84"/>
</g>
<!-- Node28&#45;&gt;Node25 -->
<g id="edge29" class="edge"><title>Node28&#45;&gt;Node25</title>
<path fill="none" stroke="midnightblue" d="M725.483,-111.892C733.338,-114.357 741.018,-117.452 748,-121.34 768.326,-132.657 763.725,-147.931 784,-159.34 788.016,-161.6 792.275,-163.591 796.666,-165.346"/>
<polygon fill="midnightblue" stroke="midnightblue" points="795.856,-168.772 806.45,-168.821 798.199,-162.176 795.856,-168.772"/>
</g>
<!-- Node29 -->
<g id="node29" class="node"><title>Node29</title>
<g id="a_node29"><a xlink:href="../../d2/d95/class_x_m_l_parser.html#ac4e3257aed1deb9fe950149f706fce5b" target="_top" xlink:title="XMLParser.getCellParamList">
<polygon fill="white" stroke="black" points="798.5,-54.8397 798.5,-73.8397 947.5,-73.8397 947.5,-54.8397 798.5,-54.8397"/>
<text text-anchor="middle" x="873" y="-61.8397" font-family="Helvetica,sans-Serif" font-size="10.00">XMLParser.getCellParamList</text>
</a>
</g>
</g>
<!-- Node28&#45;&gt;Node29 -->
<g id="edge30" class="edge"><title>Node28&#45;&gt;Node29</title>
<path fill="none" stroke="midnightblue" d="M710.227,-92.7998C739.884,-87.5824 776.804,-81.0872 807.882,-75.6197"/>
<polygon fill="midnightblue" stroke="midnightblue" points="808.508,-79.0634 817.751,-73.8836 807.295,-72.1693 808.508,-79.0634"/>
</g>
<!-- Node30 -->
<g id="node30" class="node"><title>Node30</title>
<g id="a_node30"><a xlink:href="../../d3/dff/class_cell_society.html#a42451b17e2bca5fd025c8d4ea74310ca" target="_top" xlink:title="CellSociety.stringToIntArray">
<polygon fill="white" stroke="black" points="800.5,-92.8397 800.5,-111.84 945.5,-111.84 945.5,-92.8397 800.5,-92.8397"/>
<text text-anchor="middle" x="873" y="-99.8397" font-family="Helvetica,sans-Serif" font-size="10.00">CellSociety.stringToIntArray</text>
</a>
</g>
</g>
<!-- Node28&#45;&gt;Node30 -->
<g id="edge31" class="edge"><title>Node28&#45;&gt;Node30</title>
<path fill="none" stroke="midnightblue" d="M727.026,-102.34C747.208,-102.34 769.35,-102.34 790.121,-102.34"/>
<polygon fill="midnightblue" stroke="midnightblue" points="790.193,-105.84 800.193,-102.34 790.193,-98.8398 790.193,-105.84"/>
</g>
<!-- Node31 -->
<g id="node31" class="node"><title>Node31</title>
<g id="a_node31"><a xlink:href="../../d3/dff/class_cell_society.html#a117f1698760a3f6bbe51bd7af16f79bb" target="_top" xlink:title="CellSociety.createCellInstance">
<polygon fill="white" stroke="black" points="793.5,-130.84 793.5,-149.84 952.5,-149.84 952.5,-130.84 793.5,-130.84"/>
<text text-anchor="middle" x="873" y="-137.84" font-family="Helvetica,sans-Serif" font-size="10.00">CellSociety.createCellInstance</text>
</a>
</g>
</g>
<!-- Node28&#45;&gt;Node31 -->
<g id="edge32" class="edge"><title>Node28&#45;&gt;Node31</title>
<path fill="none" stroke="midnightblue" d="M710.227,-111.88C739.884,-117.097 776.804,-123.592 807.882,-129.06"/>
<polygon fill="midnightblue" stroke="midnightblue" points="807.295,-132.51 817.751,-130.796 808.508,-125.616 807.295,-132.51"/>
</g>
<!-- Node33 -->
<g id="node33" class="node"><title>Node33</title>
<g id="a_node33"><a xlink:href="../../d3/dff/class_cell_society.html#abf13a64ee79f2cb063447b499c695c58" target="_top" xlink:title="CellSociety.start">
<polygon fill="white" stroke="black" points="826.5,-371.84 826.5,-390.84 919.5,-390.84 919.5,-371.84 826.5,-371.84"/>
<text text-anchor="middle" x="873" y="-378.84" font-family="Helvetica,sans-Serif" font-size="10.00">CellSociety.start</text>
</a>
</g>
</g>
<!-- Node32&#45;&gt;Node33 -->
<g id="edge34" class="edge"><title>Node32&#45;&gt;Node33</title>
<path fill="none" stroke="midnightblue" d="M728.225,-372.687C756.935,-374.415 789.447,-376.371 816.283,-377.986"/>
<polygon fill="midnightblue" stroke="midnightblue" points="816.078,-381.48 826.27,-378.587 816.499,-374.493 816.078,-381.48"/>
</g>
<!-- Node33&#45;&gt;Node10 -->
<g id="edge35" class="edge"><title>Node33&#45;&gt;Node10</title>
<path fill="none" stroke="midnightblue" d="M919.557,-381.34C944.856,-381.34 976.898,-381.34 1005.46,-381.34"/>
<polygon fill="midnightblue" stroke="midnightblue" points="1005.81,-384.84 1015.81,-381.34 1005.81,-377.84 1005.81,-384.84"/>
</g>
<!-- Node37 -->
<g id="node37" class="node"><title>Node37</title>
<g id="a_node37"><a xlink:href="../../d3/dff/class_cell_society.html#adc5feda3db5472cea4e092d463681033" target="_top" xlink:title="CellSociety.reframeTimeline">
<polygon fill="white" stroke="black" points="580.5,-396.84 580.5,-415.84 729.5,-415.84 729.5,-396.84 580.5,-396.84"/>
<text text-anchor="middle" x="655" y="-403.84" font-family="Helvetica,sans-Serif" font-size="10.00">CellSociety.reframeTimeline</text>
</a>
</g>
</g>
<!-- Node36&#45;&gt;Node37 -->
<g id="edge41" class="edge"><title>Node36&#45;&gt;Node37</title>
<path fill="none" stroke="midnightblue" d="M494.474,-377.88C523.592,-383.074 559.811,-389.536 590.374,-394.989"/>
<polygon fill="midnightblue" stroke="midnightblue" points="590.045,-398.485 600.504,-396.796 591.274,-391.594 590.045,-398.485"/>
</g>
<!-- Node37&#45;&gt;Node33 -->
<g id="edge43" class="edge"><title>Node37&#45;&gt;Node33</title>
<path fill="none" stroke="midnightblue" d="M729.731,-397.806C757.999,-394.534 789.76,-390.858 816.091,-387.811"/>
<polygon fill="midnightblue" stroke="midnightblue" points="816.737,-391.259 826.268,-386.633 815.932,-384.306 816.737,-391.259"/>
</g>
<!-- Node37&#45;&gt;Node34 -->
<g id="edge42" class="edge"><title>Node37&#45;&gt;Node34</title>
<path fill="none" stroke="midnightblue" d="M719.394,-396.767C729.176,-394.292 739.007,-391.198 748,-387.34 765.901,-379.659 767.291,-372.352 784,-362.34 802.877,-351.028 824.926,-339.756 842.232,-331.323"/>
<polygon fill="midnightblue" stroke="midnightblue" points="843.819,-334.443 851.307,-326.948 840.779,-328.138 843.819,-334.443"/>
</g>
<!-- Node39&#45;&gt;Node37 -->
<g id="edge46" class="edge"><title>Node39&#45;&gt;Node37</title>
<path fill="none" stroke="midnightblue" d="M523.656,-406.34C538.858,-406.34 554.744,-406.34 569.985,-406.34"/>
<polygon fill="midnightblue" stroke="midnightblue" points="570.418,-409.84 580.418,-406.34 570.418,-402.84 570.418,-409.84"/>
</g>
</g>
</svg>
        <g id="navigator" transform="translate(0 0)" fill="#404254">
                <rect fill="#f2f5e9" fill-opacity="0.5" stroke="#606060" stroke-width=".5" x="0" y="0" width="60" height="60"/>
                <use id="zoomplus" xlink:href="#zoomPlus" x="17" y="9" onmousedown="handleZoom(evt,'in')"/>
                <use id="zoomminus" xlink:href="#zoomMin" x="42" y="9" onmousedown="handleZoom(evt,'out')"/>
                <use id="reset" xlink:href="#resetDef" x="30" y="36" onmousedown="handleReset()"/>
                <g id="arrowUp" xlink:href="#dirArrow" transform="translate(30 24)" onmousedown="handlePan(0,-1)">
                  <use xlink:href="#rim" fill="#404040">
                        <set attributeName="fill" to="#808080" begin="arrowUp.mouseover" end="arrowUp.mouseout"/>
                  </use>
                  <path fill="none" stroke="white" stroke-width="1.5" d="M0,-3.0v7 M-2.5,-0.5L0,-3.0L2.5,-0.5"/>
                </g>
                <g id="arrowRight" xlink:href="#dirArrow" transform="rotate(90) translate(36 -43)" onmousedown="handlePan(1,0)">
                  <use xlink:href="#rim" fill="#404040">
                        <set attributeName="fill" to="#808080" begin="arrowRight.mouseover" end="arrowRight.mouseout"/>
                  </use>
                  <path fill="none" stroke="white" stroke-width="1.5" d="M0,-3.0v7 M-2.5,-0.5L0,-3.0L2.5,-0.5"/>
                </g>
                <g id="arrowDown" xlink:href="#dirArrow" transform="rotate(180) translate(-30 -48)" onmousedown="handlePan(0,1)">
                  <use xlink:href="#rim" fill="#404040">
                        <set attributeName="fill" to="#808080" begin="arrowDown.mouseover" end="arrowDown.mouseout"/>
                  </use>
                  <path fill="none" stroke="white" stroke-width="1.5" d="M0,-3.0v7 M-2.5,-0.5L0,-3.0L2.5,-0.5"/>
                </g>
                <g id="arrowLeft" xlink:href="#dirArrow" transform="rotate(270) translate(-36 17)" onmousedown="handlePan(-1,0)">
                  <use xlink:href="#rim" fill="#404040">
                        <set attributeName="fill" to="#808080" begin="arrowLeft.mouseover" end="arrowLeft.mouseout"/>
                  </use>
                  <path fill="none" stroke="white" stroke-width="1.5" d="M0,-3.0v7 M-2.5,-0.5L0,-3.0L2.5,-0.5"/>
                </g>
        </g>
        <svg viewBox="0 0 15 15" width="100%" height="30px" preserveAspectRatio="xMaxYMin meet">
         <g id="arrow_out" transform="scale(0.3 0.3)">
          <a xlink:href="class_cell_society_ac5e08680a3da358d402461bc25aa1727_cgraph_org.svg" target="_base">
           <rect id="button" ry="5" rx="5" y="6" x="6" height="38" width="38"
                fill="#f2f5e9" fill-opacity="0.5" stroke="#606060" stroke-width="1.0"/>
           <path id="arrow"
             d="M 11.500037,31.436501 C 11.940474,20.09759 22.043105,11.32322 32.158766,21.979434 L 37.068811,17.246167 C 37.068811,17.246167 37.088388,32 37.088388,32 L 22.160133,31.978069 C 22.160133,31.978069 26.997745,27.140456 26.997745,27.140456 C 18.528582,18.264221 13.291696,25.230495 11.500037,31.436501 z"
             style="fill:#404040;"/>
          </a>
         </g>
        </svg>
</svg>
