<?xml version="1.0" encoding="UTF-8" standalone="no"?>
<!DOCTYPE svg PUBLIC "-//W3C//DTD SVG 1.1//EN"
 "http://www.w3.org/Graphics/SVG/1.1/DTD/svg11.dtd">
<!-- Generated by graphviz version 2.36.0 (20140111.2315)
 -->
<!-- Title: CellSociety.updateGrid Pages: 1 -->
<svg width="454pt" height="154pt"
 viewBox="0.00 0.00 454.00 154.00" xmlns="http://www.w3.org/2000/svg" xmlns:xlink="http://www.w3.org/1999/xlink">
<g id="graph0" class="graph" transform="scale(1 1) rotate(0) translate(4 150)">
<title>CellSociety.updateGrid</title>
<polygon fill="white" stroke="none" points="-4,4 -4,-150 450,-150 450,4 -4,4"/>
<!-- Node1 -->
<g id="node1" class="node"><title>Node1</title>
<polygon fill="#bfbfbf" stroke="black" points="0,-66.5 0,-85.5 124,-85.5 124,-66.5 0,-66.5"/>
<text text-anchor="middle" x="62" y="-73.5" font-family="Helvetica,sans-Serif" font-size="10.00">CellSociety.updateGrid</text>
</g>
<!-- Node2 -->
<g id="node2" class="node"><title>Node2</title>
<g id="a_node2"><a xlink:href="../../d2/d95/class_x_m_l_parser.html#ac4e3257aed1deb9fe950149f706fce5b" target="_top" xlink:title="XMLParser.getCellParamList">
<polygon fill="white" stroke="black" points="168.5,-126.5 168.5,-145.5 317.5,-145.5 317.5,-126.5 168.5,-126.5"/>
<text text-anchor="middle" x="243" y="-133.5" font-family="Helvetica,sans-Serif" font-size="10.00">XMLParser.getCellParamList</text>
</a>
</g>
</g>
<!-- Node1&#45;&gt;Node2 -->
<g id="edge1" class="edge"><title>Node1&#45;&gt;Node2</title>
<path fill="none" stroke="midnightblue" d="M82.6819,-85.5049C102.014,-94.5555 132.524,-108.083 160,-117 167.807,-119.533 176.135,-121.87 184.38,-123.973"/>
<polygon fill="midnightblue" stroke="midnightblue" points="183.809,-127.437 194.355,-126.422 185.477,-120.639 183.809,-127.437"/>
</g>
<!-- Node3 -->
<g id="node3" class="node"><title>Node3</title>
<g id="a_node3"><a xlink:href="../../d8/d87/class_controller.html#aa8f10b5f28542d34053a7e4d5f1d6013" target="_top" xlink:title="Controller.runOneSim">
<polygon fill="white" stroke="black" points="183.5,-88.5 183.5,-107.5 302.5,-107.5 302.5,-88.5 183.5,-88.5"/>
<text text-anchor="middle" x="243" y="-95.5" font-family="Helvetica,sans-Serif" font-size="10.00">Controller.runOneSim</text>
</a>
</g>
</g>
<!-- Node1&#45;&gt;Node3 -->
<g id="edge2" class="edge"><title>Node1&#45;&gt;Node3</title>
<path fill="none" stroke="midnightblue" d="M124.101,-83.5096C139.953,-85.4579 157.131,-87.5691 173.342,-89.5616"/>
<polygon fill="midnightblue" stroke="midnightblue" points="172.939,-93.0383 183.291,-90.7844 173.793,-86.0905 172.939,-93.0383"/>
</g>
<!-- Node4 -->
<g id="node4" class="node"><title>Node4</title>
<g id="a_node4"><a xlink:href="../../df/df8/class_cell_society_view.html#a7ca77bdfdef97e9be9c9941c2f4d3513" target="_top" xlink:title="CellSocietyView.updateChart\lLines">
<polygon fill="white" stroke="black" points="166.5,-39 166.5,-69 319.5,-69 319.5,-39 166.5,-39"/>
<text text-anchor="start" x="174.5" y="-57" font-family="Helvetica,sans-Serif" font-size="10.00">CellSocietyView.updateChart</text>
<text text-anchor="middle" x="243" y="-46" font-family="Helvetica,sans-Serif" font-size="10.00">Lines</text>
</a>
</g>
</g>
<!-- Node1&#45;&gt;Node4 -->
<g id="edge3" class="edge"><title>Node1&#45;&gt;Node4</title>
<path fill="none" stroke="midnightblue" d="M124.101,-68.4904C134.492,-67.2133 145.452,-65.8662 156.336,-64.5285"/>
<polygon fill="midnightblue" stroke="midnightblue" points="156.794,-67.9986 166.293,-63.3048 155.94,-61.0509 156.794,-67.9986"/>
</g>
<!-- Node5 -->
<g id="node5" class="node"><title>Node5</title>
<g id="a_node5"><a xlink:href="../../df/df8/class_cell_society_view.html#a43ac2666d3a002024be53fe74028a576" target="_top" xlink:title="CellSocietyView.updateSimGrid">
<polygon fill="white" stroke="black" points="160.5,-0.5 160.5,-19.5 325.5,-19.5 325.5,-0.5 160.5,-0.5"/>
<text text-anchor="middle" x="243" y="-7.5" font-family="Helvetica,sans-Serif" font-size="10.00">CellSocietyView.updateSimGrid</text>
</a>
</g>
</g>
<!-- Node1&#45;&gt;Node5 -->
<g id="edge4" class="edge"><title>Node1&#45;&gt;Node5</title>
<path fill="none" stroke="midnightblue" d="M80.4176,-66.4082C99.4869,-56.2262 131.194,-40.223 160,-30 168.227,-27.0801 177.067,-24.4361 185.787,-22.0977"/>
<polygon fill="midnightblue" stroke="midnightblue" points="186.731,-25.4691 195.544,-19.5889 184.987,-18.6896 186.731,-25.4691"/>
</g>
<!-- Node6 -->
<g id="node6" class="node"><title>Node6</title>
<g id="a_node6"><a xlink:href="../../dd/d11/class_cell.html#a1e0ece61fecc69a9b7986d17d925434a" target="_top" xlink:title="Cell.getShape">
<polygon fill="white" stroke="black" points="362.5,-0.5 362.5,-19.5 445.5,-19.5 445.5,-0.5 362.5,-0.5"/>
<text text-anchor="middle" x="404" y="-7.5" font-family="Helvetica,sans-Serif" font-size="10.00">Cell.getShape</text>
</a>
</g>
</g>
<!-- Node5&#45;&gt;Node6 -->
<g id="edge5" class="edge"><title>Node5&#45;&gt;Node6</title>
<path fill="none" stroke="midnightblue" d="M325.829,-10C334.809,-10 343.749,-10 352.191,-10"/>
<polygon fill="midnightblue" stroke="midnightblue" points="352.21,-13.5001 362.21,-10 352.21,-6.5001 352.21,-13.5001"/>
</g>
</g>
</svg>
