<?xml version="1.0" encoding="UTF-8" standalone="no"?>
<!DOCTYPE svg PUBLIC "-//W3C//DTD SVG 1.1//EN"
 "http://www.w3.org/Graphics/SVG/1.1/DTD/svg11.dtd">
<!-- Generated by graphviz version 2.36.0 (20140111.2315)
 -->
<!-- Title: CellSociety.setupAnimation Pages: 1 -->
<svg width="832pt" height="154pt"
 viewBox="0.00 0.00 832.00 154.00" xmlns="http://www.w3.org/2000/svg" xmlns:xlink="http://www.w3.org/1999/xlink">
<g id="graph0" class="graph" transform="scale(1 1) rotate(0) translate(4 150)">
<title>CellSociety.setupAnimation</title>
<polygon fill="white" stroke="none" points="-4,4 -4,-150 828,-150 828,4 -4,4"/>
<!-- Node1 -->
<g id="node1" class="node"><title>Node1</title>
<polygon fill="#bfbfbf" stroke="black" points="0,-46.5 0,-65.5 146,-65.5 146,-46.5 0,-46.5"/>
<text text-anchor="middle" x="73" y="-53.5" font-family="Helvetica,sans-Serif" font-size="10.00">CellSociety.setupAnimation</text>
</g>
<!-- Node2 -->
<g id="node2" class="node"><title>Node2</title>
<g id="a_node2"><a xlink:href="../../d3/dff/class_cell_society.html#abf13a64ee79f2cb063447b499c695c58" target="_top" xlink:title="CellSociety.start">
<polygon fill="white" stroke="black" points="182.5,-46.5 182.5,-65.5 275.5,-65.5 275.5,-46.5 182.5,-46.5"/>
<text text-anchor="middle" x="229" y="-53.5" font-family="Helvetica,sans-Serif" font-size="10.00">CellSociety.start</text>
</a>
</g>
</g>
<!-- Node1&#45;&gt;Node2 -->
<g id="edge1" class="edge"><title>Node1&#45;&gt;Node2</title>
<path fill="none" stroke="midnightblue" d="M146.04,-56C154.833,-56 163.713,-56 172.218,-56"/>
<polygon fill="midnightblue" stroke="midnightblue" points="172.376,-59.5001 182.376,-56 172.376,-52.5001 172.376,-59.5001"/>
</g>
<!-- Node3 -->
<g id="node3" class="node"><title>Node3</title>
<g id="a_node3"><a xlink:href="../../d3/dff/class_cell_society.html#a0ff19c30a1cc433d8ea8444f6a5617f1" target="_top" xlink:title="CellSociety.updateGrid">
<polygon fill="white" stroke="black" points="312,-46.5 312,-65.5 436,-65.5 436,-46.5 312,-46.5"/>
<text text-anchor="middle" x="374" y="-53.5" font-family="Helvetica,sans-Serif" font-size="10.00">CellSociety.updateGrid</text>
</a>
</g>
</g>
<!-- Node2&#45;&gt;Node3 -->
<g id="edge2" class="edge"><title>Node2&#45;&gt;Node3</title>
<path fill="none" stroke="midnightblue" d="M275.639,-56C284.013,-56 292.934,-56 301.847,-56"/>
<polygon fill="midnightblue" stroke="midnightblue" points="301.878,-59.5001 311.878,-56 301.878,-52.5001 301.878,-59.5001"/>
</g>
<!-- Node4 -->
<g id="node4" class="node"><title>Node4</title>
<g id="a_node4"><a xlink:href="../../d6/d6e/class_sim_controller.html#a10145cee2eaceb4ecad9396a825051d1" target="_top" xlink:title="SimController.runOneSim">
<polygon fill="white" stroke="black" points="486,-71.5 486,-90.5 624,-90.5 624,-71.5 486,-71.5"/>
<text text-anchor="middle" x="555" y="-78.5" font-family="Helvetica,sans-Serif" font-size="10.00">SimController.runOneSim</text>
</a>
</g>
</g>
<!-- Node3&#45;&gt;Node4 -->
<g id="edge3" class="edge"><title>Node3&#45;&gt;Node4</title>
<path fill="none" stroke="midnightblue" d="M436.101,-64.5337C448.853,-66.3146 462.462,-68.2154 475.737,-70.0694"/>
<polygon fill="midnightblue" stroke="midnightblue" points="475.415,-73.5584 485.803,-71.4753 476.383,-66.6256 475.415,-73.5584"/>
</g>
<!-- Node8 -->
<g id="node8" class="node"><title>Node8</title>
<g id="a_node8"><a xlink:href="../../df/df8/class_cell_society_view.html#a43ac2666d3a002024be53fe74028a576" target="_top" xlink:title="CellSocietyView.updateSimGrid">
<polygon fill="white" stroke="black" points="472.5,-22.5 472.5,-41.5 637.5,-41.5 637.5,-22.5 472.5,-22.5"/>
<text text-anchor="middle" x="555" y="-29.5" font-family="Helvetica,sans-Serif" font-size="10.00">CellSocietyView.updateSimGrid</text>
</a>
</g>
</g>
<!-- Node3&#45;&gt;Node8 -->
<g id="edge7" class="edge"><title>Node3&#45;&gt;Node8</title>
<path fill="none" stroke="midnightblue" d="M436.101,-47.8077C447.891,-46.227 460.413,-44.5479 472.727,-42.8969"/>
<polygon fill="midnightblue" stroke="midnightblue" points="473.554,-46.3174 483,-41.5195 472.624,-39.3795 473.554,-46.3174"/>
</g>
<!-- Node5 -->
<g id="node5" class="node"><title>Node5</title>
<g id="a_node5"><a xlink:href="../../dd/ddd/class_neighbor.html#ac769186595af20512a2ec4754db75640" target="_top" xlink:title="Neighbor.getNeighbors">
<polygon fill="white" stroke="black" points="685.5,-126.5 685.5,-145.5 812.5,-145.5 812.5,-126.5 685.5,-126.5"/>
<text text-anchor="middle" x="749" y="-133.5" font-family="Helvetica,sans-Serif" font-size="10.00">Neighbor.getNeighbors</text>
</a>
</g>
</g>
<!-- Node4&#45;&gt;Node5 -->
<g id="edge4" class="edge"><title>Node4&#45;&gt;Node5</title>
<path fill="none" stroke="midnightblue" d="M587.492,-90.568C611.227,-97.7239 644.601,-107.669 674,-116 683.027,-118.558 692.694,-121.224 701.964,-123.744"/>
<polygon fill="midnightblue" stroke="midnightblue" points="701.251,-127.177 711.818,-126.41 703.079,-120.42 701.251,-127.177"/>
</g>
<!-- Node6 -->
<g id="node6" class="node"><title>Node6</title>
<g id="a_node6"><a xlink:href="../../d6/d6e/class_sim_controller.html#a1538c5c647988e5d5b6602c8eb1b8949" target="_top" xlink:title="SimController.getNeighbors\lState">
<polygon fill="white" stroke="black" points="674.5,-77 674.5,-107 823.5,-107 823.5,-77 674.5,-77"/>
<text text-anchor="start" x="682.5" y="-95" font-family="Helvetica,sans-Serif" font-size="10.00">SimController.getNeighbors</text>
<text text-anchor="middle" x="749" y="-84" font-family="Helvetica,sans-Serif" font-size="10.00">State</text>
</a>
</g>
</g>
<!-- Node4&#45;&gt;Node6 -->
<g id="edge5" class="edge"><title>Node4&#45;&gt;Node6</title>
<path fill="none" stroke="midnightblue" d="M624.233,-84.9092C637.202,-85.6522 650.912,-86.4377 664.297,-87.2045"/>
<polygon fill="midnightblue" stroke="midnightblue" points="664.268,-90.7085 674.452,-87.7863 664.669,-83.72 664.268,-90.7085"/>
</g>
<!-- Node7 -->
<g id="node7" class="node"><title>Node7</title>
<g id="a_node7"><a xlink:href="../../d6/d6e/class_sim_controller.html#a6b7a166a6fd312895c8356d24de980e3" target="_top" xlink:title="SimController.newState">
<polygon fill="white" stroke="black" points="684.5,-38.5 684.5,-57.5 813.5,-57.5 813.5,-38.5 684.5,-38.5"/>
<text text-anchor="middle" x="749" y="-45.5" font-family="Helvetica,sans-Serif" font-size="10.00">SimController.newState</text>
</a>
</g>
</g>
<!-- Node4&#45;&gt;Node7 -->
<g id="edge6" class="edge"><title>Node4&#45;&gt;Node7</title>
<path fill="none" stroke="midnightblue" d="M611.277,-71.4993C633.472,-67.6845 659.233,-63.2569 682.369,-59.2802"/>
<polygon fill="midnightblue" stroke="midnightblue" points="683.186,-62.6913 692.449,-57.5479 682,-55.7925 683.186,-62.6913"/>
</g>
<!-- Node9 -->
<g id="node9" class="node"><title>Node9</title>
<g id="a_node9"><a xlink:href="../../dd/d11/class_cell.html#a1e0ece61fecc69a9b7986d17d925434a" target="_top" xlink:title="Cell.getShape">
<polygon fill="white" stroke="black" points="707.5,-0.5 707.5,-19.5 790.5,-19.5 790.5,-0.5 707.5,-0.5"/>
<text text-anchor="middle" x="749" y="-7.5" font-family="Helvetica,sans-Serif" font-size="10.00">Cell.getShape</text>
</a>
</g>
</g>
<!-- Node8&#45;&gt;Node9 -->
<g id="edge8" class="edge"><title>Node8&#45;&gt;Node9</title>
<path fill="none" stroke="midnightblue" d="M637.704,-22.6381C657.933,-20.3201 679.029,-17.9029 697.29,-15.8106"/>
<polygon fill="midnightblue" stroke="midnightblue" points="697.864,-19.2677 707.401,-14.652 697.067,-12.3132 697.864,-19.2677"/>
</g>
</g>
</svg>
