<?xml version="1.0" encoding="UTF-8" standalone="no"?>
<!DOCTYPE svg PUBLIC "-//W3C//DTD SVG 1.1//EN"
 "http://www.w3.org/Graphics/SVG/1.1/DTD/svg11.dtd">
<!-- Generated by graphviz version 2.36.0 (20140111.2315)
 -->
<!-- Title: CellSociety.decreaseFrameRate Pages: 1 -->
<svg width="1124pt" height="154pt"
 viewBox="0.00 0.00 1124.00 154.00" xmlns="http://www.w3.org/2000/svg" xmlns:xlink="http://www.w3.org/1999/xlink">
<g id="graph0" class="graph" transform="scale(1 1) rotate(0) translate(4 150)">
<title>CellSociety.decreaseFrameRate</title>
<polygon fill="white" stroke="none" points="-4,4 -4,-150 1120,-150 1120,4 -4,4"/>
<!-- Node1 -->
<g id="node1" class="node"><title>Node1</title>
<polygon fill="#bfbfbf" stroke="black" points="0.5,-65.5 0.5,-84.5 167.5,-84.5 167.5,-65.5 0.5,-65.5"/>
<text text-anchor="middle" x="84" y="-72.5" font-family="Helvetica,sans-Serif" font-size="10.00">CellSociety.decreaseFrameRate</text>
</g>
<!-- Node2 -->
<g id="node2" class="node"><title>Node2</title>
<g id="a_node2"><a xlink:href="../../d3/dff/class_cell_society.html#adc5feda3db5472cea4e092d463681033" target="_top" xlink:title="CellSociety.reframeTimeline">
<polygon fill="white" stroke="black" points="204.5,-65.5 204.5,-84.5 353.5,-84.5 353.5,-65.5 204.5,-65.5"/>
<text text-anchor="middle" x="279" y="-72.5" font-family="Helvetica,sans-Serif" font-size="10.00">CellSociety.reframeTimeline</text>
</a>
</g>
</g>
<!-- Node1&#45;&gt;Node2 -->
<g id="edge1" class="edge"><title>Node1&#45;&gt;Node2</title>
<path fill="none" stroke="midnightblue" d="M167.689,-75C176.44,-75 185.346,-75 194.11,-75"/>
<polygon fill="midnightblue" stroke="midnightblue" points="194.316,-78.5001 204.316,-75 194.316,-71.5001 194.316,-78.5001"/>
</g>
<!-- Node3 -->
<g id="node3" class="node"><title>Node3</title>
<g id="a_node3"><a xlink:href="../../df/df8/class_cell_society_view.html#a99eb733c00ed7c1bcba8f2d684791a09" target="_top" xlink:title="CellSocietyView.displayFrameRate">
<polygon fill="white" stroke="black" points="390,-84.5 390,-103.5 568,-103.5 568,-84.5 390,-84.5"/>
<text text-anchor="middle" x="479" y="-91.5" font-family="Helvetica,sans-Serif" font-size="10.00">CellSocietyView.displayFrameRate</text>
</a>
</g>
</g>
<!-- Node2&#45;&gt;Node3 -->
<g id="edge2" class="edge"><title>Node2&#45;&gt;Node3</title>
<path fill="none" stroke="midnightblue" d="M353.728,-82.0749C362.184,-82.8863 370.903,-83.723 379.616,-84.5591"/>
<polygon fill="midnightblue" stroke="midnightblue" points="379.537,-88.0675 389.825,-85.5388 380.206,-81.0995 379.537,-88.0675"/>
</g>
<!-- Node4 -->
<g id="node4" class="node"><title>Node4</title>
<g id="a_node4"><a xlink:href="../../d3/dff/class_cell_society.html#abf13a64ee79f2cb063447b499c695c58" target="_top" xlink:title="CellSociety.start">
<polygon fill="white" stroke="black" points="432.5,-46.5 432.5,-65.5 525.5,-65.5 525.5,-46.5 432.5,-46.5"/>
<text text-anchor="middle" x="479" y="-53.5" font-family="Helvetica,sans-Serif" font-size="10.00">CellSociety.start</text>
</a>
</g>
</g>
<!-- Node2&#45;&gt;Node4 -->
<g id="edge3" class="edge"><title>Node2&#45;&gt;Node4</title>
<path fill="none" stroke="midnightblue" d="M353.728,-67.9251C376.405,-65.749 400.978,-63.391 422.24,-61.3507"/>
<polygon fill="midnightblue" stroke="midnightblue" points="422.768,-64.8162 432.388,-60.3769 422.1,-57.8482 422.768,-64.8162"/>
</g>
<!-- Node5 -->
<g id="node5" class="node"><title>Node5</title>
<g id="a_node5"><a xlink:href="../../d3/dff/class_cell_society.html#a0ff19c30a1cc433d8ea8444f6a5617f1" target="_top" xlink:title="CellSociety.updateGrid">
<polygon fill="white" stroke="black" points="604,-46.5 604,-65.5 728,-65.5 728,-46.5 604,-46.5"/>
<text text-anchor="middle" x="666" y="-53.5" font-family="Helvetica,sans-Serif" font-size="10.00">CellSociety.updateGrid</text>
</a>
</g>
</g>
<!-- Node4&#45;&gt;Node5 -->
<g id="edge4" class="edge"><title>Node4&#45;&gt;Node5</title>
<path fill="none" stroke="midnightblue" d="M525.73,-56C546.236,-56 570.903,-56 593.743,-56"/>
<polygon fill="midnightblue" stroke="midnightblue" points="593.743,-59.5001 603.743,-56 593.743,-52.5001 593.743,-59.5001"/>
</g>
<!-- Node6 -->
<g id="node6" class="node"><title>Node6</title>
<g id="a_node6"><a xlink:href="../../d6/d6e/class_sim_controller.html#a10145cee2eaceb4ecad9396a825051d1" target="_top" xlink:title="SimController.runOneSim">
<polygon fill="white" stroke="black" points="778,-71.5 778,-90.5 916,-90.5 916,-71.5 778,-71.5"/>
<text text-anchor="middle" x="847" y="-78.5" font-family="Helvetica,sans-Serif" font-size="10.00">SimController.runOneSim</text>
</a>
</g>
</g>
<!-- Node5&#45;&gt;Node6 -->
<g id="edge5" class="edge"><title>Node5&#45;&gt;Node6</title>
<path fill="none" stroke="midnightblue" d="M728.101,-64.5337C740.853,-66.3146 754.462,-68.2154 767.737,-70.0694"/>
<polygon fill="midnightblue" stroke="midnightblue" points="767.415,-73.5584 777.803,-71.4753 768.383,-66.6256 767.415,-73.5584"/>
</g>
<!-- Node10 -->
<g id="node10" class="node"><title>Node10</title>
<g id="a_node10"><a xlink:href="../../df/df8/class_cell_society_view.html#a43ac2666d3a002024be53fe74028a576" target="_top" xlink:title="CellSocietyView.updateSimGrid">
<polygon fill="white" stroke="black" points="764.5,-22.5 764.5,-41.5 929.5,-41.5 929.5,-22.5 764.5,-22.5"/>
<text text-anchor="middle" x="847" y="-29.5" font-family="Helvetica,sans-Serif" font-size="10.00">CellSocietyView.updateSimGrid</text>
</a>
</g>
</g>
<!-- Node5&#45;&gt;Node10 -->
<g id="edge9" class="edge"><title>Node5&#45;&gt;Node10</title>
<path fill="none" stroke="midnightblue" d="M728.101,-47.8077C739.891,-46.227 752.413,-44.5479 764.727,-42.8969"/>
<polygon fill="midnightblue" stroke="midnightblue" points="765.554,-46.3174 775,-41.5195 764.624,-39.3795 765.554,-46.3174"/>
</g>
<!-- Node7 -->
<g id="node7" class="node"><title>Node7</title>
<g id="a_node7"><a xlink:href="../../dd/ddd/class_neighbor.html#ac769186595af20512a2ec4754db75640" target="_top" xlink:title="Neighbor.getNeighbors">
<polygon fill="white" stroke="black" points="977.5,-126.5 977.5,-145.5 1104.5,-145.5 1104.5,-126.5 977.5,-126.5"/>
<text text-anchor="middle" x="1041" y="-133.5" font-family="Helvetica,sans-Serif" font-size="10.00">Neighbor.getNeighbors</text>
</a>
</g>
</g>
<!-- Node6&#45;&gt;Node7 -->
<g id="edge6" class="edge"><title>Node6&#45;&gt;Node7</title>
<path fill="none" stroke="midnightblue" d="M879.492,-90.568C903.227,-97.7239 936.601,-107.669 966,-116 975.027,-118.558 984.694,-121.224 993.964,-123.744"/>
<polygon fill="midnightblue" stroke="midnightblue" points="993.251,-127.177 1003.82,-126.41 995.079,-120.42 993.251,-127.177"/>
</g>
<!-- Node8 -->
<g id="node8" class="node"><title>Node8</title>
<g id="a_node8"><a xlink:href="../../d6/d6e/class_sim_controller.html#a0b75005badf06910bcd21f152c640762" target="_top" xlink:title="SimController.getNeighbors\lState">
<polygon fill="white" stroke="black" points="966.5,-77 966.5,-107 1115.5,-107 1115.5,-77 966.5,-77"/>
<text text-anchor="start" x="974.5" y="-95" font-family="Helvetica,sans-Serif" font-size="10.00">SimController.getNeighbors</text>
<text text-anchor="middle" x="1041" y="-84" font-family="Helvetica,sans-Serif" font-size="10.00">State</text>
</a>
</g>
</g>
<!-- Node6&#45;&gt;Node8 -->
<g id="edge7" class="edge"><title>Node6&#45;&gt;Node8</title>
<path fill="none" stroke="midnightblue" d="M916.233,-84.9092C929.202,-85.6522 942.912,-86.4377 956.297,-87.2045"/>
<polygon fill="midnightblue" stroke="midnightblue" points="956.268,-90.7085 966.452,-87.7863 956.669,-83.72 956.268,-90.7085"/>
</g>
<!-- Node9 -->
<g id="node9" class="node"><title>Node9</title>
<g id="a_node9"><a xlink:href="../../d6/d6e/class_sim_controller.html#a0a26878930cc1e557b0e101867cb2c23" target="_top" xlink:title="SimController.newState">
<polygon fill="white" stroke="black" points="976.5,-38.5 976.5,-57.5 1105.5,-57.5 1105.5,-38.5 976.5,-38.5"/>
<text text-anchor="middle" x="1041" y="-45.5" font-family="Helvetica,sans-Serif" font-size="10.00">SimController.newState</text>
</a>
</g>
</g>
<!-- Node6&#45;&gt;Node9 -->
<g id="edge8" class="edge"><title>Node6&#45;&gt;Node9</title>
<path fill="none" stroke="midnightblue" d="M903.277,-71.4993C925.472,-67.6845 951.233,-63.2569 974.369,-59.2802"/>
<polygon fill="midnightblue" stroke="midnightblue" points="975.186,-62.6913 984.449,-57.5479 974,-55.7925 975.186,-62.6913"/>
</g>
<!-- Node11 -->
<g id="node11" class="node"><title>Node11</title>
<g id="a_node11"><a xlink:href="../../dd/d11/class_cell.html#a1e0ece61fecc69a9b7986d17d925434a" target="_top" xlink:title="Cell.getShape">
<polygon fill="white" stroke="black" points="999.5,-0.5 999.5,-19.5 1082.5,-19.5 1082.5,-0.5 999.5,-0.5"/>
<text text-anchor="middle" x="1041" y="-7.5" font-family="Helvetica,sans-Serif" font-size="10.00">Cell.getShape</text>
</a>
</g>
</g>
<!-- Node10&#45;&gt;Node11 -->
<g id="edge10" class="edge"><title>Node10&#45;&gt;Node11</title>
<path fill="none" stroke="midnightblue" d="M929.704,-22.6381C949.933,-20.3201 971.029,-17.9029 989.29,-15.8106"/>
<polygon fill="midnightblue" stroke="midnightblue" points="989.864,-19.2677 999.401,-14.652 989.067,-12.3132 989.864,-19.2677"/>
</g>
</g>
</svg>
