<?xml version="1.0" encoding="UTF-8" standalone="no"?>
<!DOCTYPE svg PUBLIC "-//W3C//DTD SVG 1.1//EN"
 "http://www.w3.org/Graphics/SVG/1.1/DTD/svg11.dtd">
<!-- Generated by graphviz version 2.36.0 (20140111.2315)
 -->
<!-- Title: CellSociety.CellSociety Pages: 1 -->
<svg width="1554pt" height="786pt"
 viewBox="0.00 0.00 1554.00 785.71" xmlns="http://www.w3.org/2000/svg" xmlns:xlink="http://www.w3.org/1999/xlink">
<g id="graph0" class="graph" transform="scale(1 1) rotate(0) translate(4 781.715)">
<title>CellSociety.CellSociety</title>
<polygon fill="white" stroke="none" points="-4,4 -4,-781.715 1550,-781.715 1550,4 -4,4"/>
<!-- Node1 -->
<g id="node1" class="node"><title>Node1</title>
<polygon fill="#bfbfbf" stroke="black" points="0.5,-482.215 0.5,-501.215 123.5,-501.215 123.5,-482.215 0.5,-482.215"/>
<text text-anchor="middle" x="62" y="-489.215" font-family="Helvetica,sans-Serif" font-size="10.00">CellSociety.CellSociety</text>
</g>
<!-- Node2 -->
<g id="node2" class="node"><title>Node2</title>
<g id="a_node2"><a xlink:href="../../d3/dff/class_cell_society.html#a656ff46d1459fb7f86b42e3c542506ee" target="_top" xlink:title="CellSociety.configureListeners">
<polygon fill="white" stroke="black" points="160,-482.215 160,-501.215 318,-501.215 318,-482.215 160,-482.215"/>
<text text-anchor="middle" x="239" y="-489.215" font-family="Helvetica,sans-Serif" font-size="10.00">CellSociety.configureListeners</text>
</a>
</g>
</g>
<!-- Node1&#45;&gt;Node2 -->
<g id="edge1" class="edge"><title>Node1&#45;&gt;Node2</title>
<path fill="none" stroke="midnightblue" d="M123.715,-491.715C132.088,-491.715 140.823,-491.715 149.57,-491.715"/>
<polygon fill="midnightblue" stroke="midnightblue" points="149.823,-495.215 159.823,-491.715 149.823,-488.215 149.823,-495.215"/>
</g>
<!-- Node3 -->
<g id="node3" class="node"><title>Node3</title>
<g id="a_node3"><a xlink:href="../../df/df8/class_cell_society_view.html#aae7c36ea6b5215b0ba9ee01c72dfcb94" target="_top" xlink:title="CellSocietyView.getPlayElement">
<polygon fill="white" stroke="black" points="356,-758.215 356,-777.215 524,-777.215 524,-758.215 356,-758.215"/>
<text text-anchor="middle" x="440" y="-765.215" font-family="Helvetica,sans-Serif" font-size="10.00">CellSocietyView.getPlayElement</text>
</a>
</g>
</g>
<!-- Node2&#45;&gt;Node3 -->
<g id="edge2" class="edge"><title>Node2&#45;&gt;Node3</title>
<path fill="none" stroke="midnightblue" d="M241.167,-501.234C246.339,-539.128 270.761,-680.488 354,-748.715 356.047,-750.392 358.211,-751.929 360.466,-753.337"/>
<polygon fill="midnightblue" stroke="midnightblue" points="359.092,-756.569 369.568,-758.15 362.364,-750.381 359.092,-756.569"/>
</g>
<!-- Node4 -->
<g id="node4" class="node"><title>Node4</title>
<g id="a_node4"><a xlink:href="../../d3/dff/class_cell_society.html#a6a4056cd40e4162583f2b9845b77a191" target="_top" xlink:title="CellSociety.resumeAnimation">
<polygon fill="white" stroke="black" points="362,-720.215 362,-739.215 518,-739.215 518,-720.215 362,-720.215"/>
<text text-anchor="middle" x="440" y="-727.215" font-family="Helvetica,sans-Serif" font-size="10.00">CellSociety.resumeAnimation</text>
</a>
</g>
</g>
<!-- Node2&#45;&gt;Node4 -->
<g id="edge3" class="edge"><title>Node2&#45;&gt;Node4</title>
<path fill="none" stroke="midnightblue" d="M242.294,-501.577C250.716,-535.537 283.198,-648.664 354,-705.715 359.295,-709.981 365.305,-713.489 371.625,-716.374"/>
<polygon fill="midnightblue" stroke="midnightblue" points="370.475,-719.684 381.059,-720.171 373.089,-713.19 370.475,-719.684"/>
</g>
<!-- Node6 -->
<g id="node6" class="node"><title>Node6</title>
<g id="a_node6"><a xlink:href="../../df/df8/class_cell_society_view.html#ada088eb9125561f8dd941badb141fa86" target="_top" xlink:title="CellSocietyView.getPause\lElement">
<polygon fill="white" stroke="black" points="371.5,-404.715 371.5,-434.715 508.5,-434.715 508.5,-404.715 371.5,-404.715"/>
<text text-anchor="start" x="379.5" y="-422.715" font-family="Helvetica,sans-Serif" font-size="10.00">CellSocietyView.getPause</text>
<text text-anchor="middle" x="440" y="-411.715" font-family="Helvetica,sans-Serif" font-size="10.00">Element</text>
</a>
</g>
</g>
<!-- Node2&#45;&gt;Node6 -->
<g id="edge5" class="edge"><title>Node2&#45;&gt;Node6</title>
<path fill="none" stroke="midnightblue" d="M261.172,-482.201C283.869,-472.189 321.086,-456.304 354,-444.715 360.783,-442.326 367.923,-439.977 375.064,-437.731"/>
<polygon fill="midnightblue" stroke="midnightblue" points="376.243,-441.03 384.768,-434.739 374.181,-434.341 376.243,-441.03"/>
</g>
<!-- Node7 -->
<g id="node7" class="node"><title>Node7</title>
<g id="a_node7"><a xlink:href="../../d3/dff/class_cell_society.html#ae565a305ea53e5a37da9816a236b4fbc" target="_top" xlink:title="CellSociety.pauseAnimation">
<polygon fill="white" stroke="black" points="580.5,-682.215 580.5,-701.215 729.5,-701.215 729.5,-682.215 580.5,-682.215"/>
<text text-anchor="middle" x="655" y="-689.215" font-family="Helvetica,sans-Serif" font-size="10.00">CellSociety.pauseAnimation</text>
</a>
</g>
</g>
<!-- Node2&#45;&gt;Node7 -->
<g id="edge6" class="edge"><title>Node2&#45;&gt;Node7</title>
<path fill="none" stroke="midnightblue" d="M242.932,-501.58C252.71,-532.527 287.408,-627.985 354,-667.715 425.129,-710.151 523.198,-709.235 587.571,-702.384"/>
<polygon fill="midnightblue" stroke="midnightblue" points="588.065,-705.851 597.604,-701.24 587.272,-698.896 588.065,-705.851"/>
</g>
<!-- Node8 -->
<g id="node8" class="node"><title>Node8</title>
<g id="a_node8"><a xlink:href="../../df/df8/class_cell_society_view.html#a3c3a7039f77d392c374cd309967ca1cc" target="_top" xlink:title="CellSocietyView.getStepElement">
<polygon fill="white" stroke="black" points="354.5,-366.215 354.5,-385.215 525.5,-385.215 525.5,-366.215 354.5,-366.215"/>
<text text-anchor="middle" x="440" y="-373.215" font-family="Helvetica,sans-Serif" font-size="10.00">CellSocietyView.getStepElement</text>
</a>
</g>
</g>
<!-- Node2&#45;&gt;Node8 -->
<g id="edge8" class="edge"><title>Node2&#45;&gt;Node8</title>
<path fill="none" stroke="midnightblue" d="M248.339,-481.972C265.808,-462.226 308.416,-417.439 354,-394.715 358.821,-392.311 363.946,-390.209 369.198,-388.37"/>
<polygon fill="midnightblue" stroke="midnightblue" points="370.277,-391.7 378.749,-385.337 368.158,-385.028 370.277,-391.7"/>
</g>
<!-- Node9 -->
<g id="node9" class="node"><title>Node9</title>
<g id="a_node9"><a xlink:href="../../d3/dff/class_cell_society.html#a0ff19c30a1cc433d8ea8444f6a5617f1" target="_top" xlink:title="CellSociety.updateGrid">
<polygon fill="white" stroke="black" points="1016,-530.215 1016,-549.215 1140,-549.215 1140,-530.215 1016,-530.215"/>
<text text-anchor="middle" x="1078" y="-537.215" font-family="Helvetica,sans-Serif" font-size="10.00">CellSociety.updateGrid</text>
</a>
</g>
</g>
<!-- Node2&#45;&gt;Node9 -->
<g id="edge9" class="edge"><title>Node2&#45;&gt;Node9</title>
<path fill="none" stroke="midnightblue" d="M245.372,-501.354C259.487,-525.612 300.263,-589.141 354,-615.715 511.15,-693.426 574.414,-659.275 748,-634.715 858.736,-619.047 984.38,-575.107 1043.23,-552.906"/>
<polygon fill="midnightblue" stroke="midnightblue" points="1044.65,-556.109 1052.75,-549.281 1042.16,-549.567 1044.65,-556.109"/>
</g>
<!-- Node18 -->
<g id="node18" class="node"><title>Node18</title>
<g id="a_node18"><a xlink:href="../../df/df8/class_cell_society_view.html#aebad9aaff0e9784fec1518d319e03c85" target="_top" xlink:title="CellSocietyView.getXMLElement">
<polygon fill="white" stroke="black" points="356,-328.215 356,-347.215 524,-347.215 524,-328.215 356,-328.215"/>
<text text-anchor="middle" x="440" y="-335.215" font-family="Helvetica,sans-Serif" font-size="10.00">CellSocietyView.getXMLElement</text>
</a>
</g>
</g>
<!-- Node2&#45;&gt;Node18 -->
<g id="edge18" class="edge"><title>Node2&#45;&gt;Node18</title>
<path fill="none" stroke="midnightblue" d="M245.162,-482.024C259.07,-456.921 299.953,-389.46 354,-356.715 357.466,-354.615 361.137,-352.747 364.933,-351.084"/>
<polygon fill="midnightblue" stroke="midnightblue" points="366.51,-354.227 374.58,-347.362 363.99,-347.697 366.51,-354.227"/>
</g>
<!-- Node19 -->
<g id="node19" class="node"><title>Node19</title>
<g id="a_node19"><a xlink:href="../../d3/dff/class_cell_society.html#af9f22af39a97a58b26126020ca6c8844" target="_top" xlink:title="CellSociety.readNewXML">
<polygon fill="white" stroke="black" points="374,-454.215 374,-473.215 506,-473.215 506,-454.215 374,-454.215"/>
<text text-anchor="middle" x="440" y="-461.215" font-family="Helvetica,sans-Serif" font-size="10.00">CellSociety.readNewXML</text>
</a>
</g>
</g>
<!-- Node2&#45;&gt;Node19 -->
<g id="edge19" class="edge"><title>Node2&#45;&gt;Node19</title>
<path fill="none" stroke="midnightblue" d="M307.65,-482.196C325.713,-479.654 345.343,-476.892 363.786,-474.297"/>
<polygon fill="midnightblue" stroke="midnightblue" points="364.478,-477.735 373.893,-472.875 363.503,-470.803 364.478,-477.735"/>
</g>
<!-- Node38 -->
<g id="node38" class="node"><title>Node38</title>
<g id="a_node38"><a xlink:href="../../df/df8/class_cell_society_view.html#a572d464cbe7d186dc9a5b0e4a8130689" target="_top" xlink:title="CellSocietyView.getSpeedup\lElement">
<polygon fill="white" stroke="black" points="364,-278.715 364,-308.715 516,-308.715 516,-278.715 364,-278.715"/>
<text text-anchor="start" x="372" y="-296.715" font-family="Helvetica,sans-Serif" font-size="10.00">CellSocietyView.getSpeedup</text>
<text text-anchor="middle" x="440" y="-285.715" font-family="Helvetica,sans-Serif" font-size="10.00">Element</text>
</a>
</g>
</g>
<!-- Node2&#45;&gt;Node38 -->
<g id="edge46" class="edge"><title>Node2&#45;&gt;Node38</title>
<path fill="none" stroke="midnightblue" d="M243.513,-482.16C254.749,-452.949 292.704,-364.076 354,-318.715 356.515,-316.853 359.168,-315.13 361.92,-313.534"/>
<polygon fill="midnightblue" stroke="midnightblue" points="363.71,-316.549 371,-308.86 360.506,-310.325 363.71,-316.549"/>
</g>
<!-- Node39 -->
<g id="node39" class="node"><title>Node39</title>
<g id="a_node39"><a xlink:href="../../d3/dff/class_cell_society.html#a8250bfacdaf51dabf6b9d1cafc0ce9b2" target="_top" xlink:title="CellSociety.increaseFrameRate">
<polygon fill="white" stroke="black" points="358.5,-587.215 358.5,-606.215 521.5,-606.215 521.5,-587.215 358.5,-587.215"/>
<text text-anchor="middle" x="440" y="-594.215" font-family="Helvetica,sans-Serif" font-size="10.00">CellSociety.increaseFrameRate</text>
</a>
</g>
</g>
<!-- Node2&#45;&gt;Node39 -->
<g id="edge47" class="edge"><title>Node2&#45;&gt;Node39</title>
<path fill="none" stroke="midnightblue" d="M258.011,-501.218C293.072,-519.717 370.66,-560.656 411.938,-582.436"/>
<polygon fill="midnightblue" stroke="midnightblue" points="410.409,-585.586 420.886,-587.157 413.675,-579.395 410.409,-585.586"/>
</g>
<!-- Node41 -->
<g id="node41" class="node"><title>Node41</title>
<g id="a_node41"><a xlink:href="../../df/df8/class_cell_society_view.html#a0f616a01579a7293ef781d3e341ea1ac" target="_top" xlink:title="CellSocietyView.getSlowdown\lElement">
<polygon fill="white" stroke="black" points="362.5,-229.715 362.5,-259.715 517.5,-259.715 517.5,-229.715 362.5,-229.715"/>
<text text-anchor="start" x="370.5" y="-247.715" font-family="Helvetica,sans-Serif" font-size="10.00">CellSocietyView.getSlowdown</text>
<text text-anchor="middle" x="440" y="-236.715" font-family="Helvetica,sans-Serif" font-size="10.00">Element</text>
</a>
</g>
</g>
<!-- Node2&#45;&gt;Node41 -->
<g id="edge51" class="edge"><title>Node2&#45;&gt;Node41</title>
<path fill="none" stroke="midnightblue" d="M242.051,-481.93C249.856,-447.171 281.033,-328.534 354,-268.715 355.556,-267.439 357.177,-266.23 358.85,-265.086"/>
<polygon fill="midnightblue" stroke="midnightblue" points="360.8,-267.999 367.611,-259.884 357.226,-261.98 360.8,-267.999"/>
</g>
<!-- Node42 -->
<g id="node42" class="node"><title>Node42</title>
<g id="a_node42"><a xlink:href="../../d3/dff/class_cell_society.html#a045267ba1843ca4a47891d7be73c2ac1" target="_top" xlink:title="CellSociety.decreaseFrameRate">
<polygon fill="white" stroke="black" points="356.5,-511.215 356.5,-530.215 523.5,-530.215 523.5,-511.215 356.5,-511.215"/>
<text text-anchor="middle" x="440" y="-518.215" font-family="Helvetica,sans-Serif" font-size="10.00">CellSociety.decreaseFrameRate</text>
</a>
</g>
</g>
<!-- Node2&#45;&gt;Node42 -->
<g id="edge52" class="edge"><title>Node2&#45;&gt;Node42</title>
<path fill="none" stroke="midnightblue" d="M305.436,-501.25C323.968,-503.951 344.294,-506.913 363.375,-509.694"/>
<polygon fill="midnightblue" stroke="midnightblue" points="363.125,-513.194 373.525,-511.173 364.134,-506.267 363.125,-513.194"/>
</g>
<!-- Node5 -->
<g id="node5" class="node"><title>Node5</title>
<g id="a_node5"><a xlink:href="../../df/df8/class_cell_society_view.html#ae83511f9bf3610b0750d41c4aeb0f778" target="_top" xlink:title="CellSocietyView.setButtons\lPause">
<polygon fill="white" stroke="black" points="800,-695.715 800,-725.715 946,-725.715 946,-695.715 800,-695.715"/>
<text text-anchor="start" x="808" y="-713.715" font-family="Helvetica,sans-Serif" font-size="10.00">CellSocietyView.setButtons</text>
<text text-anchor="middle" x="873" y="-702.715" font-family="Helvetica,sans-Serif" font-size="10.00">Pause</text>
</a>
</g>
</g>
<!-- Node4&#45;&gt;Node5 -->
<g id="edge4" class="edge"><title>Node4&#45;&gt;Node5</title>
<path fill="none" stroke="midnightblue" d="M518.054,-726.318C594.524,-722.947 711.327,-717.798 789.609,-714.347"/>
<polygon fill="midnightblue" stroke="midnightblue" points="790.077,-717.829 799.913,-713.892 789.769,-710.836 790.077,-717.829"/>
</g>
<!-- Node7&#45;&gt;Node5 -->
<g id="edge7" class="edge"><title>Node7&#45;&gt;Node5</title>
<path fill="none" stroke="midnightblue" d="M729.731,-698.2C748.984,-699.894 769.859,-701.73 789.534,-703.461"/>
<polygon fill="midnightblue" stroke="midnightblue" points="789.43,-706.965 799.699,-704.355 790.044,-699.992 789.43,-706.965"/>
</g>
<!-- Node10 -->
<g id="node10" class="node"><title>Node10</title>
<g id="a_node10"><a xlink:href="../../d6/d6e/class_sim_controller.html#a10145cee2eaceb4ecad9396a825051d1" target="_top" xlink:title="SimController.runOneSim">
<polygon fill="white" stroke="black" points="1208,-530.215 1208,-549.215 1346,-549.215 1346,-530.215 1208,-530.215"/>
<text text-anchor="middle" x="1277" y="-537.215" font-family="Helvetica,sans-Serif" font-size="10.00">SimController.runOneSim</text>
</a>
</g>
</g>
<!-- Node9&#45;&gt;Node10 -->
<g id="edge10" class="edge"><title>Node9&#45;&gt;Node10</title>
<path fill="none" stroke="midnightblue" d="M1140.25,-539.715C1158.44,-539.715 1178.62,-539.715 1197.74,-539.715"/>
<polygon fill="midnightblue" stroke="midnightblue" points="1197.92,-543.215 1207.92,-539.715 1197.92,-536.215 1197.92,-543.215"/>
</g>
<!-- Node14 -->
<g id="node14" class="node"><title>Node14</title>
<g id="a_node14"><a xlink:href="../../df/df8/class_cell_society_view.html#a43ac2666d3a002024be53fe74028a576" target="_top" xlink:title="CellSocietyView.updateSimGrid">
<polygon fill="white" stroke="black" points="1194.5,-416.215 1194.5,-435.215 1359.5,-435.215 1359.5,-416.215 1194.5,-416.215"/>
<text text-anchor="middle" x="1277" y="-423.215" font-family="Helvetica,sans-Serif" font-size="10.00">CellSocietyView.updateSimGrid</text>
</a>
</g>
</g>
<!-- Node9&#45;&gt;Node14 -->
<g id="edge14" class="edge"><title>Node9&#45;&gt;Node14</title>
<path fill="none" stroke="midnightblue" d="M1095.46,-530.191C1129.86,-510.283 1209.59,-464.147 1250.61,-440.408"/>
<polygon fill="midnightblue" stroke="midnightblue" points="1252.55,-443.329 1259.45,-435.291 1249.04,-437.27 1252.55,-443.329"/>
</g>
<!-- Node16 -->
<g id="node16" class="node"><title>Node16</title>
<g id="a_node16"><a xlink:href="../../d2/d95/class_x_m_l_parser.html#ac4e3257aed1deb9fe950149f706fce5b" target="_top" xlink:title="XMLParser.getCellParamList">
<polygon fill="white" stroke="black" points="1202.5,-138.215 1202.5,-157.215 1351.5,-157.215 1351.5,-138.215 1202.5,-138.215"/>
<text text-anchor="middle" x="1277" y="-145.215" font-family="Helvetica,sans-Serif" font-size="10.00">XMLParser.getCellParamList</text>
</a>
</g>
</g>
<!-- Node9&#45;&gt;Node16 -->
<g id="edge16" class="edge"><title>Node9&#45;&gt;Node16</title>
<path fill="none" stroke="midnightblue" d="M1098.51,-530.088C1116.32,-520.386 1142.2,-503.842 1158,-482.715 1177.99,-455.995 1248.53,-234.972 1269.85,-167.318"/>
<polygon fill="midnightblue" stroke="midnightblue" points="1273.28,-168.094 1272.94,-157.505 1266.6,-165.994 1273.28,-168.094"/>
</g>
<!-- Node17 -->
<g id="node17" class="node"><title>Node17</title>
<g id="a_node17"><a xlink:href="../../df/df8/class_cell_society_view.html#a7ca77bdfdef97e9be9c9941c2f4d3513" target="_top" xlink:title="CellSocietyView.updateChart\lLines">
<polygon fill="white" stroke="black" points="1200.5,-584.715 1200.5,-614.715 1353.5,-614.715 1353.5,-584.715 1200.5,-584.715"/>
<text text-anchor="start" x="1208.5" y="-602.715" font-family="Helvetica,sans-Serif" font-size="10.00">CellSocietyView.updateChart</text>
<text text-anchor="middle" x="1277" y="-591.715" font-family="Helvetica,sans-Serif" font-size="10.00">Lines</text>
</a>
</g>
</g>
<!-- Node9&#45;&gt;Node17 -->
<g id="edge17" class="edge"><title>Node9&#45;&gt;Node17</title>
<path fill="none" stroke="midnightblue" d="M1110.22,-549.222C1138.78,-557.92 1181.79,-571.022 1216.85,-581.7"/>
<polygon fill="midnightblue" stroke="midnightblue" points="1215.93,-585.076 1226.51,-584.642 1217.96,-578.38 1215.93,-585.076"/>
</g>
<!-- Node11 -->
<g id="node11" class="node"><title>Node11</title>
<g id="a_node11"><a xlink:href="../../dd/ddd/class_neighbor.html#ac769186595af20512a2ec4754db75640" target="_top" xlink:title="Neighbor.getNeighbors">
<polygon fill="white" stroke="black" points="1407.5,-492.215 1407.5,-511.215 1534.5,-511.215 1534.5,-492.215 1407.5,-492.215"/>
<text text-anchor="middle" x="1471" y="-499.215" font-family="Helvetica,sans-Serif" font-size="10.00">Neighbor.getNeighbors</text>
</a>
</g>
</g>
<!-- Node10&#45;&gt;Node11 -->
<g id="edge11" class="edge"><title>Node10&#45;&gt;Node11</title>
<path fill="none" stroke="midnightblue" d="M1326.45,-530.126C1352.47,-524.976 1384.73,-518.591 1412.07,-513.18"/>
<polygon fill="midnightblue" stroke="midnightblue" points="1412.77,-516.61 1421.9,-511.235 1411.41,-509.743 1412.77,-516.61"/>
</g>
<!-- Node12 -->
<g id="node12" class="node"><title>Node12</title>
<g id="a_node12"><a xlink:href="../../d6/d6e/class_sim_controller.html#a1538c5c647988e5d5b6602c8eb1b8949" target="_top" xlink:title="SimController.getNeighbors\lState">
<polygon fill="white" stroke="black" points="1396.5,-568.715 1396.5,-598.715 1545.5,-598.715 1545.5,-568.715 1396.5,-568.715"/>
<text text-anchor="start" x="1404.5" y="-586.715" font-family="Helvetica,sans-Serif" font-size="10.00">SimController.getNeighbors</text>
<text text-anchor="middle" x="1471" y="-575.715" font-family="Helvetica,sans-Serif" font-size="10.00">State</text>
</a>
</g>
</g>
<!-- Node10&#45;&gt;Node12 -->
<g id="edge12" class="edge"><title>Node10&#45;&gt;Node12</title>
<path fill="none" stroke="midnightblue" d="M1319.66,-549.262C1341.47,-554.26 1368.86,-560.537 1394.27,-566.359"/>
<polygon fill="midnightblue" stroke="midnightblue" points="1393.73,-569.827 1404.26,-568.649 1395.29,-563.004 1393.73,-569.827"/>
</g>
<!-- Node13 -->
<g id="node13" class="node"><title>Node13</title>
<g id="a_node13"><a xlink:href="../../d6/d6e/class_sim_controller.html#a6b7a166a6fd312895c8356d24de980e3" target="_top" xlink:title="SimController.newState">
<polygon fill="white" stroke="black" points="1406.5,-530.215 1406.5,-549.215 1535.5,-549.215 1535.5,-530.215 1406.5,-530.215"/>
<text text-anchor="middle" x="1471" y="-537.215" font-family="Helvetica,sans-Serif" font-size="10.00">SimController.newState</text>
</a>
</g>
</g>
<!-- Node10&#45;&gt;Node13 -->
<g id="edge13" class="edge"><title>Node10&#45;&gt;Node13</title>
<path fill="none" stroke="midnightblue" d="M1346.23,-539.715C1362.48,-539.715 1379.88,-539.715 1396.36,-539.715"/>
<polygon fill="midnightblue" stroke="midnightblue" points="1396.48,-543.215 1406.48,-539.715 1396.48,-536.215 1396.48,-543.215"/>
</g>
<!-- Node15 -->
<g id="node15" class="node"><title>Node15</title>
<g id="a_node15"><a xlink:href="../../dd/d11/class_cell.html#a1e0ece61fecc69a9b7986d17d925434a" target="_top" xlink:title="Cell.getShape">
<polygon fill="white" stroke="black" points="1429.5,-416.215 1429.5,-435.215 1512.5,-435.215 1512.5,-416.215 1429.5,-416.215"/>
<text text-anchor="middle" x="1471" y="-423.215" font-family="Helvetica,sans-Serif" font-size="10.00">Cell.getShape</text>
</a>
</g>
</g>
<!-- Node14&#45;&gt;Node15 -->
<g id="edge15" class="edge"><title>Node14&#45;&gt;Node15</title>
<path fill="none" stroke="midnightblue" d="M1359.7,-425.715C1379.93,-425.715 1401.03,-425.715 1419.29,-425.715"/>
<polygon fill="midnightblue" stroke="midnightblue" points="1419.4,-429.215 1429.4,-425.715 1419.4,-422.215 1419.4,-429.215"/>
</g>
<!-- Node19&#45;&gt;Node7 -->
<g id="edge39" class="edge"><title>Node19&#45;&gt;Node7</title>
<path fill="none" stroke="midnightblue" d="M480.695,-473.352C496.811,-479.121 514.34,-488.077 526,-501.715 565.795,-548.26 525.418,-585.604 562,-634.715 576.469,-654.139 599.693,-668.453 619.187,-677.88"/>
<polygon fill="midnightblue" stroke="midnightblue" points="617.854,-681.119 628.402,-682.115 620.778,-674.759 617.854,-681.119"/>
</g>
<!-- Node19&#45;&gt;Node14 -->
<g id="edge38" class="edge"><title>Node19&#45;&gt;Node14</title>
<path fill="none" stroke="midnightblue" d="M501.156,-454.103C509.8,-451.441 518.348,-448.046 526,-443.715 545.967,-432.412 540.863,-415.64 562,-406.715 684.013,-355.193 1025.98,-396.154 1158,-406.715 1177.64,-408.285 1198.94,-411.304 1217.97,-414.481"/>
<polygon fill="midnightblue" stroke="midnightblue" points="1217.54,-417.958 1227.98,-416.202 1218.72,-411.059 1217.54,-417.958"/>
</g>
<!-- Node19&#45;&gt;Node16 -->
<g id="edge41" class="edge"><title>Node19&#45;&gt;Node16</title>
<path fill="none" stroke="midnightblue" d="M506.159,-457.498C513.693,-454.311 520.598,-449.865 526,-443.715 578.033,-384.468 508.168,-148.331 562,-90.7145 749.29,109.744 1144.03,-77.626 1249.58,-133.257"/>
<polygon fill="midnightblue" stroke="midnightblue" points="1248.13,-136.452 1258.6,-138.066 1251.42,-130.275 1248.13,-136.452"/>
</g>
<!-- Node19&#45;&gt;Node17 -->
<g id="edge43" class="edge"><title>Node19&#45;&gt;Node17</title>
<path fill="none" stroke="midnightblue" d="M473.821,-473.285C490.764,-479.414 510.973,-488.695 526,-501.715 548.646,-521.335 536.184,-543.505 562,-558.715 614.896,-589.879 1012.25,-597.362 1190.23,-599.153"/>
<polygon fill="midnightblue" stroke="midnightblue" points="1190.31,-602.654 1200.35,-599.251 1190.38,-595.654 1190.31,-602.654"/>
</g>
<!-- Node20 -->
<g id="node20" class="node"><title>Node20</title>
<g id="a_node20"><a xlink:href="../../df/df8/class_cell_society_view.html#a053b6ef6afa80722445223c4e373e51c" target="_top" xlink:title="CellSocietyView.displayXMLChooser">
<polygon fill="white" stroke="black" points="562.5,-454.215 562.5,-473.215 747.5,-473.215 747.5,-454.215 562.5,-454.215"/>
<text text-anchor="middle" x="655" y="-461.215" font-family="Helvetica,sans-Serif" font-size="10.00">CellSocietyView.displayXMLChooser</text>
</a>
</g>
</g>
<!-- Node19&#45;&gt;Node20 -->
<g id="edge20" class="edge"><title>Node19&#45;&gt;Node20</title>
<path fill="none" stroke="midnightblue" d="M506.064,-463.715C520.616,-463.715 536.391,-463.715 552.035,-463.715"/>
<polygon fill="midnightblue" stroke="midnightblue" points="552.283,-467.215 562.283,-463.715 552.283,-460.215 552.283,-467.215"/>
</g>
<!-- Node21 -->
<g id="node21" class="node"><title>Node21</title>
<g id="a_node21"><a xlink:href="../../d2/d95/class_x_m_l_parser.html#a77ee23818c822b69cdf4200eef726a61" target="_top" xlink:title="XMLParser.parseXMLFile">
<polygon fill="white" stroke="black" points="590,-416.215 590,-435.215 720,-435.215 720,-416.215 590,-416.215"/>
<text text-anchor="middle" x="655" y="-423.215" font-family="Helvetica,sans-Serif" font-size="10.00">XMLParser.parseXMLFile</text>
</a>
</g>
</g>
<!-- Node19&#45;&gt;Node21 -->
<g id="edge21" class="edge"><title>Node19&#45;&gt;Node21</title>
<path fill="none" stroke="midnightblue" d="M494.474,-454.175C523.592,-448.98 559.811,-442.518 590.374,-437.066"/>
<polygon fill="midnightblue" stroke="midnightblue" points="591.274,-440.46 600.504,-435.258 590.045,-433.569 591.274,-440.46"/>
</g>
<!-- Node25 -->
<g id="node25" class="node"><title>Node25</title>
<g id="a_node25"><a xlink:href="../../d3/dff/class_cell_society.html#abfbf43ce46b4c82c16a2d933b6a11abf" target="_top" xlink:title="CellSociety.retrieveParserInfo">
<polygon fill="white" stroke="black" points="577.5,-176.215 577.5,-195.215 732.5,-195.215 732.5,-176.215 577.5,-176.215"/>
<text text-anchor="middle" x="655" y="-183.215" font-family="Helvetica,sans-Serif" font-size="10.00">CellSociety.retrieveParserInfo</text>
</a>
</g>
</g>
<!-- Node19&#45;&gt;Node25 -->
<g id="edge25" class="edge"><title>Node19&#45;&gt;Node25</title>
<path fill="none" stroke="midnightblue" d="M506.307,-457.077C513.721,-453.942 520.555,-449.623 526,-443.715 598.797,-364.722 488.127,-282.701 562,-204.715 564.05,-202.55 566.277,-200.598 568.645,-198.838"/>
<polygon fill="midnightblue" stroke="midnightblue" points="570.509,-201.8 577.184,-193.572 566.835,-195.842 570.509,-201.8"/>
</g>
<!-- Node26 -->
<g id="node26" class="node"><title>Node26</title>
<g id="a_node26"><a xlink:href="../../d2/d95/class_x_m_l_parser.html#aea9b535964c91fa3c3d2b1c0b6a334c2" target="_top" xlink:title="XMLParser.getInitParamMap">
<polygon fill="white" stroke="black" points="798.5,-176.215 798.5,-195.215 947.5,-195.215 947.5,-176.215 798.5,-176.215"/>
<text text-anchor="middle" x="873" y="-183.215" font-family="Helvetica,sans-Serif" font-size="10.00">XMLParser.getInitParamMap</text>
</a>
</g>
</g>
<!-- Node19&#45;&gt;Node26 -->
<g id="edge29" class="edge"><title>Node19&#45;&gt;Node26</title>
<path fill="none" stroke="midnightblue" d="M506.001,-457.358C513.56,-454.193 520.514,-449.79 526,-443.715 609.202,-351.575 468.73,-248.647 562,-166.715 599.073,-134.148 741.6,-157.862 819.837,-174.026"/>
<polygon fill="midnightblue" stroke="midnightblue" points="819.466,-177.524 829.971,-176.152 820.903,-170.674 819.466,-177.524"/>
</g>
<!-- Node28 -->
<g id="node28" class="node"><title>Node28</title>
<g id="a_node28"><a xlink:href="../../dd/d11/class_cell.html#a7157b57f4ff263ea68e1ff5fc424176e" target="_top" xlink:title="Cell.setCellSize">
<polygon fill="white" stroke="black" points="610.5,-340.215 610.5,-359.215 699.5,-359.215 699.5,-340.215 610.5,-340.215"/>
<text text-anchor="middle" x="655" y="-347.215" font-family="Helvetica,sans-Serif" font-size="10.00">Cell.setCellSize</text>
</a>
</g>
</g>
<!-- Node19&#45;&gt;Node28 -->
<g id="edge28" class="edge"><title>Node19&#45;&gt;Node28</title>
<path fill="none" stroke="midnightblue" d="M506.37,-454.605C513.421,-451.845 520.147,-448.289 526,-443.715 553.563,-422.17 534.698,-395.589 562,-373.715 572.988,-364.911 586.867,-359.309 600.491,-355.754"/>
<polygon fill="midnightblue" stroke="midnightblue" points="601.351,-359.147 610.321,-353.509 599.793,-352.323 601.351,-359.147"/>
</g>
<!-- Node29 -->
<g id="node29" class="node"><title>Node29</title>
<g id="a_node29"><a xlink:href="../../d3/dff/class_cell_society.html#a7a6dab68551f91cc4b120faa51670bf8" target="_top" xlink:title="CellSociety.createCellArray">
<polygon fill="white" stroke="black" points="583,-100.215 583,-119.215 727,-119.215 727,-100.215 583,-100.215"/>
<text text-anchor="middle" x="655" y="-107.215" font-family="Helvetica,sans-Serif" font-size="10.00">CellSociety.createCellArray</text>
</a>
</g>
</g>
<!-- Node19&#45;&gt;Node29 -->
<g id="edge30" class="edge"><title>Node19&#45;&gt;Node29</title>
<path fill="none" stroke="midnightblue" d="M506.079,-457.427C513.625,-454.252 520.555,-449.828 526,-443.715 618.255,-340.14 470.999,-238.393 562,-133.715 565.432,-129.767 569.423,-126.429 573.784,-123.61"/>
<polygon fill="midnightblue" stroke="midnightblue" points="575.478,-126.673 582.574,-118.806 572.12,-120.531 575.478,-126.673"/>
</g>
<!-- Node32 -->
<g id="node32" class="node"><title>Node32</title>
<g id="a_node32"><a xlink:href="../../d3/dff/class_cell_society.html#ab9e56a2a70e210e021b51e898508329b" target="_top" xlink:title="CellSociety.setupAnimation">
<polygon fill="white" stroke="black" points="582,-530.215 582,-549.215 728,-549.215 728,-530.215 582,-530.215"/>
<text text-anchor="middle" x="655" y="-537.215" font-family="Helvetica,sans-Serif" font-size="10.00">CellSociety.setupAnimation</text>
</a>
</g>
</g>
<!-- Node19&#45;&gt;Node32 -->
<g id="edge35" class="edge"><title>Node19&#45;&gt;Node32</title>
<path fill="none" stroke="midnightblue" d="M462.493,-473.416C491.772,-486.55 542.752,-509.11 562,-515.715 574.815,-520.112 588.87,-524.156 602.052,-527.622"/>
<polygon fill="midnightblue" stroke="midnightblue" points="601.371,-531.061 611.928,-530.157 603.111,-524.281 601.371,-531.061"/>
</g>
<!-- Node34 -->
<g id="node34" class="node"><title>Node34</title>
<g id="a_node34"><a xlink:href="../../df/df8/class_cell_society_view.html#a99eb733c00ed7c1bcba8f2d684791a09" target="_top" xlink:title="CellSocietyView.displayFrameRate">
<polygon fill="white" stroke="black" points="784,-492.215 784,-511.215 962,-511.215 962,-492.215 784,-492.215"/>
<text text-anchor="middle" x="873" y="-499.215" font-family="Helvetica,sans-Serif" font-size="10.00">CellSocietyView.displayFrameRate</text>
</a>
</g>
</g>
<!-- Node19&#45;&gt;Node34 -->
<g id="edge40" class="edge"><title>Node19&#45;&gt;Node34</title>
<path fill="none" stroke="midnightblue" d="M494.464,-473.224C515.46,-476.666 539.804,-480.297 562,-482.715 632.707,-490.415 712.852,-495.225 773.936,-498.078"/>
<polygon fill="midnightblue" stroke="midnightblue" points="773.806,-501.575 783.956,-498.536 774.126,-494.583 773.806,-501.575"/>
</g>
<!-- Node35 -->
<g id="node35" class="node"><title>Node35</title>
<g id="a_node35"><a xlink:href="../../df/df8/class_cell_society_view.html#a930d889b8619ae93731b8542ce285180" target="_top" xlink:title="CellSocietyView.generate\lChartLines">
<polygon fill="white" stroke="black" points="586.5,-290.715 586.5,-320.715 723.5,-320.715 723.5,-290.715 586.5,-290.715"/>
<text text-anchor="start" x="594.5" y="-308.715" font-family="Helvetica,sans-Serif" font-size="10.00">CellSocietyView.generate</text>
<text text-anchor="middle" x="655" y="-297.715" font-family="Helvetica,sans-Serif" font-size="10.00">ChartLines</text>
</a>
</g>
</g>
<!-- Node19&#45;&gt;Node35 -->
<g id="edge42" class="edge"><title>Node19&#45;&gt;Node35</title>
<path fill="none" stroke="midnightblue" d="M506.308,-455.882C513.539,-452.919 520.326,-448.966 526,-443.715 564.684,-407.912 523.935,-367.174 562,-330.715 566.55,-326.357 571.78,-322.742 577.388,-319.746"/>
<polygon fill="midnightblue" stroke="midnightblue" points="578.873,-322.916 586.469,-315.529 575.925,-316.567 578.873,-322.916"/>
</g>
<!-- Node36 -->
<g id="node36" class="node"><title>Node36</title>
<g id="a_node36"><a xlink:href="../../df/df8/class_cell_society_view.html#a657e807b4a00834e06468273d93fa7a5" target="_top" xlink:title="CellSocietyView.openDialogBox">
<polygon fill="white" stroke="black" points="572.5,-252.215 572.5,-271.215 737.5,-271.215 737.5,-252.215 572.5,-252.215"/>
<text text-anchor="middle" x="655" y="-259.215" font-family="Helvetica,sans-Serif" font-size="10.00">CellSocietyView.openDialogBox</text>
</a>
</g>
</g>
<!-- Node19&#45;&gt;Node36 -->
<g id="edge44" class="edge"><title>Node19&#45;&gt;Node36</title>
<path fill="none" stroke="midnightblue" d="M506.358,-456.547C513.67,-453.484 520.464,-449.327 526,-443.715 578.099,-390.895 509.181,-332.814 562,-280.715 563.437,-279.297 564.95,-277.973 566.528,-276.735"/>
<polygon fill="midnightblue" stroke="midnightblue" points="568.465,-279.65 574.915,-271.245 564.631,-273.794 568.465,-279.65"/>
</g>
<!-- Node37 -->
<g id="node37" class="node"><title>Node37</title>
<g id="a_node37"><a xlink:href="../../df/df8/class_cell_society_view.html#a989874eb178e925124f50d7cabcc184c" target="_top" xlink:title="CellSocietyView.setGridGap">
<polygon fill="white" stroke="black" points="581.5,-214.215 581.5,-233.215 728.5,-233.215 728.5,-214.215 581.5,-214.215"/>
<text text-anchor="middle" x="655" y="-221.215" font-family="Helvetica,sans-Serif" font-size="10.00">CellSocietyView.setGridGap</text>
</a>
</g>
</g>
<!-- Node19&#45;&gt;Node37 -->
<g id="edge45" class="edge"><title>Node19&#45;&gt;Node37</title>
<path fill="none" stroke="midnightblue" d="M506.154,-456.933C513.592,-453.822 520.474,-449.547 526,-443.715 588.422,-377.836 498.68,-307.73 562,-242.715 565.072,-239.56 568.52,-236.859 572.23,-234.552"/>
<polygon fill="midnightblue" stroke="midnightblue" points="574.035,-237.559 581.307,-229.854 570.818,-231.342 574.035,-237.559"/>
</g>
<!-- Node22 -->
<g id="node22" class="node"><title>Node22</title>
<g id="a_node22"><a xlink:href="../../d2/d95/class_x_m_l_parser.html#ae67767f9678fb650ac38b1321ea9f723" target="_top" xlink:title="XMLParser.parseInitialTags">
<polygon fill="white" stroke="black" points="802.5,-416.215 802.5,-435.215 943.5,-435.215 943.5,-416.215 802.5,-416.215"/>
<text text-anchor="middle" x="873" y="-423.215" font-family="Helvetica,sans-Serif" font-size="10.00">XMLParser.parseInitialTags</text>
</a>
</g>
</g>
<!-- Node21&#45;&gt;Node22 -->
<g id="edge22" class="edge"><title>Node21&#45;&gt;Node22</title>
<path fill="none" stroke="midnightblue" d="M720.222,-425.715C742.855,-425.715 768.576,-425.715 792.329,-425.715"/>
<polygon fill="midnightblue" stroke="midnightblue" points="792.374,-429.215 802.374,-425.715 792.374,-422.215 792.374,-429.215"/>
</g>
<!-- Node23 -->
<g id="node23" class="node"><title>Node23</title>
<g id="a_node23"><a xlink:href="../../d2/d95/class_x_m_l_parser.html#a09c6848239104ae94825c045796dddd0" target="_top" xlink:title="XMLParser.makeParamMap">
<polygon fill="white" stroke="black" points="1005,-454.215 1005,-473.215 1151,-473.215 1151,-454.215 1005,-454.215"/>
<text text-anchor="middle" x="1078" y="-461.215" font-family="Helvetica,sans-Serif" font-size="10.00">XMLParser.makeParamMap</text>
</a>
</g>
</g>
<!-- Node22&#45;&gt;Node23 -->
<g id="edge23" class="edge"><title>Node22&#45;&gt;Node23</title>
<path fill="none" stroke="midnightblue" d="M924.963,-435.255C952.594,-440.427 986.933,-446.855 1015.98,-452.292"/>
<polygon fill="midnightblue" stroke="midnightblue" points="1015.54,-455.771 1026.02,-454.171 1016.83,-448.89 1015.54,-455.771"/>
</g>
<!-- Node24 -->
<g id="node24" class="node"><title>Node24</title>
<g id="a_node24"><a xlink:href="../../d2/d95/class_x_m_l_parser.html#a5a419f71699eb7d3d76ee238fb262a5f" target="_top" xlink:title="XMLParser.makeCellParamList">
<polygon fill="white" stroke="black" points="998,-416.215 998,-435.215 1158,-435.215 1158,-416.215 998,-416.215"/>
<text text-anchor="middle" x="1078" y="-423.215" font-family="Helvetica,sans-Serif" font-size="10.00">XMLParser.makeCellParamList</text>
</a>
</g>
</g>
<!-- Node22&#45;&gt;Node24 -->
<g id="edge24" class="edge"><title>Node22&#45;&gt;Node24</title>
<path fill="none" stroke="midnightblue" d="M943.577,-425.715C957.752,-425.715 972.851,-425.715 987.604,-425.715"/>
<polygon fill="midnightblue" stroke="midnightblue" points="987.747,-429.215 997.747,-425.715 987.747,-422.215 987.747,-429.215"/>
</g>
<!-- Node25&#45;&gt;Node26 -->
<g id="edge26" class="edge"><title>Node25&#45;&gt;Node26</title>
<path fill="none" stroke="midnightblue" d="M732.762,-185.715C750.769,-185.715 770.043,-185.715 788.335,-185.715"/>
<polygon fill="midnightblue" stroke="midnightblue" points="788.382,-189.215 798.382,-185.715 788.382,-182.215 788.382,-189.215"/>
</g>
<!-- Node27 -->
<g id="node27" class="node"><title>Node27</title>
<g id="a_node27"><a xlink:href="../../d2/d95/class_x_m_l_parser.html#a0df3a2904766f59d1246cb55416f8146" target="_top" xlink:title="XMLParser.getSimParamMap">
<polygon fill="white" stroke="black" points="796,-214.215 796,-233.215 950,-233.215 950,-214.215 796,-214.215"/>
<text text-anchor="middle" x="873" y="-221.215" font-family="Helvetica,sans-Serif" font-size="10.00">XMLParser.getSimParamMap</text>
</a>
</g>
</g>
<!-- Node25&#45;&gt;Node27 -->
<g id="edge27" class="edge"><title>Node25&#45;&gt;Node27</title>
<path fill="none" stroke="midnightblue" d="M710.227,-195.255C739.884,-200.472 776.804,-206.967 807.882,-212.435"/>
<polygon fill="midnightblue" stroke="midnightblue" points="807.295,-215.885 817.751,-214.171 808.508,-208.991 807.295,-215.885"/>
</g>
<!-- Node29&#45;&gt;Node16 -->
<g id="edge32" class="edge"><title>Node29&#45;&gt;Node16</title>
<path fill="none" stroke="midnightblue" d="M711.285,-119.263C733.777,-122.797 760.066,-126.483 784,-128.715 927.032,-142.052 1094.3,-146.066 1192.34,-147.25"/>
<polygon fill="midnightblue" stroke="midnightblue" points="1192.44,-150.752 1202.48,-147.366 1192.52,-143.752 1192.44,-150.752"/>
</g>
<!-- Node29&#45;&gt;Node26 -->
<g id="edge31" class="edge"><title>Node29&#45;&gt;Node26</title>
<path fill="none" stroke="midnightblue" d="M707.463,-119.228C721.046,-122.779 735.416,-127.509 748,-133.715 766.18,-142.679 765.87,-152.65 784,-161.715 793.338,-166.384 803.703,-170.24 813.947,-173.392"/>
<polygon fill="midnightblue" stroke="midnightblue" points="813.115,-176.794 823.693,-176.202 815.054,-170.068 813.115,-176.794"/>
</g>
<!-- Node30 -->
<g id="node30" class="node"><title>Node30</title>
<g id="a_node30"><a xlink:href="../../d3/dff/class_cell_society.html#a42451b17e2bca5fd025c8d4ea74310ca" target="_top" xlink:title="CellSociety.stringToIntArray">
<polygon fill="white" stroke="black" points="800.5,-62.2145 800.5,-81.2145 945.5,-81.2145 945.5,-62.2145 800.5,-62.2145"/>
<text text-anchor="middle" x="873" y="-69.2145" font-family="Helvetica,sans-Serif" font-size="10.00">CellSociety.stringToIntArray</text>
</a>
</g>
</g>
<!-- Node29&#45;&gt;Node30 -->
<g id="edge33" class="edge"><title>Node29&#45;&gt;Node30</title>
<path fill="none" stroke="midnightblue" d="M710.227,-100.175C739.884,-94.9572 776.804,-88.462 807.882,-82.9946"/>
<polygon fill="midnightblue" stroke="midnightblue" points="808.508,-86.4382 817.751,-81.2584 807.295,-79.5441 808.508,-86.4382"/>
</g>
<!-- Node31 -->
<g id="node31" class="node"><title>Node31</title>
<g id="a_node31"><a xlink:href="../../d3/dff/class_cell_society.html#a117f1698760a3f6bbe51bd7af16f79bb" target="_top" xlink:title="CellSociety.createCellInstance">
<polygon fill="white" stroke="black" points="793.5,-100.215 793.5,-119.215 952.5,-119.215 952.5,-100.215 793.5,-100.215"/>
<text text-anchor="middle" x="873" y="-107.215" font-family="Helvetica,sans-Serif" font-size="10.00">CellSociety.createCellInstance</text>
</a>
</g>
</g>
<!-- Node29&#45;&gt;Node31 -->
<g id="edge34" class="edge"><title>Node29&#45;&gt;Node31</title>
<path fill="none" stroke="midnightblue" d="M727.026,-109.715C745.057,-109.715 764.652,-109.715 783.436,-109.715"/>
<polygon fill="midnightblue" stroke="midnightblue" points="783.472,-113.215 793.472,-109.715 783.472,-106.215 783.472,-113.215"/>
</g>
<!-- Node33 -->
<g id="node33" class="node"><title>Node33</title>
<g id="a_node33"><a xlink:href="../../d3/dff/class_cell_society.html#abf13a64ee79f2cb063447b499c695c58" target="_top" xlink:title="CellSociety.start">
<polygon fill="white" stroke="black" points="826.5,-530.215 826.5,-549.215 919.5,-549.215 919.5,-530.215 826.5,-530.215"/>
<text text-anchor="middle" x="873" y="-537.215" font-family="Helvetica,sans-Serif" font-size="10.00">CellSociety.start</text>
</a>
</g>
</g>
<!-- Node32&#45;&gt;Node33 -->
<g id="edge36" class="edge"><title>Node32&#45;&gt;Node33</title>
<path fill="none" stroke="midnightblue" d="M728.225,-539.715C756.808,-539.715 789.161,-539.715 815.928,-539.715"/>
<polygon fill="midnightblue" stroke="midnightblue" points="816.27,-543.215 826.27,-539.715 816.27,-536.215 816.27,-543.215"/>
</g>
<!-- Node33&#45;&gt;Node9 -->
<g id="edge37" class="edge"><title>Node33&#45;&gt;Node9</title>
<path fill="none" stroke="midnightblue" d="M919.557,-539.715C944.856,-539.715 976.898,-539.715 1005.46,-539.715"/>
<polygon fill="midnightblue" stroke="midnightblue" points="1005.81,-543.215 1015.81,-539.715 1005.81,-536.215 1005.81,-543.215"/>
</g>
<!-- Node40 -->
<g id="node40" class="node"><title>Node40</title>
<g id="a_node40"><a xlink:href="../../d3/dff/class_cell_society.html#adc5feda3db5472cea4e092d463681033" target="_top" xlink:title="CellSociety.reframeTimeline">
<polygon fill="white" stroke="black" points="580.5,-606.215 580.5,-625.215 729.5,-625.215 729.5,-606.215 580.5,-606.215"/>
<text text-anchor="middle" x="655" y="-613.215" font-family="Helvetica,sans-Serif" font-size="10.00">CellSociety.reframeTimeline</text>
</a>
</g>
</g>
<!-- Node39&#45;&gt;Node40 -->
<g id="edge48" class="edge"><title>Node39&#45;&gt;Node40</title>
<path fill="none" stroke="midnightblue" d="M521.526,-603.898C537.375,-605.311 554.041,-606.798 570.001,-608.222"/>
<polygon fill="midnightblue" stroke="midnightblue" points="570.1,-611.744 580.371,-609.147 570.722,-604.772 570.1,-611.744"/>
</g>
<!-- Node40&#45;&gt;Node33 -->
<g id="edge50" class="edge"><title>Node40&#45;&gt;Node33</title>
<path fill="none" stroke="midnightblue" d="M677.444,-606.081C702.631,-594.983 745.827,-576.622 784,-563.715 796.671,-559.43 810.562,-555.36 823.486,-551.829"/>
<polygon fill="midnightblue" stroke="midnightblue" points="824.393,-555.21 833.146,-549.24 822.581,-548.448 824.393,-555.21"/>
</g>
<!-- Node40&#45;&gt;Node34 -->
<g id="edge49" class="edge"><title>Node40&#45;&gt;Node34</title>
<path fill="none" stroke="midnightblue" d="M674.557,-606.078C693.827,-595.658 724.4,-577.938 748,-558.715 766.038,-544.022 763.725,-532.123 784,-520.715 788.016,-518.455 792.275,-516.463 796.666,-514.709"/>
<polygon fill="midnightblue" stroke="midnightblue" points="798.199,-517.878 806.45,-511.233 795.856,-511.282 798.199,-517.878"/>
</g>
<!-- Node42&#45;&gt;Node40 -->
<g id="edge53" class="edge"><title>Node42&#45;&gt;Node40</title>
<path fill="none" stroke="midnightblue" d="M454.505,-530.332C476.203,-545.384 520.599,-574.556 562,-591.715 573.198,-596.356 585.543,-600.309 597.454,-603.588"/>
<polygon fill="midnightblue" stroke="midnightblue" points="596.762,-607.024 607.323,-606.183 598.542,-600.255 596.762,-607.024"/>
</g>
</g>
</svg>
