<?xml version="1.0" encoding="UTF-8" standalone="no"?>
<!DOCTYPE svg PUBLIC "-//W3C//DTD SVG 1.1//EN"
 "http://www.w3.org/Graphics/SVG/1.1/DTD/svg11.dtd">
<!-- Generated by graphviz version 2.36.0 (20140111.2315)
 -->
<!-- Title: CellSociety.updateGrid Pages: 1 -->
<svg width="520pt" height="160pt"
 viewBox="0.00 0.00 520.00 160.00" xmlns="http://www.w3.org/2000/svg" xmlns:xlink="http://www.w3.org/1999/xlink">
<g id="graph0" class="graph" transform="scale(1 1) rotate(0) translate(4 156)">
<title>CellSociety.updateGrid</title>
<polygon fill="white" stroke="none" points="-4,4 -4,-156 516,-156 516,4 -4,4"/>
<!-- Node1 -->
<g id="node1" class="node"><title>Node1</title>
<polygon fill="#bfbfbf" stroke="black" points="0,-66.5 0,-85.5 124,-85.5 124,-66.5 0,-66.5"/>
<text text-anchor="middle" x="62" y="-73.5" font-family="Helvetica,sans-Serif" font-size="10.00">CellSociety.updateGrid</text>
</g>
<!-- Node2 -->
<g id="node2" class="node"><title>Node2</title>
<g id="a_node2"><a xlink:href="../../d2/d95/class_x_m_l_parser.html#ac4e3257aed1deb9fe950149f706fce5b" target="_top" xlink:title="XMLParser.getCellParamList">
<polygon fill="white" stroke="black" points="168.5,-126.5 168.5,-145.5 317.5,-145.5 317.5,-126.5 168.5,-126.5"/>
<text text-anchor="middle" x="243" y="-133.5" font-family="Helvetica,sans-Serif" font-size="10.00">XMLParser.getCellParamList</text>
</a>
</g>
</g>
<!-- Node1&#45;&gt;Node2 -->
<g id="edge1" class="edge"><title>Node1&#45;&gt;Node2</title>
<path fill="none" stroke="midnightblue" d="M82.6819,-85.5049C102.014,-94.5555 132.524,-108.083 160,-117 167.807,-119.533 176.135,-121.87 184.38,-123.973"/>
<polygon fill="midnightblue" stroke="midnightblue" points="183.809,-127.437 194.355,-126.422 185.477,-120.639 183.809,-127.437"/>
</g>
<!-- Node3 -->
<g id="node3" class="node"><title>Node3</title>
<g id="a_node3"><a xlink:href="../../d6/d6e/class_sim_controller.html#a10145cee2eaceb4ecad9396a825051d1" target="_top" xlink:title="SimController.runOneSim">
<polygon fill="white" stroke="black" points="174,-88.5 174,-107.5 312,-107.5 312,-88.5 174,-88.5"/>
<text text-anchor="middle" x="243" y="-95.5" font-family="Helvetica,sans-Serif" font-size="10.00">SimController.runOneSim</text>
</a>
</g>
</g>
<!-- Node1&#45;&gt;Node3 -->
<g id="edge2" class="edge"><title>Node1&#45;&gt;Node3</title>
<path fill="none" stroke="midnightblue" d="M124.101,-83.5096C136.853,-85.0769 150.462,-86.7496 163.737,-88.3811"/>
<polygon fill="midnightblue" stroke="midnightblue" points="163.451,-91.8722 173.803,-89.6183 164.305,-84.9244 163.451,-91.8722"/>
</g>
<!-- Node7 -->
<g id="node7" class="node"><title>Node7</title>
<g id="a_node7"><a xlink:href="../../df/df8/class_cell_society_view.html#a7ca77bdfdef97e9be9c9941c2f4d3513" target="_top" xlink:title="CellSocietyView.updateChart\lLines">
<polygon fill="white" stroke="black" points="166.5,-39 166.5,-69 319.5,-69 319.5,-39 166.5,-39"/>
<text text-anchor="start" x="174.5" y="-57" font-family="Helvetica,sans-Serif" font-size="10.00">CellSocietyView.updateChart</text>
<text text-anchor="middle" x="243" y="-46" font-family="Helvetica,sans-Serif" font-size="10.00">Lines</text>
</a>
</g>
</g>
<!-- Node1&#45;&gt;Node7 -->
<g id="edge6" class="edge"><title>Node1&#45;&gt;Node7</title>
<path fill="none" stroke="midnightblue" d="M124.101,-68.4904C134.492,-67.2133 145.452,-65.8662 156.336,-64.5285"/>
<polygon fill="midnightblue" stroke="midnightblue" points="156.794,-67.9986 166.293,-63.3048 155.94,-61.0509 156.794,-67.9986"/>
</g>
<!-- Node8 -->
<g id="node8" class="node"><title>Node8</title>
<g id="a_node8"><a xlink:href="../../df/df8/class_cell_society_view.html#a43ac2666d3a002024be53fe74028a576" target="_top" xlink:title="CellSocietyView.updateSimGrid">
<polygon fill="white" stroke="black" points="160.5,-0.5 160.5,-19.5 325.5,-19.5 325.5,-0.5 160.5,-0.5"/>
<text text-anchor="middle" x="243" y="-7.5" font-family="Helvetica,sans-Serif" font-size="10.00">CellSocietyView.updateSimGrid</text>
</a>
</g>
</g>
<!-- Node1&#45;&gt;Node8 -->
<g id="edge7" class="edge"><title>Node1&#45;&gt;Node8</title>
<path fill="none" stroke="midnightblue" d="M79.6761,-66.4925C98.619,-56.0346 130.709,-39.343 160,-29 167.266,-26.4341 175.019,-24.1191 182.748,-22.0605"/>
<polygon fill="midnightblue" stroke="midnightblue" points="183.656,-25.4412 192.489,-19.5905 181.935,-18.6559 183.656,-25.4412"/>
</g>
<!-- Node4 -->
<g id="node4" class="node"><title>Node4</title>
<g id="a_node4"><a xlink:href="../../dd/ddd/class_neighbor.html#ac769186595af20512a2ec4754db75640" target="_top" xlink:title="Neighbor.getNeighbors">
<polygon fill="white" stroke="black" points="373.5,-132.5 373.5,-151.5 500.5,-151.5 500.5,-132.5 373.5,-132.5"/>
<text text-anchor="middle" x="437" y="-139.5" font-family="Helvetica,sans-Serif" font-size="10.00">Neighbor.getNeighbors</text>
</a>
</g>
</g>
<!-- Node3&#45;&gt;Node4 -->
<g id="edge3" class="edge"><title>Node3&#45;&gt;Node4</title>
<path fill="none" stroke="midnightblue" d="M285.661,-107.547C314.721,-114.207 353.686,-123.136 384.665,-130.236"/>
<polygon fill="midnightblue" stroke="midnightblue" points="383.891,-133.649 394.42,-132.471 385.455,-126.826 383.891,-133.649"/>
</g>
<!-- Node5 -->
<g id="node5" class="node"><title>Node5</title>
<g id="a_node5"><a xlink:href="../../d6/d6e/class_sim_controller.html#a1538c5c647988e5d5b6602c8eb1b8949" target="_top" xlink:title="SimController.getNeighbors\lState">
<polygon fill="white" stroke="black" points="362.5,-83 362.5,-113 511.5,-113 511.5,-83 362.5,-83"/>
<text text-anchor="start" x="370.5" y="-101" font-family="Helvetica,sans-Serif" font-size="10.00">SimController.getNeighbors</text>
<text text-anchor="middle" x="437" y="-90" font-family="Helvetica,sans-Serif" font-size="10.00">State</text>
</a>
</g>
</g>
<!-- Node3&#45;&gt;Node5 -->
<g id="edge4" class="edge"><title>Node3&#45;&gt;Node5</title>
<path fill="none" stroke="midnightblue" d="M312.233,-98C325.202,-98 338.912,-98 352.297,-98"/>
<polygon fill="midnightblue" stroke="midnightblue" points="352.452,-101.5 362.452,-98 352.452,-94.5001 352.452,-101.5"/>
</g>
<!-- Node6 -->
<g id="node6" class="node"><title>Node6</title>
<g id="a_node6"><a xlink:href="../../d6/d6e/class_sim_controller.html#a6b7a166a6fd312895c8356d24de980e3" target="_top" xlink:title="SimController.newState">
<polygon fill="white" stroke="black" points="372.5,-44.5 372.5,-63.5 501.5,-63.5 501.5,-44.5 372.5,-44.5"/>
<text text-anchor="middle" x="437" y="-51.5" font-family="Helvetica,sans-Serif" font-size="10.00">SimController.newState</text>
</a>
</g>
</g>
<!-- Node3&#45;&gt;Node6 -->
<g id="edge5" class="edge"><title>Node3&#45;&gt;Node6</title>
<path fill="none" stroke="midnightblue" d="M285.661,-88.4527C314.721,-81.7931 353.686,-72.8637 384.665,-65.7642"/>
<polygon fill="midnightblue" stroke="midnightblue" points="385.455,-69.1741 394.42,-63.5287 383.891,-62.351 385.455,-69.1741"/>
</g>
<!-- Node9 -->
<g id="node9" class="node"><title>Node9</title>
<g id="a_node9"><a xlink:href="../../dd/d11/class_cell.html#a1e0ece61fecc69a9b7986d17d925434a" target="_top" xlink:title="Cell.getShape">
<polygon fill="white" stroke="black" points="395.5,-0.5 395.5,-19.5 478.5,-19.5 478.5,-0.5 395.5,-0.5"/>
<text text-anchor="middle" x="437" y="-7.5" font-family="Helvetica,sans-Serif" font-size="10.00">Cell.getShape</text>
</a>
</g>
</g>
<!-- Node8&#45;&gt;Node9 -->
<g id="edge8" class="edge"><title>Node8&#45;&gt;Node9</title>
<path fill="none" stroke="midnightblue" d="M325.704,-10C345.933,-10 367.029,-10 385.29,-10"/>
<polygon fill="midnightblue" stroke="midnightblue" points="385.401,-13.5001 395.401,-10 385.401,-6.5001 385.401,-13.5001"/>
</g>
</g>
</svg>
