<?xml version="1.0" encoding="UTF-8" standalone="no"?>
<!DOCTYPE svg PUBLIC "-//W3C//DTD SVG 1.1//EN"
 "http://www.w3.org/Graphics/SVG/1.1/DTD/svg11.dtd">
<!-- Generated by graphviz version 2.36.0 (20140111.2315)
 -->
<!-- Title: CellSociety.populateLocations Pages: 1 -->
<svg width="362pt" height="66pt"
 viewBox="0.00 0.00 362.00 66.00" xmlns="http://www.w3.org/2000/svg" xmlns:xlink="http://www.w3.org/1999/xlink">
<g id="graph0" class="graph" transform="scale(1 1) rotate(0) translate(4 62)">
<title>CellSociety.populateLocations</title>
<polygon fill="white" stroke="none" points="-4,4 -4,-62 358,-62 358,4 -4,4"/>
<!-- Node1 -->
<g id="node1" class="node"><title>Node1</title>
<polygon fill="#bfbfbf" stroke="black" points="0,-19.5 0,-38.5 158,-38.5 158,-19.5 0,-19.5"/>
<text text-anchor="middle" x="79" y="-26.5" font-family="Helvetica,sans-Serif" font-size="10.00">CellSociety.populateLocations</text>
</g>
<!-- Node2 -->
<g id="node2" class="node"><title>Node2</title>
<g id="a_node2"><a xlink:href="../../d3/dff/class_cell_society.html#a117f1698760a3f6bbe51bd7af16f79bb" target="_top" xlink:title="CellSociety.createCellInstance">
<polygon fill="white" stroke="black" points="194.5,-38.5 194.5,-57.5 353.5,-57.5 353.5,-38.5 194.5,-38.5"/>
<text text-anchor="middle" x="274" y="-45.5" font-family="Helvetica,sans-Serif" font-size="10.00">CellSociety.createCellInstance</text>
</a>
</g>
</g>
<!-- Node1&#45;&gt;Node2 -->
<g id="edge1" class="edge"><title>Node1&#45;&gt;Node2</title>
<path fill="none" stroke="midnightblue" d="M158.222,-36.7006C166.784,-37.5435 175.545,-38.406 184.222,-39.2602"/>
<polygon fill="midnightblue" stroke="midnightblue" points="184.058,-42.7609 194.353,-40.2575 184.744,-35.7946 184.058,-42.7609"/>
</g>
<!-- Node3 -->
<g id="node3" class="node"><title>Node3</title>
<g id="a_node3"><a xlink:href="../../d3/dff/class_cell_society.html#a42451b17e2bca5fd025c8d4ea74310ca" target="_top" xlink:title="CellSociety.stringToIntArray">
<polygon fill="white" stroke="black" points="201.5,-0.5 201.5,-19.5 346.5,-19.5 346.5,-0.5 201.5,-0.5"/>
<text text-anchor="middle" x="274" y="-7.5" font-family="Helvetica,sans-Serif" font-size="10.00">CellSociety.stringToIntArray</text>
</a>
</g>
</g>
<!-- Node1&#45;&gt;Node3 -->
<g id="edge2" class="edge"><title>Node1&#45;&gt;Node3</title>
<path fill="none" stroke="midnightblue" d="M158.222,-21.2994C169.102,-20.2283 180.304,-19.1255 191.247,-18.0482"/>
<polygon fill="midnightblue" stroke="midnightblue" points="191.598,-21.5307 201.207,-17.0677 190.912,-14.5644 191.598,-21.5307"/>
</g>
</g>
</svg>
