<?xml version="1.0" encoding="UTF-8" standalone="no"?>
<!DOCTYPE svg PUBLIC "-//W3C//DTD SVG 1.1//EN"
 "http://www.w3.org/Graphics/SVG/1.1/DTD/svg11.dtd">
<!-- Generated by graphviz version 2.36.0 (20140111.2315)
 -->
<!-- Title: CellSociety.readNewXML Pages: 1 -->
<!--zoomable 644 -->
<svg id="main" version="1.1" xmlns="http://www.w3.org/2000/svg" xmlns:xlink="http://www.w3.org/1999/xlink" xml:space="preserve" onload="init(evt)">
<style type="text/css"><![CDATA[
.edge:hover path { stroke: red; }
.edge:hover polygon { stroke: red; fill: red; }
]]></style>
<script type="text/javascript"><![CDATA[
var edges = document.getElementsByTagName('g');
if (edges && edges.length) {
  for (var i=0;i<edges.length;i++) {
    if (edges[i].id.substr(0,4)=='edge') {
      edges[i].setAttribute('class','edge');
    }
  }
}
]]></script>
        <defs>
                <circle id="rim" cx="0" cy="0" r="7"/>
                <circle id="rim2" cx="0" cy="0" r="3.5"/>
                <g id="zoomPlus">
                        <use xlink:href="#rim" fill="#404040">
                                <set attributeName="fill" to="#808080" begin="zoomplus.mouseover" end="zoomplus.mouseout"/>
                        </use>
                        <path d="M-4,0h8M0,-4v8" fill="none" stroke="white" stroke-width="1.5" pointer-events="none"/>
                </g>
                <g id="zoomMin">
                        <use xlink:href="#rim" fill="#404040">
                                <set attributeName="fill" to="#808080" begin="zoomminus.mouseover" end="zoomminus.mouseout"/>
                        </use>
                        <path d="M-4,0h8" fill="none" stroke="white" stroke-width="1.5" pointer-events="none"/>
                </g>
                <g id="dirArrow">
                        <path fill="none" stroke="white" stroke-width="1.5" d="M0,-3.0v7 M-2.5,-0.5L0,-3.0L2.5,-0.5"/>
                </g>
               <g id="resetDef">
                       <use xlink:href="#rim2" fill="#404040">
                               <set attributeName="fill" to="#808080" begin="reset.mouseover" end="reset.mouseout"/>
                       </use>
               </g>
        </defs>

<script type="text/javascript">
var viewWidth = 1320;
var viewHeight = 644;
var sectionId = 'dynsection-19';
</script>
<script xlink:href="../../svgpan.js"/>
<svg id="graph" class="graph">
<g id="viewport">
<title>CellSociety.readNewXML</title>
<polygon fill="white" stroke="none" points="-4,4 -4,-639.893 1316,-639.893 1316,4 -4,4"/>
<!-- Node1 -->
<g id="node1" class="node"><title>Node1</title>
<polygon fill="#bfbfbf" stroke="black" points="0,-276.5 0,-295.5 132,-295.5 132,-276.5 0,-276.5"/>
<text text-anchor="middle" x="66" y="-283.5" font-family="Helvetica,sans-Serif" font-size="10.00">CellSociety.readNewXML</text>
</g>
<!-- Node2 -->
<g id="node2" class="node"><title>Node2</title>
<g id="a_node2"><a xlink:href="../../d3/dff/class_cell_society.html#a7a6dab68551f91cc4b120faa51670bf8" target="_top" xlink:title="CellSociety.createCellArray">
<polygon fill="white" stroke="black" points="189,-519.5 189,-538.5 333,-538.5 333,-519.5 189,-519.5"/>
<text text-anchor="middle" x="261" y="-526.5" font-family="Helvetica,sans-Serif" font-size="10.00">CellSociety.createCellArray</text>
</a>
</g>
</g>
<!-- Node1&#45;&gt;Node2 -->
<g id="edge1" class="edge"><title>Node1&#45;&gt;Node2</title>
<path fill="none" stroke="midnightblue" d="M68.6579,-295.906C74.8955,-330.024 100.156,-443.753 168,-502 174.699,-507.751 182.571,-512.278 190.842,-515.841"/>
<polygon fill="midnightblue" stroke="midnightblue" points="189.72,-519.159 200.31,-519.469 192.224,-512.623 189.72,-519.159"/>
</g>
<!-- Node3 -->
<g id="node3" class="node"><title>Node3</title>
<g id="a_node3"><a xlink:href="../../d2/d95/class_x_m_l_parser.html#ac4e3257aed1deb9fe950149f706fce5b" target="_top" xlink:title="XMLParser.getCellParamList">
<polygon fill="white" stroke="black" points="994.5,-221.5 994.5,-240.5 1143.5,-240.5 1143.5,-221.5 994.5,-221.5"/>
<text text-anchor="middle" x="1069" y="-228.5" font-family="Helvetica,sans-Serif" font-size="10.00">XMLParser.getCellParamList</text>
</a>
</g>
</g>
<!-- Node1&#45;&gt;Node3 -->
<g id="edge14" class="edge"><title>Node1&#45;&gt;Node3</title>
<path fill="none" stroke="midnightblue" d="M110.041,-276.47C127.886,-272.893 148.853,-269.172 168,-267 466.759,-233.107 824.449,-229.819 984.005,-230.281"/>
<polygon fill="midnightblue" stroke="midnightblue" points="984.214,-233.782 994.226,-230.317 984.238,-226.782 984.214,-233.782"/>
</g>
<!-- Node4 -->
<g id="node4" class="node"><title>Node4</title>
<g id="a_node4"><a xlink:href="../../d2/d95/class_x_m_l_parser.html#aea9b535964c91fa3c3d2b1c0b6a334c2" target="_top" xlink:title="XMLParser.getInitParamMap">
<polygon fill="white" stroke="black" points="400.5,-440.5 400.5,-459.5 549.5,-459.5 549.5,-440.5 400.5,-440.5"/>
<text text-anchor="middle" x="475" y="-447.5" font-family="Helvetica,sans-Serif" font-size="10.00">XMLParser.getInitParamMap</text>
</a>
</g>
</g>
<!-- Node1&#45;&gt;Node4 -->
<g id="edge15" class="edge"><title>Node1&#45;&gt;Node4</title>
<path fill="none" stroke="midnightblue" d="M68.772,-295.526C75.2397,-327.22 100.812,-429.34 168,-469 208.413,-492.855 338.334,-474.833 415.282,-461.306"/>
<polygon fill="midnightblue" stroke="midnightblue" points="416.084,-464.718 425.314,-459.515 414.854,-457.827 416.084,-464.718"/>
</g>
<!-- Node10 -->
<g id="node10" class="node"><title>Node10</title>
<g id="a_node10"><a xlink:href="../../df/df8/class_cell_society_view.html#a99eb733c00ed7c1bcba8f2d684791a09" target="_top" xlink:title="CellSocietyView.displayFrameRate">
<polygon fill="white" stroke="black" points="172,-402.5 172,-421.5 350,-421.5 350,-402.5 172,-402.5"/>
<text text-anchor="middle" x="261" y="-409.5" font-family="Helvetica,sans-Serif" font-size="10.00">CellSocietyView.displayFrameRate</text>
</a>
</g>
</g>
<!-- Node1&#45;&gt;Node10 -->
<g id="edge11" class="edge"><title>Node1&#45;&gt;Node10</title>
<path fill="none" stroke="midnightblue" d="M72.9799,-295.547C86.8355,-316.801 123.385,-368.106 168,-393 172.144,-395.312 176.534,-397.344 181.061,-399.13"/>
<polygon fill="midnightblue" stroke="midnightblue" points="179.915,-402.437 190.51,-402.46 182.242,-395.835 179.915,-402.437"/>
</g>
<!-- Node11 -->
<g id="node11" class="node"><title>Node11</title>
<g id="a_node11"><a xlink:href="../../df/df8/class_cell_society_view.html#a053b6ef6afa80722445223c4e373e51c" target="_top" xlink:title="CellSocietyView.displayXMLChooser">
<polygon fill="white" stroke="black" points="168.5,-364.5 168.5,-383.5 353.5,-383.5 353.5,-364.5 168.5,-364.5"/>
<text text-anchor="middle" x="261" y="-371.5" font-family="Helvetica,sans-Serif" font-size="10.00">CellSocietyView.displayXMLChooser</text>
</a>
</g>
</g>
<!-- Node1&#45;&gt;Node11 -->
<g id="edge12" class="edge"><title>Node1&#45;&gt;Node11</title>
<path fill="none" stroke="midnightblue" d="M78.2749,-295.731C96.0972,-310.593 132.42,-338.818 168,-354 175.082,-357.022 182.674,-359.609 190.347,-361.819"/>
<polygon fill="midnightblue" stroke="midnightblue" points="189.512,-365.219 200.077,-364.421 191.321,-358.456 189.512,-365.219"/>
</g>
<!-- Node12 -->
<g id="node12" class="node"><title>Node12</title>
<g id="a_node12"><a xlink:href="../../df/df8/class_cell_society_view.html#a930d889b8619ae93731b8542ce285180" target="_top" xlink:title="CellSocietyView.generate\lChartLines">
<polygon fill="white" stroke="black" points="192.5,-315 192.5,-345 329.5,-345 329.5,-315 192.5,-315"/>
<text text-anchor="start" x="200.5" y="-333" font-family="Helvetica,sans-Serif" font-size="10.00">CellSocietyView.generate</text>
<text text-anchor="middle" x="261" y="-322" font-family="Helvetica,sans-Serif" font-size="10.00">ChartLines</text>
</a>
</g>
</g>
<!-- Node1&#45;&gt;Node12 -->
<g id="edge13" class="edge"><title>Node1&#45;&gt;Node12</title>
<path fill="none" stroke="midnightblue" d="M108.878,-295.547C130.802,-300.545 158.334,-306.822 183.871,-312.644"/>
<polygon fill="midnightblue" stroke="midnightblue" points="183.39,-316.124 193.918,-314.935 184.946,-309.299 183.39,-316.124"/>
</g>
<!-- Node13 -->
<g id="node13" class="node"><title>Node13</title>
<g id="a_node13"><a xlink:href="../../df/df8/class_cell_society_view.html#ab0adb0e17b74be4e0192b02e2116e4a1" target="_top" xlink:title="CellSocietyView.openDialogBox">
<polygon fill="white" stroke="black" points="178.5,-276.5 178.5,-295.5 343.5,-295.5 343.5,-276.5 178.5,-276.5"/>
<text text-anchor="middle" x="261" y="-283.5" font-family="Helvetica,sans-Serif" font-size="10.00">CellSocietyView.openDialogBox</text>
</a>
</g>
</g>
<!-- Node1&#45;&gt;Node13 -->
<g id="edge16" class="edge"><title>Node1&#45;&gt;Node13</title>
<path fill="none" stroke="midnightblue" d="M132.072,-286C143.699,-286 156.01,-286 168.22,-286"/>
<polygon fill="midnightblue" stroke="midnightblue" points="168.435,-289.5 178.435,-286 168.435,-282.5 168.435,-289.5"/>
</g>
<!-- Node14 -->
<g id="node14" class="node"><title>Node14</title>
<g id="a_node14"><a xlink:href="../../d2/d95/class_x_m_l_parser.html#a77ee23818c822b69cdf4200eef726a61" target="_top" xlink:title="XMLParser.parseXMLFile">
<polygon fill="white" stroke="black" points="196,-200.5 196,-219.5 326,-219.5 326,-200.5 196,-200.5"/>
<text text-anchor="middle" x="261" y="-207.5" font-family="Helvetica,sans-Serif" font-size="10.00">XMLParser.parseXMLFile</text>
</a>
</g>
</g>
<!-- Node1&#45;&gt;Node14 -->
<g id="edge17" class="edge"><title>Node1&#45;&gt;Node14</title>
<path fill="none" stroke="midnightblue" d="M82.9344,-276.393C102.421,-264.978 136.685,-245.978 168,-234 179.922,-229.44 193.036,-225.445 205.534,-222.09"/>
<polygon fill="midnightblue" stroke="midnightblue" points="206.587,-225.432 215.39,-219.537 204.832,-218.656 206.587,-225.432"/>
</g>
<!-- Node18 -->
<g id="node18" class="node"><title>Node18</title>
<g id="a_node18"><a xlink:href="../../d3/dff/class_cell_society.html#ae565a305ea53e5a37da9816a236b4fbc" target="_top" xlink:title="CellSociety.pauseAnimation">
<polygon fill="white" stroke="black" points="186.5,-159.5 186.5,-178.5 335.5,-178.5 335.5,-159.5 186.5,-159.5"/>
<text text-anchor="middle" x="261" y="-166.5" font-family="Helvetica,sans-Serif" font-size="10.00">CellSociety.pauseAnimation</text>
</a>
</g>
</g>
<!-- Node1&#45;&gt;Node18 -->
<g id="edge21" class="edge"><title>Node1&#45;&gt;Node18</title>
<path fill="none" stroke="midnightblue" d="M74.2006,-276.483C89.3312,-257.189 126.476,-213.403 168,-191 174.91,-187.272 182.449,-184.169 190.139,-181.587"/>
<polygon fill="midnightblue" stroke="midnightblue" points="191.39,-184.865 199.926,-178.589 189.34,-178.172 191.39,-184.865"/>
</g>
<!-- Node20 -->
<g id="node20" class="node"><title>Node20</title>
<g id="a_node20"><a xlink:href="../../d3/dff/class_cell_society.html#abfbf43ce46b4c82c16a2d933b6a11abf" target="_top" xlink:title="CellSociety.retrieveParserInfo">
<polygon fill="white" stroke="black" points="183.5,-440.5 183.5,-459.5 338.5,-459.5 338.5,-440.5 183.5,-440.5"/>
<text text-anchor="middle" x="261" y="-447.5" font-family="Helvetica,sans-Serif" font-size="10.00">CellSociety.retrieveParserInfo</text>
</a>
</g>
</g>
<!-- Node1&#45;&gt;Node20 -->
<g id="edge23" class="edge"><title>Node1&#45;&gt;Node20</title>
<path fill="none" stroke="midnightblue" d="M70.7025,-295.676C81.348,-322.103 114.73,-395.869 168,-431 171.11,-433.051 174.398,-434.888 177.807,-436.531"/>
<polygon fill="midnightblue" stroke="midnightblue" points="176.5,-439.779 187.074,-440.447 179.224,-433.331 176.5,-439.779"/>
</g>
<!-- Node22 -->
<g id="node22" class="node"><title>Node22</title>
<g id="a_node22"><a xlink:href="../../d3/dff/class_cell_society.html#ab9e56a2a70e210e021b51e898508329b" target="_top" xlink:title="CellSociety.setupAnimation">
<polygon fill="white" stroke="black" points="188,-118.5 188,-137.5 334,-137.5 334,-118.5 188,-118.5"/>
<text text-anchor="middle" x="261" y="-125.5" font-family="Helvetica,sans-Serif" font-size="10.00">CellSociety.setupAnimation</text>
</a>
</g>
</g>
<!-- Node1&#45;&gt;Node22 -->
<g id="edge26" class="edge"><title>Node1&#45;&gt;Node22</title>
<path fill="none" stroke="midnightblue" d="M71.2668,-276.282C82.8485,-251.099 117.435,-183.372 168,-150 173.307,-146.497 179.113,-143.551 185.146,-141.073"/>
<polygon fill="midnightblue" stroke="midnightblue" points="186.585,-144.273 194.774,-137.551 184.18,-137.699 186.585,-144.273"/>
</g>
<!-- Node32 -->
<g id="node32" class="node"><title>Node32</title>
<g id="a_node32"><a xlink:href="../../df/df8/class_cell_society_view.html#a7ca77bdfdef97e9be9c9941c2f4d3513" target="_top" xlink:title="CellSocietyView.updateChart\lLines">
<polygon fill="white" stroke="black" points="798.5,-39 798.5,-69 951.5,-69 951.5,-39 798.5,-39"/>
<text text-anchor="start" x="806.5" y="-57" font-family="Helvetica,sans-Serif" font-size="10.00">CellSocietyView.updateChart</text>
<text text-anchor="middle" x="875" y="-46" font-family="Helvetica,sans-Serif" font-size="10.00">Lines</text>
</a>
</g>
</g>
<!-- Node1&#45;&gt;Node32 -->
<g id="edge43" class="edge"><title>Node1&#45;&gt;Node32</title>
<path fill="none" stroke="midnightblue" d="M69.2042,-276.111C76.6985,-245.088 104.352,-149.349 168,-109 193.827,-92.6271 606.062,-68.4769 788.393,-58.5323"/>
<polygon fill="midnightblue" stroke="midnightblue" points="788.688,-62.0215 798.484,-57.9837 788.308,-55.0319 788.688,-62.0215"/>
</g>
<!-- Node33 -->
<g id="node33" class="node"><title>Node33</title>
<g id="a_node33"><a xlink:href="../../df/df8/class_cell_society_view.html#a068f17fd6777087a8debf1f67b576836" target="_top" xlink:title="CellSocietyView.setupInitialGrid">
<polygon fill="white" stroke="black" points="179,-38.5 179,-57.5 343,-57.5 343,-38.5 179,-38.5"/>
<text text-anchor="middle" x="261" y="-45.5" font-family="Helvetica,sans-Serif" font-size="10.00">CellSocietyView.setupInitialGrid</text>
</a>
</g>
</g>
<!-- Node1&#45;&gt;Node33 -->
<g id="edge40" class="edge"><title>Node1&#45;&gt;Node33</title>
<path fill="none" stroke="midnightblue" d="M68.6246,-276.109C74.7536,-242.055 99.7023,-128.657 168,-72 173.002,-67.8503 178.642,-64.4093 184.606,-61.5572"/>
<polygon fill="midnightblue" stroke="midnightblue" points="186.324,-64.6324 194.197,-57.5429 183.621,-58.1751 186.324,-64.6324"/>
</g>
<!-- Node2&#45;&gt;Node3 -->
<g id="edge2" class="edge"><title>Node2&#45;&gt;Node3</title>
<path fill="none" stroke="midnightblue" d="M275.34,-538.646C297.715,-554.162 344.807,-584.035 390,-595 548.08,-633.356 608.215,-662.971 756,-595 918.958,-520.05 1028.65,-313.342 1059.28,-249.818"/>
<polygon fill="midnightblue" stroke="midnightblue" points="1062.54,-251.123 1063.66,-240.588 1056.21,-248.125 1062.54,-251.123"/>
</g>
<!-- Node2&#45;&gt;Node4 -->
<g id="edge3" class="edge"><title>Node2&#45;&gt;Node4</title>
<path fill="none" stroke="midnightblue" d="M309.526,-519.485C324.349,-515.372 340.372,-509.689 354,-502 372.904,-491.334 370.77,-479.065 390,-469 394.521,-466.634 399.328,-464.561 404.267,-462.745"/>
<polygon fill="midnightblue" stroke="midnightblue" points="405.491,-466.027 413.883,-459.561 403.29,-459.382 405.491,-466.027"/>
</g>
<!-- Node5 -->
<g id="node5" class="node"><title>Node5</title>
<g id="a_node5"><a xlink:href="../../d3/dff/class_cell_society.html#a5c0b747b2fbaaa317266890c48e0267f" target="_top" xlink:title="CellSociety.populateLocations">
<polygon fill="white" stroke="black" points="396,-566.5 396,-585.5 554,-585.5 554,-566.5 396,-566.5"/>
<text text-anchor="middle" x="475" y="-573.5" font-family="Helvetica,sans-Serif" font-size="10.00">CellSociety.populateLocations</text>
</a>
</g>
</g>
<!-- Node2&#45;&gt;Node5 -->
<g id="edge4" class="edge"><title>Node2&#45;&gt;Node5</title>
<path fill="none" stroke="midnightblue" d="M304.901,-538.511C338.411,-545.94 385.148,-556.302 420.997,-564.249"/>
<polygon fill="midnightblue" stroke="midnightblue" points="420.279,-567.675 430.799,-566.422 421.794,-560.841 420.279,-567.675"/>
</g>
<!-- Node8 -->
<g id="node8" class="node"><title>Node8</title>
<g id="a_node8"><a xlink:href="../../d3/dff/class_cell_society.html#a276d7f4c12da9d40e8720f762b47592a" target="_top" xlink:title="CellSociety.populateProbabilities">
<polygon fill="white" stroke="black" points="390,-478.5 390,-497.5 560,-497.5 560,-478.5 390,-478.5"/>
<text text-anchor="middle" x="475" y="-485.5" font-family="Helvetica,sans-Serif" font-size="10.00">CellSociety.populateProbabilities</text>
</a>
</g>
</g>
<!-- Node2&#45;&gt;Node8 -->
<g id="edge7" class="edge"><title>Node2&#45;&gt;Node8</title>
<path fill="none" stroke="midnightblue" d="M311.17,-519.491C342.097,-513.509 382.189,-505.756 414.85,-499.439"/>
<polygon fill="midnightblue" stroke="midnightblue" points="415.576,-502.864 424.73,-497.529 414.247,-495.991 415.576,-502.864"/>
</g>
<!-- Node9 -->
<g id="node9" class="node"><title>Node9</title>
<g id="a_node9"><a xlink:href="../../d3/dff/class_cell_society.html#a7ef59819b70a8f07c010bd2bb28b7740" target="_top" xlink:title="CellSociety.populateRemaining\lState">
<polygon fill="white" stroke="black" points="394,-517 394,-547 556,-547 556,-517 394,-517"/>
<text text-anchor="start" x="402" y="-535" font-family="Helvetica,sans-Serif" font-size="10.00">CellSociety.populateRemaining</text>
<text text-anchor="middle" x="475" y="-524" font-family="Helvetica,sans-Serif" font-size="10.00">State</text>
</a>
</g>
</g>
<!-- Node2&#45;&gt;Node9 -->
<g id="edge9" class="edge"><title>Node2&#45;&gt;Node9</title>
<path fill="none" stroke="midnightblue" d="M333.183,-530.007C349.32,-530.236 366.669,-530.481 383.486,-530.719"/>
<polygon fill="midnightblue" stroke="midnightblue" points="383.825,-534.224 393.873,-530.866 383.924,-527.225 383.825,-534.224"/>
</g>
<!-- Node6 -->
<g id="node6" class="node"><title>Node6</title>
<g id="a_node6"><a xlink:href="../../d3/dff/class_cell_society.html#a117f1698760a3f6bbe51bd7af16f79bb" target="_top" xlink:title="CellSociety.createCellInstance">
<polygon fill="white" stroke="black" points="596.5,-522.5 596.5,-541.5 755.5,-541.5 755.5,-522.5 596.5,-522.5"/>
<text text-anchor="middle" x="676" y="-529.5" font-family="Helvetica,sans-Serif" font-size="10.00">CellSociety.createCellInstance</text>
</a>
</g>
</g>
<!-- Node5&#45;&gt;Node6 -->
<g id="edge5" class="edge"><title>Node5&#45;&gt;Node6</title>
<path fill="none" stroke="midnightblue" d="M519.18,-566.453C549.299,-559.793 589.685,-550.864 621.794,-543.764"/>
<polygon fill="midnightblue" stroke="midnightblue" points="622.896,-547.105 631.904,-541.529 621.384,-540.27 622.896,-547.105"/>
</g>
<!-- Node7 -->
<g id="node7" class="node"><title>Node7</title>
<g id="a_node7"><a xlink:href="../../d3/dff/class_cell_society.html#a42451b17e2bca5fd025c8d4ea74310ca" target="_top" xlink:title="CellSociety.stringToIntArray">
<polygon fill="white" stroke="black" points="603.5,-566.5 603.5,-585.5 748.5,-585.5 748.5,-566.5 603.5,-566.5"/>
<text text-anchor="middle" x="676" y="-573.5" font-family="Helvetica,sans-Serif" font-size="10.00">CellSociety.stringToIntArray</text>
</a>
</g>
</g>
<!-- Node5&#45;&gt;Node7 -->
<g id="edge6" class="edge"><title>Node5&#45;&gt;Node7</title>
<path fill="none" stroke="midnightblue" d="M554.079,-576C566.881,-576 580.18,-576 593.072,-576"/>
<polygon fill="midnightblue" stroke="midnightblue" points="593.307,-579.5 603.307,-576 593.307,-572.5 593.307,-579.5"/>
</g>
<!-- Node8&#45;&gt;Node6 -->
<g id="edge8" class="edge"><title>Node8&#45;&gt;Node6</title>
<path fill="none" stroke="midnightblue" d="M519.18,-497.547C549.299,-504.207 589.685,-513.136 621.794,-520.236"/>
<polygon fill="midnightblue" stroke="midnightblue" points="621.384,-523.73 631.904,-522.471 622.896,-516.895 621.384,-523.73"/>
</g>
<!-- Node9&#45;&gt;Node6 -->
<g id="edge10" class="edge"><title>Node9&#45;&gt;Node6</title>
<path fill="none" stroke="midnightblue" d="M556.081,-532C566.044,-532 576.277,-532 586.36,-532"/>
<polygon fill="midnightblue" stroke="midnightblue" points="586.377,-535.5 596.377,-532 586.377,-528.5 586.377,-535.5"/>
</g>
<!-- Node15 -->
<g id="node15" class="node"><title>Node15</title>
<g id="a_node15"><a xlink:href="../../d2/d95/class_x_m_l_parser.html#ae67767f9678fb650ac38b1321ea9f723" target="_top" xlink:title="XMLParser.parseInitialTags">
<polygon fill="white" stroke="black" points="404.5,-202.5 404.5,-221.5 545.5,-221.5 545.5,-202.5 404.5,-202.5"/>
<text text-anchor="middle" x="475" y="-209.5" font-family="Helvetica,sans-Serif" font-size="10.00">XMLParser.parseInitialTags</text>
</a>
</g>
</g>
<!-- Node14&#45;&gt;Node15 -->
<g id="edge18" class="edge"><title>Node14&#45;&gt;Node15</title>
<path fill="none" stroke="midnightblue" d="M326.182,-210.605C347.636,-210.808 371.812,-211.036 394.301,-211.248"/>
<polygon fill="midnightblue" stroke="midnightblue" points="394.467,-214.75 404.5,-211.344 394.533,-207.75 394.467,-214.75"/>
</g>
<!-- Node16 -->
<g id="node16" class="node"><title>Node16</title>
<g id="a_node16"><a xlink:href="../../d2/d95/class_x_m_l_parser.html#a09c6848239104ae94825c045796dddd0" target="_top" xlink:title="XMLParser.makeParamMap">
<polygon fill="white" stroke="black" points="603,-202.5 603,-221.5 749,-221.5 749,-202.5 603,-202.5"/>
<text text-anchor="middle" x="676" y="-209.5" font-family="Helvetica,sans-Serif" font-size="10.00">XMLParser.makeParamMap</text>
</a>
</g>
</g>
<!-- Node15&#45;&gt;Node16 -->
<g id="edge19" class="edge"><title>Node15&#45;&gt;Node16</title>
<path fill="none" stroke="midnightblue" d="M545.601,-212C560.771,-212 576.964,-212 592.578,-212"/>
<polygon fill="midnightblue" stroke="midnightblue" points="592.739,-215.5 602.739,-212 592.739,-208.5 592.739,-215.5"/>
</g>
<!-- Node17 -->
<g id="node17" class="node"><title>Node17</title>
<g id="a_node17"><a xlink:href="../../d2/d95/class_x_m_l_parser.html#a5a419f71699eb7d3d76ee238fb262a5f" target="_top" xlink:title="XMLParser.makeCellParamList">
<polygon fill="white" stroke="black" points="596,-164.5 596,-183.5 756,-183.5 756,-164.5 596,-164.5"/>
<text text-anchor="middle" x="676" y="-171.5" font-family="Helvetica,sans-Serif" font-size="10.00">XMLParser.makeCellParamList</text>
</a>
</g>
</g>
<!-- Node15&#45;&gt;Node17 -->
<g id="edge20" class="edge"><title>Node15&#45;&gt;Node17</title>
<path fill="none" stroke="midnightblue" d="M525.959,-202.46C553.045,-197.288 586.708,-190.86 615.183,-185.422"/>
<polygon fill="midnightblue" stroke="midnightblue" points="615.854,-188.858 625.02,-183.544 614.541,-181.982 615.854,-188.858"/>
</g>
<!-- Node19 -->
<g id="node19" class="node"><title>Node19</title>
<g id="a_node19"><a xlink:href="../../df/df8/class_cell_society_view.html#ae83511f9bf3610b0750d41c4aeb0f778" target="_top" xlink:title="CellSocietyView.setButtons\lPause">
<polygon fill="white" stroke="black" points="402,-153 402,-183 548,-183 548,-153 402,-153"/>
<text text-anchor="start" x="410" y="-171" font-family="Helvetica,sans-Serif" font-size="10.00">CellSocietyView.setButtons</text>
<text text-anchor="middle" x="475" y="-160" font-family="Helvetica,sans-Serif" font-size="10.00">Pause</text>
</a>
</g>
</g>
<!-- Node18&#45;&gt;Node19 -->
<g id="edge22" class="edge"><title>Node18&#45;&gt;Node19</title>
<path fill="none" stroke="midnightblue" d="M335.552,-168.653C353.614,-168.568 373.067,-168.476 391.519,-168.389"/>
<polygon fill="midnightblue" stroke="midnightblue" points="391.669,-171.888 401.652,-168.341 391.635,-164.889 391.669,-171.888"/>
</g>
<!-- Node20&#45;&gt;Node4 -->
<g id="edge24" class="edge"><title>Node20&#45;&gt;Node4</title>
<path fill="none" stroke="midnightblue" d="M338.537,-450C355.234,-450 372.991,-450 389.962,-450"/>
<polygon fill="midnightblue" stroke="midnightblue" points="390.411,-453.5 400.411,-450 390.41,-446.5 390.411,-453.5"/>
</g>
<!-- Node21 -->
<g id="node21" class="node"><title>Node21</title>
<g id="a_node21"><a xlink:href="../../d2/d95/class_x_m_l_parser.html#a0df3a2904766f59d1246cb55416f8146" target="_top" xlink:title="XMLParser.getSimParamMap">
<polygon fill="white" stroke="black" points="398,-402.5 398,-421.5 552,-421.5 552,-402.5 398,-402.5"/>
<text text-anchor="middle" x="475" y="-409.5" font-family="Helvetica,sans-Serif" font-size="10.00">XMLParser.getSimParamMap</text>
</a>
</g>
</g>
<!-- Node20&#45;&gt;Node21 -->
<g id="edge25" class="edge"><title>Node20&#45;&gt;Node21</title>
<path fill="none" stroke="midnightblue" d="M315.223,-440.46C344.205,-435.265 380.253,-428.804 410.673,-423.351"/>
<polygon fill="midnightblue" stroke="midnightblue" points="411.53,-426.753 420.755,-421.544 410.295,-419.863 411.53,-426.753"/>
</g>
<!-- Node23 -->
<g id="node23" class="node"><title>Node23</title>
<g id="a_node23"><a xlink:href="../../d3/dff/class_cell_society.html#abf13a64ee79f2cb063447b499c695c58" target="_top" xlink:title="CellSociety.start">
<polygon fill="white" stroke="black" points="428.5,-114.5 428.5,-133.5 521.5,-133.5 521.5,-114.5 428.5,-114.5"/>
<text text-anchor="middle" x="475" y="-121.5" font-family="Helvetica,sans-Serif" font-size="10.00">CellSociety.start</text>
</a>
</g>
</g>
<!-- Node22&#45;&gt;Node23 -->
<g id="edge27" class="edge"><title>Node22&#45;&gt;Node23</title>
<path fill="none" stroke="midnightblue" d="M334.069,-126.64C361.5,-126.123 392.319,-125.541 418.038,-125.056"/>
<polygon fill="midnightblue" stroke="midnightblue" points="418.424,-128.549 428.356,-124.861 418.292,-121.551 418.424,-128.549"/>
</g>
<!-- Node24 -->
<g id="node24" class="node"><title>Node24</title>
<g id="a_node24"><a xlink:href="../../d3/dff/class_cell_society.html#a0ff19c30a1cc433d8ea8444f6a5617f1" target="_top" xlink:title="CellSociety.updateGrid">
<polygon fill="white" stroke="black" points="614,-120.5 614,-139.5 738,-139.5 738,-120.5 614,-120.5"/>
<text text-anchor="middle" x="676" y="-127.5" font-family="Helvetica,sans-Serif" font-size="10.00">CellSociety.updateGrid</text>
</a>
</g>
</g>
<!-- Node23&#45;&gt;Node24 -->
<g id="edge28" class="edge"><title>Node23&#45;&gt;Node24</title>
<path fill="none" stroke="midnightblue" d="M521.655,-125.377C545.871,-126.107 576.177,-127.02 603.438,-127.842"/>
<polygon fill="midnightblue" stroke="midnightblue" points="603.617,-131.349 613.718,-128.152 603.829,-124.352 603.617,-131.349"/>
</g>
<!-- Node24&#45;&gt;Node3 -->
<g id="edge37" class="edge"><title>Node24&#45;&gt;Node3</title>
<path fill="none" stroke="midnightblue" d="M720.961,-139.616C732.871,-143.343 745.393,-148.358 756,-155 775.718,-167.347 771.307,-182.368 792,-193 851.458,-223.549 927.156,-232.189 984.232,-233.672"/>
<polygon fill="midnightblue" stroke="midnightblue" points="984.238,-237.172 994.304,-233.865 984.373,-230.174 984.238,-237.172"/>
</g>
<!-- Node25 -->
<g id="node25" class="node"><title>Node25</title>
<g id="a_node25"><a xlink:href="../../d3/dff/class_cell_society.html#a64ebaee33d25e0e730024e67d5582c63" target="_top" xlink:title="CellSociety.updateColors">
<polygon fill="white" stroke="black" points="808,-126.5 808,-145.5 942,-145.5 942,-126.5 808,-126.5"/>
<text text-anchor="middle" x="875" y="-133.5" font-family="Helvetica,sans-Serif" font-size="10.00">CellSociety.updateColors</text>
</a>
</g>
</g>
<!-- Node24&#45;&gt;Node25 -->
<g id="edge29" class="edge"><title>Node24&#45;&gt;Node25</title>
<path fill="none" stroke="midnightblue" d="M738.252,-131.866C757.104,-132.44 778.091,-133.079 797.817,-133.68"/>
<polygon fill="midnightblue" stroke="midnightblue" points="797.898,-137.184 807.999,-133.99 798.111,-130.187 797.898,-137.184"/>
</g>
<!-- Node28 -->
<g id="node28" class="node"><title>Node28</title>
<g id="a_node28"><a xlink:href="../../d8/d87/class_controller.html#aa8f10b5f28542d34053a7e4d5f1d6013" target="_top" xlink:title="Controller.runOneSim">
<polygon fill="white" stroke="black" points="815.5,-164.5 815.5,-183.5 934.5,-183.5 934.5,-164.5 815.5,-164.5"/>
<text text-anchor="middle" x="875" y="-171.5" font-family="Helvetica,sans-Serif" font-size="10.00">Controller.runOneSim</text>
</a>
</g>
</g>
<!-- Node24&#45;&gt;Node28 -->
<g id="edge33" class="edge"><title>Node24&#45;&gt;Node28</title>
<path fill="none" stroke="midnightblue" d="M719.746,-139.547C749.563,-146.207 789.542,-155.136 821.328,-162.236"/>
<polygon fill="midnightblue" stroke="midnightblue" points="820.815,-165.707 831.337,-164.471 822.341,-158.876 820.815,-165.707"/>
</g>
<!-- Node29 -->
<g id="node29" class="node"><title>Node29</title>
<g id="a_node29"><a xlink:href="../../df/df8/class_cell_society_view.html#a43ac2666d3a002024be53fe74028a576" target="_top" xlink:title="CellSocietyView.updateSimGrid">
<polygon fill="white" stroke="black" points="792.5,-88.5 792.5,-107.5 957.5,-107.5 957.5,-88.5 792.5,-88.5"/>
<text text-anchor="middle" x="875" y="-95.5" font-family="Helvetica,sans-Serif" font-size="10.00">CellSocietyView.updateSimGrid</text>
</a>
</g>
</g>
<!-- Node24&#45;&gt;Node29 -->
<g id="edge34" class="edge"><title>Node24&#45;&gt;Node29</title>
<path fill="none" stroke="midnightblue" d="M735.573,-120.486C757.506,-116.923 782.619,-112.844 805.38,-109.146"/>
<polygon fill="midnightblue" stroke="midnightblue" points="806.003,-112.591 815.312,-107.533 804.881,-105.682 806.003,-112.591"/>
</g>
<!-- Node24&#45;&gt;Node32 -->
<g id="edge38" class="edge"><title>Node24&#45;&gt;Node32</title>
<path fill="none" stroke="midnightblue" d="M705.628,-120.418C720.843,-115.005 739.716,-107.776 756,-100 772.715,-92.0182 775.027,-86.4175 792,-79 797.329,-76.671 802.942,-74.4705 808.628,-72.4136"/>
<polygon fill="midnightblue" stroke="midnightblue" points="809.924,-75.6688 818.229,-69.09 807.634,-69.054 809.924,-75.6688"/>
</g>
<!-- Node25&#45;&gt;Node3 -->
<g id="edge31" class="edge"><title>Node25&#45;&gt;Node3</title>
<path fill="none" stroke="midnightblue" d="M930.317,-145.535C939.75,-148.046 949.312,-151.16 958,-155 993.081,-170.504 1028.7,-197.656 1049.55,-214.96"/>
<polygon fill="midnightblue" stroke="midnightblue" points="1047.39,-217.716 1057.29,-221.496 1051.91,-212.369 1047.39,-217.716"/>
</g>
<!-- Node26 -->
<g id="node26" class="node"><title>Node26</title>
<g id="a_node26"><a xlink:href="../../dd/d11/class_cell.html#a7f8d2520a26a1376a44372149e561f6b" target="_top" xlink:title="Cell.toString">
<polygon fill="white" stroke="black" points="1031.5,-47.5 1031.5,-66.5 1106.5,-66.5 1106.5,-47.5 1031.5,-47.5"/>
<text text-anchor="middle" x="1069" y="-54.5" font-family="Helvetica,sans-Serif" font-size="10.00">Cell.toString</text>
</a>
</g>
</g>
<!-- Node25&#45;&gt;Node26 -->
<g id="edge30" class="edge"><title>Node25&#45;&gt;Node26</title>
<path fill="none" stroke="midnightblue" d="M936.233,-126.366C943.826,-123.918 951.279,-120.849 958,-117 978.189,-105.439 974.175,-91.1739 994,-79 1002.39,-73.8467 1012.06,-69.8392 1021.59,-66.7444"/>
<polygon fill="midnightblue" stroke="midnightblue" points="1022.8,-70.0343 1031.4,-63.8398 1020.82,-63.3222 1022.8,-70.0343"/>
</g>
<!-- Node27 -->
<g id="node27" class="node"><title>Node27</title>
<g id="a_node27"><a xlink:href="../../dd/d11/class_cell.html#a03cf6177b031a2270a723aa5977b812e" target="_top" xlink:title="Cell.setColor">
<polygon fill="white" stroke="black" points="1030.5,-126.5 1030.5,-145.5 1107.5,-145.5 1107.5,-126.5 1030.5,-126.5"/>
<text text-anchor="middle" x="1069" y="-133.5" font-family="Helvetica,sans-Serif" font-size="10.00">Cell.setColor</text>
</a>
</g>
</g>
<!-- Node25&#45;&gt;Node27 -->
<g id="edge32" class="edge"><title>Node25&#45;&gt;Node27</title>
<path fill="none" stroke="midnightblue" d="M942.076,-136C967.777,-136 996.658,-136 1020.27,-136"/>
<polygon fill="midnightblue" stroke="midnightblue" points="1020.38,-139.5 1030.38,-136 1020.38,-132.5 1020.38,-139.5"/>
</g>
<!-- Node30 -->
<g id="node30" class="node"><title>Node30</title>
<g id="a_node30"><a xlink:href="../../d8/ddc/class_abstract_grid.html#a7199d87b68fce950300e23297a0ff44b" target="_top" xlink:title="AbstractGrid.update">
<polygon fill="white" stroke="black" points="1012.5,-88.5 1012.5,-107.5 1125.5,-107.5 1125.5,-88.5 1012.5,-88.5"/>
<text text-anchor="middle" x="1069" y="-95.5" font-family="Helvetica,sans-Serif" font-size="10.00">AbstractGrid.update</text>
</a>
</g>
</g>
<!-- Node29&#45;&gt;Node30 -->
<g id="edge35" class="edge"><title>Node29&#45;&gt;Node30</title>
<path fill="none" stroke="midnightblue" d="M957.704,-98C972.569,-98 987.903,-98 1002.24,-98"/>
<polygon fill="midnightblue" stroke="midnightblue" points="1002.47,-101.5 1012.47,-98 1002.47,-94.5001 1002.47,-101.5"/>
</g>
<!-- Node31 -->
<g id="node31" class="node"><title>Node31</title>
<g id="a_node31"><a xlink:href="../../d8/ddc/class_abstract_grid.html#a2b7c26a0ddce10dd7644a8e4d5bf8453" target="_top" xlink:title="AbstractGrid.displayGrid">
<polygon fill="white" stroke="black" points="1180,-88.5 1180,-107.5 1312,-107.5 1312,-88.5 1180,-88.5"/>
<text text-anchor="middle" x="1246" y="-95.5" font-family="Helvetica,sans-Serif" font-size="10.00">AbstractGrid.displayGrid</text>
</a>
</g>
</g>
<!-- Node30&#45;&gt;Node31 -->
<g id="edge36" class="edge"><title>Node30&#45;&gt;Node31</title>
<path fill="none" stroke="midnightblue" d="M1125.85,-98C1139.83,-98 1155.06,-98 1169.8,-98"/>
<polygon fill="midnightblue" stroke="midnightblue" points="1169.92,-101.5 1179.92,-98 1169.92,-94.5001 1169.92,-101.5"/>
</g>
<!-- Node32&#45;&gt;Node26 -->
<g id="edge39" class="edge"><title>Node32&#45;&gt;Node26</title>
<path fill="none" stroke="midnightblue" d="M951.608,-55.1814C975.038,-55.5475 1000.17,-55.9401 1021.06,-56.2665"/>
<polygon fill="midnightblue" stroke="midnightblue" points="1021.2,-59.7691 1031.26,-56.4259 1021.31,-52.77 1021.2,-59.7691"/>
</g>
<!-- Node34 -->
<g id="node34" class="node"><title>Node34</title>
<g id="a_node34"><a xlink:href="../../d8/ddc/class_abstract_grid.html#a47b90d7ce407289123405378af0dd8cb" target="_top" xlink:title="AbstractGrid.getGrid">
<polygon fill="white" stroke="black" points="417.5,-38.5 417.5,-57.5 532.5,-57.5 532.5,-38.5 417.5,-38.5"/>
<text text-anchor="middle" x="475" y="-45.5" font-family="Helvetica,sans-Serif" font-size="10.00">AbstractGrid.getGrid</text>
</a>
</g>
</g>
<!-- Node33&#45;&gt;Node34 -->
<g id="edge41" class="edge"><title>Node33&#45;&gt;Node34</title>
<path fill="none" stroke="midnightblue" d="M343.056,-48C364.255,-48 386.866,-48 407.228,-48"/>
<polygon fill="midnightblue" stroke="midnightblue" points="407.338,-51.5001 417.338,-48 407.338,-44.5001 407.338,-51.5001"/>
</g>
<!-- Node35 -->
<g id="node35" class="node"><title>Node35</title>
<g id="a_node35"><a xlink:href="../../d4/d92/class_grid_factory.html#a9bc3ce970ef2787f2474ae7bd6f79d83" target="_top" xlink:title="GridFactory.createGrid">
<polygon fill="white" stroke="black" points="414,-0.5 414,-19.5 536,-19.5 536,-0.5 414,-0.5"/>
<text text-anchor="middle" x="475" y="-7.5" font-family="Helvetica,sans-Serif" font-size="10.00">GridFactory.createGrid</text>
</a>
</g>
</g>
<!-- Node33&#45;&gt;Node35 -->
<g id="edge42" class="edge"><title>Node33&#45;&gt;Node35</title>
<path fill="none" stroke="midnightblue" d="M315.223,-38.46C344.205,-33.2652 380.253,-26.8037 410.673,-21.3511"/>
<polygon fill="midnightblue" stroke="midnightblue" points="411.53,-24.7534 420.755,-19.5439 410.295,-17.8632 411.53,-24.7534"/>
</g>
</g>
</svg>
        <g id="navigator" transform="translate(0 0)" fill="#404254">
                <rect fill="#f2f5e9" fill-opacity="0.5" stroke="#606060" stroke-width=".5" x="0" y="0" width="60" height="60"/>
                <use id="zoomplus" xlink:href="#zoomPlus" x="17" y="9" onmousedown="handleZoom(evt,'in')"/>
                <use id="zoomminus" xlink:href="#zoomMin" x="42" y="9" onmousedown="handleZoom(evt,'out')"/>
                <use id="reset" xlink:href="#resetDef" x="30" y="36" onmousedown="handleReset()"/>
                <g id="arrowUp" xlink:href="#dirArrow" transform="translate(30 24)" onmousedown="handlePan(0,-1)">
                  <use xlink:href="#rim" fill="#404040">
                        <set attributeName="fill" to="#808080" begin="arrowUp.mouseover" end="arrowUp.mouseout"/>
                  </use>
                  <path fill="none" stroke="white" stroke-width="1.5" d="M0,-3.0v7 M-2.5,-0.5L0,-3.0L2.5,-0.5"/>
                </g>
                <g id="arrowRight" xlink:href="#dirArrow" transform="rotate(90) translate(36 -43)" onmousedown="handlePan(1,0)">
                  <use xlink:href="#rim" fill="#404040">
                        <set attributeName="fill" to="#808080" begin="arrowRight.mouseover" end="arrowRight.mouseout"/>
                  </use>
                  <path fill="none" stroke="white" stroke-width="1.5" d="M0,-3.0v7 M-2.5,-0.5L0,-3.0L2.5,-0.5"/>
                </g>
                <g id="arrowDown" xlink:href="#dirArrow" transform="rotate(180) translate(-30 -48)" onmousedown="handlePan(0,1)">
                  <use xlink:href="#rim" fill="#404040">
                        <set attributeName="fill" to="#808080" begin="arrowDown.mouseover" end="arrowDown.mouseout"/>
                  </use>
                  <path fill="none" stroke="white" stroke-width="1.5" d="M0,-3.0v7 M-2.5,-0.5L0,-3.0L2.5,-0.5"/>
                </g>
                <g id="arrowLeft" xlink:href="#dirArrow" transform="rotate(270) translate(-36 17)" onmousedown="handlePan(-1,0)">
                  <use xlink:href="#rim" fill="#404040">
                        <set attributeName="fill" to="#808080" begin="arrowLeft.mouseover" end="arrowLeft.mouseout"/>
                  </use>
                  <path fill="none" stroke="white" stroke-width="1.5" d="M0,-3.0v7 M-2.5,-0.5L0,-3.0L2.5,-0.5"/>
                </g>
        </g>
        <svg viewBox="0 0 15 15" width="100%" height="30px" preserveAspectRatio="xMaxYMin meet">
         <g id="arrow_out" transform="scale(0.3 0.3)">
          <a xlink:href="class_cell_society_af9f22af39a97a58b26126020ca6c8844_cgraph_org.svg" target="_base">
           <rect id="button" ry="5" rx="5" y="6" x="6" height="38" width="38"
                fill="#f2f5e9" fill-opacity="0.5" stroke="#606060" stroke-width="1.0"/>
           <path id="arrow"
             d="M 11.500037,31.436501 C 11.940474,20.09759 22.043105,11.32322 32.158766,21.979434 L 37.068811,17.246167 C 37.068811,17.246167 37.088388,32 37.088388,32 L 22.160133,31.978069 C 22.160133,31.978069 26.997745,27.140456 26.997745,27.140456 C 18.528582,18.264221 13.291696,25.230495 11.500037,31.436501 z"
             style="fill:#404040;"/>
          </a>
         </g>
        </svg>
</svg>
