<?xml version="1.0" encoding="UTF-8" standalone="no"?>
<!DOCTYPE svg PUBLIC "-//W3C//DTD SVG 1.1//EN"
 "http://www.w3.org/Graphics/SVG/1.1/DTD/svg11.dtd">
<!-- Generated by graphviz version 2.36.0 (20140111.2315)
 -->
<!-- Title: CellSociety.setupAnimation Pages: 1 -->
<svg width="832pt" height="230pt"
 viewBox="0.00 0.00 832.00 230.00" xmlns="http://www.w3.org/2000/svg" xmlns:xlink="http://www.w3.org/1999/xlink">
<g id="graph0" class="graph" transform="scale(1 1) rotate(0) translate(4 226)">
<title>CellSociety.setupAnimation</title>
<polygon fill="white" stroke="none" points="-4,4 -4,-226 828,-226 828,4 -4,4"/>
<!-- Node1 -->
<g id="node1" class="node"><title>Node1</title>
<polygon fill="#bfbfbf" stroke="black" points="0,-68.5 0,-87.5 146,-87.5 146,-68.5 0,-68.5"/>
<text text-anchor="middle" x="73" y="-75.5" font-family="Helvetica,sans-Serif" font-size="10.00">CellSociety.setupAnimation</text>
</g>
<!-- Node2 -->
<g id="node2" class="node"><title>Node2</title>
<g id="a_node2"><a xlink:href="../../d3/dff/class_cell_society.html#abf13a64ee79f2cb063447b499c695c58" target="_top" xlink:title="CellSociety.start">
<polygon fill="white" stroke="black" points="182.5,-68.5 182.5,-87.5 275.5,-87.5 275.5,-68.5 182.5,-68.5"/>
<text text-anchor="middle" x="229" y="-75.5" font-family="Helvetica,sans-Serif" font-size="10.00">CellSociety.start</text>
</a>
</g>
</g>
<!-- Node1&#45;&gt;Node2 -->
<g id="edge1" class="edge"><title>Node1&#45;&gt;Node2</title>
<path fill="none" stroke="midnightblue" d="M146.04,-78C154.833,-78 163.713,-78 172.218,-78"/>
<polygon fill="midnightblue" stroke="midnightblue" points="172.376,-81.5001 182.376,-78 172.376,-74.5001 172.376,-81.5001"/>
</g>
<!-- Node3 -->
<g id="node3" class="node"><title>Node3</title>
<g id="a_node3"><a xlink:href="../../d3/dff/class_cell_society.html#a0ff19c30a1cc433d8ea8444f6a5617f1" target="_top" xlink:title="CellSociety.updateGrid">
<polygon fill="white" stroke="black" points="312,-68.5 312,-87.5 436,-87.5 436,-68.5 312,-68.5"/>
<text text-anchor="middle" x="374" y="-75.5" font-family="Helvetica,sans-Serif" font-size="10.00">CellSociety.updateGrid</text>
</a>
</g>
</g>
<!-- Node2&#45;&gt;Node3 -->
<g id="edge2" class="edge"><title>Node2&#45;&gt;Node3</title>
<path fill="none" stroke="midnightblue" d="M275.639,-78C284.013,-78 292.934,-78 301.847,-78"/>
<polygon fill="midnightblue" stroke="midnightblue" points="301.878,-81.5001 311.878,-78 301.878,-74.5001 301.878,-81.5001"/>
</g>
<!-- Node4 -->
<g id="node4" class="node"><title>Node4</title>
<g id="a_node4"><a xlink:href="../../d6/d6e/class_sim_controller.html#a10145cee2eaceb4ecad9396a825051d1" target="_top" xlink:title="SimController.runOneSim">
<polygon fill="white" stroke="black" points="486,-147.5 486,-166.5 624,-166.5 624,-147.5 486,-147.5"/>
<text text-anchor="middle" x="555" y="-154.5" font-family="Helvetica,sans-Serif" font-size="10.00">SimController.runOneSim</text>
</a>
</g>
</g>
<!-- Node3&#45;&gt;Node4 -->
<g id="edge3" class="edge"><title>Node3&#45;&gt;Node4</title>
<path fill="none" stroke="midnightblue" d="M396.592,-87.5292C428.04,-101.409 486.623,-127.264 522.772,-143.218"/>
<polygon fill="midnightblue" stroke="midnightblue" points="521.77,-146.601 532.332,-147.437 524.596,-140.197 521.77,-146.601"/>
</g>
<!-- Node8 -->
<g id="node8" class="node"><title>Node8</title>
<g id="a_node8"><a xlink:href="../../df/df8/class_cell_society_view.html#a43ac2666d3a002024be53fe74028a576" target="_top" xlink:title="CellSocietyView.updateSimGrid">
<polygon fill="white" stroke="black" points="472.5,-87.5 472.5,-106.5 637.5,-106.5 637.5,-87.5 472.5,-87.5"/>
<text text-anchor="middle" x="555" y="-94.5" font-family="Helvetica,sans-Serif" font-size="10.00">CellSocietyView.updateSimGrid</text>
</a>
</g>
</g>
<!-- Node3&#45;&gt;Node8 -->
<g id="edge7" class="edge"><title>Node3&#45;&gt;Node8</title>
<path fill="none" stroke="midnightblue" d="M436.101,-84.4856C444.563,-85.3838 453.404,-86.3222 462.273,-87.2636"/>
<polygon fill="midnightblue" stroke="midnightblue" points="461.967,-90.7507 472.281,-88.3259 462.706,-83.7898 461.967,-90.7507"/>
</g>
<!-- Node10 -->
<g id="node10" class="node"><title>Node10</title>
<g id="a_node10"><a xlink:href="../../d2/d95/class_x_m_l_parser.html#ac4e3257aed1deb9fe950149f706fce5b" target="_top" xlink:title="XMLParser.getCellParamList">
<polygon fill="white" stroke="black" points="480.5,-49.5 480.5,-68.5 629.5,-68.5 629.5,-49.5 480.5,-49.5"/>
<text text-anchor="middle" x="555" y="-56.5" font-family="Helvetica,sans-Serif" font-size="10.00">XMLParser.getCellParamList</text>
</a>
</g>
</g>
<!-- Node3&#45;&gt;Node10 -->
<g id="edge9" class="edge"><title>Node3&#45;&gt;Node10</title>
<path fill="none" stroke="midnightblue" d="M436.101,-71.5144C447.146,-70.342 458.835,-69.1013 470.392,-67.8746"/>
<polygon fill="midnightblue" stroke="midnightblue" points="470.92,-71.3383 480.495,-66.8022 470.181,-64.3774 470.92,-71.3383"/>
</g>
<!-- Node11 -->
<g id="node11" class="node"><title>Node11</title>
<g id="a_node11"><a xlink:href="../../df/df8/class_cell_society_view.html#a7ca77bdfdef97e9be9c9941c2f4d3513" target="_top" xlink:title="CellSocietyView.updateChart\lLines">
<polygon fill="white" stroke="black" points="478.5,-0 478.5,-30 631.5,-30 631.5,-0 478.5,-0"/>
<text text-anchor="start" x="486.5" y="-18" font-family="Helvetica,sans-Serif" font-size="10.00">CellSocietyView.updateChart</text>
<text text-anchor="middle" x="555" y="-7" font-family="Helvetica,sans-Serif" font-size="10.00">Lines</text>
</a>
</g>
</g>
<!-- Node3&#45;&gt;Node11 -->
<g id="edge10" class="edge"><title>Node3&#45;&gt;Node11</title>
<path fill="none" stroke="midnightblue" d="M397.939,-68.4332C417.477,-60.4252 446.375,-48.9104 472,-40 478.517,-37.7339 485.363,-35.4686 492.204,-33.2783"/>
<polygon fill="midnightblue" stroke="midnightblue" points="493.702,-36.4762 502.187,-30.1314 491.597,-29.8 493.702,-36.4762"/>
</g>
<!-- Node5 -->
<g id="node5" class="node"><title>Node5</title>
<g id="a_node5"><a xlink:href="../../dd/ddd/class_neighbor.html#ac769186595af20512a2ec4754db75640" target="_top" xlink:title="Neighbor.getNeighbors">
<polygon fill="white" stroke="black" points="685.5,-202.5 685.5,-221.5 812.5,-221.5 812.5,-202.5 685.5,-202.5"/>
<text text-anchor="middle" x="749" y="-209.5" font-family="Helvetica,sans-Serif" font-size="10.00">Neighbor.getNeighbors</text>
</a>
</g>
</g>
<!-- Node4&#45;&gt;Node5 -->
<g id="edge4" class="edge"><title>Node4&#45;&gt;Node5</title>
<path fill="none" stroke="midnightblue" d="M587.492,-166.568C611.227,-173.724 644.601,-183.669 674,-192 683.027,-194.558 692.694,-197.224 701.964,-199.744"/>
<polygon fill="midnightblue" stroke="midnightblue" points="701.251,-203.177 711.818,-202.41 703.079,-196.42 701.251,-203.177"/>
</g>
<!-- Node6 -->
<g id="node6" class="node"><title>Node6</title>
<g id="a_node6"><a xlink:href="../../d6/d6e/class_sim_controller.html#a1538c5c647988e5d5b6602c8eb1b8949" target="_top" xlink:title="SimController.getNeighbors\lState">
<polygon fill="white" stroke="black" points="674.5,-153 674.5,-183 823.5,-183 823.5,-153 674.5,-153"/>
<text text-anchor="start" x="682.5" y="-171" font-family="Helvetica,sans-Serif" font-size="10.00">SimController.getNeighbors</text>
<text text-anchor="middle" x="749" y="-160" font-family="Helvetica,sans-Serif" font-size="10.00">State</text>
</a>
</g>
</g>
<!-- Node4&#45;&gt;Node6 -->
<g id="edge5" class="edge"><title>Node4&#45;&gt;Node6</title>
<path fill="none" stroke="midnightblue" d="M624.233,-160.909C637.202,-161.652 650.912,-162.438 664.297,-163.205"/>
<polygon fill="midnightblue" stroke="midnightblue" points="664.268,-166.709 674.452,-163.786 664.669,-159.72 664.268,-166.709"/>
</g>
<!-- Node7 -->
<g id="node7" class="node"><title>Node7</title>
<g id="a_node7"><a xlink:href="../../d6/d6e/class_sim_controller.html#a6b7a166a6fd312895c8356d24de980e3" target="_top" xlink:title="SimController.newState">
<polygon fill="white" stroke="black" points="684.5,-114.5 684.5,-133.5 813.5,-133.5 813.5,-114.5 684.5,-114.5"/>
<text text-anchor="middle" x="749" y="-121.5" font-family="Helvetica,sans-Serif" font-size="10.00">SimController.newState</text>
</a>
</g>
</g>
<!-- Node4&#45;&gt;Node7 -->
<g id="edge6" class="edge"><title>Node4&#45;&gt;Node7</title>
<path fill="none" stroke="midnightblue" d="M611.277,-147.499C633.472,-143.684 659.233,-139.257 682.369,-135.28"/>
<polygon fill="midnightblue" stroke="midnightblue" points="683.186,-138.691 692.449,-133.548 682,-131.792 683.186,-138.691"/>
</g>
<!-- Node9 -->
<g id="node9" class="node"><title>Node9</title>
<g id="a_node9"><a xlink:href="../../dd/d11/class_cell.html#a1e0ece61fecc69a9b7986d17d925434a" target="_top" xlink:title="Cell.getShape">
<polygon fill="white" stroke="black" points="707.5,-76.5 707.5,-95.5 790.5,-95.5 790.5,-76.5 707.5,-76.5"/>
<text text-anchor="middle" x="749" y="-83.5" font-family="Helvetica,sans-Serif" font-size="10.00">Cell.getShape</text>
</a>
</g>
</g>
<!-- Node8&#45;&gt;Node9 -->
<g id="edge8" class="edge"><title>Node8&#45;&gt;Node9</title>
<path fill="none" stroke="midnightblue" d="M637.704,-92.3191C657.933,-91.1601 679.029,-89.9514 697.29,-88.9053"/>
<polygon fill="midnightblue" stroke="midnightblue" points="697.618,-92.3923 707.401,-88.326 697.217,-85.4038 697.618,-92.3923"/>
</g>
</g>
</svg>
