<?xml version="1.0" encoding="UTF-8" standalone="no"?>
<!DOCTYPE svg PUBLIC "-//W3C//DTD SVG 1.1//EN"
 "http://www.w3.org/Graphics/SVG/1.1/DTD/svg11.dtd">
<!-- Generated by graphviz version 2.36.0 (20140111.2315)
 -->
<!-- Title: CellSociety.start Pages: 1 -->
<svg width="650pt" height="192pt"
 viewBox="0.00 0.00 650.00 192.00" xmlns="http://www.w3.org/2000/svg" xmlns:xlink="http://www.w3.org/1999/xlink">
<g id="graph0" class="graph" transform="scale(1 1) rotate(0) translate(4 188)">
<title>CellSociety.start</title>
<polygon fill="white" stroke="none" points="-4,4 -4,-188 646,-188 646,4 -4,4"/>
<!-- Node1 -->
<g id="node1" class="node"><title>Node1</title>
<polygon fill="#bfbfbf" stroke="black" points="0.5,-76.5 0.5,-95.5 93.5,-95.5 93.5,-76.5 0.5,-76.5"/>
<text text-anchor="middle" x="47" y="-83.5" font-family="Helvetica,sans-Serif" font-size="10.00">CellSociety.start</text>
</g>
<!-- Node2 -->
<g id="node2" class="node"><title>Node2</title>
<g id="a_node2"><a xlink:href="../../d3/dff/class_cell_society.html#a0ff19c30a1cc433d8ea8444f6a5617f1" target="_top" xlink:title="CellSociety.updateGrid">
<polygon fill="white" stroke="black" points="130,-76.5 130,-95.5 254,-95.5 254,-76.5 130,-76.5"/>
<text text-anchor="middle" x="192" y="-83.5" font-family="Helvetica,sans-Serif" font-size="10.00">CellSociety.updateGrid</text>
</a>
</g>
</g>
<!-- Node1&#45;&gt;Node2 -->
<g id="edge1" class="edge"><title>Node1&#45;&gt;Node2</title>
<path fill="none" stroke="midnightblue" d="M93.6393,-86C102.013,-86 110.934,-86 119.847,-86"/>
<polygon fill="midnightblue" stroke="midnightblue" points="119.878,-89.5001 129.878,-86 119.878,-82.5001 119.878,-89.5001"/>
</g>
<!-- Node3 -->
<g id="node3" class="node"><title>Node3</title>
<g id="a_node3"><a xlink:href="../../d8/d87/class_controller.html#aa8f10b5f28542d34053a7e4d5f1d6013" target="_top" xlink:title="Controller.runOneSim">
<polygon fill="white" stroke="black" points="313.5,-164.5 313.5,-183.5 432.5,-183.5 432.5,-164.5 313.5,-164.5"/>
<text text-anchor="middle" x="373" y="-171.5" font-family="Helvetica,sans-Serif" font-size="10.00">Controller.runOneSim</text>
</a>
</g>
</g>
<!-- Node2&#45;&gt;Node3 -->
<g id="edge2" class="edge"><title>Node2&#45;&gt;Node3</title>
<path fill="none" stroke="midnightblue" d="M203.801,-95.6464C220.881,-110.395 255.717,-138.471 290,-154 296.515,-156.951 303.527,-159.504 310.61,-161.704"/>
<polygon fill="midnightblue" stroke="midnightblue" points="309.693,-165.082 320.271,-164.487 311.631,-158.355 309.693,-165.082"/>
</g>
<!-- Node4 -->
<g id="node4" class="node"><title>Node4</title>
<g id="a_node4"><a xlink:href="../../d3/dff/class_cell_society.html#a64ebaee33d25e0e730024e67d5582c63" target="_top" xlink:title="CellSociety.updateColors">
<polygon fill="white" stroke="black" points="306,-76.5 306,-95.5 440,-95.5 440,-76.5 306,-76.5"/>
<text text-anchor="middle" x="373" y="-83.5" font-family="Helvetica,sans-Serif" font-size="10.00">CellSociety.updateColors</text>
</a>
</g>
</g>
<!-- Node2&#45;&gt;Node4 -->
<g id="edge3" class="edge"><title>Node2&#45;&gt;Node4</title>
<path fill="none" stroke="midnightblue" d="M254.101,-86C267.548,-86 281.95,-86 295.906,-86"/>
<polygon fill="midnightblue" stroke="midnightblue" points="295.97,-89.5001 305.97,-86 295.97,-82.5001 295.97,-89.5001"/>
</g>
<!-- Node6 -->
<g id="node6" class="node"><title>Node6</title>
<g id="a_node6"><a xlink:href="../../d2/d95/class_x_m_l_parser.html#ac4e3257aed1deb9fe950149f706fce5b" target="_top" xlink:title="XMLParser.getCellParamList">
<polygon fill="white" stroke="black" points="492.5,-49.5 492.5,-68.5 641.5,-68.5 641.5,-49.5 492.5,-49.5"/>
<text text-anchor="middle" x="567" y="-56.5" font-family="Helvetica,sans-Serif" font-size="10.00">XMLParser.getCellParamList</text>
</a>
</g>
</g>
<!-- Node2&#45;&gt;Node6 -->
<g id="edge8" class="edge"><title>Node2&#45;&gt;Node6</title>
<path fill="none" stroke="midnightblue" d="M233.831,-76.4536C251.066,-72.8283 271.411,-69.0757 290,-67 354.247,-59.826 427.395,-57.9903 482.239,-57.8594"/>
<polygon fill="midnightblue" stroke="midnightblue" points="482.262,-61.3595 492.26,-57.8539 482.258,-54.3595 482.262,-61.3595"/>
</g>
<!-- Node7 -->
<g id="node7" class="node"><title>Node7</title>
<g id="a_node7"><a xlink:href="../../df/df8/class_cell_society_view.html#a43ac2666d3a002024be53fe74028a576" target="_top" xlink:title="CellSocietyView.updateSimGrid">
<polygon fill="white" stroke="black" points="290.5,-0.5 290.5,-19.5 455.5,-19.5 455.5,-0.5 290.5,-0.5"/>
<text text-anchor="middle" x="373" y="-7.5" font-family="Helvetica,sans-Serif" font-size="10.00">CellSocietyView.updateSimGrid</text>
</a>
</g>
</g>
<!-- Node2&#45;&gt;Node7 -->
<g id="edge6" class="edge"><title>Node2&#45;&gt;Node7</title>
<path fill="none" stroke="midnightblue" d="M208.639,-76.3022C227.413,-64.9742 260.114,-46.2295 290,-34 300.724,-29.6116 312.539,-25.6667 323.78,-22.3032"/>
<polygon fill="midnightblue" stroke="midnightblue" points="324.835,-25.6415 333.469,-19.5006 322.89,-18.9172 324.835,-25.6415"/>
</g>
<!-- Node9 -->
<g id="node9" class="node"><title>Node9</title>
<g id="a_node9"><a xlink:href="../../df/df8/class_cell_society_view.html#a7ca77bdfdef97e9be9c9941c2f4d3513" target="_top" xlink:title="CellSocietyView.updateChart\lLines">
<polygon fill="white" stroke="black" points="296.5,-115 296.5,-145 449.5,-145 449.5,-115 296.5,-115"/>
<text text-anchor="start" x="304.5" y="-133" font-family="Helvetica,sans-Serif" font-size="10.00">CellSocietyView.updateChart</text>
<text text-anchor="middle" x="373" y="-122" font-family="Helvetica,sans-Serif" font-size="10.00">Lines</text>
</a>
</g>
</g>
<!-- Node2&#45;&gt;Node9 -->
<g id="edge9" class="edge"><title>Node2&#45;&gt;Node9</title>
<path fill="none" stroke="midnightblue" d="M231.84,-95.5473C251.994,-100.501 277.257,-106.711 300.764,-112.49"/>
<polygon fill="midnightblue" stroke="midnightblue" points="300.165,-115.946 310.711,-114.935 301.836,-109.149 300.165,-115.946"/>
</g>
<!-- Node5 -->
<g id="node5" class="node"><title>Node5</title>
<g id="a_node5"><a xlink:href="../../dd/d11/class_cell.html#a7f8d2520a26a1376a44372149e561f6b" target="_top" xlink:title="Cell.toString">
<polygon fill="white" stroke="black" points="529.5,-109.5 529.5,-128.5 604.5,-128.5 604.5,-109.5 529.5,-109.5"/>
<text text-anchor="middle" x="567" y="-116.5" font-family="Helvetica,sans-Serif" font-size="10.00">Cell.toString</text>
</a>
</g>
</g>
<!-- Node4&#45;&gt;Node5 -->
<g id="edge4" class="edge"><title>Node4&#45;&gt;Node5</title>
<path fill="none" stroke="midnightblue" d="M429.277,-95.5007C457.764,-100.397 492.125,-106.303 519.273,-110.969"/>
<polygon fill="midnightblue" stroke="midnightblue" points="518.849,-114.447 529.297,-112.692 520.035,-107.548 518.849,-114.447"/>
</g>
<!-- Node4&#45;&gt;Node6 -->
<g id="edge5" class="edge"><title>Node4&#45;&gt;Node6</title>
<path fill="none" stroke="midnightblue" d="M440.076,-76.7081C455.47,-74.5433 472.004,-72.2182 487.864,-69.9878"/>
<polygon fill="midnightblue" stroke="midnightblue" points="488.756,-73.397 498.171,-68.5385 487.781,-66.4652 488.756,-73.397"/>
</g>
<!-- Node8 -->
<g id="node8" class="node"><title>Node8</title>
<g id="a_node8"><a xlink:href="../../dd/d11/class_cell.html#adcdc17232ec0cff0752168e9846c39a8" target="_top" xlink:title="Cell.getShape">
<polygon fill="white" stroke="black" points="525.5,-0.5 525.5,-19.5 608.5,-19.5 608.5,-0.5 525.5,-0.5"/>
<text text-anchor="middle" x="567" y="-7.5" font-family="Helvetica,sans-Serif" font-size="10.00">Cell.getShape</text>
</a>
</g>
</g>
<!-- Node7&#45;&gt;Node8 -->
<g id="edge7" class="edge"><title>Node7&#45;&gt;Node8</title>
<path fill="none" stroke="midnightblue" d="M455.704,-10C475.933,-10 497.029,-10 515.29,-10"/>
<polygon fill="midnightblue" stroke="midnightblue" points="515.401,-13.5001 525.401,-10 515.401,-6.5001 515.401,-13.5001"/>
</g>
<!-- Node9&#45;&gt;Node5 -->
<g id="edge10" class="edge"><title>Node9&#45;&gt;Node5</title>
<path fill="none" stroke="midnightblue" d="M449.608,-125.668C473.038,-124.326 498.168,-122.886 519.059,-121.689"/>
<polygon fill="midnightblue" stroke="midnightblue" points="519.473,-125.171 529.256,-121.105 519.072,-118.183 519.473,-125.171"/>
</g>
</g>
</svg>
