<?xml version="1.0" encoding="UTF-8" standalone="no"?>
<!DOCTYPE svg PUBLIC "-//W3C//DTD SVG 1.1//EN"
 "http://www.w3.org/Graphics/SVG/1.1/DTD/svg11.dtd">
<!-- Generated by graphviz version 2.36.0 (20140111.2315)
 -->
<!-- Title: CellSociety.configureListeners Pages: 1 -->
<svg width="1328pt" height="658pt"
 viewBox="0.00 0.00 1328.00 657.68" xmlns="http://www.w3.org/2000/svg" xmlns:xlink="http://www.w3.org/1999/xlink">
<g id="graph0" class="graph" transform="scale(1 1) rotate(0) translate(4 653.683)">
<title>CellSociety.configureListeners</title>
<polygon fill="white" stroke="none" points="-4,4 -4,-653.683 1324,-653.683 1324,4 -4,4"/>
<!-- Node1 -->
<g id="node1" class="node"><title>Node1</title>
<polygon fill="#bfbfbf" stroke="black" points="0,-241.5 0,-260.5 158,-260.5 158,-241.5 0,-241.5"/>
<text text-anchor="middle" x="79" y="-248.5" font-family="Helvetica,sans-Serif" font-size="10.00">CellSociety.configureListeners</text>
</g>
<!-- Node2 -->
<g id="node2" class="node"><title>Node2</title>
<g id="a_node2"><a xlink:href="../../d3/dff/class_cell_society.html#a045267ba1843ca4a47891d7be73c2ac1" target="_top" xlink:title="CellSociety.decreaseFrameRate">
<polygon fill="white" stroke="black" points="196.5,-558.5 196.5,-577.5 363.5,-577.5 363.5,-558.5 196.5,-558.5"/>
<text text-anchor="middle" x="280" y="-565.5" font-family="Helvetica,sans-Serif" font-size="10.00">CellSociety.decreaseFrameRate</text>
</a>
</g>
</g>
<!-- Node1&#45;&gt;Node2 -->
<g id="edge1" class="edge"><title>Node1&#45;&gt;Node2</title>
<path fill="none" stroke="midnightblue" d="M82.6808,-260.97C92.6132,-296.562 130.081,-419.578 194,-501 210.752,-522.338 235.643,-540.918 254.166,-553.064"/>
<polygon fill="midnightblue" stroke="midnightblue" points="252.37,-556.07 262.683,-558.494 256.132,-550.167 252.37,-556.07"/>
</g>
<!-- Node6 -->
<g id="node6" class="node"><title>Node6</title>
<g id="a_node6"><a xlink:href="../../d3/dff/class_cell_society.html#a0ff19c30a1cc433d8ea8444f6a5617f1" target="_top" xlink:title="CellSociety.updateGrid">
<polygon fill="white" stroke="black" points="856,-529.5 856,-548.5 980,-548.5 980,-529.5 856,-529.5"/>
<text text-anchor="middle" x="918" y="-536.5" font-family="Helvetica,sans-Serif" font-size="10.00">CellSociety.updateGrid</text>
</a>
</g>
</g>
<!-- Node1&#45;&gt;Node6 -->
<g id="edge52" class="edge"><title>Node1&#45;&gt;Node6</title>
<path fill="none" stroke="midnightblue" d="M80.0788,-260.508C80.991,-304.989 90.9942,-494.267 194,-587 307.919,-689.558 798.306,-635.328 802,-634 844.784,-618.614 882.974,-579.649 902.748,-556.683"/>
<polygon fill="midnightblue" stroke="midnightblue" points="905.657,-558.661 909.396,-548.748 900.291,-554.166 905.657,-558.661"/>
</g>
<!-- Node12 -->
<g id="node12" class="node"><title>Node12</title>
<g id="a_node12"><a xlink:href="../../df/df8/class_cell_society_view.html#ada088eb9125561f8dd941badb141fa86" target="_top" xlink:title="CellSocietyView.getPause\lElement">
<polygon fill="white" stroke="black" points="211.5,-214 211.5,-244 348.5,-244 348.5,-214 211.5,-214"/>
<text text-anchor="start" x="219.5" y="-232" font-family="Helvetica,sans-Serif" font-size="10.00">CellSocietyView.getPause</text>
<text text-anchor="middle" x="280" y="-221" font-family="Helvetica,sans-Serif" font-size="10.00">Element</text>
</a>
</g>
</g>
<!-- Node1&#45;&gt;Node12 -->
<g id="edge11" class="edge"><title>Node1&#45;&gt;Node12</title>
<path fill="none" stroke="midnightblue" d="M158.079,-242.368C172.274,-240.799 187.079,-239.162 201.264,-237.594"/>
<polygon fill="midnightblue" stroke="midnightblue" points="201.91,-241.044 211.465,-236.466 201.141,-234.086 201.91,-241.044"/>
</g>
<!-- Node13 -->
<g id="node13" class="node"><title>Node13</title>
<g id="a_node13"><a xlink:href="../../df/df8/class_cell_society_view.html#aae7c36ea6b5215b0ba9ee01c72dfcb94" target="_top" xlink:title="CellSocietyView.getPlayElement">
<polygon fill="white" stroke="black" points="196,-175.5 196,-194.5 364,-194.5 364,-175.5 196,-175.5"/>
<text text-anchor="middle" x="280" y="-182.5" font-family="Helvetica,sans-Serif" font-size="10.00">CellSocietyView.getPlayElement</text>
</a>
</g>
</g>
<!-- Node1&#45;&gt;Node13 -->
<g id="edge12" class="edge"><title>Node1&#45;&gt;Node13</title>
<path fill="none" stroke="midnightblue" d="M101.076,-241.365C123.692,-231.295 160.842,-215.523 194,-205 203.223,-202.073 213.131,-199.362 222.809,-196.942"/>
<polygon fill="midnightblue" stroke="midnightblue" points="223.878,-200.284 232.773,-194.528 222.23,-193.481 223.878,-200.284"/>
</g>
<!-- Node14 -->
<g id="node14" class="node"><title>Node14</title>
<g id="a_node14"><a xlink:href="../../df/df8/class_cell_society_view.html#a0f616a01579a7293ef781d3e341ea1ac" target="_top" xlink:title="CellSocietyView.getSlowdown\lElement">
<polygon fill="white" stroke="black" points="202.5,-126 202.5,-156 357.5,-156 357.5,-126 202.5,-126"/>
<text text-anchor="start" x="210.5" y="-144" font-family="Helvetica,sans-Serif" font-size="10.00">CellSocietyView.getSlowdown</text>
<text text-anchor="middle" x="280" y="-133" font-family="Helvetica,sans-Serif" font-size="10.00">Element</text>
</a>
</g>
</g>
<!-- Node1&#45;&gt;Node14 -->
<g id="edge13" class="edge"><title>Node1&#45;&gt;Node14</title>
<path fill="none" stroke="midnightblue" d="M90.158,-241.419C109.121,-224.018 151.819,-187.076 194,-166 198.612,-163.696 203.473,-161.566 208.439,-159.605"/>
<polygon fill="midnightblue" stroke="midnightblue" points="209.915,-162.791 218.081,-156.041 207.487,-156.226 209.915,-162.791"/>
</g>
<!-- Node15 -->
<g id="node15" class="node"><title>Node15</title>
<g id="a_node15"><a xlink:href="../../df/df8/class_cell_society_view.html#a572d464cbe7d186dc9a5b0e4a8130689" target="_top" xlink:title="CellSocietyView.getSpeedup\lElement">
<polygon fill="white" stroke="black" points="204,-77 204,-107 356,-107 356,-77 204,-77"/>
<text text-anchor="start" x="212" y="-95" font-family="Helvetica,sans-Serif" font-size="10.00">CellSocietyView.getSpeedup</text>
<text text-anchor="middle" x="280" y="-84" font-family="Helvetica,sans-Serif" font-size="10.00">Element</text>
</a>
</g>
</g>
<!-- Node1&#45;&gt;Node15 -->
<g id="edge14" class="edge"><title>Node1&#45;&gt;Node15</title>
<path fill="none" stroke="midnightblue" d="M85.5182,-241.225C99.9743,-216.515 141.487,-151.102 194,-117 197.153,-114.953 200.478,-113.068 203.914,-111.335"/>
<polygon fill="midnightblue" stroke="midnightblue" points="205.58,-114.422 213.227,-107.089 202.676,-108.053 205.58,-114.422"/>
</g>
<!-- Node16 -->
<g id="node16" class="node"><title>Node16</title>
<g id="a_node16"><a xlink:href="../../df/df8/class_cell_society_view.html#a3c3a7039f77d392c374cd309967ca1cc" target="_top" xlink:title="CellSocietyView.getStepElement">
<polygon fill="white" stroke="black" points="194.5,-38.5 194.5,-57.5 365.5,-57.5 365.5,-38.5 194.5,-38.5"/>
<text text-anchor="middle" x="280" y="-45.5" font-family="Helvetica,sans-Serif" font-size="10.00">CellSocietyView.getStepElement</text>
</a>
</g>
</g>
<!-- Node1&#45;&gt;Node16 -->
<g id="edge15" class="edge"><title>Node1&#45;&gt;Node16</title>
<path fill="none" stroke="midnightblue" d="M83.0468,-241.096C93.1649,-209.959 128.763,-113.378 194,-67 196.711,-65.0725 199.584,-63.3359 202.571,-61.7718"/>
<polygon fill="midnightblue" stroke="midnightblue" points="204.162,-64.8934 211.826,-57.5779 201.273,-58.5175 204.162,-64.8934"/>
</g>
<!-- Node17 -->
<g id="node17" class="node"><title>Node17</title>
<g id="a_node17"><a xlink:href="../../df/df8/class_cell_society_view.html#aebad9aaff0e9784fec1518d319e03c85" target="_top" xlink:title="CellSocietyView.getXMLElement">
<polygon fill="white" stroke="black" points="196,-0.5 196,-19.5 364,-19.5 364,-0.5 196,-0.5"/>
<text text-anchor="middle" x="280" y="-7.5" font-family="Helvetica,sans-Serif" font-size="10.00">CellSocietyView.getXMLElement</text>
</a>
</g>
</g>
<!-- Node1&#45;&gt;Node17 -->
<g id="edge16" class="edge"><title>Node1&#45;&gt;Node17</title>
<path fill="none" stroke="midnightblue" d="M81.9525,-241.117C89.426,-206.033 119.62,-86.507 194,-29 196.299,-27.2225 198.732,-25.6047 201.266,-24.1328"/>
<polygon fill="midnightblue" stroke="midnightblue" points="202.832,-27.263 210.221,-19.67 199.709,-20.9979 202.832,-27.263"/>
</g>
<!-- Node18 -->
<g id="node18" class="node"><title>Node18</title>
<g id="a_node18"><a xlink:href="../../d3/dff/class_cell_society.html#a8250bfacdaf51dabf6b9d1cafc0ce9b2" target="_top" xlink:title="CellSociety.increaseFrameRate">
<polygon fill="white" stroke="black" points="198.5,-472.5 198.5,-491.5 361.5,-491.5 361.5,-472.5 198.5,-472.5"/>
<text text-anchor="middle" x="280" y="-479.5" font-family="Helvetica,sans-Serif" font-size="10.00">CellSociety.increaseFrameRate</text>
</a>
</g>
</g>
<!-- Node1&#45;&gt;Node18 -->
<g id="edge17" class="edge"><title>Node1&#45;&gt;Node18</title>
<path fill="none" stroke="midnightblue" d="M88.2974,-260.632C118.767,-296.001 224.753,-419.03 264.124,-464.732"/>
<polygon fill="midnightblue" stroke="midnightblue" points="261.489,-467.035 270.667,-472.327 266.792,-462.466 261.489,-467.035"/>
</g>
<!-- Node19 -->
<g id="node19" class="node"><title>Node19</title>
<g id="a_node19"><a xlink:href="../../d3/dff/class_cell_society.html#ae565a305ea53e5a37da9816a236b4fbc" target="_top" xlink:title="CellSociety.pauseAnimation">
<polygon fill="white" stroke="black" points="420.5,-61.5 420.5,-80.5 569.5,-80.5 569.5,-61.5 420.5,-61.5"/>
<text text-anchor="middle" x="495" y="-68.5" font-family="Helvetica,sans-Serif" font-size="10.00">CellSociety.pauseAnimation</text>
</a>
</g>
</g>
<!-- Node1&#45;&gt;Node19 -->
<g id="edge19" class="edge"><title>Node1&#45;&gt;Node19</title>
<path fill="none" stroke="midnightblue" d="M95.8805,-260.651C143.174,-288.026 284.832,-359.922 366,-292 435.601,-233.758 339.019,-156.344 402,-91 404.853,-88.0394 408.035,-85.4676 411.451,-83.2366"/>
<polygon fill="midnightblue" stroke="midnightblue" points="413.275,-86.2284 420.377,-78.3661 409.923,-80.0837 413.275,-86.2284"/>
</g>
<!-- Node21 -->
<g id="node21" class="node"><title>Node21</title>
<g id="a_node21"><a xlink:href="../../d3/dff/class_cell_society.html#af9f22af39a97a58b26126020ca6c8844" target="_top" xlink:title="CellSociety.readNewXML">
<polygon fill="white" stroke="black" points="214,-339.5 214,-358.5 346,-358.5 346,-339.5 214,-339.5"/>
<text text-anchor="middle" x="280" y="-346.5" font-family="Helvetica,sans-Serif" font-size="10.00">CellSociety.readNewXML</text>
</a>
</g>
</g>
<!-- Node1&#45;&gt;Node21 -->
<g id="edge21" class="edge"><title>Node1&#45;&gt;Node21</title>
<path fill="none" stroke="midnightblue" d="M91.9427,-260.509C111.959,-276.029 154.025,-306.885 194,-325 204.052,-329.555 215.17,-333.446 225.96,-336.686"/>
<polygon fill="midnightblue" stroke="midnightblue" points="225.16,-340.097 235.737,-339.478 227.083,-333.366 225.16,-340.097"/>
</g>
<!-- Node39 -->
<g id="node39" class="node"><title>Node39</title>
<g id="a_node39"><a xlink:href="../../d3/dff/class_cell_society.html#a6a4056cd40e4162583f2b9845b77a191" target="_top" xlink:title="CellSociety.resumeAnimation">
<polygon fill="white" stroke="black" points="202,-263.5 202,-282.5 358,-282.5 358,-263.5 202,-263.5"/>
<text text-anchor="middle" x="280" y="-270.5" font-family="Helvetica,sans-Serif" font-size="10.00">CellSociety.resumeAnimation</text>
</a>
</g>
</g>
<!-- Node1&#45;&gt;Node39 -->
<g id="edge50" class="edge"><title>Node1&#45;&gt;Node39</title>
<path fill="none" stroke="midnightblue" d="M158.079,-259.632C169.083,-260.848 180.455,-262.106 191.62,-263.34"/>
<polygon fill="midnightblue" stroke="midnightblue" points="191.475,-266.845 201.799,-264.465 192.244,-259.887 191.475,-266.845"/>
</g>
<!-- Node3 -->
<g id="node3" class="node"><title>Node3</title>
<g id="a_node3"><a xlink:href="../../d3/dff/class_cell_society.html#adc5feda3db5472cea4e092d463681033" target="_top" xlink:title="CellSociety.reframeTimeline">
<polygon fill="white" stroke="black" points="420.5,-605.5 420.5,-624.5 569.5,-624.5 569.5,-605.5 420.5,-605.5"/>
<text text-anchor="middle" x="495" y="-612.5" font-family="Helvetica,sans-Serif" font-size="10.00">CellSociety.reframeTimeline</text>
</a>
</g>
</g>
<!-- Node2&#45;&gt;Node3 -->
<g id="edge2" class="edge"><title>Node2&#45;&gt;Node3</title>
<path fill="none" stroke="midnightblue" d="M324.104,-577.511C357.771,-584.94 404.729,-595.302 440.747,-603.249"/>
<polygon fill="midnightblue" stroke="midnightblue" points="440.076,-606.685 450.595,-605.422 441.584,-599.85 440.076,-606.685"/>
</g>
<!-- Node4 -->
<g id="node4" class="node"><title>Node4</title>
<g id="a_node4"><a xlink:href="../../df/df8/class_cell_society_view.html#a99eb733c00ed7c1bcba8f2d684791a09" target="_top" xlink:title="CellSocietyView.displayFrameRate">
<polygon fill="white" stroke="black" points="624,-605.5 624,-624.5 802,-624.5 802,-605.5 624,-605.5"/>
<text text-anchor="middle" x="713" y="-612.5" font-family="Helvetica,sans-Serif" font-size="10.00">CellSocietyView.displayFrameRate</text>
</a>
</g>
</g>
<!-- Node3&#45;&gt;Node4 -->
<g id="edge3" class="edge"><title>Node3&#45;&gt;Node4</title>
<path fill="none" stroke="midnightblue" d="M569.731,-615C583.831,-615 598.801,-615 613.533,-615"/>
<polygon fill="midnightblue" stroke="midnightblue" points="613.68,-618.5 623.68,-615 613.68,-611.5 613.68,-618.5"/>
</g>
<!-- Node5 -->
<g id="node5" class="node"><title>Node5</title>
<g id="a_node5"><a xlink:href="../../d3/dff/class_cell_society.html#abf13a64ee79f2cb063447b499c695c58" target="_top" xlink:title="CellSociety.start">
<polygon fill="white" stroke="black" points="666.5,-529.5 666.5,-548.5 759.5,-548.5 759.5,-529.5 666.5,-529.5"/>
<text text-anchor="middle" x="713" y="-536.5" font-family="Helvetica,sans-Serif" font-size="10.00">CellSociety.start</text>
</a>
</g>
</g>
<!-- Node3&#45;&gt;Node5 -->
<g id="edge4" class="edge"><title>Node3&#45;&gt;Node5</title>
<path fill="none" stroke="midnightblue" d="M523.357,-605.375C561.903,-591.812 632.29,-567.046 675.333,-551.901"/>
<polygon fill="midnightblue" stroke="midnightblue" points="676.594,-555.168 684.866,-548.547 674.271,-548.565 676.594,-555.168"/>
</g>
<!-- Node5&#45;&gt;Node6 -->
<g id="edge5" class="edge"><title>Node5&#45;&gt;Node6</title>
<path fill="none" stroke="midnightblue" d="M759.557,-539C784.856,-539 816.898,-539 845.463,-539"/>
<polygon fill="midnightblue" stroke="midnightblue" points="845.811,-542.5 855.81,-539 845.81,-535.5 845.811,-542.5"/>
</g>
<!-- Node7 -->
<g id="node7" class="node"><title>Node7</title>
<g id="a_node7"><a xlink:href="../../d8/d87/class_controller.html#aa8f10b5f28542d34053a7e4d5f1d6013" target="_top" xlink:title="Controller.runOneSim">
<polygon fill="white" stroke="black" points="1057.5,-529.5 1057.5,-548.5 1176.5,-548.5 1176.5,-529.5 1057.5,-529.5"/>
<text text-anchor="middle" x="1117" y="-536.5" font-family="Helvetica,sans-Serif" font-size="10.00">Controller.runOneSim</text>
</a>
</g>
</g>
<!-- Node6&#45;&gt;Node7 -->
<g id="edge6" class="edge"><title>Node6&#45;&gt;Node7</title>
<path fill="none" stroke="midnightblue" d="M980.252,-539C1001.51,-539 1025.48,-539 1047.3,-539"/>
<polygon fill="midnightblue" stroke="midnightblue" points="1047.48,-542.5 1057.48,-539 1047.48,-535.5 1047.48,-542.5"/>
</g>
<!-- Node8 -->
<g id="node8" class="node"><title>Node8</title>
<g id="a_node8"><a xlink:href="../../df/df8/class_cell_society_view.html#a43ac2666d3a002024be53fe74028a576" target="_top" xlink:title="CellSocietyView.updateSimGrid">
<polygon fill="white" stroke="black" points="1034.5,-567.5 1034.5,-586.5 1199.5,-586.5 1199.5,-567.5 1034.5,-567.5"/>
<text text-anchor="middle" x="1117" y="-574.5" font-family="Helvetica,sans-Serif" font-size="10.00">CellSocietyView.updateSimGrid</text>
</a>
</g>
</g>
<!-- Node6&#45;&gt;Node8 -->
<g id="edge7" class="edge"><title>Node6&#45;&gt;Node8</title>
<path fill="none" stroke="midnightblue" d="M968.457,-548.54C995.154,-553.69 1028.3,-560.084 1056.42,-565.506"/>
<polygon fill="midnightblue" stroke="midnightblue" points="1056.04,-568.999 1066.52,-567.456 1057.37,-562.125 1056.04,-568.999"/>
</g>
<!-- Node10 -->
<g id="node10" class="node"><title>Node10</title>
<g id="a_node10"><a xlink:href="../../d2/d95/class_x_m_l_parser.html#ac4e3257aed1deb9fe950149f706fce5b" target="_top" xlink:title="XMLParser.getCellParamList">
<polygon fill="white" stroke="black" points="1042.5,-491.5 1042.5,-510.5 1191.5,-510.5 1191.5,-491.5 1042.5,-491.5"/>
<text text-anchor="middle" x="1117" y="-498.5" font-family="Helvetica,sans-Serif" font-size="10.00">XMLParser.getCellParamList</text>
</a>
</g>
</g>
<!-- Node6&#45;&gt;Node10 -->
<g id="edge9" class="edge"><title>Node6&#45;&gt;Node10</title>
<path fill="none" stroke="midnightblue" d="M968.457,-529.46C995.154,-524.31 1028.3,-517.916 1056.42,-512.494"/>
<polygon fill="midnightblue" stroke="midnightblue" points="1057.37,-515.875 1066.52,-510.544 1056.04,-509.001 1057.37,-515.875"/>
</g>
<!-- Node11 -->
<g id="node11" class="node"><title>Node11</title>
<g id="a_node11"><a xlink:href="../../df/df8/class_cell_society_view.html#a7ca77bdfdef97e9be9c9941c2f4d3513" target="_top" xlink:title="CellSocietyView.updateChart\lLines">
<polygon fill="white" stroke="black" points="1040.5,-331 1040.5,-361 1193.5,-361 1193.5,-331 1040.5,-331"/>
<text text-anchor="start" x="1048.5" y="-349" font-family="Helvetica,sans-Serif" font-size="10.00">CellSocietyView.updateChart</text>
<text text-anchor="middle" x="1117" y="-338" font-family="Helvetica,sans-Serif" font-size="10.00">Lines</text>
</a>
</g>
</g>
<!-- Node6&#45;&gt;Node11 -->
<g id="edge10" class="edge"><title>Node6&#45;&gt;Node11</title>
<path fill="none" stroke="midnightblue" d="M928.769,-529.429C958.798,-500.01 1050.3,-410.362 1093.27,-368.27"/>
<polygon fill="midnightblue" stroke="midnightblue" points="1095.76,-370.725 1100.46,-361.226 1090.87,-365.724 1095.76,-370.725"/>
</g>
<!-- Node9 -->
<g id="node9" class="node"><title>Node9</title>
<g id="a_node9"><a xlink:href="../../dd/d11/class_cell.html#a1e0ece61fecc69a9b7986d17d925434a" target="_top" xlink:title="Cell.getShape">
<polygon fill="white" stroke="black" points="1236.5,-567.5 1236.5,-586.5 1319.5,-586.5 1319.5,-567.5 1236.5,-567.5"/>
<text text-anchor="middle" x="1278" y="-574.5" font-family="Helvetica,sans-Serif" font-size="10.00">Cell.getShape</text>
</a>
</g>
</g>
<!-- Node8&#45;&gt;Node9 -->
<g id="edge8" class="edge"><title>Node8&#45;&gt;Node9</title>
<path fill="none" stroke="midnightblue" d="M1199.83,-577C1208.81,-577 1217.75,-577 1226.19,-577"/>
<polygon fill="midnightblue" stroke="midnightblue" points="1226.21,-580.5 1236.21,-577 1226.21,-573.5 1226.21,-580.5"/>
</g>
<!-- Node18&#45;&gt;Node3 -->
<g id="edge18" class="edge"><title>Node18&#45;&gt;Node3</title>
<path fill="none" stroke="midnightblue" d="M294.917,-491.679C312.327,-504.069 342.682,-526.621 366,-549 383.738,-566.024 381.153,-577.968 402,-591 409.243,-595.528 417.318,-599.206 425.591,-602.193"/>
<polygon fill="midnightblue" stroke="midnightblue" points="424.765,-605.605 435.357,-605.391 426.943,-598.952 424.765,-605.605"/>
</g>
<!-- Node20 -->
<g id="node20" class="node"><title>Node20</title>
<g id="a_node20"><a xlink:href="../../df/df8/class_cell_society_view.html#ae83511f9bf3610b0750d41c4aeb0f778" target="_top" xlink:title="CellSocietyView.setButtons\lPause">
<polygon fill="white" stroke="black" points="640,-37 640,-67 786,-67 786,-37 640,-37"/>
<text text-anchor="start" x="648" y="-55" font-family="Helvetica,sans-Serif" font-size="10.00">CellSocietyView.setButtons</text>
<text text-anchor="middle" x="713" y="-44" font-family="Helvetica,sans-Serif" font-size="10.00">Pause</text>
</a>
</g>
</g>
<!-- Node19&#45;&gt;Node20 -->
<g id="edge20" class="edge"><title>Node19&#45;&gt;Node20</title>
<path fill="none" stroke="midnightblue" d="M569.731,-64.5144C588.984,-62.8208 609.859,-60.9846 629.534,-59.254"/>
<polygon fill="midnightblue" stroke="midnightblue" points="630.044,-62.7227 639.699,-58.3599 629.43,-55.7496 630.044,-62.7227"/>
</g>
<!-- Node21&#45;&gt;Node4 -->
<g id="edge45" class="edge"><title>Node21&#45;&gt;Node4</title>
<path fill="none" stroke="midnightblue" d="M289.679,-358.761C306.228,-377.745 342.715,-421.43 366,-463 387.054,-500.586 368.879,-525.45 402,-553 420.011,-567.982 551.893,-590.559 637.741,-603.935"/>
<polygon fill="midnightblue" stroke="midnightblue" points="637.294,-607.407 647.712,-605.48 638.365,-600.49 637.294,-607.407"/>
</g>
<!-- Node21&#45;&gt;Node8 -->
<g id="edge43" class="edge"><title>Node21&#45;&gt;Node8</title>
<path fill="none" stroke="midnightblue" d="M288.535,-358.575C303.69,-377.946 338.738,-423.322 366,-463 382.968,-487.696 377.078,-503.367 402,-520 412.408,-526.946 611.555,-556.7 624,-558 762.975,-572.515 925.071,-576.24 1024.1,-577.037"/>
<polygon fill="midnightblue" stroke="midnightblue" points="1024.34,-580.538 1034.37,-577.11 1024.39,-573.538 1024.34,-580.538"/>
</g>
<!-- Node21&#45;&gt;Node10 -->
<g id="edge46" class="edge"><title>Node21&#45;&gt;Node10</title>
<path fill="none" stroke="midnightblue" d="M298.093,-358.659C321.054,-371.253 363.437,-393.183 402,-406 482.068,-432.612 514.239,-403.033 588,-444 608.338,-455.296 602.81,-472.397 624,-482 694.452,-513.929 911.174,-510.21 1032.15,-505.288"/>
<polygon fill="midnightblue" stroke="midnightblue" points="1032.63,-508.771 1042.48,-504.855 1032.34,-501.777 1032.63,-508.771"/>
</g>
<!-- Node21&#45;&gt;Node11 -->
<g id="edge48" class="edge"><title>Node21&#45;&gt;Node11</title>
<path fill="none" stroke="midnightblue" d="M328.774,-339.493C341.88,-335.17 355.387,-328.941 366,-320 391.553,-298.472 373.268,-271.056 402,-254 478.435,-208.625 714.012,-241.375 802,-254 898.675,-267.871 1007.12,-304.606 1067.93,-327.239"/>
<polygon fill="midnightblue" stroke="midnightblue" points="1067.04,-330.643 1077.63,-330.881 1069.5,-324.089 1067.04,-330.643"/>
</g>
<!-- Node21&#45;&gt;Node19 -->
<g id="edge44" class="edge"><title>Node21&#45;&gt;Node19</title>
<path fill="none" stroke="midnightblue" d="M346.003,-339.339C353.561,-335.856 360.514,-331.203 366,-325 435.709,-246.179 329.915,-167.654 402,-91 404.817,-88.0046 407.969,-85.4047 411.362,-83.1516"/>
<polygon fill="midnightblue" stroke="midnightblue" points="413.187,-86.1418 420.242,-78.2375 409.798,-80.0171 413.187,-86.1418"/>
</g>
<!-- Node22 -->
<g id="node22" class="node"><title>Node22</title>
<g id="a_node22"><a xlink:href="../../df/df8/class_cell_society_view.html#a053b6ef6afa80722445223c4e373e51c" target="_top" xlink:title="CellSocietyView.displayXMLChooser">
<polygon fill="white" stroke="black" points="402.5,-263.5 402.5,-282.5 587.5,-282.5 587.5,-263.5 402.5,-263.5"/>
<text text-anchor="middle" x="495" y="-270.5" font-family="Helvetica,sans-Serif" font-size="10.00">CellSocietyView.displayXMLChooser</text>
</a>
</g>
</g>
<!-- Node21&#45;&gt;Node22 -->
<g id="edge22" class="edge"><title>Node21&#45;&gt;Node22</title>
<path fill="none" stroke="midnightblue" d="M329.759,-339.423C342.04,-335.899 354.884,-331.197 366,-325 384.958,-314.431 382.676,-301.884 402,-292 406.601,-289.647 411.473,-287.585 416.477,-285.778"/>
<polygon fill="midnightblue" stroke="midnightblue" points="417.8,-289.028 426.229,-282.609 415.637,-282.371 417.8,-289.028"/>
</g>
<!-- Node23 -->
<g id="node23" class="node"><title>Node23</title>
<g id="a_node23"><a xlink:href="../../d2/d95/class_x_m_l_parser.html#a77ee23818c822b69cdf4200eef726a61" target="_top" xlink:title="XMLParser.parseXMLFile">
<polygon fill="white" stroke="black" points="430,-187.5 430,-206.5 560,-206.5 560,-187.5 430,-187.5"/>
<text text-anchor="middle" x="495" y="-194.5" font-family="Helvetica,sans-Serif" font-size="10.00">XMLParser.parseXMLFile</text>
</a>
</g>
</g>
<!-- Node21&#45;&gt;Node23 -->
<g id="edge23" class="edge"><title>Node21&#45;&gt;Node23</title>
<path fill="none" stroke="midnightblue" d="M342.413,-339.441C351.084,-335.987 359.308,-331.314 366,-325 401.576,-291.432 366.09,-254.211 402,-221 407.416,-215.992 413.744,-212 420.501,-208.824"/>
<polygon fill="midnightblue" stroke="midnightblue" points="421.997,-211.994 429.936,-204.978 419.354,-205.512 421.997,-211.994"/>
</g>
<!-- Node27 -->
<g id="node27" class="node"><title>Node27</title>
<g id="a_node27"><a xlink:href="../../d3/dff/class_cell_society.html#abfbf43ce46b4c82c16a2d933b6a11abf" target="_top" xlink:title="CellSociety.retrieveParserInfo">
<polygon fill="white" stroke="black" points="417.5,-301.5 417.5,-320.5 572.5,-320.5 572.5,-301.5 417.5,-301.5"/>
<text text-anchor="middle" x="495" y="-308.5" font-family="Helvetica,sans-Serif" font-size="10.00">CellSociety.retrieveParserInfo</text>
</a>
</g>
</g>
<!-- Node21&#45;&gt;Node27 -->
<g id="edge27" class="edge"><title>Node21&#45;&gt;Node27</title>
<path fill="none" stroke="midnightblue" d="M334.474,-339.46C363.592,-334.265 399.811,-327.804 430.374,-322.351"/>
<polygon fill="midnightblue" stroke="midnightblue" points="431.274,-325.746 440.504,-320.544 430.045,-318.855 431.274,-325.746"/>
</g>
<!-- Node28 -->
<g id="node28" class="node"><title>Node28</title>
<g id="a_node28"><a xlink:href="../../d2/d95/class_x_m_l_parser.html#aea9b535964c91fa3c3d2b1c0b6a334c2" target="_top" xlink:title="XMLParser.getInitParamMap">
<polygon fill="white" stroke="black" points="638.5,-301.5 638.5,-320.5 787.5,-320.5 787.5,-301.5 638.5,-301.5"/>
<text text-anchor="middle" x="713" y="-308.5" font-family="Helvetica,sans-Serif" font-size="10.00">XMLParser.getInitParamMap</text>
</a>
</g>
</g>
<!-- Node21&#45;&gt;Node28 -->
<g id="edge31" class="edge"><title>Node21&#45;&gt;Node28</title>
<path fill="none" stroke="midnightblue" d="M346.124,-346.675C408.367,-344.05 504.773,-338.933 588,-330 607.182,-327.941 627.935,-325.032 646.876,-322.108"/>
<polygon fill="midnightblue" stroke="midnightblue" points="647.558,-325.544 656.893,-320.535 646.471,-318.629 647.558,-325.544"/>
</g>
<!-- Node30 -->
<g id="node30" class="node"><title>Node30</title>
<g id="a_node30"><a xlink:href="../../dd/d11/class_cell.html#a7157b57f4ff263ea68e1ff5fc424176e" target="_top" xlink:title="Cell.setCellSize">
<polygon fill="white" stroke="black" points="450.5,-149.5 450.5,-168.5 539.5,-168.5 539.5,-149.5 450.5,-149.5"/>
<text text-anchor="middle" x="495" y="-156.5" font-family="Helvetica,sans-Serif" font-size="10.00">Cell.setCellSize</text>
</a>
</g>
</g>
<!-- Node21&#45;&gt;Node30 -->
<g id="edge30" class="edge"><title>Node21&#45;&gt;Node30</title>
<path fill="none" stroke="midnightblue" d="M344.229,-339.438C352.347,-335.965 359.929,-331.288 366,-325 412.723,-276.612 353.577,-224.687 402,-178 412.298,-168.071 426.339,-162.716 440.35,-159.965"/>
<polygon fill="midnightblue" stroke="midnightblue" points="441.146,-163.384 450.492,-158.394 440.074,-156.466 441.146,-163.384"/>
</g>
<!-- Node31 -->
<g id="node31" class="node"><title>Node31</title>
<g id="a_node31"><a xlink:href="../../d3/dff/class_cell_society.html#a7a6dab68551f91cc4b120faa51670bf8" target="_top" xlink:title="CellSociety.createCellArray">
<polygon fill="white" stroke="black" points="423,-377.5 423,-396.5 567,-396.5 567,-377.5 423,-377.5"/>
<text text-anchor="middle" x="495" y="-384.5" font-family="Helvetica,sans-Serif" font-size="10.00">CellSociety.createCellArray</text>
</a>
</g>
</g>
<!-- Node21&#45;&gt;Node31 -->
<g id="edge32" class="edge"><title>Node21&#45;&gt;Node31</title>
<path fill="none" stroke="midnightblue" d="M334.474,-358.54C363.592,-363.735 399.811,-370.196 430.374,-375.649"/>
<polygon fill="midnightblue" stroke="midnightblue" points="430.045,-379.145 440.504,-377.456 431.274,-372.254 430.045,-379.145"/>
</g>
<!-- Node36 -->
<g id="node36" class="node"><title>Node36</title>
<g id="a_node36"><a xlink:href="../../d3/dff/class_cell_society.html#ab9e56a2a70e210e021b51e898508329b" target="_top" xlink:title="CellSociety.setupAnimation">
<polygon fill="white" stroke="black" points="422,-453.5 422,-472.5 568,-472.5 568,-453.5 422,-453.5"/>
<text text-anchor="middle" x="495" y="-460.5" font-family="Helvetica,sans-Serif" font-size="10.00">CellSociety.setupAnimation</text>
</a>
</g>
</g>
<!-- Node21&#45;&gt;Node36 -->
<g id="edge41" class="edge"><title>Node21&#45;&gt;Node36</title>
<path fill="none" stroke="midnightblue" d="M291.1,-358.698C310.804,-377.088 356.443,-417.142 402,-439 411.799,-443.702 422.644,-447.572 433.348,-450.729"/>
<polygon fill="midnightblue" stroke="midnightblue" points="432.533,-454.135 443.104,-453.43 434.4,-447.388 432.533,-454.135"/>
</g>
<!-- Node37 -->
<g id="node37" class="node"><title>Node37</title>
<g id="a_node37"><a xlink:href="../../df/df8/class_cell_society_view.html#a930d889b8619ae93731b8542ce285180" target="_top" xlink:title="CellSocietyView.generate\lChartLines">
<polygon fill="white" stroke="black" points="426.5,-100 426.5,-130 563.5,-130 563.5,-100 426.5,-100"/>
<text text-anchor="start" x="434.5" y="-118" font-family="Helvetica,sans-Serif" font-size="10.00">CellSocietyView.generate</text>
<text text-anchor="middle" x="495" y="-107" font-family="Helvetica,sans-Serif" font-size="10.00">ChartLines</text>
</a>
</g>
</g>
<!-- Node21&#45;&gt;Node37 -->
<g id="edge47" class="edge"><title>Node21&#45;&gt;Node37</title>
<path fill="none" stroke="midnightblue" d="M345.354,-339.324C353.109,-335.853 360.289,-331.206 366,-325 422.722,-263.363 344.975,-201.356 402,-140 406.363,-135.306 411.51,-131.46 417.106,-128.313"/>
<polygon fill="midnightblue" stroke="midnightblue" points="418.729,-131.415 426.218,-123.921 415.69,-125.11 418.729,-131.415"/>
</g>
<!-- Node38 -->
<g id="node38" class="node"><title>Node38</title>
<g id="a_node38"><a xlink:href="../../df/df8/class_cell_society_view.html#a989874eb178e925124f50d7cabcc184c" target="_top" xlink:title="CellSocietyView.setGridGap">
<polygon fill="white" stroke="black" points="421.5,-491.5 421.5,-510.5 568.5,-510.5 568.5,-491.5 421.5,-491.5"/>
<text text-anchor="middle" x="495" y="-498.5" font-family="Helvetica,sans-Serif" font-size="10.00">CellSocietyView.setGridGap</text>
</a>
</g>
</g>
<!-- Node21&#45;&gt;Node38 -->
<g id="edge49" class="edge"><title>Node21&#45;&gt;Node38</title>
<path fill="none" stroke="midnightblue" d="M286.651,-358.594C301.828,-383.439 346.135,-450.152 402,-482 405.932,-484.241 410.092,-486.22 414.385,-487.967"/>
<polygon fill="midnightblue" stroke="midnightblue" points="413.365,-491.32 423.959,-491.432 415.747,-484.738 413.365,-491.32"/>
</g>
<!-- Node24 -->
<g id="node24" class="node"><title>Node24</title>
<g id="a_node24"><a xlink:href="../../d2/d95/class_x_m_l_parser.html#ae67767f9678fb650ac38b1321ea9f723" target="_top" xlink:title="XMLParser.parseInitialTags">
<polygon fill="white" stroke="black" points="642.5,-187.5 642.5,-206.5 783.5,-206.5 783.5,-187.5 642.5,-187.5"/>
<text text-anchor="middle" x="713" y="-194.5" font-family="Helvetica,sans-Serif" font-size="10.00">XMLParser.parseInitialTags</text>
</a>
</g>
</g>
<!-- Node23&#45;&gt;Node24 -->
<g id="edge24" class="edge"><title>Node23&#45;&gt;Node24</title>
<path fill="none" stroke="midnightblue" d="M560.222,-197C582.855,-197 608.576,-197 632.329,-197"/>
<polygon fill="midnightblue" stroke="midnightblue" points="632.374,-200.5 642.374,-197 632.374,-193.5 632.374,-200.5"/>
</g>
<!-- Node25 -->
<g id="node25" class="node"><title>Node25</title>
<g id="a_node25"><a xlink:href="../../d2/d95/class_x_m_l_parser.html#a09c6848239104ae94825c045796dddd0" target="_top" xlink:title="XMLParser.makeParamMap">
<polygon fill="white" stroke="black" points="845,-149.5 845,-168.5 991,-168.5 991,-149.5 845,-149.5"/>
<text text-anchor="middle" x="918" y="-156.5" font-family="Helvetica,sans-Serif" font-size="10.00">XMLParser.makeParamMap</text>
</a>
</g>
</g>
<!-- Node24&#45;&gt;Node25 -->
<g id="edge25" class="edge"><title>Node24&#45;&gt;Node25</title>
<path fill="none" stroke="midnightblue" d="M764.963,-187.46C792.594,-182.288 826.933,-175.86 855.981,-170.422"/>
<polygon fill="midnightblue" stroke="midnightblue" points="856.83,-173.824 866.016,-168.544 855.542,-166.944 856.83,-173.824"/>
</g>
<!-- Node26 -->
<g id="node26" class="node"><title>Node26</title>
<g id="a_node26"><a xlink:href="../../d2/d95/class_x_m_l_parser.html#a5a419f71699eb7d3d76ee238fb262a5f" target="_top" xlink:title="XMLParser.makeCellParamList">
<polygon fill="white" stroke="black" points="838,-187.5 838,-206.5 998,-206.5 998,-187.5 838,-187.5"/>
<text text-anchor="middle" x="918" y="-194.5" font-family="Helvetica,sans-Serif" font-size="10.00">XMLParser.makeCellParamList</text>
</a>
</g>
</g>
<!-- Node24&#45;&gt;Node26 -->
<g id="edge26" class="edge"><title>Node24&#45;&gt;Node26</title>
<path fill="none" stroke="midnightblue" d="M783.577,-197C797.752,-197 812.851,-197 827.604,-197"/>
<polygon fill="midnightblue" stroke="midnightblue" points="827.747,-200.5 837.747,-197 827.747,-193.5 827.747,-200.5"/>
</g>
<!-- Node27&#45;&gt;Node28 -->
<g id="edge28" class="edge"><title>Node27&#45;&gt;Node28</title>
<path fill="none" stroke="midnightblue" d="M572.762,-311C590.769,-311 610.043,-311 628.335,-311"/>
<polygon fill="midnightblue" stroke="midnightblue" points="628.382,-314.5 638.382,-311 628.382,-307.5 628.382,-314.5"/>
</g>
<!-- Node29 -->
<g id="node29" class="node"><title>Node29</title>
<g id="a_node29"><a xlink:href="../../d2/d95/class_x_m_l_parser.html#a0df3a2904766f59d1246cb55416f8146" target="_top" xlink:title="XMLParser.getSimParamMap">
<polygon fill="white" stroke="black" points="636,-263.5 636,-282.5 790,-282.5 790,-263.5 636,-263.5"/>
<text text-anchor="middle" x="713" y="-270.5" font-family="Helvetica,sans-Serif" font-size="10.00">XMLParser.getSimParamMap</text>
</a>
</g>
</g>
<!-- Node27&#45;&gt;Node29 -->
<g id="edge29" class="edge"><title>Node27&#45;&gt;Node29</title>
<path fill="none" stroke="midnightblue" d="M550.227,-301.46C579.884,-296.243 616.804,-289.747 647.882,-284.28"/>
<polygon fill="midnightblue" stroke="midnightblue" points="648.508,-287.724 657.751,-282.544 647.295,-280.83 648.508,-287.724"/>
</g>
<!-- Node31&#45;&gt;Node10 -->
<g id="edge34" class="edge"><title>Node31&#45;&gt;Node10</title>
<path fill="none" stroke="midnightblue" d="M524.59,-377.49C604.009,-352.788 832.349,-293.519 998,-368 1050.59,-391.644 1089.25,-451.589 1106.32,-482.275"/>
<polygon fill="midnightblue" stroke="midnightblue" points="1103.26,-483.986 1111.09,-491.127 1109.43,-480.664 1103.26,-483.986"/>
</g>
<!-- Node31&#45;&gt;Node28 -->
<g id="edge33" class="edge"><title>Node31&#45;&gt;Node28</title>
<path fill="none" stroke="midnightblue" d="M547.463,-377.487C561.046,-373.936 575.416,-369.205 588,-363 606.18,-354.036 605.87,-344.065 624,-335 633.338,-330.331 643.703,-326.475 653.947,-323.323"/>
<polygon fill="midnightblue" stroke="midnightblue" points="655.054,-326.646 663.693,-320.513 653.115,-319.92 655.054,-326.646"/>
</g>
<!-- Node32 -->
<g id="node32" class="node"><title>Node32</title>
<g id="a_node32"><a xlink:href="../../d3/dff/class_cell_society.html#a276d7f4c12da9d40e8720f762b47592a" target="_top" xlink:title="CellSociety.populateProbabilities">
<polygon fill="white" stroke="black" points="628,-453.5 628,-472.5 798,-472.5 798,-453.5 628,-453.5"/>
<text text-anchor="middle" x="713" y="-460.5" font-family="Helvetica,sans-Serif" font-size="10.00">CellSociety.populateProbabilities</text>
</a>
</g>
</g>
<!-- Node31&#45;&gt;Node32 -->
<g id="edge35" class="edge"><title>Node31&#45;&gt;Node32</title>
<path fill="none" stroke="midnightblue" d="M547.463,-396.513C561.046,-400.064 575.416,-404.795 588,-411 606.18,-419.964 605.87,-429.935 624,-439 633.338,-443.669 643.703,-447.525 653.947,-450.677"/>
<polygon fill="midnightblue" stroke="midnightblue" points="653.115,-454.08 663.693,-453.487 655.054,-447.354 653.115,-454.08"/>
</g>
<!-- Node33 -->
<g id="node33" class="node"><title>Node33</title>
<g id="a_node33"><a xlink:href="../../d3/dff/class_cell_society.html#a117f1698760a3f6bbe51bd7af16f79bb" target="_top" xlink:title="CellSociety.createCellInstance">
<polygon fill="white" stroke="black" points="838.5,-415.5 838.5,-434.5 997.5,-434.5 997.5,-415.5 838.5,-415.5"/>
<text text-anchor="middle" x="918" y="-422.5" font-family="Helvetica,sans-Serif" font-size="10.00">CellSociety.createCellInstance</text>
</a>
</g>
</g>
<!-- Node31&#45;&gt;Node33 -->
<g id="edge40" class="edge"><title>Node31&#45;&gt;Node33</title>
<path fill="none" stroke="midnightblue" d="M553.217,-396.525C575.286,-399.927 600.767,-403.527 624,-406 692.259,-413.267 769.782,-418.146 827.934,-421.139"/>
<polygon fill="midnightblue" stroke="midnightblue" points="828.028,-424.648 838.192,-421.657 828.382,-417.657 828.028,-424.648"/>
</g>
<!-- Node34 -->
<g id="node34" class="node"><title>Node34</title>
<g id="a_node34"><a xlink:href="../../d3/dff/class_cell_society.html#a5c0b747b2fbaaa317266890c48e0267f" target="_top" xlink:title="CellSociety.populateLocations">
<polygon fill="white" stroke="black" points="634,-377.5 634,-396.5 792,-396.5 792,-377.5 634,-377.5"/>
<text text-anchor="middle" x="713" y="-384.5" font-family="Helvetica,sans-Serif" font-size="10.00">CellSociety.populateLocations</text>
</a>
</g>
</g>
<!-- Node31&#45;&gt;Node34 -->
<g id="edge37" class="edge"><title>Node31&#45;&gt;Node34</title>
<path fill="none" stroke="midnightblue" d="M567.026,-387C585.161,-387 604.879,-387 623.762,-387"/>
<polygon fill="midnightblue" stroke="midnightblue" points="623.849,-390.5 633.848,-387 623.848,-383.5 623.849,-390.5"/>
</g>
<!-- Node32&#45;&gt;Node33 -->
<g id="edge36" class="edge"><title>Node32&#45;&gt;Node33</title>
<path fill="none" stroke="midnightblue" d="M764.963,-453.46C792.594,-448.288 826.933,-441.86 855.981,-436.422"/>
<polygon fill="midnightblue" stroke="midnightblue" points="856.83,-439.824 866.016,-434.544 855.542,-432.944 856.83,-439.824"/>
</g>
<!-- Node34&#45;&gt;Node33 -->
<g id="edge39" class="edge"><title>Node34&#45;&gt;Node33</title>
<path fill="none" stroke="midnightblue" d="M764.963,-396.54C792.594,-401.712 826.933,-408.14 855.981,-413.578"/>
<polygon fill="midnightblue" stroke="midnightblue" points="855.542,-417.056 866.016,-415.456 856.83,-410.176 855.542,-417.056"/>
</g>
<!-- Node35 -->
<g id="node35" class="node"><title>Node35</title>
<g id="a_node35"><a xlink:href="../../d3/dff/class_cell_society.html#a42451b17e2bca5fd025c8d4ea74310ca" target="_top" xlink:title="CellSociety.stringToIntArray">
<polygon fill="white" stroke="black" points="845.5,-377.5 845.5,-396.5 990.5,-396.5 990.5,-377.5 845.5,-377.5"/>
<text text-anchor="middle" x="918" y="-384.5" font-family="Helvetica,sans-Serif" font-size="10.00">CellSociety.stringToIntArray</text>
</a>
</g>
</g>
<!-- Node34&#45;&gt;Node35 -->
<g id="edge38" class="edge"><title>Node34&#45;&gt;Node35</title>
<path fill="none" stroke="midnightblue" d="M792.195,-387C806.305,-387 821.051,-387 835.26,-387"/>
<polygon fill="midnightblue" stroke="midnightblue" points="835.494,-390.5 845.494,-387 835.494,-383.5 835.494,-390.5"/>
</g>
<!-- Node36&#45;&gt;Node5 -->
<g id="edge42" class="edge"><title>Node36&#45;&gt;Node5</title>
<path fill="none" stroke="midnightblue" d="M563.771,-472.609C572.171,-475.061 580.45,-478.138 588,-482 607.324,-491.884 604.995,-504.516 624,-515 633.974,-520.502 645.29,-524.807 656.407,-528.153"/>
<polygon fill="midnightblue" stroke="midnightblue" points="655.514,-531.537 666.087,-530.853 657.395,-524.795 655.514,-531.537"/>
</g>
<!-- Node39&#45;&gt;Node20 -->
<g id="edge51" class="edge"><title>Node39&#45;&gt;Node20</title>
<path fill="none" stroke="midnightblue" d="M352.318,-263.288C357.379,-260.563 362.038,-257.182 366,-253 428.422,-187.122 332.399,-110.242 402,-52 474.385,8.57266 593.079,-13.8463 660.662,-33.9757"/>
<polygon fill="midnightblue" stroke="midnightblue" points="659.664,-37.3305 670.251,-36.9189 661.718,-30.6386 659.664,-37.3305"/>
</g>
</g>
</svg>
