<?xml version="1.0" encoding="UTF-8" standalone="no"?>
<!DOCTYPE svg PUBLIC "-//W3C//DTD SVG 1.1//EN"
 "http://www.w3.org/Graphics/SVG/1.1/DTD/svg11.dtd">
<!-- Generated by graphviz version 2.36.0 (20140111.2315)
 -->
<!-- Title: CellSociety.configureListeners Pages: 1 -->
<svg width="1562pt" height="703pt"
 viewBox="0.00 0.00 1562.00 703.01" xmlns="http://www.w3.org/2000/svg" xmlns:xlink="http://www.w3.org/1999/xlink">
<g id="graph0" class="graph" transform="scale(1 1) rotate(0) translate(4 699.011)">
<title>CellSociety.configureListeners</title>
<polygon fill="white" stroke="none" points="-4,4 -4,-699.011 1558,-699.011 1558,4 -4,4"/>
<!-- Node1 -->
<g id="node1" class="node"><title>Node1</title>
<polygon fill="#bfbfbf" stroke="black" points="0,-241.5 0,-260.5 158,-260.5 158,-241.5 0,-241.5"/>
<text text-anchor="middle" x="79" y="-248.5" font-family="Helvetica,sans-Serif" font-size="10.00">CellSociety.configureListeners</text>
</g>
<!-- Node2 -->
<g id="node2" class="node"><title>Node2</title>
<g id="a_node2"><a xlink:href="../../d3/dff/class_cell_society.html#a045267ba1843ca4a47891d7be73c2ac1" target="_top" xlink:title="CellSociety.decreaseFrameRate">
<polygon fill="white" stroke="black" points="196.5,-557.5 196.5,-576.5 363.5,-576.5 363.5,-557.5 196.5,-557.5"/>
<text text-anchor="middle" x="280" y="-564.5" font-family="Helvetica,sans-Serif" font-size="10.00">CellSociety.decreaseFrameRate</text>
</a>
</g>
</g>
<!-- Node1&#45;&gt;Node2 -->
<g id="edge1" class="edge"><title>Node1&#45;&gt;Node2</title>
<path fill="none" stroke="midnightblue" d="M83.1943,-260.736C94.5566,-294.467 135.487,-408.611 194,-488 212.347,-512.892 239.25,-536.335 257.853,-551.118"/>
<polygon fill="midnightblue" stroke="midnightblue" points="255.717,-553.89 265.756,-557.274 260.019,-548.368 255.717,-553.89"/>
</g>
<!-- Node6 -->
<g id="node6" class="node"><title>Node6</title>
<g id="a_node6"><a xlink:href="../../d3/dff/class_cell_society.html#a0ff19c30a1cc433d8ea8444f6a5617f1" target="_top" xlink:title="CellSociety.updateGrid">
<polygon fill="white" stroke="black" points="856,-551.5 856,-570.5 980,-570.5 980,-551.5 856,-551.5"/>
<text text-anchor="middle" x="918" y="-558.5" font-family="Helvetica,sans-Serif" font-size="10.00">CellSociety.updateGrid</text>
</a>
</g>
</g>
<!-- Node1&#45;&gt;Node6 -->
<g id="edge60" class="edge"><title>Node1&#45;&gt;Node6</title>
<path fill="none" stroke="midnightblue" d="M80.0333,-260.544C80.7407,-305.179 89.9609,-494.989 194,-586 397.667,-764.163 539.89,-685.234 802,-618 835.957,-609.29 871.61,-589.758 894.049,-575.995"/>
<polygon fill="midnightblue" stroke="midnightblue" points="895.918,-578.955 902.533,-570.678 892.201,-573.023 895.918,-578.955"/>
</g>
<!-- Node16 -->
<g id="node16" class="node"><title>Node16</title>
<g id="a_node16"><a xlink:href="../../df/df8/class_cell_society_view.html#ada088eb9125561f8dd941badb141fa86" target="_top" xlink:title="CellSocietyView.getPause\lElement">
<polygon fill="white" stroke="black" points="211.5,-214 211.5,-244 348.5,-244 348.5,-214 211.5,-214"/>
<text text-anchor="start" x="219.5" y="-232" font-family="Helvetica,sans-Serif" font-size="10.00">CellSocietyView.getPause</text>
<text text-anchor="middle" x="280" y="-221" font-family="Helvetica,sans-Serif" font-size="10.00">Element</text>
</a>
</g>
</g>
<!-- Node1&#45;&gt;Node16 -->
<g id="edge17" class="edge"><title>Node1&#45;&gt;Node16</title>
<path fill="none" stroke="midnightblue" d="M158.079,-242.368C172.274,-240.799 187.079,-239.162 201.264,-237.594"/>
<polygon fill="midnightblue" stroke="midnightblue" points="201.91,-241.044 211.465,-236.466 201.141,-234.086 201.91,-241.044"/>
</g>
<!-- Node17 -->
<g id="node17" class="node"><title>Node17</title>
<g id="a_node17"><a xlink:href="../../df/df8/class_cell_society_view.html#aae7c36ea6b5215b0ba9ee01c72dfcb94" target="_top" xlink:title="CellSocietyView.getPlayElement">
<polygon fill="white" stroke="black" points="196,-175.5 196,-194.5 364,-194.5 364,-175.5 196,-175.5"/>
<text text-anchor="middle" x="280" y="-182.5" font-family="Helvetica,sans-Serif" font-size="10.00">CellSocietyView.getPlayElement</text>
</a>
</g>
</g>
<!-- Node1&#45;&gt;Node17 -->
<g id="edge18" class="edge"><title>Node1&#45;&gt;Node17</title>
<path fill="none" stroke="midnightblue" d="M101.076,-241.365C123.692,-231.295 160.842,-215.523 194,-205 203.223,-202.073 213.131,-199.362 222.809,-196.942"/>
<polygon fill="midnightblue" stroke="midnightblue" points="223.878,-200.284 232.773,-194.528 222.23,-193.481 223.878,-200.284"/>
</g>
<!-- Node18 -->
<g id="node18" class="node"><title>Node18</title>
<g id="a_node18"><a xlink:href="../../df/df8/class_cell_society_view.html#a0f616a01579a7293ef781d3e341ea1ac" target="_top" xlink:title="CellSocietyView.getSlowdown\lElement">
<polygon fill="white" stroke="black" points="202.5,-126 202.5,-156 357.5,-156 357.5,-126 202.5,-126"/>
<text text-anchor="start" x="210.5" y="-144" font-family="Helvetica,sans-Serif" font-size="10.00">CellSocietyView.getSlowdown</text>
<text text-anchor="middle" x="280" y="-133" font-family="Helvetica,sans-Serif" font-size="10.00">Element</text>
</a>
</g>
</g>
<!-- Node1&#45;&gt;Node18 -->
<g id="edge19" class="edge"><title>Node1&#45;&gt;Node18</title>
<path fill="none" stroke="midnightblue" d="M90.158,-241.419C109.121,-224.018 151.819,-187.076 194,-166 198.612,-163.696 203.473,-161.566 208.439,-159.605"/>
<polygon fill="midnightblue" stroke="midnightblue" points="209.915,-162.791 218.081,-156.041 207.487,-156.226 209.915,-162.791"/>
</g>
<!-- Node19 -->
<g id="node19" class="node"><title>Node19</title>
<g id="a_node19"><a xlink:href="../../df/df8/class_cell_society_view.html#a572d464cbe7d186dc9a5b0e4a8130689" target="_top" xlink:title="CellSocietyView.getSpeedup\lElement">
<polygon fill="white" stroke="black" points="204,-77 204,-107 356,-107 356,-77 204,-77"/>
<text text-anchor="start" x="212" y="-95" font-family="Helvetica,sans-Serif" font-size="10.00">CellSocietyView.getSpeedup</text>
<text text-anchor="middle" x="280" y="-84" font-family="Helvetica,sans-Serif" font-size="10.00">Element</text>
</a>
</g>
</g>
<!-- Node1&#45;&gt;Node19 -->
<g id="edge20" class="edge"><title>Node1&#45;&gt;Node19</title>
<path fill="none" stroke="midnightblue" d="M85.5182,-241.225C99.9743,-216.515 141.487,-151.102 194,-117 197.153,-114.953 200.478,-113.068 203.914,-111.335"/>
<polygon fill="midnightblue" stroke="midnightblue" points="205.58,-114.422 213.227,-107.089 202.676,-108.053 205.58,-114.422"/>
</g>
<!-- Node20 -->
<g id="node20" class="node"><title>Node20</title>
<g id="a_node20"><a xlink:href="../../df/df8/class_cell_society_view.html#a3c3a7039f77d392c374cd309967ca1cc" target="_top" xlink:title="CellSocietyView.getStepElement">
<polygon fill="white" stroke="black" points="194.5,-38.5 194.5,-57.5 365.5,-57.5 365.5,-38.5 194.5,-38.5"/>
<text text-anchor="middle" x="280" y="-45.5" font-family="Helvetica,sans-Serif" font-size="10.00">CellSocietyView.getStepElement</text>
</a>
</g>
</g>
<!-- Node1&#45;&gt;Node20 -->
<g id="edge21" class="edge"><title>Node1&#45;&gt;Node20</title>
<path fill="none" stroke="midnightblue" d="M83.0468,-241.096C93.1649,-209.959 128.763,-113.378 194,-67 196.711,-65.0725 199.584,-63.3359 202.571,-61.7718"/>
<polygon fill="midnightblue" stroke="midnightblue" points="204.162,-64.8934 211.826,-57.5779 201.273,-58.5175 204.162,-64.8934"/>
</g>
<!-- Node21 -->
<g id="node21" class="node"><title>Node21</title>
<g id="a_node21"><a xlink:href="../../df/df8/class_cell_society_view.html#aebad9aaff0e9784fec1518d319e03c85" target="_top" xlink:title="CellSocietyView.getXMLElement">
<polygon fill="white" stroke="black" points="196,-0.5 196,-19.5 364,-19.5 364,-0.5 196,-0.5"/>
<text text-anchor="middle" x="280" y="-7.5" font-family="Helvetica,sans-Serif" font-size="10.00">CellSocietyView.getXMLElement</text>
</a>
</g>
</g>
<!-- Node1&#45;&gt;Node21 -->
<g id="edge22" class="edge"><title>Node1&#45;&gt;Node21</title>
<path fill="none" stroke="midnightblue" d="M81.9525,-241.117C89.426,-206.033 119.62,-86.507 194,-29 196.299,-27.2225 198.732,-25.6047 201.266,-24.1328"/>
<polygon fill="midnightblue" stroke="midnightblue" points="202.832,-27.263 210.221,-19.67 199.709,-20.9979 202.832,-27.263"/>
</g>
<!-- Node22 -->
<g id="node22" class="node"><title>Node22</title>
<g id="a_node22"><a xlink:href="../../d3/dff/class_cell_society.html#a8250bfacdaf51dabf6b9d1cafc0ce9b2" target="_top" xlink:title="CellSociety.increaseFrameRate">
<polygon fill="white" stroke="black" points="198.5,-459.5 198.5,-478.5 361.5,-478.5 361.5,-459.5 198.5,-459.5"/>
<text text-anchor="middle" x="280" y="-466.5" font-family="Helvetica,sans-Serif" font-size="10.00">CellSociety.increaseFrameRate</text>
</a>
</g>
</g>
<!-- Node1&#45;&gt;Node22 -->
<g id="edge23" class="edge"><title>Node1&#45;&gt;Node22</title>
<path fill="none" stroke="midnightblue" d="M88.8076,-260.648C119.759,-294.555 223.804,-408.534 263.465,-451.982"/>
<polygon fill="midnightblue" stroke="midnightblue" points="260.967,-454.437 270.294,-459.463 266.137,-449.718 260.967,-454.437"/>
</g>
<!-- Node23 -->
<g id="node23" class="node"><title>Node23</title>
<g id="a_node23"><a xlink:href="../../d3/dff/class_cell_society.html#ae565a305ea53e5a37da9816a236b4fbc" target="_top" xlink:title="CellSociety.pauseAnimation">
<polygon fill="white" stroke="black" points="420.5,-86.5 420.5,-105.5 569.5,-105.5 569.5,-86.5 420.5,-86.5"/>
<text text-anchor="middle" x="495" y="-93.5" font-family="Helvetica,sans-Serif" font-size="10.00">CellSociety.pauseAnimation</text>
</a>
</g>
</g>
<!-- Node1&#45;&gt;Node23 -->
<g id="edge25" class="edge"><title>Node1&#45;&gt;Node23</title>
<path fill="none" stroke="midnightblue" d="M95.8073,-260.563C142.896,-287.69 284.042,-358.967 366,-292 428.165,-241.206 345.321,-171.85 402,-115 404.753,-112.239 407.794,-109.828 411.045,-107.725"/>
<polygon fill="midnightblue" stroke="midnightblue" points="412.946,-110.677 420.089,-102.853 409.626,-104.515 412.946,-110.677"/>
</g>
<!-- Node25 -->
<g id="node25" class="node"><title>Node25</title>
<g id="a_node25"><a xlink:href="../../d3/dff/class_cell_society.html#af9f22af39a97a58b26126020ca6c8844" target="_top" xlink:title="CellSociety.readNewXML">
<polygon fill="white" stroke="black" points="214,-339.5 214,-358.5 346,-358.5 346,-339.5 214,-339.5"/>
<text text-anchor="middle" x="280" y="-346.5" font-family="Helvetica,sans-Serif" font-size="10.00">CellSociety.readNewXML</text>
</a>
</g>
</g>
<!-- Node1&#45;&gt;Node25 -->
<g id="edge27" class="edge"><title>Node1&#45;&gt;Node25</title>
<path fill="none" stroke="midnightblue" d="M91.9427,-260.509C111.959,-276.029 154.025,-306.885 194,-325 204.052,-329.555 215.17,-333.446 225.96,-336.686"/>
<polygon fill="midnightblue" stroke="midnightblue" points="225.16,-340.097 235.737,-339.478 227.083,-333.366 225.16,-340.097"/>
</g>
<!-- Node46 -->
<g id="node46" class="node"><title>Node46</title>
<g id="a_node46"><a xlink:href="../../d3/dff/class_cell_society.html#a6a4056cd40e4162583f2b9845b77a191" target="_top" xlink:title="CellSociety.resumeAnimation">
<polygon fill="white" stroke="black" points="202,-263.5 202,-282.5 358,-282.5 358,-263.5 202,-263.5"/>
<text text-anchor="middle" x="280" y="-270.5" font-family="Helvetica,sans-Serif" font-size="10.00">CellSociety.resumeAnimation</text>
</a>
</g>
</g>
<!-- Node1&#45;&gt;Node46 -->
<g id="edge58" class="edge"><title>Node1&#45;&gt;Node46</title>
<path fill="none" stroke="midnightblue" d="M158.079,-259.632C169.083,-260.848 180.455,-262.106 191.62,-263.34"/>
<polygon fill="midnightblue" stroke="midnightblue" points="191.475,-266.845 201.799,-264.465 192.244,-259.887 191.475,-266.845"/>
</g>
<!-- Node3 -->
<g id="node3" class="node"><title>Node3</title>
<g id="a_node3"><a xlink:href="../../d3/dff/class_cell_society.html#adc5feda3db5472cea4e092d463681033" target="_top" xlink:title="CellSociety.reframeTimeline">
<polygon fill="white" stroke="black" points="420.5,-598.5 420.5,-617.5 569.5,-617.5 569.5,-598.5 420.5,-598.5"/>
<text text-anchor="middle" x="495" y="-605.5" font-family="Helvetica,sans-Serif" font-size="10.00">CellSociety.reframeTimeline</text>
</a>
</g>
</g>
<!-- Node2&#45;&gt;Node3 -->
<g id="edge2" class="edge"><title>Node2&#45;&gt;Node3</title>
<path fill="none" stroke="midnightblue" d="M330.402,-576.509C361.475,-582.491 401.755,-590.244 434.571,-596.561"/>
<polygon fill="midnightblue" stroke="midnightblue" points="434.016,-600.018 444.498,-598.471 435.339,-593.144 434.016,-600.018"/>
</g>
<!-- Node4 -->
<g id="node4" class="node"><title>Node4</title>
<g id="a_node4"><a xlink:href="../../df/df8/class_cell_society_view.html#a99eb733c00ed7c1bcba8f2d684791a09" target="_top" xlink:title="CellSocietyView.displayFrameRate">
<polygon fill="white" stroke="black" points="624,-551.5 624,-570.5 802,-570.5 802,-551.5 624,-551.5"/>
<text text-anchor="middle" x="713" y="-558.5" font-family="Helvetica,sans-Serif" font-size="10.00">CellSocietyView.displayFrameRate</text>
</a>
</g>
</g>
<!-- Node3&#45;&gt;Node4 -->
<g id="edge3" class="edge"><title>Node3&#45;&gt;Node4</title>
<path fill="none" stroke="midnightblue" d="M544.306,-598.415C558.417,-595.509 573.848,-592.229 588,-589 604.079,-585.331 607.937,-583.741 624,-580 634.382,-577.582 645.479,-575.104 656.172,-572.769"/>
<polygon fill="midnightblue" stroke="midnightblue" points="657.232,-576.121 666.264,-570.581 655.749,-569.28 657.232,-576.121"/>
</g>
<!-- Node5 -->
<g id="node5" class="node"><title>Node5</title>
<g id="a_node5"><a xlink:href="../../d3/dff/class_cell_society.html#abf13a64ee79f2cb063447b499c695c58" target="_top" xlink:title="CellSociety.start">
<polygon fill="white" stroke="black" points="666.5,-589.5 666.5,-608.5 759.5,-608.5 759.5,-589.5 666.5,-589.5"/>
<text text-anchor="middle" x="713" y="-596.5" font-family="Helvetica,sans-Serif" font-size="10.00">CellSociety.start</text>
</a>
</g>
</g>
<!-- Node3&#45;&gt;Node5 -->
<g id="edge4" class="edge"><title>Node3&#45;&gt;Node5</title>
<path fill="none" stroke="midnightblue" d="M569.731,-604.928C597.999,-603.75 629.76,-602.427 656.091,-601.33"/>
<polygon fill="midnightblue" stroke="midnightblue" points="656.423,-604.819 666.268,-600.905 656.131,-597.825 656.423,-604.819"/>
</g>
<!-- Node5&#45;&gt;Node6 -->
<g id="edge5" class="edge"><title>Node5&#45;&gt;Node6</title>
<path fill="none" stroke="midnightblue" d="M759.557,-590.472C788.143,-585.121 825.337,-578.159 856.396,-572.345"/>
<polygon fill="midnightblue" stroke="midnightblue" points="857.061,-575.781 866.246,-570.501 855.773,-568.901 857.061,-575.781"/>
</g>
<!-- Node7 -->
<g id="node7" class="node"><title>Node7</title>
<g id="a_node7"><a xlink:href="../../d3/dff/class_cell_society.html#a64ebaee33d25e0e730024e67d5582c63" target="_top" xlink:title="CellSociety.updateColors">
<polygon fill="white" stroke="black" points="1050,-506.5 1050,-525.5 1184,-525.5 1184,-506.5 1050,-506.5"/>
<text text-anchor="middle" x="1117" y="-513.5" font-family="Helvetica,sans-Serif" font-size="10.00">CellSociety.updateColors</text>
</a>
</g>
</g>
<!-- Node6&#45;&gt;Node7 -->
<g id="edge6" class="edge"><title>Node6&#45;&gt;Node7</title>
<path fill="none" stroke="midnightblue" d="M960.779,-551.457C990.945,-544.566 1031.88,-535.215 1064.14,-527.847"/>
<polygon fill="midnightblue" stroke="midnightblue" points="1065.31,-531.169 1074.28,-525.53 1063.75,-524.344 1065.31,-531.169"/>
</g>
<!-- Node9 -->
<g id="node9" class="node"><title>Node9</title>
<g id="a_node9"><a xlink:href="../../d2/d95/class_x_m_l_parser.html#ac4e3257aed1deb9fe950149f706fce5b" target="_top" xlink:title="XMLParser.getCellParamList">
<polygon fill="white" stroke="black" points="1236.5,-386.5 1236.5,-405.5 1385.5,-405.5 1385.5,-386.5 1236.5,-386.5"/>
<text text-anchor="middle" x="1311" y="-393.5" font-family="Helvetica,sans-Serif" font-size="10.00">XMLParser.getCellParamList</text>
</a>
</g>
</g>
<!-- Node6&#45;&gt;Node9 -->
<g id="edge14" class="edge"><title>Node6&#45;&gt;Node9</title>
<path fill="none" stroke="midnightblue" d="M980.237,-552.767C986.706,-550.071 992.806,-546.561 998,-542 1031.62,-512.483 999.658,-476.671 1034,-448 1087.16,-403.616 1166.29,-392.476 1226.21,-391.352"/>
<polygon fill="midnightblue" stroke="midnightblue" points="1226.44,-394.851 1236.41,-391.254 1226.38,-387.851 1226.44,-394.851"/>
</g>
<!-- Node11 -->
<g id="node11" class="node"><title>Node11</title>
<g id="a_node11"><a xlink:href="../../d8/d87/class_controller.html#aa8f10b5f28542d34053a7e4d5f1d6013" target="_top" xlink:title="Controller.runOneSim">
<polygon fill="white" stroke="black" points="1057.5,-547.5 1057.5,-566.5 1176.5,-566.5 1176.5,-547.5 1057.5,-547.5"/>
<text text-anchor="middle" x="1117" y="-554.5" font-family="Helvetica,sans-Serif" font-size="10.00">Controller.runOneSim</text>
</a>
</g>
</g>
<!-- Node6&#45;&gt;Node11 -->
<g id="edge10" class="edge"><title>Node6&#45;&gt;Node11</title>
<path fill="none" stroke="midnightblue" d="M980.252,-559.756C1001.51,-559.325 1025.48,-558.838 1047.3,-558.395"/>
<polygon fill="midnightblue" stroke="midnightblue" points="1047.55,-561.891 1057.48,-558.188 1047.41,-554.892 1047.55,-561.891"/>
</g>
<!-- Node12 -->
<g id="node12" class="node"><title>Node12</title>
<g id="a_node12"><a xlink:href="../../df/df8/class_cell_society_view.html#a43ac2666d3a002024be53fe74028a576" target="_top" xlink:title="CellSocietyView.updateSimGrid">
<polygon fill="white" stroke="black" points="1034.5,-585.5 1034.5,-604.5 1199.5,-604.5 1199.5,-585.5 1034.5,-585.5"/>
<text text-anchor="middle" x="1117" y="-592.5" font-family="Helvetica,sans-Serif" font-size="10.00">CellSocietyView.updateSimGrid</text>
</a>
</g>
</g>
<!-- Node6&#45;&gt;Node12 -->
<g id="edge11" class="edge"><title>Node6&#45;&gt;Node12</title>
<path fill="none" stroke="midnightblue" d="M974.137,-570.516C997.948,-574.626 1025.98,-579.464 1050.81,-583.75"/>
<polygon fill="midnightblue" stroke="midnightblue" points="1050.43,-587.234 1060.88,-585.486 1051.62,-580.336 1050.43,-587.234"/>
</g>
<!-- Node15 -->
<g id="node15" class="node"><title>Node15</title>
<g id="a_node15"><a xlink:href="../../df/df8/class_cell_society_view.html#a7ca77bdfdef97e9be9c9941c2f4d3513" target="_top" xlink:title="CellSocietyView.updateChart\lLines">
<polygon fill="white" stroke="black" points="1040.5,-457 1040.5,-487 1193.5,-487 1193.5,-457 1040.5,-457"/>
<text text-anchor="start" x="1048.5" y="-475" font-family="Helvetica,sans-Serif" font-size="10.00">CellSocietyView.updateChart</text>
<text text-anchor="middle" x="1117" y="-464" font-family="Helvetica,sans-Serif" font-size="10.00">Lines</text>
</a>
</g>
</g>
<!-- Node6&#45;&gt;Node15 -->
<g id="edge15" class="edge"><title>Node6&#45;&gt;Node15</title>
<path fill="none" stroke="midnightblue" d="M978.162,-551.384C985.14,-548.933 991.928,-545.858 998,-542 1019.62,-528.264 1012.8,-511.377 1034,-497 1036.92,-495.018 1040.01,-493.19 1043.2,-491.502"/>
<polygon fill="midnightblue" stroke="midnightblue" points="1044.9,-494.567 1052.43,-487.111 1041.9,-488.245 1044.9,-494.567"/>
</g>
<!-- Node8 -->
<g id="node8" class="node"><title>Node8</title>
<g id="a_node8"><a xlink:href="../../dd/d11/class_cell.html#a7f8d2520a26a1376a44372149e561f6b" target="_top" xlink:title="Cell.toString">
<polygon fill="white" stroke="black" points="1273.5,-465.5 1273.5,-484.5 1348.5,-484.5 1348.5,-465.5 1273.5,-465.5"/>
<text text-anchor="middle" x="1311" y="-472.5" font-family="Helvetica,sans-Serif" font-size="10.00">Cell.toString</text>
</a>
</g>
</g>
<!-- Node7&#45;&gt;Node8 -->
<g id="edge7" class="edge"><title>Node7&#45;&gt;Node8</title>
<path fill="none" stroke="midnightblue" d="M1162.53,-506.491C1192.79,-500.03 1232.73,-491.501 1263.41,-484.949"/>
<polygon fill="midnightblue" stroke="midnightblue" points="1264.39,-488.32 1273.43,-482.808 1262.92,-481.474 1264.39,-488.32"/>
</g>
<!-- Node7&#45;&gt;Node9 -->
<g id="edge8" class="edge"><title>Node7&#45;&gt;Node9</title>
<path fill="none" stroke="midnightblue" d="M1176.19,-506.438C1184.51,-503.77 1192.7,-500.359 1200,-496 1220.53,-483.732 1218.66,-472.471 1236,-456 1252.84,-440.004 1273.48,-423.502 1288.67,-411.862"/>
<polygon fill="midnightblue" stroke="midnightblue" points="1291.06,-414.441 1296.92,-405.612 1286.84,-408.861 1291.06,-414.441"/>
</g>
<!-- Node10 -->
<g id="node10" class="node"><title>Node10</title>
<g id="a_node10"><a xlink:href="../../dd/d11/class_cell.html#a03cf6177b031a2270a723aa5977b812e" target="_top" xlink:title="Cell.setColor">
<polygon fill="white" stroke="black" points="1272.5,-506.5 1272.5,-525.5 1349.5,-525.5 1349.5,-506.5 1272.5,-506.5"/>
<text text-anchor="middle" x="1311" y="-513.5" font-family="Helvetica,sans-Serif" font-size="10.00">Cell.setColor</text>
</a>
</g>
</g>
<!-- Node7&#45;&gt;Node10 -->
<g id="edge9" class="edge"><title>Node7&#45;&gt;Node10</title>
<path fill="none" stroke="midnightblue" d="M1184.08,-516C1209.78,-516 1238.66,-516 1262.27,-516"/>
<polygon fill="midnightblue" stroke="midnightblue" points="1262.38,-519.5 1272.38,-516 1262.38,-512.5 1262.38,-519.5"/>
</g>
<!-- Node13 -->
<g id="node13" class="node"><title>Node13</title>
<g id="a_node13"><a xlink:href="../../d8/ddc/class_abstract_grid.html#a7199d87b68fce950300e23297a0ff44b" target="_top" xlink:title="AbstractGrid.update">
<polygon fill="white" stroke="black" points="1254.5,-585.5 1254.5,-604.5 1367.5,-604.5 1367.5,-585.5 1254.5,-585.5"/>
<text text-anchor="middle" x="1311" y="-592.5" font-family="Helvetica,sans-Serif" font-size="10.00">AbstractGrid.update</text>
</a>
</g>
</g>
<!-- Node12&#45;&gt;Node13 -->
<g id="edge12" class="edge"><title>Node12&#45;&gt;Node13</title>
<path fill="none" stroke="midnightblue" d="M1199.7,-595C1214.57,-595 1229.9,-595 1244.24,-595"/>
<polygon fill="midnightblue" stroke="midnightblue" points="1244.47,-598.5 1254.47,-595 1244.47,-591.5 1244.47,-598.5"/>
</g>
<!-- Node14 -->
<g id="node14" class="node"><title>Node14</title>
<g id="a_node14"><a xlink:href="../../d8/ddc/class_abstract_grid.html#a2b7c26a0ddce10dd7644a8e4d5bf8453" target="_top" xlink:title="AbstractGrid.displayGrid">
<polygon fill="white" stroke="black" points="1422,-585.5 1422,-604.5 1554,-604.5 1554,-585.5 1422,-585.5"/>
<text text-anchor="middle" x="1488" y="-592.5" font-family="Helvetica,sans-Serif" font-size="10.00">AbstractGrid.displayGrid</text>
</a>
</g>
</g>
<!-- Node13&#45;&gt;Node14 -->
<g id="edge13" class="edge"><title>Node13&#45;&gt;Node14</title>
<path fill="none" stroke="midnightblue" d="M1367.85,-595C1381.83,-595 1397.06,-595 1411.8,-595"/>
<polygon fill="midnightblue" stroke="midnightblue" points="1411.92,-598.5 1421.92,-595 1411.92,-591.5 1411.92,-598.5"/>
</g>
<!-- Node15&#45;&gt;Node8 -->
<g id="edge16" class="edge"><title>Node15&#45;&gt;Node8</title>
<path fill="none" stroke="midnightblue" d="M1193.61,-473.181C1217.04,-473.547 1242.17,-473.94 1263.06,-474.267"/>
<polygon fill="midnightblue" stroke="midnightblue" points="1263.2,-477.769 1273.26,-474.426 1263.31,-470.77 1263.2,-477.769"/>
</g>
<!-- Node22&#45;&gt;Node3 -->
<g id="edge24" class="edge"><title>Node22&#45;&gt;Node3</title>
<path fill="none" stroke="midnightblue" d="M292.067,-478.636C308.616,-493.188 340.582,-521.853 366,-548 382.903,-565.388 381.04,-576.805 402,-589 405.727,-591.168 409.665,-593.092 413.731,-594.797"/>
<polygon fill="midnightblue" stroke="midnightblue" points="412.82,-598.192 423.412,-598.394 415.258,-591.63 412.82,-598.192"/>
</g>
<!-- Node24 -->
<g id="node24" class="node"><title>Node24</title>
<g id="a_node24"><a xlink:href="../../df/df8/class_cell_society_view.html#ae83511f9bf3610b0750d41c4aeb0f778" target="_top" xlink:title="CellSocietyView.setButtons\lPause">
<polygon fill="white" stroke="black" points="640,-59 640,-89 786,-89 786,-59 640,-59"/>
<text text-anchor="start" x="648" y="-77" font-family="Helvetica,sans-Serif" font-size="10.00">CellSocietyView.setButtons</text>
<text text-anchor="middle" x="713" y="-66" font-family="Helvetica,sans-Serif" font-size="10.00">Pause</text>
</a>
</g>
</g>
<!-- Node23&#45;&gt;Node24 -->
<g id="edge26" class="edge"><title>Node23&#45;&gt;Node24</title>
<path fill="none" stroke="midnightblue" d="M569.731,-88.4904C588.984,-86.5294 609.859,-84.4033 629.534,-82.3993"/>
<polygon fill="midnightblue" stroke="midnightblue" points="630.105,-85.8594 639.699,-81.364 629.395,-78.8954 630.105,-85.8594"/>
</g>
<!-- Node25&#45;&gt;Node4 -->
<g id="edge54" class="edge"><title>Node25&#45;&gt;Node4</title>
<path fill="none" stroke="midnightblue" d="M290.066,-358.558C306.328,-375.954 341.078,-414.293 366,-450 384.458,-476.445 375.432,-494.721 402,-513 419.515,-525.051 531.003,-540.259 615.305,-550.29"/>
<polygon fill="midnightblue" stroke="midnightblue" points="615.101,-553.79 625.443,-551.487 615.922,-546.838 615.101,-553.79"/>
</g>
<!-- Node25&#45;&gt;Node9 -->
<g id="edge55" class="edge"><title>Node25&#45;&gt;Node9</title>
<path fill="none" stroke="midnightblue" d="M322.631,-339.467C337.226,-334.837 353.164,-328.222 366,-319 387.083,-303.852 379.943,-286.692 402,-273 487.61,-219.858 523.763,-237.276 624,-227 790.769,-209.904 838.149,-225.486 998,-276 1102.67,-309.076 1222.99,-358.782 1278.69,-382.489"/>
<polygon fill="midnightblue" stroke="midnightblue" points="1277.44,-385.76 1288.01,-386.469 1280.19,-379.322 1277.44,-385.76"/>
</g>
<!-- Node25&#45;&gt;Node15 -->
<g id="edge57" class="edge"><title>Node25&#45;&gt;Node15</title>
<path fill="none" stroke="midnightblue" d="M325.211,-339.469C386.498,-328.344 499.695,-315.427 588,-349 608.01,-356.608 604.768,-371.597 624,-381 694.21,-415.329 908.798,-446.358 1030.11,-461.766"/>
<polygon fill="midnightblue" stroke="midnightblue" points="1029.76,-465.249 1040.12,-463.028 1030.63,-458.304 1029.76,-465.249"/>
</g>
<!-- Node25&#45;&gt;Node23 -->
<g id="edge53" class="edge"><title>Node25&#45;&gt;Node23</title>
<path fill="none" stroke="midnightblue" d="M345.483,-339.442C353.218,-335.953 360.359,-331.269 366,-325 429.339,-254.606 336.184,-183.084 402,-115 404.852,-112.05 408.031,-109.497 411.447,-107.29"/>
<polygon fill="midnightblue" stroke="midnightblue" points="413.221,-110.31 420.37,-102.491 409.905,-104.145 413.221,-110.31"/>
</g>
<!-- Node26 -->
<g id="node26" class="node"><title>Node26</title>
<g id="a_node26"><a xlink:href="../../df/df8/class_cell_society_view.html#a053b6ef6afa80722445223c4e373e51c" target="_top" xlink:title="CellSocietyView.displayXMLChooser">
<polygon fill="white" stroke="black" points="402.5,-124.5 402.5,-143.5 587.5,-143.5 587.5,-124.5 402.5,-124.5"/>
<text text-anchor="middle" x="495" y="-131.5" font-family="Helvetica,sans-Serif" font-size="10.00">CellSocietyView.displayXMLChooser</text>
</a>
</g>
</g>
<!-- Node25&#45;&gt;Node26 -->
<g id="edge28" class="edge"><title>Node25&#45;&gt;Node26</title>
<path fill="none" stroke="midnightblue" d="M344.849,-339.437C352.777,-335.957 360.141,-331.277 366,-325 419.292,-267.906 346.701,-208.152 402,-153 403.27,-151.733 404.601,-150.54 405.985,-149.417"/>
<polygon fill="midnightblue" stroke="midnightblue" points="408.104,-152.21 414.441,-143.719 404.192,-146.405 408.104,-152.21"/>
</g>
<!-- Node27 -->
<g id="node27" class="node"><title>Node27</title>
<g id="a_node27"><a xlink:href="../../d2/d95/class_x_m_l_parser.html#a77ee23818c822b69cdf4200eef726a61" target="_top" xlink:title="XMLParser.parseXMLFile">
<polygon fill="white" stroke="black" points="430,-446.5 430,-465.5 560,-465.5 560,-446.5 430,-446.5"/>
<text text-anchor="middle" x="495" y="-453.5" font-family="Helvetica,sans-Serif" font-size="10.00">XMLParser.parseXMLFile</text>
</a>
</g>
</g>
<!-- Node25&#45;&gt;Node27 -->
<g id="edge29" class="edge"><title>Node25&#45;&gt;Node27</title>
<path fill="none" stroke="midnightblue" d="M291.088,-358.525C310.772,-376.558 356.378,-415.697 402,-436 408.673,-438.97 415.82,-441.512 423.072,-443.686"/>
<polygon fill="midnightblue" stroke="midnightblue" points="422.42,-447.137 432.991,-446.427 424.285,-440.39 422.42,-447.137"/>
</g>
<!-- Node31 -->
<g id="node31" class="node"><title>Node31</title>
<g id="a_node31"><a xlink:href="../../d3/dff/class_cell_society.html#abfbf43ce46b4c82c16a2d933b6a11abf" target="_top" xlink:title="CellSociety.retrieveParserInfo">
<polygon fill="white" stroke="black" points="417.5,-162.5 417.5,-181.5 572.5,-181.5 572.5,-162.5 417.5,-162.5"/>
<text text-anchor="middle" x="495" y="-169.5" font-family="Helvetica,sans-Serif" font-size="10.00">CellSociety.retrieveParserInfo</text>
</a>
</g>
</g>
<!-- Node25&#45;&gt;Node31 -->
<g id="edge33" class="edge"><title>Node25&#45;&gt;Node31</title>
<path fill="none" stroke="midnightblue" d="M343.619,-339.441C351.924,-335.975 359.721,-331.298 366,-325 408.026,-282.846 359.555,-237.731 402,-196 405.973,-192.094 410.497,-188.801 415.358,-186.027"/>
<polygon fill="midnightblue" stroke="midnightblue" points="416.993,-189.124 424.426,-181.574 413.907,-182.84 416.993,-189.124"/>
</g>
<!-- Node32 -->
<g id="node32" class="node"><title>Node32</title>
<g id="a_node32"><a xlink:href="../../d2/d95/class_x_m_l_parser.html#aea9b535964c91fa3c3d2b1c0b6a334c2" target="_top" xlink:title="XMLParser.getInitParamMap">
<polygon fill="white" stroke="black" points="638.5,-159.5 638.5,-178.5 787.5,-178.5 787.5,-159.5 638.5,-159.5"/>
<text text-anchor="middle" x="713" y="-166.5" font-family="Helvetica,sans-Serif" font-size="10.00">XMLParser.getInitParamMap</text>
</a>
</g>
</g>
<!-- Node25&#45;&gt;Node32 -->
<g id="edge52" class="edge"><title>Node25&#45;&gt;Node32</title>
<path fill="none" stroke="midnightblue" d="M329.812,-339.387C342.789,-334.928 355.968,-328.435 366,-319 395.886,-290.893 370.318,-260.065 402,-234 411.622,-226.084 563.038,-196.79 650.625,-180.361"/>
<polygon fill="midnightblue" stroke="midnightblue" points="651.27,-183.801 660.456,-178.521 649.982,-176.92 651.27,-183.801"/>
</g>
<!-- Node34 -->
<g id="node34" class="node"><title>Node34</title>
<g id="a_node34"><a xlink:href="../../d3/dff/class_cell_society.html#a7a6dab68551f91cc4b120faa51670bf8" target="_top" xlink:title="CellSociety.createCellArray">
<polygon fill="white" stroke="black" points="423,-282.5 423,-301.5 567,-301.5 567,-282.5 423,-282.5"/>
<text text-anchor="middle" x="495" y="-289.5" font-family="Helvetica,sans-Serif" font-size="10.00">CellSociety.createCellArray</text>
</a>
</g>
</g>
<!-- Node25&#45;&gt;Node34 -->
<g id="edge36" class="edge"><title>Node25&#45;&gt;Node34</title>
<path fill="none" stroke="midnightblue" d="M315.657,-339.439C339.836,-332.795 372.862,-323.774 402,-316 416.643,-312.093 432.616,-307.902 447.082,-304.132"/>
<polygon fill="midnightblue" stroke="midnightblue" points="448.025,-307.504 456.821,-301.599 446.262,-300.729 448.025,-307.504"/>
</g>
<!-- Node40 -->
<g id="node40" class="node"><title>Node40</title>
<g id="a_node40"><a xlink:href="../../df/df8/class_cell_society_view.html#ab0adb0e17b74be4e0192b02e2116e4a1" target="_top" xlink:title="CellSocietyView.openDialogBox">
<polygon fill="white" stroke="black" points="412.5,-484.5 412.5,-503.5 577.5,-503.5 577.5,-484.5 412.5,-484.5"/>
<text text-anchor="middle" x="495" y="-491.5" font-family="Helvetica,sans-Serif" font-size="10.00">CellSocietyView.openDialogBox</text>
</a>
</g>
</g>
<!-- Node25&#45;&gt;Node40 -->
<g id="edge46" class="edge"><title>Node25&#45;&gt;Node40</title>
<path fill="none" stroke="midnightblue" d="M287.246,-358.781C303.162,-382.836 347.843,-445.086 402,-475 406.153,-477.294 410.551,-479.312 415.084,-481.088"/>
<polygon fill="midnightblue" stroke="midnightblue" points="413.948,-484.398 424.543,-484.401 416.262,-477.792 413.948,-484.398"/>
</g>
<!-- Node41 -->
<g id="node41" class="node"><title>Node41</title>
<g id="a_node41"><a xlink:href="../../d3/dff/class_cell_society.html#ab9e56a2a70e210e021b51e898508329b" target="_top" xlink:title="CellSociety.setupAnimation">
<polygon fill="white" stroke="black" points="422,-560.5 422,-579.5 568,-579.5 568,-560.5 422,-560.5"/>
<text text-anchor="middle" x="495" y="-567.5" font-family="Helvetica,sans-Serif" font-size="10.00">CellSociety.setupAnimation</text>
</a>
</g>
</g>
<!-- Node25&#45;&gt;Node41 -->
<g id="edge47" class="edge"><title>Node25&#45;&gt;Node41</title>
<path fill="none" stroke="midnightblue" d="M291.202,-358.72C308.604,-375.771 344.249,-412.807 366,-450 389.004,-489.335 368.154,-515.49 402,-546 406.477,-550.036 411.549,-553.408 416.954,-556.225"/>
<polygon fill="midnightblue" stroke="midnightblue" points="415.767,-559.529 426.321,-560.46 418.65,-553.151 415.767,-559.529"/>
</g>
<!-- Node42 -->
<g id="node42" class="node"><title>Node42</title>
<g id="a_node42"><a xlink:href="../../df/df8/class_cell_society_view.html#a068f17fd6777087a8debf1f67b576836" target="_top" xlink:title="CellSocietyView.setupInitialGrid">
<polygon fill="white" stroke="black" points="413,-358.5 413,-377.5 577,-377.5 577,-358.5 413,-358.5"/>
<text text-anchor="middle" x="495" y="-365.5" font-family="Helvetica,sans-Serif" font-size="10.00">CellSocietyView.setupInitialGrid</text>
</a>
</g>
</g>
<!-- Node25&#45;&gt;Node42 -->
<g id="edge49" class="edge"><title>Node25&#45;&gt;Node42</title>
<path fill="none" stroke="midnightblue" d="M346.064,-354.804C363.902,-356.395 383.576,-358.15 402.595,-359.846"/>
<polygon fill="midnightblue" stroke="midnightblue" points="402.5,-363.352 412.771,-360.754 403.122,-356.38 402.5,-363.352"/>
</g>
<!-- Node45 -->
<g id="node45" class="node"><title>Node45</title>
<g id="a_node45"><a xlink:href="../../df/df8/class_cell_society_view.html#a930d889b8619ae93731b8542ce285180" target="_top" xlink:title="CellSocietyView.generate\lChartLines">
<polygon fill="white" stroke="black" points="426.5,-397 426.5,-427 563.5,-427 563.5,-397 426.5,-397"/>
<text text-anchor="start" x="434.5" y="-415" font-family="Helvetica,sans-Serif" font-size="10.00">CellSocietyView.generate</text>
<text text-anchor="middle" x="495" y="-404" font-family="Helvetica,sans-Serif" font-size="10.00">ChartLines</text>
</a>
</g>
</g>
<!-- Node25&#45;&gt;Node45 -->
<g id="edge56" class="edge"><title>Node25&#45;&gt;Node45</title>
<path fill="none" stroke="midnightblue" d="M310.243,-358.535C334.69,-366.421 370.514,-377.782 402,-387 410.106,-389.373 418.636,-391.794 427.099,-394.148"/>
<polygon fill="midnightblue" stroke="midnightblue" points="426.403,-397.587 436.974,-396.875 428.266,-390.84 426.403,-397.587"/>
</g>
<!-- Node28 -->
<g id="node28" class="node"><title>Node28</title>
<g id="a_node28"><a xlink:href="../../d2/d95/class_x_m_l_parser.html#ae67767f9678fb650ac38b1321ea9f723" target="_top" xlink:title="XMLParser.parseInitialTags">
<polygon fill="white" stroke="black" points="642.5,-513.5 642.5,-532.5 783.5,-532.5 783.5,-513.5 642.5,-513.5"/>
<text text-anchor="middle" x="713" y="-520.5" font-family="Helvetica,sans-Serif" font-size="10.00">XMLParser.parseInitialTags</text>
</a>
</g>
</g>
<!-- Node27&#45;&gt;Node28 -->
<g id="edge30" class="edge"><title>Node27&#45;&gt;Node28</title>
<path fill="none" stroke="midnightblue" d="M560.133,-465.143C569.72,-467.671 579.298,-470.894 588,-475 606.581,-483.768 605.459,-495.149 624,-504 629.241,-506.502 634.814,-508.678 640.513,-510.57"/>
<polygon fill="midnightblue" stroke="midnightblue" points="639.601,-513.95 650.186,-513.493 641.626,-507.249 639.601,-513.95"/>
</g>
<!-- Node29 -->
<g id="node29" class="node"><title>Node29</title>
<g id="a_node29"><a xlink:href="../../d2/d95/class_x_m_l_parser.html#a09c6848239104ae94825c045796dddd0" target="_top" xlink:title="XMLParser.makeParamMap">
<polygon fill="white" stroke="black" points="845,-513.5 845,-532.5 991,-532.5 991,-513.5 845,-513.5"/>
<text text-anchor="middle" x="918" y="-520.5" font-family="Helvetica,sans-Serif" font-size="10.00">XMLParser.makeParamMap</text>
</a>
</g>
</g>
<!-- Node28&#45;&gt;Node29 -->
<g id="edge31" class="edge"><title>Node28&#45;&gt;Node29</title>
<path fill="none" stroke="midnightblue" d="M783.577,-523C799.925,-523 817.504,-523 834.362,-523"/>
<polygon fill="midnightblue" stroke="midnightblue" points="834.749,-526.5 844.749,-523 834.749,-519.5 834.749,-526.5"/>
</g>
<!-- Node30 -->
<g id="node30" class="node"><title>Node30</title>
<g id="a_node30"><a xlink:href="../../d2/d95/class_x_m_l_parser.html#a5a419f71699eb7d3d76ee238fb262a5f" target="_top" xlink:title="XMLParser.makeCellParamList">
<polygon fill="white" stroke="black" points="838,-475.5 838,-494.5 998,-494.5 998,-475.5 838,-475.5"/>
<text text-anchor="middle" x="918" y="-482.5" font-family="Helvetica,sans-Serif" font-size="10.00">XMLParser.makeCellParamList</text>
</a>
</g>
</g>
<!-- Node28&#45;&gt;Node30 -->
<g id="edge32" class="edge"><title>Node28&#45;&gt;Node30</title>
<path fill="none" stroke="midnightblue" d="M764.963,-513.46C792.594,-508.288 826.933,-501.86 855.981,-496.422"/>
<polygon fill="midnightblue" stroke="midnightblue" points="856.83,-499.824 866.016,-494.544 855.542,-492.944 856.83,-499.824"/>
</g>
<!-- Node31&#45;&gt;Node32 -->
<g id="edge34" class="edge"><title>Node31&#45;&gt;Node32</title>
<path fill="none" stroke="midnightblue" d="M572.762,-170.934C590.769,-170.684 610.043,-170.416 628.335,-170.162"/>
<polygon fill="midnightblue" stroke="midnightblue" points="628.432,-173.661 638.382,-170.022 628.335,-166.662 628.432,-173.661"/>
</g>
<!-- Node33 -->
<g id="node33" class="node"><title>Node33</title>
<g id="a_node33"><a xlink:href="../../d2/d95/class_x_m_l_parser.html#a0df3a2904766f59d1246cb55416f8146" target="_top" xlink:title="XMLParser.getSimParamMap">
<polygon fill="white" stroke="black" points="636,-121.5 636,-140.5 790,-140.5 790,-121.5 636,-121.5"/>
<text text-anchor="middle" x="713" y="-128.5" font-family="Helvetica,sans-Serif" font-size="10.00">XMLParser.getSimParamMap</text>
</a>
</g>
</g>
<!-- Node31&#45;&gt;Node33 -->
<g id="edge35" class="edge"><title>Node31&#45;&gt;Node33</title>
<path fill="none" stroke="midnightblue" d="M546.098,-162.491C577.609,-156.509 618.456,-148.756 651.734,-142.439"/>
<polygon fill="midnightblue" stroke="midnightblue" points="652.628,-145.832 661.8,-140.529 651.323,-138.955 652.628,-145.832"/>
</g>
<!-- Node34&#45;&gt;Node9 -->
<g id="edge38" class="edge"><title>Node34&#45;&gt;Node9</title>
<path fill="none" stroke="midnightblue" d="M551.862,-301.525C564.254,-304.993 576.972,-309.681 588,-316 607.633,-327.249 603.375,-342.693 624,-352 740.898,-404.752 1072.04,-379.349 1200,-388 1208.54,-388.577 1217.44,-389.197 1226.33,-389.826"/>
<polygon fill="midnightblue" stroke="midnightblue" points="1226.12,-393.319 1236.34,-390.539 1226.62,-386.337 1226.12,-393.319"/>
</g>
<!-- Node34&#45;&gt;Node32 -->
<g id="edge37" class="edge"><title>Node34&#45;&gt;Node32</title>
<path fill="none" stroke="midnightblue" d="M512.949,-282.348C550.646,-260.882 641.62,-209.078 686.327,-183.619"/>
<polygon fill="midnightblue" stroke="midnightblue" points="688.172,-186.597 695.13,-178.607 684.708,-180.514 688.172,-186.597"/>
</g>
<!-- Node35 -->
<g id="node35" class="node"><title>Node35</title>
<g id="a_node35"><a xlink:href="../../d3/dff/class_cell_society.html#a276d7f4c12da9d40e8720f762b47592a" target="_top" xlink:title="CellSociety.populateProbabilities">
<polygon fill="white" stroke="black" points="628,-285.5 628,-304.5 798,-304.5 798,-285.5 628,-285.5"/>
<text text-anchor="middle" x="713" y="-292.5" font-family="Helvetica,sans-Serif" font-size="10.00">CellSociety.populateProbabilities</text>
</a>
</g>
</g>
<!-- Node34&#45;&gt;Node35 -->
<g id="edge39" class="edge"><title>Node34&#45;&gt;Node35</title>
<path fill="none" stroke="midnightblue" d="M567.026,-292.986C583.114,-293.21 600.448,-293.451 617.339,-293.685"/>
<polygon fill="midnightblue" stroke="midnightblue" points="617.737,-297.191 627.784,-293.83 617.834,-290.192 617.737,-297.191"/>
</g>
<!-- Node37 -->
<g id="node37" class="node"><title>Node37</title>
<g id="a_node37"><a xlink:href="../../d3/dff/class_cell_society.html#a5c0b747b2fbaaa317266890c48e0267f" target="_top" xlink:title="CellSociety.populateLocations">
<polygon fill="white" stroke="black" points="634,-323.5 634,-342.5 792,-342.5 792,-323.5 634,-323.5"/>
<text text-anchor="middle" x="713" y="-330.5" font-family="Helvetica,sans-Serif" font-size="10.00">CellSociety.populateLocations</text>
</a>
</g>
</g>
<!-- Node34&#45;&gt;Node37 -->
<g id="edge41" class="edge"><title>Node34&#45;&gt;Node37</title>
<path fill="none" stroke="midnightblue" d="M546.098,-301.509C577.609,-307.491 618.456,-315.244 651.734,-321.561"/>
<polygon fill="midnightblue" stroke="midnightblue" points="651.323,-325.045 661.8,-323.471 652.628,-318.168 651.323,-325.045"/>
</g>
<!-- Node39 -->
<g id="node39" class="node"><title>Node39</title>
<g id="a_node39"><a xlink:href="../../d3/dff/class_cell_society.html#a7ef59819b70a8f07c010bd2bb28b7740" target="_top" xlink:title="CellSociety.populateRemaining\lState">
<polygon fill="white" stroke="black" points="632,-236 632,-266 794,-266 794,-236 632,-236"/>
<text text-anchor="start" x="640" y="-254" font-family="Helvetica,sans-Serif" font-size="10.00">CellSociety.populateRemaining</text>
<text text-anchor="middle" x="713" y="-243" font-family="Helvetica,sans-Serif" font-size="10.00">State</text>
</a>
</g>
</g>
<!-- Node34&#45;&gt;Node39 -->
<g id="edge44" class="edge"><title>Node34&#45;&gt;Node39</title>
<path fill="none" stroke="midnightblue" d="M546.098,-282.491C568.862,-278.17 596.5,-272.924 622.636,-267.963"/>
<polygon fill="midnightblue" stroke="midnightblue" points="623.395,-271.381 632.566,-266.078 622.089,-264.504 623.395,-271.381"/>
</g>
<!-- Node36 -->
<g id="node36" class="node"><title>Node36</title>
<g id="a_node36"><a xlink:href="../../d3/dff/class_cell_society.html#a117f1698760a3f6bbe51bd7af16f79bb" target="_top" xlink:title="CellSociety.createCellInstance">
<polygon fill="white" stroke="black" points="838.5,-285.5 838.5,-304.5 997.5,-304.5 997.5,-285.5 838.5,-285.5"/>
<text text-anchor="middle" x="918" y="-292.5" font-family="Helvetica,sans-Serif" font-size="10.00">CellSociety.createCellInstance</text>
</a>
</g>
</g>
<!-- Node35&#45;&gt;Node36 -->
<g id="edge40" class="edge"><title>Node35&#45;&gt;Node36</title>
<path fill="none" stroke="midnightblue" d="M798.033,-295C807.91,-295 818.014,-295 827.956,-295"/>
<polygon fill="midnightblue" stroke="midnightblue" points="828.241,-298.5 838.241,-295 828.241,-291.5 828.241,-298.5"/>
</g>
<!-- Node37&#45;&gt;Node36 -->
<g id="edge43" class="edge"><title>Node37&#45;&gt;Node36</title>
<path fill="none" stroke="midnightblue" d="M764.963,-323.46C792.594,-318.288 826.933,-311.86 855.981,-306.422"/>
<polygon fill="midnightblue" stroke="midnightblue" points="856.83,-309.824 866.016,-304.544 855.542,-302.944 856.83,-309.824"/>
</g>
<!-- Node38 -->
<g id="node38" class="node"><title>Node38</title>
<g id="a_node38"><a xlink:href="../../d3/dff/class_cell_society.html#a42451b17e2bca5fd025c8d4ea74310ca" target="_top" xlink:title="CellSociety.stringToIntArray">
<polygon fill="white" stroke="black" points="845.5,-323.5 845.5,-342.5 990.5,-342.5 990.5,-323.5 845.5,-323.5"/>
<text text-anchor="middle" x="918" y="-330.5" font-family="Helvetica,sans-Serif" font-size="10.00">CellSociety.stringToIntArray</text>
</a>
</g>
</g>
<!-- Node37&#45;&gt;Node38 -->
<g id="edge42" class="edge"><title>Node37&#45;&gt;Node38</title>
<path fill="none" stroke="midnightblue" d="M792.195,-333C806.305,-333 821.051,-333 835.26,-333"/>
<polygon fill="midnightblue" stroke="midnightblue" points="835.494,-336.5 845.494,-333 835.494,-329.5 835.494,-336.5"/>
</g>
<!-- Node39&#45;&gt;Node36 -->
<g id="edge45" class="edge"><title>Node39&#45;&gt;Node36</title>
<path fill="none" stroke="midnightblue" d="M783.293,-266.019C809.439,-271.686 838.766,-278.043 863.277,-283.356"/>
<polygon fill="midnightblue" stroke="midnightblue" points="862.599,-286.79 873.113,-285.488 864.082,-279.949 862.599,-286.79"/>
</g>
<!-- Node41&#45;&gt;Node5 -->
<g id="edge48" class="edge"><title>Node41&#45;&gt;Node5</title>
<path fill="none" stroke="midnightblue" d="M567.026,-579.536C596.028,-583.43 629.076,-587.867 656.287,-591.52"/>
<polygon fill="midnightblue" stroke="midnightblue" points="656.033,-595.017 666.41,-592.879 656.964,-588.079 656.033,-595.017"/>
</g>
<!-- Node43 -->
<g id="node43" class="node"><title>Node43</title>
<g id="a_node43"><a xlink:href="../../d8/ddc/class_abstract_grid.html#a47b90d7ce407289123405378af0dd8cb" target="_top" xlink:title="AbstractGrid.getGrid">
<polygon fill="white" stroke="black" points="655.5,-437.5 655.5,-456.5 770.5,-456.5 770.5,-437.5 655.5,-437.5"/>
<text text-anchor="middle" x="713" y="-444.5" font-family="Helvetica,sans-Serif" font-size="10.00">AbstractGrid.getGrid</text>
</a>
</g>
</g>
<!-- Node42&#45;&gt;Node43 -->
<g id="edge50" class="edge"><title>Node42&#45;&gt;Node43</title>
<path fill="none" stroke="midnightblue" d="M561.952,-377.62C570.997,-380.278 579.935,-383.671 588,-388 607.661,-398.555 604.621,-411.936 624,-423 632.079,-427.613 641.085,-431.373 650.167,-434.428"/>
<polygon fill="midnightblue" stroke="midnightblue" points="649.423,-437.861 660.01,-437.473 651.492,-431.174 649.423,-437.861"/>
</g>
<!-- Node44 -->
<g id="node44" class="node"><title>Node44</title>
<g id="a_node44"><a xlink:href="../../d4/d92/class_grid_factory.html#a9bc3ce970ef2787f2474ae7bd6f79d83" target="_top" xlink:title="GridFactory.createGrid">
<polygon fill="white" stroke="black" points="652,-475.5 652,-494.5 774,-494.5 774,-475.5 652,-475.5"/>
<text text-anchor="middle" x="713" y="-482.5" font-family="Helvetica,sans-Serif" font-size="10.00">GridFactory.createGrid</text>
</a>
</g>
</g>
<!-- Node42&#45;&gt;Node44 -->
<g id="edge51" class="edge"><title>Node42&#45;&gt;Node44</title>
<path fill="none" stroke="midnightblue" d="M570.159,-377.555C576.572,-380.278 582.646,-383.704 588,-388 617.779,-411.896 594.204,-442.125 624,-466 629.409,-470.334 635.584,-473.736 642.098,-476.4"/>
<polygon fill="midnightblue" stroke="midnightblue" points="641.24,-479.808 651.835,-479.797 643.546,-473.198 641.24,-479.808"/>
</g>
<!-- Node46&#45;&gt;Node24 -->
<g id="edge59" class="edge"><title>Node46&#45;&gt;Node24</title>
<path fill="none" stroke="midnightblue" d="M351.804,-263.394C357.044,-260.655 361.881,-257.242 366,-253 421.623,-195.722 340.39,-127.783 402,-77 474.045,-17.6166 590.792,-37.3336 658.58,-56.2185"/>
<polygon fill="midnightblue" stroke="midnightblue" points="657.637,-59.5892 668.215,-58.9893 659.572,-52.8618 657.637,-59.5892"/>
</g>
</g>
</svg>
