<?xml version="1.0" encoding="UTF-8" standalone="no"?>
<!DOCTYPE svg PUBLIC "-//W3C//DTD SVG 1.1//EN"
 "http://www.w3.org/Graphics/SVG/1.1/DTD/svg11.dtd">
<!-- Generated by graphviz version 2.36.0 (20140111.2315)
 -->
<!-- Title: CellSociety.createCellArray Pages: 1 -->
<svg width="348pt" height="142pt"
 viewBox="0.00 0.00 348.00 142.00" xmlns="http://www.w3.org/2000/svg" xmlns:xlink="http://www.w3.org/1999/xlink">
<g id="graph0" class="graph" transform="scale(1 1) rotate(0) translate(4 138)">
<title>CellSociety.createCellArray</title>
<polygon fill="white" stroke="none" points="-4,4 -4,-138 344,-138 344,4 -4,4"/>
<!-- Node1 -->
<g id="node1" class="node"><title>Node1</title>
<polygon fill="#bfbfbf" stroke="black" points="0,-57.5 0,-76.5 144,-76.5 144,-57.5 0,-57.5"/>
<text text-anchor="middle" x="72" y="-64.5" font-family="Helvetica,sans-Serif" font-size="10.00">CellSociety.createCellArray</text>
</g>
<!-- Node2 -->
<g id="node2" class="node"><title>Node2</title>
<g id="a_node2"><a xlink:href="../../d3/dff/class_cell_society.html#a117f1698760a3f6bbe51bd7af16f79bb" target="_top" xlink:title="CellSociety.createCellInstance">
<polygon fill="white" stroke="black" points="180.5,-114.5 180.5,-133.5 339.5,-133.5 339.5,-114.5 180.5,-114.5"/>
<text text-anchor="middle" x="260" y="-121.5" font-family="Helvetica,sans-Serif" font-size="10.00">CellSociety.createCellInstance</text>
</a>
</g>
</g>
<!-- Node1&#45;&gt;Node2 -->
<g id="edge1" class="edge"><title>Node1&#45;&gt;Node2</title>
<path fill="none" stroke="midnightblue" d="M97.8339,-76.6579C119.365,-84.8288 151.465,-96.5271 180,-105 188.351,-107.48 197.271,-109.869 205.999,-112.067"/>
<polygon fill="midnightblue" stroke="midnightblue" points="205.184,-115.47 215.73,-114.461 206.856,-108.673 205.184,-115.47"/>
</g>
<!-- Node3 -->
<g id="node3" class="node"><title>Node3</title>
<g id="a_node3"><a xlink:href="../../d2/d95/class_x_m_l_parser.html#ac4e3257aed1deb9fe950149f706fce5b" target="_top" xlink:title="XMLParser.getCellParamList">
<polygon fill="white" stroke="black" points="185.5,-76.5 185.5,-95.5 334.5,-95.5 334.5,-76.5 185.5,-76.5"/>
<text text-anchor="middle" x="260" y="-83.5" font-family="Helvetica,sans-Serif" font-size="10.00">XMLParser.getCellParamList</text>
</a>
</g>
</g>
<!-- Node1&#45;&gt;Node3 -->
<g id="edge2" class="edge"><title>Node1&#45;&gt;Node3</title>
<path fill="none" stroke="midnightblue" d="M144.115,-74.2644C154.374,-75.3124 165.009,-76.3988 175.482,-77.4686"/>
<polygon fill="midnightblue" stroke="midnightblue" points="175.153,-80.9531 185.457,-78.4875 175.864,-73.9893 175.153,-80.9531"/>
</g>
<!-- Node4 -->
<g id="node4" class="node"><title>Node4</title>
<g id="a_node4"><a xlink:href="../../d2/d95/class_x_m_l_parser.html#aea9b535964c91fa3c3d2b1c0b6a334c2" target="_top" xlink:title="XMLParser.getInitParamMap">
<polygon fill="white" stroke="black" points="185.5,-38.5 185.5,-57.5 334.5,-57.5 334.5,-38.5 185.5,-38.5"/>
<text text-anchor="middle" x="260" y="-45.5" font-family="Helvetica,sans-Serif" font-size="10.00">XMLParser.getInitParamMap</text>
</a>
</g>
</g>
<!-- Node1&#45;&gt;Node4 -->
<g id="edge3" class="edge"><title>Node1&#45;&gt;Node4</title>
<path fill="none" stroke="midnightblue" d="M144.115,-59.7356C154.374,-58.6876 165.009,-57.6012 175.482,-56.5314"/>
<polygon fill="midnightblue" stroke="midnightblue" points="175.864,-60.0107 185.457,-55.5125 175.153,-53.0469 175.864,-60.0107"/>
</g>
<!-- Node5 -->
<g id="node5" class="node"><title>Node5</title>
<g id="a_node5"><a xlink:href="../../d3/dff/class_cell_society.html#a42451b17e2bca5fd025c8d4ea74310ca" target="_top" xlink:title="CellSociety.stringToIntArray">
<polygon fill="white" stroke="black" points="187.5,-0.5 187.5,-19.5 332.5,-19.5 332.5,-0.5 187.5,-0.5"/>
<text text-anchor="middle" x="260" y="-7.5" font-family="Helvetica,sans-Serif" font-size="10.00">CellSociety.stringToIntArray</text>
</a>
</g>
</g>
<!-- Node1&#45;&gt;Node5 -->
<g id="edge4" class="edge"><title>Node1&#45;&gt;Node5</title>
<path fill="none" stroke="midnightblue" d="M97.8339,-57.3421C119.365,-49.1712 151.465,-37.4729 180,-29 188.351,-26.5202 197.271,-24.1312 205.999,-21.9334"/>
<polygon fill="midnightblue" stroke="midnightblue" points="206.856,-25.3268 215.73,-19.5386 205.184,-18.5296 206.856,-25.3268"/>
</g>
</g>
</svg>
