<?xml version="1.0" encoding="UTF-8" standalone="no"?>
<!DOCTYPE svg PUBLIC "-//W3C//DTD SVG 1.1//EN"
 "http://www.w3.org/Graphics/SVG/1.1/DTD/svg11.dtd">
<!-- Generated by graphviz version 2.36.0 (20140111.2315)
 -->
<!-- Title: CellSociety.CellSociety Pages: 1 -->
<!--zoomable 781 -->
<svg id="main" version="1.1" xmlns="http://www.w3.org/2000/svg" xmlns:xlink="http://www.w3.org/1999/xlink" xml:space="preserve" onload="init(evt)">
<style type="text/css"><![CDATA[
.edge:hover path { stroke: red; }
.edge:hover polygon { stroke: red; fill: red; }
]]></style>
<script type="text/javascript"><![CDATA[
var edges = document.getElementsByTagName('g');
if (edges && edges.length) {
  for (var i=0;i<edges.length;i++) {
    if (edges[i].id.substr(0,4)=='edge') {
      edges[i].setAttribute('class','edge');
    }
  }
}
]]></script>
        <defs>
                <circle id="rim" cx="0" cy="0" r="7"/>
                <circle id="rim2" cx="0" cy="0" r="3.5"/>
                <g id="zoomPlus">
                        <use xlink:href="#rim" fill="#404040">
                                <set attributeName="fill" to="#808080" begin="zoomplus.mouseover" end="zoomplus.mouseout"/>
                        </use>
                        <path d="M-4,0h8M0,-4v8" fill="none" stroke="white" stroke-width="1.5" pointer-events="none"/>
                </g>
                <g id="zoomMin">
                        <use xlink:href="#rim" fill="#404040">
                                <set attributeName="fill" to="#808080" begin="zoomminus.mouseover" end="zoomminus.mouseout"/>
                        </use>
                        <path d="M-4,0h8" fill="none" stroke="white" stroke-width="1.5" pointer-events="none"/>
                </g>
                <g id="dirArrow">
                        <path fill="none" stroke="white" stroke-width="1.5" d="M0,-3.0v7 M-2.5,-0.5L0,-3.0L2.5,-0.5"/>
                </g>
               <g id="resetDef">
                       <use xlink:href="#rim2" fill="#404040">
                               <set attributeName="fill" to="#808080" begin="reset.mouseover" end="reset.mouseout"/>
                       </use>
               </g>
        </defs>

<script type="text/javascript">
var viewWidth = 1488;
var viewHeight = 781;
var sectionId = 'dynsection-1';
</script>
<script xlink:href="../../svgpan.js"/>
<svg id="graph" class="graph">
<g id="viewport">
<title>CellSociety.CellSociety</title>
<polygon fill="white" stroke="none" points="-4,4 -4,-777 1484,-777 1484,4 -4,4"/>
<!-- Node1 -->
<g id="node1" class="node"><title>Node1</title>
<polygon fill="#bfbfbf" stroke="black" points="0.5,-489.5 0.5,-508.5 123.5,-508.5 123.5,-489.5 0.5,-489.5"/>
<text text-anchor="middle" x="62" y="-496.5" font-family="Helvetica,sans-Serif" font-size="10.00">CellSociety.CellSociety</text>
</g>
<!-- Node2 -->
<g id="node2" class="node"><title>Node2</title>
<g id="a_node2"><a xlink:href="../../d3/dff/class_cell_society.html#a656ff46d1459fb7f86b42e3c542506ee" target="_top" xlink:title="CellSociety.configureListeners">
<polygon fill="white" stroke="black" points="160,-489.5 160,-508.5 318,-508.5 318,-489.5 160,-489.5"/>
<text text-anchor="middle" x="239" y="-496.5" font-family="Helvetica,sans-Serif" font-size="10.00">CellSociety.configureListeners</text>
</a>
</g>
</g>
<!-- Node1&#45;&gt;Node2 -->
<g id="edge1" class="edge"><title>Node1&#45;&gt;Node2</title>
<path fill="none" stroke="midnightblue" d="M123.715,-499C132.088,-499 140.823,-499 149.57,-499"/>
<polygon fill="midnightblue" stroke="midnightblue" points="149.823,-502.5 159.823,-499 149.823,-495.5 149.823,-502.5"/>
</g>
<!-- Node3 -->
<g id="node3" class="node"><title>Node3</title>
<g id="a_node3"><a xlink:href="../../df/df8/class_cell_society_view.html#aae7c36ea6b5215b0ba9ee01c72dfcb94" target="_top" xlink:title="CellSocietyView.getPlayElement">
<polygon fill="white" stroke="black" points="356,-753.5 356,-772.5 524,-772.5 524,-753.5 356,-753.5"/>
<text text-anchor="middle" x="440" y="-760.5" font-family="Helvetica,sans-Serif" font-size="10.00">CellSocietyView.getPlayElement</text>
</a>
</g>
</g>
<!-- Node2&#45;&gt;Node3 -->
<g id="edge2" class="edge"><title>Node2&#45;&gt;Node3</title>
<path fill="none" stroke="midnightblue" d="M241.399,-508.584C247.313,-545.474 273.774,-679.442 354,-744 356.062,-745.659 358.239,-747.18 360.505,-748.574"/>
<polygon fill="midnightblue" stroke="midnightblue" points="359.157,-751.818 369.641,-753.345 362.398,-745.613 359.157,-751.818"/>
</g>
<!-- Node4 -->
<g id="node4" class="node"><title>Node4</title>
<g id="a_node4"><a xlink:href="../../d3/dff/class_cell_society.html#a6a4056cd40e4162583f2b9845b77a191" target="_top" xlink:title="CellSociety.resumeAnimation">
<polygon fill="white" stroke="black" points="362,-715.5 362,-734.5 518,-734.5 518,-715.5 362,-715.5"/>
<text text-anchor="middle" x="440" y="-722.5" font-family="Helvetica,sans-Serif" font-size="10.00">CellSociety.resumeAnimation</text>
</a>
</g>
</g>
<!-- Node2&#45;&gt;Node4 -->
<g id="edge3" class="edge"><title>Node2&#45;&gt;Node4</title>
<path fill="none" stroke="midnightblue" d="M242.598,-508.768C251.787,-541.386 285.929,-647.502 354,-701 359.427,-705.265 365.574,-708.773 372.019,-711.657"/>
<polygon fill="midnightblue" stroke="midnightblue" points="371.041,-715.033 381.627,-715.452 373.613,-708.523 371.041,-715.033"/>
</g>
<!-- Node6 -->
<g id="node6" class="node"><title>Node6</title>
<g id="a_node6"><a xlink:href="../../df/df8/class_cell_society_view.html#ada088eb9125561f8dd941badb141fa86" target="_top" xlink:title="CellSocietyView.getPause\lElement">
<polygon fill="white" stroke="black" points="371.5,-416 371.5,-446 508.5,-446 508.5,-416 371.5,-416"/>
<text text-anchor="start" x="379.5" y="-434" font-family="Helvetica,sans-Serif" font-size="10.00">CellSocietyView.getPause</text>
<text text-anchor="middle" x="440" y="-423" font-family="Helvetica,sans-Serif" font-size="10.00">Element</text>
</a>
</g>
</g>
<!-- Node2&#45;&gt;Node6 -->
<g id="edge5" class="edge"><title>Node2&#45;&gt;Node6</title>
<path fill="none" stroke="midnightblue" d="M263.833,-489.416C286.769,-480.335 322.511,-466.553 354,-456 360.919,-453.681 368.192,-451.364 375.451,-449.126"/>
<polygon fill="midnightblue" stroke="midnightblue" points="376.755,-452.388 385.305,-446.132 374.72,-445.69 376.755,-452.388"/>
</g>
<!-- Node7 -->
<g id="node7" class="node"><title>Node7</title>
<g id="a_node7"><a xlink:href="../../d3/dff/class_cell_society.html#ae565a305ea53e5a37da9816a236b4fbc" target="_top" xlink:title="CellSociety.pauseAnimation">
<polygon fill="white" stroke="black" points="580.5,-677.5 580.5,-696.5 729.5,-696.5 729.5,-677.5 580.5,-677.5"/>
<text text-anchor="middle" x="655" y="-684.5" font-family="Helvetica,sans-Serif" font-size="10.00">CellSociety.pauseAnimation</text>
</a>
</g>
</g>
<!-- Node2&#45;&gt;Node7 -->
<g id="edge6" class="edge"><title>Node2&#45;&gt;Node7</title>
<path fill="none" stroke="midnightblue" d="M243.297,-508.623C253.91,-537.939 290.263,-626.372 354,-663 424.415,-703.466 519.918,-703.64 584.085,-697.533"/>
<polygon fill="midnightblue" stroke="midnightblue" points="584.516,-701.007 594.106,-696.504 583.801,-694.044 584.516,-701.007"/>
</g>
<!-- Node8 -->
<g id="node8" class="node"><title>Node8</title>
<g id="a_node8"><a xlink:href="../../df/df8/class_cell_society_view.html#a3c3a7039f77d392c374cd309967ca1cc" target="_top" xlink:title="CellSocietyView.getStepElement">
<polygon fill="white" stroke="black" points="354.5,-377.5 354.5,-396.5 525.5,-396.5 525.5,-377.5 354.5,-377.5"/>
<text text-anchor="middle" x="440" y="-384.5" font-family="Helvetica,sans-Serif" font-size="10.00">CellSocietyView.getStepElement</text>
</a>
</g>
</g>
<!-- Node2&#45;&gt;Node8 -->
<g id="edge8" class="edge"><title>Node2&#45;&gt;Node8</title>
<path fill="none" stroke="midnightblue" d="M248.702,-489.382C266.504,-470.329 309.197,-427.759 354,-406 359.016,-403.564 364.35,-401.436 369.807,-399.577"/>
<polygon fill="midnightblue" stroke="midnightblue" points="371.199,-402.81 379.72,-396.514 369.133,-396.122 371.199,-402.81"/>
</g>
<!-- Node9 -->
<g id="node9" class="node"><title>Node9</title>
<g id="a_node9"><a xlink:href="../../d3/dff/class_cell_society.html#a0ff19c30a1cc433d8ea8444f6a5617f1" target="_top" xlink:title="CellSociety.updateGrid">
<polygon fill="white" stroke="black" points="1016,-506.5 1016,-525.5 1140,-525.5 1140,-506.5 1016,-506.5"/>
<text text-anchor="middle" x="1078" y="-513.5" font-family="Helvetica,sans-Serif" font-size="10.00">CellSociety.updateGrid</text>
</a>
</g>
</g>
<!-- Node2&#45;&gt;Node9 -->
<g id="edge9" class="edge"><title>Node2&#45;&gt;Node9</title>
<path fill="none" stroke="midnightblue" d="M245.343,-508.639C259.388,-532.87 300.015,-596.159 354,-621 433.56,-657.609 661.637,-644.539 748,-630 862.719,-610.688 990.882,-555.988 1047.45,-530.019"/>
<polygon fill="midnightblue" stroke="midnightblue" points="1049.24,-533.046 1056.84,-525.666 1046.3,-526.694 1049.24,-533.046"/>
</g>
<!-- Node15 -->
<g id="node15" class="node"><title>Node15</title>
<g id="a_node15"><a xlink:href="../../df/df8/class_cell_society_view.html#aebad9aaff0e9784fec1518d319e03c85" target="_top" xlink:title="CellSocietyView.getXMLElement">
<polygon fill="white" stroke="black" points="356,-339.5 356,-358.5 524,-358.5 524,-339.5 356,-339.5"/>
<text text-anchor="middle" x="440" y="-346.5" font-family="Helvetica,sans-Serif" font-size="10.00">CellSocietyView.getXMLElement</text>
</a>
</g>
</g>
<!-- Node2&#45;&gt;Node15 -->
<g id="edge15" class="edge"><title>Node2&#45;&gt;Node15</title>
<path fill="none" stroke="midnightblue" d="M245.449,-489.24C259.742,-464.608 300.903,-399.633 354,-368 357.654,-365.823 361.53,-363.896 365.537,-362.188"/>
<polygon fill="midnightblue" stroke="midnightblue" points="366.956,-365.394 375.078,-358.592 364.486,-358.844 366.956,-365.394"/>
</g>
<!-- Node16 -->
<g id="node16" class="node"><title>Node16</title>
<g id="a_node16"><a xlink:href="../../d3/dff/class_cell_society.html#af9f22af39a97a58b26126020ca6c8844" target="_top" xlink:title="CellSociety.readNewXML">
<polygon fill="white" stroke="black" points="374,-465.5 374,-484.5 506,-484.5 506,-465.5 374,-465.5"/>
<text text-anchor="middle" x="440" y="-472.5" font-family="Helvetica,sans-Serif" font-size="10.00">CellSociety.readNewXML</text>
</a>
</g>
</g>
<!-- Node2&#45;&gt;Node16 -->
<g id="edge16" class="edge"><title>Node2&#45;&gt;Node16</title>
<path fill="none" stroke="midnightblue" d="M318.079,-489.583C333.119,-487.77 348.845,-485.873 363.792,-484.07"/>
<polygon fill="midnightblue" stroke="midnightblue" points="364.488,-487.512 373.997,-482.84 363.65,-480.562 364.488,-487.512"/>
</g>
<!-- Node36 -->
<g id="node36" class="node"><title>Node36</title>
<g id="a_node36"><a xlink:href="../../df/df8/class_cell_society_view.html#a572d464cbe7d186dc9a5b0e4a8130689" target="_top" xlink:title="CellSocietyView.getSpeedup\lElement">
<polygon fill="white" stroke="black" points="364,-290 364,-320 516,-320 516,-290 364,-290"/>
<text text-anchor="start" x="372" y="-308" font-family="Helvetica,sans-Serif" font-size="10.00">CellSocietyView.getSpeedup</text>
<text text-anchor="middle" x="440" y="-297" font-family="Helvetica,sans-Serif" font-size="10.00">Element</text>
</a>
</g>
</g>
<!-- Node2&#45;&gt;Node36 -->
<g id="edge46" class="edge"><title>Node2&#45;&gt;Node36</title>
<path fill="none" stroke="midnightblue" d="M243.743,-489.258C255.369,-460.311 293.735,-374.098 354,-330 356.669,-328.047 359.489,-326.246 362.416,-324.585"/>
<polygon fill="midnightblue" stroke="midnightblue" points="364.127,-327.642 371.475,-320.009 360.971,-321.394 364.127,-327.642"/>
</g>
<!-- Node37 -->
<g id="node37" class="node"><title>Node37</title>
<g id="a_node37"><a xlink:href="../../d3/dff/class_cell_society.html#a8250bfacdaf51dabf6b9d1cafc0ce9b2" target="_top" xlink:title="CellSociety.increaseFrameRate">
<polygon fill="white" stroke="black" points="358.5,-592.5 358.5,-611.5 521.5,-611.5 521.5,-592.5 358.5,-592.5"/>
<text text-anchor="middle" x="440" y="-599.5" font-family="Helvetica,sans-Serif" font-size="10.00">CellSociety.increaseFrameRate</text>
</a>
</g>
</g>
<!-- Node2&#45;&gt;Node37 -->
<g id="edge47" class="edge"><title>Node2&#45;&gt;Node37</title>
<path fill="none" stroke="midnightblue" d="M255.593,-508.539C277.306,-521.671 318.034,-545.762 354,-564 371.073,-572.657 390.539,-581.437 406.531,-588.372"/>
<polygon fill="midnightblue" stroke="midnightblue" points="405.417,-591.703 415.987,-592.435 408.181,-585.272 405.417,-591.703"/>
</g>
<!-- Node39 -->
<g id="node39" class="node"><title>Node39</title>
<g id="a_node39"><a xlink:href="../../df/df8/class_cell_society_view.html#a0f616a01579a7293ef781d3e341ea1ac" target="_top" xlink:title="CellSocietyView.getSlowdown\lElement">
<polygon fill="white" stroke="black" points="362.5,-241 362.5,-271 517.5,-271 517.5,-241 362.5,-241"/>
<text text-anchor="start" x="370.5" y="-259" font-family="Helvetica,sans-Serif" font-size="10.00">CellSocietyView.getSlowdown</text>
<text text-anchor="middle" x="440" y="-248" font-family="Helvetica,sans-Serif" font-size="10.00">Element</text>
</a>
</g>
</g>
<!-- Node2&#45;&gt;Node39 -->
<g id="edge51" class="edge"><title>Node2&#45;&gt;Node39</title>
<path fill="none" stroke="midnightblue" d="M242.108,-489.388C250.106,-455.243 281.852,-338.705 354,-280 355.561,-278.73 357.186,-277.527 358.863,-276.387"/>
<polygon fill="midnightblue" stroke="midnightblue" points="360.809,-279.303 367.639,-271.204 357.249,-273.276 360.809,-279.303"/>
</g>
<!-- Node40 -->
<g id="node40" class="node"><title>Node40</title>
<g id="a_node40"><a xlink:href="../../d3/dff/class_cell_society.html#a045267ba1843ca4a47891d7be73c2ac1" target="_top" xlink:title="CellSociety.decreaseFrameRate">
<polygon fill="white" stroke="black" points="356.5,-535.5 356.5,-554.5 523.5,-554.5 523.5,-535.5 356.5,-535.5"/>
<text text-anchor="middle" x="440" y="-542.5" font-family="Helvetica,sans-Serif" font-size="10.00">CellSociety.decreaseFrameRate</text>
</a>
</g>
</g>
<!-- Node2&#45;&gt;Node40 -->
<g id="edge52" class="edge"><title>Node2&#45;&gt;Node40</title>
<path fill="none" stroke="midnightblue" d="M281.233,-508.531C312.184,-515.686 354.75,-525.525 387.868,-533.181"/>
<polygon fill="midnightblue" stroke="midnightblue" points="387.289,-536.639 397.82,-535.481 388.865,-529.819 387.289,-536.639"/>
</g>
<!-- Node5 -->
<g id="node5" class="node"><title>Node5</title>
<g id="a_node5"><a xlink:href="../../df/df8/class_cell_society_view.html#ae83511f9bf3610b0750d41c4aeb0f778" target="_top" xlink:title="CellSocietyView.setButtons\lPause">
<polygon fill="white" stroke="black" points="800,-691 800,-721 946,-721 946,-691 800,-691"/>
<text text-anchor="start" x="808" y="-709" font-family="Helvetica,sans-Serif" font-size="10.00">CellSocietyView.setButtons</text>
<text text-anchor="middle" x="873" y="-698" font-family="Helvetica,sans-Serif" font-size="10.00">Pause</text>
</a>
</g>
</g>
<!-- Node4&#45;&gt;Node5 -->
<g id="edge4" class="edge"><title>Node4&#45;&gt;Node5</title>
<path fill="none" stroke="midnightblue" d="M518.054,-721.603C594.524,-718.232 711.327,-713.083 789.609,-709.632"/>
<polygon fill="midnightblue" stroke="midnightblue" points="790.077,-713.115 799.913,-709.178 789.769,-706.122 790.077,-713.115"/>
</g>
<!-- Node7&#45;&gt;Node5 -->
<g id="edge7" class="edge"><title>Node7&#45;&gt;Node5</title>
<path fill="none" stroke="midnightblue" d="M729.731,-693.486C748.984,-695.179 769.859,-697.015 789.534,-698.746"/>
<polygon fill="midnightblue" stroke="midnightblue" points="789.43,-702.25 799.699,-699.64 790.044,-695.277 789.43,-702.25"/>
</g>
<!-- Node10 -->
<g id="node10" class="node"><title>Node10</title>
<g id="a_node10"><a xlink:href="../../d8/d87/class_controller.html#aa8f10b5f28542d34053a7e4d5f1d6013" target="_top" xlink:title="Controller.runOneSim">
<polygon fill="white" stroke="black" points="1217.5,-506.5 1217.5,-525.5 1336.5,-525.5 1336.5,-506.5 1217.5,-506.5"/>
<text text-anchor="middle" x="1277" y="-513.5" font-family="Helvetica,sans-Serif" font-size="10.00">Controller.runOneSim</text>
</a>
</g>
</g>
<!-- Node9&#45;&gt;Node10 -->
<g id="edge10" class="edge"><title>Node9&#45;&gt;Node10</title>
<path fill="none" stroke="midnightblue" d="M1140.25,-516C1161.51,-516 1185.48,-516 1207.3,-516"/>
<polygon fill="midnightblue" stroke="midnightblue" points="1207.48,-519.5 1217.48,-516 1207.48,-512.5 1207.48,-519.5"/>
</g>
<!-- Node11 -->
<g id="node11" class="node"><title>Node11</title>
<g id="a_node11"><a xlink:href="../../df/df8/class_cell_society_view.html#a43ac2666d3a002024be53fe74028a576" target="_top" xlink:title="CellSocietyView.updateSimGrid">
<polygon fill="white" stroke="black" points="1194.5,-563.5 1194.5,-582.5 1359.5,-582.5 1359.5,-563.5 1194.5,-563.5"/>
<text text-anchor="middle" x="1277" y="-570.5" font-family="Helvetica,sans-Serif" font-size="10.00">CellSocietyView.updateSimGrid</text>
</a>
</g>
</g>
<!-- Node9&#45;&gt;Node11 -->
<g id="edge11" class="edge"><title>Node9&#45;&gt;Node11</title>
<path fill="none" stroke="midnightblue" d="M1111.97,-525.541C1145.21,-535.158 1196.67,-550.048 1233.08,-560.581"/>
<polygon fill="midnightblue" stroke="midnightblue" points="1232.34,-564.011 1242.92,-563.428 1234.29,-557.287 1232.34,-564.011"/>
</g>
<!-- Node13 -->
<g id="node13" class="node"><title>Node13</title>
<g id="a_node13"><a xlink:href="../../d2/d95/class_x_m_l_parser.html#ac4e3257aed1deb9fe950149f706fce5b" target="_top" xlink:title="XMLParser.getCellParamList">
<polygon fill="white" stroke="black" points="1202.5,-228.5 1202.5,-247.5 1351.5,-247.5 1351.5,-228.5 1202.5,-228.5"/>
<text text-anchor="middle" x="1277" y="-235.5" font-family="Helvetica,sans-Serif" font-size="10.00">XMLParser.getCellParamList</text>
</a>
</g>
</g>
<!-- Node9&#45;&gt;Node13 -->
<g id="edge13" class="edge"><title>Node9&#45;&gt;Node13</title>
<path fill="none" stroke="midnightblue" d="M1092.55,-506.433C1109.36,-494.086 1138.22,-471.287 1158,-447 1209.23,-384.093 1250.79,-295.985 1267.75,-257.393"/>
<polygon fill="midnightblue" stroke="midnightblue" points="1271.11,-258.451 1271.87,-247.884 1264.69,-255.668 1271.11,-258.451"/>
</g>
<!-- Node14 -->
<g id="node14" class="node"><title>Node14</title>
<g id="a_node14"><a xlink:href="../../df/df8/class_cell_society_view.html#a7ca77bdfdef97e9be9c9941c2f4d3513" target="_top" xlink:title="CellSocietyView.updateChart\lLines">
<polygon fill="white" stroke="black" points="1200.5,-106 1200.5,-136 1353.5,-136 1353.5,-106 1200.5,-106"/>
<text text-anchor="start" x="1208.5" y="-124" font-family="Helvetica,sans-Serif" font-size="10.00">CellSocietyView.updateChart</text>
<text text-anchor="middle" x="1277" y="-113" font-family="Helvetica,sans-Serif" font-size="10.00">Lines</text>
</a>
</g>
</g>
<!-- Node9&#45;&gt;Node14 -->
<g id="edge14" class="edge"><title>Node9&#45;&gt;Node14</title>
<path fill="none" stroke="midnightblue" d="M1095.67,-506.431C1114.16,-494.872 1143.29,-473.619 1158,-447 1207.61,-357.204 1151.54,-312.391 1194,-219 1207.48,-189.358 1232.45,-161.491 1251.32,-143.108"/>
<polygon fill="midnightblue" stroke="midnightblue" points="1253.88,-145.497 1258.72,-136.07 1249.06,-140.424 1253.88,-145.497"/>
</g>
<!-- Node12 -->
<g id="node12" class="node"><title>Node12</title>
<g id="a_node12"><a xlink:href="../../dd/d11/class_cell.html#a1e0ece61fecc69a9b7986d17d925434a" target="_top" xlink:title="Cell.getShape">
<polygon fill="white" stroke="black" points="1396.5,-563.5 1396.5,-582.5 1479.5,-582.5 1479.5,-563.5 1396.5,-563.5"/>
<text text-anchor="middle" x="1438" y="-570.5" font-family="Helvetica,sans-Serif" font-size="10.00">Cell.getShape</text>
</a>
</g>
</g>
<!-- Node11&#45;&gt;Node12 -->
<g id="edge12" class="edge"><title>Node11&#45;&gt;Node12</title>
<path fill="none" stroke="midnightblue" d="M1359.83,-573C1368.81,-573 1377.75,-573 1386.19,-573"/>
<polygon fill="midnightblue" stroke="midnightblue" points="1386.21,-576.5 1396.21,-573 1386.21,-569.5 1386.21,-576.5"/>
</g>
<!-- Node16&#45;&gt;Node7 -->
<g id="edge40" class="edge"><title>Node16&#45;&gt;Node7</title>
<path fill="none" stroke="midnightblue" d="M466.213,-484.522C485.093,-492.837 510.274,-506.625 526,-526 556.825,-563.978 531.447,-591.803 562,-630 577.331,-649.166 600.97,-663.614 620.446,-673.168"/>
<polygon fill="midnightblue" stroke="midnightblue" points="619.078,-676.392 629.619,-677.464 622.048,-670.053 619.078,-676.392"/>
</g>
<!-- Node16&#45;&gt;Node11 -->
<g id="edge39" class="edge"><title>Node16&#45;&gt;Node11</title>
<path fill="none" stroke="midnightblue" d="M458.312,-484.571C475.761,-494.405 503.286,-510.436 526,-526 542.721,-537.457 542.917,-547.167 562,-554 673.778,-594.021 1017.83,-584.801 1184.13,-577.613"/>
<polygon fill="midnightblue" stroke="midnightblue" points="1184.5,-581.1 1194.34,-577.164 1184.19,-574.106 1184.5,-581.1"/>
</g>
<!-- Node16&#45;&gt;Node13 -->
<g id="edge42" class="edge"><title>Node16&#45;&gt;Node13</title>
<path fill="none" stroke="midnightblue" d="M506.159,-468.223C513.596,-465.111 520.476,-460.835 526,-455 588.694,-388.777 492.708,-312.284 562,-253 608.843,-212.922 1013.86,-226.064 1192.24,-233.923"/>
<polygon fill="midnightblue" stroke="midnightblue" points="1192.23,-237.425 1202.37,-234.374 1192.54,-230.432 1192.23,-237.425"/>
</g>
<!-- Node16&#45;&gt;Node14 -->
<g id="edge44" class="edge"><title>Node16&#45;&gt;Node14</title>
<path fill="none" stroke="midnightblue" d="M506.064,-468.699C513.612,-465.526 520.547,-461.106 526,-455 616.334,-353.852 478.671,-258.993 562,-152 644.205,-46.4504 1027.28,-38.5111 1158,-67 1187.99,-73.5357 1219.48,-88.4074 1242.37,-100.892"/>
<polygon fill="midnightblue" stroke="midnightblue" points="1240.89,-104.07 1251.32,-105.889 1244.3,-97.9579 1240.89,-104.07"/>
</g>
<!-- Node17 -->
<g id="node17" class="node"><title>Node17</title>
<g id="a_node17"><a xlink:href="../../df/df8/class_cell_society_view.html#a053b6ef6afa80722445223c4e373e51c" target="_top" xlink:title="CellSocietyView.displayXMLChooser">
<polygon fill="white" stroke="black" points="562.5,-0.5 562.5,-19.5 747.5,-19.5 747.5,-0.5 562.5,-0.5"/>
<text text-anchor="middle" x="655" y="-7.5" font-family="Helvetica,sans-Serif" font-size="10.00">CellSocietyView.displayXMLChooser</text>
</a>
</g>
</g>
<!-- Node16&#45;&gt;Node17 -->
<g id="edge17" class="edge"><title>Node16&#45;&gt;Node17</title>
<path fill="none" stroke="midnightblue" d="M506.253,-468.865C513.772,-465.666 520.648,-461.195 526,-455 587.383,-383.946 501.477,-105.789 562,-34 565.014,-30.4249 568.488,-27.3472 572.282,-24.7005"/>
<polygon fill="midnightblue" stroke="midnightblue" points="574.186,-27.6418 581.047,-19.5693 570.649,-21.6008 574.186,-27.6418"/>
</g>
<!-- Node18 -->
<g id="node18" class="node"><title>Node18</title>
<g id="a_node18"><a xlink:href="../../d2/d95/class_x_m_l_parser.html#a77ee23818c822b69cdf4200eef726a61" target="_top" xlink:title="XMLParser.parseXMLFile">
<polygon fill="white" stroke="black" points="590,-399.5 590,-418.5 720,-418.5 720,-399.5 590,-399.5"/>
<text text-anchor="middle" x="655" y="-406.5" font-family="Helvetica,sans-Serif" font-size="10.00">XMLParser.parseXMLFile</text>
</a>
</g>
</g>
<!-- Node16&#45;&gt;Node18 -->
<g id="edge18" class="edge"><title>Node16&#45;&gt;Node18</title>
<path fill="none" stroke="midnightblue" d="M496.535,-465.426C506.591,-462.721 516.799,-459.301 526,-455 544.118,-446.53 543.768,-436.221 562,-428 567.757,-425.404 573.877,-423.159 580.118,-421.218"/>
<polygon fill="midnightblue" stroke="midnightblue" points="581.33,-424.513 589.991,-418.411 579.415,-417.779 581.33,-424.513"/>
</g>
<!-- Node22 -->
<g id="node22" class="node"><title>Node22</title>
<g id="a_node22"><a xlink:href="../../d3/dff/class_cell_society.html#abfbf43ce46b4c82c16a2d933b6a11abf" target="_top" xlink:title="CellSociety.retrieveParserInfo">
<polygon fill="white" stroke="black" points="577.5,-285.5 577.5,-304.5 732.5,-304.5 732.5,-285.5 577.5,-285.5"/>
<text text-anchor="middle" x="655" y="-292.5" font-family="Helvetica,sans-Serif" font-size="10.00">CellSociety.retrieveParserInfo</text>
</a>
</g>
</g>
<!-- Node16&#45;&gt;Node22 -->
<g id="edge22" class="edge"><title>Node16&#45;&gt;Node22</title>
<path fill="none" stroke="midnightblue" d="M506.138,-467.611C513.487,-464.585 520.349,-460.497 526,-455 570.82,-411.403 517.708,-363.133 562,-319 565.776,-315.237 570.064,-312.042 574.675,-309.33"/>
<polygon fill="midnightblue" stroke="midnightblue" points="576.53,-312.315 583.888,-304.691 573.382,-306.063 576.53,-312.315"/>
</g>
<!-- Node23 -->
<g id="node23" class="node"><title>Node23</title>
<g id="a_node23"><a xlink:href="../../d2/d95/class_x_m_l_parser.html#aea9b535964c91fa3c3d2b1c0b6a334c2" target="_top" xlink:title="XMLParser.getInitParamMap">
<polygon fill="white" stroke="black" points="798.5,-266.5 798.5,-285.5 947.5,-285.5 947.5,-266.5 798.5,-266.5"/>
<text text-anchor="middle" x="873" y="-273.5" font-family="Helvetica,sans-Serif" font-size="10.00">XMLParser.getInitParamMap</text>
</a>
</g>
</g>
<!-- Node16&#45;&gt;Node23 -->
<g id="edge26" class="edge"><title>Node16&#45;&gt;Node23</title>
<path fill="none" stroke="midnightblue" d="M506.038,-468.108C513.494,-465.013 520.412,-460.773 526,-455 582.437,-396.691 499.217,-327.414 562,-276 596.291,-247.919 714.779,-255.971 794.928,-265.286"/>
<polygon fill="midnightblue" stroke="midnightblue" points="794.648,-268.777 804.992,-266.486 795.476,-261.827 794.648,-268.777"/>
</g>
<!-- Node25 -->
<g id="node25" class="node"><title>Node25</title>
<g id="a_node25"><a xlink:href="../../dd/d11/class_cell.html#a7157b57f4ff263ea68e1ff5fc424176e" target="_top" xlink:title="Cell.setCellSize">
<polygon fill="white" stroke="black" points="610.5,-487.5 610.5,-506.5 699.5,-506.5 699.5,-487.5 610.5,-487.5"/>
<text text-anchor="middle" x="655" y="-494.5" font-family="Helvetica,sans-Serif" font-size="10.00">Cell.setCellSize</text>
</a>
</g>
</g>
<!-- Node16&#45;&gt;Node25 -->
<g id="edge25" class="edge"><title>Node16&#45;&gt;Node25</title>
<path fill="none" stroke="midnightblue" d="M506.064,-481.72C536.138,-484.826 571.433,-488.472 600.005,-491.423"/>
<polygon fill="midnightblue" stroke="midnightblue" points="599.898,-494.931 610.205,-492.477 600.618,-487.968 599.898,-494.931"/>
</g>
<!-- Node26 -->
<g id="node26" class="node"><title>Node26</title>
<g id="a_node26"><a xlink:href="../../d3/dff/class_cell_society.html#a7a6dab68551f91cc4b120faa51670bf8" target="_top" xlink:title="CellSociety.createCellArray">
<polygon fill="white" stroke="black" points="583,-161.5 583,-180.5 727,-180.5 727,-161.5 583,-161.5"/>
<text text-anchor="middle" x="655" y="-168.5" font-family="Helvetica,sans-Serif" font-size="10.00">CellSociety.createCellArray</text>
</a>
</g>
</g>
<!-- Node16&#45;&gt;Node26 -->
<g id="edge27" class="edge"><title>Node16&#45;&gt;Node26</title>
<path fill="none" stroke="midnightblue" d="M506.343,-468.396C513.752,-465.256 520.574,-460.926 526,-455 601.806,-372.205 491.421,-292.295 562,-205 569.287,-195.987 579.202,-189.364 589.833,-184.496"/>
<polygon fill="midnightblue" stroke="midnightblue" points="591.359,-187.654 599.312,-180.654 588.729,-181.167 591.359,-187.654"/>
</g>
<!-- Node31 -->
<g id="node31" class="node"><title>Node31</title>
<g id="a_node31"><a xlink:href="../../d3/dff/class_cell_society.html#ab9e56a2a70e210e021b51e898508329b" target="_top" xlink:title="CellSociety.setupAnimation">
<polygon fill="white" stroke="black" points="582,-525.5 582,-544.5 728,-544.5 728,-525.5 582,-525.5"/>
<text text-anchor="middle" x="655" y="-532.5" font-family="Helvetica,sans-Serif" font-size="10.00">CellSociety.setupAnimation</text>
</a>
</g>
</g>
<!-- Node16&#45;&gt;Node31 -->
<g id="edge36" class="edge"><title>Node16&#45;&gt;Node31</title>
<path fill="none" stroke="midnightblue" d="M466.214,-484.558C490.498,-493.521 528.394,-506.874 562,-516 571.68,-518.629 582.018,-521.091 592.14,-523.315"/>
<polygon fill="midnightblue" stroke="midnightblue" points="591.647,-526.789 602.158,-525.457 593.111,-519.943 591.647,-526.789"/>
</g>
<!-- Node33 -->
<g id="node33" class="node"><title>Node33</title>
<g id="a_node33"><a xlink:href="../../df/df8/class_cell_society_view.html#a99eb733c00ed7c1bcba8f2d684791a09" target="_top" xlink:title="CellSocietyView.displayFrameRate">
<polygon fill="white" stroke="black" points="784,-361.5 784,-380.5 962,-380.5 962,-361.5 784,-361.5"/>
<text text-anchor="middle" x="873" y="-368.5" font-family="Helvetica,sans-Serif" font-size="10.00">CellSocietyView.displayFrameRate</text>
</a>
</g>
</g>
<!-- Node16&#45;&gt;Node33 -->
<g id="edge41" class="edge"><title>Node16&#45;&gt;Node33</title>
<path fill="none" stroke="midnightblue" d="M506.168,-467.015C513.423,-464.077 520.253,-460.172 526,-455 562.045,-422.559 522.456,-380.069 562,-352 647.385,-291.393 781.606,-333.666 841.444,-357.612"/>
<polygon fill="midnightblue" stroke="midnightblue" points="840.144,-360.862 850.724,-361.42 842.802,-354.386 840.144,-360.862"/>
</g>
<!-- Node34 -->
<g id="node34" class="node"><title>Node34</title>
<g id="a_node34"><a xlink:href="../../df/df8/class_cell_society_view.html#a930d889b8619ae93731b8542ce285180" target="_top" xlink:title="CellSocietyView.generate\lChartLines">
<polygon fill="white" stroke="black" points="586.5,-438 586.5,-468 723.5,-468 723.5,-438 586.5,-438"/>
<text text-anchor="start" x="594.5" y="-456" font-family="Helvetica,sans-Serif" font-size="10.00">CellSocietyView.generate</text>
<text text-anchor="middle" x="655" y="-445" font-family="Helvetica,sans-Serif" font-size="10.00">ChartLines</text>
</a>
</g>
</g>
<!-- Node16&#45;&gt;Node34 -->
<g id="edge43" class="edge"><title>Node16&#45;&gt;Node34</title>
<path fill="none" stroke="midnightblue" d="M506.064,-468.28C528.231,-465.99 553.236,-463.408 576.293,-461.026"/>
<polygon fill="midnightblue" stroke="midnightblue" points="576.799,-464.493 586.386,-459.984 576.079,-457.53 576.799,-464.493"/>
</g>
<!-- Node35 -->
<g id="node35" class="node"><title>Node35</title>
<g id="a_node35"><a xlink:href="../../df/df8/class_cell_society_view.html#a989874eb178e925124f50d7cabcc184c" target="_top" xlink:title="CellSocietyView.setGridGap">
<polygon fill="white" stroke="black" points="581.5,-361.5 581.5,-380.5 728.5,-380.5 728.5,-361.5 581.5,-361.5"/>
<text text-anchor="middle" x="655" y="-368.5" font-family="Helvetica,sans-Serif" font-size="10.00">CellSocietyView.setGridGap</text>
</a>
</g>
</g>
<!-- Node16&#45;&gt;Node35 -->
<g id="edge45" class="edge"><title>Node16&#45;&gt;Node35</title>
<path fill="none" stroke="midnightblue" d="M506.233,-465.713C513.308,-462.984 520.078,-459.484 526,-455 552.329,-435.066 535.4,-409.571 562,-390 565.071,-387.741 568.348,-385.736 571.768,-383.957"/>
<polygon fill="midnightblue" stroke="midnightblue" points="573.423,-387.05 581.111,-379.759 570.555,-380.665 573.423,-387.05"/>
</g>
<!-- Node19 -->
<g id="node19" class="node"><title>Node19</title>
<g id="a_node19"><a xlink:href="../../d2/d95/class_x_m_l_parser.html#ae67767f9678fb650ac38b1321ea9f723" target="_top" xlink:title="XMLParser.parseInitialTags">
<polygon fill="white" stroke="black" points="802.5,-399.5 802.5,-418.5 943.5,-418.5 943.5,-399.5 802.5,-399.5"/>
<text text-anchor="middle" x="873" y="-406.5" font-family="Helvetica,sans-Serif" font-size="10.00">XMLParser.parseInitialTags</text>
</a>
</g>
</g>
<!-- Node18&#45;&gt;Node19 -->
<g id="edge19" class="edge"><title>Node18&#45;&gt;Node19</title>
<path fill="none" stroke="midnightblue" d="M720.222,-409C742.855,-409 768.576,-409 792.329,-409"/>
<polygon fill="midnightblue" stroke="midnightblue" points="792.374,-412.5 802.374,-409 792.374,-405.5 792.374,-412.5"/>
</g>
<!-- Node20 -->
<g id="node20" class="node"><title>Node20</title>
<g id="a_node20"><a xlink:href="../../d2/d95/class_x_m_l_parser.html#a09c6848239104ae94825c045796dddd0" target="_top" xlink:title="XMLParser.makeParamMap">
<polygon fill="white" stroke="black" points="1005,-418.5 1005,-437.5 1151,-437.5 1151,-418.5 1005,-418.5"/>
<text text-anchor="middle" x="1078" y="-425.5" font-family="Helvetica,sans-Serif" font-size="10.00">XMLParser.makeParamMap</text>
</a>
</g>
</g>
<!-- Node19&#45;&gt;Node20 -->
<g id="edge20" class="edge"><title>Node19&#45;&gt;Node20</title>
<path fill="none" stroke="midnightblue" d="M943.577,-415.512C959.925,-417.042 977.504,-418.688 994.362,-420.265"/>
<polygon fill="midnightblue" stroke="midnightblue" points="994.466,-423.79 1004.75,-421.238 995.118,-416.821 994.466,-423.79"/>
</g>
<!-- Node21 -->
<g id="node21" class="node"><title>Node21</title>
<g id="a_node21"><a xlink:href="../../d2/d95/class_x_m_l_parser.html#a5a419f71699eb7d3d76ee238fb262a5f" target="_top" xlink:title="XMLParser.makeCellParamList">
<polygon fill="white" stroke="black" points="998,-380.5 998,-399.5 1158,-399.5 1158,-380.5 998,-380.5"/>
<text text-anchor="middle" x="1078" y="-387.5" font-family="Helvetica,sans-Serif" font-size="10.00">XMLParser.makeCellParamList</text>
</a>
</g>
</g>
<!-- Node19&#45;&gt;Node21 -->
<g id="edge21" class="edge"><title>Node19&#45;&gt;Node21</title>
<path fill="none" stroke="midnightblue" d="M943.577,-402.488C957.752,-401.161 972.851,-399.748 987.604,-398.367"/>
<polygon fill="midnightblue" stroke="midnightblue" points="988.117,-401.834 997.747,-397.418 987.465,-394.865 988.117,-401.834"/>
</g>
<!-- Node22&#45;&gt;Node23 -->
<g id="edge23" class="edge"><title>Node22&#45;&gt;Node23</title>
<path fill="none" stroke="midnightblue" d="M732.762,-288.248C750.769,-286.664 770.043,-284.968 788.335,-283.359"/>
<polygon fill="midnightblue" stroke="midnightblue" points="788.728,-286.839 798.382,-282.476 788.114,-279.865 788.728,-286.839"/>
</g>
<!-- Node24 -->
<g id="node24" class="node"><title>Node24</title>
<g id="a_node24"><a xlink:href="../../d2/d95/class_x_m_l_parser.html#a0df3a2904766f59d1246cb55416f8146" target="_top" xlink:title="XMLParser.getSimParamMap">
<polygon fill="white" stroke="black" points="796,-304.5 796,-323.5 950,-323.5 950,-304.5 796,-304.5"/>
<text text-anchor="middle" x="873" y="-311.5" font-family="Helvetica,sans-Serif" font-size="10.00">XMLParser.getSimParamMap</text>
</a>
</g>
</g>
<!-- Node22&#45;&gt;Node24 -->
<g id="edge24" class="edge"><title>Node22&#45;&gt;Node24</title>
<path fill="none" stroke="midnightblue" d="M732.762,-301.752C749.892,-303.259 768.17,-304.867 785.658,-306.405"/>
<polygon fill="midnightblue" stroke="midnightblue" points="785.581,-309.912 795.849,-307.302 786.194,-302.939 785.581,-309.912"/>
</g>
<!-- Node26&#45;&gt;Node13 -->
<g id="edge29" class="edge"><title>Node26&#45;&gt;Node13</title>
<path fill="none" stroke="midnightblue" d="M727.109,-178.216C824.415,-188.157 1004.5,-206.792 1158,-224 1169.1,-225.244 1180.78,-226.589 1192.3,-227.935"/>
<polygon fill="midnightblue" stroke="midnightblue" points="1192.03,-231.426 1202.37,-229.116 1192.85,-224.474 1192.03,-231.426"/>
</g>
<!-- Node26&#45;&gt;Node23 -->
<g id="edge28" class="edge"><title>Node26&#45;&gt;Node23</title>
<path fill="none" stroke="midnightblue" d="M675.55,-180.503C713.766,-199.08 798.532,-240.286 843.191,-261.995"/>
<polygon fill="midnightblue" stroke="midnightblue" points="841.815,-265.218 852.339,-266.443 844.876,-258.923 841.815,-265.218"/>
</g>
<!-- Node27 -->
<g id="node27" class="node"><title>Node27</title>
<g id="a_node27"><a xlink:href="../../d3/dff/class_cell_society.html#a276d7f4c12da9d40e8720f762b47592a" target="_top" xlink:title="CellSociety.populateProbabilities">
<polygon fill="white" stroke="black" points="788,-114.5 788,-133.5 958,-133.5 958,-114.5 788,-114.5"/>
<text text-anchor="middle" x="873" y="-121.5" font-family="Helvetica,sans-Serif" font-size="10.00">CellSociety.populateProbabilities</text>
</a>
</g>
</g>
<!-- Node26&#45;&gt;Node27 -->
<g id="edge30" class="edge"><title>Node26&#45;&gt;Node27</title>
<path fill="none" stroke="midnightblue" d="M699.711,-161.489C733.853,-154.06 781.472,-143.698 817.997,-135.751"/>
<polygon fill="midnightblue" stroke="midnightblue" points="818.957,-139.124 827.984,-133.578 817.468,-132.284 818.957,-139.124"/>
</g>
<!-- Node28 -->
<g id="node28" class="node"><title>Node28</title>
<g id="a_node28"><a xlink:href="../../d3/dff/class_cell_society.html#a117f1698760a3f6bbe51bd7af16f79bb" target="_top" xlink:title="CellSociety.createCellInstance">
<polygon fill="white" stroke="black" points="998.5,-114.5 998.5,-133.5 1157.5,-133.5 1157.5,-114.5 998.5,-114.5"/>
<text text-anchor="middle" x="1078" y="-121.5" font-family="Helvetica,sans-Serif" font-size="10.00">CellSociety.createCellInstance</text>
</a>
</g>
</g>
<!-- Node26&#45;&gt;Node28 -->
<g id="edge35" class="edge"><title>Node26&#45;&gt;Node28</title>
<path fill="none" stroke="midnightblue" d="M727.265,-165.949C789.385,-161.196 881.835,-153.276 962,-143 978.954,-140.827 997.24,-138.019 1014.13,-135.232"/>
<polygon fill="midnightblue" stroke="midnightblue" points="1015.16,-138.609 1024.45,-133.506 1014.01,-131.705 1015.16,-138.609"/>
</g>
<!-- Node29 -->
<g id="node29" class="node"><title>Node29</title>
<g id="a_node29"><a xlink:href="../../d3/dff/class_cell_society.html#a5c0b747b2fbaaa317266890c48e0267f" target="_top" xlink:title="CellSociety.populateLocations">
<polygon fill="white" stroke="black" points="794,-76.5 794,-95.5 952,-95.5 952,-76.5 794,-76.5"/>
<text text-anchor="middle" x="873" y="-83.5" font-family="Helvetica,sans-Serif" font-size="10.00">CellSociety.populateLocations</text>
</a>
</g>
</g>
<!-- Node26&#45;&gt;Node29 -->
<g id="edge32" class="edge"><title>Node26&#45;&gt;Node29</title>
<path fill="none" stroke="midnightblue" d="M671.166,-161.495C694.542,-147.24 741.167,-120.362 784,-105 791.345,-102.366 799.171,-100.037 807.012,-97.9934"/>
<polygon fill="midnightblue" stroke="midnightblue" points="808.043,-101.344 816.917,-95.5569 806.371,-94.5469 808.043,-101.344"/>
</g>
<!-- Node27&#45;&gt;Node28 -->
<g id="edge31" class="edge"><title>Node27&#45;&gt;Node28</title>
<path fill="none" stroke="midnightblue" d="M958.033,-124C967.91,-124 978.014,-124 987.956,-124"/>
<polygon fill="midnightblue" stroke="midnightblue" points="988.241,-127.5 998.241,-124 988.241,-120.5 988.241,-127.5"/>
</g>
<!-- Node29&#45;&gt;Node28 -->
<g id="edge34" class="edge"><title>Node29&#45;&gt;Node28</title>
<path fill="none" stroke="midnightblue" d="M924.963,-95.54C952.594,-100.712 986.933,-107.14 1015.98,-112.578"/>
<polygon fill="midnightblue" stroke="midnightblue" points="1015.54,-116.056 1026.02,-114.456 1016.83,-109.176 1015.54,-116.056"/>
</g>
<!-- Node30 -->
<g id="node30" class="node"><title>Node30</title>
<g id="a_node30"><a xlink:href="../../d3/dff/class_cell_society.html#a42451b17e2bca5fd025c8d4ea74310ca" target="_top" xlink:title="CellSociety.stringToIntArray">
<polygon fill="white" stroke="black" points="1005.5,-76.5 1005.5,-95.5 1150.5,-95.5 1150.5,-76.5 1005.5,-76.5"/>
<text text-anchor="middle" x="1078" y="-83.5" font-family="Helvetica,sans-Serif" font-size="10.00">CellSociety.stringToIntArray</text>
</a>
</g>
</g>
<!-- Node29&#45;&gt;Node30 -->
<g id="edge33" class="edge"><title>Node29&#45;&gt;Node30</title>
<path fill="none" stroke="midnightblue" d="M952.195,-86C966.305,-86 981.051,-86 995.26,-86"/>
<polygon fill="midnightblue" stroke="midnightblue" points="995.494,-89.5001 1005.49,-86 995.494,-82.5001 995.494,-89.5001"/>
</g>
<!-- Node32 -->
<g id="node32" class="node"><title>Node32</title>
<g id="a_node32"><a xlink:href="../../d3/dff/class_cell_society.html#abf13a64ee79f2cb063447b499c695c58" target="_top" xlink:title="CellSociety.start">
<polygon fill="white" stroke="black" points="826.5,-506.5 826.5,-525.5 919.5,-525.5 919.5,-506.5 826.5,-506.5"/>
<text text-anchor="middle" x="873" y="-513.5" font-family="Helvetica,sans-Serif" font-size="10.00">CellSociety.start</text>
</a>
</g>
</g>
<!-- Node31&#45;&gt;Node32 -->
<g id="edge37" class="edge"><title>Node31&#45;&gt;Node32</title>
<path fill="none" stroke="midnightblue" d="M728.225,-528.647C756.935,-526.121 789.447,-523.262 816.283,-520.901"/>
<polygon fill="midnightblue" stroke="midnightblue" points="816.616,-524.385 826.27,-520.023 816.002,-517.412 816.616,-524.385"/>
</g>
<!-- Node32&#45;&gt;Node9 -->
<g id="edge38" class="edge"><title>Node32&#45;&gt;Node9</title>
<path fill="none" stroke="midnightblue" d="M919.557,-516C944.856,-516 976.898,-516 1005.46,-516"/>
<polygon fill="midnightblue" stroke="midnightblue" points="1005.81,-519.5 1015.81,-516 1005.81,-512.5 1005.81,-519.5"/>
</g>
<!-- Node38 -->
<g id="node38" class="node"><title>Node38</title>
<g id="a_node38"><a xlink:href="../../d3/dff/class_cell_society.html#adc5feda3db5472cea4e092d463681033" target="_top" xlink:title="CellSociety.reframeTimeline">
<polygon fill="white" stroke="black" points="580.5,-601.5 580.5,-620.5 729.5,-620.5 729.5,-601.5 580.5,-601.5"/>
<text text-anchor="middle" x="655" y="-608.5" font-family="Helvetica,sans-Serif" font-size="10.00">CellSociety.reframeTimeline</text>
</a>
</g>
</g>
<!-- Node37&#45;&gt;Node38 -->
<g id="edge48" class="edge"><title>Node37&#45;&gt;Node38</title>
<path fill="none" stroke="midnightblue" d="M521.526,-605.403C537.375,-606.072 554.041,-606.776 570.001,-607.451"/>
<polygon fill="midnightblue" stroke="midnightblue" points="570.232,-610.964 580.371,-607.889 570.528,-603.97 570.232,-610.964"/>
</g>
<!-- Node38&#45;&gt;Node32 -->
<g id="edge50" class="edge"><title>Node38&#45;&gt;Node32</title>
<path fill="none" stroke="midnightblue" d="M670.402,-601.491C693.512,-586.589 740.688,-557.619 784,-540 795.116,-535.478 807.362,-531.53 819.095,-528.213"/>
<polygon fill="midnightblue" stroke="midnightblue" points="820.063,-531.577 828.794,-525.576 818.226,-524.822 820.063,-531.577"/>
</g>
<!-- Node38&#45;&gt;Node33 -->
<g id="edge49" class="edge"><title>Node38&#45;&gt;Node33</title>
<path fill="none" stroke="midnightblue" d="M682.303,-601.426C703.31,-592.409 731.822,-576.849 748,-554 791.122,-493.096 731.142,-442.677 784,-390 785.294,-388.711 786.653,-387.499 788.069,-386.362"/>
<polygon fill="midnightblue" stroke="midnightblue" points="790.332,-389.061 796.736,-380.621 786.467,-383.225 790.332,-389.061"/>
</g>
<!-- Node40&#45;&gt;Node38 -->
<g id="edge53" class="edge"><title>Node40&#45;&gt;Node38</title>
<path fill="none" stroke="midnightblue" d="M466.77,-554.608C491.135,-563.534 528.806,-576.927 562,-587 575.727,-591.166 590.737,-595.269 604.576,-598.872"/>
<polygon fill="midnightblue" stroke="midnightblue" points="603.855,-602.301 614.411,-601.401 605.598,-595.521 603.855,-602.301"/>
</g>
</g>
</svg>
        <g id="navigator" transform="translate(0 0)" fill="#404254">
                <rect fill="#f2f5e9" fill-opacity="0.5" stroke="#606060" stroke-width=".5" x="0" y="0" width="60" height="60"/>
                <use id="zoomplus" xlink:href="#zoomPlus" x="17" y="9" onmousedown="handleZoom(evt,'in')"/>
                <use id="zoomminus" xlink:href="#zoomMin" x="42" y="9" onmousedown="handleZoom(evt,'out')"/>
                <use id="reset" xlink:href="#resetDef" x="30" y="36" onmousedown="handleReset()"/>
                <g id="arrowUp" xlink:href="#dirArrow" transform="translate(30 24)" onmousedown="handlePan(0,-1)">
                  <use xlink:href="#rim" fill="#404040">
                        <set attributeName="fill" to="#808080" begin="arrowUp.mouseover" end="arrowUp.mouseout"/>
                  </use>
                  <path fill="none" stroke="white" stroke-width="1.5" d="M0,-3.0v7 M-2.5,-0.5L0,-3.0L2.5,-0.5"/>
                </g>
                <g id="arrowRight" xlink:href="#dirArrow" transform="rotate(90) translate(36 -43)" onmousedown="handlePan(1,0)">
                  <use xlink:href="#rim" fill="#404040">
                        <set attributeName="fill" to="#808080" begin="arrowRight.mouseover" end="arrowRight.mouseout"/>
                  </use>
                  <path fill="none" stroke="white" stroke-width="1.5" d="M0,-3.0v7 M-2.5,-0.5L0,-3.0L2.5,-0.5"/>
                </g>
                <g id="arrowDown" xlink:href="#dirArrow" transform="rotate(180) translate(-30 -48)" onmousedown="handlePan(0,1)">
                  <use xlink:href="#rim" fill="#404040">
                        <set attributeName="fill" to="#808080" begin="arrowDown.mouseover" end="arrowDown.mouseout"/>
                  </use>
                  <path fill="none" stroke="white" stroke-width="1.5" d="M0,-3.0v7 M-2.5,-0.5L0,-3.0L2.5,-0.5"/>
                </g>
                <g id="arrowLeft" xlink:href="#dirArrow" transform="rotate(270) translate(-36 17)" onmousedown="handlePan(-1,0)">
                  <use xlink:href="#rim" fill="#404040">
                        <set attributeName="fill" to="#808080" begin="arrowLeft.mouseover" end="arrowLeft.mouseout"/>
                  </use>
                  <path fill="none" stroke="white" stroke-width="1.5" d="M0,-3.0v7 M-2.5,-0.5L0,-3.0L2.5,-0.5"/>
                </g>
        </g>
        <svg viewBox="0 0 15 15" width="100%" height="30px" preserveAspectRatio="xMaxYMin meet">
         <g id="arrow_out" transform="scale(0.3 0.3)">
          <a xlink:href="class_cell_society_ac5e08680a3da358d402461bc25aa1727_cgraph_org.svg" target="_base">
           <rect id="button" ry="5" rx="5" y="6" x="6" height="38" width="38"
                fill="#f2f5e9" fill-opacity="0.5" stroke="#606060" stroke-width="1.0"/>
           <path id="arrow"
             d="M 11.500037,31.436501 C 11.940474,20.09759 22.043105,11.32322 32.158766,21.979434 L 37.068811,17.246167 C 37.068811,17.246167 37.088388,32 37.088388,32 L 22.160133,31.978069 C 22.160133,31.978069 26.997745,27.140456 26.997745,27.140456 C 18.528582,18.264221 13.291696,25.230495 11.500037,31.436501 z"
             style="fill:#404040;"/>
          </a>
         </g>
        </svg>
</svg>
