<?xml version="1.0" encoding="UTF-8" standalone="no"?>
<!DOCTYPE svg PUBLIC "-//W3C//DTD SVG 1.1//EN"
 "http://www.w3.org/Graphics/SVG/1.1/DTD/svg11.dtd">
<!-- Generated by graphviz version 2.36.0 (20140111.2315)
 -->
<!-- Title: CellSociety.reframeTimeline Pages: 1 -->
<svg width="920pt" height="192pt"
 viewBox="0.00 0.00 920.00 192.00" xmlns="http://www.w3.org/2000/svg" xmlns:xlink="http://www.w3.org/1999/xlink">
<g id="graph0" class="graph" transform="scale(1 1) rotate(0) translate(4 188)">
<title>CellSociety.reframeTimeline</title>
<polygon fill="white" stroke="none" points="-4,4 -4,-188 916,-188 916,4 -4,4"/>
<!-- Node1 -->
<g id="node1" class="node"><title>Node1</title>
<polygon fill="#bfbfbf" stroke="black" points="0.5,-95.5 0.5,-114.5 149.5,-114.5 149.5,-95.5 0.5,-95.5"/>
<text text-anchor="middle" x="75" y="-102.5" font-family="Helvetica,sans-Serif" font-size="10.00">CellSociety.reframeTimeline</text>
</g>
<!-- Node2 -->
<g id="node2" class="node"><title>Node2</title>
<g id="a_node2"><a xlink:href="../../df/df8/class_cell_society_view.html#a99eb733c00ed7c1bcba8f2d684791a09" target="_top" xlink:title="CellSocietyView.displayFrameRate">
<polygon fill="white" stroke="black" points="186,-114.5 186,-133.5 364,-133.5 364,-114.5 186,-114.5"/>
<text text-anchor="middle" x="275" y="-121.5" font-family="Helvetica,sans-Serif" font-size="10.00">CellSocietyView.displayFrameRate</text>
</a>
</g>
</g>
<!-- Node1&#45;&gt;Node2 -->
<g id="edge1" class="edge"><title>Node1&#45;&gt;Node2</title>
<path fill="none" stroke="midnightblue" d="M149.728,-112.075C158.184,-112.886 166.903,-113.723 175.616,-114.559"/>
<polygon fill="midnightblue" stroke="midnightblue" points="175.537,-118.068 185.825,-115.539 176.206,-111.1 175.537,-118.068"/>
</g>
<!-- Node3 -->
<g id="node3" class="node"><title>Node3</title>
<g id="a_node3"><a xlink:href="../../d3/dff/class_cell_society.html#abf13a64ee79f2cb063447b499c695c58" target="_top" xlink:title="CellSociety.start">
<polygon fill="white" stroke="black" points="228.5,-76.5 228.5,-95.5 321.5,-95.5 321.5,-76.5 228.5,-76.5"/>
<text text-anchor="middle" x="275" y="-83.5" font-family="Helvetica,sans-Serif" font-size="10.00">CellSociety.start</text>
</a>
</g>
</g>
<!-- Node1&#45;&gt;Node3 -->
<g id="edge2" class="edge"><title>Node1&#45;&gt;Node3</title>
<path fill="none" stroke="midnightblue" d="M149.728,-97.9251C172.405,-95.749 196.978,-93.391 218.24,-91.3507"/>
<polygon fill="midnightblue" stroke="midnightblue" points="218.768,-94.8162 228.388,-90.3769 218.1,-87.8482 218.768,-94.8162"/>
</g>
<!-- Node4 -->
<g id="node4" class="node"><title>Node4</title>
<g id="a_node4"><a xlink:href="../../d3/dff/class_cell_society.html#a0ff19c30a1cc433d8ea8444f6a5617f1" target="_top" xlink:title="CellSociety.updateGrid">
<polygon fill="white" stroke="black" points="400,-76.5 400,-95.5 524,-95.5 524,-76.5 400,-76.5"/>
<text text-anchor="middle" x="462" y="-83.5" font-family="Helvetica,sans-Serif" font-size="10.00">CellSociety.updateGrid</text>
</a>
</g>
</g>
<!-- Node3&#45;&gt;Node4 -->
<g id="edge3" class="edge"><title>Node3&#45;&gt;Node4</title>
<path fill="none" stroke="midnightblue" d="M321.73,-86C342.236,-86 366.903,-86 389.743,-86"/>
<polygon fill="midnightblue" stroke="midnightblue" points="389.743,-89.5001 399.743,-86 389.743,-82.5001 389.743,-89.5001"/>
</g>
<!-- Node5 -->
<g id="node5" class="node"><title>Node5</title>
<g id="a_node5"><a xlink:href="../../d8/d87/class_controller.html#aa8f10b5f28542d34053a7e4d5f1d6013" target="_top" xlink:title="Controller.runOneSim">
<polygon fill="white" stroke="black" points="583.5,-164.5 583.5,-183.5 702.5,-183.5 702.5,-164.5 583.5,-164.5"/>
<text text-anchor="middle" x="643" y="-171.5" font-family="Helvetica,sans-Serif" font-size="10.00">Controller.runOneSim</text>
</a>
</g>
</g>
<!-- Node4&#45;&gt;Node5 -->
<g id="edge4" class="edge"><title>Node4&#45;&gt;Node5</title>
<path fill="none" stroke="midnightblue" d="M473.801,-95.6464C490.881,-110.395 525.717,-138.471 560,-154 566.515,-156.951 573.527,-159.504 580.61,-161.704"/>
<polygon fill="midnightblue" stroke="midnightblue" points="579.693,-165.082 590.271,-164.487 581.631,-158.355 579.693,-165.082"/>
</g>
<!-- Node6 -->
<g id="node6" class="node"><title>Node6</title>
<g id="a_node6"><a xlink:href="../../d3/dff/class_cell_society.html#a64ebaee33d25e0e730024e67d5582c63" target="_top" xlink:title="CellSociety.updateColors">
<polygon fill="white" stroke="black" points="576,-76.5 576,-95.5 710,-95.5 710,-76.5 576,-76.5"/>
<text text-anchor="middle" x="643" y="-83.5" font-family="Helvetica,sans-Serif" font-size="10.00">CellSociety.updateColors</text>
</a>
</g>
</g>
<!-- Node4&#45;&gt;Node6 -->
<g id="edge5" class="edge"><title>Node4&#45;&gt;Node6</title>
<path fill="none" stroke="midnightblue" d="M524.101,-86C537.548,-86 551.95,-86 565.906,-86"/>
<polygon fill="midnightblue" stroke="midnightblue" points="565.97,-89.5001 575.97,-86 565.97,-82.5001 565.97,-89.5001"/>
</g>
<!-- Node8 -->
<g id="node8" class="node"><title>Node8</title>
<g id="a_node8"><a xlink:href="../../d2/d95/class_x_m_l_parser.html#ac4e3257aed1deb9fe950149f706fce5b" target="_top" xlink:title="XMLParser.getCellParamList">
<polygon fill="white" stroke="black" points="762.5,-49.5 762.5,-68.5 911.5,-68.5 911.5,-49.5 762.5,-49.5"/>
<text text-anchor="middle" x="837" y="-56.5" font-family="Helvetica,sans-Serif" font-size="10.00">XMLParser.getCellParamList</text>
</a>
</g>
</g>
<!-- Node4&#45;&gt;Node8 -->
<g id="edge10" class="edge"><title>Node4&#45;&gt;Node8</title>
<path fill="none" stroke="midnightblue" d="M503.831,-76.4536C521.066,-72.8283 541.411,-69.0757 560,-67 624.247,-59.826 697.395,-57.9903 752.239,-57.8594"/>
<polygon fill="midnightblue" stroke="midnightblue" points="752.262,-61.3595 762.26,-57.8539 752.258,-54.3595 752.262,-61.3595"/>
</g>
<!-- Node9 -->
<g id="node9" class="node"><title>Node9</title>
<g id="a_node9"><a xlink:href="../../df/df8/class_cell_society_view.html#a43ac2666d3a002024be53fe74028a576" target="_top" xlink:title="CellSocietyView.updateSimGrid">
<polygon fill="white" stroke="black" points="560.5,-0.5 560.5,-19.5 725.5,-19.5 725.5,-0.5 560.5,-0.5"/>
<text text-anchor="middle" x="643" y="-7.5" font-family="Helvetica,sans-Serif" font-size="10.00">CellSocietyView.updateSimGrid</text>
</a>
</g>
</g>
<!-- Node4&#45;&gt;Node9 -->
<g id="edge8" class="edge"><title>Node4&#45;&gt;Node9</title>
<path fill="none" stroke="midnightblue" d="M478.639,-76.3022C497.413,-64.9742 530.114,-46.2295 560,-34 570.724,-29.6116 582.539,-25.6667 593.78,-22.3032"/>
<polygon fill="midnightblue" stroke="midnightblue" points="594.835,-25.6415 603.469,-19.5006 592.89,-18.9172 594.835,-25.6415"/>
</g>
<!-- Node11 -->
<g id="node11" class="node"><title>Node11</title>
<g id="a_node11"><a xlink:href="../../df/df8/class_cell_society_view.html#a7ca77bdfdef97e9be9c9941c2f4d3513" target="_top" xlink:title="CellSocietyView.updateChart\lLines">
<polygon fill="white" stroke="black" points="566.5,-115 566.5,-145 719.5,-145 719.5,-115 566.5,-115"/>
<text text-anchor="start" x="574.5" y="-133" font-family="Helvetica,sans-Serif" font-size="10.00">CellSocietyView.updateChart</text>
<text text-anchor="middle" x="643" y="-122" font-family="Helvetica,sans-Serif" font-size="10.00">Lines</text>
</a>
</g>
</g>
<!-- Node4&#45;&gt;Node11 -->
<g id="edge11" class="edge"><title>Node4&#45;&gt;Node11</title>
<path fill="none" stroke="midnightblue" d="M501.84,-95.5473C521.994,-100.501 547.257,-106.711 570.764,-112.49"/>
<polygon fill="midnightblue" stroke="midnightblue" points="570.165,-115.946 580.711,-114.935 571.836,-109.149 570.165,-115.946"/>
</g>
<!-- Node7 -->
<g id="node7" class="node"><title>Node7</title>
<g id="a_node7"><a xlink:href="../../dd/d11/class_cell.html#a7f8d2520a26a1376a44372149e561f6b" target="_top" xlink:title="Cell.toString">
<polygon fill="white" stroke="black" points="799.5,-109.5 799.5,-128.5 874.5,-128.5 874.5,-109.5 799.5,-109.5"/>
<text text-anchor="middle" x="837" y="-116.5" font-family="Helvetica,sans-Serif" font-size="10.00">Cell.toString</text>
</a>
</g>
</g>
<!-- Node6&#45;&gt;Node7 -->
<g id="edge6" class="edge"><title>Node6&#45;&gt;Node7</title>
<path fill="none" stroke="midnightblue" d="M699.277,-95.5007C727.764,-100.397 762.125,-106.303 789.273,-110.969"/>
<polygon fill="midnightblue" stroke="midnightblue" points="788.849,-114.447 799.297,-112.692 790.035,-107.548 788.849,-114.447"/>
</g>
<!-- Node6&#45;&gt;Node8 -->
<g id="edge7" class="edge"><title>Node6&#45;&gt;Node8</title>
<path fill="none" stroke="midnightblue" d="M710.076,-76.7081C725.47,-74.5433 742.004,-72.2182 757.864,-69.9878"/>
<polygon fill="midnightblue" stroke="midnightblue" points="758.756,-73.397 768.171,-68.5385 757.781,-66.4652 758.756,-73.397"/>
</g>
<!-- Node10 -->
<g id="node10" class="node"><title>Node10</title>
<g id="a_node10"><a xlink:href="../../dd/d11/class_cell.html#a1e0ece61fecc69a9b7986d17d925434a" target="_top" xlink:title="Cell.getShape">
<polygon fill="white" stroke="black" points="795.5,-0.5 795.5,-19.5 878.5,-19.5 878.5,-0.5 795.5,-0.5"/>
<text text-anchor="middle" x="837" y="-7.5" font-family="Helvetica,sans-Serif" font-size="10.00">Cell.getShape</text>
</a>
</g>
</g>
<!-- Node9&#45;&gt;Node10 -->
<g id="edge9" class="edge"><title>Node9&#45;&gt;Node10</title>
<path fill="none" stroke="midnightblue" d="M725.704,-10C745.933,-10 767.029,-10 785.29,-10"/>
<polygon fill="midnightblue" stroke="midnightblue" points="785.401,-13.5001 795.401,-10 785.401,-6.5001 785.401,-13.5001"/>
</g>
<!-- Node11&#45;&gt;Node7 -->
<g id="edge12" class="edge"><title>Node11&#45;&gt;Node7</title>
<path fill="none" stroke="midnightblue" d="M719.608,-125.668C743.038,-124.326 768.168,-122.886 789.059,-121.689"/>
<polygon fill="midnightblue" stroke="midnightblue" points="789.473,-125.171 799.256,-121.105 789.072,-118.183 789.473,-125.171"/>
</g>
</g>
</svg>
