<?xml version="1.0" encoding="UTF-8" standalone="no"?>
<!DOCTYPE svg PUBLIC "-//W3C//DTD SVG 1.1//EN"
 "http://www.w3.org/Graphics/SVG/1.1/DTD/svg11.dtd">
<!-- Generated by graphviz version 2.36.0 (20140111.2315)
 -->
<!-- Title: CellSociety.createCellArray Pages: 1 -->
<svg width="554pt" height="168pt"
 viewBox="0.00 0.00 554.00 167.91" xmlns="http://www.w3.org/2000/svg" xmlns:xlink="http://www.w3.org/1999/xlink">
<g id="graph0" class="graph" transform="scale(1 1) rotate(0) translate(4 163.907)">
<title>CellSociety.createCellArray</title>
<polygon fill="white" stroke="none" points="-4,4 -4,-163.907 550,-163.907 550,4 -4,4"/>
<!-- Node1 -->
<g id="node1" class="node"><title>Node1</title>
<polygon fill="#bfbfbf" stroke="black" points="0,-76.5 0,-95.5 144,-95.5 144,-76.5 0,-76.5"/>
<text text-anchor="middle" x="72" y="-83.5" font-family="Helvetica,sans-Serif" font-size="10.00">CellSociety.createCellArray</text>
</g>
<!-- Node2 -->
<g id="node2" class="node"><title>Node2</title>
<g id="a_node2"><a xlink:href="../../d3/dff/class_cell_society.html#a117f1698760a3f6bbe51bd7af16f79bb" target="_top" xlink:title="CellSociety.createCellInstance">
<polygon fill="white" stroke="black" points="386.5,-38.5 386.5,-57.5 545.5,-57.5 545.5,-38.5 386.5,-38.5"/>
<text text-anchor="middle" x="466" y="-45.5" font-family="Helvetica,sans-Serif" font-size="10.00">CellSociety.createCellInstance</text>
</a>
</g>
</g>
<!-- Node1&#45;&gt;Node2 -->
<g id="edge1" class="edge"><title>Node1&#45;&gt;Node2</title>
<path fill="none" stroke="midnightblue" d="M85.9732,-95.6611C105.276,-109.37 143.243,-133.82 180,-143 253.304,-161.307 278.902,-168.569 350,-143 392.784,-127.614 430.974,-88.6486 450.748,-65.6833"/>
<polygon fill="midnightblue" stroke="midnightblue" points="453.657,-67.6608 457.396,-57.7475 448.291,-63.1656 453.657,-67.6608"/>
</g>
<!-- Node3 -->
<g id="node3" class="node"><title>Node3</title>
<g id="a_node3"><a xlink:href="../../d2/d95/class_x_m_l_parser.html#ac4e3257aed1deb9fe950149f706fce5b" target="_top" xlink:title="XMLParser.getCellParamList">
<polygon fill="white" stroke="black" points="190.5,-114.5 190.5,-133.5 339.5,-133.5 339.5,-114.5 190.5,-114.5"/>
<text text-anchor="middle" x="265" y="-121.5" font-family="Helvetica,sans-Serif" font-size="10.00">XMLParser.getCellParamList</text>
</a>
</g>
</g>
<!-- Node1&#45;&gt;Node3 -->
<g id="edge2" class="edge"><title>Node1&#45;&gt;Node3</title>
<path fill="none" stroke="midnightblue" d="M121.197,-95.589C146.97,-100.716 178.891,-107.067 206.012,-112.463"/>
<polygon fill="midnightblue" stroke="midnightblue" points="205.658,-115.961 216.149,-114.48 207.024,-109.096 205.658,-115.961"/>
</g>
<!-- Node4 -->
<g id="node4" class="node"><title>Node4</title>
<g id="a_node4"><a xlink:href="../../d2/d95/class_x_m_l_parser.html#aea9b535964c91fa3c3d2b1c0b6a334c2" target="_top" xlink:title="XMLParser.getInitParamMap">
<polygon fill="white" stroke="black" points="190.5,-76.5 190.5,-95.5 339.5,-95.5 339.5,-76.5 190.5,-76.5"/>
<text text-anchor="middle" x="265" y="-83.5" font-family="Helvetica,sans-Serif" font-size="10.00">XMLParser.getInitParamMap</text>
</a>
</g>
</g>
<!-- Node1&#45;&gt;Node4 -->
<g id="edge3" class="edge"><title>Node1&#45;&gt;Node4</title>
<path fill="none" stroke="midnightblue" d="M144.121,-86C155.888,-86 168.183,-86 180.226,-86"/>
<polygon fill="midnightblue" stroke="midnightblue" points="180.265,-89.5001 190.265,-86 180.265,-82.5001 180.265,-89.5001"/>
</g>
<!-- Node5 -->
<g id="node5" class="node"><title>Node5</title>
<g id="a_node5"><a xlink:href="../../d3/dff/class_cell_society.html#a5c0b747b2fbaaa317266890c48e0267f" target="_top" xlink:title="CellSociety.populateLocations">
<polygon fill="white" stroke="black" points="186,-0.5 186,-19.5 344,-19.5 344,-0.5 186,-0.5"/>
<text text-anchor="middle" x="265" y="-7.5" font-family="Helvetica,sans-Serif" font-size="10.00">CellSociety.populateLocations</text>
</a>
</g>
</g>
<!-- Node1&#45;&gt;Node5 -->
<g id="edge4" class="edge"><title>Node1&#45;&gt;Node5</title>
<path fill="none" stroke="midnightblue" d="M87.9884,-76.347C108.151,-63.759 145.475,-41.8362 180,-29 187.016,-26.3915 194.5,-24.0766 202.001,-22.0402"/>
<polygon fill="midnightblue" stroke="midnightblue" points="203.015,-25.3937 211.834,-19.5224 201.279,-18.6125 203.015,-25.3937"/>
</g>
<!-- Node7 -->
<g id="node7" class="node"><title>Node7</title>
<g id="a_node7"><a xlink:href="../../d3/dff/class_cell_society.html#a276d7f4c12da9d40e8720f762b47592a" target="_top" xlink:title="CellSociety.populateProbabilities">
<polygon fill="white" stroke="black" points="180,-38.5 180,-57.5 350,-57.5 350,-38.5 180,-38.5"/>
<text text-anchor="middle" x="265" y="-45.5" font-family="Helvetica,sans-Serif" font-size="10.00">CellSociety.populateProbabilities</text>
</a>
</g>
</g>
<!-- Node1&#45;&gt;Node7 -->
<g id="edge7" class="edge"><title>Node1&#45;&gt;Node7</title>
<path fill="none" stroke="midnightblue" d="M121.197,-76.411C146.97,-71.2835 178.891,-64.9328 206.012,-59.5368"/>
<polygon fill="midnightblue" stroke="midnightblue" points="207.024,-62.9041 216.149,-57.5201 205.658,-56.0387 207.024,-62.9041"/>
</g>
<!-- Node5&#45;&gt;Node2 -->
<g id="edge6" class="edge"><title>Node5&#45;&gt;Node2</title>
<path fill="none" stroke="midnightblue" d="M315.959,-19.54C343.045,-24.7122 376.708,-31.1401 405.183,-36.5778"/>
<polygon fill="midnightblue" stroke="midnightblue" points="404.541,-40.0183 415.02,-38.4561 405.854,-33.1425 404.541,-40.0183"/>
</g>
<!-- Node6 -->
<g id="node6" class="node"><title>Node6</title>
<g id="a_node6"><a xlink:href="../../d3/dff/class_cell_society.html#a42451b17e2bca5fd025c8d4ea74310ca" target="_top" xlink:title="CellSociety.stringToIntArray">
<polygon fill="white" stroke="black" points="393.5,-0.5 393.5,-19.5 538.5,-19.5 538.5,-0.5 393.5,-0.5"/>
<text text-anchor="middle" x="466" y="-7.5" font-family="Helvetica,sans-Serif" font-size="10.00">CellSociety.stringToIntArray</text>
</a>
</g>
</g>
<!-- Node5&#45;&gt;Node6 -->
<g id="edge5" class="edge"><title>Node5&#45;&gt;Node6</title>
<path fill="none" stroke="midnightblue" d="M344.079,-10C356.881,-10 370.18,-10 383.072,-10"/>
<polygon fill="midnightblue" stroke="midnightblue" points="383.307,-13.5001 393.307,-10 383.307,-6.5001 383.307,-13.5001"/>
</g>
<!-- Node7&#45;&gt;Node2 -->
<g id="edge8" class="edge"><title>Node7&#45;&gt;Node2</title>
<path fill="none" stroke="midnightblue" d="M350.105,-48C358.721,-48 367.494,-48 376.158,-48"/>
<polygon fill="midnightblue" stroke="midnightblue" points="376.263,-51.5001 386.263,-48 376.263,-44.5001 376.263,-51.5001"/>
</g>
</g>
</svg>
