<?xml version="1.0" encoding="UTF-8" standalone="no"?>
<!DOCTYPE svg PUBLIC "-//W3C//DTD SVG 1.1//EN"
 "http://www.w3.org/Graphics/SVG/1.1/DTD/svg11.dtd">
<!-- Generated by graphviz version 2.36.0 (20140111.2315)
 -->
<!-- Title: CellSociety.configureListeners Pages: 1 -->
<svg width="1522pt" height="731pt"
 viewBox="0.00 0.00 1522.00 730.80" xmlns="http://www.w3.org/2000/svg" xmlns:xlink="http://www.w3.org/1999/xlink">
<g id="graph0" class="graph" transform="scale(1 1) rotate(0) translate(4 726.802)">
<title>CellSociety.configureListeners</title>
<polygon fill="white" stroke="none" points="-4,4 -4,-726.802 1518,-726.802 1518,4 -4,4"/>
<!-- Node1 -->
<g id="node1" class="node"><title>Node1</title>
<polygon fill="#bfbfbf" stroke="black" points="0,-251.302 0,-270.302 158,-270.302 158,-251.302 0,-251.302"/>
<text text-anchor="middle" x="79" y="-258.302" font-family="Helvetica,sans-Serif" font-size="10.00">CellSociety.configureListeners</text>
</g>
<!-- Node2 -->
<g id="node2" class="node"><title>Node2</title>
<g id="a_node2"><a xlink:href="../../d3/dff/class_cell_society.html#a045267ba1843ca4a47891d7be73c2ac1" target="_top" xlink:title="CellSociety.decreaseFrameRate">
<polygon fill="white" stroke="black" points="196.5,-703.302 196.5,-722.302 363.5,-722.302 363.5,-703.302 196.5,-703.302"/>
<text text-anchor="middle" x="280" y="-710.302" font-family="Helvetica,sans-Serif" font-size="10.00">CellSociety.decreaseFrameRate</text>
</a>
</g>
</g>
<!-- Node1&#45;&gt;Node2 -->
<g id="edge1" class="edge"><title>Node1&#45;&gt;Node2</title>
<path fill="none" stroke="midnightblue" d="M81.1991,-270.602C88.5482,-329.078 129.333,-631.518 194,-693.802 195.47,-695.219 197.022,-696.538 198.642,-697.767"/>
<polygon fill="midnightblue" stroke="midnightblue" points="196.929,-700.825 207.257,-703.191 200.659,-694.901 196.929,-700.825"/>
</g>
<!-- Node6 -->
<g id="node6" class="node"><title>Node6</title>
<g id="a_node6"><a xlink:href="../../d3/dff/class_cell_society.html#a0ff19c30a1cc433d8ea8444f6a5617f1" target="_top" xlink:title="CellSociety.updateGrid">
<polygon fill="white" stroke="black" points="856,-494.302 856,-513.302 980,-513.302 980,-494.302 856,-494.302"/>
<text text-anchor="middle" x="918" y="-501.302" font-family="Helvetica,sans-Serif" font-size="10.00">CellSociety.updateGrid</text>
</a>
</g>
</g>
<!-- Node1&#45;&gt;Node6 -->
<g id="edge61" class="edge"><title>Node1&#45;&gt;Node6</title>
<path fill="none" stroke="midnightblue" d="M84.7954,-270.544C109.598,-319.661 228.88,-540.813 402,-617.802 580.537,-697.2 819.231,-565.046 893.77,-518.836"/>
<polygon fill="midnightblue" stroke="midnightblue" points="895.812,-521.686 902.415,-513.401 892.086,-515.76 895.812,-521.686"/>
</g>
<!-- Node16 -->
<g id="node16" class="node"><title>Node16</title>
<g id="a_node16"><a xlink:href="../../df/df8/class_cell_society_view.html#ada088eb9125561f8dd941badb141fa86" target="_top" xlink:title="CellSocietyView.getPause\lElement">
<polygon fill="white" stroke="black" points="211.5,-223.802 211.5,-253.802 348.5,-253.802 348.5,-223.802 211.5,-223.802"/>
<text text-anchor="start" x="219.5" y="-241.802" font-family="Helvetica,sans-Serif" font-size="10.00">CellSocietyView.getPause</text>
<text text-anchor="middle" x="280" y="-230.802" font-family="Helvetica,sans-Serif" font-size="10.00">Element</text>
</a>
</g>
</g>
<!-- Node1&#45;&gt;Node16 -->
<g id="edge17" class="edge"><title>Node1&#45;&gt;Node16</title>
<path fill="none" stroke="midnightblue" d="M158.079,-252.171C172.274,-250.601 187.079,-248.965 201.264,-247.396"/>
<polygon fill="midnightblue" stroke="midnightblue" points="201.91,-250.846 211.465,-246.269 201.141,-243.889 201.91,-250.846"/>
</g>
<!-- Node17 -->
<g id="node17" class="node"><title>Node17</title>
<g id="a_node17"><a xlink:href="../../df/df8/class_cell_society_view.html#aae7c36ea6b5215b0ba9ee01c72dfcb94" target="_top" xlink:title="CellSocietyView.getPlayElement">
<polygon fill="white" stroke="black" points="196,-185.302 196,-204.302 364,-204.302 364,-185.302 196,-185.302"/>
<text text-anchor="middle" x="280" y="-192.302" font-family="Helvetica,sans-Serif" font-size="10.00">CellSocietyView.getPlayElement</text>
</a>
</g>
</g>
<!-- Node1&#45;&gt;Node17 -->
<g id="edge18" class="edge"><title>Node1&#45;&gt;Node17</title>
<path fill="none" stroke="midnightblue" d="M100.204,-251.235C122.692,-240.88 160.313,-224.426 194,-213.802 202.277,-211.192 211.116,-208.797 219.848,-206.652"/>
<polygon fill="midnightblue" stroke="midnightblue" points="220.701,-210.047 229.626,-204.339 219.089,-203.235 220.701,-210.047"/>
</g>
<!-- Node18 -->
<g id="node18" class="node"><title>Node18</title>
<g id="a_node18"><a xlink:href="../../df/df8/class_cell_society_view.html#a0f616a01579a7293ef781d3e341ea1ac" target="_top" xlink:title="CellSocietyView.getSlowdown\lElement">
<polygon fill="white" stroke="black" points="202.5,-135.802 202.5,-165.802 357.5,-165.802 357.5,-135.802 202.5,-135.802"/>
<text text-anchor="start" x="210.5" y="-153.802" font-family="Helvetica,sans-Serif" font-size="10.00">CellSocietyView.getSlowdown</text>
<text text-anchor="middle" x="280" y="-142.802" font-family="Helvetica,sans-Serif" font-size="10.00">Element</text>
</a>
</g>
</g>
<!-- Node1&#45;&gt;Node18 -->
<g id="edge19" class="edge"><title>Node1&#45;&gt;Node18</title>
<path fill="none" stroke="midnightblue" d="M90.158,-251.222C109.121,-233.821 151.819,-196.878 194,-175.802 198.612,-173.498 203.473,-171.369 208.439,-169.408"/>
<polygon fill="midnightblue" stroke="midnightblue" points="209.915,-172.594 218.081,-165.843 207.487,-166.028 209.915,-172.594"/>
</g>
<!-- Node19 -->
<g id="node19" class="node"><title>Node19</title>
<g id="a_node19"><a xlink:href="../../df/df8/class_cell_society_view.html#a572d464cbe7d186dc9a5b0e4a8130689" target="_top" xlink:title="CellSocietyView.getSpeedup\lElement">
<polygon fill="white" stroke="black" points="204,-86.8024 204,-116.802 356,-116.802 356,-86.8024 204,-86.8024"/>
<text text-anchor="start" x="212" y="-104.802" font-family="Helvetica,sans-Serif" font-size="10.00">CellSocietyView.getSpeedup</text>
<text text-anchor="middle" x="280" y="-93.8024" font-family="Helvetica,sans-Serif" font-size="10.00">Element</text>
</a>
</g>
</g>
<!-- Node1&#45;&gt;Node19 -->
<g id="edge20" class="edge"><title>Node1&#45;&gt;Node19</title>
<path fill="none" stroke="midnightblue" d="M85.2683,-251.281C99.4319,-226.588 140.879,-160.029 194,-125.802 196.477,-124.206 199.062,-122.715 201.723,-121.32"/>
<polygon fill="midnightblue" stroke="midnightblue" points="203.464,-124.369 211.025,-116.948 200.486,-118.034 203.464,-124.369"/>
</g>
<!-- Node20 -->
<g id="node20" class="node"><title>Node20</title>
<g id="a_node20"><a xlink:href="../../df/df8/class_cell_society_view.html#a3c3a7039f77d392c374cd309967ca1cc" target="_top" xlink:title="CellSocietyView.getStepElement">
<polygon fill="white" stroke="black" points="194.5,-48.3024 194.5,-67.3024 365.5,-67.3024 365.5,-48.3024 194.5,-48.3024"/>
<text text-anchor="middle" x="280" y="-55.3024" font-family="Helvetica,sans-Serif" font-size="10.00">CellSocietyView.getStepElement</text>
</a>
</g>
</g>
<!-- Node1&#45;&gt;Node20 -->
<g id="edge21" class="edge"><title>Node1&#45;&gt;Node20</title>
<path fill="none" stroke="midnightblue" d="M83.0468,-250.898C93.1649,-219.761 128.763,-123.181 194,-76.8024 196.711,-74.8749 199.584,-73.1384 202.571,-71.5742"/>
<polygon fill="midnightblue" stroke="midnightblue" points="204.162,-74.6959 211.826,-67.3803 201.273,-68.32 204.162,-74.6959"/>
</g>
<!-- Node21 -->
<g id="node21" class="node"><title>Node21</title>
<g id="a_node21"><a xlink:href="../../df/df8/class_cell_society_view.html#aebad9aaff0e9784fec1518d319e03c85" target="_top" xlink:title="CellSocietyView.getXMLElement">
<polygon fill="white" stroke="black" points="196,-10.3024 196,-29.3024 364,-29.3024 364,-10.3024 196,-10.3024"/>
<text text-anchor="middle" x="280" y="-17.3024" font-family="Helvetica,sans-Serif" font-size="10.00">CellSocietyView.getXMLElement</text>
</a>
</g>
</g>
<!-- Node1&#45;&gt;Node21 -->
<g id="edge22" class="edge"><title>Node1&#45;&gt;Node21</title>
<path fill="none" stroke="midnightblue" d="M81.9525,-250.919C89.426,-215.836 119.62,-96.3094 194,-38.8024 196.299,-37.0249 198.732,-35.4072 201.266,-33.9353"/>
<polygon fill="midnightblue" stroke="midnightblue" points="202.832,-37.0654 210.221,-29.4724 199.709,-30.8003 202.832,-37.0654"/>
</g>
<!-- Node22 -->
<g id="node22" class="node"><title>Node22</title>
<g id="a_node22"><a xlink:href="../../d3/dff/class_cell_society.html#a8250bfacdaf51dabf6b9d1cafc0ce9b2" target="_top" xlink:title="CellSociety.increaseFrameRate">
<polygon fill="white" stroke="black" points="198.5,-665.302 198.5,-684.302 361.5,-684.302 361.5,-665.302 198.5,-665.302"/>
<text text-anchor="middle" x="280" y="-672.302" font-family="Helvetica,sans-Serif" font-size="10.00">CellSociety.increaseFrameRate</text>
</a>
</g>
</g>
<!-- Node1&#45;&gt;Node22 -->
<g id="edge23" class="edge"><title>Node1&#45;&gt;Node22</title>
<path fill="none" stroke="midnightblue" d="M79.6783,-270.344C78.5941,-318.622 80.2519,-538.095 194,-650.802 197.949,-654.715 202.483,-658 207.359,-660.758"/>
<polygon fill="midnightblue" stroke="midnightblue" points="205.926,-663.953 216.45,-665.174 208.984,-657.657 205.926,-663.953"/>
</g>
<!-- Node23 -->
<g id="node23" class="node"><title>Node23</title>
<g id="a_node23"><a xlink:href="../../d3/dff/class_cell_society.html#ae565a305ea53e5a37da9816a236b4fbc" target="_top" xlink:title="CellSociety.pauseAnimation">
<polygon fill="white" stroke="black" points="420.5,-64.3024 420.5,-83.3024 569.5,-83.3024 569.5,-64.3024 420.5,-64.3024"/>
<text text-anchor="middle" x="495" y="-71.3024" font-family="Helvetica,sans-Serif" font-size="10.00">CellSociety.pauseAnimation</text>
</a>
</g>
</g>
<!-- Node1&#45;&gt;Node23 -->
<g id="edge25" class="edge"><title>Node1&#45;&gt;Node23</title>
<path fill="none" stroke="midnightblue" d="M95.9015,-270.479C143.254,-297.923 285.058,-369.994 366,-301.802 438.085,-241.073 336.462,-160.545 402,-92.8024 404.853,-89.8537 408.033,-87.3011 411.449,-85.0951"/>
<polygon fill="midnightblue" stroke="midnightblue" points="413.223,-88.1151 420.374,-80.2976 409.909,-81.9494 413.223,-88.1151"/>
</g>
<!-- Node25 -->
<g id="node25" class="node"><title>Node25</title>
<g id="a_node25"><a xlink:href="../../d3/dff/class_cell_society.html#af9f22af39a97a58b26126020ca6c8844" target="_top" xlink:title="CellSociety.readNewXML">
<polygon fill="white" stroke="black" points="214,-349.302 214,-368.302 346,-368.302 346,-349.302 214,-349.302"/>
<text text-anchor="middle" x="280" y="-356.302" font-family="Helvetica,sans-Serif" font-size="10.00">CellSociety.readNewXML</text>
</a>
</g>
</g>
<!-- Node1&#45;&gt;Node25 -->
<g id="edge27" class="edge"><title>Node1&#45;&gt;Node25</title>
<path fill="none" stroke="midnightblue" d="M91.9427,-270.312C111.959,-285.832 154.025,-316.687 194,-334.802 204.052,-339.357 215.17,-343.248 225.96,-346.488"/>
<polygon fill="midnightblue" stroke="midnightblue" points="225.16,-349.9 235.737,-349.281 227.083,-343.169 225.16,-349.9"/>
</g>
<!-- Node47 -->
<g id="node47" class="node"><title>Node47</title>
<g id="a_node47"><a xlink:href="../../d3/dff/class_cell_society.html#a6a4056cd40e4162583f2b9845b77a191" target="_top" xlink:title="CellSociety.resumeAnimation">
<polygon fill="white" stroke="black" points="202,-273.302 202,-292.302 358,-292.302 358,-273.302 202,-273.302"/>
<text text-anchor="middle" x="280" y="-280.302" font-family="Helvetica,sans-Serif" font-size="10.00">CellSociety.resumeAnimation</text>
</a>
</g>
</g>
<!-- Node1&#45;&gt;Node47 -->
<g id="edge59" class="edge"><title>Node1&#45;&gt;Node47</title>
<path fill="none" stroke="midnightblue" d="M158.079,-269.434C169.083,-270.651 180.455,-271.908 191.62,-273.142"/>
<polygon fill="midnightblue" stroke="midnightblue" points="191.475,-276.648 201.799,-274.268 192.244,-269.69 191.475,-276.648"/>
</g>
<!-- Node3 -->
<g id="node3" class="node"><title>Node3</title>
<g id="a_node3"><a xlink:href="../../d3/dff/class_cell_society.html#adc5feda3db5472cea4e092d463681033" target="_top" xlink:title="CellSociety.reframeTimeline">
<polygon fill="white" stroke="black" points="420.5,-684.302 420.5,-703.302 569.5,-703.302 569.5,-684.302 420.5,-684.302"/>
<text text-anchor="middle" x="495" y="-691.302" font-family="Helvetica,sans-Serif" font-size="10.00">CellSociety.reframeTimeline</text>
</a>
</g>
</g>
<!-- Node2&#45;&gt;Node3 -->
<g id="edge2" class="edge"><title>Node2&#45;&gt;Node3</title>
<path fill="none" stroke="midnightblue" d="M363.656,-705.429C379.004,-704.06 395.049,-702.629 410.425,-701.258"/>
<polygon fill="midnightblue" stroke="midnightblue" points="410.768,-704.741 420.418,-700.366 410.146,-697.769 410.768,-704.741"/>
</g>
<!-- Node4 -->
<g id="node4" class="node"><title>Node4</title>
<g id="a_node4"><a xlink:href="../../df/df8/class_cell_society_view.html#a99eb733c00ed7c1bcba8f2d684791a09" target="_top" xlink:title="CellSocietyView.displayFrameRate">
<polygon fill="white" stroke="black" points="624,-655.302 624,-674.302 802,-674.302 802,-655.302 624,-655.302"/>
<text text-anchor="middle" x="713" y="-662.302" font-family="Helvetica,sans-Serif" font-size="10.00">CellSocietyView.displayFrameRate</text>
</a>
</g>
</g>
<!-- Node3&#45;&gt;Node4 -->
<g id="edge3" class="edge"><title>Node3&#45;&gt;Node4</title>
<path fill="none" stroke="midnightblue" d="M567.026,-684.267C587.42,-681.528 609.814,-678.522 630.773,-675.708"/>
<polygon fill="midnightblue" stroke="midnightblue" points="631.486,-679.144 640.932,-674.344 630.555,-672.206 631.486,-679.144"/>
</g>
<!-- Node5 -->
<g id="node5" class="node"><title>Node5</title>
<g id="a_node5"><a xlink:href="../../d3/dff/class_cell_society.html#abf13a64ee79f2cb063447b499c695c58" target="_top" xlink:title="CellSociety.start">
<polygon fill="white" stroke="black" points="666.5,-693.302 666.5,-712.302 759.5,-712.302 759.5,-693.302 666.5,-693.302"/>
<text text-anchor="middle" x="713" y="-700.302" font-family="Helvetica,sans-Serif" font-size="10.00">CellSociety.start</text>
</a>
</g>
</g>
<!-- Node3&#45;&gt;Node5 -->
<g id="edge4" class="edge"><title>Node3&#45;&gt;Node5</title>
<path fill="none" stroke="midnightblue" d="M569.731,-696.875C597.999,-698.052 629.76,-699.376 656.091,-700.473"/>
<polygon fill="midnightblue" stroke="midnightblue" points="656.131,-703.978 666.268,-700.897 656.423,-696.984 656.131,-703.978"/>
</g>
<!-- Node5&#45;&gt;Node6 -->
<g id="edge5" class="edge"><title>Node5&#45;&gt;Node6</title>
<path fill="none" stroke="midnightblue" d="M759.718,-699.851C774.225,-697.18 789.68,-692.367 802,-683.802 861.03,-642.768 896.605,-560.658 910.397,-523.216"/>
<polygon fill="midnightblue" stroke="midnightblue" points="913.793,-524.11 913.846,-513.516 907.198,-521.765 913.793,-524.11"/>
</g>
<!-- Node7 -->
<g id="node7" class="node"><title>Node7</title>
<g id="a_node7"><a xlink:href="../../d3/dff/class_cell_society.html#a64ebaee33d25e0e730024e67d5582c63" target="_top" xlink:title="CellSociety.updateColors">
<polygon fill="white" stroke="black" points="1050,-456.302 1050,-475.302 1184,-475.302 1184,-456.302 1050,-456.302"/>
<text text-anchor="middle" x="1117" y="-463.302" font-family="Helvetica,sans-Serif" font-size="10.00">CellSociety.updateColors</text>
</a>
</g>
</g>
<!-- Node6&#45;&gt;Node7 -->
<g id="edge6" class="edge"><title>Node6&#45;&gt;Node7</title>
<path fill="none" stroke="midnightblue" d="M968.457,-494.262C995.154,-489.113 1028.3,-482.718 1056.42,-477.296"/>
<polygon fill="midnightblue" stroke="midnightblue" points="1057.37,-480.677 1066.52,-475.346 1056.04,-473.804 1057.37,-480.677"/>
</g>
<!-- Node9 -->
<g id="node9" class="node"><title>Node9</title>
<g id="a_node9"><a xlink:href="../../d2/d95/class_x_m_l_parser.html#ac4e3257aed1deb9fe950149f706fce5b" target="_top" xlink:title="XMLParser.getCellParamList">
<polygon fill="white" stroke="black" points="1236.5,-349.302 1236.5,-368.302 1385.5,-368.302 1385.5,-349.302 1236.5,-349.302"/>
<text text-anchor="middle" x="1311" y="-356.302" font-family="Helvetica,sans-Serif" font-size="10.00">XMLParser.getCellParamList</text>
</a>
</g>
</g>
<!-- Node6&#45;&gt;Node9 -->
<g id="edge14" class="edge"><title>Node6&#45;&gt;Node9</title>
<path fill="none" stroke="midnightblue" d="M926.056,-494.143C942.34,-472.674 984.926,-421.058 1034,-397.802 1094.23,-369.26 1169.54,-360.141 1226.27,-357.807"/>
<polygon fill="midnightblue" stroke="midnightblue" points="1226.41,-361.305 1236.28,-357.458 1226.17,-354.309 1226.41,-361.305"/>
</g>
<!-- Node11 -->
<g id="node11" class="node"><title>Node11</title>
<g id="a_node11"><a xlink:href="../../d8/d87/class_controller.html#aa8f10b5f28542d34053a7e4d5f1d6013" target="_top" xlink:title="Controller.runOneSim">
<polygon fill="white" stroke="black" points="1057.5,-494.302 1057.5,-513.302 1176.5,-513.302 1176.5,-494.302 1057.5,-494.302"/>
<text text-anchor="middle" x="1117" y="-501.302" font-family="Helvetica,sans-Serif" font-size="10.00">Controller.runOneSim</text>
</a>
</g>
</g>
<!-- Node6&#45;&gt;Node11 -->
<g id="edge10" class="edge"><title>Node6&#45;&gt;Node11</title>
<path fill="none" stroke="midnightblue" d="M980.252,-503.802C1001.51,-503.802 1025.48,-503.802 1047.3,-503.802"/>
<polygon fill="midnightblue" stroke="midnightblue" points="1047.48,-507.303 1057.48,-503.802 1047.48,-500.303 1047.48,-507.303"/>
</g>
<!-- Node12 -->
<g id="node12" class="node"><title>Node12</title>
<g id="a_node12"><a xlink:href="../../df/df8/class_cell_society_view.html#a43ac2666d3a002024be53fe74028a576" target="_top" xlink:title="CellSocietyView.updateSimGrid">
<polygon fill="white" stroke="black" points="1034.5,-532.302 1034.5,-551.302 1199.5,-551.302 1199.5,-532.302 1034.5,-532.302"/>
<text text-anchor="middle" x="1117" y="-539.302" font-family="Helvetica,sans-Serif" font-size="10.00">CellSocietyView.updateSimGrid</text>
</a>
</g>
</g>
<!-- Node6&#45;&gt;Node12 -->
<g id="edge11" class="edge"><title>Node6&#45;&gt;Node12</title>
<path fill="none" stroke="midnightblue" d="M968.457,-513.342C995.154,-518.492 1028.3,-524.886 1056.42,-530.309"/>
<polygon fill="midnightblue" stroke="midnightblue" points="1056.04,-533.801 1066.52,-532.259 1057.37,-526.928 1056.04,-533.801"/>
</g>
<!-- Node15 -->
<g id="node15" class="node"><title>Node15</title>
<g id="a_node15"><a xlink:href="../../df/df8/class_cell_society_view.html#a7ca77bdfdef97e9be9c9941c2f4d3513" target="_top" xlink:title="CellSocietyView.updateChart\lLines">
<polygon fill="white" stroke="black" points="1040.5,-406.802 1040.5,-436.802 1193.5,-436.802 1193.5,-406.802 1040.5,-406.802"/>
<text text-anchor="start" x="1048.5" y="-424.802" font-family="Helvetica,sans-Serif" font-size="10.00">CellSocietyView.updateChart</text>
<text text-anchor="middle" x="1117" y="-413.802" font-family="Helvetica,sans-Serif" font-size="10.00">Lines</text>
</a>
</g>
</g>
<!-- Node6&#45;&gt;Node15 -->
<g id="edge15" class="edge"><title>Node6&#45;&gt;Node15</title>
<path fill="none" stroke="midnightblue" d="M936.129,-494.2C958.25,-482.06 998.172,-461.031 1034,-446.802 1039.9,-444.459 1046.11,-442.203 1052.36,-440.069"/>
<polygon fill="midnightblue" stroke="midnightblue" points="1053.79,-443.284 1062.19,-436.823 1051.6,-436.637 1053.79,-443.284"/>
</g>
<!-- Node8 -->
<g id="node8" class="node"><title>Node8</title>
<g id="a_node8"><a xlink:href="../../dd/d11/class_cell.html#a7f8d2520a26a1376a44372149e561f6b" target="_top" xlink:title="Cell.toString">
<polygon fill="white" stroke="black" points="1273.5,-415.302 1273.5,-434.302 1348.5,-434.302 1348.5,-415.302 1273.5,-415.302"/>
<text text-anchor="middle" x="1311" y="-422.302" font-family="Helvetica,sans-Serif" font-size="10.00">Cell.toString</text>
</a>
</g>
</g>
<!-- Node7&#45;&gt;Node8 -->
<g id="edge7" class="edge"><title>Node7&#45;&gt;Node8</title>
<path fill="none" stroke="midnightblue" d="M1162.53,-456.293C1192.79,-449.832 1232.73,-441.303 1263.41,-434.751"/>
<polygon fill="midnightblue" stroke="midnightblue" points="1264.39,-438.122 1273.43,-432.611 1262.92,-431.276 1264.39,-438.122"/>
</g>
<!-- Node7&#45;&gt;Node9 -->
<g id="edge8" class="edge"><title>Node7&#45;&gt;Node9</title>
<path fill="none" stroke="midnightblue" d="M1176.19,-456.241C1184.51,-453.573 1192.7,-450.162 1200,-445.802 1220.53,-433.534 1217.74,-421.246 1236,-405.802 1250.49,-393.549 1268.42,-382.083 1283,-373.543"/>
<polygon fill="midnightblue" stroke="midnightblue" points="1285.09,-376.38 1292.03,-368.375 1281.61,-370.305 1285.09,-376.38"/>
</g>
<!-- Node10 -->
<g id="node10" class="node"><title>Node10</title>
<g id="a_node10"><a xlink:href="../../dd/d11/class_cell.html#a03cf6177b031a2270a723aa5977b812e" target="_top" xlink:title="Cell.setColor">
<polygon fill="white" stroke="black" points="1272.5,-456.302 1272.5,-475.302 1349.5,-475.302 1349.5,-456.302 1272.5,-456.302"/>
<text text-anchor="middle" x="1311" y="-463.302" font-family="Helvetica,sans-Serif" font-size="10.00">Cell.setColor</text>
</a>
</g>
</g>
<!-- Node7&#45;&gt;Node10 -->
<g id="edge9" class="edge"><title>Node7&#45;&gt;Node10</title>
<path fill="none" stroke="midnightblue" d="M1184.08,-465.802C1209.78,-465.802 1238.66,-465.802 1262.27,-465.802"/>
<polygon fill="midnightblue" stroke="midnightblue" points="1262.38,-469.303 1272.38,-465.802 1262.38,-462.303 1262.38,-469.303"/>
</g>
<!-- Node13 -->
<g id="node13" class="node"><title>Node13</title>
<g id="a_node13"><a xlink:href="../../da/d74/class_grid.html#a35a1ac27af1320c129643842e74a904b" target="_top" xlink:title="Grid.update">
<polygon fill="white" stroke="black" points="1274.5,-532.302 1274.5,-551.302 1347.5,-551.302 1347.5,-532.302 1274.5,-532.302"/>
<text text-anchor="middle" x="1311" y="-539.302" font-family="Helvetica,sans-Serif" font-size="10.00">Grid.update</text>
</a>
</g>
</g>
<!-- Node12&#45;&gt;Node13 -->
<g id="edge12" class="edge"><title>Node12&#45;&gt;Node13</title>
<path fill="none" stroke="midnightblue" d="M1199.7,-541.802C1221.85,-541.802 1245.04,-541.802 1264.41,-541.802"/>
<polygon fill="midnightblue" stroke="midnightblue" points="1264.45,-545.303 1274.45,-541.802 1264.45,-538.303 1264.45,-545.303"/>
</g>
<!-- Node14 -->
<g id="node14" class="node"><title>Node14</title>
<g id="a_node14"><a xlink:href="../../da/d74/class_grid.html#a12ccb8909871030fc2e2839dff169f3a" target="_top" xlink:title="Grid.displayGrid">
<polygon fill="white" stroke="black" points="1422,-532.302 1422,-551.302 1514,-551.302 1514,-532.302 1422,-532.302"/>
<text text-anchor="middle" x="1468" y="-539.302" font-family="Helvetica,sans-Serif" font-size="10.00">Grid.displayGrid</text>
</a>
</g>
</g>
<!-- Node13&#45;&gt;Node14 -->
<g id="edge13" class="edge"><title>Node13&#45;&gt;Node14</title>
<path fill="none" stroke="midnightblue" d="M1347.56,-541.802C1366.53,-541.802 1390.3,-541.802 1411.63,-541.802"/>
<polygon fill="midnightblue" stroke="midnightblue" points="1411.87,-545.303 1421.87,-541.802 1411.87,-538.303 1411.87,-545.303"/>
</g>
<!-- Node15&#45;&gt;Node8 -->
<g id="edge16" class="edge"><title>Node15&#45;&gt;Node8</title>
<path fill="none" stroke="midnightblue" d="M1193.61,-422.984C1217.04,-423.35 1242.17,-423.743 1263.06,-424.069"/>
<polygon fill="midnightblue" stroke="midnightblue" points="1263.2,-427.572 1273.26,-424.228 1263.31,-420.572 1263.2,-427.572"/>
</g>
<!-- Node22&#45;&gt;Node3 -->
<g id="edge24" class="edge"><title>Node22&#45;&gt;Node3</title>
<path fill="none" stroke="midnightblue" d="M361.526,-681.986C377.375,-683.399 394.041,-684.886 410.001,-686.31"/>
<polygon fill="midnightblue" stroke="midnightblue" points="410.1,-689.832 420.371,-687.235 410.722,-682.86 410.1,-689.832"/>
</g>
<!-- Node24 -->
<g id="node24" class="node"><title>Node24</title>
<g id="a_node24"><a xlink:href="../../df/df8/class_cell_society_view.html#ae83511f9bf3610b0750d41c4aeb0f778" target="_top" xlink:title="CellSocietyView.setButtons\lPause">
<polygon fill="white" stroke="black" points="640,-2.80244 640,-32.8024 786,-32.8024 786,-2.80244 640,-2.80244"/>
<text text-anchor="start" x="648" y="-20.8024" font-family="Helvetica,sans-Serif" font-size="10.00">CellSocietyView.setButtons</text>
<text text-anchor="middle" x="713" y="-9.80244" font-family="Helvetica,sans-Serif" font-size="10.00">Pause</text>
</a>
</g>
</g>
<!-- Node23&#45;&gt;Node24 -->
<g id="edge26" class="edge"><title>Node23&#45;&gt;Node24</title>
<path fill="none" stroke="midnightblue" d="M533.132,-64.1757C563.452,-56.315 607.114,-44.9952 643.709,-35.5075"/>
<polygon fill="midnightblue" stroke="midnightblue" points="645.025,-38.7822 653.826,-32.8845 643.268,-32.0062 645.025,-38.7822"/>
</g>
<!-- Node25&#45;&gt;Node4 -->
<g id="edge55" class="edge"><title>Node25&#45;&gt;Node4</title>
<path fill="none" stroke="midnightblue" d="M284.404,-368.714C295.65,-399.861 334.772,-496.393 402,-541.802 471.919,-589.029 510.326,-546.851 588,-579.802 629.087,-597.233 670.611,-629.303 693.656,-648.678"/>
<polygon fill="midnightblue" stroke="midnightblue" points="691.399,-651.353 701.275,-655.191 695.948,-646.032 691.399,-651.353"/>
</g>
<!-- Node25&#45;&gt;Node9 -->
<g id="edge56" class="edge"><title>Node25&#45;&gt;Node9</title>
<path fill="none" stroke="midnightblue" d="M346.217,-358.455C476.778,-357.779 779.567,-356.309 1034,-355.802 1107.78,-355.655 1126.23,-354.797 1200,-355.802 1208.54,-355.919 1217.44,-356.086 1226.33,-356.283"/>
<polygon fill="midnightblue" stroke="midnightblue" points="1226.26,-359.782 1236.34,-356.516 1226.42,-352.784 1226.26,-359.782"/>
</g>
<!-- Node25&#45;&gt;Node15 -->
<g id="edge58" class="edge"><title>Node25&#45;&gt;Node15</title>
<path fill="none" stroke="midnightblue" d="M346.008,-362.422C408.166,-365.979 504.514,-371.741 588,-377.802 744.042,-389.132 925.809,-404.829 1030.24,-414.09"/>
<polygon fill="midnightblue" stroke="midnightblue" points="1030.14,-417.595 1040.41,-414.993 1030.76,-410.622 1030.14,-417.595"/>
</g>
<!-- Node25&#45;&gt;Node23 -->
<g id="edge54" class="edge"><title>Node25&#45;&gt;Node23</title>
<path fill="none" stroke="midnightblue" d="M346.032,-349.167C353.585,-345.68 360.53,-341.019 366,-334.802 437.835,-253.17 327.292,-171.814 402,-92.8024 404.819,-89.8213 407.972,-87.2425 411.367,-85.0159"/>
<polygon fill="midnightblue" stroke="midnightblue" points="413.141,-88.0347 420.249,-80.1778 409.793,-81.8874 413.141,-88.0347"/>
</g>
<!-- Node26 -->
<g id="node26" class="node"><title>Node26</title>
<g id="a_node26"><a xlink:href="../../df/df8/class_cell_society_view.html#a053b6ef6afa80722445223c4e373e51c" target="_top" xlink:title="CellSocietyView.displayXMLChooser">
<polygon fill="white" stroke="black" points="402.5,-140.302 402.5,-159.302 587.5,-159.302 587.5,-140.302 402.5,-140.302"/>
<text text-anchor="middle" x="495" y="-147.302" font-family="Helvetica,sans-Serif" font-size="10.00">CellSocietyView.displayXMLChooser</text>
</a>
</g>
</g>
<!-- Node25&#45;&gt;Node26 -->
<g id="edge28" class="edge"><title>Node25&#45;&gt;Node26</title>
<path fill="none" stroke="midnightblue" d="M344.807,-349.201C352.742,-345.726 360.118,-341.059 366,-334.802 417.711,-279.802 348.355,-221.919 402,-168.802 403.434,-167.382 404.945,-166.055 406.521,-164.815"/>
<polygon fill="midnightblue" stroke="midnightblue" points="408.459,-167.73 414.898,-159.316 404.618,-161.878 408.459,-167.73"/>
</g>
<!-- Node27 -->
<g id="node27" class="node"><title>Node27</title>
<g id="a_node27"><a xlink:href="../../d2/d95/class_x_m_l_parser.html#a77ee23818c822b69cdf4200eef726a61" target="_top" xlink:title="XMLParser.parseXMLFile">
<polygon fill="white" stroke="black" points="430,-102.302 430,-121.302 560,-121.302 560,-102.302 430,-102.302"/>
<text text-anchor="middle" x="495" y="-109.302" font-family="Helvetica,sans-Serif" font-size="10.00">XMLParser.parseXMLFile</text>
</a>
</g>
</g>
<!-- Node25&#45;&gt;Node27 -->
<g id="edge29" class="edge"><title>Node25&#45;&gt;Node27</title>
<path fill="none" stroke="midnightblue" d="M345.455,-349.219C353.194,-345.733 360.344,-341.058 366,-334.802 427.749,-266.512 337.849,-196.841 402,-130.802 407.156,-125.494 413.375,-121.471 420.118,-118.444"/>
<polygon fill="midnightblue" stroke="midnightblue" points="421.444,-121.685 429.586,-114.906 418.994,-115.127 421.444,-121.685"/>
</g>
<!-- Node31 -->
<g id="node31" class="node"><title>Node31</title>
<g id="a_node31"><a xlink:href="../../d3/dff/class_cell_society.html#abfbf43ce46b4c82c16a2d933b6a11abf" target="_top" xlink:title="CellSociety.retrieveParserInfo">
<polygon fill="white" stroke="black" points="417.5,-178.302 417.5,-197.302 572.5,-197.302 572.5,-178.302 417.5,-178.302"/>
<text text-anchor="middle" x="495" y="-185.302" font-family="Helvetica,sans-Serif" font-size="10.00">CellSociety.retrieveParserInfo</text>
</a>
</g>
</g>
<!-- Node25&#45;&gt;Node31 -->
<g id="edge33" class="edge"><title>Node25&#45;&gt;Node31</title>
<path fill="none" stroke="midnightblue" d="M343.548,-349.172C351.863,-345.716 359.681,-341.061 366,-334.802 406.469,-294.718 361.133,-251.48 402,-211.802 405.997,-207.922 410.539,-204.647 415.413,-201.886"/>
<polygon fill="midnightblue" stroke="midnightblue" points="417.048,-204.983 424.499,-197.452 413.977,-198.693 417.048,-204.983"/>
</g>
<!-- Node32 -->
<g id="node32" class="node"><title>Node32</title>
<g id="a_node32"><a xlink:href="../../d2/d95/class_x_m_l_parser.html#aea9b535964c91fa3c3d2b1c0b6a334c2" target="_top" xlink:title="XMLParser.getInitParamMap">
<polygon fill="white" stroke="black" points="638.5,-128.302 638.5,-147.302 787.5,-147.302 787.5,-128.302 638.5,-128.302"/>
<text text-anchor="middle" x="713" y="-135.302" font-family="Helvetica,sans-Serif" font-size="10.00">XMLParser.getInitParamMap</text>
</a>
</g>
</g>
<!-- Node25&#45;&gt;Node32 -->
<g id="edge37" class="edge"><title>Node25&#45;&gt;Node32</title>
<path fill="none" stroke="midnightblue" d="M331.567,-349.204C343.965,-344.915 356.412,-338.725 366,-329.802 396.033,-301.853 370.25,-270.786 402,-244.802 467.296,-191.366 517.155,-252.628 588,-206.802 610.992,-191.93 601.091,-171.802 624,-156.802 627.126,-154.756 630.436,-152.925 633.867,-151.289"/>
<polygon fill="midnightblue" stroke="midnightblue" points="635.314,-154.478 643.194,-147.396 632.617,-148.018 635.314,-154.478"/>
</g>
<!-- Node34 -->
<g id="node34" class="node"><title>Node34</title>
<g id="a_node34"><a xlink:href="../../dd/d11/class_cell.html#a7157b57f4ff263ea68e1ff5fc424176e" target="_top" xlink:title="Cell.setCellSize">
<polygon fill="white" stroke="black" points="450.5,-513.302 450.5,-532.302 539.5,-532.302 539.5,-513.302 450.5,-513.302"/>
<text text-anchor="middle" x="495" y="-520.302" font-family="Helvetica,sans-Serif" font-size="10.00">Cell.setCellSize</text>
</a>
</g>
</g>
<!-- Node25&#45;&gt;Node34 -->
<g id="edge36" class="edge"><title>Node25&#45;&gt;Node34</title>
<path fill="none" stroke="midnightblue" d="M285.995,-368.489C300.18,-394.942 343.49,-468.768 402,-503.802 413.485,-510.679 427.062,-515.1 440.21,-517.932"/>
<polygon fill="midnightblue" stroke="midnightblue" points="439.664,-521.39 450.139,-519.802 440.96,-514.511 439.664,-521.39"/>
</g>
<!-- Node35 -->
<g id="node35" class="node"><title>Node35</title>
<g id="a_node35"><a xlink:href="../../d3/dff/class_cell_society.html#a7a6dab68551f91cc4b120faa51670bf8" target="_top" xlink:title="CellSociety.createCellArray">
<polygon fill="white" stroke="black" points="423,-254.302 423,-273.302 567,-273.302 567,-254.302 423,-254.302"/>
<text text-anchor="middle" x="495" y="-261.302" font-family="Helvetica,sans-Serif" font-size="10.00">CellSociety.createCellArray</text>
</a>
</g>
</g>
<!-- Node25&#45;&gt;Node35 -->
<g id="edge38" class="edge"><title>Node25&#45;&gt;Node35</title>
<path fill="none" stroke="midnightblue" d="M327.215,-349.227C340.151,-345.63 353.958,-340.891 366,-334.802 384.089,-325.657 384.71,-317.382 402,-306.802 420.526,-295.466 442.525,-285.083 460.366,-277.361"/>
<polygon fill="midnightblue" stroke="midnightblue" points="461.964,-280.485 469.801,-273.355 459.228,-274.042 461.964,-280.485"/>
</g>
<!-- Node41 -->
<g id="node41" class="node"><title>Node41</title>
<g id="a_node41"><a xlink:href="../../df/df8/class_cell_society_view.html#ab0adb0e17b74be4e0192b02e2116e4a1" target="_top" xlink:title="CellSocietyView.openDialogBox">
<polygon fill="white" stroke="black" points="412.5,-475.302 412.5,-494.302 577.5,-494.302 577.5,-475.302 412.5,-475.302"/>
<text text-anchor="middle" x="495" y="-482.302" font-family="Helvetica,sans-Serif" font-size="10.00">CellSocietyView.openDialogBox</text>
</a>
</g>
</g>
<!-- Node25&#45;&gt;Node41 -->
<g id="edge48" class="edge"><title>Node25&#45;&gt;Node41</title>
<path fill="none" stroke="midnightblue" d="M288.943,-368.508C306.783,-389.614 352.368,-439.795 402,-464.802 407.652,-467.65 413.698,-470.094 419.891,-472.191"/>
<polygon fill="midnightblue" stroke="midnightblue" points="419.12,-475.616 429.707,-475.209 421.178,-468.925 419.12,-475.616"/>
</g>
<!-- Node42 -->
<g id="node42" class="node"><title>Node42</title>
<g id="a_node42"><a xlink:href="../../d3/dff/class_cell_society.html#ab9e56a2a70e210e021b51e898508329b" target="_top" xlink:title="CellSociety.setupAnimation">
<polygon fill="white" stroke="black" points="422,-589.302 422,-608.302 568,-608.302 568,-589.302 422,-589.302"/>
<text text-anchor="middle" x="495" y="-596.302" font-family="Helvetica,sans-Serif" font-size="10.00">CellSociety.setupAnimation</text>
</a>
</g>
</g>
<!-- Node25&#45;&gt;Node42 -->
<g id="edge49" class="edge"><title>Node25&#45;&gt;Node42</title>
<path fill="none" stroke="midnightblue" d="M283.429,-368.344C292.568,-402.23 328.182,-517.787 402,-574.802 407.53,-579.073 413.746,-582.588 420.27,-585.48"/>
<polygon fill="midnightblue" stroke="midnightblue" points="419.418,-588.905 430.006,-589.287 421.967,-582.385 419.418,-588.905"/>
</g>
<!-- Node43 -->
<g id="node43" class="node"><title>Node43</title>
<g id="a_node43"><a xlink:href="../../df/df8/class_cell_society_view.html#a068f17fd6777087a8debf1f67b576836" target="_top" xlink:title="CellSocietyView.setupInitialGrid">
<polygon fill="white" stroke="black" points="413,-387.302 413,-406.302 577,-406.302 577,-387.302 413,-387.302"/>
<text text-anchor="middle" x="495" y="-394.302" font-family="Helvetica,sans-Serif" font-size="10.00">CellSocietyView.setupInitialGrid</text>
</a>
</g>
</g>
<!-- Node25&#45;&gt;Node43 -->
<g id="edge51" class="edge"><title>Node25&#45;&gt;Node43</title>
<path fill="none" stroke="midnightblue" d="M334.474,-368.342C363.592,-373.537 399.811,-379.999 430.374,-385.451"/>
<polygon fill="midnightblue" stroke="midnightblue" points="430.045,-388.948 440.504,-387.259 431.274,-382.057 430.045,-388.948"/>
</g>
<!-- Node46 -->
<g id="node46" class="node"><title>Node46</title>
<g id="a_node46"><a xlink:href="../../df/df8/class_cell_society_view.html#a930d889b8619ae93731b8542ce285180" target="_top" xlink:title="CellSocietyView.generate\lChartLines">
<polygon fill="white" stroke="black" points="426.5,-425.802 426.5,-455.802 563.5,-455.802 563.5,-425.802 426.5,-425.802"/>
<text text-anchor="start" x="434.5" y="-443.802" font-family="Helvetica,sans-Serif" font-size="10.00">CellSocietyView.generate</text>
<text text-anchor="middle" x="495" y="-432.802" font-family="Helvetica,sans-Serif" font-size="10.00">ChartLines</text>
</a>
</g>
</g>
<!-- Node25&#45;&gt;Node46 -->
<g id="edge57" class="edge"><title>Node25&#45;&gt;Node46</title>
<path fill="none" stroke="midnightblue" d="M298.62,-368.304C321.811,-380.526 364.084,-401.842 402,-415.802 408.727,-418.279 415.812,-420.634 422.94,-422.836"/>
<polygon fill="midnightblue" stroke="midnightblue" points="422.074,-426.23 432.658,-425.743 424.08,-419.524 422.074,-426.23"/>
</g>
<!-- Node28 -->
<g id="node28" class="node"><title>Node28</title>
<g id="a_node28"><a xlink:href="../../d2/d95/class_x_m_l_parser.html#ae67767f9678fb650ac38b1321ea9f723" target="_top" xlink:title="XMLParser.parseInitialTags">
<polygon fill="white" stroke="black" points="642.5,-52.3024 642.5,-71.3024 783.5,-71.3024 783.5,-52.3024 642.5,-52.3024"/>
<text text-anchor="middle" x="713" y="-59.3024" font-family="Helvetica,sans-Serif" font-size="10.00">XMLParser.parseInitialTags</text>
</a>
</g>
</g>
<!-- Node27&#45;&gt;Node28 -->
<g id="edge30" class="edge"><title>Node27&#45;&gt;Node28</title>
<path fill="none" stroke="midnightblue" d="M547.83,-102.215C561.005,-99.473 575.085,-96.2755 588,-92.8024 604.287,-88.4226 607.733,-85.2554 624,-80.8024 633.497,-78.2026 643.65,-75.7317 653.559,-73.4837"/>
<polygon fill="midnightblue" stroke="midnightblue" points="654.349,-76.8937 663.355,-71.3135 652.835,-70.0594 654.349,-76.8937"/>
</g>
<!-- Node29 -->
<g id="node29" class="node"><title>Node29</title>
<g id="a_node29"><a xlink:href="../../d2/d95/class_x_m_l_parser.html#a09c6848239104ae94825c045796dddd0" target="_top" xlink:title="XMLParser.makeParamMap">
<polygon fill="white" stroke="black" points="845,-71.3024 845,-90.3024 991,-90.3024 991,-71.3024 845,-71.3024"/>
<text text-anchor="middle" x="918" y="-78.3024" font-family="Helvetica,sans-Serif" font-size="10.00">XMLParser.makeParamMap</text>
</a>
</g>
</g>
<!-- Node28&#45;&gt;Node29 -->
<g id="edge31" class="edge"><title>Node28&#45;&gt;Node29</title>
<path fill="none" stroke="midnightblue" d="M783.577,-68.3146C799.925,-69.8447 817.504,-71.49 834.362,-73.0679"/>
<polygon fill="midnightblue" stroke="midnightblue" points="834.466,-76.5928 844.749,-74.04 835.118,-69.6233 834.466,-76.5928"/>
</g>
<!-- Node30 -->
<g id="node30" class="node"><title>Node30</title>
<g id="a_node30"><a xlink:href="../../d2/d95/class_x_m_l_parser.html#a5a419f71699eb7d3d76ee238fb262a5f" target="_top" xlink:title="XMLParser.makeCellParamList">
<polygon fill="white" stroke="black" points="838,-33.3024 838,-52.3024 998,-52.3024 998,-33.3024 838,-33.3024"/>
<text text-anchor="middle" x="918" y="-40.3024" font-family="Helvetica,sans-Serif" font-size="10.00">XMLParser.makeCellParamList</text>
</a>
</g>
</g>
<!-- Node28&#45;&gt;Node30 -->
<g id="edge32" class="edge"><title>Node28&#45;&gt;Node30</title>
<path fill="none" stroke="midnightblue" d="M783.577,-55.2903C797.752,-53.9636 812.851,-52.5504 827.604,-51.1695"/>
<polygon fill="midnightblue" stroke="midnightblue" points="828.117,-54.6369 837.747,-50.2202 827.465,-47.6674 828.117,-54.6369"/>
</g>
<!-- Node31&#45;&gt;Node32 -->
<g id="edge34" class="edge"><title>Node31&#45;&gt;Node32</title>
<path fill="none" stroke="midnightblue" d="M547.83,-178.215C561.005,-175.473 575.085,-172.275 588,-168.802 604.287,-164.423 607.733,-161.255 624,-156.802 633.497,-154.203 643.65,-151.732 653.559,-149.484"/>
<polygon fill="midnightblue" stroke="midnightblue" points="654.349,-152.894 663.355,-147.313 652.835,-146.059 654.349,-152.894"/>
</g>
<!-- Node33 -->
<g id="node33" class="node"><title>Node33</title>
<g id="a_node33"><a xlink:href="../../d2/d95/class_x_m_l_parser.html#a0df3a2904766f59d1246cb55416f8146" target="_top" xlink:title="XMLParser.getSimParamMap">
<polygon fill="white" stroke="black" points="636,-90.3024 636,-109.302 790,-109.302 790,-90.3024 636,-90.3024"/>
<text text-anchor="middle" x="713" y="-97.3024" font-family="Helvetica,sans-Serif" font-size="10.00">XMLParser.getSimParamMap</text>
</a>
</g>
</g>
<!-- Node31&#45;&gt;Node33 -->
<g id="edge35" class="edge"><title>Node31&#45;&gt;Node33</title>
<path fill="none" stroke="midnightblue" d="M568.864,-178.154C575.612,-175.687 582.116,-172.618 588,-168.802 610.976,-153.906 601.091,-133.802 624,-118.802 627.126,-116.756 630.436,-114.925 633.867,-113.289"/>
<polygon fill="midnightblue" stroke="midnightblue" points="635.314,-116.478 643.194,-109.396 632.617,-110.018 635.314,-116.478"/>
</g>
<!-- Node35&#45;&gt;Node9 -->
<g id="edge40" class="edge"><title>Node35&#45;&gt;Node9</title>
<path fill="none" stroke="midnightblue" d="M553.868,-273.305C575.79,-276.665 601.003,-280.241 624,-282.802 879.134,-311.223 947.574,-279.089 1200,-325.802 1225.22,-330.469 1252.86,-338.778 1274.13,-345.89"/>
<polygon fill="midnightblue" stroke="midnightblue" points="1273.13,-349.245 1283.72,-349.16 1275.39,-342.62 1273.13,-349.245"/>
</g>
<!-- Node35&#45;&gt;Node32 -->
<g id="edge39" class="edge"><title>Node35&#45;&gt;Node32</title>
<path fill="none" stroke="midnightblue" d="M562.453,-254.296C571.73,-250.829 580.604,-246.139 588,-239.802 618.536,-213.642 592.915,-182.307 624,-156.802 626.009,-155.154 628.128,-153.64 630.334,-152.249"/>
<polygon fill="midnightblue" stroke="midnightblue" points="632.074,-155.288 639.23,-147.475 628.764,-149.12 632.074,-155.288"/>
</g>
<!-- Node36 -->
<g id="node36" class="node"><title>Node36</title>
<g id="a_node36"><a xlink:href="../../d3/dff/class_cell_society.html#a276d7f4c12da9d40e8720f762b47592a" target="_top" xlink:title="CellSociety.populateProbabilities">
<polygon fill="white" stroke="black" points="628,-166.302 628,-185.302 798,-185.302 798,-166.302 628,-166.302"/>
<text text-anchor="middle" x="713" y="-173.302" font-family="Helvetica,sans-Serif" font-size="10.00">CellSociety.populateProbabilities</text>
</a>
</g>
</g>
<!-- Node35&#45;&gt;Node36 -->
<g id="edge41" class="edge"><title>Node35&#45;&gt;Node36</title>
<path fill="none" stroke="midnightblue" d="M555.776,-254.166C567.037,-250.737 578.307,-246.092 588,-239.802 609.485,-225.86 602.223,-208.285 624,-194.802 627.416,-192.688 631.033,-190.806 634.776,-189.132"/>
<polygon fill="midnightblue" stroke="midnightblue" points="636.275,-192.304 644.298,-185.384 633.711,-185.79 636.275,-192.304"/>
</g>
<!-- Node38 -->
<g id="node38" class="node"><title>Node38</title>
<g id="a_node38"><a xlink:href="../../d3/dff/class_cell_society.html#a5c0b747b2fbaaa317266890c48e0267f" target="_top" xlink:title="CellSociety.populateLocations">
<polygon fill="white" stroke="black" points="634,-254.302 634,-273.302 792,-273.302 792,-254.302 634,-254.302"/>
<text text-anchor="middle" x="713" y="-261.302" font-family="Helvetica,sans-Serif" font-size="10.00">CellSociety.populateLocations</text>
</a>
</g>
</g>
<!-- Node35&#45;&gt;Node38 -->
<g id="edge43" class="edge"><title>Node35&#45;&gt;Node38</title>
<path fill="none" stroke="midnightblue" d="M567.026,-263.802C585.161,-263.802 604.879,-263.802 623.762,-263.802"/>
<polygon fill="midnightblue" stroke="midnightblue" points="623.849,-267.303 633.848,-263.802 623.848,-260.303 623.849,-267.303"/>
</g>
<!-- Node40 -->
<g id="node40" class="node"><title>Node40</title>
<g id="a_node40"><a xlink:href="../../d3/dff/class_cell_society.html#a7ef59819b70a8f07c010bd2bb28b7740" target="_top" xlink:title="CellSociety.populateRemaining\lState">
<polygon fill="white" stroke="black" points="632,-204.802 632,-234.802 794,-234.802 794,-204.802 632,-204.802"/>
<text text-anchor="start" x="640" y="-222.802" font-family="Helvetica,sans-Serif" font-size="10.00">CellSociety.populateRemaining</text>
<text text-anchor="middle" x="713" y="-211.802" font-family="Helvetica,sans-Serif" font-size="10.00">State</text>
</a>
</g>
</g>
<!-- Node35&#45;&gt;Node40 -->
<g id="edge46" class="edge"><title>Node35&#45;&gt;Node40</title>
<path fill="none" stroke="midnightblue" d="M542.869,-254.255C567.731,-249.191 599.037,-242.813 627.936,-236.927"/>
<polygon fill="midnightblue" stroke="midnightblue" points="628.943,-240.293 638.043,-234.868 627.545,-233.434 628.943,-240.293"/>
</g>
<!-- Node37 -->
<g id="node37" class="node"><title>Node37</title>
<g id="a_node37"><a xlink:href="../../d3/dff/class_cell_society.html#a117f1698760a3f6bbe51bd7af16f79bb" target="_top" xlink:title="CellSociety.createCellInstance">
<polygon fill="white" stroke="black" points="838.5,-210.302 838.5,-229.302 997.5,-229.302 997.5,-210.302 838.5,-210.302"/>
<text text-anchor="middle" x="918" y="-217.302" font-family="Helvetica,sans-Serif" font-size="10.00">CellSociety.createCellInstance</text>
</a>
</g>
</g>
<!-- Node36&#45;&gt;Node37 -->
<g id="edge42" class="edge"><title>Node36&#45;&gt;Node37</title>
<path fill="none" stroke="midnightblue" d="M758.319,-185.359C772.296,-188.376 787.794,-191.725 802,-194.802 822.065,-199.15 844.096,-203.936 863.459,-208.147"/>
<polygon fill="midnightblue" stroke="midnightblue" points="862.801,-211.585 873.317,-210.291 864.289,-204.745 862.801,-211.585"/>
</g>
<!-- Node38&#45;&gt;Node37 -->
<g id="edge45" class="edge"><title>Node38&#45;&gt;Node37</title>
<path fill="none" stroke="midnightblue" d="M758.048,-254.255C788.906,-247.567 830.327,-238.589 863.149,-231.475"/>
<polygon fill="midnightblue" stroke="midnightblue" points="864.006,-234.87 873.038,-229.331 862.523,-228.029 864.006,-234.87"/>
</g>
<!-- Node39 -->
<g id="node39" class="node"><title>Node39</title>
<g id="a_node39"><a xlink:href="../../d3/dff/class_cell_society.html#a42451b17e2bca5fd025c8d4ea74310ca" target="_top" xlink:title="CellSociety.stringToIntArray">
<polygon fill="white" stroke="black" points="845.5,-254.302 845.5,-273.302 990.5,-273.302 990.5,-254.302 845.5,-254.302"/>
<text text-anchor="middle" x="918" y="-261.302" font-family="Helvetica,sans-Serif" font-size="10.00">CellSociety.stringToIntArray</text>
</a>
</g>
</g>
<!-- Node38&#45;&gt;Node39 -->
<g id="edge44" class="edge"><title>Node38&#45;&gt;Node39</title>
<path fill="none" stroke="midnightblue" d="M792.195,-263.802C806.305,-263.802 821.051,-263.802 835.26,-263.802"/>
<polygon fill="midnightblue" stroke="midnightblue" points="835.494,-267.303 845.494,-263.802 835.494,-260.303 835.494,-267.303"/>
</g>
<!-- Node40&#45;&gt;Node37 -->
<g id="edge47" class="edge"><title>Node40&#45;&gt;Node37</title>
<path fill="none" stroke="midnightblue" d="M794.231,-219.802C805.346,-219.802 816.818,-219.802 828.08,-219.802"/>
<polygon fill="midnightblue" stroke="midnightblue" points="828.347,-223.303 838.347,-219.802 828.347,-216.303 828.347,-223.303"/>
</g>
<!-- Node42&#45;&gt;Node5 -->
<g id="edge50" class="edge"><title>Node42&#45;&gt;Node5</title>
<path fill="none" stroke="midnightblue" d="M507.153,-608.349C528.407,-626.031 576.814,-663.885 624,-683.802 634.143,-688.084 645.366,-691.448 656.307,-694.075"/>
<polygon fill="midnightblue" stroke="midnightblue" points="655.716,-697.528 666.237,-696.285 657.237,-690.696 655.716,-697.528"/>
</g>
<!-- Node44 -->
<g id="node44" class="node"><title>Node44</title>
<g id="a_node44"><a xlink:href="../../da/d74/class_grid.html#a1febd1c7daf70dbedc9ca16a3c8099db" target="_top" xlink:title="Grid.getGrid">
<polygon fill="white" stroke="black" points="676,-406.302 676,-425.302 750,-425.302 750,-406.302 676,-406.302"/>
<text text-anchor="middle" x="713" y="-413.302" font-family="Helvetica,sans-Serif" font-size="10.00">Grid.getGrid</text>
</a>
</g>
</g>
<!-- Node43&#45;&gt;Node44 -->
<g id="edge52" class="edge"><title>Node43&#45;&gt;Node44</title>
<path fill="none" stroke="midnightblue" d="M577.045,-403.931C606.925,-406.56 639.747,-409.447 665.539,-411.716"/>
<polygon fill="midnightblue" stroke="midnightblue" points="665.506,-415.226 675.774,-412.616 666.119,-408.253 665.506,-415.226"/>
</g>
<!-- Node45 -->
<g id="node45" class="node"><title>Node45</title>
<g id="a_node45"><a xlink:href="../../d4/d92/class_grid_factory.html#a3c5221912f2534ff2cf8cacb935e7fc9" target="_top" xlink:title="GridFactory.createGrid">
<polygon fill="white" stroke="black" points="652,-444.302 652,-463.302 774,-463.302 774,-444.302 652,-444.302"/>
<text text-anchor="middle" x="713" y="-451.302" font-family="Helvetica,sans-Serif" font-size="10.00">GridFactory.createGrid</text>
</a>
</g>
</g>
<!-- Node43&#45;&gt;Node45 -->
<g id="edge53" class="edge"><title>Node43&#45;&gt;Node45</title>
<path fill="none" stroke="midnightblue" d="M550.627,-406.327C563.077,-409.143 576.13,-412.619 588,-416.802 604.871,-422.749 607.124,-428.868 624,-434.802 631.547,-437.457 639.595,-439.809 647.641,-441.874"/>
<polygon fill="midnightblue" stroke="midnightblue" points="646.877,-445.29 657.42,-444.252 648.53,-438.488 646.877,-445.29"/>
</g>
<!-- Node47&#45;&gt;Node24 -->
<g id="edge60" class="edge"><title>Node47&#45;&gt;Node24</title>
<path fill="none" stroke="midnightblue" d="M352.344,-273.116C357.4,-270.385 362.05,-266.996 366,-262.802 430.33,-194.512 333.939,-119.375 402,-54.8024 461.776,1.91045 559.878,4.31436 629.707,-3.08851"/>
<polygon fill="midnightblue" stroke="midnightblue" points="629.463,-6.58336 639.796,-4.24661 630.261,0.370979 629.463,-6.58336"/>
</g>
</g>
</svg>
