<?xml version="1.0" encoding="UTF-8" standalone="no"?>
<!DOCTYPE svg PUBLIC "-//W3C//DTD SVG 1.1//EN"
 "http://www.w3.org/Graphics/SVG/1.1/DTD/svg11.dtd">
<!-- Generated by graphviz version 2.36.0 (20140111.2315)
 -->
<!-- Title: CellSociety.CellSociety Pages: 1 -->
<svg width="1488pt" height="705pt"
 viewBox="0.00 0.00 1488.00 705.00" xmlns="http://www.w3.org/2000/svg" xmlns:xlink="http://www.w3.org/1999/xlink">
<g id="graph0" class="graph" transform="scale(1 1) rotate(0) translate(4 701)">
<title>CellSociety.CellSociety</title>
<polygon fill="white" stroke="none" points="-4,4 -4,-701 1484,-701 1484,4 -4,4"/>
<!-- Node1 -->
<g id="node1" class="node"><title>Node1</title>
<polygon fill="#bfbfbf" stroke="black" points="0.5,-416.5 0.5,-435.5 123.5,-435.5 123.5,-416.5 0.5,-416.5"/>
<text text-anchor="middle" x="62" y="-423.5" font-family="Helvetica,sans-Serif" font-size="10.00">CellSociety.CellSociety</text>
</g>
<!-- Node2 -->
<g id="node2" class="node"><title>Node2</title>
<g id="a_node2"><a xlink:href="../../d3/dff/class_cell_society.html#a656ff46d1459fb7f86b42e3c542506ee" target="_top" xlink:title="CellSociety.configureListeners">
<polygon fill="white" stroke="black" points="160,-416.5 160,-435.5 318,-435.5 318,-416.5 160,-416.5"/>
<text text-anchor="middle" x="239" y="-423.5" font-family="Helvetica,sans-Serif" font-size="10.00">CellSociety.configureListeners</text>
</a>
</g>
</g>
<!-- Node1&#45;&gt;Node2 -->
<g id="edge1" class="edge"><title>Node1&#45;&gt;Node2</title>
<path fill="none" stroke="midnightblue" d="M123.715,-426C132.088,-426 140.823,-426 149.57,-426"/>
<polygon fill="midnightblue" stroke="midnightblue" points="149.823,-429.5 159.823,-426 149.823,-422.5 149.823,-429.5"/>
</g>
<!-- Node3 -->
<g id="node3" class="node"><title>Node3</title>
<g id="a_node3"><a xlink:href="../../df/df8/class_cell_society_view.html#aae7c36ea6b5215b0ba9ee01c72dfcb94" target="_top" xlink:title="CellSocietyView.getPlayElement">
<polygon fill="white" stroke="black" points="356,-677.5 356,-696.5 524,-696.5 524,-677.5 356,-677.5"/>
<text text-anchor="middle" x="440" y="-684.5" font-family="Helvetica,sans-Serif" font-size="10.00">CellSocietyView.getPlayElement</text>
</a>
</g>
</g>
<!-- Node2&#45;&gt;Node3 -->
<g id="edge2" class="edge"><title>Node2&#45;&gt;Node3</title>
<path fill="none" stroke="midnightblue" d="M241.481,-435.72C247.623,-472.52 274.61,-604.424 354,-668 356.066,-669.654 358.246,-671.171 360.516,-672.561"/>
<polygon fill="midnightblue" stroke="midnightblue" points="359.174,-675.809 369.66,-677.321 362.406,-669.599 359.174,-675.809"/>
</g>
<!-- Node4 -->
<g id="node4" class="node"><title>Node4</title>
<g id="a_node4"><a xlink:href="../../d3/dff/class_cell_society.html#a6a4056cd40e4162583f2b9845b77a191" target="_top" xlink:title="CellSociety.resumeAnimation">
<polygon fill="white" stroke="black" points="362,-639.5 362,-658.5 518,-658.5 518,-639.5 362,-639.5"/>
<text text-anchor="middle" x="440" y="-646.5" font-family="Helvetica,sans-Serif" font-size="10.00">CellSociety.resumeAnimation</text>
</a>
</g>
</g>
<!-- Node2&#45;&gt;Node4 -->
<g id="edge3" class="edge"><title>Node2&#45;&gt;Node4</title>
<path fill="none" stroke="midnightblue" d="M242.643,-435.624C251.978,-467.764 286.525,-572.32 354,-625 359.441,-629.248 365.596,-632.744 372.047,-635.621"/>
<polygon fill="midnightblue" stroke="midnightblue" points="371.074,-638.999 381.661,-639.409 373.64,-632.487 371.074,-638.999"/>
</g>
<!-- Node6 -->
<g id="node6" class="node"><title>Node6</title>
<g id="a_node6"><a xlink:href="../../df/df8/class_cell_society_view.html#ada088eb9125561f8dd941badb141fa86" target="_top" xlink:title="CellSocietyView.getPause\lElement">
<polygon fill="white" stroke="black" points="371.5,-343 371.5,-373 508.5,-373 508.5,-343 371.5,-343"/>
<text text-anchor="start" x="379.5" y="-361" font-family="Helvetica,sans-Serif" font-size="10.00">CellSocietyView.getPause</text>
<text text-anchor="middle" x="440" y="-350" font-family="Helvetica,sans-Serif" font-size="10.00">Element</text>
</a>
</g>
</g>
<!-- Node2&#45;&gt;Node6 -->
<g id="edge5" class="edge"><title>Node2&#45;&gt;Node6</title>
<path fill="none" stroke="midnightblue" d="M263.833,-416.416C286.769,-407.335 322.511,-393.553 354,-383 360.919,-380.681 368.192,-378.364 375.451,-376.126"/>
<polygon fill="midnightblue" stroke="midnightblue" points="376.755,-379.388 385.305,-373.132 374.72,-372.69 376.755,-379.388"/>
</g>
<!-- Node7 -->
<g id="node7" class="node"><title>Node7</title>
<g id="a_node7"><a xlink:href="../../d3/dff/class_cell_society.html#ae565a305ea53e5a37da9816a236b4fbc" target="_top" xlink:title="CellSociety.pauseAnimation">
<polygon fill="white" stroke="black" points="580.5,-601.5 580.5,-620.5 729.5,-620.5 729.5,-601.5 580.5,-601.5"/>
<text text-anchor="middle" x="655" y="-608.5" font-family="Helvetica,sans-Serif" font-size="10.00">CellSociety.pauseAnimation</text>
</a>
</g>
</g>
<!-- Node2&#45;&gt;Node7 -->
<g id="edge6" class="edge"><title>Node2&#45;&gt;Node7</title>
<path fill="none" stroke="midnightblue" d="M243.507,-435.863C254.473,-465.064 291.188,-551.265 354,-587 424.159,-626.915 518.89,-627.395 582.988,-621.5"/>
<polygon fill="midnightblue" stroke="midnightblue" points="583.399,-624.977 593.004,-620.505 582.707,-618.011 583.399,-624.977"/>
</g>
<!-- Node8 -->
<g id="node8" class="node"><title>Node8</title>
<g id="a_node8"><a xlink:href="../../df/df8/class_cell_society_view.html#a3c3a7039f77d392c374cd309967ca1cc" target="_top" xlink:title="CellSocietyView.getStepElement">
<polygon fill="white" stroke="black" points="354.5,-304.5 354.5,-323.5 525.5,-323.5 525.5,-304.5 354.5,-304.5"/>
<text text-anchor="middle" x="440" y="-311.5" font-family="Helvetica,sans-Serif" font-size="10.00">CellSocietyView.getStepElement</text>
</a>
</g>
</g>
<!-- Node2&#45;&gt;Node8 -->
<g id="edge8" class="edge"><title>Node2&#45;&gt;Node8</title>
<path fill="none" stroke="midnightblue" d="M248.702,-416.382C266.504,-397.329 309.197,-354.759 354,-333 359.016,-330.564 364.35,-328.436 369.807,-326.577"/>
<polygon fill="midnightblue" stroke="midnightblue" points="371.199,-329.81 379.72,-323.514 369.133,-323.122 371.199,-329.81"/>
</g>
<!-- Node9 -->
<g id="node9" class="node"><title>Node9</title>
<g id="a_node9"><a xlink:href="../../d3/dff/class_cell_society.html#a0ff19c30a1cc433d8ea8444f6a5617f1" target="_top" xlink:title="CellSociety.updateGrid">
<polygon fill="white" stroke="black" points="1016,-411.5 1016,-430.5 1140,-430.5 1140,-411.5 1016,-411.5"/>
<text text-anchor="middle" x="1078" y="-418.5" font-family="Helvetica,sans-Serif" font-size="10.00">CellSociety.updateGrid</text>
</a>
</g>
</g>
<!-- Node2&#45;&gt;Node9 -->
<g id="edge9" class="edge"><title>Node2&#45;&gt;Node9</title>
<path fill="none" stroke="midnightblue" d="M245.619,-435.756C260.008,-459.656 300.829,-520.933 354,-545 513.571,-617.228 573.015,-561.753 748,-554 843.392,-549.774 875.399,-575.22 962,-535 1008.3,-513.497 1046.78,-465.14 1065.24,-438.845"/>
<polygon fill="midnightblue" stroke="midnightblue" points="1068.16,-440.775 1070.91,-430.545 1062.38,-436.825 1068.16,-440.775"/>
</g>
<!-- Node15 -->
<g id="node15" class="node"><title>Node15</title>
<g id="a_node15"><a xlink:href="../../df/df8/class_cell_society_view.html#aebad9aaff0e9784fec1518d319e03c85" target="_top" xlink:title="CellSocietyView.getXMLElement">
<polygon fill="white" stroke="black" points="356,-266.5 356,-285.5 524,-285.5 524,-266.5 356,-266.5"/>
<text text-anchor="middle" x="440" y="-273.5" font-family="Helvetica,sans-Serif" font-size="10.00">CellSocietyView.getXMLElement</text>
</a>
</g>
</g>
<!-- Node2&#45;&gt;Node15 -->
<g id="edge15" class="edge"><title>Node2&#45;&gt;Node15</title>
<path fill="none" stroke="midnightblue" d="M245.449,-416.24C259.742,-391.608 300.903,-326.633 354,-295 357.654,-292.823 361.53,-290.896 365.537,-289.188"/>
<polygon fill="midnightblue" stroke="midnightblue" points="366.956,-292.394 375.078,-285.592 364.486,-285.844 366.956,-292.394"/>
</g>
<!-- Node16 -->
<g id="node16" class="node"><title>Node16</title>
<g id="a_node16"><a xlink:href="../../d3/dff/class_cell_society.html#af9f22af39a97a58b26126020ca6c8844" target="_top" xlink:title="CellSociety.readNewXML">
<polygon fill="white" stroke="black" points="374,-392.5 374,-411.5 506,-411.5 506,-392.5 374,-392.5"/>
<text text-anchor="middle" x="440" y="-399.5" font-family="Helvetica,sans-Serif" font-size="10.00">CellSociety.readNewXML</text>
</a>
</g>
</g>
<!-- Node2&#45;&gt;Node16 -->
<g id="edge16" class="edge"><title>Node2&#45;&gt;Node16</title>
<path fill="none" stroke="midnightblue" d="M318.079,-416.583C333.119,-414.77 348.845,-412.873 363.792,-411.07"/>
<polygon fill="midnightblue" stroke="midnightblue" points="364.488,-414.512 373.997,-409.84 363.65,-407.562 364.488,-414.512"/>
</g>
<!-- Node34 -->
<g id="node34" class="node"><title>Node34</title>
<g id="a_node34"><a xlink:href="../../df/df8/class_cell_society_view.html#a572d464cbe7d186dc9a5b0e4a8130689" target="_top" xlink:title="CellSocietyView.getSpeedup\lElement">
<polygon fill="white" stroke="black" points="364,-217 364,-247 516,-247 516,-217 364,-217"/>
<text text-anchor="start" x="372" y="-235" font-family="Helvetica,sans-Serif" font-size="10.00">CellSocietyView.getSpeedup</text>
<text text-anchor="middle" x="440" y="-224" font-family="Helvetica,sans-Serif" font-size="10.00">Element</text>
</a>
</g>
</g>
<!-- Node2&#45;&gt;Node34 -->
<g id="edge42" class="edge"><title>Node2&#45;&gt;Node34</title>
<path fill="none" stroke="midnightblue" d="M243.743,-416.258C255.369,-387.311 293.735,-301.098 354,-257 356.669,-255.047 359.489,-253.246 362.416,-251.585"/>
<polygon fill="midnightblue" stroke="midnightblue" points="364.127,-254.642 371.475,-247.009 360.971,-248.394 364.127,-254.642"/>
</g>
<!-- Node35 -->
<g id="node35" class="node"><title>Node35</title>
<g id="a_node35"><a xlink:href="../../d3/dff/class_cell_society.html#a8250bfacdaf51dabf6b9d1cafc0ce9b2" target="_top" xlink:title="CellSociety.increaseFrameRate">
<polygon fill="white" stroke="black" points="358.5,-516.5 358.5,-535.5 521.5,-535.5 521.5,-516.5 358.5,-516.5"/>
<text text-anchor="middle" x="440" y="-523.5" font-family="Helvetica,sans-Serif" font-size="10.00">CellSociety.increaseFrameRate</text>
</a>
</g>
</g>
<!-- Node2&#45;&gt;Node35 -->
<g id="edge43" class="edge"><title>Node2&#45;&gt;Node35</title>
<path fill="none" stroke="midnightblue" d="M256.78,-435.66C278.824,-448.225 318.861,-470.623 354,-488 371.279,-496.545 390.904,-505.375 406.94,-512.37"/>
<polygon fill="midnightblue" stroke="midnightblue" points="405.841,-515.707 416.408,-516.469 408.622,-509.284 405.841,-515.707"/>
</g>
<!-- Node37 -->
<g id="node37" class="node"><title>Node37</title>
<g id="a_node37"><a xlink:href="../../df/df8/class_cell_society_view.html#a0f616a01579a7293ef781d3e341ea1ac" target="_top" xlink:title="CellSocietyView.getSlowdown\lElement">
<polygon fill="white" stroke="black" points="362.5,-168 362.5,-198 517.5,-198 517.5,-168 362.5,-168"/>
<text text-anchor="start" x="370.5" y="-186" font-family="Helvetica,sans-Serif" font-size="10.00">CellSocietyView.getSlowdown</text>
<text text-anchor="middle" x="440" y="-175" font-family="Helvetica,sans-Serif" font-size="10.00">Element</text>
</a>
</g>
</g>
<!-- Node2&#45;&gt;Node37 -->
<g id="edge47" class="edge"><title>Node2&#45;&gt;Node37</title>
<path fill="none" stroke="midnightblue" d="M242.108,-416.388C250.106,-382.243 281.852,-265.705 354,-207 355.561,-205.73 357.186,-204.527 358.863,-203.387"/>
<polygon fill="midnightblue" stroke="midnightblue" points="360.809,-206.303 367.639,-198.204 357.249,-200.276 360.809,-206.303"/>
</g>
<!-- Node38 -->
<g id="node38" class="node"><title>Node38</title>
<g id="a_node38"><a xlink:href="../../d3/dff/class_cell_society.html#a045267ba1843ca4a47891d7be73c2ac1" target="_top" xlink:title="CellSociety.decreaseFrameRate">
<polygon fill="white" stroke="black" points="356.5,-459.5 356.5,-478.5 523.5,-478.5 523.5,-459.5 356.5,-459.5"/>
<text text-anchor="middle" x="440" y="-466.5" font-family="Helvetica,sans-Serif" font-size="10.00">CellSociety.decreaseFrameRate</text>
</a>
</g>
</g>
<!-- Node2&#45;&gt;Node38 -->
<g id="edge48" class="edge"><title>Node2&#45;&gt;Node38</title>
<path fill="none" stroke="midnightblue" d="M284.165,-435.543C313.922,-441.973 353.361,-450.495 384.987,-457.329"/>
<polygon fill="midnightblue" stroke="midnightblue" points="384.445,-460.792 394.959,-459.484 385.924,-453.95 384.445,-460.792"/>
</g>
<!-- Node5 -->
<g id="node5" class="node"><title>Node5</title>
<g id="a_node5"><a xlink:href="../../df/df8/class_cell_society_view.html#ae83511f9bf3610b0750d41c4aeb0f778" target="_top" xlink:title="CellSocietyView.setButtons\lPause">
<polygon fill="white" stroke="black" points="800,-618 800,-648 946,-648 946,-618 800,-618"/>
<text text-anchor="start" x="808" y="-636" font-family="Helvetica,sans-Serif" font-size="10.00">CellSocietyView.setButtons</text>
<text text-anchor="middle" x="873" y="-625" font-family="Helvetica,sans-Serif" font-size="10.00">Pause</text>
</a>
</g>
</g>
<!-- Node4&#45;&gt;Node5 -->
<g id="edge4" class="edge"><title>Node4&#45;&gt;Node5</title>
<path fill="none" stroke="midnightblue" d="M518.054,-646.14C594.524,-643.301 711.327,-638.965 789.609,-636.059"/>
<polygon fill="midnightblue" stroke="midnightblue" points="790.05,-639.545 799.913,-635.676 789.79,-632.55 790.05,-639.545"/>
</g>
<!-- Node7&#45;&gt;Node5 -->
<g id="edge7" class="edge"><title>Node7&#45;&gt;Node5</title>
<path fill="none" stroke="midnightblue" d="M729.731,-618.51C748.984,-620.471 769.859,-622.597 789.534,-624.601"/>
<polygon fill="midnightblue" stroke="midnightblue" points="789.395,-628.105 799.699,-625.636 790.105,-621.141 789.395,-628.105"/>
</g>
<!-- Node10 -->
<g id="node10" class="node"><title>Node10</title>
<g id="a_node10"><a xlink:href="../../d8/d87/class_controller.html#aa8f10b5f28542d34053a7e4d5f1d6013" target="_top" xlink:title="Controller.runOneSim">
<polygon fill="white" stroke="black" points="1217.5,-411.5 1217.5,-430.5 1336.5,-430.5 1336.5,-411.5 1217.5,-411.5"/>
<text text-anchor="middle" x="1277" y="-418.5" font-family="Helvetica,sans-Serif" font-size="10.00">Controller.runOneSim</text>
</a>
</g>
</g>
<!-- Node9&#45;&gt;Node10 -->
<g id="edge10" class="edge"><title>Node9&#45;&gt;Node10</title>
<path fill="none" stroke="midnightblue" d="M1140.25,-421C1161.51,-421 1185.48,-421 1207.3,-421"/>
<polygon fill="midnightblue" stroke="midnightblue" points="1207.48,-424.5 1217.48,-421 1207.48,-417.5 1207.48,-424.5"/>
</g>
<!-- Node11 -->
<g id="node11" class="node"><title>Node11</title>
<g id="a_node11"><a xlink:href="../../df/df8/class_cell_society_view.html#a43ac2666d3a002024be53fe74028a576" target="_top" xlink:title="CellSocietyView.updateSimGrid">
<polygon fill="white" stroke="black" points="1194.5,-449.5 1194.5,-468.5 1359.5,-468.5 1359.5,-449.5 1194.5,-449.5"/>
<text text-anchor="middle" x="1277" y="-456.5" font-family="Helvetica,sans-Serif" font-size="10.00">CellSocietyView.updateSimGrid</text>
</a>
</g>
</g>
<!-- Node9&#45;&gt;Node11 -->
<g id="edge11" class="edge"><title>Node9&#45;&gt;Node11</title>
<path fill="none" stroke="midnightblue" d="M1128.46,-430.54C1155.15,-435.69 1188.3,-442.084 1216.42,-447.506"/>
<polygon fill="midnightblue" stroke="midnightblue" points="1216.04,-450.999 1226.52,-449.456 1217.37,-444.125 1216.04,-450.999"/>
</g>
<!-- Node13 -->
<g id="node13" class="node"><title>Node13</title>
<g id="a_node13"><a xlink:href="../../d2/d95/class_x_m_l_parser.html#ac4e3257aed1deb9fe950149f706fce5b" target="_top" xlink:title="XMLParser.getCellParamList">
<polygon fill="white" stroke="black" points="1202.5,-152.5 1202.5,-171.5 1351.5,-171.5 1351.5,-152.5 1202.5,-152.5"/>
<text text-anchor="middle" x="1277" y="-159.5" font-family="Helvetica,sans-Serif" font-size="10.00">XMLParser.getCellParamList</text>
</a>
</g>
</g>
<!-- Node9&#45;&gt;Node13 -->
<g id="edge13" class="edge"><title>Node9&#45;&gt;Node13</title>
<path fill="none" stroke="midnightblue" d="M1100.89,-411.48C1118.28,-402.989 1142.21,-389.107 1158,-371 1183.36,-341.917 1175.67,-325.951 1194,-292 1216.37,-250.569 1246.86,-204.489 1263.65,-179.853"/>
<polygon fill="midnightblue" stroke="midnightblue" points="1266.6,-181.742 1269.37,-171.515 1260.83,-177.783 1266.6,-181.742"/>
</g>
<!-- Node14 -->
<g id="node14" class="node"><title>Node14</title>
<g id="a_node14"><a xlink:href="../../df/df8/class_cell_society_view.html#a7ca77bdfdef97e9be9c9941c2f4d3513" target="_top" xlink:title="CellSocietyView.updateChart\lLines">
<polygon fill="white" stroke="black" points="1200.5,-302 1200.5,-332 1353.5,-332 1353.5,-302 1200.5,-302"/>
<text text-anchor="start" x="1208.5" y="-320" font-family="Helvetica,sans-Serif" font-size="10.00">CellSocietyView.updateChart</text>
<text text-anchor="middle" x="1277" y="-309" font-family="Helvetica,sans-Serif" font-size="10.00">Lines</text>
</a>
</g>
</g>
<!-- Node9&#45;&gt;Node14 -->
<g id="edge14" class="edge"><title>Node9&#45;&gt;Node14</title>
<path fill="none" stroke="midnightblue" d="M1097.18,-411.402C1129.22,-394.49 1196.32,-359.063 1238.6,-336.742"/>
<polygon fill="midnightblue" stroke="midnightblue" points="1240.28,-339.817 1247.49,-332.053 1237.01,-333.626 1240.28,-339.817"/>
</g>
<!-- Node12 -->
<g id="node12" class="node"><title>Node12</title>
<g id="a_node12"><a xlink:href="../../dd/d11/class_cell.html#a1e0ece61fecc69a9b7986d17d925434a" target="_top" xlink:title="Cell.getShape">
<polygon fill="white" stroke="black" points="1396.5,-449.5 1396.5,-468.5 1479.5,-468.5 1479.5,-449.5 1396.5,-449.5"/>
<text text-anchor="middle" x="1438" y="-456.5" font-family="Helvetica,sans-Serif" font-size="10.00">Cell.getShape</text>
</a>
</g>
</g>
<!-- Node11&#45;&gt;Node12 -->
<g id="edge12" class="edge"><title>Node11&#45;&gt;Node12</title>
<path fill="none" stroke="midnightblue" d="M1359.83,-459C1368.81,-459 1377.75,-459 1386.19,-459"/>
<polygon fill="midnightblue" stroke="midnightblue" points="1386.21,-462.5 1396.21,-459 1386.21,-455.5 1386.21,-462.5"/>
</g>
<!-- Node16&#45;&gt;Node7 -->
<g id="edge36" class="edge"><title>Node16&#45;&gt;Node7</title>
<path fill="none" stroke="midnightblue" d="M468.582,-411.576C487.152,-419.311 510.915,-431.907 526,-450 557.323,-487.568 531.447,-515.803 562,-554 577.331,-573.166 600.97,-587.614 620.446,-597.168"/>
<polygon fill="midnightblue" stroke="midnightblue" points="619.078,-600.392 629.619,-601.464 622.048,-594.053 619.078,-600.392"/>
</g>
<!-- Node16&#45;&gt;Node11 -->
<g id="edge35" class="edge"><title>Node16&#45;&gt;Node11</title>
<path fill="none" stroke="midnightblue" d="M464.626,-411.576C488.673,-420.805 527.251,-434.198 562,-440 783.046,-476.909 1047.84,-471.175 1184.44,-464.611"/>
<polygon fill="midnightblue" stroke="midnightblue" points="1184.64,-468.106 1194.46,-464.117 1184.3,-461.114 1184.64,-468.106"/>
</g>
<!-- Node16&#45;&gt;Node13 -->
<g id="edge38" class="edge"><title>Node16&#45;&gt;Node13</title>
<path fill="none" stroke="midnightblue" d="M506.048,-395.685C513.599,-392.514 520.539,-388.098 526,-382 614.413,-283.278 466.635,-178.024 562,-86 626.036,-24.2068 873.969,-53.9748 962,-67 1067.77,-82.6496 1187.27,-126.433 1243.48,-148.673"/>
<polygon fill="midnightblue" stroke="midnightblue" points="1242.32,-151.979 1252.91,-152.435 1244.92,-145.477 1242.32,-151.979"/>
</g>
<!-- Node16&#45;&gt;Node14 -->
<g id="edge40" class="edge"><title>Node16&#45;&gt;Node14</title>
<path fill="none" stroke="midnightblue" d="M506.211,-394.685C513.547,-391.647 520.387,-387.535 526,-382 572.97,-335.677 510.002,-278.599 562,-238 627.158,-187.126 667.758,-218.124 748,-238 765.561,-242.35 766.682,-251.767 784,-257 943.936,-305.327 992.622,-271.224 1158,-295 1168.58,-296.521 1179.66,-298.316 1190.61,-300.214"/>
<polygon fill="midnightblue" stroke="midnightblue" points="1190.16,-303.688 1200.62,-301.981 1191.38,-296.795 1190.16,-303.688"/>
</g>
<!-- Node17 -->
<g id="node17" class="node"><title>Node17</title>
<g id="a_node17"><a xlink:href="../../df/df8/class_cell_society_view.html#a053b6ef6afa80722445223c4e373e51c" target="_top" xlink:title="CellSocietyView.displayXMLChooser">
<polygon fill="white" stroke="black" points="562.5,-0.5 562.5,-19.5 747.5,-19.5 747.5,-0.5 562.5,-0.5"/>
<text text-anchor="middle" x="655" y="-7.5" font-family="Helvetica,sans-Serif" font-size="10.00">CellSocietyView.displayXMLChooser</text>
</a>
</g>
</g>
<!-- Node16&#45;&gt;Node17 -->
<g id="edge17" class="edge"><title>Node16&#45;&gt;Node17</title>
<path fill="none" stroke="midnightblue" d="M506.151,-395.776C513.686,-392.591 520.593,-388.147 526,-382 628.692,-265.243 460.722,-151.985 562,-34 565.046,-30.4519 568.544,-27.3951 572.357,-24.7644"/>
<polygon fill="midnightblue" stroke="midnightblue" points="574.261,-27.7061 581.155,-19.6606 570.749,-21.6512 574.261,-27.7061"/>
</g>
<!-- Node18 -->
<g id="node18" class="node"><title>Node18</title>
<g id="a_node18"><a xlink:href="../../d2/d95/class_x_m_l_parser.html#a77ee23818c822b69cdf4200eef726a61" target="_top" xlink:title="XMLParser.parseXMLFile">
<polygon fill="white" stroke="black" points="590,-247.5 590,-266.5 720,-266.5 720,-247.5 590,-247.5"/>
<text text-anchor="middle" x="655" y="-254.5" font-family="Helvetica,sans-Serif" font-size="10.00">XMLParser.parseXMLFile</text>
</a>
</g>
</g>
<!-- Node16&#45;&gt;Node18 -->
<g id="edge18" class="edge"><title>Node16&#45;&gt;Node18</title>
<path fill="none" stroke="midnightblue" d="M506.212,-394.064C513.459,-391.118 520.276,-387.198 526,-382 562.834,-348.553 524.711,-308.939 562,-276 567.256,-271.357 573.342,-267.738 579.831,-264.93"/>
<polygon fill="midnightblue" stroke="midnightblue" points="581.384,-268.089 589.576,-261.37 578.982,-261.513 581.384,-268.089"/>
</g>
<!-- Node22 -->
<g id="node22" class="node"><title>Node22</title>
<g id="a_node22"><a xlink:href="../../d3/dff/class_cell_society.html#abfbf43ce46b4c82c16a2d933b6a11abf" target="_top" xlink:title="CellSociety.retrieveParserInfo">
<polygon fill="white" stroke="black" points="577.5,-95.5 577.5,-114.5 732.5,-114.5 732.5,-95.5 577.5,-95.5"/>
<text text-anchor="middle" x="655" y="-102.5" font-family="Helvetica,sans-Serif" font-size="10.00">CellSociety.retrieveParserInfo</text>
</a>
</g>
</g>
<!-- Node16&#45;&gt;Node22 -->
<g id="edge22" class="edge"><title>Node16&#45;&gt;Node22</title>
<path fill="none" stroke="midnightblue" d="M506.353,-395.404C513.76,-392.263 520.579,-387.931 526,-382 602.628,-298.167 486.388,-213.75 562,-129 565.262,-125.343 569.005,-122.212 573.074,-119.533"/>
<polygon fill="midnightblue" stroke="midnightblue" points="574.804,-122.576 581.831,-114.648 571.393,-116.463 574.804,-122.576"/>
</g>
<!-- Node23 -->
<g id="node23" class="node"><title>Node23</title>
<g id="a_node23"><a xlink:href="../../d2/d95/class_x_m_l_parser.html#aea9b535964c91fa3c3d2b1c0b6a334c2" target="_top" xlink:title="XMLParser.getInitParamMap">
<polygon fill="white" stroke="black" points="798.5,-114.5 798.5,-133.5 947.5,-133.5 947.5,-114.5 798.5,-114.5"/>
<text text-anchor="middle" x="873" y="-121.5" font-family="Helvetica,sans-Serif" font-size="10.00">XMLParser.getInitParamMap</text>
</a>
</g>
</g>
<!-- Node16&#45;&gt;Node23 -->
<g id="edge26" class="edge"><title>Node16&#45;&gt;Node23</title>
<path fill="none" stroke="midnightblue" d="M506.237,-395.297C513.662,-392.173 520.518,-387.874 526,-382 593.605,-309.57 490.546,-230.636 562,-162 593.407,-131.832 707.449,-124.562 788.062,-123.331"/>
<polygon fill="midnightblue" stroke="midnightblue" points="788.257,-126.829 798.212,-123.205 788.17,-119.83 788.257,-126.829"/>
</g>
<!-- Node25 -->
<g id="node25" class="node"><title>Node25</title>
<g id="a_node25"><a xlink:href="../../dd/d11/class_cell.html#a7157b57f4ff263ea68e1ff5fc424176e" target="_top" xlink:title="Cell.setCellSize">
<polygon fill="white" stroke="black" points="610.5,-373.5 610.5,-392.5 699.5,-392.5 699.5,-373.5 610.5,-373.5"/>
<text text-anchor="middle" x="655" y="-380.5" font-family="Helvetica,sans-Serif" font-size="10.00">Cell.setCellSize</text>
</a>
</g>
</g>
<!-- Node16&#45;&gt;Node25 -->
<g id="edge25" class="edge"><title>Node16&#45;&gt;Node25</title>
<path fill="none" stroke="midnightblue" d="M506.064,-396.196C536.138,-393.514 571.433,-390.365 600.005,-387.816"/>
<polygon fill="midnightblue" stroke="midnightblue" points="600.556,-391.281 610.205,-386.907 599.934,-384.309 600.556,-391.281"/>
</g>
<!-- Node26 -->
<g id="node26" class="node"><title>Node26</title>
<g id="a_node26"><a xlink:href="../../d3/dff/class_cell_society.html#a7a6dab68551f91cc4b120faa51670bf8" target="_top" xlink:title="CellSociety.createCellArray">
<polygon fill="white" stroke="black" points="583,-171.5 583,-190.5 727,-190.5 727,-171.5 583,-171.5"/>
<text text-anchor="middle" x="655" y="-178.5" font-family="Helvetica,sans-Serif" font-size="10.00">CellSociety.createCellArray</text>
</a>
</g>
</g>
<!-- Node16&#45;&gt;Node26 -->
<g id="edge27" class="edge"><title>Node16&#45;&gt;Node26</title>
<path fill="none" stroke="midnightblue" d="M506.026,-395.096C513.484,-392.004 520.406,-387.767 526,-382 581.894,-324.378 506.804,-263.291 562,-205 565.596,-201.202 569.712,-197.976 574.163,-195.24"/>
<polygon fill="midnightblue" stroke="midnightblue" points="575.859,-198.303 583.089,-190.558 572.607,-192.104 575.859,-198.303"/>
</g>
<!-- Node29 -->
<g id="node29" class="node"><title>Node29</title>
<g id="a_node29"><a xlink:href="../../d3/dff/class_cell_society.html#ab9e56a2a70e210e021b51e898508329b" target="_top" xlink:title="CellSociety.setupAnimation">
<polygon fill="white" stroke="black" points="582,-411.5 582,-430.5 728,-430.5 728,-411.5 582,-411.5"/>
<text text-anchor="middle" x="655" y="-418.5" font-family="Helvetica,sans-Serif" font-size="10.00">CellSociety.setupAnimation</text>
</a>
</g>
</g>
<!-- Node16&#45;&gt;Node29 -->
<g id="edge32" class="edge"><title>Node16&#45;&gt;Node29</title>
<path fill="none" stroke="midnightblue" d="M506.064,-407.804C526.765,-409.65 549.94,-411.718 571.694,-413.658"/>
<polygon fill="midnightblue" stroke="midnightblue" points="571.635,-417.167 581.906,-414.569 572.257,-410.194 571.635,-417.167"/>
</g>
<!-- Node31 -->
<g id="node31" class="node"><title>Node31</title>
<g id="a_node31"><a xlink:href="../../df/df8/class_cell_society_view.html#a99eb733c00ed7c1bcba8f2d684791a09" target="_top" xlink:title="CellSocietyView.displayFrameRate">
<polygon fill="white" stroke="black" points="784,-506.5 784,-525.5 962,-525.5 962,-506.5 784,-506.5"/>
<text text-anchor="middle" x="873" y="-513.5" font-family="Helvetica,sans-Serif" font-size="10.00">CellSocietyView.displayFrameRate</text>
</a>
</g>
</g>
<!-- Node16&#45;&gt;Node31 -->
<g id="edge37" class="edge"><title>Node16&#45;&gt;Node31</title>
<path fill="none" stroke="midnightblue" d="M458.743,-411.652C476.052,-421.153 503.051,-436.203 526,-450 542.272,-459.783 544.185,-466.433 562,-473 629.972,-498.057 711.228,-508.677 773.495,-513.102"/>
<polygon fill="midnightblue" stroke="midnightblue" points="773.501,-516.61 783.712,-513.785 773.968,-509.626 773.501,-516.61"/>
</g>
<!-- Node32 -->
<g id="node32" class="node"><title>Node32</title>
<g id="a_node32"><a xlink:href="../../df/df8/class_cell_society_view.html#a930d889b8619ae93731b8542ce285180" target="_top" xlink:title="CellSocietyView.generate\lChartLines">
<polygon fill="white" stroke="black" points="586.5,-324 586.5,-354 723.5,-354 723.5,-324 586.5,-324"/>
<text text-anchor="start" x="594.5" y="-342" font-family="Helvetica,sans-Serif" font-size="10.00">CellSocietyView.generate</text>
<text text-anchor="middle" x="655" y="-331" font-family="Helvetica,sans-Serif" font-size="10.00">ChartLines</text>
</a>
</g>
</g>
<!-- Node16&#45;&gt;Node32 -->
<g id="edge39" class="edge"><title>Node16&#45;&gt;Node32</title>
<path fill="none" stroke="midnightblue" d="M490.116,-392.493C502.019,-389.63 514.596,-386.129 526,-382 542.82,-375.91 545.287,-370.377 562,-364 568.442,-361.542 575.223,-359.222 582.063,-357.061"/>
<polygon fill="midnightblue" stroke="midnightblue" points="583.545,-360.268 592.093,-354.009 581.507,-353.571 583.545,-360.268"/>
</g>
<!-- Node33 -->
<g id="node33" class="node"><title>Node33</title>
<g id="a_node33"><a xlink:href="../../df/df8/class_cell_society_view.html#a989874eb178e925124f50d7cabcc184c" target="_top" xlink:title="CellSocietyView.setGridGap">
<polygon fill="white" stroke="black" points="581.5,-285.5 581.5,-304.5 728.5,-304.5 728.5,-285.5 581.5,-285.5"/>
<text text-anchor="middle" x="655" y="-292.5" font-family="Helvetica,sans-Serif" font-size="10.00">CellSocietyView.setGridGap</text>
</a>
</g>
</g>
<!-- Node16&#45;&gt;Node33 -->
<g id="edge41" class="edge"><title>Node16&#45;&gt;Node33</title>
<path fill="none" stroke="midnightblue" d="M506.317,-392.822C513.377,-390.074 520.12,-386.54 526,-382 553.067,-361.101 534.649,-334.525 562,-314 565.21,-311.591 568.653,-309.469 572.255,-307.603"/>
<polygon fill="midnightblue" stroke="midnightblue" points="573.795,-310.748 581.492,-303.467 570.935,-304.359 573.795,-310.748"/>
</g>
<!-- Node19 -->
<g id="node19" class="node"><title>Node19</title>
<g id="a_node19"><a xlink:href="../../d2/d95/class_x_m_l_parser.html#ae67767f9678fb650ac38b1321ea9f723" target="_top" xlink:title="XMLParser.parseInitialTags">
<polygon fill="white" stroke="black" points="802.5,-304.5 802.5,-323.5 943.5,-323.5 943.5,-304.5 802.5,-304.5"/>
<text text-anchor="middle" x="873" y="-311.5" font-family="Helvetica,sans-Serif" font-size="10.00">XMLParser.parseInitialTags</text>
</a>
</g>
</g>
<!-- Node18&#45;&gt;Node19 -->
<g id="edge19" class="edge"><title>Node18&#45;&gt;Node19</title>
<path fill="none" stroke="midnightblue" d="M709.888,-266.555C722.494,-269.224 735.8,-272.396 748,-276 764.464,-280.864 767.696,-284.623 784,-290 796.823,-294.229 810.866,-298.303 823.895,-301.857"/>
<polygon fill="midnightblue" stroke="midnightblue" points="823.057,-305.256 833.623,-304.467 824.871,-298.495 823.057,-305.256"/>
</g>
<!-- Node20 -->
<g id="node20" class="node"><title>Node20</title>
<g id="a_node20"><a xlink:href="../../d2/d95/class_x_m_l_parser.html#a09c6848239104ae94825c045796dddd0" target="_top" xlink:title="XMLParser.makeParamMap">
<polygon fill="white" stroke="black" points="1005,-304.5 1005,-323.5 1151,-323.5 1151,-304.5 1005,-304.5"/>
<text text-anchor="middle" x="1078" y="-311.5" font-family="Helvetica,sans-Serif" font-size="10.00">XMLParser.makeParamMap</text>
</a>
</g>
</g>
<!-- Node19&#45;&gt;Node20 -->
<g id="edge20" class="edge"><title>Node19&#45;&gt;Node20</title>
<path fill="none" stroke="midnightblue" d="M943.577,-314C959.925,-314 977.504,-314 994.362,-314"/>
<polygon fill="midnightblue" stroke="midnightblue" points="994.749,-317.5 1004.75,-314 994.749,-310.5 994.749,-317.5"/>
</g>
<!-- Node21 -->
<g id="node21" class="node"><title>Node21</title>
<g id="a_node21"><a xlink:href="../../d2/d95/class_x_m_l_parser.html#a5a419f71699eb7d3d76ee238fb262a5f" target="_top" xlink:title="XMLParser.makeCellParamList">
<polygon fill="white" stroke="black" points="998,-342.5 998,-361.5 1158,-361.5 1158,-342.5 998,-342.5"/>
<text text-anchor="middle" x="1078" y="-349.5" font-family="Helvetica,sans-Serif" font-size="10.00">XMLParser.makeCellParamList</text>
</a>
</g>
</g>
<!-- Node19&#45;&gt;Node21 -->
<g id="edge21" class="edge"><title>Node19&#45;&gt;Node21</title>
<path fill="none" stroke="midnightblue" d="M924.963,-323.54C952.594,-328.712 986.933,-335.14 1015.98,-340.578"/>
<polygon fill="midnightblue" stroke="midnightblue" points="1015.54,-344.056 1026.02,-342.456 1016.83,-337.176 1015.54,-344.056"/>
</g>
<!-- Node22&#45;&gt;Node23 -->
<g id="edge23" class="edge"><title>Node22&#45;&gt;Node23</title>
<path fill="none" stroke="midnightblue" d="M732.762,-111.752C750.769,-113.336 770.043,-115.032 788.335,-116.641"/>
<polygon fill="midnightblue" stroke="midnightblue" points="788.114,-120.135 798.382,-117.524 788.728,-113.161 788.114,-120.135"/>
</g>
<!-- Node24 -->
<g id="node24" class="node"><title>Node24</title>
<g id="a_node24"><a xlink:href="../../d2/d95/class_x_m_l_parser.html#a0df3a2904766f59d1246cb55416f8146" target="_top" xlink:title="XMLParser.getSimParamMap">
<polygon fill="white" stroke="black" points="796,-76.5 796,-95.5 950,-95.5 950,-76.5 796,-76.5"/>
<text text-anchor="middle" x="873" y="-83.5" font-family="Helvetica,sans-Serif" font-size="10.00">XMLParser.getSimParamMap</text>
</a>
</g>
</g>
<!-- Node22&#45;&gt;Node24 -->
<g id="edge24" class="edge"><title>Node22&#45;&gt;Node24</title>
<path fill="none" stroke="midnightblue" d="M732.762,-98.2478C749.892,-96.7409 768.17,-95.1332 785.658,-93.5949"/>
<polygon fill="midnightblue" stroke="midnightblue" points="786.194,-97.0614 795.849,-92.6985 785.581,-90.0883 786.194,-97.0614"/>
</g>
<!-- Node26&#45;&gt;Node13 -->
<g id="edge29" class="edge"><title>Node26&#45;&gt;Node13</title>
<path fill="none" stroke="midnightblue" d="M727.122,-178.82C842.365,-175.289 1069.36,-168.332 1192.24,-164.567"/>
<polygon fill="midnightblue" stroke="midnightblue" points="1192.46,-168.062 1202.35,-164.257 1192.25,-161.065 1192.46,-168.062"/>
</g>
<!-- Node26&#45;&gt;Node23 -->
<g id="edge28" class="edge"><title>Node26&#45;&gt;Node23</title>
<path fill="none" stroke="midnightblue" d="M692.721,-171.465C709.569,-167.078 729.803,-161.795 748,-157 774.106,-150.121 803.283,-142.36 826.774,-136.093"/>
<polygon fill="midnightblue" stroke="midnightblue" points="827.709,-139.466 836.468,-133.506 825.903,-132.703 827.709,-139.466"/>
</g>
<!-- Node27 -->
<g id="node27" class="node"><title>Node27</title>
<g id="a_node27"><a xlink:href="../../d3/dff/class_cell_society.html#a42451b17e2bca5fd025c8d4ea74310ca" target="_top" xlink:title="CellSociety.stringToIntArray">
<polygon fill="white" stroke="black" points="800.5,-228.5 800.5,-247.5 945.5,-247.5 945.5,-228.5 800.5,-228.5"/>
<text text-anchor="middle" x="873" y="-235.5" font-family="Helvetica,sans-Serif" font-size="10.00">CellSociety.stringToIntArray</text>
</a>
</g>
</g>
<!-- Node26&#45;&gt;Node27 -->
<g id="edge30" class="edge"><title>Node26&#45;&gt;Node27</title>
<path fill="none" stroke="midnightblue" d="M696.597,-190.514C712.719,-194.571 731.353,-199.612 748,-205 764.333,-210.287 767.558,-214.062 784,-219 792.685,-221.608 801.952,-224.01 811.093,-226.165"/>
<polygon fill="midnightblue" stroke="midnightblue" points="810.401,-229.597 820.928,-228.405 811.955,-222.772 810.401,-229.597"/>
</g>
<!-- Node28 -->
<g id="node28" class="node"><title>Node28</title>
<g id="a_node28"><a xlink:href="../../d3/dff/class_cell_society.html#a117f1698760a3f6bbe51bd7af16f79bb" target="_top" xlink:title="CellSociety.createCellInstance">
<polygon fill="white" stroke="black" points="793.5,-190.5 793.5,-209.5 952.5,-209.5 952.5,-190.5 793.5,-190.5"/>
<text text-anchor="middle" x="873" y="-197.5" font-family="Helvetica,sans-Serif" font-size="10.00">CellSociety.createCellInstance</text>
</a>
</g>
</g>
<!-- Node26&#45;&gt;Node28 -->
<g id="edge31" class="edge"><title>Node26&#45;&gt;Node28</title>
<path fill="none" stroke="midnightblue" d="M727.026,-187.248C745.057,-188.834 764.652,-190.557 783.436,-192.21"/>
<polygon fill="midnightblue" stroke="midnightblue" points="783.204,-195.703 793.472,-193.092 783.817,-188.73 783.204,-195.703"/>
</g>
<!-- Node30 -->
<g id="node30" class="node"><title>Node30</title>
<g id="a_node30"><a xlink:href="../../d3/dff/class_cell_society.html#abf13a64ee79f2cb063447b499c695c58" target="_top" xlink:title="CellSociety.start">
<polygon fill="white" stroke="black" points="826.5,-411.5 826.5,-430.5 919.5,-430.5 919.5,-411.5 826.5,-411.5"/>
<text text-anchor="middle" x="873" y="-418.5" font-family="Helvetica,sans-Serif" font-size="10.00">CellSociety.start</text>
</a>
</g>
</g>
<!-- Node29&#45;&gt;Node30 -->
<g id="edge33" class="edge"><title>Node29&#45;&gt;Node30</title>
<path fill="none" stroke="midnightblue" d="M728.225,-421C756.808,-421 789.161,-421 815.928,-421"/>
<polygon fill="midnightblue" stroke="midnightblue" points="816.27,-424.5 826.27,-421 816.27,-417.5 816.27,-424.5"/>
</g>
<!-- Node30&#45;&gt;Node9 -->
<g id="edge34" class="edge"><title>Node30&#45;&gt;Node9</title>
<path fill="none" stroke="midnightblue" d="M919.557,-421C944.856,-421 976.898,-421 1005.46,-421"/>
<polygon fill="midnightblue" stroke="midnightblue" points="1005.81,-424.5 1015.81,-421 1005.81,-417.5 1005.81,-424.5"/>
</g>
<!-- Node36 -->
<g id="node36" class="node"><title>Node36</title>
<g id="a_node36"><a xlink:href="../../d3/dff/class_cell_society.html#adc5feda3db5472cea4e092d463681033" target="_top" xlink:title="CellSociety.reframeTimeline">
<polygon fill="white" stroke="black" points="580.5,-525.5 580.5,-544.5 729.5,-544.5 729.5,-525.5 580.5,-525.5"/>
<text text-anchor="middle" x="655" y="-532.5" font-family="Helvetica,sans-Serif" font-size="10.00">CellSociety.reframeTimeline</text>
</a>
</g>
</g>
<!-- Node35&#45;&gt;Node36 -->
<g id="edge44" class="edge"><title>Node35&#45;&gt;Node36</title>
<path fill="none" stroke="midnightblue" d="M521.526,-529.403C537.375,-530.072 554.041,-530.776 570.001,-531.451"/>
<polygon fill="midnightblue" stroke="midnightblue" points="570.232,-534.964 580.371,-531.889 570.528,-527.97 570.232,-534.964"/>
</g>
<!-- Node36&#45;&gt;Node30 -->
<g id="edge46" class="edge"><title>Node36&#45;&gt;Node30</title>
<path fill="none" stroke="midnightblue" d="M674.045,-525.477C712.003,-505.443 800.287,-458.848 845.007,-435.246"/>
<polygon fill="midnightblue" stroke="midnightblue" points="846.645,-438.34 853.855,-430.577 843.377,-432.149 846.645,-438.34"/>
</g>
<!-- Node36&#45;&gt;Node31 -->
<g id="edge45" class="edge"><title>Node36&#45;&gt;Node31</title>
<path fill="none" stroke="midnightblue" d="M729.731,-528.514C743.831,-527.274 758.801,-525.957 773.533,-524.661"/>
<polygon fill="midnightblue" stroke="midnightblue" points="774.025,-528.132 783.68,-523.769 773.411,-521.159 774.025,-528.132"/>
</g>
<!-- Node38&#45;&gt;Node36 -->
<g id="edge49" class="edge"><title>Node38&#45;&gt;Node36</title>
<path fill="none" stroke="midnightblue" d="M466.77,-478.608C491.135,-487.534 528.806,-500.927 562,-511 575.727,-515.166 590.737,-519.269 604.576,-522.872"/>
<polygon fill="midnightblue" stroke="midnightblue" points="603.855,-526.301 614.411,-525.401 605.598,-519.521 603.855,-526.301"/>
</g>
</g>
</svg>
