<?xml version="1.0" encoding="UTF-8" standalone="no"?>
<!DOCTYPE svg PUBLIC "-//W3C//DTD SVG 1.1//EN"
 "http://www.w3.org/Graphics/SVG/1.1/DTD/svg11.dtd">
<!-- Generated by graphviz version 2.36.0 (20140111.2315)
 -->
<!-- Title: CellSociety.start Pages: 1 -->
<svg width="650pt" height="154pt"
 viewBox="0.00 0.00 650.00 154.00" xmlns="http://www.w3.org/2000/svg" xmlns:xlink="http://www.w3.org/1999/xlink">
<g id="graph0" class="graph" transform="scale(1 1) rotate(0) translate(4 150)">
<title>CellSociety.start</title>
<polygon fill="white" stroke="none" points="-4,4 -4,-150 646,-150 646,4 -4,4"/>
<!-- Node1 -->
<g id="node1" class="node"><title>Node1</title>
<polygon fill="#bfbfbf" stroke="black" points="0.5,-46.5 0.5,-65.5 93.5,-65.5 93.5,-46.5 0.5,-46.5"/>
<text text-anchor="middle" x="47" y="-53.5" font-family="Helvetica,sans-Serif" font-size="10.00">CellSociety.start</text>
</g>
<!-- Node2 -->
<g id="node2" class="node"><title>Node2</title>
<g id="a_node2"><a xlink:href="../../d3/dff/class_cell_society.html#a0ff19c30a1cc433d8ea8444f6a5617f1" target="_top" xlink:title="CellSociety.updateGrid">
<polygon fill="white" stroke="black" points="130,-46.5 130,-65.5 254,-65.5 254,-46.5 130,-46.5"/>
<text text-anchor="middle" x="192" y="-53.5" font-family="Helvetica,sans-Serif" font-size="10.00">CellSociety.updateGrid</text>
</a>
</g>
</g>
<!-- Node1&#45;&gt;Node2 -->
<g id="edge1" class="edge"><title>Node1&#45;&gt;Node2</title>
<path fill="none" stroke="midnightblue" d="M93.6393,-56C102.013,-56 110.934,-56 119.847,-56"/>
<polygon fill="midnightblue" stroke="midnightblue" points="119.878,-59.5001 129.878,-56 119.878,-52.5001 119.878,-59.5001"/>
</g>
<!-- Node3 -->
<g id="node3" class="node"><title>Node3</title>
<g id="a_node3"><a xlink:href="../../d6/d6e/class_sim_controller.html#a10145cee2eaceb4ecad9396a825051d1" target="_top" xlink:title="SimController.runOneSim">
<polygon fill="white" stroke="black" points="304,-71.5 304,-90.5 442,-90.5 442,-71.5 304,-71.5"/>
<text text-anchor="middle" x="373" y="-78.5" font-family="Helvetica,sans-Serif" font-size="10.00">SimController.runOneSim</text>
</a>
</g>
</g>
<!-- Node2&#45;&gt;Node3 -->
<g id="edge2" class="edge"><title>Node2&#45;&gt;Node3</title>
<path fill="none" stroke="midnightblue" d="M254.101,-64.5337C266.853,-66.3146 280.462,-68.2154 293.737,-70.0694"/>
<polygon fill="midnightblue" stroke="midnightblue" points="293.415,-73.5584 303.803,-71.4753 294.383,-66.6256 293.415,-73.5584"/>
</g>
<!-- Node7 -->
<g id="node7" class="node"><title>Node7</title>
<g id="a_node7"><a xlink:href="../../df/df8/class_cell_society_view.html#a43ac2666d3a002024be53fe74028a576" target="_top" xlink:title="CellSocietyView.updateSimGrid">
<polygon fill="white" stroke="black" points="290.5,-22.5 290.5,-41.5 455.5,-41.5 455.5,-22.5 290.5,-22.5"/>
<text text-anchor="middle" x="373" y="-29.5" font-family="Helvetica,sans-Serif" font-size="10.00">CellSocietyView.updateSimGrid</text>
</a>
</g>
</g>
<!-- Node2&#45;&gt;Node7 -->
<g id="edge6" class="edge"><title>Node2&#45;&gt;Node7</title>
<path fill="none" stroke="midnightblue" d="M254.101,-47.8077C265.891,-46.227 278.413,-44.5479 290.727,-42.8969"/>
<polygon fill="midnightblue" stroke="midnightblue" points="291.554,-46.3174 301,-41.5195 290.624,-39.3795 291.554,-46.3174"/>
</g>
<!-- Node4 -->
<g id="node4" class="node"><title>Node4</title>
<g id="a_node4"><a xlink:href="../../dd/ddd/class_neighbor.html#ac769186595af20512a2ec4754db75640" target="_top" xlink:title="Neighbor.getNeighbors">
<polygon fill="white" stroke="black" points="503.5,-126.5 503.5,-145.5 630.5,-145.5 630.5,-126.5 503.5,-126.5"/>
<text text-anchor="middle" x="567" y="-133.5" font-family="Helvetica,sans-Serif" font-size="10.00">Neighbor.getNeighbors</text>
</a>
</g>
</g>
<!-- Node3&#45;&gt;Node4 -->
<g id="edge3" class="edge"><title>Node3&#45;&gt;Node4</title>
<path fill="none" stroke="midnightblue" d="M405.492,-90.568C429.227,-97.7239 462.601,-107.669 492,-116 501.027,-118.558 510.694,-121.224 519.964,-123.744"/>
<polygon fill="midnightblue" stroke="midnightblue" points="519.251,-127.177 529.818,-126.41 521.079,-120.42 519.251,-127.177"/>
</g>
<!-- Node5 -->
<g id="node5" class="node"><title>Node5</title>
<g id="a_node5"><a xlink:href="../../d6/d6e/class_sim_controller.html#a0b75005badf06910bcd21f152c640762" target="_top" xlink:title="SimController.getNeighbors\lState">
<polygon fill="white" stroke="black" points="492.5,-77 492.5,-107 641.5,-107 641.5,-77 492.5,-77"/>
<text text-anchor="start" x="500.5" y="-95" font-family="Helvetica,sans-Serif" font-size="10.00">SimController.getNeighbors</text>
<text text-anchor="middle" x="567" y="-84" font-family="Helvetica,sans-Serif" font-size="10.00">State</text>
</a>
</g>
</g>
<!-- Node3&#45;&gt;Node5 -->
<g id="edge4" class="edge"><title>Node3&#45;&gt;Node5</title>
<path fill="none" stroke="midnightblue" d="M442.233,-84.9092C455.202,-85.6522 468.912,-86.4377 482.297,-87.2045"/>
<polygon fill="midnightblue" stroke="midnightblue" points="482.268,-90.7085 492.452,-87.7863 482.669,-83.72 482.268,-90.7085"/>
</g>
<!-- Node6 -->
<g id="node6" class="node"><title>Node6</title>
<g id="a_node6"><a xlink:href="../../d6/d6e/class_sim_controller.html#a0a26878930cc1e557b0e101867cb2c23" target="_top" xlink:title="SimController.newState">
<polygon fill="white" stroke="black" points="502.5,-38.5 502.5,-57.5 631.5,-57.5 631.5,-38.5 502.5,-38.5"/>
<text text-anchor="middle" x="567" y="-45.5" font-family="Helvetica,sans-Serif" font-size="10.00">SimController.newState</text>
</a>
</g>
</g>
<!-- Node3&#45;&gt;Node6 -->
<g id="edge5" class="edge"><title>Node3&#45;&gt;Node6</title>
<path fill="none" stroke="midnightblue" d="M429.277,-71.4993C451.472,-67.6845 477.233,-63.2569 500.369,-59.2802"/>
<polygon fill="midnightblue" stroke="midnightblue" points="501.186,-62.6913 510.449,-57.5479 500,-55.7925 501.186,-62.6913"/>
</g>
<!-- Node8 -->
<g id="node8" class="node"><title>Node8</title>
<g id="a_node8"><a xlink:href="../../dd/d11/class_cell.html#a1e0ece61fecc69a9b7986d17d925434a" target="_top" xlink:title="Cell.getShape">
<polygon fill="white" stroke="black" points="525.5,-0.5 525.5,-19.5 608.5,-19.5 608.5,-0.5 525.5,-0.5"/>
<text text-anchor="middle" x="567" y="-7.5" font-family="Helvetica,sans-Serif" font-size="10.00">Cell.getShape</text>
</a>
</g>
</g>
<!-- Node7&#45;&gt;Node8 -->
<g id="edge7" class="edge"><title>Node7&#45;&gt;Node8</title>
<path fill="none" stroke="midnightblue" d="M455.704,-22.6381C475.933,-20.3201 497.029,-17.9029 515.29,-15.8106"/>
<polygon fill="midnightblue" stroke="midnightblue" points="515.864,-19.2677 525.401,-14.652 515.067,-12.3132 515.864,-19.2677"/>
</g>
</g>
</svg>
