<?xml version="1.0" encoding="UTF-8" standalone="no"?>
<!DOCTYPE svg PUBLIC "-//W3C//DTD SVG 1.1//EN"
 "http://www.w3.org/Graphics/SVG/1.1/DTD/svg11.dtd">
<!-- Generated by graphviz version 2.36.0 (20140111.2315)
 -->
<!-- Title: SharkCell Pages: 1 -->
<svg width="152pt" height="84pt"
 viewBox="0.00 0.00 152.00 84.00" xmlns="http://www.w3.org/2000/svg" xmlns:xlink="http://www.w3.org/1999/xlink">
<g id="graph0" class="graph" transform="scale(1 1) rotate(0) translate(4 80)">
<title>SharkCell</title>
<polygon fill="white" stroke="none" points="-4,4 -4,-80 148,-80 148,4 -4,4"/>
<!-- Node1 -->
<g id="node1" class="node"><title>Node1</title>
<polygon fill="#bfbfbf" stroke="black" points="26,-0.5 26,-19.5 88,-19.5 88,-0.5 26,-0.5"/>
<text text-anchor="middle" x="57" y="-7.5" font-family="Helvetica,sans-Serif" font-size="10.00">SharkCell</text>
</g>
<!-- Node2 -->
<g id="node2" class="node"><title>Node2</title>
<g id="a_node2"><a xlink:href="../../dd/d11/class_cell.html" target="_top" xlink:title="Cell">
<polygon fill="white" stroke="black" points="0,-56.5 0,-75.5 34,-75.5 34,-56.5 0,-56.5"/>
<text text-anchor="middle" x="17" y="-63.5" font-family="Helvetica,sans-Serif" font-size="10.00">Cell</text>
</a>
</g>
</g>
<!-- Node2&#45;&gt;Node1 -->
<g id="edge1" class="edge"><title>Node2&#45;&gt;Node1</title>
<path fill="none" stroke="midnightblue" d="M29.6997,-47.8554C36.626,-38.5048 44.9063,-27.3265 50.5177,-19.7511"/>
<polygon fill="midnightblue" stroke="midnightblue" points="26.745,-45.9641 23.6052,-56.083 32.37,-50.1307 26.745,-45.9641"/>
</g>
<!-- Node3 -->
<g id="node3" class="node"><title>Node3</title>
<g id="a_node3"><a xlink:href="../../d1/dd8/interface_reproducing_cell.html" target="_top" xlink:title="ReproducingCell">
<polygon fill="white" stroke="black" points="52,-56.5 52,-75.5 144,-75.5 144,-56.5 52,-56.5"/>
<text text-anchor="middle" x="98" y="-63.5" font-family="Helvetica,sans-Serif" font-size="10.00">ReproducingCell</text>
</a>
</g>
</g>
<!-- Node3&#45;&gt;Node1 -->
<g id="edge2" class="edge"><title>Node3&#45;&gt;Node1</title>
<path fill="none" stroke="midnightblue" d="M84.9828,-47.8554C77.8833,-38.5048 69.396,-27.3265 63.6443,-19.7511"/>
<polygon fill="midnightblue" stroke="midnightblue" points="82.395,-50.235 91.2297,-56.083 87.9701,-46.002 82.395,-50.235"/>
</g>
</g>
</svg>
