<?xml version="1.0" encoding="UTF-8" standalone="no"?>
<!DOCTYPE svg PUBLIC "-//W3C//DTD SVG 1.1//EN"
 "http://www.w3.org/Graphics/SVG/1.1/DTD/svg11.dtd">
<!-- Generated by graphviz version 2.36.0 (20140111.2315)
 -->
<!-- Title: Neighbor.getNeighbors Pages: 1 -->
<svg width="1344pt" height="130pt"
 viewBox="0.00 0.00 1344.00 129.56" xmlns="http://www.w3.org/2000/svg" xmlns:xlink="http://www.w3.org/1999/xlink">
<g id="graph0" class="graph" transform="scale(1 1) rotate(0) translate(4 125.562)">
<title>Neighbor.getNeighbors</title>
<polygon fill="white" stroke="none" points="-4,4 -4,-125.562 1340,-125.562 1340,4 -4,4"/>
<!-- Node1 -->
<g id="node1" class="node"><title>Node1</title>
<polygon fill="#bfbfbf" stroke="black" points="0.5,-85.5 0.5,-104.5 127.5,-104.5 127.5,-85.5 0.5,-85.5"/>
<text text-anchor="middle" x="64" y="-92.5" font-family="Helvetica,sans-Serif" font-size="10.00">Neighbor.getNeighbors</text>
</g>
<!-- Node2 -->
<g id="node2" class="node"><title>Node2</title>
<g id="a_node2"><a xlink:href="../../d6/d6e/class_sim_controller.html#a10145cee2eaceb4ecad9396a825051d1" target="_top" xlink:title="SimController.runOneSim">
<polygon fill="white" stroke="black" points="164,-85.5 164,-104.5 302,-104.5 302,-85.5 164,-85.5"/>
<text text-anchor="middle" x="233" y="-92.5" font-family="Helvetica,sans-Serif" font-size="10.00">SimController.runOneSim</text>
</a>
</g>
</g>
<!-- Node1&#45;&gt;Node2 -->
<g id="edge1" class="edge"><title>Node1&#45;&gt;Node2</title>
<path fill="none" stroke="midnightblue" d="M137.774,-95C146.472,-95 155.327,-95 163.954,-95"/>
<polygon fill="midnightblue" stroke="midnightblue" points="137.66,-91.5001 127.66,-95 137.66,-98.5001 137.66,-91.5001"/>
</g>
<!-- Node3 -->
<g id="node3" class="node"><title>Node3</title>
<g id="a_node3"><a xlink:href="../../d3/dff/class_cell_society.html#a0ff19c30a1cc433d8ea8444f6a5617f1" target="_top" xlink:title="CellSociety.updateGrid">
<polygon fill="white" stroke="black" points="338,-85.5 338,-104.5 462,-104.5 462,-85.5 338,-85.5"/>
<text text-anchor="middle" x="400" y="-92.5" font-family="Helvetica,sans-Serif" font-size="10.00">CellSociety.updateGrid</text>
</a>
</g>
</g>
<!-- Node2&#45;&gt;Node3 -->
<g id="edge2" class="edge"><title>Node2&#45;&gt;Node3</title>
<path fill="none" stroke="midnightblue" d="M312.176,-95C320.835,-95 329.557,-95 337.959,-95"/>
<polygon fill="midnightblue" stroke="midnightblue" points="312.064,-91.5001 302.064,-95 312.064,-98.5001 312.064,-91.5001"/>
</g>
<!-- Node4 -->
<g id="node4" class="node"><title>Node4</title>
<g id="a_node4"><a xlink:href="../../d3/dff/class_cell_society.html#a656ff46d1459fb7f86b42e3c542506ee" target="_top" xlink:title="CellSociety.configureListeners">
<polygon fill="white" stroke="black" points="1018,-57.5 1018,-76.5 1176,-76.5 1176,-57.5 1018,-57.5"/>
<text text-anchor="middle" x="1097" y="-64.5" font-family="Helvetica,sans-Serif" font-size="10.00">CellSociety.configureListeners</text>
</a>
</g>
</g>
<!-- Node3&#45;&gt;Node4 -->
<g id="edge3" class="edge"><title>Node3&#45;&gt;Node4</title>
<path fill="none" stroke="midnightblue" d="M472.143,-104.282C582.251,-116.843 800.215,-134.5 982,-105 1015.15,-99.6198 1051.7,-85.977 1074.25,-76.5924"/>
<polygon fill="midnightblue" stroke="midnightblue" points="472.488,-100.799 462.151,-103.122 471.681,-107.752 472.488,-100.799"/>
</g>
<!-- Node6 -->
<g id="node6" class="node"><title>Node6</title>
<g id="a_node6"><a xlink:href="../../d3/dff/class_cell_society.html#abf13a64ee79f2cb063447b499c695c58" target="_top" xlink:title="CellSociety.start">
<polygon fill="white" stroke="black" points="498.5,-57.5 498.5,-76.5 591.5,-76.5 591.5,-57.5 498.5,-57.5"/>
<text text-anchor="middle" x="545" y="-64.5" font-family="Helvetica,sans-Serif" font-size="10.00">CellSociety.start</text>
</a>
</g>
</g>
<!-- Node3&#45;&gt;Node6 -->
<g id="edge5" class="edge"><title>Node3&#45;&gt;Node6</title>
<path fill="none" stroke="midnightblue" d="M459.93,-83.4613C472.735,-80.954 486.095,-78.338 498.298,-75.9487"/>
<polygon fill="midnightblue" stroke="midnightblue" points="458.954,-80.0859 449.813,-85.4423 460.299,-86.9554 458.954,-80.0859"/>
</g>
<!-- Node5 -->
<g id="node5" class="node"><title>Node5</title>
<g id="a_node5"><a xlink:href="../../d3/dff/class_cell_society.html#ac5e08680a3da358d402461bc25aa1727" target="_top" xlink:title="CellSociety.CellSociety">
<polygon fill="white" stroke="black" points="1212.5,-57.5 1212.5,-76.5 1335.5,-76.5 1335.5,-57.5 1212.5,-57.5"/>
<text text-anchor="middle" x="1274" y="-64.5" font-family="Helvetica,sans-Serif" font-size="10.00">CellSociety.CellSociety</text>
</a>
</g>
</g>
<!-- Node4&#45;&gt;Node5 -->
<g id="edge4" class="edge"><title>Node4&#45;&gt;Node5</title>
<path fill="none" stroke="midnightblue" d="M1186.09,-67C1195.01,-67 1203.92,-67 1212.45,-67"/>
<polygon fill="midnightblue" stroke="midnightblue" points="1186.03,-63.5001 1176.03,-67 1186.03,-70.5001 1186.03,-63.5001"/>
</g>
<!-- Node7 -->
<g id="node7" class="node"><title>Node7</title>
<g id="a_node7"><a xlink:href="../../d3/dff/class_cell_society.html#adc5feda3db5472cea4e092d463681033" target="_top" xlink:title="CellSociety.reframeTimeline">
<polygon fill="white" stroke="black" points="628.5,-57.5 628.5,-76.5 777.5,-76.5 777.5,-57.5 628.5,-57.5"/>
<text text-anchor="middle" x="703" y="-64.5" font-family="Helvetica,sans-Serif" font-size="10.00">CellSociety.reframeTimeline</text>
</a>
</g>
</g>
<!-- Node6&#45;&gt;Node7 -->
<g id="edge6" class="edge"><title>Node6&#45;&gt;Node7</title>
<path fill="none" stroke="midnightblue" d="M601.78,-67C610.359,-67 619.329,-67 628.226,-67"/>
<polygon fill="midnightblue" stroke="midnightblue" points="601.541,-63.5001 591.541,-67 601.541,-70.5001 601.541,-63.5001"/>
</g>
<!-- Node10 -->
<g id="node10" class="node"><title>Node10</title>
<g id="a_node10"><a xlink:href="../../d3/dff/class_cell_society.html#ab9e56a2a70e210e021b51e898508329b" target="_top" xlink:title="CellSociety.setupAnimation">
<polygon fill="white" stroke="black" points="630,-9.5 630,-28.5 776,-28.5 776,-9.5 630,-9.5"/>
<text text-anchor="middle" x="703" y="-16.5" font-family="Helvetica,sans-Serif" font-size="10.00">CellSociety.setupAnimation</text>
</a>
</g>
</g>
<!-- Node6&#45;&gt;Node10 -->
<g id="edge11" class="edge"><title>Node6&#45;&gt;Node10</title>
<path fill="none" stroke="midnightblue" d="M586.87,-54.4247C613.143,-46.3405 646.748,-36.0005 670.86,-28.5815"/>
<polygon fill="midnightblue" stroke="midnightblue" points="585.722,-51.1157 577.194,-57.4018 587.781,-57.8061 585.722,-51.1157"/>
</g>
<!-- Node8 -->
<g id="node8" class="node"><title>Node8</title>
<g id="a_node8"><a xlink:href="../../d3/dff/class_cell_society.html#a045267ba1843ca4a47891d7be73c2ac1" target="_top" xlink:title="CellSociety.decreaseFrameRate">
<polygon fill="white" stroke="black" points="814.5,-76.5 814.5,-95.5 981.5,-95.5 981.5,-76.5 814.5,-76.5"/>
<text text-anchor="middle" x="898" y="-83.5" font-family="Helvetica,sans-Serif" font-size="10.00">CellSociety.decreaseFrameRate</text>
</a>
</g>
</g>
<!-- Node7&#45;&gt;Node8 -->
<g id="edge7" class="edge"><title>Node7&#45;&gt;Node8</title>
<path fill="none" stroke="midnightblue" d="M787.487,-75.2189C796.391,-76.0954 805.444,-76.9868 814.338,-77.8623"/>
<polygon fill="midnightblue" stroke="midnightblue" points="787.81,-71.7339 777.516,-74.2373 787.125,-78.7003 787.81,-71.7339"/>
</g>
<!-- Node9 -->
<g id="node9" class="node"><title>Node9</title>
<g id="a_node9"><a xlink:href="../../d3/dff/class_cell_society.html#a8250bfacdaf51dabf6b9d1cafc0ce9b2" target="_top" xlink:title="CellSociety.increaseFrameRate">
<polygon fill="white" stroke="black" points="816.5,-38.5 816.5,-57.5 979.5,-57.5 979.5,-38.5 816.5,-38.5"/>
<text text-anchor="middle" x="898" y="-45.5" font-family="Helvetica,sans-Serif" font-size="10.00">CellSociety.increaseFrameRate</text>
</a>
</g>
</g>
<!-- Node7&#45;&gt;Node9 -->
<g id="edge9" class="edge"><title>Node7&#45;&gt;Node9</title>
<path fill="none" stroke="midnightblue" d="M787.719,-58.7583C797.198,-57.8251 806.845,-56.8753 816.285,-55.946"/>
<polygon fill="midnightblue" stroke="midnightblue" points="787.125,-55.2997 777.516,-59.7627 787.81,-62.2661 787.125,-55.2997"/>
</g>
<!-- Node8&#45;&gt;Node4 -->
<g id="edge8" class="edge"><title>Node8&#45;&gt;Node4</title>
<path fill="none" stroke="midnightblue" d="M991.877,-77.0423C1000.59,-76.2017 1009.37,-75.3554 1017.93,-74.5299"/>
<polygon fill="midnightblue" stroke="midnightblue" points="991.307,-73.5809 981.689,-78.0249 991.979,-80.5486 991.307,-73.5809"/>
</g>
<!-- Node9&#45;&gt;Node4 -->
<g id="edge10" class="edge"><title>Node9&#45;&gt;Node4</title>
<path fill="none" stroke="midnightblue" d="M989.842,-56.7614C999.24,-57.6678 1008.73,-58.5834 1017.97,-59.4746"/>
<polygon fill="midnightblue" stroke="midnightblue" points="989.986,-53.2591 979.696,-55.7828 989.314,-60.2268 989.986,-53.2591"/>
</g>
<!-- Node11 -->
<g id="node11" class="node"><title>Node11</title>
<g id="a_node11"><a xlink:href="../../d3/dff/class_cell_society.html#af9f22af39a97a58b26126020ca6c8844" target="_top" xlink:title="CellSociety.readNewXML">
<polygon fill="white" stroke="black" points="832,-0.5 832,-19.5 964,-19.5 964,-0.5 832,-0.5"/>
<text text-anchor="middle" x="898" y="-7.5" font-family="Helvetica,sans-Serif" font-size="10.00">CellSociety.readNewXML</text>
</a>
</g>
</g>
<!-- Node10&#45;&gt;Node11 -->
<g id="edge12" class="edge"><title>Node10&#45;&gt;Node11</title>
<path fill="none" stroke="midnightblue" d="M786.552,-15.1504C801.727,-14.4428 817.372,-13.7132 831.943,-13.0337"/>
<polygon fill="midnightblue" stroke="midnightblue" points="785.967,-11.6738 776.141,-15.6359 786.293,-18.6662 785.967,-11.6738"/>
</g>
<!-- Node11&#45;&gt;Node4 -->
<g id="edge13" class="edge"><title>Node11&#45;&gt;Node4</title>
<path fill="none" stroke="midnightblue" d="M954.362,-21.8882C963.628,-24.1025 973.115,-26.5086 982,-29 1012.33,-37.5056 1046.54,-49.198 1069.51,-57.3586"/>
<polygon fill="midnightblue" stroke="midnightblue" points="954.965,-18.4351 944.431,-19.5659 953.371,-25.2512 954.965,-18.4351"/>
</g>
</g>
</svg>
