<?xml version="1.0" encoding="UTF-8" standalone="no"?>
<!DOCTYPE svg PUBLIC "-//W3C//DTD SVG 1.1//EN"
 "http://www.w3.org/Graphics/SVG/1.1/DTD/svg11.dtd">
<!-- Generated by graphviz version 2.36.0 (20140111.2315)
 -->
<!-- Title: Neighbor.getNeighbors Pages: 1 -->
<svg width="898pt" height="104pt"
 viewBox="0.00 0.00 898.00 104.00" xmlns="http://www.w3.org/2000/svg" xmlns:xlink="http://www.w3.org/1999/xlink">
<g id="graph0" class="graph" transform="scale(1 1) rotate(0) translate(4 100)">
<title>Neighbor.getNeighbors</title>
<polygon fill="white" stroke="none" points="-4,4 -4,-100 894,-100 894,4 -4,4"/>
<!-- Node1 -->
<g id="node1" class="node"><title>Node1</title>
<polygon fill="#bfbfbf" stroke="black" points="0.5,-38.5 0.5,-57.5 127.5,-57.5 127.5,-38.5 0.5,-38.5"/>
<text text-anchor="middle" x="64" y="-45.5" font-family="Helvetica,sans-Serif" font-size="10.00">Neighbor.getNeighbors</text>
</g>
<!-- Node2 -->
<g id="node2" class="node"><title>Node2</title>
<g id="a_node2"><a xlink:href="../../dd/ddd/class_neighbor.html#a206a29535da1fbe19507f974c9cbe1fc" target="_top" xlink:title="Neighbor.getNeighbors">
<polygon fill="white" stroke="black" points="179.5,-76.5 179.5,-95.5 306.5,-95.5 306.5,-76.5 179.5,-76.5"/>
<text text-anchor="middle" x="243" y="-83.5" font-family="Helvetica,sans-Serif" font-size="10.00">Neighbor.getNeighbors</text>
</a>
</g>
</g>
<!-- Node1&#45;&gt;Node2 -->
<g id="edge1" class="edge"><title>Node1&#45;&gt;Node2</title>
<path fill="none" stroke="midnightblue" d="M119.742,-59.7526C144.77,-65.1258 174.035,-71.4086 197.657,-76.4799"/>
<polygon fill="midnightblue" stroke="midnightblue" points="120.176,-56.2661 109.665,-57.589 118.707,-63.1102 120.176,-56.2661"/>
</g>
<!-- Node3 -->
<g id="node3" class="node"><title>Node3</title>
<g id="a_node3"><a xlink:href="../../dc/da7/class_wator_controller.html#a7b71e69d99808906a02cc6689d5e8c15" target="_top" xlink:title="WatorController.getNeighbors">
<polygon fill="white" stroke="black" points="164.5,-38.5 164.5,-57.5 321.5,-57.5 321.5,-38.5 164.5,-38.5"/>
<text text-anchor="middle" x="243" y="-45.5" font-family="Helvetica,sans-Serif" font-size="10.00">WatorController.getNeighbors</text>
</a>
</g>
</g>
<!-- Node1&#45;&gt;Node3 -->
<g id="edge2" class="edge"><title>Node1&#45;&gt;Node3</title>
<path fill="none" stroke="midnightblue" d="M138.016,-48C146.731,-48 155.652,-48 164.428,-48"/>
<polygon fill="midnightblue" stroke="midnightblue" points="137.902,-44.5001 127.902,-48 137.902,-51.5001 137.902,-44.5001"/>
</g>
<!-- Node7 -->
<g id="node7" class="node"><title>Node7</title>
<g id="a_node7"><a xlink:href="../../da/d56/class_simple_controller.html#a5e06ea3ebf9ae14fd8b0a69326cd6ffe" target="_top" xlink:title="SimpleController.runOneSim">
<polygon fill="white" stroke="black" points="167,-0.5 167,-19.5 319,-19.5 319,-0.5 167,-0.5"/>
<text text-anchor="middle" x="243" y="-7.5" font-family="Helvetica,sans-Serif" font-size="10.00">SimpleController.runOneSim</text>
</a>
</g>
</g>
<!-- Node1&#45;&gt;Node7 -->
<g id="edge6" class="edge"><title>Node1&#45;&gt;Node7</title>
<path fill="none" stroke="midnightblue" d="M119.742,-36.2474C144.77,-30.8742 174.035,-24.5914 197.657,-19.5201"/>
<polygon fill="midnightblue" stroke="midnightblue" points="118.707,-32.8898 109.665,-38.411 120.176,-39.7339 118.707,-32.8898"/>
</g>
<!-- Node4 -->
<g id="node4" class="node"><title>Node4</title>
<g id="a_node4"><a xlink:href="../../dc/da7/class_wator_controller.html#a14e97f15d6937c3667feb85a2b5d896e" target="_top" xlink:title="WatorController.makeEligible">
<polygon fill="white" stroke="black" points="358,-38.5 358,-57.5 510,-57.5 510,-38.5 358,-38.5"/>
<text text-anchor="middle" x="434" y="-45.5" font-family="Helvetica,sans-Serif" font-size="10.00">WatorController.makeEligible</text>
</a>
</g>
</g>
<!-- Node3&#45;&gt;Node4 -->
<g id="edge3" class="edge"><title>Node3&#45;&gt;Node4</title>
<path fill="none" stroke="midnightblue" d="M331.812,-48C340.478,-48 349.22,-48 357.743,-48"/>
<polygon fill="midnightblue" stroke="midnightblue" points="331.692,-44.5001 321.692,-48 331.692,-51.5001 331.692,-44.5001"/>
</g>
<!-- Node5 -->
<g id="node5" class="node"><title>Node5</title>
<g id="a_node5"><a xlink:href="../../dc/da7/class_wator_controller.html#ae00870133a4b1cfbfaeecf11ffd7b650" target="_top" xlink:title="WatorController.manipulateCell">
<polygon fill="white" stroke="black" points="546,-38.5 546,-57.5 710,-57.5 710,-38.5 546,-38.5"/>
<text text-anchor="middle" x="628" y="-45.5" font-family="Helvetica,sans-Serif" font-size="10.00">WatorController.manipulateCell</text>
</a>
</g>
</g>
<!-- Node4&#45;&gt;Node5 -->
<g id="edge4" class="edge"><title>Node4&#45;&gt;Node5</title>
<path fill="none" stroke="midnightblue" d="M520.084,-48C528.687,-48 537.408,-48 545.966,-48"/>
<polygon fill="midnightblue" stroke="midnightblue" points="520.057,-44.5001 510.057,-48 520.057,-51.5001 520.057,-44.5001"/>
</g>
<!-- Node6 -->
<g id="node6" class="node"><title>Node6</title>
<g id="a_node6"><a xlink:href="../../dc/da7/class_wator_controller.html#aff090131b0a6ebc6dc7a095a3dc2ea36" target="_top" xlink:title="WatorController.cellUpdate">
<polygon fill="white" stroke="black" points="746.5,-38.5 746.5,-57.5 889.5,-57.5 889.5,-38.5 746.5,-38.5"/>
<text text-anchor="middle" x="818" y="-45.5" font-family="Helvetica,sans-Serif" font-size="10.00">WatorController.cellUpdate</text>
</a>
</g>
</g>
<!-- Node5&#45;&gt;Node6 -->
<g id="edge5" class="edge"><title>Node5&#45;&gt;Node6</title>
<path fill="none" stroke="midnightblue" d="M720.289,-48C729.002,-48 737.746,-48 746.222,-48"/>
<polygon fill="midnightblue" stroke="midnightblue" points="720.093,-44.5001 710.093,-48 720.093,-51.5001 720.093,-44.5001"/>
</g>
</g>
</svg>
