<?xml version="1.0" encoding="UTF-8" standalone="no"?>
<!DOCTYPE svg PUBLIC "-//W3C//DTD SVG 1.1//EN"
 "http://www.w3.org/Graphics/SVG/1.1/DTD/svg11.dtd">
<!-- Generated by graphviz version 2.36.0 (20140111.2315)
 -->
<!-- Title: XMLParser.getSimParamMap Pages: 1 -->
<svg width="876pt" height="28pt"
 viewBox="0.00 0.00 876.00 28.00" xmlns="http://www.w3.org/2000/svg" xmlns:xlink="http://www.w3.org/1999/xlink">
<g id="graph0" class="graph" transform="scale(1 1) rotate(0) translate(4 24)">
<title>XMLParser.getSimParamMap</title>
<polygon fill="white" stroke="none" points="-4,4 -4,-24 872,-24 872,4 -4,4"/>
<!-- Node1 -->
<g id="node1" class="node"><title>Node1</title>
<polygon fill="#bfbfbf" stroke="black" points="0,-0.5 0,-19.5 154,-19.5 154,-0.5 0,-0.5"/>
<text text-anchor="middle" x="77" y="-7.5" font-family="Helvetica,sans-Serif" font-size="10.00">XMLParser.getSimParamMap</text>
</g>
<!-- Node2 -->
<g id="node2" class="node"><title>Node2</title>
<g id="a_node2"><a xlink:href="../../d3/dff/class_cell_society.html#abfbf43ce46b4c82c16a2d933b6a11abf" target="_top" xlink:title="CellSociety.retrieveParserInfo">
<polygon fill="white" stroke="black" points="190.5,-0.5 190.5,-19.5 345.5,-19.5 345.5,-0.5 190.5,-0.5"/>
<text text-anchor="middle" x="268" y="-7.5" font-family="Helvetica,sans-Serif" font-size="10.00">CellSociety.retrieveParserInfo</text>
</a>
</g>
</g>
<!-- Node1&#45;&gt;Node2 -->
<g id="edge1" class="edge"><title>Node1&#45;&gt;Node2</title>
<path fill="none" stroke="midnightblue" d="M164.262,-10C173.009,-10 181.85,-10 190.484,-10"/>
<polygon fill="midnightblue" stroke="midnightblue" points="164.057,-6.5001 154.057,-10 164.057,-13.5001 164.057,-6.5001"/>
</g>
<!-- Node3 -->
<g id="node3" class="node"><title>Node3</title>
<g id="a_node3"><a xlink:href="../../d3/dff/class_cell_society.html#af9f22af39a97a58b26126020ca6c8844" target="_top" xlink:title="CellSociety.readNewXML">
<polygon fill="white" stroke="black" points="382,-0.5 382,-19.5 514,-19.5 514,-0.5 382,-0.5"/>
<text text-anchor="middle" x="448" y="-7.5" font-family="Helvetica,sans-Serif" font-size="10.00">CellSociety.readNewXML</text>
</a>
</g>
</g>
<!-- Node2&#45;&gt;Node3 -->
<g id="edge2" class="edge"><title>Node2&#45;&gt;Node3</title>
<path fill="none" stroke="midnightblue" d="M355.751,-10C364.495,-10 373.267,-10 381.73,-10"/>
<polygon fill="midnightblue" stroke="midnightblue" points="355.521,-6.5001 345.521,-10 355.521,-13.5001 355.521,-6.5001"/>
</g>
<!-- Node4 -->
<g id="node4" class="node"><title>Node4</title>
<g id="a_node4"><a xlink:href="../../d3/dff/class_cell_society.html#a656ff46d1459fb7f86b42e3c542506ee" target="_top" xlink:title="CellSociety.configureListeners">
<polygon fill="white" stroke="black" points="550,-0.5 550,-19.5 708,-19.5 708,-0.5 550,-0.5"/>
<text text-anchor="middle" x="629" y="-7.5" font-family="Helvetica,sans-Serif" font-size="10.00">CellSociety.configureListeners</text>
</a>
</g>
</g>
<!-- Node3&#45;&gt;Node4 -->
<g id="edge3" class="edge"><title>Node3&#45;&gt;Node4</title>
<path fill="none" stroke="midnightblue" d="M524.312,-10C532.748,-10 541.355,-10 549.826,-10"/>
<polygon fill="midnightblue" stroke="midnightblue" points="524.13,-6.5001 514.129,-10 524.129,-13.5001 524.13,-6.5001"/>
</g>
<!-- Node5 -->
<g id="node5" class="node"><title>Node5</title>
<g id="a_node5"><a xlink:href="../../d3/dff/class_cell_society.html#ac5e08680a3da358d402461bc25aa1727" target="_top" xlink:title="CellSociety.CellSociety">
<polygon fill="white" stroke="black" points="744.5,-0.5 744.5,-19.5 867.5,-19.5 867.5,-0.5 744.5,-0.5"/>
<text text-anchor="middle" x="806" y="-7.5" font-family="Helvetica,sans-Serif" font-size="10.00">CellSociety.CellSociety</text>
</a>
</g>
</g>
<!-- Node4&#45;&gt;Node5 -->
<g id="edge4" class="edge"><title>Node4&#45;&gt;Node5</title>
<path fill="none" stroke="midnightblue" d="M718.087,-10C727.007,-10 735.919,-10 744.452,-10"/>
<polygon fill="midnightblue" stroke="midnightblue" points="718.032,-6.5001 708.032,-10 718.032,-13.5001 718.032,-6.5001"/>
</g>
</g>
</svg>
