<?xml version="1.0" encoding="UTF-8" standalone="no"?>
<!DOCTYPE svg PUBLIC "-//W3C//DTD SVG 1.1//EN"
 "http://www.w3.org/Graphics/SVG/1.1/DTD/svg11.dtd">
<!-- Generated by graphviz version 2.36.0 (20140111.2315)
 -->
<!-- Title: XMLParser.getCellParamList Pages: 1 -->
<!--zoomable 143 -->
<svg id="main" version="1.1" xmlns="http://www.w3.org/2000/svg" xmlns:xlink="http://www.w3.org/1999/xlink" xml:space="preserve" onload="init(evt)">
<style type="text/css"><![CDATA[
.edge:hover path { stroke: red; }
.edge:hover polygon { stroke: red; fill: red; }
]]></style>
<script type="text/javascript"><![CDATA[
var edges = document.getElementsByTagName('g');
if (edges && edges.length) {
  for (var i=0;i<edges.length;i++) {
    if (edges[i].id.substr(0,4)=='edge') {
      edges[i].setAttribute('class','edge');
    }
  }
}
]]></script>
        <defs>
                <circle id="rim" cx="0" cy="0" r="7"/>
                <circle id="rim2" cx="0" cy="0" r="3.5"/>
                <g id="zoomPlus">
                        <use xlink:href="#rim" fill="#404040">
                                <set attributeName="fill" to="#808080" begin="zoomplus.mouseover" end="zoomplus.mouseout"/>
                        </use>
                        <path d="M-4,0h8M0,-4v8" fill="none" stroke="white" stroke-width="1.5" pointer-events="none"/>
                </g>
                <g id="zoomMin">
                        <use xlink:href="#rim" fill="#404040">
                                <set attributeName="fill" to="#808080" begin="zoomminus.mouseover" end="zoomminus.mouseout"/>
                        </use>
                        <path d="M-4,0h8" fill="none" stroke="white" stroke-width="1.5" pointer-events="none"/>
                </g>
                <g id="dirArrow">
                        <path fill="none" stroke="white" stroke-width="1.5" d="M0,-3.0v7 M-2.5,-0.5L0,-3.0L2.5,-0.5"/>
                </g>
               <g id="resetDef">
                       <use xlink:href="#rim2" fill="#404040">
                               <set attributeName="fill" to="#808080" begin="reset.mouseover" end="reset.mouseout"/>
                       </use>
               </g>
        </defs>

<script type="text/javascript">
var viewWidth = 1242;
var viewHeight = 143;
var sectionId = 'dynsection-1';
</script>
<script xlink:href="../../svgpan.js"/>
<svg id="graph" class="graph">
<g id="viewport">
<title>XMLParser.getCellParamList</title>
<polygon fill="white" stroke="none" points="-4,4 -4,-139.021 1238,-139.021 1238,4 -4,4"/>
<!-- Node1 -->
<g id="node1" class="node"><title>Node1</title>
<polygon fill="#bfbfbf" stroke="black" points="0.5,-99.1145 0.5,-118.114 149.5,-118.114 149.5,-99.1145 0.5,-99.1145"/>
<text text-anchor="middle" x="75" y="-106.114" font-family="Helvetica,sans-Serif" font-size="10.00">XMLParser.getCellParamList</text>
</g>
<!-- Node2 -->
<g id="node2" class="node"><title>Node2</title>
<g id="a_node2"><a xlink:href="../../d3/dff/class_cell_society.html#a7a6dab68551f91cc4b120faa51670bf8" target="_top" xlink:title="CellSociety.createCellArray">
<polygon fill="white" stroke="black" points="346,-99.1145 346,-118.114 490,-118.114 490,-99.1145 346,-99.1145"/>
<text text-anchor="middle" x="418" y="-106.114" font-family="Helvetica,sans-Serif" font-size="10.00">CellSociety.createCellArray</text>
</a>
</g>
</g>
<!-- Node1&#45;&gt;Node2 -->
<g id="edge1" class="edge"><title>Node1&#45;&gt;Node2</title>
<path fill="none" stroke="midnightblue" d="M159.661,-108.614C216.786,-108.614 291.653,-108.614 345.895,-108.614"/>
<polygon fill="midnightblue" stroke="midnightblue" points="159.572,-105.115 149.572,-108.614 159.572,-112.115 159.572,-105.115"/>
</g>
<!-- Node3 -->
<g id="node3" class="node"><title>Node3</title>
<g id="a_node3"><a xlink:href="../../d3/dff/class_cell_society.html#af9f22af39a97a58b26126020ca6c8844" target="_top" xlink:title="CellSociety.readNewXML">
<polygon fill="white" stroke="black" points="730,-99.1145 730,-118.114 862,-118.114 862,-99.1145 730,-99.1145"/>
<text text-anchor="middle" x="796" y="-106.114" font-family="Helvetica,sans-Serif" font-size="10.00">CellSociety.readNewXML</text>
</a>
</g>
</g>
<!-- Node1&#45;&gt;Node3 -->
<g id="edge5" class="edge"><title>Node1&#45;&gt;Node3</title>
<path fill="none" stroke="midnightblue" d="M152.898,-119.349C163.988,-120.621 175.274,-121.766 186,-122.614 403.1,-139.783 458.786,-138.279 676,-122.614 693.532,-121.35 712.456,-119.395 729.942,-117.343"/>
<polygon fill="midnightblue" stroke="midnightblue" points="153.133,-115.853 142.791,-118.15 152.309,-122.804 153.133,-115.853"/>
</g>
<!-- Node6 -->
<g id="node6" class="node"><title>Node6</title>
<g id="a_node6"><a xlink:href="../../d3/dff/class_cell_society.html#a0ff19c30a1cc433d8ea8444f6a5617f1" target="_top" xlink:title="CellSociety.updateGrid">
<polygon fill="white" stroke="black" points="186,-42.1145 186,-61.1145 310,-61.1145 310,-42.1145 186,-42.1145"/>
<text text-anchor="middle" x="248" y="-49.1145" font-family="Helvetica,sans-Serif" font-size="10.00">CellSociety.updateGrid</text>
</a>
</g>
</g>
<!-- Node1&#45;&gt;Node6 -->
<g id="edge6" class="edge"><title>Node1&#45;&gt;Node6</title>
<path fill="none" stroke="midnightblue" d="M114.376,-95.8226C145.869,-85.3247 189.768,-70.6917 218.285,-61.1861"/>
<polygon fill="midnightblue" stroke="midnightblue" points="113.002,-92.5912 104.622,-99.074 115.215,-99.232 113.002,-92.5912"/>
</g>
<!-- Node2&#45;&gt;Node3 -->
<g id="edge2" class="edge"><title>Node2&#45;&gt;Node3</title>
<path fill="none" stroke="midnightblue" d="M500.51,-108.614C569.189,-108.614 666.16,-108.614 729.784,-108.614"/>
<polygon fill="midnightblue" stroke="midnightblue" points="500.165,-105.115 490.165,-108.614 500.165,-112.115 500.165,-105.115"/>
</g>
<!-- Node4 -->
<g id="node4" class="node"><title>Node4</title>
<g id="a_node4"><a xlink:href="../../d3/dff/class_cell_society.html#a656ff46d1459fb7f86b42e3c542506ee" target="_top" xlink:title="CellSociety.configureListeners">
<polygon fill="white" stroke="black" points="916,-42.1145 916,-61.1145 1074,-61.1145 1074,-42.1145 916,-42.1145"/>
<text text-anchor="middle" x="995" y="-49.1145" font-family="Helvetica,sans-Serif" font-size="10.00">CellSociety.configureListeners</text>
</a>
</g>
</g>
<!-- Node3&#45;&gt;Node4 -->
<g id="edge3" class="edge"><title>Node3&#45;&gt;Node4</title>
<path fill="none" stroke="midnightblue" d="M852.362,-96.7263C861.628,-94.512 871.115,-92.1059 880,-89.6145 910.332,-81.1089 944.544,-69.4165 967.506,-61.2559"/>
<polygon fill="midnightblue" stroke="midnightblue" points="851.371,-93.3633 842.431,-99.0486 852.965,-100.179 851.371,-93.3633"/>
</g>
<!-- Node5 -->
<g id="node5" class="node"><title>Node5</title>
<g id="a_node5"><a xlink:href="../../d3/dff/class_cell_society.html#ac5e08680a3da358d402461bc25aa1727" target="_top" xlink:title="CellSociety.CellSociety">
<polygon fill="white" stroke="black" points="1110.5,-42.1145 1110.5,-61.1145 1233.5,-61.1145 1233.5,-42.1145 1110.5,-42.1145"/>
<text text-anchor="middle" x="1172" y="-49.1145" font-family="Helvetica,sans-Serif" font-size="10.00">CellSociety.CellSociety</text>
</a>
</g>
</g>
<!-- Node4&#45;&gt;Node5 -->
<g id="edge4" class="edge"><title>Node4&#45;&gt;Node5</title>
<path fill="none" stroke="midnightblue" d="M1084.09,-51.6145C1093.01,-51.6145 1101.92,-51.6145 1110.45,-51.6145"/>
<polygon fill="midnightblue" stroke="midnightblue" points="1084.03,-48.1146 1074.03,-51.6145 1084.03,-55.1146 1084.03,-48.1146"/>
</g>
<!-- Node6&#45;&gt;Node4 -->
<g id="edge7" class="edge"><title>Node6&#45;&gt;Node4</title>
<path fill="none" stroke="midnightblue" d="M304.391,-40.1463C414.706,-19.093 669.374,20.5654 880,-13.6145 913.155,-18.9947 949.696,-32.6375 972.252,-42.0221"/>
<polygon fill="midnightblue" stroke="midnightblue" points="303.641,-36.7264 294.487,-42.0609 304.97,-43.5992 303.641,-36.7264"/>
</g>
<!-- Node7 -->
<g id="node7" class="node"><title>Node7</title>
<g id="a_node7"><a xlink:href="../../d3/dff/class_cell_society.html#abf13a64ee79f2cb063447b499c695c58" target="_top" xlink:title="CellSociety.start">
<polygon fill="white" stroke="black" points="371.5,-42.1145 371.5,-61.1145 464.5,-61.1145 464.5,-42.1145 371.5,-42.1145"/>
<text text-anchor="middle" x="418" y="-49.1145" font-family="Helvetica,sans-Serif" font-size="10.00">CellSociety.start</text>
</a>
</g>
</g>
<!-- Node6&#45;&gt;Node7 -->
<g id="edge8" class="edge"><title>Node6&#45;&gt;Node7</title>
<path fill="none" stroke="midnightblue" d="M320.233,-51.6145C337.583,-51.6145 355.677,-51.6145 371.461,-51.6145"/>
<polygon fill="midnightblue" stroke="midnightblue" points="320.127,-48.1146 310.127,-51.6145 320.127,-55.1146 320.127,-48.1146"/>
</g>
<!-- Node8 -->
<g id="node8" class="node"><title>Node8</title>
<g id="a_node8"><a xlink:href="../../d3/dff/class_cell_society.html#adc5feda3db5472cea4e092d463681033" target="_top" xlink:title="CellSociety.reframeTimeline">
<polygon fill="white" stroke="black" points="526.5,-23.1145 526.5,-42.1145 675.5,-42.1145 675.5,-23.1145 526.5,-23.1145"/>
<text text-anchor="middle" x="601" y="-30.1145" font-family="Helvetica,sans-Serif" font-size="10.00">CellSociety.reframeTimeline</text>
</a>
</g>
</g>
<!-- Node7&#45;&gt;Node8 -->
<g id="edge9" class="edge"><title>Node7&#45;&gt;Node8</title>
<path fill="none" stroke="midnightblue" d="M475.025,-45.7334C491.195,-44.036 509.092,-42.1573 526.168,-40.3648"/>
<polygon fill="midnightblue" stroke="midnightblue" points="474.254,-42.295 464.674,-46.82 474.985,-49.2568 474.254,-42.295"/>
</g>
<!-- Node11 -->
<g id="node11" class="node"><title>Node11</title>
<g id="a_node11"><a xlink:href="../../d3/dff/class_cell_society.html#ab9e56a2a70e210e021b51e898508329b" target="_top" xlink:title="CellSociety.setupAnimation">
<polygon fill="white" stroke="black" points="528,-61.1145 528,-80.1145 674,-80.1145 674,-61.1145 528,-61.1145"/>
<text text-anchor="middle" x="601" y="-68.1145" font-family="Helvetica,sans-Serif" font-size="10.00">CellSociety.setupAnimation</text>
</a>
</g>
</g>
<!-- Node7&#45;&gt;Node11 -->
<g id="edge14" class="edge"><title>Node7&#45;&gt;Node11</title>
<path fill="none" stroke="midnightblue" d="M474.848,-57.477C491.618,-59.2374 510.257,-61.194 527.92,-63.048"/>
<polygon fill="midnightblue" stroke="midnightblue" points="474.985,-53.9722 464.674,-56.409 474.254,-60.9339 474.985,-53.9722"/>
</g>
<!-- Node9 -->
<g id="node9" class="node"><title>Node9</title>
<g id="a_node9"><a xlink:href="../../d3/dff/class_cell_society.html#a045267ba1843ca4a47891d7be73c2ac1" target="_top" xlink:title="CellSociety.decreaseFrameRate">
<polygon fill="white" stroke="black" points="712.5,-61.1145 712.5,-80.1145 879.5,-80.1145 879.5,-61.1145 712.5,-61.1145"/>
<text text-anchor="middle" x="796" y="-68.1145" font-family="Helvetica,sans-Serif" font-size="10.00">CellSociety.decreaseFrameRate</text>
</a>
</g>
</g>
<!-- Node8&#45;&gt;Node9 -->
<g id="edge10" class="edge"><title>Node8&#45;&gt;Node9</title>
<path fill="none" stroke="midnightblue" d="M660.602,-44.1526C688.129,-49.5725 720.548,-55.9555 746.648,-61.0944"/>
<polygon fill="midnightblue" stroke="midnightblue" points="661.19,-40.7013 650.702,-42.2035 659.838,-47.5695 661.19,-40.7013"/>
</g>
<!-- Node10 -->
<g id="node10" class="node"><title>Node10</title>
<g id="a_node10"><a xlink:href="../../d3/dff/class_cell_society.html#a8250bfacdaf51dabf6b9d1cafc0ce9b2" target="_top" xlink:title="CellSociety.increaseFrameRate">
<polygon fill="white" stroke="black" points="714.5,-23.1145 714.5,-42.1145 877.5,-42.1145 877.5,-23.1145 714.5,-23.1145"/>
<text text-anchor="middle" x="796" y="-30.1145" font-family="Helvetica,sans-Serif" font-size="10.00">CellSociety.increaseFrameRate</text>
</a>
</g>
</g>
<!-- Node8&#45;&gt;Node10 -->
<g id="edge12" class="edge"><title>Node8&#45;&gt;Node10</title>
<path fill="none" stroke="midnightblue" d="M685.719,-32.6145C695.198,-32.6145 704.845,-32.6145 714.285,-32.6145"/>
<polygon fill="midnightblue" stroke="midnightblue" points="685.516,-29.1146 675.516,-32.6145 685.516,-36.1146 685.516,-29.1146"/>
</g>
<!-- Node9&#45;&gt;Node4 -->
<g id="edge11" class="edge"><title>Node9&#45;&gt;Node4</title>
<path fill="none" stroke="midnightblue" d="M889.877,-61.6568C898.593,-60.8162 907.368,-59.9699 915.927,-59.1444"/>
<polygon fill="midnightblue" stroke="midnightblue" points="889.307,-58.1954 879.689,-62.6394 889.979,-65.1631 889.307,-58.1954"/>
</g>
<!-- Node10&#45;&gt;Node4 -->
<g id="edge13" class="edge"><title>Node10&#45;&gt;Node4</title>
<path fill="none" stroke="midnightblue" d="M887.842,-41.3759C897.24,-42.2823 906.733,-43.1978 915.974,-44.0891"/>
<polygon fill="midnightblue" stroke="midnightblue" points="887.986,-37.8736 877.696,-40.3973 887.314,-44.8413 887.986,-37.8736"/>
</g>
<!-- Node11&#45;&gt;Node3 -->
<g id="edge15" class="edge"><title>Node11&#45;&gt;Node3</title>
<path fill="none" stroke="midnightblue" d="M660.602,-82.1526C688.129,-87.5725 720.548,-93.9555 746.648,-99.0944"/>
<polygon fill="midnightblue" stroke="midnightblue" points="661.19,-78.7013 650.702,-80.2035 659.838,-85.5695 661.19,-78.7013"/>
</g>
</g>
</svg>
        <g id="navigator" transform="translate(0 0)" fill="#404254">
                <rect fill="#f2f5e9" fill-opacity="0.5" stroke="#606060" stroke-width=".5" x="0" y="0" width="60" height="60"/>
                <use id="zoomplus" xlink:href="#zoomPlus" x="17" y="9" onmousedown="handleZoom(evt,'in')"/>
                <use id="zoomminus" xlink:href="#zoomMin" x="42" y="9" onmousedown="handleZoom(evt,'out')"/>
                <use id="reset" xlink:href="#resetDef" x="30" y="36" onmousedown="handleReset()"/>
                <g id="arrowUp" xlink:href="#dirArrow" transform="translate(30 24)" onmousedown="handlePan(0,-1)">
                  <use xlink:href="#rim" fill="#404040">
                        <set attributeName="fill" to="#808080" begin="arrowUp.mouseover" end="arrowUp.mouseout"/>
                  </use>
                  <path fill="none" stroke="white" stroke-width="1.5" d="M0,-3.0v7 M-2.5,-0.5L0,-3.0L2.5,-0.5"/>
                </g>
                <g id="arrowRight" xlink:href="#dirArrow" transform="rotate(90) translate(36 -43)" onmousedown="handlePan(1,0)">
                  <use xlink:href="#rim" fill="#404040">
                        <set attributeName="fill" to="#808080" begin="arrowRight.mouseover" end="arrowRight.mouseout"/>
                  </use>
                  <path fill="none" stroke="white" stroke-width="1.5" d="M0,-3.0v7 M-2.5,-0.5L0,-3.0L2.5,-0.5"/>
                </g>
                <g id="arrowDown" xlink:href="#dirArrow" transform="rotate(180) translate(-30 -48)" onmousedown="handlePan(0,1)">
                  <use xlink:href="#rim" fill="#404040">
                        <set attributeName="fill" to="#808080" begin="arrowDown.mouseover" end="arrowDown.mouseout"/>
                  </use>
                  <path fill="none" stroke="white" stroke-width="1.5" d="M0,-3.0v7 M-2.5,-0.5L0,-3.0L2.5,-0.5"/>
                </g>
                <g id="arrowLeft" xlink:href="#dirArrow" transform="rotate(270) translate(-36 17)" onmousedown="handlePan(-1,0)">
                  <use xlink:href="#rim" fill="#404040">
                        <set attributeName="fill" to="#808080" begin="arrowLeft.mouseover" end="arrowLeft.mouseout"/>
                  </use>
                  <path fill="none" stroke="white" stroke-width="1.5" d="M0,-3.0v7 M-2.5,-0.5L0,-3.0L2.5,-0.5"/>
                </g>
        </g>
        <svg viewBox="0 0 15 15" width="100%" height="30px" preserveAspectRatio="xMaxYMin meet">
         <g id="arrow_out" transform="scale(0.3 0.3)">
          <a xlink:href="class_x_m_l_parser_ac4e3257aed1deb9fe950149f706fce5b_icgraph_org.svg" target="_base">
           <rect id="button" ry="5" rx="5" y="6" x="6" height="38" width="38"
                fill="#f2f5e9" fill-opacity="0.5" stroke="#606060" stroke-width="1.0"/>
           <path id="arrow"
             d="M 11.500037,31.436501 C 11.940474,20.09759 22.043105,11.32322 32.158766,21.979434 L 37.068811,17.246167 C 37.068811,17.246167 37.088388,32 37.088388,32 L 22.160133,31.978069 C 22.160133,31.978069 26.997745,27.140456 26.997745,27.140456 C 18.528582,18.264221 13.291696,25.230495 11.500037,31.436501 z"
             style="fill:#404040;"/>
          </a>
         </g>
        </svg>
</svg>
