<?xml version="1.0" encoding="UTF-8" standalone="no"?>
<!DOCTYPE svg PUBLIC "-//W3C//DTD SVG 1.1//EN"
 "http://www.w3.org/Graphics/SVG/1.1/DTD/svg11.dtd">
<!-- Generated by graphviz version 2.36.0 (20140111.2315)
 -->
<!-- Title: XMLParser.getInitParamMap Pages: 1 -->
<svg width="872pt" height="104pt"
 viewBox="0.00 0.00 872.00 104.00" xmlns="http://www.w3.org/2000/svg" xmlns:xlink="http://www.w3.org/1999/xlink">
<g id="graph0" class="graph" transform="scale(1 1) rotate(0) translate(4 100)">
<title>XMLParser.getInitParamMap</title>
<polygon fill="white" stroke="none" points="-4,4 -4,-100 868,-100 868,4 -4,4"/>
<!-- Node1 -->
<g id="node1" class="node"><title>Node1</title>
<polygon fill="#bfbfbf" stroke="black" points="0.5,-38.5 0.5,-57.5 149.5,-57.5 149.5,-38.5 0.5,-38.5"/>
<text text-anchor="middle" x="75" y="-45.5" font-family="Helvetica,sans-Serif" font-size="10.00">XMLParser.getInitParamMap</text>
</g>
<!-- Node2 -->
<g id="node2" class="node"><title>Node2</title>
<g id="a_node2"><a xlink:href="../../d3/dff/class_cell_society.html#a7a6dab68551f91cc4b120faa51670bf8" target="_top" xlink:title="CellSociety.createCellArray">
<polygon fill="white" stroke="black" points="192,-76.5 192,-95.5 336,-95.5 336,-76.5 192,-76.5"/>
<text text-anchor="middle" x="264" y="-83.5" font-family="Helvetica,sans-Serif" font-size="10.00">CellSociety.createCellArray</text>
</a>
</g>
</g>
<!-- Node1&#45;&gt;Node2 -->
<g id="edge1" class="edge"><title>Node1&#45;&gt;Node2</title>
<path fill="none" stroke="midnightblue" d="M133.131,-59.6095C159.727,-65.014 190.973,-71.3635 216.151,-76.4799"/>
<polygon fill="midnightblue" stroke="midnightblue" points="133.685,-56.1506 123.188,-57.589 132.291,-63.0104 133.685,-56.1506"/>
</g>
<!-- Node3 -->
<g id="node3" class="node"><title>Node3</title>
<g id="a_node3"><a xlink:href="../../d3/dff/class_cell_society.html#af9f22af39a97a58b26126020ca6c8844" target="_top" xlink:title="CellSociety.readNewXML">
<polygon fill="white" stroke="black" points="378,-38.5 378,-57.5 510,-57.5 510,-38.5 378,-38.5"/>
<text text-anchor="middle" x="444" y="-45.5" font-family="Helvetica,sans-Serif" font-size="10.00">CellSociety.readNewXML</text>
</a>
</g>
</g>
<!-- Node1&#45;&gt;Node3 -->
<g id="edge5" class="edge"><title>Node1&#45;&gt;Node3</title>
<path fill="none" stroke="midnightblue" d="M160.227,-48C226.402,-48 317.219,-48 377.896,-48"/>
<polygon fill="midnightblue" stroke="midnightblue" points="159.826,-44.5001 149.826,-48 159.826,-51.5001 159.826,-44.5001"/>
</g>
<!-- Node6 -->
<g id="node6" class="node"><title>Node6</title>
<g id="a_node6"><a xlink:href="../../d3/dff/class_cell_society.html#abfbf43ce46b4c82c16a2d933b6a11abf" target="_top" xlink:title="CellSociety.retrieveParserInfo">
<polygon fill="white" stroke="black" points="186.5,-0.5 186.5,-19.5 341.5,-19.5 341.5,-0.5 186.5,-0.5"/>
<text text-anchor="middle" x="264" y="-7.5" font-family="Helvetica,sans-Serif" font-size="10.00">CellSociety.retrieveParserInfo</text>
</a>
</g>
</g>
<!-- Node1&#45;&gt;Node6 -->
<g id="edge6" class="edge"><title>Node1&#45;&gt;Node6</title>
<path fill="none" stroke="midnightblue" d="M133.131,-36.3905C159.727,-30.986 190.973,-24.6365 216.151,-19.5201"/>
<polygon fill="midnightblue" stroke="midnightblue" points="132.291,-32.9896 123.188,-38.411 133.685,-39.8494 132.291,-32.9896"/>
</g>
<!-- Node2&#45;&gt;Node3 -->
<g id="edge2" class="edge"><title>Node2&#45;&gt;Node3</title>
<path fill="none" stroke="midnightblue" d="M319.716,-74.319C344.959,-68.9301 374.545,-62.6139 398.406,-57.5201"/>
<polygon fill="midnightblue" stroke="midnightblue" points="318.966,-70.9003 309.917,-76.411 320.427,-77.746 318.966,-70.9003"/>
</g>
<!-- Node4 -->
<g id="node4" class="node"><title>Node4</title>
<g id="a_node4"><a xlink:href="../../d3/dff/class_cell_society.html#a656ff46d1459fb7f86b42e3c542506ee" target="_top" xlink:title="CellSociety.configureListeners">
<polygon fill="white" stroke="black" points="546,-38.5 546,-57.5 704,-57.5 704,-38.5 546,-38.5"/>
<text text-anchor="middle" x="625" y="-45.5" font-family="Helvetica,sans-Serif" font-size="10.00">CellSociety.configureListeners</text>
</a>
</g>
</g>
<!-- Node3&#45;&gt;Node4 -->
<g id="edge3" class="edge"><title>Node3&#45;&gt;Node4</title>
<path fill="none" stroke="midnightblue" d="M520.312,-48C528.748,-48 537.355,-48 545.826,-48"/>
<polygon fill="midnightblue" stroke="midnightblue" points="520.13,-44.5001 510.129,-48 520.129,-51.5001 520.13,-44.5001"/>
</g>
<!-- Node5 -->
<g id="node5" class="node"><title>Node5</title>
<g id="a_node5"><a xlink:href="../../d3/dff/class_cell_society.html#ac5e08680a3da358d402461bc25aa1727" target="_top" xlink:title="CellSociety.CellSociety">
<polygon fill="white" stroke="black" points="740.5,-38.5 740.5,-57.5 863.5,-57.5 863.5,-38.5 740.5,-38.5"/>
<text text-anchor="middle" x="802" y="-45.5" font-family="Helvetica,sans-Serif" font-size="10.00">CellSociety.CellSociety</text>
</a>
</g>
</g>
<!-- Node4&#45;&gt;Node5 -->
<g id="edge4" class="edge"><title>Node4&#45;&gt;Node5</title>
<path fill="none" stroke="midnightblue" d="M714.087,-48C723.007,-48 731.919,-48 740.452,-48"/>
<polygon fill="midnightblue" stroke="midnightblue" points="714.032,-44.5001 704.032,-48 714.032,-51.5001 714.032,-44.5001"/>
</g>
<!-- Node6&#45;&gt;Node3 -->
<g id="edge7" class="edge"><title>Node6&#45;&gt;Node3</title>
<path fill="none" stroke="midnightblue" d="M319.716,-21.681C344.959,-27.0699 374.545,-33.3861 398.406,-38.4799"/>
<polygon fill="midnightblue" stroke="midnightblue" points="320.427,-18.254 309.917,-19.589 318.966,-25.0997 320.427,-18.254"/>
</g>
</g>
</svg>
