<?xml version="1.0" encoding="UTF-8" standalone="no"?>
<!DOCTYPE svg PUBLIC "-//W3C//DTD SVG 1.1//EN"
 "http://www.w3.org/Graphics/SVG/1.1/DTD/svg11.dtd">
<!-- Generated by graphviz version 2.36.0 (20140111.2315)
 -->
<!-- Title: XMLParser.getCellParamList Pages: 1 -->
<!--zoomable 162 -->
<svg id="main" version="1.1" xmlns="http://www.w3.org/2000/svg" xmlns:xlink="http://www.w3.org/1999/xlink" xml:space="preserve" onload="init(evt)">
<style type="text/css"><![CDATA[
.edge:hover path { stroke: red; }
.edge:hover polygon { stroke: red; fill: red; }
]]></style>
<script type="text/javascript"><![CDATA[
var edges = document.getElementsByTagName('g');
if (edges && edges.length) {
  for (var i=0;i<edges.length;i++) {
    if (edges[i].id.substr(0,4)=='edge') {
      edges[i].setAttribute('class','edge');
    }
  }
}
]]></script>
        <defs>
                <circle id="rim" cx="0" cy="0" r="7"/>
                <circle id="rim2" cx="0" cy="0" r="3.5"/>
                <g id="zoomPlus">
                        <use xlink:href="#rim" fill="#404040">
                                <set attributeName="fill" to="#808080" begin="zoomplus.mouseover" end="zoomplus.mouseout"/>
                        </use>
                        <path d="M-4,0h8M0,-4v8" fill="none" stroke="white" stroke-width="1.5" pointer-events="none"/>
                </g>
                <g id="zoomMin">
                        <use xlink:href="#rim" fill="#404040">
                                <set attributeName="fill" to="#808080" begin="zoomminus.mouseover" end="zoomminus.mouseout"/>
                        </use>
                        <path d="M-4,0h8" fill="none" stroke="white" stroke-width="1.5" pointer-events="none"/>
                </g>
                <g id="dirArrow">
                        <path fill="none" stroke="white" stroke-width="1.5" d="M0,-3.0v7 M-2.5,-0.5L0,-3.0L2.5,-0.5"/>
                </g>
               <g id="resetDef">
                       <use xlink:href="#rim2" fill="#404040">
                               <set attributeName="fill" to="#808080" begin="reset.mouseover" end="reset.mouseout"/>
                       </use>
               </g>
        </defs>

<script type="text/javascript">
var viewWidth = 1382;
var viewHeight = 162;
var sectionId = 'dynsection-1';
</script>
<script xlink:href="../../svgpan.js"/>
<svg id="graph" class="graph">
<g id="viewport">
<title>XMLParser.getCellParamList</title>
<polygon fill="white" stroke="none" points="-4,4 -4,-157.557 1378,-157.557 1378,4 -4,4"/>
<!-- Node1 -->
<g id="node1" class="node"><title>Node1</title>
<polygon fill="#bfbfbf" stroke="black" points="0.5,-87.0574 0.5,-106.057 149.5,-106.057 149.5,-87.0574 0.5,-87.0574"/>
<text text-anchor="middle" x="75" y="-94.0574" font-family="Helvetica,sans-Serif" font-size="10.00">XMLParser.getCellParamList</text>
</g>
<!-- Node2 -->
<g id="node2" class="node"><title>Node2</title>
<g id="a_node2"><a xlink:href="../../d3/dff/class_cell_society.html#a7a6dab68551f91cc4b120faa51670bf8" target="_top" xlink:title="CellSociety.createCellArray">
<polygon fill="white" stroke="black" points="356,-106.057 356,-125.057 500,-125.057 500,-106.057 356,-106.057"/>
<text text-anchor="middle" x="428" y="-113.057" font-family="Helvetica,sans-Serif" font-size="10.00">CellSociety.createCellArray</text>
</a>
</g>
</g>
<!-- Node1&#45;&gt;Node2 -->
<g id="edge1" class="edge"><title>Node1&#45;&gt;Node2</title>
<path fill="none" stroke="midnightblue" d="M159.756,-101.091C219.577,-104.329 299.182,-108.638 355.914,-111.709"/>
<polygon fill="midnightblue" stroke="midnightblue" points="159.756,-97.5862 149.581,-100.54 159.377,-104.576 159.756,-97.5862"/>
</g>
<!-- Node3 -->
<g id="node3" class="node"><title>Node3</title>
<g id="a_node3"><a xlink:href="../../d3/dff/class_cell_society.html#af9f22af39a97a58b26126020ca6c8844" target="_top" xlink:title="CellSociety.readNewXML">
<polygon fill="white" stroke="black" points="870,-106.057 870,-125.057 1002,-125.057 1002,-106.057 870,-106.057"/>
<text text-anchor="middle" x="936" y="-113.057" font-family="Helvetica,sans-Serif" font-size="10.00">CellSociety.readNewXML</text>
</a>
</g>
</g>
<!-- Node1&#45;&gt;Node3 -->
<g id="edge5" class="edge"><title>Node1&#45;&gt;Node3</title>
<path fill="none" stroke="midnightblue" d="M120.783,-108.577C187.138,-125.3 315.723,-153.557 427,-153.557 427,-153.557 427,-153.557 584,-153.557 689.578,-153.557 811.987,-136.354 880.78,-125.097"/>
<polygon fill="midnightblue" stroke="midnightblue" points="121.622,-105.179 111.067,-106.098 119.891,-111.961 121.622,-105.179"/>
</g>
<!-- Node6 -->
<g id="node6" class="node"><title>Node6</title>
<g id="a_node6"><a xlink:href="../../d3/dff/class_cell_society.html#a64ebaee33d25e0e730024e67d5582c63" target="_top" xlink:title="CellSociety.updateColors">
<polygon fill="white" stroke="black" points="186,-68.0574 186,-87.0574 320,-87.0574 320,-68.0574 186,-68.0574"/>
<text text-anchor="middle" x="253" y="-75.0574" font-family="Helvetica,sans-Serif" font-size="10.00">CellSociety.updateColors</text>
</a>
</g>
</g>
<!-- Node1&#45;&gt;Node6 -->
<g id="edge6" class="edge"><title>Node1&#45;&gt;Node6</title>
<path fill="none" stroke="midnightblue" d="M159.575,-87.5352C168.431,-86.5791 177.347,-85.6165 185.963,-84.6864"/>
<polygon fill="midnightblue" stroke="midnightblue" points="159.187,-84.0566 149.62,-88.6098 159.938,-91.0162 159.187,-84.0566"/>
</g>
<!-- Node7 -->
<g id="node7" class="node"><title>Node7</title>
<g id="a_node7"><a xlink:href="../../d3/dff/class_cell_society.html#a0ff19c30a1cc433d8ea8444f6a5617f1" target="_top" xlink:title="CellSociety.updateGrid">
<polygon fill="white" stroke="black" points="366,-30.0574 366,-49.0574 490,-49.0574 490,-30.0574 366,-30.0574"/>
<text text-anchor="middle" x="428" y="-37.0574" font-family="Helvetica,sans-Serif" font-size="10.00">CellSociety.updateGrid</text>
</a>
</g>
</g>
<!-- Node1&#45;&gt;Node7 -->
<g id="edge17" class="edge"><title>Node1&#45;&gt;Node7</title>
<path fill="none" stroke="midnightblue" d="M107.636,-83.225C129.298,-74.6976 158.9,-64.2104 186,-58.5574 246.396,-45.959 316.895,-41.5643 365.981,-40.1058"/>
<polygon fill="midnightblue" stroke="midnightblue" points="106.256,-80.0075 98.2792,-86.9807 108.863,-86.5038 106.256,-80.0075"/>
</g>
<!-- Node2&#45;&gt;Node3 -->
<g id="edge2" class="edge"><title>Node2&#45;&gt;Node3</title>
<path fill="none" stroke="midnightblue" d="M510.21,-115.557C610.172,-115.557 777.939,-115.557 869.879,-115.557"/>
<polygon fill="midnightblue" stroke="midnightblue" points="510.157,-112.058 500.157,-115.557 510.157,-119.058 510.157,-112.058"/>
</g>
<!-- Node4 -->
<g id="node4" class="node"><title>Node4</title>
<g id="a_node4"><a xlink:href="../../d3/dff/class_cell_society.html#a656ff46d1459fb7f86b42e3c542506ee" target="_top" xlink:title="CellSociety.configureListeners">
<polygon fill="white" stroke="black" points="1056,-49.0574 1056,-68.0574 1214,-68.0574 1214,-49.0574 1056,-49.0574"/>
<text text-anchor="middle" x="1135" y="-56.0574" font-family="Helvetica,sans-Serif" font-size="10.00">CellSociety.configureListeners</text>
</a>
</g>
</g>
<!-- Node3&#45;&gt;Node4 -->
<g id="edge3" class="edge"><title>Node3&#45;&gt;Node4</title>
<path fill="none" stroke="midnightblue" d="M992.362,-103.669C1001.63,-101.455 1011.12,-99.0488 1020,-96.5574 1050.33,-88.0518 1084.54,-76.3594 1107.51,-68.1988"/>
<polygon fill="midnightblue" stroke="midnightblue" points="991.371,-100.306 982.431,-105.992 992.965,-107.122 991.371,-100.306"/>
</g>
<!-- Node5 -->
<g id="node5" class="node"><title>Node5</title>
<g id="a_node5"><a xlink:href="../../d3/dff/class_cell_society.html#ac5e08680a3da358d402461bc25aa1727" target="_top" xlink:title="CellSociety.CellSociety">
<polygon fill="white" stroke="black" points="1250.5,-49.0574 1250.5,-68.0574 1373.5,-68.0574 1373.5,-49.0574 1250.5,-49.0574"/>
<text text-anchor="middle" x="1312" y="-56.0574" font-family="Helvetica,sans-Serif" font-size="10.00">CellSociety.CellSociety</text>
</a>
</g>
</g>
<!-- Node4&#45;&gt;Node5 -->
<g id="edge4" class="edge"><title>Node4&#45;&gt;Node5</title>
<path fill="none" stroke="midnightblue" d="M1224.09,-58.5574C1233.01,-58.5574 1241.92,-58.5574 1250.45,-58.5574"/>
<polygon fill="midnightblue" stroke="midnightblue" points="1224.03,-55.0575 1214.03,-58.5574 1224.03,-62.0575 1224.03,-55.0575"/>
</g>
<!-- Node6&#45;&gt;Node7 -->
<g id="edge7" class="edge"><title>Node6&#45;&gt;Node7</title>
<path fill="none" stroke="midnightblue" d="M307.505,-65.8048C331.967,-60.4316 360.571,-54.1488 383.659,-49.0775"/>
<polygon fill="midnightblue" stroke="midnightblue" points="306.671,-62.4044 297.655,-67.9684 308.173,-69.2415 306.671,-62.4044"/>
</g>
<!-- Node7&#45;&gt;Node4 -->
<g id="edge8" class="edge"><title>Node7&#45;&gt;Node4</title>
<path fill="none" stroke="midnightblue" d="M482.775,-28.1058C499.723,-25.01 518.568,-22.0931 536,-20.5574 750.281,-1.6801 807.667,13.8996 1020,-20.5574 1053.15,-25.9377 1089.7,-39.5804 1112.25,-48.965"/>
<polygon fill="midnightblue" stroke="midnightblue" points="481.676,-24.7515 472.498,-30.0457 482.974,-31.63 481.676,-24.7515"/>
</g>
<!-- Node8 -->
<g id="node8" class="node"><title>Node8</title>
<g id="a_node8"><a xlink:href="../../d3/dff/class_cell_society.html#abf13a64ee79f2cb063447b499c695c58" target="_top" xlink:title="CellSociety.start">
<polygon fill="white" stroke="black" points="536.5,-30.0574 536.5,-49.0574 629.5,-49.0574 629.5,-30.0574 536.5,-30.0574"/>
<text text-anchor="middle" x="583" y="-37.0574" font-family="Helvetica,sans-Serif" font-size="10.00">CellSociety.start</text>
</a>
</g>
</g>
<!-- Node7&#45;&gt;Node8 -->
<g id="edge9" class="edge"><title>Node7&#45;&gt;Node8</title>
<path fill="none" stroke="midnightblue" d="M500.482,-39.5574C512.624,-39.5574 524.936,-39.5574 536.186,-39.5574"/>
<polygon fill="midnightblue" stroke="midnightblue" points="500.349,-36.0575 490.349,-39.5574 500.349,-43.0575 500.349,-36.0575"/>
</g>
<!-- Node9 -->
<g id="node9" class="node"><title>Node9</title>
<g id="a_node9"><a xlink:href="../../d3/dff/class_cell_society.html#adc5feda3db5472cea4e092d463681033" target="_top" xlink:title="CellSociety.reframeTimeline">
<polygon fill="white" stroke="black" points="666.5,-30.0574 666.5,-49.0574 815.5,-49.0574 815.5,-30.0574 666.5,-30.0574"/>
<text text-anchor="middle" x="741" y="-37.0574" font-family="Helvetica,sans-Serif" font-size="10.00">CellSociety.reframeTimeline</text>
</a>
</g>
</g>
<!-- Node8&#45;&gt;Node9 -->
<g id="edge10" class="edge"><title>Node8&#45;&gt;Node9</title>
<path fill="none" stroke="midnightblue" d="M639.78,-39.5574C648.359,-39.5574 657.329,-39.5574 666.226,-39.5574"/>
<polygon fill="midnightblue" stroke="midnightblue" points="639.541,-36.0575 629.541,-39.5574 639.541,-43.0575 639.541,-36.0575"/>
</g>
<!-- Node12 -->
<g id="node12" class="node"><title>Node12</title>
<g id="a_node12"><a xlink:href="../../d3/dff/class_cell_society.html#ab9e56a2a70e210e021b51e898508329b" target="_top" xlink:title="CellSociety.setupAnimation">
<polygon fill="white" stroke="black" points="668,-68.0574 668,-87.0574 814,-87.0574 814,-68.0574 668,-68.0574"/>
<text text-anchor="middle" x="741" y="-75.0574" font-family="Helvetica,sans-Serif" font-size="10.00">CellSociety.setupAnimation</text>
</a>
</g>
</g>
<!-- Node8&#45;&gt;Node12 -->
<g id="edge15" class="edge"><title>Node8&#45;&gt;Node12</title>
<path fill="none" stroke="midnightblue" d="M633.132,-51.5254C654.993,-56.8505 680.376,-63.0336 700.918,-68.0374"/>
<polygon fill="midnightblue" stroke="midnightblue" points="633.91,-48.1126 623.365,-49.1464 632.253,-54.9138 633.91,-48.1126"/>
</g>
<!-- Node10 -->
<g id="node10" class="node"><title>Node10</title>
<g id="a_node10"><a xlink:href="../../d3/dff/class_cell_society.html#a045267ba1843ca4a47891d7be73c2ac1" target="_top" xlink:title="CellSociety.decreaseFrameRate">
<polygon fill="white" stroke="black" points="852.5,-68.0574 852.5,-87.0574 1019.5,-87.0574 1019.5,-68.0574 852.5,-68.0574"/>
<text text-anchor="middle" x="936" y="-75.0574" font-family="Helvetica,sans-Serif" font-size="10.00">CellSociety.decreaseFrameRate</text>
</a>
</g>
</g>
<!-- Node9&#45;&gt;Node10 -->
<g id="edge11" class="edge"><title>Node9&#45;&gt;Node10</title>
<path fill="none" stroke="midnightblue" d="M800.602,-51.0956C828.129,-56.5154 860.548,-62.8984 886.648,-68.0374"/>
<polygon fill="midnightblue" stroke="midnightblue" points="801.19,-47.6443 790.702,-49.1464 799.838,-54.5124 801.19,-47.6443"/>
</g>
<!-- Node11 -->
<g id="node11" class="node"><title>Node11</title>
<g id="a_node11"><a xlink:href="../../d3/dff/class_cell_society.html#a8250bfacdaf51dabf6b9d1cafc0ce9b2" target="_top" xlink:title="CellSociety.increaseFrameRate">
<polygon fill="white" stroke="black" points="854.5,-30.0574 854.5,-49.0574 1017.5,-49.0574 1017.5,-30.0574 854.5,-30.0574"/>
<text text-anchor="middle" x="936" y="-37.0574" font-family="Helvetica,sans-Serif" font-size="10.00">CellSociety.increaseFrameRate</text>
</a>
</g>
</g>
<!-- Node9&#45;&gt;Node11 -->
<g id="edge13" class="edge"><title>Node9&#45;&gt;Node11</title>
<path fill="none" stroke="midnightblue" d="M825.719,-39.5574C835.198,-39.5574 844.845,-39.5574 854.285,-39.5574"/>
<polygon fill="midnightblue" stroke="midnightblue" points="825.516,-36.0575 815.516,-39.5574 825.516,-43.0575 825.516,-36.0575"/>
</g>
<!-- Node10&#45;&gt;Node4 -->
<g id="edge12" class="edge"><title>Node10&#45;&gt;Node4</title>
<path fill="none" stroke="midnightblue" d="M1029.88,-68.5997C1038.59,-67.7591 1047.37,-66.9128 1055.93,-66.0873"/>
<polygon fill="midnightblue" stroke="midnightblue" points="1029.31,-65.1384 1019.69,-69.5823 1029.98,-72.106 1029.31,-65.1384"/>
</g>
<!-- Node11&#45;&gt;Node4 -->
<g id="edge14" class="edge"><title>Node11&#45;&gt;Node4</title>
<path fill="none" stroke="midnightblue" d="M1027.84,-48.3188C1037.24,-49.2253 1046.73,-50.1408 1055.97,-51.032"/>
<polygon fill="midnightblue" stroke="midnightblue" points="1027.99,-44.8165 1017.7,-47.3403 1027.31,-51.7842 1027.99,-44.8165"/>
</g>
<!-- Node12&#45;&gt;Node3 -->
<g id="edge16" class="edge"><title>Node12&#45;&gt;Node3</title>
<path fill="none" stroke="midnightblue" d="M800.602,-89.0956C828.129,-94.5154 860.548,-100.898 886.648,-106.037"/>
<polygon fill="midnightblue" stroke="midnightblue" points="801.19,-85.6443 790.702,-87.1464 799.838,-92.5124 801.19,-85.6443"/>
</g>
</g>
</svg>
        <g id="navigator" transform="translate(0 0)" fill="#404254">
                <rect fill="#f2f5e9" fill-opacity="0.5" stroke="#606060" stroke-width=".5" x="0" y="0" width="60" height="60"/>
                <use id="zoomplus" xlink:href="#zoomPlus" x="17" y="9" onmousedown="handleZoom(evt,'in')"/>
                <use id="zoomminus" xlink:href="#zoomMin" x="42" y="9" onmousedown="handleZoom(evt,'out')"/>
                <use id="reset" xlink:href="#resetDef" x="30" y="36" onmousedown="handleReset()"/>
                <g id="arrowUp" xlink:href="#dirArrow" transform="translate(30 24)" onmousedown="handlePan(0,-1)">
                  <use xlink:href="#rim" fill="#404040">
                        <set attributeName="fill" to="#808080" begin="arrowUp.mouseover" end="arrowUp.mouseout"/>
                  </use>
                  <path fill="none" stroke="white" stroke-width="1.5" d="M0,-3.0v7 M-2.5,-0.5L0,-3.0L2.5,-0.5"/>
                </g>
                <g id="arrowRight" xlink:href="#dirArrow" transform="rotate(90) translate(36 -43)" onmousedown="handlePan(1,0)">
                  <use xlink:href="#rim" fill="#404040">
                        <set attributeName="fill" to="#808080" begin="arrowRight.mouseover" end="arrowRight.mouseout"/>
                  </use>
                  <path fill="none" stroke="white" stroke-width="1.5" d="M0,-3.0v7 M-2.5,-0.5L0,-3.0L2.5,-0.5"/>
                </g>
                <g id="arrowDown" xlink:href="#dirArrow" transform="rotate(180) translate(-30 -48)" onmousedown="handlePan(0,1)">
                  <use xlink:href="#rim" fill="#404040">
                        <set attributeName="fill" to="#808080" begin="arrowDown.mouseover" end="arrowDown.mouseout"/>
                  </use>
                  <path fill="none" stroke="white" stroke-width="1.5" d="M0,-3.0v7 M-2.5,-0.5L0,-3.0L2.5,-0.5"/>
                </g>
                <g id="arrowLeft" xlink:href="#dirArrow" transform="rotate(270) translate(-36 17)" onmousedown="handlePan(-1,0)">
                  <use xlink:href="#rim" fill="#404040">
                        <set attributeName="fill" to="#808080" begin="arrowLeft.mouseover" end="arrowLeft.mouseout"/>
                  </use>
                  <path fill="none" stroke="white" stroke-width="1.5" d="M0,-3.0v7 M-2.5,-0.5L0,-3.0L2.5,-0.5"/>
                </g>
        </g>
        <svg viewBox="0 0 15 15" width="100%" height="30px" preserveAspectRatio="xMaxYMin meet">
         <g id="arrow_out" transform="scale(0.3 0.3)">
          <a xlink:href="class_x_m_l_parser_ac4e3257aed1deb9fe950149f706fce5b_icgraph_org.svg" target="_base">
           <rect id="button" ry="5" rx="5" y="6" x="6" height="38" width="38"
                fill="#f2f5e9" fill-opacity="0.5" stroke="#606060" stroke-width="1.0"/>
           <path id="arrow"
             d="M 11.500037,31.436501 C 11.940474,20.09759 22.043105,11.32322 32.158766,21.979434 L 37.068811,17.246167 C 37.068811,17.246167 37.088388,32 37.088388,32 L 22.160133,31.978069 C 22.160133,31.978069 26.997745,27.140456 26.997745,27.140456 C 18.528582,18.264221 13.291696,25.230495 11.500037,31.436501 z"
             style="fill:#404040;"/>
          </a>
         </g>
        </svg>
</svg>
