<?xml version="1.0" encoding="UTF-8" standalone="no"?>
<!DOCTYPE svg PUBLIC "-//W3C//DTD SVG 1.1//EN"
 "http://www.w3.org/Graphics/SVG/1.1/DTD/svg11.dtd">
<!-- Generated by graphviz version 2.36.0 (20140111.2315)
 -->
<!-- Title: ComplexController.runOneSim Pages: 1 -->
<svg width="482pt" height="154pt"
 viewBox="0.00 0.00 482.00 154.00" xmlns="http://www.w3.org/2000/svg" xmlns:xlink="http://www.w3.org/1999/xlink">
<g id="graph0" class="graph" transform="scale(1 1) rotate(0) translate(4 150)">
<title>ComplexController.runOneSim</title>
<polygon fill="white" stroke="none" points="-4,4 -4,-150 478,-150 478,4 -4,4"/>
<!-- Node1 -->
<g id="node1" class="node"><title>Node1</title>
<polygon fill="#bfbfbf" stroke="black" points="0.5,-66.5 0.5,-85.5 161.5,-85.5 161.5,-66.5 0.5,-66.5"/>
<text text-anchor="middle" x="81" y="-73.5" font-family="Helvetica,sans-Serif" font-size="10.00">ComplexController.runOneSim</text>
</g>
<!-- Node2 -->
<g id="node2" class="node"><title>Node2</title>
<g id="a_node2"><a xlink:href="../../de/d92/class_complex_controller.html#ac2c960c31d7770310520c4a4bb304eb5" target="_top" xlink:title="ComplexController.cellUpdate">
<polygon fill="white" stroke="black" points="201,-126.5 201,-145.5 359,-145.5 359,-126.5 201,-126.5"/>
<text text-anchor="middle" x="280" y="-133.5" font-family="Helvetica,sans-Serif" font-size="10.00">ComplexController.cellUpdate</text>
</a>
</g>
</g>
<!-- Node1&#45;&gt;Node2 -->
<g id="edge1" class="edge"><title>Node1&#45;&gt;Node2</title>
<path fill="none" stroke="midnightblue" d="M106.635,-85.5911C129.943,-94.4542 166.024,-107.629 198,-117 206.46,-119.479 215.489,-121.856 224.337,-124.039"/>
<polygon fill="midnightblue" stroke="midnightblue" points="223.666,-127.477 234.208,-126.415 225.305,-120.672 223.666,-127.477"/>
</g>
<!-- Node3 -->
<g id="node3" class="node"><title>Node3</title>
<g id="a_node3"><a xlink:href="../../d8/d87/class_controller.html#a2d1d78c34f5551304c3e0f2295766afb" target="_top" xlink:title="Controller.contains">
<polygon fill="white" stroke="black" points="227,-88.5 227,-107.5 333,-107.5 333,-88.5 227,-88.5"/>
<text text-anchor="middle" x="280" y="-95.5" font-family="Helvetica,sans-Serif" font-size="10.00">Controller.contains</text>
</a>
</g>
</g>
<!-- Node1&#45;&gt;Node3 -->
<g id="edge2" class="edge"><title>Node1&#45;&gt;Node3</title>
<path fill="none" stroke="midnightblue" d="M161.56,-84.8848C179.949,-86.9384 199.253,-89.0942 216.776,-91.0512"/>
<polygon fill="midnightblue" stroke="midnightblue" points="216.541,-94.5466 226.868,-92.1782 217.318,-87.5898 216.541,-94.5466"/>
</g>
<!-- Node4 -->
<g id="node4" class="node"><title>Node4</title>
<g id="a_node4"><a xlink:href="../../de/d92/class_complex_controller.html#ae3e2ab6b8c7d3747f9aaa8f8d834094b" target="_top" xlink:title="ComplexController.coordinates\lTriage">
<polygon fill="white" stroke="black" points="198,-39 198,-69 362,-69 362,-39 198,-39"/>
<text text-anchor="start" x="206" y="-57" font-family="Helvetica,sans-Serif" font-size="10.00">ComplexController.coordinates</text>
<text text-anchor="middle" x="280" y="-46" font-family="Helvetica,sans-Serif" font-size="10.00">Triage</text>
</a>
</g>
</g>
<!-- Node1&#45;&gt;Node4 -->
<g id="edge3" class="edge"><title>Node1&#45;&gt;Node4</title>
<path fill="none" stroke="midnightblue" d="M161.56,-67.1152C170.156,-66.1552 178.952,-65.1728 187.673,-64.1989"/>
<polygon fill="midnightblue" stroke="midnightblue" points="188.31,-67.6497 197.86,-63.0614 187.533,-60.6929 188.31,-67.6497"/>
</g>
<!-- Node6 -->
<g id="node6" class="node"><title>Node6</title>
<g id="a_node6"><a xlink:href="../../de/d92/class_complex_controller.html#a55a323d8a795ebdbfb2714d63defba78" target="_top" xlink:title="ComplexController.typeTriage">
<polygon fill="white" stroke="black" points="202,-0.5 202,-19.5 358,-19.5 358,-0.5 202,-0.5"/>
<text text-anchor="middle" x="280" y="-7.5" font-family="Helvetica,sans-Serif" font-size="10.00">ComplexController.typeTriage</text>
</a>
</g>
</g>
<!-- Node1&#45;&gt;Node6 -->
<g id="edge5" class="edge"><title>Node1&#45;&gt;Node6</title>
<path fill="none" stroke="midnightblue" d="M103.488,-66.4609C126.537,-56.471 164.368,-40.7659 198,-30 206.915,-27.1462 216.491,-24.4587 225.826,-22.0354"/>
<polygon fill="midnightblue" stroke="midnightblue" points="226.978,-25.3544 235.818,-19.5142 225.266,-18.5671 226.978,-25.3544"/>
</g>
<!-- Node5 -->
<g id="node5" class="node"><title>Node5</title>
<g id="a_node5"><a xlink:href="../../dd/d11/class_cell.html#a7f8d2520a26a1376a44372149e561f6b" target="_top" xlink:title="Cell.toString">
<polygon fill="white" stroke="black" points="398.5,-44.5 398.5,-63.5 473.5,-63.5 473.5,-44.5 398.5,-44.5"/>
<text text-anchor="middle" x="436" y="-51.5" font-family="Helvetica,sans-Serif" font-size="10.00">Cell.toString</text>
</a>
</g>
</g>
<!-- Node4&#45;&gt;Node5 -->
<g id="edge4" class="edge"><title>Node4&#45;&gt;Node5</title>
<path fill="none" stroke="midnightblue" d="M362.059,-54C371.026,-54 379.92,-54 388.251,-54"/>
<polygon fill="midnightblue" stroke="midnightblue" points="388.468,-57.5001 398.468,-54 388.468,-50.5001 388.468,-57.5001"/>
</g>
</g>
</svg>
