<?xml version="1.0" encoding="UTF-8" standalone="no"?>
<!DOCTYPE svg PUBLIC "-//W3C//DTD SVG 1.1//EN"
 "http://www.w3.org/Graphics/SVG/1.1/DTD/svg11.dtd">
<!-- Generated by graphviz version 2.36.0 (20140111.2315)
 -->
<!-- Title: HalfNeighbor Pages: 1 -->
<svg width="155pt" height="96pt"
 viewBox="0.00 0.00 155.00 96.00" xmlns="http://www.w3.org/2000/svg" xmlns:xlink="http://www.w3.org/1999/xlink">
<g id="graph0" class="graph" transform="scale(1 1) rotate(0) translate(4 92)">
<title>HalfNeighbor</title>
<polygon fill="white" stroke="none" points="-4,4 -4,-92 151,-92 151,4 -4,4"/>
<!-- Node1 -->
<g id="node1" class="node"><title>Node1</title>
<polygon fill="#bfbfbf" stroke="black" points="29.5,-0.5 29.5,-19.5 108.5,-19.5 108.5,-0.5 29.5,-0.5"/>
<text text-anchor="middle" x="69" y="-7.5" font-family="Helvetica,sans-Serif" font-size="10.00">HalfNeighbor</text>
</g>
<!-- Node2 -->
<g id="node2" class="node"><title>Node2</title>
<g id="a_node2"><a xlink:href="../../dd/ddd/class_neighbor.html" target="_top" xlink:title="Neighbor">
<polygon fill="white" stroke="black" points="0,-68.5 0,-87.5 60,-87.5 60,-68.5 0,-68.5"/>
<text text-anchor="middle" x="30" y="-75.5" font-family="Helvetica,sans-Serif" font-size="10.00">Neighbor</text>
</a>
</g>
</g>
<!-- Node2&#45;&gt;Node1 -->
<g id="edge1" class="edge"><title>Node2&#45;&gt;Node1</title>
<path fill="none" stroke="midnightblue" d="M40.3037,-59.563C47.8564,-46.7815 57.7964,-29.9599 63.7757,-19.8411"/>
<polygon fill="midnightblue" stroke="midnightblue" points="37.1727,-57.9818 35.0986,-68.3717 43.1992,-61.5429 37.1727,-57.9818"/>
</g>
<!-- Node3 -->
<g id="node3" class="node"><title>Node3</title>
<g id="a_node3"><a xlink:href="../../d5/dda/class_boundary.html" target="_top" xlink:title="Boundary">
<polygon fill="white" stroke="black" points="78,-68.5 78,-87.5 140,-87.5 140,-68.5 78,-68.5"/>
<text text-anchor="middle" x="109" y="-75.5" font-family="Helvetica,sans-Serif" font-size="10.00">Boundary</text>
</a>
</g>
</g>
<!-- Node3&#45;&gt;Node1 -->
<g id="edge2" class="edge"><title>Node3&#45;&gt;Node1</title>
<path fill="none" stroke="#9a32cd" stroke-dasharray="5,2" d="M98.4321,-59.563C90.6857,-46.7815 80.4909,-29.9599 74.3583,-19.8411"/>
<polygon fill="#9a32cd" stroke="#9a32cd" points="95.5944,-61.6337 103.771,-68.3717 101.581,-58.0056 95.5944,-61.6337"/>
<text text-anchor="middle" x="119.5" y="-41.5" font-family="Helvetica,sans-Serif" font-size="10.00"> myBounds</text>
</g>
</g>
</svg>
