<?xml version="1.0" encoding="UTF-8" standalone="no"?>
<!DOCTYPE svg PUBLIC "-//W3C//DTD SVG 1.1//EN"
 "http://www.w3.org/Graphics/SVG/1.1/DTD/svg11.dtd">
<!-- Generated by graphviz version 2.36.0 (20140111.2315)
 -->
<!-- Title: GridData.getList Pages: 1 -->
<svg width="866pt" height="47pt"
 viewBox="0.00 0.00 866.00 47.00" xmlns="http://www.w3.org/2000/svg" xmlns:xlink="http://www.w3.org/1999/xlink">
<g id="graph0" class="graph" transform="scale(1 1) rotate(0) translate(4 43)">
<title>GridData.getList</title>
<polygon fill="white" stroke="none" points="-4,4 -4,-43 862,-43 862,4 -4,4"/>
<!-- Node1 -->
<g id="node1" class="node"><title>Node1</title>
<polygon fill="#bfbfbf" stroke="black" points="0.5,-0.5 0.5,-19.5 95.5,-19.5 95.5,-0.5 0.5,-0.5"/>
<text text-anchor="middle" x="48" y="-7.5" font-family="Helvetica,sans-Serif" font-size="10.00">GridData.getList</text>
</g>
<!-- Node2 -->
<g id="node2" class="node"><title>Node2</title>
<g id="a_node2"><a xlink:href="../../dc/da7/class_wator_controller.html#a7b71e69d99808906a02cc6689d5e8c15" target="_top" xlink:title="WatorController.getNeighbors">
<polygon fill="white" stroke="black" points="132.5,-19.5 132.5,-38.5 289.5,-38.5 289.5,-19.5 132.5,-19.5"/>
<text text-anchor="middle" x="211" y="-26.5" font-family="Helvetica,sans-Serif" font-size="10.00">WatorController.getNeighbors</text>
</a>
</g>
</g>
<!-- Node1&#45;&gt;Node2 -->
<g id="edge1" class="edge"><title>Node1&#45;&gt;Node2</title>
<path fill="none" stroke="midnightblue" d="M105.526,-16.6708C114.192,-17.6935 123.266,-18.7643 132.293,-19.8296"/>
<polygon fill="midnightblue" stroke="midnightblue" points="105.909,-13.1918 95.5679,-15.4956 105.089,-20.1435 105.909,-13.1918"/>
</g>
<!-- Node4 -->
<g id="node4" class="node"><title>Node4</title>
<g id="a_node4"><a xlink:href="../../dc/da7/class_wator_controller.html#ae00870133a4b1cfbfaeecf11ffd7b650" target="_top" xlink:title="WatorController.manipulateCell">
<polygon fill="white" stroke="black" points="514,-0.5 514,-19.5 678,-19.5 678,-0.5 514,-0.5"/>
<text text-anchor="middle" x="596" y="-7.5" font-family="Helvetica,sans-Serif" font-size="10.00">WatorController.manipulateCell</text>
</a>
</g>
</g>
<!-- Node1&#45;&gt;Node4 -->
<g id="edge5" class="edge"><title>Node1&#45;&gt;Node4</title>
<path fill="none" stroke="midnightblue" d="M105.766,-10C202.985,-10 401.674,-10 513.627,-10"/>
<polygon fill="midnightblue" stroke="midnightblue" points="105.552,-6.5001 95.5517,-10 105.552,-13.5001 105.552,-6.5001"/>
</g>
<!-- Node3 -->
<g id="node3" class="node"><title>Node3</title>
<g id="a_node3"><a xlink:href="../../dc/da7/class_wator_controller.html#a14e97f15d6937c3667feb85a2b5d896e" target="_top" xlink:title="WatorController.makeEligible">
<polygon fill="white" stroke="black" points="326,-19.5 326,-38.5 478,-38.5 478,-19.5 326,-19.5"/>
<text text-anchor="middle" x="402" y="-26.5" font-family="Helvetica,sans-Serif" font-size="10.00">WatorController.makeEligible</text>
</a>
</g>
</g>
<!-- Node2&#45;&gt;Node3 -->
<g id="edge2" class="edge"><title>Node2&#45;&gt;Node3</title>
<path fill="none" stroke="midnightblue" d="M299.812,-29C308.478,-29 317.22,-29 325.743,-29"/>
<polygon fill="midnightblue" stroke="midnightblue" points="299.692,-25.5001 289.692,-29 299.692,-32.5001 299.692,-25.5001"/>
</g>
<!-- Node3&#45;&gt;Node4 -->
<g id="edge3" class="edge"><title>Node3&#45;&gt;Node4</title>
<path fill="none" stroke="midnightblue" d="M488.084,-20.5802C496.687,-19.7289 505.408,-18.8659 513.966,-18.019"/>
<polygon fill="midnightblue" stroke="midnightblue" points="487.664,-17.1046 478.057,-21.5725 488.353,-24.0706 487.664,-17.1046"/>
</g>
<!-- Node5 -->
<g id="node5" class="node"><title>Node5</title>
<g id="a_node5"><a xlink:href="../../dc/da7/class_wator_controller.html#aff090131b0a6ebc6dc7a095a3dc2ea36" target="_top" xlink:title="WatorController.cellUpdate">
<polygon fill="white" stroke="black" points="714.5,-0.5 714.5,-19.5 857.5,-19.5 857.5,-0.5 714.5,-0.5"/>
<text text-anchor="middle" x="786" y="-7.5" font-family="Helvetica,sans-Serif" font-size="10.00">WatorController.cellUpdate</text>
</a>
</g>
</g>
<!-- Node4&#45;&gt;Node5 -->
<g id="edge4" class="edge"><title>Node4&#45;&gt;Node5</title>
<path fill="none" stroke="midnightblue" d="M688.289,-10C697.002,-10 705.746,-10 714.222,-10"/>
<polygon fill="midnightblue" stroke="midnightblue" points="688.093,-6.5001 678.093,-10 688.093,-13.5001 688.093,-6.5001"/>
</g>
</g>
</svg>
