<?xml version="1.0" encoding="UTF-8" standalone="no"?>
<!DOCTYPE svg PUBLIC "-//W3C//DTD SVG 1.1//EN"
 "http://www.w3.org/Graphics/SVG/1.1/DTD/svg11.dtd">
<!-- Generated by graphviz version 2.36.0 (20140111.2315)
 -->
<!-- Title: GridData.getRow Pages: 1 -->
<!--zoomable 163 -->
<svg id="main" version="1.1" xmlns="http://www.w3.org/2000/svg" xmlns:xlink="http://www.w3.org/1999/xlink" xml:space="preserve" onload="init(evt)">
<style type="text/css"><![CDATA[
.edge:hover path { stroke: red; }
.edge:hover polygon { stroke: red; fill: red; }
]]></style>
<script type="text/javascript"><![CDATA[
var edges = document.getElementsByTagName('g');
if (edges && edges.length) {
  for (var i=0;i<edges.length;i++) {
    if (edges[i].id.substr(0,4)=='edge') {
      edges[i].setAttribute('class','edge');
    }
  }
}
]]></script>
        <defs>
                <circle id="rim" cx="0" cy="0" r="7"/>
                <circle id="rim2" cx="0" cy="0" r="3.5"/>
                <g id="zoomPlus">
                        <use xlink:href="#rim" fill="#404040">
                                <set attributeName="fill" to="#808080" begin="zoomplus.mouseover" end="zoomplus.mouseout"/>
                        </use>
                        <path d="M-4,0h8M0,-4v8" fill="none" stroke="white" stroke-width="1.5" pointer-events="none"/>
                </g>
                <g id="zoomMin">
                        <use xlink:href="#rim" fill="#404040">
                                <set attributeName="fill" to="#808080" begin="zoomminus.mouseover" end="zoomminus.mouseout"/>
                        </use>
                        <path d="M-4,0h8" fill="none" stroke="white" stroke-width="1.5" pointer-events="none"/>
                </g>
                <g id="dirArrow">
                        <path fill="none" stroke="white" stroke-width="1.5" d="M0,-3.0v7 M-2.5,-0.5L0,-3.0L2.5,-0.5"/>
                </g>
               <g id="resetDef">
                       <use xlink:href="#rim2" fill="#404040">
                               <set attributeName="fill" to="#808080" begin="reset.mouseover" end="reset.mouseout"/>
                       </use>
               </g>
        </defs>

<script type="text/javascript">
var viewWidth = 876;
var viewHeight = 163;
var sectionId = 'dynsection-7';
</script>
<script xlink:href="../../svgpan.js"/>
<svg id="graph" class="graph">
<g id="viewport">
<title>GridData.getRow</title>
<polygon fill="white" stroke="none" points="-4,4 -4,-158.813 872,-158.813 872,4 -4,4"/>
<!-- Node1 -->
<g id="node1" class="node"><title>Node1</title>
<polygon fill="#bfbfbf" stroke="black" points="0,-75.3495 0,-94.3495 96,-94.3495 96,-75.3495 0,-75.3495"/>
<text text-anchor="middle" x="48" y="-82.3495" font-family="Helvetica,sans-Serif" font-size="10.00">GridData.getRow</text>
</g>
<!-- Node2 -->
<g id="node2" class="node"><title>Node2</title>
<g id="a_node2"><a xlink:href="../../db/dfe/class_agent_cell.html#a514c16390ad4ab5393ee6044baa360ca" target="_top" xlink:title="AgentCell.cellSwap">
<polygon fill="white" stroke="black" points="353.5,-113.35 353.5,-132.35 460.5,-132.35 460.5,-113.35 353.5,-113.35"/>
<text text-anchor="middle" x="407" y="-120.35" font-family="Helvetica,sans-Serif" font-size="10.00">AgentCell.cellSwap</text>
</a>
</g>
</g>
<!-- Node1&#45;&gt;Node2 -->
<g id="edge1" class="edge"><title>Node1&#45;&gt;Node2</title>
<path fill="none" stroke="midnightblue" d="M66.4393,-101.563C82.161,-115.387 106.644,-133.981 132,-141.85 216.252,-167.994 321.825,-146.429 373.904,-132.456"/>
<polygon fill="midnightblue" stroke="midnightblue" points="68.4057,-98.6198 58.6565,-94.4721 63.6913,-103.794 68.4057,-98.6198"/>
</g>
<!-- Node4 -->
<g id="node4" class="node"><title>Node4</title>
<g id="a_node4"><a xlink:href="../../db/dfe/class_agent_cell.html#af7a5012dedd1cec2dd1df0ff8995a80d" target="_top" xlink:title="AgentCell.chooseNewLocation">
<polygon fill="white" stroke="black" points="326.5,-75.3495 326.5,-94.3495 487.5,-94.3495 487.5,-75.3495 326.5,-75.3495"/>
<text text-anchor="middle" x="407" y="-82.3495" font-family="Helvetica,sans-Serif" font-size="10.00">AgentCell.chooseNewLocation</text>
</a>
</g>
</g>
<!-- Node1&#45;&gt;Node4 -->
<g id="edge3" class="edge"><title>Node1&#45;&gt;Node4</title>
<path fill="none" stroke="midnightblue" d="M106.391,-84.8495C165.985,-84.8495 259.662,-84.8495 326.395,-84.8495"/>
<polygon fill="midnightblue" stroke="midnightblue" points="106.039,-81.3496 96.0386,-84.8495 106.039,-88.3496 106.039,-81.3496"/>
</g>
<!-- Node5 -->
<g id="node5" class="node"><title>Node5</title>
<g id="a_node5"><a xlink:href="../../dc/da7/class_wator_controller.html#a7b71e69d99808906a02cc6689d5e8c15" target="_top" xlink:title="WatorController.getNeighbors">
<polygon fill="white" stroke="black" points="132.5,-37.3495 132.5,-56.3495 289.5,-56.3495 289.5,-37.3495 132.5,-37.3495"/>
<text text-anchor="middle" x="211" y="-44.3495" font-family="Helvetica,sans-Serif" font-size="10.00">WatorController.getNeighbors</text>
</a>
</g>
</g>
<!-- Node1&#45;&gt;Node5 -->
<g id="edge5" class="edge"><title>Node1&#45;&gt;Node5</title>
<path fill="none" stroke="midnightblue" d="M99.4018,-72.9534C122.032,-67.6121 148.37,-61.3958 169.665,-56.3696"/>
<polygon fill="midnightblue" stroke="midnightblue" points="98.5557,-69.5569 89.6271,-75.2605 100.164,-76.3697 98.5557,-69.5569"/>
</g>
<!-- Node7 -->
<g id="node7" class="node"><title>Node7</title>
<g id="a_node7"><a xlink:href="../../dc/da7/class_wator_controller.html#ae00870133a4b1cfbfaeecf11ffd7b650" target="_top" xlink:title="WatorController.manipulateCell">
<polygon fill="white" stroke="black" points="524,-18.3495 524,-37.3495 688,-37.3495 688,-18.3495 524,-18.3495"/>
<text text-anchor="middle" x="606" y="-25.3495" font-family="Helvetica,sans-Serif" font-size="10.00">WatorController.manipulateCell</text>
</a>
</g>
</g>
<!-- Node1&#45;&gt;Node7 -->
<g id="edge9" class="edge"><title>Node1&#45;&gt;Node7</title>
<path fill="none" stroke="midnightblue" d="M66.4393,-68.1359C82.161,-54.3117 106.644,-35.7176 132,-27.8495 280.034,18.0869 466.907,-3.71493 554.873,-18.3395"/>
<polygon fill="midnightblue" stroke="midnightblue" points="63.6913,-65.9048 58.6565,-75.2269 68.4057,-71.0792 63.6913,-65.9048"/>
</g>
<!-- Node9 -->
<g id="node9" class="node"><title>Node9</title>
<g id="a_node9"><a xlink:href="../../db/dfe/class_agent_cell.html#a2557ff9109587534cddc4f31fe16fdca" target="_top" xlink:title="AgentCell.sameLocation">
<polygon fill="white" stroke="black" points="144.5,-113.35 144.5,-132.35 277.5,-132.35 277.5,-113.35 144.5,-113.35"/>
<text text-anchor="middle" x="211" y="-120.35" font-family="Helvetica,sans-Serif" font-size="10.00">AgentCell.sameLocation</text>
</a>
</g>
</g>
<!-- Node1&#45;&gt;Node9 -->
<g id="edge10" class="edge"><title>Node1&#45;&gt;Node9</title>
<path fill="none" stroke="midnightblue" d="M99.4018,-96.7456C122.032,-102.087 148.37,-108.303 169.665,-113.329"/>
<polygon fill="midnightblue" stroke="midnightblue" points="100.164,-93.3293 89.6271,-94.4385 98.5557,-100.142 100.164,-93.3293"/>
</g>
<!-- Node3 -->
<g id="node3" class="node"><title>Node3</title>
<g id="a_node3"><a xlink:href="../../db/dfe/class_agent_cell.html#a5f787fd7f5bc2db97f956fc36e2e4d91" target="_top" xlink:title="AgentCell.ageOneChronon">
<polygon fill="white" stroke="black" points="534.5,-94.3495 534.5,-113.35 677.5,-113.35 677.5,-94.3495 534.5,-94.3495"/>
<text text-anchor="middle" x="606" y="-101.35" font-family="Helvetica,sans-Serif" font-size="10.00">AgentCell.ageOneChronon</text>
</a>
</g>
</g>
<!-- Node2&#45;&gt;Node3 -->
<g id="edge2" class="edge"><title>Node2&#45;&gt;Node3</title>
<path fill="none" stroke="midnightblue" d="M470.611,-116.811C490.932,-114.851 513.614,-112.663 534.471,-110.652"/>
<polygon fill="midnightblue" stroke="midnightblue" points="470.151,-113.339 460.534,-117.783 470.823,-120.307 470.151,-113.339"/>
</g>
<!-- Node4&#45;&gt;Node3 -->
<g id="edge4" class="edge"><title>Node4&#45;&gt;Node3</title>
<path fill="none" stroke="midnightblue" d="M497.797,-93.5102C510.056,-94.6925 522.496,-95.8922 534.349,-97.0355"/>
<polygon fill="midnightblue" stroke="midnightblue" points="497.849,-89.999 487.56,-92.5228 497.177,-96.9667 497.849,-89.999"/>
</g>
<!-- Node6 -->
<g id="node6" class="node"><title>Node6</title>
<g id="a_node6"><a xlink:href="../../dc/da7/class_wator_controller.html#a14e97f15d6937c3667feb85a2b5d896e" target="_top" xlink:title="WatorController.makeEligible">
<polygon fill="white" stroke="black" points="331,-37.3495 331,-56.3495 483,-56.3495 483,-37.3495 331,-37.3495"/>
<text text-anchor="middle" x="407" y="-44.3495" font-family="Helvetica,sans-Serif" font-size="10.00">WatorController.makeEligible</text>
</a>
</g>
</g>
<!-- Node5&#45;&gt;Node6 -->
<g id="edge6" class="edge"><title>Node5&#45;&gt;Node6</title>
<path fill="none" stroke="midnightblue" d="M299.804,-46.8495C310.162,-46.8495 320.661,-46.8495 330.824,-46.8495"/>
<polygon fill="midnightblue" stroke="midnightblue" points="299.51,-43.3496 289.51,-46.8495 299.51,-50.3496 299.51,-43.3496"/>
</g>
<!-- Node6&#45;&gt;Node7 -->
<g id="edge7" class="edge"><title>Node6&#45;&gt;Node7</title>
<path fill="none" stroke="midnightblue" d="M493.168,-38.6353C503.379,-37.6505 513.784,-36.647 523.934,-35.668"/>
<polygon fill="midnightblue" stroke="midnightblue" points="492.657,-35.1683 483.039,-39.6122 493.329,-42.136 492.657,-35.1683"/>
</g>
<!-- Node8 -->
<g id="node8" class="node"><title>Node8</title>
<g id="a_node8"><a xlink:href="../../dc/da7/class_wator_controller.html#aff090131b0a6ebc6dc7a095a3dc2ea36" target="_top" xlink:title="WatorController.cellUpdate">
<polygon fill="white" stroke="black" points="724.5,-18.3495 724.5,-37.3495 867.5,-37.3495 867.5,-18.3495 724.5,-18.3495"/>
<text text-anchor="middle" x="796" y="-25.3495" font-family="Helvetica,sans-Serif" font-size="10.00">WatorController.cellUpdate</text>
</a>
</g>
</g>
<!-- Node7&#45;&gt;Node8 -->
<g id="edge8" class="edge"><title>Node7&#45;&gt;Node8</title>
<path fill="none" stroke="midnightblue" d="M698.289,-27.8495C707.002,-27.8495 715.746,-27.8495 724.222,-27.8495"/>
<polygon fill="midnightblue" stroke="midnightblue" points="698.093,-24.3496 688.093,-27.8495 698.093,-31.3496 698.093,-24.3496"/>
</g>
<!-- Node9&#45;&gt;Node2 -->
<g id="edge11" class="edge"><title>Node9&#45;&gt;Node2</title>
<path fill="none" stroke="midnightblue" d="M287.929,-122.85C309.779,-122.85 333.128,-122.85 353.245,-122.85"/>
<polygon fill="midnightblue" stroke="midnightblue" points="287.68,-119.35 277.68,-122.85 287.68,-126.35 287.68,-119.35"/>
</g>
</g>
</svg>
        <g id="navigator" transform="translate(0 0)" fill="#404254">
                <rect fill="#f2f5e9" fill-opacity="0.5" stroke="#606060" stroke-width=".5" x="0" y="0" width="60" height="60"/>
                <use id="zoomplus" xlink:href="#zoomPlus" x="17" y="9" onmousedown="handleZoom(evt,'in')"/>
                <use id="zoomminus" xlink:href="#zoomMin" x="42" y="9" onmousedown="handleZoom(evt,'out')"/>
                <use id="reset" xlink:href="#resetDef" x="30" y="36" onmousedown="handleReset()"/>
                <g id="arrowUp" xlink:href="#dirArrow" transform="translate(30 24)" onmousedown="handlePan(0,-1)">
                  <use xlink:href="#rim" fill="#404040">
                        <set attributeName="fill" to="#808080" begin="arrowUp.mouseover" end="arrowUp.mouseout"/>
                  </use>
                  <path fill="none" stroke="white" stroke-width="1.5" d="M0,-3.0v7 M-2.5,-0.5L0,-3.0L2.5,-0.5"/>
                </g>
                <g id="arrowRight" xlink:href="#dirArrow" transform="rotate(90) translate(36 -43)" onmousedown="handlePan(1,0)">
                  <use xlink:href="#rim" fill="#404040">
                        <set attributeName="fill" to="#808080" begin="arrowRight.mouseover" end="arrowRight.mouseout"/>
                  </use>
                  <path fill="none" stroke="white" stroke-width="1.5" d="M0,-3.0v7 M-2.5,-0.5L0,-3.0L2.5,-0.5"/>
                </g>
                <g id="arrowDown" xlink:href="#dirArrow" transform="rotate(180) translate(-30 -48)" onmousedown="handlePan(0,1)">
                  <use xlink:href="#rim" fill="#404040">
                        <set attributeName="fill" to="#808080" begin="arrowDown.mouseover" end="arrowDown.mouseout"/>
                  </use>
                  <path fill="none" stroke="white" stroke-width="1.5" d="M0,-3.0v7 M-2.5,-0.5L0,-3.0L2.5,-0.5"/>
                </g>
                <g id="arrowLeft" xlink:href="#dirArrow" transform="rotate(270) translate(-36 17)" onmousedown="handlePan(-1,0)">
                  <use xlink:href="#rim" fill="#404040">
                        <set attributeName="fill" to="#808080" begin="arrowLeft.mouseover" end="arrowLeft.mouseout"/>
                  </use>
                  <path fill="none" stroke="white" stroke-width="1.5" d="M0,-3.0v7 M-2.5,-0.5L0,-3.0L2.5,-0.5"/>
                </g>
        </g>
        <svg viewBox="0 0 15 15" width="100%" height="30px" preserveAspectRatio="xMaxYMin meet">
         <g id="arrow_out" transform="scale(0.3 0.3)">
          <a xlink:href="class_grid_data_ad7e26dc80ddc6076df3350df970a359c_icgraph_org.svg" target="_base">
           <rect id="button" ry="5" rx="5" y="6" x="6" height="38" width="38"
                fill="#f2f5e9" fill-opacity="0.5" stroke="#606060" stroke-width="1.0"/>
           <path id="arrow"
             d="M 11.500037,31.436501 C 11.940474,20.09759 22.043105,11.32322 32.158766,21.979434 L 37.068811,17.246167 C 37.068811,17.246167 37.088388,32 37.088388,32 L 22.160133,31.978069 C 22.160133,31.978069 26.997745,27.140456 26.997745,27.140456 C 18.528582,18.264221 13.291696,25.230495 11.500037,31.436501 z"
             style="fill:#404040;"/>
          </a>
         </g>
        </svg>
</svg>
