<?xml version="1.0" encoding="UTF-8" standalone="no"?>
<!DOCTYPE svg PUBLIC "-//W3C//DTD SVG 1.1//EN"
 "http://www.w3.org/Graphics/SVG/1.1/DTD/svg11.dtd">
<!-- Generated by graphviz version 2.36.0 (20140111.2315)
 -->
<!-- Title: GridData.getNewGrid Pages: 1 -->
<svg width="686pt" height="85pt"
 viewBox="0.00 0.00 686.00 85.00" xmlns="http://www.w3.org/2000/svg" xmlns:xlink="http://www.w3.org/1999/xlink">
<g id="graph0" class="graph" transform="scale(1 1) rotate(0) translate(4 81)">
<title>GridData.getNewGrid</title>
<polygon fill="white" stroke="none" points="-4,4 -4,-81 682,-81 682,4 -4,4"/>
<!-- Node1 -->
<g id="node1" class="node"><title>Node1</title>
<polygon fill="#bfbfbf" stroke="black" points="0,-38.5 0,-57.5 118,-57.5 118,-38.5 0,-38.5"/>
<text text-anchor="middle" x="59" y="-45.5" font-family="Helvetica,sans-Serif" font-size="10.00">GridData.getNewGrid</text>
</g>
<!-- Node2 -->
<g id="node2" class="node"><title>Node2</title>
<g id="a_node2"><a xlink:href="../../db/dfe/class_agent_cell.html#a514c16390ad4ab5393ee6044baa360ca" target="_top" xlink:title="AgentCell.cellSwap">
<polygon fill="white" stroke="black" points="372.5,-57.5 372.5,-76.5 479.5,-76.5 479.5,-57.5 372.5,-57.5"/>
<text text-anchor="middle" x="426" y="-64.5" font-family="Helvetica,sans-Serif" font-size="10.00">AgentCell.cellSwap</text>
</a>
</g>
</g>
<!-- Node1&#45;&gt;Node2 -->
<g id="edge1" class="edge"><title>Node1&#45;&gt;Node2</title>
<path fill="none" stroke="midnightblue" d="M108.023,-59.6246C122.689,-62.6548 138.924,-65.4916 154,-67 229.606,-74.5645 317.672,-72.5848 372.387,-70.0923"/>
<polygon fill="midnightblue" stroke="midnightblue" points="108.665,-56.1829 98.1541,-57.5098 107.199,-63.0275 108.665,-56.1829"/>
</g>
<!-- Node4 -->
<g id="node4" class="node"><title>Node4</title>
<g id="a_node4"><a xlink:href="../../db/dfe/class_agent_cell.html#acbc24a5b4b9a1e4ea2236e992e8e36e5" target="_top" xlink:title="AgentCell.leaveCurrentPatch">
<polygon fill="white" stroke="black" points="159.5,-38.5 159.5,-57.5 312.5,-57.5 312.5,-38.5 159.5,-38.5"/>
<text text-anchor="middle" x="236" y="-45.5" font-family="Helvetica,sans-Serif" font-size="10.00">AgentCell.leaveCurrentPatch</text>
</a>
</g>
</g>
<!-- Node1&#45;&gt;Node4 -->
<g id="edge3" class="edge"><title>Node1&#45;&gt;Node4</title>
<path fill="none" stroke="midnightblue" d="M128.28,-48C138.43,-48 148.944,-48 159.236,-48"/>
<polygon fill="midnightblue" stroke="midnightblue" points="128.273,-44.5001 118.272,-48 128.272,-51.5001 128.273,-44.5001"/>
</g>
<!-- Node5 -->
<g id="node5" class="node"><title>Node5</title>
<g id="a_node5"><a xlink:href="../../dc/da7/class_wator_controller.html#ae00870133a4b1cfbfaeecf11ffd7b650" target="_top" xlink:title="WatorController.manipulateCell">
<polygon fill="white" stroke="black" points="154,-0.5 154,-19.5 318,-19.5 318,-0.5 154,-0.5"/>
<text text-anchor="middle" x="236" y="-7.5" font-family="Helvetica,sans-Serif" font-size="10.00">WatorController.manipulateCell</text>
</a>
</g>
</g>
<!-- Node1&#45;&gt;Node5 -->
<g id="edge5" class="edge"><title>Node1&#45;&gt;Node5</title>
<path fill="none" stroke="midnightblue" d="M114.124,-36.2474C138.869,-30.8742 167.803,-24.5914 191.158,-19.5201"/>
<polygon fill="midnightblue" stroke="midnightblue" points="113.189,-32.8686 104.16,-38.411 114.675,-39.7092 113.189,-32.8686"/>
</g>
<!-- Node3 -->
<g id="node3" class="node"><title>Node3</title>
<g id="a_node3"><a xlink:href="../../db/dfe/class_agent_cell.html#a5f787fd7f5bc2db97f956fc36e2e4d91" target="_top" xlink:title="AgentCell.ageOneChronon">
<polygon fill="white" stroke="black" points="534.5,-57.5 534.5,-76.5 677.5,-76.5 677.5,-57.5 534.5,-57.5"/>
<text text-anchor="middle" x="606" y="-64.5" font-family="Helvetica,sans-Serif" font-size="10.00">AgentCell.ageOneChronon</text>
</a>
</g>
</g>
<!-- Node2&#45;&gt;Node3 -->
<g id="edge2" class="edge"><title>Node2&#45;&gt;Node3</title>
<path fill="none" stroke="midnightblue" d="M490.173,-67C504.519,-67 519.845,-67 534.475,-67"/>
<polygon fill="midnightblue" stroke="midnightblue" points="489.924,-63.5001 479.924,-67 489.924,-70.5001 489.924,-63.5001"/>
</g>
<!-- Node4&#45;&gt;Node2 -->
<g id="edge4" class="edge"><title>Node4&#45;&gt;Node2</title>
<path fill="none" stroke="midnightblue" d="M323.049,-56.6964C339.844,-58.3938 356.981,-60.1258 372.294,-61.6733"/>
<polygon fill="midnightblue" stroke="midnightblue" points="322.955,-53.1692 312.654,-55.6459 322.252,-60.1338 322.955,-53.1692"/>
</g>
<!-- Node6 -->
<g id="node6" class="node"><title>Node6</title>
<g id="a_node6"><a xlink:href="../../dc/da7/class_wator_controller.html#aff090131b0a6ebc6dc7a095a3dc2ea36" target="_top" xlink:title="WatorController.cellUpdate">
<polygon fill="white" stroke="black" points="354.5,-0.5 354.5,-19.5 497.5,-19.5 497.5,-0.5 354.5,-0.5"/>
<text text-anchor="middle" x="426" y="-7.5" font-family="Helvetica,sans-Serif" font-size="10.00">WatorController.cellUpdate</text>
</a>
</g>
</g>
<!-- Node5&#45;&gt;Node6 -->
<g id="edge6" class="edge"><title>Node5&#45;&gt;Node6</title>
<path fill="none" stroke="midnightblue" d="M328.289,-10C337.002,-10 345.746,-10 354.222,-10"/>
<polygon fill="midnightblue" stroke="midnightblue" points="328.093,-6.5001 318.093,-10 328.093,-13.5001 328.093,-6.5001"/>
</g>
</g>
</svg>
