<?xml version="1.0" encoding="UTF-8" standalone="no"?>
<!DOCTYPE svg PUBLIC "-//W3C//DTD SVG 1.1//EN"
 "http://www.w3.org/Graphics/SVG/1.1/DTD/svg11.dtd">
<!-- Generated by graphviz version 2.36.0 (20140111.2315)
 -->
<!-- Title: GridData.getCol Pages: 1 -->
<!--zoomable 163 -->
<svg id="main" version="1.1" xmlns="http://www.w3.org/2000/svg" xmlns:xlink="http://www.w3.org/1999/xlink" xml:space="preserve" onload="init(evt)">
<style type="text/css"><![CDATA[
.edge:hover path { stroke: red; }
.edge:hover polygon { stroke: red; fill: red; }
]]></style>
<script type="text/javascript"><![CDATA[
var edges = document.getElementsByTagName('g');
if (edges && edges.length) {
  for (var i=0;i<edges.length;i++) {
    if (edges[i].id.substr(0,4)=='edge') {
      edges[i].setAttribute('class','edge');
    }
  }
}
]]></script>
        <defs>
                <circle id="rim" cx="0" cy="0" r="7"/>
                <circle id="rim2" cx="0" cy="0" r="3.5"/>
                <g id="zoomPlus">
                        <use xlink:href="#rim" fill="#404040">
                                <set attributeName="fill" to="#808080" begin="zoomplus.mouseover" end="zoomplus.mouseout"/>
                        </use>
                        <path d="M-4,0h8M0,-4v8" fill="none" stroke="white" stroke-width="1.5" pointer-events="none"/>
                </g>
                <g id="zoomMin">
                        <use xlink:href="#rim" fill="#404040">
                                <set attributeName="fill" to="#808080" begin="zoomminus.mouseover" end="zoomminus.mouseout"/>
                        </use>
                        <path d="M-4,0h8" fill="none" stroke="white" stroke-width="1.5" pointer-events="none"/>
                </g>
                <g id="dirArrow">
                        <path fill="none" stroke="white" stroke-width="1.5" d="M0,-3.0v7 M-2.5,-0.5L0,-3.0L2.5,-0.5"/>
                </g>
               <g id="resetDef">
                       <use xlink:href="#rim2" fill="#404040">
                               <set attributeName="fill" to="#808080" begin="reset.mouseover" end="reset.mouseout"/>
                       </use>
               </g>
        </defs>

<script type="text/javascript">
var viewWidth = 874;
var viewHeight = 163;
var sectionId = 'dynsection-3';
</script>
<script xlink:href="../../svgpan.js"/>
<svg id="graph" class="graph">
<g id="viewport">
<title>GridData.getCol</title>
<polygon fill="white" stroke="none" points="-4,4 -4,-159.213 870,-159.213 870,4 -4,4"/>
<!-- Node1 -->
<g id="node1" class="node"><title>Node1</title>
<polygon fill="#bfbfbf" stroke="black" points="0.5,-75.6032 0.5,-94.6032 93.5,-94.6032 93.5,-75.6032 0.5,-75.6032"/>
<text text-anchor="middle" x="47" y="-82.6032" font-family="Helvetica,sans-Serif" font-size="10.00">GridData.getCol</text>
</g>
<!-- Node2 -->
<g id="node2" class="node"><title>Node2</title>
<g id="a_node2"><a xlink:href="../../db/dfe/class_agent_cell.html#a514c16390ad4ab5393ee6044baa360ca" target="_top" xlink:title="AgentCell.cellSwap">
<polygon fill="white" stroke="black" points="351.5,-113.603 351.5,-132.603 458.5,-132.603 458.5,-113.603 351.5,-113.603"/>
<text text-anchor="middle" x="405" y="-120.603" font-family="Helvetica,sans-Serif" font-size="10.00">AgentCell.cellSwap</text>
</a>
</g>
</g>
<!-- Node1&#45;&gt;Node2 -->
<g id="edge1" class="edge"><title>Node1&#45;&gt;Node2</title>
<path fill="none" stroke="midnightblue" d="M65.1914,-101.813C80.6996,-115.635 104.874,-134.228 130,-142.103 214.405,-168.557 320.355,-146.697 372.309,-132.651"/>
<polygon fill="midnightblue" stroke="midnightblue" points="67.2369,-98.938 57.5163,-94.7236 62.4871,-104.08 67.2369,-98.938"/>
</g>
<!-- Node4 -->
<g id="node4" class="node"><title>Node4</title>
<g id="a_node4"><a xlink:href="../../db/dfe/class_agent_cell.html#af7a5012dedd1cec2dd1df0ff8995a80d" target="_top" xlink:title="AgentCell.chooseNewLocation">
<polygon fill="white" stroke="black" points="324.5,-75.6032 324.5,-94.6032 485.5,-94.6032 485.5,-75.6032 324.5,-75.6032"/>
<text text-anchor="middle" x="405" y="-82.6032" font-family="Helvetica,sans-Serif" font-size="10.00">AgentCell.chooseNewLocation</text>
</a>
</g>
</g>
<!-- Node1&#45;&gt;Node4 -->
<g id="edge3" class="edge"><title>Node1&#45;&gt;Node4</title>
<path fill="none" stroke="midnightblue" d="M104.107,-85.1032C163.42,-85.1032 257.481,-85.1032 324.436,-85.1032"/>
<polygon fill="midnightblue" stroke="midnightblue" points="103.812,-81.6033 93.812,-85.1032 103.812,-88.6033 103.812,-81.6033"/>
</g>
<!-- Node5 -->
<g id="node5" class="node"><title>Node5</title>
<g id="a_node5"><a xlink:href="../../dc/da7/class_wator_controller.html#a7b71e69d99808906a02cc6689d5e8c15" target="_top" xlink:title="WatorController.getNeighbors">
<polygon fill="white" stroke="black" points="130.5,-37.6032 130.5,-56.6032 287.5,-56.6032 287.5,-37.6032 130.5,-37.6032"/>
<text text-anchor="middle" x="209" y="-44.6032" font-family="Helvetica,sans-Serif" font-size="10.00">WatorController.getNeighbors</text>
</a>
</g>
</g>
<!-- Node1&#45;&gt;Node5 -->
<g id="edge5" class="edge"><title>Node1&#45;&gt;Node5</title>
<path fill="none" stroke="midnightblue" d="M98.3915,-73.1352C120.813,-67.8101 146.847,-61.6269 167.916,-56.6232"/>
<polygon fill="midnightblue" stroke="midnightblue" points="97.2953,-69.7981 88.3748,-75.5141 98.9129,-76.6086 97.2953,-69.7981"/>
</g>
<!-- Node7 -->
<g id="node7" class="node"><title>Node7</title>
<g id="a_node7"><a xlink:href="../../dc/da7/class_wator_controller.html#ae00870133a4b1cfbfaeecf11ffd7b650" target="_top" xlink:title="WatorController.manipulateCell">
<polygon fill="white" stroke="black" points="522,-18.6032 522,-37.6032 686,-37.6032 686,-18.6032 522,-18.6032"/>
<text text-anchor="middle" x="604" y="-25.6032" font-family="Helvetica,sans-Serif" font-size="10.00">WatorController.manipulateCell</text>
</a>
</g>
</g>
<!-- Node1&#45;&gt;Node7 -->
<g id="edge9" class="edge"><title>Node1&#45;&gt;Node7</title>
<path fill="none" stroke="midnightblue" d="M65.1914,-68.393C80.6996,-54.571 104.874,-35.9782 130,-28.1032 278.099,18.3141 465.334,-3.80662 553.195,-18.5649"/>
<polygon fill="midnightblue" stroke="midnightblue" points="62.4871,-66.1263 57.5163,-75.4827 67.2369,-71.2683 62.4871,-66.1263"/>
</g>
<!-- Node9 -->
<g id="node9" class="node"><title>Node9</title>
<g id="a_node9"><a xlink:href="../../db/dfe/class_agent_cell.html#a2557ff9109587534cddc4f31fe16fdca" target="_top" xlink:title="AgentCell.sameLocation">
<polygon fill="white" stroke="black" points="142.5,-113.603 142.5,-132.603 275.5,-132.603 275.5,-113.603 142.5,-113.603"/>
<text text-anchor="middle" x="209" y="-120.603" font-family="Helvetica,sans-Serif" font-size="10.00">AgentCell.sameLocation</text>
</a>
</g>
</g>
<!-- Node1&#45;&gt;Node9 -->
<g id="edge10" class="edge"><title>Node1&#45;&gt;Node9</title>
<path fill="none" stroke="midnightblue" d="M98.3915,-97.0711C120.813,-102.396 146.847,-108.579 167.916,-113.583"/>
<polygon fill="midnightblue" stroke="midnightblue" points="98.9129,-93.5977 88.3748,-94.6922 97.2953,-100.408 98.9129,-93.5977"/>
</g>
<!-- Node3 -->
<g id="node3" class="node"><title>Node3</title>
<g id="a_node3"><a xlink:href="../../db/dfe/class_agent_cell.html#a5f787fd7f5bc2db97f956fc36e2e4d91" target="_top" xlink:title="AgentCell.ageOneChronon">
<polygon fill="white" stroke="black" points="532.5,-94.6032 532.5,-113.603 675.5,-113.603 675.5,-94.6032 532.5,-94.6032"/>
<text text-anchor="middle" x="604" y="-101.603" font-family="Helvetica,sans-Serif" font-size="10.00">AgentCell.ageOneChronon</text>
</a>
</g>
</g>
<!-- Node2&#45;&gt;Node3 -->
<g id="edge2" class="edge"><title>Node2&#45;&gt;Node3</title>
<path fill="none" stroke="midnightblue" d="M468.611,-117.065C488.932,-115.105 511.614,-112.917 532.471,-110.905"/>
<polygon fill="midnightblue" stroke="midnightblue" points="468.151,-113.593 458.534,-118.036 468.823,-120.56 468.151,-113.593"/>
</g>
<!-- Node4&#45;&gt;Node3 -->
<g id="edge4" class="edge"><title>Node4&#45;&gt;Node3</title>
<path fill="none" stroke="midnightblue" d="M495.797,-93.7638C508.056,-94.9461 520.496,-96.1459 532.349,-97.2891"/>
<polygon fill="midnightblue" stroke="midnightblue" points="495.849,-90.2527 485.56,-92.7764 495.177,-97.2203 495.849,-90.2527"/>
</g>
<!-- Node6 -->
<g id="node6" class="node"><title>Node6</title>
<g id="a_node6"><a xlink:href="../../dc/da7/class_wator_controller.html#a14e97f15d6937c3667feb85a2b5d896e" target="_top" xlink:title="WatorController.makeEligible">
<polygon fill="white" stroke="black" points="329,-37.6032 329,-56.6032 481,-56.6032 481,-37.6032 329,-37.6032"/>
<text text-anchor="middle" x="405" y="-44.6032" font-family="Helvetica,sans-Serif" font-size="10.00">WatorController.makeEligible</text>
</a>
</g>
</g>
<!-- Node5&#45;&gt;Node6 -->
<g id="edge6" class="edge"><title>Node5&#45;&gt;Node6</title>
<path fill="none" stroke="midnightblue" d="M297.804,-47.1032C308.162,-47.1032 318.661,-47.1032 328.824,-47.1032"/>
<polygon fill="midnightblue" stroke="midnightblue" points="297.51,-43.6033 287.51,-47.1032 297.51,-50.6033 297.51,-43.6033"/>
</g>
<!-- Node6&#45;&gt;Node7 -->
<g id="edge7" class="edge"><title>Node6&#45;&gt;Node7</title>
<path fill="none" stroke="midnightblue" d="M491.168,-38.889C501.379,-37.9042 511.784,-36.9006 521.934,-35.9217"/>
<polygon fill="midnightblue" stroke="midnightblue" points="490.657,-35.4219 481.039,-39.8659 491.329,-42.3896 490.657,-35.4219"/>
</g>
<!-- Node8 -->
<g id="node8" class="node"><title>Node8</title>
<g id="a_node8"><a xlink:href="../../dc/da7/class_wator_controller.html#aff090131b0a6ebc6dc7a095a3dc2ea36" target="_top" xlink:title="WatorController.cellUpdate">
<polygon fill="white" stroke="black" points="722.5,-18.6032 722.5,-37.6032 865.5,-37.6032 865.5,-18.6032 722.5,-18.6032"/>
<text text-anchor="middle" x="794" y="-25.6032" font-family="Helvetica,sans-Serif" font-size="10.00">WatorController.cellUpdate</text>
</a>
</g>
</g>
<!-- Node7&#45;&gt;Node8 -->
<g id="edge8" class="edge"><title>Node7&#45;&gt;Node8</title>
<path fill="none" stroke="midnightblue" d="M696.289,-28.1032C705.002,-28.1032 713.746,-28.1032 722.222,-28.1032"/>
<polygon fill="midnightblue" stroke="midnightblue" points="696.093,-24.6033 686.093,-28.1032 696.093,-31.6033 696.093,-24.6033"/>
</g>
<!-- Node9&#45;&gt;Node2 -->
<g id="edge11" class="edge"><title>Node9&#45;&gt;Node2</title>
<path fill="none" stroke="midnightblue" d="M285.929,-123.103C307.779,-123.103 331.128,-123.103 351.245,-123.103"/>
<polygon fill="midnightblue" stroke="midnightblue" points="285.68,-119.603 275.68,-123.103 285.68,-126.603 285.68,-119.603"/>
</g>
</g>
</svg>
        <g id="navigator" transform="translate(0 0)" fill="#404254">
                <rect fill="#f2f5e9" fill-opacity="0.5" stroke="#606060" stroke-width=".5" x="0" y="0" width="60" height="60"/>
                <use id="zoomplus" xlink:href="#zoomPlus" x="17" y="9" onmousedown="handleZoom(evt,'in')"/>
                <use id="zoomminus" xlink:href="#zoomMin" x="42" y="9" onmousedown="handleZoom(evt,'out')"/>
                <use id="reset" xlink:href="#resetDef" x="30" y="36" onmousedown="handleReset()"/>
                <g id="arrowUp" xlink:href="#dirArrow" transform="translate(30 24)" onmousedown="handlePan(0,-1)">
                  <use xlink:href="#rim" fill="#404040">
                        <set attributeName="fill" to="#808080" begin="arrowUp.mouseover" end="arrowUp.mouseout"/>
                  </use>
                  <path fill="none" stroke="white" stroke-width="1.5" d="M0,-3.0v7 M-2.5,-0.5L0,-3.0L2.5,-0.5"/>
                </g>
                <g id="arrowRight" xlink:href="#dirArrow" transform="rotate(90) translate(36 -43)" onmousedown="handlePan(1,0)">
                  <use xlink:href="#rim" fill="#404040">
                        <set attributeName="fill" to="#808080" begin="arrowRight.mouseover" end="arrowRight.mouseout"/>
                  </use>
                  <path fill="none" stroke="white" stroke-width="1.5" d="M0,-3.0v7 M-2.5,-0.5L0,-3.0L2.5,-0.5"/>
                </g>
                <g id="arrowDown" xlink:href="#dirArrow" transform="rotate(180) translate(-30 -48)" onmousedown="handlePan(0,1)">
                  <use xlink:href="#rim" fill="#404040">
                        <set attributeName="fill" to="#808080" begin="arrowDown.mouseover" end="arrowDown.mouseout"/>
                  </use>
                  <path fill="none" stroke="white" stroke-width="1.5" d="M0,-3.0v7 M-2.5,-0.5L0,-3.0L2.5,-0.5"/>
                </g>
                <g id="arrowLeft" xlink:href="#dirArrow" transform="rotate(270) translate(-36 17)" onmousedown="handlePan(-1,0)">
                  <use xlink:href="#rim" fill="#404040">
                        <set attributeName="fill" to="#808080" begin="arrowLeft.mouseover" end="arrowLeft.mouseout"/>
                  </use>
                  <path fill="none" stroke="white" stroke-width="1.5" d="M0,-3.0v7 M-2.5,-0.5L0,-3.0L2.5,-0.5"/>
                </g>
        </g>
        <svg viewBox="0 0 15 15" width="100%" height="30px" preserveAspectRatio="xMaxYMin meet">
         <g id="arrow_out" transform="scale(0.3 0.3)">
          <a xlink:href="class_grid_data_a9ce437f0d4ed0e815de6f5b26dfe322f_icgraph_org.svg" target="_base">
           <rect id="button" ry="5" rx="5" y="6" x="6" height="38" width="38"
                fill="#f2f5e9" fill-opacity="0.5" stroke="#606060" stroke-width="1.0"/>
           <path id="arrow"
             d="M 11.500037,31.436501 C 11.940474,20.09759 22.043105,11.32322 32.158766,21.979434 L 37.068811,17.246167 C 37.068811,17.246167 37.088388,32 37.088388,32 L 22.160133,31.978069 C 22.160133,31.978069 26.997745,27.140456 26.997745,27.140456 C 18.528582,18.264221 13.291696,25.230495 11.500037,31.436501 z"
             style="fill:#404040;"/>
          </a>
         </g>
        </svg>
</svg>
