<?xml version="1.0" encoding="UTF-8" standalone="no"?>
<!DOCTYPE svg PUBLIC "-//W3C//DTD SVG 1.1//EN"
 "http://www.w3.org/Graphics/SVG/1.1/DTD/svg11.dtd">
<!-- Generated by graphviz version 2.36.0 (20140111.2315)
 -->
<!-- Title: GridData.getGrid Pages: 1 -->
<svg width="868pt" height="104pt"
 viewBox="0.00 0.00 868.00 104.00" xmlns="http://www.w3.org/2000/svg" xmlns:xlink="http://www.w3.org/1999/xlink">
<g id="graph0" class="graph" transform="scale(1 1) rotate(0) translate(4 100)">
<title>GridData.getGrid</title>
<polygon fill="white" stroke="none" points="-4,4 -4,-100 864,-100 864,4 -4,4"/>
<!-- Node1 -->
<g id="node1" class="node"><title>Node1</title>
<polygon fill="#bfbfbf" stroke="black" points="0,-38.5 0,-57.5 98,-57.5 98,-38.5 0,-38.5"/>
<text text-anchor="middle" x="49" y="-45.5" font-family="Helvetica,sans-Serif" font-size="10.00">GridData.getGrid</text>
</g>
<!-- Node2 -->
<g id="node2" class="node"><title>Node2</title>
<g id="a_node2"><a xlink:href="../../dc/da7/class_wator_controller.html#a7b71e69d99808906a02cc6689d5e8c15" target="_top" xlink:title="WatorController.getNeighbors">
<polygon fill="white" stroke="black" points="134.5,-76.5 134.5,-95.5 291.5,-95.5 291.5,-76.5 134.5,-76.5"/>
<text text-anchor="middle" x="213" y="-83.5" font-family="Helvetica,sans-Serif" font-size="10.00">WatorController.getNeighbors</text>
</a>
</g>
</g>
<!-- Node1&#45;&gt;Node2 -->
<g id="edge1" class="edge"><title>Node1&#45;&gt;Node2</title>
<path fill="none" stroke="midnightblue" d="M100.715,-59.8961C123.486,-65.2374 149.987,-71.4537 171.415,-76.4799"/>
<polygon fill="midnightblue" stroke="midnightblue" points="101.415,-56.4653 90.8794,-57.589 99.8159,-63.2803 101.415,-56.4653"/>
</g>
<!-- Node4 -->
<g id="node4" class="node"><title>Node4</title>
<g id="a_node4"><a xlink:href="../../dc/da7/class_wator_controller.html#ae00870133a4b1cfbfaeecf11ffd7b650" target="_top" xlink:title="WatorController.manipulateCell">
<polygon fill="white" stroke="black" points="516,-57.5 516,-76.5 680,-76.5 680,-57.5 516,-57.5"/>
<text text-anchor="middle" x="598" y="-64.5" font-family="Helvetica,sans-Serif" font-size="10.00">WatorController.manipulateCell</text>
</a>
</g>
</g>
<!-- Node1&#45;&gt;Node4 -->
<g id="edge8" class="edge"><title>Node1&#45;&gt;Node4</title>
<path fill="none" stroke="midnightblue" d="M108.066,-50.0169C205.902,-53.4152 403.828,-60.2902 515.521,-64.1698"/>
<polygon fill="midnightblue" stroke="midnightblue" points="108.179,-46.5188 98.0632,-49.6695 107.936,-53.5146 108.179,-46.5188"/>
</g>
<!-- Node6 -->
<g id="node6" class="node"><title>Node6</title>
<g id="a_node6"><a xlink:href="../../db/dfe/class_agent_cell.html#acbc24a5b4b9a1e4ea2236e992e8e36e5" target="_top" xlink:title="AgentCell.leaveCurrentPatch">
<polygon fill="white" stroke="black" points="136.5,-0.5 136.5,-19.5 289.5,-19.5 289.5,-0.5 136.5,-0.5"/>
<text text-anchor="middle" x="213" y="-7.5" font-family="Helvetica,sans-Serif" font-size="10.00">AgentCell.leaveCurrentPatch</text>
</a>
</g>
</g>
<!-- Node1&#45;&gt;Node6 -->
<g id="edge5" class="edge"><title>Node1&#45;&gt;Node6</title>
<path fill="none" stroke="midnightblue" d="M100.715,-36.1039C123.486,-30.7626 149.987,-24.5463 171.415,-19.5201"/>
<polygon fill="midnightblue" stroke="midnightblue" points="99.8159,-32.7197 90.8794,-38.411 101.415,-39.5347 99.8159,-32.7197"/>
</g>
<!-- Node3 -->
<g id="node3" class="node"><title>Node3</title>
<g id="a_node3"><a xlink:href="../../dc/da7/class_wator_controller.html#a14e97f15d6937c3667feb85a2b5d896e" target="_top" xlink:title="WatorController.makeEligible">
<polygon fill="white" stroke="black" points="328,-76.5 328,-95.5 480,-95.5 480,-76.5 328,-76.5"/>
<text text-anchor="middle" x="404" y="-83.5" font-family="Helvetica,sans-Serif" font-size="10.00">WatorController.makeEligible</text>
</a>
</g>
</g>
<!-- Node2&#45;&gt;Node3 -->
<g id="edge2" class="edge"><title>Node2&#45;&gt;Node3</title>
<path fill="none" stroke="midnightblue" d="M301.812,-86C310.478,-86 319.22,-86 327.743,-86"/>
<polygon fill="midnightblue" stroke="midnightblue" points="301.692,-82.5001 291.692,-86 301.692,-89.5001 301.692,-82.5001"/>
</g>
<!-- Node3&#45;&gt;Node4 -->
<g id="edge3" class="edge"><title>Node3&#45;&gt;Node4</title>
<path fill="none" stroke="midnightblue" d="M490.084,-77.5802C498.687,-76.7289 507.408,-75.8659 515.966,-75.019"/>
<polygon fill="midnightblue" stroke="midnightblue" points="489.664,-74.1046 480.057,-78.5725 490.353,-81.0706 489.664,-74.1046"/>
</g>
<!-- Node5 -->
<g id="node5" class="node"><title>Node5</title>
<g id="a_node5"><a xlink:href="../../dc/da7/class_wator_controller.html#aff090131b0a6ebc6dc7a095a3dc2ea36" target="_top" xlink:title="WatorController.cellUpdate">
<polygon fill="white" stroke="black" points="716.5,-57.5 716.5,-76.5 859.5,-76.5 859.5,-57.5 716.5,-57.5"/>
<text text-anchor="middle" x="788" y="-64.5" font-family="Helvetica,sans-Serif" font-size="10.00">WatorController.cellUpdate</text>
</a>
</g>
</g>
<!-- Node4&#45;&gt;Node5 -->
<g id="edge4" class="edge"><title>Node4&#45;&gt;Node5</title>
<path fill="none" stroke="midnightblue" d="M690.289,-67C699.002,-67 707.746,-67 716.222,-67"/>
<polygon fill="midnightblue" stroke="midnightblue" points="690.093,-63.5001 680.093,-67 690.093,-70.5001 690.093,-63.5001"/>
</g>
<!-- Node7 -->
<g id="node7" class="node"><title>Node7</title>
<g id="a_node7"><a xlink:href="../../db/dfe/class_agent_cell.html#a514c16390ad4ab5393ee6044baa360ca" target="_top" xlink:title="AgentCell.cellSwap">
<polygon fill="white" stroke="black" points="350.5,-0.5 350.5,-19.5 457.5,-19.5 457.5,-0.5 350.5,-0.5"/>
<text text-anchor="middle" x="404" y="-7.5" font-family="Helvetica,sans-Serif" font-size="10.00">AgentCell.cellSwap</text>
</a>
</g>
</g>
<!-- Node6&#45;&gt;Node7 -->
<g id="edge6" class="edge"><title>Node6&#45;&gt;Node7</title>
<path fill="none" stroke="midnightblue" d="M299.614,-10C316.879,-10 334.543,-10 350.273,-10"/>
<polygon fill="midnightblue" stroke="midnightblue" points="299.513,-6.5001 289.513,-10 299.513,-13.5001 299.513,-6.5001"/>
</g>
<!-- Node8 -->
<g id="node8" class="node"><title>Node8</title>
<g id="a_node8"><a xlink:href="../../db/dfe/class_agent_cell.html#a5f787fd7f5bc2db97f956fc36e2e4d91" target="_top" xlink:title="AgentCell.ageOneChronon">
<polygon fill="white" stroke="black" points="526.5,-0.5 526.5,-19.5 669.5,-19.5 669.5,-0.5 526.5,-0.5"/>
<text text-anchor="middle" x="598" y="-7.5" font-family="Helvetica,sans-Serif" font-size="10.00">AgentCell.ageOneChronon</text>
</a>
</g>
</g>
<!-- Node7&#45;&gt;Node8 -->
<g id="edge7" class="edge"><title>Node7&#45;&gt;Node8</title>
<path fill="none" stroke="midnightblue" d="M467.898,-10C486.612,-10 507.239,-10 526.41,-10"/>
<polygon fill="midnightblue" stroke="midnightblue" points="467.719,-6.5001 457.719,-10 467.719,-13.5001 467.719,-6.5001"/>
</g>
</g>
</svg>
