<?xml version="1.0" encoding="UTF-8" standalone="no"?>
<!DOCTYPE svg PUBLIC "-//W3C//DTD SVG 1.1//EN"
 "http://www.w3.org/Graphics/SVG/1.1/DTD/svg11.dtd">
<!-- Generated by graphviz version 2.36.0 (20140111.2315)
 -->
<!-- Title: GridData.updateLocation Pages: 1 -->
<svg width="656pt" height="28pt"
 viewBox="0.00 0.00 656.00 28.00" xmlns="http://www.w3.org/2000/svg" xmlns:xlink="http://www.w3.org/1999/xlink">
<g id="graph0" class="graph" transform="scale(1 1) rotate(0) translate(4 24)">
<title>GridData.updateLocation</title>
<polygon fill="white" stroke="none" points="-4,4 -4,-24 652,-24 652,4 -4,4"/>
<!-- Node1 -->
<g id="node1" class="node"><title>Node1</title>
<polygon fill="#bfbfbf" stroke="black" points="0.5,-0.5 0.5,-19.5 137.5,-19.5 137.5,-0.5 0.5,-0.5"/>
<text text-anchor="middle" x="69" y="-7.5" font-family="Helvetica,sans-Serif" font-size="10.00">GridData.updateLocation</text>
</g>
<!-- Node2 -->
<g id="node2" class="node"><title>Node2</title>
<g id="a_node2"><a xlink:href="../../d7/dd7/class_ground_cell.html#a91c1c12e71e2cd80975836edf8c353d3" target="_top" xlink:title="GroundCell.ageOneChronon">
<polygon fill="white" stroke="black" points="174,-0.5 174,-19.5 324,-19.5 324,-0.5 174,-0.5"/>
<text text-anchor="middle" x="249" y="-7.5" font-family="Helvetica,sans-Serif" font-size="10.00">GroundCell.ageOneChronon</text>
</a>
</g>
</g>
<!-- Node1&#45;&gt;Node2 -->
<g id="edge1" class="edge"><title>Node1&#45;&gt;Node2</title>
<path fill="none" stroke="midnightblue" d="M147.697,-10C156.418,-10 165.286,-10 173.959,-10"/>
<polygon fill="midnightblue" stroke="midnightblue" points="147.548,-6.5001 137.548,-10 147.548,-13.5001 147.548,-6.5001"/>
</g>
<!-- Node3 -->
<g id="node3" class="node"><title>Node3</title>
<g id="a_node3"><a xlink:href="../../db/dfe/class_agent_cell.html#a514c16390ad4ab5393ee6044baa360ca" target="_top" xlink:title="AgentCell.cellSwap">
<polygon fill="white" stroke="black" points="360.5,-0.5 360.5,-19.5 467.5,-19.5 467.5,-0.5 360.5,-0.5"/>
<text text-anchor="middle" x="414" y="-7.5" font-family="Helvetica,sans-Serif" font-size="10.00">AgentCell.cellSwap</text>
</a>
</g>
</g>
<!-- Node2&#45;&gt;Node3 -->
<g id="edge2" class="edge"><title>Node2&#45;&gt;Node3</title>
<path fill="none" stroke="midnightblue" d="M334.573,-10C343.288,-10 351.956,-10 360.177,-10"/>
<polygon fill="midnightblue" stroke="midnightblue" points="334.345,-6.5001 324.345,-10 334.345,-13.5001 334.345,-6.5001"/>
</g>
<!-- Node4 -->
<g id="node4" class="node"><title>Node4</title>
<g id="a_node4"><a xlink:href="../../db/dfe/class_agent_cell.html#a5f787fd7f5bc2db97f956fc36e2e4d91" target="_top" xlink:title="AgentCell.ageOneChronon">
<polygon fill="white" stroke="black" points="504.5,-0.5 504.5,-19.5 647.5,-19.5 647.5,-0.5 504.5,-0.5"/>
<text text-anchor="middle" x="576" y="-7.5" font-family="Helvetica,sans-Serif" font-size="10.00">AgentCell.ageOneChronon</text>
</a>
</g>
</g>
<!-- Node3&#45;&gt;Node4 -->
<g id="edge3" class="edge"><title>Node3&#45;&gt;Node4</title>
<path fill="none" stroke="midnightblue" d="M477.845,-10C486.506,-10 495.448,-10 504.239,-10"/>
<polygon fill="midnightblue" stroke="midnightblue" points="477.833,-6.5001 467.833,-10 477.833,-13.5001 477.833,-6.5001"/>
</g>
</g>
</svg>
