<?xml version="1.0" encoding="UTF-8" standalone="no"?>
<!DOCTYPE svg PUBLIC "-//W3C//DTD SVG 1.1//EN"
 "http://www.w3.org/Graphics/SVG/1.1/DTD/svg11.dtd">
<!-- Generated by graphviz version 2.36.0 (20140111.2315)
 -->
<!-- Title: GroundCell.update Pages: 1 -->
<svg width="766pt" height="104pt"
 viewBox="0.00 0.00 766.00 104.00" xmlns="http://www.w3.org/2000/svg" xmlns:xlink="http://www.w3.org/1999/xlink">
<g id="graph0" class="graph" transform="scale(1 1) rotate(0) translate(4 100)">
<title>GroundCell.update</title>
<polygon fill="white" stroke="none" points="-4,4 -4,-100 762,-100 762,4 -4,4"/>
<!-- Node1 -->
<g id="node1" class="node"><title>Node1</title>
<polygon fill="#bfbfbf" stroke="black" points="0,-57.5 0,-76.5 106,-76.5 106,-57.5 0,-57.5"/>
<text text-anchor="middle" x="53" y="-64.5" font-family="Helvetica,sans-Serif" font-size="10.00">GroundCell.update</text>
</g>
<!-- Node2 -->
<g id="node2" class="node"><title>Node2</title>
<g id="a_node2"><a xlink:href="../../d7/dd7/class_ground_cell.html#a91c1c12e71e2cd80975836edf8c353d3" target="_top" xlink:title="GroundCell.ageOneChronon">
<polygon fill="white" stroke="black" points="282,-76.5 282,-95.5 432,-95.5 432,-76.5 282,-76.5"/>
<text text-anchor="middle" x="357" y="-83.5" font-family="Helvetica,sans-Serif" font-size="10.00">GroundCell.ageOneChronon</text>
</a>
</g>
</g>
<!-- Node1&#45;&gt;Node2 -->
<g id="edge1" class="edge"><title>Node1&#45;&gt;Node2</title>
<path fill="none" stroke="midnightblue" d="M116.521,-70.9334C164.553,-73.9553 231.038,-78.1382 281.771,-81.33"/>
<polygon fill="midnightblue" stroke="midnightblue" points="116.46,-67.4228 106.26,-70.2879 116.02,-74.4089 116.46,-67.4228"/>
</g>
<!-- Node5 -->
<g id="node5" class="node"><title>Node5</title>
<g id="a_node5"><a xlink:href="../../db/dfe/class_agent_cell.html#a3c986c3cc57a5c4de8b2dc037e869675" target="_top" xlink:title="AgentCell.harvest">
<polygon fill="white" stroke="black" points="142.5,-38.5 142.5,-57.5 243.5,-57.5 243.5,-38.5 142.5,-38.5"/>
<text text-anchor="middle" x="193" y="-45.5" font-family="Helvetica,sans-Serif" font-size="10.00">AgentCell.harvest</text>
</a>
</g>
</g>
<!-- Node1&#45;&gt;Node5 -->
<g id="edge4" class="edge"><title>Node1&#45;&gt;Node5</title>
<path fill="none" stroke="midnightblue" d="M116.353,-58.4152C125.112,-57.2093 134.014,-55.9836 142.489,-54.8167"/>
<polygon fill="midnightblue" stroke="midnightblue" points="115.601,-54.9856 106.172,-59.8169 116.556,-61.9202 115.601,-54.9856"/>
</g>
<!-- Node3 -->
<g id="node3" class="node"><title>Node3</title>
<g id="a_node3"><a xlink:href="../../db/dfe/class_agent_cell.html#a514c16390ad4ab5393ee6044baa360ca" target="_top" xlink:title="AgentCell.cellSwap">
<polygon fill="white" stroke="black" points="470.5,-38.5 470.5,-57.5 577.5,-57.5 577.5,-38.5 470.5,-38.5"/>
<text text-anchor="middle" x="524" y="-45.5" font-family="Helvetica,sans-Serif" font-size="10.00">AgentCell.cellSwap</text>
</a>
</g>
</g>
<!-- Node2&#45;&gt;Node3 -->
<g id="edge2" class="edge"><title>Node2&#45;&gt;Node3</title>
<path fill="none" stroke="midnightblue" d="M409.654,-74.1039C432.846,-68.7626 459.838,-62.5463 481.663,-57.5201"/>
<polygon fill="midnightblue" stroke="midnightblue" points="408.596,-70.7559 399.636,-76.411 410.167,-77.5774 408.596,-70.7559"/>
</g>
<!-- Node4 -->
<g id="node4" class="node"><title>Node4</title>
<g id="a_node4"><a xlink:href="../../db/dfe/class_agent_cell.html#a5f787fd7f5bc2db97f956fc36e2e4d91" target="_top" xlink:title="AgentCell.ageOneChronon">
<polygon fill="white" stroke="black" points="614.5,-38.5 614.5,-57.5 757.5,-57.5 757.5,-38.5 614.5,-38.5"/>
<text text-anchor="middle" x="686" y="-45.5" font-family="Helvetica,sans-Serif" font-size="10.00">AgentCell.ageOneChronon</text>
</a>
</g>
</g>
<!-- Node3&#45;&gt;Node4 -->
<g id="edge3" class="edge"><title>Node3&#45;&gt;Node4</title>
<path fill="none" stroke="midnightblue" d="M587.845,-48C596.506,-48 605.448,-48 614.239,-48"/>
<polygon fill="midnightblue" stroke="midnightblue" points="587.833,-44.5001 577.833,-48 587.833,-51.5001 587.833,-44.5001"/>
</g>
<!-- Node5&#45;&gt;Node3 -->
<g id="edge5" class="edge"><title>Node5&#45;&gt;Node3</title>
<path fill="none" stroke="midnightblue" d="M253.989,-48C315.808,-48 411.237,-48 470.257,-48"/>
<polygon fill="midnightblue" stroke="midnightblue" points="253.611,-44.5001 243.611,-48 253.611,-51.5001 253.611,-44.5001"/>
</g>
<!-- Node6 -->
<g id="node6" class="node"><title>Node6</title>
<g id="a_node6"><a xlink:href="../../db/dfe/class_agent_cell.html#acbc24a5b4b9a1e4ea2236e992e8e36e5" target="_top" xlink:title="AgentCell.leaveCurrentPatch">
<polygon fill="white" stroke="black" points="280.5,-0.5 280.5,-19.5 433.5,-19.5 433.5,-0.5 280.5,-0.5"/>
<text text-anchor="middle" x="357" y="-7.5" font-family="Helvetica,sans-Serif" font-size="10.00">AgentCell.leaveCurrentPatch</text>
</a>
</g>
</g>
<!-- Node5&#45;&gt;Node6 -->
<g id="edge6" class="edge"><title>Node5&#45;&gt;Node6</title>
<path fill="none" stroke="midnightblue" d="M244.715,-36.1039C267.486,-30.7626 293.987,-24.5463 315.415,-19.5201"/>
<polygon fill="midnightblue" stroke="midnightblue" points="243.816,-32.7197 234.879,-38.411 245.415,-39.5347 243.816,-32.7197"/>
</g>
<!-- Node6&#45;&gt;Node3 -->
<g id="edge7" class="edge"><title>Node6&#45;&gt;Node3</title>
<path fill="none" stroke="midnightblue" d="M409.654,-21.8961C432.846,-27.2374 459.838,-33.4537 481.663,-38.4799"/>
<polygon fill="midnightblue" stroke="midnightblue" points="410.167,-18.4226 399.636,-19.589 408.596,-25.2441 410.167,-18.4226"/>
</g>
</g>
</svg>
