<?xml version="1.0" encoding="UTF-8" standalone="no"?>
<!DOCTYPE svg PUBLIC "-//W3C//DTD SVG 1.1//EN"
 "http://www.w3.org/Graphics/SVG/1.1/DTD/svg11.dtd">
<!-- Generated by graphviz version 2.36.0 (20140111.2315)
 -->
<!-- Title: GroundCell.ageOneChronon Pages: 1 -->
<svg width="332pt" height="66pt"
 viewBox="0.00 0.00 332.00 66.00" xmlns="http://www.w3.org/2000/svg" xmlns:xlink="http://www.w3.org/1999/xlink">
<g id="graph0" class="graph" transform="scale(1 1) rotate(0) translate(4 62)">
<title>GroundCell.ageOneChronon</title>
<polygon fill="white" stroke="none" points="-4,4 -4,-62 328,-62 328,4 -4,4"/>
<!-- Node1 -->
<g id="node1" class="node"><title>Node1</title>
<polygon fill="#bfbfbf" stroke="black" points="0,-19.5 0,-38.5 150,-38.5 150,-19.5 0,-19.5"/>
<text text-anchor="middle" x="75" y="-26.5" font-family="Helvetica,sans-Serif" font-size="10.00">GroundCell.ageOneChronon</text>
</g>
<!-- Node2 -->
<g id="node2" class="node"><title>Node2</title>
<g id="a_node2"><a xlink:href="../../d7/dd7/class_ground_cell.html#ac6fe60df4b8d2326c5ec6d02a9f94780" target="_top" xlink:title="GroundCell.update">
<polygon fill="white" stroke="black" points="202,-38.5 202,-57.5 308,-57.5 308,-38.5 202,-38.5"/>
<text text-anchor="middle" x="255" y="-45.5" font-family="Helvetica,sans-Serif" font-size="10.00">GroundCell.update</text>
</a>
</g>
</g>
<!-- Node1&#45;&gt;Node2 -->
<g id="edge1" class="edge"><title>Node1&#45;&gt;Node2</title>
<path fill="none" stroke="midnightblue" d="M150.199,-36.9201C164.034,-38.3969 178.36,-39.9261 191.789,-41.3595"/>
<polygon fill="midnightblue" stroke="midnightblue" points="191.545,-44.8532 201.86,-42.4345 192.288,-37.8927 191.545,-44.8532"/>
</g>
<!-- Node3 -->
<g id="node3" class="node"><title>Node3</title>
<g id="a_node3"><a xlink:href="../../dd/dba/class_grid_data.html#a502bda4cc7e122ec0a8e662eb5e5bbb2" target="_top" xlink:title="GridData.updateLocation">
<polygon fill="white" stroke="black" points="186.5,-0.5 186.5,-19.5 323.5,-19.5 323.5,-0.5 186.5,-0.5"/>
<text text-anchor="middle" x="255" y="-7.5" font-family="Helvetica,sans-Serif" font-size="10.00">GridData.updateLocation</text>
</a>
</g>
</g>
<!-- Node1&#45;&gt;Node3 -->
<g id="edge2" class="edge"><title>Node1&#45;&gt;Node3</title>
<path fill="none" stroke="midnightblue" d="M150.199,-21.0799C158.838,-20.1577 167.669,-19.2152 176.352,-18.2882"/>
<polygon fill="midnightblue" stroke="midnightblue" points="176.887,-21.7511 186.459,-17.2094 176.144,-14.7907 176.887,-21.7511"/>
</g>
</g>
</svg>
