<?xml version="1.0" encoding="UTF-8" standalone="no"?>
<!DOCTYPE svg PUBLIC "-//W3C//DTD SVG 1.1//EN"
 "http://www.w3.org/Graphics/SVG/1.1/DTD/svg11.dtd">
<!-- Generated by graphviz version 2.36.0 (20140111.2315)
 -->
<!-- Title: GroundCell.harvest Pages: 1 -->
<svg width="768pt" height="47pt"
 viewBox="0.00 0.00 768.00 47.00" xmlns="http://www.w3.org/2000/svg" xmlns:xlink="http://www.w3.org/1999/xlink">
<g id="graph0" class="graph" transform="scale(1 1) rotate(0) translate(4 43)">
<title>GroundCell.harvest</title>
<polygon fill="white" stroke="none" points="-4,4 -4,-43 764,-43 764,4 -4,4"/>
<!-- Node1 -->
<g id="node1" class="node"><title>Node1</title>
<polygon fill="#bfbfbf" stroke="black" points="0,-19.5 0,-38.5 108,-38.5 108,-19.5 0,-19.5"/>
<text text-anchor="middle" x="54" y="-26.5" font-family="Helvetica,sans-Serif" font-size="10.00">GroundCell.harvest</text>
</g>
<!-- Node2 -->
<g id="node2" class="node"><title>Node2</title>
<g id="a_node2"><a xlink:href="../../db/dfe/class_agent_cell.html#a3c986c3cc57a5c4de8b2dc037e869675" target="_top" xlink:title="AgentCell.harvest">
<polygon fill="white" stroke="black" points="144.5,-19.5 144.5,-38.5 245.5,-38.5 245.5,-19.5 144.5,-19.5"/>
<text text-anchor="middle" x="195" y="-26.5" font-family="Helvetica,sans-Serif" font-size="10.00">AgentCell.harvest</text>
</a>
</g>
</g>
<!-- Node1&#45;&gt;Node2 -->
<g id="edge1" class="edge"><title>Node1&#45;&gt;Node2</title>
<path fill="none" stroke="midnightblue" d="M118.415,-29C127.071,-29 135.855,-29 144.223,-29"/>
<polygon fill="midnightblue" stroke="midnightblue" points="118.344,-25.5001 108.343,-29 118.343,-32.5001 118.344,-25.5001"/>
</g>
<!-- Node3 -->
<g id="node3" class="node"><title>Node3</title>
<g id="a_node3"><a xlink:href="../../db/dfe/class_agent_cell.html#a514c16390ad4ab5393ee6044baa360ca" target="_top" xlink:title="AgentCell.cellSwap">
<polygon fill="white" stroke="black" points="472.5,-19.5 472.5,-38.5 579.5,-38.5 579.5,-19.5 472.5,-19.5"/>
<text text-anchor="middle" x="526" y="-26.5" font-family="Helvetica,sans-Serif" font-size="10.00">AgentCell.cellSwap</text>
</a>
</g>
</g>
<!-- Node2&#45;&gt;Node3 -->
<g id="edge2" class="edge"><title>Node2&#45;&gt;Node3</title>
<path fill="none" stroke="midnightblue" d="M255.989,-29C317.808,-29 413.237,-29 472.257,-29"/>
<polygon fill="midnightblue" stroke="midnightblue" points="255.611,-25.5001 245.611,-29 255.611,-32.5001 255.611,-25.5001"/>
</g>
<!-- Node5 -->
<g id="node5" class="node"><title>Node5</title>
<g id="a_node5"><a xlink:href="../../db/dfe/class_agent_cell.html#acbc24a5b4b9a1e4ea2236e992e8e36e5" target="_top" xlink:title="AgentCell.leaveCurrentPatch">
<polygon fill="white" stroke="black" points="282.5,-0.5 282.5,-19.5 435.5,-19.5 435.5,-0.5 282.5,-0.5"/>
<text text-anchor="middle" x="359" y="-7.5" font-family="Helvetica,sans-Serif" font-size="10.00">AgentCell.leaveCurrentPatch</text>
</a>
</g>
</g>
<!-- Node2&#45;&gt;Node5 -->
<g id="edge4" class="edge"><title>Node2&#45;&gt;Node5</title>
<path fill="none" stroke="midnightblue" d="M255.863,-21.979C264.483,-20.968 273.447,-19.9167 282.325,-18.8755"/>
<polygon fill="midnightblue" stroke="midnightblue" points="255.451,-18.5032 245.927,-23.1443 256.267,-25.4556 255.451,-18.5032"/>
</g>
<!-- Node4 -->
<g id="node4" class="node"><title>Node4</title>
<g id="a_node4"><a xlink:href="../../db/dfe/class_agent_cell.html#a5f787fd7f5bc2db97f956fc36e2e4d91" target="_top" xlink:title="AgentCell.ageOneChronon">
<polygon fill="white" stroke="black" points="616.5,-19.5 616.5,-38.5 759.5,-38.5 759.5,-19.5 616.5,-19.5"/>
<text text-anchor="middle" x="688" y="-26.5" font-family="Helvetica,sans-Serif" font-size="10.00">AgentCell.ageOneChronon</text>
</a>
</g>
</g>
<!-- Node3&#45;&gt;Node4 -->
<g id="edge3" class="edge"><title>Node3&#45;&gt;Node4</title>
<path fill="none" stroke="midnightblue" d="M589.845,-29C598.506,-29 607.448,-29 616.239,-29"/>
<polygon fill="midnightblue" stroke="midnightblue" points="589.833,-25.5001 579.833,-29 589.833,-32.5001 589.833,-25.5001"/>
</g>
<!-- Node5&#45;&gt;Node3 -->
<g id="edge5" class="edge"><title>Node5&#45;&gt;Node3</title>
<path fill="none" stroke="midnightblue" d="M445.908,-19.8925C454.915,-20.9296 463.868,-21.9605 472.336,-22.9356"/>
<polygon fill="midnightblue" stroke="midnightblue" points="446.074,-16.3885 435.739,-18.7215 445.273,-23.3425 446.074,-16.3885"/>
</g>
</g>
</svg>
