<?xml version="1.0" encoding="UTF-8" standalone="no"?>
<!DOCTYPE svg PUBLIC "-//W3C//DTD SVG 1.1//EN"
 "http://www.w3.org/Graphics/SVG/1.1/DTD/svg11.dtd">
<!-- Generated by graphviz version 2.36.0 (20140111.2315)
 -->
<!-- Title: Controller.contains Pages: 1 -->
<svg width="880pt" height="116pt"
 viewBox="0.00 0.00 880.00 116.00" xmlns="http://www.w3.org/2000/svg" xmlns:xlink="http://www.w3.org/1999/xlink">
<g id="graph0" class="graph" transform="scale(1 1) rotate(0) translate(4 112)">
<title>Controller.contains</title>
<polygon fill="white" stroke="none" points="-4,4 -4,-112 876,-112 876,4 -4,4"/>
<!-- Node1 -->
<g id="node1" class="node"><title>Node1</title>
<polygon fill="#bfbfbf" stroke="black" points="0,-44.5 0,-63.5 106,-63.5 106,-44.5 0,-44.5"/>
<text text-anchor="middle" x="53" y="-51.5" font-family="Helvetica,sans-Serif" font-size="10.00">Controller.contains</text>
</g>
<!-- Node2 -->
<g id="node2" class="node"><title>Node2</title>
<g id="a_node2"><a xlink:href="../../dc/da7/class_wator_controller.html#a8a5c6aa913ced9603c3a2064bf758e5e" target="_top" xlink:title="WatorController.getNeighbors">
<polygon fill="white" stroke="black" points="144.5,-88.5 144.5,-107.5 301.5,-107.5 301.5,-88.5 144.5,-88.5"/>
<text text-anchor="middle" x="223" y="-95.5" font-family="Helvetica,sans-Serif" font-size="10.00">WatorController.getNeighbors</text>
</a>
</g>
</g>
<!-- Node1&#45;&gt;Node2 -->
<g id="edge1" class="edge"><title>Node1&#45;&gt;Node2</title>
<path fill="none" stroke="midnightblue" d="M98.1124,-66.228C112.127,-70.0599 127.699,-74.2626 142,-78 155.297,-81.475 169.871,-85.1562 182.895,-88.4003"/>
<polygon fill="midnightblue" stroke="midnightblue" points="98.7931,-62.7855 88.2235,-63.5154 96.9413,-69.5362 98.7931,-62.7855"/>
</g>
<!-- Node6 -->
<g id="node6" class="node"><title>Node6</title>
<g id="a_node6"><a xlink:href="../../db/df8/class_segregation_controller.html#a2253ad6843821c07a63332369bc6db60" target="_top" xlink:title="SegregationController.new\lState">
<polygon fill="white" stroke="black" points="151.5,-39 151.5,-69 294.5,-69 294.5,-39 151.5,-39"/>
<text text-anchor="start" x="159.5" y="-57" font-family="Helvetica,sans-Serif" font-size="10.00">SegregationController.new</text>
<text text-anchor="middle" x="223" y="-46" font-family="Helvetica,sans-Serif" font-size="10.00">State</text>
</a>
</g>
</g>
<!-- Node1&#45;&gt;Node6 -->
<g id="edge5" class="edge"><title>Node1&#45;&gt;Node6</title>
<path fill="none" stroke="midnightblue" d="M116.469,-54C127.812,-54 139.717,-54 151.278,-54"/>
<polygon fill="midnightblue" stroke="midnightblue" points="116.235,-50.5001 106.235,-54 116.235,-57.5001 116.235,-50.5001"/>
</g>
<!-- Node7 -->
<g id="node7" class="node"><title>Node7</title>
<g id="a_node7"><a xlink:href="../../de/d92/class_complex_controller.html#a73007e4decc009d2913c7a1d56287e99" target="_top" xlink:title="ComplexController.runOneSim">
<polygon fill="white" stroke="black" points="142.5,-0.5 142.5,-19.5 303.5,-19.5 303.5,-0.5 142.5,-0.5"/>
<text text-anchor="middle" x="223" y="-7.5" font-family="Helvetica,sans-Serif" font-size="10.00">ComplexController.runOneSim</text>
</a>
</g>
</g>
<!-- Node1&#45;&gt;Node7 -->
<g id="edge6" class="edge"><title>Node1&#45;&gt;Node7</title>
<path fill="none" stroke="midnightblue" d="M98.1124,-41.772C112.127,-37.9401 127.699,-33.7374 142,-30 155.297,-26.525 169.871,-22.8438 182.895,-19.5997"/>
<polygon fill="midnightblue" stroke="midnightblue" points="96.9413,-38.4638 88.2235,-44.4846 98.7931,-45.2145 96.9413,-38.4638"/>
</g>
<!-- Node3 -->
<g id="node3" class="node"><title>Node3</title>
<g id="a_node3"><a xlink:href="../../dc/da7/class_wator_controller.html#ad6ef17a774720254707f22d42c88c781" target="_top" xlink:title="WatorController.makeEligible">
<polygon fill="white" stroke="black" points="340,-88.5 340,-107.5 492,-107.5 492,-88.5 340,-88.5"/>
<text text-anchor="middle" x="416" y="-95.5" font-family="Helvetica,sans-Serif" font-size="10.00">WatorController.makeEligible</text>
</a>
</g>
</g>
<!-- Node2&#45;&gt;Node3 -->
<g id="edge2" class="edge"><title>Node2&#45;&gt;Node3</title>
<path fill="none" stroke="midnightblue" d="M311.801,-98C321.174,-98 330.647,-98 339.854,-98"/>
<polygon fill="midnightblue" stroke="midnightblue" points="311.687,-94.5001 301.687,-98 311.687,-101.5 311.687,-94.5001"/>
</g>
<!-- Node4 -->
<g id="node4" class="node"><title>Node4</title>
<g id="a_node4"><a xlink:href="../../dc/da7/class_wator_controller.html#a8f10cc48fea8314d9ae89e397dac0c79" target="_top" xlink:title="WatorController.manipulateCell">
<polygon fill="white" stroke="black" points="528,-88.5 528,-107.5 692,-107.5 692,-88.5 528,-88.5"/>
<text text-anchor="middle" x="610" y="-95.5" font-family="Helvetica,sans-Serif" font-size="10.00">WatorController.manipulateCell</text>
</a>
</g>
</g>
<!-- Node3&#45;&gt;Node4 -->
<g id="edge3" class="edge"><title>Node3&#45;&gt;Node4</title>
<path fill="none" stroke="midnightblue" d="M502.084,-98C510.687,-98 519.408,-98 527.966,-98"/>
<polygon fill="midnightblue" stroke="midnightblue" points="502.057,-94.5001 492.057,-98 502.057,-101.5 502.057,-94.5001"/>
</g>
<!-- Node5 -->
<g id="node5" class="node"><title>Node5</title>
<g id="a_node5"><a xlink:href="../../dc/da7/class_wator_controller.html#a8487f7764316be081c820425dd43b86d" target="_top" xlink:title="WatorController.cellUpdate">
<polygon fill="white" stroke="black" points="728.5,-88.5 728.5,-107.5 871.5,-107.5 871.5,-88.5 728.5,-88.5"/>
<text text-anchor="middle" x="800" y="-95.5" font-family="Helvetica,sans-Serif" font-size="10.00">WatorController.cellUpdate</text>
</a>
</g>
</g>
<!-- Node4&#45;&gt;Node5 -->
<g id="edge4" class="edge"><title>Node4&#45;&gt;Node5</title>
<path fill="none" stroke="midnightblue" d="M702.289,-98C711.002,-98 719.746,-98 728.222,-98"/>
<polygon fill="midnightblue" stroke="midnightblue" points="702.093,-94.5001 692.093,-98 702.093,-101.5 702.093,-94.5001"/>
</g>
</g>
</svg>
