<?xml version="1.0" encoding="UTF-8" standalone="no"?>
<!DOCTYPE svg PUBLIC "-//W3C//DTD SVG 1.1//EN"
 "http://www.w3.org/Graphics/SVG/1.1/DTD/svg11.dtd">
<!-- Generated by graphviz version 2.36.0 (20140111.2315)
 -->
<!-- Title: Controller.makeCell Pages: 1 -->
<svg width="298pt" height="153pt"
 viewBox="0.00 0.00 298.00 153.00" xmlns="http://www.w3.org/2000/svg" xmlns:xlink="http://www.w3.org/1999/xlink">
<g id="graph0" class="graph" transform="scale(1 1) rotate(0) translate(4 149)">
<title>Controller.makeCell</title>
<polygon fill="white" stroke="none" points="-4,4 -4,-149 294,-149 294,4 -4,4"/>
<!-- Node1 -->
<g id="node1" class="node"><title>Node1</title>
<polygon fill="#bfbfbf" stroke="black" points="0,-68.5 0,-87.5 110,-87.5 110,-68.5 0,-68.5"/>
<text text-anchor="middle" x="55" y="-75.5" font-family="Helvetica,sans-Serif" font-size="10.00">Controller.makeCell</text>
</g>
<!-- Node2 -->
<g id="node2" class="node"><title>Node2</title>
<g id="a_node2"><a xlink:href="../../dc/da7/class_wator_controller.html#a8487f7764316be081c820425dd43b86d" target="_top" xlink:title="WatorController.cellUpdate">
<polygon fill="white" stroke="black" points="146.5,-125.5 146.5,-144.5 289.5,-144.5 289.5,-125.5 146.5,-125.5"/>
<text text-anchor="middle" x="218" y="-132.5" font-family="Helvetica,sans-Serif" font-size="10.00">WatorController.cellUpdate</text>
</a>
</g>
</g>
<!-- Node1&#45;&gt;Node2 -->
<g id="edge1" class="edge"><title>Node1&#45;&gt;Node2</title>
<path fill="none" stroke="midnightblue" d="M85.9814,-91.8865C103.295,-99.594 125.616,-109.007 146,-116 156.018,-119.437 167.003,-122.642 177.275,-125.405"/>
<polygon fill="midnightblue" stroke="midnightblue" points="86.9736,-88.4947 76.4186,-87.5767 84.0974,-94.8765 86.9736,-88.4947"/>
</g>
<!-- Node3 -->
<g id="node3" class="node"><title>Node3</title>
<g id="a_node3"><a xlink:href="../../d5/d1b/class_fire_controller.html#ab4e08aed3cc0e59a18ab11cfc85ba1ad" target="_top" xlink:title="FireController.newState">
<polygon fill="white" stroke="black" points="154.5,-87.5 154.5,-106.5 281.5,-106.5 281.5,-87.5 154.5,-87.5"/>
<text text-anchor="middle" x="218" y="-94.5" font-family="Helvetica,sans-Serif" font-size="10.00">FireController.newState</text>
</a>
</g>
</g>
<!-- Node1&#45;&gt;Node3 -->
<g id="edge2" class="edge"><title>Node1&#45;&gt;Node3</title>
<path fill="none" stroke="midnightblue" d="M120.257,-85.5831C131.527,-86.9131 143.239,-88.2953 154.462,-89.6197"/>
<polygon fill="midnightblue" stroke="midnightblue" points="120.4,-82.0758 110.059,-84.3796 119.579,-89.0275 120.4,-82.0758"/>
</g>
<!-- Node4 -->
<g id="node4" class="node"><title>Node4</title>
<g id="a_node4"><a xlink:href="../../d9/da2/class_life_controller.html#a36d1c0657f422c009b45e38e8676b4c7" target="_top" xlink:title="LifeController.newState">
<polygon fill="white" stroke="black" points="154.5,-49.5 154.5,-68.5 281.5,-68.5 281.5,-49.5 154.5,-49.5"/>
<text text-anchor="middle" x="218" y="-56.5" font-family="Helvetica,sans-Serif" font-size="10.00">LifeController.newState</text>
</a>
</g>
</g>
<!-- Node1&#45;&gt;Node4 -->
<g id="edge3" class="edge"><title>Node1&#45;&gt;Node4</title>
<path fill="none" stroke="midnightblue" d="M120.257,-70.4169C131.527,-69.0869 143.239,-67.7047 154.462,-66.3803"/>
<polygon fill="midnightblue" stroke="midnightblue" points="119.579,-66.9725 110.059,-71.6204 120.4,-73.9242 119.579,-66.9725"/>
</g>
<!-- Node5 -->
<g id="node5" class="node"><title>Node5</title>
<g id="a_node5"><a xlink:href="../../db/df8/class_segregation_controller.html#a2253ad6843821c07a63332369bc6db60" target="_top" xlink:title="SegregationController.new\lState">
<polygon fill="white" stroke="black" points="146.5,-0 146.5,-30 289.5,-30 289.5,-0 146.5,-0"/>
<text text-anchor="start" x="154.5" y="-18" font-family="Helvetica,sans-Serif" font-size="10.00">SegregationController.new</text>
<text text-anchor="middle" x="218" y="-7" font-family="Helvetica,sans-Serif" font-size="10.00">State</text>
</a>
</g>
</g>
<!-- Node1&#45;&gt;Node5 -->
<g id="edge4" class="edge"><title>Node1&#45;&gt;Node5</title>
<path fill="none" stroke="midnightblue" d="M87.2329,-64.26C104.462,-56.8208 126.297,-47.6202 146,-40 154.654,-36.6531 163.969,-33.2397 172.912,-30.0542"/>
<polygon fill="midnightblue" stroke="midnightblue" points="85.4509,-61.2181 77.6723,-68.4114 88.2389,-67.6389 85.4509,-61.2181"/>
</g>
</g>
</svg>
