<?xml version="1.0" encoding="UTF-8" standalone="no"?>
<!DOCTYPE svg PUBLIC "-//W3C//DTD SVG 1.1//EN"
 "http://www.w3.org/Graphics/SVG/1.1/DTD/svg11.dtd">
<!-- Generated by graphviz version 2.36.0 (20140111.2315)
 -->
<!-- Title: Controller.Controller Pages: 1 -->
<svg width="286pt" height="66pt"
 viewBox="0.00 0.00 286.00 66.00" xmlns="http://www.w3.org/2000/svg" xmlns:xlink="http://www.w3.org/1999/xlink">
<g id="graph0" class="graph" transform="scale(1 1) rotate(0) translate(4 62)">
<title>Controller.Controller</title>
<polygon fill="white" stroke="none" points="-4,4 -4,-62 282,-62 282,4 -4,4"/>
<!-- Node1 -->
<g id="node1" class="node"><title>Node1</title>
<polygon fill="#bfbfbf" stroke="black" points="0,-19.5 0,-38.5 112,-38.5 112,-19.5 0,-19.5"/>
<text text-anchor="middle" x="56" y="-26.5" font-family="Helvetica,sans-Serif" font-size="10.00">Controller.Controller</text>
</g>
<!-- Node2 -->
<g id="node2" class="node"><title>Node2</title>
<g id="a_node2"><a xlink:href="../../d8/d87/class_controller.html#a14e0da6e0899dfdaee0c117d4c565605" target="_top" xlink:title="Controller.setBoundary">
<polygon fill="white" stroke="black" points="150,-38.5 150,-57.5 276,-57.5 276,-38.5 150,-38.5"/>
<text text-anchor="middle" x="213" y="-45.5" font-family="Helvetica,sans-Serif" font-size="10.00">Controller.setBoundary</text>
</a>
</g>
</g>
<!-- Node1&#45;&gt;Node2 -->
<g id="edge1" class="edge"><title>Node1&#45;&gt;Node2</title>
<path fill="none" stroke="midnightblue" d="M112.084,-35.7522C121.094,-36.8566 130.546,-38.0153 139.893,-39.1611"/>
<polygon fill="midnightblue" stroke="midnightblue" points="139.617,-42.6534 149.969,-40.3962 140.469,-35.7054 139.617,-42.6534"/>
</g>
<!-- Node3 -->
<g id="node3" class="node"><title>Node3</title>
<g id="a_node3"><a xlink:href="../../d8/d87/class_controller.html#a43e651daca4a289ea0dc4b17bcf7aba0" target="_top" xlink:title="Controller.setNeighbors">
<polygon fill="white" stroke="black" points="148.5,-0.5 148.5,-19.5 277.5,-19.5 277.5,-0.5 148.5,-0.5"/>
<text text-anchor="middle" x="213" y="-7.5" font-family="Helvetica,sans-Serif" font-size="10.00">Controller.setNeighbors</text>
</a>
</g>
</g>
<!-- Node1&#45;&gt;Node3 -->
<g id="edge2" class="edge"><title>Node1&#45;&gt;Node3</title>
<path fill="none" stroke="midnightblue" d="M112.084,-22.2478C120.619,-21.2016 129.55,-20.1067 138.414,-19.0203"/>
<polygon fill="midnightblue" stroke="midnightblue" points="138.867,-22.491 148.367,-17.8002 138.015,-15.543 138.867,-22.491"/>
</g>
</g>
</svg>
