<?xml version="1.0" encoding="UTF-8" standalone="no"?>
<!DOCTYPE svg PUBLIC "-//W3C//DTD SVG 1.1//EN"
 "http://www.w3.org/Graphics/SVG/1.1/DTD/svg11.dtd">
<!-- Generated by graphviz version 2.36.0 (20140111.2315)
 -->
<!-- Title: Controller.runOneSim Pages: 1 -->
<svg width="1162pt" height="130pt"
 viewBox="0.00 0.00 1162.00 129.56" xmlns="http://www.w3.org/2000/svg" xmlns:xlink="http://www.w3.org/1999/xlink">
<g id="graph0" class="graph" transform="scale(1 1) rotate(0) translate(4 125.562)">
<title>Controller.runOneSim</title>
<polygon fill="white" stroke="none" points="-4,4 -4,-125.562 1158,-125.562 1158,4 -4,4"/>
<!-- Node1 -->
<g id="node1" class="node"><title>Node1</title>
<polygon fill="#bfbfbf" stroke="black" points="0.5,-85.5 0.5,-104.5 119.5,-104.5 119.5,-85.5 0.5,-85.5"/>
<text text-anchor="middle" x="60" y="-92.5" font-family="Helvetica,sans-Serif" font-size="10.00">Controller.runOneSim</text>
</g>
<!-- Node2 -->
<g id="node2" class="node"><title>Node2</title>
<g id="a_node2"><a xlink:href="../../d3/dff/class_cell_society.html#a0ff19c30a1cc433d8ea8444f6a5617f1" target="_top" xlink:title="CellSociety.updateGrid">
<polygon fill="white" stroke="black" points="156,-85.5 156,-104.5 280,-104.5 280,-85.5 156,-85.5"/>
<text text-anchor="middle" x="218" y="-92.5" font-family="Helvetica,sans-Serif" font-size="10.00">CellSociety.updateGrid</text>
</a>
</g>
</g>
<!-- Node1&#45;&gt;Node2 -->
<g id="edge1" class="edge"><title>Node1&#45;&gt;Node2</title>
<path fill="none" stroke="midnightblue" d="M129.652,-95C138.356,-95 147.218,-95 155.795,-95"/>
<polygon fill="midnightblue" stroke="midnightblue" points="129.533,-91.5001 119.532,-95 129.532,-98.5001 129.533,-91.5001"/>
</g>
<!-- Node3 -->
<g id="node3" class="node"><title>Node3</title>
<g id="a_node3"><a xlink:href="../../d3/dff/class_cell_society.html#a656ff46d1459fb7f86b42e3c542506ee" target="_top" xlink:title="CellSociety.configureListeners">
<polygon fill="white" stroke="black" points="836,-57.5 836,-76.5 994,-76.5 994,-57.5 836,-57.5"/>
<text text-anchor="middle" x="915" y="-64.5" font-family="Helvetica,sans-Serif" font-size="10.00">CellSociety.configureListeners</text>
</a>
</g>
</g>
<!-- Node2&#45;&gt;Node3 -->
<g id="edge2" class="edge"><title>Node2&#45;&gt;Node3</title>
<path fill="none" stroke="midnightblue" d="M290.143,-104.282C400.251,-116.843 618.215,-134.5 800,-105 833.155,-99.6198 869.696,-85.977 892.252,-76.5924"/>
<polygon fill="midnightblue" stroke="midnightblue" points="290.488,-100.799 280.151,-103.122 289.681,-107.752 290.488,-100.799"/>
</g>
<!-- Node5 -->
<g id="node5" class="node"><title>Node5</title>
<g id="a_node5"><a xlink:href="../../d3/dff/class_cell_society.html#abf13a64ee79f2cb063447b499c695c58" target="_top" xlink:title="CellSociety.start">
<polygon fill="white" stroke="black" points="316.5,-57.5 316.5,-76.5 409.5,-76.5 409.5,-57.5 316.5,-57.5"/>
<text text-anchor="middle" x="363" y="-64.5" font-family="Helvetica,sans-Serif" font-size="10.00">CellSociety.start</text>
</a>
</g>
</g>
<!-- Node2&#45;&gt;Node5 -->
<g id="edge4" class="edge"><title>Node2&#45;&gt;Node5</title>
<path fill="none" stroke="midnightblue" d="M277.93,-83.4613C290.735,-80.954 304.095,-78.338 316.298,-75.9487"/>
<polygon fill="midnightblue" stroke="midnightblue" points="276.954,-80.0859 267.813,-85.4423 278.299,-86.9554 276.954,-80.0859"/>
</g>
<!-- Node4 -->
<g id="node4" class="node"><title>Node4</title>
<g id="a_node4"><a xlink:href="../../d3/dff/class_cell_society.html#ac5e08680a3da358d402461bc25aa1727" target="_top" xlink:title="CellSociety.CellSociety">
<polygon fill="white" stroke="black" points="1030.5,-57.5 1030.5,-76.5 1153.5,-76.5 1153.5,-57.5 1030.5,-57.5"/>
<text text-anchor="middle" x="1092" y="-64.5" font-family="Helvetica,sans-Serif" font-size="10.00">CellSociety.CellSociety</text>
</a>
</g>
</g>
<!-- Node3&#45;&gt;Node4 -->
<g id="edge3" class="edge"><title>Node3&#45;&gt;Node4</title>
<path fill="none" stroke="midnightblue" d="M1004.09,-67C1013.01,-67 1021.92,-67 1030.45,-67"/>
<polygon fill="midnightblue" stroke="midnightblue" points="1004.03,-63.5001 994.032,-67 1004.03,-70.5001 1004.03,-63.5001"/>
</g>
<!-- Node6 -->
<g id="node6" class="node"><title>Node6</title>
<g id="a_node6"><a xlink:href="../../d3/dff/class_cell_society.html#adc5feda3db5472cea4e092d463681033" target="_top" xlink:title="CellSociety.reframeTimeline">
<polygon fill="white" stroke="black" points="446.5,-57.5 446.5,-76.5 595.5,-76.5 595.5,-57.5 446.5,-57.5"/>
<text text-anchor="middle" x="521" y="-64.5" font-family="Helvetica,sans-Serif" font-size="10.00">CellSociety.reframeTimeline</text>
</a>
</g>
</g>
<!-- Node5&#45;&gt;Node6 -->
<g id="edge5" class="edge"><title>Node5&#45;&gt;Node6</title>
<path fill="none" stroke="midnightblue" d="M419.78,-67C428.359,-67 437.329,-67 446.226,-67"/>
<polygon fill="midnightblue" stroke="midnightblue" points="419.541,-63.5001 409.541,-67 419.541,-70.5001 419.541,-63.5001"/>
</g>
<!-- Node9 -->
<g id="node9" class="node"><title>Node9</title>
<g id="a_node9"><a xlink:href="../../d3/dff/class_cell_society.html#ab9e56a2a70e210e021b51e898508329b" target="_top" xlink:title="CellSociety.setupAnimation">
<polygon fill="white" stroke="black" points="448,-9.5 448,-28.5 594,-28.5 594,-9.5 448,-9.5"/>
<text text-anchor="middle" x="521" y="-16.5" font-family="Helvetica,sans-Serif" font-size="10.00">CellSociety.setupAnimation</text>
</a>
</g>
</g>
<!-- Node5&#45;&gt;Node9 -->
<g id="edge10" class="edge"><title>Node5&#45;&gt;Node9</title>
<path fill="none" stroke="midnightblue" d="M404.87,-54.4247C431.143,-46.3405 464.748,-36.0005 488.86,-28.5815"/>
<polygon fill="midnightblue" stroke="midnightblue" points="403.722,-51.1157 395.194,-57.4018 405.781,-57.8061 403.722,-51.1157"/>
</g>
<!-- Node7 -->
<g id="node7" class="node"><title>Node7</title>
<g id="a_node7"><a xlink:href="../../d3/dff/class_cell_society.html#a045267ba1843ca4a47891d7be73c2ac1" target="_top" xlink:title="CellSociety.decreaseFrameRate">
<polygon fill="white" stroke="black" points="632.5,-76.5 632.5,-95.5 799.5,-95.5 799.5,-76.5 632.5,-76.5"/>
<text text-anchor="middle" x="716" y="-83.5" font-family="Helvetica,sans-Serif" font-size="10.00">CellSociety.decreaseFrameRate</text>
</a>
</g>
</g>
<!-- Node6&#45;&gt;Node7 -->
<g id="edge6" class="edge"><title>Node6&#45;&gt;Node7</title>
<path fill="none" stroke="midnightblue" d="M605.487,-75.2189C614.391,-76.0954 623.444,-76.9868 632.338,-77.8623"/>
<polygon fill="midnightblue" stroke="midnightblue" points="605.81,-71.7339 595.516,-74.2373 605.125,-78.7003 605.81,-71.7339"/>
</g>
<!-- Node8 -->
<g id="node8" class="node"><title>Node8</title>
<g id="a_node8"><a xlink:href="../../d3/dff/class_cell_society.html#a8250bfacdaf51dabf6b9d1cafc0ce9b2" target="_top" xlink:title="CellSociety.increaseFrameRate">
<polygon fill="white" stroke="black" points="634.5,-38.5 634.5,-57.5 797.5,-57.5 797.5,-38.5 634.5,-38.5"/>
<text text-anchor="middle" x="716" y="-45.5" font-family="Helvetica,sans-Serif" font-size="10.00">CellSociety.increaseFrameRate</text>
</a>
</g>
</g>
<!-- Node6&#45;&gt;Node8 -->
<g id="edge8" class="edge"><title>Node6&#45;&gt;Node8</title>
<path fill="none" stroke="midnightblue" d="M605.719,-58.7583C615.198,-57.8251 624.845,-56.8753 634.285,-55.946"/>
<polygon fill="midnightblue" stroke="midnightblue" points="605.125,-55.2997 595.516,-59.7627 605.81,-62.2661 605.125,-55.2997"/>
</g>
<!-- Node7&#45;&gt;Node3 -->
<g id="edge7" class="edge"><title>Node7&#45;&gt;Node3</title>
<path fill="none" stroke="midnightblue" d="M809.877,-77.0423C818.593,-76.2017 827.368,-75.3554 835.927,-74.5299"/>
<polygon fill="midnightblue" stroke="midnightblue" points="809.307,-73.5809 799.689,-78.0249 809.979,-80.5486 809.307,-73.5809"/>
</g>
<!-- Node8&#45;&gt;Node3 -->
<g id="edge9" class="edge"><title>Node8&#45;&gt;Node3</title>
<path fill="none" stroke="midnightblue" d="M807.842,-56.7614C817.24,-57.6678 826.733,-58.5834 835.974,-59.4746"/>
<polygon fill="midnightblue" stroke="midnightblue" points="807.986,-53.2591 797.696,-55.7828 807.314,-60.2268 807.986,-53.2591"/>
</g>
<!-- Node10 -->
<g id="node10" class="node"><title>Node10</title>
<g id="a_node10"><a xlink:href="../../d3/dff/class_cell_society.html#af9f22af39a97a58b26126020ca6c8844" target="_top" xlink:title="CellSociety.readNewXML">
<polygon fill="white" stroke="black" points="650,-0.5 650,-19.5 782,-19.5 782,-0.5 650,-0.5"/>
<text text-anchor="middle" x="716" y="-7.5" font-family="Helvetica,sans-Serif" font-size="10.00">CellSociety.readNewXML</text>
</a>
</g>
</g>
<!-- Node9&#45;&gt;Node10 -->
<g id="edge11" class="edge"><title>Node9&#45;&gt;Node10</title>
<path fill="none" stroke="midnightblue" d="M604.552,-15.1504C619.727,-14.4428 635.372,-13.7132 649.943,-13.0337"/>
<polygon fill="midnightblue" stroke="midnightblue" points="603.967,-11.6738 594.141,-15.6359 604.293,-18.6662 603.967,-11.6738"/>
</g>
<!-- Node10&#45;&gt;Node3 -->
<g id="edge12" class="edge"><title>Node10&#45;&gt;Node3</title>
<path fill="none" stroke="midnightblue" d="M772.362,-21.8882C781.628,-24.1025 791.115,-26.5086 800,-29 830.332,-37.5056 864.544,-49.198 887.506,-57.3586"/>
<polygon fill="midnightblue" stroke="midnightblue" points="772.965,-18.4351 762.431,-19.5659 771.371,-25.2512 772.965,-18.4351"/>
</g>
</g>
</svg>
