<?xml version="1.0" encoding="UTF-8" standalone="no"?>
<!DOCTYPE svg PUBLIC "-//W3C//DTD SVG 1.1//EN"
 "http://www.w3.org/Graphics/SVG/1.1/DTD/svg11.dtd">
<!-- Generated by graphviz version 2.36.0 (20140111.2315)
 -->
<!-- Title: XMLParser Pages: 1 -->
<svg width="358pt" height="118pt"
 viewBox="0.00 0.00 358.00 118.00" xmlns="http://www.w3.org/2000/svg" xmlns:xlink="http://www.w3.org/1999/xlink">
<g id="graph0" class="graph" transform="scale(1 1) rotate(0) translate(4 114)">
<title>XMLParser</title>
<polygon fill="white" stroke="none" points="-4,4 -4,-114 354,-114 354,4 -4,4"/>
<!-- Node1 -->
<g id="node1" class="node"><title>Node1</title>
<polygon fill="#bfbfbf" stroke="black" points="147,-0.5 147,-19.5 213,-19.5 213,-0.5 147,-0.5"/>
<text text-anchor="middle" x="180" y="-7.5" font-family="Helvetica,sans-Serif" font-size="10.00">XMLParser</text>
</g>
<!-- Node2 -->
<g id="node2" class="node"><title>Node2</title>
<polygon fill="white" stroke="#bfbfbf" points="0,-79 0,-109 132,-109 132,-79 0,-79"/>
<text text-anchor="start" x="8" y="-97" font-family="Helvetica,sans-Serif" font-size="10.00">List&lt; HashMap&lt; String,</text>
<text text-anchor="middle" x="66" y="-86" font-family="Helvetica,sans-Serif" font-size="10.00"> String &gt; &gt;</text>
</g>
<!-- Node2&#45;&gt;Node1 -->
<g id="edge1" class="edge"><title>Node2&#45;&gt;Node1</title>
<path fill="none" stroke="#9a32cd" stroke-dasharray="5,2" d="M72.7742,-69.3712C76.9909,-58.463 83.4698,-46.1531 93,-38 108.021,-25.149 129.116,-18.4105 146.771,-14.8792"/>
<polygon fill="#9a32cd" stroke="#9a32cd" points="69.4619,-68.2406 69.515,-78.8353 76.0804,-70.5199 69.4619,-68.2406"/>
<text text-anchor="middle" x="134.5" y="-46.5" font-family="Helvetica,sans-Serif" font-size="10.00"> myCellParamList</text>
</g>
<!-- Node3 -->
<g id="node3" class="node"><title>Node3</title>
<polygon fill="white" stroke="#bfbfbf" points="150.5,-84.5 150.5,-103.5 209.5,-103.5 209.5,-84.5 150.5,-84.5"/>
<text text-anchor="middle" x="180" y="-91.5" font-family="Helvetica,sans-Serif" font-size="10.00">NodeList</text>
</g>
<!-- Node3&#45;&gt;Node1 -->
<g id="edge2" class="edge"><title>Node3&#45;&gt;Node1</title>
<path fill="none" stroke="#9a32cd" stroke-dasharray="5,2" d="M180,-73.7589C180,-56.6762 180,-32.4984 180,-19.7123"/>
<polygon fill="#9a32cd" stroke="#9a32cd" points="176.5,-74.2245 180,-84.2246 183.5,-74.2246 176.5,-74.2245"/>
<text text-anchor="middle" x="210.5" y="-46.5" font-family="Helvetica,sans-Serif" font-size="10.00"> myNodeList</text>
</g>
<!-- Node4 -->
<g id="node4" class="node"><title>Node4</title>
<polygon fill="white" stroke="#bfbfbf" points="228,-84.5 228,-103.5 350,-103.5 350,-84.5 228,-84.5"/>
<text text-anchor="middle" x="289" y="-91.5" font-family="Helvetica,sans-Serif" font-size="10.00">Map&lt; String, String &gt;</text>
</g>
<!-- Node4&#45;&gt;Node1 -->
<g id="edge3" class="edge"><title>Node4&#45;&gt;Node1</title>
<path fill="none" stroke="#9a32cd" stroke-dasharray="5,2" d="M278.589,-75.8101C270.635,-63.875 258.726,-48.3238 245,-38 234.356,-29.9938 220.992,-23.9105 209.154,-19.5642"/>
<polygon fill="#9a32cd" stroke="#9a32cd" points="275.758,-77.8802 284.08,-84.4376 281.663,-74.1219 275.758,-77.8802"/>
<text text-anchor="middle" x="299.5" y="-52" font-family="Helvetica,sans-Serif" font-size="10.00"> myInitParam</text>
<text text-anchor="middle" x="299.5" y="-41" font-family="Helvetica,sans-Serif" font-size="10.00">mySimParam</text>
</g>
</g>
</svg>
