<?xml version="1.0" encoding="UTF-8" standalone="no"?>
<!DOCTYPE svg PUBLIC "-//W3C//DTD SVG 1.1//EN"
 "http://www.w3.org/Graphics/SVG/1.1/DTD/svg11.dtd">
<!-- Generated by graphviz version 2.36.0 (20140111.2315)
 -->
<!-- Title: GridData Pages: 1 -->
<svg width="157pt" height="174pt"
 viewBox="0.00 0.00 157.00 174.00" xmlns="http://www.w3.org/2000/svg" xmlns:xlink="http://www.w3.org/1999/xlink">
<g id="graph0" class="graph" transform="scale(1 1) rotate(0) translate(4 170)">
<title>GridData</title>
<polygon fill="white" stroke="none" points="-4,4 -4,-170 153,-170 153,4 -4,4"/>
<!-- Node1 -->
<g id="node1" class="node"><title>Node1</title>
<polygon fill="#bfbfbf" stroke="black" points="31.5,-0.5 31.5,-19.5 90.5,-19.5 90.5,-0.5 31.5,-0.5"/>
<text text-anchor="middle" x="61" y="-7.5" font-family="Helvetica,sans-Serif" font-size="10.00">GridData</text>
</g>
<!-- Node2 -->
<g id="node2" class="node"><title>Node2</title>
<g id="a_node2"><a xlink:href="../../dd/d11/class_cell.html" target="_top" xlink:title="Cell">
<polygon fill="white" stroke="black" points="3,-78.5 3,-97.5 37,-97.5 37,-78.5 3,-78.5"/>
<text text-anchor="middle" x="20" y="-85.5" font-family="Helvetica,sans-Serif" font-size="10.00">Cell</text>
</a>
</g>
</g>
<!-- Node2&#45;&gt;Node1 -->
<g id="edge1" class="edge"><title>Node2&#45;&gt;Node1</title>
<path fill="none" stroke="#9a32cd" stroke-dasharray="5,2" d="M16.9574,-68.3031C16.3016,-58.691 16.9849,-47.1144 22,-38 26.3669,-30.0635 34.1817,-23.9624 41.675,-19.5847"/>
<polygon fill="#9a32cd" stroke="#9a32cd" points="13.5041,-68.9037 18.1632,-78.4191 20.4549,-68.0751 13.5041,-68.9037"/>
<text text-anchor="middle" x="51" y="-52" font-family="Helvetica,sans-Serif" font-size="10.00"> myNewGrid</text>
<text text-anchor="middle" x="51" y="-41" font-family="Helvetica,sans-Serif" font-size="10.00">myGrid</text>
</g>
<!-- Node3 -->
<g id="node3" class="node"><title>Node3</title>
<polygon fill="white" stroke="#bfbfbf" points="-0.5,-146.5 -0.5,-165.5 40.5,-165.5 40.5,-146.5 -0.5,-146.5"/>
<text text-anchor="middle" x="20" y="-153.5" font-family="Helvetica,sans-Serif" font-size="10.00">Color</text>
</g>
<!-- Node3&#45;&gt;Node2 -->
<g id="edge2" class="edge"><title>Node3&#45;&gt;Node2</title>
<path fill="none" stroke="#9a32cd" stroke-dasharray="5,2" d="M20,-136.041C20,-123.472 20,-107.563 20,-97.8411"/>
<polygon fill="#9a32cd" stroke="#9a32cd" points="16.5001,-136.372 20,-146.372 23.5001,-136.372 16.5001,-136.372"/>
<text text-anchor="middle" x="41.5" y="-119.5" font-family="Helvetica,sans-Serif" font-size="10.00"> myColor</text>
</g>
<!-- Node4 -->
<g id="node4" class="node"><title>Node4</title>
<polygon fill="white" stroke="#bfbfbf" points="55,-78.5 55,-97.5 149,-97.5 149,-78.5 55,-78.5"/>
<text text-anchor="middle" x="102" y="-85.5" font-family="Helvetica,sans-Serif" font-size="10.00">List&lt; Integer[]&gt;</text>
</g>
<!-- Node4&#45;&gt;Node1 -->
<g id="edge3" class="edge"><title>Node4&#45;&gt;Node1</title>
<path fill="none" stroke="#9a32cd" stroke-dasharray="5,2" d="M94.8601,-68.9192C90.8948,-59.4901 85.632,-47.8913 80,-38 76.3698,-31.6244 71.6198,-24.8744 67.7773,-19.7183"/>
<polygon fill="#9a32cd" stroke="#9a32cd" points="91.7228,-70.4954 98.7363,-78.4366 98.2058,-67.855 91.7228,-70.4954"/>
<text text-anchor="middle" x="107.5" y="-46.5" font-family="Helvetica,sans-Serif" font-size="10.00"> myList</text>
</g>
</g>
</svg>
