<?xml version="1.0" encoding="UTF-8" standalone="no"?>
<!DOCTYPE svg PUBLIC "-//W3C//DTD SVG 1.1//EN"
 "http://www.w3.org/Graphics/SVG/1.1/DTD/svg11.dtd">
<!-- Generated by graphviz version 2.36.0 (20140111.2315)
 -->
<!-- Title: GridData Pages: 1 -->
<svg width="240pt" height="174pt"
 viewBox="0.00 0.00 240.00 174.00" xmlns="http://www.w3.org/2000/svg" xmlns:xlink="http://www.w3.org/1999/xlink">
<g id="graph0" class="graph" transform="scale(1 1) rotate(0) translate(4 170)">
<title>GridData</title>
<polygon fill="white" stroke="none" points="-4,4 -4,-170 236,-170 236,4 -4,4"/>
<!-- Node1 -->
<g id="node1" class="node"><title>Node1</title>
<polygon fill="#bfbfbf" stroke="black" points="114.5,-0.5 114.5,-19.5 173.5,-19.5 173.5,-0.5 114.5,-0.5"/>
<text text-anchor="middle" x="144" y="-7.5" font-family="Helvetica,sans-Serif" font-size="10.00">GridData</text>
</g>
<!-- Node2 -->
<g id="node2" class="node"><title>Node2</title>
<g id="a_node2"><a xlink:href="../../dd/d11/class_cell.html" target="_top" xlink:title="Cell">
<polygon fill="white" stroke="black" points="86,-78.5 86,-97.5 120,-97.5 120,-78.5 86,-78.5"/>
<text text-anchor="middle" x="103" y="-85.5" font-family="Helvetica,sans-Serif" font-size="10.00">Cell</text>
</a>
</g>
</g>
<!-- Node2&#45;&gt;Node1 -->
<g id="edge1" class="edge"><title>Node2&#45;&gt;Node1</title>
<path fill="none" stroke="#9a32cd" stroke-dasharray="5,2" d="M99.9574,-68.3031C99.3016,-58.691 99.9849,-47.1144 105,-38 109.367,-30.0635 117.182,-23.9624 124.675,-19.5847"/>
<polygon fill="#9a32cd" stroke="#9a32cd" points="96.5041,-68.9037 101.163,-78.4191 103.455,-68.0751 96.5041,-68.9037"/>
<text text-anchor="middle" x="134" y="-52" font-family="Helvetica,sans-Serif" font-size="10.00"> myNewGrid</text>
<text text-anchor="middle" x="134" y="-41" font-family="Helvetica,sans-Serif" font-size="10.00">myGrid</text>
</g>
<!-- Node3 -->
<g id="node3" class="node"><title>Node3</title>
<g id="a_node3"><a xlink:href="../../d2/dc7/class_ground.html" target="_top" xlink:title="Ground">
<polygon fill="white" stroke="black" points="0,-146.5 0,-165.5 52,-165.5 52,-146.5 0,-146.5"/>
<text text-anchor="middle" x="26" y="-153.5" font-family="Helvetica,sans-Serif" font-size="10.00">Ground</text>
</a>
</g>
</g>
<!-- Node3&#45;&gt;Node2 -->
<g id="edge2" class="edge"><title>Node3&#45;&gt;Node2</title>
<path fill="none" stroke="#9a32cd" stroke-dasharray="5,2" d="M31.9326,-136.584C34.9493,-129.46 39.2246,-121.674 45,-116 56.409,-104.791 73.3344,-97.6489 85.9604,-93.5454"/>
<polygon fill="#9a32cd" stroke="#9a32cd" points="28.5543,-135.63 28.3853,-146.223 35.1236,-138.047 28.5543,-135.63"/>
<text text-anchor="middle" x="72" y="-119.5" font-family="Helvetica,sans-Serif" font-size="10.00"> myGround</text>
</g>
<!-- Node4 -->
<g id="node4" class="node"><title>Node4</title>
<polygon fill="white" stroke="#bfbfbf" points="79.5,-146.5 79.5,-165.5 126.5,-165.5 126.5,-146.5 79.5,-146.5"/>
<text text-anchor="middle" x="103" y="-153.5" font-family="Helvetica,sans-Serif" font-size="10.00">Shape</text>
</g>
<!-- Node4&#45;&gt;Node2 -->
<g id="edge3" class="edge"><title>Node4&#45;&gt;Node2</title>
<path fill="none" stroke="#9a32cd" stroke-dasharray="5,2" d="M103,-136.041C103,-123.472 103,-107.563 103,-97.8411"/>
<polygon fill="#9a32cd" stroke="#9a32cd" points="99.5001,-136.372 103,-146.372 106.5,-136.372 99.5001,-136.372"/>
<text text-anchor="middle" x="127.5" y="-119.5" font-family="Helvetica,sans-Serif" font-size="10.00"> myShape</text>
</g>
<!-- Node5 -->
<g id="node5" class="node"><title>Node5</title>
<polygon fill="white" stroke="#bfbfbf" points="154.5,-146.5 154.5,-165.5 195.5,-165.5 195.5,-146.5 154.5,-146.5"/>
<text text-anchor="middle" x="175" y="-153.5" font-family="Helvetica,sans-Serif" font-size="10.00">Color</text>
</g>
<!-- Node5&#45;&gt;Node2 -->
<g id="edge4" class="edge"><title>Node5&#45;&gt;Node2</title>
<path fill="none" stroke="#9a32cd" stroke-dasharray="5,2" d="M167.4,-136.765C163.798,-129.669 158.964,-121.854 153,-116 143.707,-106.877 130.704,-99.9839 120.288,-95.4463"/>
<polygon fill="#9a32cd" stroke="#9a32cd" points="164.437,-138.702 171.784,-146.336 170.802,-135.787 164.437,-138.702"/>
<text text-anchor="middle" x="184.5" y="-119.5" font-family="Helvetica,sans-Serif" font-size="10.00"> myColor</text>
</g>
<!-- Node6 -->
<g id="node6" class="node"><title>Node6</title>
<polygon fill="white" stroke="#bfbfbf" points="138,-78.5 138,-97.5 232,-97.5 232,-78.5 138,-78.5"/>
<text text-anchor="middle" x="185" y="-85.5" font-family="Helvetica,sans-Serif" font-size="10.00">List&lt; Integer[]&gt;</text>
</g>
<!-- Node6&#45;&gt;Node1 -->
<g id="edge5" class="edge"><title>Node6&#45;&gt;Node1</title>
<path fill="none" stroke="#9a32cd" stroke-dasharray="5,2" d="M177.86,-68.9192C173.895,-59.4901 168.632,-47.8913 163,-38 159.37,-31.6244 154.62,-24.8744 150.777,-19.7183"/>
<polygon fill="#9a32cd" stroke="#9a32cd" points="174.723,-70.4954 181.736,-78.4366 181.206,-67.855 174.723,-70.4954"/>
<text text-anchor="middle" x="191.5" y="-46.5" font-family="Helvetica,sans-Serif" font-size="10.00"> myList</text>
</g>
</g>
</svg>
