<?xml version="1.0" encoding="UTF-8" standalone="no"?>
<!DOCTYPE svg PUBLIC "-//W3C//DTD SVG 1.1//EN"
 "http://www.w3.org/Graphics/SVG/1.1/DTD/svg11.dtd">
<!-- Generated by graphviz version 2.36.0 (20140111.2315)
 -->
<!-- Title: GridData Pages: 1 -->
<svg width="196pt" height="174pt"
 viewBox="0.00 0.00 196.00 174.00" xmlns="http://www.w3.org/2000/svg" xmlns:xlink="http://www.w3.org/1999/xlink">
<g id="graph0" class="graph" transform="scale(1 1) rotate(0) translate(4 170)">
<title>GridData</title>
<polygon fill="white" stroke="none" points="-4,4 -4,-170 192,-170 192,4 -4,4"/>
<!-- Node1 -->
<g id="node1" class="node"><title>Node1</title>
<polygon fill="#bfbfbf" stroke="black" points="70.5,-0.5 70.5,-19.5 129.5,-19.5 129.5,-0.5 70.5,-0.5"/>
<text text-anchor="middle" x="100" y="-7.5" font-family="Helvetica,sans-Serif" font-size="10.00">GridData</text>
</g>
<!-- Node2 -->
<g id="node2" class="node"><title>Node2</title>
<g id="a_node2"><a xlink:href="../../dd/d11/class_cell.html" target="_top" xlink:title="Cell">
<polygon fill="white" stroke="black" points="42,-78.5 42,-97.5 76,-97.5 76,-78.5 42,-78.5"/>
<text text-anchor="middle" x="59" y="-85.5" font-family="Helvetica,sans-Serif" font-size="10.00">Cell</text>
</a>
</g>
</g>
<!-- Node2&#45;&gt;Node1 -->
<g id="edge1" class="edge"><title>Node2&#45;&gt;Node1</title>
<path fill="none" stroke="#9a32cd" stroke-dasharray="5,2" d="M55.9574,-68.3031C55.3016,-58.691 55.9849,-47.1144 61,-38 65.3669,-30.0635 73.1817,-23.9624 80.675,-19.5847"/>
<polygon fill="#9a32cd" stroke="#9a32cd" points="52.5041,-68.9037 57.1632,-78.4191 59.4549,-68.0751 52.5041,-68.9037"/>
<text text-anchor="middle" x="90" y="-52" font-family="Helvetica,sans-Serif" font-size="10.00"> myNewGrid</text>
<text text-anchor="middle" x="90" y="-41" font-family="Helvetica,sans-Serif" font-size="10.00">myGrid</text>
</g>
<!-- Node3 -->
<g id="node3" class="node"><title>Node3</title>
<polygon fill="white" stroke="#bfbfbf" points="-0.5,-146.5 -0.5,-165.5 46.5,-165.5 46.5,-146.5 -0.5,-146.5"/>
<text text-anchor="middle" x="23" y="-153.5" font-family="Helvetica,sans-Serif" font-size="10.00">Shape</text>
</g>
<!-- Node3&#45;&gt;Node2 -->
<g id="edge2" class="edge"><title>Node3&#45;&gt;Node2</title>
<path fill="none" stroke="#9a32cd" stroke-dasharray="5,2" d="M20.2518,-136.174C20.0916,-129.489 20.8972,-122.113 24,-116 27.9597,-108.199 35.3334,-101.991 42.2953,-97.5051"/>
<polygon fill="#9a32cd" stroke="#9a32cd" points="16.7937,-136.789 21.1981,-146.425 23.764,-136.146 16.7937,-136.789"/>
<text text-anchor="middle" x="48.5" y="-119.5" font-family="Helvetica,sans-Serif" font-size="10.00"> myShape</text>
</g>
<!-- Node4 -->
<g id="node4" class="node"><title>Node4</title>
<polygon fill="white" stroke="#bfbfbf" points="74.5,-146.5 74.5,-165.5 115.5,-165.5 115.5,-146.5 74.5,-146.5"/>
<text text-anchor="middle" x="95" y="-153.5" font-family="Helvetica,sans-Serif" font-size="10.00">Color</text>
</g>
<!-- Node4&#45;&gt;Node2 -->
<g id="edge3" class="edge"><title>Node4&#45;&gt;Node2</title>
<path fill="none" stroke="#9a32cd" stroke-dasharray="5,2" d="M85.4889,-137.563C78.5172,-124.781 69.3418,-107.96 63.8224,-97.8411"/>
<polygon fill="#9a32cd" stroke="#9a32cd" points="82.4324,-139.269 90.2936,-146.372 88.5777,-135.917 82.4324,-139.269"/>
<text text-anchor="middle" x="101.5" y="-119.5" font-family="Helvetica,sans-Serif" font-size="10.00"> myColor</text>
</g>
<!-- Node5 -->
<g id="node5" class="node"><title>Node5</title>
<polygon fill="white" stroke="#bfbfbf" points="94,-78.5 94,-97.5 188,-97.5 188,-78.5 94,-78.5"/>
<text text-anchor="middle" x="141" y="-85.5" font-family="Helvetica,sans-Serif" font-size="10.00">List&lt; Integer[]&gt;</text>
</g>
<!-- Node5&#45;&gt;Node1 -->
<g id="edge4" class="edge"><title>Node5&#45;&gt;Node1</title>
<path fill="none" stroke="#9a32cd" stroke-dasharray="5,2" d="M133.86,-68.9192C129.895,-59.4901 124.632,-47.8913 119,-38 115.37,-31.6244 110.62,-24.8744 106.777,-19.7183"/>
<polygon fill="#9a32cd" stroke="#9a32cd" points="130.723,-70.4954 137.736,-78.4366 137.206,-67.855 130.723,-70.4954"/>
<text text-anchor="middle" x="146.5" y="-46.5" font-family="Helvetica,sans-Serif" font-size="10.00"> myList</text>
</g>
</g>
</svg>
